# Blender 4.1.1
# www.blender.org
mtllib 1.25m_Firebox1_Collider.mtl
o Cylinder
v 0.000000 0.499527 -0.625000
v 0.161762 0.499527 -0.603704
v 0.312500 0.499527 -0.541266
v 0.441942 0.499527 -0.441942
v 0.561593 -0.670264 -0.312500
v 0.561593 0.499527 -0.312500
v 0.603704 -0.670264 -0.161762
v 0.603704 0.499527 -0.161762
v 0.625000 -0.670264 0.000000
v 0.625000 0.499527 -0.000000
v 0.603704 -0.670264 0.161762
v 0.603704 0.499527 0.161762
v 0.541266 -0.670264 0.312500
v 0.541266 0.499527 0.312500
v 0.441942 -0.670264 0.441942
v 0.441942 0.499527 0.441942
v 0.312500 -0.670264 0.541266
v 0.312500 0.499527 0.541266
v 0.161762 -0.670264 0.603704
v 0.161762 0.499527 0.603704
v 0.000000 -0.670264 0.625000
v 0.000000 0.499527 0.625000
v -0.161762 -0.670264 0.603704
v -0.161762 0.499527 0.603704
v -0.312500 -0.670264 0.541266
v -0.312500 0.499527 0.541266
v -0.441942 -0.670264 0.441942
v -0.441942 0.499527 0.441942
v -0.541266 -0.670264 0.312500
v -0.541266 0.499527 0.312500
v -0.603704 -0.670264 0.161762
v -0.603704 0.499527 0.161762
v -0.625000 -0.670264 0.000000
v -0.625000 0.499527 -0.000000
v -0.603704 -0.670264 -0.161762
v -0.603704 0.499527 -0.161762
v -0.561593 -0.670264 -0.312500
v -0.561593 0.499527 -0.312500
v -0.441942 0.499527 -0.441942
v -0.312500 0.499527 -0.541266
v -0.161762 0.499527 -0.603704
v 0.125305 0.250487 -0.935984
v -0.000000 0.250487 -0.935984
v 0.242071 0.250487 -0.935984
v 0.342341 0.250487 -0.935984
v 0.419280 -0.670264 -0.897102
v 0.419280 0.250487 -0.935984
v -0.419280 0.250487 -0.935984
v -0.419280 -0.670264 -0.897102
v -0.342341 0.250487 -0.935984
v -0.242071 0.250487 -0.935984
v -0.125305 0.250487 -0.935984
v 0.472840 -0.819684 -0.272994
v 0.527385 -0.819684 -0.141312
v 0.545989 -0.819684 0.000000
v 0.527385 -0.819684 0.141312
v 0.472840 -0.819684 0.272995
v 0.386073 -0.819684 0.386073
v 0.272995 -0.819684 0.472840
v 0.141312 -0.819684 0.527385
v -0.000000 -0.819684 0.545989
v -0.141312 -0.819684 0.527385
v -0.272995 -0.819684 0.472840
v -0.386073 -0.819684 0.386073
v -0.472840 -0.819684 0.272995
v -0.527385 -0.819684 0.141312
v -0.545989 -0.819684 0.000000
v -0.527385 -0.819684 -0.141312
v -0.472840 -0.819684 -0.272994
v 0.366275 -0.819684 -0.897102
v -0.366275 -0.819684 -0.897102
vn -0.3658 0.7994 -0.4767
vn -0.0000 0.8002 -0.5997
vn 0.5392 -0.4643 0.7026
vn 0.9749 -0.0000 -0.2225
vn 0.9631 -0.0000 -0.2691
vn 0.9914 -0.0000 -0.1305
vn 0.9914 -0.0000 0.1305
vn 0.9239 -0.0000 0.3827
vn 0.7934 -0.0000 0.6088
vn 0.6088 -0.0000 0.7934
vn 0.3827 -0.0000 0.9239
vn 0.1305 -0.0000 0.9914
vn -0.1305 -0.0000 0.9914
vn -0.3827 -0.0000 0.9239
vn -0.6088 -0.0000 0.7934
vn -0.7934 -0.0000 0.6088
vn -0.9239 -0.0000 0.3827
vn -0.9914 -0.0000 0.1305
vn -0.9914 -0.0000 -0.1305
vn -0.9631 -0.0000 -0.2691
vn -0.0794 0.7935 -0.6034
vn 0.8100 -0.5410 -0.2263
vn -0.0000 1.0000 -0.0000
vn -0.0000 0.8930 -0.4501
vn 0.8182 -0.4643 -0.3389
vn -0.8182 -0.4643 0.3389
vn 0.1156 -0.4643 0.8781
vn -0.0000 0.8457 -0.5336
vn -0.9716 -0.0100 -0.2365
vn -0.0000 0.7806 -0.6251
vn -0.2271 0.8048 -0.5483
vn 0.8781 -0.4643 0.1156
vn -0.8340 -0.5330 -0.1424
vn -0.4521 0.7880 -0.4179
vn 0.2271 0.8048 -0.5483
vn -0.0000 -1.0000 -0.0000
vn 0.9716 -0.0100 -0.2365
vn -0.5392 -0.4643 0.7026
vn -0.8182 -0.4643 -0.3389
vn 0.8182 -0.4643 0.3389
vn -0.1156 -0.4643 0.8781
vn -0.8781 -0.4643 0.1156
vn 0.8781 -0.4643 -0.1156
vn 0.3389 -0.4643 0.8182
vn -0.7026 -0.4643 0.5392
vn 0.9186 -0.3259 -0.2236
vn 0.7026 -0.4643 0.5392
vn -0.3389 -0.4643 0.8182
vn -0.0000 -0.0422 -0.9991
vn -0.8781 -0.4643 -0.1156
vn 0.4521 0.7880 -0.4179
vn 0.3658 0.7994 -0.4767
vn -0.9749 -0.0000 -0.2225
vn 0.0794 0.7935 -0.6034
vn -0.9186 -0.3259 -0.2236
vn -0.8100 -0.5410 -0.2263
vn 0.8340 -0.5330 -0.1424
vn -0.0000 -0.0000 -1.0000
vt 0.130000 0.457846
vt 0.080294 0.419706
vt 0.312117 0.481822
vt 0.370000 0.457846
vt 0.583333 0.500000
vt 0.625000 0.500000
vt 0.833333 0.500000
vt 0.833333 1.000000
vt 0.791667 0.500000
vt 0.791667 1.000000
vt 0.750000 0.500000
vt 0.750000 1.000000
vt 0.708333 0.500000
vt 0.708333 1.000000
vt 0.666667 0.500000
vt 0.666667 1.000000
vt 0.625000 1.000000
vt 0.583333 1.000000
vt 0.541666 0.500000
vt 0.541666 1.000000
vt 0.500000 0.500000
vt 0.500000 1.000000
vt 0.458333 0.500000
vt 0.458333 1.000000
vt 0.416666 0.500000
vt 0.416666 1.000000
vt 0.375000 0.500000
vt 0.375000 1.000000
vt 0.333333 0.500000
vt 0.333333 1.000000
vt 0.291667 0.500000
vt 0.291667 1.000000
vt 0.250000 0.500000
vt 0.250000 1.000000
vt 0.208333 0.500000
vt 0.208333 1.000000
vt 0.166666 0.500000
vt 0.250000 0.490000
vt 0.187883 0.481822
vt 0.010000 0.250000
vt 0.370000 0.042154
vt 0.419706 0.419706
vt 0.457846 0.370000
vt 0.166666 1.000000
vt 0.042154 0.370000
vt 0.750000 0.010000
vt 0.542154 0.130000
vt 0.542154 0.370000
vt 1.000000 1.000000
vt 0.958333 1.000000
vt 0.018178 0.312117
vt 0.018178 0.187883
vt 0.042154 0.130000
vt 0.080294 0.080294
vt 0.130000 0.042154
vt 0.187883 0.018178
vt 0.250000 0.010000
vt 0.312117 0.018178
vt 0.419706 0.080294
vt 0.457846 0.130000
vt 0.481822 0.187883
vt 0.490000 0.250000
vt 0.481822 0.312117
vt 0.957846 0.370000
vt 0.981822 0.312117
vt 0.990000 0.250000
vt 0.510000 0.250000
vt 0.518178 0.312117
vt 0.518178 0.187883
vt 0.630000 0.042154
vt 0.580294 0.080294
vt 0.687883 0.018178
vt 0.870000 0.042154
vt 0.812117 0.018178
vt 0.957846 0.130000
vt 0.919706 0.080294
vt 0.981822 0.187883
vt 0.125000 1.000000
vt 0.083333 1.000000
vt 0.875000 1.000000
vt 0.916667 1.000000
vt 0.041666 1.000000
s 0
f 40/1/1 50/2/1 39/2/1
f 2/3/2 44/4/2 42/3/2
f 17/5/3 58/6/3 15/6/3
f 5/7/4 47/8/4 6/8/4
f 6/8/5 7/9/5 5/7/5
f 8/10/6 9/11/6 7/9/6
f 10/12/7 11/13/7 9/11/7
f 12/14/8 13/15/8 11/13/8
f 14/16/9 15/6/9 13/15/9
f 16/17/10 17/5/10 15/6/10
f 18/18/11 19/19/11 17/5/11
f 20/20/12 21/21/12 19/19/12
f 22/22/13 23/23/13 21/21/13
f 24/24/14 25/25/14 23/23/14
f 26/26/15 27/27/15 25/25/15
f 28/28/16 29/29/16 27/27/16
f 30/30/17 31/31/17 29/29/17
f 32/32/18 33/33/18 31/31/18
f 34/34/19 35/35/19 33/33/19
f 36/36/20 37/37/20 35/35/20
f 1/38/21 52/39/21 41/39/21
f 7/9/22 53/7/22 5/7/22
f 34/40/23 18/41/23 3/4/23
f 4/42/24 47/43/24 45/42/24
f 7/9/25 54/9/25 53/7/25
f 34/34/19 36/36/19 35/35/19
f 30/30/17 32/32/17 31/31/17
f 26/26/15 28/28/15 27/27/15
f 6/8/5 8/10/5 7/9/5
f 22/22/13 24/24/13 23/23/13
f 20/20/12 22/22/12 21/21/12
f 18/18/11 20/20/11 19/19/11
f 16/17/10 18/18/10 17/5/10
f 28/28/16 30/30/16 29/29/16
f 31/31/26 65/29/26 29/29/26
f 32/32/18 34/34/18 33/33/18
f 19/19/27 61/21/27 60/19/27
f 3/4/28 45/42/28 44/4/28
f 37/37/29 48/44/29 49/37/29
f 1/38/30 42/3/30 43/38/30
f 41/39/31 51/1/31 40/1/31
f 11/13/32 55/11/32 9/11/32
f 37/37/33 71/37/33 69/37/33
f 39/2/34 48/45/34 38/45/34
f 2/3/35 3/4/35 44/4/35
f 8/10/6 10/12/6 9/11/6
f 61/46/36 65/47/36 69/48/36
f 10/12/7 12/14/7 11/13/7
f 12/14/8 14/16/8 13/15/8
f 14/16/9 16/17/9 15/6/9
f 40/1/28 51/1/28 50/2/28
f 17/5/3 59/5/3 58/6/3
f 5/7/37 46/7/37 47/8/37
f 25/25/38 64/27/38 63/25/38
f 1/38/23 41/39/23 3/4/23
f 35/35/39 69/37/39 68/35/39
f 11/13/40 57/15/40 56/13/40
f 23/23/41 61/21/41 21/21/41
f 36/36/20 38/44/20 37/37/20
f 31/31/42 67/33/42 66/31/42
f 24/24/14 26/26/14 25/25/14
f 7/9/43 55/11/43 54/9/43
f 19/19/44 59/5/44 17/5/44
f 27/27/45 65/29/45 64/27/45
f 5/7/46 70/7/46 46/7/46
f 1/38/30 43/38/30 52/39/30
f 15/6/47 57/15/47 13/15/47
f 25/25/48 62/23/48 23/23/48
f 43/49/49 42/50/49 46/7/49
f 35/35/50 67/33/50 33/33/50
f 3/4/23 2/3/23 1/38/23
f 41/39/23 40/1/23 3/4/23
f 40/1/23 39/2/23 36/51/23
f 39/2/23 38/45/23 36/51/23
f 36/51/23 34/40/23 40/1/23
f 34/40/23 32/52/23 30/53/23
f 30/53/23 28/54/23 26/55/23
f 26/55/23 24/56/23 18/41/23
f 24/56/23 22/57/23 18/41/23
f 22/57/23 20/58/23 18/41/23
f 18/41/23 16/59/23 14/60/23
f 14/60/23 12/61/23 10/62/23
f 10/62/23 8/63/23 3/4/23
f 8/63/23 6/43/23 4/42/23
f 3/4/23 8/63/23 4/42/23
f 34/40/23 30/53/23 18/41/23
f 30/53/23 26/55/23 18/41/23
f 18/41/23 14/60/23 3/4/23
f 14/60/23 10/62/23 3/4/23
f 3/4/23 40/1/23 34/40/23
f 4/42/51 6/43/51 47/43/51
f 31/31/26 66/31/26 65/29/26
f 19/19/27 21/21/27 61/21/27
f 3/4/52 4/42/52 45/42/52
f 37/37/53 38/44/53 48/44/53
f 1/38/54 2/3/54 42/3/54
f 41/39/2 52/39/2 51/1/2
f 11/13/32 56/13/32 55/11/32
f 37/37/55 49/37/55 71/37/55
f 39/2/24 50/2/24 48/45/24
f 69/48/36 71/48/36 70/64/36
f 53/64/36 54/65/36 69/48/36
f 54/65/36 55/66/36 69/48/36
f 69/48/36 70/64/36 53/64/36
f 67/67/36 68/68/36 65/47/36
f 68/68/36 69/48/36 65/47/36
f 65/47/36 66/69/36 67/67/36
f 63/70/36 64/71/36 65/47/36
f 61/46/36 62/72/36 65/47/36
f 62/72/36 63/70/36 65/47/36
f 59/73/36 60/74/36 61/46/36
f 57/75/36 58/76/36 59/73/36
f 55/66/36 56/77/36 57/75/36
f 57/75/36 59/73/36 69/48/36
f 59/73/36 61/46/36 69/48/36
f 69/48/36 55/66/36 57/75/36
f 25/25/38 27/27/38 64/27/38
f 35/35/56 37/37/56 69/37/56
f 11/13/40 13/15/40 57/15/40
f 23/23/41 62/23/41 61/21/41
f 31/31/42 33/33/42 67/33/42
f 7/9/43 9/11/43 55/11/43
f 19/19/44 60/19/44 59/5/44
f 27/27/45 29/29/45 65/29/45
f 5/7/57 53/7/57 70/7/57
f 15/6/47 58/6/47 57/15/47
f 25/25/48 63/25/48 62/23/48
f 70/7/58 71/37/58 49/37/58
f 49/37/49 48/44/49 50/78/49
f 49/37/49 50/78/49 51/79/49
f 46/7/58 70/7/58 49/37/58
f 45/80/49 47/8/49 46/7/49
f 44/81/49 45/80/49 46/7/49
f 46/7/49 49/37/49 43/49/49
f 49/37/49 51/79/49 52/82/49
f 49/37/49 52/82/49 43/49/49
f 42/50/49 44/81/49 46/7/49
f 35/35/50 68/35/50 67/33/50
