# Blender 4.1.1
# www.blender.org
mtllib 1.25m_Firebox1_Door.mtl
o FireboxDoor
v -0.023871 -0.819161 -0.061097
v 0.023871 -0.819161 -0.061097
v 0.062407 -0.819161 -0.066913
v 0.107832 -0.819161 -0.081439
v 0.137863 -0.819161 -0.096663
v 0.175432 -0.819161 -0.125761
v 0.192285 -0.819161 -0.144897
v 0.214475 -0.819161 -0.186580
v 0.219321 -0.819161 -0.205063
v 0.219321 -0.819161 -0.252095
v 0.214475 -0.819161 -0.270578
v 0.192285 -0.819161 -0.312261
v 0.175432 -0.819161 -0.331397
v 0.137863 -0.819161 -0.360494
v 0.107832 -0.819161 -0.375719
v 0.062407 -0.819161 -0.390245
v 0.023871 -0.819161 -0.396061
v -0.023871 -0.819161 -0.396061
v -0.062407 -0.819161 -0.390245
v -0.107832 -0.819161 -0.375719
v -0.137863 -0.819161 -0.360494
v -0.175432 -0.819161 -0.331397
v -0.192285 -0.819161 -0.312261
v -0.214475 -0.819161 -0.270578
v -0.219321 -0.819161 -0.252095
v -0.219321 -0.819161 -0.205063
v -0.214475 -0.819161 -0.186580
v -0.192285 -0.819161 -0.144897
v -0.175432 -0.819161 -0.125761
v -0.137863 -0.819161 -0.096663
v -0.107832 -0.819161 -0.081439
v -0.062407 -0.819161 -0.066913
v 0.023901 -0.848342 -0.085749
v -0.023901 -0.848342 -0.085749
v 0.023874 -0.823971 -0.061097
v -0.023874 -0.823971 -0.061097
v -0.023896 -0.845077 -0.073424
v 0.023896 -0.845077 -0.073424
v -0.023884 -0.836157 -0.064401
v 0.023884 -0.836157 -0.064401
v 0.100345 -0.848342 -0.104967
v 0.054853 -0.848342 -0.090420
v 0.107836 -0.823971 -0.081440
v 0.062403 -0.823971 -0.066912
v 0.058619 -0.845077 -0.078665
v 0.104099 -0.845077 -0.093208
v 0.061384 -0.836157 -0.070060
v 0.106839 -0.836157 -0.084596
v 0.160269 -0.848342 -0.145418
v 0.122623 -0.848342 -0.116261
v 0.175436 -0.823971 -0.125765
v 0.137858 -0.823971 -0.096661
v 0.130229 -0.845077 -0.106455
v 0.167861 -0.845077 -0.135602
v 0.135808 -0.836157 -0.099282
v 0.173411 -0.836157 -0.128406
v 0.192385 -0.848342 -0.198423
v 0.170126 -0.848342 -0.156611
v 0.214477 -0.823971 -0.186588
v 0.192279 -0.823971 -0.144891
v 0.181189 -0.845077 -0.150736
v 0.203436 -0.845077 -0.192525
v 0.189301 -0.836157 -0.146449
v 0.211521 -0.836157 -0.188188
v 0.194103 -0.848342 -0.252184
v 0.194103 -0.848342 -0.204974
v 0.219318 -0.823971 -0.252105
v 0.219318 -0.823971 -0.205053
v 0.206704 -0.845077 -0.204990
v 0.206704 -0.845077 -0.252168
v 0.215935 -0.836157 -0.205025
v 0.215935 -0.836157 -0.252133
v 0.170126 -0.848342 -0.300547
v 0.192385 -0.848342 -0.258735
v 0.192279 -0.823971 -0.312267
v 0.214477 -0.823971 -0.270570
v 0.203436 -0.845077 -0.264633
v 0.181189 -0.845077 -0.306422
v 0.211521 -0.836157 -0.268970
v 0.189301 -0.836157 -0.310708
v 0.122623 -0.848342 -0.340896
v 0.160269 -0.848342 -0.311739
v 0.137858 -0.823971 -0.360497
v 0.175436 -0.823971 -0.331393
v 0.167861 -0.845077 -0.321556
v 0.130229 -0.845077 -0.350703
v 0.173411 -0.836157 -0.328752
v 0.135808 -0.836157 -0.357875
v 0.054853 -0.848342 -0.366738
v 0.100345 -0.848342 -0.352191
v 0.062403 -0.823971 -0.390246
v 0.107836 -0.823971 -0.375717
v 0.104099 -0.845077 -0.363950
v 0.058619 -0.845077 -0.378493
v 0.106839 -0.836157 -0.372562
v 0.061384 -0.836157 -0.387097
v -0.023901 -0.848342 -0.371409
v 0.023901 -0.848342 -0.371409
v -0.023874 -0.823971 -0.396061
v 0.023874 -0.823971 -0.396061
v 0.023896 -0.845077 -0.383734
v -0.023896 -0.845077 -0.383734
v 0.023884 -0.836157 -0.392757
v -0.023884 -0.836157 -0.392757
v -0.100345 -0.848342 -0.352191
v -0.054853 -0.848342 -0.366738
v -0.107836 -0.823971 -0.375717
v -0.062403 -0.823971 -0.390246
v -0.058619 -0.845077 -0.378493
v -0.104099 -0.845077 -0.363950
v -0.061384 -0.836157 -0.387097
v -0.106839 -0.836157 -0.372562
v -0.160269 -0.848342 -0.311739
v -0.122623 -0.848342 -0.340896
v -0.175436 -0.823971 -0.331393
v -0.137858 -0.823971 -0.360497
v -0.130229 -0.845077 -0.350703
v -0.167861 -0.845077 -0.321556
v -0.135808 -0.836157 -0.357875
v -0.173411 -0.836157 -0.328752
v -0.192385 -0.848342 -0.258735
v -0.170126 -0.848342 -0.300547
v -0.214477 -0.823971 -0.270570
v -0.192279 -0.823971 -0.312267
v -0.181189 -0.845077 -0.306422
v -0.203436 -0.845077 -0.264633
v -0.189301 -0.836157 -0.310708
v -0.211521 -0.836157 -0.268970
v -0.194103 -0.848342 -0.204974
v -0.194103 -0.848342 -0.252184
v -0.219318 -0.823971 -0.205053
v -0.219318 -0.823971 -0.252105
v -0.206704 -0.845077 -0.252168
v -0.206704 -0.845077 -0.204990
v -0.215935 -0.836157 -0.252133
v -0.215935 -0.836157 -0.205025
v -0.170126 -0.848342 -0.156611
v -0.192385 -0.848342 -0.198423
v -0.192279 -0.823971 -0.144891
v -0.214477 -0.823971 -0.186588
v -0.203436 -0.845077 -0.192525
v -0.181189 -0.845077 -0.150736
v -0.211521 -0.836157 -0.188188
v -0.189301 -0.836157 -0.146449
v -0.122623 -0.848342 -0.116261
v -0.160269 -0.848342 -0.145418
v -0.137858 -0.823971 -0.096661
v -0.175436 -0.823971 -0.125765
v -0.167861 -0.845077 -0.135602
v -0.130229 -0.845077 -0.106455
v -0.173411 -0.836157 -0.128406
v -0.135808 -0.836157 -0.099282
v -0.054853 -0.848342 -0.090420
v -0.100345 -0.848342 -0.104967
v -0.062403 -0.823971 -0.066912
v -0.107836 -0.823971 -0.081440
v -0.104099 -0.845077 -0.093208
v -0.058619 -0.845077 -0.078665
v -0.106839 -0.836157 -0.084596
v -0.061384 -0.836157 -0.070060
v 0.029987 -0.819481 -0.018187
v -0.029987 -0.819481 -0.018187
v 0.135460 -0.819481 -0.043741
v 0.078396 -0.819481 -0.025493
v -0.078396 -0.819481 -0.025493
v -0.135460 -0.819481 -0.043741
v 0.220379 -0.819481 -0.099418
v 0.173184 -0.819481 -0.062866
v 0.269425 -0.819481 -0.175819
v 0.241549 -0.819481 -0.123457
v 0.275512 -0.819481 -0.258120
v 0.275512 -0.819481 -0.199038
v 0.241549 -0.819481 -0.333700
v 0.269425 -0.819481 -0.281339
v 0.173184 -0.819481 -0.394292
v 0.220379 -0.819481 -0.357740
v 0.078396 -0.819481 -0.431665
v 0.135460 -0.819481 -0.413417
v -0.029987 -0.819481 -0.438971
v 0.029987 -0.819481 -0.438971
v -0.135460 -0.819481 -0.413417
v -0.078396 -0.819481 -0.431665
v -0.220379 -0.819481 -0.357740
v -0.173184 -0.819481 -0.394292
v -0.269425 -0.819481 -0.281339
v -0.241549 -0.819481 -0.333700
v -0.275512 -0.819481 -0.199038
v -0.275512 -0.819481 -0.258120
v -0.241549 -0.819481 -0.123457
v -0.269425 -0.819481 -0.175819
v -0.173184 -0.819481 -0.062866
v -0.220379 -0.819481 -0.099418
v 0.029987 -0.812551 -0.018187
v -0.029987 -0.812551 -0.018187
v 0.135460 -0.812551 -0.043741
v 0.078396 -0.812551 -0.025493
v -0.078396 -0.812551 -0.025493
v -0.135460 -0.812551 -0.043741
v 0.220379 -0.812551 -0.099418
v 0.173184 -0.812551 -0.062866
v 0.269425 -0.812551 -0.175819
v 0.241549 -0.812551 -0.123457
v 0.275512 -0.812551 -0.258120
v 0.275512 -0.812551 -0.199038
v 0.241549 -0.812551 -0.333700
v 0.269425 -0.812551 -0.281339
v 0.173184 -0.812551 -0.394292
v 0.220379 -0.812551 -0.357740
v 0.078396 -0.812551 -0.431665
v 0.135460 -0.812551 -0.413417
v -0.029987 -0.812551 -0.438971
v 0.029987 -0.812551 -0.438971
v -0.135460 -0.812551 -0.413417
v -0.078396 -0.812551 -0.431665
v -0.220379 -0.812551 -0.357740
v -0.173184 -0.812551 -0.394292
v -0.269425 -0.812551 -0.281339
v -0.241549 -0.812551 -0.333700
v -0.275512 -0.812551 -0.199038
v -0.275512 -0.812551 -0.258120
v -0.241549 -0.812551 -0.123457
v -0.269425 -0.812551 -0.175819
v -0.173184 -0.812551 -0.062866
v -0.220379 -0.812551 -0.099418
v 0.253689 -0.815273 -0.366075
v 0.253689 -0.815273 -0.091082
v 0.261418 -0.816810 -0.366075
v 0.261418 -0.816810 -0.091082
v 0.267970 -0.821188 -0.366075
v 0.267970 -0.821188 -0.091082
v 0.272348 -0.827740 -0.366075
v 0.272348 -0.827740 -0.091082
v 0.273885 -0.835469 -0.366075
v 0.273885 -0.835469 -0.091082
v 0.272348 -0.843197 -0.366075
v 0.272348 -0.843197 -0.091082
v 0.267970 -0.849749 -0.366075
v 0.267970 -0.849749 -0.091082
v 0.261418 -0.854127 -0.366075
v 0.261418 -0.854127 -0.091082
v 0.253689 -0.855665 -0.366075
v 0.253689 -0.855665 -0.091082
v 0.245961 -0.854127 -0.366075
v 0.245961 -0.854127 -0.091082
v 0.239409 -0.849749 -0.366075
v 0.239409 -0.849749 -0.091082
v 0.235031 -0.843197 -0.366075
v 0.235031 -0.843197 -0.091082
v 0.233493 -0.835469 -0.366075
v 0.233493 -0.835469 -0.091082
v 0.235031 -0.827740 -0.366075
v 0.235031 -0.827740 -0.091082
v 0.239409 -0.821188 -0.366075
v 0.239409 -0.821188 -0.091082
v 0.245961 -0.816810 -0.366075
v 0.245961 -0.816810 -0.091082
v 0.253689 -0.815273 -0.328810
v 0.253689 -0.815273 -0.128348
v 0.261418 -0.816810 -0.128348
v 0.261418 -0.816810 -0.328810
v 0.267970 -0.821188 -0.128348
v 0.267970 -0.821188 -0.328810
v 0.272348 -0.827740 -0.128348
v 0.272348 -0.827740 -0.328810
v 0.273885 -0.835469 -0.128348
v 0.273885 -0.835469 -0.328810
v 0.272348 -0.843197 -0.128348
v 0.272348 -0.843197 -0.328810
v 0.267970 -0.849749 -0.128348
v 0.267970 -0.849749 -0.328810
v 0.261418 -0.854127 -0.128348
v 0.261418 -0.854127 -0.328810
v 0.253689 -0.855665 -0.128348
v 0.253689 -0.855665 -0.328810
v 0.245961 -0.854127 -0.128348
v 0.245961 -0.854127 -0.328810
v 0.239409 -0.849749 -0.128348
v 0.239409 -0.849749 -0.328810
v 0.235031 -0.843197 -0.128348
v 0.235031 -0.843197 -0.328810
v 0.233493 -0.835469 -0.128348
v 0.233493 -0.835469 -0.328810
v 0.235031 -0.827740 -0.128348
v 0.235031 -0.827740 -0.328810
v 0.239409 -0.821188 -0.128348
v 0.239409 -0.821188 -0.328810
v 0.245961 -0.816810 -0.128348
v 0.245961 -0.816810 -0.328810
v 0.259056 -0.822511 -0.328810
v 0.263606 -0.825552 -0.328810
v 0.266647 -0.830102 -0.328810
v 0.267714 -0.835469 -0.328810
v 0.266647 -0.840836 -0.328810
v 0.263606 -0.845386 -0.328810
v 0.259056 -0.848426 -0.328810
v 0.253689 -0.849494 -0.328810
v 0.248322 -0.848426 -0.328810
v 0.243772 -0.845386 -0.328810
v 0.240732 -0.840836 -0.328810
v 0.239664 -0.835469 -0.328810
v 0.240732 -0.830102 -0.328810
v 0.243772 -0.825552 -0.328810
v 0.248322 -0.822511 -0.328810
v 0.253689 -0.821444 -0.328810
v 0.253689 -0.821444 -0.128348
v 0.259056 -0.822511 -0.128348
v 0.263606 -0.825552 -0.128348
v 0.266647 -0.830102 -0.128348
v 0.267714 -0.835469 -0.128348
v 0.266647 -0.840836 -0.128348
v 0.263606 -0.845386 -0.128348
v 0.259056 -0.848426 -0.128348
v 0.253689 -0.849494 -0.128348
v 0.248322 -0.848426 -0.128348
v 0.243772 -0.845386 -0.128348
v 0.240732 -0.840836 -0.128348
v 0.239664 -0.835469 -0.128348
v 0.240732 -0.830102 -0.128348
v 0.243772 -0.825552 -0.128348
v 0.248322 -0.822511 -0.128348
v 0.253689 -0.815273 -0.108837
v 0.261418 -0.816810 -0.108837
v 0.267970 -0.821188 -0.108837
v 0.272348 -0.827740 -0.108837
v 0.273885 -0.835469 -0.108837
v 0.272348 -0.843197 -0.108837
v 0.267970 -0.849749 -0.108837
v 0.261418 -0.854127 -0.108837
v 0.253689 -0.855665 -0.108837
v 0.245961 -0.854127 -0.108837
v 0.239409 -0.849749 -0.108837
v 0.235031 -0.843197 -0.108837
v 0.233493 -0.835469 -0.108837
v 0.235031 -0.827740 -0.108837
v 0.239409 -0.821188 -0.108837
v 0.245961 -0.816810 -0.108837
v 0.261418 -0.816810 -0.348321
v 0.267970 -0.821188 -0.348321
v 0.272348 -0.827740 -0.348321
v 0.273885 -0.835469 -0.348321
v 0.272348 -0.843197 -0.348321
v 0.267970 -0.849749 -0.348321
v 0.261418 -0.854127 -0.348321
v 0.253689 -0.855665 -0.348321
v 0.245961 -0.854127 -0.348321
v 0.239409 -0.849749 -0.348321
v 0.235031 -0.843197 -0.348321
v 0.233493 -0.835469 -0.348321
v 0.235031 -0.827740 -0.348321
v 0.239409 -0.821188 -0.348321
v 0.245961 -0.816810 -0.348321
v 0.253689 -0.815273 -0.348321
v 0.259056 -0.822511 -0.108837
v 0.263606 -0.825552 -0.108837
v 0.266647 -0.830102 -0.108837
v 0.267714 -0.835469 -0.108837
v 0.266647 -0.840836 -0.108837
v 0.263606 -0.845386 -0.108837
v 0.259056 -0.848426 -0.108837
v 0.253689 -0.849494 -0.108837
v 0.248322 -0.848426 -0.108837
v 0.243772 -0.845386 -0.108837
v 0.240732 -0.840836 -0.108837
v 0.239664 -0.835469 -0.108837
v 0.240732 -0.830102 -0.108837
v 0.243772 -0.825552 -0.108837
v 0.248322 -0.822511 -0.108837
v 0.253689 -0.821444 -0.108837
v 0.253689 -0.821444 -0.348321
v 0.259056 -0.822511 -0.348321
v 0.263606 -0.825552 -0.348321
v 0.266647 -0.830102 -0.348321
v 0.267714 -0.835469 -0.348321
v 0.266647 -0.840836 -0.348321
v 0.263606 -0.845386 -0.348321
v 0.259056 -0.848426 -0.348321
v 0.253689 -0.849494 -0.348321
v 0.248322 -0.848426 -0.348321
v 0.243772 -0.845386 -0.348321
v 0.240732 -0.840836 -0.348321
v 0.239664 -0.835469 -0.348321
v 0.240732 -0.830102 -0.348321
v 0.243772 -0.825552 -0.348321
v 0.248322 -0.822511 -0.348321
v 0.255800 -0.855791 -0.321000
v 0.255800 -0.855791 -0.273000
v 0.192577 -0.855791 -0.320786
v 0.193777 -0.855791 -0.272801
v 0.159856 -0.855791 -0.319216
v 0.165075 -0.855791 -0.271501
v 0.134003 -0.855791 -0.314711
v 0.146034 -0.855791 -0.268244
v 0.108291 -0.855791 -0.305687
v 0.128828 -0.855791 -0.262302
v 0.084295 -0.855791 -0.290932
v 0.114514 -0.855791 -0.253638
v 0.064745 -0.855791 -0.270075
v 0.104638 -0.855791 -0.243382
v 0.053133 -0.855791 -0.243726
v 0.100069 -0.855791 -0.233677
v 0.053149 -0.855791 -0.214902
v 0.100053 -0.855791 -0.225101
v 0.064838 -0.855791 -0.188792
v 0.104545 -0.855791 -0.215762
v 0.084291 -0.855791 -0.168309
v 0.114519 -0.855791 -0.205596
v 0.107914 -0.855791 -0.153522
v 0.129205 -0.855791 -0.196542
v 0.133331 -0.855791 -0.143845
v 0.146706 -0.855791 -0.189944
v 0.159325 -0.855791 -0.138496
v 0.165606 -0.855791 -0.186083
v 0.192401 -0.855791 -0.136454
v 0.193952 -0.855791 -0.184429
v 0.255800 -0.855791 -0.136158
v 0.255800 -0.855791 -0.184158
v -0.239369 -0.815137 -0.260235
v -0.268598 -0.815137 -0.231006
v -0.253983 -0.815137 -0.256319
v -0.264682 -0.815137 -0.245620
v -0.268598 -0.815137 -0.226152
v -0.239369 -0.815137 -0.196923
v -0.264682 -0.815137 -0.211538
v -0.253983 -0.815137 -0.200839
v -0.143483 -0.815137 -0.231006
v -0.172712 -0.815137 -0.260235
v -0.147399 -0.815137 -0.245620
v -0.158097 -0.815137 -0.256319
v -0.172712 -0.815137 -0.196923
v -0.143483 -0.815137 -0.226152
v -0.158097 -0.815137 -0.200839
v -0.147399 -0.815137 -0.211538
v -0.256284 -0.865421 -0.229384
v -0.268598 -0.853107 -0.231006
v -0.237748 -0.865421 -0.247921
v -0.239369 -0.853107 -0.260235
v -0.253642 -0.865421 -0.239246
v -0.264682 -0.853107 -0.245620
v -0.247609 -0.865421 -0.245278
v -0.253983 -0.853107 -0.256319
v -0.237748 -0.865421 -0.209237
v -0.239369 -0.853107 -0.196923
v -0.256284 -0.865421 -0.227773
v -0.268598 -0.853107 -0.226152
v -0.247609 -0.865421 -0.211879
v -0.253983 -0.853107 -0.200839
v -0.253642 -0.865421 -0.217912
v -0.264682 -0.853107 -0.211538
v -0.174333 -0.865421 -0.247921
v -0.172712 -0.853107 -0.260235
v -0.155797 -0.865421 -0.229384
v -0.143483 -0.853107 -0.231006
v -0.164471 -0.865421 -0.245278
v -0.158097 -0.853107 -0.256319
v -0.158439 -0.865421 -0.239246
v -0.147399 -0.853107 -0.245620
v -0.155797 -0.865421 -0.227773
v -0.143483 -0.853107 -0.226152
v -0.174333 -0.865421 -0.209237
v -0.172712 -0.853107 -0.196923
v -0.158439 -0.865421 -0.217912
v -0.147399 -0.853107 -0.211538
v -0.164471 -0.865421 -0.211879
v -0.158097 -0.853107 -0.200839
v 0.255800 -0.848026 -0.321000
v 0.255800 -0.848026 -0.273000
v 0.192577 -0.848026 -0.320786
v 0.193777 -0.848026 -0.272801
v 0.159856 -0.848026 -0.319216
v 0.165075 -0.848026 -0.271501
v 0.134003 -0.848026 -0.314711
v 0.146034 -0.848026 -0.268244
v 0.108291 -0.848026 -0.305687
v 0.128828 -0.848026 -0.262302
v 0.084295 -0.848026 -0.290932
v 0.114514 -0.848026 -0.253638
v 0.064745 -0.848026 -0.270075
v 0.104638 -0.848026 -0.243382
v 0.053133 -0.848026 -0.243726
v 0.100069 -0.848026 -0.233677
v 0.053149 -0.848026 -0.214902
v 0.100053 -0.848026 -0.225101
v 0.064838 -0.848026 -0.188792
v 0.104545 -0.848026 -0.215762
v 0.084291 -0.848026 -0.168309
v 0.114519 -0.848026 -0.205596
v 0.107914 -0.848026 -0.153522
v 0.129205 -0.848026 -0.196542
v 0.133331 -0.848026 -0.143845
v 0.146706 -0.848026 -0.189944
v 0.159325 -0.848026 -0.138496
v 0.165606 -0.848026 -0.186083
v 0.192401 -0.848026 -0.136454
v 0.193952 -0.848026 -0.184429
v 0.255800 -0.848026 -0.136158
v 0.255800 -0.848026 -0.184158
vn 0.0748 -0.0001 0.9972
vn 0.0749 -0.0001 0.9972
vn 0.2276 -0.0001 0.9738
vn 0.2277 -0.0001 0.9737
vn 0.9313 -0.0002 0.3643
vn 0.9314 -0.0002 0.3641
vn 0.9918 -0.0003 0.1280
vn 0.9918 -0.0003 0.1277
vn 0.9918 -0.0003 -0.1277
vn 0.9918 -0.0003 -0.1280
vn 0.9314 -0.0002 -0.3641
vn 0.9313 -0.0002 -0.3643
vn 0.8222 -0.0002 -0.5692
vn 0.8221 -0.0002 -0.5694
vn 0.6845 -0.0001 -0.7290
vn 0.6844 -0.0001 -0.7291
vn 0.5347 -0.0001 -0.8450
vn 0.5346 -0.0001 -0.8451
vn 0.3796 -0.0001 -0.9251
vn 0.3796 -0.0001 -0.9252
vn 0.2277 -0.0001 -0.9737
vn 0.2276 -0.0001 -0.9738
vn 0.0749 -0.0001 -0.9972
vn 0.0748 -0.0001 -0.9972
vn -0.0748 -0.0001 -0.9972
vn -0.0749 -0.0001 -0.9972
vn -0.2276 -0.0001 -0.9738
vn -0.2277 -0.0001 -0.9737
vn -0.3796 -0.0001 -0.9252
vn -0.3796 -0.0001 -0.9251
vn -0.5346 -0.0001 -0.8451
vn -0.5347 -0.0001 -0.8450
vn -0.6844 -0.0001 -0.7291
vn -0.6845 -0.0001 -0.7290
vn -0.8221 -0.0002 -0.5694
vn -0.8222 -0.0002 -0.5692
vn -0.9313 -0.0002 -0.3643
vn -0.9314 -0.0002 -0.3641
vn -0.9918 -0.0003 -0.1280
vn -0.9918 -0.0003 -0.1277
vn -0.9918 -0.0003 0.1277
vn -0.9918 -0.0003 0.1280
vn -0.9314 -0.0002 0.3641
vn -0.9313 -0.0002 0.3643
vn -0.8222 -0.0002 0.5692
vn -0.8221 -0.0002 0.5694
vn -0.6845 -0.0001 0.7290
vn -0.6844 -0.0001 0.7291
vn -0.5347 -0.0001 0.8450
vn -0.5346 -0.0001 0.8451
vn -0.3796 -0.0001 0.9251
vn -0.3796 -0.0001 0.9252
vn -0.0385 -0.8623 0.5049
vn -0.1146 -0.8622 0.4935
vn -0.0304 -0.9907 0.1324
vn -0.0106 -0.9908 0.1352
vn 0.3796 -0.0001 0.9252
vn 0.3796 -0.0001 0.9251
vn 0.5346 -0.0001 0.8451
vn 0.5347 -0.0001 0.8450
vn 0.6844 -0.0001 0.7291
vn 0.6845 -0.0001 0.7290
vn 0.8221 -0.0002 0.5694
vn 0.8222 -0.0002 0.5692
vn -0.2277 -0.0001 0.9737
vn -0.2276 -0.0001 0.9738
vn -0.0749 -0.0001 0.9972
vn -0.0748 -0.0001 0.9972
vn -0.0713 -0.2609 0.9627
vn -0.2207 -0.2612 0.9397
vn -0.1979 -0.4976 0.8446
vn -0.0645 -0.4975 0.8650
vn 0.2702 -0.8619 0.4291
vn 0.1930 -0.8622 0.4684
vn 0.0521 -0.9907 0.1254
vn 0.0723 -0.9906 0.1158
vn 0.0304 -0.9907 0.1324
vn 0.0106 -0.9908 0.1352
vn -0.0521 -0.9907 0.1254
vn -0.0723 -0.9906 0.1158
vn -0.0941 -0.9906 0.0990
vn -0.1123 -0.9905 0.0793
vn -0.1285 -0.9905 0.0489
vn -0.1365 -0.9905 0.0192
vn -0.1365 -0.9905 -0.0192
vn -0.1285 -0.9905 -0.0489
vn -0.1123 -0.9905 -0.0793
vn -0.0941 -0.9906 -0.0990
vn -0.0723 -0.9906 -0.1158
vn -0.0521 -0.9907 -0.1254
vn -0.0304 -0.9907 -0.1324
vn -0.0106 -0.9908 -0.1352
vn 0.0106 -0.9908 -0.1352
vn 0.0304 -0.9907 -0.1324
vn 0.0521 -0.9907 -0.1254
vn 0.0723 -0.9906 -0.1158
vn 0.0941 -0.9906 -0.0990
vn 0.1123 -0.9905 -0.0793
vn 0.1285 -0.9905 -0.0489
vn 0.1365 -0.9905 -0.0192
vn 0.1365 -0.9905 0.0192
vn 0.1285 -0.9905 0.0489
vn 0.1123 -0.9905 0.0793
vn 0.0941 -0.9906 0.0990
vn 0.4642 -0.4979 0.7326
vn 0.3289 -0.4976 0.8027
vn 0.4162 -0.8617 0.2903
vn 0.3479 -0.8619 0.3690
vn 0.5172 -0.2623 0.8147
vn 0.3654 -0.2612 0.8934
vn 0.7131 -0.4987 0.4928
vn 0.5932 -0.4979 0.6326
vn 0.5030 -0.8617 0.0670
vn 0.4732 -0.8617 0.1832
vn 0.7943 -0.2641 0.5472
vn 0.6594 -0.2623 0.7045
vn 0.8594 -0.4994 0.1099
vn 0.8070 -0.4987 0.3164
vn 0.4732 -0.8617 -0.1832
vn 0.5030 -0.8617 -0.0670
vn 0.9566 -0.2653 0.1205
vn 0.8974 -0.2641 0.3534
vn 0.8070 -0.4987 -0.3164
vn 0.8594 -0.4994 -0.1099
vn 0.3479 -0.8619 -0.3690
vn 0.4162 -0.8617 -0.2903
vn 0.8974 -0.2641 -0.3534
vn 0.9566 -0.2653 -0.1205
vn 0.5932 -0.4979 -0.6326
vn 0.7131 -0.4987 -0.4928
vn 0.1930 -0.8622 -0.4684
vn 0.2702 -0.8619 -0.4291
vn 0.6594 -0.2623 -0.7045
vn 0.7943 -0.2641 -0.5472
vn 0.3289 -0.4976 -0.8027
vn 0.4642 -0.4979 -0.7326
vn 0.0385 -0.8623 -0.5049
vn 0.1146 -0.8622 -0.4935
vn 0.3654 -0.2612 -0.8934
vn 0.5172 -0.2623 -0.8147
vn 0.0645 -0.4975 -0.8650
vn 0.1979 -0.4976 -0.8446
vn -0.1146 -0.8622 -0.4935
vn -0.0385 -0.8623 -0.5049
vn 0.0713 -0.2609 -0.9627
vn 0.2207 -0.2612 -0.9397
vn -0.1979 -0.4976 -0.8446
vn -0.0645 -0.4975 -0.8650
vn -0.2702 -0.8619 -0.4291
vn -0.1930 -0.8622 -0.4684
vn -0.2207 -0.2612 -0.9397
vn -0.0713 -0.2609 -0.9627
vn -0.4642 -0.4979 -0.7326
vn -0.3289 -0.4976 -0.8027
vn -0.4162 -0.8617 -0.2903
vn -0.3479 -0.8619 -0.3690
vn -0.5172 -0.2623 -0.8147
vn -0.3654 -0.2612 -0.8934
vn -0.7131 -0.4987 -0.4928
vn -0.5932 -0.4979 -0.6326
vn -0.5030 -0.8617 -0.0670
vn -0.4732 -0.8617 -0.1832
vn -0.7943 -0.2641 -0.5472
vn -0.6594 -0.2623 -0.7045
vn -0.8594 -0.4994 -0.1099
vn -0.8070 -0.4987 -0.3164
vn -0.4732 -0.8617 0.1832
vn -0.5030 -0.8617 0.0670
vn -0.9566 -0.2653 -0.1205
vn -0.8974 -0.2641 -0.3534
vn -0.8070 -0.4987 0.3164
vn -0.8594 -0.4994 0.1099
vn -0.3479 -0.8619 0.3690
vn -0.4162 -0.8617 0.2903
vn -0.8974 -0.2641 0.3534
vn -0.9566 -0.2653 0.1205
vn -0.5932 -0.4979 0.6326
vn -0.7131 -0.4987 0.4928
vn -0.1930 -0.8622 0.4684
vn -0.2702 -0.8619 0.4291
vn -0.6594 -0.2623 0.7045
vn -0.7943 -0.2641 0.5472
vn -0.3289 -0.4976 0.8027
vn -0.4642 -0.4979 0.7326
vn -0.3654 -0.2612 0.8934
vn -0.5172 -0.2623 0.8147
vn 0.1979 -0.4976 0.8446
vn 0.0645 -0.4975 0.8650
vn 0.0385 -0.8623 0.5049
vn 0.1146 -0.8622 0.4935
vn 0.2207 -0.2612 0.9397
vn 0.0713 -0.2609 0.9627
vn -0.0026 -1.0000 -0.0066
vn -0.0035 -1.0000 -0.0058
vn -0.0037 -1.0000 -0.0056
vn -0.0027 -1.0000 -0.0065
vn -0.6845 -0.0000 0.7290
vn -0.5347 -0.0000 0.8451
vn -0.0043 -1.0000 -0.0048
vn -0.0044 -1.0000 -0.0046
vn 0.0050 -1.0000 0.0036
vn 0.0054 -1.0000 0.0022
vn 0.0054 -1.0000 0.0020
vn 0.0050 -1.0000 0.0034
vn -0.0050 -1.0000 -0.0036
vn -0.0050 -1.0000 -0.0034
vn -0.0026 -1.0000 0.0066
vn -0.0016 -1.0000 0.0071
vn -0.0017 -1.0000 0.0071
vn -0.0027 -1.0000 0.0065
vn -0.0054 -1.0000 -0.0022
vn -0.0056 -1.0000 -0.0007
vn -0.0054 -1.0000 -0.0020
vn -0.0056 -1.0000 0.0007
vn -0.0054 -1.0000 0.0022
vn -0.0054 -1.0000 0.0020
vn 0.0056 -1.0000 0.0007
vn 0.0056 -1.0000 -0.0007
vn 0.0005 -1.0000 -0.0074
vn -0.0005 -1.0000 -0.0074
vn -0.0006 -1.0000 -0.0074
vn 0.0006 -1.0000 -0.0074
vn -0.0050 -1.0000 0.0036
vn -0.0043 -1.0000 0.0048
vn -0.0044 -1.0000 0.0046
vn -0.0050 -1.0000 0.0034
vn -0.0005 -1.0000 0.0074
vn 0.0005 -1.0000 0.0074
vn 0.0006 -1.0000 0.0074
vn -0.0006 -1.0000 0.0074
vn -0.0035 -1.0000 0.0058
vn -0.0037 -1.0000 0.0056
vn 0.0054 -1.0000 -0.0022
vn 0.0050 -1.0000 -0.0036
vn 0.0050 -1.0000 -0.0034
vn 0.0054 -1.0000 -0.0020
vn 0.0016 -1.0000 0.0071
vn 0.0017 -1.0000 0.0071
vn -0.0016 -1.0000 -0.0071
vn -0.0017 -1.0000 -0.0071
vn 0.0026 -1.0000 0.0066
vn 0.0027 -1.0000 0.0065
vn 0.0035 -1.0000 0.0058
vn 0.0037 -1.0000 0.0056
vn 0.0043 -1.0000 0.0048
vn 0.0044 -1.0000 0.0046
vn 0.0043 -1.0000 -0.0048
vn 0.0035 -1.0000 -0.0058
vn 0.0037 -1.0000 -0.0056
vn 0.0044 -1.0000 -0.0046
vn 0.0026 -1.0000 -0.0066
vn 0.0016 -1.0000 -0.0071
vn 0.0017 -1.0000 -0.0071
vn 0.0027 -1.0000 -0.0065
vn -0.3796 -0.0000 0.9252
vn -0.2276 -0.0000 0.9737
vn -0.9918 -0.0000 0.1278
vn -0.9313 -0.0000 0.3642
vn -0.0748 -0.0000 0.9972
vn 0.5347 -0.0000 0.8451
vn 0.6845 -0.0000 0.7290
vn -0.8222 -0.0000 0.5693
vn 0.0748 -0.0000 0.9972
vn 0.2276 -0.0000 0.9737
vn 0.8222 -0.0000 0.5693
vn 0.9313 -0.0000 0.3642
vn 0.3796 -0.0000 0.9252
vn 0.9918 -0.0000 0.1278
vn 0.9918 -0.0000 -0.1278
vn 0.9313 -0.0000 -0.3642
vn 0.8222 -0.0000 -0.5693
vn 0.6845 -0.0000 -0.7290
vn 0.5347 -0.0000 -0.8451
vn 0.3796 -0.0000 -0.9252
vn 0.2276 -0.0000 -0.9737
vn 0.0748 -0.0000 -0.9972
vn -0.0748 -0.0000 -0.9972
vn -0.2276 -0.0000 -0.9737
vn -0.3796 -0.0000 -0.9252
vn -0.5347 -0.0000 -0.8451
vn -0.6845 -0.0000 -0.7290
vn -0.8222 -0.0000 -0.5693
vn -0.9313 -0.0000 -0.3642
vn -0.9918 -0.0000 -0.1278
vn -0.0000 1.0000 -0.0000
vn 0.3827 0.9239 -0.0000
vn 0.7071 0.7071 -0.0000
vn 0.9239 0.3827 -0.0000
vn 1.0000 -0.0000 -0.0000
vn 0.9239 -0.3827 -0.0000
vn 0.7071 -0.7071 -0.0000
vn 0.3827 -0.9239 -0.0000
vn -0.0000 -1.0000 -0.0000
vn -0.3827 -0.9239 -0.0000
vn -0.7071 -0.7071 -0.0000
vn -0.9239 -0.3827 -0.0000
vn -1.0000 -0.0000 -0.0000
vn -0.9239 0.3827 -0.0000
vn -0.7071 0.7071 -0.0000
vn -0.0000 -0.0000 1.0000
vn -0.3827 0.9239 -0.0000
vn -0.0000 -0.0000 -1.0000
vn -0.1305 -0.0000 -0.9914
vn 0.1305 -0.0000 -0.9914
vn 0.5000 -0.0000 -0.8660
vn 0.8660 -0.0000 -0.5000
vn -0.8660 -0.0000 0.5000
vn -0.9914 -0.0000 0.1305
vn -0.5000 -0.0000 -0.8660
vn -0.8660 -0.0000 -0.5000
vn -0.1305 -0.0000 0.9914
vn -0.5000 -0.0000 0.8660
vn -0.9914 -0.0000 -0.1305
vn 0.1305 -0.0000 0.9914
vn 0.9914 -0.0000 -0.1305
vn 0.8660 -0.0000 0.5000
vn 0.9914 -0.0000 0.1305
vn 0.5000 -0.0000 0.8660
vn -0.0919 -0.7101 -0.6980
vn -0.3474 -0.7193 -0.6017
vn -0.6017 -0.7193 -0.3474
vn -0.6980 -0.7101 -0.0919
vn -0.3474 -0.7193 0.6017
vn -0.0919 -0.7101 0.6980
vn -0.6017 -0.7193 0.3474
vn -0.6980 -0.7101 0.0919
vn 0.3474 -0.7193 -0.6017
vn 0.0919 -0.7101 -0.6980
vn 0.6017 -0.7193 -0.3474
vn 0.6980 -0.7101 -0.0919
vn 0.0919 -0.7101 0.6980
vn 0.3474 -0.7193 0.6017
vn 0.6017 -0.7193 0.3474
vn 0.6980 -0.7101 0.0919
vn 0.7082 -0.0000 0.7060
vn 0.0242 -0.0000 0.9997
vn 0.7055 -0.0000 0.7088
vn -0.0332 -0.0000 0.9995
vn 0.9757 -0.0000 0.2191
vn 0.9752 -0.0000 -0.2214
vn -0.1100 -0.0000 -0.9939
vn -0.0257 -0.0000 -0.9997
vn 0.0313 -0.0000 -0.9995
vn 0.7087 -0.0000 -0.7056
vn -0.8308 -0.0000 0.5566
vn -0.9779 -0.0000 0.2092
vn 0.1071 -0.0000 0.9942
vn 0.8185 -0.0000 -0.5746
vn -0.2523 -0.0000 -0.9677
vn -0.6329 -0.0000 0.7743
vn 0.2483 -0.0000 0.9687
vn 0.6239 -0.0000 -0.7815
vn -0.4299 -0.0000 -0.9029
vn -0.4453 -0.0000 0.8954
vn 0.4245 -0.0000 0.9054
vn 0.4408 -0.0000 -0.8976
vn -0.6323 -0.0000 -0.7747
vn -0.2796 -0.0000 0.9601
vn 0.6244 -0.0000 0.7811
vn 0.2773 -0.0000 -0.9608
vn -0.8342 -0.0000 -0.5514
vn -0.1319 -0.0000 0.9913
vn 0.8235 -0.0000 0.5673
vn 0.1295 -0.0000 -0.9916
vn -0.9786 -0.0000 -0.2058
vn 0.7059 -0.0000 -0.7083
vt 0.714346 0.345645
vt 0.715517 0.345556
vt 0.716946 0.354948
vt 0.715800 0.355216
vt 0.746276 0.393500
vt 0.746718 0.392336
vt 0.751569 0.393577
vt 0.751406 0.394834
vt 0.763519 0.394724
vt 0.763350 0.393494
vt 0.768153 0.392256
vt 0.768591 0.393411
vt 0.779197 0.387787
vt 0.778509 0.386784
vt 0.783402 0.382580
vt 0.784276 0.383417
vt 0.791576 0.374012
vt 0.790571 0.373371
vt 0.794372 0.365974
vt 0.795469 0.366429
vt 0.799049 0.355199
vt 0.797902 0.354931
vt 0.799332 0.345539
vt 0.800504 0.345628
vt 0.800504 0.333893
vt 0.799332 0.333982
vt 0.797903 0.324590
vt 0.799049 0.324322
vt 0.795472 0.313092
vt 0.794375 0.313546
vt 0.790577 0.306147
vt 0.791583 0.305506
vt 0.784288 0.296090
vt 0.783412 0.296927
vt 0.778518 0.292707
vt 0.779209 0.291703
vt 0.768573 0.286038
vt 0.768131 0.287202
vt 0.763280 0.285961
vt 0.763443 0.284704
vt 0.751330 0.284814
vt 0.751499 0.286044
vt 0.746696 0.287282
vt 0.746258 0.286127
vt 0.735653 0.291751
vt 0.736340 0.292754
vt 0.731447 0.296958
vt 0.730573 0.296120
vt 0.723273 0.305526
vt 0.724279 0.306167
vt 0.720477 0.313564
vt 0.719380 0.313109
vt 0.721486 0.334235
vt 0.722711 0.326195
vt 0.725529 0.327090
vt 0.724441 0.334248
vt 0.719377 0.366446
vt 0.720474 0.365992
vt 0.724272 0.373391
vt 0.723266 0.374032
vt 0.730562 0.383448
vt 0.731438 0.382611
vt 0.736331 0.386831
vt 0.735641 0.387835
vt 0.715801 0.324339
vt 0.716947 0.324607
vt 0.715517 0.333999
vt 0.714346 0.333910
vt 0.719868 0.325356
vt 0.718525 0.334168
vt 0.729185 0.369935
vt 0.726095 0.363906
vt 0.728905 0.362983
vt 0.731531 0.368119
vt 0.725528 0.352466
vt 0.724441 0.345308
vt 0.728905 0.316574
vt 0.731532 0.311440
vt 0.738280 0.302769
vt 0.740862 0.300526
vt 0.750492 0.295424
vt 0.751980 0.295039
vt 0.762846 0.295011
vt 0.764337 0.295395
vt 0.773979 0.300495
vt 0.776565 0.302743
vt 0.783318 0.311418
vt 0.785945 0.316555
vt 0.789321 0.327072
vt 0.790408 0.334230
vt 0.790409 0.345290
vt 0.789320 0.352448
vt 0.785944 0.362964
vt 0.783317 0.368097
vt 0.776570 0.376769
vt 0.773987 0.379011
vt 0.764358 0.384114
vt 0.762869 0.384499
vt 0.752003 0.384527
vt 0.750512 0.384143
vt 0.740870 0.379043
vt 0.738285 0.376795
vt 0.726791 0.371697
vt 0.723295 0.364890
vt 0.739470 0.381669
vt 0.735972 0.378640
vt 0.737989 0.384254
vt 0.733695 0.380551
vt 0.751991 0.387506
vt 0.749162 0.386786
vt 0.751868 0.390488
vt 0.747894 0.389481
vt 0.765711 0.386742
vt 0.762895 0.387467
vt 0.766980 0.389420
vt 0.763032 0.390432
vt 0.778878 0.378611
vt 0.775383 0.381632
vt 0.781149 0.380521
vt 0.776859 0.384212
vt 0.788753 0.363888
vt 0.785661 0.369913
vt 0.791552 0.364871
vt 0.788053 0.371676
vt 0.793363 0.345303
vt 0.792139 0.353343
vt 0.796324 0.345370
vt 0.794981 0.354182
vt 0.792139 0.326177
vt 0.793363 0.334218
vt 0.794982 0.325339
vt 0.796324 0.334150
vt 0.785664 0.309603
vt 0.788754 0.315631
vt 0.788058 0.307841
vt 0.791555 0.314648
vt 0.775380 0.297869
vt 0.778877 0.300898
vt 0.776860 0.295284
vt 0.781154 0.298987
vt 0.762859 0.292032
vt 0.765688 0.292752
vt 0.762981 0.289050
vt 0.766956 0.290057
vt 0.749138 0.292796
vt 0.751954 0.292071
vt 0.747869 0.290118
vt 0.751817 0.289106
vt 0.735972 0.300927
vt 0.739466 0.297905
vt 0.733700 0.299017
vt 0.737990 0.295326
vt 0.726096 0.315650
vt 0.729188 0.309625
vt 0.723297 0.314667
vt 0.726796 0.307862
vt 0.719867 0.354199
vt 0.718525 0.345387
vt 0.721486 0.345320
vt 0.722710 0.353360
vt 0.566967 0.375597
vt 0.570516 0.382590
vt 0.562650 0.390822
vt 0.558187 0.382039
vt 0.571171 0.299151
vt 0.562650 0.310136
vt 0.561276 0.309266
vt 0.569984 0.298029
vt 0.577296 0.391336
vt 0.571172 0.401810
vt 0.620696 0.305692
vt 0.610992 0.300532
vt 0.613483 0.287740
vt 0.625677 0.294222
vt 0.581753 0.395257
vt 0.576772 0.406727
vt 0.635483 0.375590
vt 0.638869 0.365010
vt 0.648518 0.368737
vt 0.644262 0.382031
vt 0.591457 0.400417
vt 0.595758 0.401543
vt 0.594360 0.414618
vt 0.588967 0.413208
vt 0.606699 0.401538
vt 0.610999 0.400410
vt 0.613495 0.413194
vt 0.608108 0.414604
vt 0.606692 0.299405
vt 0.595750 0.299411
vt 0.594341 0.286344
vt 0.608090 0.286331
vt 0.562224 0.344917
vt 0.562225 0.356039
vt 0.552227 0.357465
vt 0.552227 0.343490
vt 0.620700 0.395249
vt 0.625156 0.391328
vt 0.631279 0.401798
vt 0.625681 0.406713
vt 0.640225 0.356033
vt 0.640225 0.344910
vt 0.650223 0.343484
vt 0.650223 0.357459
vt 0.631934 0.382583
vt 0.639799 0.390813
vt 0.591450 0.300539
vt 0.581750 0.305700
vt 0.576769 0.294236
vt 0.588955 0.287755
vt 0.638869 0.335933
vt 0.648518 0.332206
vt 0.563581 0.365016
vt 0.553931 0.368743
vt 0.635482 0.325352
vt 0.644262 0.318910
vt 0.631933 0.318359
vt 0.639800 0.310127
vt 0.625153 0.309613
vt 0.631278 0.299139
vt 0.577294 0.309621
vt 0.570515 0.318366
vt 0.566967 0.325359
vt 0.563581 0.335939
vt 0.553932 0.332212
vt 0.558188 0.318918
vt 0.552349 0.331842
vt 0.556682 0.318297
vt 0.588366 0.286229
vt 0.594127 0.284725
vt 0.550605 0.343368
vt 0.569985 0.402932
vt 0.561276 0.391692
vt 0.575842 0.292897
vt 0.552349 0.369113
vt 0.550605 0.357588
vt 0.588377 0.414737
vt 0.575845 0.408066
vt 0.556681 0.382659
vt 0.608323 0.416224
vt 0.594147 0.416245
vt 0.626608 0.408051
vt 0.614084 0.414720
vt 0.641173 0.391683
vt 0.632466 0.402920
vt 0.650100 0.369107
vt 0.645767 0.382652
vt 0.651844 0.343362
vt 0.651844 0.357582
vt 0.645768 0.318290
vt 0.650101 0.331836
vt 0.632465 0.298017
vt 0.641174 0.309257
vt 0.614073 0.286212
vt 0.626605 0.292883
vt 0.608303 0.284704
vt 0.884909 0.551216
vt 0.885272 0.554649
vt 0.883748 0.554810
vt 0.883387 0.551414
vt 0.882229 0.554958
vt 0.881881 0.551544
vt 0.880716 0.555106
vt 0.880373 0.551690
vt 0.879205 0.555258
vt 0.878849 0.551799
vt 0.877691 0.555429
vt 0.877307 0.551958
vt 0.876167 0.555620
vt 0.875741 0.552088
vt 0.874628 0.555843
vt 0.874145 0.552271
vt 0.873067 0.556098
vt 0.872534 0.552465
vt 0.871476 0.556384
vt 0.870898 0.552674
vt 0.869844 0.556702
vt 0.869232 0.552896
vt 0.868160 0.557047
vt 0.867539 0.553131
vt 0.866407 0.557409
vt 0.865790 0.553324
vt 0.864568 0.557786
vt 0.863993 0.553553
vt 0.862626 0.558153
vt 0.862143 0.553711
vt 0.983419 0.526194
vt 0.981583 0.526194
vt 0.979887 0.525492
vt 0.978589 0.524194
vt 0.977886 0.522498
vt 0.977886 0.520662
vt 0.978589 0.518966
vt 0.979887 0.517668
vt 0.981583 0.516965
vt 0.983419 0.516965
vt 0.985115 0.517668
vt 0.986413 0.518966
vt 0.987115 0.520662
vt 0.987115 0.522498
vt 0.986413 0.524194
vt 0.985115 0.525492
vt 0.860561 0.558491
vt 0.860194 0.553816
vt 0.858363 0.558779
vt 0.858059 0.553797
vt 0.981583 0.482441
vt 0.983418 0.482441
vt 0.985114 0.483144
vt 0.986413 0.484442
vt 0.987115 0.486138
vt 0.987115 0.487974
vt 0.986413 0.489670
vt 0.985114 0.490968
vt 0.983418 0.491670
vt 0.981583 0.491670
vt 0.979887 0.490968
vt 0.978589 0.489670
vt 0.977886 0.487974
vt 0.977886 0.486138
vt 0.978589 0.484442
vt 0.979887 0.483144
vt 0.859947 0.496452
vt 0.859779 0.497890
vt 0.857995 0.497736
vt 0.858536 0.496318
vt 0.859801 0.544210
vt 0.857916 0.544348
vt 0.861487 0.496513
vt 0.861457 0.497943
vt 0.861592 0.544119
vt 0.863083 0.496528
vt 0.863092 0.497958
vt 0.863335 0.544030
vt 0.864694 0.496487
vt 0.864724 0.497914
vt 0.865065 0.543975
vt 0.866319 0.496452
vt 0.866360 0.497894
vt 0.866778 0.543869
vt 0.867961 0.496374
vt 0.867998 0.497824
vt 0.868476 0.543800
vt 0.869599 0.496285
vt 0.869659 0.497743
vt 0.870175 0.543729
vt 0.871260 0.496215
vt 0.871327 0.497691
vt 0.871853 0.543622
vt 0.872941 0.496107
vt 0.872999 0.497594
vt 0.873515 0.543562
vt 0.874621 0.495996
vt 0.874698 0.497493
vt 0.875180 0.543510
vt 0.876324 0.495912
vt 0.876408 0.497428
vt 0.876830 0.543433
vt 0.878042 0.495796
vt 0.878128 0.497322
vt 0.878473 0.543413
vt 0.879775 0.495713
vt 0.879868 0.497261
vt 0.880114 0.543373
vt 0.881506 0.495598
vt 0.881629 0.497159
vt 0.881766 0.543397
vt 0.883218 0.495505
vt 0.883435 0.497083
vt 0.883454 0.543437
vt 0.884866 0.495381
vt 0.885312 0.496953
vt 0.885227 0.543584
vt 0.884682 0.489188
vt 0.882939 0.489165
vt 0.881137 0.489246
vt 0.879333 0.489358
vt 0.877555 0.489541
vt 0.875808 0.489712
vt 0.874102 0.489924
vt 0.872434 0.490106
vt 0.870787 0.490283
vt 0.869166 0.490448
vt 0.867568 0.490601
vt 0.865986 0.490738
vt 0.864438 0.490887
vt 0.862916 0.490993
vt 0.861426 0.491118
vt 0.860003 0.491234
vt 0.858700 0.491338
vt 0.859951 0.545789
vt 0.858332 0.545921
vt 0.861664 0.545680
vt 0.863409 0.545573
vt 0.865147 0.545497
vt 0.866869 0.545382
vt 0.868585 0.545296
vt 0.870269 0.545210
vt 0.871941 0.545097
vt 0.873609 0.545021
vt 0.875248 0.544956
vt 0.876878 0.544877
vt 0.878500 0.544845
vt 0.880109 0.544807
vt 0.881694 0.544829
vt 0.883238 0.544876
vt 0.884685 0.545004
vt 0.860217 0.552093
vt 0.858513 0.552056
vt 0.862017 0.552041
vt 0.863830 0.551933
vt 0.865610 0.551757
vt 0.867360 0.551599
vt 0.869081 0.551403
vt 0.870762 0.551213
vt 0.872409 0.551030
vt 0.874027 0.550860
vt 0.875613 0.550702
vt 0.877184 0.550584
vt 0.878733 0.550448
vt 0.880258 0.550350
vt 0.881745 0.550231
vt 0.883176 0.550137
vt 0.884510 0.550040
vt 0.859427 0.486613
vt 0.859838 0.489975
vt 0.858323 0.490200
vt 0.857916 0.486794
vt 0.860931 0.486446
vt 0.861320 0.489815
vt 0.862428 0.486284
vt 0.862802 0.489664
vt 0.863924 0.486118
vt 0.864311 0.489546
vt 0.865423 0.485930
vt 0.865839 0.489372
vt 0.866934 0.485723
vt 0.867382 0.489220
vt 0.868464 0.485488
vt 0.868958 0.489046
vt 0.870022 0.485222
vt 0.870565 0.488854
vt 0.871616 0.484924
vt 0.872205 0.488647
vt 0.873257 0.484594
vt 0.873891 0.488433
vt 0.874954 0.484234
vt 0.875606 0.488176
vt 0.876722 0.483858
vt 0.877365 0.487968
vt 0.878574 0.483470
vt 0.879174 0.487731
vt 0.880530 0.483093
vt 0.881047 0.487571
vt 0.882606 0.482742
vt 0.883015 0.487436
vt 0.884810 0.482441
vt 0.885143 0.487436
vt 0.671150 0.902924
vt 0.671196 0.888475
vt 0.660018 0.888195
vt 0.659968 0.902924
vt 0.671499 0.881789
vt 0.660384 0.880573
vt 0.672258 0.877353
vt 0.661433 0.874550
vt 0.673642 0.873344
vt 0.663535 0.868560
vt 0.675661 0.870010
vt 0.666973 0.862970
vt 0.678050 0.867709
vt 0.671831 0.858415
vt 0.680311 0.866645
vt 0.677970 0.855710
vt 0.682309 0.866641
vt 0.684685 0.855714
vt 0.684484 0.867687
vt 0.690767 0.858437
vt 0.686853 0.870011
vt 0.695539 0.862969
vt 0.688962 0.873432
vt 0.698984 0.868472
vt 0.690499 0.877509
vt 0.701238 0.874393
vt 0.691398 0.881912
vt 0.702484 0.880449
vt 0.691784 0.888516
vt 0.702960 0.888155
vt 0.691847 0.902924
vt 0.703029 0.902924
vt 0.748252 0.888287
vt 0.749095 0.873891
vt 0.757711 0.872271
vt 0.756244 0.890651
vt 0.755666 0.866324
vt 0.748003 0.871227
vt 0.746109 0.869088
vt 0.751657 0.861233
vt 0.735135 0.898710
vt 0.739825 0.893189
vt 0.742081 0.895099
vt 0.740108 0.900714
vt 0.949234 0.395800
vt 0.948538 0.397942
vt 0.947221 0.399260
vt 0.945043 0.399911
vt 0.944775 0.399882
vt 0.942585 0.399249
vt 0.941218 0.397955
vt 0.940498 0.395800
vt 0.940503 0.381279
vt 0.941205 0.379132
vt 0.942528 0.377815
vt 0.944714 0.377173
vt 0.944989 0.377180
vt 0.947188 0.377822
vt 0.948512 0.379152
vt 0.949236 0.381293
vt 0.746916 0.890778
vt 0.744885 0.892747
vt 0.742577 0.894116
vt 0.737986 0.890686
vt 0.736722 0.887825
vt 0.737125 0.873134
vt 0.738379 0.870508
vt 0.740505 0.868603
vt 0.743228 0.867809
vt 0.743554 0.867903
vt 0.753205 0.895572
vt 0.748814 0.899054
vt 0.728324 0.889567
vt 0.731015 0.894836
vt 0.743619 0.900720
vt 0.728324 0.870614
vt 0.745907 0.857536
vt 0.735472 0.859358
vt 0.742002 0.855710
vt 0.730851 0.864514
vt 0.952135 0.376925
vt 0.953309 0.380633
vt 0.949376 0.374121
vt 0.945598 0.372926
vt 0.936420 0.380612
vt 0.937588 0.376907
vt 0.940345 0.374103
vt 0.944135 0.372906
vt 0.953309 0.396462
vt 0.952145 0.400153
vt 0.949404 0.402943
vt 0.945644 0.404139
vt 0.937578 0.400171
vt 0.936416 0.396456
vt 0.940383 0.402949
vt 0.944179 0.404158
vt 0.908371 0.729805
vt 0.911053 0.723638
vt 0.902813 0.719728
vt 0.900025 0.726578
vt 0.897980 0.717508
vt 0.895527 0.725256
vt 0.893573 0.716048
vt 0.892086 0.724756
vt 0.887115 0.747367
vt 0.876703 0.756298
vt 0.882035 0.761650
vt 0.891091 0.751549
vt 0.889437 0.767313
vt 0.897313 0.756819
vt 0.903339 0.776803
vt 0.910357 0.766666
vt 0.908725 0.730514
vt 0.899682 0.727742
vt 0.903750 0.778312
vt 0.888206 0.769140
vt 0.881908 0.729936
vt 0.880378 0.729135
vt 0.879667 0.731422
vt 0.881539 0.731561
vt 0.898478 0.716265
vt 0.903376 0.718632
vt 0.898740 0.755163
vt 0.911812 0.766528
vt 0.864888 0.735763
vt 0.867007 0.735624
vt 0.867589 0.728202
vt 0.865625 0.727609
vt 0.895267 0.726534
vt 0.879891 0.734374
vt 0.881884 0.733916
vt 0.893924 0.714631
vt 0.866633 0.743797
vt 0.868701 0.743079
vt 0.892018 0.726155
vt 0.881221 0.738336
vt 0.883210 0.737424
vt 0.888500 0.713659
vt 0.888415 0.715241
vt 0.870208 0.751225
vt 0.872124 0.750073
vt 0.888525 0.724803
vt 0.888722 0.726290
vt 0.883721 0.742860
vt 0.885610 0.741622
vt 0.882287 0.713876
vt 0.882602 0.715561
vt 0.874994 0.757762
vt 0.885062 0.725579
vt 0.885628 0.727052
vt 0.888849 0.745899
vt 0.875696 0.715896
vt 0.876557 0.717530
vt 0.880562 0.763326
vt 0.882177 0.727117
vt 0.883210 0.728384
vt 0.892639 0.749920
vt 0.869554 0.720382
vt 0.871051 0.721640
vt 0.911812 0.723408
s 1
usemtl Firebox
f 2/1/1 35/2/2 44/3/3 3/4/4
f 8/5/5 59/6/6 68/7/7 9/8/8
f 10/9/9 67/10/10 76/11/11 11/12/12
f 12/13/13 75/14/14 84/15/15 13/16/16
f 14/17/17 83/18/18 92/19/19 15/20/20
f 16/21/21 91/22/22 100/23/23 17/24/24
f 18/25/25 99/26/26 108/27/27 19/28/28
f 20/29/29 107/30/30 116/31/31 21/32/32
f 22/33/33 115/34/34 124/35/35 23/36/36
f 24/37/37 123/38/38 132/39/39 25/40/40
f 26/41/41 131/42/42 140/43/43 27/44/44
f 28/45/45 139/46/46 148/47/47 29/48/48
f 30/49/49 147/50/50 156/51/51 31/52/52
f 37/53/53 158/54/54 153/55/55 34/56/56
f 4/57/57 43/58/58 52/59/59 5/60/60
f 6/61/61 51/62/62 60/63/63 7/64/64
f 32/65/65 155/66/66 36/67/67 1/68/68
f 36/67/69 155/66/70 160/69/71 39/70/72
f 53/71/73 46/72/74 41/73/75 50/74/76
f 41/73/75 42/75/77 33/76/78 34/56/56 153/55/55 154/77/79 145/78/80 146/79/81 137/80/82 138/81/83 129/82/84 130/83/85 121/84/86 122/85/87 113/86/88 114/87/89 105/88/90 106/89/91 97/90/92 98/91/93 89/92/94 90/93/95 81/94/96 82/95/97 73/96/98 74/97/99 65/98/100 66/99/101 57/100/102 58/101/103 49/102/104 50/74/76
f 55/103/105 48/104/106 46/72/74 53/71/73
f 61/105/107 54/106/108 49/102/104 58/101/103
f 52/59/109 43/58/110 48/104/106 55/103/105
f 63/107/111 56/108/112 54/106/108 61/105/107
f 69/109/113 62/110/114 57/100/102 66/99/101
f 60/63/115 51/62/116 56/108/112 63/107/111
f 71/111/117 64/112/118 62/110/114 69/109/113
f 77/113/119 70/114/120 65/98/100 74/97/99
f 68/7/121 59/6/122 64/112/118 71/111/117
f 79/115/123 72/116/124 70/114/120 77/113/119
f 85/117/125 78/118/126 73/96/98 82/95/97
f 76/11/127 67/10/128 72/116/124 79/115/123
f 87/119/129 80/120/130 78/118/126 85/117/125
f 93/121/131 86/122/132 81/94/96 90/93/95
f 84/15/133 75/14/134 80/120/130 87/119/129
f 95/123/135 88/124/136 86/122/132 93/121/131
f 101/125/137 94/126/138 89/92/94 98/91/93
f 92/19/139 83/18/140 88/124/136 95/123/135
f 103/127/141 96/128/142 94/126/138 101/125/137
f 109/129/143 102/130/144 97/90/92 106/89/91
f 100/23/145 91/22/146 96/128/142 103/127/141
f 111/131/147 104/132/148 102/130/144 109/129/143
f 117/133/149 110/134/150 105/88/90 114/87/89
f 108/27/151 99/26/152 104/132/148 111/131/147
f 119/135/153 112/136/154 110/134/150 117/133/149
f 125/137/155 118/138/156 113/86/88 122/85/87
f 116/31/157 107/30/158 112/136/154 119/135/153
f 127/139/159 120/140/160 118/138/156 125/137/155
f 133/141/161 126/142/162 121/84/86 130/83/85
f 124/35/163 115/34/164 120/140/160 127/139/159
f 135/143/165 128/144/166 126/142/162 133/141/161
f 141/145/167 134/146/168 129/82/84 138/81/83
f 132/39/169 123/38/170 128/144/166 135/143/165
f 143/147/171 136/148/172 134/146/168 141/145/167
f 149/149/173 142/150/174 137/80/82 146/79/81
f 140/43/175 131/42/176 136/148/172 143/147/171
f 151/151/177 144/152/178 142/150/174 149/149/173
f 157/153/179 150/154/180 145/78/80 154/77/79
f 148/47/181 139/46/182 144/152/178 151/151/177
f 159/155/183 152/156/184 150/154/180 157/153/179
f 156/51/185 147/50/186 152/156/184 159/155/183
f 39/70/72 160/69/71 158/54/54 37/53/53
f 47/157/187 40/158/188 38/159/189 45/160/190
f 45/160/190 38/159/189 33/76/78 42/75/77
f 44/3/191 35/2/192 40/158/188 47/157/187
f 48/104/106 43/58/110 44/3/191 47/157/187
f 36/67/69 39/70/72 40/158/188 35/2/192
f 46/72/74 48/104/106 47/157/187 45/160/190
f 39/70/72 37/53/53 38/159/189 40/158/188
f 41/73/75 46/72/74 45/160/190 42/75/77
f 37/53/53 34/56/56 33/76/78 38/159/189
f 56/108/112 51/62/116 52/59/109 55/103/105
f 54/106/108 56/108/112 55/103/105 53/71/73
f 49/102/104 54/106/108 53/71/73 50/74/76
f 64/112/118 59/6/122 60/63/115 63/107/111
f 62/110/114 64/112/118 63/107/111 61/105/107
f 57/100/102 62/110/114 61/105/107 58/101/103
f 72/116/124 67/10/128 68/7/121 71/111/117
f 70/114/120 72/116/124 71/111/117 69/109/113
f 65/98/100 70/114/120 69/109/113 66/99/101
f 80/120/130 75/14/134 76/11/127 79/115/123
f 78/118/126 80/120/130 79/115/123 77/113/119
f 73/96/98 78/118/126 77/113/119 74/97/99
f 88/124/136 83/18/140 84/15/133 87/119/129
f 86/122/132 88/124/136 87/119/129 85/117/125
f 81/94/96 86/122/132 85/117/125 82/95/97
f 96/128/142 91/22/146 92/19/139 95/123/135
f 94/126/138 96/128/142 95/123/135 93/121/131
f 89/92/94 94/126/138 93/121/131 90/93/95
f 104/132/148 99/26/152 100/23/145 103/127/141
f 102/130/144 104/132/148 103/127/141 101/125/137
f 97/90/92 102/130/144 101/125/137 98/91/93
f 112/136/154 107/30/158 108/27/151 111/131/147
f 110/134/150 112/136/154 111/131/147 109/129/143
f 105/88/90 110/134/150 109/129/143 106/89/91
f 120/140/160 115/34/164 116/31/157 119/135/153
f 118/138/156 120/140/160 119/135/153 117/133/149
f 113/86/88 118/138/156 117/133/149 114/87/89
f 128/144/166 123/38/170 124/35/163 127/139/159
f 126/142/162 128/144/166 127/139/159 125/137/155
f 121/84/86 126/142/162 125/137/155 122/85/87
f 136/148/172 131/42/176 132/39/169 135/143/165
f 134/146/168 136/148/172 135/143/165 133/141/161
f 129/82/84 134/146/168 133/141/161 130/83/85
f 144/152/178 139/46/182 140/43/175 143/147/171
f 142/150/174 144/152/178 143/147/171 141/145/167
f 137/80/82 142/150/174 141/145/167 138/81/83
f 152/156/184 147/50/186 148/47/181 151/151/177
f 150/154/180 152/156/184 151/151/177 149/149/173
f 145/78/80 150/154/180 149/149/173 146/79/81
f 160/69/71 155/66/70 156/51/185 159/155/183
f 158/54/54 160/69/71 159/155/183 157/153/179
f 153/55/55 158/54/54 157/153/179 154/77/79
f 1/68/68 36/67/67 35/2/2 2/1/1
f 43/58/58 4/57/57 3/4/4 44/3/3
f 31/52/52 156/51/51 155/66/66 32/65/65
f 51/62/62 6/61/61 5/60/60 52/59/59
f 59/6/6 8/5/5 7/64/64 60/63/63
f 67/10/10 10/9/9 9/8/8 68/7/7
f 75/14/14 12/13/13 11/12/12 76/11/11
f 83/18/18 14/17/17 13/16/16 84/15/15
f 91/22/22 16/21/21 15/20/20 92/19/19
f 99/26/26 18/25/25 17/24/24 100/23/23
f 107/30/30 20/29/29 19/28/28 108/27/27
f 115/34/34 22/33/33 21/32/32 116/31/31
f 123/38/38 24/37/37 23/36/36 124/35/35
f 131/42/42 26/41/41 25/40/40 132/39/39
f 139/46/46 28/45/45 27/44/44 140/43/43
f 147/50/50 30/49/49 29/48/48 148/47/47
f 4/161/193 5/162/194 168/163/195 163/164/196
f 192/165/197 191/166/198 223/167/198 224/168/197
f 5/162/194 6/169/199 167/170/200 168/163/195
f 23/171/201 24/172/202 185/173/203 186/174/204
f 6/169/199 7/175/205 170/176/206 167/170/200
f 15/177/207 16/178/208 177/179/209 178/180/210
f 8/181/211 9/182/212 172/183/212 169/184/213
f 10/185/214 11/186/215 174/187/216 171/188/214
f 7/175/205 8/181/211 169/184/213 170/176/206
f 25/189/217 26/190/218 187/191/218 188/192/217
f 1/193/219 2/194/220 161/195/221 162/196/222
f 12/197/223 13/198/224 176/199/225 173/200/226
f 17/201/227 18/202/228 179/203/229 180/204/230
f 14/205/231 15/177/207 178/180/210 175/206/232
f 16/178/208 17/201/227 180/204/230 177/179/209
f 9/182/212 10/185/214 171/188/214 172/183/212
f 27/207/233 28/208/234 189/209/235 190/210/236
f 18/202/228 19/211/237 182/212/238 179/203/229
f 3/213/239 4/161/193 163/164/196 164/214/240
f 19/211/237 20/215/241 181/216/242 182/212/238
f 20/215/241 21/217/243 184/218/244 181/216/242
f 22/219/245 23/171/201 186/174/204 183/220/246
f 11/186/215 12/197/223 173/200/226 174/187/216
f 29/221/247 30/222/248 191/166/249 192/165/250
f 31/223/251 32/224/252 165/225/253 166/226/254
f 24/172/202 25/189/217 188/192/217 185/173/203
f 21/217/243 22/219/245 183/220/246 184/218/244
f 26/190/218 27/207/233 190/210/236 187/191/218
f 32/224/252 1/193/219 162/196/222 165/225/253
f 28/208/234 29/221/247 192/165/250 189/209/235
f 13/198/224 14/205/231 175/206/232 176/199/225
f 2/194/220 3/213/239 164/214/240 161/195/221
f 30/222/248 31/223/251 166/226/254 191/166/249
f 166/226/255 165/225/256 197/227/256 198/228/255
f 187/191/257 190/210/258 222/229/258 219/230/257
f 165/225/256 162/196/259 194/231/259 197/227/256
f 168/163/260 167/170/261 199/232/261 200/233/260
f 189/209/262 192/165/197 224/168/197 221/234/262
f 161/195/263 164/214/264 196/235/264 193/236/263
f 170/176/265 169/184/266 201/237/266 202/238/265
f 191/166/198 166/226/255 198/228/255 223/167/198
f 163/164/267 168/163/260 200/233/260 195/239/267
f 172/183/268 171/188/269 203/240/269 204/241/268
f 167/170/261 170/176/265 202/238/265 199/232/261
f 174/187/270 173/200/271 205/242/271 206/243/270
f 169/184/266 172/183/268 204/241/268 201/237/266
f 176/199/272 175/206/273 207/244/273 208/245/272
f 171/188/269 174/187/270 206/243/270 203/240/269
f 178/180/274 177/179/275 209/246/275 210/247/274
f 173/200/271 176/199/272 208/245/272 205/242/271
f 180/204/276 179/203/277 211/248/277 212/249/276
f 175/206/273 178/180/274 210/247/274 207/244/273
f 182/212/278 181/216/279 213/250/279 214/251/278
f 177/179/275 180/204/276 212/249/276 209/246/275
f 184/218/280 183/220/281 215/252/281 216/253/280
f 179/203/277 182/212/278 214/251/278 211/248/277
f 186/174/282 185/173/283 217/254/283 218/255/282
f 181/216/279 184/218/280 216/253/280 213/250/279
f 188/192/284 187/191/257 219/230/257 220/256/284
f 162/196/259 161/195/263 193/236/263 194/231/259
f 183/220/281 186/174/282 218/255/282 215/252/281
f 190/210/258 189/209/262 221/234/262 222/229/258
f 164/214/264 163/164/267 195/239/267 196/235/264
f 185/173/283 188/192/284 220/256/284 217/254/283
f 321/257/285 226/258/285 228/259/286 322/260/286
f 322/260/286 228/259/286 230/261/287 323/262/287
f 323/262/287 230/261/287 232/263/288 324/264/288
f 324/264/288 232/263/288 234/265/289 325/266/289
f 325/266/289 234/265/289 236/267/290 326/268/290
f 326/268/290 236/267/290 238/269/291 327/270/291
f 327/270/291 238/269/291 240/271/292 328/272/292
f 328/272/292 240/271/292 242/273/293 329/274/293
f 329/274/293 242/273/293 244/275/294 330/276/294
f 330/276/294 244/275/294 246/277/295 331/278/295
f 331/278/295 246/277/295 248/279/296 332/280/296
f 332/280/296 248/279/296 250/281/297 333/282/297
f 333/282/297 250/281/297 252/283/298 334/284/298
f 334/284/298 252/283/298 254/285/299 335/286/299
f 228/287/300 226/288/300 256/289/300 254/290/300 252/291/300 250/292/300 248/293/300 246/294/300 244/295/300 242/296/300 240/297/300 238/298/300 236/299/300 234/300/300 232/301/300 230/302/300
f 335/286/299 254/285/299 256/303/301 336/304/301
f 336/304/301 256/303/301 226/305/285 321/306/285
f 225/307/302 227/308/302 229/309/302 231/310/302 233/311/302 235/312/302 237/313/302 239/314/302 241/315/302 243/316/302 245/317/302 247/318/302 249/319/302 251/320/302 253/321/302 255/322/302
f 303/323/302 288/324/302 257/325/302 304/326/302
f 288/324/301 287/327/301 258/328/285 257/325/285
f 302/329/302 286/330/302 288/324/302 303/323/302
f 286/330/299 285/331/299 287/327/301 288/324/301
f 301/332/302 284/333/302 286/330/302 302/329/302
f 284/333/298 283/334/298 285/331/299 286/330/299
f 300/335/302 282/336/302 284/333/302 301/332/302
f 282/336/297 281/337/297 283/334/298 284/333/298
f 299/338/302 280/339/302 282/336/302 300/335/302
f 280/339/296 279/340/296 281/337/297 282/336/297
f 298/341/302 278/342/302 280/339/302 299/338/302
f 278/342/295 277/343/295 279/340/296 280/339/296
f 297/344/302 276/345/302 278/342/302 298/341/302
f 276/345/294 275/346/294 277/343/295 278/342/295
f 296/347/302 274/348/302 276/345/302 297/344/302
f 274/348/293 273/349/293 275/346/294 276/345/294
f 295/350/302 272/351/302 274/348/302 296/347/302
f 272/351/292 271/352/292 273/349/293 274/348/293
f 294/353/302 270/354/302 272/351/302 295/350/302
f 270/354/291 269/355/291 271/352/292 272/351/292
f 293/356/302 268/357/302 270/354/302 294/353/302
f 268/357/290 267/358/290 269/355/291 270/354/291
f 292/359/302 266/360/302 268/357/302 293/356/302
f 266/360/289 265/361/289 267/358/290 268/357/290
f 291/362/302 264/363/302 266/360/302 292/359/302
f 264/363/288 263/364/288 265/361/289 266/360/289
f 290/365/302 262/366/302 264/363/302 291/362/302
f 262/366/287 261/367/287 263/364/288 264/363/288
f 289/368/302 260/369/302 262/366/302 290/365/302
f 260/369/286 259/370/286 261/367/287 262/366/287
f 304/371/302 257/372/302 260/369/302 289/368/302
f 257/372/285 258/373/285 259/370/286 260/369/286
f 369/374/285 304/371/285 289/368/286 370/375/286
f 370/375/286 289/368/286 290/365/287 371/376/287
f 371/376/287 290/365/287 291/362/288 372/377/288
f 372/377/288 291/362/288 292/359/289 373/378/289
f 373/378/289 292/359/289 293/356/290 374/379/290
f 374/379/290 293/356/290 294/353/291 375/380/291
f 375/380/291 294/353/291 295/350/292 376/381/292
f 376/381/292 295/350/292 296/347/293 377/382/293
f 377/382/293 296/347/293 297/344/294 378/383/294
f 378/383/294 297/344/294 298/341/295 379/384/295
f 379/384/295 298/341/295 299/338/296 380/385/296
f 380/385/296 299/338/296 300/335/297 381/386/297
f 381/386/297 300/335/297 301/332/298 382/387/298
f 382/387/298 301/332/298 302/329/299 383/388/299
f 383/388/299 302/329/299 303/323/301 384/389/301
f 384/389/301 303/323/301 304/326/285 369/390/285
f 287/327/300 320/391/300 305/392/300 258/328/300
f 285/331/300 319/393/300 320/391/300 287/327/300
f 283/334/300 318/394/300 319/393/300 285/331/300
f 281/337/300 317/395/300 318/394/300 283/334/300
f 279/340/300 316/396/300 317/395/300 281/337/300
f 277/343/300 315/397/300 316/396/300 279/340/300
f 275/346/300 314/398/300 315/397/300 277/343/300
f 273/349/300 313/399/300 314/398/300 275/346/300
f 271/352/300 312/400/300 313/399/300 273/349/300
f 269/355/300 311/401/300 312/400/300 271/352/300
f 267/358/300 310/402/300 311/401/300 269/355/300
f 265/361/300 309/403/300 310/402/300 267/358/300
f 263/364/300 308/404/300 309/403/300 265/361/300
f 261/367/300 307/405/300 308/404/300 263/364/300
f 259/370/300 306/406/300 307/405/300 261/367/300
f 258/373/300 305/407/300 306/406/300 259/370/300
f 367/408/302 336/304/302 321/306/302 368/409/302
f 366/410/302 335/286/302 336/304/302 367/408/302
f 365/411/302 334/284/302 335/286/302 366/410/302
f 364/412/302 333/282/302 334/284/302 365/411/302
f 363/413/302 332/280/302 333/282/302 364/412/302
f 362/414/302 331/278/302 332/280/302 363/413/302
f 361/415/302 330/276/302 331/278/302 362/414/302
f 360/416/302 329/274/302 330/276/302 361/415/302
f 359/417/302 328/272/302 329/274/302 360/416/302
f 358/418/302 327/270/302 328/272/302 359/417/302
f 357/419/302 326/268/302 327/270/302 358/418/302
f 356/420/302 325/266/302 326/268/302 357/419/302
f 355/421/302 324/264/302 325/266/302 356/420/302
f 354/422/302 323/262/302 324/264/302 355/421/302
f 353/423/302 322/260/302 323/262/302 354/422/302
f 368/424/302 321/257/302 322/260/302 353/423/302
f 255/425/301 351/426/301 352/427/285 225/428/285
f 253/429/299 350/430/299 351/426/301 255/425/301
f 251/431/298 349/432/298 350/430/299 253/429/299
f 249/433/297 348/434/297 349/432/298 251/431/298
f 247/435/296 347/436/296 348/434/297 249/433/297
f 245/437/295 346/438/295 347/436/296 247/435/296
f 243/439/294 345/440/294 346/438/295 245/437/295
f 241/441/293 344/442/293 345/440/294 243/439/294
f 239/443/292 343/444/292 344/442/293 241/441/293
f 237/445/291 342/446/291 343/444/292 239/443/292
f 235/447/290 341/448/290 342/446/291 237/445/291
f 233/449/289 340/450/289 341/448/290 235/447/290
f 231/451/288 339/452/288 340/450/289 233/449/289
f 229/453/287 338/454/287 339/452/288 231/451/288
f 227/455/286 337/456/286 338/454/287 229/453/287
f 225/457/285 352/458/285 337/456/286 227/455/286
f 305/407/285 368/424/285 353/423/286 306/406/286
f 306/406/286 353/423/286 354/422/287 307/405/287
f 307/405/287 354/422/287 355/421/288 308/404/288
f 308/404/288 355/421/288 356/420/289 309/403/289
f 309/403/289 356/420/289 357/419/290 310/402/290
f 310/402/290 357/419/290 358/418/291 311/401/291
f 311/401/291 358/418/291 359/417/292 312/400/292
f 312/400/292 359/417/292 360/416/293 313/399/293
f 313/399/293 360/416/293 361/415/294 314/398/294
f 314/398/294 361/415/294 362/414/295 315/397/295
f 315/397/295 362/414/295 363/413/296 316/396/296
f 316/396/296 363/413/296 364/412/297 317/395/297
f 317/395/297 364/412/297 365/411/298 318/394/298
f 318/394/298 365/411/298 366/410/299 319/393/299
f 319/393/299 366/410/299 367/408/301 320/391/301
f 320/391/301 367/408/301 368/409/285 305/392/285
f 351/426/300 384/389/300 369/390/300 352/427/300
f 350/430/300 383/388/300 384/389/300 351/426/300
f 349/432/300 382/387/300 383/388/300 350/430/300
f 348/434/300 381/386/300 382/387/300 349/432/300
f 347/436/300 380/385/300 381/386/300 348/434/300
f 346/438/300 379/384/300 380/385/300 347/436/300
f 345/440/300 378/383/300 379/384/300 346/438/300
f 344/442/300 377/382/300 378/383/300 345/440/300
f 343/444/300 376/381/300 377/382/300 344/442/300
f 342/446/300 375/380/300 376/381/300 343/444/300
f 341/448/300 374/379/300 375/380/300 342/446/300
f 340/450/300 373/378/300 374/379/300 341/448/300
f 339/452/300 372/377/300 373/378/300 340/450/300
f 338/454/300 371/376/300 372/377/300 339/452/300
f 337/456/300 370/375/300 371/376/300 338/454/300
f 352/458/300 369/374/300 370/375/300 337/456/300
f 386/459/293 388/460/293 387/461/293 385/462/293
f 388/460/293 390/463/293 389/464/293 387/461/293
f 390/463/293 392/465/293 391/466/293 389/464/293
f 392/465/293 394/467/293 393/468/293 391/466/293
f 394/467/293 396/469/293 395/470/293 393/468/293
f 396/469/293 398/471/293 397/472/293 395/470/293
f 398/471/293 400/473/293 399/474/293 397/472/293
f 400/473/293 402/475/293 401/476/293 399/474/293
f 402/475/293 404/477/293 403/478/293 401/476/293
f 404/477/293 406/479/293 405/480/293 403/478/293
f 406/479/293 408/481/293 407/482/293 405/480/293
f 408/481/293 410/483/293 409/484/293 407/482/293
f 410/483/293 412/485/293 411/486/293 409/484/293
f 412/485/293 414/487/293 413/488/293 411/486/293
f 414/487/293 416/489/293 415/490/293 413/488/293
f 417/491/303 426/492/304 450/493/304 436/494/303
f 454/495/305 428/496/305 427/497/306 456/498/306
f 448/499/307 423/500/307 421/501/308 444/502/308
f 449/503/293 453/504/293 455/505/293 451/506/293 457/507/293 461/508/293 463/509/293 459/510/293 441/511/293 445/512/293 447/513/293 443/514/293 433/515/293 437/516/293 439/517/293 435/518/293
f 417/491/285 419/519/285 420/520/285 418/521/285 421/501/285 423/500/285 424/522/285 422/523/285 429/524/285 431/525/285 432/526/285 430/527/285 425/528/285 427/497/285 428/496/285 426/492/285
f 419/519/309 440/529/309 438/530/310 420/520/310
f 442/531/311 422/523/311 424/522/312 446/532/312
f 434/533/313 444/502/308 421/501/308 418/521/313
f 429/524/314 422/523/311 442/531/311 460/534/314
f 450/493/304 426/492/304 428/496/305 454/495/305
f 446/532/312 424/522/312 423/500/307 448/499/307
f 456/498/306 427/497/306 425/528/315 452/535/315
f 432/526/316 462/536/316 458/537/317 430/527/317
f 425/528/315 430/527/317 458/537/317 452/535/315
f 431/525/318 464/538/318 462/536/316 432/526/316
f 429/524/314 460/534/314 464/538/318 431/525/318
f 417/491/303 436/494/303 440/529/309 419/519/309
f 435/518/319 439/517/320 440/539/320 436/540/319
f 439/517/320 437/516/321 438/541/321 440/539/320
f 437/516/321 433/515/322 434/542/322 438/541/321
f 445/512/323 441/511/324 442/543/324 446/544/323
f 447/513/325 445/512/323 446/544/323 448/545/325
f 443/514/326 447/513/325 448/545/325 444/546/326
f 453/504/327 449/503/328 450/547/328 454/548/327
f 455/505/329 453/504/327 454/548/327 456/549/329
f 451/506/330 455/505/329 456/549/329 452/550/330
f 459/510/331 463/509/332 464/551/332 460/552/331
f 463/509/332 461/508/333 462/553/333 464/551/332
f 461/508/333 457/507/334 458/554/334 462/553/333
f 449/503/328 435/518/319 436/540/319 450/547/328
f 433/515/322 443/514/326 444/546/326 434/542/322
f 452/550/330 458/554/334 457/507/334 451/506/330
f 460/552/331 442/543/324 441/511/324 459/510/331
f 420/520/310 438/530/310 434/533/313 418/521/313
f 466/555/285 465/556/285 467/557/285 468/558/285
f 468/558/285 467/557/285 469/559/285 470/560/285
f 470/560/285 469/559/285 471/561/285 472/562/285
f 490/563/285 489/564/285 491/565/285 492/566/285
f 492/566/285 491/565/285 493/567/285 494/568/285
f 494/568/285 493/567/285 495/569/285 496/570/285
f 386/571/335 466/555/335 468/558/336 388/572/336
f 415/573/337 495/569/337 493/567/338 413/574/338
f 400/575/339 480/576/339 482/577/340 402/578/340
f 389/579/341 469/559/341 467/557/342 387/580/342
f 414/581/343 494/568/343 496/570/344 416/582/344
f 403/583/345 483/584/345 481/585/346 401/586/346
f 388/572/336 468/558/336 470/560/347 390/587/347
f 402/578/340 482/577/340 484/588/348 404/589/348
f 391/590/349 471/561/349 469/559/341 389/579/341
f 405/591/350 485/592/350 483/584/345 403/583/345
f 390/587/347 470/560/347 472/562/351 392/593/351
f 404/589/348 484/588/348 486/594/352 406/595/352
f 393/596/353 473/597/353 471/561/349 391/590/349
f 407/598/354 487/599/354 485/592/350 405/591/350
f 392/593/351 472/562/351 474/600/355 394/601/355
f 406/595/352 486/594/352 488/602/356 408/603/356
f 395/604/357 475/605/357 473/597/353 393/596/353
f 409/606/358 489/564/358 487/599/354 407/598/354
f 394/601/355 474/600/355 476/607/359 396/608/359
f 408/603/356 488/602/356 490/563/360 410/609/360
f 397/610/361 477/611/361 475/605/357 395/604/357
f 411/612/362 491/565/362 489/564/358 409/606/358
f 396/608/359 476/607/359 478/613/363 398/614/363
f 416/582/344 496/570/344 495/569/337 415/573/337
f 410/609/360 490/563/360 492/566/364 412/615/364
f 399/616/365 479/617/365 477/611/361 397/610/361
f 385/618/366 465/556/366 466/555/335 386/571/335
f 413/574/338 493/567/338 491/565/362 411/612/362
f 398/614/363 478/613/363 480/576/339 400/575/339
f 387/580/342 467/557/342 465/556/366 385/618/366
f 412/615/364 492/566/364 494/568/343 414/581/343
f 401/586/346 481/585/346 479/617/365 399/616/365
