# Blender 4.1.1
# www.blender.org
mtllib 1.25m_Firebox1_Throttle.mtl
o Regulator
v 0.034599 -0.856090 0.242664
v -0.034599 -0.856090 0.242664
v 0.018195 -0.884893 0.524968
v -0.018195 -0.884893 0.524968
v 0.034599 -0.890142 0.242664
v -0.034645 -0.890142 0.242729
v 0.018195 -0.913450 0.524968
v -0.018195 -0.913450 0.524968
v 0.028579 -0.858838 0.302224
v 0.028579 -0.867334 0.329795
v 0.028579 -0.871768 0.317945
v 0.028579 -0.859976 0.311672
v 0.028579 -0.863086 0.321764
v -0.028579 -0.867334 0.329795
v -0.028579 -0.858838 0.302224
v -0.028579 -0.871768 0.317945
v -0.028579 -0.863086 0.321764
v -0.028579 -0.859976 0.311672
v 0.028579 -0.895890 0.329795
v 0.028579 -0.887394 0.302224
v 0.028579 -0.874464 0.317945
v 0.028579 -0.891642 0.321764
v 0.028579 -0.888533 0.311672
v -0.028579 -0.887394 0.302224
v -0.028579 -0.895890 0.329795
v -0.028579 -0.874464 0.317945
v -0.028579 -0.888533 0.311672
v -0.028579 -0.891642 0.321764
v -0.028579 -0.884893 0.366497
v -0.028579 -0.876397 0.338926
v -0.028579 -0.897823 0.350777
v -0.028579 -0.883755 0.357049
v -0.028579 -0.880645 0.346958
v 0.028579 -0.913450 0.366497
v 0.028579 -0.904954 0.338926
v 0.028579 -0.900519 0.350777
v 0.028579 -0.912311 0.357049
v 0.028579 -0.909202 0.346958
v 0.028579 -0.876397 0.338926
v 0.028579 -0.884893 0.366497
v 0.028579 -0.897823 0.350777
v 0.028579 -0.880645 0.346958
v 0.028579 -0.883755 0.357049
v -0.028579 -0.904954 0.338926
v -0.028579 -0.913450 0.366497
v -0.028579 -0.900519 0.350777
v -0.028579 -0.909202 0.346958
v -0.028579 -0.912311 0.357049
v -0.027477 -0.884893 0.537770
v 0.027476 -0.884893 0.537770
v 0.027476 -0.913450 0.537770
v -0.027477 -0.913450 0.537770
v -0.027477 -0.884893 0.563932
v -0.016650 -0.884893 0.574758
v 0.016650 -0.884893 0.574758
v 0.027476 -0.884893 0.563932
v 0.027476 -0.913450 0.563932
v 0.016650 -0.913450 0.574758
v -0.016650 -0.913450 0.574758
v -0.027477 -0.913450 0.563932
v -0.000000 -0.940089 0.531163
v -0.000000 -0.900713 0.531163
v -0.003841 -0.940089 0.531541
v -0.003841 -0.900713 0.531541
v -0.007534 -0.940089 0.532662
v -0.007534 -0.900713 0.532662
v -0.010938 -0.940089 0.534481
v -0.010938 -0.900713 0.534481
v -0.013922 -0.940089 0.536930
v -0.013922 -0.900713 0.536930
v -0.016370 -0.940089 0.539913
v -0.016370 -0.900713 0.539913
v -0.018189 -0.940089 0.543317
v -0.018189 -0.900713 0.543317
v -0.019310 -0.940089 0.547010
v -0.019310 -0.900713 0.547010
v -0.019688 -0.940089 0.550851
v -0.019688 -0.900713 0.550851
v -0.019310 -0.940089 0.554692
v -0.019310 -0.900713 0.554692
v -0.018189 -0.940089 0.558385
v -0.018189 -0.900713 0.558385
v -0.016370 -0.940089 0.561789
v -0.016370 -0.900713 0.561789
v -0.013922 -0.940089 0.564772
v -0.013922 -0.900713 0.564772
v -0.010938 -0.940089 0.567221
v -0.010938 -0.900713 0.567221
v -0.007534 -0.940089 0.569040
v -0.007534 -0.900713 0.569040
v -0.003841 -0.940089 0.570160
v -0.003841 -0.900713 0.570160
v -0.000000 -0.940089 0.570539
v -0.000000 -0.900713 0.570539
v 0.003841 -0.940089 0.570160
v 0.003841 -0.900713 0.570160
v 0.007534 -0.940089 0.569040
v 0.007534 -0.900713 0.569040
v 0.010938 -0.940089 0.567221
v 0.010938 -0.900713 0.567221
v 0.013921 -0.940089 0.564772
v 0.013921 -0.900713 0.564772
v 0.016370 -0.940089 0.561789
v 0.016370 -0.900713 0.561789
v 0.018189 -0.940089 0.558385
v 0.018189 -0.900713 0.558385
v 0.019309 -0.940089 0.554692
v 0.019309 -0.900713 0.554692
v 0.019688 -0.940089 0.550851
v 0.019688 -0.900713 0.550851
v 0.019309 -0.940089 0.547010
v 0.019309 -0.900713 0.547010
v 0.018189 -0.940089 0.543317
v 0.018189 -0.900713 0.543317
v 0.016370 -0.940089 0.539913
v 0.016370 -0.900713 0.539913
v 0.013921 -0.940089 0.536930
v 0.013921 -0.900713 0.536930
v 0.010938 -0.940089 0.534481
v 0.010938 -0.900713 0.534481
v 0.007534 -0.940089 0.532662
v 0.007534 -0.900713 0.532662
v 0.003841 -0.940089 0.531541
v 0.003841 -0.900713 0.531541
v -0.000000 -0.942530 0.528512
v -0.004358 -0.942530 0.528941
v -0.008549 -0.942530 0.530212
v -0.012411 -0.942530 0.532277
v -0.015796 -0.942530 0.535055
v -0.018575 -0.942530 0.538440
v -0.020639 -0.942530 0.542302
v -0.021910 -0.942530 0.546493
v -0.022339 -0.942530 0.550851
v -0.021910 -0.942530 0.555209
v -0.020639 -0.942530 0.559400
v -0.018575 -0.942530 0.563262
v -0.015796 -0.942530 0.566647
v -0.012411 -0.942530 0.569425
v -0.008549 -0.942530 0.571490
v -0.004358 -0.942530 0.572761
v -0.000000 -0.942530 0.573190
v 0.004358 -0.942530 0.572761
v 0.008549 -0.942530 0.571490
v 0.012411 -0.942530 0.569425
v 0.015796 -0.942530 0.566647
v 0.018574 -0.942530 0.563262
v 0.020639 -0.942530 0.559400
v 0.021910 -0.942530 0.555209
v 0.022339 -0.942530 0.550851
v 0.021910 -0.942530 0.546493
v 0.020639 -0.942530 0.542302
v 0.018574 -0.942530 0.538440
v 0.015796 -0.942530 0.535055
v 0.012411 -0.942530 0.532277
v 0.008549 -0.942530 0.530212
v 0.004358 -0.942530 0.528941
v -0.000000 -1.018441 0.543814
v -0.000000 -1.003212 0.528512
v -0.000000 -1.017696 0.539086
v -0.000000 -1.015532 0.534820
v -0.000000 -1.012163 0.531434
v -0.000000 -1.007918 0.529261
v -0.004358 -1.003212 0.528941
v -0.001373 -1.018441 0.543950
v -0.004212 -1.007918 0.529675
v -0.003788 -1.012163 0.531807
v -0.003128 -1.015532 0.535128
v -0.002295 -1.017696 0.539312
v -0.008549 -1.003212 0.530212
v -0.002693 -1.018441 0.544350
v -0.008262 -1.007918 0.530904
v -0.007431 -1.012163 0.532912
v -0.006135 -1.015532 0.536040
v -0.004503 -1.017696 0.539981
v -0.012411 -1.003212 0.532277
v -0.003909 -1.018441 0.545000
v -0.011995 -1.007918 0.532899
v -0.010787 -1.012163 0.534706
v -0.008907 -1.015532 0.537521
v -0.006537 -1.017696 0.541068
v -0.015796 -1.003212 0.535055
v -0.004976 -1.018441 0.545875
v -0.015267 -1.007918 0.535584
v -0.013730 -1.012163 0.537121
v -0.011336 -1.015532 0.539515
v -0.008319 -1.017696 0.542532
v -0.018575 -1.003212 0.538440
v -0.005851 -1.018441 0.546942
v -0.017952 -1.007918 0.538856
v -0.016145 -1.012163 0.540064
v -0.013330 -1.015532 0.541944
v -0.009783 -1.017696 0.544314
v -0.020639 -1.003212 0.542302
v -0.006501 -1.018441 0.548158
v -0.019947 -1.007918 0.542589
v -0.017939 -1.012163 0.543420
v -0.014811 -1.015532 0.544716
v -0.010870 -1.017696 0.546349
v -0.021910 -1.003212 0.546493
v -0.006901 -1.018441 0.549478
v -0.021176 -1.007918 0.546639
v -0.019044 -1.012163 0.547063
v -0.015723 -1.015532 0.547723
v -0.011539 -1.017696 0.548556
v -0.022339 -1.003212 0.550851
v -0.007037 -1.018441 0.550851
v -0.021590 -1.007918 0.550851
v -0.019417 -1.012163 0.550851
v -0.016031 -1.015532 0.550851
v -0.011765 -1.017696 0.550851
v -0.021910 -1.003212 0.555209
v -0.006901 -1.018441 0.552224
v -0.021176 -1.007918 0.555063
v -0.019044 -1.012163 0.554639
v -0.015723 -1.015532 0.553978
v -0.011539 -1.017696 0.553146
v -0.020639 -1.003212 0.559400
v -0.006501 -1.018441 0.553544
v -0.019947 -1.007918 0.559113
v -0.017939 -1.012163 0.558281
v -0.014811 -1.015532 0.556986
v -0.010870 -1.017696 0.555353
v -0.018575 -1.003212 0.563262
v -0.005851 -1.018441 0.554760
v -0.017952 -1.007918 0.562846
v -0.016145 -1.012163 0.561638
v -0.013330 -1.015532 0.559757
v -0.009783 -1.017696 0.557387
v -0.015796 -1.003212 0.566647
v -0.004976 -1.018441 0.555826
v -0.015267 -1.007918 0.566118
v -0.013730 -1.012163 0.564581
v -0.011336 -1.015532 0.562187
v -0.008319 -1.017696 0.559170
v -0.012411 -1.003212 0.569425
v -0.003909 -1.018441 0.556702
v -0.011995 -1.007918 0.568803
v -0.010787 -1.012163 0.566995
v -0.008907 -1.015532 0.564180
v -0.006537 -1.017696 0.560633
v -0.008549 -1.003212 0.571490
v -0.002693 -1.018441 0.557352
v -0.008262 -1.007918 0.570798
v -0.007431 -1.012163 0.568790
v -0.006135 -1.015532 0.565662
v -0.004503 -1.017696 0.561721
v -0.004358 -1.003212 0.572761
v -0.001373 -1.018441 0.557752
v -0.004212 -1.007918 0.572026
v -0.003788 -1.012163 0.569895
v -0.003128 -1.015532 0.566574
v -0.002295 -1.017696 0.562390
v -0.000000 -1.003212 0.573190
v -0.000000 -1.018441 0.557887
v -0.000000 -1.007918 0.572441
v -0.000000 -1.012163 0.570268
v -0.000000 -1.015532 0.566882
v -0.000000 -1.017696 0.562616
v 0.004358 -1.003212 0.572761
v 0.001373 -1.018441 0.557752
v 0.004212 -1.007918 0.572026
v 0.003788 -1.012163 0.569895
v 0.003127 -1.015532 0.566574
v 0.002295 -1.017696 0.562390
v 0.008549 -1.003212 0.571490
v 0.002693 -1.018441 0.557352
v 0.008262 -1.007918 0.570798
v 0.007430 -1.012163 0.568790
v 0.006135 -1.015532 0.565662
v 0.004502 -1.017696 0.561721
v 0.012411 -1.003212 0.569425
v 0.003909 -1.018441 0.556702
v 0.011995 -1.007918 0.568803
v 0.010787 -1.012163 0.566995
v 0.008906 -1.015532 0.564180
v 0.006536 -1.017696 0.560633
v 0.015796 -1.003212 0.566647
v 0.004975 -1.018441 0.555826
v 0.015267 -1.007918 0.566118
v 0.013730 -1.012163 0.564581
v 0.011336 -1.015532 0.562187
v 0.008319 -1.017696 0.559170
v 0.018574 -1.003212 0.563262
v 0.005851 -1.018441 0.554760
v 0.017952 -1.007918 0.562846
v 0.016144 -1.012163 0.561638
v 0.013329 -1.015532 0.559757
v 0.009782 -1.017696 0.557387
v 0.020639 -1.003212 0.559400
v 0.006501 -1.018441 0.553544
v 0.019947 -1.007918 0.559113
v 0.017939 -1.012163 0.558281
v 0.014811 -1.015532 0.556986
v 0.010870 -1.017696 0.555353
v 0.021910 -1.003212 0.555209
v 0.006901 -1.018441 0.552224
v 0.021175 -1.007918 0.555063
v 0.019044 -1.012163 0.554639
v 0.015723 -1.015532 0.553978
v 0.011539 -1.017696 0.553146
v 0.022339 -1.003212 0.550851
v 0.007036 -1.018441 0.550851
v 0.021590 -1.007918 0.550851
v 0.019417 -1.012163 0.550851
v 0.016031 -1.015532 0.550851
v 0.011765 -1.017696 0.550851
v 0.021910 -1.003212 0.546493
v 0.006901 -1.018441 0.549478
v 0.021175 -1.007918 0.546639
v 0.019044 -1.012163 0.547063
v 0.015723 -1.015532 0.547723
v 0.011539 -1.017696 0.548556
v 0.020639 -1.003212 0.542302
v 0.006501 -1.018441 0.548158
v 0.019947 -1.007918 0.542589
v 0.017939 -1.012163 0.543420
v 0.014811 -1.015532 0.544716
v 0.010870 -1.017696 0.546349
v 0.018574 -1.003212 0.538440
v 0.005851 -1.018441 0.546942
v 0.017952 -1.007918 0.538856
v 0.016144 -1.012163 0.540064
v 0.013329 -1.015532 0.541944
v 0.009782 -1.017696 0.544314
v 0.015796 -1.003212 0.535055
v 0.004975 -1.018441 0.545875
v 0.015267 -1.007918 0.535584
v 0.013730 -1.012163 0.537121
v 0.011336 -1.015532 0.539515
v 0.008319 -1.017696 0.542532
v 0.012411 -1.003212 0.532277
v 0.003909 -1.018441 0.545000
v 0.011995 -1.007918 0.532899
v 0.010787 -1.012163 0.534706
v 0.008906 -1.015532 0.537521
v 0.006536 -1.017696 0.541068
v 0.008549 -1.003212 0.530212
v 0.002693 -1.018441 0.544350
v 0.008262 -1.007918 0.530904
v 0.007430 -1.012163 0.532912
v 0.006135 -1.015532 0.536040
v 0.004502 -1.017696 0.539981
v 0.004358 -1.003212 0.528941
v 0.001373 -1.018441 0.543950
v 0.004212 -1.007918 0.529675
v 0.003788 -1.012163 0.531807
v 0.003127 -1.015532 0.535128
v 0.002295 -1.017696 0.539312
v -0.000000 -0.890142 0.182752
v -0.000000 -0.856090 0.182752
v -0.019949 -0.890142 0.188097
v -0.019949 -0.856090 0.188097
v -0.034553 -0.890142 0.202701
v -0.034553 -0.856090 0.202701
v -0.039899 -0.890142 0.222650
v -0.039899 -0.856090 0.222650
v 0.039899 -0.890142 0.222650
v 0.039899 -0.856090 0.222650
v 0.034553 -0.890142 0.202701
v 0.034553 -0.856090 0.202701
v 0.019949 -0.890142 0.188097
v 0.019949 -0.856090 0.188097
v 0.031612 -0.856090 0.272477
v -0.031612 -0.856090 0.272477
v 0.032090 -0.890142 0.267796
v -0.032090 -0.890142 0.267796
v 0.000000 -0.909003 0.195013
v 0.000000 -0.836624 0.195013
v -0.013819 -0.909003 0.198716
v -0.013819 -0.836624 0.198716
v -0.023935 -0.909003 0.208832
v -0.023935 -0.836624 0.208832
v -0.027637 -0.909003 0.222650
v -0.027637 -0.836624 0.222650
v -0.023935 -0.909003 0.236469
v -0.023935 -0.836624 0.236469
v -0.013819 -0.909003 0.246585
v -0.013819 -0.836624 0.246585
v 0.000000 -0.909003 0.250288
v 0.000000 -0.836624 0.250288
v 0.013819 -0.909003 0.246585
v 0.013819 -0.836624 0.246585
v 0.023935 -0.909003 0.236469
v 0.023935 -0.836624 0.236469
v 0.027637 -0.909003 0.222650
v 0.027637 -0.836624 0.222650
v 0.023935 -0.909003 0.208832
v 0.023935 -0.836624 0.208832
v 0.013819 -0.909003 0.198716
v 0.013819 -0.836624 0.198716
vn 0.9981 -0.0000 0.0620
vn 0.9987 -0.0000 0.0504
vn 0.9998 -0.0000 0.0223
vn 0.9989 -0.0000 0.0467
vn -0.0000 1.0000 -0.0000
vn -0.0000 -0.8056 -0.5925
vn -0.0000 0.8056 0.5925
vn -1.0000 -0.0000 -0.0000
vn -0.9998 -0.0000 0.0223
vn -0.9995 0.0001 0.0323
vn 0.9973 -0.0000 0.0730
vn 0.9995 -0.0000 0.0321
vn 0.9977 -0.0000 0.0677
vn 0.9960 0.0001 0.0893
vn 0.9849 -0.0000 0.1733
vn -0.9981 -0.0000 0.0620
vn -0.9989 -0.0000 0.0467
vn -0.9987 -0.0000 0.0504
vn 1.0000 -0.0000 -0.0000
vn -0.0000 -1.0000 -0.0000
vn -0.0000 -0.9981 -0.0612
vn -0.0000 0.9981 0.0612
vn -0.9977 0.0003 0.0680
vn -0.9973 0.0003 0.0733
vn -0.9960 0.0004 0.0897
vn -0.9850 0.0006 0.1728
vn -0.9850 0.0006 0.1727
vn -0.0000 -0.9999 -0.0170
vn -0.0000 -0.9782 -0.2079
vn -0.0000 -0.9239 -0.3827
vn -0.0000 0.9239 0.3827
vn -0.0000 0.9782 0.2079
vn -0.0000 0.9944 0.1054
vn -0.0000 0.9991 0.0431
vn 0.8096 -0.0000 -0.5870
vn -0.8096 -0.0000 -0.5870
vn -0.0000 -0.0000 1.0000
vn 0.7071 -0.0000 0.7071
vn -0.7071 -0.0000 0.7071
vn -0.0000 -0.0000 -1.0000
vn -0.1951 -0.0000 -0.9808
vn -0.3827 -0.0000 -0.9239
vn -0.5556 -0.0000 -0.8315
vn -0.7071 -0.0000 -0.7071
vn -0.8315 -0.0000 -0.5556
vn -0.9239 -0.0000 -0.3827
vn -0.9808 -0.0000 -0.1951
vn -0.9808 -0.0000 0.1951
vn -0.9239 -0.0000 0.3827
vn -0.8315 -0.0000 0.5556
vn -0.5556 -0.0000 0.8315
vn -0.3827 -0.0000 0.9239
vn -0.1951 -0.0000 0.9808
vn 0.1951 -0.0000 0.9808
vn 0.3827 -0.0000 0.9239
vn 0.5556 -0.0000 0.8315
vn 0.8315 -0.0000 0.5556
vn 0.9239 -0.0000 0.3827
vn 0.9808 -0.0000 0.1951
vn 0.9808 -0.0000 -0.1951
vn 0.9239 -0.0000 -0.3827
vn 0.8315 -0.0000 -0.5556
vn 0.7071 -0.0000 -0.7071
vn 0.5556 -0.0000 -0.8315
vn 0.3827 -0.0000 -0.9239
vn 0.1951 -0.0000 -0.9808
vn 0.2592 0.7357 0.6258
vn 0.3763 0.7357 0.5632
vn 0.5632 0.7357 -0.3763
vn 0.4790 0.7357 -0.4790
vn -0.5632 0.7357 -0.3763
vn -0.6258 0.7357 -0.2592
vn -0.2592 0.7357 0.6258
vn -0.1321 0.7357 0.6643
vn 0.6643 0.7357 0.1321
vn 0.6773 0.7357 -0.0000
vn -0.1321 0.7357 -0.6643
vn -0.2592 0.7357 -0.6258
vn -0.6258 0.7357 0.2592
vn -0.5632 0.7357 0.3763
vn 0.4790 0.7357 0.4790
vn 0.3763 0.7357 -0.5632
vn -0.6643 0.7357 -0.1321
vn -0.0000 0.7357 0.6774
vn 0.6643 0.7357 -0.1321
vn -0.3763 0.7357 -0.5632
vn -0.4790 0.7357 0.4790
vn 0.5632 0.7357 0.3763
vn 0.2592 0.7357 -0.6258
vn -0.6774 0.7357 -0.0000
vn 0.1321 0.7357 0.6643
vn 0.6258 0.7357 -0.2592
vn -0.4790 0.7357 -0.4790
vn -0.3763 0.7357 0.5632
vn 0.6258 0.7357 0.2592
vn 0.1321 0.7357 -0.6643
vn -0.6643 0.7357 0.1321
vn -0.0000 0.7357 -0.6773
vn -0.0000 -0.1572 -0.9876
vn -0.0000 -0.3075 -0.9516
vn -0.1856 -0.3075 -0.9333
vn -0.1927 -0.1572 -0.9686
vn -0.0000 -0.5849 -0.8111
vn -0.1582 -0.5849 -0.7955
vn -0.0000 -0.8057 -0.5924
vn -0.1156 -0.8057 -0.5810
vn -0.0000 -0.9486 -0.3165
vn -0.0617 -0.9486 -0.3104
vn -0.0000 -0.9878 -0.1557
vn -0.0304 -0.9878 -0.1527
vn -0.3641 -0.3075 -0.8791
vn -0.3779 -0.1572 -0.9124
vn -0.3104 -0.5849 -0.7493
vn -0.2267 -0.8057 -0.5473
vn -0.1211 -0.9486 -0.2924
vn -0.0596 -0.9878 -0.1438
vn -0.5287 -0.3075 -0.7912
vn -0.5487 -0.1572 -0.8211
vn -0.4506 -0.5849 -0.6744
vn -0.3291 -0.8057 -0.4925
vn -0.1758 -0.9486 -0.2632
vn -0.0865 -0.9878 -0.1295
vn -0.6729 -0.3075 -0.6729
vn -0.6983 -0.1572 -0.6983
vn -0.5735 -0.5849 -0.5735
vn -0.4189 -0.8057 -0.4189
vn -0.2238 -0.9486 -0.2238
vn -0.1101 -0.9878 -0.1101
vn -0.7912 -0.3075 -0.5287
vn -0.8211 -0.1572 -0.5487
vn -0.6744 -0.5849 -0.4506
vn -0.4925 -0.8057 -0.3291
vn -0.2632 -0.9486 -0.1758
vn -0.1295 -0.9878 -0.0865
vn -0.8791 -0.3075 -0.3641
vn -0.9124 -0.1572 -0.3779
vn -0.7493 -0.5849 -0.3104
vn -0.5473 -0.8057 -0.2267
vn -0.2924 -0.9486 -0.1211
vn -0.1438 -0.9878 -0.0596
vn -0.9333 -0.3075 -0.1856
vn -0.9686 -0.1572 -0.1927
vn -0.7955 -0.5849 -0.1582
vn -0.5810 -0.8057 -0.1156
vn -0.3104 -0.9486 -0.0617
vn -0.1527 -0.9878 -0.0304
vn -0.9516 -0.3075 -0.0000
vn -0.9876 -0.1572 -0.0000
vn -0.8111 -0.5849 -0.0000
vn -0.5924 -0.8057 -0.0000
vn -0.3165 -0.9486 -0.0000
vn -0.1557 -0.9878 -0.0000
vn -0.9333 -0.3075 0.1856
vn -0.9686 -0.1572 0.1927
vn -0.7955 -0.5849 0.1582
vn -0.5810 -0.8057 0.1156
vn -0.3104 -0.9486 0.0617
vn -0.1527 -0.9878 0.0304
vn -0.8791 -0.3075 0.3641
vn -0.9124 -0.1572 0.3779
vn -0.7493 -0.5849 0.3104
vn -0.5473 -0.8057 0.2267
vn -0.2924 -0.9486 0.1211
vn -0.1438 -0.9878 0.0596
vn -0.7912 -0.3075 0.5287
vn -0.8211 -0.1572 0.5487
vn -0.6744 -0.5849 0.4506
vn -0.4925 -0.8057 0.3291
vn -0.2632 -0.9486 0.1758
vn -0.1295 -0.9878 0.0865
vn -0.6729 -0.3075 0.6729
vn -0.6983 -0.1572 0.6983
vn -0.5735 -0.5849 0.5735
vn -0.4189 -0.8057 0.4189
vn -0.2238 -0.9486 0.2238
vn -0.1101 -0.9878 0.1101
vn -0.5287 -0.3075 0.7912
vn -0.5487 -0.1572 0.8211
vn -0.4506 -0.5849 0.6744
vn -0.3291 -0.8057 0.4925
vn -0.1758 -0.9486 0.2632
vn -0.0865 -0.9878 0.1295
vn -0.3642 -0.3075 0.8791
vn -0.3779 -0.1572 0.9124
vn -0.3104 -0.5849 0.7493
vn -0.2267 -0.8057 0.5473
vn -0.1211 -0.9486 0.2924
vn -0.0596 -0.9878 0.1438
vn -0.1856 -0.3075 0.9333
vn -0.1927 -0.1572 0.9686
vn -0.1582 -0.5849 0.7955
vn -0.1156 -0.8057 0.5810
vn -0.0617 -0.9486 0.3104
vn -0.0304 -0.9878 0.1527
vn -0.0000 -0.3074 0.9516
vn -0.0000 -0.1572 0.9876
vn -0.0000 -0.5849 0.8111
vn -0.0000 -0.8057 0.5924
vn -0.0000 -0.9486 0.3165
vn -0.0000 -0.9878 0.1557
vn 0.1856 -0.3075 0.9333
vn 0.1927 -0.1572 0.9686
vn 0.1582 -0.5849 0.7955
vn 0.1156 -0.8057 0.5810
vn 0.0617 -0.9486 0.3104
vn 0.0304 -0.9878 0.1527
vn 0.3642 -0.3075 0.8791
vn 0.3779 -0.1572 0.9124
vn 0.3104 -0.5849 0.7493
vn 0.2267 -0.8057 0.5473
vn 0.1211 -0.9486 0.2924
vn 0.0596 -0.9878 0.1438
vn 0.5287 -0.3075 0.7912
vn 0.5487 -0.1572 0.8211
vn 0.4506 -0.5849 0.6744
vn 0.3291 -0.8057 0.4925
vn 0.1758 -0.9486 0.2632
vn 0.0865 -0.9878 0.1295
vn 0.6729 -0.3075 0.6729
vn 0.6983 -0.1572 0.6983
vn 0.5735 -0.5849 0.5735
vn 0.4189 -0.8057 0.4189
vn 0.2238 -0.9486 0.2238
vn 0.1101 -0.9878 0.1101
vn 0.7912 -0.3075 0.5287
vn 0.8211 -0.1572 0.5487
vn 0.6744 -0.5849 0.4506
vn 0.4925 -0.8057 0.3291
vn 0.2632 -0.9486 0.1758
vn 0.1295 -0.9878 0.0865
vn 0.8791 -0.3075 0.3641
vn 0.9124 -0.1572 0.3779
vn 0.7493 -0.5849 0.3104
vn 0.5473 -0.8057 0.2267
vn 0.2924 -0.9486 0.1211
vn 0.1438 -0.9878 0.0596
vn 0.9333 -0.3075 0.1856
vn 0.9686 -0.1572 0.1927
vn 0.7955 -0.5849 0.1582
vn 0.5810 -0.8057 0.1156
vn 0.3104 -0.9486 0.0617
vn 0.1527 -0.9878 0.0304
vn 0.9516 -0.3075 -0.0000
vn 0.9876 -0.1572 -0.0000
vn 0.8111 -0.5849 -0.0000
vn 0.5924 -0.8057 -0.0000
vn 0.3165 -0.9486 -0.0000
vn 0.1557 -0.9878 -0.0000
vn 0.9333 -0.3075 -0.1856
vn 0.9686 -0.1572 -0.1927
vn 0.7955 -0.5849 -0.1582
vn 0.5810 -0.8057 -0.1156
vn 0.3104 -0.9486 -0.0617
vn 0.1527 -0.9878 -0.0304
vn 0.8791 -0.3075 -0.3641
vn 0.9124 -0.1572 -0.3779
vn 0.7493 -0.5849 -0.3104
vn 0.5473 -0.8057 -0.2267
vn 0.2924 -0.9486 -0.1211
vn 0.1438 -0.9878 -0.0596
vn 0.7912 -0.3075 -0.5287
vn 0.8211 -0.1572 -0.5487
vn 0.6744 -0.5849 -0.4506
vn 0.4925 -0.8057 -0.3291
vn 0.2632 -0.9486 -0.1758
vn 0.1295 -0.9878 -0.0865
vn 0.6729 -0.3075 -0.6729
vn 0.6983 -0.1572 -0.6983
vn 0.5735 -0.5849 -0.5735
vn 0.4189 -0.8057 -0.4189
vn 0.2238 -0.9486 -0.2238
vn 0.1101 -0.9878 -0.1101
vn 0.5287 -0.3075 -0.7912
vn 0.5487 -0.1572 -0.8211
vn 0.4506 -0.5849 -0.6744
vn 0.3291 -0.8057 -0.4925
vn 0.1758 -0.9486 -0.2632
vn 0.0865 -0.9878 -0.1295
vn 0.3641 -0.3075 -0.8791
vn 0.3779 -0.1572 -0.9124
vn 0.3104 -0.5849 -0.7493
vn 0.2267 -0.8057 -0.5473
vn 0.1211 -0.9486 -0.2924
vn 0.0596 -0.9878 -0.1438
vn 0.1856 -0.3075 -0.9333
vn 0.1927 -0.1572 -0.9686
vn 0.1582 -0.5849 -0.7955
vn 0.1156 -0.8057 -0.5810
vn 0.0617 -0.9486 -0.3104
vn 0.0304 -0.9878 -0.1527
vn -0.5000 -0.0000 -0.8660
vn -0.8660 -0.0000 -0.5000
vn -1.0000 0.0005 -0.0022
vn 1.0000 -0.0000 -0.0015
vn 0.8660 -0.0000 -0.5000
vn 0.5000 -0.0000 -0.8660
vn -0.0000 -0.9993 0.0372
vn -0.0000 -0.9993 0.0373
vn -0.8660 -0.0000 0.5000
vn -0.5000 -0.0000 0.8660
vn 0.5000 -0.0000 0.8660
vn 0.8660 -0.0000 0.5000
vt 0.784604 0.801642
vt 0.791423 0.802312
vt 0.795151 0.764389
vt 0.792432 0.760331
vt 0.791788 0.760268
vt 0.788332 0.763718
vt 0.825654 0.797463
vt 0.834385 0.797463
vt 0.836613 0.800535
vt 0.823427 0.800535
vt 0.842230 0.323482
vt 0.828515 0.323482
vt 0.828515 0.320395
vt 0.842230 0.320395
vt 0.823162 0.749354
vt 0.836877 0.749354
vt 0.836877 0.752441
vt 0.823162 0.752441
vt 0.678642 0.328510
vt 0.679930 0.331259
vt 0.680575 0.331207
vt 0.685472 0.327961
vt 0.687465 0.325604
vt 0.686177 0.322854
vt 0.685532 0.322906
vt 0.680634 0.326152
vt 0.783618 0.747758
vt 0.786337 0.751816
vt 0.786981 0.751879
vt 0.790438 0.748429
vt 0.791906 0.740229
vt 0.792499 0.734198
vt 0.784368 0.733398
vt 0.783664 0.740553
vt 0.680188 0.373252
vt 0.687018 0.372703
vt 0.683969 0.334719
vt 0.677139 0.335267
vt 0.786950 0.756935
vt 0.793769 0.757605
vt 0.791819 0.755212
vt 0.785000 0.754542
vt 0.839738 0.368505
vt 0.831006 0.368505
vt 0.828515 0.330480
vt 0.842230 0.330480
vt 0.823162 0.759438
vt 0.836877 0.759438
vt 0.682137 0.319394
vt 0.688968 0.318846
vt 0.689051 0.311641
vt 0.688476 0.304475
vt 0.680332 0.305143
vt 0.680816 0.311170
vt 0.783668 0.750041
vt 0.784174 0.752524
vt 0.688327 0.323601
vt 0.688877 0.321128
vt 0.790993 0.753194
vt 0.790488 0.750712
vt 0.682046 0.321676
vt 0.681496 0.324149
vt 0.684060 0.332437
vt 0.684610 0.329964
vt 0.795101 0.762106
vt 0.794595 0.759623
vt 0.787776 0.758952
vt 0.788282 0.761435
vt 0.677780 0.330512
vt 0.677230 0.332986
vt 0.828515 0.313398
vt 0.842230 0.313398
vt 0.842230 0.315681
vt 0.828515 0.315681
vt 0.842230 0.318215
vt 0.828515 0.318215
vt 0.823162 0.747174
vt 0.836877 0.747174
vt 0.823162 0.744640
vt 0.836877 0.744640
vt 0.823162 0.742356
vt 0.836877 0.742356
vt 0.842230 0.325662
vt 0.828515 0.325662
vt 0.842230 0.328196
vt 0.828515 0.328196
vt 0.823162 0.757155
vt 0.836877 0.757155
vt 0.823162 0.754621
vt 0.836877 0.754621
vt 0.822434 0.735188
vt 0.837605 0.735188
vt 0.791052 0.806089
vt 0.784232 0.805418
vt 0.783618 0.811666
vt 0.790438 0.812336
vt 0.841965 0.371577
vt 0.828779 0.371577
vt 0.680491 0.377034
vt 0.687321 0.376486
vt 0.680993 0.383291
vt 0.687824 0.382743
vt 0.688757 0.394370
vt 0.688118 0.386405
vt 0.681287 0.386953
vt 0.681927 0.394918
vt 0.841965 0.377854
vt 0.839368 0.380452
vt 0.831377 0.380452
vt 0.828779 0.377854
vt 0.682220 0.398580
vt 0.689051 0.398032
vt 0.836613 0.806813
vt 0.834015 0.809411
vt 0.826024 0.809411
vt 0.823427 0.806813
vt 0.790394 0.452155
vt 0.790371 0.451185
vt 0.800463 0.451147
vt 0.800465 0.452134
vt 0.790357 0.450199
vt 0.800462 0.450159
vt 0.790347 0.449208
vt 0.800461 0.449171
vt 0.790339 0.448214
vt 0.800460 0.448183
vt 0.790333 0.447220
vt 0.800460 0.447194
vt 0.790327 0.446225
vt 0.800461 0.446204
vt 0.790323 0.445229
vt 0.800462 0.445213
vt 0.790320 0.444234
vt 0.800464 0.444222
vt 0.790315 0.443239
vt 0.800467 0.443231
vt 0.790312 0.442243
vt 0.800470 0.442239
vt 0.790309 0.441245
vt 0.800473 0.441245
vt 0.790310 0.440248
vt 0.800478 0.440252
vt 0.790308 0.439251
vt 0.800482 0.439257
vt 0.790308 0.438254
vt 0.800487 0.438261
vt 0.790308 0.437256
vt 0.800493 0.437265
vt 0.790308 0.436258
vt 0.800499 0.436268
vt 0.790309 0.435260
vt 0.800495 0.435270
vt 0.790310 0.434261
vt 0.800492 0.434274
vt 0.790314 0.433264
vt 0.800489 0.433278
vt 0.790316 0.432267
vt 0.800486 0.432283
vt 0.790319 0.431270
vt 0.800484 0.431289
vt 0.790322 0.430272
vt 0.800482 0.430296
vt 0.790328 0.429274
vt 0.800481 0.429304
vt 0.790335 0.428279
vt 0.800481 0.428312
vt 0.790340 0.427283
vt 0.800481 0.427321
vt 0.790346 0.426287
vt 0.800481 0.426330
vt 0.790354 0.425291
vt 0.800483 0.425341
vt 0.790364 0.424296
vt 0.800485 0.424351
vt 0.790375 0.423303
vt 0.800488 0.423363
vt 0.790385 0.422312
vt 0.800491 0.422375
vt 0.790402 0.421326
vt 0.800495 0.421387
vt 0.790428 0.420358
vt 0.800499 0.420400
vt 0.789442 0.434258
vt 0.789446 0.433260
vt 0.789440 0.439249
vt 0.775501 0.439268
vt 0.775496 0.438259
vt 0.789440 0.438250
vt 0.789489 0.425285
vt 0.789498 0.424289
vt 0.789467 0.447229
vt 0.789461 0.446232
vt 0.789439 0.437252
vt 0.789461 0.429271
vt 0.789468 0.428274
vt 0.789506 0.451223
vt 0.789491 0.450220
vt 0.789445 0.442242
vt 0.789442 0.441245
vt 0.789449 0.432262
vt 0.789509 0.423292
vt 0.789457 0.445236
vt 0.789440 0.436254
vt 0.789474 0.427276
vt 0.789481 0.449222
vt 0.789442 0.440247
vt 0.789452 0.431264
vt 0.789520 0.422294
vt 0.789453 0.444238
vt 0.789441 0.435256
vt 0.789479 0.426281
vt 0.789473 0.448225
vt 0.789455 0.430268
vt 0.789538 0.421291
vt 0.789449 0.443240
vt 0.789533 0.452240
vt 0.789567 0.420273
vt 0.775614 0.421135
vt 0.775624 0.420129
vt 0.775574 0.425159
vt 0.775584 0.424153
vt 0.775492 0.437250
vt 0.556608 0.447439
vt 0.556835 0.447273
vt 0.557088 0.447154
vt 0.557360 0.447086
vt 0.557641 0.447073
vt 0.557918 0.447114
vt 0.558181 0.447209
vt 0.558420 0.447354
vt 0.558627 0.447542
vt 0.558792 0.447766
vt 0.558909 0.448020
vt 0.558974 0.448292
vt 0.558985 0.448572
vt 0.558940 0.448850
vt 0.558843 0.449113
vt 0.558697 0.449353
vt 0.558507 0.449559
vt 0.558281 0.449725
vt 0.558026 0.449844
vt 0.557755 0.449912
vt 0.557474 0.449926
vt 0.557197 0.449884
vt 0.556934 0.449789
vt 0.556695 0.449644
vt 0.556488 0.449456
vt 0.556323 0.449232
vt 0.556206 0.448978
vt 0.556141 0.448706
vt 0.556131 0.448426
vt 0.556175 0.448149
vt 0.556272 0.447885
vt 0.556418 0.447645
vt 0.775594 0.423147
vt 0.775488 0.436240
vt 0.775572 0.450341
vt 0.775564 0.449335
vt 0.775603 0.422141
vt 0.775494 0.435230
vt 0.775557 0.448329
vt 0.775501 0.434221
vt 0.775550 0.447323
vt 0.775508 0.433213
vt 0.775543 0.446317
vt 0.775580 0.451347
vt 0.775515 0.432205
vt 0.775536 0.445310
vt 0.775523 0.431197
vt 0.775530 0.444304
vt 0.775531 0.430190
vt 0.775523 0.443297
vt 0.775539 0.429183
vt 0.775517 0.442291
vt 0.775547 0.428177
vt 0.775512 0.441283
vt 0.775556 0.427171
vt 0.775506 0.440276
vt 0.775565 0.426165
vt 0.552962 0.443370
vt 0.553839 0.444351
vt 0.553107 0.445142
vt 0.552062 0.444340
vt 0.554605 0.445202
vt 0.554019 0.445834
vt 0.555300 0.445979
vt 0.554851 0.446465
vt 0.555960 0.446716
vt 0.555642 0.447062
vt 0.552534 0.446058
vt 0.551354 0.445463
vt 0.553564 0.446569
vt 0.554504 0.447030
vt 0.555396 0.447463
vt 0.552143 0.447070
vt 0.550863 0.446706
vt 0.553255 0.447380
vt 0.554270 0.447651
vt 0.555232 0.447905
vt 0.551947 0.448146
vt 0.550608 0.448029
vt 0.553106 0.448237
vt 0.554160 0.448308
vt 0.555156 0.448370
vt 0.551960 0.449250
vt 0.550605 0.449394
vt 0.553126 0.449112
vt 0.554179 0.448976
vt 0.555173 0.448841
vt 0.552187 0.450343
vt 0.550866 0.450757
vt 0.553316 0.449973
vt 0.554330 0.449629
vt 0.555281 0.449301
vt 0.552635 0.451382
vt 0.551400 0.452071
vt 0.553678 0.450785
vt 0.554609 0.450242
vt 0.555479 0.449730
vt 0.553300 0.452316
vt 0.552216 0.453285
vt 0.554202 0.451506
vt 0.555005 0.450786
vt 0.555757 0.450111
vt 0.554155 0.453076
vt 0.553334 0.454227
vt 0.554862 0.452105
vt 0.555502 0.451240
vt 0.556105 0.450430
vt 0.555138 0.453635
vt 0.554582 0.454903
vt 0.555627 0.452554
vt 0.556080 0.451585
vt 0.556510 0.450674
vt 0.556199 0.453982
vt 0.555909 0.455312
vt 0.556462 0.452838
vt 0.556714 0.451806
vt 0.556955 0.450833
vt 0.557295 0.454117
vt 0.557265 0.455461
vt 0.557330 0.452953
vt 0.557375 0.451898
vt 0.557423 0.450901
vt 0.558386 0.454039
vt 0.558608 0.455351
vt 0.558200 0.452899
vt 0.558040 0.451860
vt 0.557894 0.450876
vt 0.559434 0.453758
vt 0.559896 0.454997
vt 0.559039 0.452679
vt 0.558683 0.451696
vt 0.558350 0.450761
vt 0.560408 0.453290
vt 0.561090 0.454417
vt 0.559819 0.452309
vt 0.559283 0.451413
vt 0.558776 0.450561
vt 0.561275 0.452648
vt 0.562154 0.453629
vt 0.560511 0.451796
vt 0.559815 0.451020
vt 0.559155 0.450282
vt 0.562008 0.451856
vt 0.563054 0.452657
vt 0.561096 0.451164
vt 0.560264 0.450534
vt 0.559473 0.449936
vt 0.562581 0.450940
vt 0.563762 0.451534
vt 0.561552 0.450431
vt 0.560613 0.449969
vt 0.559719 0.449535
vt 0.562975 0.449929
vt 0.564255 0.450293
vt 0.561862 0.449621
vt 0.560847 0.449346
vt 0.559884 0.449094
vt 0.563170 0.448853
vt 0.564510 0.448970
vt 0.562010 0.448762
vt 0.560956 0.448689
vt 0.559960 0.448628
vt 0.563156 0.447749
vt 0.564510 0.447606
vt 0.561991 0.447886
vt 0.560937 0.448022
vt 0.559943 0.448156
vt 0.562927 0.446657
vt 0.564248 0.446243
vt 0.561798 0.447025
vt 0.560785 0.447368
vt 0.559834 0.447697
vt 0.562479 0.445619
vt 0.563713 0.444928
vt 0.561435 0.446215
vt 0.560506 0.446757
vt 0.559637 0.447268
vt 0.561817 0.444685
vt 0.562898 0.443714
vt 0.560914 0.445492
vt 0.560110 0.446212
vt 0.559358 0.446886
vt 0.560961 0.443923
vt 0.561782 0.442770
vt 0.560253 0.444895
vt 0.559612 0.445759
vt 0.559009 0.446568
vt 0.559977 0.443363
vt 0.560533 0.442095
vt 0.559487 0.444445
vt 0.559036 0.445415
vt 0.558604 0.446324
vt 0.558916 0.443016
vt 0.559207 0.441686
vt 0.558653 0.444159
vt 0.558402 0.445193
vt 0.558159 0.446166
vt 0.557822 0.442882
vt 0.557851 0.441540
vt 0.557785 0.444044
vt 0.557740 0.445100
vt 0.557692 0.446098
vt 0.556731 0.442960
vt 0.556508 0.441648
vt 0.556916 0.444101
vt 0.557076 0.445138
vt 0.557221 0.446122
vt 0.555682 0.443238
vt 0.555219 0.442000
vt 0.556076 0.444317
vt 0.556431 0.445302
vt 0.556765 0.446237
vt 0.554707 0.443708
vt 0.554025 0.442580
vt 0.555298 0.444690
vt 0.555833 0.445586
vt 0.556339 0.446437
vt 0.775588 0.452353
vt 0.678739 0.285360
vt 0.679137 0.290300
vt 0.687281 0.289644
vt 0.686884 0.284704
vt 0.679535 0.295239
vt 0.687679 0.294583
vt 0.679932 0.300179
vt 0.688077 0.299523
vt 0.792985 0.729254
vt 0.784853 0.728454
vt 0.793470 0.724322
vt 0.785338 0.723522
vt 0.793955 0.719390
vt 0.785823 0.718591
vt 0.794439 0.714458
vt 0.786308 0.713659
vt 0.827672 0.305110
vt 0.843072 0.305110
vt 0.830585 0.285987
vt 0.835372 0.284704
vt 0.840159 0.285987
vt 0.843663 0.289491
vt 0.844946 0.294278
vt 0.843674 0.299080
vt 0.827059 0.299096
vt 0.825799 0.294278
vt 0.827081 0.289491
vt 0.834806 0.714941
vt 0.838311 0.718445
vt 0.839593 0.723232
vt 0.838322 0.728035
vt 0.821717 0.728035
vt 0.820446 0.723232
vt 0.821728 0.718445
vt 0.825233 0.714941
vt 0.830020 0.713659
vt 0.392342 0.881081
vt 0.392342 0.884514
vt 0.409710 0.884514
vt 0.409710 0.881081
vt 0.392342 0.887947
vt 0.409710 0.887947
vt 0.392342 0.891380
vt 0.409710 0.891380
vt 0.392342 0.894812
vt 0.409710 0.894812
vt 0.392342 0.898245
vt 0.409710 0.898245
vt 0.392342 0.901678
vt 0.409710 0.901678
vt 0.392342 0.905111
vt 0.409710 0.905111
vt 0.392342 0.908544
vt 0.409710 0.908544
vt 0.392342 0.911976
vt 0.409710 0.911976
vt 0.392342 0.915409
vt 0.409710 0.915409
vt 0.392342 0.918842
vt 0.409710 0.918842
vt 0.392342 0.922275
vt 0.409710 0.922275
vt 0.597927 0.454351
vt 0.600900 0.452634
vt 0.602616 0.449662
vt 0.602616 0.446229
vt 0.600900 0.443256
vt 0.597927 0.441539
vt 0.594494 0.441539
vt 0.591521 0.443256
vt 0.589805 0.446229
vt 0.589805 0.449662
vt 0.591521 0.452634
vt 0.594494 0.454351
s 1
usemtl Firebox
f 3/1/1 7/2/1 34/3/2 36/4/3 41/5/3 40/6/4
f 3/7/5 4/8/5 49/9/5 50/10/5
f 35/11/6 44/12/6 25/13/6 19/14/6
f 10/15/7 14/16/7 30/17/7 39/18/7
f 44/19/8 46/20/9 31/21/9 30/22/8 14/23/8 16/24/10 26/25/10 25/26/8
f 9/27/11 11/28/12 21/29/12 20/30/13 365/31/14 5/32/15 1/33/15 363/34/14
f 8/35/16 4/36/16 29/37/17 31/21/9 46/20/9 45/38/18
f 39/39/19 41/5/3 36/4/3 35/40/19 19/41/19 21/29/12 11/28/12 10/42/19
f 7/43/20 8/44/20 45/45/21 34/46/21
f 40/47/22 29/48/22 4/8/5 3/7/5
f 24/49/23 26/25/10 16/24/10 15/50/24 364/51/25 2/52/26 6/53/27 366/54/25
f 9/27/11 12/55/19 11/28/12
f 12/55/19 13/56/19 11/28/12
f 13/56/19 10/42/19 11/28/12
f 14/23/8 17/57/8 16/24/10
f 17/57/8 18/58/8 16/24/10
f 18/58/8 15/50/24 16/24/10
f 19/41/19 22/59/19 21/29/12
f 22/59/19 23/60/19 21/29/12
f 23/60/19 20/30/13 21/29/12
f 24/49/23 27/61/8 26/25/10
f 27/61/8 28/62/8 26/25/10
f 28/62/8 25/26/8 26/25/10
f 29/37/17 32/63/8 31/21/9
f 32/63/8 33/64/8 31/21/9
f 33/64/8 30/22/8 31/21/9
f 34/3/2 37/65/19 36/4/3
f 37/65/19 38/66/19 36/4/3
f 38/66/19 35/40/19 36/4/3
f 39/39/19 42/67/19 41/5/3
f 42/67/19 43/68/19 41/5/3
f 43/68/19 40/6/4 41/5/3
f 44/19/8 47/69/8 46/20/9
f 47/69/8 48/70/8 46/20/9
f 48/70/8 45/38/18 46/20/9
f 24/71/28 20/72/28 23/73/29 27/74/29
f 27/74/29 23/73/29 22/75/30 28/76/30
f 28/76/30 22/75/30 19/14/6 25/13/6
f 14/16/7 10/15/7 13/77/31 17/78/31
f 17/78/31 13/77/31 12/79/32 18/80/32
f 18/80/32 12/79/32 9/81/33 15/82/33
f 44/12/6 35/11/6 38/83/30 47/84/30
f 47/84/30 38/83/30 37/85/29 48/86/29
f 48/86/29 37/85/29 34/46/21 45/45/21
f 29/48/22 40/47/22 43/87/32 32/88/32
f 32/88/32 43/87/32 42/89/31 33/90/31
f 33/90/31 42/89/31 39/18/7 30/17/7
f 363/91/34 364/92/34 15/82/33 9/81/33
f 51/93/19 50/94/19 56/95/19 57/96/19
f 8/44/20 7/43/20 51/97/20 52/98/20
f 7/2/35 3/1/35 50/94/35 51/93/35
f 4/36/36 8/35/36 52/99/36 49/100/36
f 49/100/8 52/99/8 60/101/8 53/102/8
f 55/103/37 54/104/37 59/105/37 58/106/37
f 52/98/20 51/97/20 57/107/20 58/108/20 59/109/20 60/110/20
f 57/111/38 56/112/38 55/103/38 58/106/38
f 53/102/39 60/101/39 59/105/39 54/104/39
f 50/10/5 49/9/5 53/113/5 54/114/5 55/115/5 56/116/5
f 61/117/40 63/118/41 64/119/41 62/120/40
f 63/118/41 65/121/42 66/122/42 64/119/41
f 65/121/42 67/123/43 68/124/43 66/122/42
f 67/123/43 69/125/44 70/126/44 68/124/43
f 69/125/44 71/127/45 72/128/45 70/126/44
f 71/127/45 73/129/46 74/130/46 72/128/45
f 73/129/46 75/131/47 76/132/47 74/130/46
f 75/131/47 77/133/8 78/134/8 76/132/47
f 77/133/8 79/135/48 80/136/48 78/134/8
f 79/135/48 81/137/49 82/138/49 80/136/48
f 81/137/49 83/139/50 84/140/50 82/138/49
f 83/139/50 85/141/39 86/142/39 84/140/50
f 85/141/39 87/143/51 88/144/51 86/142/39
f 87/143/51 89/145/52 90/146/52 88/144/51
f 89/145/52 91/147/53 92/148/53 90/146/52
f 91/147/53 93/149/37 94/150/37 92/148/53
f 93/149/37 95/151/54 96/152/54 94/150/37
f 95/151/54 97/153/55 98/154/55 96/152/54
f 97/153/55 99/155/56 100/156/56 98/154/55
f 99/155/56 101/157/38 102/158/38 100/156/56
f 101/157/38 103/159/57 104/160/57 102/158/38
f 103/159/57 105/161/58 106/162/58 104/160/57
f 105/161/58 107/163/59 108/164/59 106/162/58
f 107/163/59 109/165/19 110/166/19 108/164/59
f 109/165/19 111/167/60 112/168/60 110/166/19
f 111/167/60 113/169/61 114/170/61 112/168/60
f 113/169/61 115/171/62 116/172/62 114/170/61
f 115/171/62 117/173/63 118/174/63 116/172/62
f 117/173/63 119/175/64 120/176/64 118/174/63
f 119/175/64 121/177/65 122/178/65 120/176/64
f 121/177/65 123/179/66 124/180/66 122/178/65
f 123/179/66 61/181/40 62/182/40 124/180/66
f 97/153/67 143/183/67 144/184/68 99/155/68
f 138/185/51 235/186/51 241/187/52 139/188/52
f 115/171/69 152/189/69 153/190/70 117/173/70
f 71/127/71 130/191/71 131/192/72 73/129/72
f 89/145/73 139/188/73 140/193/74 91/147/74
f 107/163/75 148/194/75 149/195/76 109/165/76
f 63/118/77 126/196/77 127/197/78 65/121/78
f 81/137/79 135/198/79 136/199/80 83/139/80
f 99/155/68 144/184/68 145/200/81 101/157/81
f 117/173/70 153/190/70 154/201/82 119/175/82
f 73/129/72 131/192/72 132/202/83 75/131/83
f 91/147/74 140/193/74 141/203/84 93/149/84
f 109/165/76 149/195/76 150/204/85 111/167/85
f 65/121/78 127/197/78 128/205/86 67/123/86
f 83/139/80 136/199/80 137/206/87 85/141/87
f 101/157/81 145/200/81 146/207/88 103/159/88
f 119/175/82 154/201/82 155/208/89 121/177/89
f 75/131/83 132/202/83 133/209/90 77/133/90
f 93/149/84 141/203/84 142/210/91 95/151/91
f 111/167/85 150/204/85 151/211/92 113/169/92
f 67/123/86 128/205/86 129/212/93 69/125/93
f 85/141/87 137/206/87 138/185/94 87/143/94
f 103/159/88 146/207/88 147/213/95 105/161/95
f 121/177/89 155/208/89 156/214/96 123/179/96
f 77/133/90 133/209/90 134/215/97 79/135/97
f 95/151/91 142/210/91 143/183/67 97/153/67
f 113/169/92 151/211/92 152/189/69 115/171/69
f 69/125/93 129/212/93 130/191/71 71/127/71
f 87/143/94 138/185/94 139/188/73 89/145/73
f 105/161/95 147/213/95 148/194/75 107/163/75
f 61/117/98 125/216/98 126/196/77 63/118/77
f 123/179/96 156/214/96 125/217/98 61/181/98
f 79/135/97 134/215/97 135/198/79 81/137/79
f 156/214/66 343/218/66 158/219/40 125/217/40
f 152/189/62 319/220/62 325/221/63 153/190/63
f 139/188/52 241/187/52 247/222/53 140/193/53
f 157/223/20 344/224/20 338/225/20 332/226/20 326/227/20 320/228/20 314/229/20 308/230/20 302/231/20 296/232/20 290/233/20 284/234/20 278/235/20 272/236/20 266/237/20 260/238/20 254/239/20 248/240/20 242/241/20 236/242/20 230/243/20 224/244/20 218/245/20 212/246/20 206/247/20 200/248/20 194/249/20 188/250/20 182/251/20 176/252/20 170/253/20 164/254/20
f 153/190/63 325/221/63 331/255/64 154/201/64
f 140/193/53 247/222/53 253/256/37 141/203/37
f 127/197/42 169/257/42 175/258/43 128/205/43
f 154/201/64 331/255/64 337/259/65 155/208/65
f 141/203/37 253/256/37 259/260/54 142/210/54
f 128/205/43 175/258/43 181/261/44 129/212/44
f 155/208/65 337/259/65 343/218/66 156/214/66
f 142/210/54 259/260/54 265/262/55 143/183/55
f 129/212/44 181/261/44 187/263/45 130/191/45
f 143/183/55 265/262/55 271/264/56 144/184/56
f 130/191/45 187/263/45 193/265/46 131/192/46
f 126/196/41 163/266/41 169/257/42 127/197/42
f 144/184/56 271/264/56 277/267/38 145/200/38
f 131/192/46 193/265/46 199/268/47 132/202/47
f 145/200/38 277/267/38 283/269/57 146/207/57
f 132/202/47 199/268/47 205/270/8 133/209/8
f 146/207/57 283/269/57 289/271/58 147/213/58
f 133/209/8 205/270/8 211/272/48 134/215/48
f 147/213/58 289/271/58 295/273/59 148/194/59
f 134/215/48 211/272/48 217/274/49 135/198/49
f 148/194/59 295/273/59 301/275/19 149/195/19
f 135/198/49 217/274/49 223/276/50 136/199/50
f 149/195/19 301/275/19 307/277/60 150/204/60
f 136/199/50 223/276/50 229/278/39 137/206/39
f 150/204/60 307/277/60 313/279/61 151/211/61
f 137/206/39 229/278/39 235/186/51 138/185/51
f 151/211/61 313/279/61 319/220/62 152/189/62
f 158/280/99 162/281/100 165/282/101 163/283/102
f 162/281/100 161/284/103 166/285/104 165/282/101
f 161/284/103 160/286/105 167/287/106 166/285/104
f 160/286/105 159/288/107 168/289/108 167/287/106
f 159/288/107 157/223/109 164/254/110 168/289/108
f 163/283/102 165/282/101 171/290/111 169/291/112
f 165/282/101 166/285/104 172/292/113 171/290/111
f 166/285/104 167/287/106 173/293/114 172/292/113
f 167/287/106 168/289/108 174/294/115 173/293/114
f 168/289/108 164/254/110 170/253/116 174/294/115
f 169/291/112 171/290/111 177/295/117 175/296/118
f 171/290/111 172/292/113 178/297/119 177/295/117
f 172/292/113 173/293/114 179/298/120 178/297/119
f 173/293/114 174/294/115 180/299/121 179/298/120
f 174/294/115 170/253/116 176/252/122 180/299/121
f 175/296/118 177/295/117 183/300/123 181/301/124
f 177/295/117 178/297/119 184/302/125 183/300/123
f 178/297/119 179/298/120 185/303/126 184/302/125
f 179/298/120 180/299/121 186/304/127 185/303/126
f 180/299/121 176/252/122 182/251/128 186/304/127
f 181/301/124 183/300/123 189/305/129 187/306/130
f 183/300/123 184/302/125 190/307/131 189/305/129
f 184/302/125 185/303/126 191/308/132 190/307/131
f 185/303/126 186/304/127 192/309/133 191/308/132
f 186/304/127 182/251/128 188/250/134 192/309/133
f 187/306/130 189/305/129 195/310/135 193/311/136
f 189/305/129 190/307/131 196/312/137 195/310/135
f 190/307/131 191/308/132 197/313/138 196/312/137
f 191/308/132 192/309/133 198/314/139 197/313/138
f 192/309/133 188/250/134 194/249/140 198/314/139
f 193/311/136 195/310/135 201/315/141 199/316/142
f 195/310/135 196/312/137 202/317/143 201/315/141
f 196/312/137 197/313/138 203/318/144 202/317/143
f 197/313/138 198/314/139 204/319/145 203/318/144
f 198/314/139 194/249/140 200/248/146 204/319/145
f 199/316/142 201/315/141 207/320/147 205/321/148
f 201/315/141 202/317/143 208/322/149 207/320/147
f 202/317/143 203/318/144 209/323/150 208/322/149
f 203/318/144 204/319/145 210/324/151 209/323/150
f 204/319/145 200/248/146 206/247/152 210/324/151
f 205/321/148 207/320/147 213/325/153 211/326/154
f 207/320/147 208/322/149 214/327/155 213/325/153
f 208/322/149 209/323/150 215/328/156 214/327/155
f 209/323/150 210/324/151 216/329/157 215/328/156
f 210/324/151 206/247/152 212/246/158 216/329/157
f 211/326/154 213/325/153 219/330/159 217/331/160
f 213/325/153 214/327/155 220/332/161 219/330/159
f 214/327/155 215/328/156 221/333/162 220/332/161
f 215/328/156 216/329/157 222/334/163 221/333/162
f 216/329/157 212/246/158 218/245/164 222/334/163
f 217/331/160 219/330/159 225/335/165 223/336/166
f 219/330/159 220/332/161 226/337/167 225/335/165
f 220/332/161 221/333/162 227/338/168 226/337/167
f 221/333/162 222/334/163 228/339/169 227/338/168
f 222/334/163 218/245/164 224/244/170 228/339/169
f 223/336/166 225/335/165 231/340/171 229/341/172
f 225/335/165 226/337/167 232/342/173 231/340/171
f 226/337/167 227/338/168 233/343/174 232/342/173
f 227/338/168 228/339/169 234/344/175 233/343/174
f 228/339/169 224/244/170 230/243/176 234/344/175
f 229/341/172 231/340/171 237/345/177 235/346/178
f 231/340/171 232/342/173 238/347/179 237/345/177
f 232/342/173 233/343/174 239/348/180 238/347/179
f 233/343/174 234/344/175 240/349/181 239/348/180
f 234/344/175 230/243/176 236/242/182 240/349/181
f 235/346/178 237/345/177 243/350/183 241/351/184
f 237/345/177 238/347/179 244/352/185 243/350/183
f 238/347/179 239/348/180 245/353/186 244/352/185
f 239/348/180 240/349/181 246/354/187 245/353/186
f 240/349/181 236/242/182 242/241/188 246/354/187
f 241/351/184 243/350/183 249/355/189 247/356/190
f 243/350/183 244/352/185 250/357/191 249/355/189
f 244/352/185 245/353/186 251/358/192 250/357/191
f 245/353/186 246/354/187 252/359/193 251/358/192
f 246/354/187 242/241/188 248/240/194 252/359/193
f 247/356/190 249/355/189 255/360/195 253/361/196
f 249/355/189 250/357/191 256/362/197 255/360/195
f 250/357/191 251/358/192 257/363/198 256/362/197
f 251/358/192 252/359/193 258/364/199 257/363/198
f 252/359/193 248/240/194 254/239/200 258/364/199
f 253/361/196 255/360/195 261/365/201 259/366/202
f 255/360/195 256/362/197 262/367/203 261/365/201
f 256/362/197 257/363/198 263/368/204 262/367/203
f 257/363/198 258/364/199 264/369/205 263/368/204
f 258/364/199 254/239/200 260/238/206 264/369/205
f 259/366/202 261/365/201 267/370/207 265/371/208
f 261/365/201 262/367/203 268/372/209 267/370/207
f 262/367/203 263/368/204 269/373/210 268/372/209
f 263/368/204 264/369/205 270/374/211 269/373/210
f 264/369/205 260/238/206 266/237/212 270/374/211
f 265/371/208 267/370/207 273/375/213 271/376/214
f 267/370/207 268/372/209 274/377/215 273/375/213
f 268/372/209 269/373/210 275/378/216 274/377/215
f 269/373/210 270/374/211 276/379/217 275/378/216
f 270/374/211 266/237/212 272/236/218 276/379/217
f 271/376/214 273/375/213 279/380/219 277/381/220
f 273/375/213 274/377/215 280/382/221 279/380/219
f 274/377/215 275/378/216 281/383/222 280/382/221
f 275/378/216 276/379/217 282/384/223 281/383/222
f 276/379/217 272/236/218 278/235/224 282/384/223
f 277/381/220 279/380/219 285/385/225 283/386/226
f 279/380/219 280/382/221 286/387/227 285/385/225
f 280/382/221 281/383/222 287/388/228 286/387/227
f 281/383/222 282/384/223 288/389/229 287/388/228
f 282/384/223 278/235/224 284/234/230 288/389/229
f 283/386/226 285/385/225 291/390/231 289/391/232
f 285/385/225 286/387/227 292/392/233 291/390/231
f 286/387/227 287/388/228 293/393/234 292/392/233
f 287/388/228 288/389/229 294/394/235 293/393/234
f 288/389/229 284/234/230 290/233/236 294/394/235
f 289/391/232 291/390/231 297/395/237 295/396/238
f 291/390/231 292/392/233 298/397/239 297/395/237
f 292/392/233 293/393/234 299/398/240 298/397/239
f 293/393/234 294/394/235 300/399/241 299/398/240
f 294/394/235 290/233/236 296/232/242 300/399/241
f 295/396/238 297/395/237 303/400/243 301/401/244
f 297/395/237 298/397/239 304/402/245 303/400/243
f 298/397/239 299/398/240 305/403/246 304/402/245
f 299/398/240 300/399/241 306/404/247 305/403/246
f 300/399/241 296/232/242 302/231/248 306/404/247
f 301/401/244 303/400/243 309/405/249 307/406/250
f 303/400/243 304/402/245 310/407/251 309/405/249
f 304/402/245 305/403/246 311/408/252 310/407/251
f 305/403/246 306/404/247 312/409/253 311/408/252
f 306/404/247 302/231/248 308/230/254 312/409/253
f 307/406/250 309/405/249 315/410/255 313/411/256
f 309/405/249 310/407/251 316/412/257 315/410/255
f 310/407/251 311/408/252 317/413/258 316/412/257
f 311/408/252 312/409/253 318/414/259 317/413/258
f 312/409/253 308/230/254 314/229/260 318/414/259
f 313/411/256 315/410/255 321/415/261 319/416/262
f 315/410/255 316/412/257 322/417/263 321/415/261
f 316/412/257 317/413/258 323/418/264 322/417/263
f 317/413/258 318/414/259 324/419/265 323/418/264
f 318/414/259 314/229/260 320/228/266 324/419/265
f 319/416/262 321/415/261 327/420/267 325/421/268
f 321/415/261 322/417/263 328/422/269 327/420/267
f 322/417/263 323/418/264 329/423/270 328/422/269
f 323/418/264 324/419/265 330/424/271 329/423/270
f 324/419/265 320/228/266 326/227/272 330/424/271
f 325/421/268 327/420/267 333/425/273 331/426/274
f 327/420/267 328/422/269 334/427/275 333/425/273
f 328/422/269 329/423/270 335/428/276 334/427/275
f 329/423/270 330/424/271 336/429/277 335/428/276
f 330/424/271 326/227/272 332/226/278 336/429/277
f 331/426/274 333/425/273 339/430/279 337/431/280
f 333/425/273 334/427/275 340/432/281 339/430/279
f 334/427/275 335/428/276 341/433/282 340/432/281
f 335/428/276 336/429/277 342/434/283 341/433/282
f 336/429/277 332/226/278 338/225/284 342/434/283
f 337/431/280 339/430/279 345/435/285 343/436/286
f 339/430/279 340/432/281 346/437/287 345/435/285
f 340/432/281 341/433/282 347/438/288 346/437/287
f 341/433/282 342/434/283 348/439/289 347/438/288
f 342/434/283 338/225/284 344/224/290 348/439/289
f 343/436/286 345/435/285 162/281/100 158/280/99
f 345/435/285 346/437/287 161/284/103 162/281/100
f 346/437/287 347/438/288 160/286/105 161/284/103
f 347/438/288 348/439/289 159/288/107 160/286/105
f 348/439/289 344/224/290 157/223/109 159/288/107
f 125/216/40 158/440/40 163/266/41 126/196/41
f 349/441/40 351/442/291 352/443/291 350/444/40
f 351/442/291 353/445/292 354/446/292 352/443/291
f 353/445/292 355/447/293 356/448/293 354/446/292
f 355/447/293 6/53/27 2/52/26 356/448/293
f 5/32/15 357/449/294 358/450/294 1/33/15
f 357/449/294 359/451/295 360/452/295 358/450/294
f 359/451/295 361/453/296 362/454/296 360/452/295
f 361/453/296 349/455/40 350/456/40 362/454/296
f 20/72/28 24/71/28 366/457/297 365/458/298
f 351/459/20 349/460/20 361/461/20 359/462/20 357/463/20 5/464/20 6/465/20 355/466/20 353/467/20
f 365/458/298 366/457/297 6/465/20 5/464/20
f 352/468/5 354/469/5 356/470/5 2/471/5 1/472/5 358/473/5 360/474/5 362/475/5 350/476/5
f 363/91/34 1/472/5 2/471/5 364/92/34
f 367/477/40 369/478/291 370/479/291 368/480/40
f 369/478/291 371/481/292 372/482/292 370/479/291
f 371/481/292 373/483/8 374/484/8 372/482/292
f 373/483/8 375/485/299 376/486/299 374/484/8
f 375/485/299 377/487/300 378/488/300 376/486/299
f 377/487/300 379/489/37 380/490/37 378/488/300
f 379/489/37 381/491/301 382/492/301 380/490/37
f 381/491/301 383/493/302 384/494/302 382/492/301
f 383/493/302 385/495/19 386/496/19 384/494/302
f 385/495/19 387/497/295 388/498/295 386/496/19
f 387/497/295 389/499/296 390/500/296 388/498/295
f 389/499/296 367/501/40 368/502/40 390/500/296
f 367/503/20 389/504/20 387/505/20 385/506/20 383/507/20 381/508/20 379/509/20 377/510/20 375/511/20 373/512/20 371/513/20 369/514/20
