# Blender 4.1.1
# www.blender.org
mtllib 1.25m_Firebox1_Sides.mtl
o Firebox_Vessel_Cut
v 0.000000 0.447750 0.614812
v 0.159125 0.447750 0.593863
v 0.307406 0.447750 0.532443
v 0.434738 0.447750 0.434738
v 0.532443 0.447750 0.307406
v 0.593863 0.447750 0.159125
v 0.614812 0.447750 -0.000000
v 0.593863 0.447750 -0.159125
v 0.532443 0.447750 -0.307406
v 0.434738 0.447750 -0.434738
v 0.307406 0.447750 -0.532443
v 0.159125 0.447750 -0.593863
v 0.000000 0.447750 -0.614812
v -0.159125 0.447750 -0.593863
v -0.307406 0.447750 -0.532443
v -0.434738 0.447750 -0.434738
v -0.532443 0.447750 -0.307406
v -0.593863 0.447750 -0.159125
v -0.614812 0.447750 -0.000000
v -0.593863 0.447750 0.159125
v -0.532443 0.447750 0.307406
v -0.434738 0.447750 0.434738
v -0.307406 0.447750 0.532443
v -0.159125 0.447750 0.593863
v -0.000000 0.279667 0.614812
v 0.159125 0.279667 0.593862
v 0.307406 0.279667 0.532443
v 0.434738 0.279667 0.434738
v 0.532443 0.279667 0.307406
v 0.593863 0.279667 0.159125
v 0.614812 0.279667 -0.000000
v 0.593863 0.279667 -0.159125
v 0.532443 0.279667 -0.307406
v 0.436136 0.277851 -0.459668
v 0.307406 0.302276 -0.552419
v 0.159125 0.302276 -0.603603
v -0.000000 0.302276 -0.621060
v -0.159125 0.302276 -0.603603
v -0.307406 0.302276 -0.552419
v -0.436136 0.277851 -0.459668
v -0.532443 0.279667 -0.307406
v -0.593863 0.279667 -0.159125
v -0.614812 0.279667 -0.000000
v -0.593863 0.279667 0.159125
v -0.532443 0.279667 0.307406
v -0.434738 0.279667 0.434738
v -0.307406 0.279667 0.532443
v -0.159125 0.279667 0.593863
v 0.000000 -0.617313 0.620393
v 0.160367 -0.617314 0.599280
v 0.309806 -0.617314 0.537381
v 0.438132 -0.617314 0.438913
v 0.536600 -0.617314 0.310587
v 0.598500 -0.617314 0.161148
v 0.619612 -0.617314 0.000781
v 0.598500 -0.617314 -0.159587
v 0.536600 -0.617314 -0.309025
v 0.459765 -0.617314 -0.456457
v -0.459765 -0.617314 -0.456457
v -0.536600 -0.617314 -0.309025
v -0.598500 -0.617314 -0.159587
v -0.619612 -0.617314 0.000781
v -0.598500 -0.617314 0.161148
v -0.536600 -0.617314 0.310587
v -0.438132 -0.617314 0.438913
v -0.309806 -0.617314 0.537381
v -0.160367 -0.617314 0.599280
v 0.443166 -0.617314 -0.656616
v 0.307406 0.273182 -0.652303
v 0.159125 0.273182 -0.699433
v -0.000000 0.273182 -0.720083
v -0.159125 0.273182 -0.699433
v -0.307406 0.273182 -0.652303
v -0.443166 -0.617314 -0.656616
v 0.159125 0.025336 0.593863
v 0.307406 0.025336 0.532443
v 0.434738 0.025336 0.434738
v 0.532443 0.025336 0.307406
v 0.593863 0.025336 0.159125
v 0.614812 0.025336 -0.000000
v 0.593863 0.025336 -0.159125
v 0.532443 0.025336 -0.307406
v 0.456203 0.025336 -0.453695
v -0.456203 0.025336 -0.453695
v -0.532443 0.025336 -0.307406
v -0.593863 0.025336 -0.159125
v -0.614812 0.025336 -0.000000
v -0.593863 0.025336 0.159125
v -0.532443 0.025336 0.307406
v -0.434738 0.025336 0.434738
v -0.307406 0.025336 0.532443
v -0.159125 0.025336 0.593863
v -0.000000 0.025336 0.614812
v 0.439732 0.025336 -0.652303
v -0.439732 0.025336 -0.652303
v -0.000000 -0.667704 0.619136
v 0.159125 0.319560 0.593863
v 0.159125 0.361277 0.593862
v 0.159125 0.404209 0.593862
v 0.307406 0.319560 0.532443
v 0.307406 0.361277 0.532443
v 0.307406 0.404209 0.532443
v 0.434738 0.319560 0.434738
v 0.434738 0.361276 0.434738
v 0.434738 0.404209 0.434738
v 0.532443 0.319560 0.307406
v 0.532443 0.361276 0.307406
v 0.532443 0.404209 0.307406
v 0.593863 0.319560 0.159125
v 0.593863 0.361276 0.159125
v 0.593863 0.404209 0.159125
v 0.614812 0.319560 -0.000000
v 0.614812 0.361276 -0.000000
v 0.614812 0.404209 -0.000000
v 0.593863 0.319560 -0.159125
v 0.593863 0.361276 -0.159125
v 0.593863 0.404209 -0.159125
v 0.532443 0.319560 -0.307406
v 0.532443 0.361276 -0.307406
v 0.532443 0.404209 -0.307406
v 0.435255 0.320280 -0.443494
v 0.434887 0.361553 -0.437234
v 0.434756 0.404244 -0.435050
v 0.405371 0.447750 -0.462236
v 0.341568 0.447750 -0.511194
v 0.307406 0.329098 -0.540870
v 0.307406 0.364103 -0.534940
v 0.307406 0.404562 -0.532755
v 0.159125 0.329098 -0.597972
v 0.159125 0.364103 -0.595080
v 0.159125 0.404562 -0.594015
v -0.000000 0.329098 -0.617448
v -0.000000 0.364103 -0.615593
v -0.000000 0.404562 -0.614909
v -0.159125 0.329098 -0.597972
v -0.159125 0.364103 -0.595080
v -0.159125 0.404562 -0.594015
v -0.307406 0.329098 -0.540870
v -0.307406 0.364103 -0.534940
v -0.307406 0.404562 -0.532755
v -0.435255 0.320280 -0.443494
v -0.434887 0.361553 -0.437234
v -0.434756 0.404244 -0.435050
v -0.532443 0.319560 -0.307406
v -0.532443 0.361276 -0.307406
v -0.532443 0.404209 -0.307406
v -0.593863 0.319560 -0.159125
v -0.593863 0.361276 -0.159125
v -0.593863 0.404209 -0.159125
v -0.614812 0.319560 -0.000000
v -0.614812 0.361276 -0.000000
v -0.614812 0.404209 -0.000000
v -0.593863 0.319560 0.159125
v -0.593863 0.361276 0.159125
v -0.593863 0.404209 0.159125
v -0.532443 0.319560 0.307406
v -0.532443 0.361276 0.307406
v -0.532443 0.404209 0.307406
v -0.434738 0.319560 0.434738
v -0.434738 0.361276 0.434738
v -0.434738 0.404209 0.434738
v -0.307406 0.319560 0.532443
v -0.307406 0.361277 0.532443
v -0.307406 0.404209 0.532443
v -0.159125 0.319560 0.593863
v -0.159125 0.361277 0.593862
v -0.159125 0.404209 0.593862
v 0.000000 0.404209 0.614812
v -0.000000 0.361277 0.614812
v -0.000000 0.319560 0.614812
v 0.159125 0.124210 0.593863
v 0.159125 0.192140 0.593863
v 0.159125 0.240250 0.593863
v 0.307406 0.124210 0.532443
v 0.307406 0.192140 0.532443
v 0.307406 0.240250 0.532443
v 0.434738 0.124210 0.434738
v 0.434738 0.192140 0.434738
v 0.434738 0.240250 0.434738
v 0.532443 0.124210 0.307406
v 0.532443 0.192140 0.307406
v 0.532443 0.240250 0.307406
v 0.593863 0.124210 0.159125
v 0.593863 0.192140 0.159125
v 0.593863 0.240250 0.159125
v 0.614812 0.124210 -0.000000
v 0.614812 0.192140 -0.000000
v 0.614812 0.240250 -0.000000
v 0.593863 0.124210 -0.159125
v 0.593863 0.192140 -0.159125
v 0.593863 0.240250 -0.159125
v 0.532443 0.124210 -0.307406
v 0.532443 0.192140 -0.307406
v 0.532443 0.240250 -0.307406
v 0.455943 0.124110 -0.453760
v 0.454117 0.191339 -0.454216
v 0.448950 0.237807 -0.455589
v -0.307406 0.285456 -0.570836
v -0.307406 0.276818 -0.594870
v -0.307406 0.273636 -0.622650
v 0.450169 -0.617314 -0.501879
v 0.445241 -0.617314 -0.551259
v 0.443425 -0.617314 -0.603278
v -0.455943 0.124110 -0.453760
v -0.454117 0.191339 -0.454216
v -0.448950 0.237807 -0.455589
v -0.532443 0.124210 -0.307406
v -0.532443 0.192140 -0.307406
v -0.532443 0.240250 -0.307406
v -0.593863 0.124210 -0.159125
v -0.593863 0.192140 -0.159125
v -0.593863 0.240250 -0.159125
v -0.614812 0.124210 -0.000000
v -0.614812 0.192140 -0.000000
v -0.614812 0.240250 -0.000000
v -0.593863 0.124210 0.159125
v -0.593863 0.192140 0.159125
v -0.593863 0.240250 0.159125
v -0.532443 0.124210 0.307406
v -0.532443 0.192140 0.307406
v -0.532443 0.240250 0.307406
v -0.434738 0.124210 0.434738
v -0.434738 0.192140 0.434738
v -0.434738 0.240250 0.434738
v -0.307406 0.124210 0.532443
v -0.307406 0.192140 0.532443
v -0.307406 0.240250 0.532443
v -0.159125 0.124210 0.593863
v -0.159125 0.192140 0.593863
v -0.159125 0.240250 0.593862
v 0.404874 0.293421 -0.490792
v 0.341544 0.301958 -0.534606
v 0.000000 -0.110331 0.614812
v -0.000000 -0.267525 0.614812
v 0.000000 -0.425705 0.614812
v 0.160042 -0.667704 0.598066
v 0.309178 -0.667704 0.536292
v 0.437243 -0.667704 0.438024
v 0.535511 -0.667704 0.309958
v 0.597285 -0.667704 0.160823
v 0.618355 -0.667704 0.000781
v 0.597285 -0.667704 -0.159261
v 0.535511 -0.667704 -0.308397
v 0.458847 -0.667704 -0.455661
v 0.424746 0.260432 -0.508372
v 0.420132 0.253408 -0.555252
v 0.418500 0.250926 -0.603403
v -0.443425 -0.617314 -0.603278
v -0.445241 -0.617314 -0.551259
v -0.450169 -0.617314 -0.501879
v -0.424746 0.260432 -0.508372
v -0.420132 0.253408 -0.555252
v -0.418500 0.250926 -0.603403
v 0.307406 0.285456 -0.570836
v 0.307406 0.276818 -0.594870
v 0.307406 0.273636 -0.622650
v -0.458847 -0.667704 -0.455661
v -0.535511 -0.667704 -0.308397
v -0.597285 -0.667704 -0.159261
v -0.618355 -0.667704 0.000781
v -0.597285 -0.667704 0.160823
v -0.535511 -0.667704 0.309958
v -0.437243 -0.667704 0.438024
v -0.309178 -0.667704 0.536292
v -0.160042 -0.667704 0.598066
v 0.159125 0.285456 -0.612582
v 0.159125 0.276818 -0.624301
v 0.159125 0.273636 -0.666430
v -0.159125 0.273636 -0.666430
v -0.159125 0.276818 -0.624301
v -0.159125 0.285456 -0.612582
v -0.000000 0.285456 -0.630925
v -0.000000 0.276818 -0.652406
v -0.000000 0.273636 -0.681026
v 0.439397 0.123755 -0.652303
v -0.439397 0.123755 -0.652303
v 0.341311 0.272828 -0.652303
v 0.442828 -0.667704 -0.656616
v -0.442828 -0.667704 -0.656616
v 0.159125 -0.425705 0.593863
v 0.159125 -0.267525 0.593863
v 0.159125 -0.110331 0.593863
v 0.307406 -0.425705 0.532443
v 0.307406 -0.267525 0.532443
v 0.307406 -0.110331 0.532443
v 0.434738 -0.425705 0.434738
v 0.434738 -0.267525 0.434738
v 0.434738 -0.110331 0.434738
v 0.532443 -0.425705 0.307406
v 0.532443 -0.267525 0.307406
v 0.532443 -0.110331 0.307406
v 0.593863 -0.425705 0.159125
v 0.593863 -0.267525 0.159125
v 0.593863 -0.110331 0.159125
v 0.614812 -0.425705 0.000000
v 0.614812 -0.267525 0.000000
v 0.614812 -0.110331 0.000000
v 0.593863 -0.425705 -0.159125
v 0.593863 -0.267525 -0.159125
v 0.593863 -0.110331 -0.159125
v 0.532443 -0.425705 -0.307406
v 0.532443 -0.267525 -0.307406
v 0.532443 -0.110331 -0.307406
v 0.456203 -0.425705 -0.453695
v 0.456203 -0.267525 -0.453695
v 0.456203 -0.110331 -0.453695
v -0.456203 -0.425705 -0.453695
v -0.456203 -0.267525 -0.453695
v -0.456203 -0.110331 -0.453695
v -0.532443 -0.425705 -0.307406
v -0.532443 -0.267525 -0.307406
v -0.532443 -0.110331 -0.307406
v -0.593863 -0.425705 -0.159125
v -0.593863 -0.267525 -0.159125
v -0.593863 -0.110331 -0.159125
v -0.614812 -0.425705 0.000000
v -0.614812 -0.267525 0.000000
v -0.614812 -0.110331 0.000000
v -0.593863 -0.425705 0.159125
v -0.593863 -0.267525 0.159125
v -0.593863 -0.110331 0.159125
v -0.532443 -0.425705 0.307406
v -0.532443 -0.267525 0.307406
v -0.532443 -0.110331 0.307406
v -0.434738 -0.425705 0.434738
v -0.434738 -0.267525 0.434738
v -0.434738 -0.110331 0.434738
v -0.307406 -0.425705 0.532443
v -0.307406 -0.267525 0.532443
v -0.307406 -0.110331 0.532443
v -0.159125 -0.425705 0.593863
v -0.159125 -0.267525 0.593863
v -0.159125 -0.110331 0.593863
v -0.000000 0.240250 0.614812
v -0.000000 0.192140 0.614812
v 0.000000 0.124210 0.614812
v 0.439732 -0.425705 -0.652303
v 0.439732 -0.267525 -0.652303
v 0.439732 -0.110331 -0.652303
v -0.439732 -0.425705 -0.652303
v -0.439732 -0.267525 -0.652303
v -0.439732 -0.110331 -0.652303
v -0.446681 0.025336 -0.498765
v -0.441791 0.025336 -0.547763
v -0.439989 0.025336 -0.599379
v 0.446681 0.025336 -0.498765
v 0.441791 0.025336 -0.547763
v 0.439989 0.025336 -0.599379
v 0.446681 -0.110331 -0.498765
v 0.446681 -0.267525 -0.498765
v 0.446681 -0.425705 -0.498765
v 0.441791 -0.110331 -0.547763
v 0.441791 -0.267525 -0.547763
v 0.441791 -0.425705 -0.547763
v 0.439989 -0.110331 -0.599379
v 0.439989 -0.267525 -0.599379
v 0.439989 -0.425705 -0.599379
v 0.341453 0.285093 -0.556377
v 0.402007 0.275454 -0.523163
v 0.341358 0.276459 -0.584767
v 0.399560 0.267064 -0.563616
v 0.341317 0.273282 -0.617466
v 0.398565 0.264071 -0.607278
v 0.405385 0.404368 -0.462620
v 0.405479 0.362550 -0.465303
v 0.405610 0.324203 -0.473019
v 0.341569 0.404554 -0.511557
v 0.341573 0.364038 -0.514100
v 0.341576 0.328904 -0.521023
v -0.446366 0.123965 -0.498859
v -0.444161 0.190181 -0.499510
v -0.437982 0.233297 -0.501649
v -0.441460 0.123825 -0.547860
v -0.439145 0.189060 -0.548537
v -0.432800 0.229654 -0.550537
v -0.439655 0.123764 -0.599439
v -0.437311 0.188572 -0.599862
v -0.430942 0.228185 -0.601028
v -0.449318 -0.667704 -0.501165
v -0.444524 -0.667704 -0.550727
v -0.442887 -0.667704 -0.602995
v 0.449318 -0.667704 -0.501165
v 0.444524 -0.667704 -0.550727
v 0.442887 -0.667704 -0.602995
v -0.446681 -0.425705 -0.498765
v -0.446681 -0.267525 -0.498765
v -0.446681 -0.110331 -0.498765
v -0.441791 -0.425705 -0.547763
v -0.441791 -0.267525 -0.547763
v -0.441791 -0.110331 -0.547763
v -0.439989 -0.425705 -0.599379
v -0.439989 -0.267525 -0.599379
v -0.439989 -0.110331 -0.599379
v 0.437982 0.233297 -0.501649
v 0.444161 0.190181 -0.499510
v 0.446366 0.123965 -0.498859
v 0.432800 0.229654 -0.550537
v 0.439145 0.189060 -0.548537
v 0.441460 0.123825 -0.547860
v 0.430942 0.228185 -0.601028
v 0.437311 0.188572 -0.599862
v 0.439655 0.123764 -0.599439
v 0.439732 -0.617314 -0.814794
v 0.418266 0.250572 -0.814794
v 0.307406 0.273182 -0.814794
v 0.159125 0.273182 -0.814794
v -0.000000 0.273182 -0.814794
v -0.159125 0.273182 -0.814794
v -0.307406 0.273182 -0.814794
v -0.439732 -0.617314 -0.814794
v -0.418266 0.250572 -0.814794
v 0.439732 0.025336 -0.814794
v -0.439732 0.025336 -0.814794
v 0.439397 0.123755 -0.814794
v 0.437049 0.188503 -0.814794
v 0.430676 0.227976 -0.814794
v -0.439397 0.123755 -0.814794
v -0.437049 0.188503 -0.814794
v -0.430676 0.227976 -0.814794
v 0.398422 0.263643 -0.814794
v 0.341311 0.272828 -0.814794
v 0.430350 -0.669018 -0.814794
v -0.430350 -0.668361 -0.814794
v 0.439732 -0.425705 -0.814794
v 0.439732 -0.267525 -0.814794
v 0.439732 -0.110331 -0.814794
v -0.439732 -0.425705 -0.814794
v -0.439732 -0.267525 -0.814794
v -0.439732 -0.110331 -0.814794
v -0.367303 0.454833 -0.483590
v -0.367303 0.297147 -0.506044
v -0.367303 0.269365 -0.613027
v -0.367303 0.272197 -0.575061
v -0.367303 0.280027 -0.539604
v -0.367303 0.404244 -0.483902
v -0.367303 0.361553 -0.486087
v -0.367303 0.320280 -0.492182
v -0.367303 0.268960 -0.814794
v -0.418471 0.250882 -0.609463
v 0.385973 0.266007 -0.618486
v 0.350682 0.271387 -0.647245
v -0.421283 0.245758 -0.607959
v -0.434774 0.203691 -0.618486
v -0.437885 0.166130 -0.647245
v 0.437156 0.188531 -0.630889
v 0.434784 0.203700 -0.618486
v 0.430879 0.228136 -0.613116
v 0.421287 0.245762 -0.607959
v 0.398422 0.263643 -0.757383
v 0.341311 0.272828 -0.675778
v 0.350625 0.271330 -0.725817
v 0.337278 0.272870 -0.686531
v 0.421042 0.245517 -0.765103
v -0.437049 0.188503 -0.742228
v -0.438382 0.151740 -0.686531
v -0.430676 0.227976 -0.759954
v -0.347718 0.270340 -0.652303
v -0.349509 0.270214 -0.725817
v -0.383193 0.263227 -0.754576
v -0.349581 0.270287 -0.647245
v -0.367303 0.269149 -0.633909
v -0.383442 0.263476 -0.618486
v 0.398538 0.263991 -0.615723
v 0.348974 0.271596 -0.652303
v 0.418471 0.250882 -0.609463
v -0.430879 0.228136 -0.613116
v -0.437156 0.188531 -0.630889
v -0.437928 0.164256 -0.652303
v 0.437886 0.166130 -0.647245
v 0.437928 0.164256 -0.652303
v 0.385662 0.265695 -0.754576
v 0.341311 0.272828 -0.697284
v 0.438382 0.151740 -0.686531
v 0.437861 0.166106 -0.725817
v 0.437049 0.188503 -0.742228
v 0.434622 0.203538 -0.754576
v 0.430676 0.227976 -0.759954
v 0.418266 0.250572 -0.763619
v -0.437861 0.166106 -0.725817
v -0.434622 0.203538 -0.754576
v -0.421042 0.245517 -0.765103
v -0.418266 0.250572 -0.763619
v -0.335602 0.271194 -0.686531
v -0.367303 0.268960 -0.739286
v 0.372696 -0.805117 -0.814794
v 0.421809 -0.782350 -0.814794
v 0.344638 -0.812611 -0.814794
v -0.316580 -0.812611 -0.814794
v 0.316580 -0.812611 -0.814794
v -0.372696 -0.805117 -0.814794
v -0.421809 -0.782350 -0.814794
v -0.344638 -0.812611 -0.814794
v -0.428050 -0.738061 -0.814794
v 0.428050 -0.738061 -0.814794
v 0.532443 -0.607509 -0.307406
v 0.593863 -0.607509 -0.159125
v -0.159125 -0.607509 0.593863
v 0.456203 -0.607509 -0.453695
v 0.439732 -0.607509 -0.652303
v 0.000000 -0.607509 0.614812
v -0.532443 -0.607509 -0.307406
v -0.593863 -0.607509 -0.159125
v -0.441791 -0.607509 -0.547763
v -0.439989 -0.607509 -0.599379
v 0.439732 -0.607509 -0.814794
v 0.159125 -0.607509 0.593863
v -0.446681 -0.607509 -0.498765
v -0.614812 -0.607509 0.000000
v 0.307406 -0.607509 0.532443
v 0.532443 -0.607509 0.307406
v -0.532443 -0.607509 0.307406
v 0.434738 -0.607509 0.434738
v -0.593863 -0.607509 0.159125
v 0.593863 -0.607509 0.159125
v -0.434738 -0.607509 0.434738
v 0.446681 -0.607509 -0.498765
v -0.439732 -0.607509 -0.652303
v -0.439732 -0.607509 -0.814794
v 0.439989 -0.607509 -0.599379
v 0.614812 -0.607509 0.000000
v -0.307406 -0.607509 0.532443
v 0.441791 -0.607509 -0.547763
v -0.456203 -0.607509 -0.453695
v -0.442828 -0.667704 -0.814794
v 0.442828 -0.667704 -0.814794
v -0.161762 0.450000 -0.603704
v -0.312500 0.450000 -0.541266
v -0.441942 0.450000 -0.441942
v -0.541266 0.450000 -0.312500
v -0.603704 0.450000 -0.161762
v -0.625000 0.450000 0.000000
v -0.603704 0.450000 0.161762
v -0.541266 0.450000 0.312500
v -0.441942 0.450000 0.441942
v -0.312500 0.450000 0.541266
v -0.161762 0.450000 0.603704
v 0.000000 0.450000 0.625000
v 0.161762 0.450000 0.603704
v 0.312500 0.450000 0.541266
v 0.441942 0.450000 0.441942
v 0.541266 0.450000 0.312500
v 0.603704 0.450000 0.161762
v 0.625000 0.450000 0.000000
v 0.603704 0.450000 -0.161762
v 0.541266 0.450000 -0.312500
v 0.441942 0.450000 -0.441942
v 0.312500 0.450000 -0.541266
v 0.161762 0.450000 -0.603704
v 0.000000 0.450000 -0.625000
v -0.161762 0.500000 -0.603704
v 0.000000 0.500000 -0.625000
v -0.312500 0.500000 -0.541266
v -0.441942 0.500000 -0.441942
v -0.541266 0.500000 -0.312500
v -0.603704 0.500000 -0.161762
v -0.625000 0.500000 -0.000000
v -0.603704 0.500000 0.161762
v -0.541266 0.500000 0.312500
v -0.441942 0.500000 0.441942
v -0.312500 0.500000 0.541266
v -0.161762 0.500000 0.603704
v 0.000000 0.500000 0.625000
v 0.161762 0.500000 0.603704
v 0.312500 0.500000 0.541266
v 0.441942 0.500000 0.441942
v 0.541266 0.500000 0.312500
v 0.603704 0.500000 0.161762
v 0.625000 0.500000 -0.000000
v 0.603704 0.500000 -0.161762
v 0.541266 0.500000 -0.312500
v 0.441942 0.500000 -0.441942
v 0.312500 0.500000 -0.541266
v 0.161762 0.500000 -0.603704
v 0.000000 0.440000 -0.612037
v 0.158407 0.440000 -0.591182
v 0.306018 0.440000 -0.530039
v 0.432775 0.440000 -0.432775
v 0.530039 0.440000 -0.306018
v 0.591182 0.440000 -0.158407
v 0.612037 0.440000 0.000000
v 0.591182 0.440000 0.158407
v 0.530039 0.440000 0.306018
v 0.432775 0.440000 0.432775
v 0.306018 0.440000 0.530039
v 0.158407 0.440000 0.591182
v 0.000000 0.440000 0.612037
v -0.158407 0.440000 0.591182
v -0.306018 0.440000 0.530039
v -0.432775 0.440000 0.432775
v -0.530039 0.440000 0.306018
v -0.591182 0.440000 0.158407
v -0.612037 0.440000 0.000000
v -0.591182 0.440000 -0.158407
v -0.530039 0.440000 -0.306018
v -0.432775 0.440000 -0.432775
v -0.306018 0.440000 -0.530039
v -0.158407 0.440000 -0.591182
v -0.000000 0.009504 -0.159525
v 0.000000 0.463722 -0.231741
v 0.036108 0.463722 -0.222066
v 0.062540 0.463722 -0.195633
v 0.072216 0.463722 -0.159525
v 0.062540 0.463722 -0.123417
v 0.036108 0.463722 -0.096985
v 0.000000 0.463722 -0.087310
v -0.036108 0.463722 -0.096985
v -0.062540 0.463722 -0.123417
v -0.072216 0.463722 -0.159525
v -0.062540 0.463722 -0.195633
v -0.036108 0.463722 -0.222066
v 0.493563 0.009504 0.011405
v 0.493563 0.463722 -0.060810
v 0.529671 0.463722 -0.051135
v 0.556103 0.463722 -0.024703
v 0.565778 0.463722 0.011405
v 0.556103 0.463722 0.047513
v 0.529671 0.463722 0.073946
v 0.493563 0.463722 0.083621
v 0.457455 0.463722 0.073946
v 0.431022 0.463722 0.047513
v 0.421347 0.463722 0.011405
v 0.431022 0.463722 -0.024703
v 0.457455 0.463722 -0.051135
v 0.092175 0.009504 0.011405
v 0.092175 0.463722 -0.060810
v 0.128283 0.463722 -0.051135
v 0.154716 0.463722 -0.024703
v 0.164391 0.463722 0.011405
v 0.154716 0.463722 0.047513
v 0.128283 0.463722 0.073946
v 0.092175 0.463722 0.083621
v 0.056067 0.463722 0.073946
v 0.029635 0.463722 0.047513
v 0.019960 0.463722 0.011405
v 0.029635 0.463722 -0.024703
v 0.056067 0.463722 -0.051135
v 0.092175 0.009504 -0.327788
v 0.092175 0.463722 -0.400003
v 0.128283 0.463722 -0.390328
v 0.154716 0.463722 -0.363895
v 0.164391 0.463722 -0.327788
v 0.154716 0.463722 -0.291680
v 0.128283 0.463722 -0.265247
v 0.092175 0.463722 -0.255572
v 0.056067 0.463722 -0.265247
v 0.029635 0.463722 -0.291680
v 0.019960 0.463722 -0.327788
v 0.029635 0.463722 -0.363895
v 0.056067 0.463722 -0.390328
v 0.290224 0.009504 -0.327788
v 0.290224 0.463722 -0.400003
v 0.326332 0.463722 -0.390328
v 0.352764 0.463722 -0.363895
v 0.362439 0.463722 -0.327788
v 0.352764 0.463722 -0.291680
v 0.326332 0.463722 -0.265247
v 0.290224 0.463722 -0.255572
v 0.254116 0.463722 -0.265247
v 0.227683 0.463722 -0.291680
v 0.218008 0.463722 -0.327788
v 0.227683 0.463722 -0.363895
v 0.254116 0.463722 -0.390328
v 0.198049 0.009504 -0.159525
v 0.198049 0.463722 -0.231741
v 0.234157 0.463722 -0.222066
v 0.260589 0.463722 -0.195633
v 0.270264 0.463722 -0.159525
v 0.260589 0.463722 -0.123417
v 0.234157 0.463722 -0.096985
v 0.198049 0.463722 -0.087310
v 0.161941 0.463722 -0.096985
v 0.135508 0.463722 -0.123417
v 0.125833 0.463722 -0.159525
v 0.135508 0.463722 -0.195633
v 0.161941 0.463722 -0.222066
v 0.290224 0.009504 0.011405
v 0.290224 0.463722 -0.060810
v 0.326332 0.463722 -0.051135
v 0.352764 0.463722 -0.024703
v 0.362439 0.463722 0.011405
v 0.352764 0.463722 0.047513
v 0.326332 0.463722 0.073946
v 0.290224 0.463722 0.083621
v 0.254116 0.463722 0.073946
v 0.227683 0.463722 0.047513
v 0.218008 0.463722 0.011405
v 0.227683 0.463722 -0.024703
v 0.254116 0.463722 -0.051135
v 0.401388 0.009504 -0.159525
v 0.401388 0.463722 -0.231741
v 0.437495 0.463722 -0.222066
v 0.463928 0.463722 -0.195633
v 0.473603 0.463722 -0.159525
v 0.463928 0.463722 -0.123417
v 0.437495 0.463722 -0.096985
v 0.401388 0.463722 -0.087310
v 0.365280 0.463722 -0.096985
v 0.338847 0.463722 -0.123417
v 0.329172 0.463722 -0.159525
v 0.338847 0.463722 -0.195633
v 0.365280 0.463722 -0.222066
v -0.493563 0.009504 0.011405
v -0.493563 0.463722 -0.060810
v -0.529671 0.463722 -0.051135
v -0.556103 0.463722 -0.024703
v -0.565778 0.463722 0.011405
v -0.556103 0.463722 0.047513
v -0.529671 0.463722 0.073946
v -0.493563 0.463722 0.083621
v -0.457455 0.463722 0.073946
v -0.431022 0.463722 0.047513
v -0.421347 0.463722 0.011405
v -0.431022 0.463722 -0.024703
v -0.457455 0.463722 -0.051135
v -0.092175 0.009504 0.011405
v -0.092175 0.463722 -0.060810
v -0.128283 0.463722 -0.051135
v -0.154716 0.463722 -0.024703
v -0.164391 0.463722 0.011405
v -0.154716 0.463722 0.047513
v -0.128283 0.463722 0.073946
v -0.092175 0.463722 0.083621
v -0.056067 0.463722 0.073946
v -0.029635 0.463722 0.047513
v -0.019960 0.463722 0.011405
v -0.029635 0.463722 -0.024703
v -0.056067 0.463722 -0.051135
v -0.092175 0.009504 -0.327788
v -0.092175 0.463722 -0.400003
v -0.128283 0.463722 -0.390328
v -0.154716 0.463722 -0.363895
v -0.164391 0.463722 -0.327788
v -0.154716 0.463722 -0.291680
v -0.128283 0.463722 -0.265247
v -0.092175 0.463722 -0.255572
v -0.056067 0.463722 -0.265247
v -0.029635 0.463722 -0.291680
v -0.019960 0.463722 -0.327788
v -0.029635 0.463722 -0.363895
v -0.056067 0.463722 -0.390328
v -0.290224 0.009504 -0.327788
v -0.290224 0.463722 -0.400003
v -0.326332 0.463722 -0.390328
v -0.352765 0.463722 -0.363895
v -0.362440 0.463722 -0.327788
v -0.352765 0.463722 -0.291680
v -0.326332 0.463722 -0.265247
v -0.290224 0.463722 -0.255572
v -0.254116 0.463722 -0.265247
v -0.227684 0.463722 -0.291680
v -0.218009 0.463722 -0.327788
v -0.227684 0.463722 -0.363895
v -0.254116 0.463722 -0.390328
v -0.198049 0.009504 -0.159525
v -0.198049 0.463722 -0.231741
v -0.234157 0.463722 -0.222066
v -0.260589 0.463722 -0.195633
v -0.270264 0.463722 -0.159525
v -0.260589 0.463722 -0.123417
v -0.234157 0.463722 -0.096985
v -0.198049 0.463722 -0.087310
v -0.161941 0.463722 -0.096985
v -0.135508 0.463722 -0.123417
v -0.125833 0.463722 -0.159525
v -0.135508 0.463722 -0.195633
v -0.161941 0.463722 -0.222066
v -0.290224 0.009504 0.011405
v -0.290224 0.463722 -0.060810
v -0.326332 0.463722 -0.051135
v -0.352765 0.463722 -0.024703
v -0.362440 0.463722 0.011405
v -0.352765 0.463722 0.047513
v -0.326332 0.463722 0.073946
v -0.290224 0.463722 0.083621
v -0.254116 0.463722 0.073946
v -0.227684 0.463722 0.047513
v -0.218009 0.463722 0.011405
v -0.227684 0.463722 -0.024703
v -0.254116 0.463722 -0.051135
v -0.401388 0.009504 -0.159525
v -0.401388 0.463722 -0.231741
v -0.437496 0.463722 -0.222066
v -0.463928 0.463722 -0.195633
v -0.473603 0.463722 -0.159525
v -0.463928 0.463722 -0.123417
v -0.437496 0.463722 -0.096985
v -0.401388 0.463722 -0.087310
v -0.365280 0.463722 -0.096985
v -0.338847 0.463722 -0.123417
v -0.329172 0.463722 -0.159525
v -0.338847 0.463722 -0.195633
v -0.365280 0.463722 -0.222066
v -0.103891 0.483765 0.371615
v -0.089972 0.483765 0.319670
v 0.089972 0.483765 0.423561
v 0.051946 0.483765 0.461588
v -0.089972 0.483765 0.423561
v -0.051946 0.483765 0.461588
v 0.103891 0.483765 0.371615
v 0.089972 0.483765 0.319670
v 0.051946 0.483765 0.281643
v -0.051946 0.483765 0.281643
v -0.000000 0.483765 0.475506
v -0.000000 0.483765 0.267724
v -0.000000 -0.010539 0.371615
v -0.417243 -0.793208 -0.898480
v -0.406250 -0.779459 -0.802813
v -0.417243 0.250576 -0.937305
v -0.406250 0.236826 -0.797367
v 0.417243 -0.793208 -0.898480
v 0.406250 -0.779459 -0.802813
v 0.417243 0.250576 -0.937305
v 0.406250 0.236826 -0.797367
v -0.417243 -0.793208 -0.851003
v -0.417243 0.250576 -0.909247
v 0.417243 0.250576 -0.909247
v 0.417243 -0.793208 -0.851003
v -0.406250 -0.779459 -0.851003
v -0.376094 0.236826 -0.895036
v 0.376094 0.236826 -0.895036
v 0.406250 -0.779459 -0.851003
v 0.376094 0.236826 -0.811578
v -0.376094 0.236826 -0.811578
v -0.406250 0.236826 -0.909247
v 0.406250 0.236826 -0.909247
v -0.376094 0.038012 -0.811578
v 0.376094 0.038012 -0.811578
vn 0.2587 -0.0249 0.9656
vn -0.0000 -0.0249 0.9997
vn 0.4998 -0.0249 0.8658
vn 0.7069 -0.0249 0.7069
vn 0.8658 -0.0249 0.4998
vn 0.9656 -0.0249 0.2587
vn 0.9997 -0.0249 -0.0000
vn 0.9656 -0.0249 -0.2587
vn 0.9060 -0.0245 -0.4225
vn 0.9060 -0.0245 -0.4227
vn 0.9410 -0.0224 -0.3377
vn 0.9415 -0.0224 -0.3362
vn -0.3834 0.8569 -0.3447
vn -0.2339 0.8345 -0.4990
vn -0.1030 0.9691 -0.2240
vn -0.2659 0.9515 -0.1544
vn -0.0490 0.9974 -0.0537
vn -0.2180 0.9749 -0.0450
vn -0.5440 0.5772 -0.6090
vn -0.7250 0.6281 -0.2827
vn -0.7788 0.3242 -0.5370
vn -0.6560 0.7539 -0.0360
vn -0.6562 0.7537 -0.0359
vn -0.2074 0.9783 -0.0054
vn -0.2189 0.9747 -0.0447
vn 0.2848 0.8581 -0.4272
vn 0.5218 0.7796 -0.3463
vn 0.4166 0.8966 -0.1502
vn 0.1510 0.9706 -0.1872
vn 0.9882 -0.0000 -0.1532
vn 0.9977 -0.0000 -0.0671
vn 0.9998 -0.0000 -0.0199
vn 0.9412 0.0009 -0.3379
vn 0.9413 -0.0000 -0.3376
vn 0.9882 0.0015 -0.1534
vn 0.8587 0.4016 -0.3183
vn 0.8667 0.3992 -0.2993
vn 0.9193 0.3698 -0.1347
vn 0.9156 0.3732 -0.1495
vn 0.9352 0.3494 -0.0570
vn 0.9332 0.3528 -0.0685
vn 0.9417 0.3361 -0.0155
vn 0.9408 0.3383 -0.0219
vn 0.9720 0.2347 -0.0083
vn 0.9617 0.2741 -0.0068
vn 1.0000 -0.0000 -0.0024
vn 0.9998 0.0017 -0.0199
vn 1.0000 0.0017 -0.0024
vn 0.9977 0.0016 -0.0672
vn 0.3729 0.9268 -0.0436
vn 0.0970 0.9938 -0.0535
vn 0.6352 0.5142 -0.5763
vn 0.4515 0.5783 -0.6795
vn 0.3352 0.5236 -0.7832
vn 0.1916 0.8212 -0.5375
vn 0.0854 0.9963 -0.0063
vn 0.0855 0.9963 -0.0065
vn 0.3726 0.9270 -0.0434
vn 0.3715 0.9274 -0.0437
vn 0.8258 0.2743 -0.4928
vn 0.8038 0.5302 -0.2698
vn 0.7627 0.6360 -0.1175
vn 0.7415 0.6701 -0.0347
vn 0.7411 0.6705 -0.0348
vn 0.0184 0.9982 -0.0573
vn 0.0068 0.9999 -0.0079
vn 0.0701 0.9685 -0.2388
vn -0.9060 -0.0245 -0.4225
vn -0.9060 -0.0245 -0.4227
vn -0.9415 -0.0224 -0.3362
vn -0.9410 -0.0224 -0.3377
vn -0.9656 -0.0249 -0.2587
vn -0.9997 -0.0249 -0.0000
vn -0.9656 -0.0249 0.2587
vn -0.8658 -0.0249 0.4998
vn -0.7069 -0.0249 0.7069
vn -0.4998 -0.0249 0.8658
vn -0.2587 -0.0249 0.9656
vn -0.2588 -0.0000 0.9659
vn -0.0000 -0.0000 1.0000
vn -0.5000 -0.0000 0.8660
vn -0.7071 -0.0000 0.7071
vn -0.8660 -0.0000 0.5000
vn -0.9659 -0.0000 0.2588
vn -1.0000 -0.0000 -0.0000
vn -0.9659 -0.0000 -0.2588
vn -0.8668 0.0048 -0.4986
vn -0.8694 0.0163 -0.4938
vn -0.8859 0.0575 -0.4602
vn -0.8759 0.0418 -0.4807
vn -0.8662 0.0012 -0.4997
vn -0.6993 0.0168 -0.7147
vn -0.7031 0.0574 -0.7088
vn -0.7141 0.1564 -0.6824
vn -0.6951 0.0040 -0.7189
vn -0.6093 0.0234 -0.7926
vn -0.6081 0.0821 -0.7896
vn -0.5995 0.2432 -0.7626
vn -0.6095 0.0053 -0.7928
vn -0.5163 0.0051 -0.8564
vn -0.5128 0.0223 -0.8582
vn -0.2575 0.0168 -0.9661
vn -0.2520 0.0613 -0.9658
vn -0.5112 0.0796 -0.8558
vn -0.1987 0.4036 -0.8931
vn -0.4062 0.5431 -0.7349
vn -0.4981 0.2264 -0.8371
vn -0.2362 0.1634 -0.9579
vn -0.2586 0.0040 -0.9660
vn -0.0000 0.0123 -0.9999
vn -0.0000 0.0447 -0.9990
vn -0.0000 0.3377 -0.9412
vn -0.0000 0.1193 -0.9929
vn -0.0000 0.0029 -1.0000
vn 0.2575 0.0168 -0.9661
vn 0.2520 0.0613 -0.9658
vn 0.1987 0.4036 -0.8931
vn 0.2362 0.1634 -0.9579
vn 0.2586 0.0040 -0.9660
vn 0.4551 0.0248 -0.8901
vn 0.4463 0.0907 -0.8903
vn 0.6515 0.0949 -0.7527
vn 0.5621 0.1036 -0.8206
vn 0.5680 0.0286 -0.8225
vn 0.6482 0.0269 -0.7610
vn 0.4174 0.2398 -0.8765
vn 0.4566 0.0058 -0.8896
vn 0.6578 0.2399 -0.7139
vn 0.5382 0.2718 -0.7978
vn 0.7415 0.0042 -0.6709
vn 0.7435 0.0171 -0.6685
vn 0.6472 0.0065 -0.7623
vn 0.7513 0.0586 -0.6574
vn 0.7703 0.1447 -0.6211
vn 0.5690 0.0068 -0.8223
vn 0.8668 0.0048 -0.4986
vn 0.8694 0.0163 -0.4938
vn 0.8859 0.0575 -0.4602
vn 0.8759 0.0418 -0.4807
vn 0.8662 0.0012 -0.4997
vn 0.9659 -0.0000 -0.2588
vn 1.0000 -0.0000 -0.0000
vn 0.9659 -0.0000 0.2588
vn 0.8660 -0.0000 0.5000
vn 0.7071 -0.0000 0.7071
vn 0.5000 -0.0000 0.8660
vn 0.2588 -0.0000 0.9659
vn -0.9062 -0.0000 -0.4228
vn -0.9061 0.0003 -0.4230
vn -0.9413 -0.0000 -0.3376
vn -0.9412 0.0009 -0.3379
vn -0.9877 0.0167 -0.1553
vn -0.9833 0.0792 -0.1642
vn -0.9932 0.0913 -0.0719
vn -0.9975 0.0188 -0.0679
vn -0.9490 0.2456 -0.1978
vn -0.9502 0.2993 -0.0875
vn -0.9951 0.0964 -0.0214
vn -0.9996 0.0196 -0.0201
vn -0.9473 0.3193 -0.0262
vn -0.9401 0.0105 -0.3409
vn -0.9882 0.0015 -0.1534
vn -0.9345 0.0484 -0.3526
vn -0.9108 0.1431 -0.3873
vn -0.6784 0.7245 -0.1223
vn -0.6568 0.7532 -0.0359
vn -0.9472 0.3195 -0.0262
vn -0.9951 0.0965 -0.0214
vn -0.9952 0.0978 -0.0026
vn -0.9952 0.0979 -0.0026
vn -0.9998 0.0198 -0.0025
vn -0.9952 0.0979 -0.0025
vn -0.9998 0.0017 -0.0199
vn -1.0000 0.0017 -0.0024
vn -0.9977 0.0016 -0.0672
vn 0.1285 0.7512 -0.6474
vn 0.0515 0.9606 -0.2730
vn 0.0094 0.9987 -0.0495
vn 0.0013 1.0000 -0.0063
vn -0.0000 0.7288 -0.6847
vn -0.0000 0.9655 -0.2605
vn -0.0000 0.9988 -0.0489
vn -0.0000 1.0000 -0.0058
vn -0.1285 0.7512 -0.6474
vn -0.0515 0.9606 -0.2730
vn -0.0094 0.9987 -0.0495
vn -0.0013 1.0000 -0.0063
vn 0.9062 -0.0000 -0.4228
vn 0.9061 0.0003 -0.4230
vn -0.9883 -0.0185 -0.1516
vn -0.9881 -0.0185 -0.1524
vn -0.9978 -0.0147 -0.0653
vn -0.9977 -0.0147 -0.0657
vn -0.9998 -0.0107 -0.0180
vn -0.9998 -0.0098 -0.0176
vn -0.9994 0.0134 -0.0316
vn -0.9989 -0.0460 -0.0078
vn -0.0369 0.9993 -0.0075
vn 0.9881 -0.0185 -0.1524
vn 0.9883 -0.0185 -0.1516
vn 0.9998 -0.0107 -0.0180
vn 0.9998 -0.0107 -0.0181
vn 0.9998 -0.0086 -0.0169
vn 0.9996 0.0186 -0.0201
vn 0.9978 -0.0147 -0.0653
vn 0.9977 -0.0147 -0.0657
vn 0.9032 0.0128 -0.4289
vn 0.8967 0.0383 -0.4409
vn 0.9056 0.0028 -0.4242
vn 0.9345 0.0484 -0.3526
vn 0.9108 0.1431 -0.3873
vn 0.9401 0.0105 -0.3409
vn -0.9882 -0.0000 -0.1532
vn -0.9977 -0.0000 -0.0671
vn -0.9998 -0.0000 -0.0199
vn -1.0000 -0.0000 -0.0024
vn -0.9032 0.0128 -0.4289
vn -0.8967 0.0383 -0.4409
vn -0.9056 0.0028 -0.4242
vn 0.9490 0.2456 -0.1978
vn 0.9833 0.0792 -0.1642
vn 0.9932 0.0913 -0.0719
vn 0.9502 0.2993 -0.0875
vn 0.9877 0.0167 -0.1553
vn 0.9975 0.0188 -0.0679
vn 0.9951 0.0964 -0.0213
vn 0.9473 0.3192 -0.0260
vn 0.9996 0.0196 -0.0201
vn 0.9998 0.0198 -0.0025
vn 0.9952 0.0979 -0.0026
vn 0.9951 0.0965 -0.0213
vn 0.9472 0.3195 -0.0262
vn 0.7419 0.6696 -0.0347
vn 1.0000 0.0017 -0.0000
vn 0.9998 0.0198 -0.0000
vn 0.3625 0.9320 -0.0000
vn 0.0848 0.9964 -0.0000
vn 0.3614 0.9324 -0.0004
vn 0.9952 0.0980 -0.0000
vn 0.9952 0.0978 -0.0027
vn 0.0853 0.9963 -0.0065
vn 0.0052 1.0000 -0.0000
vn 0.9457 0.3251 -0.0000
vn 0.7349 0.6782 -0.0000
vn 0.7357 0.6773 -0.0000
vn -0.9998 0.0198 -0.0000
vn -1.0000 0.0017 -0.0000
vn -0.9952 0.0980 -0.0000
vn -0.9457 0.3251 -0.0000
vn 0.9846 0.1747 -0.0105
vn -0.6507 0.7593 -0.0000
vn -0.6499 0.7600 -0.0000
vn -0.0368 0.9993 -0.0075
vn -0.2063 0.9785 -0.0054
vn -0.0352 0.9994 -0.0000
vn -0.2068 0.9784 -0.0000
vn -0.2062 0.9785 -0.0056
vn -0.0000 1.0000 -0.0000
vn -0.2079 0.9781 -0.0000
vn -0.2063 0.9785 -0.0055
vn -0.0000 -0.0000 -1.0000
vn 0.0002 -0.0003 -1.0000
vn -0.9720 0.2347 -0.0083
vn -0.9617 0.2741 -0.0068
vn -0.9846 0.1747 -0.0105
vn -0.9193 0.3698 -0.1347
vn -0.9156 0.3732 -0.1495
vn -0.9332 0.3528 -0.0685
vn -0.9352 0.3494 -0.0570
vn -0.9408 0.3383 -0.0219
vn -0.9417 0.3361 -0.0155
vn -0.8667 0.3992 -0.2993
vn -0.8587 0.4016 -0.3183
vn -0.0000 0.4947 0.8691
vn 0.2240 0.4929 0.8407
vn 0.2265 0.4929 0.8401
vn 0.4344 0.4877 0.7572
vn 0.4389 0.4876 0.7548
vn 0.6182 0.4793 0.6230
vn 0.6234 0.4790 0.6180
vn 0.7632 0.4681 0.4455
vn 0.7679 0.4676 0.4378
vn 0.8590 0.4548 0.2351
vn 0.8619 0.4542 0.2254
vn 0.8980 0.4401 0.0051
vn 0.8983 0.4394 -0.0056
vn 0.8757 0.4249 -0.2295
vn 0.8732 0.4243 -0.2397
vn 0.8254 0.4135 -0.3844
vn 0.8248 0.4134 -0.3856
vn -0.8254 0.4135 -0.3844
vn -0.8248 0.4134 -0.3856
vn -0.8757 0.4249 -0.2295
vn -0.8732 0.4243 -0.2397
vn -0.8980 0.4401 0.0051
vn -0.8983 0.4394 -0.0056
vn -0.8590 0.4548 0.2351
vn -0.8619 0.4542 0.2254
vn -0.7632 0.4681 0.4455
vn -0.7679 0.4676 0.4378
vn -0.6182 0.4793 0.6230
vn -0.6234 0.4790 0.6180
vn -0.4344 0.4877 0.7572
vn -0.4389 0.4876 0.7548
vn -0.2240 0.4929 0.8407
vn -0.2265 0.4929 0.8401
vn -0.0451 -0.0569 -0.9974
vn 0.0002 0.0004 -1.0000
vn -0.0001 0.0003 -1.0000
vn -0.9996 0.0273 -0.0108
vn -0.9996 0.0270 -0.0109
vn 0.0302 0.0660 -0.9974
vn 0.9996 0.0273 -0.0108
vn -0.0000 -0.7918 -0.6108
vn 0.1581 -0.7918 -0.5900
vn -0.2588 -0.0000 -0.9659
vn -0.5000 -0.0000 -0.8660
vn -0.7071 -0.0000 -0.7071
vn -0.8660 -0.0000 -0.5000
vn 0.8660 -0.0000 -0.5000
vn 0.7071 -0.0000 -0.7071
vn 0.5000 -0.0000 -0.8660
vn 0.2588 -0.0000 -0.9659
vn 0.3054 -0.7918 -0.5290
vn 0.4319 -0.7918 -0.4319
vn 0.5290 -0.7918 -0.3054
vn 0.5900 -0.7918 -0.1581
vn 0.6108 -0.7918 -0.0000
vn 0.5900 -0.7918 0.1581
vn 0.5290 -0.7918 0.3054
vn 0.4319 -0.7918 0.4319
vn 0.3054 -0.7918 0.5290
vn 0.1581 -0.7918 0.5900
vn -0.0000 -0.7918 0.6108
vn -0.1581 -0.7918 0.5900
vn -0.3054 -0.7918 0.5290
vn -0.4319 -0.7918 0.4319
vn -0.5290 -0.7918 0.3054
vn -0.5900 -0.7918 0.1581
vn -0.6108 -0.7918 -0.0000
vn -0.5900 -0.7918 -0.1581
vn -0.5290 -0.7918 -0.3054
vn -0.4319 -0.7918 -0.4319
vn -0.3054 -0.7918 -0.5290
vn -0.1581 -0.7918 -0.5900
vn -0.4938 0.1570 0.8553
vn -0.0000 0.1570 0.9876
vn -0.8553 0.1570 0.4938
vn -0.9876 0.1570 -0.0000
vn -0.8553 0.1570 -0.4938
vn -0.4938 0.1570 -0.8553
vn -0.0000 0.1570 -0.9876
vn 0.4938 0.1570 -0.8553
vn 0.8553 0.1570 -0.4938
vn 0.9876 0.1570 -0.0000
vn 0.8553 0.1570 0.4938
vn 0.4938 0.1570 0.8553
vn -0.0000 0.2057 -0.9786
vn -0.4893 0.2057 -0.8475
vn -0.0000 0.2057 0.9786
vn 0.4893 0.2057 0.8475
vn -0.8475 0.2057 -0.4893
vn -0.9786 0.2057 -0.0000
vn 0.9786 0.2057 -0.0000
vn 0.8475 0.2057 -0.4893
vn -0.8475 0.2057 0.4893
vn 0.4893 0.2057 -0.8475
vn 0.8475 0.2057 0.4893
vn -0.4893 0.2057 0.8475
vn -0.0000 -1.0000 -0.0000
vn -0.0000 -0.0372 -0.9993
vn -0.0000 0.0565 0.9984
vn -0.0000 0.3871 0.9221
vt 0.403839 0.379898
vt 0.415168 0.379874
vt 0.415278 0.416286
vt 0.403885 0.416311
vt 0.403791 0.343675
vt 0.415066 0.343652
vt 0.403738 0.307612
vt 0.414967 0.307587
vt 0.403673 0.271681
vt 0.414866 0.271652
vt 0.403589 0.235854
vt 0.414754 0.235819
vt 0.403476 0.200106
vt 0.414621 0.200063
vt 0.403327 0.164415
vt 0.414458 0.164359
vt 0.403130 0.128755
vt 0.414260 0.128666
vt 0.402909 0.092094
vt 0.414046 0.091938
vt 0.228489 0.821583
vt 0.238517 0.832967
vt 0.236170 0.837938
vt 0.225390 0.829149
vt 0.233890 0.843407
vt 0.222613 0.837011
vt 0.232548 0.814218
vt 0.217190 0.809948
vt 0.221399 0.797642
vt 0.211673 0.833018
vt 0.211848 0.831857
vt 0.221191 0.841172
vt 0.218724 0.837043
vt 0.231563 0.084339
vt 0.220674 0.097156
vt 0.217321 0.087450
vt 0.228813 0.078151
vt 0.127681 0.109364
vt 0.092159 0.109813
vt 0.092082 0.098732
vt 0.127461 0.098272
vt 0.056441 0.109916
vt 0.056467 0.098829
vt 0.092001 0.087146
vt 0.127220 0.086697
vt 0.056494 0.087231
vt 0.158813 0.119127
vt 0.127870 0.119779
vt 0.158484 0.108610
vt 0.092229 0.120209
vt 0.056417 0.120313
vt 0.416406 0.092224
vt 0.413977 0.081670
vt 0.416296 0.082210
vt 0.413921 0.070724
vt 0.416227 0.071428
vt 0.413866 0.059251
vt 0.416163 0.060083
vt 0.413810 0.047501
vt 0.416104 0.048435
vt 0.056520 0.075376
vt 0.091926 0.075315
vt 0.126981 0.074903
vt 0.157554 0.085813
vt 0.157028 0.074052
vt 0.158058 0.097429
vt 0.214382 0.077494
vt 0.226219 0.071299
vt 0.225115 0.105198
vt 0.234840 0.089721
vt 0.240099 0.082787
vt 0.237280 0.078180
vt 0.222231 0.064847
vt 0.223801 0.064301
vt 0.213870 0.075579
vt 0.216488 0.074210
vt 0.222192 0.065882
vt 0.219009 0.115143
vt 0.214868 0.102549
vt 0.211899 0.090945
vt 0.209257 0.079639
vt 0.208994 0.078189
vt 0.232665 0.067660
vt 0.230461 0.061835
vt 0.234934 0.073174
vt 0.403979 0.714667
vt 0.415819 0.714711
vt 0.415776 0.753848
vt 0.403895 0.753733
vt 0.404053 0.676797
vt 0.415847 0.676807
vt 0.404085 0.639065
vt 0.415833 0.639063
vt 0.404085 0.601484
vt 0.415784 0.601472
vt 0.404062 0.564068
vt 0.415706 0.564050
vt 0.404025 0.526832
vt 0.415611 0.526810
vt 0.403980 0.489787
vt 0.415504 0.489763
vt 0.403932 0.452944
vt 0.415393 0.452919
vt 0.131883 0.496722
vt 0.094424 0.496870
vt 0.094183 0.458583
vt 0.131754 0.458374
vt 0.013280 0.497792
vt 0.012647 0.459164
vt 0.056360 0.458831
vt 0.056731 0.497186
vt 0.164280 0.458225
vt 0.164304 0.496735
vt 0.256206 0.497852
vt 0.245643 0.497601
vt 0.246182 0.457973
vt 0.256919 0.457953
vt 0.225683 0.497238
vt 0.225995 0.458019
vt 0.235832 0.457996
vt 0.235422 0.497399
vt 0.267921 0.457935
vt 0.266966 0.498161
vt 0.254845 0.536992
vt 0.244480 0.536614
vt 0.224837 0.536025
vt 0.234430 0.536293
vt 0.265378 0.537430
vt 0.253192 0.575392
vt 0.243016 0.574956
vt 0.223700 0.574254
vt 0.233138 0.574577
vt 0.263520 0.575885
vt 0.251410 0.613095
vt 0.241419 0.612637
vt 0.222431 0.611897
vt 0.231712 0.612238
vt 0.261545 0.613609
vt 0.249598 0.650102
vt 0.239799 0.649653
vt 0.221152 0.648936
vt 0.230271 0.649265
vt 0.259530 0.650613
vt 0.247866 0.686352
vt 0.238284 0.685958
vt 0.220002 0.685358
vt 0.228950 0.685629
vt 0.257561 0.686817
vt 0.246442 0.721708
vt 0.237117 0.721476
vt 0.219212 0.721184
vt 0.227993 0.721308
vt 0.255835 0.722024
vt 0.245899 0.755949
vt 0.236886 0.756151
vt 0.219241 0.756644
vt 0.227946 0.756404
vt 0.254858 0.755859
vt 0.247862 0.788647
vt 0.239477 0.790420
vt 0.230866 0.793053
vt 0.255906 0.787524
vt 0.251703 0.803477
vt 0.244311 0.806489
vt 0.236780 0.810349
vt 0.259757 0.800818
vt 0.263158 0.812040
vt 0.257217 0.815711
vt 0.274799 0.836314
vt 0.270098 0.841289
vt 0.251141 0.819735
vt 0.262947 0.849841
vt 0.241378 0.828394
vt 0.245647 0.823997
vt 0.266012 0.845932
vt 0.279672 0.831331
vt 0.294979 0.852745
vt 0.290989 0.857757
vt 0.285318 0.865645
vt 0.287678 0.862178
vt 0.299317 0.847458
vt 0.274320 0.075554
vt 0.269560 0.070290
vt 0.291485 0.053389
vt 0.295597 0.058687
vt 0.262312 0.061336
vt 0.285593 0.045074
vt 0.288056 0.048726
vt 0.265422 0.065415
vt 0.300059 0.064285
vt 0.279263 0.080874
vt 0.255573 0.096197
vt 0.249605 0.091873
vt 0.239534 0.113565
vt 0.245602 0.098576
vt 0.252193 0.102181
vt 0.247463 0.115871
vt 0.244218 0.087348
vt 0.261313 0.100297
vt 0.231724 0.110272
vt 0.239561 0.094421
vt 0.254532 0.124177
vt 0.246192 0.123404
vt 0.254926 0.117478
vt 0.237588 0.121865
vt 0.228767 0.119455
vt 0.258590 0.105114
vt 0.244796 0.157005
vt 0.235548 0.156915
vt 0.217503 0.156638
vt 0.226398 0.156774
vt 0.254016 0.156987
vt 0.245583 0.192055
vt 0.236064 0.192344
vt 0.217810 0.192768
vt 0.226759 0.192576
vt 0.255180 0.191693
vt 0.247146 0.228054
vt 0.237411 0.228486
vt 0.218845 0.229182
vt 0.227931 0.228860
vt 0.256999 0.227562
vt 0.248987 0.264804
vt 0.239069 0.265286
vt 0.220199 0.266087
vt 0.229427 0.265713
vt 0.259038 0.264269
vt 0.250905 0.302194
vt 0.240824 0.302684
vt 0.221666 0.303507
vt 0.231031 0.303122
vt 0.261129 0.301654
vt 0.252799 0.340179
vt 0.242560 0.340650
vt 0.223121 0.341434
vt 0.232619 0.341068
vt 0.263192 0.339658
vt 0.254574 0.378771
vt 0.244169 0.379185
vt 0.224447 0.379861
vt 0.234078 0.379548
vt 0.265147 0.378302
vt 0.256066 0.418021
vt 0.245484 0.418311
vt 0.225486 0.418763
vt 0.235243 0.418556
vt 0.266845 0.417677
vt 0.131894 0.534889
vt 0.094665 0.534983
vt 0.014093 0.536088
vt 0.057210 0.535338
vt 0.164091 0.535030
vt 0.131820 0.572767
vt 0.094897 0.572828
vt 0.015005 0.574031
vt 0.057744 0.573204
vt 0.163717 0.572987
vt 0.131704 0.610293
vt 0.095128 0.610347
vt 0.015969 0.611608
vt 0.058311 0.610740
vt 0.163266 0.610537
vt 0.131594 0.647441
vt 0.095373 0.647517
vt 0.016957 0.648816
vt 0.058898 0.647928
vt 0.162817 0.647658
vt 0.131534 0.684223
vt 0.095645 0.684340
vt 0.017947 0.685663
vt 0.059500 0.684771
vt 0.162452 0.684369
vt 0.131549 0.720687
vt 0.095948 0.720839
vt 0.018922 0.722166
vt 0.060110 0.721281
vt 0.162238 0.720748
vt 0.131611 0.756900
vt 0.096263 0.757041
vt 0.019868 0.758352
vt 0.060720 0.757479
vt 0.162174 0.756954
vt 0.131599 0.793882
vt 0.096561 0.793933
vt 0.020802 0.795258
vt 0.061347 0.794360
vt 0.162017 0.794160
vt 0.184152 0.805140
vt 0.199582 0.806017
vt 0.198532 0.817567
vt 0.183570 0.816348
vt 0.210019 0.807299
vt 0.208123 0.819052
vt 0.197266 0.829282
vt 0.182785 0.827870
vt 0.206330 0.830705
vt 0.184500 0.794554
vt 0.161810 0.804489
vt 0.200185 0.795027
vt 0.211355 0.795791
vt 0.214284 0.821156
vt 0.210496 0.832702
vt 0.206073 0.833653
vt 0.200307 0.833954
vt 0.196492 0.836204
vt 0.190591 0.840190
vt 0.181847 0.839363
vt 0.191225 0.839139
vt 0.161141 0.826863
vt 0.160746 0.838393
vt 0.161513 0.815466
vt 0.260352 0.058292
vt 0.259024 0.055864
vt 0.255702 0.048717
vt 0.253231 0.043167
vt 0.284083 0.042377
vt 0.282511 0.038939
vt 0.280592 0.034490
vt 0.278003 0.028256
vt 0.261022 0.852764
vt 0.283892 0.868209
vt 0.282413 0.871500
vt 0.259720 0.855095
vt 0.280603 0.875782
vt 0.256474 0.862026
vt 0.278156 0.881816
vt 0.254084 0.867410
vt 0.128363 0.157382
vt 0.092458 0.157710
vt 0.014889 0.157580
vt 0.015202 0.120083
vt 0.056365 0.157794
vt 0.159419 0.156961
vt 0.128751 0.194150
vt 0.092644 0.194452
vt 0.014553 0.194297
vt 0.056308 0.194524
vt 0.159894 0.193741
vt 0.129167 0.231110
vt 0.092831 0.231434
vt 0.014193 0.231276
vt 0.056246 0.231510
vt 0.160483 0.230636
vt 0.129639 0.268321
vt 0.093038 0.268676
vt 0.013821 0.268536
vt 0.056189 0.268765
vt 0.161198 0.267790
vt 0.130148 0.305824
vt 0.093266 0.306193
vt 0.013455 0.306089
vt 0.056144 0.306298
vt 0.161979 0.305274
vt 0.130656 0.343626
vt 0.093502 0.343985
vt 0.013116 0.343938
vt 0.056119 0.344105
vt 0.162755 0.343105
vt 0.131119 0.381702
vt 0.093735 0.382025
vt 0.012831 0.382078
vt 0.056126 0.382167
vt 0.163450 0.381261
vt 0.131496 0.419987
vt 0.093960 0.420257
vt 0.012647 0.420495
vt 0.056189 0.420437
vt 0.163983 0.419675
vt 0.415764 0.764817
vt 0.403880 0.764677
vt 0.415768 0.776532
vt 0.403870 0.776419
vt 0.415775 0.788833
vt 0.403864 0.788771
vt 0.415782 0.801448
vt 0.403860 0.801452
vt 0.231666 0.849174
vt 0.402863 0.081849
vt 0.402765 0.059361
vt 0.402712 0.047551
vt 0.402815 0.070880
vt 0.216324 0.458045
vt 0.204586 0.458079
vt 0.204193 0.419144
vt 0.215876 0.418946
vt 0.187770 0.419385
vt 0.188113 0.458133
vt 0.203379 0.380449
vt 0.214948 0.380143
vt 0.187087 0.380823
vt 0.202311 0.342131
vt 0.213744 0.341766
vt 0.186187 0.342579
vt 0.201123 0.304242
vt 0.212414 0.303856
vt 0.185181 0.304715
vt 0.199927 0.266797
vt 0.211074 0.266425
vt 0.184168 0.267253
vt 0.198840 0.229787
vt 0.209849 0.229471
vt 0.183249 0.230173
vt 0.198020 0.193134
vt 0.208925 0.192940
vt 0.182535 0.193390
vt 0.197669 0.156565
vt 0.208620 0.156572
vt 0.182103 0.156671
vt 0.197597 0.117857
vt 0.208904 0.117015
vt 0.181672 0.118482
vt 0.061535 0.804580
vt 0.096641 0.804147
vt 0.096724 0.815029
vt 0.061736 0.815472
vt 0.131545 0.804111
vt 0.131468 0.815000
vt 0.096813 0.826402
vt 0.061947 0.826861
vt 0.131379 0.826357
vt 0.021154 0.805505
vt 0.131297 0.837920
vt 0.096913 0.838010
vt 0.062163 0.838498
vt 0.021872 0.827765
vt 0.022211 0.839363
vt 0.021515 0.816397
vt 0.199786 0.756936
vt 0.210536 0.756811
vt 0.184487 0.756995
vt 0.199768 0.720984
vt 0.210486 0.721084
vt 0.184534 0.720871
vt 0.200288 0.684888
vt 0.211138 0.685126
vt 0.184914 0.684625
vt 0.201115 0.648345
vt 0.212134 0.648648
vt 0.185534 0.648003
vt 0.202069 0.611276
vt 0.213261 0.611595
vt 0.186267 0.610910
vt 0.203022 0.573672
vt 0.214382 0.573971
vt 0.187001 0.573331
vt 0.203855 0.535553
vt 0.215377 0.535793
vt 0.187631 0.535287
vt 0.204432 0.496975
vt 0.216092 0.497106
vt 0.188042 0.496842
vt 0.207534 0.105284
vt 0.196903 0.106667
vt 0.195728 0.094888
vt 0.205533 0.093228
vt 0.181211 0.107707
vt 0.180507 0.096293
vt 0.194265 0.082989
vt 0.203426 0.081334
vt 0.179593 0.084565
vt 0.178564 0.072866
vt 0.188074 0.073034
vt 0.193405 0.076001
vt 0.187451 0.071985
vt 0.197226 0.078248
vt 0.202923 0.078558
vt 0.207617 0.078825
vt 0.155940 0.038760
vt 0.176857 0.038287
vt 0.207203 0.047336
vt 0.205117 0.037489
vt 0.214542 0.035042
vt 0.221203 0.055822
vt 0.217774 0.051014
vt 0.209709 0.047357
vt 0.222374 0.059829
vt 0.183970 0.064974
vt 0.189754 0.038290
vt 0.190399 0.052651
vt 0.186216 0.056417
vt 0.222534 0.057552
vt 0.219939 0.033244
vt 0.197115 0.038194
vt 0.197863 0.048267
vt 0.193158 0.049825
vt 0.201398 0.037983
vt 0.202569 0.046916
vt 0.201494 0.046773
vt 0.180441 0.873100
vt 0.160074 0.872888
vt 0.193381 0.859089
vt 0.192843 0.872931
vt 0.187166 0.847068
vt 0.189347 0.855423
vt 0.200531 0.863360
vt 0.199843 0.872964
vt 0.196024 0.861840
vt 0.413677 0.012656
vt 0.415836 0.012647
vt 0.203971 0.864826
vt 0.204950 0.864680
vt 0.203870 0.873157
vt 0.056603 0.039123
vt 0.091774 0.039222
vt 0.224097 0.853749
vt 0.223580 0.846191
vt 0.221644 0.877352
vt 0.212440 0.874685
vt 0.215654 0.862240
vt 0.219450 0.860392
vt 0.126445 0.039119
vt 0.246400 0.886462
vt 0.271891 0.896989
vt 0.062830 0.874062
vt 0.023009 0.874954
vt 0.245232 0.023648
vt 0.271456 0.012647
vt 0.097313 0.873390
vt 0.131259 0.872954
vt 0.211982 0.864271
vt 0.223617 0.845096
vt 0.553441 0.226626
vt 0.550605 0.226477
vt 0.551309 0.215025
vt 0.418240 0.800432
vt 0.418148 0.838894
vt 0.415827 0.838897
vt 0.015818 0.075179
vt 0.016015 0.038902
vt 0.418239 0.764225
vt 0.418234 0.775764
vt 0.418234 0.787927
vt 0.418293 0.753530
vt 0.417704 0.379822
vt 0.417832 0.416278
vt 0.417581 0.343558
vt 0.417459 0.307458
vt 0.417333 0.271495
vt 0.417194 0.235644
vt 0.417037 0.199881
vt 0.416849 0.164181
vt 0.416637 0.128588
vt 0.418348 0.714782
vt 0.418382 0.676983
vt 0.418382 0.639242
vt 0.418342 0.601642
vt 0.418273 0.564200
vt 0.418182 0.526929
vt 0.418076 0.489844
vt 0.417958 0.452957
vt 0.015684 0.086999
vt 0.015532 0.098577
vt 0.015368 0.109663
vt 0.741791 0.014815
vt 0.746301 0.017786
vt 0.749121 0.022921
vt 0.750569 0.031892
vt 0.751103 0.046607
vt 0.751179 0.068974
vt 0.751179 0.099806
vt 0.751179 0.135531
vt 0.751179 0.171479
vt 0.751179 0.212797
vt 0.751179 0.215025
vt 0.749047 0.226776
vt 0.748524 0.242467
vt 0.747106 0.252532
vt 0.735944 0.257706
vt 0.729568 0.259409
vt 0.723191 0.259409
vt 0.579297 0.259409
vt 0.572920 0.259409
vt 0.566543 0.257706
vt 0.555382 0.252532
vt 0.553964 0.242467
vt 0.551309 0.212797
vt 0.551309 0.171479
vt 0.551309 0.135531
vt 0.551309 0.099806
vt 0.551309 0.068974
vt 0.551385 0.046607
vt 0.551918 0.031892
vt 0.553367 0.022921
vt 0.556187 0.017786
vt 0.567769 0.013607
vt 0.581382 0.012647
vt 0.615081 0.012647
vt 0.651244 0.012647
vt 0.687407 0.012647
vt 0.721106 0.012647
vt 0.728812 0.012728
vt 0.403877 0.838895
vt 0.751883 0.226477
vt 0.402558 0.012713
vt 0.443677 0.014706
vt 0.447352 0.013903
vt 0.451464 0.050822
vt 0.447764 0.051194
vt 0.516179 0.420116
vt 0.512166 0.457146
vt 0.500818 0.455916
vt 0.504867 0.418997
vt 0.519460 0.383094
vt 0.508147 0.382201
vt 0.522008 0.346061
vt 0.510693 0.345392
vt 0.523831 0.309020
vt 0.512513 0.308573
vt 0.524929 0.271973
vt 0.513609 0.271747
vt 0.525310 0.234922
vt 0.513990 0.234916
vt 0.524969 0.197869
vt 0.513649 0.198085
vt 0.523902 0.160817
vt 0.512582 0.161256
vt 0.522100 0.123768
vt 0.510782 0.124434
vt 0.519550 0.086725
vt 0.508235 0.087622
vt 0.516241 0.049690
vt 0.504926 0.050822
vt 0.512167 0.012647
vt 0.500817 0.013902
vt 0.462717 0.420118
vt 0.458700 0.457146
vt 0.447353 0.455915
vt 0.451405 0.418999
vt 0.465998 0.383097
vt 0.454686 0.382204
vt 0.468547 0.346065
vt 0.457231 0.345396
vt 0.470367 0.309024
vt 0.459048 0.308578
vt 0.471465 0.271976
vt 0.460145 0.271750
vt 0.471846 0.234924
vt 0.460526 0.234919
vt 0.471502 0.197871
vt 0.460181 0.198087
vt 0.470435 0.160817
vt 0.459115 0.161256
vt 0.468634 0.123767
vt 0.457315 0.124433
vt 0.466087 0.086723
vt 0.454772 0.087620
vt 0.462779 0.049690
vt 0.458702 0.012647
vt 0.451060 0.087915
vt 0.453602 0.124654
vt 0.455401 0.161403
vt 0.456467 0.198158
vt 0.456811 0.234917
vt 0.456430 0.271675
vt 0.455334 0.308429
vt 0.453518 0.345176
vt 0.450974 0.381913
vt 0.447706 0.418631
vt 0.443677 0.455118
vt 0.501226 0.051197
vt 0.497141 0.014705
vt 0.504523 0.087915
vt 0.507069 0.124653
vt 0.508868 0.161402
vt 0.509934 0.198157
vt 0.510275 0.234916
vt 0.509895 0.271672
vt 0.508799 0.308426
vt 0.506979 0.345173
vt 0.504436 0.381909
vt 0.501167 0.418627
vt 0.497141 0.455119
vt 0.618082 0.183103
vt 0.602151 0.158198
vt 0.604226 0.156987
vt 0.600181 0.159574
vt 0.598329 0.161106
vt 0.596608 0.162783
vt 0.595029 0.164593
vt 0.593602 0.166527
vt 0.615681 0.153636
vt 0.618082 0.153538
vt 0.613296 0.153928
vt 0.610943 0.154413
vt 0.608636 0.155088
vt 0.606393 0.155948
vt 0.618082 0.214928
vt 0.602151 0.190024
vt 0.604226 0.188812
vt 0.600181 0.191400
vt 0.598329 0.192931
vt 0.596608 0.194608
vt 0.595029 0.196419
vt 0.593602 0.198352
vt 0.615681 0.185461
vt 0.618082 0.185364
vt 0.613296 0.185754
vt 0.610943 0.186239
vt 0.608636 0.186913
vt 0.606393 0.187773
vt 0.680435 0.148373
vt 0.692124 0.121218
vt 0.694291 0.122257
vt 0.689880 0.120358
vt 0.687574 0.119684
vt 0.685221 0.119199
vt 0.682836 0.118907
vt 0.680435 0.118809
vt 0.703488 0.129864
vt 0.704915 0.131797
vt 0.701909 0.128053
vt 0.700188 0.126376
vt 0.698336 0.124845
vt 0.696366 0.123469
vt 0.593602 0.246753
vt 0.605291 0.219598
vt 0.607458 0.220637
vt 0.603048 0.218739
vt 0.600741 0.218064
vt 0.598388 0.217579
vt 0.596003 0.217287
vt 0.593602 0.217189
vt 0.616655 0.228244
vt 0.618082 0.230178
vt 0.615076 0.226433
vt 0.613355 0.224756
vt 0.611503 0.223225
vt 0.609533 0.221849
vt 0.653693 0.243849
vt 0.665383 0.216694
vt 0.667549 0.217733
vt 0.663139 0.215835
vt 0.660833 0.215160
vt 0.658479 0.214675
vt 0.656094 0.214383
vt 0.653693 0.214285
vt 0.676746 0.225340
vt 0.678174 0.227273
vt 0.675167 0.223529
vt 0.673446 0.221852
vt 0.671595 0.220321
vt 0.669625 0.218945
vt 0.626952 0.180198
vt 0.638641 0.153043
vt 0.640808 0.154083
vt 0.636397 0.152184
vt 0.634091 0.151509
vt 0.631738 0.151024
vt 0.629353 0.150732
vt 0.626952 0.150634
vt 0.650005 0.161689
vt 0.651432 0.163623
vt 0.648426 0.159878
vt 0.646705 0.158202
vt 0.644853 0.156670
vt 0.642883 0.155294
vt 0.680435 0.180198
vt 0.692124 0.153043
vt 0.694291 0.154083
vt 0.689880 0.152184
vt 0.687574 0.151509
vt 0.685221 0.151024
vt 0.682836 0.150732
vt 0.680435 0.150634
vt 0.703488 0.161689
vt 0.704915 0.163623
vt 0.701909 0.159878
vt 0.700188 0.158202
vt 0.698336 0.156670
vt 0.696366 0.155294
vt 0.653693 0.212024
vt 0.665383 0.184869
vt 0.667549 0.185908
vt 0.663139 0.184009
vt 0.660833 0.183335
vt 0.658479 0.182850
vt 0.656094 0.182557
vt 0.653693 0.182460
vt 0.676746 0.193515
vt 0.678174 0.195448
vt 0.675167 0.191704
vt 0.673446 0.190027
vt 0.671595 0.188495
vt 0.669625 0.187119
vt 0.653693 0.148373
vt 0.667549 0.122257
vt 0.669625 0.123469
vt 0.671595 0.124845
vt 0.673446 0.126376
vt 0.675167 0.128053
vt 0.676746 0.129864
vt 0.678174 0.131797
vt 0.653693 0.118809
vt 0.656094 0.118907
vt 0.658479 0.119199
vt 0.660833 0.119684
vt 0.663139 0.120358
vt 0.665383 0.121218
vt 0.651432 0.243849
vt 0.637576 0.217733
vt 0.639742 0.216694
vt 0.641986 0.215835
vt 0.644293 0.215160
vt 0.646646 0.214675
vt 0.649031 0.214383
vt 0.651432 0.214285
vt 0.626952 0.227273
vt 0.628379 0.225340
vt 0.629958 0.223529
vt 0.631679 0.221852
vt 0.633531 0.220321
vt 0.635501 0.218945
vt 0.651432 0.212024
vt 0.637576 0.185908
vt 0.639742 0.184869
vt 0.641986 0.184009
vt 0.644293 0.183335
vt 0.646646 0.182850
vt 0.649031 0.182557
vt 0.651432 0.182460
vt 0.626952 0.195448
vt 0.628379 0.193515
vt 0.629958 0.191704
vt 0.631679 0.190027
vt 0.633531 0.188495
vt 0.635501 0.187119
vt 0.680435 0.243849
vt 0.694291 0.217733
vt 0.696366 0.218945
vt 0.698336 0.220321
vt 0.700188 0.221852
vt 0.701909 0.223529
vt 0.703488 0.225340
vt 0.704915 0.227273
vt 0.680435 0.214285
vt 0.682836 0.214383
vt 0.685221 0.214675
vt 0.687574 0.215160
vt 0.689880 0.215835
vt 0.692124 0.216694
vt 0.653693 0.180198
vt 0.667549 0.154083
vt 0.669625 0.155294
vt 0.671595 0.156670
vt 0.673446 0.158202
vt 0.675167 0.159878
vt 0.676746 0.161689
vt 0.678174 0.163623
vt 0.653693 0.150634
vt 0.656094 0.150732
vt 0.658479 0.151024
vt 0.660833 0.151509
vt 0.663139 0.152184
vt 0.665383 0.153043
vt 0.680435 0.212024
vt 0.694291 0.185908
vt 0.696366 0.187119
vt 0.698336 0.188495
vt 0.700188 0.190027
vt 0.701909 0.191704
vt 0.703488 0.193515
vt 0.704915 0.195448
vt 0.680435 0.182460
vt 0.682836 0.182557
vt 0.685221 0.182850
vt 0.687574 0.183335
vt 0.689880 0.184009
vt 0.692124 0.184869
vt 0.626952 0.148373
vt 0.640808 0.122257
vt 0.642883 0.123469
vt 0.644853 0.124845
vt 0.646705 0.126376
vt 0.648426 0.128053
vt 0.650005 0.129864
vt 0.651432 0.131797
vt 0.626952 0.118809
vt 0.629353 0.118907
vt 0.631738 0.119199
vt 0.634091 0.119684
vt 0.636397 0.120358
vt 0.638641 0.121218
vt 0.593602 0.118809
vt 0.597054 0.118993
vt 0.593602 0.151277
vt 0.612969 0.125217
vt 0.615630 0.127424
vt 0.600467 0.119543
vt 0.603802 0.120453
vt 0.620175 0.132621
vt 0.622008 0.135552
vt 0.607021 0.121712
vt 0.623519 0.138661
vt 0.618041 0.129901
vt 0.610088 0.123306
vt 0.624691 0.141913
vt 0.352576 0.655757
vt 0.341157 0.655243
vt 0.342285 0.419354
vt 0.368049 0.419314
vt 0.832621 0.670875
vt 0.825280 0.688364
vt 0.783618 0.670875
vt 0.362610 0.236019
vt 0.338091 0.237315
vt 0.325354 0.017221
vt 0.335787 0.016561
vt 0.336964 0.851918
vt 0.325354 0.850981
vt 0.777178 0.012647
vt 0.966826 0.012647
vt 0.966826 0.250026
vt 0.777178 0.250026
vt 0.351366 0.855786
vt 0.340047 0.854849
vt 0.355485 0.656235
vt 0.366536 0.656724
vt 0.371554 0.235713
vt 0.365471 0.236050
vt 0.337773 0.013342
vt 0.347943 0.012647
vt 0.377263 0.418925
vt 0.370989 0.418992
vt 0.341347 0.243769
vt 0.345539 0.412614
vt 0.364563 0.412381
vt 0.359839 0.243009
vt 0.825280 0.482441
vt 0.832621 0.499930
vt 0.783618 0.499930
s 1
usemtl Firebox
f 236/1/1 50/2/1 49/3/2 96/4/2
f 237/5/3 51/6/3 50/2/1 236/1/1
f 238/7/4 52/8/4 51/6/3 237/5/3
f 239/9/5 53/10/5 52/8/4 238/7/4
f 240/11/6 54/12/6 53/10/5 239/9/5
f 241/13/7 55/14/7 54/12/6 240/11/6
f 242/15/8 56/16/8 55/14/7 241/13/7
f 243/17/9 57/18/10 56/16/8 242/15/8
f 244/19/11 58/20/12 57/18/10 243/17/9
f 434/21/13 198/22/14 199/23/15 433/24/16
f 433/24/16 199/23/15 200/25/17 432/26/18
f 431/27/19 434/21/13 251/28/20 40/29/21
f 439/30/22 253/31/23 432/26/18 461/32/24 462/33/25
f 358/34/26 359/35/27 361/36/28 360/37/29
f 349/38/30 350/39/30 353/40/31 352/41/31
f 350/39/30 351/42/30 354/43/31 353/40/31
f 352/41/31 353/40/31 356/44/32 355/45/32
f 353/40/31 354/43/31 357/46/32 356/44/32
f 83/47/33 306/48/34 349/38/30 346/49/35
f 306/48/34 305/50/34 350/39/30 349/38/30
f 305/50/34 304/51/34 351/42/30 350/39/30
f 498/52/36 58/20/37 201/53/38 516/54/39
f 516/54/39 201/53/38 202/55/40 522/56/41
f 522/56/41 202/55/40 203/57/42 519/58/43
f 519/58/43 203/57/42 68/59/44 499/60/45
f 356/44/32 357/46/32 337/61/46 338/62/46
f 355/45/32 356/44/32 338/62/46 339/63/46
f 348/64/47 355/45/32 339/63/46 94/65/48
f 347/66/49 352/41/31 355/45/32 348/64/47
f 346/49/35 349/38/30 352/41/31 347/66/49
f 360/37/29 361/36/28 363/67/50 362/68/51
f 231/69/52 359/35/27 358/34/26 232/70/53
f 35/71/54 232/70/53 358/34/26 254/72/55
f 464/73/56 277/74/57 362/68/51 363/67/50 463/75/58 440/76/59 441/77/56
f 231/69/52 34/78/60 245/79/61 359/35/27
f 359/35/27 245/79/61 246/80/62 361/36/28
f 361/36/28 246/80/62 247/81/63 363/67/50
f 463/75/58 363/67/50 247/81/63 465/82/64
f 256/83/65 362/68/51 277/74/57 69/84/66
f 255/85/67 360/37/29 362/68/51 256/83/65
f 254/72/55 358/34/26 360/37/29 255/85/67
f 258/86/68 60/87/69 59/88/70 257/89/71
f 259/90/72 61/91/72 60/87/69 258/86/68
f 260/92/73 62/93/73 61/91/72 259/90/72
f 261/94/74 63/95/74 62/93/73 260/92/73
f 262/96/75 64/97/75 63/95/74 261/94/74
f 263/98/76 65/99/76 64/97/75 262/96/75
f 264/100/77 66/101/77 65/99/76 263/98/76
f 265/102/78 67/103/78 66/101/77 264/100/77
f 96/4/2 49/3/2 67/103/78 265/102/78
f 333/104/79 332/105/79 234/106/80 233/107/80
f 497/108/79 500/109/80 235/110/80 331/111/79
f 332/105/79 331/111/79 235/110/80 234/106/80
f 233/107/80 93/112/80 92/113/79 333/104/79
f 167/114/79 166/115/79 169/116/80 168/117/80
f 48/118/79 25/119/80 170/120/80 165/121/79
f 166/115/79 165/121/79 170/120/80 169/116/80
f 168/117/80 1/122/80 24/123/79 167/114/79
f 164/124/81 163/125/81 166/115/79 167/114/79
f 47/126/81 48/118/79 165/121/79 162/127/81
f 163/125/81 162/127/81 165/121/79 166/115/79
f 167/114/79 24/123/79 23/128/81 164/124/81
f 161/129/82 160/130/82 163/125/81 164/124/81
f 46/131/82 47/126/81 162/127/81 159/132/82
f 160/130/82 159/132/82 162/127/81 163/125/81
f 164/124/81 23/128/81 22/133/82 161/129/82
f 158/134/83 157/135/83 160/130/82 161/129/82
f 45/136/83 46/131/82 159/132/82 156/137/83
f 157/135/83 156/137/83 159/132/82 160/130/82
f 161/129/82 22/133/82 21/138/83 158/134/83
f 155/139/84 154/140/84 157/135/83 158/134/83
f 44/141/84 45/136/83 156/137/83 153/142/84
f 154/140/84 153/142/84 156/137/83 157/135/83
f 158/134/83 21/138/83 20/143/84 155/139/84
f 152/144/85 151/145/85 154/140/84 155/139/84
f 43/146/85 44/141/84 153/142/84 150/147/85
f 151/145/85 150/147/85 153/142/84 154/140/84
f 155/139/84 20/143/84 19/148/85 152/144/85
f 149/149/86 148/150/86 151/145/85 152/144/85
f 42/151/86 43/146/85 150/147/85 147/152/86
f 148/150/86 147/152/86 150/147/85 151/145/85
f 152/144/85 19/148/85 18/153/86 149/149/86
f 146/154/87 145/155/88 148/150/86 149/149/86
f 41/156/89 42/151/86 147/152/86 144/157/90
f 145/155/88 144/157/90 147/152/86 148/150/86
f 149/149/86 18/153/86 17/158/91 146/154/87
f 143/159/92 142/160/93 145/155/88 146/154/87
f 40/29/21 41/156/89 144/157/90 141/161/94
f 142/160/93 141/161/94 144/157/90 145/155/88
f 146/154/87 17/158/91 16/162/95 143/159/92
f 435/163/96 436/164/97 142/160/93 143/159/92
f 431/27/19 40/29/21 141/161/94 437/165/98
f 436/164/97 437/165/98 141/161/94 142/160/93
f 435/163/96 430/166/99 15/167/100 140/168/101
f 137/169/102 136/170/103 139/171/104 140/168/101
f 38/172/105 39/173/106 138/174/107 135/175/108
f 136/170/103 135/175/108 138/174/107 139/171/104
f 140/168/101 15/167/100 14/176/109 137/169/102
f 134/177/110 133/178/111 136/170/103 137/169/102
f 37/179/112 38/172/105 135/175/108 132/180/113
f 133/178/111 132/180/113 135/175/108 136/170/103
f 137/169/102 14/176/109 13/181/114 134/177/110
f 131/182/115 130/183/116 133/184/111 134/185/110
f 36/186/117 37/187/112 132/188/113 129/189/118
f 130/183/116 129/189/118 132/188/113 133/184/111
f 134/185/110 13/190/114 12/191/119 131/182/115
f 128/192/120 127/193/121 130/183/116 131/182/115
f 365/194/122 368/195/123 367/196/124 364/197/125
f 35/71/54 36/186/117 129/189/118 126/198/126
f 127/193/121 126/198/126 129/189/118 130/183/116
f 131/182/115 12/191/119 11/199/127 128/192/120
f 366/200/128 369/201/129 368/195/123 365/194/122
f 231/69/52 232/70/53 369/201/129 366/200/128
f 10/202/130 123/203/131 364/197/125 124/204/132
f 123/203/131 122/205/133 365/194/122 364/197/125
f 122/205/133 121/206/134 366/200/128 365/194/122
f 121/206/134 34/78/60 231/69/52 366/200/128
f 124/204/132 364/197/125 367/196/124 125/207/135
f 369/201/129 232/70/53 35/71/54 126/198/126
f 368/195/123 369/201/129 126/198/126 127/193/121
f 367/196/124 368/195/123 127/193/121 128/192/120
f 125/207/135 367/196/124 128/192/120 11/199/127
f 120/208/136 119/209/137 122/205/133 123/203/131
f 33/210/138 34/78/60 121/206/134 118/211/139
f 119/209/137 118/211/139 121/206/134 122/205/133
f 123/203/131 10/202/130 9/212/140 120/208/136
f 117/213/141 116/214/141 119/209/137 120/208/136
f 32/215/141 33/210/138 118/211/139 115/216/141
f 116/214/141 115/216/141 118/211/139 119/209/137
f 120/208/136 9/212/140 8/217/141 117/213/141
f 114/218/142 113/219/142 116/214/141 117/213/141
f 31/220/142 32/215/141 115/216/141 112/221/142
f 113/219/142 112/221/142 115/216/141 116/214/141
f 117/213/141 8/217/141 7/222/142 114/218/142
f 111/223/143 110/224/143 113/219/142 114/218/142
f 30/225/143 31/220/142 112/221/142 109/226/143
f 110/224/143 109/226/143 112/221/142 113/219/142
f 114/218/142 7/222/142 6/227/143 111/223/143
f 108/228/144 107/229/144 110/224/143 111/223/143
f 29/230/144 30/225/143 109/226/143 106/231/144
f 107/229/144 106/231/144 109/226/143 110/224/143
f 111/223/143 6/227/143 5/232/144 108/228/144
f 105/233/145 104/234/145 107/229/144 108/228/144
f 28/235/145 29/230/144 106/231/144 103/236/145
f 104/234/145 103/236/145 106/231/144 107/229/144
f 108/228/144 5/232/144 4/237/145 105/233/145
f 102/238/146 101/239/146 104/234/145 105/233/145
f 27/240/146 28/235/145 103/236/145 100/241/146
f 101/239/146 100/241/146 103/236/145 104/234/145
f 105/233/145 4/237/145 3/242/146 102/238/146
f 99/243/147 98/244/147 101/239/146 102/238/146
f 26/245/147 27/240/146 100/241/146 97/246/147
f 98/244/147 97/246/147 100/241/146 101/239/146
f 102/238/146 3/242/146 2/247/147 99/243/147
f 168/117/80 169/116/80 98/244/147 99/243/147
f 25/119/80 26/245/147 97/246/147 170/120/80
f 169/116/80 170/120/80 97/246/147 98/244/147
f 99/243/147 2/247/147 1/122/80 168/117/80
f 330/248/81 329/249/81 332/105/79 333/104/79
f 521/250/81 497/108/79 331/111/79 328/251/81
f 329/249/81 328/251/81 331/111/79 332/105/79
f 333/104/79 92/113/79 91/252/81 330/248/81
f 327/253/82 326/254/82 329/249/81 330/248/81
f 515/255/82 521/250/81 328/251/81 325/256/82
f 326/254/82 325/256/82 328/251/81 329/249/81
f 330/248/81 91/252/81 90/257/82 327/253/82
f 324/258/83 323/259/83 326/254/82 327/253/82
f 511/260/83 515/255/82 325/256/82 322/261/83
f 323/259/83 322/261/83 325/256/82 326/254/82
f 327/253/82 90/257/82 89/262/83 324/258/83
f 321/263/84 320/264/84 323/259/83 324/258/83
f 513/265/84 511/260/83 322/261/83 319/266/84
f 320/264/84 319/266/84 322/261/83 323/259/83
f 324/258/83 89/262/83 88/267/84 321/263/84
f 318/268/85 317/269/85 320/264/84 321/263/84
f 508/270/85 513/265/84 319/266/84 316/271/85
f 317/269/85 316/271/85 319/266/84 320/264/84
f 321/263/84 88/267/84 87/272/85 318/268/85
f 315/273/86 314/274/86 317/269/85 318/268/85
f 502/275/86 508/270/85 316/271/85 313/276/86
f 314/274/86 313/276/86 316/271/85 317/269/85
f 318/268/85 87/272/85 86/277/86 315/273/86
f 312/278/148 311/279/148 314/274/86 315/273/86
f 501/280/148 502/275/86 313/276/86 310/281/148
f 311/279/148 310/281/148 313/276/86 314/274/86
f 315/273/86 86/277/86 85/282/149 312/278/148
f 309/283/150 308/284/150 311/279/148 312/278/148
f 523/285/150 501/280/148 310/281/148 307/286/150
f 308/284/150 307/286/150 310/281/148 311/279/148
f 312/278/148 85/282/149 84/287/151 309/283/150
f 370/288/152 371/289/153 374/290/154 373/291/155
f 371/289/153 372/292/156 375/293/157 374/290/154
f 373/291/155 374/290/154 377/294/158 376/295/159
f 374/290/154 375/293/157 378/296/160 377/294/158
f 84/287/151 204/297/161 370/288/152 343/298/162
f 204/297/161 205/299/163 371/289/153 370/288/152
f 205/299/163 206/300/164 372/292/156 371/289/153
f 206/300/164 40/29/21 251/28/20 372/292/156
f 372/292/156 251/28/20 252/301/165 375/293/157
f 375/293/157 252/301/165 253/31/23 378/296/160
f 442/302/166 466/303/167 378/296/160 253/31/23 439/30/22
f 443/304/168 467/305/169 377/294/158 378/296/160 466/303/167
f 468/306/170 276/307/171 376/295/159 377/294/158 467/305/169 444/308/172
f 345/309/173 376/295/159 276/307/171 95/310/174
f 344/311/175 373/291/155 376/295/159 345/309/173
f 343/298/162 370/288/152 373/291/155 344/311/175
f 266/312/176 254/72/55 255/85/67 267/313/177
f 267/313/177 255/85/67 256/83/65 268/314/178
f 35/71/54 254/72/55 266/312/176 36/186/117
f 256/83/65 69/84/66 70/315/179 268/314/178
f 272/316/180 266/312/176 267/313/177 273/317/181
f 273/317/181 267/313/177 268/314/178 274/318/182
f 36/186/117 266/312/176 272/316/180 37/187/112
f 268/314/178 70/315/179 71/319/183 274/318/182
f 271/320/184 272/321/180 273/322/181 270/323/185
f 270/323/185 273/322/181 274/324/182 269/325/186
f 37/179/112 272/321/180 271/320/184 38/172/105
f 274/324/182 71/326/183 72/327/187 269/325/186
f 303/328/188 302/329/188 305/50/34 306/48/34
f 495/330/188 498/331/34 304/51/34 301/332/188
f 302/329/188 301/332/188 304/51/34 305/50/34
f 306/48/34 83/47/33 82/333/189 303/328/188
f 300/334/141 299/335/141 302/329/188 303/328/188
f 496/336/141 495/330/188 301/332/188 298/337/141
f 299/335/141 298/337/141 301/332/188 302/329/188
f 303/328/188 82/333/189 81/338/141 300/334/141
f 297/339/142 296/340/142 299/335/141 300/334/141
f 520/341/142 496/336/141 298/337/141 295/342/142
f 296/340/142 295/342/142 298/337/141 299/335/141
f 300/334/141 81/338/141 80/343/142 297/339/142
f 294/344/143 293/345/143 296/340/142 297/339/142
f 514/346/143 520/341/142 295/342/142 292/347/143
f 293/345/143 292/347/143 295/342/142 296/340/142
f 297/339/142 80/343/142 79/348/143 294/344/143
f 291/349/144 290/350/144 293/345/143 294/344/143
f 510/351/144 514/346/143 292/347/143 289/352/144
f 290/350/144 289/352/144 292/347/143 293/345/143
f 294/344/143 79/348/143 78/353/144 291/349/144
f 288/354/145 287/355/145 290/350/144 291/349/144
f 512/356/145 510/351/144 289/352/144 286/357/145
f 287/355/145 286/357/145 289/352/144 290/350/144
f 291/349/144 78/353/144 77/358/145 288/354/145
f 285/359/146 284/360/146 287/355/145 288/354/145
f 509/361/146 512/356/145 286/357/145 283/362/146
f 284/360/146 283/362/146 286/357/145 287/355/145
f 288/354/145 77/358/145 76/363/146 285/359/146
f 282/364/147 281/365/147 284/360/146 285/359/146
f 506/366/147 509/361/146 283/362/146 280/367/147
f 281/365/147 280/367/147 283/362/146 284/360/146
f 285/359/146 76/363/146 75/368/147 282/364/147
f 233/107/80 234/106/80 281/365/147 282/364/147
f 500/109/80 506/366/147 280/367/147 235/110/80
f 234/106/80 235/110/80 280/367/147 281/365/147
f 282/364/147 75/368/147 93/112/80 233/107/80
f 257/89/71 59/88/70 250/369/190 379/370/191
f 379/370/191 250/369/190 249/371/192 380/372/193
f 380/372/193 249/371/192 248/373/194 381/374/195
f 381/374/195 248/373/194 74/375/196 279/376/197
f 198/22/14 271/320/184 270/323/185 199/23/15
f 199/23/15 270/323/185 269/325/186 200/25/17
f 38/172/105 271/320/184 198/22/14 39/173/106
f 269/325/186 72/327/187 73/377/198 200/25/17
f 58/20/12 244/19/11 382/378/199 201/53/200
f 203/57/201 384/379/202 278/380/203 68/59/204
f 202/55/205 383/381/206 384/379/202 203/57/201
f 201/53/200 382/378/199 383/381/206 202/55/205
f 334/382/80 335/383/80 172/384/147 173/385/147
f 93/112/80 75/368/147 171/386/147 336/387/80
f 335/383/80 336/387/80 171/386/147 172/384/147
f 173/385/147 26/245/147 25/119/80 334/382/80
f 173/385/147 172/384/147 175/388/146 176/389/146
f 75/368/147 76/363/146 174/390/146 171/386/147
f 172/384/147 171/386/147 174/390/146 175/388/146
f 176/389/146 27/240/146 26/245/147 173/385/147
f 176/389/146 175/388/146 178/391/145 179/392/145
f 76/363/146 77/358/145 177/393/145 174/390/146
f 175/388/146 174/390/146 177/393/145 178/391/145
f 179/392/145 28/235/145 27/240/146 176/389/146
f 179/392/145 178/391/145 181/394/144 182/395/144
f 77/358/145 78/353/144 180/396/144 177/393/145
f 178/391/145 177/393/145 180/396/144 181/394/144
f 182/395/144 29/230/144 28/235/145 179/392/145
f 182/395/144 181/394/144 184/397/143 185/398/143
f 78/353/144 79/348/143 183/399/143 180/396/144
f 181/394/144 180/396/144 183/399/143 184/397/143
f 185/398/143 30/225/143 29/230/144 182/395/144
f 185/398/143 184/397/143 187/400/142 188/401/142
f 79/348/143 80/343/142 186/402/142 183/399/143
f 184/397/143 183/399/143 186/402/142 187/400/142
f 188/401/142 31/220/142 30/225/143 185/398/143
f 188/401/142 187/400/142 190/403/141 191/404/141
f 80/343/142 81/338/141 189/405/141 186/402/142
f 187/400/142 186/402/142 189/405/141 190/403/141
f 191/404/141 32/215/141 31/220/142 188/401/142
f 191/404/141 190/403/141 193/406/207 194/407/208
f 81/338/141 82/333/189 192/408/209 189/405/141
f 190/403/141 189/405/141 192/408/209 193/406/207
f 194/407/208 33/210/138 32/215/141 191/404/141
f 194/407/208 193/406/207 196/409/210 197/410/211
f 82/333/189 83/47/33 195/411/212 192/408/209
f 193/406/207 192/408/209 195/411/212 196/409/210
f 197/410/211 34/78/60 33/210/138 194/407/208
f 385/412/213 386/413/213 389/414/214 388/415/214
f 386/413/213 387/416/213 390/417/214 389/414/214
f 388/415/214 389/414/214 392/418/215 391/419/215
f 389/414/214 390/417/214 393/420/215 392/418/215
f 523/285/150 307/286/150 385/412/213 507/421/213
f 307/286/150 308/284/150 386/413/213 385/412/213
f 308/284/150 309/283/150 387/416/213 386/413/213
f 309/283/150 84/287/151 343/298/162 387/416/213
f 387/416/213 343/298/162 344/311/175 390/417/214
f 390/417/214 344/311/175 345/309/173 393/420/215
f 393/420/215 345/309/173 95/310/174 342/422/216
f 392/418/215 393/420/215 342/422/216 341/423/216
f 391/419/215 392/418/215 341/423/216 340/424/216
f 504/425/215 391/419/215 340/424/216 517/426/216
f 503/427/214 388/415/214 391/419/215 504/425/215
f 507/421/213 385/412/213 388/415/214 503/427/214
f 206/300/164 205/299/163 208/428/217 209/429/218
f 84/287/151 85/282/149 207/430/219 204/297/161
f 205/299/163 204/297/161 207/430/219 208/428/217
f 209/429/218 41/156/89 40/29/21 206/300/164
f 209/429/218 208/428/217 211/431/86 212/432/86
f 85/282/149 86/277/86 210/433/86 207/430/219
f 208/428/217 207/430/219 210/433/86 211/431/86
f 212/432/86 42/151/86 41/156/89 209/429/218
f 212/432/86 211/431/86 214/434/85 215/435/85
f 86/277/86 87/272/85 213/436/85 210/433/86
f 211/431/86 210/433/86 213/436/85 214/434/85
f 215/435/85 43/146/85 42/151/86 212/432/86
f 215/435/85 214/434/85 217/437/84 218/438/84
f 87/272/85 88/267/84 216/439/84 213/436/85
f 214/434/85 213/436/85 216/439/84 217/437/84
f 218/438/84 44/141/84 43/146/85 215/435/85
f 218/438/84 217/437/84 220/440/83 221/441/83
f 88/267/84 89/262/83 219/442/83 216/439/84
f 217/437/84 216/439/84 219/442/83 220/440/83
f 221/441/83 45/136/83 44/141/84 218/438/84
f 221/441/83 220/440/83 223/443/82 224/444/82
f 89/262/83 90/257/82 222/445/82 219/442/83
f 220/440/83 219/442/83 222/445/82 223/443/82
f 224/444/82 46/131/82 45/136/83 221/441/83
f 224/444/82 223/443/82 226/446/81 227/447/81
f 90/257/82 91/252/81 225/448/81 222/445/82
f 223/443/82 222/445/82 225/448/81 226/446/81
f 227/447/81 47/126/81 46/131/82 224/444/82
f 227/447/81 226/446/81 229/449/79 230/450/79
f 91/252/81 92/113/79 228/451/79 225/448/81
f 226/446/81 225/448/81 228/451/79 229/449/79
f 230/450/79 48/118/79 47/126/81 227/447/81
f 230/450/79 229/449/79 335/383/80 334/382/80
f 92/113/79 93/112/80 336/387/80 228/451/79
f 229/449/79 228/451/79 336/387/80 335/383/80
f 334/382/80 25/119/80 48/118/79 230/450/79
f 394/452/220 395/453/221 398/454/222 397/455/223
f 395/453/221 396/456/224 399/457/225 398/454/222
f 397/455/223 398/454/222 401/458/226 400/459/227
f 398/454/222 399/457/225 402/460/228 401/458/226
f 34/78/60 197/410/211 394/452/220 245/79/61
f 197/410/211 196/409/210 395/453/221 394/452/220
f 196/409/210 195/411/212 396/456/224 395/453/221
f 195/411/212 83/47/33 346/49/35 396/456/224
f 396/456/224 346/49/35 347/66/49 399/457/225
f 399/457/225 347/66/49 348/64/47 402/460/228
f 402/460/228 348/64/47 94/65/48 275/461/229
f 469/462/230 445/463/230 401/458/226 402/460/228 275/461/229 470/464/230
f 446/465/231 447/466/232 400/459/227 401/458/226 445/463/230
f 448/467/233 465/82/64 247/81/63 400/459/227 447/466/232
f 246/80/62 397/455/223 400/459/227 247/81/63
f 245/79/61 394/452/220 397/455/223 246/80/62
f 275/461/229 94/65/48 412/468/234 414/469/235
f 449/470/236 420/471/236 421/472/237 472/473/56 451/474/56 471/475/238
f 277/74/57 464/73/56 450/476/56
f 473/477/229 470/464/230 275/461/229 414/469/235 415/478/239 475/479/239 474/480/240
f 452/481/241 472/473/56 421/472/237 405/482/242 69/84/66 277/74/57 450/476/56
f 475/479/239 415/478/239 416/483/243 477/484/243 476/485/239
f 477/484/243 416/483/243 404/486/244 478/487/244 453/488/245
f 95/310/174 276/307/171 417/489/246 413/490/247
f 454/491/248 418/492/248 417/489/246 276/307/171 468/306/170 455/493/171 479/494/169
f 456/495/249 419/496/249 418/492/248 454/491/248 480/497/248
f 499/60/45 68/59/44 403/498/250 505/499/250
f 481/500/251 482/501/252 411/502/252 419/496/249 456/495/249
f 338/62/46 337/61/46 424/503/142 425/504/142
f 483/505/253 457/506/254 73/377/198 409/507/255 438/508/256 484/509/256 458/510/257
f 339/63/46 338/62/46 425/504/142 426/511/142
f 73/377/198 72/327/187 408/512/258 409/507/255
f 94/65/48 339/63/46 426/511/142 412/468/234
f 72/327/187 71/326/183 407/513/258 408/512/258
f 517/426/216 340/424/216 427/514/85 518/515/85
f 71/319/183 70/315/179 406/516/258 407/517/258
f 340/424/216 341/423/216 428/518/85 427/514/85
f 70/315/179 69/84/66 405/482/242 406/516/258
f 341/423/216 342/422/216 429/519/85 428/518/85
f 404/486/244 420/471/236 449/470/236 478/487/244
f 342/422/216 95/310/174 413/490/247 429/519/85
f 459/520/259 484/509/256 438/508/256 411/502/252 482/501/252
f 143/159/92 16/162/95 430/166/99 435/163/96
f 139/171/104 138/174/107 437/165/98 436/164/97
f 39/173/106 431/27/19 437/165/98 138/174/107
f 140/168/101 139/171/104 436/164/97 435/163/96
f 461/32/24 432/26/18 200/25/17 73/377/198 457/506/254 460/521/260
f 39/173/106 198/22/14 434/21/13 431/27/19
f 252/301/165 433/24/16 432/26/18 253/31/23
f 251/28/20 434/21/13 433/24/16 252/301/165
f 423/522/261 524/523/261 410/524/262
f 74/375/263 517/525/264 518/526/265 410/527/265
f 337/61/46 499/528/46 505/529/142 424/503/142
f 250/369/266 507/530/267 503/531/268 249/371/269
f 249/371/269 503/531/268 504/532/270 248/373/271
f 248/373/271 504/532/270 517/525/264 74/375/263
f 59/88/272 523/533/273 507/530/267 250/369/266
f 49/3/274 50/2/275 506/534/276 500/535/274
f 50/2/275 51/6/277 509/536/278 506/534/276
f 51/6/277 52/8/279 512/537/280 509/536/278
f 52/8/279 53/10/281 510/538/282 512/537/280
f 53/10/281 54/12/283 514/539/284 510/538/282
f 54/12/283 55/14/285 520/540/286 514/539/284
f 55/14/285 56/16/287 496/541/288 520/540/286
f 56/16/287 57/18/289 495/542/290 496/541/288
f 57/18/289 58/20/37 498/52/36 495/542/290
f 59/88/272 60/87/291 501/543/292 523/533/273
f 60/87/291 61/91/293 502/544/294 501/543/292
f 61/91/293 62/93/295 508/545/296 502/544/294
f 62/93/295 63/95/297 513/546/298 508/545/296
f 63/95/297 64/97/299 511/547/300 513/546/298
f 64/97/299 65/99/301 515/548/302 511/547/300
f 65/99/301 66/101/303 521/549/304 515/548/302
f 66/101/303 67/103/305 497/550/306 521/549/304
f 67/103/305 49/3/274 500/535/274 497/550/306
f 357/46/32 519/551/32 499/528/46 337/61/46
f 354/43/31 522/552/31 519/551/32 357/46/32
f 351/42/30 516/553/30 522/552/31 354/43/31
f 304/51/34 498/331/34 516/553/30 351/42/30
f 420/554/261 404/555/261 416/556/261 415/557/261 414/558/261 412/559/261 426/560/261 425/561/261 424/562/261 505/563/261 403/564/261 422/565/307 494/566/308 486/567/261 485/568/261 487/569/261 489/570/261 488/571/261 492/572/261 490/573/261 491/574/261 493/575/261 423/522/261 410/524/309 518/576/261 427/577/261 428/578/261 429/579/261 413/580/261 417/581/261 418/582/261 419/583/261 411/584/261 438/585/261 409/586/261 408/587/261 407/588/261 406/589/261 405/590/261 421/591/261
f 524/592/310 279/376/197 74/375/196 410/527/311
f 422/565/312 403/564/261 525/593/261
f 403/498/313 68/59/204 278/380/203 525/594/313
f 574/595/314 549/596/314 548/597/315 575/598/315
f 550/599/316 551/600/261 549/601/261 526/602/316
f 552/603/317 550/599/316 526/602/316 527/604/317
f 553/605/318 552/603/317 527/604/317 528/606/318
f 554/607/319 553/605/318 528/606/318 529/608/319
f 555/609/86 554/607/319 529/608/319 530/610/86
f 556/611/85 555/609/86 530/610/86 531/612/85
f 557/613/84 556/611/85 531/612/85 532/614/84
f 558/615/83 557/613/84 532/614/84 533/616/83
f 559/617/82 558/615/83 533/616/83 534/618/82
f 560/619/81 559/617/82 534/618/82 535/620/81
f 561/621/79 560/619/81 535/620/81 536/622/79
f 562/623/80 561/621/79 536/622/79 537/624/80
f 563/625/147 562/626/80 537/627/80 538/628/147
f 564/629/146 563/625/147 538/628/147 539/630/146
f 565/631/145 564/629/146 539/630/146 540/632/145
f 566/633/144 565/631/145 540/632/145 541/634/144
f 567/635/143 566/633/144 541/634/144 542/636/143
f 568/637/142 567/635/143 542/636/143 543/638/142
f 569/639/141 568/637/142 543/638/142 544/640/141
f 570/641/320 569/639/141 544/640/141 545/642/320
f 571/643/321 570/641/320 545/642/320 546/644/321
f 572/645/322 571/643/321 546/644/321 547/646/322
f 573/647/323 572/645/322 547/646/322 548/597/323
f 549/596/261 551/648/261 573/647/323 548/597/323
f 548/597/315 547/646/324 576/649/324 575/598/315
f 547/646/324 546/644/325 577/650/325 576/649/324
f 546/644/325 545/642/326 578/651/326 577/650/325
f 545/642/326 544/640/327 579/652/327 578/651/326
f 544/640/327 543/638/328 580/653/328 579/652/327
f 543/638/328 542/636/329 581/654/329 580/653/328
f 542/636/329 541/634/330 582/655/330 581/654/329
f 541/634/330 540/632/331 583/656/331 582/655/330
f 540/632/331 539/630/332 584/657/332 583/656/331
f 539/630/332 538/628/333 585/658/333 584/657/332
f 538/628/333 537/627/334 586/659/334 585/658/333
f 537/624/334 536/622/335 587/660/335 586/661/334
f 536/622/335 535/620/336 588/662/336 587/660/335
f 535/620/336 534/618/337 589/663/337 588/662/336
f 534/618/337 533/616/338 590/664/338 589/663/337
f 533/616/338 532/614/339 591/665/339 590/664/338
f 532/614/339 531/612/340 592/666/340 591/665/339
f 531/612/340 530/610/341 593/667/341 592/666/340
f 530/610/341 529/608/342 594/668/342 593/667/341
f 529/608/342 528/606/343 595/669/343 594/668/342
f 528/606/343 527/604/344 596/670/344 595/669/343
f 527/604/344 526/602/345 597/671/345 596/670/344
f 526/602/345 549/601/314 574/672/314 597/671/345
f 598/673/258 600/674/346 599/675/347
f 598/673/258 601/676/348 600/674/346
f 598/673/258 602/677/349 601/676/348
f 598/673/258 603/678/350 602/677/349
f 598/673/258 604/679/351 603/678/350
f 598/673/258 605/680/352 604/679/351
f 598/673/258 606/681/353 605/682/352
f 598/673/258 607/683/354 606/681/353
f 598/673/258 608/684/355 607/683/354
f 598/673/258 609/685/356 608/684/355
f 598/673/258 610/686/357 609/685/356
f 598/673/258 599/675/347 610/686/357
f 611/687/258 613/688/346 612/689/347
f 611/687/258 614/690/348 613/688/346
f 611/687/258 615/691/349 614/690/348
f 611/687/258 616/692/350 615/691/349
f 611/687/258 617/693/351 616/692/350
f 611/687/258 618/694/352 617/693/351
f 611/687/258 619/695/353 618/696/352
f 611/687/258 620/697/354 619/695/353
f 611/687/258 621/698/355 620/697/354
f 611/687/258 622/699/356 621/698/355
f 611/687/258 623/700/357 622/699/356
f 611/687/258 612/689/347 623/700/357
f 624/701/258 626/702/346 625/703/347
f 624/701/258 627/704/348 626/702/346
f 624/701/258 628/705/349 627/704/348
f 624/701/258 629/706/350 628/705/349
f 624/701/258 630/707/351 629/706/350
f 624/701/258 631/708/352 630/707/351
f 624/701/258 632/709/353 631/710/352
f 624/701/258 633/711/354 632/709/353
f 624/701/258 634/712/355 633/711/354
f 624/701/258 635/713/356 634/712/355
f 624/701/258 636/714/357 635/713/356
f 624/701/258 625/703/347 636/714/357
f 637/715/258 639/716/346 638/717/347
f 637/715/258 640/718/348 639/716/346
f 637/715/258 641/719/349 640/718/348
f 637/715/258 642/720/350 641/719/349
f 637/715/258 643/721/351 642/720/350
f 637/715/258 644/722/352 643/721/351
f 637/715/258 645/723/353 644/724/352
f 637/715/258 646/725/354 645/723/353
f 637/715/258 647/726/355 646/725/354
f 637/715/258 648/727/356 647/726/355
f 637/715/258 649/728/357 648/727/356
f 637/715/258 638/717/347 649/728/357
f 650/729/258 652/730/346 651/731/347
f 650/729/258 653/732/348 652/730/346
f 650/729/258 654/733/349 653/732/348
f 650/729/258 655/734/350 654/733/349
f 650/729/258 656/735/351 655/734/350
f 650/729/258 657/736/352 656/735/351
f 650/729/258 658/737/353 657/738/352
f 650/729/258 659/739/354 658/737/353
f 650/729/258 660/740/355 659/739/354
f 650/729/258 661/741/356 660/740/355
f 650/729/258 662/742/357 661/741/356
f 650/729/258 651/731/347 662/742/357
f 663/743/258 665/744/346 664/745/347
f 663/743/258 666/746/348 665/744/346
f 663/743/258 667/747/349 666/746/348
f 663/743/258 668/748/350 667/747/349
f 663/743/258 669/749/351 668/748/350
f 663/743/258 670/750/352 669/749/351
f 663/743/258 671/751/353 670/752/352
f 663/743/258 672/753/354 671/751/353
f 663/743/258 673/754/355 672/753/354
f 663/743/258 674/755/356 673/754/355
f 663/743/258 675/756/357 674/755/356
f 663/743/258 664/745/347 675/756/357
f 676/757/258 678/758/346 677/759/347
f 676/757/258 679/760/348 678/758/346
f 676/757/258 680/761/349 679/760/348
f 676/757/258 681/762/350 680/761/349
f 676/757/258 682/763/351 681/762/350
f 676/757/258 683/764/352 682/763/351
f 676/757/258 684/765/353 683/766/352
f 676/757/258 685/767/354 684/765/353
f 676/757/258 686/768/355 685/767/354
f 676/757/258 687/769/356 686/768/355
f 676/757/258 688/770/357 687/769/356
f 676/757/258 677/759/347 688/770/357
f 689/771/258 691/772/346 690/773/347
f 689/771/258 692/774/348 691/772/346
f 689/771/258 693/775/349 692/774/348
f 689/771/258 694/776/350 693/775/349
f 689/771/258 695/777/351 694/776/350
f 689/771/258 696/778/352 695/777/351
f 689/771/258 697/779/353 696/780/352
f 689/771/258 698/781/354 697/779/353
f 689/771/258 699/782/355 698/781/354
f 689/771/258 700/783/356 699/782/355
f 689/771/258 701/784/357 700/783/356
f 689/771/258 690/773/347 701/784/357
f 702/785/258 703/786/347 704/787/357
f 702/785/258 704/787/357 705/788/356
f 702/785/258 705/788/356 706/789/355
f 702/785/258 706/789/355 707/790/354
f 702/785/258 707/790/354 708/791/353
f 702/785/258 708/791/353 709/792/352
f 702/785/258 709/793/352 710/794/351
f 702/785/258 710/794/351 711/795/350
f 702/785/258 711/795/350 712/796/349
f 702/785/258 712/796/349 713/797/348
f 702/785/258 713/797/348 714/798/346
f 702/785/258 714/798/346 703/786/347
f 715/799/258 716/800/347 717/801/357
f 715/799/258 717/801/357 718/802/356
f 715/799/258 718/802/356 719/803/355
f 715/799/258 719/803/355 720/804/354
f 715/799/258 720/804/354 721/805/353
f 715/799/258 721/805/353 722/806/352
f 715/799/258 722/807/352 723/808/351
f 715/799/258 723/808/351 724/809/350
f 715/799/258 724/809/350 725/810/349
f 715/799/258 725/810/349 726/811/348
f 715/799/258 726/811/348 727/812/346
f 715/799/258 727/812/346 716/800/347
f 728/813/258 729/814/347 730/815/357
f 728/813/258 730/815/357 731/816/356
f 728/813/258 731/816/356 732/817/355
f 728/813/258 732/817/355 733/818/354
f 728/813/258 733/818/354 734/819/353
f 728/813/258 734/819/353 735/820/352
f 728/813/258 735/821/352 736/822/351
f 728/813/258 736/822/351 737/823/350
f 728/813/258 737/823/350 738/824/349
f 728/813/258 738/824/349 739/825/348
f 728/813/258 739/825/348 740/826/346
f 728/813/258 740/826/346 729/814/347
f 741/827/258 742/828/347 743/829/357
f 741/827/258 743/829/357 744/830/356
f 741/827/258 744/830/356 745/831/355
f 741/827/258 745/831/355 746/832/354
f 741/827/258 746/832/354 747/833/353
f 741/827/258 747/833/353 748/834/352
f 741/827/258 748/835/352 749/836/351
f 741/827/258 749/836/351 750/837/350
f 741/827/258 750/837/350 751/838/349
f 741/827/258 751/838/349 752/839/348
f 741/827/258 752/839/348 753/840/346
f 741/827/258 753/840/346 742/828/347
f 754/841/258 755/842/347 756/843/357
f 754/841/258 756/843/357 757/844/356
f 754/841/258 757/844/356 758/845/355
f 754/841/258 758/845/355 759/846/354
f 754/841/258 759/846/354 760/847/353
f 754/841/258 760/847/353 761/848/352
f 754/841/258 761/849/352 762/850/351
f 754/841/258 762/850/351 763/851/350
f 754/841/258 763/851/350 764/852/349
f 754/841/258 764/852/349 765/853/348
f 754/841/258 765/853/348 766/854/346
f 754/841/258 766/854/346 755/842/347
f 767/855/258 768/856/347 769/857/357
f 767/855/258 769/857/357 770/858/356
f 767/855/258 770/858/356 771/859/355
f 767/855/258 771/859/355 772/860/354
f 767/855/258 772/860/354 773/861/353
f 767/855/258 773/861/353 774/862/352
f 767/855/258 774/863/352 775/864/351
f 767/855/258 775/864/351 776/865/350
f 767/855/258 776/865/350 777/866/349
f 767/855/258 777/866/349 778/867/348
f 767/855/258 778/867/348 779/868/346
f 767/855/258 779/868/346 768/856/347
f 780/869/258 781/870/347 782/871/357
f 780/869/258 782/871/357 783/872/356
f 780/869/258 783/872/356 784/873/355
f 780/869/258 784/873/355 785/874/354
f 780/869/258 785/874/354 786/875/353
f 780/869/258 786/875/353 787/876/352
f 780/869/258 787/877/352 788/878/351
f 780/869/258 788/878/351 789/879/350
f 780/869/258 789/879/350 790/880/349
f 780/869/258 790/880/349 791/881/348
f 780/869/258 791/881/348 792/882/346
f 780/869/258 792/882/346 781/870/347
f 803/883/358 796/884/359 805/885/258
f 804/886/360 802/887/361 805/885/258
f 795/888/362 799/889/363 805/885/258
f 793/890/364 797/891/365 805/885/258
f 799/889/363 800/892/366 805/885/258
f 797/891/365 798/893/367 805/885/258
f 802/887/361 794/894/368 805/885/258
f 800/892/366 801/895/369 805/885/258
f 798/893/367 803/896/358 805/885/258
f 801/895/369 804/886/360 805/885/258
f 794/894/368 793/890/364 805/885/258
f 796/884/359 795/888/362 805/885/258
s 0
f 818/897/85 807/898/85 809/899/85 824/900/85
f 819/901/142 823/902/142 826/903/142
f 825/904/142 813/905/142 811/906/142 821/907/142
f 821/908/370 811/909/370 807/898/370 818/897/370
f 808/910/371 812/911/371 810/912/371 806/913/371
f 810/914/370 817/915/370 814/916/370 806/917/370
f 812/918/142 816/919/142 817/920/142 810/921/142
f 808/922/258 815/923/258 816/919/258 812/918/258
f 806/917/85 814/916/85 815/923/85 808/922/85
f 817/915/80 821/908/80 818/897/80 814/916/80
f 816/919/372 825/904/372 821/907/372 817/920/372
f 815/923/80 824/900/80 825/904/80 816/919/80
f 814/916/372 818/897/372 824/900/372 815/923/372
f 822/924/258 823/925/258 809/899/258 813/905/258
f 823/925/258 819/926/258 824/900/258 809/899/258
f 820/927/258 822/924/258 813/905/258 825/904/258
f 819/926/258 820/927/258 825/904/258 824/900/258
f 822/928/85 820/929/85 827/930/85
f 820/929/373 819/901/373 826/903/373 827/930/373
