# Blender 4.1.1
# www.blender.org
mtllib 1.25m_Firebox1_Backhead.mtl
o Firebox_Vessel_Original
v -0.000000 -0.667704 0.619136
v 0.160042 -0.667704 0.598066
v 0.309178 -0.667704 0.536292
v 0.437243 -0.667704 0.438024
v 0.535511 -0.667704 0.309958
v 0.597285 -0.667704 0.160823
v 0.618355 -0.667704 0.000781
v 0.597285 -0.667704 -0.159261
v 0.535511 -0.667704 -0.308397
v 0.458847 -0.667704 -0.455661
v -0.458847 -0.667704 -0.455661
v -0.535511 -0.667704 -0.308397
v -0.597285 -0.667704 -0.159261
v -0.618355 -0.667704 0.000781
v -0.597285 -0.667704 0.160823
v -0.535511 -0.667704 0.309958
v -0.437243 -0.667704 0.438024
v -0.309178 -0.667704 0.536292
v -0.160042 -0.667704 0.598066
v 0.442828 -0.667704 -0.656616
v -0.442828 -0.667704 -0.656616
v -0.449318 -0.667704 -0.501165
v -0.444524 -0.667704 -0.550727
v -0.442887 -0.667704 -0.602995
v 0.449318 -0.667704 -0.501165
v 0.444524 -0.667704 -0.550727
v 0.442887 -0.667704 -0.602995
v 0.430350 -0.669018 -0.814794
v -0.430350 -0.668361 -0.814794
v 0.408100 -0.812611 0.107278
v 0.422496 -0.812611 -0.002072
v -0.316580 -0.812611 -0.471820
v -0.316580 -0.812611 -0.524590
v -0.000000 -0.805116 0.521896
v -0.000000 -0.812611 0.471160
v 0.457107 -0.812611 0.120410
v -0.236616 -0.812611 0.407759
v -0.334626 -0.812611 0.332554
v -0.344638 -0.812611 -0.471820
v 0.506114 -0.805116 0.133541
v 0.549775 -0.782350 0.145240
v 0.520422 -0.669018 0.298394
v 0.580455 -0.669018 0.153461
v -0.513016 -0.738061 -0.298261
v -0.520422 -0.669018 -0.302537
v -0.572195 -0.738061 -0.155391
v -0.523968 -0.805116 -0.002072
v -0.569169 -0.782350 -0.002072
v -0.424923 -0.669018 0.422851
v -0.300466 -0.669018 0.518350
v -0.506114 -0.805116 0.133541
v -0.457107 -0.812611 0.120410
v -0.372696 -0.805116 -0.524590
v -0.413891 -0.782350 -0.524590
v -0.372696 -0.805116 -0.471820
v 0.523968 -0.805116 -0.002072
v -0.316580 -0.812611 -0.581686
v 0.473232 -0.812611 -0.002072
v -0.344638 -0.812611 -0.524590
v 0.513016 -0.738061 0.294118
v 0.572195 -0.738061 0.151248
v 0.372696 -0.805117 -0.814794
v 0.421809 -0.782350 -0.814794
v -0.492915 -0.782350 -0.286656
v -0.000000 -0.738061 0.590308
v -0.153319 -0.738061 0.570123
v -0.549775 -0.782350 -0.149383
v 0.344638 -0.812611 -0.814794
v -0.135613 -0.805116 0.504043
v -0.147312 -0.782350 0.547703
v -0.418174 -0.782350 -0.597910
v 0.372696 -0.805117 -0.732814
v -0.415161 -0.782350 -0.471820
v -0.426745 -0.738061 -0.586910
v -0.430407 -0.669018 -0.588834
v 0.445917 -0.669018 -0.445651
v 0.436657 -0.669018 -0.489873
v 0.135613 -0.805116 0.504043
v 0.298750 -0.812611 0.296678
v 0.365892 -0.812611 0.209176
v 0.372696 -0.805116 -0.581686
v 0.372696 -0.805116 -0.524590
v -0.316580 -0.812611 -0.640944
v -0.316580 -0.812611 -0.814794
v 0.316580 -0.812611 -0.640944
v 0.316580 -0.812611 -0.581686
v 0.334626 -0.812611 0.332554
v -0.122481 -0.812611 0.455035
v 0.153319 -0.738061 0.570123
v 0.409831 -0.812611 -0.238688
v 0.344638 -0.812611 -0.425540
v 0.344638 -0.812611 -0.524590
v 0.344638 -0.812611 -0.581686
v 0.344638 -0.812611 -0.640944
v 0.592380 -0.738061 -0.002072
v 0.316580 -0.812611 -0.814794
v -0.296190 -0.738061 0.510944
v -0.402463 -0.782350 0.400391
v -0.418876 -0.738061 0.416804
v -0.000000 -0.669018 0.598860
v -0.000000 -0.782350 0.567097
v 0.430870 -0.738061 -0.485013
v 0.415161 -0.782350 -0.471820
v 0.427123 -0.738061 -0.534418
v 0.416804 -0.782350 -0.581686
v 0.409831 -0.812611 0.234544
v -0.473232 -0.812611 -0.002072
v 0.155532 -0.669018 0.578384
v -0.344638 -0.812611 -0.640944
v 0.569169 -0.782350 -0.002072
v -0.580455 -0.669018 -0.157604
v -0.284584 -0.782350 0.490843
v -0.155532 -0.669018 0.578384
v 0.428781 -0.716651 -0.624785
v 0.429280 -0.701304 -0.635990
v -0.372696 -0.805117 -0.581686
v -0.416804 -0.782350 -0.581686
v 0.431998 -0.669018 -0.538039
v 0.506114 -0.805116 -0.137684
v 0.122481 -0.812611 0.455035
v 0.365892 -0.812611 -0.213320
v 0.316580 -0.812611 -0.425540
v 0.344638 -0.812611 -0.471820
v 0.147312 -0.782350 0.547703
v -0.453770 -0.805116 0.259912
v 0.316580 -0.812611 -0.524590
v 0.549775 -0.782350 -0.149383
v -0.600931 -0.669018 -0.002072
v -0.572195 -0.738061 0.151248
v -0.513016 -0.738061 0.294118
v -0.430350 -0.669018 -0.640944
v 0.372696 -0.805117 -0.471820
v 0.430407 -0.669018 -0.588834
v 0.261984 -0.805116 0.451698
v -0.316580 -0.812611 -0.425540
v -0.365892 -0.812611 -0.213320
v 0.457107 -0.812611 -0.124553
v -0.409831 -0.812611 0.234544
v -0.344638 -0.812611 -0.425540
v 0.316580 -0.812611 -0.471820
v 0.600931 -0.669018 -0.002072
v -0.549775 -0.782350 0.145240
v -0.492915 -0.782350 0.282513
v -0.592380 -0.738061 -0.002072
v 0.417892 -0.784165 -0.751421
v 0.421809 -0.782350 -0.750335
v 0.408100 -0.812611 -0.111422
v 0.413891 -0.782350 -0.524590
v 0.430350 -0.669018 -0.640944
v -0.372696 -0.805116 -0.425540
v 0.296190 -0.738061 0.510944
v -0.344638 -0.812611 -0.581686
v 0.580455 -0.669018 -0.157604
v -0.372696 -0.805117 -0.814794
v -0.421809 -0.782350 -0.814794
v -0.422705 -0.782350 -0.425540
v -0.344638 -0.812611 -0.814794
v -0.457107 -0.812611 -0.124553
v 0.453770 -0.805117 -0.264056
v -0.453770 -0.805117 -0.264055
v 0.284584 -0.782350 0.490843
v -0.370501 -0.805116 0.368430
v 0.572195 -0.738061 -0.155391
v 0.426745 -0.738061 -0.586910
v 0.370501 -0.805116 0.368430
v 0.236616 -0.812611 0.407759
v -0.422496 -0.812611 -0.002072
v -0.409831 -0.812611 -0.238688
v 0.402463 -0.782350 0.400391
v 0.513016 -0.738061 -0.298261
v -0.408100 -0.812611 -0.111422
v -0.506114 -0.805116 -0.137684
v -0.408100 -0.812611 0.107278
v 0.300466 -0.669018 0.518350
v 0.492915 -0.782350 -0.286656
v -0.428050 -0.738061 -0.814794
v 0.372696 -0.805116 -0.425540
v -0.261984 -0.805116 0.451698
v 0.424923 -0.669018 0.422851
v 0.422705 -0.782350 -0.425540
v 0.428050 -0.738061 -0.814794
v -0.580455 -0.669018 0.153461
v -0.520422 -0.669018 0.298394
v -0.436657 -0.669018 -0.489873
v -0.431998 -0.669018 -0.538039
v 0.453770 -0.805116 0.259912
v 0.418876 -0.738061 0.416804
v 0.520422 -0.669018 -0.302537
v -0.430870 -0.738061 -0.485013
v -0.427123 -0.738061 -0.534418
v 0.109350 -0.812611 0.406028
v 0.211248 -0.812611 0.363821
v -0.211248 -0.812611 0.363821
v -0.109350 -0.812611 0.406028
v -0.445917 -0.669018 -0.445651
v -0.439668 -0.738061 -0.440237
v 0.492915 -0.782350 0.282513
v 0.439668 -0.738061 -0.440237
v -0.365892 -0.812611 0.209176
v -0.298750 -0.812611 0.296678
v -0.000000 -0.812611 0.420424
v 0.429335 -0.699482 -0.640944
v -0.429159 -0.701183 -0.635990
v -0.429335 -0.699481 -0.640944
v -0.421809 -0.782350 -0.750335
v 0.380435 -0.801122 -0.607823
v -0.429744 -0.687188 -0.674467
v 0.344638 -0.812611 -0.693280
v 0.350518 -0.811040 -0.712944
v 0.344638 -0.812611 -0.655653
v -0.380713 -0.801400 -0.741111
v -0.372696 -0.805117 -0.616119
v -0.337509 -0.812611 -0.674467
v -0.380713 -0.801400 -0.607823
v 0.337509 -0.812611 -0.674467
v -0.391808 -0.796257 -0.604746
v 0.350518 -0.811040 -0.635990
v 0.425107 -0.752751 -0.604832
v -0.442828 -0.667704 -0.814794
v 0.442828 -0.667704 -0.814794
v 0.290606 -0.812611 0.216672
v -0.315624 -0.812611 -0.051859
v -0.222253 -0.812611 -0.076877
v -0.290606 -0.812611 -0.076877
v 0.324782 -0.812611 -0.017682
v -0.290606 -0.812611 0.041513
v -0.256429 -0.812611 0.089124
v -0.290606 -0.812611 0.216672
v -0.222253 -0.812611 0.098282
v -0.222253 -0.812611 0.216672
v -0.197235 -0.812611 0.191653
v -0.197235 -0.812611 0.016494
v -0.097087 -0.812611 0.278704
v -0.079272 -0.812611 0.143379
v 0.000000 -0.812611 0.110543
v -0.029015 -0.812611 0.114363
v 0.056053 -0.812611 0.125563
v 0.097087 -0.812611 0.166597
v 0.197234 -0.812611 0.123301
v 0.222253 -0.812611 0.098282
v 0.222253 -0.812611 0.041513
v 0.256429 -0.812611 0.089124
v 0.315624 -0.812611 0.016494
v -0.079272 -0.812611 0.301922
v -0.029015 -0.812611 0.330937
v 0.029015 -0.812611 0.330937
v 0.097087 -0.812611 0.278704
v 0.112107 -0.812611 0.222650
v 0.108287 -0.812611 0.193635
v 0.190176 -0.812611 0.165312
v 0.290606 -0.812611 0.098282
v 0.197234 -0.812611 0.191653
v -0.256429 -0.781214 0.050670
v -0.222253 -0.781214 0.041513
v -0.197235 -0.781214 0.016494
v -0.188077 -0.781214 -0.017682
v -0.197235 -0.781214 -0.051859
v -0.222253 -0.781214 -0.076877
v -0.256429 -0.781214 -0.086035
v -0.290606 -0.781214 -0.076877
v -0.315624 -0.781214 -0.051859
v -0.324782 -0.781214 -0.017682
v -0.315624 -0.781214 0.016494
v -0.290606 -0.781214 0.041513
v -0.256429 -0.781214 0.225829
v -0.222253 -0.781214 0.216672
v -0.197235 -0.781214 0.191653
v -0.188077 -0.781214 0.157477
v -0.197235 -0.781214 0.123301
v -0.222253 -0.781214 0.098282
v -0.256429 -0.781214 0.089124
v -0.290606 -0.781214 0.098282
v -0.315624 -0.781214 0.123301
v -0.324782 -0.781214 0.157477
v -0.315624 -0.781214 0.191653
v -0.290606 -0.781214 0.216672
v 0.256429 -0.781214 0.050670
v 0.222253 -0.781214 0.041513
v 0.197234 -0.781214 0.016494
v 0.188077 -0.781214 -0.017682
v 0.197234 -0.781214 -0.051859
v 0.222253 -0.781214 -0.076877
v 0.256429 -0.781214 -0.086035
v 0.290606 -0.781214 -0.076877
v 0.315624 -0.781214 -0.051859
v 0.324782 -0.781214 -0.017682
v 0.315624 -0.781214 0.016494
v 0.290606 -0.781214 0.041513
v 0.256429 -0.781214 0.225829
v 0.222253 -0.781214 0.216672
v 0.197234 -0.781214 0.191653
v 0.188077 -0.781214 0.157477
v 0.197234 -0.781214 0.123301
v 0.222253 -0.781214 0.098282
v 0.256429 -0.781214 0.089124
v 0.290606 -0.781214 0.098282
v 0.315624 -0.781214 0.123301
v 0.324782 -0.781214 0.157477
v 0.315624 -0.781214 0.191653
v 0.290606 -0.781214 0.216672
v -0.420488 -0.767842 -0.601097
v -0.372696 -0.805117 -0.732814
v 0.380713 -0.801400 -0.741111
v -0.350519 -0.811040 -0.712944
v -0.350519 -0.811040 -0.635990
v -0.349037 -0.811436 -0.640944
v 0.427822 -0.739680 -0.741111
v -0.313559 -0.788661 -0.674467
v -0.320849 -0.781371 -0.712944
v -0.428050 -0.738061 -0.739805
v -0.429275 -0.701298 -0.712944
v -0.320849 -0.781371 -0.635990
v 0.415098 -0.687122 -0.635990
v 0.422388 -0.679832 -0.674467
v 0.429744 -0.687188 -0.674467
v 0.340766 -0.761454 -0.741111
v 0.320849 -0.781371 -0.712944
v -0.340766 -0.761454 -0.607823
v -0.422388 -0.679832 -0.674467
v -0.415098 -0.687122 -0.712944
v 0.367974 -0.734246 -0.597513
v 0.395181 -0.707039 -0.607823
v -0.415098 -0.687122 -0.635990
v 0.313559 -0.788661 -0.674467
v -0.417892 -0.784165 -0.751421
v -0.395181 -0.707039 -0.741111
v 0.340766 -0.761454 -0.607823
v 0.320849 -0.781371 -0.635990
v -0.367974 -0.734246 -0.751421
v -0.367974 -0.734246 -0.597513
v 0.415098 -0.687122 -0.712944
v 0.372696 -0.805117 -0.616119
v 0.349037 -0.811436 -0.640944
v -0.395181 -0.707039 -0.607823
v -0.340766 -0.761454 -0.741111
v 0.429275 -0.701298 -0.712944
v -0.427268 -0.738061 -0.608576
v 0.401950 -0.790017 -0.601642
v 0.395181 -0.707039 -0.741111
v 0.367974 -0.734246 -0.751421
v 0.427268 -0.738061 -0.608576
v 0.418174 -0.782350 -0.597910
v -0.344638 -0.812611 -0.655653
v -0.344638 -0.812611 -0.693280
v 0.415637 -0.728951 -0.711780
v 0.387347 -0.700661 -0.711780
v 0.388963 -0.699044 -0.637345
v 0.417253 -0.727334 -0.637345
v 0.363003 -0.781584 -0.709494
v 0.364620 -0.779968 -0.635059
v 0.334713 -0.753294 -0.709494
v 0.336330 -0.751678 -0.635059
v -0.365511 -0.775134 -0.715417
v -0.340113 -0.744221 -0.715417
v -0.333028 -0.750042 -0.641514
v -0.358425 -0.780955 -0.641514
v -0.422614 -0.728220 -0.706248
v -0.415529 -0.734040 -0.632344
v -0.397216 -0.697306 -0.706248
v -0.390131 -0.703127 -0.632344
v -0.315624 -0.812611 0.191653
v 0.222253 -0.812611 0.216672
v 0.256429 -0.812611 0.225829
v 0.324782 -0.812611 0.157477
v 0.315624 -0.812611 0.123301
v 0.315624 -0.812611 0.191653
v 0.222253 -0.812611 -0.076877
v 0.290606 -0.812611 -0.076877
v 0.315624 -0.812611 -0.051859
v 0.256429 -0.812611 -0.086035
v -0.324782 -0.812611 -0.017682
v -0.256429 -0.812611 -0.086035
v -0.188077 -0.812611 -0.017682
v 0.188077 -0.812611 -0.017682
v 0.197234 -0.812611 -0.051859
v -0.197235 -0.812611 -0.051859
v -0.324782 -0.812611 0.157477
v -0.315624 -0.812611 0.123301
v -0.315624 -0.812611 0.016494
v -0.290606 -0.812611 0.098282
v -0.256429 -0.812611 0.050670
v -0.222253 -0.812611 0.041513
v -0.190177 -0.812611 0.165312
v -0.188077 -0.812611 0.157477
v -0.197235 -0.812611 0.123301
v -0.256429 -0.812611 0.225829
v 0.197234 -0.812611 0.016494
v 0.256429 -0.812611 0.050670
v 0.290606 -0.812611 0.041513
v 0.188077 -0.812611 0.157477
v -0.276013 -0.812213 0.113913
v -0.299994 -0.812213 0.177060
v -0.276013 -0.772060 0.113913
v -0.299994 -0.772060 0.177060
v -0.212865 -0.812213 0.137894
v -0.236846 -0.812213 0.201041
v -0.212865 -0.772060 0.137894
v -0.236846 -0.772060 0.201041
v -0.291496 -0.812213 -0.050801
v -0.288859 -0.812213 0.016695
v -0.291496 -0.772060 -0.050801
v -0.288859 -0.772060 0.016695
v -0.224000 -0.812213 -0.053438
v -0.221363 -0.812213 0.014058
v -0.224000 -0.772060 -0.053438
v -0.221363 -0.772060 0.014058
v 0.211204 -0.812213 -0.017484
v 0.259846 -0.812213 0.029384
v 0.211204 -0.772060 -0.017484
v 0.259846 -0.772060 0.029384
v 0.258071 -0.812213 -0.066127
v 0.306714 -0.812213 -0.019259
v 0.258071 -0.772060 -0.066127
v 0.306714 -0.772060 -0.019259
v 0.225185 -0.812213 0.123703
v 0.225185 -0.812213 0.191251
v 0.225185 -0.772060 0.123703
v 0.225185 -0.772060 0.191251
v 0.292733 -0.812213 0.123703
v 0.292733 -0.812213 0.191251
v 0.292733 -0.772060 0.123703
v 0.292733 -0.772060 0.191251
v 0.000000 -0.826790 0.311934
v 0.023108 -0.826790 0.308892
v 0.044642 -0.826790 0.299973
v 0.063133 -0.826790 0.285784
v 0.077322 -0.826790 0.267292
v 0.086242 -0.826790 0.245759
v 0.089284 -0.826790 0.222650
v 0.086242 -0.826790 0.199542
v 0.077322 -0.826790 0.178008
v 0.063133 -0.826790 0.159517
v 0.044642 -0.826790 0.145328
v 0.023108 -0.826790 0.136409
v 0.000000 -0.826790 0.133366
v -0.023108 -0.826790 0.136409
v -0.044642 -0.826790 0.145328
v -0.063133 -0.826790 0.159517
v -0.077322 -0.826790 0.178008
v -0.086242 -0.826790 0.199542
v -0.089284 -0.826790 0.222650
v -0.086242 -0.826790 0.245759
v -0.077322 -0.826790 0.267292
v -0.063133 -0.826790 0.285784
v -0.044642 -0.826790 0.299973
v -0.023108 -0.826790 0.308892
v -0.112107 -0.812611 0.222650
v -0.108287 -0.812611 0.193635
v -0.108287 -0.812611 0.251666
v -0.097087 -0.812611 0.166597
v 0.079272 -0.812611 0.143379
v 0.029015 -0.812611 0.114363
v -0.056053 -0.812611 0.125563
v -0.056053 -0.812611 0.319738
v 0.079272 -0.812611 0.301922
v 0.056053 -0.812611 0.319738
v 0.000000 -0.812611 0.334757
v 0.108287 -0.812611 0.251666
v 0.000000 -0.826790 0.334757
v 0.029015 -0.826790 0.330937
v 0.108287 -0.826790 0.251666
v 0.112107 -0.826790 0.222650
v -0.029015 -0.826790 0.330937
v 0.056053 -0.826790 0.319738
v 0.079272 -0.826790 0.301922
v -0.097087 -0.826790 0.166597
v -0.108287 -0.826790 0.193635
v 0.108287 -0.826790 0.193635
v -0.056053 -0.826790 0.319738
v -0.112107 -0.826790 0.222650
v -0.108287 -0.826790 0.251666
v 0.029015 -0.826790 0.114363
v 0.000000 -0.826790 0.110543
v -0.029015 -0.826790 0.114363
v -0.056053 -0.826790 0.125563
v 0.097087 -0.826790 0.278704
v -0.079272 -0.826790 0.143379
v -0.097087 -0.826790 0.278704
v -0.079272 -0.826790 0.301922
v 0.079272 -0.826790 0.143379
v 0.056053 -0.826790 0.125563
v 0.097087 -0.826790 0.166597
v -0.000000 -0.797468 0.269513
v 0.046863 -0.797468 0.222650
v 0.023431 -0.797468 0.263235
v 0.033137 -0.797468 0.255787
v -0.040584 -0.797468 0.199219
v -0.045266 -0.797468 0.210521
v -0.023431 -0.797468 0.263235
v -0.046863 -0.797468 0.222650
v 0.012129 -0.797468 0.177384
v -0.012129 -0.797468 0.177384
v 0.040584 -0.797468 0.246082
v -0.040584 -0.797468 0.246082
v -0.033137 -0.797468 0.255787
v 0.033137 -0.797468 0.189513
v 0.023431 -0.797468 0.182066
v -0.000000 -0.797468 0.311934
v 0.023108 -0.797468 0.308892
v 0.086242 -0.797468 0.245759
v 0.089284 -0.797468 0.222650
v -0.023108 -0.797468 0.308892
v 0.044642 -0.797468 0.299973
v 0.063133 -0.797468 0.285784
v -0.077322 -0.797468 0.178008
v -0.086242 -0.797468 0.199542
v 0.086242 -0.797468 0.199542
v -0.044642 -0.797468 0.299973
v -0.089284 -0.797468 0.222650
v -0.086242 -0.797468 0.245759
v 0.023108 -0.797468 0.136409
v -0.000000 -0.797468 0.133366
v -0.023108 -0.797468 0.136409
v -0.044642 -0.797468 0.145328
v 0.077322 -0.797468 0.267292
v -0.063133 -0.797468 0.159517
v -0.077322 -0.797468 0.267292
v -0.063133 -0.797468 0.285784
v 0.063133 -0.797468 0.159517
v 0.044642 -0.797468 0.145328
v 0.077322 -0.797468 0.178008
v 0.012129 -0.797468 0.267916
v 0.045266 -0.797468 0.234779
v -0.012129 -0.797468 0.267916
v 0.045266 -0.797468 0.210521
v -0.045266 -0.797468 0.234779
v -0.000000 -0.797468 0.175787
v -0.023431 -0.797468 0.182066
v -0.033137 -0.797468 0.189513
v 0.040584 -0.797468 0.199219
v 0.000000 -0.844315 0.269513
v 0.012129 -0.844315 0.267916
v 0.045266 -0.844315 0.234779
v -0.045266 -0.844315 0.210521
v -0.023431 -0.844315 0.263235
v 0.000000 -0.844315 0.175788
v -0.012129 -0.844315 0.177384
v -0.023431 -0.844315 0.182066
v -0.033137 -0.844315 0.255787
v 0.023431 -0.844315 0.182066
v 0.046863 -0.844315 0.222650
v -0.012129 -0.844315 0.267916
v 0.023431 -0.844315 0.263235
v 0.033137 -0.844315 0.255787
v -0.040584 -0.844315 0.199219
v 0.045266 -0.844315 0.210521
v -0.046863 -0.844315 0.222650
v -0.045266 -0.844315 0.234779
v 0.012129 -0.844315 0.177384
v 0.040584 -0.844315 0.246082
v -0.033137 -0.844315 0.189513
v -0.040584 -0.844315 0.246082
v 0.033137 -0.844315 0.189513
v 0.040584 -0.844315 0.199219
v -0.418471 0.250882 -0.609463
v 0.385973 0.266007 -0.618486
v 0.350682 0.271387 -0.647245
v -0.421283 0.245758 -0.607959
v -0.434774 0.203691 -0.618486
v -0.437885 0.166130 -0.647245
v 0.437156 0.188531 -0.630889
v 0.434784 0.203700 -0.618486
v 0.430879 0.228136 -0.613116
v 0.421287 0.245762 -0.607959
v 0.398422 0.263643 -0.757383
v 0.341311 0.272828 -0.675778
v 0.350625 0.271330 -0.725817
v 0.337278 0.272870 -0.686531
v 0.421042 0.245517 -0.765103
v -0.437049 0.188503 -0.742228
v -0.438382 0.151740 -0.686531
v -0.430676 0.227976 -0.759954
v -0.347718 0.270340 -0.652303
v -0.349509 0.270214 -0.725817
v -0.383193 0.263227 -0.754576
v -0.349581 0.270287 -0.647245
v -0.320151 0.255743 -0.686531
v -0.327594 0.248300 -0.647245
v -0.347930 0.227964 -0.618486
v -0.375709 0.200184 -0.607959
v -0.403489 0.172405 -0.618486
v -0.423825 0.152069 -0.647245
v -0.431268 0.144626 -0.686531
v -0.423825 0.152069 -0.725817
v -0.403489 0.172405 -0.754576
v -0.375709 0.200184 -0.765103
v -0.347930 0.227964 -0.754576
v -0.327594 0.248300 -0.725817
v 0.320151 0.255743 -0.686531
v 0.327594 0.248300 -0.647245
v 0.347930 0.227964 -0.618486
v 0.375709 0.200185 -0.607959
v 0.403489 0.172405 -0.618486
v 0.423825 0.152069 -0.647245
v 0.431268 0.144626 -0.686531
v 0.423825 0.152069 -0.725817
v 0.403489 0.172405 -0.754576
v 0.375709 0.200185 -0.765103
v 0.347930 0.227964 -0.754576
v 0.327594 0.248300 -0.725817
v -0.367303 0.269149 -0.633909
v -0.383442 0.263476 -0.618486
v 0.398538 0.263991 -0.615723
v 0.348974 0.271596 -0.652303
v 0.418471 0.250882 -0.609463
v -0.430879 0.228136 -0.613116
v -0.437156 0.188531 -0.630889
v -0.437928 0.164256 -0.652303
v 0.437886 0.166130 -0.647245
v 0.437928 0.164256 -0.652303
v 0.385662 0.265695 -0.754576
v 0.341311 0.272828 -0.697284
v 0.438382 0.151740 -0.686531
v 0.437861 0.166106 -0.725817
v 0.437049 0.188503 -0.742228
v 0.434622 0.203538 -0.754576
v 0.430676 0.227976 -0.759954
v 0.418266 0.250572 -0.763619
v -0.437861 0.166106 -0.725817
v -0.434622 0.203538 -0.754576
v -0.421042 0.245517 -0.765103
v -0.418266 0.250572 -0.763619
v -0.335602 0.271194 -0.686531
v -0.367303 0.268960 -0.739286
v -0.400454 0.166710 -0.720477
v -0.395748 0.171416 -0.644733
v -0.429339 0.195595 -0.720477
v -0.424633 0.200301 -0.644733
v -0.346895 0.220269 -0.727132
v -0.342189 0.224975 -0.651388
v -0.375780 0.249154 -0.727132
v -0.371074 0.253860 -0.651388
v 0.360198 0.205123 -0.736842
v 0.334221 0.226465 -0.668642
v 0.386129 0.236686 -0.736842
v 0.360153 0.258028 -0.668642
v 0.412894 0.161830 -0.703223
v 0.386917 0.183171 -0.635023
v 0.438825 0.193393 -0.703223
v 0.412848 0.214735 -0.635023
vn 0.0810 -0.9964 -0.0261
vn 0.0735 -0.9967 -0.0341
vn 0.0734 -0.9967 -0.0344
vn 0.0780 -0.9965 -0.0300
vn -0.0810 -0.9964 -0.0261
vn -0.0925 -0.9956 -0.0121
vn -0.0896 -0.9959 -0.0154
vn -0.0780 -0.9965 -0.0300
vn -0.0694 -0.9974 0.0194
vn -0.0751 -0.9972 0.0009
vn -0.0754 -0.9972 -0.0012
vn -0.0701 -0.9974 0.0177
vn 0.1038 -0.9946 -0.0008
vn 0.0995 -0.9950 -0.0048
vn 0.0967 -0.9953 -0.0076
vn 0.1020 -0.9948 -0.0025
vn 0.1226 -0.9924 0.0100
vn 0.1061 -0.9943 -0.0027
vn 0.0751 -0.9972 0.0009
vn 0.0694 -0.9974 0.0194
vn 0.0701 -0.9974 0.0177
vn 0.0754 -0.9972 -0.0012
vn 0.0925 -0.9956 -0.0121
vn 0.0896 -0.9959 -0.0154
vn 0.0598 -0.9976 0.0353
vn 0.0608 -0.9976 0.0341
vn 0.0326 -0.9978 0.0572
vn 0.0166 -0.9979 0.0628
vn 0.0170 -0.9979 0.0627
vn 0.0334 -0.9978 0.0569
vn -0.0326 -0.9978 0.0572
vn -0.0473 -0.9977 0.0480
vn -0.0482 -0.9977 0.0473
vn -0.0334 -0.9978 0.0569
vn -0.1028 -0.9947 -0.0013
vn -0.1384 -0.9904 -0.0007
vn -0.1164 -0.9932 -0.0104
vn -0.1029 -0.9947 -0.0020
vn -0.0000 -0.9979 0.0647
vn -0.0166 -0.9979 0.0628
vn -0.0170 -0.9979 0.0627
vn 0.0759 -0.9969 -0.0194
vn 0.0757 -0.9969 -0.0215
vn 0.0473 -0.9977 0.0480
vn 0.0482 -0.9977 0.0473
vn -0.0995 -0.9950 -0.0048
vn -0.0967 -0.9953 -0.0076
vn -0.0598 -0.9976 0.0353
vn -0.0608 -0.9976 0.0341
vn -0.0759 -0.9969 -0.0194
vn -0.0735 -0.9967 -0.0341
vn -0.0734 -0.9967 -0.0344
vn -0.0757 -0.9969 -0.0215
vn -0.0000 -0.1229 0.9924
vn -0.0000 -0.2942 0.9557
vn 0.2474 -0.2942 0.9232
vn 0.2569 -0.1229 0.9586
vn 0.0812 -0.9495 0.3031
vn 0.1848 -0.7003 0.6895
vn -0.0000 -0.7003 0.7139
vn -0.0000 -0.9495 0.3138
vn 0.4779 -0.2942 0.8277
vn 0.4962 -0.1229 0.8595
vn 0.1569 -0.9495 0.2718
vn 0.3569 -0.7003 0.6182
vn 0.6758 -0.2942 0.6758
vn 0.7017 -0.1229 0.7017
vn 0.2219 -0.9495 0.2219
vn 0.5048 -0.7003 0.5048
vn 0.8277 -0.2942 0.4779
vn 0.8595 -0.1229 0.4962
vn 0.2718 -0.9495 0.1569
vn 0.6182 -0.7003 0.3569
vn 0.9232 -0.2942 0.2474
vn 0.9586 -0.1229 0.2569
vn 0.3031 -0.9495 0.0812
vn 0.6895 -0.7003 0.1848
vn 0.9557 -0.2942 -0.0000
vn 0.9924 -0.1229 -0.0000
vn 0.3138 -0.9495 -0.0000
vn 0.7139 -0.7003 -0.0000
vn 0.9232 -0.2942 -0.2474
vn 0.9586 -0.1229 -0.2569
vn 0.3031 -0.9495 -0.0812
vn 0.6895 -0.7003 -0.1848
vn 0.8675 -0.2921 -0.4027
vn 0.8999 -0.1207 -0.4191
vn 0.2910 -0.9479 -0.1296
vn 0.6438 -0.7054 -0.2965
vn 0.9115 -0.2727 -0.3078
vn 0.9385 -0.1103 -0.3271
vn 0.3075 -0.9489 -0.0706
vn 0.6592 -0.7176 -0.2247
vn -0.9385 -0.1103 -0.3271
vn -0.9115 -0.2727 -0.3078
vn -0.8675 -0.2921 -0.4027
vn -0.8999 -0.1207 -0.4191
vn -0.2910 -0.9479 -0.1296
vn -0.6438 -0.7054 -0.2965
vn -0.6592 -0.7176 -0.2247
vn -0.3075 -0.9489 -0.0706
vn -0.9232 -0.2942 -0.2474
vn -0.9586 -0.1229 -0.2569
vn -0.3031 -0.9495 -0.0812
vn -0.6895 -0.7003 -0.1848
vn -0.9557 -0.2942 -0.0000
vn -0.9924 -0.1229 -0.0000
vn -0.3138 -0.9495 -0.0000
vn -0.7139 -0.7003 -0.0000
vn -0.9232 -0.2942 0.2474
vn -0.9586 -0.1229 0.2569
vn -0.3031 -0.9495 0.0812
vn -0.6895 -0.7003 0.1848
vn -0.8277 -0.2942 0.4779
vn -0.8595 -0.1229 0.4962
vn -0.2718 -0.9495 0.1569
vn -0.6182 -0.7003 0.3569
vn -0.6758 -0.2942 0.6758
vn -0.7017 -0.1229 0.7017
vn -0.2219 -0.9495 0.2219
vn -0.5048 -0.7003 0.5048
vn -0.4779 -0.2942 0.8277
vn -0.4962 -0.1229 0.8595
vn -0.1569 -0.9495 0.2718
vn -0.3569 -0.7003 0.6182
vn -0.2474 -0.2942 0.9232
vn -0.2569 -0.1229 0.9586
vn -0.0812 -0.9495 0.3031
vn -0.1848 -0.7003 0.6895
vn -0.7340 -0.6754 -0.0712
vn -0.9671 -0.2237 -0.1212
vn -0.9835 -0.1783 -0.0306
vn -0.7702 -0.6377 -0.0072
vn -0.9860 -0.0907 -0.1399
vn -0.9961 -0.0719 -0.0513
vn -0.9911 -0.1322 0.0180
vn -0.7887 -0.6141 0.0290
vn -0.9985 -0.0544 -0.0052
vn -0.3611 -0.9325 -0.0105
vn -0.9911 -0.1321 0.0181
vn -0.9992 -0.0394 0.0039
vn -0.9998 -0.0210 0.0022
vn -0.7887 -0.6141 0.0291
vn -0.3595 -0.9331 0.0079
vn -0.3453 -0.9385 0.0046
vn -0.3585 -0.9335 0.0077
vn -0.3688 -0.9295 0.0016
vn 0.9860 -0.0907 -0.1399
vn 0.9671 -0.2237 -0.1212
vn 0.9835 -0.1783 -0.0306
vn 0.9961 -0.0719 -0.0513
vn 0.7340 -0.6754 -0.0712
vn 0.7702 -0.6377 -0.0072
vn 0.9911 -0.1322 0.0180
vn 0.9986 -0.0526 -0.0034
vn 0.7885 -0.6144 0.0291
vn 0.3611 -0.9325 -0.0105
vn 0.3688 -0.9295 0.0016
vn 0.3585 -0.9335 0.0077
vn 0.7887 -0.6141 0.0290
vn 0.3453 -0.9385 0.0046
vn 0.3596 -0.9331 0.0076
vn 0.9950 -0.0982 0.0166
vn 0.9998 -0.0209 0.0022
vn 0.9998 -0.0210 0.0022
vn 0.9992 -0.0387 0.0061
vn -0.0000 -0.9968 0.0793
vn -0.0000 -1.0000 -0.0000
vn 0.0205 -0.9968 0.0766
vn 0.0397 -0.9968 0.0687
vn 0.0561 -0.9968 0.0561
vn 0.0687 -0.9968 0.0397
vn 0.0766 -0.9968 0.0205
vn 0.0793 -0.9968 -0.0000
vn 0.0766 -0.9968 -0.0205
vn 0.0763 -0.9966 -0.0318
vn -0.0205 -0.9968 0.0766
vn -0.0397 -0.9968 0.0687
vn -0.0561 -0.9968 0.0561
vn -0.0687 -0.9968 0.0397
vn -0.0766 -0.9968 0.0205
vn -0.0793 -0.9968 -0.0000
vn -0.0766 -0.9968 -0.0205
vn -0.0763 -0.9966 -0.0318
vn -0.1003 -0.9948 -0.0149
vn -0.1301 -0.9915 -0.0000
vn 0.1003 -0.9948 -0.0149
vn 0.1301 -0.9915 -0.0000
vn 0.1313 -0.9913 -0.0000
vn -0.1313 -0.9913 -0.0000
vn 0.3406 -0.9402 -0.0000
vn 0.8031 -0.5959 -0.0000
vn -0.1290 -0.9916 -0.0000
vn -0.1290 -0.9916 -0.0002
vn -0.3406 -0.9402 -0.0000
vn 0.9962 -0.0868 -0.0000
vn 0.9963 -0.0864 -0.0000
vn 0.9998 -0.0210 0.0021
vn 0.9994 -0.0343 0.0004
vn 0.9998 -0.0209 0.0021
vn -0.8031 -0.5959 -0.0000
vn -0.9962 -0.0866 -0.0000
vn -0.9963 -0.0864 -0.0000
vn 0.1290 -0.9916 0.0002
vn 0.1290 -0.9916 -0.0000
vn -0.9998 -0.0209 0.0022
vn -0.9995 -0.0331 -0.0001
vn -0.0775 -0.9970 -0.0020
vn 0.1734 -0.9846 0.0218
vn 0.1047 -0.9945 -0.0000
vn -0.7071 0.7071 -0.0000
vn -0.6830 0.6830 -0.2588
vn -0.5968 0.5968 -0.5364
vn -0.6124 0.6124 -0.5000
vn -0.3177 0.3214 -0.8921
vn -0.3492 0.3523 -0.8683
vn -0.5000 0.5000 -0.7071
vn -0.1738 0.1797 -0.9682
vn -0.0149 0.0203 -0.9997
vn 0.0060 -0.0006 -1.0000
vn 0.1901 -0.1857 -0.9640
vn 0.3009 -0.2979 -0.9060
vn 0.3546 -0.3523 -0.8661
vn 0.5904 -0.5904 -0.5504
vn 0.6124 -0.6124 -0.5000
vn 0.7071 -0.7071 -0.0000
vn 0.6830 -0.6830 -0.2588
vn 0.5889 -0.5889 0.5536
vn 0.6124 -0.6124 0.5000
vn 0.3032 -0.2966 0.9056
vn 0.3564 -0.3513 0.8658
vn 0.0073 -0.0023 1.0000
vn 0.1970 -0.1875 0.9623
vn 0.0499 -0.0439 0.9978
vn -0.3536 0.3536 0.8660
vn -0.3230 0.3230 0.8896
vn -0.5000 0.5000 0.7071
vn -0.5968 0.5968 0.5364
vn -0.6124 0.6124 0.5000
vn -0.6830 0.6830 0.2588
vn -0.7071 -0.7071 -0.0000
vn 0.7071 0.7071 -0.0000
vn 0.6124 0.6124 -0.5000
vn 0.5968 0.5968 -0.5364
vn 0.6830 0.6830 -0.2588
vn 0.3497 0.3515 -0.8684
vn 0.3221 0.3242 -0.8895
vn 0.5000 0.5000 -0.7071
vn 0.1747 0.1781 -0.9684
vn -0.0045 -0.0018 -1.0000
vn 0.0064 0.0092 -0.9999
vn -0.1882 -0.1863 -0.9643
vn -0.3537 -0.3527 -0.8663
vn -0.2983 -0.2970 -0.9071
vn -0.6124 -0.6124 -0.5000
vn -0.5888 -0.5888 -0.5537
vn -0.5000 -0.5000 -0.7071
vn -0.6830 -0.6830 -0.2588
vn -0.6124 -0.6124 0.5000
vn -0.5890 -0.5890 0.5534
vn -0.3536 -0.3536 0.8660
vn -0.2899 -0.2899 0.9121
vn -0.0000 -0.0000 1.0000
vn -0.0410 -0.0410 0.9983
vn -0.1830 -0.1830 0.9659
vn 0.3536 0.3536 0.8660
vn 0.3230 0.3230 0.8896
vn 0.6124 0.6124 0.5000
vn 0.5968 0.5968 0.5364
vn 0.5000 0.5000 0.7071
vn 0.6830 0.6830 0.2588
vn 0.7068 0.7068 -0.0307
vn -0.7068 -0.7068 0.0307
vn -0.0217 -0.0217 -0.9995
vn 0.0217 0.0217 0.9995
vn 0.7668 -0.6300 -0.1231
vn -0.6348 -0.7727 -0.0000
vn -0.7668 0.6300 0.1231
vn -0.0951 0.0782 -0.9924
vn 0.0951 -0.0782 0.9924
vn -0.0000 -0.0000 -1.0000
vn -0.5000 -0.0000 -0.8660
vn -0.8660 -0.0000 -0.5000
vn -1.0000 -0.0000 -0.0000
vn -0.8660 -0.0000 0.5000
vn -0.5000 -0.0000 0.8660
vn 0.5000 -0.0000 0.8660
vn 0.8660 -0.0000 0.5000
vn 1.0000 -0.0000 -0.0000
vn 0.8660 -0.0000 -0.5000
vn 0.5000 -0.0000 -0.8660
vn -0.9659 -0.0000 -0.2588
vn 0.9659 -0.0000 -0.2588
vn -0.9349 -0.0000 -0.3550
vn 0.9349 -0.0000 0.3550
vn 0.3550 -0.0000 -0.9349
vn -0.3550 -0.0000 0.9349
vn -0.9992 -0.0000 0.0390
vn 0.9992 -0.0000 -0.0390
vn -0.0390 -0.0000 -0.9992
vn 0.0390 -0.0000 0.9992
vn -0.6938 -0.0000 0.7201
vn 0.6938 -0.0000 -0.7201
vn -0.7201 -0.0000 -0.6938
vn 0.7201 -0.0000 0.6938
vn 0.2588 -0.0000 0.9659
vn 0.7071 -0.0000 0.7071
vn 0.9659 -0.0000 0.2588
vn 0.7071 -0.0000 -0.7071
vn 0.2588 -0.0000 -0.9659
vn -0.2588 -0.0000 -0.9659
vn -0.7071 -0.0000 -0.7071
vn -0.9659 -0.0000 0.2588
vn -0.7071 -0.0000 0.7071
vn -0.2588 -0.0000 0.9659
vn -0.5894 -0.5894 -0.5524
vn -0.3148 -0.3148 -0.8955
vn -0.3536 -0.3536 -0.8660
vn -0.0333 -0.0333 -0.9989
vn -0.1830 -0.1830 -0.9659
vn 0.3536 0.3536 -0.8660
vn 0.2980 0.2980 -0.9069
vn 0.1830 0.1830 -0.9659
vn 0.5887 0.5887 -0.5540
vn 0.5890 0.5890 0.5533
vn 0.2983 0.2983 0.9067
vn -0.0330 -0.0330 0.9989
vn 0.1830 0.1830 0.9659
vn -0.3152 -0.3152 0.8951
vn -0.5000 -0.5000 0.7071
vn -0.5903 -0.5903 0.5506
vn 0.5927 -0.5927 -0.5453
vn 0.3536 -0.3536 -0.8660
vn 0.2977 -0.2977 -0.9070
vn 0.1830 -0.1830 -0.9659
vn 0.0332 -0.0333 -0.9989
vn -0.1830 0.1830 -0.9659
vn -0.2979 0.2979 -0.9069
vn -0.3536 0.3536 -0.8660
vn -0.5887 0.5887 -0.5540
vn -0.5890 0.5890 0.5533
vn -0.2983 0.2983 0.9067
vn -0.1830 0.1830 0.9659
vn 0.0330 -0.0330 0.9989
vn 0.1830 -0.1830 0.9659
vn 0.2982 -0.2982 0.9067
vn 0.3536 -0.3536 0.8660
vn 0.5934 -0.5934 0.5438
vn 0.6830 -0.6830 0.2588
vn -0.7044 -0.7044 0.0875
vn 0.7044 0.7044 -0.0875
vn -0.0619 -0.0619 -0.9962
vn 0.0619 0.0619 0.9962
vn -0.6930 0.5694 -0.4421
vn 0.6348 0.7727 -0.0000
vn 0.6930 -0.5694 0.4421
vn 0.3416 -0.2807 -0.8969
vn -0.3416 0.2807 0.8969
vt 0.472416 0.752544
vt 0.457975 0.715646
vt 0.461728 0.714631
vt 0.475448 0.750354
vt 0.738278 0.743940
vt 0.736411 0.754667
vt 0.733391 0.752130
vt 0.734969 0.741980
vt 0.749387 0.588311
vt 0.758323 0.627036
vt 0.754129 0.628208
vt 0.745394 0.590486
vt 0.478655 0.784560
vt 0.477304 0.773367
vt 0.479785 0.770371
vt 0.481085 0.781320
vt 0.479393 0.795978
vt 0.481951 0.792463
vt 0.443677 0.639861
vt 0.449289 0.601387
vt 0.453360 0.603177
vt 0.447864 0.640675
vt 0.475286 0.762676
vt 0.477919 0.759968
vt 0.463865 0.565235
vt 0.467582 0.567972
vt 0.516927 0.508095
vt 0.552755 0.490666
vt 0.554201 0.495497
vt 0.519301 0.512394
vt 0.671698 0.499754
vt 0.704949 0.522553
vt 0.702099 0.526515
vt 0.669737 0.504368
vt 0.735190 0.778407
vt 0.735292 0.791260
vt 0.732250 0.787452
vt 0.732199 0.775097
vt 0.592473 0.482441
vt 0.633474 0.485965
vt 0.632563 0.491009
vt 0.592841 0.487735
vt 0.446952 0.678510
vt 0.451035 0.678414
vt 0.486787 0.533503
vt 0.489930 0.537093
vt 0.735461 0.766155
vt 0.732509 0.763235
vt 0.731315 0.552737
vt 0.727777 0.555867
vt 0.758097 0.666599
vt 0.749853 0.705198
vt 0.745955 0.704473
vt 0.753940 0.666828
vt 0.593819 0.504382
vt 0.559362 0.511047
vt 0.566141 0.531866
vt 0.562786 0.521512
vt 0.594449 0.515526
vt 0.595048 0.526501
vt 0.528068 0.526010
vt 0.539733 0.544289
vt 0.533941 0.535194
vt 0.501666 0.548064
vt 0.517389 0.562799
vt 0.509573 0.555457
vt 0.481562 0.575737
vt 0.500347 0.586165
vt 0.490998 0.580966
vt 0.468761 0.607361
vt 0.489487 0.612974
vt 0.479159 0.610183
vt 0.463840 0.641161
vt 0.485406 0.641757
vt 0.474653 0.641485
vt 0.466843 0.675451
vt 0.488285 0.671117
vt 0.477587 0.673348
vt 0.477190 0.709247
vt 0.498289 0.700010
vt 0.487873 0.704958
vt 0.490995 0.744804
vt 0.516054 0.739011
vt 0.502230 0.739336
vt 0.718523 0.737593
vt 0.729785 0.700249
vt 0.707619 0.692541
vt 0.718580 0.696745
vt 0.706538 0.732817
vt 0.692310 0.733402
vt 0.737642 0.665105
vt 0.715553 0.662448
vt 0.726572 0.663845
vt 0.737933 0.630044
vt 0.716106 0.632444
vt 0.726984 0.631272
vt 0.730088 0.596087
vt 0.709539 0.603595
vt 0.719772 0.599868
vt 0.714264 0.565045
vt 0.696169 0.577359
vt 0.705174 0.571236
vt 0.691243 0.538800
vt 0.676741 0.555255
vt 0.683949 0.547067
vt 0.662276 0.519068
vt 0.652357 0.538709
vt 0.657278 0.528945
vt 0.629095 0.507234
vt 0.624514 0.528860
vt 0.626783 0.518116
vt 0.705005 0.745055
vt 0.716874 0.749098
vt 0.715988 0.761409
vt 0.704488 0.758614
vt 0.715681 0.774226
vt 0.704626 0.772814
vt 0.692562 0.745193
vt 0.715648 0.779492
vt 0.724903 0.787442
vt 0.724463 0.786217
vt 0.708281 0.777585
vt 0.704736 0.776780
vt 0.694545 0.778889
vt 0.692395 0.780824
vt 0.692472 0.772507
vt 0.697513 0.778231
vt 0.692625 0.758460
vt 0.493437 0.755735
vt 0.495174 0.767375
vt 0.504533 0.751043
vt 0.505905 0.763983
vt 0.496311 0.779384
vt 0.506603 0.777457
vt 0.516514 0.750412
vt 0.517226 0.763152
vt 0.518111 0.776565
vt 0.510838 0.781730
vt 0.506713 0.781218
vt 0.518541 0.784514
vt 0.516453 0.782762
vt 0.496696 0.784272
vt 0.499951 0.783186
vt 0.492166 0.788211
vt 0.488909 0.790919
vt 0.488577 0.792091
vt 0.595629 0.537556
vt 0.596187 0.548493
vt 0.572805 0.552703
vt 0.569499 0.542328
vt 0.551344 0.562656
vt 0.545571 0.553503
vt 0.533135 0.577657
vt 0.525293 0.570247
vt 0.519250 0.596679
vt 0.509822 0.591435
vt 0.510405 0.618560
vt 0.499969 0.615787
vt 0.507212 0.642128
vt 0.496331 0.641978
vt 0.509906 0.666144
vt 0.499140 0.668697
vt 0.518756 0.689346
vt 0.508663 0.694723
vt 0.622225 0.539692
vt 0.619956 0.550412
vt 0.647390 0.548571
vt 0.642474 0.558341
vt 0.669459 0.563531
vt 0.662235 0.571739
vt 0.687055 0.583549
vt 0.677995 0.589688
vt 0.699170 0.607349
vt 0.688856 0.611057
vt 0.705060 0.633573
vt 0.694070 0.634631
vt 0.704360 0.660871
vt 0.693267 0.659153
vt 0.696680 0.687985
vt 0.686040 0.683325
vt 0.684728 0.733695
vt 0.677439 0.734069
vt 0.685142 0.745359
vt 0.678047 0.745573
vt 0.685372 0.758472
vt 0.678419 0.758540
vt 0.685405 0.772433
vt 0.678601 0.772414
vt 0.685414 0.786670
vt 0.678680 0.786652
vt 0.530454 0.738894
vt 0.523401 0.738889
vt 0.530522 0.749957
vt 0.523670 0.750148
vt 0.530873 0.762458
vt 0.524182 0.762767
vt 0.531378 0.775836
vt 0.524854 0.776168
vt 0.531882 0.789564
vt 0.525419 0.789864
vt 0.523988 0.788805
vt 0.524379 0.789920
vt 0.686855 0.785514
vt 0.686506 0.786681
vt 0.517700 0.813173
vt 0.519629 0.811208
vt 0.519922 0.829637
vt 0.507954 0.829768
vt 0.507675 0.815540
vt 0.508634 0.815719
vt 0.685394 0.799154
vt 0.685248 0.827300
vt 0.679085 0.827132
vt 0.685422 0.790175
vt 0.683692 0.794633
vt 0.686840 0.803846
vt 0.692152 0.808691
vt 0.691668 0.827610
vt 0.498179 0.829952
vt 0.498132 0.813798
vt 0.489531 0.807884
vt 0.483110 0.830337
vt 0.486183 0.799577
vt 0.703726 0.813474
vt 0.704743 0.813238
vt 0.704087 0.828374
vt 0.694230 0.810697
vt 0.715437 0.811068
vt 0.714723 0.829128
vt 0.527337 0.797484
vt 0.525546 0.793248
vt 0.532737 0.829657
vt 0.526409 0.829649
vt 0.525872 0.801879
vt 0.524638 0.806462
vt 0.727842 0.795544
vt 0.731825 0.830051
vt 0.724393 0.804816
vt 0.543256 0.630521
vt 0.535823 0.632618
vt 0.535727 0.620291
vt 0.597091 0.566969
vt 0.590839 0.568071
vt 0.528195 0.607633
vt 0.656772 0.625920
vt 0.649400 0.628442
vt 0.648567 0.615921
vt 0.735028 0.830415
vt 0.480378 0.830415
vt 0.550527 0.619970
vt 0.556311 0.637804
vt 0.550755 0.632403
vt 0.555851 0.614352
vt 0.558379 0.645299
vt 0.592953 0.614889
vt 0.599409 0.615369
vt 0.543146 0.622135
vt 0.530389 0.638142
vt 0.530277 0.614978
vt 0.535321 0.594721
vt 0.530058 0.600235
vt 0.542633 0.592557
vt 0.580210 0.574806
vt 0.576551 0.579984
vt 0.603427 0.567507
vt 0.614677 0.573270
vt 0.618827 0.578117
vt 0.654052 0.587623
vt 0.661605 0.589151
vt 0.667406 0.594240
vt 0.550049 0.594319
vt 0.574341 0.585926
vt 0.646761 0.590051
vt 0.621598 0.583869
vt 0.585083 0.570749
vt 0.574849 0.598456
vt 0.557228 0.605210
vt 0.555572 0.599554
vt 0.641692 0.595811
vt 0.640528 0.601633
vt 0.622286 0.596433
vt 0.622779 0.590101
vt 0.573768 0.592216
vt 0.609423 0.569656
vt 0.556347 0.652781
vt 0.642828 0.642029
vt 0.645552 0.649406
vt 0.550705 0.658279
vt 0.651743 0.654526
vt 0.543317 0.660532
vt 0.659263 0.656154
vt 0.672960 0.639939
vt 0.670349 0.632524
vt 0.668488 0.609141
vt 0.669929 0.601548
vt 0.671575 0.647722
vt 0.666517 0.653671
vt 0.535890 0.658683
vt 0.530394 0.653219
vt 0.528405 0.645654
vt 0.663471 0.614971
vt 0.664425 0.627406
vt 0.656169 0.617465
vt 0.644279 0.634327
vt 0.642741 0.610744
vt 0.640220 0.603373
vt 0.620144 0.602432
vt 0.616495 0.607667
vt 0.611594 0.611732
vt 0.605762 0.614364
vt 0.586888 0.612751
vt 0.581631 0.609118
vt 0.557703 0.606874
vt 0.577525 0.604227
vt 0.485469 0.872659
vt 0.488868 0.878594
vt 0.490201 0.883769
vt 0.490269 0.886809
vt 0.481124 0.884890
vt 0.479080 0.876744
vt 0.488888 0.899318
vt 0.479005 0.892729
vt 0.490372 0.895177
vt 0.486875 0.903301
vt 0.482259 0.909871
vt 0.474058 0.898677
vt 0.477324 0.910711
vt 0.468951 0.910016
vt 0.466761 0.900563
vt 0.458282 0.905119
vt 0.458974 0.899956
vt 0.451742 0.893226
vt 0.455777 0.903630
vt 0.448971 0.894641
vt 0.443677 0.882688
vt 0.449124 0.883794
vt 0.443677 0.869414
vt 0.452278 0.876794
vt 0.458188 0.872023
vt 0.448486 0.856062
vt 0.449815 0.855710
vt 0.465502 0.869611
vt 0.462878 0.855909
vt 0.468213 0.857207
vt 0.476256 0.862151
vt 0.472932 0.871330
vt 0.481715 0.866738
vt 0.557097 0.893899
vt 0.550784 0.889616
vt 0.553132 0.881582
vt 0.562244 0.880016
vt 0.562097 0.883018
vt 0.560623 0.888109
vt 0.551371 0.873883
vt 0.561214 0.867626
vt 0.562616 0.871755
vt 0.558452 0.861365
vt 0.546914 0.867693
vt 0.555464 0.856927
vt 0.547510 0.855710
vt 0.539729 0.865442
vt 0.542612 0.856159
vt 0.531228 0.866053
vt 0.530032 0.861332
vt 0.535176 0.858312
vt 0.527839 0.862586
vt 0.523654 0.872763
vt 0.520930 0.871355
vt 0.521093 0.882211
vt 0.515667 0.883277
vt 0.524203 0.889316
vt 0.515667 0.897093
vt 0.529940 0.894235
vt 0.521465 0.910268
vt 0.520142 0.909908
vt 0.537137 0.896781
vt 0.534385 0.910258
vt 0.544476 0.895034
vt 0.547743 0.904231
vt 0.539706 0.909052
vt 0.553261 0.899744
vt 0.047757 0.931376
vt 0.047757 0.948300
vt 0.038664 0.948300
vt 0.038664 0.931376
vt 0.021740 0.948300
vt 0.021740 0.931376
vt 0.012647 0.948300
vt 0.012647 0.931376
vt 0.021740 0.922284
vt 0.038664 0.922284
vt 0.038664 0.957393
vt 0.021740 0.957393
vt 0.108161 0.931376
vt 0.108161 0.948300
vt 0.099068 0.948300
vt 0.099068 0.931376
vt 0.082144 0.948300
vt 0.082144 0.931376
vt 0.073052 0.948300
vt 0.073052 0.931376
vt 0.082144 0.922284
vt 0.099068 0.922284
vt 0.099068 0.957393
vt 0.082144 0.957393
vt 0.929500 0.620324
vt 0.924144 0.615189
vt 0.927799 0.608676
vt 0.935164 0.610724
vt 0.928041 0.601183
vt 0.935782 0.599246
vt 0.924592 0.594663
vt 0.930530 0.588071
vt 0.917629 0.591972
vt 0.918841 0.584074
vt 0.910354 0.592834
vt 0.907660 0.585791
vt 0.904371 0.597065
vt 0.898799 0.592204
vt 0.900976 0.603554
vt 0.893858 0.601827
vt 0.900788 0.610716
vt 0.893858 0.612632
vt 0.903734 0.617350
vt 0.899248 0.622229
vt 0.910623 0.619707
vt 0.909268 0.626852
vt 0.917873 0.619026
vt 0.920159 0.626058
vt 0.915429 0.516727
vt 0.920982 0.511994
vt 0.926894 0.516269
vt 0.924032 0.523108
vt 0.934191 0.517344
vt 0.934766 0.525069
vt 0.941271 0.514787
vt 0.948202 0.520841
vt 0.943788 0.522810
vt 0.944596 0.507770
vt 0.952591 0.509379
vt 0.944371 0.500282
vt 0.951664 0.498103
vt 0.940805 0.493924
vt 0.945992 0.488731
vt 0.934418 0.490175
vt 0.936617 0.483125
vt 0.927109 0.489533
vt 0.925737 0.482441
vt 0.920343 0.491947
vt 0.915874 0.487121
vt 0.917459 0.498466
vt 0.910607 0.496591
vt 0.917643 0.505553
vt 0.910607 0.507237
vt 0.351796 0.923945
vt 0.350463 0.916754
vt 0.357173 0.914222
vt 0.361727 0.919129
vt 0.340621 0.923239
vt 0.342938 0.916218
vt 0.331206 0.917160
vt 0.336757 0.911982
vt 0.325621 0.907329
vt 0.333014 0.905410
vt 0.325354 0.895778
vt 0.332677 0.897485
vt 0.335375 0.890681
vt 0.330814 0.885742
vt 0.342408 0.888464
vt 0.341254 0.881081
vt 0.350146 0.889396
vt 0.352657 0.882284
vt 0.356274 0.893689
vt 0.361883 0.888671
vt 0.359799 0.900350
vt 0.367047 0.898531
vt 0.367047 0.909591
vt 0.360003 0.907828
vt 0.938187 0.944760
vt 0.936492 0.937753
vt 0.942952 0.935006
vt 0.947649 0.939747
vt 0.927397 0.944745
vt 0.928994 0.937545
vt 0.916541 0.938504
vt 0.922438 0.933790
vt 0.919548 0.941021
vt 0.911331 0.928875
vt 0.918730 0.927230
vt 0.911158 0.917358
vt 0.918528 0.919163
vt 0.921319 0.912246
vt 0.916643 0.907243
vt 0.928403 0.909806
vt 0.927110 0.902398
vt 0.936223 0.910521
vt 0.938571 0.903447
vt 0.942211 0.914706
vt 0.947713 0.909746
vt 0.945643 0.921255
vt 0.952781 0.919461
vt 0.952781 0.930330
vt 0.945800 0.928626
vt 0.216829 0.931409
vt 0.201477 0.931409
vt 0.201477 0.922284
vt 0.216829 0.922284
vt 0.216829 0.955885
vt 0.201477 0.955885
vt 0.201477 0.946760
vt 0.216829 0.946760
vt 0.225954 0.931409
vt 0.225954 0.946760
vt 0.192352 0.946760
vt 0.192352 0.931409
vt 0.275725 0.946760
vt 0.275725 0.931409
vt 0.284850 0.931409
vt 0.284850 0.946760
vt 0.251249 0.946760
vt 0.251249 0.931409
vt 0.260374 0.931409
vt 0.260374 0.946760
vt 0.275725 0.955885
vt 0.260374 0.955885
vt 0.260374 0.922284
vt 0.275725 0.922284
vt 0.844922 0.949992
vt 0.844922 0.934641
vt 0.854047 0.934641
vt 0.854047 0.949992
vt 0.820446 0.949992
vt 0.820446 0.934641
vt 0.829571 0.934641
vt 0.829571 0.949992
vt 0.844922 0.959118
vt 0.829571 0.959118
vt 0.829571 0.925516
vt 0.844922 0.925516
vt 0.157932 0.946760
vt 0.157932 0.931409
vt 0.167057 0.931409
vt 0.167057 0.946760
vt 0.133456 0.946760
vt 0.133456 0.931409
vt 0.142581 0.931409
vt 0.142581 0.946760
vt 0.157932 0.955885
vt 0.142581 0.955885
vt 0.142581 0.922284
vt 0.157932 0.922284
vt 0.874631 0.891340
vt 0.872158 0.888602
vt 0.876928 0.883123
vt 0.879998 0.885214
vt 0.880294 0.876602
vt 0.883827 0.877921
vt 0.882019 0.869331
vt 0.885863 0.869762
vt 0.881889 0.861641
vt 0.885863 0.861067
vt 0.879688 0.853963
vt 0.883558 0.852239
vt 0.875196 0.846933
vt 0.878566 0.843788
vt 0.868491 0.841974
vt 0.870479 0.838230
vt 0.860985 0.839233
vt 0.861836 0.835311
vt 0.853329 0.838569
vt 0.853167 0.834706
vt 0.845955 0.839783
vt 0.844887 0.836167
vt 0.839218 0.842680
vt 0.837348 0.839473
vt 0.833423 0.847056
vt 0.830866 0.844398
vt 0.828837 0.852659
vt 0.825721 0.850680
vt 0.825706 0.859226
vt 0.822174 0.858036
vt 0.824226 0.866442
vt 0.820446 0.866140
vt 0.824576 0.873945
vt 0.820746 0.874622
vt 0.826888 0.881301
vt 0.823277 0.883029
vt 0.831152 0.887990
vt 0.828235 0.890705
vt 0.837518 0.892725
vt 0.835537 0.896205
vt 0.844697 0.895550
vt 0.843751 0.899325
vt 0.852161 0.896427
vt 0.852197 0.900221
vt 0.859467 0.895455
vt 0.860409 0.899063
vt 0.866241 0.892784
vt 0.867999 0.896034
vt 0.868327 0.884377
vt 0.863538 0.887756
vt 0.860623 0.882285
vt 0.864152 0.879794
vt 0.872164 0.879924
vt 0.873938 0.856686
vt 0.870362 0.851423
vt 0.874822 0.874624
vt 0.876099 0.868759
vt 0.830418 0.872825
vt 0.832358 0.878586
vt 0.865366 0.847515
vt 0.858057 0.889881
vt 0.835798 0.883646
vt 0.840614 0.887457
vt 0.842080 0.847654
vt 0.837371 0.851168
vt 0.833662 0.855705
vt 0.831166 0.861025
vt 0.875846 0.862643
vt 0.830041 0.866840
vt 0.846226 0.889799
vt 0.852172 0.890595
vt 0.853487 0.844517
vt 0.847549 0.845381
vt 0.859560 0.845198
vt 0.853496 0.850889
vt 0.849156 0.851458
vt 0.838915 0.858993
vt 0.837096 0.862911
vt 0.868870 0.872593
vt 0.869740 0.868301
vt 0.841646 0.855651
vt 0.869475 0.863890
vt 0.836626 0.871507
vt 0.838073 0.875624
vt 0.852284 0.884319
vt 0.856590 0.883832
vt 0.836305 0.867168
vt 0.865476 0.855994
vt 0.861981 0.853191
vt 0.857875 0.851460
vt 0.843969 0.881964
vt 0.847978 0.883695
vt 0.845127 0.853086
vt 0.840572 0.879210
vt 0.866956 0.876499
vt 0.868039 0.859670
vt 0.858838 0.873999
vt 0.860329 0.872223
vt 0.860827 0.863419
vt 0.859513 0.861555
vt 0.856953 0.875344
vt 0.861327 0.870127
vt 0.861759 0.867864
vt 0.844373 0.869772
vt 0.845136 0.871910
vt 0.857746 0.860120
vt 0.854788 0.876169
vt 0.846432 0.873752
vt 0.848181 0.875178
vt 0.848927 0.859993
vt 0.847053 0.861356
vt 0.845581 0.863144
vt 0.844607 0.865236
vt 0.861590 0.865568
vt 0.844194 0.867500
vt 0.850251 0.876087
vt 0.852505 0.876424
vt 0.853375 0.858877
vt 0.851079 0.859148
vt 0.855645 0.859206
vt 0.868563 0.625778
vt 0.868563 0.628559
vt 0.857916 0.628559
vt 0.857916 0.625778
vt 0.868563 0.631339
vt 0.868563 0.634119
vt 0.857916 0.634119
vt 0.857916 0.631339
vt 0.868563 0.595195
vt 0.868563 0.597976
vt 0.857916 0.597976
vt 0.857916 0.595195
vt 0.868563 0.614657
vt 0.868563 0.617438
vt 0.857916 0.617438
vt 0.857916 0.614657
vt 0.868563 0.603536
vt 0.868563 0.606316
vt 0.857916 0.606316
vt 0.857916 0.603536
vt 0.868563 0.584074
vt 0.868563 0.586855
vt 0.857916 0.586855
vt 0.857916 0.584074
vt 0.868563 0.611877
vt 0.857916 0.611877
vt 0.868563 0.600756
vt 0.857916 0.600756
vt 0.868563 0.639680
vt 0.868563 0.642460
vt 0.857916 0.642460
vt 0.857916 0.639680
vt 0.868563 0.636899
vt 0.857916 0.636899
vt 0.868563 0.620218
vt 0.857916 0.620218
vt 0.868563 0.589635
vt 0.868563 0.592415
vt 0.857916 0.592415
vt 0.857916 0.589635
vt 0.868563 0.645240
vt 0.868563 0.648021
vt 0.857916 0.648021
vt 0.857916 0.645240
vt 0.868563 0.609097
vt 0.857916 0.609097
vt 0.868563 0.650801
vt 0.857916 0.650801
vt 0.868563 0.622998
vt 0.857916 0.622998
vt 0.331837 0.969638
vt 0.329430 0.968248
vt 0.327464 0.966282
vt 0.326074 0.963875
vt 0.325354 0.961189
vt 0.325354 0.958409
vt 0.326074 0.955723
vt 0.327464 0.953315
vt 0.329430 0.951349
vt 0.331837 0.949959
vt 0.334523 0.949240
vt 0.337303 0.949240
vt 0.339989 0.949959
vt 0.342397 0.951349
vt 0.344363 0.953315
vt 0.345753 0.955723
vt 0.346472 0.958409
vt 0.346472 0.961189
vt 0.345753 0.963875
vt 0.344363 0.966282
vt 0.342397 0.968248
vt 0.339989 0.969638
vt 0.337303 0.970358
vt 0.334523 0.970358
vt 0.905869 0.405123
vt 0.904179 0.396758
vt 0.910070 0.392108
vt 0.911121 0.395062
vt 0.911121 0.405759
vt 0.903318 0.379942
vt 0.908062 0.385448
vt 0.898405 0.390949
vt 0.890594 0.388521
vt 0.893520 0.372906
vt 0.895210 0.372926
vt 0.882594 0.389329
vt 0.880892 0.378968
vt 0.886978 0.374378
vt 0.876187 0.383228
vt 0.875903 0.394028
vt 0.872636 0.390245
vt 0.871507 0.392626
vt 0.872941 0.403038
vt 0.870241 0.403109
vt 0.875171 0.412097
vt 0.871200 0.414930
vt 0.877836 0.427505
vt 0.873673 0.422587
vt 0.880889 0.417607
vt 0.889738 0.435049
vt 0.883365 0.432828
vt 0.888632 0.419366
vt 0.896568 0.417875
vt 0.900300 0.429144
vt 0.891401 0.435218
vt 0.905632 0.424127
vt 0.902687 0.412862
vt 0.908317 0.417503
vt 0.872342 0.303983
vt 0.873894 0.301311
vt 0.879055 0.307388
vt 0.876093 0.315899
vt 0.870241 0.315884
vt 0.870358 0.311415
vt 0.885576 0.302587
vt 0.880780 0.291237
vt 0.883770 0.287535
vt 0.890505 0.284704
vt 0.892287 0.284833
vt 0.893148 0.300691
vt 0.898574 0.287155
vt 0.903994 0.292496
vt 0.900969 0.302594
vt 0.908089 0.297299
vt 0.910751 0.304645
vt 0.907085 0.307995
vt 0.911575 0.307106
vt 0.911665 0.317523
vt 0.909011 0.317177
vt 0.905861 0.325773
vt 0.909512 0.329026
vt 0.901752 0.341047
vt 0.899415 0.330883
vt 0.906322 0.336500
vt 0.895831 0.345911
vt 0.889314 0.347611
vt 0.891633 0.332150
vt 0.887543 0.347564
vt 0.881120 0.344079
vt 0.878447 0.340006
vt 0.884486 0.329589
vt 0.878786 0.324202
vt 0.872833 0.329167
vt 0.870241 0.320391
vt 0.920421 0.687994
vt 0.903141 0.687994
vt 0.903141 0.678711
vt 0.920421 0.678711
vt 0.903141 0.661430
vt 0.920421 0.661430
vt 0.903141 0.652147
vt 0.920421 0.652147
vt 0.929705 0.661430
vt 0.929705 0.678711
vt 0.893858 0.678711
vt 0.893858 0.661430
vt 0.750193 0.429412
vt 0.750193 0.446693
vt 0.740909 0.446692
vt 0.740909 0.429412
vt 0.723629 0.446692
vt 0.723629 0.429412
vt 0.714346 0.446692
vt 0.714346 0.429412
vt 0.723629 0.420129
vt 0.740909 0.420129
vt 0.740909 0.455976
vt 0.723629 0.455976
s 1
usemtl Firebox
f 10/1/1 9/2/2 188/3/3 76/4/4
f 11/5/5 22/6/6 184/7/7 195/8/8
f 15/9/9 14/10/10 128/11/11 182/12/12
f 27/13/13 26/14/14 118/15/15 133/16/16
f 20/17/17 27/13/13 133/16/16 149/18/18
f 7/19/19 6/20/20 43/21/21 141/22/22
f 26/14/14 25/23/23 77/24/24 118/15/15
f 6/20/20 5/25/25 42/26/26 43/21/21
f 3/27/27 2/28/28 108/29/29 174/30/30
f 18/31/31 17/32/32 49/33/33 50/34/34
f 24/35/35 21/36/36 131/37/37 75/38/38
f 1/39/39 19/40/40 113/41/41 100/42/39
f 8/43/42 7/19/19 141/22/22 153/44/43
f 5/25/25 4/45/44 179/46/45 42/26/26
f 22/6/6 23/47/46 185/48/47 184/7/7
f 25/23/23 10/1/1 76/4/4 77/24/24
f 9/2/2 8/43/42 153/44/43 188/3/3
f 17/32/32 16/49/48 183/50/49 49/33/33
f 13/51/50 12/52/51 45/53/52 111/54/53
f 2/28/28 1/39/39 100/42/39 108/29/29
f 16/49/48 15/9/9 182/12/12 183/50/49
f 12/52/51 11/5/5 195/8/8 45/53/52
f 4/45/44 3/27/27 174/30/30 179/46/45
f 19/40/40 18/31/31 50/34/34 113/41/41
f 14/10/10 13/51/50 111/54/53 128/11/11
f 23/47/46 24/35/35 75/38/38 185/48/47
f 100/42/54 65/55/55 89/56/56 108/29/57
f 78/57/58 124/58/59 101/59/60 34/60/61
f 65/55/55 101/59/60 124/58/59 89/56/56
f 108/29/57 89/56/56 151/61/62 174/30/63
f 134/62/64 161/63/65 124/58/59 78/57/58
f 89/56/56 124/58/59 161/63/65 151/61/62
f 174/30/63 151/61/62 187/64/66 179/46/67
f 165/65/68 169/66/69 161/63/65 134/62/64
f 151/61/62 161/63/65 169/66/69 187/64/66
f 179/46/67 187/64/66 60/67/70 42/26/71
f 186/68/72 197/69/73 169/66/69 165/65/68
f 187/64/66 169/66/69 197/69/73 60/67/70
f 42/26/71 60/67/70 61/70/74 43/21/75
f 40/71/76 41/72/77 197/69/73 186/68/72
f 60/67/70 197/69/73 41/72/77 61/70/74
f 43/21/75 61/70/74 95/73/78 141/22/79
f 56/74/80 110/75/81 41/72/77 40/71/76
f 61/70/74 41/72/77 110/75/81 95/73/78
f 141/22/79 95/73/78 163/76/82 153/44/83
f 119/77/84 127/78/85 110/75/81 56/74/80
f 95/73/78 110/75/81 127/78/85 163/76/82
f 153/44/83 163/76/82 170/79/86 188/3/87
f 159/80/88 175/81/89 127/78/85 119/77/84
f 163/76/82 127/78/85 175/81/89 170/79/86
f 188/3/87 170/79/86 198/82/90 76/4/91
f 177/83/92 180/84/93 175/81/89 159/80/88
f 170/79/86 175/81/89 180/84/93 198/82/90
f 195/8/94 196/85/95 44/86/96 45/53/97
f 160/87/98 64/88/99 156/89/100 150/90/101
f 196/85/95 156/89/100 64/88/99 44/86/96
f 45/53/97 44/86/96 46/91/102 111/54/103
f 172/92/104 67/93/105 64/88/99 160/87/98
f 44/86/96 64/88/99 67/93/105 46/91/102
f 111/54/103 46/91/102 144/94/106 128/11/107
f 47/95/108 48/96/109 67/93/105 172/92/104
f 46/91/102 67/93/105 48/96/109 144/94/106
f 128/11/107 144/94/106 129/97/110 182/12/111
f 51/98/112 142/99/113 48/96/109 47/95/108
f 144/94/106 48/96/109 142/99/113 129/97/110
f 182/12/111 129/97/110 130/100/114 183/50/115
f 125/101/116 143/102/117 142/99/113 51/98/112
f 129/97/110 142/99/113 143/102/117 130/100/114
f 183/50/115 130/100/114 99/103/118 49/33/119
f 162/104/120 98/105/121 143/102/117 125/101/116
f 130/100/114 143/102/117 98/105/121 99/103/118
f 49/33/119 99/103/118 97/106/122 50/34/123
f 178/107/124 112/108/125 98/105/121 162/104/120
f 99/103/118 98/105/121 112/108/125 97/106/122
f 50/34/123 97/106/122 66/109/126 113/41/127
f 69/110/128 70/111/129 112/108/125 178/107/124
f 97/106/122 112/108/125 70/111/129 66/109/126
f 113/41/127 66/109/126 65/55/55 100/42/54
f 34/60/61 101/59/60 70/111/129 69/110/128
f 66/109/126 70/111/129 101/59/60 65/55/55
f 73/112/130 189/113/131 190/114/132 54/115/133
f 189/113/131 184/7/134 185/48/135 190/114/132
f 54/115/133 190/114/132 74/116/136 117/117/137
f 190/114/132 185/48/135 75/38/138 74/116/136
f 150/90/101 156/89/100 73/112/130 55/118/139
f 156/89/100 196/85/95 189/113/131 73/112/130
f 196/85/95 195/8/94 184/7/134 189/113/131
f 337/119/140 74/116/136 75/38/138 131/37/141 204/120/142 203/121/142
f 117/117/137 74/116/136 337/119/140 301/122/143 71/123/137
f 214/124/144 212/125/145 116/126/146 117/117/137 71/123/137 216/127/144
f 53/128/147 54/115/133 117/117/137 116/126/146
f 55/118/139 73/112/130 54/115/133 53/128/147
f 77/24/148 102/129/149 104/130/150 118/15/151
f 102/129/149 103/131/152 148/132/153 104/130/150
f 118/15/151 104/130/150 164/133/154 133/16/155
f 104/130/150 148/132/153 105/134/156 164/133/154
f 76/4/91 198/82/90 102/129/149 77/24/148
f 198/82/90 180/84/93 103/131/152 102/129/149
f 180/84/93 177/83/92 132/135/157 103/131/152
f 103/131/152 132/135/157 82/136/158 148/132/153
f 148/132/153 82/136/158 81/137/159 105/134/156
f 338/138/160 342/139/160 105/134/156 81/137/159 332/140/161 206/141/162
f 341/142/154 164/133/154 105/134/156 342/139/160 218/143/154
f 164/133/154 341/142/154 114/144/163 115/145/164 202/146/165 149/18/166 133/16/155
f 35/147/167 201/148/168 191/149/168 120/150/169
f 120/150/169 191/149/168 192/151/168 166/152/170
f 166/152/170 192/151/168 79/153/168 87/154/171
f 87/154/171 79/153/168 80/155/168 106/156/172
f 106/156/172 80/155/168 30/157/168 36/158/173
f 36/158/173 30/157/168 31/159/168 58/160/174
f 58/160/174 31/159/168 147/161/168 137/162/175
f 137/162/175 147/161/168 121/163/168 90/164/176
f 88/165/177 194/166/168 201/148/168 35/147/167
f 37/167/178 193/168/168 194/166/168 88/165/177
f 38/169/179 200/170/168 193/168/168 37/167/178
f 138/171/180 199/172/168 200/170/168 38/169/179
f 52/173/181 173/174/168 199/172/168 138/171/180
f 107/175/182 167/176/168 173/174/168 52/173/181
f 158/177/183 171/178/168 167/176/168 107/175/182
f 168/179/184 136/180/168 171/178/168 158/177/183
f 139/181/185 135/182/168 136/180/168 168/179/184
f 39/183/186 32/184/168 135/182/168 139/181/185
f 59/185/186 33/186/168 32/184/168 39/183/186
f 152/187/186 57/188/168 33/186/168 59/185/186
f 109/189/186 83/190/168 57/188/168 152/187/186
f 90/164/176 121/163/168 122/191/168 91/192/187
f 91/192/187 122/191/168 140/193/168 123/194/188
f 123/194/188 140/193/168 126/195/168 92/196/188
f 92/196/188 126/195/168 86/197/168 93/198/188
f 93/198/188 86/197/168 85/199/168 94/200/188
f 217/201/189 332/140/161 81/137/159 93/198/188 94/200/188 333/202/189
f 82/136/158 92/196/188 93/198/188 81/137/159
f 132/135/157 123/194/188 92/196/188 82/136/158
f 177/83/92 91/192/187 123/194/188 132/135/157
f 159/80/88 90/164/176 91/192/187 177/83/92
f 305/203/190 306/204/190 109/189/186 152/187/186 116/126/146 212/125/145
f 116/126/146 152/187/186 59/185/186 53/128/147
f 53/128/147 59/185/186 39/183/186 55/118/139
f 55/118/139 39/183/186 139/181/185 150/90/101
f 150/90/101 139/181/185 168/179/184 160/87/98
f 160/87/98 168/179/184 158/177/183 172/92/104
f 172/92/104 158/177/183 107/175/182 47/95/108
f 47/95/108 107/175/182 52/173/181 51/98/112
f 51/98/112 52/173/181 138/171/180 125/101/116
f 125/101/116 138/171/180 38/169/179 162/104/120
f 162/104/120 38/169/179 37/167/178 178/107/124
f 178/107/124 37/167/178 88/165/177 69/110/128
f 69/110/128 88/165/177 35/147/167 34/60/61
f 119/77/84 137/162/175 90/164/176 159/80/88
f 56/74/80 58/160/174 137/162/175 119/77/84
f 40/71/76 36/158/173 58/160/174 56/74/80
f 186/68/72 106/156/172 36/158/173 40/71/76
f 165/65/68 87/154/171 106/156/172 186/68/72
f 134/62/64 166/152/170 87/154/171 165/65/68
f 78/57/58 120/150/169 166/152/170 134/62/64
f 34/60/61 35/147/167 120/150/169 78/57/58
f 303/205/191 72/206/191 62/207/191 63/208/192 146/209/192 145/210/192
f 344/211/193 157/212/186 84/213/168 83/190/168 109/189/186 343/214/193 213/215/194
f 343/214/193 109/189/186 306/204/190
f 304/216/190 302/217/195 154/218/195 157/212/186 344/211/193
f 146/209/192 63/208/192 181/219/196 307/220/197
f 336/221/198 307/220/197 181/219/196 28/222/199 149/18/166 202/146/165 315/223/200
f 325/224/201 205/225/201 155/226/201 154/218/195 302/217/195 211/227/195
f 310/228/202 176/229/203 155/226/201 205/225/201
f 215/230/204 210/231/205 94/200/188 85/199/168 96/232/168 68/233/188 208/234/205
f 209/235/189 208/234/205 68/233/188 62/207/191 72/206/191
f 94/200/188 210/231/205 333/202/189
f 207/236/206 204/120/142 131/37/141 29/237/207 176/229/203 310/228/202 311/238/206
f 388/239/168 389/240/168 251/241/168
f 201/148/168 457/242/168 246/243/168
f 30/157/168 80/155/168 364/244/168
f 381/245/168 382/246/168 229/247/168
f 219/248/208 29/237/208 131/37/37 21/36/36
f 20/17/17 149/18/18 28/222/209 220/249/210
f 240/250/168 387/251/168 241/252/168
f 240/250/168 239/253/168 387/251/168
f 374/254/168 452/255/168 235/256/168
f 242/257/168 240/250/168 388/239/168
f 240/250/168 241/252/168 388/239/168
f 243/258/168 365/259/168 251/241/168
f 251/241/168 242/257/168 388/239/168
f 389/240/168 243/258/168 251/241/168
f 221/260/168 366/261/168 80/155/168
f 80/155/168 79/153/168 221/260/168
f 79/153/168 192/151/168 363/262/168
f 192/151/168 191/149/168 455/263/168
f 191/149/168 201/148/168 246/243/168
f 192/151/168 455/263/168 247/264/168
f 201/148/168 194/166/168 245/265/168
f 194/166/168 193/168/168 244/266/168
f 244/266/168 193/168/168 233/267/168
f 193/168/168 200/170/168 386/268/168
f 200/170/168 199/172/168 228/269/168
f 386/268/168 200/170/168 228/269/168
f 199/172/168 361/270/168 228/269/168
f 79/153/168 363/262/168 221/260/168
f 363/262/168 192/151/168 362/271/168
f 362/271/168 192/151/168 458/272/168
f 193/168/168 386/268/168 230/273/168
f 193/168/168 230/273/168 449/274/168
f 233/267/168 193/168/168 449/274/168
f 455/263/168 191/149/168 456/275/168
f 249/276/168 250/277/168 252/278/168
f 252/278/168 362/271/168 458/272/168
f 230/273/168 231/279/168 449/274/168
f 231/279/168 383/280/168 448/281/168
f 231/279/168 448/281/168 447/282/168
f 248/283/168 249/276/168 252/278/168
f 458/272/168 248/283/168 252/278/168
f 231/279/168 447/282/168 449/274/168
f 247/264/168 458/272/168 192/151/168
f 194/166/168 244/266/168 454/284/168
f 456/275/168 191/149/168 246/243/168
f 194/166/168 454/284/168 245/265/168
f 201/148/168 245/265/168 457/242/168
f 375/285/168 374/254/168 373/286/168
f 375/285/168 373/286/168 376/287/168
f 367/288/168 375/285/168 376/287/168
f 367/288/168 376/287/168 223/289/168
f 370/290/168 367/288/168 121/163/168
f 367/288/168 223/289/168 122/191/168
f 122/191/168 223/289/168 135/182/168
f 223/289/168 372/291/168 136/180/168
f 122/191/168 32/184/168 140/193/168
f 371/292/168 379/293/168 167/176/168
f 379/293/168 378/294/168 173/174/168
f 377/295/168 361/270/168 199/172/168
f 379/293/168 173/174/168 167/176/168
f 378/294/168 377/295/168 173/174/168
f 377/295/168 199/172/168 173/174/168
f 167/176/168 171/178/168 222/296/168
f 171/178/168 136/180/168 224/297/168
f 167/176/168 222/296/168 371/292/168
f 222/296/168 171/178/168 224/297/168
f 136/180/168 135/182/168 223/289/168
f 224/297/168 136/180/168 372/291/168
f 135/182/168 32/184/168 122/191/168
f 32/184/168 33/186/168 140/193/168
f 33/186/168 57/188/168 126/195/168
f 83/190/168 84/213/168 96/232/168
f 33/186/168 126/195/168 140/193/168
f 57/188/168 83/190/168 86/197/168
f 126/195/168 57/188/168 86/197/168
f 368/298/168 370/290/168 121/163/168
f 83/190/168 96/232/168 85/199/168
f 83/190/168 85/199/168 86/197/168
f 367/288/168 122/191/168 121/163/168
f 369/299/168 368/298/168 147/161/168
f 365/259/168 243/258/168 30/157/168
f 243/258/168 225/300/168 31/159/168
f 30/157/168 243/258/168 31/159/168
f 225/300/168 369/299/168 31/159/168
f 368/298/168 121/163/168 147/161/168
f 147/161/168 31/159/168 369/299/168
f 364/244/168 365/259/168 30/157/168
f 80/155/168 366/261/168 364/244/168
f 380/301/168 378/294/168 379/293/168
f 380/301/168 379/293/168 226/302/168
f 227/303/168 380/301/168 381/245/168
f 380/301/168 226/302/168 381/245/168
f 232/304/168 385/305/168 229/247/168
f 229/247/168 227/303/168 381/245/168
f 382/246/168 232/304/168 229/247/168
f 384/306/168 385/305/168 450/307/168
f 385/305/168 232/304/168 234/308/168
f 234/308/168 232/304/168 453/309/168
f 232/304/168 373/286/168 453/309/168
f 373/286/168 374/254/168 235/256/168
f 236/310/168 373/286/168 235/256/168
f 374/254/168 387/251/168 237/311/168
f 387/251/168 239/253/168 451/312/168
f 390/313/168 250/277/168 249/276/168
f 387/251/168 451/312/168 237/311/168
f 239/253/168 390/313/168 238/314/168
f 373/286/168 236/310/168 453/309/168
f 448/281/168 383/280/168 384/306/168
f 450/307/168 448/281/168 384/306/168
f 239/253/168 238/314/168 451/312/168
f 390/313/168 249/276/168 238/314/168
f 234/308/168 450/307/168 385/305/168
f 374/254/168 237/311/168 452/255/168
f 213/315/211 343/316/212 306/317/212 305/318/213 312/319/214 308/320/211
f 214/321/215 318/322/216 312/319/214 305/318/213 212/323/217
f 318/322/216 214/321/215 216/324/218 71/325/219 330/326/220
f 330/326/220 71/325/219 301/327/221 337/328/222 334/329/223
f 203/330/224 323/331/225 334/329/223 337/328/222
f 319/332/226 323/331/225 203/330/224 204/333/227 207/334/226
f 311/335/228 320/336/229 319/332/226 207/334/226
f 310/337/230 326/338/231 320/336/229 311/335/228
f 329/339/232 326/338/231 310/337/230 205/340/233 325/341/234
f 335/342/235 329/339/232 325/341/234 211/343/236
f 335/342/235 211/343/236 302/344/237 304/345/238 309/346/239
f 344/347/240 213/315/211 308/320/211 309/346/239 304/345/238
f 323/331/241 319/332/241 320/336/241 326/338/241 329/339/241 335/342/241 309/346/241 308/320/241 312/319/241 318/322/241 330/326/241 334/329/241
f 215/348/242 324/349/242 328/350/243 217/351/244 333/352/245 210/353/245
f 217/351/244 328/350/243 327/354/246 206/355/247 332/356/248
f 338/357/249 206/355/247 327/354/246 321/358/250 342/359/251
f 218/360/252 342/359/251 321/358/250 322/361/253 341/362/254
f 322/361/253 313/363/255 115/364/256 114/365/257 341/362/254
f 202/366/258 115/364/256 313/363/255 314/367/241 315/368/241
f 315/368/241 314/367/241 331/369/259 336/370/260
f 339/371/261 307/372/262 336/370/260 331/369/259
f 339/371/261 340/373/263 145/374/264 146/375/265 307/372/262
f 145/374/264 340/373/263 316/376/266 303/377/267
f 316/376/266 317/378/268 209/379/269 72/380/270 303/377/267
f 208/381/271 209/379/269 317/378/268 324/349/242 215/348/242
f 328/350/226 324/349/226 317/378/226 316/376/226 340/373/226 339/371/226 331/369/226 314/367/226 313/363/226 322/361/226 321/358/226 327/354/226
s 0
f 346/382/272 347/383/272 348/384/272 345/385/272
f 345/385/226 348/384/226 350/386/226 349/387/226
f 349/387/273 350/386/273 352/388/273 351/389/273
f 345/385/274 349/387/274 351/390/274 346/391/274
f 350/386/275 348/384/275 347/392/275 352/393/275
f 354/394/276 355/395/276 356/396/276 353/397/276
f 353/397/277 356/396/277 358/398/277 357/399/277
f 357/399/278 358/398/278 360/400/278 359/401/278
f 353/397/279 357/399/279 359/402/279 354/403/279
f 358/398/280 356/396/280 355/404/280 360/405/280
s 1
f 381/406/281 253/407/281 254/408/282 382/409/282
f 382/409/282 254/408/282 255/410/283 232/411/283
f 255/410/283 256/412/284 373/413/284 232/411/283
f 256/412/284 257/414/285 376/415/285 373/413/284
f 257/414/285 258/416/286 223/417/286 376/415/285
f 258/416/286 259/418/263 372/419/263 223/417/286
f 259/418/263 260/420/287 224/421/287 372/419/263
f 260/420/287 261/422/288 222/423/288 224/421/287
f 222/423/288 261/422/288 262/424/289 371/425/289
f 371/425/289 262/424/289 263/426/290 379/427/290
f 379/427/290 263/426/290 264/428/291 226/429/291
f 226/429/291 264/428/291 253/407/281 381/406/281
f 260/420/168 259/418/168 258/416/168 257/414/168 256/412/168 255/410/168 254/408/168 253/407/168 264/428/168 263/426/168 262/424/168 261/422/168
f 386/430/281 265/431/281 266/432/282 230/433/282
f 230/433/282 266/432/282 267/434/283 231/435/283
f 267/434/283 268/436/284 384/437/284 383/438/292 231/435/283
f 268/436/284 269/439/285 385/440/285 384/437/284
f 269/439/285 270/441/286 229/442/286 385/440/285
f 270/441/286 271/443/263 227/444/263 229/442/286
f 271/443/263 272/445/287 380/446/287 227/444/263
f 380/446/287 272/445/287 273/447/288 378/448/288
f 378/448/288 273/447/288 274/449/289 377/450/289
f 377/450/289 274/449/289 275/451/290 361/452/290
f 361/452/290 275/451/290 276/453/291 228/454/291
f 228/454/291 276/453/291 265/431/281 386/430/281
f 270/441/168 269/439/168 268/436/168 267/434/168 266/432/168 265/431/168 276/453/168 275/451/168 274/449/168 273/447/168 272/445/168 271/443/168
f 241/455/291 278/456/291 277/457/281 388/458/281
f 387/459/290 279/460/290 278/456/291 241/455/291
f 374/461/289 280/462/289 279/460/290 387/459/290
f 375/463/288 281/464/288 280/462/289 374/461/289
f 367/465/287 282/466/287 281/464/288 375/463/288
f 283/467/263 282/466/287 367/465/287 370/468/263
f 284/469/286 283/467/263 370/468/263 368/470/286
f 285/471/285 284/469/286 368/470/286 369/472/285
f 286/473/284 285/471/285 369/472/285 225/474/284
f 287/475/283 286/473/284 225/474/284 243/476/283
f 389/477/282 288/478/282 287/475/283 243/476/283
f 388/458/281 277/457/281 288/478/282 389/477/282
f 278/456/168 279/460/168 280/462/168 281/464/168 282/466/168 283/467/168 284/469/168 285/471/168 286/473/168 287/475/168 288/478/168 277/457/168
f 362/479/291 290/480/291 289/481/281 363/482/281
f 252/483/290 291/484/290 290/480/291 362/479/291
f 390/485/289 292/486/289 291/484/290 252/483/290 250/487/293
f 239/488/288 293/489/288 292/486/289 390/485/289
f 240/490/287 294/491/287 293/489/288 239/488/288
f 295/492/263 294/491/287 240/490/287 242/493/263
f 296/494/286 295/492/263 242/493/263 251/495/286
f 297/496/285 296/494/286 251/495/286 365/497/285
f 298/498/284 297/496/285 365/497/285 364/499/284
f 299/500/283 298/498/284 364/499/284 366/501/283
f 221/502/282 300/503/282 299/500/283 366/501/283
f 363/482/281 289/481/281 300/503/282 221/502/282
f 290/480/168 291/484/168 292/486/168 293/489/168 294/491/168 295/492/168 296/494/168 297/496/168 298/498/168 299/500/168 300/503/168 289/481/168
s 0
f 391/504/294 392/505/294 394/506/294 393/507/294
f 397/508/295 398/509/295 396/510/295 395/511/295
f 395/511/168 396/510/168 392/505/168 391/504/168
f 393/512/296 397/513/296 395/511/296 391/504/296
f 398/514/297 394/515/297 392/505/297 396/510/297
f 399/516/298 400/517/298 402/518/298 401/519/298
f 405/520/299 406/521/299 404/522/299 403/523/299
f 403/523/168 404/522/168 400/517/168 399/516/168
f 401/524/300 405/525/300 403/523/300 399/516/300
f 406/526/301 402/527/301 400/517/301 404/522/301
f 407/528/302 408/529/302 410/530/302 409/531/302
f 413/532/303 414/533/303 412/534/303 411/535/303
f 411/535/168 412/534/168 408/529/168 407/528/168
f 409/536/304 413/537/304 411/535/304 407/528/304
f 414/538/305 410/539/305 408/529/305 412/534/305
f 415/540/284 416/541/284 418/542/284 417/543/284
f 421/544/289 422/545/289 420/546/289 419/547/289
f 419/547/168 420/546/168 416/541/168 415/540/168
f 417/548/281 421/549/281 419/547/281 415/540/281
f 422/550/263 418/551/263 416/541/263 420/546/263
s 1
f 457/552/263 459/553/263 460/554/306 246/555/306
f 246/555/306 460/554/306 464/556/287 456/557/287
f 456/557/287 464/556/287 465/558/307 455/559/307
f 465/558/307 476/560/288 247/561/288 455/559/307
f 476/560/288 461/562/308 458/563/308 247/561/288
f 461/562/308 462/564/289 248/565/289 458/563/308
f 462/564/289 468/566/293 249/567/293 248/565/289
f 468/566/293 482/568/290 238/569/290 249/567/293
f 482/568/290 480/570/309 451/571/309 238/569/290
f 480/570/309 481/572/291 237/573/291 451/571/309
f 481/572/291 472/574/310 452/575/310 237/573/291
f 472/574/310 473/576/281 235/577/281 452/575/310
f 473/576/281 474/578/311 236/579/311 235/577/281
f 474/578/311 475/580/282 453/581/282 236/579/311
f 475/580/282 477/582/312 234/583/312 453/581/282
f 234/583/312 477/582/312 466/584/283 450/585/283
f 450/585/283 466/584/283 467/586/292 448/587/292
f 448/587/292 467/586/292 470/588/284 447/589/284
f 447/589/284 470/588/284 471/590/313 449/591/313
f 449/591/313 471/590/313 478/592/285 233/593/285
f 233/593/285 478/592/285 479/594/314 244/595/314
f 244/595/314 479/594/314 469/596/286 454/597/286
f 454/597/286 469/596/286 463/598/315 245/599/315
f 245/599/315 463/598/315 459/553/263 457/552/263
f 423/600/281 446/601/310 502/602/310 498/603/281
f 423/600/168 424/604/168 460/554/168 459/553/168
f 428/605/168 429/606/168 462/564/168 461/562/168
f 446/601/168 423/600/168 459/553/168 463/598/168
f 425/607/168 426/608/168 465/558/168 464/556/168
f 439/609/168 440/610/168 467/586/168 466/584/168
f 429/606/168 430/611/168 468/566/168 462/564/168
f 445/612/168 446/601/168 463/598/168 469/596/168
f 441/613/168 442/614/168 471/590/168 470/588/168
f 434/615/168 435/616/168 473/576/168 472/574/168
f 440/610/168 441/613/168 470/588/168 467/586/168
f 436/617/168 437/618/168 475/580/168 474/578/168
f 426/608/168 427/619/168 476/560/168 465/558/168
f 437/618/168 438/620/168 477/582/168 475/580/168
f 442/614/168 443/621/168 478/592/168 471/590/168
f 443/621/168 444/622/168 479/594/168 478/592/168
f 427/619/168 428/605/168 461/562/168 476/560/168
f 438/620/168 439/609/168 466/584/168 477/582/168
f 432/623/168 433/624/168 481/572/168 480/570/168
f 435/616/168 436/617/168 474/578/168 473/576/168
f 444/622/168 445/612/168 469/596/168 479/594/168
f 431/625/168 432/623/168 480/570/168 482/568/168
f 433/624/168 434/615/168 472/574/168 481/572/168
f 430/611/168 431/625/168 482/568/168 468/566/168
f 424/604/168 425/607/168 464/556/168 460/554/168
f 433/624/286 432/623/314 519/626/314 520/627/286
f 437/618/287 436/617/306 513/628/306 514/629/287
f 426/608/312 425/607/282 503/630/282 504/631/312
f 436/617/306 435/616/263 512/632/263 513/628/306
f 427/619/283 426/608/312 504/631/312 515/633/283
f 440/610/308 439/609/288 505/634/288 506/635/308
f 445/612/291 444/622/309 518/636/309 508/637/291
f 438/620/307 437/618/287 514/629/287 516/638/307
f 430/611/313 429/606/284 501/639/284 507/640/313
f 432/623/314 431/625/285 521/641/285 519/626/314
f 443/621/290 442/614/293 510/642/293 517/643/290
f 446/601/310 445/612/291 508/637/291 502/602/310
f 434/615/315 433/624/286 520/627/286 511/644/315
f 444/622/309 443/621/290 517/643/290 518/636/309
f 442/614/293 441/613/289 509/645/289 510/642/293
f 431/625/285 430/611/313 507/640/313 521/641/285
f 424/604/311 423/600/281 498/603/281 499/646/311
f 428/605/292 427/619/283 515/633/283 500/647/292
f 435/616/263 434/615/315 511/644/315 512/632/263
f 425/607/282 424/604/311 499/646/311 503/630/282
f 429/606/284 428/605/292 500/647/292 501/639/284
f 439/609/288 438/620/307 516/638/307 505/634/288
f 441/613/289 440/610/308 506/635/308 509/645/289
f 483/648/168 522/649/168 499/646/168 498/603/168
f 523/650/168 484/651/168 501/639/168 500/647/168
f 524/652/168 483/648/168 498/603/168 502/602/168
f 485/653/168 486/654/168 504/631/168 503/630/168
f 487/655/168 488/656/168 506/635/168 505/634/168
f 484/651/168 525/657/168 507/640/168 501/639/168
f 489/658/168 524/652/168 502/602/168 508/637/168
f 490/659/168 526/660/168 510/642/168 509/645/168
f 491/661/168 527/662/168 512/632/168 511/644/168
f 488/656/168 490/659/168 509/645/168 506/635/168
f 492/663/168 528/664/168 514/629/168 513/628/168
f 486/654/168 493/665/168 515/633/168 504/631/168
f 528/664/168 529/666/168 516/638/168 514/629/168
f 526/660/168 494/667/168 517/643/168 510/642/168
f 494/667/168 495/668/168 518/636/168 517/643/168
f 493/665/168 523/650/168 500/647/168 515/633/168
f 529/666/168 487/655/168 505/634/168 516/638/168
f 496/669/168 497/670/168 520/627/168 519/626/168
f 527/662/168 492/663/168 513/628/168 512/632/168
f 495/668/168 489/658/168 508/637/168 518/636/168
f 530/671/168 496/669/168 519/626/168 521/641/168
f 497/670/168 491/661/168 511/644/168 520/627/168
f 525/657/168 530/671/168 521/641/168 507/640/168
f 522/649/168 485/653/168 503/630/168 499/646/168
f 495/672/314 494/673/285 552/674/285 539/675/314
f 526/676/313 490/677/284 547/678/284 548/679/313
f 530/680/290 525/681/293 546/682/293 554/683/290
f 522/684/306 483/685/263 531/686/263 532/687/306
f 523/688/308 493/689/288 550/690/288 533/691/308
f 527/692/281 491/693/310 549/694/310 536/695/281
f 485/696/287 522/684/306 532/687/306 543/697/287
f 484/698/289 523/688/308 533/691/308 541/699/289
f 487/700/283 529/701/312 551/702/312 545/703/283
f 490/677/284 488/704/292 534/705/292 547/678/284
f 483/685/263 524/706/315 542/707/315 531/686/263
f 497/708/291 496/709/309 553/710/309 540/711/291
f 528/712/282 492/713/311 537/714/311 538/715/282
f 486/716/307 485/696/287 543/697/287 544/717/307
f 492/713/311 527/718/281 536/719/281 537/714/311
f 493/689/288 486/716/307 544/717/307 550/690/288
f 488/704/292 487/700/283 545/703/283 534/705/292
f 489/720/286 495/672/314 539/675/314 535/721/286
f 529/701/312 528/712/282 538/715/282 551/702/312
f 525/681/293 484/698/289 541/699/289 546/682/293
f 496/709/309 530/680/290 554/683/290 553/710/309
f 494/673/285 526/676/313 548/679/313 552/674/285
f 524/706/315 489/720/286 535/721/286 542/707/315
f 491/693/310 497/708/291 540/711/291 549/694/310
f 534/722/168 545/723/168 551/724/168 538/725/168 537/726/168 536/727/168 549/728/168 540/729/168 553/730/168 554/731/168 546/732/168 541/733/168 533/734/168 550/735/168 544/736/168 543/737/168 532/738/168 531/739/168 542/740/168 535/741/168 539/742/168 552/743/168 548/744/168 547/745/168
f 577/746/241 578/747/255 576/748/316 573/749/258 623/750/241
f 602/751/317 601/752/257 576/748/316 578/747/255 579/753/318
f 580/754/281 558/755/319 555/756/320 602/751/317 579/753/318
f 580/754/281 581/757/321 559/758/322 606/759/323 558/755/319
f 607/760/248 559/758/322 581/757/321 582/761/243 560/762/324
f 608/763/245 560/762/324 582/761/243 583/764/242 571/765/242
f 571/765/242 583/764/242 584/766/268 619/767/325
f 620/768/326 570/769/270 619/767/325 584/766/268 585/770/266
f 621/771/327 572/772/328 620/768/326 585/770/266 586/773/263
f 586/773/263 587/774/261 575/775/329 622/776/265 621/771/327
f 624/777/330 575/775/329 587/774/261 588/778/259 574/779/331
f 588/778/259 577/746/241 623/750/241 574/779/331
f 584/766/211 583/764/211 582/761/211 581/757/211 580/754/211 579/753/211 578/747/211 577/746/211 588/778/211 587/774/211 586/773/211 585/770/211
f 604/780/227 557/781/332 590/782/225 589/783/226 568/784/226 566/785/227
f 591/786/333 590/782/225 557/781/332 556/787/334
f 603/788/335 605/789/335 564/790/336 592/791/281 591/786/333 556/787/334
f 564/790/336 563/792/337 562/793/338 593/794/339 592/791/281
f 593/794/339 562/793/338 561/795/217 609/796/340 594/797/214
f 610/798/212 613/799/211 595/800/211 594/797/214 609/796/340
f 596/801/239 595/800/211 613/799/211 614/802/341
f 616/803/342 597/804/235 596/801/239 614/802/341 615/805/237
f 597/804/235 616/803/342 617/806/343 569/807/344 598/808/263
f 569/807/344 618/809/345 565/810/345 611/811/346 599/812/347 598/808/263
f 600/813/229 599/812/347 611/811/346 567/814/348
f 612/815/349 568/784/226 589/783/226 600/813/229 567/814/348
f 600/813/242 589/783/242 590/782/242 591/786/242 592/791/242 593/794/242 594/797/242 595/800/242 596/801/242 597/804/242 598/808/242 599/812/242
s 0
f 625/816/350 626/817/350 628/818/350 627/819/350
f 627/819/211 628/818/211 632/820/211 631/821/211
f 631/821/351 632/820/351 630/822/351 629/823/351
f 627/819/352 631/821/352 629/824/352 625/825/352
f 632/820/353 628/818/353 626/826/353 630/827/353
f 633/828/354 634/829/354 636/830/354 635/831/354
f 635/831/355 636/830/355 640/832/355 639/833/355
f 639/833/356 640/832/356 638/834/356 637/835/356
f 635/831/357 639/833/357 637/836/357 633/837/357
f 640/832/358 636/830/358 634/838/358 638/839/358
