# Blender 4.1.1
# www.blender.org
o Pipe_Straight_2m
v -0.000000 -0.098613 -0.000000
v -0.042426 -0.333333 -0.042426
v -0.060000 -0.333333 -0.000000
v -0.042426 -0.333333 0.042426
v -0.000000 -0.333333 0.060000
v 0.042426 -0.333333 0.042426
v 0.060000 -0.333333 0.000000
v 0.042426 -0.333333 -0.042426
v -0.000000 -0.333333 -0.060000
v -0.042426 0.333333 -0.042426
v -0.060000 0.333333 -0.000000
v -0.042426 0.333333 0.042426
v 0.000000 0.333333 0.060000
v 0.042426 0.333333 0.042426
v 0.060000 0.333333 0.000000
v 0.042426 0.333333 -0.042426
v 0.000000 0.333333 -0.060000
v 0.000000 0.098613 -0.000000
v -0.046669 1.000000 -0.046669
v 0.000000 1.000000 -0.066000
v -0.066000 1.000000 -0.000000
v 0.046669 1.000000 -0.046669
v -0.046669 1.000000 0.046669
v 0.000000 1.000000 0.066000
v 0.046669 1.000000 0.046669
v 0.066000 1.000000 0.000000
v -0.046669 -1.000000 -0.046669
v -0.066000 -1.000000 -0.000000
v -0.046669 -1.000000 0.046669
v -0.000000 -1.000000 0.066000
v 0.046669 -1.000000 0.046669
v 0.066000 -1.000000 0.000000
v 0.046669 -1.000000 -0.046669
v -0.000000 -1.000000 -0.066000
v -0.046669 0.900000 -0.046669
v -0.066000 0.900000 -0.000000
v -0.046669 0.900000 0.046669
v 0.000000 0.900000 0.066000
v 0.046669 0.900000 0.046669
v 0.066000 0.900000 0.000000
v 0.046669 0.900000 -0.046669
v 0.000000 0.900000 -0.066000
v -0.000000 -0.900000 -0.066000
v -0.046669 -0.900000 -0.046669
v -0.066000 -0.900000 -0.000000
v -0.046669 -0.900000 0.046669
v -0.000000 -0.900000 0.066000
v 0.046669 -0.900000 0.046669
v 0.066000 -0.900000 0.000000
v 0.046669 -0.900000 -0.046669
v -0.000000 -0.900000 -0.060000
v -0.042426 -0.900000 -0.042426
v -0.060000 -0.900000 -0.000000
v -0.042426 -0.900000 0.042426
v -0.000000 -0.900000 0.060000
v 0.042426 -0.900000 0.042426
v 0.060000 -0.900000 0.000000
v 0.042426 -0.900000 -0.042426
v -0.042426 0.900000 -0.042426
v -0.060000 0.900000 -0.000000
v -0.042426 0.900000 0.042426
v 0.000000 0.900000 0.060000
v 0.042426 0.900000 0.042426
v 0.060000 0.900000 0.000000
v 0.042426 0.900000 -0.042426
v 0.000000 0.900000 -0.060000
vn -0.7071 -0.0000 -0.7071
vn -0.0000 -0.0000 -1.0000
vn -1.0000 -0.0000 -0.0000
vn -0.7071 -0.0000 0.7071
vn -0.0000 -0.0000 1.0000
vn 0.7071 -0.0000 0.7071
vn 1.0000 -0.0000 -0.0000
vn 0.7071 -0.0000 -0.7071
vn -0.0000 1.0000 -0.0000
vn -0.0000 0.0730 0.9973
vn 0.7052 0.0730 0.7052
vn 0.9973 0.0730 -0.0000
vn -0.7052 0.0730 0.7052
vn 0.7052 0.0730 -0.7052
vn -0.0000 0.0730 -0.9973
vn -0.7052 0.0730 -0.7052
vn -0.9973 0.0730 -0.0000
vn -0.0000 -1.0000 -0.0000
vn 0.9973 -0.0730 -0.0000
vn 0.7052 -0.0730 0.7052
vn 0.7052 -0.0730 -0.7052
vn -0.0000 -0.0730 -0.9973
vn -0.9973 -0.0730 -0.0000
vn -0.7052 -0.0730 -0.7052
vn -0.7052 -0.0730 0.7052
vn -0.0000 -0.0730 0.9973
vt 0.304902 0.037944
vt 0.304923 0.171971
vt 0.294055 0.171973
vt 0.294037 0.037934
vt 0.315765 0.037968
vt 0.315790 0.171967
vt 0.326610 0.038004
vt 0.326658 0.171961
vt 0.337335 0.038040
vt 0.337526 0.171954
vt 0.261455 0.037988
vt 0.261452 0.171972
vt 0.250584 0.171969
vt 0.250722 0.038026
vt 0.272305 0.037955
vt 0.272320 0.171974
vt 0.283170 0.037937
vt 0.283187 0.171974
vt 0.304949 0.329947
vt 0.294080 0.329944
vt 0.315818 0.329951
vt 0.326688 0.329957
vt 0.337558 0.329964
vt 0.261479 0.329944
vt 0.250612 0.329948
vt 0.272345 0.329942
vt 0.283212 0.329942
vt 0.304860 0.465252
vt 0.304823 0.486833
vt 0.293950 0.486798
vt 0.293991 0.465241
vt 0.315739 0.465250
vt 0.315720 0.486884
vt 0.326654 0.465226
vt 0.326663 0.486942
vt 0.337743 0.465200
vt 0.337668 0.486997
vt 0.261364 0.465130
vt 0.261275 0.486790
vt 0.250304 0.486792
vt 0.250300 0.465073
vt 0.272260 0.465186
vt 0.272196 0.486783
vt 0.283127 0.465220
vt 0.283081 0.486783
vt 0.705280 0.297396
vt 0.658314 0.503933
vt 0.646848 0.500986
vt 0.635565 0.497404
vt 0.669927 0.506234
vt 0.624500 0.493197
vt 0.613687 0.488378
vt 0.705280 0.509205
vt 0.693446 0.508875
vt 0.681649 0.507883
vt 0.613687 0.751071
vt 0.637317 0.540584
vt 0.649040 0.542233
vt 0.625521 0.539592
vt 0.613687 0.539262
vt 0.683401 0.551063
vt 0.694467 0.555270
vt 0.672118 0.547481
vt 0.660652 0.544534
vt 0.705280 0.560089
vt 0.293997 0.463986
vt 0.283133 0.463965
vt 0.272272 0.463931
vt 0.261429 0.463886
vt 0.250708 0.463841
vt 0.337325 0.463954
vt 0.326585 0.463977
vt 0.315729 0.463994
vt 0.304862 0.463996
vt 0.294056 0.015110
vt 0.294042 0.036678
vt 0.283173 0.036680
vt 0.283175 0.015089
vt 0.272295 0.036698
vt 0.272266 0.015057
vt 0.261384 0.036740
vt 0.261321 0.015039
vt 0.250307 0.036788
vt 0.250329 0.015028
vt 0.337723 0.015081
vt 0.337743 0.036807
vt 0.326678 0.036758
vt 0.326749 0.015091
vt 0.315779 0.036713
vt 0.315823 0.015107
vt 0.304908 0.036688
vt 0.304932 0.015116
s 1
f 52/1/1 2/2/1 9/3/2 51/4/2
f 53/5/3 3/6/3 2/2/1 52/1/1
f 54/7/4 4/8/4 3/6/3 53/5/3
f 55/9/5 5/10/5 4/8/4 54/7/4
f 56/11/6 6/12/6 5/13/5 55/14/5
f 57/15/7 7/16/7 6/12/6 56/11/6
f 58/17/8 8/18/8 7/16/7 57/15/7
f 51/4/2 9/3/2 8/18/8 58/17/8
f 2/2/1 10/19/1 17/20/2 9/3/2
f 3/6/3 11/21/3 10/19/1 2/2/1
f 4/8/4 12/22/4 11/21/3 3/6/3
f 5/10/5 13/23/5 12/22/4 4/8/4
f 6/12/6 14/24/6 13/25/5 5/13/5
f 7/16/7 15/26/7 14/24/6 6/12/6
f 8/18/8 16/27/8 15/26/7 7/16/7
f 9/3/2 17/20/2 16/27/8 8/18/8
f 35/28/1 19/29/1 20/30/2 42/31/2
f 36/32/3 21/33/3 19/29/1 35/28/1
f 37/34/4 23/35/4 21/33/3 36/32/3
f 38/36/5 24/37/5 23/35/4 37/34/4
f 39/38/6 25/39/6 24/40/5 38/41/5
f 40/42/7 26/43/7 25/39/6 39/38/6
f 41/44/8 22/45/8 26/43/7 40/42/7
f 42/31/2 20/30/2 22/45/8 41/44/8
f 18/46/9 20/47/10 19/48/11
f 18/46/9 19/48/11 21/49/12
f 18/46/9 22/50/13 20/47/10
f 18/46/9 21/49/12 23/51/14
f 18/46/9 23/51/14 24/52/15
f 18/46/9 24/53/15 25/54/16
f 18/46/9 25/54/16 26/55/17
f 18/46/9 26/55/17 22/50/13
f 1/56/18 28/57/19 27/58/20
f 1/56/18 29/59/21 28/57/19
f 1/56/18 30/60/22 29/59/21
f 1/56/18 32/61/23 31/62/24
f 1/56/18 33/63/25 32/61/23
f 1/56/18 27/58/20 34/64/26
f 1/56/18 31/62/24 30/65/22
f 1/56/18 34/64/26 33/63/25
f 66/66/18 42/31/18 41/44/18 65/67/18
f 65/67/18 41/44/18 40/42/18 64/68/18
f 64/68/18 40/42/18 39/38/18 63/69/18
f 63/69/18 39/38/18 38/41/18 62/70/18
f 62/71/18 38/36/18 37/34/18 61/72/18
f 61/72/18 37/34/18 36/32/18 60/73/18
f 60/73/18 36/32/18 35/28/18 59/74/18
f 59/74/18 35/28/18 42/31/18 66/66/18
f 34/75/2 43/76/2 50/77/8 33/78/8
f 33/78/8 50/77/8 49/79/7 32/80/7
f 32/80/7 49/79/7 48/81/6 31/82/6
f 31/82/6 48/81/6 47/83/5 30/84/5
f 30/85/5 47/86/5 46/87/4 29/88/4
f 29/88/4 46/87/4 45/89/3 28/90/3
f 28/90/3 45/89/3 44/91/1 27/92/1
f 27/92/1 44/91/1 43/76/2 34/75/2
f 43/76/9 51/4/9 58/17/9 50/77/9
f 50/77/9 58/17/9 57/15/9 49/79/9
f 49/79/9 57/15/9 56/11/9 48/81/9
f 48/81/9 56/11/9 55/14/9 47/83/9
f 47/86/9 55/9/9 54/7/9 46/87/9
f 46/87/9 54/7/9 53/5/9 45/89/9
f 45/89/9 53/5/9 52/1/9 44/91/9
f 44/91/9 52/1/9 51/4/9 43/76/9
f 10/19/1 59/74/1 66/66/2 17/20/2
f 11/21/3 60/73/3 59/74/1 10/19/1
f 12/22/4 61/72/4 60/73/3 11/21/3
f 13/23/5 62/71/5 61/72/4 12/22/4
f 14/24/6 63/69/6 62/70/5 13/25/5
f 15/26/7 64/68/7 63/69/6 14/24/6
f 16/27/8 65/67/8 64/68/7 15/26/7
f 17/20/2 66/66/2 65/67/8 16/27/8
