# Blender 4.1.1
# www.blender.org
o Pipe_Straight_1m
v -0.000000 0.000023 -0.000000
v 0.000000 0.002355 -0.060000
v 0.042426 0.002354 -0.042426
v 0.060000 0.002354 0.000000
v 0.042426 0.002354 0.042426
v -0.000000 0.002355 0.060000
v -0.042426 0.002355 0.042426
v -0.060000 0.002355 -0.000000
v -0.042426 0.002355 -0.042426
v 0.000000 0.010382 -0.000000
v -0.046669 0.500000 -0.046669
v 0.000000 0.500000 -0.066000
v -0.066000 0.500000 -0.000000
v 0.046669 0.500000 -0.046669
v -0.046669 0.500000 0.046669
v 0.000000 0.500000 0.066000
v 0.046669 0.500000 0.046669
v 0.066000 0.500000 0.000000
v -0.046669 -0.500000 -0.046669
v -0.066000 -0.500000 -0.000000
v -0.046669 -0.500000 0.046669
v -0.000000 -0.500000 0.066000
v 0.046669 -0.500000 0.046669
v 0.066000 -0.500000 0.000000
v 0.046669 -0.500000 -0.046669
v -0.000000 -0.500000 -0.066000
v -0.046669 0.400000 -0.046669
v -0.066000 0.400000 -0.000000
v -0.046669 0.400000 0.046669
v 0.000000 0.400000 0.066000
v 0.046669 0.400000 0.046669
v 0.066000 0.400000 0.000000
v 0.046669 0.400000 -0.046669
v 0.000000 0.400000 -0.066000
v -0.000000 -0.400000 -0.066000
v -0.046669 -0.400000 -0.046669
v -0.066000 -0.400000 -0.000000
v -0.046669 -0.400000 0.046669
v -0.000000 -0.400000 0.066000
v 0.046669 -0.400000 0.046669
v 0.066000 -0.400000 0.000000
v 0.046669 -0.400000 -0.046669
v -0.000000 -0.400000 -0.060000
v -0.042426 -0.400000 -0.042426
v -0.060000 -0.400000 -0.000000
v -0.042426 -0.400000 0.042426
v -0.000000 -0.400000 0.060000
v 0.042426 -0.400000 0.042426
v 0.060000 -0.400000 0.000000
v 0.042426 -0.400000 -0.042426
v -0.042426 0.400000 -0.042426
v -0.060000 0.400000 -0.000000
v -0.042426 0.400000 0.042426
v 0.000000 0.400000 0.060000
v 0.042426 0.400000 0.042426
v 0.060000 0.400000 0.000000
v 0.042426 0.400000 -0.042426
v 0.000000 0.400000 -0.060000
vn 1.0000 -0.0000 -0.0000
vn 0.7071 -0.0000 0.7071
vn -0.7071 -0.0000 0.7071
vn -1.0000 -0.0000 -0.0000
vn -0.0000 -0.0000 1.0000
vn -0.7071 -0.0000 -0.7071
vn -0.0000 -0.0000 -1.0000
vn 0.7071 -0.0000 -0.7071
vn -0.0000 1.0000 -0.0000
vn -0.0000 0.1336 0.9910
vn 0.7008 0.1336 0.7008
vn 0.9910 0.1336 -0.0000
vn -0.7008 0.1336 0.7008
vn 0.7008 0.1336 -0.7008
vn -0.0000 0.1336 -0.9910
vn -0.7008 0.1336 -0.7008
vn -0.9910 0.1336 -0.0000
vn -0.0000 -1.0000 -0.0000
vn 0.9914 -0.1309 -0.0000
vn 0.7010 -0.1309 0.7010
vn 0.7010 -0.1309 -0.7010
vn -0.0000 -0.1309 -0.9914
vn -0.9914 -0.1309 -0.0000
vn -0.7010 -0.1309 -0.7010
vn -0.7010 -0.1309 0.7010
vn -0.0000 -0.1309 0.9914
vt 0.636066 0.134558
vt 0.635959 0.229683
vt 0.624984 0.229625
vt 0.625090 0.134558
vt 0.690973 0.134562
vt 0.679990 0.134561
vt 0.679982 0.038243
vt 0.690972 0.038280
vt 0.701957 0.134562
vt 0.701836 0.038321
vt 0.614117 0.134557
vt 0.614142 0.038407
vt 0.624994 0.038353
vt 0.669007 0.134560
vt 0.658024 0.134560
vt 0.657969 0.038233
vt 0.668975 0.038227
vt 0.646966 0.038256
vt 0.647044 0.134559
vt 0.635969 0.038297
vt 0.657956 0.229755
vt 0.646955 0.229727
vt 0.668956 0.231041
vt 0.668920 0.252924
vt 0.657893 0.252877
vt 0.657949 0.231027
vt 0.679977 0.231035
vt 0.679982 0.252982
vt 0.691032 0.230996
vt 0.691085 0.253003
vt 0.702258 0.230949
vt 0.702232 0.253017
vt 0.624913 0.230886
vt 0.624793 0.252816
vt 0.613687 0.252800
vt 0.613717 0.230814
vt 0.635943 0.230954
vt 0.635851 0.252827
vt 0.646946 0.230999
vt 0.646877 0.252844
vt 0.820041 0.445251
vt 0.773878 0.551707
vt 0.763249 0.546437
vt 0.753213 0.540109
vt 0.784990 0.555865
vt 0.743876 0.532789
vt 0.735336 0.524554
vt 0.820041 0.561285
vt 0.808193 0.560679
vt 0.796468 0.558866
vt 0.732314 0.133485
vt 0.755894 0.017399
vt 0.767387 0.020339
vt 0.744163 0.015622
vt 0.732314 0.015028
vt 0.799316 0.035797
vt 0.808751 0.042990
vt 0.789208 0.029585
vt 0.778529 0.024415
vt 0.817420 0.051089
vt 0.614136 0.229569
vt 0.701831 0.229693
vt 0.690961 0.229729
vt 0.679969 0.229759
vt 0.668962 0.229767
vt 0.657929 0.015097
vt 0.657971 0.036959
vt 0.646966 0.036984
vt 0.646905 0.015125
vt 0.635957 0.037026
vt 0.635872 0.015140
vt 0.624920 0.037091
vt 0.624806 0.015148
vt 0.613720 0.037161
vt 0.613694 0.015162
vt 0.702247 0.015028
vt 0.702258 0.037068
vt 0.691041 0.037015
vt 0.691113 0.015034
vt 0.679995 0.036969
vt 0.680026 0.015046
vt 0.668978 0.036951
vt 0.668967 0.015057
s 1
f 4/1/1 56/2/1 55/3/2 5/4/2
f 7/5/3 8/6/4 45/7/4 46/8/3
f 6/9/5 7/5/3 46/8/3 47/10/5
f 5/4/2 6/11/5 47/12/5 48/13/2
f 9/14/6 2/15/7 43/16/7 44/17/6
f 50/18/8 3/19/8 4/1/1 49/20/1
f 2/15/7 58/21/7 57/22/8 3/19/8
f 8/6/4 9/14/6 44/17/6 45/7/4
f 27/23/6 11/24/6 12/25/7 34/26/7
f 28/27/4 13/28/4 11/24/6 27/23/6
f 29/29/3 15/30/3 13/28/4 28/27/4
f 30/31/5 16/32/5 15/30/3 29/29/3
f 31/33/2 17/34/2 16/35/5 30/36/5
f 32/37/1 18/38/1 17/34/2 31/33/2
f 33/39/8 14/40/8 18/38/1 32/37/1
f 34/26/7 12/25/7 14/40/8 33/39/8
f 10/41/9 12/42/10 11/43/11
f 10/41/9 11/43/11 13/44/12
f 10/41/9 14/45/13 12/42/10
f 10/41/9 13/44/12 15/46/14
f 10/41/9 15/46/14 16/47/15
f 10/41/9 16/48/15 17/49/16
f 10/41/9 17/49/16 18/50/17
f 10/41/9 18/50/17 14/45/13
f 1/51/18 20/52/19 19/53/20
f 1/51/18 21/54/21 20/52/19
f 1/51/18 22/55/22 21/54/21
f 1/51/18 24/56/23 23/57/24
f 1/51/18 25/58/25 24/56/23
f 1/51/18 19/53/20 26/59/26
f 1/51/18 23/57/24 22/60/22
f 1/51/18 26/59/26 25/58/25
f 58/21/18 34/26/18 33/39/18 57/22/18
f 57/22/18 33/39/18 32/37/18 56/2/18
f 56/2/18 32/37/18 31/33/18 55/3/18
f 55/3/18 31/33/18 30/36/18 54/61/18
f 54/62/18 30/31/18 29/29/18 53/63/18
f 53/63/18 29/29/18 28/27/18 52/64/18
f 52/64/18 28/27/18 27/23/18 51/65/18
f 51/65/18 27/23/18 34/26/18 58/21/18
f 26/66/7 35/67/7 42/68/8 25/69/8
f 25/69/8 42/68/8 41/70/1 24/71/1
f 24/71/1 41/70/1 40/72/2 23/73/2
f 23/73/2 40/72/2 39/74/5 22/75/5
f 22/76/5 39/77/5 38/78/3 21/79/3
f 21/79/3 38/78/3 37/80/4 20/81/4
f 20/81/4 37/80/4 36/82/6 19/83/6
f 19/83/6 36/82/6 35/67/7 26/66/7
f 35/67/9 43/16/9 50/18/9 42/68/9
f 42/68/9 50/18/9 49/20/9 41/70/9
f 41/70/9 49/20/9 48/13/9 40/72/9
f 40/72/9 48/13/9 47/12/9 39/74/9
f 39/77/9 47/10/9 46/8/9 38/78/9
f 38/78/9 46/8/9 45/7/9 37/80/9
f 37/80/9 45/7/9 44/17/9 36/82/9
f 36/82/9 44/17/9 43/16/9 35/67/9
f 43/16/7 2/15/7 3/19/8 50/18/8
f 53/63/3 52/64/4 8/6/4 7/5/3
f 54/62/5 53/63/3 7/5/3 6/9/5
f 55/3/2 54/61/5 6/11/5 5/4/2
f 51/65/6 58/21/7 2/15/7 9/14/6
f 52/64/4 51/65/6 9/14/6 8/6/4
f 49/20/1 4/1/1 5/4/2 48/13/2
f 3/19/8 57/22/8 56/2/1 4/1/1
