# Blender 4.1.1
# www.blender.org
o Pipe_Straight_313mm
v -0.000000 -0.004863 -0.000000
v 0.000000 0.042363 -0.000000
v -0.046669 0.156250 -0.046669
v 0.000000 0.156250 -0.066000
v -0.066000 0.156250 -0.000000
v 0.046669 0.156250 -0.046669
v -0.046669 0.156250 0.046669
v 0.000000 0.156250 0.066000
v 0.046669 0.156250 0.046669
v 0.066000 0.156250 0.000000
v -0.046669 -0.156250 -0.046669
v -0.066000 -0.156250 -0.000000
v -0.046669 -0.156250 0.046669
v -0.000000 -0.156250 0.066000
v 0.046669 -0.156250 0.046669
v 0.066000 -0.156250 0.000000
v 0.046669 -0.156250 -0.046669
v -0.000000 -0.156250 -0.066000
v -0.046669 0.056250 -0.046669
v -0.066000 0.056250 -0.000000
v -0.046669 0.056250 0.046669
v 0.000000 0.056250 0.066000
v 0.046669 0.056250 0.046669
v 0.066000 0.056250 0.000000
v 0.046669 0.056250 -0.046669
v 0.000000 0.056250 -0.066000
v -0.000000 -0.056250 -0.066000
v -0.046669 -0.056250 -0.046669
v -0.066000 -0.056250 -0.000000
v -0.046669 -0.056250 0.046669
v -0.000000 -0.056250 0.066000
v 0.046669 -0.056250 0.046669
v 0.066000 -0.056250 0.000000
v 0.046669 -0.056250 -0.046669
v -0.000000 -0.056250 -0.060000
v -0.042426 -0.056250 -0.042426
v -0.060000 -0.056250 -0.000000
v -0.042426 -0.056250 0.042426
v -0.000000 -0.056250 0.060000
v 0.042426 -0.056250 0.042426
v 0.060000 -0.056250 0.000000
v 0.042426 -0.056250 -0.042426
v -0.042426 0.056250 -0.042426
v -0.060000 0.056250 -0.000000
v -0.042426 0.056250 0.042426
v 0.000000 0.056250 0.060000
v 0.042426 0.056250 0.042426
v 0.060000 0.056250 0.000000
v 0.042426 0.056250 -0.042426
v 0.000000 0.056250 -0.060000
vn -0.0000 -0.0000 1.0000
vn -0.7071 -0.0000 0.7071
vn 0.7071 -0.0000 0.7071
vn -0.7071 -0.0000 -0.7071
vn -0.0000 -0.0000 -1.0000
vn 1.0000 -0.0000 -0.0000
vn -1.0000 -0.0000 -0.0000
vn 0.7071 -0.0000 -0.7071
vn -0.0000 1.0000 -0.0000
vn -0.0000 0.5014 0.8652
vn 0.6118 0.5014 0.6118
vn 0.8652 0.5014 -0.0000
vn -0.6118 0.5014 0.6118
vn 0.6118 0.5014 -0.6118
vn -0.0000 0.5014 -0.8652
vn -0.6118 0.5014 -0.6118
vn -0.8652 0.5014 -0.0000
vn -0.0000 -1.0000 -0.0000
vn 0.9167 -0.3996 -0.0000
vn 0.6482 -0.3996 0.6482
vn 0.6482 -0.3996 -0.6482
vn -0.0000 -0.3996 -0.9167
vn -0.9167 -0.3996 -0.0000
vn -0.6482 -0.3996 -0.6482
vn -0.6482 -0.3996 0.6482
vn -0.0000 -0.3996 0.9167
vt 0.389150 0.775887
vt 0.413387 0.775901
vt 0.413456 0.785719
vt 0.389088 0.785729
vt 0.389308 0.845666
vt 0.413506 0.845657
vt 0.413429 0.855411
vt 0.389390 0.855412
vt 0.389060 0.805759
vt 0.413583 0.805711
vt 0.413611 0.815730
vt 0.389096 0.815778
vt 0.389219 0.835749
vt 0.413579 0.835726
vt 0.389052 0.795732
vt 0.413532 0.795697
vt 0.414743 0.805712
vt 0.434666 0.805656
vt 0.434697 0.815731
vt 0.414772 0.815734
vt 0.414691 0.795691
vt 0.434628 0.795587
vt 0.414609 0.785658
vt 0.434585 0.785506
vt 0.414518 0.775491
vt 0.434536 0.775394
vt 0.414653 0.845719
vt 0.434555 0.845920
vt 0.434476 0.855988
vt 0.414545 0.855833
vt 0.414736 0.835735
vt 0.434630 0.835876
vt 0.414775 0.825746
vt 0.434708 0.825826
vt 0.894316 0.042024
vt 0.921340 0.042731
vt 0.919083 0.052857
vt 0.913180 0.061387
vt 0.919616 0.032501
vt 0.904498 0.067066
vt 0.894317 0.069056
vt 0.895731 0.015028
vt 0.905794 0.017549
vt 0.914167 0.023674
vt 0.418667 0.708419
vt 0.451339 0.699318
vt 0.452562 0.709620
vt 0.447060 0.689868
vt 0.440124 0.682153
vt 0.438211 0.736137
vt 0.428919 0.740749
vt 0.445676 0.728933
vt 0.450613 0.719809
vt 0.418667 0.742335
vt 0.413613 0.825740
vt 0.368057 0.815906
vt 0.387938 0.815779
vt 0.387994 0.825778
vt 0.368152 0.825928
vt 0.388067 0.835758
vt 0.368239 0.835934
vt 0.388165 0.845732
vt 0.368319 0.845947
vt 0.388278 0.855826
vt 0.368400 0.855988
vt 0.367835 0.775381
vt 0.388004 0.775451
vt 0.387926 0.785665
vt 0.367799 0.785569
vt 0.387889 0.795726
vt 0.367865 0.795745
vt 0.387899 0.805760
vt 0.367958 0.805851
vt 0.389150 0.825778
s 1
f 39/1/1 46/2/1 45/3/2 38/4/2
f 40/5/3 47/6/3 46/7/1 39/8/1
f 36/9/4 43/10/4 50/11/5 35/12/5
f 41/13/6 48/14/6 47/6/3 40/5/3
f 37/15/7 44/16/7 43/10/4 36/9/4
f 19/17/4 3/18/4 4/19/5 26/20/5
f 20/21/7 5/22/7 3/18/4 19/17/4
f 21/23/2 7/24/2 5/22/7 20/21/7
f 22/25/1 8/26/1 7/24/2 21/23/2
f 23/27/3 9/28/3 8/29/1 22/30/1
f 24/31/6 10/32/6 9/28/3 23/27/3
f 25/33/8 6/34/8 10/32/6 24/31/6
f 26/20/5 4/19/5 6/34/8 25/33/8
f 2/35/9 4/36/10 3/37/11
f 2/35/9 3/37/11 5/38/12
f 2/35/9 6/39/13 4/36/10
f 2/35/9 5/38/12 7/40/14
f 2/35/9 7/40/14 8/41/15
f 2/35/9 8/42/15 9/43/16
f 2/35/9 9/43/16 10/44/17
f 2/35/9 10/44/17 6/39/13
f 1/45/18 12/46/19 11/47/20
f 1/45/18 13/48/21 12/46/19
f 1/45/18 14/49/22 13/48/21
f 1/45/18 16/50/23 15/51/24
f 1/45/18 17/52/25 16/50/23
f 1/45/18 11/47/20 18/53/26
f 1/45/18 15/51/24 14/54/22
f 1/45/18 18/53/26 17/52/25
f 50/11/18 26/20/18 25/33/18 49/55/18
f 49/55/18 25/33/18 24/31/18 48/14/18
f 48/14/18 24/31/18 23/27/18 47/6/18
f 47/6/18 23/27/18 22/30/18 46/7/18
f 46/2/18 22/25/18 21/23/18 45/3/18
f 45/3/18 21/23/18 20/21/18 44/16/18
f 44/16/18 20/21/18 19/17/18 43/10/18
f 43/10/18 19/17/18 26/20/18 50/11/18
f 18/56/5 27/57/5 34/58/8 17/59/8
f 17/59/8 34/58/8 33/60/6 16/61/6
f 16/61/6 33/60/6 32/62/3 15/63/3
f 15/63/3 32/62/3 31/64/1 14/65/1
f 14/66/1 31/67/1 30/68/2 13/69/2
f 13/69/2 30/68/2 29/70/7 12/71/7
f 12/71/7 29/70/7 28/72/4 11/73/4
f 11/73/4 28/72/4 27/57/5 18/56/5
f 27/57/9 35/12/9 42/74/9 34/58/9
f 34/58/9 42/74/9 41/13/9 33/60/9
f 33/60/9 41/13/9 40/5/9 32/62/9
f 32/62/9 40/5/9 39/8/9 31/64/9
f 31/67/9 39/1/9 38/4/9 30/68/9
f 30/68/9 38/4/9 37/15/9 29/70/9
f 29/70/9 37/15/9 36/9/9 28/72/9
f 28/72/9 36/9/9 35/12/9 27/57/9
f 42/74/8 49/55/8 48/14/6 41/13/6
f 35/12/5 50/11/5 49/55/8 42/74/8
f 38/4/2 45/3/2 44/16/7 37/15/7
