# Blender 4.1.1
# www.blender.org
o Pipe_Tee
v 0.000000 0.096754 -0.090033
v 0.030000 0.104792 -0.090033
v 0.051962 0.126754 -0.090033
v 0.060000 0.131108 0.000014
v 0.060000 0.156754 -0.090033
v 0.051962 0.186754 0.000014
v 0.051962 0.186754 -0.090033
v 0.030000 0.208715 0.000014
v 0.030000 0.208715 -0.090033
v 0.000000 0.216754 0.000014
v 0.000000 0.216754 -0.090033
v -0.030000 0.208715 0.000014
v -0.030000 0.208715 -0.090033
v -0.051962 0.186754 0.000014
v -0.051962 0.186754 -0.090033
v -0.060000 0.131108 0.000014
v -0.060000 0.156754 -0.090033
v -0.051962 0.126754 -0.090033
v -0.030000 0.104792 -0.090033
v 0.030000 0.079147 -0.051948
v -0.030000 0.079147 -0.051948
v -0.051962 0.101108 -0.029986
v 0.000000 0.071108 -0.059987
v 0.051962 0.101108 -0.029986
v 0.000000 0.096754 0.089967
v -0.030000 0.104792 0.089967
v -0.051962 0.126754 0.089967
v 0.051962 0.035000 -0.029986
v -0.060000 0.156754 0.089967
v 0.000000 0.035000 -0.059987
v -0.051962 0.186754 0.089967
v -0.051962 0.035000 -0.029986
v -0.030000 0.208715 0.089967
v -0.030000 0.035000 -0.051948
v 0.000000 0.216754 0.089967
v 0.030000 0.035000 -0.051948
v 0.030000 0.208715 0.089967
v -0.060000 0.035000 0.000014
v 0.051962 0.186754 0.089967
v 0.060000 0.035000 0.000014
v 0.060000 0.156754 0.089967
v 0.051962 0.126754 0.089967
v 0.030000 0.104792 0.089967
v -0.030000 0.079147 0.051948
v 0.030000 0.079147 0.051948
v 0.051962 0.101108 0.029987
v -0.000000 0.071108 0.059987
v -0.051962 0.101108 0.029987
v -0.030000 0.035000 0.051948
v 0.030000 0.035000 0.051948
v 0.051962 0.035000 0.029987
v -0.000000 0.035000 0.059987
v -0.051962 0.035000 0.029987
v 0.000000 0.096754 0.081329
v -0.030000 0.104792 0.078120
v 0.030000 0.104792 0.078120
v 0.051962 0.126754 0.069352
v -0.051962 0.126754 0.069352
v -0.060000 0.156754 0.057385
v -0.051962 0.186754 0.057385
v -0.030000 0.208715 0.057385
v 0.000000 0.216754 0.057385
v 0.030000 0.208715 0.057385
v 0.051962 0.186754 0.057385
v 0.060000 0.156754 0.057385
v 0.000000 0.096754 -0.081288
v 0.060000 0.156754 -0.057333
v 0.051962 0.186754 -0.057333
v 0.030000 0.208715 -0.057333
v 0.000000 0.216754 -0.057333
v -0.030000 0.208715 -0.057333
v -0.051962 0.186754 -0.057333
v -0.060000 0.156754 -0.057333
v 0.030000 0.104792 -0.078079
v -0.030000 0.104792 -0.078079
v -0.051962 0.126754 -0.069311
v 0.051962 0.126754 -0.069311
v 0.060000 0.068896 0.000014
v -0.051962 0.053896 -0.029986
v -0.060000 0.068896 0.000014
v 0.051962 0.053896 0.029987
v -0.030000 0.042915 0.051948
v -0.051962 0.053896 0.029987
v 0.030000 0.042915 0.051948
v -0.000000 0.038896 0.059987
v 0.000000 0.038896 -0.059987
v 0.030000 0.042915 -0.051948
v 0.051962 0.053896 -0.029986
v -0.030000 0.042915 -0.051948
v 0.057158 0.035000 -0.032985
v 0.000000 0.035000 -0.065985
v -0.057158 0.035000 -0.032985
v -0.033000 0.035000 -0.057143
v 0.033000 0.035000 -0.057143
v -0.066000 0.035000 0.000015
v 0.066000 0.035000 0.000015
v -0.033000 0.035000 0.057143
v 0.033000 0.035000 0.057143
v 0.057158 0.035000 0.032985
v -0.000000 0.035000 0.065985
v -0.057158 0.035000 0.032985
v -0.000000 0.163670 0.000001
v 0.057158 0.123754 0.089967
v 0.066000 0.156754 0.089967
v 0.057158 0.189754 0.089967
v 0.033000 0.213912 0.089967
v 0.000000 0.222754 0.089967
v -0.033000 0.213912 0.089967
v -0.057158 0.189754 0.089967
v -0.066000 0.156754 0.089967
v -0.057158 0.123754 0.089967
v -0.033000 0.099596 0.089967
v 0.000000 0.090754 0.089967
v 0.066000 0.000000 0.000015
v 0.057158 0.000000 0.032985
v -0.066000 0.000000 0.000015
v -0.057158 0.000000 0.032985
v 0.033000 0.000000 0.057143
v -0.033000 0.000000 0.057143
v -0.000000 0.000000 0.065985
v -0.057158 0.000000 -0.032985
v -0.033000 0.000000 -0.057143
v 0.057158 0.000000 -0.032985
v 0.033000 0.000000 -0.057143
v 0.000000 0.000000 -0.065985
v 0.033000 0.099596 0.089967
v 0.000000 0.156754 0.007379
v 0.000000 0.090754 -0.090033
v 0.033000 0.099596 -0.090033
v 0.057158 0.123754 -0.090033
v 0.066000 0.156754 -0.090033
v 0.057158 0.189754 -0.090033
v 0.033000 0.213912 -0.090033
v 0.000000 0.222754 -0.090033
v -0.033000 0.213912 -0.090033
v -0.057158 0.189754 -0.090033
v -0.066000 0.156754 -0.090033
v -0.057158 0.123754 -0.090033
v -0.033000 0.099596 -0.090033
v 0.000000 0.156754 -0.007379
v 0.000000 0.090754 0.124967
v 0.033000 0.099596 0.124967
v 0.057158 0.123754 0.124967
v 0.066000 0.156754 0.124967
v 0.057158 0.189754 0.124967
v 0.033000 0.213912 0.124967
v 0.000000 0.222754 0.124967
v -0.033000 0.213912 0.124967
v -0.057158 0.189754 0.124967
v -0.066000 0.156754 0.124967
v -0.057158 0.123754 0.124967
v -0.033000 0.099596 0.124967
v 0.033000 0.099596 -0.125033
v 0.000000 0.090754 -0.125033
v 0.057158 0.123754 -0.125033
v 0.066000 0.156754 -0.125033
v 0.057158 0.189754 -0.125033
v 0.033000 0.213912 -0.125033
v 0.000000 0.222754 -0.125033
v -0.033000 0.213912 -0.125033
v -0.057158 0.189754 -0.125033
v -0.066000 0.156754 -0.125033
v -0.057158 0.123754 -0.125033
v -0.033000 0.099596 -0.125033
vn 0.9996 0.0274 -0.0120
vn 1.0000 -0.0000 -0.0000
vn 0.8660 0.5000 -0.0000
vn 0.8753 0.4835 0.0107
vn 0.5000 0.8660 -0.0000
vn -0.0000 1.0000 -0.0000
vn -0.5000 0.8660 -0.0000
vn -0.8660 0.5000 -0.0000
vn -0.8753 0.4835 0.0107
vn -1.0000 -0.0000 -0.0000
vn -0.9996 0.0274 -0.0120
vn -0.8660 -0.5000 -0.0000
vn -0.9090 -0.3994 -0.1193
vn 0.9090 -0.3994 -0.1193
vn 0.8660 -0.5000 -0.0000
vn -0.0000 -0.9159 -0.4014
vn -0.5870 -0.7566 -0.2881
vn -0.5000 -0.8660 -0.0000
vn -0.0000 -1.0000 -0.0000
vn 0.5870 -0.7566 -0.2881
vn 0.5000 -0.8660 -0.0000
vn -0.9996 0.0273 0.0120
vn -0.8753 0.4835 -0.0107
vn 0.8753 0.4835 -0.0107
vn 0.9996 0.0273 0.0120
vn 0.9089 -0.3995 0.1192
vn -0.9089 -0.3995 0.1192
vn -0.0000 -0.9161 0.4010
vn 0.5869 -0.7568 0.2878
vn -0.5869 -0.7568 0.2878
vn -1.0000 -0.0000 0.0001
vn -0.8660 -0.0000 -0.5000
vn 1.0000 -0.0000 0.0001
vn 0.8660 -0.0000 0.5001
vn -0.5000 -0.0000 0.8660
vn -0.8660 -0.0000 0.5001
vn 0.5000 -0.0000 0.8660
vn -0.0000 -0.0000 1.0000
vn -0.0000 -0.0000 -1.0000
vn 0.5000 -0.0000 -0.8660
vn 0.8660 -0.0000 -0.5000
vn -0.5000 -0.0000 -0.8660
vn 0.5923 -0.2979 0.7486
vn 0.9306 -0.1681 0.3251
vn -0.9306 -0.1681 0.3251
vn -0.5923 -0.2979 0.7486
vn -0.0000 -0.3312 0.9435
vn -1.0000 -0.0060 -0.0000
vn 1.0000 -0.0060 -0.0000
vn 0.8844 0.4667 -0.0000
vn -0.8844 0.4667 -0.0000
vn -0.5922 -0.2977 -0.7488
vn -0.9306 -0.1681 -0.3251
vn 0.9306 -0.1681 -0.3251
vn 0.5922 -0.2977 -0.7488
vn -0.0000 -0.3308 -0.9437
vn -0.9274 -0.3740 -0.0001
vn -0.8032 -0.3739 -0.4638
vn 0.8032 -0.3739 -0.4638
vn 0.9274 -0.3740 -0.0001
vn -0.4637 -0.3739 -0.8032
vn 0.4637 -0.3739 -0.8032
vn -0.0000 -0.3739 -0.9275
vn 0.8032 -0.3740 0.4637
vn 0.4637 -0.3739 0.8032
vn -0.4637 -0.3739 0.8032
vn -0.8032 -0.3740 0.4637
vn -0.0000 -0.3739 0.9275
vn -0.0000 0.8720 0.4895
vn -0.4360 0.7552 0.4895
vn -0.7552 0.4360 0.4895
vn -0.8720 -0.0000 0.4895
vn -0.7552 -0.4360 0.4895
vn -0.4360 -0.7552 0.4895
vn -0.0000 -0.8720 0.4895
vn 0.4360 -0.7552 0.4895
vn 0.7552 -0.4360 0.4895
vn 0.8720 -0.0000 0.4895
vn 0.7552 0.4360 0.4895
vn 0.4360 0.7552 0.4895
vn -0.4361 0.7553 -0.4892
vn -0.0000 0.8721 -0.4892
vn -0.7553 0.4361 -0.4892
vn -0.8721 -0.0000 -0.4892
vn -0.7553 -0.4361 -0.4892
vn -0.4361 -0.7553 -0.4892
vn -0.0000 -0.8721 -0.4892
vn 0.4361 -0.7553 -0.4892
vn 0.7553 -0.4361 -0.4892
vn 0.8721 -0.0000 -0.4892
vn 0.7553 0.4361 -0.4892
vn 0.4361 0.7553 -0.4892
vt 0.766424 0.190743
vt 0.772098 0.190596
vt 0.772425 0.195908
vt 0.766674 0.196283
vt 0.772951 0.201358
vt 0.767076 0.201894
vt 0.773608 0.206965
vt 0.767588 0.207615
vt 0.774360 0.212729
vt 0.768183 0.213473
vt 0.775200 0.218657
vt 0.768842 0.219498
vt 0.776145 0.224768
vt 0.769556 0.225742
vt 0.777241 0.231005
vt 0.772875 0.231880
vt 0.768455 0.185215
vt 0.772031 0.185443
vt 0.779461 0.243053
vt 0.776184 0.238064
vt 0.778691 0.237271
vt 0.780719 0.242760
vt 0.770592 0.180084
vt 0.772990 0.176290
vt 0.773777 0.176617
vt 0.772507 0.180561
vt 0.746436 0.226825
vt 0.740223 0.226732
vt 0.740159 0.220888
vt 0.746360 0.220775
vt 0.739965 0.214994
vt 0.746171 0.214796
vt 0.739745 0.209058
vt 0.745945 0.208861
vt 0.739576 0.203124
vt 0.745733 0.202975
vt 0.739491 0.197271
vt 0.745553 0.197156
vt 0.739448 0.191612
vt 0.745387 0.191419
vt 0.739272 0.186190
vt 0.742964 0.185814
vt 0.744005 0.232848
vt 0.740048 0.232446
vt 0.738067 0.176771
vt 0.740585 0.180606
vt 0.738636 0.181130
vt 0.737281 0.177086
vt 0.741416 0.238513
vt 0.738546 0.242696
vt 0.737679 0.242293
vt 0.739295 0.237897
vt 0.758316 0.244210
vt 0.764001 0.247311
vt 0.763643 0.250700
vt 0.758253 0.250428
vt 0.755596 0.175449
vt 0.750658 0.172895
vt 0.750879 0.169999
vt 0.755516 0.170078
vt 0.747610 0.249665
vt 0.752670 0.247178
vt 0.752912 0.250489
vt 0.747791 0.250963
vt 0.746218 0.170684
vt 0.742175 0.169224
vt 0.742284 0.168836
vt 0.746391 0.169542
vt 0.768788 0.168896
vt 0.764804 0.170436
vt 0.764604 0.169306
vt 0.768673 0.168511
vt 0.760448 0.172751
vt 0.760149 0.169874
vt 0.769164 0.250094
vt 0.773928 0.252067
vt 0.773756 0.252519
vt 0.768907 0.251442
vt 0.743011 0.251255
vt 0.743120 0.251696
vt 0.745029 0.176261
vt 0.750017 0.180888
vt 0.751859 0.238137
vt 0.746310 0.243361
vt 0.741843 0.246500
vt 0.741080 0.173418
vt 0.758101 0.231779
vt 0.755837 0.186362
vt 0.756192 0.196745
vt 0.756485 0.202537
vt 0.756823 0.208389
vt 0.757192 0.214328
vt 0.757569 0.220382
vt 0.770766 0.243450
vt 0.764825 0.237940
vt 0.761347 0.180662
vt 0.766124 0.175934
vt 0.769964 0.173037
vt 0.775497 0.247084
vt 0.758233 0.251368
vt 0.752976 0.251434
vt 0.768758 0.252371
vt 0.763539 0.251666
vt 0.747887 0.251860
vt 0.742994 0.252451
vt 0.746486 0.168753
vt 0.750941 0.169173
vt 0.755506 0.169266
vt 0.760064 0.169052
vt 0.764491 0.168524
vt 0.742191 0.168169
vt 0.773809 0.253308
vt 0.768753 0.167844
vt 0.753170 0.256605
vt 0.748310 0.256912
vt 0.772956 0.258381
vt 0.768005 0.257548
vt 0.751171 0.164668
vt 0.755449 0.164746
vt 0.759723 0.164564
vt 0.763952 0.164127
vt 0.743487 0.257392
vt 0.758092 0.256599
vt 0.768153 0.163541
vt 0.742695 0.163838
vt 0.746922 0.164330
vt 0.763050 0.256913
vt 0.738516 0.203132
vt 0.738441 0.197244
vt 0.613687 0.920951
vt 0.643923 0.926270
vt 0.642333 0.931991
vt 0.625296 0.892531
vt 0.630551 0.895297
vt 0.639669 0.937304
vt 0.619602 0.890826
vt 0.613687 0.890251
vt 0.636031 0.942004
vt 0.635178 0.899027
vt 0.638999 0.903579
vt 0.643689 0.914441
vt 0.644381 0.920344
vt 0.641872 0.908782
vt 0.738461 0.191616
vt 0.738300 0.186271
vt 0.737708 0.181305
vt 0.737077 0.242407
vt 0.738286 0.237679
vt 0.739019 0.232345
vt 0.739219 0.226713
vt 0.739136 0.220921
vt 0.738922 0.215034
vt 0.738688 0.209089
vt 0.736744 0.176929
vt 0.733156 0.236895
vt 0.733567 0.231973
vt 0.733247 0.221124
vt 0.732884 0.215294
vt 0.732384 0.203190
vt 0.732441 0.197078
vt 0.732314 0.241544
vt 0.733129 0.186488
vt 0.732921 0.181874
vt 0.733531 0.226709
vt 0.732563 0.209292
vt 0.732908 0.191530
vt 0.732314 0.177550
vt 0.773918 0.201246
vt 0.774603 0.206831
vt 0.773408 0.180718
vt 0.772953 0.185498
vt 0.773360 0.195826
vt 0.777226 0.224548
vt 0.778401 0.230731
vt 0.773005 0.190568
vt 0.774298 0.176488
vt 0.779917 0.236957
vt 0.776245 0.218484
vt 0.775381 0.212578
vt 0.781706 0.243030
vt 0.783389 0.223337
vt 0.784699 0.229274
vt 0.780341 0.205998
vt 0.781281 0.211656
vt 0.778119 0.190281
vt 0.778702 0.195272
vt 0.786328 0.235304
vt 0.778547 0.177060
vt 0.777989 0.181208
vt 0.782283 0.217452
vt 0.779468 0.200524
vt 0.788171 0.241573
vt 0.777833 0.185591
vt 0.942616 0.320752
vt 0.942616 0.344211
vt 0.936720 0.343458
vt 0.931203 0.341247
vt 0.926419 0.337721
vt 0.922674 0.333106
vt 0.920209 0.327698
vt 0.919183 0.321844
vt 0.919661 0.315920
vt 0.921612 0.310306
vt 0.924912 0.305362
vt 0.929348 0.301407
vt 0.934635 0.298693
vt 0.940435 0.297396
vt 0.917403 0.468614
vt 0.923298 0.491330
vt 0.917403 0.492082
vt 0.928816 0.489120
vt 0.933601 0.485595
vt 0.937347 0.480982
vt 0.939815 0.475575
vt 0.940845 0.469721
vt 0.940371 0.463797
vt 0.938424 0.458181
vt 0.935129 0.453235
vt 0.930697 0.449275
vt 0.925413 0.446555
vt 0.919614 0.445250
s 1
f 67/1/1 5/2/2 7/3/3 68/4/4
f 68/4/4 7/3/3 9/5/5 69/6/5
f 69/6/5 9/5/5 11/7/6 70/8/6
f 70/8/6 11/7/6 13/9/7 71/10/7
f 71/10/7 13/9/7 15/11/8 72/12/9
f 72/12/9 15/11/8 17/13/10 73/14/11
f 73/14/11 17/13/10 18/15/12 76/16/13
f 67/1/1 77/17/14 3/18/15 5/2/2
f 66/19/16 75/20/17 19/21/18 1/22/19
f 74/23/20 66/24/16 1/25/19 2/26/21
f 77/17/14 74/23/20 2/26/21 3/18/15
f 75/20/17 76/16/13 18/15/12 19/21/18
f 59/27/22 29/28/10 31/29/8 60/30/23
f 60/30/23 31/29/8 33/31/7 61/32/7
f 61/32/7 33/31/7 35/33/6 62/34/6
f 62/34/6 35/33/6 37/35/5 63/36/5
f 63/36/5 37/35/5 39/37/3 64/38/24
f 64/38/24 39/37/3 41/39/2 65/40/25
f 65/40/25 41/39/2 42/41/15 57/42/26
f 59/27/22 58/43/27 27/44/12 29/28/10
f 54/45/28 56/46/29 43/47/21 25/48/19
f 55/49/30 54/50/28 25/51/19 26/52/18
f 58/43/27 55/49/30 26/52/18 27/44/12
f 56/46/29 57/42/26 42/41/15 43/47/21
f 80/53/31 79/54/32 32/55/32 38/56/31
f 78/57/33 81/58/34 51/59/34 40/60/33
f 82/61/35 83/62/36 53/63/36 49/64/35
f 84/65/37 85/66/38 52/67/38 50/68/37
f 86/69/39 87/70/40 36/71/40 30/72/39
f 88/73/41 78/57/33 40/60/33 28/74/41
f 81/58/34 84/65/37 50/68/37 51/59/34
f 87/70/40 88/73/41 28/74/41 36/71/40
f 89/75/42 86/76/39 30/77/39 34/78/42
f 83/62/36 80/53/31 38/56/31 53/63/36
f 85/79/38 82/61/35 49/64/35 52/80/38
f 79/54/32 89/75/42 34/78/42 32/55/32
f 45/81/43 46/82/44 57/42/26 56/46/29
f 48/83/45 44/84/46 55/49/30 58/43/27
f 44/84/46 47/85/47 54/50/28 55/49/30
f 47/86/47 45/81/43 56/46/29 54/45/28
f 16/87/48 48/83/45 58/43/27 59/27/22
f 4/88/49 65/40/25 57/42/26 46/82/44
f 6/89/50 64/38/24 65/40/25 4/88/49
f 8/90/5 63/36/5 64/38/24 6/89/50
f 10/91/6 62/34/6 63/36/5 8/90/5
f 12/92/7 61/32/7 62/34/6 10/91/6
f 14/93/51 60/30/23 61/32/7 12/92/7
f 16/87/48 59/27/22 60/30/23 14/93/51
f 21/94/52 22/95/53 76/16/13 75/20/17
f 24/96/54 20/97/55 74/23/20 77/17/14
f 20/97/55 23/98/56 66/24/16 74/23/20
f 23/99/56 21/94/52 75/20/17 66/19/16
f 4/88/49 24/96/54 77/17/14 67/1/1
f 16/87/48 73/14/11 76/16/13 22/95/53
f 14/93/51 72/12/9 73/14/11 16/87/48
f 12/92/7 71/10/7 72/12/9 14/93/51
f 10/91/6 70/8/6 71/10/7 12/92/7
f 8/90/5 69/6/5 70/8/6 10/91/6
f 6/89/50 68/4/4 69/6/5 8/90/5
f 4/88/49 67/1/1 68/4/4 6/89/50
f 22/95/53 21/94/52 89/75/42 79/54/32
f 47/85/47 44/84/46 82/61/35 85/79/38
f 48/83/45 16/87/48 80/53/31 83/62/36
f 21/94/52 23/99/56 86/76/39 89/75/42
f 20/97/55 24/96/54 88/73/41 87/70/40
f 46/82/44 45/81/43 84/65/37 81/58/34
f 24/96/54 4/88/49 78/57/33 88/73/41
f 23/98/56 20/97/55 87/70/40 86/69/39
f 45/81/43 47/86/47 85/66/38 84/65/37
f 44/84/46 48/83/45 83/62/36 82/61/35
f 4/88/49 46/82/44 81/58/34 78/57/33
f 16/87/48 22/95/53 79/54/32 80/53/31
f 53/63/6 38/56/6 95/100/6 101/101/6
f 32/55/6 34/78/6 93/102/6 92/103/6
f 52/80/6 49/64/6 97/104/6 100/105/6
f 51/59/6 50/68/6 98/106/6 99/107/6
f 40/60/6 51/59/6 99/107/6 96/108/6
f 28/74/6 40/60/6 96/108/6 90/109/6
f 38/56/6 32/55/6 92/103/6 95/100/6
f 36/71/6 28/74/6 90/109/6 94/110/6
f 50/68/6 52/67/6 100/111/6 98/106/6
f 34/78/6 30/77/6 91/112/6 93/102/6
f 49/64/6 53/63/6 101/101/6 97/104/6
f 30/72/6 36/71/6 94/110/6 91/113/6
f 97/104/35 101/101/36 117/114/36 119/115/35
f 93/102/42 91/112/39 125/116/39 122/117/42
f 96/108/33 99/107/34 115/118/34 114/119/33
f 94/110/40 90/109/41 123/120/41 124/121/40
f 100/105/38 97/104/35 119/115/35 120/122/38
f 90/109/41 96/108/33 114/119/33 123/120/41
f 101/101/36 95/100/31 116/123/31 117/114/36
f 91/113/39 94/110/40 124/121/40 125/124/39
f 98/106/37 100/111/38 120/125/38 118/126/37
f 99/107/34 98/106/37 118/126/37 115/118/34
f 95/100/31 92/103/32 121/127/32 116/123/31
f 92/103/32 93/102/42 122/117/42 121/127/32
f 39/37/39 37/35/39 106/128/39 105/129/39
f 102/130/19 114/131/57 115/132/58
f 102/130/19 117/133/59 116/134/60
f 102/130/19 115/132/58 118/135/61
f 102/130/19 119/136/62 117/133/59
f 102/130/19 120/137/63 119/136/62
f 102/130/19 118/135/61 120/138/63
f 102/130/19 121/139/64 122/140/65
f 102/130/19 124/141/66 123/142/67
f 102/130/19 125/143/68 124/141/66
f 102/130/19 116/134/60 121/139/64
f 102/130/19 122/140/65 125/143/68
f 102/130/19 123/142/67 114/131/57
f 41/39/39 39/37/39 105/129/39 104/144/39
f 43/47/39 42/41/39 103/145/39 126/146/39
f 26/52/39 25/51/39 113/147/39 112/148/39
f 29/28/39 27/44/39 111/149/39 110/150/39
f 31/29/39 29/28/39 110/150/39 109/151/39
f 42/41/39 41/39/39 104/144/39 103/145/39
f 33/31/39 31/29/39 109/151/39 108/152/39
f 27/44/39 26/52/39 112/148/39 111/149/39
f 35/33/39 33/31/39 108/152/39 107/153/39
f 25/48/39 43/47/39 126/146/39 113/154/39
f 37/35/39 35/33/39 107/153/39 106/128/39
f 111/149/12 112/148/18 152/155/18 151/156/12
f 108/152/7 109/151/8 149/157/8 148/158/7
f 105/129/3 106/128/5 146/159/5 145/160/3
f 112/148/18 113/147/19 141/161/19 152/155/18
f 126/146/21 103/145/15 143/162/15 142/163/21
f 109/151/8 110/150/10 150/164/10 149/157/8
f 106/128/5 107/153/6 147/165/6 146/159/5
f 103/145/15 104/144/2 144/166/2 143/162/15
f 110/150/10 111/149/12 151/156/12 150/164/10
f 113/154/19 126/146/21 142/163/21 141/167/19
f 107/153/6 108/152/7 148/158/7 147/165/6
f 104/144/2 105/129/3 145/160/3 144/166/2
f 11/7/38 9/5/38 133/168/38 134/169/38
f 3/18/38 2/26/38 129/170/38 130/171/38
f 9/5/38 7/3/38 132/172/38 133/168/38
f 18/15/38 17/13/38 137/173/38 138/174/38
f 7/3/38 5/2/38 131/175/38 132/172/38
f 5/2/38 3/18/38 130/171/38 131/175/38
f 2/26/38 1/25/38 128/176/38 129/170/38
f 19/21/38 18/15/38 138/174/38 139/177/38
f 17/13/38 15/11/38 136/178/38 137/173/38
f 15/11/38 13/9/38 135/179/38 136/178/38
f 1/22/38 19/21/38 139/177/38 128/180/38
f 13/9/38 11/7/38 134/169/38 135/179/38
f 138/174/12 137/173/10 162/181/10 163/182/12
f 135/179/7 134/169/6 159/183/6 160/184/7
f 132/172/3 131/175/2 156/185/2 157/186/3
f 139/177/18 138/174/12 163/182/12 164/187/18
f 129/170/21 128/176/19 154/188/19 153/189/21
f 136/178/8 135/179/7 160/184/7 161/190/8
f 133/168/5 132/172/3 157/186/3 158/191/5
f 128/180/19 139/177/18 164/187/18 154/192/19
f 130/171/15 129/170/21 153/189/21 155/193/15
f 137/173/10 136/178/8 161/190/8 162/181/10
f 134/169/6 133/168/5 158/191/5 159/183/6
f 131/175/2 130/171/15 155/193/15 156/185/2
f 127/194/38 141/195/69 142/196/70
f 127/194/38 142/196/70 143/197/71
f 127/194/38 143/197/71 144/198/72
f 127/194/38 144/198/72 145/199/73
f 127/194/38 145/199/73 146/200/74
f 127/194/38 146/200/74 147/201/75
f 127/194/38 147/201/75 148/202/76
f 127/194/38 148/202/76 149/203/77
f 127/194/38 149/203/77 150/204/78
f 127/194/38 150/204/78 151/205/79
f 127/194/38 151/205/79 152/206/80
f 127/194/38 152/206/80 141/207/69
f 140/208/39 153/209/81 154/210/82
f 140/208/39 155/211/83 153/209/81
f 140/208/39 156/212/84 155/211/83
f 140/208/39 157/213/85 156/212/84
f 140/208/39 158/214/86 157/213/85
f 140/208/39 159/215/87 158/214/86
f 140/208/39 160/216/88 159/215/87
f 140/208/39 161/217/89 160/216/88
f 140/208/39 162/218/90 161/217/89
f 140/208/39 163/219/91 162/218/90
f 140/208/39 164/220/92 163/219/91
f 140/208/39 154/221/82 164/220/92
