# Blender 4.1.1
# www.blender.org
o Pipe_Straight_4m
v -0.000000 -0.987566 -0.000000
v -0.042426 -0.666667 -0.042426
v -0.060000 -0.666667 -0.000000
v -0.042426 -0.666667 0.042426
v -0.000000 -0.666667 0.060000
v 0.042426 -0.666667 0.042426
v 0.060000 -0.666667 0.000000
v 0.042426 -0.666667 -0.042426
v -0.000000 -0.666667 -0.060000
v -0.042426 0.666667 -0.042426
v -0.060000 0.666667 -0.000000
v -0.042426 0.666667 0.042426
v 0.000000 0.666667 0.060000
v 0.042426 0.666667 0.042426
v 0.060000 0.666667 0.000000
v 0.042426 0.666667 -0.042426
v 0.000000 0.666667 -0.060000
v 0.000000 0.987566 -0.000000
v -0.046669 2.000000 -0.046669
v 0.000000 2.000000 -0.066000
v -0.066000 2.000000 -0.000000
v 0.046669 2.000000 -0.046669
v -0.046669 2.000000 0.046669
v 0.000000 2.000000 0.066000
v 0.046669 2.000000 0.046669
v 0.066000 2.000000 0.000000
v -0.046669 -2.000000 -0.046669
v -0.066000 -2.000000 -0.000000
v -0.046669 -2.000000 0.046669
v -0.000000 -2.000000 0.066000
v 0.046669 -2.000000 0.046669
v 0.066000 -2.000000 0.000000
v 0.046669 -2.000000 -0.046669
v -0.000000 -2.000000 -0.066000
v -0.000000 -1.900000 -0.066000
v -0.046669 -1.900000 -0.046669
v -0.066000 -1.900000 -0.000000
v -0.046669 -1.900000 0.046669
v -0.000000 -1.900000 0.066000
v 0.046669 -1.900000 0.046669
v 0.066000 -1.900000 0.000000
v 0.046669 -1.900000 -0.046669
v -0.046669 1.900000 -0.046669
v -0.066000 1.900000 -0.000000
v -0.046669 1.900000 0.046669
v 0.000000 1.900000 0.066000
v 0.046669 1.900000 0.046669
v 0.066000 1.900000 0.000000
v 0.046669 1.900000 -0.046669
v 0.000000 1.900000 -0.066000
v -0.000000 -1.900000 -0.060000
v -0.042427 -1.900000 -0.042426
v -0.060000 -1.900000 -0.000000
v -0.042427 -1.900000 0.042426
v -0.000000 -1.900000 0.060000
v 0.042426 -1.900000 0.042426
v 0.060000 -1.900000 0.000000
v 0.042426 -1.900000 -0.042426
v -0.042426 1.900000 -0.042426
v -0.060000 1.900000 -0.000000
v -0.042426 1.900000 0.042426
v 0.000000 1.900000 0.060000
v 0.042427 1.900000 0.042426
v 0.060000 1.900000 0.000000
v 0.042427 1.900000 -0.042426
v 0.000000 1.900000 -0.060000
vn -0.7071 -0.0000 -0.7071
vn -0.0000 -0.0000 -1.0000
vn -1.0000 -0.0000 -0.0000
vn -0.7071 -0.0000 0.7071
vn -0.0000 -0.0000 1.0000
vn 0.7071 -0.0000 0.7071
vn 1.0000 -0.0000 -0.0000
vn 0.7071 -0.0000 -0.7071
vn -0.0000 1.0000 -0.0000
vn -0.0000 0.0651 0.9979
vn 0.7056 0.0651 0.7056
vn 0.9979 0.0651 -0.0000
vn -0.7056 0.0651 0.7056
vn 0.7056 0.0651 -0.7056
vn -0.0000 0.0651 -0.9979
vn -0.7056 0.0651 -0.7056
vn -0.9979 0.0651 -0.0000
vn -0.0000 -1.0000 -0.0000
vn 0.9979 -0.0651 -0.0000
vn 0.7056 -0.0651 0.7056
vn 0.7056 -0.0651 -0.7056
vn -0.0000 -0.0651 -0.9979
vn -0.9979 -0.0651 -0.0000
vn -0.7056 -0.0651 -0.7056
vn -0.7056 -0.0651 0.7056
vn -0.0000 -0.0651 0.9979
vt 0.069741 0.037989
vt 0.069877 0.330536
vt 0.058974 0.330539
vt 0.058850 0.037990
vt 0.080633 0.038003
vt 0.080781 0.330532
vt 0.091509 0.038030
vt 0.091684 0.330527
vt 0.102267 0.038062
vt 0.102588 0.330522
vt 0.026201 0.038066
vt 0.026265 0.330542
vt 0.015362 0.330542
vt 0.015443 0.038107
vt 0.037073 0.038029
vt 0.037168 0.330542
vt 0.047961 0.038003
vt 0.048071 0.330541
vt 0.069893 0.647530
vt 0.058990 0.647527
vt 0.080797 0.647533
vt 0.091701 0.647538
vt 0.102605 0.647544
vt 0.026280 0.647524
vt 0.015377 0.647524
vt 0.037183 0.647524
vt 0.048086 0.647525
vt 0.069726 0.941341
vt 0.069707 0.962967
vt 0.058809 0.962943
vt 0.058835 0.941336
vt 0.080629 0.941333
vt 0.080627 0.963007
vt 0.091566 0.941306
vt 0.091589 0.963053
vt 0.102674 0.941275
vt 0.102607 0.963095
vt 0.026123 0.941243
vt 0.026048 0.962962
vt 0.015046 0.962971
vt 0.015028 0.941191
vt 0.037049 0.941292
vt 0.036999 0.962946
vt 0.047945 0.941320
vt 0.047913 0.962937
vt 0.583631 0.015028
vt 0.536230 0.249861
vt 0.524600 0.247211
vt 0.513117 0.243985
vt 0.547977 0.251930
vt 0.501809 0.240192
vt 0.490703 0.235840
vt 0.583631 0.254597
vt 0.571707 0.254301
vt 0.559812 0.253411
vt 0.583631 0.536965
vt 0.513117 0.308008
vt 0.524600 0.304782
vt 0.501809 0.311802
vt 0.490703 0.316153
vt 0.559812 0.298583
vt 0.571707 0.297693
vt 0.547977 0.300064
vt 0.536230 0.302132
vt 0.583631 0.297396
vt 0.058837 0.015116
vt 0.058853 0.036731
vt 0.047962 0.036745
vt 0.047936 0.015119
vt 0.037062 0.036771
vt 0.037017 0.015107
vt 0.026130 0.036818
vt 0.026060 0.015090
vt 0.015032 0.036868
vt 0.015054 0.015080
vt 0.102633 0.015028
vt 0.102674 0.036823
vt 0.091573 0.036782
vt 0.091624 0.015049
vt 0.080642 0.036744
vt 0.080664 0.015076
vt 0.069745 0.036730
vt 0.069741 0.015098
vt 0.058840 0.940078
vt 0.047952 0.940062
vt 0.037064 0.940035
vt 0.026191 0.939996
vt 0.015435 0.939953
vt 0.102261 0.940029
vt 0.091497 0.940055
vt 0.080621 0.940075
vt 0.069731 0.940083
s 1
f 52/1/1 2/2/1 9/3/2 51/4/2
f 53/5/3 3/6/3 2/2/1 52/1/1
f 54/7/4 4/8/4 3/6/3 53/5/3
f 55/9/5 5/10/5 4/8/4 54/7/4
f 56/11/6 6/12/6 5/13/5 55/14/5
f 57/15/7 7/16/7 6/12/6 56/11/6
f 58/17/8 8/18/8 7/16/7 57/15/7
f 51/4/2 9/3/2 8/18/8 58/17/8
f 2/2/1 10/19/1 17/20/2 9/3/2
f 3/6/3 11/21/3 10/19/1 2/2/1
f 4/8/4 12/22/4 11/21/3 3/6/3
f 5/10/5 13/23/5 12/22/4 4/8/4
f 6/12/6 14/24/6 13/25/5 5/13/5
f 7/16/7 15/26/7 14/24/6 6/12/6
f 8/18/8 16/27/8 15/26/7 7/16/7
f 9/3/2 17/20/2 16/27/8 8/18/8
f 43/28/1 19/29/1 20/30/2 50/31/2
f 44/32/3 21/33/3 19/29/1 43/28/1
f 45/34/4 23/35/4 21/33/3 44/32/3
f 46/36/5 24/37/5 23/35/4 45/34/4
f 47/38/6 25/39/6 24/40/5 46/41/5
f 48/42/7 26/43/7 25/39/6 47/38/6
f 49/44/8 22/45/8 26/43/7 48/42/7
f 50/31/2 20/30/2 22/45/8 49/44/8
f 18/46/9 20/47/10 19/48/11
f 18/46/9 19/48/11 21/49/12
f 18/46/9 22/50/13 20/47/10
f 18/46/9 21/49/12 23/51/14
f 18/46/9 23/51/14 24/52/15
f 18/46/9 24/53/15 25/54/16
f 18/46/9 25/54/16 26/55/17
f 18/46/9 26/55/17 22/50/13
f 1/56/18 28/57/19 27/58/20
f 1/56/18 29/59/21 28/57/19
f 1/56/18 30/60/22 29/59/21
f 1/56/18 32/61/23 31/62/24
f 1/56/18 33/63/25 32/61/23
f 1/56/18 27/58/20 34/64/26
f 1/56/18 31/62/24 30/65/22
f 1/56/18 34/64/26 33/63/25
f 34/66/2 35/67/2 42/68/8 33/69/8
f 33/69/8 42/68/8 41/70/7 32/71/7
f 32/71/7 41/70/7 40/72/6 31/73/6
f 31/73/6 40/72/6 39/74/5 30/75/5
f 30/76/5 39/77/5 38/78/4 29/79/4
f 29/79/4 38/78/4 37/80/3 28/81/3
f 28/81/3 37/80/3 36/82/1 27/83/1
f 27/83/1 36/82/1 35/67/2 34/66/2
f 66/84/18 50/31/18 49/44/18 65/85/18
f 65/85/18 49/44/18 48/42/18 64/86/18
f 64/86/18 48/42/18 47/38/18 63/87/18
f 63/87/18 47/38/18 46/41/18 62/88/18
f 62/89/18 46/36/18 45/34/18 61/90/18
f 61/90/18 45/34/18 44/32/18 60/91/18
f 60/91/18 44/32/18 43/28/18 59/92/18
f 59/92/18 43/28/18 50/31/18 66/84/18
f 35/67/9 51/4/9 58/17/9 42/68/9
f 42/68/9 58/17/9 57/15/9 41/70/9
f 41/70/9 57/15/9 56/11/9 40/72/9
f 40/72/9 56/11/9 55/14/9 39/74/9
f 39/77/9 55/9/9 54/7/9 38/78/9
f 38/78/9 54/7/9 53/5/9 37/80/9
f 37/80/9 53/5/9 52/1/9 36/82/9
f 36/82/9 52/1/9 51/4/9 35/67/9
f 10/19/1 59/92/1 66/84/2 17/20/2
f 11/21/3 60/91/3 59/92/1 10/19/1
f 12/22/4 61/90/4 60/91/3 11/21/3
f 13/23/5 62/89/5 61/90/4 12/22/4
f 14/24/6 63/87/6 62/88/5 13/25/5
f 15/26/7 64/86/7 63/87/6 14/24/6
f 16/27/8 65/85/8 64/86/7 15/26/7
f 17/20/2 66/84/2 65/85/8 16/27/8
