# Blender 4.1.1
# www.blender.org
o Pipe_Straight_(root2on2)
v -0.000000 0.146469 -0.000000
v 0.000000 0.156829 -0.000000
v -0.046669 0.353553 -0.046669
v 0.000000 0.353553 -0.066000
v -0.066000 0.353553 -0.000000
v 0.046669 0.353553 -0.046669
v -0.046669 0.353553 0.046669
v 0.000000 0.353553 0.066000
v 0.046669 0.353553 0.046669
v 0.066000 0.353553 0.000000
v -0.046669 -0.353553 -0.046669
v -0.066000 -0.353553 -0.000000
v -0.046669 -0.353553 0.046669
v -0.000000 -0.353553 0.066000
v 0.046669 -0.353553 0.046669
v 0.066000 -0.353553 0.000000
v 0.046669 -0.353553 -0.046669
v -0.000000 -0.353553 -0.066000
v -0.046669 0.253553 -0.046669
v -0.066000 0.253553 -0.000000
v -0.046669 0.253553 0.046669
v 0.000000 0.253553 0.066000
v 0.046669 0.253553 0.046669
v 0.066000 0.253553 0.000000
v 0.046669 0.253553 -0.046669
v 0.000000 0.253553 -0.066000
v -0.000000 -0.253553 -0.066000
v -0.046669 -0.253553 -0.046669
v -0.066000 -0.253553 -0.000000
v -0.046669 -0.253553 0.046669
v -0.000000 -0.253553 0.066000
v 0.046669 -0.253553 0.046669
v 0.066000 -0.253553 0.000000
v 0.046669 -0.253553 -0.046669
v -0.000000 -0.253553 -0.060000
v -0.042426 -0.253553 -0.042426
v -0.060000 -0.253553 -0.000000
v -0.042426 -0.253553 0.042426
v -0.000000 -0.253553 0.060000
v 0.042426 -0.253553 0.042426
v 0.060000 -0.253553 0.000000
v 0.042426 -0.253553 -0.042426
v -0.042426 0.253553 -0.042426
v -0.060000 0.253553 -0.000000
v -0.042426 0.253553 0.042426
v 0.000000 0.253553 0.060000
v 0.042426 0.253553 0.042426
v 0.060000 0.253553 0.000000
v 0.042426 0.253553 -0.042426
v 0.000000 0.253553 -0.060000
vn -0.7071 -0.0000 0.7071
vn -1.0000 -0.0000 -0.0000
vn -0.0000 -0.0000 1.0000
vn 0.7071 -0.0000 0.7071
vn -0.7071 -0.0000 -0.7071
vn -0.0000 -0.0000 -1.0000
vn 0.7071 -0.0000 -0.7071
vn 1.0000 -0.0000 -0.0000
vn -0.0000 1.0000 -0.0000
vn -0.0000 0.3181 0.9481
vn 0.6704 0.3181 0.6704
vn 0.9481 0.3181 -0.0000
vn -0.6704 0.3181 0.6704
vn 0.6704 0.3181 -0.6704
vn -0.0000 0.3181 -0.9481
vn -0.6704 0.3181 -0.6704
vn -0.9481 0.3181 -0.0000
vn -0.0000 -1.0000 -0.0000
vn 0.9914 -0.1309 -0.0000
vn 0.7010 -0.1309 0.7010
vn 0.7010 -0.1309 -0.7010
vn -0.0000 -0.1309 -0.9914
vn -0.9914 -0.1309 -0.0000
vn -0.7010 -0.1309 -0.7010
vn -0.7010 -0.1309 0.7010
vn -0.0000 -0.1309 0.9914
vt 0.568146 0.712098
vt 0.557165 0.712158
vt 0.557165 0.590632
vt 0.568148 0.590692
vt 0.579004 0.712042
vt 0.579004 0.590750
vt 0.502055 0.712276
vt 0.491141 0.712252
vt 0.491142 0.590540
vt 0.502057 0.590516
vt 0.546160 0.712207
vt 0.535145 0.712245
vt 0.535144 0.590547
vt 0.546159 0.590584
vt 0.524121 0.712271
vt 0.524120 0.590521
vt 0.513086 0.712283
vt 0.513086 0.590510
vt 0.546163 0.713479
vt 0.546256 0.735336
vt 0.535241 0.735380
vt 0.535147 0.713517
vt 0.557179 0.713428
vt 0.557283 0.735313
vt 0.568220 0.713359
vt 0.568346 0.735300
vt 0.579423 0.713287
vt 0.579457 0.735282
vt 0.501991 0.713551
vt 0.502043 0.735653
vt 0.490838 0.735765
vt 0.490705 0.713540
vt 0.513080 0.713561
vt 0.513161 0.735543
vt 0.524123 0.713546
vt 0.524218 0.735449
vt 0.866416 0.212005
vt 0.826270 0.184856
vt 0.834020 0.175960
vt 0.843690 0.169200
vt 0.820900 0.195361
vt 0.854706 0.164977
vt 0.866416 0.163541
vt 0.821438 0.230052
vt 0.818410 0.218649
vt 0.818227 0.206853
vt 0.819969 0.415194
vt 0.753340 0.318050
vt 0.763391 0.311872
vt 0.743956 0.325202
vt 0.735336 0.333257
vt 0.796520 0.299753
vt 0.808185 0.297987
vt 0.785090 0.302678
vt 0.774010 0.306731
vt 0.819969 0.297396
vt 0.535248 0.567411
vt 0.535154 0.589274
vt 0.524129 0.589246
vt 0.524224 0.567341
vt 0.513084 0.589232
vt 0.513165 0.567246
vt 0.501990 0.589241
vt 0.502045 0.567135
vt 0.490703 0.589251
vt 0.490838 0.567021
vt 0.579457 0.567514
vt 0.579421 0.589505
vt 0.568219 0.589432
vt 0.568348 0.567495
vt 0.557182 0.589362
vt 0.557288 0.567481
vt 0.546169 0.589312
vt 0.546262 0.567456
s 1
f 45/1/1 44/2/2 37/3/2 38/4/1
f 46/5/3 45/1/1 38/4/1 39/6/3
f 47/7/4 46/8/3 39/9/3 40/10/4
f 43/11/5 50/12/6 35/13/6 36/14/5
f 35/13/6 50/12/6 49/15/7 42/16/7
f 44/2/2 43/11/5 36/14/5 37/3/2
f 42/16/7 49/15/7 48/17/8 41/18/8
f 19/19/5 3/20/5 4/21/6 26/22/6
f 20/23/2 5/24/2 3/20/5 19/19/5
f 21/25/1 7/26/1 5/24/2 20/23/2
f 22/27/3 8/28/3 7/26/1 21/25/1
f 23/29/4 9/30/4 8/31/3 22/32/3
f 24/33/8 10/34/8 9/30/4 23/29/4
f 25/35/7 6/36/7 10/34/8 24/33/8
f 26/22/6 4/21/6 6/36/7 25/35/7
f 2/37/9 4/38/10 3/39/11
f 2/37/9 3/39/11 5/40/12
f 2/37/9 6/41/13 4/38/10
f 2/37/9 5/40/12 7/42/14
f 2/37/9 7/42/14 8/43/15
f 2/37/9 8/44/15 9/45/16
f 2/37/9 9/45/16 10/46/17
f 2/37/9 10/46/17 6/41/13
f 1/47/18 12/48/19 11/49/20
f 1/47/18 13/50/21 12/48/19
f 1/47/18 14/51/22 13/50/21
f 1/47/18 16/52/23 15/53/24
f 1/47/18 17/54/25 16/52/23
f 1/47/18 11/49/20 18/55/26
f 1/47/18 15/53/24 14/56/22
f 1/47/18 18/55/26 17/54/25
f 50/12/18 26/22/18 25/35/18 49/15/18
f 49/15/18 25/35/18 24/33/18 48/17/18
f 48/17/18 24/33/18 23/29/18 47/7/18
f 47/7/18 23/29/18 22/32/18 46/8/18
f 46/5/18 22/27/18 21/25/18 45/1/18
f 45/1/18 21/25/18 20/23/18 44/2/18
f 44/2/18 20/23/18 19/19/18 43/11/18
f 43/11/18 19/19/18 26/22/18 50/12/18
f 18/57/6 27/58/6 34/59/7 17/60/7
f 17/60/7 34/59/7 33/61/8 16/62/8
f 16/62/8 33/61/8 32/63/4 15/64/4
f 15/64/4 32/63/4 31/65/3 14/66/3
f 14/67/3 31/68/3 30/69/1 13/70/1
f 13/70/1 30/69/1 29/71/2 12/72/2
f 12/72/2 29/71/2 28/73/5 11/74/5
f 11/74/5 28/73/5 27/58/6 18/57/6
f 27/58/9 35/13/9 42/16/9 34/59/9
f 34/59/9 42/16/9 41/18/9 33/61/9
f 33/61/9 41/18/9 40/10/9 32/63/9
f 32/63/9 40/10/9 39/9/9 31/65/9
f 31/68/9 39/6/9 38/4/9 30/69/9
f 30/69/9 38/4/9 37/3/9 29/71/9
f 29/71/9 37/3/9 36/14/9 28/73/9
f 28/73/9 36/14/9 35/13/9 27/58/9
f 41/18/8 48/17/8 47/7/4 40/10/4
