# Blender 4.1.1
# www.blender.org
o Pipe_45deg
v 0.000000 0.092689 0.032052
v 0.046669 0.184932 0.001902
v 0.000000 0.197238 -0.012987
v -0.046669 0.184932 0.001902
v 0.066000 0.155222 0.037848
v 0.046669 0.125512 0.073793
v 0.000000 0.113206 0.088682
v -0.046669 0.125513 0.073793
v -0.066000 0.155222 0.037848
v -0.042426 0.071647 -0.041148
v -0.060000 0.067735 0.001097
v -0.042426 0.063823 0.043343
v 0.000000 0.062203 0.060842
v 0.042427 0.063823 0.043343
v 0.060000 0.067735 0.001097
v 0.042427 0.071647 -0.041148
v 0.000000 0.073267 -0.058647
v -0.042426 0.109252 -0.035202
v -0.060000 0.097842 0.005661
v -0.042426 0.086432 0.046525
v 0.000000 0.081706 0.063451
v 0.042427 0.086432 0.046525
v 0.060000 0.097842 0.005661
v 0.042427 0.109252 -0.035202
v 0.000000 0.113978 -0.052128
v -0.042426 0.147473 -0.019384
v -0.060000 0.127090 0.017825
v -0.042426 0.106707 0.055034
v 0.000000 0.098264 0.070447
v 0.042427 0.106707 0.055034
v 0.060000 0.127090 0.017825
v 0.042427 0.147473 -0.019384
v 0.000000 0.155916 -0.034797
v -0.042426 0.182230 0.004659
v -0.060000 0.155477 0.037588
v -0.042426 0.128724 0.070516
v 0.000000 0.117643 0.084156
v 0.042427 0.128724 0.070516
v 0.060000 0.155477 0.037588
v 0.042427 0.182230 0.004660
v 0.000000 0.193311 -0.008980
v 0.000000 0.073411 -0.064636
v 0.046669 0.071748 -0.045385
v 0.066000 0.067735 0.001092
v 0.046669 0.063721 0.047570
v 0.000000 0.062059 0.066821
v -0.046669 0.063721 0.047570
v -0.066000 0.067735 0.001092
v -0.046669 0.071748 -0.045385
v 0.015979 0.098933 0.036793
v -0.046669 0.000102 -0.046667
v -0.066000 -0.000000 -0.000000
v -0.046669 -0.000102 0.046667
v 0.000000 -0.000144 0.065997
v 0.046669 -0.000102 0.046667
v 0.066000 0.000000 0.000000
v 0.046669 0.000102 -0.046667
v 0.000000 0.000144 -0.065997
v -0.046669 0.232454 0.049072
v -0.000000 0.246444 0.035736
v 0.046669 0.164901 0.113465
v 0.066000 0.198677 0.081269
v 0.046669 0.232454 0.049072
v -0.066000 0.198677 0.081269
v -0.046669 0.164901 0.113465
v -0.000000 0.150910 0.126802
vn -0.6951 0.5065 -0.5102
vn -0.7030 0.5010 -0.5047
vn -0.0000 0.7040 -0.7102
vn -0.9997 0.0157 -0.0168
vn -1.0000 0.0036 -0.0047
vn -0.0000 0.9994 0.0336
vn 0.0229 0.9981 0.0565
vn 0.0229 0.9981 0.0566
vn -0.0000 -0.7103 0.7039
vn -0.7088 -0.5006 0.4970
vn -0.7180 -0.4939 0.4904
vn 0.7180 -0.4939 0.4904
vn 0.7088 -0.5006 0.4970
vn 0.9997 0.0157 -0.0168
vn 1.0000 0.0036 -0.0047
vn 0.6951 0.5065 -0.5102
vn 0.7030 0.5010 -0.5047
vn 0.0036 -0.7651 -0.6438
vn 0.0062 -0.7650 -0.6440
vn -0.0286 -0.7460 -0.6653
vn -0.0288 -0.7446 -0.6669
vn -0.0337 -0.7436 -0.6678
vn -0.0336 -0.7426 -0.6689
vn -0.0000 -0.7227 -0.6912
vn -0.0037 -0.7651 -0.6438
vn -0.0062 -0.7650 -0.6440
vn -0.0000 -0.7238 -0.6900
vn 0.0286 -0.7460 -0.6653
vn 0.0288 -0.7446 -0.6669
vn -1.0000 0.0004 -0.0034
vn -0.9999 0.0007 -0.0170
vn -0.6983 0.0128 -0.7157
vn -0.7048 0.0127 -0.7093
vn 1.0000 0.0004 -0.0034
vn 0.9999 0.0007 -0.0170
vn 0.7153 -0.0099 0.6987
vn 0.7082 -0.0100 0.7060
vn 0.7048 0.0127 -0.7093
vn 0.6983 0.0128 -0.7157
vn -0.6980 0.1118 -0.7073
vn -0.6934 0.1954 -0.6935
vn -0.0000 0.2715 -0.9624
vn -0.0000 0.1572 -0.9876
vn -0.9999 0.0038 -0.0138
vn -0.9996 0.0086 -0.0284
vn -0.7116 -0.0977 0.6958
vn -0.7237 -0.1831 0.6653
vn -0.0000 -0.1362 0.9907
vn -0.0000 -0.2642 0.9645
vn 0.7116 -0.0977 0.6958
vn 0.7237 -0.1831 0.6653
vn 0.9999 0.0038 -0.0138
vn 0.9996 0.0086 -0.0284
vn 0.6980 0.1118 -0.7073
vn 0.6934 0.1954 -0.6935
vn -0.6945 0.3442 -0.6319
vn -0.0000 0.4781 -0.8783
vn -0.9997 0.0120 -0.0231
vn -0.7205 -0.3356 0.6068
vn -0.0000 -0.4851 0.8745
vn 0.7205 -0.3356 0.6068
vn 0.9997 0.0120 -0.0231
vn 0.6945 0.3442 -0.6319
vn -0.6965 0.4083 -0.5901
vn -0.0000 0.5685 -0.8227
vn -0.9998 0.0097 -0.0153
vn -0.7143 -0.4026 0.5724
vn -0.0000 -0.5763 0.8172
vn 0.7143 -0.4026 0.5724
vn 0.9998 0.0097 -0.0153
vn 0.6965 0.4083 -0.5901
vn -0.0001 0.9968 0.0795
vn -0.0230 0.9981 0.0565
vn -0.0000 0.9968 0.0795
vn -0.0230 0.9981 0.0566
vn 0.0230 0.9981 0.0566
vn 0.0230 0.9981 0.0565
vn -0.0000 0.0182 -0.9998
vn 0.0336 -0.7426 -0.6689
vn 0.0337 -0.7436 -0.6678
vn -0.0000 -0.0137 0.9999
vn -0.7153 -0.0099 0.6987
vn -0.7082 -0.0100 0.7060
vn -0.0000 -0.9715 -0.2370
vn 0.8067 -0.5894 0.0432
vn 0.4919 -0.6944 0.5251
vn 0.6661 -0.4309 -0.6087
vn -0.0000 -0.3434 -0.9392
vn -0.6661 -0.4309 -0.6087
vn -0.8067 -0.5894 0.0432
vn -0.4919 -0.6944 0.5251
vn -0.0000 -0.7272 0.6864
vn -0.1125 0.8668 0.4859
vn 0.0143 0.0087 0.9999
vn 0.4736 0.1423 0.8691
vn -0.7105 0.6484 -0.2734
vn -0.8832 0.2729 0.3814
vn -0.5046 0.0367 0.8626
vn 0.7660 0.4082 0.4966
vn 0.6764 0.7324 -0.0774
vn 0.0332 0.8680 -0.4954
vt 0.650948 0.812993
vt 0.663516 0.811914
vt 0.663938 0.822007
vt 0.651234 0.821686
vt 0.650019 0.803761
vt 0.662028 0.801796
vt 0.630256 0.783000
vt 0.631542 0.783660
vt 0.630299 0.794221
vt 0.628909 0.793994
vt 0.646947 0.783143
vt 0.658043 0.781127
vt 0.660016 0.791568
vt 0.648590 0.793741
vt 0.648313 0.848348
vt 0.658846 0.850656
vt 0.656730 0.860195
vt 0.646589 0.858020
vt 0.649786 0.839024
vt 0.661066 0.841220
vt 0.650808 0.830216
vt 0.662924 0.831724
vt 0.648879 0.803969
vt 0.650053 0.813082
vt 0.647022 0.848058
vt 0.645545 0.857408
vt 0.648706 0.838797
vt 0.650430 0.821654
vt 0.649937 0.830085
vt 0.614334 0.802714
vt 0.627717 0.804138
vt 0.626992 0.813331
vt 0.613687 0.812754
vt 0.616476 0.841353
vt 0.628778 0.839022
vt 0.630405 0.848248
vt 0.618485 0.850724
vt 0.614784 0.831976
vt 0.627538 0.830324
vt 0.627919 0.813372
vt 0.634874 0.813766
vt 0.634871 0.821707
vt 0.627756 0.821873
vt 0.628861 0.804271
vt 0.635176 0.805008
vt 0.635689 0.794902
vt 0.636151 0.784148
vt 0.631645 0.848008
vt 0.636502 0.847266
vt 0.637056 0.856841
vt 0.633086 0.857287
vt 0.629842 0.838840
vt 0.635750 0.837916
vt 0.628433 0.830221
vt 0.635165 0.829536
vt 0.642261 0.813624
vt 0.642479 0.821626
vt 0.641726 0.804847
vt 0.640955 0.794813
vt 0.640335 0.784182
vt 0.641304 0.847297
vt 0.640718 0.856870
vt 0.641937 0.837948
vt 0.642357 0.829520
vt 0.647184 0.794027
vt 0.645740 0.783721
vt 0.632106 0.857836
vt 0.626916 0.821904
vt 0.613797 0.822474
vt 0.616620 0.781127
vt 0.615413 0.792205
vt 0.620437 0.860191
vt 0.920236 0.541272
vt 0.936549 0.525127
vt 0.943689 0.531850
vt 0.927209 0.522138
vt 0.917403 0.522291
vt 0.927209 0.560406
vt 0.917403 0.560253
vt 0.936549 0.557417
vt 0.943689 0.550694
vt 0.946413 0.541272
vt 0.824750 0.922633
vt 0.853499 0.924476
vt 0.851142 0.933996
vt 0.834296 0.904467
vt 0.843259 0.908444
vt 0.850393 0.915173
vt 0.844070 0.940789
vt 0.834647 0.943505
vt 0.824750 0.902216
vt 0.824850 0.943050
s 1
f 4/1/1 59/2/2 60/3/3 3/4/3
f 9/5/4 64/6/5 59/2/2 4/1/1
f 46/7/6 13/8/6 12/9/7 47/10/8
f 7/11/9 66/12/9 65/13/10 8/14/11
f 6/15/12 61/16/13 66/17/9 7/18/9
f 5/19/14 62/20/15 61/16/13 6/15/12
f 2/21/16 63/22/17 62/20/15 5/19/14
f 3/4/3 60/3/3 63/22/17 2/21/16
f 35/23/18 9/5/19 4/1/20 34/24/21
f 38/25/22 6/15/23 7/18/24 37/26/24
f 39/27/25 5/19/26 6/15/23 38/25/22
f 41/28/27 3/4/27 2/21/28 40/29/29
f 52/30/30 48/31/31 49/32/32 51/33/33
f 56/34/34 44/35/35 45/36/36 55/37/37
f 57/38/38 43/39/39 44/35/35 56/34/34
f 10/40/40 18/41/41 25/42/42 17/43/43
f 11/44/44 19/45/45 18/41/41 10/40/40
f 12/9/46 20/46/47 19/45/45 11/44/44
f 13/8/48 21/47/49 20/46/47 12/9/46
f 14/48/50 22/49/51 21/50/49 13/51/48
f 15/52/52 23/53/53 22/49/51 14/48/50
f 16/54/54 24/55/55 23/53/53 15/52/52
f 17/43/43 25/42/42 24/55/55 16/54/54
f 18/41/41 26/56/56 33/57/57 25/42/42
f 19/45/45 27/58/58 26/56/56 18/41/41
f 20/46/47 28/59/59 27/58/58 19/45/45
f 21/47/49 29/60/60 28/59/59 20/46/47
f 22/49/51 30/61/61 29/62/60 21/50/49
f 23/53/53 31/63/62 30/61/61 22/49/51
f 24/55/55 32/64/63 31/63/62 23/53/53
f 25/42/42 33/57/57 32/64/63 24/55/55
f 26/56/56 34/24/64 41/28/65 33/57/57
f 27/58/58 35/23/66 34/24/64 26/56/56
f 28/59/59 36/65/67 35/23/66 27/58/58
f 29/60/60 37/66/68 36/65/67 28/59/59
f 30/61/61 38/25/69 37/26/68 29/62/60
f 31/63/62 39/27/70 38/25/69 30/61/61
f 32/64/63 40/29/71 39/27/70 31/63/62
f 33/57/57 41/28/65 40/29/71 32/64/63
f 48/31/72 11/44/72 10/40/73 49/32/73
f 47/10/8 12/9/7 11/44/72 48/31/72
f 44/35/74 15/52/74 14/48/73 45/36/75
f 45/36/75 14/48/73 13/51/6 46/67/6
f 8/14/11 65/13/10 64/6/5 9/5/4
f 43/39/76 16/54/77 15/52/74 44/35/74
f 42/68/6 17/43/6 16/54/77 43/39/76
f 51/33/33 49/32/32 42/68/78 58/69/78
f 34/24/21 4/1/20 3/4/27 41/28/27
f 37/66/24 7/11/24 8/14/79 36/65/80
f 54/70/81 46/7/81 47/10/82 53/71/83
f 40/29/29 2/21/28 5/19/26 39/27/25
f 36/65/80 8/14/79 9/5/19 35/23/18
f 53/71/83 47/10/82 48/31/31 52/30/30
f 55/37/37 45/36/36 46/67/81 54/72/81
f 58/69/78 42/68/78 43/39/39 57/38/38
f 1/73/84 52/74/85 51/75/86
f 1/73/84 53/76/87 52/74/85
f 1/73/84 54/77/88 53/76/87
f 1/73/84 55/78/89 54/79/88
f 1/73/84 56/80/90 55/78/89
f 1/73/84 57/81/91 56/80/90
f 1/73/84 51/75/86 58/82/92
f 50/83/93 60/84/94 59/85/95
f 1/73/84 58/82/92 57/81/91
f 50/83/93 61/86/96 62/87/97
f 50/83/93 62/87/97 63/88/98
f 50/83/93 64/89/99 65/90/100
f 50/83/93 59/85/95 64/89/99
f 50/83/93 66/91/101 61/86/96
f 50/83/93 63/88/98 60/84/94
f 50/83/93 65/90/100 66/92/101
f 49/32/73 10/40/73 17/43/6 42/68/6
