# Blender 4.1.1
# www.blender.org
o Pipe_60deg
v 0.000037 0.116869 0.040473
v -0.042389 0.104985 -0.039393
v -0.059963 0.097370 0.002345
v -0.042389 0.089756 0.044082
v 0.000037 0.086601 0.061370
v 0.042464 0.089756 0.044082
v 0.060037 0.097370 0.002345
v 0.042464 0.104985 -0.039393
v 0.000037 0.108139 -0.056681
v -0.042389 0.142919 -0.027865
v -0.059963 0.126015 0.011049
v -0.042389 0.109112 0.049962
v 0.000037 0.102110 0.066081
v 0.042464 0.109112 0.049962
v 0.060037 0.126015 0.011049
v 0.042464 0.142919 -0.027865
v 0.000037 0.149921 -0.043983
v -0.042389 0.176864 -0.008241
v -0.059963 0.151671 0.025895
v -0.042389 0.126477 0.060031
v 0.000037 0.116042 0.074171
v 0.042464 0.126477 0.060031
v 0.060037 0.151671 0.025895
v 0.042464 0.176864 -0.008241
v 0.000037 0.187299 -0.022381
v -0.042389 0.206801 0.019569
v -0.059963 0.174336 0.046883
v -0.042389 0.141871 0.074197
v 0.000037 0.128424 0.085511
v 0.042464 0.141871 0.074197
v 0.060037 0.174336 0.046883
v 0.042464 0.206801 0.019569
v 0.000037 0.220248 0.008256
v -0.003519 0.119629 0.036793
v -0.046705 0.262631 0.107195
v -0.000036 0.279641 0.098015
v 0.046633 0.180507 0.151533
v 0.065964 0.221570 0.129367
v 0.046633 0.262633 0.107199
v -0.066036 0.221568 0.129362
v -0.046705 0.180505 0.151530
v -0.000036 0.163497 0.160713
v -0.046667 -0.000163 -0.046665
v -0.065999 -0.000075 0.000002
v -0.046670 0.000057 0.046668
v -0.000002 0.000156 0.065996
v 0.046667 0.000163 0.046665
v 0.065999 0.000075 -0.000002
v 0.046670 -0.000057 -0.046668
v 0.000002 -0.000156 -0.065996
v -0.046592 0.059842 -0.046414
v -0.065924 0.059930 0.000253
v -0.046595 0.060062 0.046918
v 0.000073 0.060161 0.066247
v 0.046742 0.060168 0.046916
v 0.066074 0.060080 0.000249
v 0.046744 0.059948 -0.046417
v 0.000077 0.059850 -0.065745
v -0.065962 0.191965 0.073431
v -0.046631 0.150902 0.095599
v 0.000038 0.133894 0.104783
v 0.046707 0.150904 0.095603
v 0.066038 0.191967 0.073437
v -0.046631 0.233028 0.051265
v 0.000038 0.250038 0.042085
v 0.046707 0.233030 0.051269
v -0.059964 0.192026 0.073404
v -0.042391 0.154755 0.093675
v 0.000036 0.139317 0.102072
v 0.042462 0.154755 0.093675
v 0.060036 0.192026 0.073404
v -0.042391 0.229296 0.053133
v 0.000036 0.244734 0.044737
v 0.042462 0.229296 0.053133
v -0.042389 0.060002 -0.042258
v -0.059963 0.060002 0.000169
v -0.042389 0.060002 0.042595
v 0.000037 0.060002 0.060169
v 0.042464 0.060002 0.042595
v 0.060037 0.060002 0.000169
v 0.042464 0.060002 -0.042258
v 0.000037 0.060002 -0.059831
vn -0.7059 0.6256 -0.3321
vn -0.7082 0.6236 -0.3310
vn -0.0003 0.8838 -0.4678
vn 0.0003 0.8838 -0.4678
vn -1.0000 0.0012 -0.0020
vn -1.0000 -0.0023 -0.0001
vn -0.0000 -0.0477 0.9989
vn -0.0000 -0.1702 0.9854
vn -0.7228 -0.1186 0.6809
vn -0.7119 -0.0349 0.7014
vn 0.0003 -0.8838 0.4678
vn -0.0003 -0.8838 0.4678
vn -0.7062 -0.6261 0.3305
vn -0.7079 -0.6246 0.3297
vn 0.7082 -0.6236 0.3310
vn 0.7059 -0.6256 0.3321
vn 1.0000 0.0023 0.0001
vn 1.0000 -0.0012 0.0020
vn 0.7062 0.6261 -0.3305
vn 0.7079 0.6246 -0.3297
vn -0.6936 0.1285 -0.7088
vn -0.6935 0.2869 -0.6609
vn -0.0000 0.3982 -0.9173
vn -0.0000 0.1788 -0.9839
vn -0.9996 0.0056 -0.0283
vn -0.9996 0.0111 -0.0256
vn -0.7214 -0.2762 0.6350
vn -0.0000 -0.3989 0.9170
vn 0.7228 -0.1186 0.6809
vn 0.7214 -0.2762 0.6350
vn 0.9996 0.0056 -0.0283
vn 0.9996 0.0111 -0.0256
vn 0.6936 0.1285 -0.7088
vn 0.6935 0.2869 -0.6609
vn -0.6936 0.4281 -0.5793
vn -0.0000 0.5943 -0.8042
vn -0.9996 0.0162 -0.0217
vn -0.7204 -0.4112 0.5585
vn -0.0000 -0.5925 0.8055
vn 0.7204 -0.4112 0.5585
vn 0.9996 0.0162 -0.0217
vn 0.6936 0.4281 -0.5793
vn -0.6935 0.5481 -0.4677
vn -0.0000 0.7608 -0.6489
vn -0.9996 0.0217 -0.0188
vn -0.7225 -0.5263 0.4484
vn -0.0000 -0.7611 0.6486
vn 0.7225 -0.5262 0.4484
vn 0.9996 0.0217 -0.0188
vn 0.6935 0.5481 -0.4676
vn -0.9999 0.0022 -0.0141
vn -0.6981 0.0455 -0.7145
vn 0.9999 0.0022 -0.0141
vn 0.7119 -0.0349 0.7014
vn 0.6981 0.0455 -0.7145
vn -0.0000 0.0645 -0.9979
vn 0.0213 0.7017 0.7122
vn -0.0031 -0.3573 0.9340
vn 0.5413 -0.2341 0.8076
vn -0.7156 0.6962 -0.0566
vn -0.8723 0.1826 0.4536
vn -0.5362 -0.2140 0.8165
vn 0.8914 0.1626 0.4230
vn 0.7188 0.6887 -0.0949
vn -0.0061 0.9427 -0.3336
vn -0.0000 -0.9645 -0.2641
vn 0.8614 -0.5051 0.0538
vn 0.5262 -0.6329 0.5680
vn 0.7048 -0.3155 -0.6354
vn 0.0005 -0.2136 -0.9769
vn -0.7043 -0.3152 -0.6361
vn -0.8613 -0.5052 0.0540
vn -0.5250 -0.6332 0.5687
vn 0.0009 -0.6730 0.7397
vn -0.7066 0.0038 -0.7076
vn -0.7076 0.0038 -0.7066
vn 0.0006 0.0042 -1.0000
vn -0.0006 0.0042 -1.0000
vn 0.7082 0.0021 -0.7060
vn 0.7060 0.0021 -0.7082
vn 1.0000 -0.0013 0.0016
vn 1.0000 -0.0012 -0.0016
vn 0.7076 -0.0038 0.7066
vn 0.7066 -0.0038 0.7076
vn 0.0006 -0.0042 1.0000
vn -0.0006 -0.0042 1.0000
vn -0.7082 -0.0021 0.7060
vn -0.7060 -0.0021 0.7082
vn -1.0000 0.0012 0.0016
vn -1.0000 0.0013 -0.0016
vn 0.0120 -0.4616 -0.8870
vn 0.0120 -0.4615 -0.8871
vn 0.0008 -0.4721 -0.8815
vn 0.0007 -0.4721 -0.8815
vn 0.0001 -0.4515 -0.8922
vn 0.0117 -0.4618 -0.8869
vn 0.0117 -0.4617 -0.8870
vn -0.0000 -0.4721 -0.8815
vn 0.0002 -0.4721 -0.8815
vn -0.0115 -0.4618 -0.8869
vn -0.0115 -0.4619 -0.8868
vn 0.0001 -0.4515 -0.8923
vn -0.0112 -0.4621 -0.8868
vn -0.0112 -0.4620 -0.8868
vn -0.6943 0.5978 -0.4007
vn -0.0000 0.8305 -0.5570
vn -0.9998 0.0180 -0.0128
vn -0.0000 -0.8347 0.5507
vn -0.7161 -0.5822 0.3850
vn 0.7161 -0.5822 0.3850
vn 0.9998 0.0180 -0.0127
vn 0.6943 0.5979 -0.4006
vn -0.0152 0.9997 -0.0177
vn -0.0151 0.9997 -0.0178
vn -0.0024 0.9998 -0.0222
vn -0.0023 0.9998 -0.0222
vn 0.0020 1.0000 -0.0093
vn 0.0019 1.0000 -0.0091
vn -0.0109 0.9999 -0.0048
vn -0.0111 0.9999 -0.0049
vn -0.0153 0.9997 -0.0179
vn -0.0154 0.9997 -0.0178
vn -0.0023 0.9997 -0.0224
vn -0.0023 0.9997 -0.0225
vn 0.0025 0.9999 -0.0097
vn 0.0024 1.0000 -0.0095
vn -0.0105 0.9999 -0.0049
vn -0.0103 0.9999 -0.0049
vt 0.147424 0.770674
vt 0.133631 0.772427
vt 0.132730 0.760574
vt 0.146540 0.760606
vt 0.149730 0.781059
vt 0.135657 0.784081
vt 0.182000 0.803587
vt 0.175152 0.802213
vt 0.177023 0.790208
vt 0.184667 0.792013
vt 0.155852 0.803879
vt 0.141145 0.807458
vt 0.138313 0.795713
vt 0.152848 0.792108
vt 0.152568 0.729523
vt 0.138347 0.726028
vt 0.141076 0.714553
vt 0.155436 0.718031
vt 0.149590 0.740357
vt 0.135760 0.737412
vt 0.147376 0.750601
vt 0.133731 0.748858
vt 0.180098 0.769253
vt 0.172358 0.768895
vt 0.172355 0.760433
vt 0.180355 0.760300
vt 0.178938 0.779027
vt 0.172084 0.778341
vt 0.171520 0.789577
vt 0.170882 0.801817
vt 0.176068 0.731049
vt 0.170757 0.731771
vt 0.169939 0.719970
vt 0.174017 0.719530
vt 0.178240 0.741866
vt 0.171565 0.742717
vt 0.179725 0.751420
vt 0.172098 0.752015
vt 0.164882 0.769013
vt 0.164677 0.760526
vt 0.165334 0.778447
vt 0.166015 0.789616
vt 0.166609 0.801800
vt 0.165416 0.731825
vt 0.165839 0.720026
vt 0.164949 0.742756
vt 0.164696 0.752073
vt 0.156914 0.769442
vt 0.156427 0.760587
vt 0.158276 0.779092
vt 0.160355 0.790200
vt 0.162201 0.802165
vt 0.159903 0.731322
vt 0.161588 0.719695
vt 0.158008 0.742221
vt 0.156792 0.751765
vt 0.187635 0.780871
vt 0.189699 0.770305
vt 0.186622 0.739782
vt 0.183392 0.729112
vt 0.180540 0.718068
vt 0.189098 0.749987
vt 0.190214 0.760073
vt 0.887346 0.471050
vt 0.850097 0.481165
vt 0.850171 0.469787
vt 0.875975 0.500278
vt 0.864922 0.497585
vt 0.855532 0.491161
vt 0.855262 0.459612
vt 0.863386 0.451648
vt 0.887346 0.500670
vt 0.872795 0.445250
vt 0.931789 0.189497
vt 0.909620 0.212008
vt 0.900843 0.204767
vt 0.920447 0.215502
vt 0.931789 0.216407
vt 0.913993 0.167437
vt 0.924684 0.163541
vt 0.904480 0.173679
vt 0.897925 0.182978
vt 0.896472 0.194262
vt 0.204501 0.771568
vt 0.190910 0.770434
vt 0.191343 0.760030
vt 0.204509 0.759564
vt 0.190236 0.749794
vt 0.203226 0.747938
vt 0.187860 0.739447
vt 0.200959 0.736575
vt 0.198178 0.725283
vt 0.184782 0.728664
vt 0.181776 0.717275
vt 0.195319 0.713883
vt 0.200209 0.795468
vt 0.186121 0.792451
vt 0.188936 0.781169
vt 0.202690 0.783571
vt 0.197584 0.807458
vt 0.183325 0.804405
vt 0.154326 0.791636
vt 0.150986 0.780728
vt 0.147638 0.760617
vt 0.148488 0.750761
vt 0.150827 0.740680
vt 0.154012 0.729973
vt 0.156669 0.718805
vt 0.157127 0.803098
vt 0.148546 0.770522
s 1
f 64/1/1 35/2/2 36/3/3 65/4/4
f 59/5/5 40/6/6 35/2/2 64/1/1
f 78/7/7 5/8/8 4/9/9 77/10/10
f 61/11/11 42/12/12 41/13/13 60/14/14
f 62/15/15 37/16/16 42/17/12 61/18/11
f 63/19/17 38/20/18 37/16/16 62/15/15
f 66/21/19 39/22/20 38/20/18 63/19/17
f 65/4/4 36/3/3 39/22/20 66/21/19
f 2/23/21 10/24/22 17/25/23 9/26/24
f 3/27/25 11/28/26 10/24/22 2/23/21
f 4/9/9 12/29/27 11/28/26 3/27/25
f 5/8/8 13/30/28 12/29/27 4/9/9
f 6/31/29 14/32/30 13/33/28 5/34/8
f 7/35/31 15/36/32 14/32/30 6/31/29
f 8/37/33 16/38/34 15/36/32 7/35/31
f 9/26/24 17/25/23 16/38/34 8/37/33
f 10/24/22 18/39/35 25/40/36 17/25/23
f 11/28/26 19/41/37 18/39/35 10/24/22
f 12/29/27 20/42/38 19/41/37 11/28/26
f 13/30/28 21/43/39 20/42/38 12/29/27
f 14/32/30 22/44/40 21/45/39 13/33/28
f 15/36/32 23/46/41 22/44/40 14/32/30
f 16/38/34 24/47/42 23/46/41 15/36/32
f 17/25/23 25/40/36 24/47/42 16/38/34
f 18/39/35 26/48/43 33/49/44 25/40/36
f 19/41/37 27/50/45 26/48/43 18/39/35
f 20/42/38 28/51/46 27/50/45 19/41/37
f 21/43/39 29/52/47 28/51/46 20/42/38
f 22/44/40 30/53/48 29/54/47 21/45/39
f 23/46/41 31/55/49 30/53/48 22/44/40
f 24/47/42 32/56/50 31/55/49 23/46/41
f 25/40/36 33/49/44 32/56/50 24/47/42
f 76/57/51 3/27/25 2/23/21 75/58/52
f 77/10/10 4/9/9 3/27/25 76/57/51
f 80/59/53 7/35/31 6/31/29 79/60/54
f 79/60/54 6/31/29 5/34/8 78/61/7
f 60/14/14 41/13/13 40/6/6 59/5/5
f 81/62/55 8/37/33 7/35/31 80/59/53
f 82/63/56 9/26/24 8/37/33 81/62/55
f 34/64/57 36/65/58 35/66/59
f 34/64/57 37/67/60 38/68/61
f 34/64/57 38/68/61 39/69/62
f 34/64/57 40/70/63 41/71/64
f 34/64/57 35/66/59 40/70/63
f 34/64/57 42/72/65 37/67/60
f 34/64/57 39/69/62 36/65/58
f 34/64/57 41/71/64 42/73/65
f 1/74/66 44/75/67 43/76/68
f 1/74/66 45/77/69 44/75/67
f 1/74/66 46/78/70 45/77/69
f 1/74/66 47/79/71 46/80/70
f 1/74/66 48/81/72 47/79/71
f 1/74/66 49/82/73 48/81/72
f 1/74/66 43/76/68 50/83/74
f 1/74/66 50/83/74 49/82/73
f 75/58/52 2/23/21 9/26/24 82/63/56
f 43/84/75 51/85/76 58/86/77 50/87/78
f 50/87/78 58/86/77 57/88/79 49/89/80
f 49/89/80 57/88/79 56/90/81 48/91/82
f 47/92/83 55/93/84 54/94/85 46/95/86
f 48/91/82 56/90/81 55/93/84 47/92/83
f 45/96/87 53/97/88 52/98/89 44/99/90
f 44/99/90 52/98/89 51/85/76 43/84/75
f 46/100/86 54/101/85 53/97/88 45/96/87
f 68/102/91 60/14/92 59/5/93 67/103/94
f 73/104/95 65/4/95 66/21/96 74/105/97
f 74/105/97 66/21/96 63/19/98 71/106/99
f 71/106/99 63/19/98 62/15/100 70/107/101
f 70/107/101 62/15/100 61/18/102 69/108/102
f 69/109/102 61/11/102 60/14/92 68/102/91
f 67/103/94 59/5/93 64/1/103 72/110/104
f 72/110/104 64/1/103 65/4/95 73/104/95
f 26/48/43 72/110/105 73/104/106 33/49/44
f 27/50/45 67/103/107 72/110/105 26/48/43
f 29/52/47 69/109/108 68/102/109 28/51/46
f 30/53/48 70/107/110 69/108/108 29/54/47
f 31/55/49 71/106/111 70/107/110 30/53/48
f 32/56/50 74/105/112 71/106/111 31/55/49
f 33/49/44 73/104/106 74/105/112 32/56/50
f 28/51/46 68/102/109 67/103/107 27/50/45
f 51/85/113 75/58/114 82/63/115 58/86/116
f 58/86/116 82/63/115 81/62/117 57/88/118
f 57/88/118 81/62/117 80/59/119 56/90/120
f 55/93/121 79/60/122 78/61/123 54/94/124
f 56/90/120 80/59/119 79/60/122 55/93/121
f 53/97/125 77/10/126 76/57/127 52/98/128
f 52/98/128 76/57/127 75/58/114 51/85/113
f 54/101/124 78/7/123 77/10/126 53/97/125
