# Blender 4.1.1
# www.blender.org
o Pipe_90deg2
v 0.000000 0.078753 0.028354
v -0.046669 0.033866 -0.046669
v -0.066000 0.033866 -0.000000
v -0.046669 0.033866 0.046669
v -0.000000 0.033866 0.066000
v 0.046669 0.033866 0.046669
v 0.066000 0.033866 0.000000
v 0.046669 0.033866 -0.046669
v 0.000000 0.033866 -0.066000
v -0.042426 0.084429 -0.028772
v -0.060000 0.068675 0.008548
v -0.042426 0.046652 0.044811
v -0.000000 0.037530 0.059832
v 0.042426 0.046652 0.044811
v 0.060000 0.068675 0.008548
v 0.042426 0.084429 -0.028772
v 0.000000 0.093551 -0.043792
v -0.042426 0.134226 0.029022
v -0.060000 0.094636 0.043012
v -0.042426 0.055628 0.059696
v -0.000000 0.039470 0.066606
v 0.042426 0.055628 0.059696
v 0.060000 0.094636 0.043012
v 0.042426 0.134226 0.029022
v 0.000000 0.150384 0.022112
v -0.046669 0.146380 0.067454
v -0.066000 0.099711 0.067454
v -0.046669 0.053042 0.067454
v -0.000000 0.033711 0.067454
v 0.046669 0.053042 0.067454
v 0.066000 0.099711 0.067454
v 0.046669 0.146380 0.067454
v 0.000000 0.165711 0.067454
v 0.000000 0.080045 0.028479
v -0.046669 0.000000 -0.046669
v -0.066000 0.000000 -0.000000
v -0.046669 0.000000 0.046669
v -0.000000 0.000000 0.066000
v 0.046669 -0.000000 0.046669
v 0.066000 -0.000000 0.000000
v 0.000000 0.000000 -0.066000
v 0.046669 -0.000000 -0.046669
v -0.046669 0.146380 0.105250
v -0.066000 0.099711 0.105250
v -0.046669 0.053042 0.105250
v -0.000000 0.033711 0.105250
v 0.000000 0.165711 0.105250
v 0.046669 0.146380 0.105250
v 0.046669 0.053042 0.105250
v 0.066000 0.099711 0.105250
v -0.042426 0.033866 -0.042426
v -0.042426 0.033866 0.042426
v 0.042426 0.033866 0.042426
v 0.042426 0.033866 -0.042426
v -0.060000 0.033866 -0.000000
v -0.000000 0.033866 0.060000
v 0.060000 0.033866 0.000000
v 0.000000 0.033866 -0.060000
v -0.042426 0.142137 0.067454
v -0.042426 0.057284 0.067454
v 0.042426 0.057284 0.067454
v 0.042426 0.142137 0.067454
v -0.060000 0.099711 0.067454
v -0.000000 0.039711 0.067454
v 0.060000 0.099711 0.067454
v 0.000000 0.159711 0.067454
v -0.042426 0.117531 -0.005549
v -0.042426 0.051140 0.052253
v 0.042426 0.051140 0.052253
v 0.042426 0.117531 -0.005549
v -0.060000 0.081655 0.025780
v -0.000000 0.038500 0.063219
v 0.060000 0.081655 0.025780
v 0.000000 0.130171 -0.016515
vn -1.0000 -0.0000 -0.0000
vn -0.7071 0.7071 -0.0000
vn -0.0000 -0.0000 1.0000
vn -0.7071 -0.0000 0.7071
vn 0.7071 -0.0000 0.7071
vn 1.0000 -0.0000 -0.0000
vn 0.7071 -0.0000 -0.7071
vn -0.7071 -0.0000 -0.7071
vn -0.0000 -0.0000 -1.0000
vn -0.7071 -0.7071 -0.0000
vn -0.7184 -0.1137 0.6863
vn -0.7703 -0.3656 0.5225
vn -0.9964 0.0287 -0.0796
vn -0.9981 0.0208 -0.0588
vn -0.0000 -0.1335 0.9910
vn -0.0000 -0.5878 0.8090
vn 0.7184 -0.1137 0.6863
vn 0.7703 -0.3656 0.5225
vn 0.9981 0.0208 -0.0588
vn 0.9964 0.0287 -0.0796
vn 0.6621 0.1941 -0.7239
vn 0.6847 0.3172 -0.6561
vn -0.6621 0.1941 -0.7239
vn -0.6847 0.3172 -0.6561
vn -0.0000 0.4349 -0.9005
vn -0.0000 0.2614 -0.9652
vn -0.9988 0.0481 -0.0098
vn -0.9987 0.0498 -0.0098
vn -0.6758 0.7219 -0.1487
vn -0.6921 0.6805 -0.2406
vn -0.6800 0.5603 -0.4729
vn -0.0000 0.9437 -0.3309
vn -0.0000 0.7610 -0.6488
vn -0.9998 -0.0214 -0.0006
vn -0.6912 -0.6302 0.3538
vn -0.7235 -0.6449 0.2460
vn -0.0000 -0.8930 0.4500
vn -0.0000 -0.9433 0.3318
vn 0.6912 -0.6302 0.3538
vn 0.7235 -0.6449 0.2460
vn 0.9998 -0.0214 -0.0006
vn 0.9988 0.0481 -0.0098
vn 0.6800 0.5603 -0.4729
vn 0.6921 0.6805 -0.2406
vn -0.0000 1.0000 -0.0000
vn 0.7071 0.7071 -0.0000
vn -0.0000 -1.0000 -0.0000
vn 0.7071 -0.7071 -0.0000
vn -0.0000 -0.9751 -0.2216
vn 0.7586 -0.6503 0.0406
vn 0.4597 -0.7401 0.4909
vn -0.0000 -0.4313 -0.9022
vn 0.6344 -0.5109 -0.5801
vn -0.7586 -0.6503 0.0406
vn -0.6344 -0.5109 -0.5801
vn -0.0000 -0.7677 0.6408
vn -0.4597 -0.7401 0.4909
vn -0.0000 0.1543 0.9880
vn 0.4769 -0.5006 0.7225
vn 0.7543 -0.0287 0.6559
vn 0.6011 0.5658 0.5644
vn -0.0000 0.8562 0.5167
vn -0.0000 -0.6674 0.7447
vn -0.4769 -0.5006 0.7225
vn -0.6011 0.5658 0.5644
vn -0.7543 -0.0287 0.6559
vn -0.0000 0.9795 -0.2015
vn 0.6758 0.7219 -0.1487
vn 0.9987 0.0498 -0.0098
vn 0.7263 -0.6718 0.1455
vn -0.0000 -0.9765 0.2153
vn -0.7263 -0.6718 0.1455
vt 0.266878 0.786361
vt 0.254525 0.789787
vt 0.251832 0.778890
vt 0.264244 0.776723
vt 0.319154 0.811165
vt 0.308840 0.807556
vt 0.312599 0.797189
vt 0.322800 0.800745
vt 0.327487 0.733052
vt 0.315628 0.736141
vt 0.312136 0.724158
vt 0.324180 0.720884
vt 0.330418 0.745218
vt 0.318750 0.747339
vt 0.331424 0.757362
vt 0.320432 0.757949
vt 0.329159 0.779838
vt 0.319031 0.777719
vt 0.320521 0.768011
vt 0.330975 0.768869
vt 0.270431 0.796360
vt 0.257867 0.800461
vt 0.316223 0.787336
vt 0.326278 0.790388
vt 0.311366 0.796694
vt 0.292732 0.792170
vt 0.293436 0.782382
vt 0.315080 0.786978
vt 0.307784 0.806695
vt 0.292070 0.803187
vt 0.314182 0.736618
vt 0.293471 0.740770
vt 0.292843 0.728690
vt 0.310789 0.725107
vt 0.317384 0.747626
vt 0.293962 0.751158
vt 0.319229 0.758031
vt 0.294175 0.759550
vt 0.317943 0.777496
vt 0.293909 0.774265
vt 0.294149 0.766947
vt 0.319414 0.767927
vt 0.285809 0.782106
vt 0.268040 0.786009
vt 0.265343 0.776529
vt 0.285575 0.774040
vt 0.289742 0.774153
vt 0.285537 0.766867
vt 0.289843 0.766907
vt 0.289622 0.782244
vt 0.289538 0.792099
vt 0.286345 0.792029
vt 0.289579 0.803191
vt 0.287087 0.803196
vt 0.290037 0.740834
vt 0.286604 0.740898
vt 0.287314 0.728761
vt 0.290079 0.728726
vt 0.289975 0.751251
vt 0.285988 0.751344
vt 0.289919 0.759592
vt 0.285664 0.759634
vt 0.263107 0.767113
vt 0.264225 0.767065
vt 0.271720 0.795845
vt 0.275244 0.806095
vt 0.274108 0.806975
vt 0.270968 0.737159
vt 0.269589 0.736670
vt 0.273025 0.725273
vt 0.274309 0.726113
vt 0.267454 0.747588
vt 0.266238 0.747279
vt 0.265008 0.757452
vt 0.263882 0.757328
vt 0.250300 0.767508
vt 0.251079 0.755773
vt 0.261394 0.811165
vt 0.256197 0.732939
vt 0.259400 0.721469
vt 0.253240 0.744308
vt 0.893580 0.621707
vt 0.914673 0.594299
vt 0.923796 0.599870
vt 0.893580 0.591341
vt 0.904255 0.591901
vt 0.927270 0.629520
vt 0.920737 0.637981
vt 0.929682 0.608794
vt 0.930791 0.619426
vt 0.889127 0.331649
vt 0.858855 0.306007
vt 0.868071 0.300591
vt 0.878457 0.298061
vt 0.889127 0.297396
vt 0.852394 0.314523
vt 0.850025 0.324948
vt 0.856540 0.345071
vt 0.851801 0.335489
vt 0.912838 0.645184
vt 0.862890 0.353671
s 1
f 27/1/1 44/2/1 43/3/2 26/4/2
f 38/5/3 5/6/3 4/7/4 37/8/4
f 39/9/5 6/10/5 5/11/3 38/12/3
f 40/13/6 7/14/6 6/10/5 39/9/5
f 42/15/7 8/16/7 7/14/6 40/13/6
f 35/17/8 2/18/8 9/19/9 41/20/9
f 28/21/10 45/22/10 44/2/1 27/1/1
f 37/8/4 4/7/4 3/23/1 36/24/1
f 52/25/11 12/26/12 11/27/13 55/28/14
f 56/29/15 13/30/16 12/26/12 52/25/11
f 53/31/17 14/32/18 13/33/16 56/34/15
f 57/35/19 15/36/20 14/32/18 53/31/17
f 54/37/21 16/38/22 15/36/20 57/35/19
f 51/39/23 10/40/24 17/41/25 58/42/26
f 58/42/26 17/41/25 16/38/22 54/37/21
f 19/43/27 63/44/28 59/45/29 18/46/30
f 67/47/31 18/46/30 25/48/32 74/49/33
f 71/50/34 19/43/27 18/46/30 67/47/31
f 68/51/35 20/52/36 19/43/27 71/50/34
f 72/53/37 21/54/38 20/52/36 68/51/35
f 69/55/39 22/56/40 21/57/38 72/58/37
f 73/59/41 23/60/42 22/56/40 69/55/39
f 70/61/43 24/62/44 23/60/42 73/59/41
f 74/49/33 25/48/32 24/62/44 70/61/43
f 55/28/14 11/27/13 10/40/24 51/39/23
f 59/45/9 26/4/9 33/63/9 66/64/9
f 63/44/9 27/1/9 26/4/9 59/45/9
f 60/65/9 28/21/9 27/1/9 63/44/9
f 64/66/9 29/67/9 28/21/9 60/65/9
f 61/68/9 30/69/9 29/70/9 64/71/9
f 65/72/9 31/73/9 30/69/9 61/68/9
f 62/74/9 32/75/9 31/73/9 65/72/9
f 66/64/9 33/63/9 32/75/9 62/74/9
f 33/63/45 47/76/45 48/77/46 32/75/46
f 29/67/47 46/78/47 45/22/10 28/21/10
f 49/79/48 46/80/47 29/70/47 30/69/48
f 31/73/6 50/81/6 49/79/48 30/69/48
f 32/75/46 48/77/46 50/81/6 31/73/6
f 26/4/2 43/3/2 47/76/45 33/63/45
f 41/20/9 9/19/9 8/16/7 42/15/7
f 1/82/49 36/83/50 35/84/51
f 1/82/49 38/85/52 37/86/53
f 1/82/49 40/87/54 39/88/55
f 1/82/49 35/84/51 41/89/56
f 1/82/49 41/89/56 42/90/57
f 34/91/58 43/92/59 44/93/60
f 34/91/58 45/94/61 46/95/62
f 34/91/58 47/96/63 43/92/59
f 34/91/58 48/97/64 47/96/63
f 34/91/58 49/98/65 50/99/66
f 1/82/49 37/86/53 36/83/50
f 1/82/49 39/88/55 38/100/52
f 1/82/49 42/90/57 40/87/54
f 34/91/58 44/93/60 45/94/61
f 34/91/58 46/101/62 49/98/65
f 34/91/58 50/99/66 48/97/64
f 36/24/1 3/23/1 2/18/8 35/17/8
f 9/19/45 58/42/45 54/37/45 8/16/45
f 8/16/45 54/37/45 57/35/45 7/14/45
f 7/14/45 57/35/45 53/31/45 6/10/45
f 6/10/45 53/31/45 56/34/45 5/11/45
f 5/6/45 56/29/45 52/25/45 4/7/45
f 4/7/45 52/25/45 55/28/45 3/23/45
f 3/23/45 55/28/45 51/39/45 2/18/45
f 2/18/45 51/39/45 58/42/45 9/19/45
f 25/48/32 66/64/67 62/74/68 24/62/44
f 18/46/30 59/45/29 66/64/67 25/48/32
f 24/62/44 62/74/68 65/72/69 23/60/42
f 23/60/42 65/72/69 61/68/70 22/56/40
f 22/56/40 61/68/70 64/71/71 21/57/38
f 21/54/38 64/66/71 60/65/72 20/52/36
f 20/52/36 60/65/72 63/44/28 19/43/27
f 17/41/25 74/49/33 70/61/43 16/38/22
f 16/38/22 70/61/43 73/59/41 15/36/20
f 15/36/20 73/59/41 69/55/39 14/32/18
f 14/32/18 69/55/39 72/58/37 13/33/16
f 13/30/16 72/53/37 68/51/35 12/26/12
f 12/26/12 68/51/35 71/50/34 11/27/13
f 11/27/13 71/50/34 67/47/31 10/40/24
f 10/40/24 67/47/31 74/49/33 17/41/25
