# Blender 4.1.1
# www.blender.org
o Pipe_Mount
v -0.000000 0.062408 -0.066267
v -0.000000 0.062408 0.066267
v -0.033133 0.062408 0.057389
v -0.057389 0.062408 0.033133
v -0.066267 0.062408 0.000000
v -0.057389 0.062408 -0.033133
v -0.033133 0.062408 -0.057389
v 0.033133 0.062408 0.057389
v 0.057388 0.062408 0.033133
v 0.066267 0.062408 0.000000
v 0.057389 0.062408 -0.033133
v 0.033133 0.062408 -0.057389
v -0.017147 0.062408 -0.063995
v -0.017147 0.062408 0.063995
v 0.046848 0.062408 -0.046848
v 0.017147 0.062408 0.063995
v 0.017147 0.062408 -0.063995
v 0.046848 0.062408 0.046848
v 0.063995 0.062408 0.017147
v 0.063995 0.062408 -0.017147
v -0.046848 0.062408 0.046848
v -0.046848 0.062408 -0.046848
v -0.063995 0.062408 -0.017147
v -0.063995 0.062408 0.017147
v -0.000000 0.054458 -0.066267
v -0.000000 0.054458 0.066267
v -0.033133 0.054458 0.057389
v -0.057389 0.054458 0.033133
v -0.066267 0.054458 0.000000
v -0.057388 0.054458 -0.033133
v -0.033133 0.054458 -0.057389
v 0.033133 0.054458 0.057389
v 0.057388 0.054458 0.033133
v 0.066267 0.054458 0.000000
v 0.057389 0.054458 -0.033133
v 0.033133 0.054458 -0.057389
v -0.017147 0.054458 -0.063995
v -0.017147 0.054458 0.063995
v 0.046848 0.054458 -0.046848
v 0.017147 0.054458 0.063995
v 0.017147 0.054458 -0.063995
v 0.046848 0.054458 0.046848
v 0.063995 0.054458 0.017147
v 0.063995 0.054458 -0.017147
v -0.046848 0.054458 0.046848
v -0.046848 0.054458 -0.046848
v -0.063995 0.054458 -0.017147
v -0.063995 0.054458 0.017147
v -0.000000 0.054458 -0.138312
v -0.000000 0.054458 0.138312
v -0.069156 0.054458 0.119782
v -0.119782 0.054458 0.069156
v -0.138312 0.054458 -0.000000
v -0.119782 0.054458 -0.069156
v -0.069156 0.054458 -0.119782
v 0.069156 0.054458 0.119782
v 0.119782 0.054458 0.069156
v 0.138312 0.054458 -0.000000
v 0.119782 0.054458 -0.069156
v 0.069156 0.054458 -0.119782
v -0.035790 0.054458 -0.133571
v -0.035790 0.054458 0.133571
v 0.097781 0.054458 -0.097781
v 0.035790 0.054458 0.133571
v 0.035790 0.054458 -0.133571
v 0.097781 0.054458 0.097781
v 0.133571 0.054458 0.035790
v 0.133571 0.054458 -0.035790
v -0.097781 0.054458 0.097781
v -0.097781 0.054458 -0.097781
v -0.133571 0.054458 -0.035790
v -0.133571 0.054458 0.035790
v -0.000000 -0.054458 -0.138312
v 0.000000 -0.054458 0.138312
v -0.069156 -0.054458 0.119782
v -0.119782 -0.054458 0.069156
v -0.138312 -0.054458 -0.000000
v -0.119782 -0.054458 -0.069156
v -0.069156 -0.054458 -0.119782
v 0.069156 -0.054458 0.119782
v 0.119782 -0.054458 0.069156
v 0.138312 -0.054458 -0.000000
v 0.119782 -0.054458 -0.069156
v 0.069156 -0.054458 -0.119782
v -0.035790 -0.054458 -0.133571
v -0.035790 -0.054458 0.133571
v 0.097781 -0.054458 -0.097781
v 0.035790 -0.054458 0.133571
v 0.035790 -0.054458 -0.133571
v 0.097781 -0.054458 0.097781
v 0.133571 -0.054458 0.035790
v 0.133571 -0.054458 -0.035790
v -0.097781 -0.054458 0.097781
v -0.097781 -0.054458 -0.097781
v -0.133571 -0.054458 -0.035790
v -0.133571 -0.054458 0.035790
v 0.101000 0.039465 0.036242
v 0.069613 0.039465 0.018121
v 0.069613 0.039465 -0.018121
v 0.101000 0.039465 -0.036242
v 0.132386 0.039465 -0.018121
v 0.132386 0.039465 0.018121
v 0.085307 0.077110 0.027182
v 0.101000 0.073357 0.036242
v 0.069613 0.073357 0.018121
v 0.069613 0.077110 -0.000000
v 0.069613 0.073357 0.018121
v 0.069613 0.073357 -0.018121
v 0.069613 0.073357 -0.018121
v 0.085307 0.077110 -0.027182
v 0.101000 0.073357 -0.036242
v 0.116693 0.077110 -0.027182
v 0.132386 0.073357 -0.018121
v 0.085049 0.081056 0.009209
v 0.091791 0.081056 0.015951
v 0.082582 0.081056 -0.000000
v 0.119418 0.081056 -0.000000
v 0.110209 0.081056 0.015951
v 0.116950 0.081056 0.009209
v 0.110209 0.081056 -0.015951
v 0.091791 0.081056 -0.015951
v 0.101000 0.081056 -0.018418
v 0.116950 0.081056 -0.009209
v 0.085049 0.081056 -0.009209
v 0.101000 0.081056 0.018418
v 0.132386 0.077110 -0.000000
v 0.132386 0.073357 -0.018121
v 0.132386 0.073357 0.018121
v 0.132386 0.073357 0.018121
v 0.116693 0.077110 0.027182
v 0.076313 0.081056 0.014253
v 0.086747 0.081056 0.024687
v 0.072493 0.081056 0.000000
v 0.115253 0.081056 0.024687
v 0.125687 0.081056 0.014253
v 0.115253 0.081056 -0.024687
v 0.101000 0.081056 -0.028507
v 0.129506 0.081056 -0.000000
v 0.125687 0.081056 -0.014253
v 0.086747 0.081056 -0.024687
v 0.076313 0.081056 -0.014253
v 0.101000 0.081056 0.028506
v 0.085049 0.087458 0.009209
v 0.091791 0.087458 0.015951
v 0.082582 0.087458 -0.000000
v 0.110209 0.087458 0.015951
v 0.116950 0.087458 0.009209
v 0.110209 0.087458 -0.015951
v 0.101000 0.087458 -0.018418
v 0.119418 0.087458 -0.000000
v 0.116950 0.087458 -0.009209
v 0.091791 0.087458 -0.015951
v 0.085049 0.087458 -0.009209
v 0.101000 0.087458 0.018418
v 0.004693 0.039465 -0.136937
v 0.033469 0.039465 -0.114904
v 0.028776 0.039465 -0.078967
v -0.004693 0.039465 -0.065063
v -0.033469 0.039465 -0.087096
v -0.028776 0.039465 -0.123033
v 0.019081 0.077110 -0.125920
v 0.004693 0.073357 -0.136937
v 0.033469 0.073357 -0.114904
v 0.031122 0.077110 -0.096936
v 0.033469 0.073357 -0.114904
v 0.028776 0.073357 -0.078967
v 0.028776 0.073357 -0.078967
v 0.012041 0.077110 -0.072015
v -0.004693 0.073357 -0.065063
v -0.019081 0.077110 -0.076079
v -0.033469 0.073357 -0.087096
v 0.017009 0.081056 -0.108066
v 0.011197 0.081056 -0.115624
v 0.018263 0.081056 -0.098615
v -0.018263 0.081056 -0.103385
v -0.007066 0.081056 -0.118009
v -0.014624 0.081056 -0.112197
v -0.011197 0.081056 -0.086376
v 0.007066 0.081056 -0.083991
v -0.002385 0.081056 -0.082737
v -0.017009 0.081056 -0.093934
v 0.014624 0.081056 -0.089803
v 0.002385 0.081056 -0.119263
v -0.031122 0.077110 -0.105064
v -0.033469 0.073357 -0.087096
v -0.028776 0.073357 -0.123033
v -0.028776 0.073357 -0.123033
v -0.012041 0.077110 -0.129985
v 0.026325 0.081056 -0.111936
v 0.017330 0.081056 -0.123634
v 0.028266 0.081056 -0.097309
v -0.010937 0.081056 -0.127325
v -0.022634 0.081056 -0.118330
v -0.017330 0.081056 -0.078366
v -0.003691 0.081056 -0.072733
v -0.028267 0.081056 -0.104691
v -0.026325 0.081056 -0.090063
v 0.010936 0.081056 -0.074675
v 0.022634 0.081056 -0.083670
v 0.003691 0.081056 -0.129266
v 0.017009 0.087458 -0.108066
v 0.011197 0.087458 -0.115624
v 0.018263 0.087458 -0.098615
v -0.007066 0.087458 -0.118009
v -0.014624 0.087458 -0.112197
v -0.011197 0.087458 -0.086376
v -0.002385 0.087458 -0.082737
v -0.018263 0.087458 -0.103385
v -0.017009 0.087458 -0.093934
v 0.007066 0.087458 -0.083991
v 0.014624 0.087458 -0.089803
v 0.002385 0.087458 -0.119263
v -0.104566 0.039465 -0.036066
v -0.071549 0.039465 -0.021121
v -0.067983 0.039465 0.014945
v -0.097434 0.039465 0.036066
v -0.130451 0.039465 0.021121
v -0.134017 0.039465 -0.014945
v -0.088057 0.077110 -0.028594
v -0.104566 0.073357 -0.036066
v -0.071549 0.073357 -0.021121
v -0.069766 0.077110 -0.003088
v -0.071549 0.073357 -0.021121
v -0.067983 0.073357 0.014945
v -0.067983 0.073357 0.014945
v -0.082709 0.077110 0.025506
v -0.097434 0.073357 0.036066
v -0.113943 0.077110 0.028594
v -0.130451 0.073357 0.021121
v -0.086033 0.081056 -0.010734
v -0.093405 0.081056 -0.016779
v -0.082671 0.081056 -0.001812
v -0.119329 0.081056 0.001812
v -0.111734 0.081056 -0.014967
v -0.117779 0.081056 -0.007595
v -0.108595 0.081056 0.016779
v -0.090266 0.081056 0.014967
v -0.099188 0.081056 0.018329
v -0.115967 0.081056 0.010734
v -0.084221 0.081056 0.007595
v -0.102812 0.081056 -0.018329
v -0.132234 0.077110 0.003088
v -0.130451 0.073357 0.021121
v -0.134017 0.073357 -0.014945
v -0.134017 0.073357 -0.014945
v -0.119291 0.077110 -0.025506
v -0.077835 0.081056 -0.016613
v -0.089245 0.081056 -0.025970
v -0.072632 0.081056 -0.002805
v -0.117613 0.081056 -0.023165
v -0.126970 0.081056 -0.011755
v -0.112755 0.081056 0.025970
v -0.098195 0.081056 0.028368
v -0.129368 0.081056 0.002805
v -0.124165 0.081056 0.016613
v -0.084387 0.081056 0.023165
v -0.075030 0.081056 0.011755
v -0.103805 0.081056 -0.028368
v -0.086033 0.087458 -0.010734
v -0.093405 0.087458 -0.016779
v -0.082671 0.087458 -0.001812
v -0.111734 0.087458 -0.014967
v -0.117779 0.087458 -0.007595
v -0.108595 0.087458 0.016779
v -0.099188 0.087458 0.018329
v -0.119329 0.087458 0.001812
v -0.115967 0.087458 0.010734
v -0.090266 0.087458 0.014967
v -0.084221 0.087458 0.007595
v -0.102812 0.087458 -0.018329
v -0.035769 0.039465 0.095161
v -0.012828 0.039465 0.067104
v 0.022941 0.039465 0.072943
v 0.035769 0.039465 0.106839
v 0.012828 0.039465 0.134896
v -0.022941 0.039465 0.129057
v -0.024298 0.077110 0.081132
v -0.035769 0.073357 0.095161
v -0.012828 0.073357 0.067104
v 0.005057 0.077110 0.070023
v -0.012828 0.073357 0.067104
v 0.022941 0.073357 0.072943
v 0.022941 0.073357 0.072943
v 0.029355 0.077110 0.089891
v 0.035769 0.073357 0.106839
v 0.024298 0.077110 0.120867
v 0.012828 0.073357 0.134896
v -0.006519 0.081056 0.083774
v -0.014259 0.081056 0.089341
v 0.002967 0.081056 0.082822
v -0.002967 0.081056 0.119177
v -0.017226 0.081056 0.107519
v -0.011659 0.081056 0.115258
v 0.014259 0.081056 0.112658
v 0.017226 0.081056 0.094481
v 0.018178 0.081056 0.103967
v 0.006519 0.081056 0.118226
v 0.011659 0.081056 0.086741
v -0.018178 0.081056 0.098033
v -0.005057 0.077110 0.131976
v 0.012828 0.073357 0.134896
v -0.022941 0.073357 0.129057
v -0.022941 0.073357 0.129057
v -0.029355 0.077110 0.112109
v -0.010090 0.081056 0.074339
v -0.022069 0.081056 0.082955
v 0.004593 0.081056 0.072866
v -0.026661 0.081056 0.111090
v -0.018044 0.081056 0.123068
v 0.022068 0.081056 0.119044
v 0.028134 0.081056 0.105593
v -0.004593 0.081056 0.129134
v 0.010090 0.081056 0.127661
v 0.026661 0.081056 0.090910
v 0.018044 0.081056 0.078931
v -0.028134 0.081056 0.096407
v -0.006519 0.087458 0.083774
v -0.014259 0.087458 0.089341
v 0.002967 0.087458 0.082822
v -0.017226 0.087458 0.107519
v -0.011659 0.087458 0.115258
v 0.014259 0.087458 0.112658
v 0.018178 0.087458 0.103967
v -0.002967 0.087458 0.119177
v 0.006519 0.087458 0.118226
v 0.017226 0.087458 0.094481
v 0.011659 0.087458 0.086741
v -0.018178 0.087458 0.098033
vn -0.9659 -0.0000 0.2588
vn -1.0000 -0.0000 -0.0000
vn -0.5000 -0.0000 -0.8660
vn -0.2588 -0.0000 -0.9659
vn -0.5000 -0.0000 0.8660
vn -0.7071 -0.0000 0.7071
vn 0.2588 -0.0000 -0.9659
vn 0.5000 -0.0000 -0.8660
vn -0.0000 -0.0000 1.0000
vn -0.2588 -0.0000 0.9659
vn -0.8660 -0.0000 0.5000
vn 0.7071 -0.0000 0.7071
vn 0.5000 -0.0000 0.8660
vn -0.7071 -0.0000 -0.7071
vn 0.8660 -0.0000 0.5000
vn 0.7071 -0.0000 -0.7071
vn -0.8660 -0.0000 -0.5000
vn 0.9659 -0.0000 0.2588
vn 0.8660 -0.0000 -0.5000
vn -0.9659 -0.0000 -0.2588
vn 1.0000 -0.0000 -0.0000
vn 0.2588 -0.0000 0.9659
vn 0.9659 -0.0000 -0.2588
vn -0.0000 -0.0000 -1.0000
vn -0.0000 1.0000 -0.0000
vn -0.0000 -1.0000 -0.0000
vn -0.9178 0.3970 -0.0000
vn -0.8414 0.4629 -0.2791
vn -0.8591 0.3595 -0.3643
vn -0.6609 0.6427 0.3875
vn -0.0000 0.5970 -0.8022
vn -0.4589 0.3970 -0.7948
vn 0.5218 0.5992 -0.6072
vn 0.4589 0.3970 -0.7948
vn -0.3723 0.6674 0.6449
vn -0.4589 0.3970 0.7948
vn -0.0000 0.5970 0.8022
vn -0.0000 0.6760 0.7369
vn -0.5218 0.5992 0.6072
vn -0.6382 0.6760 0.3684
vn -0.7447 0.6674 -0.0000
vn -0.6382 0.6760 -0.3684
vn -0.3723 0.6674 -0.6449
vn -0.0000 0.6760 -0.7369
vn 0.3723 0.6674 -0.6449
vn 0.6609 0.6427 -0.3875
vn 0.6382 0.6760 -0.3684
vn 0.7447 0.6674 -0.0000
vn 0.9178 0.3970 -0.0000
vn 0.6382 0.6760 0.3684
vn 0.8414 0.4629 0.2791
vn 0.3723 0.6674 0.6449
vn 0.4589 0.3970 0.7948
vn 0.8591 0.3595 0.3643
vn 0.6079 -0.0000 -0.7940
vn 0.9101 0.3970 0.1188
vn 0.7981 0.4629 0.3857
vn 0.8047 0.3595 0.4725
vn 0.7055 0.6427 -0.2986
vn -0.1039 0.5970 0.7955
vn 0.3521 0.3970 0.8476
vn -0.5961 0.5992 0.5345
vn -0.5580 0.3970 0.7287
vn -0.9235 -0.0000 0.3836
vn -0.6079 -0.0000 0.7940
vn -0.9916 -0.0000 -0.1295
vn -0.3836 -0.0000 -0.9235
vn 0.4527 0.6674 -0.5913
vn 0.5580 0.3970 -0.7287
vn 0.1039 0.5970 -0.7955
vn 0.0954 0.6760 -0.7307
vn 0.5961 0.5992 -0.5345
vn 0.6805 0.6760 -0.2827
vn 0.7384 0.6674 0.0964
vn 0.5851 0.6760 0.4480
vn 0.2857 0.6674 0.6877
vn -0.0954 0.6760 0.7307
vn -0.4527 0.6674 0.5913
vn -0.7055 0.6427 0.2986
vn -0.6805 0.6760 0.2827
vn -0.7384 0.6674 -0.0964
vn -0.9101 0.3970 -0.1188
vn -0.5851 0.6760 -0.4480
vn -0.7981 0.4629 -0.3857
vn -0.2857 0.6674 -0.6877
vn -0.3521 0.3970 -0.8476
vn -0.8047 0.3595 -0.4725
vn 0.3836 -0.0000 0.9235
vn 0.9916 -0.0000 0.1295
vn 0.1295 -0.0000 -0.9916
vn -0.1295 -0.0000 0.9916
vn 0.9235 -0.0000 -0.3836
vn 0.7940 -0.0000 0.6079
vn -0.7940 -0.0000 -0.6079
vn 0.4124 -0.0000 -0.9110
vn 0.9134 0.3970 -0.0903
vn 0.8647 0.4629 0.1950
vn 0.8907 0.3595 0.2780
vn 0.6196 0.6427 -0.4506
vn 0.0789 0.5970 0.7983
vn 0.5349 0.3970 0.7458
vn -0.4596 0.5992 0.6556
vn -0.3785 0.3970 0.8361
vn -0.8126 -0.0000 0.5828
vn -0.4124 -0.0000 0.9110
vn -0.9951 -0.0000 0.0984
vn -0.5828 -0.0000 -0.8126
vn 0.3071 0.6674 -0.6784
vn 0.3785 0.3970 -0.8361
vn -0.0789 0.5970 -0.7983
vn -0.0725 0.6760 -0.7333
vn 0.4596 0.5992 -0.6556
vn 0.5988 0.6760 -0.4294
vn 0.7411 0.6674 -0.0733
vn 0.6713 0.6760 0.3039
vn 0.4340 0.6674 0.6051
vn 0.0725 0.6760 0.7333
vn -0.3071 0.6674 0.6784
vn -0.6196 0.6427 0.4506
vn -0.5988 0.6760 0.4294
vn -0.7411 0.6674 0.0733
vn -0.9134 0.3970 0.0903
vn -0.6713 0.6760 -0.3039
vn -0.8647 0.4629 -0.1950
vn -0.4340 0.6674 -0.6051
vn -0.5349 0.3970 -0.7458
vn -0.8908 0.3595 -0.2781
vn 0.5828 -0.0000 0.8126
vn 0.9951 -0.0000 -0.0984
vn -0.0984 -0.0000 -0.9951
vn 0.0984 -0.0000 0.9951
vn 0.8126 -0.0000 -0.5828
vn 0.9110 -0.0000 0.4124
vn -0.9110 -0.0000 -0.4124
vn -0.7742 -0.0000 -0.6330
vn 0.1479 0.3970 -0.9058
vn 0.4110 0.4629 -0.7854
vn 0.4980 0.3595 -0.7892
vn -0.2759 0.6427 -0.7147
vn 0.7917 0.5970 0.1292
vn 0.8584 0.3970 -0.3249
vn 0.5152 0.5992 0.6128
vn 0.7105 0.3970 0.5810
vn 0.3539 -0.0000 0.9353
vn 0.7742 -0.0000 0.6330
vn -0.1611 -0.0000 0.9869
vn -0.9353 -0.0000 0.3539
vn -0.5765 0.6674 -0.4714
vn -0.7105 0.3970 -0.5810
vn -0.7917 0.5970 -0.1292
vn -0.7273 0.6760 -0.1187
vn -0.5152 0.5992 -0.6128
vn -0.2608 0.6760 -0.6892
vn 0.1200 0.6674 -0.7349
vn 0.4664 0.6760 -0.5705
vn 0.6965 0.6674 -0.2636
vn 0.7273 0.6760 0.1187
vn 0.5765 0.6674 0.4714
vn 0.2759 0.6427 0.7147
vn 0.2608 0.6760 0.6892
vn -0.1200 0.6674 0.7349
vn -0.1479 0.3970 0.9058
vn -0.4664 0.6760 0.5705
vn -0.4110 0.4629 0.7854
vn -0.6965 0.6674 0.2636
vn -0.8584 0.3970 0.3249
vn -0.4980 0.3595 0.7892
vn 0.9353 -0.0000 -0.3539
vn 0.1611 -0.0000 -0.9869
vn -0.9869 -0.0000 -0.1611
vn 0.9869 -0.0000 0.1611
vn -0.3539 -0.0000 -0.9353
vn 0.6330 -0.0000 -0.7742
vn -0.6330 -0.0000 0.7742
vt 0.150504 0.871482
vt 0.152630 0.873623
vt 0.151739 0.874777
vt 0.149346 0.872366
vt 0.164087 0.875172
vt 0.166703 0.873671
vt 0.167587 0.874831
vt 0.164641 0.876521
vt 0.148235 0.862931
vt 0.148230 0.865948
vt 0.146784 0.866135
vt 0.146790 0.862736
vt 0.170357 0.868937
vt 0.171148 0.866026
vt 0.172593 0.866221
vt 0.171704 0.869499
vt 0.150538 0.857410
vt 0.149026 0.860020
vt 0.147679 0.859458
vt 0.149384 0.856518
vt 0.149001 0.868866
vt 0.147653 0.869420
vt 0.158216 0.853018
vt 0.155297 0.853786
vt 0.154744 0.852436
vt 0.158031 0.851572
vt 0.161169 0.875940
vt 0.161354 0.877386
vt 0.161233 0.853027
vt 0.161428 0.851582
vt 0.171153 0.863009
vt 0.172599 0.862822
vt 0.158151 0.875931
vt 0.157956 0.877376
vt 0.164144 0.853820
vt 0.164706 0.852475
vt 0.170382 0.860092
vt 0.171731 0.859538
vt 0.155240 0.875138
vt 0.154678 0.876482
vt 0.166754 0.855335
vt 0.167644 0.854181
vt 0.152680 0.855286
vt 0.151796 0.854126
vt 0.168880 0.857475
vt 0.170038 0.856592
vt 0.168845 0.871547
vt 0.170000 0.872439
vt 0.163333 0.837545
vt 0.170171 0.839414
vt 0.184830 0.854146
vt 0.186652 0.861001
vt 0.156052 0.891413
vt 0.149214 0.889544
vt 0.176299 0.842975
vt 0.138135 0.847832
vt 0.143199 0.842831
vt 0.143085 0.885984
vt 0.181293 0.848003
vt 0.149372 0.839309
vt 0.138091 0.880956
vt 0.134553 0.874812
vt 0.181248 0.881125
vt 0.176185 0.886125
vt 0.184806 0.874962
vt 0.170013 0.889647
vt 0.132730 0.867957
vt 0.132730 0.860857
vt 0.186652 0.868099
vt 0.134577 0.853995
vt 0.156240 0.837514
vt 0.163145 0.891443
vt 0.322827 0.544690
vt 0.322827 0.551599
vt 0.301983 0.551599
vt 0.301983 0.544690
vt 0.322827 0.655237
vt 0.322827 0.662146
vt 0.301983 0.662146
vt 0.301983 0.655237
vt 0.322827 0.565417
vt 0.322827 0.572326
vt 0.301983 0.572326
vt 0.301983 0.565417
vt 0.322827 0.641418
vt 0.322827 0.648328
vt 0.301983 0.648328
vt 0.301983 0.641418
vt 0.322827 0.669055
vt 0.301983 0.669055
vt 0.322827 0.620691
vt 0.322827 0.627600
vt 0.301983 0.627600
vt 0.301983 0.620691
vt 0.322827 0.537780
vt 0.301983 0.537780
vt 0.322827 0.613782
vt 0.301983 0.613782
vt 0.322827 0.579236
vt 0.301983 0.579236
vt 0.322827 0.530871
vt 0.301983 0.530871
vt 0.322827 0.606872
vt 0.301983 0.606872
vt 0.322827 0.586145
vt 0.301983 0.586145
vt 0.322827 0.523962
vt 0.301983 0.523962
vt 0.322827 0.599963
vt 0.301983 0.599963
vt 0.322827 0.634509
vt 0.301983 0.634509
vt 0.322827 0.517053
vt 0.301983 0.517053
vt 0.322827 0.593054
vt 0.301983 0.593054
vt 0.322827 0.675964
vt 0.301983 0.675964
vt 0.322827 0.558508
vt 0.301983 0.558508
vt 0.322827 0.682874
vt 0.301983 0.682874
vt 0.527053 0.930569
vt 0.520377 0.932346
vt 0.513468 0.932346
vt 0.506797 0.930547
vt 0.500813 0.927093
vt 0.495935 0.922200
vt 0.492481 0.916216
vt 0.490703 0.909539
vt 0.490703 0.902630
vt 0.492502 0.895959
vt 0.495957 0.889976
vt 0.500850 0.885098
vt 0.506833 0.881643
vt 0.513510 0.879866
vt 0.520419 0.879866
vt 0.527090 0.881665
vt 0.533074 0.885119
vt 0.537951 0.890013
vt 0.541406 0.895996
vt 0.543184 0.902673
vt 0.543184 0.909582
vt 0.541385 0.916253
vt 0.537930 0.922236
vt 0.533037 0.927114
vt 0.906341 0.675908
vt 0.904939 0.681940
vt 0.899703 0.682660
vt 0.893649 0.677201
vt 0.971643 0.830723
vt 0.974895 0.833009
vt 0.974967 0.833072
vt 0.967816 0.829341
vt 0.982101 0.829106
vt 0.978251 0.830681
vt 0.982185 0.820886
vt 0.981626 0.824939
vt 0.978130 0.823061
vt 0.978608 0.824915
vt 0.977561 0.824903
vt 0.977212 0.823571
vt 0.899409 0.688025
vt 0.903729 0.691888
vt 0.902360 0.697944
vt 0.902357 0.697957
vt 0.893580 0.689987
vt 0.968761 0.824854
vt 0.967549 0.824884
vt 0.967549 0.820157
vt 0.969708 0.821699
vt 0.967812 0.829344
vt 0.969808 0.827888
vt 0.972078 0.829874
vt 0.974912 0.830657
vt 0.977762 0.829847
vt 0.979940 0.827829
vt 0.980645 0.824932
vt 0.982009 0.820878
vt 0.979928 0.822060
vt 0.977853 0.819978
vt 0.978360 0.819174
vt 0.975042 0.819015
vt 0.975246 0.816601
vt 0.972084 0.819698
vt 0.971634 0.818810
vt 0.975128 0.816573
vt 0.915159 0.696674
vt 0.909163 0.691234
vt 0.915159 0.683824
vt 0.909306 0.685789
vt 0.906344 0.675895
vt 0.899861 0.675240
vt 0.971025 0.824818
vt 0.971602 0.826744
vt 0.973040 0.828090
vt 0.974945 0.821111
vt 0.973040 0.821561
vt 0.978128 0.826769
vt 0.976794 0.821690
vt 0.974896 0.828586
vt 0.976743 0.828093
vt 0.971584 0.822887
vt 0.974891 0.827533
vt 0.973548 0.827167
vt 0.972531 0.826186
vt 0.972147 0.824824
vt 0.972520 0.823460
vt 0.973546 0.822504
vt 0.974910 0.822179
vt 0.976245 0.822574
vt 0.977207 0.826231
vt 0.976217 0.827192
vt 0.983053 0.605714
vt 0.976639 0.604129
vt 0.976343 0.598266
vt 0.983067 0.591341
vt 0.685195 0.970507
vt 0.682090 0.968023
vt 0.682027 0.967947
vt 0.688871 0.972165
vt 0.674441 0.971538
vt 0.678528 0.970185
vt 0.960943 0.601314
vt 0.962971 0.612037
vt 0.960847 0.606886
vt 0.678512 0.978107
vt 0.677926 0.976203
vt 0.679044 0.976196
vt 0.679434 0.977550
vt 0.970474 0.598143
vt 0.966138 0.603474
vt 0.960929 0.601312
vt 0.968701 0.591778
vt 0.687548 0.976226
vt 0.688529 0.976223
vt 0.689047 0.980379
vt 0.686874 0.979126
vt 0.689047 0.972171
vt 0.686804 0.973369
vt 0.684709 0.971318
vt 0.681927 0.970393
vt 0.678978 0.971074
vt 0.676603 0.973082
vt 0.675648 0.976235
vt 0.674437 0.976268
vt 0.674726 0.980726
vt 0.674721 0.980729
vt 0.676712 0.979266
vt 0.678989 0.981249
vt 0.678547 0.982100
vt 0.681865 0.982023
vt 0.681848 0.984420
vt 0.684718 0.981168
vt 0.685215 0.981997
vt 0.681965 0.984432
vt 0.964959 0.609990
vt 0.973749 0.613749
vt 0.971438 0.608620
vt 0.983067 0.605719
vt 0.685516 0.976227
vt 0.685022 0.974386
vt 0.683667 0.973030
vt 0.681826 0.979937
vt 0.683679 0.979420
vt 0.678471 0.974268
vt 0.679943 0.979444
vt 0.681837 0.972480
vt 0.679938 0.972931
vt 0.685053 0.978083
vt 0.681807 0.973542
vt 0.683135 0.973921
vt 0.684110 0.974904
vt 0.684470 0.976224
vt 0.684130 0.977552
vt 0.683149 0.978514
vt 0.681807 0.978876
vt 0.680445 0.978524
vt 0.679414 0.974837
vt 0.680446 0.973876
vt 0.859676 0.132675
vt 0.859579 0.132996
vt 0.859379 0.133191
vt 0.859283 0.133005
vt 0.866128 0.127831
vt 0.873047 0.124803
vt 0.873242 0.124740
vt 0.859889 0.132424
vt 0.873242 0.109150
vt 0.872348 0.117009
vt 0.859550 0.133377
vt 0.859775 0.133264
vt 0.859674 0.133344
vt 0.859724 0.110571
vt 0.863155 0.111212
vt 0.862266 0.112968
vt 0.859830 0.112456
vt 0.859420 0.133242
vt 0.859540 0.133257
vt 0.859550 0.133377
vt 0.859325 0.133285
vt 0.854886 0.126341
vt 0.854020 0.127881
vt 0.847488 0.124941
vt 0.851076 0.122664
vt 0.859983 0.127883
vt 0.865245 0.126295
vt 0.869217 0.122499
vt 0.870526 0.117034
vt 0.869132 0.111545
vt 0.864857 0.107676
vt 0.865706 0.105769
vt 0.858828 0.102785
vt 0.858827 0.102777
vt 0.859425 0.106903
vt 0.854595 0.108701
vt 0.853710 0.107322
vt 0.850990 0.112341
vt 0.847552 0.110145
vt 0.849541 0.117478
vt 0.847604 0.117482
vt 0.847476 0.110235
vt 0.859661 0.133191
vt 0.859854 0.132996
vt 0.859690 0.133064
vt 0.859276 0.133149
vt 0.856707 0.123155
vt 0.860019 0.124040
vt 0.863376 0.123061
vt 0.854141 0.114112
vt 0.853276 0.117440
vt 0.865764 0.113623
vt 0.856502 0.111652
vt 0.865858 0.120560
vt 0.866715 0.117095
vt 0.854236 0.120758
vt 0.864168 0.119606
vt 0.862420 0.121409
vt 0.860011 0.122119
vt 0.857627 0.121507
vt 0.855855 0.119786
vt 0.855173 0.117408
vt 0.855779 0.115008
vt 0.857476 0.113205
vt 0.864094 0.114671
vt 0.864774 0.117137
vt 0.863559 0.384427
vt 0.863648 0.384107
vt 0.863868 0.383890
vt 0.863958 0.384087
vt 0.857126 0.389269
vt 0.850219 0.392301
vt 0.850025 0.392363
vt 0.863347 0.384678
vt 0.850025 0.407949
vt 0.850919 0.400089
vt 0.863689 0.383727
vt 0.863462 0.383838
vt 0.863564 0.383759
vt 0.863542 0.406523
vt 0.860102 0.405892
vt 0.860993 0.404142
vt 0.863429 0.404636
vt 0.863825 0.383868
vt 0.863699 0.383850
vt 0.863689 0.383727
vt 0.863914 0.383819
vt 0.868356 0.390738
vt 0.869218 0.389199
vt 0.875748 0.392118
vt 0.872170 0.394402
vt 0.863259 0.389215
vt 0.858011 0.390800
vt 0.854048 0.394602
vt 0.852739 0.400062
vt 0.854143 0.405552
vt 0.858415 0.409447
vt 0.857567 0.411354
vt 0.864469 0.414317
vt 0.864470 0.414326
vt 0.863856 0.410195
vt 0.868686 0.408377
vt 0.869577 0.409755
vt 0.872284 0.404722
vt 0.875731 0.406909
vt 0.873718 0.399581
vt 0.875654 0.399570
vt 0.875806 0.406818
vt 0.863575 0.383913
vt 0.863382 0.384106
vt 0.863545 0.384038
vt 0.863964 0.383949
vt 0.866547 0.393922
vt 0.863245 0.393039
vt 0.859875 0.394028
vt 0.869125 0.402958
vt 0.869984 0.399628
vt 0.857500 0.403470
vt 0.866767 0.405427
vt 0.857404 0.396524
vt 0.856547 0.399998
vt 0.869019 0.396313
vt 0.859095 0.397478
vt 0.860838 0.395676
vt 0.863251 0.394961
vt 0.865630 0.395570
vt 0.867402 0.397287
vt 0.868087 0.399663
vt 0.867484 0.402064
vt 0.865785 0.403870
vt 0.859172 0.402426
vt 0.858492 0.399949
s 1
f 24/1/1 5/2/2 29/3/2 48/4/1
f 7/5/3 13/6/4 37/7/4 31/8/3
f 3/9/5 21/10/6 45/11/6 27/12/5
f 17/13/7 12/14/8 36/15/8 41/16/7
f 2/17/9 14/18/10 38/19/10 26/20/9
f 21/10/6 4/21/11 28/22/11 45/11/6
f 18/23/12 8/24/13 32/25/13 42/26/12
f 14/18/10 3/9/5 27/12/5 38/19/10
f 22/27/14 7/5/3 31/8/3 46/28/14
f 9/29/15 18/23/12 42/26/12 33/30/15
f 12/14/8 15/31/16 39/32/16 36/15/8
f 6/33/17 22/27/14 46/28/14 30/34/17
f 19/35/18 9/29/15 33/30/15 43/36/18
f 15/31/16 11/37/19 35/38/19 39/32/16
f 23/39/20 6/33/17 30/34/17 47/40/20
f 10/41/21 19/35/18 43/36/18 34/42/21
f 16/43/22 2/17/9 26/20/9 40/44/22
f 5/2/2 23/39/20 47/40/20 29/3/2
f 11/37/19 20/45/23 44/46/23 35/38/19
f 8/24/13 16/43/22 40/44/22 32/25/13
f 4/21/11 24/1/1 48/4/1 28/22/11
f 13/6/4 1/47/24 25/48/24 37/7/4
f 20/45/23 10/41/21 34/42/21 44/46/23
f 1/47/24 17/13/7 41/16/7 25/48/24
f 43/36/25 33/30/25 57/49/25 67/50/25
f 39/32/25 35/38/25 59/51/25 63/52/25
f 47/40/25 30/34/25 54/53/25 71/54/25
f 34/42/25 43/36/25 67/50/25 58/55/25
f 40/44/25 26/20/25 50/56/25 64/57/25
f 29/3/25 47/40/25 71/54/25 53/58/25
f 35/38/25 44/46/25 68/59/25 59/51/25
f 32/25/25 40/44/25 64/57/25 56/60/25
f 28/22/25 48/4/25 72/61/25 52/62/25
f 37/7/25 25/48/25 49/63/25 61/64/25
f 44/46/25 34/42/25 58/55/25 68/59/25
f 25/48/25 41/16/25 65/65/25 49/63/25
f 48/4/25 29/3/25 53/58/25 72/61/25
f 31/8/25 37/7/25 61/64/25 55/66/25
f 27/12/25 45/11/25 69/67/25 51/68/25
f 41/16/25 36/15/25 60/69/25 65/65/25
f 26/20/25 38/19/25 62/70/25 50/56/25
f 45/11/25 28/22/25 52/62/25 69/67/25
f 42/26/25 32/25/25 56/60/25 66/71/25
f 38/19/25 27/12/25 51/68/25 62/70/25
f 46/28/25 31/8/25 55/66/25 70/72/25
f 33/30/25 42/26/25 66/71/25 57/49/25
f 36/15/25 39/32/25 63/52/25 60/69/25
f 30/34/25 46/28/25 70/72/25 54/53/25
f 55/73/3 61/74/4 85/75/4 79/76/3
f 51/77/5 69/78/6 93/79/6 75/80/5
f 65/81/7 60/82/8 84/83/8 89/84/7
f 50/85/9 62/86/10 86/87/10 74/88/9
f 69/78/6 52/89/11 76/90/11 93/79/6
f 66/91/12 56/92/13 80/93/13 90/94/12
f 62/86/10 51/77/5 75/80/5 86/87/10
f 70/95/14 55/73/3 79/76/3 94/96/14
f 57/97/15 66/91/12 90/94/12 81/98/15
f 60/82/8 63/99/16 87/100/16 84/83/8
f 54/101/17 70/95/14 94/96/14 78/102/17
f 67/103/18 57/97/15 81/98/15 91/104/18
f 63/99/16 59/105/19 83/106/19 87/100/16
f 71/107/20 54/101/17 78/102/17 95/108/20
f 58/109/21 67/103/18 91/104/18 82/110/21
f 64/111/22 50/85/9 74/88/9 88/112/22
f 53/113/2 71/107/20 95/108/20 77/114/2
f 59/105/19 68/115/23 92/116/23 83/106/19
f 56/92/13 64/111/22 88/112/22 80/93/13
f 52/89/11 72/117/1 96/118/1 76/90/11
f 61/74/4 49/119/24 73/120/24 85/75/4
f 68/115/23 58/109/21 82/110/21 92/116/23
f 49/119/24 65/81/7 89/84/7 73/120/24
f 72/117/1 53/121/2 77/122/2 96/118/1
f 73/123/26 89/124/26 84/125/26 87/126/26 83/127/26 92/128/26 82/129/26 91/130/26 81/131/26 90/132/26 80/133/26 88/134/26 74/135/26 86/136/26 75/137/26 93/138/26 76/139/26 96/140/26 77/141/26 95/142/26 78/143/26 94/144/26 79/145/26 85/146/26
f 105/147/5 98/148/5 97/149/5 104/150/5
f 106/151/27 109/152/28 108/153/29 107/154/30
f 111/155/31 108/153/29 110/156/32
f 113/157/33 111/155/31 112/158/34
f 123/159/19 120/160/8 148/161/8 151/162/19
f 102/163/21 101/164/21 113/165/21 127/166/21 128/167/21
f 97/149/13 102/163/13 128/167/13 104/150/13
f 132/168/35 103/169/36 104/170/37 142/171/38
f 105/172/39 103/169/36 132/168/35 131/173/40 107/154/30
f 133/174/41 106/151/27 107/154/30 131/173/40
f 106/151/27 133/174/41 141/175/42 109/152/28
f 110/156/32 108/153/29 109/152/28 141/175/42 140/176/43
f 137/177/44 111/155/31 110/156/32 140/176/43
f 136/178/45 112/158/34 111/155/31 137/177/44
f 127/179/46 113/157/33 112/158/34 136/178/45 139/180/47
f 139/180/47 138/181/48 126/182/49 127/179/46
f 138/181/48 135/183/50 129/184/51 126/182/49
f 129/184/51 135/183/50 134/185/52 130/186/53 128/187/54
f 134/185/52 142/171/38 104/170/37 130/186/53
f 128/187/54 127/179/46 126/182/49 129/184/51
f 111/188/8 113/165/8 101/164/8 100/189/8
f 108/190/3 111/188/3 100/189/3 99/191/3
f 107/192/2 108/190/2 99/191/2 98/148/2 105/147/2
f 104/150/37 103/193/36 105/147/39
f 104/170/37 128/187/54 130/186/53
f 115/194/25 114/195/25 131/173/25 132/168/25
f 114/195/25 116/196/25 133/174/25 131/173/25
f 119/197/25 118/198/25 134/185/25 135/183/25
f 122/199/25 120/160/25 136/178/25 137/177/25
f 123/159/25 117/200/25 138/181/25 139/180/25
f 124/201/25 121/202/25 140/176/25 141/175/25
f 125/203/25 115/194/25 132/168/25 142/171/25
f 116/196/25 124/201/25 141/175/25 133/174/25
f 118/198/25 125/203/25 142/171/25 134/185/25
f 120/160/25 123/159/25 139/180/25 136/178/25
f 121/202/25 122/199/25 137/177/25 140/176/25
f 117/200/25 119/197/25 135/183/25 138/181/25
f 153/204/25 145/205/25 143/206/25 144/207/25 154/208/25 146/209/25 147/210/25 150/211/25 151/162/25 148/161/25 149/212/25 152/213/25
f 115/194/5 125/203/9 154/208/9 144/207/5
f 120/160/8 122/199/24 149/212/24 148/161/8
f 122/199/24 121/202/3 152/213/3 149/212/24
f 114/195/11 115/194/5 144/207/5 143/206/11
f 124/201/17 116/196/2 145/205/2 153/204/17
f 117/200/21 123/159/19 151/162/19 150/211/21
f 119/197/15 117/200/21 150/211/21 147/210/15
f 116/196/2 114/195/11 143/206/11 145/205/2
f 125/203/9 118/198/13 146/209/13 154/208/9
f 121/202/3 124/201/17 153/204/17 152/213/3
f 118/198/13 119/197/15 147/210/15 146/209/13
f 163/214/55 156/215/55 155/216/55 162/217/55
f 164/218/56 167/219/57 166/220/58 165/221/59
f 169/222/60 166/220/58 168/223/61
f 171/224/62 169/225/60 170/226/63
f 181/227/64 178/228/65 206/229/65 209/230/64
f 160/231/66 159/232/66 171/224/66 185/233/66 186/234/66
f 155/216/67 160/231/67 186/234/67 162/217/67
f 190/235/68 161/236/69 162/237/70 200/238/71
f 163/239/72 161/236/69 190/235/68 189/240/73 165/221/59
f 191/241/74 164/218/56 165/221/59 189/240/73
f 164/218/56 191/241/74 199/242/75 167/219/57
f 168/223/61 166/220/58 167/219/57 199/242/75 198/243/76
f 195/244/77 169/222/60 168/223/61 198/243/76
f 194/245/78 170/246/63 169/222/60 195/244/77
f 185/247/79 171/248/62 170/246/63 194/245/78 197/249/80
f 197/249/80 196/250/81 184/251/82 185/247/79
f 196/250/81 193/252/83 187/253/84 184/251/82
f 187/253/84 193/252/83 192/254/85 188/255/86 186/256/87
f 192/254/85 200/238/71 162/237/70 188/255/86
f 186/256/87 185/247/79 184/251/82 187/253/84
f 169/225/65 171/224/65 159/232/65 158/257/65
f 166/258/88 169/225/88 158/257/88 157/259/88
f 165/260/89 166/258/89 157/259/89 156/215/89 163/214/89
f 162/237/70 161/236/69 163/239/72
f 162/237/70 186/256/87 188/255/86
f 173/261/25 172/262/25 189/240/25 190/235/25
f 172/262/25 174/263/25 191/241/25 189/240/25
f 177/264/25 176/265/25 192/254/25 193/252/25
f 180/266/25 178/228/25 194/245/25 195/244/25
f 181/227/25 175/267/25 196/250/25 197/249/25
f 182/268/25 179/269/25 198/243/25 199/242/25
f 183/270/25 173/261/25 190/235/25 200/238/25
f 174/263/25 182/268/25 199/242/25 191/241/25
f 176/265/25 183/270/25 200/238/25 192/254/25
f 178/228/25 181/227/25 197/249/25 194/245/25
f 179/269/25 180/266/25 195/244/25 198/243/25
f 175/267/25 177/264/25 193/252/25 196/250/25
f 211/271/25 203/272/25 201/273/25 202/274/25 212/275/25 204/276/25 205/277/25 208/278/25 209/230/25 206/229/25 207/279/25 210/280/25
f 173/261/55 183/270/90 212/275/90 202/274/55
f 178/228/65 180/266/91 207/279/91 206/229/65
f 180/266/91 179/269/88 210/280/88 207/279/91
f 172/262/92 173/261/55 202/274/55 201/273/92
f 182/268/93 174/263/89 203/272/89 211/271/93
f 175/267/66 181/227/64 209/230/64 208/278/66
f 177/264/94 175/267/66 208/278/66 205/277/94
f 174/263/89 172/262/92 201/273/92 203/272/89
f 183/270/90 176/265/67 204/276/67 212/275/90
f 179/269/88 182/268/93 211/271/93 210/280/88
f 176/265/67 177/264/94 205/277/94 204/276/67
f 221/281/95 214/282/95 213/283/95 220/284/95
f 222/285/96 225/286/97 224/287/98 223/288/99
f 227/289/100 224/287/98 226/290/101
f 229/291/102 227/292/100 228/293/103
f 239/294/104 236/295/105 264/296/105 267/297/104
f 218/298/106 217/299/106 229/291/106 243/300/106 244/301/106
f 213/283/107 218/298/107 244/301/107 220/284/107
f 248/302/108 219/303/109 220/304/110 258/305/111
f 221/281/112 219/303/109 248/302/108 247/306/113 223/288/99
f 249/307/114 222/285/96 223/288/99 247/306/113
f 222/285/96 249/307/114 257/308/115 225/286/97
f 226/290/101 224/287/98 225/286/97 257/308/115 256/309/116
f 253/310/117 227/289/100 226/290/101 256/309/116
f 252/311/118 228/312/103 227/289/100 253/310/117
f 243/313/119 229/314/102 228/312/103 252/311/118 255/315/120
f 255/315/120 254/316/121 242/317/122 243/313/119
f 254/316/121 251/318/123 245/319/124 242/317/122
f 245/319/124 251/318/123 250/320/125 246/321/126 244/322/127
f 250/320/125 258/305/111 220/304/110 246/321/126
f 244/322/127 243/313/119 242/317/122 245/319/124
f 227/292/105 229/291/105 217/299/105 216/323/105
f 224/324/128 227/292/128 216/323/128 215/325/128
f 223/288/129 224/324/129 215/325/129 214/282/129 221/281/129
f 220/304/110 219/303/109 221/281/112
f 220/284/110 244/301/127 246/326/126
f 231/327/25 230/328/25 247/306/25 248/302/25
f 230/328/25 232/329/25 249/307/25 247/306/25
f 235/330/25 234/331/25 250/320/25 251/318/25
f 238/332/25 236/295/25 252/311/25 253/310/25
f 239/294/25 233/333/25 254/316/25 255/315/25
f 240/334/25 237/335/25 256/309/25 257/308/25
f 241/336/25 231/327/25 248/302/25 258/305/25
f 232/329/25 240/334/25 257/308/25 249/307/25
f 234/331/25 241/336/25 258/305/25 250/320/25
f 236/295/25 239/294/25 255/315/25 252/311/25
f 237/335/25 238/332/25 253/310/25 256/309/25
f 233/333/25 235/330/25 251/318/25 254/316/25
f 269/337/25 261/338/25 259/339/25 260/340/25 270/341/25 262/342/25 263/343/25 266/344/25 267/297/25 264/296/25 265/345/25 268/346/25
f 231/327/95 241/336/130 270/341/130 260/340/95
f 236/295/105 238/332/131 265/345/131 264/296/105
f 238/332/131 237/335/128 268/346/128 265/345/131
f 230/328/132 231/327/95 260/340/95 259/339/132
f 240/334/133 232/329/129 261/338/129 269/337/133
f 233/333/106 239/294/104 267/297/104 266/344/106
f 235/330/134 233/333/106 266/344/106 263/343/134
f 232/329/129 230/328/132 259/339/132 261/338/129
f 241/336/130 234/331/107 262/342/107 270/341/130
f 237/335/128 240/334/133 269/337/133 268/346/128
f 234/331/107 235/330/134 263/343/134 262/342/107
f 279/347/135 272/348/135 271/349/135 278/350/135
f 280/351/136 283/352/137 282/353/138 281/354/139
f 285/355/140 282/353/138 284/356/141
f 287/357/142 285/358/140 286/359/143
f 297/360/144 294/361/145 322/362/145 325/363/144
f 276/364/146 275/365/146 287/357/146 301/366/146 302/367/146
f 271/349/147 276/364/147 302/367/147 278/350/147
f 306/368/148 277/369/149 278/370/150 316/371/151
f 279/347/152 277/369/149 306/368/148 305/372/153 281/354/139
f 307/373/154 280/351/136 281/354/139 305/372/153
f 280/351/136 307/373/154 315/374/155 283/352/137
f 284/356/141 282/353/138 283/352/137 315/374/155 314/375/156
f 311/376/157 285/355/140 284/356/141 314/375/156
f 310/377/158 286/378/143 285/355/140 311/376/157
f 301/379/159 287/380/142 286/378/143 310/377/158 313/381/160
f 313/381/160 312/382/161 300/383/162 301/379/159
f 312/382/161 309/384/163 303/385/164 300/383/162
f 303/385/164 309/384/163 308/386/165 304/387/166 302/388/167
f 308/386/165 316/371/151 278/370/150 304/387/166
f 302/388/167 301/379/159 300/383/162 303/385/164
f 285/358/145 287/357/145 275/365/145 274/389/145
f 282/390/168 285/358/168 274/389/168 273/391/168
f 281/354/169 282/390/169 273/391/169 272/348/169 279/347/169
f 278/370/150 277/369/149 279/347/152
f 278/350/150 302/367/167 304/392/166
f 289/393/25 288/394/25 305/372/25 306/368/25
f 288/394/25 290/395/25 307/373/25 305/372/25
f 293/396/25 292/397/25 308/386/25 309/384/25
f 296/398/25 294/361/25 310/377/25 311/376/25
f 297/360/25 291/399/25 312/382/25 313/381/25
f 298/400/25 295/401/25 314/375/25 315/374/25
f 299/402/25 289/393/25 306/368/25 316/371/25
f 290/395/25 298/400/25 315/374/25 307/373/25
f 292/397/25 299/402/25 316/371/25 308/386/25
f 294/361/25 297/360/25 313/381/25 310/377/25
f 295/401/25 296/398/25 311/376/25 314/375/25
f 291/399/25 293/396/25 309/384/25 312/382/25
f 327/403/25 319/404/25 317/405/25 318/406/25 328/407/25 320/408/25 321/409/25 324/410/25 325/363/25 322/362/25 323/411/25 326/412/25
f 289/393/135 299/402/170 328/407/170 318/406/135
f 294/361/145 296/398/171 323/411/171 322/362/145
f 296/398/171 295/401/168 326/412/168 323/411/171
f 288/394/172 289/393/135 318/406/135 317/405/172
f 298/400/173 290/395/169 319/404/169 327/403/173
f 291/399/146 297/360/144 325/363/144 324/410/146
f 293/396/174 291/399/146 324/410/146 321/409/174
f 290/395/169 288/394/172 317/405/172 319/404/169
f 299/402/170 292/397/147 320/408/147 328/407/170
f 295/401/168 298/400/173 327/403/173 326/412/168
f 292/397/147 293/396/174 321/409/174 320/408/147
f 1/47/25 13/6/25 7/5/25 22/27/25 6/33/25 23/39/25 5/2/25 24/1/25 4/21/25 21/10/25 3/9/25 14/18/25 2/17/25 16/43/25 8/24/25 18/23/25 9/29/25 19/35/25 10/41/25 20/45/25 11/37/25 15/31/25 12/14/25 17/13/25
