# Blender 4.1.1
# www.blender.org
o Pipe_Straight_(2root2)
v -0.000000 -0.343787 -0.000000
v -0.042426 -0.471404 -0.042426
v -0.060000 -0.471404 -0.000000
v -0.042426 -0.471404 0.042426
v -0.000000 -0.471404 0.060000
v 0.042426 -0.471404 0.042426
v 0.060000 -0.471404 0.000000
v 0.042426 -0.471404 -0.042426
v -0.000000 -0.471404 -0.060000
v -0.042426 0.471405 -0.042426
v -0.060000 0.471405 -0.000000
v -0.042426 0.471405 0.042426
v 0.000000 0.471405 0.060000
v 0.042426 0.471405 0.042426
v 0.060000 0.471405 0.000000
v 0.042426 0.471405 -0.042426
v 0.000000 0.471405 -0.060000
v 0.000000 0.343787 -0.000000
v -0.046669 1.414213 -0.046669
v 0.000000 1.414213 -0.066000
v -0.066000 1.414213 -0.000000
v 0.046669 1.414213 -0.046669
v -0.046669 1.414213 0.046669
v 0.000000 1.414213 0.066000
v 0.046669 1.414213 0.046669
v 0.066000 1.414213 0.000000
v -0.046669 -1.414213 -0.046669
v -0.066000 -1.414213 -0.000000
v -0.046669 -1.414213 0.046669
v -0.000000 -1.414213 0.066000
v 0.046669 -1.414213 0.046669
v 0.066000 -1.414213 0.000000
v 0.046669 -1.414213 -0.046669
v -0.000000 -1.414213 -0.066000
v -0.046669 1.314214 -0.046669
v -0.066000 1.314214 -0.000000
v -0.046669 1.314214 0.046669
v 0.000000 1.314214 0.066000
v 0.046669 1.314214 0.046669
v 0.066000 1.314214 0.000000
v 0.046669 1.314214 -0.046669
v 0.000000 1.314214 -0.066000
v -0.000000 -1.314214 -0.066000
v -0.046669 -1.314214 -0.046669
v -0.066000 -1.314214 -0.000000
v -0.046669 -1.314214 0.046669
v -0.000000 -1.314214 0.066000
v 0.046669 -1.314214 0.046669
v 0.066000 -1.314214 0.000000
v 0.046669 -1.314214 -0.046669
v -0.042426 1.314214 -0.042426
v -0.060000 1.314214 -0.000000
v -0.042426 1.314214 0.042426
v 0.000000 1.314214 0.060000
v 0.042427 1.314214 0.042426
v 0.060000 1.314214 0.000000
v 0.042427 1.314214 -0.042426
v 0.000000 1.314214 -0.060000
v -0.000000 -1.314214 -0.060000
v -0.042427 -1.314214 -0.042426
v -0.060000 -1.314214 -0.000000
v -0.042427 -1.314214 0.042426
v -0.000000 -1.314214 0.060000
v 0.042426 -1.314214 0.042426
v 0.060000 -1.314214 0.000000
v 0.042426 -1.314214 -0.042426
vn -0.7071 -0.0000 -0.7071
vn -0.0000 -0.0000 -1.0000
vn -1.0000 -0.0000 -0.0000
vn -0.7071 -0.0000 0.7071
vn -0.0000 -0.0000 1.0000
vn 0.7071 -0.0000 0.7071
vn 1.0000 -0.0000 -0.0000
vn 0.7071 -0.0000 -0.7071
vn -0.0001 1.0000 -0.0001
vn -0.0000 0.0615 0.9981
vn 0.7058 0.0615 0.7058
vn 0.9981 0.0615 -0.0000
vn -0.7058 0.0615 0.7058
vn 0.7058 0.0615 -0.7058
vn -0.0000 0.0615 -0.9981
vn -0.7058 0.0615 -0.7058
vn -0.9981 0.0615 -0.0000
vn 0.0001 -1.0000 -0.0001
vn 0.9981 -0.0615 -0.0000
vn 0.7058 -0.0615 0.7058
vn 0.7058 -0.0615 -0.7058
vn -0.0000 -0.0615 -0.9981
vn -0.9981 -0.0615 -0.0000
vn -0.7058 -0.0615 -0.7058
vn -0.7058 -0.0615 0.7058
vn -0.0000 -0.0615 0.9981
vn -0.0000 -1.0000 -0.0000
vn -0.0000 1.0000 -0.0000
vt 0.187372 0.037957
vt 0.187405 0.237525
vt 0.176522 0.237527
vt 0.176498 0.037949
vt 0.198244 0.037980
vt 0.198288 0.237522
vt 0.209099 0.038013
vt 0.209170 0.237517
vt 0.219837 0.038049
vt 0.220053 0.237511
vt 0.143888 0.038003
vt 0.143873 0.237526
vt 0.132990 0.237523
vt 0.133147 0.038040
vt 0.154748 0.037970
vt 0.154756 0.237528
vt 0.165623 0.037952
vt 0.165639 0.237528
vt 0.187436 0.461251
vt 0.176552 0.461249
vt 0.198319 0.461254
vt 0.209203 0.461258
vt 0.220088 0.461264
vt 0.143904 0.461251
vt 0.133022 0.461254
vt 0.154787 0.461249
vt 0.165669 0.461248
vt 0.187341 0.662094
vt 0.187317 0.683687
vt 0.176437 0.683661
vt 0.176466 0.662088
vt 0.198226 0.662087
vt 0.198221 0.683730
vt 0.209149 0.662058
vt 0.209169 0.683781
vt 0.220244 0.662028
vt 0.220176 0.683827
vt 0.143808 0.661992
vt 0.143731 0.683675
vt 0.132748 0.683684
vt 0.132730 0.661940
vt 0.154717 0.662042
vt 0.154665 0.683661
vt 0.165595 0.662072
vt 0.165560 0.683653
vt 0.460647 0.297396
vt 0.413387 0.545242
vt 0.401768 0.542741
vt 0.390281 0.539697
vt 0.425110 0.547192
vt 0.378949 0.536115
vt 0.367799 0.532003
vt 0.460647 0.549707
vt 0.448766 0.549428
vt 0.436912 0.548588
vt 0.367799 0.267340
vt 0.391535 0.016147
vt 0.403336 0.017543
vt 0.379680 0.015308
vt 0.367799 0.015028
vt 0.438165 0.025039
vt 0.449497 0.028621
vt 0.426678 0.021994
vt 0.415060 0.019494
vt 0.460647 0.032733
vt 0.176471 0.660832
vt 0.165597 0.660815
vt 0.154726 0.660786
vt 0.143872 0.660746
vt 0.133136 0.660705
vt 0.219830 0.660783
vt 0.209083 0.660809
vt 0.198222 0.660830
vt 0.187346 0.660837
vt 0.176512 0.015112
vt 0.176502 0.036692
vt 0.165626 0.036695
vt 0.165625 0.015094
vt 0.154742 0.036712
vt 0.154714 0.015064
vt 0.143824 0.036755
vt 0.143765 0.015043
vt 0.132737 0.036801
vt 0.132766 0.015028
vt 0.220216 0.015065
vt 0.220244 0.036813
vt 0.209166 0.036767
vt 0.209230 0.015079
vt 0.198255 0.036724
vt 0.198294 0.015099
vt 0.187375 0.036701
vt 0.187394 0.015112
s 1
f 60/1/1 2/2/1 9/3/2 59/4/2
f 61/5/3 3/6/3 2/2/1 60/1/1
f 62/7/4 4/8/4 3/6/3 61/5/3
f 63/9/5 5/10/5 4/8/4 62/7/4
f 64/11/6 6/12/6 5/13/5 63/14/5
f 65/15/7 7/16/7 6/12/6 64/11/6
f 66/17/8 8/18/8 7/16/7 65/15/7
f 59/4/2 9/3/2 8/18/8 66/17/8
f 2/2/1 10/19/1 17/20/2 9/3/2
f 3/6/3 11/21/3 10/19/1 2/2/1
f 4/8/4 12/22/4 11/21/3 3/6/3
f 5/10/5 13/23/5 12/22/4 4/8/4
f 6/12/6 14/24/6 13/25/5 5/13/5
f 7/16/7 15/26/7 14/24/6 6/12/6
f 8/18/8 16/27/8 15/26/7 7/16/7
f 9/3/2 17/20/2 16/27/8 8/18/8
f 35/28/1 19/29/1 20/30/2 42/31/2
f 36/32/3 21/33/3 19/29/1 35/28/1
f 37/34/4 23/35/4 21/33/3 36/32/3
f 38/36/5 24/37/5 23/35/4 37/34/4
f 39/38/6 25/39/6 24/40/5 38/41/5
f 40/42/7 26/43/7 25/39/6 39/38/6
f 41/44/8 22/45/8 26/43/7 40/42/7
f 42/31/2 20/30/2 22/45/8 41/44/8
f 18/46/9 20/47/10 19/48/11
f 18/46/9 19/48/11 21/49/12
f 18/46/9 22/50/13 20/47/10
f 18/46/9 21/49/12 23/51/14
f 18/46/9 23/51/14 24/52/15
f 18/46/9 24/53/15 25/54/16
f 18/46/9 25/54/16 26/55/17
f 18/46/9 26/55/17 22/50/13
f 1/56/18 28/57/19 27/58/20
f 1/56/18 29/59/21 28/57/19
f 1/56/18 30/60/22 29/59/21
f 1/56/18 32/61/23 31/62/24
f 1/56/18 33/63/25 32/61/23
f 1/56/18 27/58/20 34/64/26
f 1/56/18 31/62/24 30/65/22
f 1/56/18 34/64/26 33/63/25
f 58/66/27 42/31/27 41/44/27 57/67/27
f 57/67/27 41/44/27 40/42/27 56/68/27
f 56/68/27 40/42/27 39/38/27 55/69/27
f 55/69/27 39/38/27 38/41/27 54/70/27
f 54/71/27 38/36/27 37/34/27 53/72/27
f 53/72/27 37/34/27 36/32/27 52/73/27
f 52/73/27 36/32/27 35/28/27 51/74/27
f 51/74/27 35/28/27 42/31/27 58/66/27
f 34/75/2 43/76/2 50/77/8 33/78/8
f 33/78/8 50/77/8 49/79/7 32/80/7
f 32/80/7 49/79/7 48/81/6 31/82/6
f 31/82/6 48/81/6 47/83/5 30/84/5
f 30/85/5 47/86/5 46/87/4 29/88/4
f 29/88/4 46/87/4 45/89/3 28/90/3
f 28/90/3 45/89/3 44/91/1 27/92/1
f 27/92/1 44/91/1 43/76/2 34/75/2
f 10/19/1 51/74/1 58/66/2 17/20/2
f 11/21/3 52/73/3 51/74/1 10/19/1
f 12/22/4 53/72/4 52/73/3 11/21/3
f 13/23/5 54/71/5 53/72/4 12/22/4
f 14/24/6 55/69/6 54/70/5 13/25/5
f 15/26/7 56/68/7 55/69/6 14/24/6
f 16/27/8 57/67/8 56/68/7 15/26/7
f 17/20/2 58/66/2 57/67/8 16/27/8
f 43/76/28 59/4/28 66/17/28 50/77/28
f 50/77/28 66/17/28 65/15/28 49/79/28
f 49/79/28 65/15/28 64/11/28 48/81/28
f 48/81/28 64/11/28 63/14/28 47/83/28
f 47/86/28 63/9/28 62/7/28 46/87/28
f 46/87/28 62/7/28 61/5/28 45/89/28
f 45/89/28 61/5/28 60/1/28 44/91/28
f 44/91/28 60/1/28 59/4/28 43/76/28
