# Blender 4.1.1
# www.blender.org
o Pipe_30deg
v 0.000000 0.114102 0.000101
v 0.046676 0.188379 -0.014373
v 0.000007 0.198198 -0.031024
v -0.046662 0.188393 -0.014364
v 0.066007 0.164688 0.025835
v 0.046676 0.141003 0.066047
v 0.000007 0.131198 0.082707
v -0.046662 0.141017 0.066055
v -0.065993 0.164708 0.025848
v -0.042426 0.068778 -0.042426
v -0.060000 0.068778 -0.000000
v -0.042426 0.068778 0.042426
v 0.000000 0.068778 0.060000
v 0.042426 0.068778 0.042426
v 0.060000 0.068778 0.000000
v 0.042426 0.068778 -0.042426
v 0.000000 0.068778 -0.060000
v -0.042426 0.108621 -0.042061
v -0.060000 0.103064 -0.000000
v -0.042426 0.097507 0.042061
v 0.000000 0.095205 0.059483
v 0.042426 0.097507 0.042061
v 0.060000 0.103064 0.000000
v 0.042426 0.108621 -0.042061
v 0.000000 0.110923 -0.059483
v -0.042426 0.151333 -0.030574
v -0.060000 0.135045 0.008601
v -0.042426 0.118757 0.047776
v 0.000000 0.112011 0.064003
v 0.042426 0.118757 0.047776
v 0.060000 0.135045 0.008601
v 0.042426 0.151333 -0.030574
v 0.000000 0.158079 -0.046801
v -0.042426 0.186211 -0.010778
v -0.060000 0.164721 0.025803
v -0.042426 0.143231 0.062384
v 0.000000 0.134330 0.077536
v 0.042426 0.143231 0.062384
v 0.060000 0.164721 0.025803
v 0.042426 0.186211 -0.010778
v 0.000000 0.195113 -0.025931
v 0.000000 0.068778 -0.066000
v 0.046669 0.068778 -0.046669
v 0.066000 0.068778 0.000000
v 0.046669 0.068778 0.046669
v 0.000000 0.068778 0.066000
v -0.046669 0.068778 0.046669
v -0.066000 0.068778 -0.000000
v -0.046669 0.068778 -0.046669
v -0.000026 0.128917 0.005736
v -0.046669 0.000000 -0.046669
v -0.066000 0.000000 -0.000000
v -0.046669 0.000000 0.046669
v 0.000000 0.000000 0.066000
v 0.046669 0.000000 0.046669
v 0.066000 0.000000 0.000000
v 0.046669 0.000000 -0.046669
v 0.000000 0.000000 -0.066000
v -0.046676 0.247884 0.021162
v -0.000007 0.257835 0.004589
v 0.046662 0.199786 0.101153
v 0.065993 0.223825 0.061151
v 0.046662 0.247869 0.021153
v -0.066007 0.223845 0.061163
v -0.046676 0.199800 0.101161
v -0.000007 0.189835 0.117726
vn -0.7063 0.3628 -0.6078
vn -0.7068 0.3626 -0.6074
vn -0.0001 0.5127 -0.8586
vn 0.0001 0.5127 -0.8586
vn -1.0000 0.0006 -0.0014
vn -1.0000 0.0002 -0.0007
vn -0.0000 1.0000 -0.0000
vn 0.0001 -0.5127 0.8585
vn -0.0001 -0.5127 0.8585
vn -0.7075 -0.3625 0.6067
vn -0.7078 -0.3623 0.6064
vn 0.7079 -0.3620 0.6065
vn 0.7074 -0.3623 0.6069
vn 1.0000 0.0009 -0.0011
vn 1.0000 0.0005 -0.0005
vn 0.7064 0.3630 -0.6076
vn 0.7067 0.3629 -0.6074
vn -0.0016 -0.8609 -0.5087
vn -0.0055 -0.8583 -0.5131
vn -0.0056 -0.8583 -0.5132
vn -0.0004 -0.8563 -0.5165
vn -0.0018 -0.8610 -0.5087
vn -0.0018 -0.8609 -0.5087
vn -0.0004 -0.8563 -0.5164
vn 0.0034 -0.8590 -0.5120
vn -1.0000 -0.0000 -0.0000
vn -0.7071 -0.0000 -0.7071
vn 1.0000 -0.0000 -0.0000
vn 0.7071 -0.0000 0.7071
vn 0.7071 -0.0000 -0.7071
vn -0.7050 0.0064 -0.7092
vn -0.6925 0.0978 -0.7148
vn -0.0000 0.1362 -0.9907
vn -0.0000 0.0108 -0.9999
vn -1.0000 0.0022 0.0001
vn -0.9995 0.0053 -0.0316
vn -0.7043 0.0092 0.7099
vn -0.7249 -0.0859 0.6835
vn -0.0000 0.0160 0.9999
vn -0.0000 -0.1228 0.9924
vn 0.7043 0.0092 0.7099
vn 0.7249 -0.0859 0.6835
vn 1.0000 0.0022 0.0001
vn 0.9995 0.0053 -0.0316
vn 0.7050 0.0064 -0.7092
vn 0.6925 0.0978 -0.7148
vn -0.6925 0.2739 -0.6674
vn -0.0000 0.3791 -0.9254
vn -0.9995 0.0112 -0.0299
vn -0.7249 -0.2685 0.6344
vn -0.0000 -0.3916 0.9201
vn 0.7249 -0.2685 0.6344
vn 0.9995 0.0112 -0.0299
vn 0.6925 0.2739 -0.6674
vn -0.7043 0.3505 -0.6173
vn -0.0000 0.4922 -0.8705
vn -1.0000 -0.0013 -0.0022
vn -0.7050 -0.3637 0.6089
vn -0.0000 -0.5154 0.8570
vn 0.7050 -0.3637 0.6089
vn 1.0000 -0.0013 -0.0022
vn 0.7043 0.3505 -0.6173
vn -0.0000 -0.0000 -1.0000
vn 0.0035 -0.8589 -0.5120
vn 0.0035 -0.8590 -0.5120
vn -0.0000 -0.0000 1.0000
vn -0.7071 -0.0000 0.7071
vn -0.0000 -1.0000 -0.0007
vn 0.8656 -0.5007 0.0001
vn 0.6119 -0.5011 0.6120
vn 0.6123 -0.5003 -0.6122
vn -0.0000 -0.5001 -0.8660
vn -0.6123 -0.5003 -0.6122
vn -0.8656 -0.5007 0.0001
vn -0.6119 -0.5011 0.6120
vn -0.0000 -0.5013 0.8653
vn 0.0002 0.8620 0.5069
vn 0.0001 0.0089 1.0000
vn 0.6029 0.1345 0.7864
vn -0.6095 0.7495 -0.2585
vn -0.8572 0.4404 0.2669
vn -0.6027 0.1346 0.7865
vn 0.8574 0.4402 0.2668
vn 0.6097 0.7493 -0.2586
vn 0.0001 0.8784 -0.4778
vt 0.531272 0.797832
vt 0.545022 0.796720
vt 0.545676 0.807184
vt 0.531779 0.807345
vt 0.530028 0.788159
vt 0.543818 0.786407
vt 0.509464 0.767826
vt 0.510569 0.768420
vt 0.509167 0.778360
vt 0.507920 0.778122
vt 0.526891 0.767836
vt 0.540840 0.765822
vt 0.542344 0.776136
vt 0.528429 0.778163
vt 0.528556 0.837096
vt 0.542914 0.839008
vt 0.541510 0.849681
vt 0.527078 0.847793
vt 0.530129 0.826806
vt 0.544268 0.828408
vt 0.531335 0.816938
vt 0.545296 0.817824
vt 0.528872 0.788343
vt 0.530212 0.797938
vt 0.527248 0.836857
vt 0.525890 0.847201
vt 0.528942 0.826633
vt 0.530741 0.807361
vt 0.530259 0.816854
vt 0.492567 0.786329
vt 0.506269 0.788088
vt 0.504942 0.797734
vt 0.491391 0.796575
vt 0.491310 0.828206
vt 0.505680 0.826761
vt 0.507228 0.837128
vt 0.492601 0.838986
vt 0.490703 0.817447
vt 0.504610 0.816829
vt 0.505999 0.797832
vt 0.513835 0.798733
vt 0.513504 0.807334
vt 0.505365 0.807244
vt 0.507420 0.788263
vt 0.514621 0.789574
vt 0.515605 0.779478
vt 0.516310 0.769190
vt 0.508544 0.836893
vt 0.515260 0.835776
vt 0.515972 0.846518
vt 0.509924 0.847311
vt 0.506894 0.826593
vt 0.514337 0.825346
vt 0.505700 0.816751
vt 0.513678 0.815995
vt 0.522291 0.798755
vt 0.522515 0.807375
vt 0.521642 0.789575
vt 0.520770 0.779479
vt 0.520095 0.769199
vt 0.520622 0.835781
vt 0.519956 0.846482
vt 0.521540 0.825389
vt 0.522242 0.816046
vt 0.527170 0.778409
vt 0.525774 0.768445
vt 0.508717 0.847933
vt 0.504332 0.807231
vt 0.490723 0.806924
vt 0.495469 0.765822
vt 0.493997 0.776100
vt 0.493980 0.849810
vt 0.735336 0.871786
vt 0.755448 0.853324
vt 0.760922 0.862240
vt 0.747023 0.847121
vt 0.736884 0.844539
vt 0.745605 0.897075
vt 0.735336 0.899077
vt 0.754369 0.891360
vt 0.760339 0.882768
vt 0.762637 0.872561
vt 0.910790 0.842975
vt 0.937493 0.842975
vt 0.935400 0.853226
vt 0.920673 0.818442
vt 0.929471 0.824103
vt 0.935400 0.832724
vt 0.929471 0.861847
vt 0.920673 0.867508
vt 0.910378 0.816573
vt 0.910378 0.869376
s 1
f 4/1/1 59/2/2 60/3/3 3/4/4
f 9/5/5 64/6/6 59/2/2 4/1/1
f 46/7/7 13/8/7 12/9/7 47/10/7
f 7/11/8 66/12/9 65/13/10 8/14/11
f 6/15/12 61/16/13 66/17/9 7/18/8
f 5/19/14 62/20/15 61/16/13 6/15/12
f 2/21/16 63/22/17 62/20/15 5/19/14
f 3/4/4 60/3/3 63/22/17 2/21/16
f 35/23/18 9/5/18 4/1/19 34/24/19
f 38/25/20 6/15/20 7/18/21 37/26/21
f 39/27/22 5/19/23 6/15/20 38/25/20
f 41/28/24 3/4/24 2/21/25 40/29/25
f 52/30/26 48/31/26 49/32/27 51/33/27
f 56/34/28 44/35/28 45/36/29 55/37/29
f 57/38/30 43/39/30 44/35/28 56/34/28
f 10/40/31 18/41/32 25/42/33 17/43/34
f 11/44/35 19/45/36 18/41/32 10/40/31
f 12/9/37 20/46/38 19/45/36 11/44/35
f 13/8/39 21/47/40 20/46/38 12/9/37
f 14/48/41 22/49/42 21/50/40 13/51/39
f 15/52/43 23/53/44 22/49/42 14/48/41
f 16/54/45 24/55/46 23/53/44 15/52/43
f 17/43/34 25/42/33 24/55/46 16/54/45
f 18/41/32 26/56/47 33/57/48 25/42/33
f 19/45/36 27/58/49 26/56/47 18/41/32
f 20/46/38 28/59/50 27/58/49 19/45/36
f 21/47/40 29/60/51 28/59/50 20/46/38
f 22/49/42 30/61/52 29/62/51 21/50/40
f 23/53/44 31/63/53 30/61/52 22/49/42
f 24/55/46 32/64/54 31/63/53 23/53/44
f 25/42/33 33/57/48 32/64/54 24/55/46
f 26/56/47 34/24/55 41/28/56 33/57/48
f 27/58/49 35/23/57 34/24/55 26/56/47
f 28/59/50 36/65/58 35/23/57 27/58/49
f 29/60/51 37/66/59 36/65/58 28/59/50
f 30/61/52 38/25/60 37/26/59 29/62/51
f 31/63/53 39/27/61 38/25/60 30/61/52
f 32/64/54 40/29/62 39/27/61 31/63/53
f 33/57/48 41/28/56 40/29/62 32/64/54
f 48/31/7 11/44/7 10/40/7 49/32/7
f 47/10/7 12/9/7 11/44/7 48/31/7
f 44/35/7 15/52/7 14/48/7 45/36/7
f 45/36/7 14/48/7 13/51/7 46/67/7
f 8/14/11 65/13/10 64/6/6 9/5/5
f 43/39/7 16/54/7 15/52/7 44/35/7
f 42/68/7 17/43/7 16/54/7 43/39/7
f 51/33/27 49/32/27 42/68/63 58/69/63
f 34/24/19 4/1/19 3/4/24 41/28/24
f 37/66/21 7/11/21 8/14/64 36/65/65
f 54/70/66 46/7/66 47/10/67 53/71/67
f 40/29/25 2/21/25 5/19/23 39/27/22
f 36/65/65 8/14/64 9/5/18 35/23/18
f 53/71/67 47/10/67 48/31/26 52/30/26
f 55/37/29 45/36/29 46/67/66 54/72/66
f 58/69/63 42/68/63 43/39/30 57/38/30
f 49/32/7 10/40/7 17/43/7 42/68/7
f 1/73/68 52/74/69 51/75/70
f 1/73/68 53/76/71 52/74/69
f 1/73/68 54/77/72 53/76/71
f 1/73/68 55/78/73 54/79/72
f 1/73/68 56/80/74 55/78/73
f 1/73/68 57/81/75 56/80/74
f 1/73/68 51/75/70 58/82/76
f 1/73/68 58/82/76 57/81/75
f 50/83/77 60/84/78 59/85/79
f 50/83/77 61/86/80 62/87/81
f 50/83/77 62/87/81 63/88/82
f 50/83/77 64/89/83 65/90/84
f 50/83/77 59/85/79 64/89/83
f 50/83/77 66/91/85 61/86/80
f 50/83/77 63/88/82 60/84/78
f 50/83/77 65/90/84 66/92/85
