# Blender 4.1.1
# www.blender.org
o Pipe_Straight_25cm
v -0.000000 0.042738 -0.000000
v 0.000000 0.053098 -0.000000
v -0.046669 0.125000 -0.046669
v 0.000000 0.125000 -0.066000
v -0.066000 0.125000 -0.000000
v 0.046669 0.125000 -0.046669
v -0.046669 0.125000 0.046669
v 0.000000 0.125000 0.066000
v 0.046669 0.125000 0.046669
v 0.066000 0.125000 0.000000
v -0.046669 -0.125000 -0.046669
v -0.066000 -0.125000 -0.000000
v -0.046669 -0.125000 0.046669
v -0.000000 -0.125000 0.066000
v 0.046669 -0.125000 0.046669
v 0.066000 -0.125000 0.000000
v 0.046669 -0.125000 -0.046669
v -0.000000 -0.125000 -0.066000
v -0.046669 0.065000 -0.046669
v -0.066000 0.065000 -0.000000
v -0.046669 0.065000 0.046669
v 0.000000 0.065000 0.066000
v 0.046669 0.065000 0.046669
v 0.066000 0.065000 0.000000
v 0.046669 0.065000 -0.046669
v 0.000000 0.065000 -0.066000
v -0.000000 -0.065000 -0.066000
v -0.046669 -0.065000 -0.046669
v -0.066000 -0.065000 -0.000000
v -0.046669 -0.065000 0.046669
v -0.000000 -0.065000 0.066000
v 0.046669 -0.065000 0.046669
v 0.066000 -0.065000 0.000000
v 0.046669 -0.065000 -0.046669
v -0.000000 -0.065000 -0.060000
v -0.042426 -0.065000 -0.042426
v -0.060000 -0.065000 -0.000000
v -0.042426 -0.065000 0.042426
v -0.000000 -0.065000 0.060000
v 0.042426 -0.065000 0.042426
v 0.060000 -0.065000 0.000000
v 0.042426 -0.065000 -0.042426
v -0.042426 0.065000 -0.042426
v -0.060000 0.065000 -0.000000
v -0.042426 0.065000 0.042426
v 0.000000 0.065000 0.060000
v 0.042426 0.065000 0.042426
v 0.060000 0.065000 0.000000
v 0.042426 0.065000 -0.042426
v 0.000000 0.065000 -0.060000
vn -0.7071 -0.0000 0.7071
vn -1.0000 -0.0000 -0.0000
vn -0.0000 -0.0000 1.0000
vn 0.7071 -0.0000 0.7071
vn -0.7071 -0.0000 -0.7071
vn -0.0000 -0.0000 -1.0000
vn 0.7071 -0.0000 -0.7071
vn 1.0000 -0.0000 -0.0000
vn -0.0000 1.0000 -0.0000
vn -0.0000 0.6762 0.7367
vn 0.5209 0.6762 0.5209
vn 0.7367 0.6762 -0.0000
vn -0.5209 0.6762 0.5209
vn 0.5209 0.6762 -0.5209
vn -0.0000 0.6762 -0.7367
vn -0.5209 0.6762 -0.5209
vn -0.7367 0.6762 -0.0000
vn -0.0000 -1.0000 -0.0000
vn 0.9306 -0.3661 -0.0000
vn 0.6580 -0.3661 0.6580
vn 0.6580 -0.3661 -0.6580
vn -0.0000 -0.3661 -0.9306
vn -0.9306 -0.3661 -0.0000
vn -0.6580 -0.3661 -0.6580
vn -0.6580 -0.3661 0.6580
vn -0.0000 -0.3661 0.9306
vt 0.750397 0.803779
vt 0.750304 0.793425
vt 0.779723 0.793426
vt 0.779629 0.803781
vt 0.750479 0.813976
vt 0.779546 0.813977
vt 0.749884 0.740728
vt 0.749858 0.730093
vt 0.780170 0.730094
vt 0.780142 0.740731
vt 0.750221 0.783015
vt 0.750136 0.772553
vt 0.779890 0.772553
vt 0.779806 0.783015
vt 0.750043 0.762025
vt 0.779983 0.762025
vt 0.749951 0.751416
vt 0.780075 0.751416
vt 0.749018 0.783019
vt 0.736618 0.783145
vt 0.736475 0.772726
vt 0.748928 0.772563
vt 0.749102 0.793434
vt 0.736710 0.793545
vt 0.749204 0.803843
vt 0.736770 0.803973
vt 0.749316 0.814409
vt 0.736833 0.814483
vt 0.748630 0.740692
vt 0.735685 0.740910
vt 0.735336 0.729902
vt 0.748532 0.729629
vt 0.748717 0.751434
vt 0.736006 0.751663
vt 0.748825 0.762042
vt 0.736272 0.762247
vt 0.921075 0.920838
vt 0.942480 0.920838
vt 0.939613 0.931539
vt 0.931781 0.939374
vt 0.939613 0.910137
vt 0.921080 0.942243
vt 0.910378 0.939379
vt 0.910378 0.902297
vt 0.921080 0.899433
vt 0.931781 0.902302
vt 0.863524 0.630874
vt 0.824258 0.635456
vt 0.824528 0.624381
vt 0.827071 0.646172
vt 0.832747 0.655686
vt 0.842447 0.597429
vt 0.852555 0.592894
vt 0.833994 0.604590
vt 0.827861 0.613816
vt 0.863524 0.591341
vt 0.793551 0.772734
vt 0.781098 0.772570
vt 0.781201 0.762049
vt 0.793756 0.762254
vt 0.781309 0.751438
vt 0.794022 0.751667
vt 0.781397 0.740692
vt 0.794344 0.740912
vt 0.781496 0.729628
vt 0.794694 0.729902
vt 0.793189 0.814483
vt 0.780707 0.814408
vt 0.780821 0.803842
vt 0.793252 0.803975
vt 0.780925 0.793438
vt 0.793314 0.793549
vt 0.781009 0.783026
vt 0.793407 0.783152
s 1
f 45/1/1 44/2/2 37/3/2 38/4/1
f 46/5/3 45/1/1 38/4/1 39/6/3
f 47/7/4 46/8/3 39/9/3 40/10/4
f 43/11/5 50/12/6 35/13/6 36/14/5
f 35/13/6 50/12/6 49/15/7 42/16/7
f 44/2/2 43/11/5 36/14/5 37/3/2
f 42/16/7 49/15/7 48/17/8 41/18/8
f 19/19/5 3/20/5 4/21/6 26/22/6
f 20/23/2 5/24/2 3/20/5 19/19/5
f 21/25/1 7/26/1 5/24/2 20/23/2
f 22/27/3 8/28/3 7/26/1 21/25/1
f 23/29/4 9/30/4 8/31/3 22/32/3
f 24/33/8 10/34/8 9/30/4 23/29/4
f 25/35/7 6/36/7 10/34/8 24/33/8
f 26/22/6 4/21/6 6/36/7 25/35/7
f 2/37/9 4/38/10 3/39/11
f 2/37/9 3/39/11 5/40/12
f 2/37/9 6/41/13 4/38/10
f 2/37/9 5/40/12 7/42/14
f 2/37/9 7/42/14 8/43/15
f 2/37/9 8/44/15 9/45/16
f 2/37/9 9/45/16 10/46/17
f 2/37/9 10/46/17 6/41/13
f 1/47/18 12/48/19 11/49/20
f 1/47/18 13/50/21 12/48/19
f 1/47/18 14/51/22 13/50/21
f 1/47/18 16/52/23 15/53/24
f 1/47/18 17/54/25 16/52/23
f 1/47/18 11/49/20 18/55/26
f 1/47/18 15/53/24 14/56/22
f 1/47/18 18/55/26 17/54/25
f 50/12/18 26/22/18 25/35/18 49/15/18
f 49/15/18 25/35/18 24/33/18 48/17/18
f 48/17/18 24/33/18 23/29/18 47/7/18
f 47/7/18 23/29/18 22/32/18 46/8/18
f 46/5/18 22/27/18 21/25/18 45/1/18
f 45/1/18 21/25/18 20/23/18 44/2/18
f 44/2/18 20/23/18 19/19/18 43/11/18
f 43/11/18 19/19/18 26/22/18 50/12/18
f 18/57/6 27/58/6 34/59/7 17/60/7
f 17/60/7 34/59/7 33/61/8 16/62/8
f 16/62/8 33/61/8 32/63/4 15/64/4
f 15/64/4 32/63/4 31/65/3 14/66/3
f 14/67/3 31/68/3 30/69/1 13/70/1
f 13/70/1 30/69/1 29/71/2 12/72/2
f 12/72/2 29/71/2 28/73/5 11/74/5
f 11/74/5 28/73/5 27/58/6 18/57/6
f 27/58/9 35/13/9 42/16/9 34/59/9
f 34/59/9 42/16/9 41/18/9 33/61/9
f 33/61/9 41/18/9 40/10/9 32/63/9
f 32/63/9 40/10/9 39/9/9 31/65/9
f 31/68/9 39/6/9 38/4/9 30/69/9
f 30/69/9 38/4/9 37/3/9 29/71/9
f 29/71/9 37/3/9 36/14/9 28/73/9
f 28/73/9 36/14/9 35/13/9 27/58/9
f 41/18/8 48/17/8 47/7/4 40/10/4
