# Blender 4.1.1
# www.blender.org
o Pipe_90deg
v 0.000000 0.142137 0.046355
v -0.046669 0.050000 -0.046669
v -0.066000 0.050000 -0.000000
v -0.046669 0.050000 0.046669
v -0.000000 0.050000 0.066000
v 0.046669 0.050000 0.046669
v 0.066000 0.050000 0.000000
v 0.046669 0.050000 -0.046669
v 0.000000 0.050000 -0.066000
v -0.042426 0.086703 -0.042144
v -0.060000 0.081818 -0.000000
v -0.042426 0.076933 0.042144
v -0.000000 0.074910 0.059601
v 0.042426 0.076933 0.042144
v 0.060000 0.081818 0.000000
v 0.042426 0.086703 -0.042144
v 0.000000 0.088726 -0.059601
v -0.042426 0.128293 -0.032215
v -0.060000 0.112791 0.007278
v -0.042426 0.097290 0.046771
v -0.000000 0.090869 0.063129
v 0.042426 0.097290 0.046771
v 0.060000 0.112791 0.007278
v 0.042426 0.128293 -0.032215
v 0.000000 0.134714 -0.048574
v -0.042426 0.176886 -0.004630
v -0.060000 0.151165 0.029111
v -0.042426 0.125444 0.062851
v -0.000000 0.114790 0.076827
v 0.042426 0.125444 0.062851
v 0.060000 0.151165 0.029111
v 0.042426 0.176886 -0.004630
v 0.000000 0.187540 -0.018606
v -0.042426 0.212912 0.031654
v -0.060000 0.178438 0.056383
v -0.042426 0.143964 0.081113
v -0.000000 0.129684 0.091356
v 0.042426 0.143964 0.081113
v 0.060000 0.178438 0.056383
v 0.042426 0.212912 0.031654
v 0.000000 0.227192 0.021411
v -0.042426 0.234866 0.075702
v -0.060000 0.194610 0.089096
v -0.042426 0.154353 0.102490
v -0.000000 0.137678 0.108038
v 0.042426 0.154353 0.102490
v 0.060000 0.194610 0.089096
v 0.042426 0.234866 0.075702
v 0.000000 0.251541 0.070154
v -0.042426 0.242249 0.114300
v -0.060000 0.200000 0.118182
v -0.042426 0.157752 0.122064
v -0.000000 0.140252 0.123672
v 0.042426 0.157752 0.122064
v 0.060000 0.200000 0.118182
v 0.042426 0.242249 0.114300
v 0.000000 0.259748 0.112692
v -0.046669 0.246669 0.140000
v -0.066000 0.200000 0.140000
v -0.046669 0.153331 0.140000
v -0.000000 0.134000 0.140000
v 0.046669 0.153331 0.140000
v 0.066000 0.200000 0.140000
v 0.046669 0.246669 0.140000
v 0.000000 0.266000 0.140000
v 0.000000 0.160304 0.040292
v -0.046669 0.000000 -0.046669
v -0.066000 0.000000 -0.000000
v -0.046669 0.000000 0.046669
v -0.000000 0.000000 0.066000
v 0.046669 -0.000000 0.046669
v 0.066000 -0.000000 0.000000
v 0.000000 -0.000000 -0.066000
v 0.046669 -0.000000 -0.046669
v -0.046669 0.246669 0.200000
v -0.066000 0.200000 0.200000
v -0.046669 0.153331 0.200000
v -0.000000 0.134000 0.200000
v 0.000000 0.266000 0.200000
v 0.046669 0.246669 0.200000
v 0.046669 0.153331 0.200000
v 0.066000 0.200000 0.200000
v -0.042426 0.050000 -0.042426
v -0.042426 0.050000 0.042426
v 0.042426 0.050000 0.042426
v 0.042426 0.050000 -0.042426
v -0.060000 0.050000 -0.000000
v -0.000000 0.050000 0.060000
v 0.060000 0.050000 0.000000
v 0.000000 0.050000 -0.060000
v -0.042426 0.242427 0.140000
v -0.042426 0.157574 0.140000
v 0.042426 0.157574 0.140000
v 0.042426 0.242426 0.140000
v -0.060000 0.200000 0.140000
v -0.000000 0.140000 0.140000
v 0.060000 0.200000 0.140000
v 0.000000 0.260000 0.140000
vn -1.0000 -0.0000 -0.0000
vn -0.7071 0.7071 -0.0000
vn -0.0000 -0.0000 1.0000
vn -0.7071 -0.0000 0.7071
vn 0.7071 -0.0000 0.7071
vn 1.0000 -0.0000 -0.0000
vn 0.7071 -0.0000 -0.7071
vn -0.7071 -0.0000 -0.7071
vn -0.0000 -0.0000 -1.0000
vn -0.7071 -0.7071 -0.0000
vn -0.7054 0.0054 -0.7088
vn -0.6938 0.0870 -0.7149
vn -0.0000 0.1215 -0.9926
vn -0.0000 0.0090 -1.0000
vn -1.0000 0.0019 0.0001
vn -0.9996 0.0047 -0.0277
vn -0.7049 0.0076 0.7093
vn -0.7218 -0.0735 0.6882
vn -0.0000 0.0131 0.9999
vn -0.0000 -0.1033 0.9946
vn 0.7049 0.0076 0.7093
vn 0.7218 -0.0735 0.6882
vn 1.0000 0.0019 0.0001
vn 0.9996 0.0047 -0.0277
vn 0.7054 0.0054 -0.7088
vn 0.6938 0.0870 -0.7149
vn -0.6906 0.2651 -0.6729
vn -0.0000 0.3667 -0.9303
vn -0.9994 0.0131 -0.0323
vn -0.7260 -0.2494 0.6409
vn -0.0000 -0.3616 0.9323
vn 0.7260 -0.2494 0.6409
vn 0.9994 0.0131 -0.0323
vn 0.6906 0.2651 -0.6729
vn -0.6906 0.4392 -0.5746
vn -0.0000 0.6074 -0.7944
vn -0.9995 0.0200 -0.0257
vn -0.7227 -0.4175 0.5508
vn -0.0000 -0.6033 0.7975
vn 0.7227 -0.4175 0.5508
vn 0.9995 0.0200 -0.0257
vn 0.6906 0.4392 -0.5746
vn -0.6886 0.5893 -0.4226
vn -0.0000 0.8127 -0.5827
vn -0.9992 0.0323 -0.0231
vn -0.7291 -0.5561 0.3990
vn -0.0000 -0.8125 0.5830
vn 0.7291 -0.5561 0.3990
vn 0.9992 0.0323 -0.0231
vn 0.6886 0.5893 -0.4226
vn -0.6909 0.6849 -0.2313
vn -0.0000 0.9473 -0.3204
vn -0.9994 0.0315 -0.0118
vn -0.7247 -0.6558 0.2114
vn -0.0000 -0.9528 0.3036
vn 0.7247 -0.6558 0.2114
vn 0.9994 0.0315 -0.0118
vn 0.6909 0.6849 -0.2313
vn -0.6962 0.7144 -0.0702
vn -0.0000 0.9951 -0.0987
vn -0.9998 0.0220 -0.0037
vn -0.7182 -0.6936 0.0561
vn -0.0000 -0.9970 0.0773
vn 0.7182 -0.6936 0.0561
vn 0.9998 0.0220 -0.0037
vn 0.6962 0.7144 -0.0702
vn -0.0000 1.0000 -0.0000
vn 0.7071 0.7071 -0.0000
vn -0.0000 -1.0000 -0.0000
vn 0.7071 -0.7071 -0.0000
vn -0.0000 -0.9638 -0.2668
vn 0.8987 -0.4352 0.0548
vn 0.5561 -0.5752 0.5999
vn -0.0000 -0.1369 -0.9906
vn 0.7201 -0.2379 -0.6518
vn -0.8987 -0.4352 0.0548
vn -0.7201 -0.2379 -0.6518
vn -0.0000 -0.6201 0.7845
vn -0.5561 -0.5752 0.5999
vn -0.0000 0.2120 0.9773
vn 0.5887 -0.6265 0.5108
vn 0.9193 -0.0445 0.3910
vn 0.7126 0.6603 0.2371
vn -0.0000 0.9867 0.1625
vn -0.0000 -0.8339 0.5519
vn -0.5887 -0.6265 0.5108
vn -0.7126 0.6603 0.2371
vn -0.9193 -0.0445 0.3910
vn -0.0000 1.0000 -0.0081
vn 0.7058 0.7084 -0.0048
vn 1.0000 -0.0001 -0.0017
vn 0.7053 -0.7089 -0.0072
vn -0.0000 -0.9999 -0.0125
vn -0.7053 -0.7089 -0.0072
vn -1.0000 -0.0001 -0.0017
vn -0.7058 0.7084 -0.0048
vt 0.266878 0.786361
vt 0.254525 0.789787
vt 0.251832 0.778890
vt 0.264244 0.776723
vt 0.319154 0.811165
vt 0.308840 0.807556
vt 0.312599 0.797189
vt 0.322800 0.800745
vt 0.327487 0.733052
vt 0.315628 0.736141
vt 0.312136 0.724158
vt 0.324180 0.720884
vt 0.330418 0.745218
vt 0.318750 0.747339
vt 0.331424 0.757362
vt 0.320432 0.757949
vt 0.329159 0.779838
vt 0.319031 0.777719
vt 0.320521 0.768011
vt 0.330975 0.768869
vt 0.270431 0.796360
vt 0.257867 0.800461
vt 0.316223 0.787336
vt 0.326278 0.790388
vt 0.317943 0.777496
vt 0.310864 0.775868
vt 0.311902 0.767507
vt 0.319414 0.767927
vt 0.315080 0.786978
vt 0.308637 0.784637
vt 0.311366 0.796694
vt 0.305434 0.794350
vt 0.307784 0.806695
vt 0.302302 0.804765
vt 0.314182 0.736618
vt 0.307428 0.738828
vt 0.304419 0.727034
vt 0.310789 0.725107
vt 0.317384 0.747626
vt 0.310195 0.749563
vt 0.319229 0.758031
vt 0.311699 0.758946
vt 0.303336 0.774802
vt 0.303851 0.767186
vt 0.302249 0.783163
vt 0.300487 0.793033
vt 0.298577 0.803881
vt 0.301924 0.740047
vt 0.300133 0.727967
vt 0.303290 0.750709
vt 0.303867 0.759458
vt 0.293909 0.774265
vt 0.294149 0.766947
vt 0.293436 0.782382
vt 0.292732 0.792170
vt 0.292070 0.803187
vt 0.293471 0.740770
vt 0.292843 0.728690
vt 0.293962 0.751158
vt 0.294175 0.759550
vt 0.285575 0.774040
vt 0.285537 0.766867
vt 0.285809 0.782106
vt 0.286345 0.792029
vt 0.287087 0.803196
vt 0.286604 0.740898
vt 0.287314 0.728761
vt 0.285988 0.751344
vt 0.285664 0.759634
vt 0.277377 0.774547
vt 0.276981 0.766878
vt 0.278526 0.782975
vt 0.280520 0.792895
vt 0.282681 0.803851
vt 0.280377 0.740037
vt 0.282457 0.728181
vt 0.278410 0.750468
vt 0.277314 0.759139
vt 0.270341 0.775507
vt 0.269510 0.766962
vt 0.272530 0.784444
vt 0.275802 0.794259
vt 0.278977 0.804839
vt 0.275337 0.738701
vt 0.278387 0.727271
vt 0.272159 0.749066
vt 0.270132 0.758313
vt 0.265343 0.776529
vt 0.263107 0.767113
vt 0.264225 0.767065
vt 0.268040 0.786009
vt 0.271720 0.795845
vt 0.275244 0.806095
vt 0.274108 0.806975
vt 0.270968 0.737159
vt 0.269589 0.736670
vt 0.273025 0.725273
vt 0.274309 0.726113
vt 0.267454 0.747588
vt 0.266238 0.747279
vt 0.265008 0.757452
vt 0.263882 0.757328
vt 0.250300 0.767508
vt 0.251079 0.755773
vt 0.261394 0.811165
vt 0.256197 0.732939
vt 0.259400 0.721469
vt 0.253240 0.744308
vt 0.893580 0.621707
vt 0.914673 0.594299
vt 0.923796 0.599870
vt 0.893580 0.591341
vt 0.904255 0.591901
vt 0.927270 0.629520
vt 0.920737 0.637981
vt 0.929682 0.608794
vt 0.930791 0.619426
vt 0.889127 0.331649
vt 0.858855 0.306007
vt 0.868071 0.300591
vt 0.878457 0.298061
vt 0.889127 0.297396
vt 0.852394 0.314523
vt 0.850025 0.324948
vt 0.856540 0.345071
vt 0.851801 0.335489
vt 0.912838 0.645184
vt 0.862890 0.353671
s 1
f 59/1/1 76/2/1 75/3/2 58/4/2
f 70/5/3 5/6/3 4/7/4 69/8/4
f 71/9/5 6/10/5 5/11/3 70/12/3
f 72/13/6 7/14/6 6/10/5 71/9/5
f 74/15/7 8/16/7 7/14/6 72/13/6
f 67/17/8 2/18/8 9/19/9 73/20/9
f 60/21/10 77/22/10 76/2/1 59/1/1
f 69/8/4 4/7/4 3/23/1 68/24/1
f 83/25/11 10/26/12 17/27/13 90/28/14
f 87/29/15 11/30/16 10/26/12 83/25/11
f 84/31/17 12/32/18 11/30/16 87/29/15
f 88/33/19 13/34/20 12/32/18 84/31/17
f 85/35/21 14/36/22 13/37/20 88/38/19
f 89/39/23 15/40/24 14/36/22 85/35/21
f 86/41/25 16/42/26 15/40/24 89/39/23
f 90/28/14 17/27/13 16/42/26 86/41/25
f 10/26/12 18/43/27 25/44/28 17/27/13
f 11/30/16 19/45/29 18/43/27 10/26/12
f 12/32/18 20/46/30 19/45/29 11/30/16
f 13/34/20 21/47/31 20/46/30 12/32/18
f 14/36/22 22/48/32 21/49/31 13/37/20
f 15/40/24 23/50/33 22/48/32 14/36/22
f 16/42/26 24/51/34 23/50/33 15/40/24
f 17/27/13 25/44/28 24/51/34 16/42/26
f 18/43/27 26/52/35 33/53/36 25/44/28
f 19/45/29 27/54/37 26/52/35 18/43/27
f 20/46/30 28/55/38 27/54/37 19/45/29
f 21/47/31 29/56/39 28/55/38 20/46/30
f 22/48/32 30/57/40 29/58/39 21/49/31
f 23/50/33 31/59/41 30/57/40 22/48/32
f 24/51/34 32/60/42 31/59/41 23/50/33
f 25/44/28 33/53/36 32/60/42 24/51/34
f 26/52/35 34/61/43 41/62/44 33/53/36
f 27/54/37 35/63/45 34/61/43 26/52/35
f 28/55/38 36/64/46 35/63/45 27/54/37
f 29/56/39 37/65/47 36/64/46 28/55/38
f 30/57/40 38/66/48 37/67/47 29/58/39
f 31/59/41 39/68/49 38/66/48 30/57/40
f 32/60/42 40/69/50 39/68/49 31/59/41
f 33/53/36 41/62/44 40/69/50 32/60/42
f 34/61/43 42/70/51 49/71/52 41/62/44
f 35/63/45 43/72/53 42/70/51 34/61/43
f 36/64/46 44/73/54 43/72/53 35/63/45
f 37/65/47 45/74/55 44/73/54 36/64/46
f 38/66/48 46/75/56 45/76/55 37/67/47
f 39/68/49 47/77/57 46/75/56 38/66/48
f 40/69/50 48/78/58 47/77/57 39/68/49
f 41/62/44 49/71/52 48/78/58 40/69/50
f 42/70/51 50/79/59 57/80/60 49/71/52
f 43/72/53 51/81/61 50/79/59 42/70/51
f 44/73/54 52/82/62 51/81/61 43/72/53
f 45/74/55 53/83/63 52/82/62 44/73/54
f 46/75/56 54/84/64 53/85/63 45/76/55
f 47/77/57 55/86/65 54/84/64 46/75/56
f 48/78/58 56/87/66 55/86/65 47/77/57
f 49/71/52 57/80/60 56/87/66 48/78/58
f 91/88/9 58/4/9 65/89/9 98/90/9
f 95/91/9 59/1/9 58/4/9 91/88/9
f 92/92/9 60/21/9 59/1/9 95/91/9
f 96/93/9 61/94/9 60/21/9 92/92/9
f 93/95/9 62/96/9 61/97/9 96/98/9
f 97/99/9 63/100/9 62/96/9 93/95/9
f 94/101/9 64/102/9 63/100/9 97/99/9
f 98/90/9 65/89/9 64/102/9 94/101/9
f 65/89/67 79/103/67 80/104/68 64/102/68
f 61/94/69 78/105/69 77/22/10 60/21/10
f 81/106/70 78/107/69 61/97/69 62/96/70
f 63/100/6 82/108/6 81/106/70 62/96/70
f 64/102/68 80/104/68 82/108/6 63/100/6
f 58/4/2 75/3/2 79/103/67 65/89/67
f 73/20/9 9/19/9 8/16/7 74/15/7
f 1/109/71 68/110/72 67/111/73
f 1/109/71 70/112/74 69/113/75
f 1/109/71 72/114/76 71/115/77
f 1/109/71 67/111/73 73/116/78
f 1/109/71 73/116/78 74/117/79
f 66/118/80 75/119/81 76/120/82
f 66/118/80 77/121/83 78/122/84
f 66/118/80 79/123/85 75/119/81
f 66/118/80 80/124/86 79/123/85
f 66/118/80 81/125/87 82/126/88
f 1/109/71 69/113/75 68/110/72
f 1/109/71 71/115/77 70/127/74
f 1/109/71 74/117/79 72/114/76
f 66/118/80 76/120/82 77/121/83
f 66/118/80 78/128/84 81/125/87
f 66/118/80 82/126/88 80/124/86
f 68/24/1 3/23/1 2/18/8 67/17/8
f 9/19/67 90/28/67 86/41/67 8/16/67
f 8/16/67 86/41/67 89/39/67 7/14/67
f 7/14/67 89/39/67 85/35/67 6/10/67
f 6/10/67 85/35/67 88/38/67 5/11/67
f 5/6/67 88/33/67 84/31/67 4/7/67
f 4/7/67 84/31/67 87/29/67 3/23/67
f 3/23/67 87/29/67 83/25/67 2/18/67
f 2/18/67 83/25/67 90/28/67 9/19/67
f 57/80/60 98/90/89 94/101/90 56/87/66
f 56/87/66 94/101/90 97/99/91 55/86/65
f 55/86/65 97/99/91 93/95/92 54/84/64
f 54/84/64 93/95/92 96/98/93 53/85/63
f 53/83/63 96/93/93 92/92/94 52/82/62
f 52/82/62 92/92/94 95/91/95 51/81/61
f 51/81/61 95/91/95 91/88/96 50/79/59
f 50/79/59 91/88/96 98/90/89 57/80/60
