# Blender 4.1.1
# www.blender.org
mtllib SafetyValve_Ramsbottom.mtl
o SafetyValve
v 0.009260 0.184667 0.022715
v 0.000000 0.011540 -0.038010
v 0.007090 0.189462 0.037424
v 0.026877 0.011540 -0.026877
v 0.016253 0.184310 0.038883
v 0.019355 0.179515 0.031702
v 0.019637 0.187248 0.008135
v 0.038010 0.011540 0.000000
v 0.037737 0.086741 -0.000000
v 0.033564 0.196562 0.014222
v 0.041960 0.187248 0.017381
v 0.026877 0.011540 0.026877
v 0.033564 0.177934 0.014222
v 0.000000 0.011540 0.038010
v 0.019638 0.190008 -0.008133
v 0.033564 0.199321 -0.014544
v 0.041961 0.190008 -0.017380
v -0.026877 0.011540 0.026877
v 0.033564 0.180694 -0.014544
v -0.038010 0.011540 0.000000
v 0.008135 0.192767 -0.019637
v -0.035864 0.086731 -0.000000
v 0.013224 0.202081 -0.034885
v -0.026877 0.011540 -0.026877
v 0.017381 0.192767 -0.041960
v 0.013224 0.183454 -0.034885
v -0.008133 0.195527 -0.019638
v -0.015542 0.204841 -0.034886
v -0.017380 0.195527 -0.041961
v -0.015542 0.186213 -0.034886
v -0.019637 0.198287 -0.008135
v -0.035884 0.207600 -0.014546
v -0.041960 0.198287 -0.017381
v -0.035884 0.188973 -0.014546
v -0.019638 0.201046 0.008133
v -0.035884 0.210360 0.014221
v -0.041961 0.201046 0.017380
v -0.035884 0.191733 0.014221
v -0.008135 0.203806 0.019637
v -0.015544 0.213120 0.034562
v -0.017381 0.203806 0.041960
v -0.015544 0.194492 0.034562
v 0.008133 0.206566 0.019638
v 0.013222 0.215879 0.034563
v 0.017380 0.206566 0.041961
v 0.013222 0.197252 0.034563
v 0.019637 0.209325 0.008135
v 0.033564 0.218639 0.014222
v 0.041960 0.209325 0.017381
v 0.033564 0.200012 0.014222
v 0.019638 0.212085 -0.008133
v 0.033564 0.221399 -0.014544
v 0.041961 0.212085 -0.017380
v 0.033564 0.202771 -0.014544
v 0.008135 0.214845 -0.019637
v 0.013224 0.224158 -0.034885
v 0.017381 0.214845 -0.041960
v 0.013224 0.205531 -0.034885
v -0.008133 0.217604 -0.019638
v -0.015542 0.226918 -0.034886
v -0.017380 0.217604 -0.041961
v -0.015542 0.208291 -0.034886
v -0.019637 0.220364 -0.008135
v -0.035884 0.229678 -0.014546
v -0.041960 0.220364 -0.017381
v -0.035884 0.211050 -0.014546
v -0.019638 0.223124 0.008133
v -0.035884 0.232438 0.014221
v -0.041961 0.223124 0.017380
v -0.035884 0.213810 0.014221
v -0.008135 0.225883 0.019637
v -0.015544 0.235197 0.034562
v -0.017381 0.225883 0.041960
v -0.015544 0.216570 0.034562
v 0.008133 0.228643 0.019638
v 0.013222 0.237957 0.034563
v 0.017380 0.228643 0.041961
v 0.013222 0.219329 0.034563
v 0.019637 0.231403 0.008135
v 0.033564 0.240717 0.014222
v 0.041960 0.231403 0.017381
v 0.033564 0.222089 0.014222
v 0.019638 0.234162 -0.008133
v 0.033564 0.243476 -0.014544
v 0.041961 0.234162 -0.017380
v 0.033564 0.224849 -0.014544
v 0.008135 0.236922 -0.019637
v 0.013224 0.246236 -0.034885
v 0.017381 0.236922 -0.041960
v 0.013224 0.227608 -0.034885
v -0.008133 0.239682 -0.019638
v -0.015542 0.248995 -0.034886
v -0.017380 0.239682 -0.041961
v -0.015542 0.230368 -0.034886
v -0.019637 0.242441 -0.008135
v -0.035884 0.251755 -0.014546
v -0.041960 0.242441 -0.017381
v -0.035884 0.233128 -0.014546
v -0.019638 0.245201 0.008133
v -0.035884 0.254515 0.014221
v -0.041961 0.245201 0.017380
v -0.035884 0.235887 0.014221
v -0.008135 0.247961 0.019637
v -0.015544 0.257275 0.034562
v -0.017381 0.247961 0.041960
v -0.015544 0.238647 0.034562
v 0.008133 0.250720 0.019638
v 0.013222 0.260034 0.034563
v 0.017380 0.250720 0.041961
v 0.013222 0.241407 0.034563
v 0.019637 0.253480 0.008135
v 0.033564 0.262794 0.014222
v 0.041960 0.253480 0.017381
v 0.033564 0.244166 0.014222
v 0.019638 0.256240 -0.008133
v 0.033564 0.265554 -0.014544
v 0.041961 0.256240 -0.017380
v 0.033564 0.246926 -0.014544
v 0.008135 0.258999 -0.019637
v 0.013224 0.268313 -0.034885
v 0.017381 0.258999 -0.041960
v 0.013224 0.249686 -0.034885
v -0.008133 0.261759 -0.019638
v -0.015542 0.271073 -0.034886
v -0.017380 0.261759 -0.041961
v -0.015542 0.252445 -0.034886
v -0.019637 0.264519 -0.008135
v -0.035884 0.273833 -0.014546
v -0.041960 0.264519 -0.017381
v -0.035884 0.255205 -0.014546
v -0.019638 0.267278 0.008133
v -0.035884 0.276592 0.014221
v -0.041961 0.267278 0.017380
v -0.035884 0.257965 0.014221
v -0.008135 0.270038 0.019637
v -0.015544 0.279352 0.034562
v -0.017381 0.270038 0.041960
v -0.015544 0.260724 0.034562
v 0.008133 0.272798 0.019638
v 0.013222 0.282112 0.034563
v 0.017380 0.272798 0.041961
v 0.013222 0.263484 0.034563
v 0.019637 0.275557 0.008135
v 0.033564 0.284871 0.014222
v 0.041960 0.275557 0.017381
v 0.033564 0.266244 0.014222
v 0.019638 0.278317 -0.008133
v 0.033564 0.287631 -0.014544
v 0.041961 0.278317 -0.017380
v 0.033564 0.269003 -0.014544
v 0.008135 0.281077 -0.019637
v 0.013224 0.290391 -0.034885
v 0.017381 0.281077 -0.041960
v 0.013224 0.271763 -0.034885
v -0.008133 0.283836 -0.019638
v -0.015542 0.293150 -0.034886
v -0.017380 0.283836 -0.041961
v -0.015542 0.274523 -0.034886
v -0.019637 0.286596 -0.008135
v -0.035884 0.295910 -0.014546
v -0.041960 0.286596 -0.017381
v -0.035884 0.277282 -0.014546
v -0.019638 0.289356 0.008133
v -0.035884 0.298670 0.014221
v -0.041961 0.289356 0.017380
v -0.035884 0.280042 0.014221
v -0.008135 0.292115 0.019637
v -0.015544 0.301429 0.034562
v -0.017381 0.292115 0.041960
v -0.015544 0.282802 0.034562
v 0.008133 0.294875 0.019638
v 0.013222 0.304189 0.034563
v 0.017380 0.294875 0.041961
v 0.013222 0.285561 0.034563
v 0.019637 0.297635 0.008135
v 0.033564 0.306949 0.014222
v 0.041960 0.297635 0.017381
v 0.033564 0.288321 0.014222
v 0.019638 0.300394 -0.008133
v 0.033564 0.309708 -0.014544
v 0.041961 0.300394 -0.017380
v 0.033564 0.291081 -0.014544
v 0.008135 0.303154 -0.019637
v 0.013224 0.312468 -0.034885
v 0.017381 0.303154 -0.041960
v 0.013224 0.293840 -0.034885
v -0.008133 0.305914 -0.019638
v -0.015542 0.315228 -0.034886
v -0.017380 0.305914 -0.041961
v -0.015542 0.296600 -0.034886
v -0.019637 0.308674 -0.008135
v -0.035884 0.317987 -0.014546
v -0.041960 0.308674 -0.017381
v -0.035884 0.299360 -0.014546
v -0.019638 0.311433 0.008133
v -0.035884 0.320747 0.014221
v -0.041961 0.311433 0.017380
v -0.035884 0.302119 0.014221
v -0.008135 0.314193 0.019637
v -0.015544 0.323507 0.034562
v -0.017381 0.314193 0.041960
v -0.015544 0.304879 0.034562
v 0.008133 0.316952 0.019638
v 0.013222 0.326266 0.034563
v 0.017380 0.316952 0.041961
v 0.013222 0.307639 0.034563
v 0.019637 0.319712 0.008135
v 0.033564 0.329026 0.014222
v 0.041960 0.319712 0.017381
v 0.033564 0.310398 0.014222
v 0.019638 0.322472 -0.008133
v 0.033564 0.331786 -0.014544
v 0.041961 0.322472 -0.017380
v 0.033564 0.313158 -0.014544
v 0.008135 0.325231 -0.019637
v 0.013224 0.334545 -0.034885
v 0.017381 0.325231 -0.041960
v 0.013224 0.315918 -0.034885
v -0.008133 0.327991 -0.019638
v -0.015542 0.337305 -0.034886
v -0.017380 0.327991 -0.041961
v -0.015542 0.318677 -0.034886
v -0.019637 0.330751 -0.008135
v -0.035884 0.340065 -0.014546
v -0.041960 0.330751 -0.017381
v -0.035884 0.321437 -0.014546
v -0.019638 0.333511 0.008133
v -0.035884 0.342824 0.014221
v -0.041961 0.333511 0.017380
v -0.035884 0.324197 0.014221
v -0.008135 0.336270 0.019637
v -0.015544 0.345584 0.034562
v -0.017381 0.336270 0.041960
v -0.015544 0.326956 0.034562
v 0.013148 0.345115 0.018155
v 0.016577 0.352595 0.035891
v 0.023511 0.342499 0.039716
v 0.022434 0.335019 0.029031
v 0.002489 0.408365 -0.004314
v 0.000548 0.415084 0.011506
v 0.004639 0.426285 0.001920
v 0.005169 0.419566 -0.014528
v 0.016047 0.347875 0.017610
v 0.026154 0.358778 0.012442
v 0.044038 0.364111 0.022459
v 0.030494 0.356745 0.030361
v 0.048578 0.353461 0.015260
v 0.039122 0.347019 0.025618
v 0.037980 0.347980 0.008644
v 0.029454 0.339778 0.020337
v 0.033713 0.369863 0.003996
v 0.052170 0.373821 0.014307
v 0.057674 0.367821 0.001735
v 0.048421 0.363845 -0.008116
v 0.036054 0.380014 -0.001499
v 0.032696 0.391021 -0.006956
v 0.048134 0.392739 0.006988
v 0.054088 0.381905 0.010165
v 0.056735 0.393145 -0.005080
v 0.060153 0.381705 -0.003781
v 0.050232 0.391568 -0.019670
v 0.052214 0.379779 -0.016597
v 0.027927 0.395417 -0.008261
v 0.035828 0.401248 0.006343
v 0.043823 0.408403 -0.003078
v 0.042742 0.402506 -0.019824
v -0.001867 0.170026 0.025341
v -0.009905 0.170026 0.037093
v -0.001603 0.170026 0.040751
v 0.006486 0.170026 0.037093
v 0.007586 0.220929 0.054729
v 0.007586 0.349449 0.054729
v 0.032331 0.220929 0.071263
v 0.032331 0.349449 0.071263
v 0.038137 0.220929 0.100451
v 0.038137 0.349449 0.100451
v 0.021603 0.220929 0.125196
v 0.021603 0.349449 0.125196
v -0.007586 0.220929 0.131002
v -0.007586 0.349449 0.131002
v -0.032331 0.220929 0.114468
v -0.032331 0.349449 0.114468
v -0.038137 0.220929 0.085280
v -0.038137 0.349449 0.085280
v -0.021603 0.220929 0.060535
v -0.021603 0.349449 0.060535
v 0.007586 0.369446 0.054729
v 0.032331 0.369446 0.071263
v 0.038137 0.369446 0.100451
v 0.021603 0.369446 0.125196
v -0.007586 0.369446 0.131002
v -0.032331 0.369446 0.114468
v -0.038137 0.369446 0.085280
v -0.021603 0.369446 0.060535
v 0.005692 0.381355 0.064249
v 0.024260 0.381355 0.076655
v 0.028617 0.381355 0.098558
v 0.016210 0.381355 0.117126
v -0.005692 0.381355 0.121482
v -0.024260 0.381355 0.109076
v -0.028617 0.381355 0.087173
v -0.016210 0.381355 0.068605
v 0.009285 0.354919 0.046185
v 0.039574 0.354919 0.066423
v 0.046680 0.354919 0.102151
v 0.026442 0.354919 0.132439
v -0.009285 0.354919 0.139546
v -0.039574 0.354919 0.119308
v -0.046680 0.354919 0.083580
v -0.026442 0.354919 0.053292
v 0.009285 0.363976 0.046185
v 0.039574 0.363976 0.066423
v 0.046680 0.363976 0.102151
v 0.026442 0.363976 0.132439
v -0.009285 0.363976 0.139546
v -0.039574 0.363976 0.119308
v -0.046680 0.363976 0.083580
v -0.026442 0.363976 0.053292
v 0.007586 0.381355 0.054729
v 0.032331 0.381355 0.071263
v 0.038137 0.381355 0.100451
v 0.021603 0.381355 0.125196
v -0.007586 0.381355 0.131002
v -0.032331 0.381355 0.114468
v -0.038137 0.381355 0.085280
v -0.021603 0.381355 0.060535
v 0.005692 0.353183 0.064249
v 0.024260 0.353183 0.076655
v 0.028617 0.353183 0.098558
v 0.016210 0.353183 0.117126
v -0.005692 0.353183 0.121482
v -0.024260 0.353183 0.109076
v -0.028617 0.353183 0.087173
v -0.016210 0.353183 0.068605
v 0.017012 0.220929 -0.127831
v 0.007586 0.349449 -0.131002
v 0.036753 0.220929 -0.105561
v 0.032331 0.349449 -0.114468
v 0.034965 0.220929 -0.075854
v 0.038137 0.349449 -0.085280
v 0.012695 0.220929 -0.056112
v 0.021603 0.349449 -0.060535
v -0.017012 0.220929 -0.057900
v -0.007586 0.349449 -0.054729
v -0.036753 0.220929 -0.080170
v -0.032331 0.349449 -0.071263
v -0.034965 0.220929 -0.109877
v -0.038137 0.349449 -0.100451
v -0.012695 0.220929 -0.129619
v -0.021603 0.349449 -0.125196
v 0.007586 0.369446 -0.131002
v 0.032331 0.369446 -0.114468
v 0.038137 0.369446 -0.085280
v 0.021603 0.369446 -0.060535
v -0.007586 0.369446 -0.054729
v -0.032331 0.369446 -0.071263
v -0.038137 0.369446 -0.100451
v -0.021603 0.369446 -0.125196
v 0.005692 0.381355 -0.121482
v 0.024260 0.381355 -0.109076
v 0.028617 0.381355 -0.087173
v 0.016210 0.381355 -0.068605
v -0.005692 0.381355 -0.064249
v -0.024260 0.381355 -0.076655
v -0.028617 0.381355 -0.098558
v -0.016210 0.381355 -0.117126
v 0.009285 0.354919 -0.139546
v 0.039574 0.354919 -0.119308
v 0.046680 0.354919 -0.083580
v 0.026442 0.354919 -0.053292
v -0.009285 0.354919 -0.046185
v -0.039574 0.354919 -0.066423
v -0.046680 0.354919 -0.102151
v -0.026442 0.354919 -0.132439
v 0.009285 0.363976 -0.139546
v 0.039574 0.363976 -0.119308
v 0.046680 0.363976 -0.083580
v 0.026442 0.363976 -0.053292
v -0.009285 0.363976 -0.046185
v -0.039574 0.363976 -0.066423
v -0.046680 0.363976 -0.102151
v -0.026442 0.363976 -0.132439
v 0.007586 0.381355 -0.131002
v 0.032331 0.381355 -0.114468
v 0.038137 0.381355 -0.085280
v 0.021603 0.381355 -0.060535
v -0.007586 0.381355 -0.054729
v -0.032331 0.381355 -0.071263
v -0.038137 0.381355 -0.100451
v -0.021603 0.381355 -0.125196
v 0.005692 0.353183 -0.121482
v 0.024260 0.353183 -0.109076
v 0.028617 0.353183 -0.087173
v 0.016210 0.353183 -0.068605
v -0.005692 0.353183 -0.064249
v -0.024260 0.353183 -0.076655
v -0.028617 0.353183 -0.098558
v -0.016210 0.353183 -0.117126
v 0.007741 0.170721 0.014830
v 0.007741 0.170721 -0.014830
v -0.007741 0.170721 0.014830
v -0.007741 0.170721 -0.014830
v -0.007741 0.463351 0.009953
v -0.007741 0.463351 -0.009953
v 0.007741 0.463351 -0.009953
v 0.007741 0.463351 0.009953
v 0.007741 0.420925 0.115627
v 0.007741 0.397988 0.093636
v 0.007741 0.411564 0.113953
v 0.007741 0.404429 0.109186
v -0.007741 0.397988 0.093636
v -0.007741 0.420925 0.115627
v -0.007741 0.404429 0.109186
v -0.007741 0.411564 0.113953
v 0.007741 0.443862 0.093636
v 0.007741 0.437421 0.109186
v 0.007741 0.430286 0.113953
v -0.007741 0.443862 0.093636
v -0.007741 0.430286 0.113953
v -0.007741 0.437421 0.109186
v -0.007741 0.374915 0.014853
v -0.007741 0.397988 0.037944
v -0.007741 0.390674 0.022179
v -0.007741 0.397988 -0.037944
v -0.007741 0.374915 -0.014853
v -0.007741 0.390674 -0.022179
v 0.007741 0.397988 0.037944
v 0.007741 0.374915 0.014853
v 0.007741 0.390674 0.022179
v 0.007741 0.374915 -0.014853
v 0.007741 0.397988 -0.037944
v 0.007741 0.390674 -0.022179
v -0.007741 0.447130 -0.103320
v -0.007741 0.443500 -0.120691
v 0.007741 0.447130 -0.103320
v 0.007741 0.443500 -0.120691
v -0.012645 0.415818 0.085992
v 0.012644 0.415818 0.085992
v -0.012645 0.411909 0.091842
v 0.012644 0.411909 0.091842
v -0.012645 0.413282 0.098743
v 0.012644 0.413282 0.098743
v -0.012645 0.419132 0.102652
v 0.012644 0.419132 0.102652
v -0.012645 0.426033 0.101279
v 0.012644 0.426033 0.101279
v -0.012645 0.429942 0.095429
v 0.012644 0.429942 0.095429
v -0.012645 0.428569 0.088528
v 0.012644 0.428569 0.088528
v -0.012645 0.422719 0.084619
v 0.012644 0.422719 0.084619
v -0.012645 0.412494 0.081017
v 0.012644 0.412494 0.081017
v -0.012645 0.406040 0.090675
v 0.012644 0.406040 0.090675
v -0.012645 0.408307 0.102067
v 0.012644 0.408307 0.102067
v -0.012645 0.417964 0.108520
v 0.012644 0.417964 0.108520
v -0.012645 0.429357 0.106254
v 0.012644 0.429357 0.106254
v -0.012645 0.435810 0.096596
v 0.012644 0.435810 0.096596
v -0.012645 0.433544 0.085204
v 0.012644 0.433544 0.085204
v -0.012645 0.423886 0.078751
v 0.012644 0.423886 0.078751
v -0.016342 0.417512 0.088528
v 0.016341 0.417512 0.088528
v -0.016342 0.414900 0.092437
v 0.016341 0.414900 0.092437
v -0.016342 0.415818 0.097049
v 0.016341 0.415818 0.097049
v -0.016342 0.419727 0.099661
v 0.016341 0.419727 0.099661
v -0.016342 0.424338 0.098743
v 0.016341 0.424338 0.098743
v -0.016342 0.426950 0.094834
v 0.016341 0.426950 0.094834
v -0.016342 0.426033 0.090223
v 0.016341 0.426033 0.090223
v -0.016342 0.422124 0.087611
v 0.016341 0.422124 0.087611
v 0.007741 0.346847 -0.109259
v -0.007741 0.346847 -0.109259
v -0.007741 0.346847 -0.076472
v 0.007741 0.346847 -0.076472
v -0.007741 0.396362 -0.120691
v -0.007741 0.390165 -0.110608
v 0.007741 0.396362 -0.120691
v 0.007741 0.390165 -0.110608
v -0.007741 0.395835 -0.066349
v -0.007741 0.390095 -0.075116
v 0.007741 0.395835 -0.066349
v 0.007741 0.390095 -0.075116
v -0.004671 0.348950 0.106644
v -0.004671 0.404263 0.106644
v -0.004671 0.348950 0.079727
v -0.004671 0.404263 0.079727
v 0.004671 0.348950 0.106644
v 0.004671 0.404263 0.106644
v 0.004671 0.348950 0.079727
v 0.004671 0.404263 0.079727
v -0.007586 0.220929 0.131002
v 0.007586 0.139562 0.029041
v 0.032331 0.126264 0.038866
v 0.038137 0.102788 0.056212
v 0.021603 0.082887 0.070917
v -0.007586 0.078217 0.074367
v -0.032331 0.091515 0.064542
v -0.038137 0.114990 0.047196
v -0.021603 0.134892 0.032491
v 0.007586 0.139562 -0.029041
v 0.032331 0.126264 -0.038866
v 0.038137 0.102788 -0.056212
v 0.021603 0.082887 -0.070917
v -0.007586 0.078217 -0.074367
v -0.032331 0.091515 -0.064542
v -0.038137 0.114990 -0.047196
v -0.021603 0.134892 -0.032491
v 0.007242 0.132490 0.000000
v 0.031987 0.115957 0.000000
v -0.038480 0.101941 0.000000
v -0.021946 0.126684 0.000000
v -0.029741 0.076707 0.025936
v -0.003884 0.067743 0.047293
v 0.024139 0.074269 0.036393
v 0.037767 0.086731 0.000000
v -0.029741 0.076707 -0.025936
v 0.024139 0.074269 -0.036393
v -0.003884 0.067743 -0.047293
v -0.036437 0.050051 -0.000000
v -0.002846 0.050051 -0.036831
v 0.037810 0.050051 -0.000000
v -0.028975 0.050051 0.021811
v 0.024871 0.050051 -0.027708
v -0.028975 0.050051 -0.021811
v -0.002846 0.050051 0.036831
v 0.024871 0.050051 0.027708
v 0.007741 0.150566 0.014830
v 0.007741 0.150566 -0.014830
v -0.007741 0.150566 0.014830
v -0.007741 0.150566 -0.014830
v 0.007741 0.170721 0.069005
v -0.007741 0.170721 0.069005
v 0.007741 0.170721 -0.069005
v -0.007741 0.170721 -0.069005
v 0.007741 0.150566 0.069005
v -0.007741 0.150566 0.069005
v 0.007741 0.150566 -0.069005
v -0.007741 0.150566 -0.069005
v 0.000000 0.011901 -0.030953
v 0.021887 0.011901 -0.021887
v 0.030953 0.011901 0.000000
v 0.021887 0.011901 0.021887
v 0.000000 0.011901 0.030953
v -0.021887 0.011901 0.021887
v -0.030953 0.011901 0.000000
v -0.021887 0.011901 -0.021887
v -0.007741 0.411231 -0.320486
v 0.007741 0.411231 -0.320486
v -0.007741 0.387098 -0.320486
v 0.007741 0.387098 -0.320486
v 0.007586 0.148933 0.037990
v 0.007586 0.182334 0.052765
v 0.032331 0.144358 0.054707
v 0.032331 0.178285 0.068887
v 0.038137 0.171113 0.097322
v 0.038137 0.136960 0.083817
v 0.021603 0.165035 0.121407
v 0.021603 0.130781 0.108171
v -0.007586 0.163611 0.127056
v -0.007586 0.129329 0.113857
v -0.032331 0.133460 0.097639
v -0.032331 0.167669 0.110967
v -0.038137 0.140765 0.068750
v -0.038137 0.174842 0.082546
v -0.021603 0.147256 0.043876
v -0.021603 0.180914 0.058428
v 0.009262 0.182268 -0.053215
v 0.007586 0.148933 -0.037990
v 0.032331 0.144358 -0.054707
v 0.033135 0.178152 -0.070282
v 0.038137 0.136960 -0.083817
v 0.037758 0.171002 -0.098712
v 0.021603 0.130781 -0.108171
v 0.020446 0.164992 -0.122068
v -0.008854 0.163643 -0.126715
v -0.007586 0.129329 -0.113857
v -0.032331 0.133460 -0.097639
v -0.033024 0.167758 -0.109765
v -0.038137 0.140765 -0.068750
v -0.037732 0.174945 -0.081057
v -0.020124 0.180960 -0.057582
v -0.021603 0.147256 -0.043876
v 0.000000 -0.009027 -0.065886
v 0.046588 -0.009027 -0.046588
v -0.046588 -0.009027 0.046588
v -0.065886 -0.009027 0.000000
v -0.046588 -0.009027 -0.046588
v 0.065886 -0.009027 0.000000
v 0.046588 -0.009027 0.046588
v 0.000000 -0.009027 0.065886
v 0.000000 0.122534 0.000000
v 0.007741 0.331126 0.014848
v -0.007741 0.331126 -0.014848
v -0.007741 0.331126 0.014848
v 0.007741 0.331126 -0.014848
v 0.048753 0.001807 0.000000
v 0.034474 0.001807 0.034474
v 0.000000 0.001807 -0.048753
v 0.034474 0.001807 -0.034474
v -0.048753 0.001807 0.000000
v -0.034474 0.001807 -0.034474
v -0.034474 0.001807 0.034474
v 0.000000 0.001807 0.048753
vn 0.9093 0.0254 0.4155
vn 0.9274 0.0028 -0.3741
vn 0.2894 0.9567 -0.0326
vn 0.1835 0.9579 0.2209
vn 0.3996 0.0056 -0.9167
vn 0.1858 0.9475 -0.2602
vn -0.3665 0.0052 -0.9304
vn -0.0686 0.9344 -0.3495
vn -0.9218 0.0016 -0.3876
vn -0.3124 0.9254 -0.2144
vn -0.9198 -0.0031 0.3924
vn -0.3710 0.9270 0.0547
vn -0.3649 -0.0058 0.9310
vn -0.2189 0.9379 0.2690
vn 0.3975 -0.0049 0.9176
vn 0.0222 0.9506 0.3097
vn 0.9256 -0.0014 0.3785
vn 0.2175 0.9578 0.1880
vn -0.3285 -0.1048 0.9387
vn -0.2736 0.9066 0.3213
vn 0.4013 -0.2101 0.8915
vn -0.1140 0.8838 0.4537
vn 0.4402 -0.8713 0.2168
vn 0.2577 -0.9630 0.0788
vn 0.4140 0.1279 0.9013
vn 0.2207 -0.9561 -0.1927
vn 0.0257 -0.9464 -0.3218
vn -0.2222 -0.9334 -0.2816
vn -0.3747 -0.9251 -0.0610
vn -0.3096 -0.9276 0.2090
vn -0.0643 -0.9390 0.3377
vn 0.1832 -0.9515 0.2472
vn 0.2853 -0.9580 0.0271
vn -0.0074 -0.9504 0.3109
vn 0.3188 -0.9477 0.0109
vn -0.6276 0.0999 -0.7721
vn -0.9621 -0.0371 -0.2703
vn -0.9281 0.0039 0.3724
vn -0.4015 0.0076 0.9158
vn 0.3664 0.0068 0.9304
vn 0.9219 0.0020 0.3873
vn 0.9200 -0.0040 -0.3920
vn 0.3642 -0.0076 -0.9313
vn -0.3996 -0.0067 -0.9167
vn -0.9260 -0.0019 -0.3776
vn 0.3229 -0.0205 -0.9462
vn -0.2764 0.0321 -0.9605
vn -0.0000 -0.5016 -0.8651
vn -0.0000 -0.0311 -0.9995
vn -0.4021 0.7918 0.4598
vn -0.7244 0.6302 0.2795
vn -0.4724 0.1578 -0.8671
vn 0.7217 -0.4681 0.5100
vn 0.8134 -0.5341 0.2306
vn 0.2594 0.4908 0.8317
vn 0.0531 0.7409 0.6695
vn 0.0230 -0.0902 0.9957
vn 0.0833 -0.1093 0.9905
vn -0.4254 -0.8930 -0.1467
vn -0.5344 -0.8091 -0.2444
vn -0.9434 0.3014 -0.1384
vn -0.9984 -0.0420 0.0370
vn 0.2493 -0.3298 -0.9105
vn 0.0820 -0.5918 -0.8019
vn 0.9239 -0.3824 -0.0170
vn 0.3860 0.3682 0.8458
vn 0.9970 0.0305 -0.0708
vn 0.3984 0.3536 0.8463
vn 0.2339 -0.8798 -0.4139
vn -0.6102 0.2775 -0.7421
vn 0.0836 -0.7614 -0.6429
vn 0.5849 0.7895 0.1857
vn 0.4196 0.8476 0.3247
vn 0.1348 0.2974 0.9452
vn -0.7930 -0.6006 -0.1016
vn 0.8823 0.4697 0.0297
vn -0.8300 0.4104 -0.3776
vn 0.2061 0.3081 -0.9287
vn 0.0516 0.4163 -0.9078
vn 0.3178 0.0211 -0.9479
vn -0.0329 0.0943 0.9950
vn 0.6594 -0.7063 0.2576
vn 0.8315 -0.0000 -0.5556
vn 0.9808 -0.0000 0.1951
vn 0.9792 -0.0072 0.2027
vn 0.8340 0.0150 -0.5515
vn 0.5556 -0.0000 0.8315
vn 0.5510 -0.0280 0.8341
vn -0.1951 -0.0000 0.9808
vn -0.8315 -0.0000 0.5556
vn -0.8272 -0.0188 0.5616
vn -0.9808 -0.0000 -0.1951
vn -0.9821 0.0048 -0.1885
vn -0.5556 -0.0000 -0.8315
vn -0.5576 0.0222 -0.8298
vn 0.1951 -0.0000 -0.9808
vn 0.1958 0.0259 -0.9803
vn 0.2955 0.8469 0.4422
vn 0.5216 0.8469 0.1038
vn 0.2955 -0.8469 0.4422
vn -0.1038 -0.8469 0.5216
vn 0.4422 -0.8469 -0.2955
vn 0.5216 -0.8469 0.1038
vn 0.1038 -0.8469 -0.5216
vn -0.0000 1.0000 -0.0000
vn -0.2955 -0.8469 -0.4422
vn -0.4422 -0.8469 0.2955
vn -0.5216 -0.8469 -0.1038
vn 0.4422 0.8469 -0.2955
vn -0.5216 0.8469 -0.1038
vn -0.4422 0.8469 0.2955
vn -0.2955 0.8469 -0.4422
vn -0.1038 0.8469 0.5216
vn 0.1038 0.8469 -0.5216
vn 0.3011 -0.0000 -0.9536
vn 0.8872 -0.0000 -0.4613
vn 0.9287 -0.0108 -0.3708
vn 0.3982 -0.0303 -0.9168
vn 0.9536 -0.0000 0.3011
vn 0.9185 0.0119 0.3952
vn 0.4613 -0.0000 0.8872
vn 0.3675 0.0244 0.9297
vn -0.3011 -0.0000 0.9536
vn -0.4010 0.0226 0.9158
vn -0.8872 -0.0000 0.4613
vn -0.9334 0.0067 0.3587
vn -0.9536 -0.0000 -0.3011
vn -0.9124 -0.0169 -0.4090
vn -0.4613 -0.0000 -0.8872
vn -0.3596 -0.0330 -0.9325
vn -0.0000 -0.0001 -1.0000
vn -0.0000 -0.2159 -0.9764
vn -0.0000 -0.9765 0.2155
vn -0.0000 -0.9808 0.1951
vn -0.0000 -0.0001 1.0000
vn -0.0000 -0.2159 0.9764
vn -0.0000 0.9963 -0.0859
vn -0.0000 0.9935 0.1142
vn -0.0000 0.9521 0.3058
vn -0.0000 0.9822 -0.1879
vn -0.0000 -0.9840 -0.1784
vn -0.0000 -0.9468 0.3219
vn -0.0000 -0.0000 1.0000
vn -0.0000 -0.3737 0.9275
vn -0.0000 -0.7730 0.6344
vn -0.0000 0.7730 0.6344
vn -0.0000 0.3737 0.9275
vn -0.0000 -0.7074 -0.7068
vn -0.0000 -0.7074 0.7068
vn -0.0000 -0.9683 -0.2497
vn -0.0000 0.9833 -0.1820
vn 1.0000 -0.0000 -0.0000
vn -0.0000 -0.9808 -0.1951
vn -0.0000 -0.8315 0.5556
vn -0.0000 -0.1951 0.9808
vn -0.0000 0.5556 0.8315
vn -0.0000 0.9808 0.1951
vn -0.0000 0.8315 -0.5556
vn -0.0000 0.1951 -0.9808
vn -1.0000 -0.0000 -0.0000
vn 0.8629 0.4956 0.0986
vn 0.8629 0.4202 -0.2808
vn 0.6364 0.6414 -0.4285
vn 0.6364 0.7565 0.1505
vn -0.0000 -0.5556 -0.8315
vn -0.8629 0.4956 0.0986
vn -0.8629 0.2808 0.4202
vn -0.6364 0.4285 0.6414
vn -0.6364 0.7565 0.1505
vn 0.6364 -0.4285 -0.6414
vn 0.6364 0.1505 -0.7565
vn 0.8629 0.0986 -0.4956
vn 0.8629 -0.2808 -0.4202
vn -0.6364 0.1505 -0.7565
vn -0.6364 -0.4285 -0.6414
vn -0.8629 -0.2808 -0.4202
vn -0.8629 0.0986 -0.4956
vn -0.8629 0.4202 -0.2808
vn -0.6364 0.6414 -0.4285
vn -0.8629 -0.0986 0.4956
vn -0.6364 -0.1505 0.7565
vn 0.8629 -0.4202 0.2808
vn 0.8629 -0.0986 0.4956
vn 0.6364 -0.1505 0.7565
vn 0.6364 -0.6414 0.4285
vn -0.8629 -0.4202 0.2808
vn -0.6364 -0.6414 0.4285
vn -0.6364 -0.7565 -0.1505
vn -0.8629 -0.4956 -0.0986
vn 0.8629 0.2808 0.4202
vn 0.6364 0.4285 0.6414
vn 0.8629 -0.4956 -0.0986
vn 0.6364 -0.7565 -0.1505
vn -0.0000 -0.4892 0.8722
vn -0.0000 -0.0313 0.9995
vn -0.0000 -0.0000 -1.0000
vn -0.5735 0.4478 -0.6860
vn 0.2026 0.5442 -0.8141
vn 0.2099 0.8432 -0.4950
vn -0.5880 0.6957 -0.4126
vn 0.5361 -0.4139 0.7357
vn -0.1871 -0.4764 0.8591
vn -0.1760 -0.8029 0.5695
vn 0.5359 -0.6886 0.4885
vn -0.9877 0.0765 -0.1364
vn -0.9938 0.0930 -0.0613
vn 0.8492 0.2793 -0.4482
vn 0.9721 -0.1239 0.1992
vn 0.9666 -0.2113 0.1450
vn 0.8642 0.4258 -0.2681
vn -0.8117 -0.2933 0.5051
vn -0.7954 -0.4987 0.3445
vn 0.8537 0.1178 -0.5073
vn 0.2068 0.2232 -0.9526
vn -0.5815 0.1847 -0.7923
vn -0.9881 0.0359 -0.1499
vn -0.1909 -0.0665 0.9794
vn -0.8161 -0.1248 0.5643
vn -0.1895 -0.2135 0.9584
vn 0.5415 -0.1825 0.8206
vn 0.9731 -0.0487 0.2250
vn 0.2066 0.5446 0.8128
vn 0.2099 0.8432 0.4950
vn 0.8642 0.4258 0.2681
vn 0.8516 0.2780 0.4444
vn 0.2016 0.9795 -0.0000
vn -0.5799 0.8147 -0.0000
vn -0.9938 0.1116 -0.0000
vn -0.9879 -0.1549 -0.0000
vn -0.8917 -0.3102 0.3297
vn -0.1516 -0.7639 0.6272
vn 0.7343 -0.5120 0.4458
vn 0.9986 -0.0530 -0.0000
vn 0.8582 0.5134 -0.0000
vn -0.5384 0.1906 0.8208
vn 0.2585 0.2210 0.9404
vn 0.5325 -0.4139 -0.7384
vn 0.5359 -0.6886 -0.4885
vn -0.1760 -0.8029 -0.5695
vn -0.1914 -0.4753 -0.8588
vn -0.9869 0.0799 0.1403
vn -0.9938 0.0930 0.0613
vn -0.5880 0.6957 0.4126
vn -0.5698 0.4503 0.6874
vn 0.9666 -0.2113 -0.1450
vn 0.9710 -0.1250 -0.2038
vn -0.7954 -0.4987 -0.3445
vn -0.8146 -0.2909 -0.5018
vn 0.8787 0.1104 0.4645
vn 0.9611 -0.0553 -0.2704
vn 0.5024 -0.1856 -0.8445
vn -0.2342 -0.2120 -0.9488
vn -0.8421 -0.1191 -0.5261
vn -0.9794 0.0441 0.1971
vn -0.8917 -0.3102 -0.3297
vn 0.7343 -0.5120 -0.4458
vn -0.1516 -0.7639 -0.6272
vn 0.7159 -0.0921 -0.6921
vn -0.1043 -0.1774 -0.9786
vn 0.9999 -0.0105 -0.0000
vn 0.8886 0.4587 -0.0000
vn 0.6224 0.4590 -0.6340
vn 0.7159 -0.0921 0.6921
vn 0.6224 0.4590 0.6340
vn -0.1043 -0.1774 0.9786
vn -0.0157 0.4645 0.8854
vn -0.8017 -0.0604 0.5947
vn -0.6329 0.4616 0.6216
vn -1.0000 -0.0017 -0.0000
vn -0.8909 0.4542 -0.0000
vn -0.8017 -0.0604 -0.5947
vn -0.0157 0.4645 -0.8854
vn -0.6329 0.4616 -0.6216
vn -0.0000 -1.0000 -0.0000
vn 0.5913 0.8064 -0.0000
vn 0.4181 0.8064 0.4181
vn 0.3779 0.8452 0.3779
vn 0.5345 0.8452 -0.0000
vn -0.0000 0.8064 -0.5913
vn 0.4181 0.8064 -0.4181
vn 0.3779 0.8452 -0.3779
vn -0.0000 0.8452 -0.5345
vn -0.5913 0.8064 -0.0000
vn -0.4181 0.8064 -0.4181
vn -0.3779 0.8452 -0.3779
vn -0.5345 0.8452 -0.0000
vn -0.4181 0.8064 0.4181
vn -0.3779 0.8452 0.3779
vn -0.0000 0.8064 0.5913
vn -0.0000 0.8452 0.5345
vn -0.0000 -0.9989 0.0463
vn -0.0000 0.9872 -0.1594
vn -0.5346 -0.6546 -0.5346
vn -0.0000 -0.6546 -0.7560
vn -0.5346 -0.6546 0.5346
vn -0.0000 -0.6546 0.7560
vn -0.0000 -0.8578 0.5139
vn -0.3634 -0.8578 0.3634
vn 0.7560 -0.6546 -0.0000
vn 0.5346 -0.6546 -0.5346
vn 0.3634 -0.8578 -0.3634
vn 0.5139 -0.8578 -0.0000
vn 0.5346 -0.6546 0.5346
vn 0.3634 -0.8578 0.3634
vn -0.7560 -0.6546 -0.0000
vn -0.5139 -0.8578 -0.0000
vn -0.3634 -0.8578 -0.3634
vn -0.0000 -0.8578 -0.5139
vt 0.082811 0.053510
vt 0.082226 0.069706
vt 0.072817 0.070625
vt 0.072019 0.054183
vt 0.082399 0.085628
vt 0.073676 0.086758
vt 0.082515 0.100987
vt 0.074461 0.101987
vt 0.082254 0.115961
vt 0.074656 0.116585
vt 0.082087 0.130895
vt 0.074735 0.130973
vt 0.082241 0.146153
vt 0.073756 0.145796
vt 0.082214 0.161998
vt 0.072175 0.161718
vt 0.081316 0.178201
vt 0.071507 0.178349
vt 0.080256 0.194387
vt 0.070912 0.195091
vt 0.079964 0.210189
vt 0.071292 0.211215
vt 0.079838 0.225384
vt 0.071854 0.226322
vt 0.079422 0.240189
vt 0.071902 0.240770
vt 0.079133 0.254953
vt 0.071862 0.254999
vt 0.079171 0.270039
vt 0.070784 0.269653
vt 0.079033 0.285707
vt 0.069108 0.285393
vt 0.078034 0.301725
vt 0.068333 0.301837
vt 0.076876 0.317727
vt 0.067631 0.318391
vt 0.076481 0.333353
vt 0.067898 0.334337
vt 0.076253 0.348379
vt 0.068352 0.349278
vt 0.075742 0.363017
vt 0.068302 0.363566
vt 0.075357 0.377616
vt 0.068167 0.377637
vt 0.075293 0.392535
vt 0.067002 0.392124
vt 0.075051 0.408028
vt 0.065239 0.407683
vt 0.073955 0.423865
vt 0.064362 0.423941
vt 0.072703 0.439685
vt 0.063556 0.440309
vt 0.072207 0.455136
vt 0.063713 0.456078
vt 0.071881 0.469994
vt 0.064061 0.470856
vt 0.071277 0.484468
vt 0.063916 0.484984
vt 0.070798 0.498903
vt 0.063687 0.498898
vt 0.070634 0.513656
vt 0.062438 0.513220
vt 0.070290 0.528976
vt 0.060589 0.528600
vt 0.069100 0.544633
vt 0.059613 0.544675
vt 0.067755 0.560273
vt 0.058706 0.560857
vt 0.067161 0.575550
vt 0.058755 0.576452
vt 0.066738 0.590242
vt 0.058999 0.591066
vt 0.066043 0.604553
vt 0.058761 0.605037
vt 0.065473 0.618826
vt 0.058441 0.618796
vt 0.065211 0.633414
vt 0.057109 0.632954
vt 0.064768 0.648562
vt 0.055177 0.648156
vt 0.063486 0.664042
vt 0.054104 0.664049
vt 0.062050 0.679503
vt 0.053098 0.680048
vt 0.061360 0.694608
vt 0.053041 0.695470
vt 0.060843 0.709135
vt 0.053185 0.709923
vt 0.060060 0.723285
vt 0.052855 0.723737
vt 0.059400 0.737397
vt 0.052447 0.737342
vt 0.059044 0.751823
vt 0.051035 0.751339
vt 0.058507 0.766801
vt 0.049024 0.766366
vt 0.057139 0.782104
vt 0.047860 0.782081
vt 0.055628 0.797391
vt 0.046768 0.797904
vt 0.054871 0.812332
vt 0.046632 0.813167
vt 0.054322 0.826715
vt 0.046724 0.827492
vt 0.053585 0.840764
vt 0.046393 0.841241
vt 0.053120 0.854926
vt 0.046094 0.854969
vt 0.053860 0.869908
vt 0.044987 0.870155
vt 0.056823 0.891623
vt 0.045610 0.890666
vt 0.087094 0.034967
vt 0.091665 0.052402
vt 0.078239 0.032015
vt 0.092712 0.069555
vt 0.091313 0.085983
vt 0.090087 0.101155
vt 0.089908 0.115635
vt 0.089939 0.130113
vt 0.090592 0.145067
vt 0.091275 0.160996
vt 0.091104 0.177691
vt 0.090595 0.194514
vt 0.088753 0.210637
vt 0.087318 0.225600
vt 0.086990 0.239903
vt 0.086901 0.254211
vt 0.087436 0.268997
vt 0.088000 0.284749
vt 0.087716 0.301257
vt 0.087099 0.317890
vt 0.085169 0.333827
vt 0.083649 0.348619
vt 0.083228 0.362762
vt 0.083044 0.376910
vt 0.083474 0.391534
vt 0.083925 0.407113
vt 0.083533 0.423436
vt 0.082811 0.439882
vt 0.080795 0.455635
vt 0.079192 0.470258
vt 0.078681 0.484242
vt 0.078403 0.498232
vt 0.078730 0.512695
vt 0.079071 0.528102
vt 0.078575 0.544243
vt 0.077749 0.560504
vt 0.075650 0.576074
vt 0.073966 0.590529
vt 0.073367 0.604356
vt 0.072998 0.618190
vt 0.073224 0.632492
vt 0.073458 0.647730
vt 0.072858 0.663689
vt 0.071932 0.679766
vt 0.069751 0.695157
vt 0.067989 0.709444
vt 0.067303 0.723115
vt 0.066846 0.736794
vt 0.066974 0.750938
vt 0.067105 0.766007
vt 0.066409 0.781787
vt 0.065398 0.797680
vt 0.063169 0.812892
vt 0.061402 0.827020
vt 0.060785 0.840555
vt 0.060639 0.854150
vt 0.061988 0.868132
vt 0.068087 0.890426
vt 0.107222 0.033297
vt 0.114107 0.052033
vt 0.113566 0.069275
vt 0.111942 0.085500
vt 0.110555 0.100613
vt 0.110113 0.115286
vt 0.110273 0.130125
vt 0.110924 0.145485
vt 0.111553 0.161582
vt 0.111496 0.178084
vt 0.110695 0.194532
vt 0.108945 0.210328
vt 0.107468 0.225173
vt 0.106931 0.239643
vt 0.106990 0.254300
vt 0.107531 0.269484
vt 0.108045 0.285401
vt 0.107877 0.301717
vt 0.106975 0.317979
vt 0.105139 0.333593
vt 0.103577 0.348268
vt 0.102950 0.362575
vt 0.102909 0.377070
vt 0.103342 0.392087
vt 0.103743 0.407829
vt 0.103467 0.423963
vt 0.102466 0.440041
vt 0.100544 0.455475
vt 0.098902 0.469981
vt 0.098185 0.484127
vt 0.098047 0.498461
vt 0.098374 0.513312
vt 0.098665 0.528880
vt 0.098283 0.544834
vt 0.097185 0.560730
vt 0.095181 0.575985
vt 0.093459 0.590325
vt 0.092654 0.604311
vt 0.092422 0.618485
vt 0.092645 0.633172
vt 0.092828 0.648568
vt 0.092343 0.664344
vt 0.091150 0.680059
vt 0.089066 0.695138
vt 0.087266 0.709312
vt 0.086377 0.723139
vt 0.086052 0.737155
vt 0.086174 0.751679
vt 0.086251 0.766904
vt 0.085667 0.782500
vt 0.084385 0.798031
vt 0.082233 0.812926
vt 0.080379 0.826920
vt 0.079451 0.840547
vt 0.079189 0.854285
vt 0.079460 0.868285
vt 0.085760 0.887418
vt 0.312152 0.733991
vt 0.327139 0.733991
vt 0.327139 0.775942
vt 0.312152 0.775942
vt 0.053354 0.070315
vt 0.053855 0.054316
vt 0.053857 0.086254
vt 0.054415 0.101638
vt 0.054528 0.116587
vt 0.054210 0.131353
vt 0.053114 0.146381
vt 0.051777 0.162170
vt 0.051156 0.178406
vt 0.051038 0.194674
vt 0.051508 0.210608
vt 0.051966 0.225882
vt 0.051971 0.240687
vt 0.051551 0.255296
vt 0.050362 0.270156
vt 0.048931 0.285766
vt 0.048207 0.301821
vt 0.047980 0.317908
vt 0.048338 0.333666
vt 0.048688 0.348773
vt 0.048593 0.363413
vt 0.048080 0.377858
vt 0.046804 0.392549
vt 0.045284 0.407980
vt 0.044459 0.423854
vt 0.044127 0.439761
vt 0.044375 0.455346
vt 0.044619 0.470286
vt 0.044427 0.484763
vt 0.043822 0.499046
vt 0.042461 0.513569
vt 0.040854 0.528823
vt 0.039932 0.544518
vt 0.039496 0.560247
vt 0.039636 0.575659
vt 0.039777 0.590434
vt 0.039490 0.604749
vt 0.038795 0.618872
vt 0.037352 0.633228
vt 0.035660 0.648307
vt 0.034643 0.663824
vt 0.034106 0.679377
vt 0.034141 0.694618
vt 0.034181 0.709229
vt 0.033800 0.723385
vt 0.033018 0.737348
vt 0.031494 0.751541
vt 0.029720 0.766447
vt 0.028609 0.781792
vt 0.027974 0.797178
vt 0.027906 0.812268
vt 0.027849 0.826756
vt 0.027367 0.840833
vt 0.026418 0.854792
vt 0.024319 0.869118
vt 0.022018 0.890646
vt 0.068301 0.029827
vt 0.065221 0.006758
vt 0.052724 0.035957
vt 0.045526 0.015991
vt 0.062452 0.904581
vt 0.066001 0.914767
vt 0.052452 0.915916
vt 0.048080 0.902452
vt 0.051734 0.956830
vt 0.049187 0.993242
vt 0.027956 0.986424
vt 0.028340 0.957682
vt 0.101784 0.920417
vt 0.104025 0.932742
vt 0.080973 0.937282
vt 0.080694 0.926775
vt 0.069190 0.927903
vt 0.055326 0.927274
vt 0.069923 0.936061
vt 0.056636 0.934292
vt 0.072870 0.898217
vt 0.087619 0.890612
vt 0.077663 0.910119
vt 0.023426 0.894328
vt 0.067110 0.955123
vt 0.069395 0.992798
vt 0.054955 0.944012
vt 0.030191 0.951369
vt 0.031207 0.938316
vt 0.069136 0.942857
vt 0.095971 0.904772
vt 0.082403 0.951536
vt 0.093217 0.985980
vt 0.081169 0.943978
vt 0.105919 0.952590
vt 0.114107 0.981543
vt 0.104610 0.945807
vt 0.077146 0.012257
vt 0.029217 0.926642
vt 0.027027 0.910329
vt 0.085741 0.018745
vt 0.105234 0.014224
vt 0.867992 0.660195
vt 0.837975 0.662318
vt 0.829916 0.536077
vt 0.858423 0.531729
vt 0.807782 0.664143
vt 0.802660 0.539205
vt 0.777253 0.665409
vt 0.774740 0.543479
vt 0.743490 0.665272
vt 0.747488 0.538039
vt 0.712785 0.663991
vt 0.719670 0.534342
vt 0.682143 0.662306
vt 0.690377 0.530429
vt 0.651521 0.660468
vt 0.659631 0.527639
vt 0.810679 0.814225
vt 0.810090 0.785390
vt 0.821791 0.785764
vt 0.822001 0.814250
vt 0.802333 0.785159
vt 0.803182 0.756224
vt 0.812526 0.756355
vt 0.794457 0.784731
vt 0.793752 0.813728
vt 0.783531 0.813599
vt 0.785987 0.784474
vt 0.795000 0.723895
vt 0.794969 0.755824
vt 0.785387 0.755667
vt 0.784500 0.723935
vt 0.884601 0.775368
vt 0.883440 0.745751
vt 0.892574 0.745580
vt 0.894489 0.775223
vt 0.298575 0.908094
vt 0.313859 0.892809
vt 0.322540 0.896404
vt 0.302170 0.916774
vt 0.786842 0.903671
vt 0.795823 0.903884
vt 0.794838 0.939595
vt 0.783838 0.935101
vt 0.794144 0.843910
vt 0.784566 0.844010
vt 0.795166 0.873864
vt 0.785733 0.873995
vt 0.803723 0.724233
vt 0.814509 0.724573
vt 0.803304 0.873794
vt 0.802282 0.843886
vt 0.811374 0.843909
vt 0.812501 0.873730
vt 0.804044 0.904070
vt 0.813963 0.904002
vt 0.504866 0.861993
vt 0.507282 0.888372
vt 0.495579 0.892592
vt 0.476570 0.870963
vt 0.801763 0.813978
vt 0.816183 0.935296
vt 0.805200 0.939595
vt 0.463380 0.897597
vt 0.490149 0.904198
vt 0.816310 0.690210
vt 0.830098 0.691237
vt 0.827531 0.725694
vt 0.822868 0.843706
vt 0.825783 0.903363
vt 0.828523 0.934199
vt 0.823863 0.757185
vt 0.824112 0.873381
vt 0.794728 0.685376
vt 0.805958 0.685738
vt 0.782653 0.689658
vt 0.313859 0.871193
vt 0.322540 0.867598
vt 0.298575 0.855908
vt 0.302170 0.847228
vt 0.276959 0.855909
vt 0.273364 0.847228
vt 0.261674 0.871193
vt 0.252994 0.867598
vt 0.261674 0.892809
vt 0.252994 0.896404
vt 0.276959 0.908094
vt 0.273364 0.916774
vt 0.298575 0.908094
vt 0.302170 0.916774
vt 0.557162 0.889941
vt 0.557162 0.922499
vt 0.526318 0.917824
vt 0.527134 0.901400
vt 0.492312 0.920942
vt 0.520440 0.890692
vt 0.511311 0.936609
vt 0.533989 0.865935
vt 0.461810 0.928094
vt 0.547060 0.952720
vt 0.747194 0.343811
vt 0.716734 0.341803
vt 0.718395 0.214700
vt 0.745913 0.218659
vt 0.476023 0.958709
vt 0.898180 0.657968
vt 0.888561 0.527601
vt 0.686313 0.339165
vt 0.689720 0.209129
vt 0.655937 0.336142
vt 0.659743 0.203357
vt 0.898960 0.346190
vt 0.868465 0.346106
vt 0.858479 0.215200
vt 0.889487 0.214443
vt 0.838187 0.345993
vt 0.828677 0.217343
vt 0.807935 0.345737
vt 0.800238 0.219556
vt 0.777616 0.345090
vt 0.772902 0.220271
vt 0.865134 0.807305
vt 0.865898 0.839512
vt 0.853608 0.839374
vt 0.853196 0.807110
vt 0.866285 0.902018
vt 0.862832 0.934451
vt 0.850066 0.933082
vt 0.853487 0.901180
vt 0.883956 0.871207
vt 0.884305 0.840234
vt 0.893521 0.840512
vt 0.893770 0.871362
vt 0.884920 0.807816
vt 0.896098 0.807969
vt 0.884809 0.939503
vt 0.883865 0.902625
vt 0.894100 0.902562
vt 0.896273 0.935281
vt 0.882838 0.717679
vt 0.891404 0.717820
vt 0.883534 0.685376
vt 0.892786 0.689051
vt 0.204476 0.936451
vt 0.204476 0.914835
vt 0.213156 0.911239
vt 0.213156 0.940046
vt 0.413014 0.862363
vt 0.404485 0.894710
vt 0.389254 0.890916
vt 0.378002 0.861993
vt 0.352166 0.884078
vt 0.377562 0.898656
vt 0.867809 0.745860
vt 0.866909 0.775424
vt 0.854716 0.774903
vt 0.856527 0.745654
vt 0.866025 0.870692
vt 0.853934 0.870476
vt 0.866249 0.717697
vt 0.855433 0.718243
vt 0.852993 0.690243
vt 0.864198 0.689266
vt 0.876267 0.775234
vt 0.875591 0.745748
vt 0.876145 0.807455
vt 0.875275 0.717586
vt 0.874151 0.685376
vt 0.874105 0.939309
vt 0.875303 0.902378
vt 0.875503 0.870995
vt 0.875693 0.839869
vt 0.189191 0.899550
vt 0.192787 0.890870
vt 0.167576 0.899550
vt 0.163980 0.890870
vt 0.152291 0.914835
vt 0.143611 0.911239
vt 0.152291 0.936451
vt 0.143611 0.940046
vt 0.167576 0.951735
vt 0.163980 0.960416
vt 0.189191 0.951735
vt 0.192787 0.960416
vt 0.422002 0.956682
vt 0.386817 0.962120
vt 0.393292 0.931674
vt 0.406722 0.926645
vt 0.415193 0.910529
vt 0.380962 0.925268
vt 0.373798 0.912548
vt 0.441842 0.935558
vt 0.347106 0.915175
vt 0.441842 0.880861
vt 0.358248 0.944441
vt 0.292185 0.674962
vt 0.292185 0.717348
vt 0.277198 0.717348
vt 0.277198 0.674962
vt 0.292185 0.519698
vt 0.277198 0.519698
vt 0.277198 0.467259
vt 0.292185 0.467259
vt 0.198073 0.825025
vt 0.183086 0.825025
vt 0.183086 0.771118
vt 0.198073 0.771118
vt 0.277198 0.086951
vt 0.277198 0.044565
vt 0.292184 0.044565
vt 0.292184 0.086951
vt 0.327139 0.180804
vt 0.312152 0.180804
vt 0.312152 0.161536
vt 0.327139 0.161536
vt 0.312152 0.078368
vt 0.327139 0.078368
vt 0.327139 0.272533
vt 0.312152 0.272533
vt 0.233027 0.816914
vt 0.218040 0.816914
vt 0.218040 0.789340
vt 0.233027 0.789340
vt 0.183086 0.737315
vt 0.198073 0.737315
vt 0.198073 0.746520
vt 0.183086 0.746520
vt 0.198073 0.754826
vt 0.183086 0.754826
vt 0.312152 0.062076
vt 0.327139 0.062076
vt 0.312152 0.053770
vt 0.327139 0.053770
vt 0.312152 0.044565
vt 0.327139 0.044565
vt 0.233027 0.833736
vt 0.218040 0.833736
vt 0.233027 0.850558
vt 0.218040 0.850558
vt 0.198073 0.841847
vt 0.183086 0.841847
vt 0.198073 0.858669
vt 0.183086 0.858669
vt 0.312152 0.722536
vt 0.327139 0.722536
vt 0.327139 0.289710
vt 0.312152 0.289710
vt 0.436641 0.584241
vt 0.367822 0.583266
vt 0.437380 0.567436
vt 0.277473 0.737315
vt 0.277473 0.748558
vt 0.252994 0.748558
vt 0.252994 0.737315
vt 0.277473 0.759802
vt 0.252994 0.759802
vt 0.277473 0.771045
vt 0.252994 0.771045
vt 0.277473 0.782288
vt 0.252994 0.782288
vt 0.277473 0.793531
vt 0.252994 0.793531
vt 0.277473 0.804774
vt 0.252994 0.804774
vt 0.921860 0.696356
vt 0.921887 0.703527
vt 0.916240 0.705782
vt 0.916286 0.694022
vt 0.316414 0.801751
vt 0.309198 0.801537
vt 0.307018 0.795909
vt 0.318712 0.796159
vt 0.317216 0.812352
vt 0.317334 0.808607
vt 0.321475 0.806830
vt 0.321428 0.814211
vt 0.277473 0.816018
vt 0.252994 0.816018
vt 0.926789 0.691070
vt 0.924430 0.685529
vt 0.303828 0.806620
vt 0.298145 0.804154
vt 0.934034 0.690999
vt 0.936319 0.685376
vt 0.303774 0.813986
vt 0.298145 0.816321
vt 0.939408 0.695943
vt 0.944889 0.693516
vt 0.308815 0.819126
vt 0.306449 0.824612
vt 0.939441 0.703281
vt 0.945233 0.705410
vt 0.316038 0.819247
vt 0.318168 0.824980
vt 0.934453 0.708654
vt 0.936948 0.714394
vt 0.327139 0.816703
vt 0.927030 0.708696
vt 0.924617 0.714394
vt 0.327128 0.804465
vt 0.932614 0.704425
vt 0.935255 0.701646
vt 0.314685 0.805761
vt 0.310785 0.805855
vt 0.925939 0.697995
vt 0.926091 0.701898
vt 0.928873 0.704538
vt 0.935177 0.697792
vt 0.307909 0.812220
vt 0.310556 0.815075
vt 0.932436 0.695121
vt 0.928611 0.695228
vt 0.314457 0.814966
vt 0.308027 0.808473
vt 0.218040 0.779197
vt 0.233027 0.779197
vt 0.218040 0.737315
vt 0.233027 0.737315
vt 0.578013 0.906132
vt 0.631554 0.906132
vt 0.631554 0.932187
vt 0.578013 0.932187
vt 0.578013 0.861993
vt 0.631554 0.861993
vt 0.631554 0.871035
vt 0.578013 0.871035
vt 0.631554 0.897090
vt 0.578013 0.897090
vt 0.277473 0.827261
vt 0.252994 0.827261
vt 0.487981 0.538936
vt 0.477042 0.512356
vt 0.620627 0.453279
vt 0.631554 0.479828
vt 0.695634 0.447402
vt 0.663161 0.448197
vt 0.661276 0.434981
vt 0.693955 0.428389
vt 0.798935 0.464087
vt 0.776190 0.465265
vt 0.776739 0.416586
vt 0.800050 0.416864
vt 0.726722 0.454648
vt 0.725766 0.421623
vt 0.851047 0.451686
vt 0.823214 0.459078
vt 0.824710 0.420265
vt 0.853144 0.426926
vt 0.752902 0.461790
vt 0.752798 0.417451
vt 0.852360 0.489174
vt 0.883075 0.486806
vt 0.694747 0.488180
vt 0.725524 0.490248
vt 0.774737 0.543450
vt 0.752651 0.491841
vt 0.776045 0.492618
vt 0.798682 0.492341
vt 0.823874 0.491209
vt 0.666034 0.122631
vt 0.664781 0.109294
vt 0.695925 0.102987
vt 0.696824 0.127903
vt 0.881959 0.447869
vt 0.883826 0.434665
vt 0.651521 0.404754
vt 0.681008 0.393330
vt 0.705671 0.376015
vt 0.717894 0.366157
vt 0.743336 0.380010
vt 0.778605 0.389166
vt 0.811549 0.386277
vt 0.850258 0.368623
vt 0.872662 0.389168
vt 0.898348 0.406889
vt 0.852940 0.172595
vt 0.884960 0.173004
vt 0.748228 0.142901
vt 0.749696 0.095567
vt 0.773138 0.096533
vt 0.771055 0.145344
vt 0.821304 0.137381
vt 0.824027 0.104376
vt 0.855521 0.112843
vt 0.852948 0.131807
vt 0.724771 0.097706
vt 0.724258 0.136645
vt 0.797142 0.098705
vt 0.794702 0.143111
vt 0.695332 0.165881
vt 0.723127 0.168955
vt 0.747635 0.171271
vt 0.770535 0.172856
vt 0.794582 0.173170
vt 0.821895 0.172867
vt 0.887613 0.121002
vt 0.885074 0.133977
vt 0.664905 0.161869
vt 0.870291 0.078542
vt 0.898960 0.091507
vt 0.846597 0.059861
vt 0.808698 0.061695
vt 0.834938 0.049300
vt 0.739734 0.064230
vt 0.772745 0.068875
vt 0.678170 0.064126
vt 0.701697 0.044565
vt 0.651521 0.080698
vt 0.714673 0.790410
vt 0.720460 0.761455
vt 0.739572 0.765833
vt 0.737188 0.789636
vt 0.712487 0.819564
vt 0.673148 0.819564
vt 0.673144 0.785806
vt 0.714673 0.848719
vt 0.673144 0.853323
vt 0.720460 0.877673
vt 0.677626 0.886558
vt 0.727579 0.906630
vt 0.689554 0.916165
vt 0.733531 0.925956
vt 0.704965 0.938880
vt 0.727579 0.732498
vt 0.733531 0.713172
vt 0.762686 0.720583
vt 0.749406 0.739786
vt 0.677626 0.752570
vt 0.689554 0.722963
vt 0.704965 0.700248
vt 0.762686 0.918545
vt 0.749406 0.899342
vt 0.739572 0.873295
vt 0.737188 0.849492
vt 0.742696 0.819564
vt 0.292185 0.395311
vt 0.277198 0.395311
vt 0.277198 0.366602
vt 0.292185 0.366602
vt 0.277198 0.242215
vt 0.292184 0.242215
vt 0.292185 0.294654
vt 0.277198 0.294654
vt 0.224759 0.467259
vt 0.196050 0.467259
vt 0.196050 0.447750
vt 0.224759 0.447750
vt 0.143611 0.818464
vt 0.143611 0.789754
vt 0.163119 0.789754
vt 0.163119 0.818464
vt 0.292185 0.314163
vt 0.277198 0.314163
vt 0.277198 0.447750
vt 0.292185 0.447750
vt 0.163119 0.870903
vt 0.143611 0.870903
vt 0.143611 0.737315
vt 0.163119 0.737315
vt 0.143611 0.467259
vt 0.143611 0.447750
vt 0.662913 0.819564
vt 0.663829 0.854990
vt 0.653460 0.856847
vt 0.651521 0.819564
vt 0.669346 0.750317
vt 0.663829 0.784138
vt 0.653460 0.782282
vt 0.660129 0.747809
vt 0.700220 0.693210
vt 0.681358 0.719070
vt 0.672235 0.714736
vt 0.694939 0.685376
vt 0.681358 0.920059
vt 0.700220 0.945918
vt 0.694939 0.953752
vt 0.672235 0.924392
vt 0.669346 0.888812
vt 0.660129 0.891320
vt 0.449033 0.277717
vt 0.416739 0.225727
vt 0.457400 0.271985
vt 0.426386 0.675076
vt 0.468580 0.657710
vt 0.550477 0.833135
vt 0.528875 0.842025
vt 0.312152 0.528936
vt 0.327138 0.528936
vt 0.327138 0.485609
vt 0.312152 0.485609
vt 0.468580 0.228881
vt 0.426386 0.211515
vt 0.528875 0.044565
vt 0.550477 0.053456
vt 0.327139 0.505576
vt 0.312152 0.505576
vt 0.470412 0.646402
vt 0.416739 0.660864
vt 0.449033 0.608874
vt 0.360489 0.565448
vt 0.421039 0.527731
vt 0.347106 0.483364
vt 0.408684 0.516314
vt 0.347143 0.467072
vt 0.351773 0.460176
vt 0.359535 0.455229
vt 0.368531 0.453279
vt 0.388168 0.466464
vt 0.376674 0.454918
vt 0.457400 0.614606
vt 0.496611 0.599888
vt 0.508690 0.629236
vt 0.437844 0.528483
vt 0.448787 0.555072
vt 0.448787 0.331519
vt 0.487981 0.347655
vt 0.631554 0.406763
vt 0.620627 0.433312
vt 0.477042 0.374235
vt 0.437844 0.358108
vt 0.437380 0.319155
vt 0.421039 0.358860
vt 0.436641 0.302349
vt 0.367822 0.303325
vt 0.360489 0.321143
vt 0.408684 0.370277
vt 0.388168 0.420127
vt 0.347106 0.403227
vt 0.376673 0.431673
vt 0.368531 0.433312
vt 0.359535 0.431362
vt 0.351773 0.426414
vt 0.347143 0.419519
vt 0.470412 0.240189
vt 0.508690 0.257355
vt 0.496611 0.286703
vt 0.663331 0.486754
vt 0.606125 0.703087
vt 0.606157 0.717630
vt 0.588586 0.710398
vt 0.581275 0.692859
vt 0.571015 0.703165
vt 0.555836 0.696831
vt 0.575020 0.677646
vt 0.581354 0.727969
vt 0.595897 0.727936
vt 0.602150 0.743148
vt 0.575020 0.743147
vt 0.571047 0.717708
vt 0.555836 0.723962
vt 0.595818 0.692826
vt 0.602153 0.677646
vt 0.621337 0.696833
vt 0.621336 0.723964
s 1
usemtl SafetyValve
f 11/1/1 17/2/2 16/3/3 10/4/4
f 17/2/2 25/5/5 23/6/6 16/3/3
f 25/5/5 29/7/7 28/8/8 23/6/6
f 29/7/7 33/9/9 32/10/10 28/8/8
f 33/9/9 37/11/11 36/12/12 32/10/10
f 37/11/11 41/13/13 40/14/14 36/12/12
f 41/13/13 45/15/15 44/16/16 40/14/14
f 45/15/15 49/17/17 48/18/18 44/16/16
f 49/17/17 53/19/2 52/20/3 48/18/18
f 53/19/2 57/21/5 56/22/6 52/20/3
f 57/21/5 61/23/7 60/24/8 56/22/6
f 61/23/7 65/25/9 64/26/10 60/24/8
f 65/25/9 69/27/11 68/28/12 64/26/10
f 69/27/11 73/29/13 72/30/14 68/28/12
f 73/29/13 77/31/15 76/32/16 72/30/14
f 77/31/15 81/33/17 80/34/18 76/32/16
f 81/33/17 85/35/2 84/36/3 80/34/18
f 85/35/2 89/37/5 88/38/6 84/36/3
f 89/37/5 93/39/7 92/40/8 88/38/6
f 93/39/7 97/41/9 96/42/10 92/40/8
f 97/41/9 101/43/11 100/44/12 96/42/10
f 101/43/11 105/45/13 104/46/14 100/44/12
f 105/45/13 109/47/15 108/48/16 104/46/14
f 109/47/15 113/49/17 112/50/18 108/48/16
f 113/49/17 117/51/2 116/52/3 112/50/18
f 117/51/2 121/53/5 120/54/6 116/52/3
f 121/53/5 125/55/7 124/56/8 120/54/6
f 125/55/7 129/57/9 128/58/10 124/56/8
f 129/57/9 133/59/11 132/60/12 128/58/10
f 133/59/11 137/61/13 136/62/14 132/60/12
f 137/61/13 141/63/15 140/64/16 136/62/14
f 141/63/15 145/65/17 144/66/18 140/64/16
f 145/65/17 149/67/2 148/68/3 144/66/18
f 149/67/2 153/69/5 152/70/6 148/68/3
f 153/69/5 157/71/7 156/72/8 152/70/6
f 157/71/7 161/73/9 160/74/10 156/72/8
f 161/73/9 165/75/11 164/76/12 160/74/10
f 165/75/11 169/77/13 168/78/14 164/76/12
f 169/77/13 173/79/15 172/80/16 168/78/14
f 173/79/15 177/81/17 176/82/18 172/80/16
f 177/81/17 181/83/2 180/84/3 176/82/18
f 181/83/2 185/85/5 184/86/6 180/84/3
f 185/85/5 189/87/7 188/88/8 184/86/6
f 189/87/7 193/89/9 192/90/10 188/88/8
f 193/89/9 197/91/11 196/92/12 192/90/10
f 197/91/11 201/93/13 200/94/14 196/92/12
f 201/93/13 205/95/15 204/96/16 200/94/14
f 205/95/15 209/97/17 208/98/18 204/96/16
f 209/97/17 213/99/2 212/100/3 208/98/18
f 213/99/2 217/101/5 216/102/6 212/100/3
f 217/101/5 221/103/7 220/104/8 216/102/6
f 221/103/7 225/105/9 224/106/10 220/104/8
f 225/105/9 229/107/11 228/108/12 224/106/10
f 229/107/11 233/109/19 232/110/20 228/108/12
f 233/109/19 237/111/21 236/112/22 232/110/20
f 6/113/23 13/114/24 11/1/1 5/115/25
f 13/114/24 19/116/26 17/2/2 11/1/1
f 19/116/26 26/117/27 25/5/5 17/2/2
f 26/117/27 30/118/28 29/7/7 25/5/5
f 30/118/28 34/119/29 33/9/9 29/7/7
f 34/119/29 38/120/30 37/11/11 33/9/9
f 38/120/30 42/121/31 41/13/13 37/11/11
f 42/121/31 46/122/32 45/15/15 41/13/13
f 46/122/32 50/123/33 49/17/17 45/15/15
f 50/123/33 54/124/26 53/19/2 49/17/17
f 54/124/26 58/125/27 57/21/5 53/19/2
f 58/125/27 62/126/28 61/23/7 57/21/5
f 62/126/28 66/127/29 65/25/9 61/23/7
f 66/127/29 70/128/30 69/27/11 65/25/9
f 70/128/30 74/129/31 73/29/13 69/27/11
f 74/129/31 78/130/32 77/31/15 73/29/13
f 78/130/32 82/131/33 81/33/17 77/31/15
f 82/131/33 86/132/26 85/35/2 81/33/17
f 86/132/26 90/133/27 89/37/5 85/35/2
f 90/133/27 94/134/28 93/39/7 89/37/5
f 94/134/28 98/135/29 97/41/9 93/39/7
f 98/135/29 102/136/30 101/43/11 97/41/9
f 102/136/30 106/137/31 105/45/13 101/43/11
f 106/137/31 110/138/32 109/47/15 105/45/13
f 110/138/32 114/139/33 113/49/17 109/47/15
f 114/139/33 118/140/26 117/51/2 113/49/17
f 118/140/26 122/141/27 121/53/5 117/51/2
f 122/141/27 126/142/28 125/55/7 121/53/5
f 126/142/28 130/143/29 129/57/9 125/55/7
f 130/143/29 134/144/30 133/59/11 129/57/9
f 134/144/30 138/145/31 137/61/13 133/59/11
f 138/145/31 142/146/32 141/63/15 137/61/13
f 142/146/32 146/147/33 145/65/17 141/63/15
f 146/147/33 150/148/26 149/67/2 145/65/17
f 150/148/26 154/149/27 153/69/5 149/67/2
f 154/149/27 158/150/28 157/71/7 153/69/5
f 158/150/28 162/151/29 161/73/9 157/71/7
f 162/151/29 166/152/30 165/75/11 161/73/9
f 166/152/30 170/153/31 169/77/13 165/75/11
f 170/153/31 174/154/32 173/79/15 169/77/13
f 174/154/32 178/155/33 177/81/17 173/79/15
f 178/155/33 182/156/26 181/83/2 177/81/17
f 182/156/26 186/157/27 185/85/5 181/83/2
f 186/157/27 190/158/28 189/87/7 185/85/5
f 190/158/28 194/159/29 193/89/9 189/87/7
f 194/159/29 198/160/30 197/91/11 193/89/9
f 198/160/30 202/161/31 201/93/13 197/91/11
f 202/161/31 206/162/32 205/95/15 201/93/13
f 206/162/32 210/163/33 209/97/17 205/95/15
f 210/163/33 214/164/26 213/99/2 209/97/17
f 214/164/26 218/165/27 217/101/5 213/99/2
f 218/165/27 222/166/28 221/103/7 217/101/5
f 222/166/28 226/167/29 225/105/9 221/103/7
f 226/167/29 230/168/30 229/107/11 225/105/9
f 230/168/30 234/169/34 233/109/19 229/107/11
f 237/111/21 233/109/19 234/169/34 238/170/35
f 1/171/36 7/172/37 13/114/24 6/113/23
f 7/172/37 15/173/38 19/116/26 13/114/24
f 15/173/38 21/174/39 26/117/27 19/116/26
f 21/174/39 27/175/40 30/118/28 26/117/27
f 27/175/40 31/176/41 34/119/29 30/118/28
f 31/176/41 35/177/42 38/120/30 34/119/29
f 35/177/42 39/178/43 42/121/31 38/120/30
f 39/178/43 43/179/44 46/122/32 42/121/31
f 43/179/44 47/180/45 50/123/33 46/122/32
f 47/180/45 51/181/38 54/124/26 50/123/33
f 51/181/38 55/182/39 58/125/27 54/124/26
f 55/182/39 59/183/40 62/126/28 58/125/27
f 59/183/40 63/184/41 66/127/29 62/126/28
f 63/184/41 67/185/42 70/128/30 66/127/29
f 67/185/42 71/186/43 74/129/31 70/128/30
f 71/186/43 75/187/44 78/130/32 74/129/31
f 75/187/44 79/188/45 82/131/33 78/130/32
f 79/188/45 83/189/38 86/132/26 82/131/33
f 83/189/38 87/190/39 90/133/27 86/132/26
f 87/190/39 91/191/40 94/134/28 90/133/27
f 91/191/40 95/192/41 98/135/29 94/134/28
f 95/192/41 99/193/42 102/136/30 98/135/29
f 99/193/42 103/194/43 106/137/31 102/136/30
f 103/194/43 107/195/44 110/138/32 106/137/31
f 107/195/44 111/196/45 114/139/33 110/138/32
f 111/196/45 115/197/38 118/140/26 114/139/33
f 115/197/38 119/198/39 122/141/27 118/140/26
f 119/198/39 123/199/40 126/142/28 122/141/27
f 123/199/40 127/200/41 130/143/29 126/142/28
f 127/200/41 131/201/42 134/144/30 130/143/29
f 131/201/42 135/202/43 138/145/31 134/144/30
f 135/202/43 139/203/44 142/146/32 138/145/31
f 139/203/44 143/204/45 146/147/33 142/146/32
f 143/204/45 147/205/38 150/148/26 146/147/33
f 147/205/38 151/206/39 154/149/27 150/148/26
f 151/206/39 155/207/40 158/150/28 154/149/27
f 155/207/40 159/208/41 162/151/29 158/150/28
f 159/208/41 163/209/42 166/152/30 162/151/29
f 163/209/42 167/210/43 170/153/31 166/152/30
f 167/210/43 171/211/44 174/154/32 170/153/31
f 171/211/44 175/212/45 178/155/33 174/154/32
f 175/212/45 179/213/38 182/156/26 178/155/33
f 179/213/38 183/214/39 186/157/27 182/156/26
f 183/214/39 187/215/40 190/158/28 186/157/27
f 187/215/40 191/216/41 194/159/29 190/158/28
f 191/216/41 195/217/42 198/160/30 194/159/29
f 195/217/42 199/218/43 202/161/31 198/160/30
f 199/218/43 203/219/44 206/162/32 202/161/31
f 203/219/44 207/220/45 210/163/33 206/162/32
f 207/220/45 211/221/38 214/164/26 210/163/33
f 211/221/38 215/222/39 218/165/27 214/164/26
f 215/222/39 219/223/40 222/166/28 218/165/27
f 219/223/40 223/224/41 226/167/29 222/166/28
f 223/224/41 227/225/42 230/168/30 226/167/29
f 227/225/42 231/226/46 234/169/34 230/168/30
f 231/226/46 235/227/47 238/170/35 234/169/34
f 490/228/48 492/229/48 485/230/49 486/231/49
f 15/232/38 7/233/37 10/4/4 16/3/3
f 21/234/39 15/232/38 16/3/3 23/6/6
f 27/235/40 21/234/39 23/6/6 28/8/8
f 31/236/41 27/235/40 28/8/8 32/10/10
f 35/237/42 31/236/41 32/10/10 36/12/12
f 39/238/43 35/237/42 36/12/12 40/14/14
f 43/239/44 39/238/43 40/14/14 44/16/16
f 47/240/45 43/239/44 44/16/16 48/18/18
f 51/241/38 47/240/45 48/18/18 52/20/3
f 55/242/39 51/241/38 52/20/3 56/22/6
f 59/243/40 55/242/39 56/22/6 60/24/8
f 63/244/41 59/243/40 60/24/8 64/26/10
f 67/245/42 63/244/41 64/26/10 68/28/12
f 71/246/43 67/245/42 68/28/12 72/30/14
f 75/247/44 71/246/43 72/30/14 76/32/16
f 79/248/45 75/247/44 76/32/16 80/34/18
f 83/249/38 79/248/45 80/34/18 84/36/3
f 87/250/39 83/249/38 84/36/3 88/38/6
f 91/251/40 87/250/39 88/38/6 92/40/8
f 95/252/41 91/251/40 92/40/8 96/42/10
f 99/253/42 95/252/41 96/42/10 100/44/12
f 103/254/43 99/253/42 100/44/12 104/46/14
f 107/255/44 103/254/43 104/46/14 108/48/16
f 111/256/45 107/255/44 108/48/16 112/50/18
f 115/257/38 111/256/45 112/50/18 116/52/3
f 119/258/39 115/257/38 116/52/3 120/54/6
f 123/259/40 119/258/39 120/54/6 124/56/8
f 127/260/41 123/259/40 124/56/8 128/58/10
f 131/261/42 127/260/41 128/58/10 132/60/12
f 135/262/43 131/261/42 132/60/12 136/62/14
f 139/263/44 135/262/43 136/62/14 140/64/16
f 143/264/45 139/263/44 140/64/16 144/66/18
f 147/265/38 143/264/45 144/66/18 148/68/3
f 151/266/39 147/265/38 148/68/3 152/70/6
f 155/267/40 151/266/39 152/70/6 156/72/8
f 159/268/41 155/267/40 156/72/8 160/74/10
f 163/269/42 159/268/41 160/74/10 164/76/12
f 167/270/43 163/269/42 164/76/12 168/78/14
f 171/271/44 167/270/43 168/78/14 172/80/16
f 175/272/45 171/271/44 172/80/16 176/82/18
f 179/273/38 175/272/45 176/82/18 180/84/3
f 183/274/39 179/273/38 180/84/3 184/86/6
f 187/275/40 183/274/39 184/86/6 188/88/8
f 191/276/41 187/275/40 188/88/8 192/90/10
f 195/277/42 191/276/41 192/90/10 196/92/12
f 199/278/43 195/277/42 196/92/12 200/94/14
f 203/279/44 199/278/43 200/94/14 204/96/16
f 207/280/45 203/279/44 204/96/16 208/98/18
f 211/281/38 207/280/45 208/98/18 212/100/3
f 215/282/39 211/281/38 212/100/3 216/102/6
f 219/283/40 215/282/39 216/102/6 220/104/8
f 223/284/41 219/283/40 220/104/8 224/106/10
f 227/285/42 223/284/41 224/106/10 228/108/12
f 231/286/46 227/285/42 228/108/12 232/110/20
f 235/287/47 231/286/46 232/110/20 236/112/22
f 5/115/25 11/1/1 10/4/4 3/288/50
f 268/289/51 3/288/50 1/290/36 267/291/52
f 248/292/53 247/293/54 245/294/55 246/295/56
f 264/296/57 240/297/58 239/298/59 263/299/60
f 251/300/61 255/301/62 262/302/63 254/303/64
f 253/304/65 252/305/66 245/294/55 247/293/54
f 253/304/65 260/306/67 258/307/68 252/305/66
f 254/303/64 262/302/63 260/306/67 253/304/65
f 250/308/69 238/170/35 235/227/47 243/309/70
f 237/111/21 248/292/53 246/295/56 236/112/22
f 254/303/64 253/304/65 247/293/54 249/310/71
f 238/170/35 250/308/69 248/292/53 237/111/21
f 235/287/47 236/112/22 246/295/56 243/311/70
f 265/312/72 241/313/73 240/297/58 264/296/57
f 258/307/68 257/314/74 256/315/75 255/316/62
f 265/312/72 264/296/57 257/314/74 259/317/76
f 251/300/61 254/303/64 249/310/71 244/318/77
f 266/319/78 242/320/79 241/313/73 265/312/72
f 266/319/78 265/312/72 259/317/76 261/321/80
f 263/322/60 239/323/59 242/320/79 266/319/78
f 1/290/36 3/288/50 10/4/4 7/233/37
f 263/322/60 266/319/78 261/321/80 256/324/75
f 269/325/81 5/115/25 3/288/50 268/289/51
f 250/308/69 249/310/71 247/293/54 248/292/53
f 243/309/70 244/318/77 249/310/71 250/308/69
f 251/326/61 244/327/77 245/294/55 252/305/66
f 252/305/66 258/307/68 255/316/62 251/326/61
f 260/306/67 259/317/76 257/314/74 258/307/68
f 262/302/63 261/321/80 259/317/76 260/306/67
f 255/301/62 256/324/75 261/321/80 262/302/63
f 264/296/57 263/299/60 256/315/75 257/314/74
f 270/328/82 6/113/23 5/115/25 269/325/81
f 267/329/52 1/171/36 6/113/23 270/328/82
f 274/330/83 276/331/84 275/332/85 273/333/86
f 276/331/84 278/334/87 277/335/88 275/332/85
f 278/334/87 280/336/89 279/337/89 277/335/88
f 280/336/89 282/338/90 281/339/91 279/337/89
f 282/338/90 284/340/92 283/341/93 281/339/91
f 284/340/92 286/342/94 285/343/95 283/341/93
f 286/342/94 272/344/96 271/345/97 285/343/95
f 291/346/89 290/347/87 322/348/87 323/349/89
f 314/350/98 313/351/99 289/352/99 290/347/98
f 306/353/100 307/354/101 280/355/101 278/356/100
f 304/357/102 305/358/103 276/359/103 274/360/102
f 367/361/104 368/362/102 338/363/102 336/364/104
f 295/365/105 296/366/105 320/367/105 319/368/105
f 286/369/106 310/370/106 303/371/104 272/372/104
f 307/354/101 308/373/107 282/374/107 280/355/101
f 308/373/107 309/375/108 284/376/108 282/374/107
f 313/351/99 312/377/109 288/378/109 289/352/99
f 305/358/103 306/353/100 278/356/100 276/359/103
f 309/375/108 310/370/106 286/369/106 284/376/108
f 317/379/110 316/380/111 292/381/111 293/382/110
f 318/383/112 317/379/110 293/382/110 294/384/112
f 299/385/96 331/386/96 332/387/83 300/388/83
f 315/389/113 314/350/98 290/347/98 291/346/113
f 318/383/112 294/384/112 287/390/114 311/391/114
f 316/380/111 315/389/113 291/346/113 292/381/111
f 301/392/84 300/388/83 332/387/83 333/393/84
f 288/378/83 287/394/96 319/395/96 320/396/83
f 292/381/90 291/346/89 323/349/89 324/397/90
f 294/384/94 326/398/94 319/399/96 287/390/96
f 289/352/84 288/378/83 320/396/83 321/400/84
f 293/382/92 292/381/90 324/397/90 325/401/92
f 289/352/84 321/400/84 322/348/87 290/347/87
f 303/402/96 311/403/96 312/377/83 304/357/83
f 312/377/109 311/403/114 287/394/114 288/378/109
f 303/402/104 304/357/102 274/360/102 272/404/104
f 304/357/83 312/377/83 313/351/84 305/358/84
f 305/358/84 313/351/84 314/350/87 306/353/87
f 306/353/87 314/350/87 315/389/89 307/354/89
f 307/354/89 315/389/89 316/380/90 308/373/90
f 308/373/90 316/380/90 317/379/92 309/375/92
f 309/375/92 317/379/92 318/383/94 310/370/94
f 310/370/94 318/383/94 311/391/96 303/371/96
f 296/366/105 297/405/105 321/406/105 320/367/105
f 297/405/105 298/407/105 322/408/105 321/406/105
f 298/407/105 299/409/105 323/410/105 322/408/105
f 299/409/105 300/411/105 324/412/105 323/410/105
f 300/411/105 301/413/105 325/414/105 324/412/105
f 301/413/105 302/415/105 326/416/105 325/414/105
f 302/415/105 295/417/105 319/418/105 326/416/105
f 297/419/92 296/420/90 328/421/90 329/422/92
f 334/423/105 333/393/105 332/387/105 331/386/105 330/424/105 329/422/105 328/421/105 327/425/105
f 298/426/94 297/419/92 329/422/92 330/424/94
f 302/427/87 301/392/84 333/393/84 334/423/87
f 299/385/96 298/426/94 330/424/94 331/386/96
f 296/420/90 295/428/89 327/425/89 328/421/90
f 336/429/115 338/430/116 337/431/117 335/432/118
f 302/427/87 334/423/87 327/425/89 295/433/89
f 272/434/96 274/330/83 273/333/86 271/435/97
f 338/430/116 340/436/119 339/437/120 337/431/117
f 340/436/119 342/438/121 341/439/122 339/437/120
f 342/440/121 344/441/123 343/442/124 341/443/122
f 344/441/123 346/444/125 345/445/126 343/442/124
f 346/444/125 348/446/127 347/447/128 345/445/126
f 348/446/127 350/448/129 349/449/130 347/447/128
f 350/448/129 336/429/115 335/432/118 349/449/130
f 358/450/94 357/451/92 389/452/92 390/453/94
f 355/454/89 354/455/87 386/456/87 387/457/89
f 372/458/107 373/459/108 348/460/108 346/461/107
f 374/462/106 367/361/104 336/364/104 350/463/106
f 373/459/108 374/462/106 350/463/106 348/460/108
f 370/464/100 371/465/101 344/466/101 342/467/100
f 371/465/101 372/458/107 346/461/107 344/466/101
f 368/362/102 369/468/103 340/469/103 338/363/102
f 369/468/103 370/470/100 342/471/100 340/469/103
f 359/472/105 360/473/105 384/474/105 383/475/105
f 363/476/96 395/477/96 396/478/83 364/479/83
f 365/480/84 364/479/83 396/478/83 397/481/84
f 352/482/83 351/483/96 383/484/96 384/485/83
f 356/486/90 355/454/89 387/457/89 388/487/90
f 358/450/94 390/453/94 383/484/96 351/483/96
f 353/488/84 352/482/83 384/485/83 385/489/84
f 357/451/92 356/486/90 388/487/90 389/452/92
f 353/488/84 385/489/84 386/490/87 354/491/87
f 367/361/96 375/492/96 376/493/83 368/362/83
f 382/494/112 358/450/112 351/483/114 375/492/114
f 376/493/109 375/492/114 351/483/114 352/482/109
f 368/362/83 376/493/83 377/495/84 369/468/84
f 377/495/99 376/493/109 352/482/109 353/488/99
f 369/468/84 377/495/84 378/496/87 370/470/87
f 378/496/98 377/495/99 353/488/99 354/491/98
f 370/464/87 378/497/87 379/498/89 371/465/89
f 379/498/113 378/497/98 354/455/98 355/454/113
f 371/465/89 379/498/89 380/499/90 372/458/90
f 380/499/111 379/498/113 355/454/113 356/486/111
f 372/458/90 380/499/90 381/500/92 373/459/92
f 381/500/110 380/499/111 356/486/111 357/451/110
f 373/459/92 381/500/92 382/494/94 374/462/94
f 382/494/112 381/500/110 357/451/110 358/450/112
f 374/462/94 382/494/94 375/492/96 367/361/96
f 360/473/105 361/501/105 385/502/105 384/474/105
f 361/501/105 362/503/105 386/504/105 385/502/105
f 362/503/105 363/505/105 387/506/105 386/504/105
f 363/505/105 364/507/105 388/508/105 387/506/105
f 364/507/105 365/509/105 389/510/105 388/508/105
f 365/509/105 366/511/105 390/512/105 389/510/105
f 366/511/105 359/472/105 383/475/105 390/512/105
f 361/513/92 360/514/90 392/515/90 393/516/92
f 394/517/105 393/516/105 392/515/105 391/518/105 398/519/105 397/481/105 396/478/105 395/477/105
f 362/520/94 361/513/92 393/516/92 394/517/94
f 366/521/87 365/480/84 397/481/84 398/519/87
f 363/476/96 362/522/94 394/517/94 395/477/96
f 360/514/90 359/523/89 391/518/89 392/515/90
f 366/521/87 398/519/87 391/518/89 359/523/89
f 607/524/131 425/525/132 430/526/132 609/527/131
f 402/528/105 400/529/105 547/530/105 548/531/105
f 422/532/133 427/533/133 408/534/134 411/535/134
f 606/536/135 428/537/136 421/538/136 608/539/135
f 405/540/137 404/541/137 403/542/138 406/543/138
f 406/543/138 403/542/138 418/544/139 415/545/139
f 404/541/137 405/540/137 435/546/140 433/547/140
f 431/548/141 424/549/141 493/550/142 495/551/142
f 407/552/143 412/553/143 414/554/144 409/555/144
f 409/555/144 414/554/144 413/556/145 410/557/145
f 418/544/139 420/558/146 416/559/146 415/545/139
f 416/559/146 420/558/146 419/560/147 417/561/147
f 417/561/147 419/560/147 412/562/143 407/563/143
f 424/549/141 431/548/141 432/564/148 426/565/148
f 426/565/148 432/564/148 430/566/132 425/567/132
f 427/533/133 422/532/133 423/568/149 429/569/149
f 429/569/149 423/568/149 421/570/136 428/571/136
f 489/572/150 491/573/150 492/229/48 490/228/48
f 433/547/140 435/546/140 436/574/151 434/575/151
f 431/576/152 405/577/152 432/578/152
f 456/579/153 458/580/154 457/581/154 455/582/153
f 458/580/154 460/583/155 459/584/155 457/581/154
f 460/583/155 462/585/156 461/586/156 459/584/155
f 462/585/156 464/587/157 463/588/157 461/586/156
f 464/587/157 466/589/158 465/590/158 463/588/157
f 466/589/158 468/591/159 467/592/159 465/590/158
f 437/593/160 451/594/160 467/595/160 453/596/160
f 452/597/152 438/598/152 454/599/152 468/600/152
f 480/601/161 482/602/162 450/603/163 448/604/164
f 468/591/159 454/605/165 453/606/165 467/592/159
f 439/607/160 437/593/160 453/596/160 455/608/160
f 438/598/152 440/609/152 456/610/152 454/599/152
f 441/611/160 439/607/160 455/608/160 457/612/160
f 440/609/152 442/613/152 458/614/152 456/610/152
f 443/615/160 441/611/160 457/612/160 459/616/160
f 442/613/152 444/617/152 460/618/152 458/614/152
f 445/619/160 443/615/160 459/616/160 461/620/160
f 444/617/152 446/621/152 462/622/152 460/618/152
f 447/623/160 445/619/160 461/620/160 463/624/160
f 446/621/152 448/604/152 464/625/152 462/622/152
f 449/626/160 447/623/160 463/624/160 465/627/160
f 448/604/152 450/603/152 466/628/152 464/625/152
f 451/594/160 449/626/160 465/627/160 467/595/160
f 450/603/152 452/597/152 468/600/152 466/628/152
f 479/629/166 477/630/167 445/619/168 447/623/169
f 438/598/170 452/597/171 484/631/172 470/632/173
f 451/594/174 437/593/175 469/633/176 483/634/177
f 451/594/174 483/634/177 481/635/178 449/626/179
f 445/619/168 477/630/167 475/636/180 443/615/181
f 474/637/182 476/638/183 444/617/184 442/613/185
f 450/603/163 482/602/162 484/631/172 452/597/171
f 475/636/180 473/639/186 441/611/187 443/615/181
f 439/607/188 471/640/189 469/633/176 437/593/175
f 476/638/183 478/641/190 446/621/191 444/617/184
f 438/598/170 470/632/173 472/642/192 440/609/193
f 473/639/186 471/640/189 439/607/188 441/611/187
f 440/609/193 472/642/192 474/637/182 442/613/185
f 479/629/166 481/635/178 483/634/177 469/633/176 471/640/189 473/639/186 475/636/180 477/630/167
f 478/641/190 480/601/161 448/604/164 446/621/191
f 449/626/179 481/635/178 479/629/166 447/623/169
f 476/638/183 474/637/182 472/642/192 470/632/173 484/631/172 482/602/162 480/601/161 478/641/190
f 495/551/142 493/550/142 494/643/194 496/644/194
f 496/644/194 494/643/194 487/645/195 488/646/195
s 0
f 497/647/160 498/648/160 500/649/160 499/650/160
f 499/651/196 500/652/196 504/653/196 503/654/196
f 503/654/152 504/653/152 502/655/152 501/656/152
f 501/656/143 502/655/143 498/648/143 497/647/143
s 1
f 294/384/94 293/382/92 325/401/92 326/398/94
f 454/605/165 456/657/153 455/658/153 453/606/165
f 413/556/145 411/535/134 408/534/134 410/557/145
f 609/659/152 606/660/152 399/661/152 400/662/152
f 246/295/56 245/294/55 244/327/77 243/311/70
f 579/663/197 565/664/198 506/665/199 513/666/200
f 572/667/201 574/668/202 510/669/203 509/670/204
f 577/671/205 579/663/197 513/666/200 512/672/206
f 567/673/207 570/674/208 508/675/209 507/676/210
f 574/668/202 575/677/211 511/678/212 510/669/203
f 271/435/97 273/333/86 568/679/213 566/680/214
f 570/674/208 572/667/201 509/670/204 508/675/209
f 283/341/93 285/343/95 580/681/215 578/682/216
f 505/683/217 281/339/91 576/684/218 573/685/219
f 275/332/85 277/335/88 571/686/220 569/687/221
f 582/688/222 514/689/223 515/690/224 583/691/225
f 575/677/211 577/671/205 512/672/206 511/678/212
f 277/335/88 505/683/217 573/685/219 571/686/220
f 273/333/86 275/332/85 569/687/221 568/679/213
f 565/692/198 567/673/207 507/676/210 506/693/199
f 281/339/91 283/341/93 578/682/216 576/684/218
f 513/666/200 506/665/199 522/694/226 525/695/227
f 511/678/212 512/672/206 524/696/228 22/697/229 526/698/230
f 509/670/204 510/669/203 527/699/231 528/700/232
f 507/676/210 508/675/209 9/701/233 523/702/234
f 512/672/206 513/666/200 525/695/227 524/696/228
f 510/669/203 511/678/212 526/698/230 527/699/231
f 506/693/199 507/676/210 523/702/234 522/703/226
f 343/442/124 595/704/235 581/705/236 341/443/122
f 587/706/237 517/707/238 518/708/239 590/709/240
f 593/710/241 520/711/242 521/712/243 596/713/244
f 583/691/225 515/690/224 516/714/245 585/715/246
f 590/709/240 518/708/239 519/716/247 591/717/248
f 339/437/120 584/718/249 586/719/250 337/431/117
f 335/432/118 588/720/251 589/721/252 349/449/130
f 591/717/248 519/716/247 520/711/242 593/710/241
f 349/449/130 589/721/252 592/722/253 347/447/128
f 585/715/246 516/714/245 517/707/238 587/706/237
f 347/447/128 592/722/253 594/723/254 345/445/126
f 337/431/117 586/719/250 588/720/251 335/432/118
f 596/713/244 521/712/243 514/724/223 582/725/222
f 341/439/122 581/726/236 584/718/249 339/437/120
f 345/445/126 594/723/254 595/704/235 343/442/124
f 521/712/243 525/727/227 522/728/226 514/724/223
f 524/729/228 520/711/242 519/716/247 530/730/255 22/731/229
f 518/708/239 517/707/238 531/732/256 532/733/257
f 515/690/224 523/734/234 9/735/233 516/714/245
f 520/711/242 524/729/228 525/727/227 521/712/243
f 519/716/247 518/708/239 532/733/257 530/730/255
f 514/689/223 522/736/226 523/734/234 515/690/224
f 537/737/258 534/738/259 532/739/257 531/740/256
f 535/741/260 8/742/261 4/743/262 537/737/258
f 540/744/263 12/745/264 8/742/261 535/741/260
f 539/746/265 14/747/266 12/745/264 540/744/263
f 536/748/267 18/749/268 14/747/266 539/746/265
f 533/750/269 20/751/270 18/749/268 536/748/267
f 516/714/245 9/735/233 531/732/256 517/707/238
f 508/675/209 509/670/204 528/700/232 9/701/233
f 538/752/271 533/753/269 22/754/229 530/755/255
f 534/738/259 538/752/271 530/755/255 532/739/257
f 2/756/272 24/757/273 538/752/271 534/738/259
f 24/757/273 20/758/270 533/753/269 538/752/271
f 22/759/229 533/750/269 536/748/267 526/760/230
f 526/760/230 536/748/267 539/746/265 527/761/231
f 527/761/231 539/746/265 540/744/263 528/762/232
f 528/762/232 540/744/263 535/741/260 9/763/233
f 9/763/233 535/741/260 537/737/258 531/740/256
f 4/743/262 2/756/272 534/738/259 537/737/258
f 544/764/274 542/765/274 541/766/274 543/767/274
f 399/768/105 401/769/105 546/770/105 545/771/105
f 400/772/152 399/773/152 541/774/152 542/775/152
f 401/776/160 402/777/160 544/778/160 543/779/160
f 545/771/143 546/770/143 550/780/143 549/781/143
f 548/531/196 547/530/196 551/782/196 552/783/196
f 400/772/152 542/775/152 551/782/152 547/530/152
f 401/776/160 543/779/160 550/784/160 546/785/160
f 543/767/274 541/766/274 549/781/274 550/780/274
f 544/778/160 402/777/160 548/786/160 552/787/160
f 541/774/152 399/773/152 545/788/152 549/789/152
f 542/765/274 544/764/274 552/783/274 551/782/274
f 610/790/275 611/791/276 603/792/277 602/793/278
f 612/794/279 613/795/280 598/796/281 597/797/282
f 614/798/283 615/799/284 601/800/285 600/801/286
f 615/799/284 612/794/279 597/797/282 601/800/285
f 616/802/287 614/803/283 600/804/286 599/805/288
f 613/795/280 610/790/275 602/793/278 598/796/281
f 617/806/289 616/802/287 599/805/288 604/807/290
f 611/791/276 617/806/289 604/807/290 603/792/277
f 493/808/160 433/809/160 494/810/160
f 436/811/152 491/812/152 564/813/152 562/814/152
f 491/573/150 489/572/150 563/815/291 564/816/291
f 434/575/151 436/574/151 562/817/292 561/818/292
f 489/819/160 434/820/160 561/821/160 563/822/160
f 562/823/196 564/816/196 563/815/196 561/824/196
f 492/825/152 491/812/152 435/826/152
f 491/812/152 436/811/152 435/826/152
f 435/826/152 405/577/152 431/576/152
f 495/827/152 435/826/152 431/576/152
f 405/577/152 406/828/152 429/829/152
f 406/828/152 415/830/152 427/831/152
f 429/829/152 406/828/152 427/831/152
f 415/830/152 416/832/152 417/833/152
f 417/833/152 407/834/152 415/830/152
f 407/834/152 409/835/152 408/836/152
f 415/830/152 407/834/152 408/836/152
f 409/835/152 410/837/152 408/836/152
f 408/836/152 427/831/152 415/830/152
f 435/826/152 495/827/152 496/838/152
f 488/839/152 485/840/152 496/838/152
f 485/840/152 492/825/152 496/838/152
f 492/825/152 435/826/152 496/838/152
f 429/829/152 428/841/152 430/842/152
f 429/829/152 430/842/152 432/578/152
f 429/829/152 432/578/152 405/577/152
f 425/843/160 607/844/160 402/845/160 401/846/160
f 425/843/160 401/846/160 608/847/160 421/848/160
f 426/849/160 425/843/160 423/850/160
f 425/843/160 421/848/160 423/850/160
f 424/851/160 426/849/160 404/852/160
f 426/849/160 423/850/160 403/853/160
f 422/854/160 411/855/160 418/856/160
f 411/855/160 413/857/160 414/858/160
f 418/856/160 412/859/160 419/860/160
f 426/849/160 403/853/160 404/852/160
f 423/850/160 422/854/160 403/853/160
f 412/859/160 418/856/160 411/855/160
f 414/858/160 412/859/160 411/855/160
f 419/860/160 420/861/160 418/856/160
f 418/856/160 403/853/160 422/854/160
f 404/852/160 433/809/160 424/851/160
f 424/851/160 433/809/160 493/808/160
f 433/809/160 434/820/160 489/819/160
f 490/862/160 486/863/160 494/810/160
f 486/863/160 487/864/160 494/810/160
f 433/809/160 489/819/160 490/862/160
f 433/809/160 490/862/160 494/810/160
f 582/688/222 583/691/225 584/718/249 581/726/236
f 568/679/213 569/687/221 570/674/208 567/673/207
f 583/691/225 585/715/246 586/719/250 584/718/249
f 569/687/221 571/686/220 572/667/201 570/674/208
f 585/715/246 587/706/237 588/720/251 586/719/250
f 566/680/214 568/679/213 567/673/207 565/692/198
f 565/664/198 579/663/197 580/681/215 566/865/214
f 581/705/236 595/704/235 596/713/244 582/725/222
f 590/709/240 591/717/248 592/722/253 589/721/252
f 591/717/248 593/710/241 594/723/254 592/722/253
f 578/682/216 580/681/215 579/663/197 577/671/205
f 593/710/241 596/713/244 595/704/235 594/723/254
f 571/686/220 573/685/219 574/668/202 572/667/201
f 587/706/237 590/709/240 589/721/252 588/720/251
f 576/684/218 578/682/216 577/671/205 575/677/211
f 573/685/219 576/684/218 575/677/211 574/668/202
f 285/343/95 271/345/97 566/865/214 580/681/215
f 556/866/293 557/867/294 605/868/274
f 554/869/295 553/870/296 597/871/297 598/872/298
f 559/873/299 558/874/300 599/875/301 600/876/302
f 553/870/296 560/877/303 601/878/304 597/871/297
f 560/877/303 559/873/299 600/876/302 601/878/304
f 556/866/293 555/879/305 602/880/306 603/881/307
f 557/867/294 556/866/293 603/881/307 604/882/308
f 558/874/300 557/867/294 604/882/308 599/875/301
f 555/879/305 554/869/295 598/872/298 602/880/306
f 559/873/299 560/877/303 605/868/274
f 558/874/300 559/873/299 605/868/274
f 557/867/294 558/874/300 605/868/274
f 555/879/305 556/866/293 605/868/274
f 560/877/303 553/870/296 605/868/274
f 553/870/296 554/869/295 605/868/274
f 554/869/295 555/879/305 605/868/274
f 430/842/152 428/841/152 606/660/152 609/659/152
f 399/768/135 606/536/135 608/539/135 401/769/135
f 402/528/131 607/524/131 609/527/131 400/529/131
f 12/745/264 14/747/266 617/806/289 611/791/276
f 14/747/266 18/749/268 616/802/287 617/806/289
f 4/743/262 8/742/261 610/790/275 613/795/280
f 18/749/268 20/751/270 614/803/283 616/802/287
f 24/757/273 2/756/272 612/794/279 615/799/284
f 20/758/270 24/757/273 615/799/284 614/798/283
f 2/756/272 4/743/262 613/795/280 612/794/279
f 8/742/261 12/745/264 611/791/276 610/790/275
l 9 529
