# Blender 4.1.1
# www.blender.org
o Telescope_GreatRefractor_VisualBack
v 0.000000 -0.089825 -4.978661
v 0.000000 -0.038100 -5.066616
v 0.023248 -0.086765 -4.978661
v 0.009861 -0.036802 -5.066616
v 0.044913 -0.077791 -4.978661
v 0.019050 -0.032996 -5.066616
v 0.063516 -0.063516 -4.978661
v 0.026941 -0.026941 -5.066616
v 0.077791 -0.044913 -4.978661
v 0.032996 -0.019050 -5.066616
v 0.086765 -0.023249 -4.978661
v 0.036802 -0.009861 -5.066616
v 0.089825 -0.000000 -4.978661
v 0.038100 0.000000 -5.066616
v 0.086765 0.023248 -4.978661
v 0.036802 0.009861 -5.066616
v 0.077791 0.044913 -4.978661
v 0.032996 0.019050 -5.066616
v 0.063516 0.063516 -4.978661
v 0.026941 0.026941 -5.066616
v 0.044913 0.077791 -4.978661
v 0.019050 0.032996 -5.066616
v 0.023248 0.086765 -4.978661
v 0.009861 0.036802 -5.066616
v 0.000000 0.089825 -4.978661
v 0.000000 0.038100 -5.066616
v -0.023248 0.086765 -4.978661
v -0.009861 0.036802 -5.066616
v -0.044913 0.077791 -4.978661
v -0.019050 0.032996 -5.066616
v -0.063516 0.063516 -4.978661
v -0.026941 0.026941 -5.066616
v -0.077791 0.044913 -4.978661
v -0.032996 0.019050 -5.066616
v -0.086765 0.023248 -4.978661
v -0.036802 0.009861 -5.066616
v -0.089825 -0.000000 -4.978661
v -0.038100 0.000000 -5.066616
v -0.086765 -0.023249 -4.978661
v -0.036802 -0.009861 -5.066616
v -0.077791 -0.044913 -4.978661
v -0.032996 -0.019050 -5.066616
v -0.063516 -0.063516 -4.978661
v -0.026941 -0.026941 -5.066616
v -0.044913 -0.077791 -4.978661
v -0.019050 -0.032996 -5.066616
v -0.023248 -0.086765 -4.978661
v -0.009861 -0.036802 -5.066616
v 0.000000 -0.089825 -4.993202
v 0.023248 -0.086765 -4.993202
v 0.044913 -0.077791 -4.993202
v 0.063516 -0.063516 -4.993202
v 0.077791 -0.044913 -4.993202
v 0.086765 -0.023249 -4.993202
v 0.089825 -0.000000 -4.993202
v 0.086765 0.023248 -4.993202
v 0.077791 0.044913 -4.993202
v 0.063516 0.063516 -4.993202
v 0.044913 0.077791 -4.993202
v 0.023248 0.086765 -4.993202
v 0.000000 0.089825 -4.993202
v -0.023248 0.086765 -4.993202
v -0.044913 0.077791 -4.993202
v -0.063516 0.063516 -4.993202
v -0.077791 0.044913 -4.993202
v -0.086765 0.023248 -4.993202
v -0.089825 -0.000000 -4.993202
v -0.086765 -0.023249 -4.993202
v -0.077791 -0.044913 -4.993202
v -0.063516 -0.063516 -4.993202
v -0.044913 -0.077791 -4.993202
v -0.023248 -0.086765 -4.993202
v 0.000000 -0.046380 -4.993202
v 0.012004 -0.044800 -4.993202
v 0.023190 -0.040166 -4.993202
v 0.032796 -0.032796 -4.993202
v 0.040166 -0.023190 -4.993202
v 0.044800 -0.012004 -4.993202
v 0.046380 -0.000000 -4.993202
v 0.044800 0.012004 -4.993202
v 0.040166 0.023190 -4.993202
v 0.032796 0.032796 -4.993202
v 0.023190 0.040166 -4.993202
v 0.012004 0.044800 -4.993202
v 0.000000 0.046380 -4.993202
v -0.012004 0.044800 -4.993202
v -0.023190 0.040166 -4.993202
v -0.032796 0.032796 -4.993202
v -0.040166 0.023190 -4.993202
v -0.044800 0.012004 -4.993202
v -0.046380 -0.000000 -4.993202
v -0.044800 -0.012004 -4.993202
v -0.040166 -0.023190 -4.993202
v -0.032796 -0.032796 -4.993202
v -0.023190 -0.040166 -4.993202
v -0.012004 -0.044800 -4.993202
v 0.000000 -0.046380 -5.009379
v 0.012004 -0.044800 -5.009379
v 0.023190 -0.040166 -5.009379
v 0.032796 -0.032796 -5.009379
v 0.040166 -0.023190 -5.009379
v 0.044800 -0.012004 -5.009379
v 0.046380 -0.000000 -5.009379
v 0.044800 0.012004 -5.009379
v 0.040166 0.023190 -5.009379
v 0.032796 0.032796 -5.009379
v 0.023190 0.040166 -5.009379
v 0.012004 0.044800 -5.009379
v 0.000000 0.046380 -5.009379
v -0.012004 0.044800 -5.009379
v -0.023190 0.040166 -5.009379
v -0.032796 0.032796 -5.009379
v -0.040166 0.023190 -5.009379
v -0.044800 0.012004 -5.009379
v -0.046380 -0.000000 -5.009379
v -0.044800 -0.012004 -5.009379
v -0.040166 -0.023190 -5.009379
v -0.032796 -0.032796 -5.009379
v -0.023190 -0.040166 -5.009379
v -0.012004 -0.044800 -5.009379
v 0.000000 -0.038100 -5.009379
v 0.009861 -0.036802 -5.009379
v 0.019050 -0.032996 -5.009379
v 0.026941 -0.026941 -5.009379
v 0.032996 -0.019050 -5.009379
v 0.036802 -0.009861 -5.009379
v 0.038100 -0.000000 -5.009379
v 0.036802 0.009861 -5.009379
v 0.032996 0.019050 -5.009379
v 0.026941 0.026941 -5.009379
v 0.019050 0.032996 -5.009379
v 0.009861 0.036802 -5.009379
v 0.000000 0.038100 -5.009379
v -0.009861 0.036802 -5.009379
v -0.019050 0.032996 -5.009379
v -0.026941 0.026941 -5.009379
v -0.032996 0.019050 -5.009379
v -0.036802 0.009861 -5.009379
v -0.038100 -0.000000 -5.009379
v -0.036802 -0.009861 -5.009379
v -0.032996 -0.019050 -5.009379
v -0.026941 -0.026941 -5.009379
v -0.019050 -0.032996 -5.009379
v -0.009861 -0.036802 -5.009379
v 0.000000 -0.114876 -4.978662
v 0.029732 -0.110962 -4.978662
v 0.057438 -0.099486 -4.978662
v 0.081230 -0.081230 -4.978662
v 0.099486 -0.057438 -4.978662
v 0.110962 -0.029732 -4.978662
v 0.114876 -0.000000 -4.978662
v 0.110962 0.029732 -4.978662
v 0.099486 0.057438 -4.978662
v 0.081230 0.081230 -4.978662
v 0.057438 0.099486 -4.978662
v 0.029732 0.110962 -4.978662
v 0.000000 0.114876 -4.978662
v -0.029732 0.110962 -4.978662
v -0.057438 0.099486 -4.978662
v -0.081230 0.081230 -4.978662
v -0.099486 0.057438 -4.978662
v -0.110962 0.029732 -4.978662
v -0.114876 -0.000000 -4.978662
v -0.110962 -0.029732 -4.978662
v -0.099486 -0.057438 -4.978662
v -0.081230 -0.081230 -4.978662
v -0.057438 -0.099486 -4.978662
v -0.029732 -0.110962 -4.978662
v -0.000000 -0.114876 -4.843496
v 0.029732 -0.110962 -4.843496
v 0.057438 -0.099486 -4.843496
v 0.081230 -0.081230 -4.843496
v 0.099486 -0.057438 -4.843496
v 0.110962 -0.029732 -4.843496
v 0.114876 -0.000000 -4.843496
v 0.110962 0.029732 -4.843496
v 0.099486 0.057438 -4.843496
v 0.081230 0.081230 -4.843496
v 0.057438 0.099486 -4.843496
v 0.029732 0.110962 -4.843496
v -0.000000 0.114876 -4.843496
v -0.029732 0.110962 -4.843496
v -0.057438 0.099486 -4.843496
v -0.081230 0.081230 -4.843496
v -0.099486 0.057438 -4.843496
v -0.110962 0.029732 -4.843496
v -0.114876 -0.000000 -4.843496
v -0.110962 -0.029732 -4.843496
v -0.099486 -0.057438 -4.843496
v -0.081230 -0.081230 -4.843496
v -0.057438 -0.099486 -4.843496
v -0.029732 -0.110962 -4.843496
v 0.036278 -0.036302 -5.038846
v -0.036278 -0.036302 -5.038846
v 0.036278 -0.033844 -5.038187
v -0.036278 -0.033844 -5.038187
v 0.036278 -0.032045 -5.036387
v -0.036278 -0.032045 -5.036387
v 0.036278 -0.031386 -5.033929
v -0.036278 -0.031386 -5.033929
v 0.036278 -0.032045 -5.031471
v -0.036278 -0.032045 -5.031471
v 0.036278 -0.033844 -5.029672
v -0.036278 -0.033844 -5.029672
v 0.036278 -0.036302 -5.029013
v -0.036278 -0.036302 -5.029013
v 0.036278 -0.038760 -5.029672
v -0.036278 -0.038760 -5.029672
v 0.036278 -0.040560 -5.031471
v -0.036278 -0.040560 -5.031471
v 0.036278 -0.041218 -5.033929
v -0.036278 -0.041218 -5.033929
v 0.036278 -0.040560 -5.036387
v -0.036278 -0.040560 -5.036387
v 0.036278 -0.038760 -5.038187
v -0.036278 -0.038760 -5.038187
v 0.036278 -0.036302 -5.057514
v -0.036278 -0.036302 -5.057514
v 0.036278 -0.024508 -5.054354
v -0.036278 -0.024508 -5.054354
v 0.036278 -0.015875 -5.045721
v -0.036278 -0.015875 -5.045721
v 0.036278 -0.012715 -5.033927
v -0.036278 -0.012715 -5.033927
v 0.036278 -0.015875 -5.022133
v -0.036278 -0.015875 -5.022133
v 0.036278 -0.024508 -5.013500
v -0.036278 -0.024508 -5.013500
v 0.036278 -0.036302 -5.010339
v -0.036278 -0.036302 -5.010339
v 0.036278 -0.048096 -5.013500
v -0.036278 -0.048096 -5.013500
v 0.036278 -0.056729 -5.022133
v -0.036278 -0.056729 -5.022133
v 0.036278 -0.059889 -5.033927
v -0.036278 -0.059889 -5.033927
v 0.036278 -0.056729 -5.045721
v -0.036278 -0.056729 -5.045721
v 0.036278 -0.048096 -5.054354
v -0.036278 -0.048096 -5.054354
v 0.054215 -0.036302 -5.057514
v -0.054215 -0.036302 -5.057514
v 0.054215 -0.024508 -5.054354
v -0.054215 -0.024508 -5.054354
v 0.054215 -0.015875 -5.045721
v -0.054215 -0.015875 -5.045721
v 0.054215 -0.012715 -5.033927
v -0.054215 -0.012715 -5.033927
v 0.054215 -0.015875 -5.022133
v -0.054215 -0.015875 -5.022133
v 0.054215 -0.024508 -5.013500
v -0.054215 -0.024508 -5.013500
v 0.054215 -0.036302 -5.010339
v -0.054215 -0.036302 -5.010339
v 0.054215 -0.048096 -5.013500
v -0.054215 -0.048096 -5.013500
v 0.054215 -0.056729 -5.022133
v -0.054215 -0.056729 -5.022133
v 0.054215 -0.059889 -5.033927
v -0.054215 -0.059889 -5.033927
v 0.054215 -0.056729 -5.045721
v -0.054215 -0.056729 -5.045721
v 0.054215 -0.048096 -5.054354
v -0.054215 -0.048096 -5.054354
v 0.000000 -0.031534 -4.977123
v 0.000000 -0.031534 -5.137855
v 0.008162 -0.030459 -4.977123
v 0.008162 -0.030459 -5.137855
v 0.015767 -0.027309 -4.977123
v 0.015767 -0.027309 -5.137855
v 0.022298 -0.022298 -4.977123
v 0.022298 -0.022298 -5.137855
v 0.027309 -0.015767 -4.977123
v 0.027309 -0.015767 -5.137855
v 0.030459 -0.008162 -4.977123
v 0.030459 -0.008161 -5.137855
v 0.031534 -0.000000 -4.977123
v 0.031534 0.000000 -5.137855
v 0.030459 0.008161 -4.977123
v 0.030459 0.008162 -5.137855
v 0.027309 0.015767 -4.977123
v 0.027309 0.015767 -5.137855
v 0.022298 0.022298 -4.977123
v 0.022298 0.022298 -5.137855
v 0.015767 0.027309 -4.977123
v 0.015767 0.027309 -5.137855
v 0.008162 0.030459 -4.977123
v 0.008162 0.030459 -5.137855
v 0.000000 0.031534 -4.977123
v 0.000000 0.031534 -5.137855
v -0.008162 0.030459 -4.977123
v -0.008162 0.030459 -5.137855
v -0.015767 0.027309 -4.977123
v -0.015767 0.027309 -5.137855
v -0.022298 0.022298 -4.977123
v -0.022298 0.022298 -5.137855
v -0.027309 0.015767 -4.977123
v -0.027309 0.015767 -5.137855
v -0.030459 0.008161 -4.977123
v -0.030459 0.008162 -5.137855
v -0.031534 -0.000000 -4.977123
v -0.031534 0.000000 -5.137855
v -0.030459 -0.008162 -4.977123
v -0.030459 -0.008161 -5.137855
v -0.027309 -0.015767 -4.977123
v -0.027309 -0.015767 -5.137855
v -0.022298 -0.022298 -4.977123
v -0.022298 -0.022298 -5.137855
v -0.015767 -0.027309 -4.977123
v -0.015767 -0.027309 -5.137855
v -0.008162 -0.030459 -4.977123
v -0.008162 -0.030459 -5.137855
v 0.008829 -0.032951 -5.137855
v 0.000000 -0.034114 -5.137855
v 0.017057 -0.029543 -5.137855
v 0.024122 -0.024122 -5.137855
v 0.029543 -0.017057 -5.137855
v 0.032951 -0.008829 -5.137855
v 0.034114 0.000000 -5.137855
v 0.032951 0.008829 -5.137855
v 0.029543 0.017057 -5.137855
v 0.024122 0.024122 -5.137855
v 0.017057 0.029543 -5.137855
v 0.008829 0.032951 -5.137855
v 0.000000 0.034114 -5.137855
v -0.008829 0.032951 -5.137855
v -0.017057 0.029543 -5.137855
v -0.024122 0.024122 -5.137855
v -0.029543 0.017057 -5.137855
v -0.032951 0.008829 -5.137855
v -0.034114 0.000000 -5.137855
v -0.032951 -0.008829 -5.137855
v -0.029543 -0.017057 -5.137855
v -0.024122 -0.024122 -5.137855
v -0.017057 -0.029543 -5.137855
v -0.008829 -0.032951 -5.137855
v 0.008829 -0.032951 -5.206844
v -0.000000 -0.034114 -5.206844
v 0.017057 -0.029543 -5.206844
v 0.024122 -0.024122 -5.206844
v 0.029543 -0.017057 -5.206844
v 0.032951 -0.008829 -5.206844
v 0.034114 0.000000 -5.206844
v 0.032951 0.008829 -5.206844
v 0.029543 0.017057 -5.206844
v 0.024122 0.024122 -5.206844
v 0.017057 0.029543 -5.206844
v 0.008829 0.032951 -5.206844
v -0.000000 0.034114 -5.206844
v -0.008829 0.032951 -5.206844
v -0.017057 0.029543 -5.206844
v -0.024122 0.024122 -5.206844
v -0.029543 0.017057 -5.206844
v -0.032951 0.008829 -5.206844
v -0.034114 0.000000 -5.206844
v -0.032951 -0.008829 -5.206844
v -0.029543 -0.017057 -5.206844
v -0.024122 -0.024122 -5.206844
v -0.017057 -0.029543 -5.206844
v -0.008829 -0.032951 -5.206844
v 0.004314 -0.016100 -5.223547
v -0.000000 -0.016668 -5.223547
v 0.008334 -0.014435 -5.223547
v 0.011786 -0.011786 -5.223547
v 0.014435 -0.008334 -5.223547
v 0.016100 -0.004314 -5.223547
v 0.016668 0.000000 -5.223547
v 0.016100 0.004314 -5.223547
v 0.014435 0.008334 -5.223547
v 0.011786 0.011786 -5.223547
v 0.008334 0.014435 -5.223547
v 0.004314 0.016100 -5.223547
v -0.000000 0.016668 -5.223547
v -0.004314 0.016100 -5.223547
v -0.008334 0.014435 -5.223547
v -0.011786 0.011786 -5.223547
v -0.014435 0.008334 -5.223547
v -0.016100 0.004314 -5.223547
v -0.016668 0.000000 -5.223547
v -0.016100 -0.004314 -5.223547
v -0.014435 -0.008334 -5.223547
v -0.011786 -0.011786 -5.223547
v -0.008334 -0.014435 -5.223547
v -0.004314 -0.016100 -5.223547
v 0.005436 -0.020286 -5.223547
v -0.000000 -0.021002 -5.223547
v 0.010501 -0.018188 -5.223547
v 0.014851 -0.014851 -5.223547
v 0.018188 -0.010501 -5.223547
v 0.020286 -0.005436 -5.223547
v 0.021002 0.000000 -5.223547
v 0.020286 0.005436 -5.223547
v 0.018188 0.010501 -5.223547
v 0.014851 0.014851 -5.223547
v 0.010501 0.018188 -5.223547
v 0.005436 0.020286 -5.223547
v -0.000000 0.021002 -5.223547
v -0.005436 0.020286 -5.223547
v -0.010501 0.018188 -5.223547
v -0.014851 0.014851 -5.223547
v -0.018188 0.010501 -5.223547
v -0.020286 0.005436 -5.223547
v -0.021002 0.000000 -5.223547
v -0.020286 -0.005436 -5.223547
v -0.018188 -0.010501 -5.223547
v -0.014851 -0.014851 -5.223547
v -0.010501 -0.018188 -5.223547
v -0.005436 -0.020286 -5.223547
v 0.000756 -0.002823 -5.223929
v 0.004314 -0.016100 -5.219277
v 0.003272 -0.012211 -5.222567
v 0.000000 -0.016668 -5.219277
v 0.000000 -0.002923 -5.223929
v 0.000000 -0.012642 -5.222567
v 0.001461 -0.002531 -5.223929
v 0.008334 -0.014435 -5.219277
v 0.006321 -0.010948 -5.222567
v 0.002067 -0.002067 -5.223929
v 0.011786 -0.011786 -5.219277
v 0.008939 -0.008939 -5.222567
v 0.002531 -0.001461 -5.223929
v 0.014435 -0.008334 -5.219277
v 0.010948 -0.006321 -5.222567
v 0.002823 -0.000756 -5.223929
v 0.016100 -0.004314 -5.219277
v 0.012211 -0.003272 -5.222567
v 0.002923 0.000000 -5.223929
v 0.016668 0.000000 -5.219277
v 0.012642 0.000000 -5.222567
v 0.002823 0.000756 -5.223929
v 0.016100 0.004314 -5.219277
v 0.012211 0.003272 -5.222567
v 0.002531 0.001461 -5.223929
v 0.014435 0.008334 -5.219277
v 0.010948 0.006321 -5.222567
v 0.002067 0.002067 -5.223929
v 0.011786 0.011786 -5.219277
v 0.008939 0.008939 -5.222567
v 0.001461 0.002531 -5.223929
v 0.008334 0.014435 -5.219277
v 0.006321 0.010948 -5.222567
v 0.000756 0.002823 -5.223929
v 0.004314 0.016100 -5.219277
v 0.003272 0.012211 -5.222567
v 0.000000 0.002923 -5.223929
v 0.000000 0.016668 -5.219277
v 0.000000 0.012642 -5.222567
v -0.000756 0.002823 -5.223929
v -0.004314 0.016100 -5.219277
v -0.003272 0.012211 -5.222567
v -0.001461 0.002531 -5.223929
v -0.008334 0.014435 -5.219277
v -0.006321 0.010948 -5.222567
v -0.002067 0.002067 -5.223929
v -0.011786 0.011786 -5.219277
v -0.008939 0.008939 -5.222567
v -0.002531 0.001461 -5.223929
v -0.014435 0.008334 -5.219277
v -0.010948 0.006321 -5.222567
v -0.002823 0.000756 -5.223929
v -0.016100 0.004314 -5.219277
v -0.012211 0.003272 -5.222567
v -0.002923 0.000000 -5.223929
v -0.016668 0.000000 -5.219277
v -0.012642 0.000000 -5.222567
v -0.002823 -0.000756 -5.223929
v -0.016100 -0.004314 -5.219277
v -0.012211 -0.003272 -5.222567
v -0.002531 -0.001461 -5.223929
v -0.014435 -0.008334 -5.219277
v -0.010948 -0.006321 -5.222567
v -0.002067 -0.002067 -5.223929
v -0.011786 -0.011786 -5.219277
v -0.008939 -0.008939 -5.222567
v -0.001461 -0.002531 -5.223929
v -0.008334 -0.014435 -5.219277
v -0.006321 -0.010948 -5.222567
v -0.000756 -0.002823 -5.223929
v -0.004314 -0.016100 -5.219277
v -0.003272 -0.012211 -5.222567
vn -0.0000 -1.0000 -0.0000
vn 0.2588 -0.9659 -0.0000
vn 0.5000 -0.8660 -0.0000
vn 0.7071 -0.7071 -0.0000
vn 0.8660 -0.5000 -0.0000
vn 0.9659 -0.2588 -0.0000
vn 1.0000 -0.0000 -0.0000
vn 0.9659 0.2588 -0.0000
vn 0.8660 0.5000 -0.0000
vn 0.7071 0.7071 -0.0000
vn 0.5000 0.8660 -0.0000
vn 0.2588 0.9659 -0.0000
vn -0.0000 1.0000 -0.0000
vn -0.2588 0.9659 -0.0000
vn -0.5000 0.8660 -0.0000
vn -0.7071 0.7071 -0.0000
vn -0.8660 0.5000 -0.0000
vn -0.9659 0.2588 -0.0000
vn -1.0000 -0.0000 -0.0000
vn -0.9659 -0.2588 -0.0000
vn -0.8660 -0.5000 -0.0000
vn -0.7071 -0.7071 -0.0000
vn -0.5000 -0.8660 -0.0000
vn -0.0000 -0.0000 -1.0000
vn -0.2588 -0.9659 -0.0000
vn -0.0000 0.5000 -0.8660
vn -0.0000 0.8660 -0.5000
vn -0.0000 0.8660 0.5000
vn -0.0000 0.5000 0.8660
vn -0.0000 -0.0000 1.0000
vn -0.0000 -0.5000 0.8660
vn -0.0000 -0.8660 0.5000
vn -0.0000 -0.8660 -0.5000
vn -0.0000 -0.5000 -0.8660
vn -0.0000 -0.9659 -0.2588
vn -0.0000 0.9659 -0.2588
vn -0.0000 0.2589 0.9659
vn -0.0000 -0.2589 0.9659
vn -0.0000 0.9659 0.2588
vn -0.0000 -0.7071 -0.7071
vn -0.0000 0.2588 -0.9659
vn -0.0000 -0.7071 0.7071
vn -0.0000 0.7071 0.7071
vn -0.0000 -0.2588 -0.9659
vn -0.0000 0.7071 -0.7071
vn -0.0000 -0.9659 0.2588
vn -0.0000 -0.0002 1.0000
vn -0.0000 0.0002 1.0000
vn -0.0000 0.0001 1.0000
vn -0.0000 -0.0001 1.0000
vn -0.5562 -0.5562 -0.6175
vn -0.6812 -0.3933 -0.6175
vn -0.3933 0.6812 -0.6175
vn -0.2036 0.7598 -0.6175
vn 0.7598 0.2036 -0.6175
vn 0.7866 -0.0000 -0.6175
vn -0.3933 -0.6812 -0.6175
vn -0.5562 0.5562 -0.6175
vn 0.6812 0.3933 -0.6175
vn -0.2036 -0.7598 -0.6175
vn 0.2036 -0.7598 -0.6175
vn -0.0000 -0.7866 -0.6175
vn -0.6812 0.3933 -0.6175
vn 0.5562 0.5562 -0.6175
vn 0.3933 -0.6812 -0.6175
vn -0.7598 0.2036 -0.6175
vn 0.3933 0.6812 -0.6175
vn 0.5562 -0.5562 -0.6175
vn -0.7866 -0.0000 -0.6175
vn 0.2036 0.7598 -0.6175
vn 0.6812 -0.3933 -0.6175
vn -0.7598 -0.2036 -0.6175
vn -0.0000 0.7866 -0.6175
vn 0.7598 -0.2036 -0.6175
vn 0.0195 -0.0728 -0.9972
vn -0.0000 -0.0753 -0.9972
vn -0.0195 -0.0727 -0.9972
vn -0.0377 -0.0652 -0.9972
vn -0.0533 -0.0532 -0.9972
vn -0.0653 -0.0376 -0.9972
vn -0.0728 -0.0194 -0.9972
vn -0.0754 0.0001 -0.9972
vn -0.0728 0.0196 -0.9972
vn -0.0653 0.0378 -0.9972
vn -0.0533 0.0533 -0.9972
vn -0.0377 0.0653 -0.9972
vn -0.0195 0.0729 -0.9972
vn -0.0000 0.0754 -0.9972
vn 0.0195 0.0728 -0.9972
vn 0.0377 0.0653 -0.9972
vn 0.0533 0.0534 -0.9972
vn 0.0653 0.0377 -0.9972
vn 0.0728 0.0196 -0.9972
vn 0.0754 0.0001 -0.9972
vn 0.0728 -0.0194 -0.9972
vn 0.0653 -0.0376 -0.9972
vn 0.0533 -0.0532 -0.9972
vn 0.0377 -0.0652 -0.9972
vn 0.1638 -0.6112 -0.7744
vn -0.0000 -0.6327 -0.7744
vn -0.0000 -0.4191 -0.9079
vn 0.1085 -0.4048 -0.9079
vn 0.3164 -0.5480 -0.7744
vn 0.2096 -0.3629 -0.9079
vn 0.4474 -0.4474 -0.7744
vn 0.2964 -0.2963 -0.9079
vn 0.5480 -0.3164 -0.7743
vn 0.3630 -0.2096 -0.9079
vn 0.6112 -0.1638 -0.7743
vn 0.4049 -0.1085 -0.9079
vn 0.6328 -0.0000 -0.7743
vn 0.4191 -0.0000 -0.9079
vn 0.6112 0.1638 -0.7743
vn 0.4049 0.1085 -0.9079
vn 0.5480 0.3164 -0.7743
vn 0.3630 0.2096 -0.9079
vn 0.4474 0.4474 -0.7744
vn 0.2964 0.2964 -0.9079
vn 0.3164 0.5480 -0.7744
vn 0.2096 0.3630 -0.9079
vn 0.1638 0.6112 -0.7744
vn 0.1085 0.4049 -0.9079
vn -0.0000 0.6327 -0.7744
vn -0.0000 0.4191 -0.9079
vn -0.1638 0.6112 -0.7744
vn -0.1085 0.4048 -0.9079
vn -0.3164 0.5480 -0.7744
vn -0.2096 0.3630 -0.9079
vn -0.4474 0.4474 -0.7743
vn -0.2964 0.2964 -0.9079
vn -0.5480 0.3164 -0.7743
vn -0.3630 0.2096 -0.9079
vn -0.6112 0.1638 -0.7743
vn -0.4049 0.1085 -0.9079
vn -0.6328 -0.0000 -0.7743
vn -0.4191 -0.0000 -0.9079
vn -0.6112 -0.1638 -0.7743
vn -0.4049 -0.1085 -0.9079
vn -0.5480 -0.3164 -0.7744
vn -0.3630 -0.2096 -0.9079
vn -0.4474 -0.4474 -0.7743
vn -0.2964 -0.2964 -0.9079
vn -0.3164 -0.5480 -0.7743
vn -0.2096 -0.3630 -0.9079
vn -0.1638 -0.6112 -0.7744
vn -0.1085 -0.4048 -0.9079
vt 0.922936 0.309190
vt 0.931295 0.309190
vt 0.931295 0.310643
vt 0.922936 0.310643
vt 0.931295 0.312095
vt 0.922936 0.312095
vt 0.931295 0.313548
vt 0.922936 0.313548
vt 0.931295 0.315001
vt 0.922936 0.315001
vt 0.931295 0.316453
vt 0.922936 0.316453
vt 0.931295 0.317906
vt 0.922936 0.317906
vt 0.931295 0.319358
vt 0.922936 0.319358
vt 0.931295 0.320811
vt 0.922936 0.320811
vt 0.931295 0.322263
vt 0.922936 0.322263
vt 0.931295 0.323716
vt 0.922936 0.323716
vt 0.931295 0.325168
vt 0.922936 0.325168
vt 0.931295 0.326621
vt 0.922936 0.326621
vt 0.931295 0.328073
vt 0.922936 0.328073
vt 0.931295 0.329526
vt 0.922936 0.329526
vt 0.931295 0.330978
vt 0.922936 0.330978
vt 0.931295 0.332431
vt 0.922936 0.332431
vt 0.931295 0.333883
vt 0.922936 0.333883
vt 0.931295 0.335336
vt 0.922936 0.335336
vt 0.931295 0.336789
vt 0.922936 0.336789
vt 0.931295 0.338241
vt 0.922936 0.338241
vt 0.931295 0.339694
vt 0.922936 0.339694
vt 0.931295 0.341146
vt 0.922936 0.341146
vt 0.925818 0.990843
vt 0.924791 0.989815
vt 0.924065 0.988558
vt 0.923689 0.987154
vt 0.923689 0.985702
vt 0.924065 0.984299
vt 0.924791 0.983041
vt 0.925818 0.982014
vt 0.927076 0.981288
vt 0.928479 0.980912
vt 0.929931 0.980912
vt 0.931334 0.981288
vt 0.932592 0.982014
vt 0.933619 0.983041
vt 0.934346 0.984299
vt 0.934722 0.985702
vt 0.934722 0.987154
vt 0.934346 0.988558
vt 0.933619 0.989815
vt 0.932592 0.990843
vt 0.931334 0.991569
vt 0.929931 0.991945
vt 0.928479 0.991945
vt 0.927076 0.991569
vt 0.931295 0.342599
vt 0.922936 0.342599
vt 0.931295 0.344051
vt 0.922936 0.344051
vt 0.733925 0.323296
vt 0.731883 0.319925
vt 0.735075 0.317324
vt 0.737804 0.321551
vt 0.735091 0.331209
vt 0.732769 0.330901
vt 0.732701 0.327499
vt 0.735109 0.327147
vt 0.734023 0.335091
vt 0.731884 0.334175
vt 0.731954 0.338484
vt 0.730181 0.337082
vt 0.729137 0.341199
vt 0.727819 0.339447
vt 0.725745 0.343225
vt 0.724855 0.341050
vt 0.721900 0.344160
vt 0.721631 0.341966
vt 0.717970 0.344141
vt 0.718282 0.341885
vt 0.714116 0.343139
vt 0.715070 0.340929
vt 0.710753 0.341015
vt 0.712186 0.339231
vt 0.708034 0.338197
vt 0.709859 0.336856
vt 0.706204 0.334793
vt 0.708249 0.333980
vt 0.705275 0.331110
vt 0.707367 0.330836
vt 0.705217 0.327304
vt 0.707415 0.327577
vt 0.706156 0.323550
vt 0.708259 0.324385
vt 0.708054 0.320105
vt 0.709907 0.321482
vt 0.710820 0.317203
vt 0.712301 0.319120
vt 0.714335 0.315285
vt 0.715195 0.317419
vt 0.718145 0.314310
vt 0.718418 0.316564
vt 0.722041 0.314355
vt 0.721728 0.316574
vt 0.725755 0.315384
vt 0.724906 0.317434
vt 0.729063 0.317295
vt 0.727792 0.319000
vt 0.730112 0.321333
vt 0.731814 0.324222
vt 0.726649 0.330097
vt 0.726689 0.328332
vt 0.726180 0.331780
vt 0.725277 0.333268
vt 0.724078 0.334554
vt 0.722534 0.335398
vt 0.720843 0.335832
vt 0.719100 0.335800
vt 0.717431 0.335333
vt 0.715939 0.334449
vt 0.714741 0.333205
vt 0.713909 0.331704
vt 0.713505 0.330043
vt 0.713457 0.328325
vt 0.713858 0.326624
vt 0.714773 0.325122
vt 0.716023 0.323908
vt 0.717533 0.323057
vt 0.719204 0.322625
vt 0.720925 0.322645
vt 0.722566 0.323118
vt 0.724065 0.323938
vt 0.725310 0.325137
vt 0.726201 0.326639
vt 0.724643 0.329821
vt 0.724624 0.328605
vt 0.724343 0.331005
vt 0.723730 0.332070
vt 0.722831 0.332901
vt 0.721784 0.333519
vt 0.720607 0.333834
vt 0.719389 0.333828
vt 0.718217 0.333513
vt 0.717175 0.332892
vt 0.716328 0.332022
vt 0.715719 0.330973
vt 0.715397 0.329800
vt 0.715425 0.328580
vt 0.715764 0.327420
vt 0.716362 0.326368
vt 0.717224 0.325507
vt 0.718279 0.324898
vt 0.719451 0.324580
vt 0.720663 0.324566
vt 0.721839 0.324877
vt 0.722886 0.325499
vt 0.723734 0.326365
vt 0.724331 0.327426
vt 0.723809 0.329709
vt 0.723803 0.328704
vt 0.723556 0.330682
vt 0.723054 0.331551
vt 0.722337 0.332249
vt 0.721474 0.332746
vt 0.720510 0.333003
vt 0.719511 0.333001
vt 0.718545 0.332737
vt 0.717681 0.332232
vt 0.716983 0.331526
vt 0.716490 0.330666
vt 0.716239 0.329703
vt 0.716247 0.328706
vt 0.716513 0.327747
vt 0.717017 0.326884
vt 0.717725 0.326176
vt 0.718591 0.325673
vt 0.719556 0.325408
vt 0.720557 0.325399
vt 0.721519 0.325650
vt 0.722372 0.326149
vt 0.723066 0.326860
vt 0.723554 0.327732
vt 0.275403 0.915803
vt 0.283247 0.917831
vt 0.274516 0.938954
vt 0.272522 0.938335
vt 0.712762 0.311337
vt 0.717705 0.310143
vt 0.701215 0.331589
vt 0.701166 0.326781
vt 0.717382 0.348327
vt 0.712453 0.346983
vt 0.737923 0.336775
vt 0.735265 0.341127
vt 0.722677 0.310280
vt 0.727367 0.311633
vt 0.702309 0.321997
vt 0.704695 0.317567
vt 0.708104 0.344286
vt 0.704699 0.340627
vt 0.731634 0.344607
vt 0.727285 0.347088
vt 0.731539 0.314034
vt 0.708251 0.313867
vt 0.739354 0.326544
vt 0.702379 0.336285
vt 0.722416 0.348332
vt 0.739354 0.331821
vt 0.241217 0.949624
vt 0.241326 0.941903
vt 0.263125 0.945128
vt 0.262985 0.947247
vt 0.282593 0.975275
vt 0.274691 0.977401
vt 0.271702 0.954464
vt 0.273789 0.954002
vt 0.290340 0.921871
vt 0.276276 0.940078
vt 0.296166 0.927676
vt 0.299436 0.935147
vt 0.278755 0.943506
vt 0.277679 0.941627
vt 0.243401 0.934414
vt 0.263821 0.943099
vt 0.266463 0.977401
vt 0.269573 0.954369
vt 0.301461 0.942795
vt 0.279198 0.945590
vt 0.247325 0.927654
vt 0.265030 0.941300
vt 0.258473 0.975245
vt 0.267573 0.953788
vt 0.301449 0.950755
vt 0.279088 0.947725
vt 0.252856 0.922070
vt 0.266546 0.939794
vt 0.251277 0.971030
vt 0.265816 0.952706
vt 0.299375 0.958489
vt 0.278433 0.949764
vt 0.259677 0.918044
vt 0.268393 0.938762
vt 0.246200 0.964512
vt 0.264405 0.951185
vt 0.295353 0.965465
vt 0.277274 0.951569
vt 0.267362 0.915891
vt 0.270433 0.938268
vt 0.242304 0.957501
vt 0.263464 0.949340
vt 0.289636 0.971196
vt 0.275690 0.953014
vt 0.538980 0.985809
vt 0.538608 0.985809
vt 0.538608 0.975213
vt 0.538980 0.975213
vt 0.538236 0.985809
vt 0.538236 0.975213
vt 0.537865 0.985809
vt 0.537865 0.975213
vt 0.537493 0.985809
vt 0.537493 0.975213
vt 0.537122 0.985809
vt 0.537122 0.975213
vt 0.536750 0.985809
vt 0.536750 0.975213
vt 0.536378 0.985809
vt 0.536378 0.975213
vt 0.536007 0.985809
vt 0.536007 0.975213
vt 0.540466 0.985809
vt 0.540095 0.985809
vt 0.540095 0.975213
vt 0.540466 0.975213
vt 0.539723 0.985809
vt 0.539723 0.975213
vt 0.539351 0.985809
vt 0.539351 0.975213
vt 0.602469 0.985641
vt 0.602147 0.985826
vt 0.600219 0.983898
vt 0.601763 0.983007
vt 0.699561 0.989484
vt 0.699239 0.989298
vt 0.699945 0.986665
vt 0.701489 0.987556
vt 0.699747 0.989806
vt 0.702380 0.989101
vt 0.970506 0.328805
vt 0.970506 0.330588
vt 0.967886 0.330588
vt 0.967886 0.328805
vt 0.971328 0.163070
vt 0.971328 0.164853
vt 0.968708 0.164853
vt 0.968708 0.163070
vt 0.602469 0.987028
vt 0.602841 0.987028
vt 0.603546 0.989661
vt 0.601763 0.989661
vt 0.699239 0.990685
vt 0.699945 0.993320
vt 0.698162 0.993320
vt 0.698867 0.990686
vt 0.698868 0.989298
vt 0.698546 0.989484
vt 0.696617 0.987556
vt 0.698162 0.986665
vt 0.603163 0.985826
vt 0.602841 0.985641
vt 0.603546 0.983007
vt 0.605090 0.983898
vt 0.601961 0.986520
vt 0.602147 0.986842
vt 0.600219 0.988770
vt 0.599327 0.987226
vt 0.603163 0.986842
vt 0.603348 0.986520
vt 0.605982 0.987226
vt 0.605090 0.988770
vt 0.699747 0.990178
vt 0.702380 0.990884
vt 0.701489 0.992428
vt 0.699561 0.990500
vt 0.698360 0.989806
vt 0.698360 0.990178
vt 0.695726 0.990884
vt 0.695726 0.989101
vt 0.603348 0.986148
vt 0.605982 0.985443
vt 0.601962 0.986148
vt 0.599327 0.985442
vt 0.698546 0.990500
vt 0.696617 0.992428
vt 0.970506 0.316323
vt 0.967886 0.316323
vt 0.967886 0.314540
vt 0.970506 0.314540
vt 0.722396 0.989101
vt 0.722396 0.990884
vt 0.721504 0.992428
vt 0.719960 0.993320
vt 0.718177 0.993320
vt 0.716633 0.992428
vt 0.715741 0.990884
vt 0.715741 0.989101
vt 0.716633 0.987557
vt 0.718177 0.986665
vt 0.719960 0.986665
vt 0.721504 0.987556
vt 0.621779 0.983007
vt 0.623562 0.983007
vt 0.625106 0.983898
vt 0.625998 0.985442
vt 0.625998 0.987226
vt 0.625106 0.988770
vt 0.623562 0.989661
vt 0.621779 0.989661
vt 0.620235 0.988770
vt 0.619343 0.987225
vt 0.619343 0.985442
vt 0.620235 0.983898
vt 0.971328 0.170202
vt 0.971328 0.171985
vt 0.968708 0.171985
vt 0.968708 0.170202
vt 0.970506 0.321672
vt 0.967886 0.321672
vt 0.967886 0.319889
vt 0.970506 0.319889
vt 0.971328 0.154154
vt 0.971328 0.155937
vt 0.968708 0.155937
vt 0.968708 0.154154
vt 0.970506 0.312757
vt 0.967886 0.312757
vt 0.971328 0.166636
vt 0.968708 0.166636
vt 0.970506 0.318106
vt 0.967886 0.318106
vt 0.971328 0.157720
vt 0.968708 0.157720
vt 0.971328 0.159504
vt 0.971328 0.161287
vt 0.968708 0.161287
vt 0.968708 0.159504
vt 0.970506 0.327022
vt 0.967886 0.327022
vt 0.970506 0.323455
vt 0.970506 0.325238
vt 0.967886 0.325238
vt 0.967886 0.323455
vt 0.971328 0.173768
vt 0.968708 0.173768
vt 0.970506 0.310974
vt 0.967886 0.310974
vt 0.971328 0.168419
vt 0.968708 0.168419
vt 0.971328 0.175552
vt 0.968708 0.175552
vt 0.970506 0.309190
vt 0.967886 0.309190
vt 0.753874 0.344525
vt 0.753218 0.320510
vt 0.754446 0.320391
vt 0.755104 0.344492
vt 0.755689 0.320330
vt 0.756287 0.344461
vt 0.756929 0.320288
vt 0.757470 0.344432
vt 0.758169 0.320257
vt 0.758653 0.344406
vt 0.759411 0.320229
vt 0.759835 0.344383
vt 0.760653 0.320206
vt 0.761016 0.344363
vt 0.761896 0.320191
vt 0.762197 0.344346
vt 0.763138 0.320177
vt 0.763377 0.344332
vt 0.764366 0.320161
vt 0.764557 0.344321
vt 0.765615 0.320186
vt 0.765737 0.344313
vt 0.766879 0.320179
vt 0.766915 0.344308
vt 0.768123 0.320185
vt 0.768094 0.344306
vt 0.769350 0.320192
vt 0.769271 0.344307
vt 0.770596 0.320237
vt 0.770449 0.344312
vt 0.771854 0.320249
vt 0.771625 0.344320
vt 0.773081 0.320268
vt 0.772801 0.344331
vt 0.774324 0.320324
vt 0.773977 0.344345
vt 0.775581 0.320352
vt 0.775152 0.344362
vt 0.776819 0.320395
vt 0.776326 0.344382
vt 0.778050 0.320445
vt 0.777499 0.344405
vt 0.779264 0.320494
vt 0.778671 0.344431
vt 0.780493 0.320581
vt 0.779843 0.344459
vt 0.764366 0.319805
vt 0.765616 0.319792
vt 0.781723 0.320643
vt 0.781014 0.344491
vt 0.782911 0.320769
vt 0.782184 0.344525
vt 0.764347 0.310143
vt 0.765639 0.310144
vt 0.770604 0.319844
vt 0.771864 0.319876
vt 0.776837 0.320024
vt 0.778069 0.320078
vt 0.755676 0.319957
vt 0.756919 0.319915
vt 0.761895 0.319818
vt 0.763137 0.319806
vt 0.753143 0.320127
vt 0.754422 0.320010
vt 0.768129 0.319814
vt 0.769357 0.319837
vt 0.774336 0.319932
vt 0.775596 0.319976
vt 0.780516 0.320195
vt 0.781758 0.320282
vt 0.759405 0.319855
vt 0.760650 0.319832
vt 0.766883 0.319801
vt 0.773092 0.319914
vt 0.779284 0.320143
vt 0.758162 0.319884
vt 0.782994 0.320426
vt 0.869864 0.649891
vt 0.871220 0.649068
vt 0.872482 0.652046
vt 0.871843 0.652409
vt 0.755270 0.310305
vt 0.756571 0.310261
vt 0.774676 0.310313
vt 0.775967 0.310361
vt 0.766930 0.310151
vt 0.757871 0.310225
vt 0.777257 0.310416
vt 0.768221 0.310164
vt 0.759169 0.310196
vt 0.778547 0.310477
vt 0.769512 0.310183
vt 0.760466 0.310173
vt 0.779838 0.310546
vt 0.770803 0.310207
vt 0.761761 0.310158
vt 0.781129 0.310623
vt 0.772094 0.310236
vt 0.763055 0.310148
vt 0.782420 0.310707
vt 0.752715 0.310413
vt 0.753969 0.310358
vt 0.773386 0.310272
vt 0.783711 0.310799
vt 0.871783 0.653294
vt 0.872196 0.652872
vt 0.872517 0.653275
vt 0.872200 0.653603
vt 0.879295 0.652366
vt 0.879730 0.653943
vt 0.876441 0.654363
vt 0.876252 0.653611
vt 0.874214 0.660826
vt 0.872626 0.660751
vt 0.873136 0.657584
vt 0.873890 0.657599
vt 0.868780 0.651015
vt 0.871314 0.652935
vt 0.878489 0.650952
vt 0.875862 0.652945
vt 0.875798 0.660477
vt 0.874614 0.657416
vt 0.868000 0.652364
vt 0.870955 0.653586
vt 0.867575 0.655421
vt 0.867603 0.653865
vt 0.870755 0.654299
vt 0.870752 0.655045
vt 0.877330 0.649793
vt 0.875322 0.652414
vt 0.877229 0.659700
vt 0.875280 0.657066
vt 0.867959 0.656930
vt 0.870924 0.655774
vt 0.875901 0.649005
vt 0.874675 0.652025
vt 0.878397 0.658579
vt 0.875837 0.656539
vt 0.868695 0.658305
vt 0.871291 0.656428
vt 0.874345 0.648626
vt 0.873944 0.651824
vt 0.879259 0.657194
vt 0.876227 0.655876
vt 0.869770 0.659463
vt 0.871804 0.656956
vt 0.872758 0.648639
vt 0.873190 0.651835
vt 0.879730 0.655602
vt 0.876428 0.655133
vt 0.871118 0.660296
vt 0.872422 0.657356
vt 0.871347 0.654384
vt 0.871339 0.654975
vt 0.871478 0.655554
vt 0.871763 0.656079
vt 0.872167 0.656514
vt 0.872669 0.656826
vt 0.873235 0.656999
vt 0.873828 0.657013
vt 0.874404 0.656868
vt 0.874926 0.656579
vt 0.875364 0.656164
vt 0.875672 0.655638
vt 0.875840 0.655048
vt 0.875836 0.654431
vt 0.875682 0.653837
vt 0.875381 0.653307
vt 0.874956 0.652879
vt 0.874441 0.652576
vt 0.873866 0.652413
vt 0.873273 0.652420
vt 0.872704 0.652572
vt 0.871493 0.653811
vt 0.871850 0.654914
vt 0.871967 0.655367
vt 0.875180 0.654041
vt 0.874956 0.653630
vt 0.873775 0.656496
vt 0.874217 0.656383
vt 0.871969 0.654004
vt 0.874635 0.653295
vt 0.874616 0.656157
vt 0.947060 0.356311
vt 0.946968 0.356257
vt 0.946893 0.356181
vt 0.946841 0.356087
vt 0.946814 0.355983
vt 0.946816 0.355876
vt 0.946845 0.355774
vt 0.946899 0.355682
vt 0.946975 0.355608
vt 0.947068 0.355555
vt 0.947172 0.355529
vt 0.947279 0.355530
vt 0.947381 0.355559
vt 0.947474 0.355614
vt 0.947549 0.355690
vt 0.947601 0.355783
vt 0.947628 0.355887
vt 0.947628 0.355993
vt 0.947599 0.356096
vt 0.947544 0.356189
vt 0.947467 0.356264
vt 0.947374 0.356316
vt 0.947270 0.356342
vt 0.947163 0.356341
vt 0.874240 0.653057
vt 0.874944 0.655832
vt 0.872191 0.655777
vt 0.871842 0.654450
vt 0.873800 0.652933
vt 0.875173 0.655428
vt 0.872502 0.656116
vt 0.873345 0.652929
vt 0.875285 0.654974
vt 0.872887 0.656358
vt 0.872908 0.653045
vt 0.875294 0.654499
vt 0.873321 0.656488
vt 0.946225 0.358325
vt 0.945640 0.357984
vt 0.946118 0.357369
vt 0.946526 0.357605
vt 0.946879 0.358502
vt 0.946981 0.357731
vt 0.947555 0.358503
vt 0.947455 0.357731
vt 0.948207 0.358332
vt 0.947913 0.357613
vt 0.948796 0.357999
vt 0.948323 0.357377
vt 0.949279 0.357522
vt 0.948661 0.357046
vt 0.949616 0.356932
vt 0.948894 0.356634
vt 0.949788 0.356278
vt 0.949018 0.356176
vt 0.949788 0.355604
vt 0.949018 0.355704
vt 0.949613 0.354953
vt 0.948894 0.355248
vt 0.949276 0.354369
vt 0.948656 0.354839
vt 0.948800 0.353890
vt 0.948324 0.354504
vt 0.948215 0.353551
vt 0.947914 0.354270
vt 0.947564 0.353374
vt 0.947459 0.354143
vt 0.946890 0.353369
vt 0.946988 0.354142
vt 0.946236 0.353541
vt 0.946530 0.354259
vt 0.945648 0.353877
vt 0.946122 0.354498
vt 0.945167 0.354355
vt 0.945786 0.354832
vt 0.944829 0.354943
vt 0.945550 0.355242
vt 0.944656 0.355596
vt 0.945425 0.355698
vt 0.944656 0.356270
vt 0.945427 0.356170
vt 0.944830 0.356921
vt 0.945546 0.356626
vt 0.945165 0.357504
vt 0.945785 0.357034
s 1
f 121/1/1 2/2/1 4/3/2 122/4/2
f 122/4/2 4/3/2 6/5/3 123/6/3
f 123/6/3 6/5/3 8/7/4 124/8/4
f 124/8/4 8/7/4 10/9/5 125/10/5
f 125/10/5 10/9/5 12/11/6 126/12/6
f 126/12/6 12/11/6 14/13/7 127/14/7
f 127/14/7 14/13/7 16/15/8 128/16/8
f 128/16/8 16/15/8 18/17/9 129/18/9
f 129/18/9 18/17/9 20/19/10 130/20/10
f 130/20/10 20/19/10 22/21/11 131/22/11
f 131/22/11 22/21/11 24/23/12 132/24/12
f 132/24/12 24/23/12 26/25/13 133/26/13
f 133/26/13 26/25/13 28/27/14 134/28/14
f 134/28/14 28/27/14 30/29/15 135/30/15
f 135/30/15 30/29/15 32/31/16 136/32/16
f 136/32/16 32/31/16 34/33/17 137/34/17
f 137/34/17 34/33/17 36/35/18 138/36/18
f 138/36/18 36/35/18 38/37/19 139/38/19
f 139/38/19 38/37/19 40/39/20 140/40/20
f 140/40/20 40/39/20 42/41/21 141/42/21
f 141/42/21 42/41/21 44/43/22 142/44/22
f 142/44/22 44/43/22 46/45/23 143/46/23
f 4/47/24 2/48/24 48/49/24 46/50/24 44/51/24 42/52/24 40/53/24 38/54/24 36/55/24 34/56/24 32/57/24 30/58/24 28/59/24 26/60/24 24/61/24 22/62/24 20/63/24 18/64/24 16/65/24 14/66/24 12/67/24 10/68/24 8/69/24 6/70/24
f 143/46/23 46/45/23 48/71/25 144/72/25
f 144/72/25 48/71/25 2/73/1 121/74/1
f 3/75/24 5/76/24 147/77/24 146/78/24
f 47/79/25 72/80/25 49/81/1 1/82/1
f 45/83/23 71/84/23 72/80/25 47/79/25
f 43/85/22 70/86/22 71/84/23 45/83/23
f 41/87/21 69/88/21 70/86/22 43/85/22
f 39/89/20 68/90/20 69/88/21 41/87/21
f 37/91/19 67/92/19 68/90/20 39/89/20
f 35/93/18 66/94/18 67/92/19 37/91/19
f 33/95/17 65/96/17 66/94/18 35/93/18
f 31/97/16 64/98/16 65/96/17 33/95/17
f 29/99/15 63/100/15 64/98/16 31/97/16
f 27/101/14 62/102/14 63/100/15 29/99/15
f 25/103/13 61/104/13 62/102/14 27/101/14
f 23/105/12 60/106/12 61/104/13 25/103/13
f 21/107/11 59/108/11 60/106/12 23/105/12
f 19/109/10 58/110/10 59/108/11 21/107/11
f 17/111/9 57/112/9 58/110/10 19/109/10
f 15/113/8 56/114/8 57/112/9 17/111/9
f 13/115/7 55/116/7 56/114/8 15/113/8
f 11/117/6 54/118/6 55/116/7 13/115/7
f 9/119/5 53/120/5 54/118/6 11/117/6
f 7/121/4 52/122/4 53/120/5 9/119/5
f 5/76/3 51/123/3 52/122/4 7/121/4
f 3/75/2 50/124/2 51/123/3 5/76/3
f 1/82/1 49/81/1 50/124/2 3/75/2
f 72/80/24 96/125/24 73/126/24 49/81/24
f 71/84/24 95/127/24 96/125/24 72/80/24
f 70/86/24 94/128/24 95/127/24 71/84/24
f 69/88/24 93/129/24 94/128/24 70/86/24
f 68/90/24 92/130/24 93/129/24 69/88/24
f 67/92/24 91/131/24 92/130/24 68/90/24
f 66/94/24 90/132/24 91/131/24 67/92/24
f 65/96/24 89/133/24 90/132/24 66/94/24
f 64/98/24 88/134/24 89/133/24 65/96/24
f 63/100/24 87/135/24 88/134/24 64/98/24
f 62/102/24 86/136/24 87/135/24 63/100/24
f 61/104/24 85/137/24 86/136/24 62/102/24
f 60/106/24 84/138/24 85/137/24 61/104/24
f 59/108/24 83/139/24 84/138/24 60/106/24
f 58/110/24 82/140/24 83/139/24 59/108/24
f 57/112/24 81/141/24 82/140/24 58/110/24
f 56/114/24 80/142/24 81/141/24 57/112/24
f 55/116/24 79/143/24 80/142/24 56/114/24
f 54/118/24 78/144/24 79/143/24 55/116/24
f 53/120/24 77/145/24 78/144/24 54/118/24
f 52/122/24 76/146/24 77/145/24 53/120/24
f 51/123/24 75/147/24 76/146/24 52/122/24
f 50/124/24 74/148/24 75/147/24 51/123/24
f 49/81/24 73/126/24 74/148/24 50/124/24
f 96/125/25 120/149/25 97/150/1 73/126/1
f 95/127/23 119/151/23 120/149/25 96/125/25
f 94/128/22 118/152/22 119/151/23 95/127/23
f 93/129/21 117/153/21 118/152/22 94/128/22
f 92/130/20 116/154/20 117/153/21 93/129/21
f 91/131/19 115/155/19 116/154/20 92/130/20
f 90/132/18 114/156/18 115/155/19 91/131/19
f 89/133/17 113/157/17 114/156/18 90/132/18
f 88/134/16 112/158/16 113/157/17 89/133/17
f 87/135/15 111/159/15 112/158/16 88/134/16
f 86/136/14 110/160/14 111/159/15 87/135/15
f 85/137/13 109/161/13 110/160/14 86/136/14
f 84/138/12 108/162/12 109/161/13 85/137/13
f 83/139/11 107/163/11 108/162/12 84/138/12
f 82/140/10 106/164/10 107/163/11 83/139/11
f 81/141/9 105/165/9 106/164/10 82/140/10
f 80/142/8 104/166/8 105/165/9 81/141/9
f 79/143/7 103/167/7 104/166/8 80/142/8
f 78/144/6 102/168/6 103/167/7 79/143/7
f 77/145/5 101/169/5 102/168/6 78/144/6
f 76/146/4 100/170/4 101/169/5 77/145/5
f 75/147/3 99/171/3 100/170/4 76/146/4
f 74/148/2 98/172/2 99/171/3 75/147/3
f 73/126/1 97/150/1 98/172/2 74/148/2
f 120/149/24 144/173/24 121/174/24 97/150/24
f 119/151/24 143/175/24 144/173/24 120/149/24
f 118/152/24 142/176/24 143/175/24 119/151/24
f 117/153/24 141/177/24 142/176/24 118/152/24
f 116/154/24 140/178/24 141/177/24 117/153/24
f 115/155/24 139/179/24 140/178/24 116/154/24
f 114/156/24 138/180/24 139/179/24 115/155/24
f 113/157/24 137/181/24 138/180/24 114/156/24
f 112/158/24 136/182/24 137/181/24 113/157/24
f 111/159/24 135/183/24 136/182/24 112/158/24
f 110/160/24 134/184/24 135/183/24 111/159/24
f 109/161/24 133/185/24 134/184/24 110/160/24
f 108/162/24 132/186/24 133/185/24 109/161/24
f 107/163/24 131/187/24 132/186/24 108/162/24
f 106/164/24 130/188/24 131/187/24 107/163/24
f 105/165/24 129/189/24 130/188/24 106/164/24
f 104/166/24 128/190/24 129/189/24 105/165/24
f 103/167/24 127/191/24 128/190/24 104/166/24
f 102/168/24 126/192/24 127/191/24 103/167/24
f 101/169/24 125/193/24 126/192/24 102/168/24
f 100/170/24 124/194/24 125/193/24 101/169/24
f 99/171/24 123/195/24 124/194/24 100/170/24
f 98/172/24 122/196/24 123/195/24 99/171/24
f 97/150/24 121/174/24 122/196/24 98/172/24
f 166/197/22 167/198/23 191/199/23 190/200/22
f 13/115/24 15/113/24 152/201/24 151/202/24
f 23/105/24 25/103/24 157/203/24 156/204/24
f 33/95/24 35/93/24 162/205/24 161/206/24
f 43/85/24 45/83/24 167/207/24 166/208/24
f 9/119/24 11/117/24 150/209/24 149/210/24
f 19/109/24 21/107/24 155/211/24 154/212/24
f 29/99/24 31/97/24 160/213/24 159/214/24
f 39/89/24 41/87/24 165/215/24 164/216/24
f 5/76/24 7/121/24 148/217/24 147/77/24
f 15/113/24 17/111/24 153/218/24 152/201/24
f 1/82/24 3/75/24 146/78/24 145/219/24
f 25/103/24 27/101/24 158/220/24 157/203/24
f 35/93/24 37/91/24 163/221/24 162/205/24
f 45/83/24 47/79/24 168/222/24 167/207/24
f 11/117/24 13/115/24 151/202/24 150/209/24
f 21/107/24 23/105/24 156/204/24 155/211/24
f 31/97/24 33/95/24 161/206/24 160/213/24
f 41/87/24 43/85/24 166/208/24 165/215/24
f 7/121/24 9/119/24 149/210/24 148/217/24
f 17/111/24 19/109/24 154/212/24 153/218/24
f 27/101/24 29/99/24 159/214/24 158/220/24
f 37/91/24 39/89/24 164/216/24 163/221/24
f 47/79/24 1/82/24 145/219/24 168/222/24
f 159/223/15 160/224/16 184/225/16 183/226/15
f 152/227/8 153/228/9 177/229/9 176/230/8
f 167/198/23 168/231/25 192/232/25 191/199/23
f 145/233/1 146/234/2 170/235/2 169/236/1
f 160/224/16 161/237/17 185/238/17 184/225/16
f 153/228/9 154/239/10 178/240/10 177/229/9
f 168/231/25 145/233/1 169/236/1 192/232/25
f 146/234/2 147/241/3 171/242/3 170/235/2
f 161/237/17 162/243/18 186/244/18 185/238/17
f 154/239/10 155/245/11 179/246/11 178/240/10
f 147/241/3 148/247/4 172/248/4 171/242/3
f 162/243/18 163/249/19 187/250/19 186/244/18
f 155/245/11 156/251/12 180/252/12 179/246/11
f 148/247/4 149/253/5 173/254/5 172/248/4
f 163/249/19 164/255/20 188/256/20 187/250/19
f 156/251/12 157/257/13 181/258/13 180/252/12
f 149/253/5 150/259/6 174/260/6 173/254/5
f 164/255/20 165/261/21 189/262/21 188/256/20
f 157/257/13 158/263/14 182/264/14 181/258/13
f 150/259/6 151/265/7 175/266/7 174/260/6
f 165/261/21 166/197/22 190/200/22 189/262/21
f 158/263/14 159/223/15 183/226/15 182/264/14
f 151/265/7 152/227/8 176/230/8 175/266/7
f 196/267/26 198/268/27 197/269/27 195/270/26
f 198/268/27 200/271/13 199/272/13 197/269/27
f 200/271/13 202/273/28 201/274/28 199/272/13
f 202/273/28 204/275/29 203/276/29 201/274/28
f 204/275/29 206/277/30 205/278/30 203/276/29
f 206/277/30 208/279/31 207/280/31 205/278/30
f 208/279/31 210/281/32 209/282/32 207/280/31
f 210/281/32 212/283/1 211/284/1 209/282/32
f 212/285/1 214/286/33 213/287/33 211/288/1
f 214/286/33 216/289/34 215/290/34 213/287/33
f 216/289/34 194/291/24 193/292/24 215/290/34
s 0
f 201/293/19 203/294/19 227/295/19 225/296/19
f 194/297/7 216/298/7 240/299/7 218/300/7
f 196/301/7 194/297/7 218/300/7 220/302/7
f 238/303/35 236/304/35 260/305/35 262/306/35
f 221/307/36 223/308/36 247/309/36 245/310/36
f 211/311/19 213/312/19 237/313/19 235/314/19
f 202/315/7 226/316/7 228/317/7 204/318/7
f 214/319/7 212/320/7 236/321/7 238/322/7
f 197/323/19 199/324/19 223/325/19 221/326/19
f 207/327/19 209/328/19 233/329/19 231/330/19
f 215/331/19 193/332/19 217/333/19 239/334/19
f 198/335/7 222/336/7 224/337/7 200/338/7
f 210/339/7 208/340/7 232/341/7 234/342/7
f 193/332/19 195/343/19 219/344/19 217/333/19
f 203/294/19 205/345/19 229/346/19 227/295/19
f 206/347/7 204/318/7 228/317/7 230/348/7
f 199/324/19 201/293/19 225/296/19 223/325/19
f 202/315/7 200/338/7 224/337/7 226/316/7
f 195/343/19 197/323/19 221/326/19 219/344/19
f 213/312/19 215/331/19 239/334/19 237/313/19
f 198/335/7 196/301/7 220/302/7 222/336/7
f 216/298/7 214/319/7 238/322/7 240/299/7
f 209/328/19 211/311/19 235/314/19 233/329/19
f 212/320/7 210/339/7 234/342/7 236/321/7
f 205/345/19 207/327/19 231/330/19 229/346/19
f 208/340/7 206/347/7 230/348/7 232/341/7
f 228/349/37 252/350/37 254/351/37 230/352/37
f 242/353/19 264/354/19 262/355/19 260/356/19 258/357/19 256/358/19 254/359/19 252/360/19 250/361/19 248/362/19 246/363/19 244/364/19
f 241/365/7 243/366/7 245/367/7 247/368/7 249/369/7 251/370/7 253/371/7 255/372/7 257/373/7 259/374/7 261/375/7 263/376/7
f 229/377/38 231/378/38 255/379/38 253/380/38
f 222/381/36 246/382/36 248/383/36 224/384/36
f 235/385/35 237/386/35 261/387/35 259/388/35
f 232/389/38 230/352/38 254/351/38 256/390/38
f 223/308/39 225/391/39 249/392/39 247/309/39
f 226/393/39 224/384/39 248/383/39 250/394/39
f 237/386/40 239/395/40 263/396/40 261/387/40
f 217/397/41 219/398/41 243/399/41 241/400/41
f 240/401/40 238/303/40 262/306/40 264/402/40
f 220/403/41 218/404/41 242/405/41 244/406/41
f 231/378/42 233/407/42 257/408/42 255/379/42
f 234/409/42 232/389/42 256/390/42 258/410/42
f 225/391/43 227/411/43 251/412/43 249/392/43
f 228/349/43 226/393/43 250/394/43 252/350/43
f 239/395/44 217/397/44 241/400/44 263/396/44
f 219/398/45 221/307/45 245/310/45 243/399/45
f 218/404/44 240/401/44 264/402/44 242/405/44
f 222/381/45 220/403/45 244/406/45 246/382/45
f 233/407/46 235/413/46 259/414/46 257/408/46
f 236/415/46 234/409/46 258/410/46 260/416/46
f 227/411/37 229/377/37 253/380/37 251/412/37
s 1
f 194/291/24 196/267/26 195/270/26 193/292/24
f 265/417/1 266/418/1 268/419/2 267/420/2
f 267/420/2 268/419/2 270/421/3 269/422/3
f 269/422/3 270/421/3 272/423/4 271/424/4
f 271/424/4 272/423/4 274/425/5 273/426/5
f 273/426/5 274/425/5 276/427/6 275/428/6
f 275/428/6 276/427/6 278/429/7 277/430/7
f 277/430/7 278/429/7 280/431/8 279/432/8
f 279/432/8 280/431/8 282/433/9 281/434/9
f 281/434/9 282/433/9 284/435/10 283/436/10
f 283/436/10 284/435/10 286/437/11 285/438/11
f 285/438/11 286/437/11 288/439/12 287/440/12
f 287/440/12 288/439/12 290/441/13 289/442/13
f 289/442/13 290/441/13 292/443/14 291/444/14
f 291/444/14 292/443/14 294/445/15 293/446/15
f 293/446/15 294/445/15 296/447/16 295/448/16
f 295/448/16 296/447/16 298/449/17 297/450/17
f 297/450/17 298/449/17 300/451/18 299/452/18
f 299/452/18 300/451/18 302/453/19 301/454/19
f 301/454/19 302/453/19 304/455/20 303/456/20
f 303/456/20 304/455/20 306/457/21 305/458/21
f 305/458/21 306/457/21 308/459/22 307/460/22
f 307/460/22 308/459/22 310/461/23 309/462/23
f 286/437/47 284/435/30 322/463/30 323/464/47
f 309/462/23 310/461/23 312/465/25 311/466/25
f 311/466/25 312/465/25 266/467/1 265/468/1
f 323/464/11 322/463/10 346/469/10 347/470/11
f 296/447/30 294/445/47 327/471/47 328/472/30
f 306/457/30 304/455/30 332/473/30 333/474/30
f 272/423/30 270/421/48 315/475/48 316/476/30
f 282/433/30 280/431/30 320/477/30 321/478/30
f 268/419/49 266/418/30 314/479/30 313/480/49
f 292/443/50 290/441/30 325/481/30 326/482/50
f 302/453/30 300/451/30 330/483/30 331/484/30
f 312/465/49 310/461/48 335/485/48 336/486/49
f 278/429/30 276/427/30 318/487/30 319/488/30
f 288/439/50 286/437/47 323/464/47 324/489/50
f 298/449/30 296/447/30 328/472/30 329/490/30
f 308/459/30 306/457/30 333/474/30 334/491/30
f 274/425/30 272/423/30 316/476/30 317/492/30
f 284/435/30 282/433/30 321/478/30 322/463/30
f 294/445/47 292/443/50 326/482/50 327/471/47
f 304/455/30 302/453/30 331/484/30 332/473/30
f 266/467/30 312/465/49 336/486/49 314/493/30
f 270/421/48 268/419/49 313/480/49 315/475/48
f 280/431/30 278/429/30 319/488/30 320/477/30
f 290/441/30 288/439/50 324/489/50 325/481/30
f 300/451/30 298/449/30 329/490/30 330/483/30
f 310/461/48 308/459/30 334/491/30 335/485/48
f 276/427/30 274/425/30 317/492/30 318/487/30
f 358/494/51 357/495/52 405/496/52 406/497/51
f 316/476/4 315/475/3 339/498/3 340/499/4
f 331/484/19 330/483/18 354/500/18 355/501/19
f 324/489/12 323/464/11 347/470/11 348/502/12
f 317/492/5 316/476/4 340/499/4 341/503/5
f 332/473/20 331/484/19 355/501/19 356/504/20
f 325/481/13 324/489/12 348/502/12 349/505/13
f 318/487/6 317/492/5 341/503/5 342/506/6
f 333/474/21 332/473/20 356/504/20 357/507/21
f 326/482/14 325/481/13 349/505/13 350/508/14
f 319/488/7 318/487/6 342/506/6 343/509/7
f 334/491/22 333/474/21 357/507/21 358/510/22
f 327/471/15 326/482/14 350/508/14 351/511/15
f 320/477/8 319/488/7 343/509/7 344/512/8
f 335/485/23 334/491/22 358/510/22 359/513/23
f 328/472/16 327/471/15 351/511/15 352/514/16
f 321/478/9 320/477/8 344/512/8 345/515/9
f 336/486/25 335/485/23 359/513/23 360/516/25
f 313/480/2 314/479/1 338/517/1 337/518/2
f 329/490/17 328/472/16 352/514/16 353/519/17
f 322/463/10 321/478/9 345/515/9 346/469/10
f 314/493/1 336/486/25 360/516/25 338/520/1
f 315/475/3 313/480/2 337/518/2 339/498/3
f 330/483/18 329/490/17 353/519/17 354/500/18
f 383/521/11 382/522/10 473/523/10 476/524/11
f 351/525/53 350/526/54 398/527/54 399/528/53
f 344/529/55 343/530/56 391/531/56 392/532/55
f 359/533/57 358/494/51 406/497/51 407/534/57
f 352/535/58 351/525/53 399/528/53 400/536/58
f 345/537/59 344/529/55 392/532/55 393/538/59
f 360/539/60 359/533/57 407/534/57 408/540/60
f 337/541/61 338/542/62 386/543/62 385/544/61
f 353/545/63 352/535/58 400/536/58 401/546/63
f 346/547/64 345/537/59 393/538/59 394/548/64
f 338/542/62 360/539/60 408/540/60 386/543/62
f 339/549/65 337/541/61 385/544/61 387/550/65
f 354/551/66 353/545/63 401/546/63 402/552/66
f 347/553/67 346/547/64 394/548/64 395/554/67
f 340/555/68 339/549/65 387/550/65 388/556/68
f 355/557/69 354/551/66 402/552/66 403/558/69
f 348/559/70 347/553/67 395/554/67 396/560/70
f 341/561/71 340/555/68 388/556/68 389/562/71
f 356/563/72 355/557/69 403/558/69 404/564/72
f 349/565/73 348/559/70 396/560/70 397/566/73
f 342/567/74 341/561/71 389/562/71 390/568/74
f 357/495/52 356/563/72 404/564/72 405/496/52
f 350/526/54 349/565/73 397/566/73 398/527/54
f 343/530/56 342/567/74 390/568/74 391/531/56
f 362/569/24 361/570/24 385/544/24 386/543/24
f 361/570/24 363/571/24 387/550/24 385/544/24
f 363/571/24 364/572/24 388/556/24 387/550/24
f 364/572/24 365/573/24 389/562/24 388/556/24
f 365/573/24 366/574/24 390/568/24 389/562/24
f 366/574/24 367/575/24 391/531/24 390/568/24
f 367/575/24 368/576/24 392/532/24 391/531/24
f 368/576/24 369/577/24 393/538/24 392/532/24
f 369/577/24 370/578/24 394/548/24 393/538/24
f 370/578/24 371/579/24 395/554/24 394/548/24
f 371/579/24 372/580/24 396/560/24 395/554/24
f 372/580/24 373/581/24 397/566/24 396/560/24
f 373/581/24 374/582/24 398/527/24 397/566/24
f 374/582/24 375/583/24 399/528/24 398/527/24
f 375/583/24 376/584/24 400/536/24 399/528/24
f 376/584/24 377/585/24 401/546/24 400/536/24
f 377/585/24 378/586/24 402/552/24 401/546/24
f 378/586/24 379/587/24 403/558/24 402/552/24
f 379/587/24 380/588/24 404/564/24 403/558/24
f 380/588/24 381/589/24 405/496/24 404/564/24
f 381/589/24 382/522/24 406/497/24 405/496/24
f 382/522/24 383/521/24 407/534/24 406/497/24
f 383/521/24 384/590/24 408/540/24 407/534/24
f 384/590/24 362/569/24 386/543/24 408/540/24
f 363/571/15 361/570/14 410/591/14 416/592/15
f 376/584/4 375/583/3 452/593/3 455/594/4
f 369/577/21 368/576/20 431/595/20 434/596/21
f 384/590/12 383/521/11 476/524/11 479/597/12
f 377/585/5 376/584/4 455/594/4 458/598/5
f 370/578/22 369/577/21 434/596/21 437/599/22
f 409/600/75 413/601/76 478/602/77 475/603/78 472/604/79 469/605/80 466/606/81 463/607/82 460/608/83 457/609/84 454/610/85 451/611/86 448/612/87 445/613/88 442/614/89 439/615/90 436/616/91 433/617/92 430/618/93 427/619/94 424/620/95 421/621/96 418/622/97 415/623/98
f 378/586/6 377/585/5 458/598/5 461/624/6
f 371/579/23 370/578/22 437/599/22 440/625/23
f 364/572/16 363/571/15 416/592/15 419/626/16
f 362/569/13 384/590/12 479/597/12 412/627/13
f 379/587/7 378/586/6 461/624/6 464/628/7
f 372/580/25 371/579/23 440/625/23 443/629/25
f 365/573/17 364/572/16 419/626/16 422/630/17
f 380/588/8 379/587/7 464/628/7 467/631/8
f 373/581/1 372/580/25 443/629/25 446/632/1
f 366/574/18 365/573/17 422/630/17 425/633/18
f 381/589/9 380/588/8 467/631/8 470/634/9
f 374/582/2 373/581/1 446/632/1 449/635/2
f 367/575/19 366/574/18 425/633/18 428/636/19
f 382/522/10 381/589/9 470/634/9 473/523/10
f 375/583/3 374/582/2 449/635/2 452/593/3
f 368/576/20 367/575/19 428/636/19 431/595/20
f 410/637/99 412/638/100 414/639/101 411/640/102
f 411/640/102 414/639/101 413/601/76 409/600/75
f 416/641/103 410/637/99 411/640/102 417/642/104
f 417/642/104 411/640/102 409/600/75 415/623/98
f 419/643/105 416/641/103 417/642/104 420/644/106
f 420/644/106 417/642/104 415/623/98 418/622/97
f 422/645/107 419/643/105 420/644/106 423/646/108
f 423/646/108 420/644/106 418/622/97 421/621/96
f 425/647/109 422/645/107 423/646/108 426/648/110
f 426/648/110 423/646/108 421/621/96 424/620/95
f 428/649/111 425/647/109 426/648/110 429/650/112
f 429/650/112 426/648/110 424/620/95 427/619/94
f 431/651/113 428/649/111 429/650/112 432/652/114
f 432/652/114 429/650/112 427/619/94 430/618/93
f 434/653/115 431/651/113 432/652/114 435/654/116
f 435/654/116 432/652/114 430/618/93 433/617/92
f 437/655/117 434/653/115 435/654/116 438/656/118
f 438/656/118 435/654/116 433/617/92 436/616/91
f 440/657/119 437/655/117 438/656/118 441/658/120
f 441/658/120 438/656/118 436/616/91 439/615/90
f 443/659/121 440/657/119 441/658/120 444/660/122
f 444/660/122 441/658/120 439/615/90 442/614/89
f 446/661/123 443/659/121 444/660/122 447/662/124
f 447/662/124 444/660/122 442/614/89 445/613/88
f 449/663/125 446/661/123 447/662/124 450/664/126
f 450/664/126 447/662/124 445/613/88 448/612/87
f 452/665/127 449/663/125 450/664/126 453/666/128
f 453/666/128 450/664/126 448/612/87 451/611/86
f 455/667/129 452/665/127 453/666/128 456/668/130
f 456/668/130 453/666/128 451/611/86 454/610/85
f 458/669/131 455/667/129 456/668/130 459/670/132
f 459/670/132 456/668/130 454/610/85 457/609/84
f 461/671/133 458/669/131 459/670/132 462/672/134
f 462/672/134 459/670/132 457/609/84 460/608/83
f 464/673/135 461/671/133 462/672/134 465/674/136
f 465/674/136 462/672/134 460/608/83 463/607/82
f 467/675/137 464/673/135 465/674/136 468/676/138
f 468/676/138 465/674/136 463/607/82 466/606/81
f 470/677/139 467/675/137 468/676/138 471/678/140
f 471/678/140 468/676/138 466/606/81 469/605/80
f 473/679/141 470/677/139 471/678/140 474/680/142
f 474/680/142 471/678/140 469/605/80 472/604/79
f 476/681/143 473/679/141 474/680/142 477/682/144
f 477/682/144 474/680/142 472/604/79 475/603/78
f 479/683/145 476/681/143 477/682/144 480/684/146
f 480/684/146 477/682/144 475/603/78 478/602/77
f 412/638/100 479/683/145 480/684/146 414/639/101
f 414/639/101 480/684/146 478/602/77 413/601/76
f 361/570/14 362/569/13 412/627/13 410/591/14
