# Blender 4.1.1
# www.blender.org
o Telescope_GreatRefractor_PlateCarrier
v -0.055619 -0.096334 -4.956327
v -0.078657 -0.078657 -4.956327
v -0.096334 -0.055619 -4.956327
v -0.107447 -0.028790 -4.956327
v -0.111237 -0.000000 -4.956327
v -0.107447 0.028790 -4.956327
v -0.096334 0.055619 -4.956327
v -0.078657 0.078657 -4.956327
v -0.055619 0.096334 -4.956327
v -0.028790 0.107447 -4.956327
v -0.000000 0.111237 -4.956327
v 0.028790 0.107447 -4.956327
v 0.055618 0.096334 -4.956327
v 0.078656 0.078657 -4.956327
v 0.096334 0.055619 -4.956327
v 0.107447 0.028790 -4.956327
v 0.111237 -0.000000 -4.956327
v 0.107447 -0.028790 -4.956327
v 0.096334 -0.055619 -4.956327
v 0.078656 -0.078657 -4.956327
v 0.055618 -0.096334 -4.956327
v 0.028790 -0.107447 -4.956327
v -0.000000 -0.111237 -4.956327
v -0.028790 -0.107447 -4.956327
v -0.032135 -0.119929 -4.887996
v -0.062080 -0.107525 -4.887996
v -0.087794 -0.087794 -4.887996
v -0.107525 -0.062080 -4.887996
v -0.119929 -0.032135 -4.887996
v -0.124160 -0.000000 -4.887996
v -0.119929 0.032135 -4.887996
v -0.107525 0.062080 -4.887996
v -0.087794 0.087794 -4.887996
v -0.062080 0.107525 -4.887996
v -0.032135 0.119929 -4.887996
v 0.000000 0.124160 -4.887996
v 0.032135 0.119929 -4.887996
v 0.062080 0.107525 -4.887996
v 0.087794 0.087794 -4.887996
v 0.107525 0.062080 -4.887996
v 0.119929 0.032135 -4.887996
v 0.124160 -0.000000 -4.887996
v 0.119929 -0.032135 -4.887996
v 0.107525 -0.062080 -4.887996
v 0.087794 -0.087794 -4.887996
v 0.062080 -0.107525 -4.887996
v 0.032135 -0.119929 -4.887996
v 0.000000 -0.124160 -4.887996
v 0.000000 -0.114876 -4.887996
v 0.029732 -0.110962 -4.887996
v 0.057438 -0.099486 -4.887996
v 0.081230 -0.081230 -4.887996
v 0.099486 -0.057438 -4.887996
v 0.110962 -0.029732 -4.887996
v 0.114876 -0.000000 -4.887996
v 0.110962 0.029732 -4.887996
v 0.099486 0.057438 -4.887996
v 0.081230 0.081230 -4.887996
v 0.057438 0.099486 -4.887996
v 0.029732 0.110962 -4.887996
v 0.000000 0.114876 -4.887996
v -0.029732 0.110962 -4.887996
v -0.057438 0.099486 -4.887996
v -0.081230 0.081230 -4.887996
v -0.099486 0.057438 -4.887996
v -0.110962 0.029732 -4.887996
v -0.114876 -0.000000 -4.887996
v -0.110962 -0.029732 -4.887996
v -0.099486 -0.057438 -4.887996
v -0.081230 -0.081230 -4.887996
v -0.057438 -0.099486 -4.887996
v -0.029732 -0.110962 -4.887996
v -0.000000 -0.114876 -4.840626
v 0.029732 -0.110962 -4.840626
v 0.057438 -0.099486 -4.840626
v 0.081230 -0.081230 -4.840626
v 0.099486 -0.057438 -4.840626
v 0.110962 -0.029732 -4.840626
v 0.114876 -0.000000 -4.840626
v 0.110962 0.029732 -4.840626
v 0.099486 0.057438 -4.840626
v 0.081230 0.081230 -4.840626
v 0.057438 0.099486 -4.840626
v 0.029732 0.110962 -4.840626
v -0.000000 0.114876 -4.840626
v -0.029732 0.110962 -4.840626
v -0.057438 0.099486 -4.840626
v -0.081230 0.081230 -4.840626
v -0.099486 0.057438 -4.840626
v -0.110962 0.029732 -4.840626
v -0.114876 -0.000000 -4.840626
v -0.110962 -0.029732 -4.840626
v -0.099486 -0.057438 -4.840626
v -0.081230 -0.081230 -4.840626
v -0.057438 -0.099486 -4.840626
v -0.029732 -0.110962 -4.840626
v -0.119929 -0.032135 -4.956327
v -0.107526 -0.062080 -4.956327
v -0.119929 0.032135 -4.956327
v -0.124160 -0.000000 -4.956327
v -0.087794 0.087794 -4.956327
v -0.107526 0.062080 -4.956327
v -0.032135 0.119929 -4.956327
v -0.062080 0.107525 -4.956327
v 0.032135 0.119929 -4.956327
v -0.000000 0.124160 -4.956327
v 0.087794 0.087794 -4.956327
v 0.062080 0.107525 -4.956327
v 0.119929 0.032135 -4.956327
v 0.107525 0.062080 -4.956327
v 0.119929 -0.032135 -4.956327
v 0.124160 -0.000000 -4.956327
v 0.087794 -0.087794 -4.956327
v 0.107525 -0.062080 -4.956327
v 0.032135 -0.119929 -4.956327
v 0.062080 -0.107525 -4.956327
v -0.032135 -0.119929 -4.956327
v -0.000000 -0.124160 -4.956327
v -0.062080 -0.107525 -4.956327
v -0.087794 -0.087794 -4.956327
v -0.107447 -0.028790 -4.945623
v -0.096334 -0.055619 -4.945623
v -0.107447 0.028790 -4.945623
v -0.111237 -0.000000 -4.945623
v -0.078657 0.078657 -4.945623
v -0.096334 0.055619 -4.945623
v -0.028790 0.107447 -4.945623
v -0.055619 0.096334 -4.945623
v 0.028790 0.107447 -4.945623
v -0.000000 0.111237 -4.945623
v 0.078656 0.078657 -4.945623
v 0.055618 0.096334 -4.945623
v 0.107447 0.028790 -4.945623
v 0.096334 0.055619 -4.945623
v 0.107447 -0.028790 -4.945623
v 0.111237 -0.000000 -4.945623
v 0.078656 -0.078657 -4.945623
v 0.096334 -0.055619 -4.945623
v 0.028790 -0.107447 -4.945623
v 0.055618 -0.096334 -4.945623
v -0.028790 -0.107447 -4.945623
v -0.000000 -0.111237 -4.945623
v -0.055619 -0.096334 -4.945623
v -0.078657 -0.078657 -4.945623
v -0.068669 -0.068669 -4.942950
v -0.068669 0.068669 -4.942950
v -0.061620 -0.055024 -4.957333
v -0.061620 0.055024 -4.957333
v 0.068669 -0.068669 -4.942950
v 0.068669 0.068669 -4.942950
v 0.061620 -0.055024 -4.957333
v 0.061620 0.055024 -4.957333
v -0.068669 0.068669 -4.957333
v -0.068669 -0.068669 -4.957333
v 0.068669 -0.068669 -4.957333
v 0.068669 0.068669 -4.957333
v -0.056764 0.049570 -4.964910
v -0.056764 -0.049570 -4.964910
v 0.056764 -0.049570 -4.964910
v 0.056764 0.049570 -4.964910
v -0.061620 0.055024 -4.964910
v -0.061620 -0.055024 -4.964910
v 0.061620 -0.055024 -4.964910
v 0.061620 0.055024 -4.964910
v -0.052051 0.045455 -4.958573
v -0.052051 -0.045455 -4.958573
v 0.052051 -0.045455 -4.958573
v 0.052051 0.045455 -4.958573
v -0.009769 0.082432 -4.943141
v -0.009769 0.082432 -4.962817
v 0.009769 0.082432 -4.943141
v 0.009769 0.082432 -4.962817
v -0.009769 0.064013 -4.943141
v -0.003285 0.057530 -4.943141
v -0.003285 0.057530 -4.962817
v -0.009769 0.064013 -4.962817
v 0.003285 0.057530 -4.943141
v 0.009769 0.064013 -4.943141
v 0.009769 0.064013 -4.962817
v 0.003285 0.057530 -4.962817
vn 0.2588 0.9659 -0.0000
vn 0.5000 0.8660 -0.0000
vn -1.0000 -0.0000 -0.0000
vn -0.9659 0.2588 -0.0000
vn 0.8660 -0.5000 -0.0000
vn 0.7071 -0.7071 -0.0000
vn -0.5000 0.8660 -0.0000
vn -0.2588 0.9659 -0.0000
vn -0.9659 -0.2588 -0.0000
vn -0.0000 1.0000 -0.0000
vn 0.9659 -0.2588 -0.0000
vn -0.8660 -0.5000 -0.0000
vn 1.0000 -0.0000 -0.0000
vn -0.7071 -0.7071 -0.0000
vn 0.9659 0.2588 -0.0000
vn -0.5000 -0.8660 -0.0000
vn -0.0000 -1.0000 -0.0000
vn -0.2588 -0.9659 -0.0000
vn -0.7071 0.7071 -0.0000
vn 0.8660 0.5000 -0.0000
vn 0.2588 -0.9659 -0.0000
vn -0.8660 0.5000 -0.0000
vn 0.7071 0.7071 -0.0000
vn 0.5000 -0.8660 -0.0000
vn -0.0000 -0.0000 1.0000
vn -0.0000 -0.0000 -1.0000
vn -0.8024 -0.0000 -0.5968
vn -0.0000 0.8386 -0.5447
vn -0.0000 -0.8386 -0.5447
vn 0.8024 -0.0000 -0.5968
vt 0.026215 0.851670
vt 0.025924 0.847157
vt 0.035756 0.846362
vt 0.036027 0.851254
vt 0.023279 0.882947
vt 0.024245 0.878508
vt 0.033794 0.880333
vt 0.032805 0.885117
vt 0.020927 0.820444
vt 0.019580 0.816085
vt 0.028822 0.812907
vt 0.030310 0.817536
vt 0.469274 0.346957
vt 0.467232 0.343128
vt 0.468601 0.342585
vt 0.470529 0.346041
vt 0.022220 0.887311
vt 0.031606 0.889832
vt 0.026255 0.856217
vt 0.036109 0.856175
vt 0.022198 0.824814
vt 0.031652 0.822223
vt 0.020987 0.891610
vt 0.030275 0.894444
vt 0.026231 0.860724
vt 0.035968 0.861060
vt 0.023226 0.829239
vt 0.032833 0.826971
vt 0.019601 0.895925
vt 0.028820 0.899038
vt 0.025975 0.865221
vt 0.035687 0.865886
vt 0.024230 0.833677
vt 0.033852 0.831774
vt 0.017962 0.900174
vt 0.027199 0.903630
vt 0.014090 0.908617
vt 0.016224 0.904414
vt 0.025411 0.908208
vt 0.023451 0.912771
vt 0.025537 0.869682
vt 0.035241 0.870709
vt 0.024968 0.838201
vt 0.034682 0.836630
vt 0.016281 0.807556
vt 0.014239 0.803258
vt 0.023513 0.799344
vt 0.025370 0.803743
vt 0.024912 0.874068
vt 0.034620 0.875534
vt 0.025541 0.842697
vt 0.035312 0.841495
vt 0.017944 0.811818
vt 0.027183 0.808294
vt 0.018255 0.816543
vt 0.016744 0.812280
vt 0.021983 0.882646
vt 0.022879 0.878249
vt 0.024824 0.851714
vt 0.024657 0.847246
vt 0.019694 0.820815
vt 0.020945 0.886968
vt 0.024916 0.856215
vt 0.020849 0.825167
vt 0.019770 0.891233
vt 0.024900 0.860674
vt 0.021968 0.829526
vt 0.018290 0.895460
vt 0.024656 0.865111
vt 0.022858 0.833938
vt 0.016764 0.899699
vt 0.024234 0.869521
vt 0.023636 0.838391
vt 0.014966 0.903834
vt 0.015015 0.808107
vt 0.013042 0.804039
vt 0.023670 0.873877
vt 0.024221 0.842836
vt 0.012989 0.907863
vt 0.010276 0.897003
vt 0.011806 0.893076
vt 0.017440 0.868680
vt 0.017831 0.864537
vt 0.016743 0.839486
vt 0.016011 0.835250
vt 0.008555 0.900909
vt 0.008527 0.810983
vt 0.006680 0.806955
vt 0.016881 0.872794
vt 0.017335 0.843684
vt 0.006680 0.904902
vt 0.010204 0.814920
vt 0.016156 0.876922
vt 0.017759 0.847857
vt 0.011698 0.818895
vt 0.015301 0.881053
vt 0.018009 0.852046
vt 0.013030 0.822915
vt 0.014316 0.885127
vt 0.018121 0.856229
vt 0.014182 0.826975
vt 0.013164 0.889116
vt 0.018060 0.860381
vt 0.015182 0.831074
vt 0.476247 0.320159
vt 0.472377 0.322564
vt 0.471136 0.320952
vt 0.475494 0.318322
vt 0.485085 0.319061
vt 0.480634 0.319088
vt 0.480410 0.317121
vt 0.485362 0.317121
vt 0.493328 0.322397
vt 0.489425 0.320239
vt 0.490182 0.318424
vt 0.494508 0.320841
vt 0.498818 0.329396
vt 0.496535 0.325504
vt 0.498062 0.324303
vt 0.500667 0.328606
vt 0.500090 0.338315
vt 0.500071 0.333798
vt 0.502013 0.333518
vt 0.502072 0.338522
vt 0.497012 0.346646
vt 0.499148 0.342659
vt 0.500970 0.343335
vt 0.498664 0.347818
vt 0.489843 0.352516
vt 0.493862 0.350011
vt 0.495150 0.351584
vt 0.490674 0.354437
vt 0.480621 0.353672
vt 0.485260 0.353730
vt 0.485515 0.355756
vt 0.480322 0.355695
vt 0.472353 0.350136
vt 0.476213 0.352439
vt 0.475434 0.354247
vt 0.471120 0.351680
vt 0.467742 0.348078
vt 0.465435 0.343847
vt 0.465934 0.334409
vt 0.466076 0.338903
vt 0.464184 0.339185
vt 0.463942 0.334226
vt 0.466949 0.329950
vt 0.465069 0.329255
vt 0.469105 0.325824
vt 0.467449 0.324615
vt 0.467519 0.334555
vt 0.468501 0.330526
vt 0.470480 0.326822
vt 0.473358 0.323801
vt 0.476895 0.321688
vt 0.480829 0.320608
vt 0.484884 0.320623
vt 0.488837 0.321725
vt 0.492398 0.323669
vt 0.495284 0.326496
vt 0.497344 0.330027
vt 0.498395 0.334049
vt 0.498575 0.338164
vt 0.497654 0.342109
vt 0.495701 0.345714
vt 0.492804 0.348709
vt 0.489152 0.350917
vt 0.485048 0.352064
vt 0.480860 0.352066
vt 0.476856 0.350949
vt 0.473333 0.348910
vt 0.467656 0.338675
vt 0.980958 0.082029
vt 0.980958 0.101941
vt 0.978873 0.101941
vt 0.978873 0.082029
vt 0.642572 0.943709
vt 0.642572 0.925841
vt 0.643671 0.925841
vt 0.643671 0.943709
vt 0.976382 0.266670
vt 0.976382 0.286582
vt 0.974297 0.286582
vt 0.974297 0.266670
vt 0.978873 0.135214
vt 0.978873 0.115302
vt 0.980958 0.115302
vt 0.980958 0.135214
vt 0.031996 0.961022
vt 0.031996 0.980934
vt 0.029911 0.980934
vt 0.029911 0.961022
vt 0.876899 0.975568
vt 0.876899 0.959613
vt 0.877921 0.957634
vt 0.877921 0.977547
vt 0.859031 0.959613
vt 0.858009 0.957634
vt 0.859031 0.975568
vt 0.858009 0.977547
vt 0.315630 0.962009
vt 0.330869 0.962219
vt 0.329805 0.963432
vt 0.316787 0.963139
vt 0.643671 0.957070
vt 0.643671 0.973026
vt 0.642572 0.973026
vt 0.642572 0.957070
vt 0.980511 0.954278
vt 0.980511 0.938323
vt 0.981610 0.938323
vt 0.981610 0.954278
vt 0.643671 0.894611
vt 0.643671 0.912480
vt 0.642572 0.912480
vt 0.642572 0.894611
vt 0.315610 0.979206
vt 0.330849 0.979416
vt 0.331657 0.980130
vt 0.314822 0.979920
vt 0.331657 0.961505
vt 0.314822 0.961295
vt 0.329692 0.978286
vt 0.316674 0.977993
vt 0.984904 0.726740
vt 0.984904 0.729411
vt 0.982051 0.729411
vt 0.982051 0.726740
vt 0.983801 0.830657
vt 0.984741 0.831597
vt 0.984741 0.834267
vt 0.981908 0.834267
vt 0.981908 0.831597
vt 0.982848 0.830657
vt 0.982051 0.734914
vt 0.982051 0.732243
vt 0.984904 0.732243
vt 0.984904 0.734914
vt 0.984904 0.736243
vt 0.982051 0.736243
vt 0.982051 0.725411
vt 0.984904 0.725411
vt 0.984904 0.737196
vt 0.982051 0.737196
s 1
f 37/1/1 38/2/2 108/3/2 105/4/1
f 30/5/3 31/6/4 99/7/4 100/8/3
f 44/9/5 45/10/6 113/11/6 114/12/5
f 21/13/7 22/14/8 139/15/8 140/16/7
f 29/17/9 30/5/3 100/8/3 97/18/9
f 36/19/10 37/1/1 105/4/1 106/20/10
f 43/21/11 44/9/5 114/12/5 111/22/11
f 28/23/12 29/17/9 97/18/9 98/24/12
f 35/25/8 36/19/10 106/20/10 103/26/8
f 42/27/13 43/21/11 111/22/11 112/28/13
f 27/29/14 28/23/12 98/24/12 120/30/14
f 34/31/7 35/25/8 103/26/8 104/32/7
f 41/33/15 42/27/13 112/28/13 109/34/15
f 26/35/16 27/29/14 120/30/14 119/36/16
f 48/37/17 25/38/18 117/39/18 118/40/17
f 33/41/19 34/31/7 104/32/7 101/42/19
f 40/43/20 41/33/15 109/34/15 110/44/20
f 25/38/18 26/35/16 119/36/16 117/39/18
f 47/45/21 48/46/17 118/47/17 115/48/21
f 32/49/22 33/41/19 101/42/19 102/50/22
f 39/51/23 40/43/20 110/44/20 107/52/23
f 46/53/24 47/45/21 115/48/21 116/54/24
f 31/6/4 32/49/22 102/50/22 99/7/4
f 38/2/2 39/51/23 107/52/23 108/3/2
f 45/10/6 46/53/24 116/54/24 113/11/6
f 52/55/25 51/56/25 46/53/25 45/10/25
f 67/57/25 66/58/25 31/6/25 30/5/25
f 60/59/25 59/60/25 38/2/25 37/1/25
f 53/61/25 52/55/25 45/10/25 44/9/25
f 68/62/25 67/57/25 30/5/25 29/17/25
f 61/63/25 60/59/25 37/1/25 36/19/25
f 54/64/25 53/61/25 44/9/25 43/21/25
f 69/65/25 68/62/25 29/17/25 28/23/25
f 62/66/25 61/63/25 36/19/25 35/25/25
f 55/67/25 54/64/25 43/21/25 42/27/25
f 70/68/25 69/65/25 28/23/25 27/29/25
f 63/69/25 62/66/25 35/25/25 34/31/25
f 56/70/25 55/67/25 42/27/25 41/33/25
f 71/71/25 70/68/25 27/29/25 26/35/25
f 64/72/25 63/69/25 34/31/25 33/41/25
f 57/73/25 56/70/25 41/33/25 40/43/25
f 72/74/25 71/71/25 26/35/25 25/38/25
f 50/75/25 49/76/25 48/46/25 47/45/25
f 65/77/25 64/72/25 33/41/25 32/49/25
f 58/78/25 57/73/25 40/43/25 39/51/25
f 49/79/25 72/74/25 25/38/25 48/37/25
f 51/56/25 50/75/25 47/45/25 46/53/25
f 66/58/25 65/77/25 32/49/25 31/6/25
f 59/60/25 58/78/25 39/51/25 38/2/25
f 70/68/14 71/71/16 95/80/16 94/81/14
f 63/69/7 64/72/19 88/82/19 87/83/7
f 56/70/15 57/73/20 81/84/20 80/85/15
f 71/71/16 72/74/18 96/86/18 95/80/16
f 49/76/17 50/75/21 74/87/21 73/88/17
f 64/72/19 65/77/22 89/89/22 88/82/19
f 57/73/20 58/78/23 82/90/23 81/84/20
f 72/74/18 49/79/17 73/91/17 96/86/18
f 50/75/21 51/56/24 75/92/24 74/87/21
f 65/77/22 66/58/4 90/93/4 89/89/22
f 58/78/23 59/60/2 83/94/2 82/90/23
f 51/56/24 52/55/6 76/95/6 75/92/24
f 66/58/4 67/57/3 91/96/3 90/93/4
f 59/60/2 60/59/1 84/97/1 83/94/2
f 52/55/6 53/61/5 77/98/5 76/95/6
f 67/57/3 68/62/9 92/99/9 91/96/3
f 60/59/1 61/63/10 85/100/10 84/97/1
f 53/61/5 54/64/11 78/101/11 77/98/5
f 68/62/9 69/65/12 93/102/12 92/99/9
f 61/63/10 62/66/8 86/103/8 85/100/10
f 54/64/11 55/67/13 79/104/13 78/101/11
f 69/65/12 70/68/14 94/81/14 93/102/12
f 62/66/8 63/69/7 87/83/7 86/103/8
f 55/67/13 56/70/15 80/85/15 79/104/13
f 4/105/26 3/106/26 98/107/26 97/108/26
f 6/109/26 5/110/26 100/111/26 99/112/26
f 8/113/26 7/114/26 102/115/26 101/116/26
f 10/117/26 9/118/26 104/119/26 103/120/26
f 12/121/26 11/122/26 106/123/26 105/124/26
f 14/125/26 13/126/26 108/127/26 107/128/26
f 16/129/26 15/130/26 110/131/26 109/132/26
f 18/133/26 17/134/26 112/135/26 111/136/26
f 20/137/26 19/138/26 114/139/26 113/140/26
f 22/14/26 21/13/26 116/141/26 115/142/26
f 24/143/26 23/144/26 118/145/26 117/146/26
f 1/147/26 24/143/26 117/146/26 119/148/26
f 23/144/26 22/14/26 115/142/26 118/145/26
f 21/13/26 20/137/26 113/140/26 116/141/26
f 19/138/26 18/133/26 111/136/26 114/139/26
f 17/134/26 16/129/26 109/132/26 112/135/26
f 15/130/26 14/125/26 107/128/26 110/131/26
f 13/126/26 12/121/26 105/124/26 108/127/26
f 11/122/26 10/117/26 103/120/26 106/123/26
f 9/118/26 8/113/26 101/116/26 104/119/26
f 7/114/26 6/109/26 99/112/26 102/115/26
f 5/110/26 4/105/26 97/108/26 100/111/26
f 2/149/26 1/147/26 119/148/26 120/150/26
f 3/106/26 2/149/26 120/150/26 98/107/26
f 141/151/26 143/152/26 144/153/26 122/154/26 121/155/26 124/156/26 123/157/26 126/158/26 125/159/26 128/160/26 127/161/26 130/162/26 129/163/26 132/164/26 131/165/26 134/166/26 133/167/26 136/168/26 135/169/26 138/170/26 137/171/26 140/16/26 139/15/26 142/172/26
f 7/114/5 8/113/6 125/159/6 126/158/5
f 12/121/18 13/126/16 132/164/16 129/163/18
f 23/144/10 24/143/1 141/151/1 142/172/10
f 9/118/24 10/117/21 127/161/21 128/160/24
f 10/117/21 11/122/17 130/162/17 127/161/21
f 24/143/1 1/147/2 143/152/2 141/151/1
f 11/122/17 12/121/18 129/163/18 130/162/17
f 8/113/6 9/118/24 128/160/24 125/159/6
f 22/14/8 23/144/10 142/172/10 139/15/8
f 13/126/16 14/125/14 131/165/14 132/164/16
f 6/109/11 7/114/5 126/158/5 123/157/11
f 20/137/19 21/13/7 140/16/7 137/171/19
f 15/130/12 16/129/9 133/167/9 134/166/12
f 4/105/15 5/110/13 124/156/13 121/155/15
f 18/133/4 19/138/22 138/170/22 135/169/4
f 17/134/3 18/133/4 135/169/4 136/168/3
f 1/147/2 2/149/23 144/153/23 143/152/2
f 3/106/20 4/105/15 121/155/15 122/154/20
f 16/129/9 17/134/3 136/168/3 133/167/9
f 19/138/22 20/137/19 137/171/19 138/170/22
f 2/149/23 3/106/20 122/154/20 144/153/23
f 5/110/13 6/109/11 123/157/11 124/156/13
f 14/125/14 15/130/12 134/166/12 131/165/14
s 0
f 145/173/3 146/174/3 153/175/3 154/176/3
f 148/177/10 152/178/10 164/179/10 161/180/10
f 155/181/13 156/182/13 150/183/13 149/184/13
f 154/185/17 155/186/17 149/187/17 145/188/17
f 156/189/10 153/190/10 146/191/10 150/192/10
f 148/193/26 147/194/26 154/195/26 153/196/26
f 147/194/26 151/197/26 155/198/26 154/195/26
f 152/199/26 148/193/26 153/196/26 156/200/26
f 151/197/26 152/199/26 156/200/26 155/198/26
f 160/201/27 159/202/27 167/203/27 168/204/27
f 147/205/3 148/206/3 161/207/3 162/208/3
f 152/209/13 151/210/13 163/211/13 164/212/13
f 151/213/17 147/214/17 162/215/17 163/216/17
f 157/217/26 158/218/26 162/219/26 161/220/26
f 158/218/26 159/202/26 163/221/26 162/219/26
f 160/201/26 157/217/26 161/220/26 164/222/26
f 159/202/26 160/201/26 164/222/26 163/221/26
f 166/223/26 165/224/26 168/204/26 167/203/26
f 159/202/28 158/218/28 166/223/28 167/203/28
f 157/217/29 160/201/29 168/204/29 165/224/29
f 158/218/30 157/217/30 165/224/30 166/223/30
f 179/225/13 172/226/13 171/227/13 178/228/13
f 175/229/26 176/230/26 170/231/26 172/232/26 179/233/26 180/234/26
f 173/235/3 169/236/3 170/237/3 176/238/3
f 172/226/10 170/237/10 169/236/10 171/227/10
f 175/239/14 174/240/14 173/235/14 176/238/14
f 177/241/6 180/242/6 179/225/6 178/228/6
f 175/239/17 180/243/17 177/244/17 174/240/17
