# Blender 4.1.1
# www.blender.org
o Telescope_GreatRefractor_Finderscope
v -0.268422 0.332557 -4.880755
v -0.266598 0.332976 -4.036311
v -0.246184 0.348336 -4.883701
v -0.245232 0.342939 -4.036311
v -0.219873 0.346034 -4.883701
v -0.221747 0.340884 -4.036311
v -0.198238 0.330885 -4.883701
v -0.202436 0.327362 -4.036311
v -0.187076 0.306948 -4.883701
v -0.192473 0.305997 -4.036311
v -0.189378 0.280637 -4.883701
v -0.194528 0.282512 -4.036311
v -0.204527 0.259002 -4.883701
v -0.208050 0.263201 -4.036311
v -0.228464 0.247840 -4.883701
v -0.229415 0.253238 -4.036311
v -0.254775 0.250142 -4.883701
v -0.252900 0.255292 -4.036311
v -0.276409 0.265291 -4.883701
v -0.272211 0.268814 -4.036311
v -0.287571 0.289228 -4.883701
v -0.282174 0.290180 -4.036311
v -0.285269 0.315539 -4.883701
v -0.280120 0.313665 -4.036311
v -0.273257 0.340912 -4.141591
v -0.247031 0.353141 -4.141591
v -0.218204 0.350619 -4.141591
v -0.194500 0.334022 -4.141591
v -0.182271 0.307795 -4.141591
v -0.184793 0.278968 -4.141591
v -0.201390 0.255264 -4.141591
v -0.227616 0.243035 -4.141591
v -0.256443 0.245557 -4.141591
v -0.280147 0.262155 -4.141591
v -0.292377 0.288381 -4.141591
v -0.289855 0.317208 -4.141591
v -0.246184 0.348336 -4.141591
v -0.219873 0.346034 -4.141591
v -0.198238 0.330885 -4.141591
v -0.187076 0.306948 -4.141591
v -0.189378 0.280637 -4.141591
v -0.204527 0.259002 -4.141591
v -0.228464 0.247840 -4.141591
v -0.254775 0.250142 -4.141591
v -0.276410 0.265291 -4.141591
v -0.287571 0.289228 -4.141591
v -0.285270 0.315539 -4.141591
v -0.270121 0.337174 -4.141591
v -0.273257 0.340912 -4.036311
v -0.247031 0.353141 -4.036311
v -0.218204 0.350619 -4.036311
v -0.194500 0.334022 -4.036311
v -0.182271 0.307795 -4.036311
v -0.184793 0.278968 -4.036311
v -0.201390 0.255264 -4.036311
v -0.227616 0.243035 -4.036311
v -0.256443 0.245557 -4.036311
v -0.280147 0.262155 -4.036311
v -0.292377 0.288381 -4.036311
v -0.289855 0.317208 -4.036311
v -0.266598 0.332976 -4.123844
v -0.245232 0.342939 -4.123844
v -0.221747 0.340884 -4.123844
v -0.202436 0.327362 -4.123844
v -0.192473 0.305997 -4.123844
v -0.194528 0.282512 -4.123844
v -0.208050 0.263201 -4.123844
v -0.229415 0.253238 -4.123844
v -0.252900 0.255292 -4.123844
v -0.272211 0.268814 -4.123844
v -0.282174 0.290180 -4.123844
v -0.280120 0.313665 -4.123844
v -0.266598 0.332976 -4.112735
v -0.241927 0.303574 -4.098842
v -0.259372 0.324364 -4.104467
v -0.238567 0.305141 -4.098842
v -0.245232 0.342939 -4.112735
v -0.243280 0.331868 -4.104467
v -0.234874 0.304818 -4.098842
v -0.221747 0.340884 -4.112735
v -0.225592 0.330321 -4.104467
v -0.231838 0.302692 -4.098842
v -0.202436 0.327362 -4.112735
v -0.211048 0.320136 -4.104467
v -0.230271 0.299332 -4.098842
v -0.192473 0.305996 -4.112735
v -0.203544 0.304044 -4.104467
v -0.230594 0.295639 -4.098842
v -0.194528 0.282512 -4.112735
v -0.205091 0.286356 -4.104467
v -0.232720 0.292602 -4.098842
v -0.208050 0.263201 -4.112735
v -0.215276 0.271812 -4.104467
v -0.236080 0.291035 -4.098842
v -0.229415 0.253238 -4.112735
v -0.231367 0.264308 -4.104467
v -0.239773 0.291358 -4.098842
v -0.252900 0.255292 -4.112735
v -0.249055 0.265856 -4.104467
v -0.242810 0.293485 -4.098842
v -0.272211 0.268814 -4.112735
v -0.263600 0.276040 -4.104467
v -0.244377 0.296845 -4.098842
v -0.282174 0.290180 -4.112735
v -0.271104 0.292132 -4.104467
v -0.244054 0.300538 -4.098842
v -0.280120 0.313665 -4.112735
v -0.269556 0.309820 -4.104467
v -0.247940 0.358295 -4.681512
v -0.216414 0.355537 -4.681512
v -0.190491 0.337386 -4.681512
v -0.177116 0.308704 -4.681512
v -0.179875 0.277178 -4.681512
v -0.198026 0.251255 -4.681512
v -0.226708 0.237881 -4.681512
v -0.258233 0.240639 -4.681512
v -0.284157 0.258791 -4.681512
v -0.297531 0.287472 -4.681512
v -0.294773 0.318998 -4.681512
v -0.276621 0.344921 -4.681512
v -0.276621 0.344921 -4.662519
v -0.247940 0.358295 -4.662519
v -0.216414 0.355537 -4.662519
v -0.190491 0.337386 -4.662519
v -0.177116 0.308704 -4.662519
v -0.179875 0.277178 -4.662519
v -0.198026 0.251255 -4.662519
v -0.226708 0.237881 -4.662519
v -0.258233 0.240639 -4.662519
v -0.284157 0.258791 -4.662519
v -0.297531 0.287472 -4.662519
v -0.294773 0.318998 -4.662519
v -0.270121 0.337174 -4.662519
v -0.246184 0.348336 -4.662519
v -0.219873 0.346034 -4.662519
v -0.198238 0.330885 -4.662519
v -0.187076 0.306948 -4.662519
v -0.189378 0.280637 -4.662519
v -0.204527 0.259002 -4.662519
v -0.228464 0.247840 -4.662519
v -0.254775 0.250142 -4.662519
v -0.276410 0.265291 -4.662519
v -0.287571 0.289228 -4.662519
v -0.285270 0.315539 -4.662519
v -0.246184 0.348336 -4.681512
v -0.219873 0.346034 -4.681512
v -0.198238 0.330885 -4.681512
v -0.187076 0.306948 -4.681512
v -0.189378 0.280637 -4.681512
v -0.204527 0.259002 -4.681512
v -0.228464 0.247840 -4.681512
v -0.254775 0.250142 -4.681512
v -0.276410 0.265291 -4.681512
v -0.287571 0.289228 -4.681512
v -0.285270 0.315539 -4.681512
v -0.270121 0.337174 -4.681512
v -0.063191 0.132047 -4.662795
v -0.204454 0.300398 -4.662795
v -0.063191 0.132047 -4.680389
v -0.204454 0.300398 -4.680389
v -0.049713 0.143357 -4.662795
v -0.190976 0.311707 -4.662795
v -0.049713 0.143357 -4.680389
v -0.190976 0.311707 -4.680389
v -0.104043 0.097768 -4.662795
v -0.245306 0.266119 -4.662795
v -0.104043 0.097768 -4.680389
v -0.245306 0.266119 -4.680389
v -0.117522 0.086459 -4.662795
v -0.258784 0.254809 -4.662795
v -0.117522 0.086459 -4.680389
v -0.258784 0.254809 -4.680389
v -0.063191 0.132047 -4.202816
v -0.204454 0.300398 -4.202816
v -0.063191 0.132047 -4.220410
v -0.204454 0.300398 -4.220410
v -0.049713 0.143357 -4.202816
v -0.190976 0.311707 -4.202816
v -0.049713 0.143357 -4.220410
v -0.190976 0.311707 -4.220410
v -0.104043 0.097768 -4.202816
v -0.245306 0.266119 -4.202816
v -0.104043 0.097768 -4.220410
v -0.245306 0.266119 -4.220410
v -0.117521 0.086459 -4.202816
v -0.258784 0.254809 -4.202816
v -0.117521 0.086459 -4.220410
v -0.258784 0.254809 -4.220410
v -0.274819 0.342774 -4.220481
v -0.247453 0.355535 -4.220481
v -0.217373 0.352903 -4.220481
v -0.192638 0.335584 -4.220481
v -0.179877 0.308218 -4.220481
v -0.182509 0.278137 -4.220481
v -0.199828 0.253403 -4.220481
v -0.227194 0.240641 -4.220481
v -0.257275 0.243273 -4.220481
v -0.282009 0.260592 -4.220481
v -0.294770 0.287959 -4.220481
v -0.292139 0.318039 -4.220481
v -0.274819 0.342774 -4.202344
v -0.247453 0.355535 -4.202344
v -0.217373 0.352903 -4.202344
v -0.192638 0.335584 -4.202344
v -0.179877 0.308218 -4.202344
v -0.182509 0.278137 -4.202344
v -0.199828 0.253403 -4.202344
v -0.227194 0.240641 -4.202344
v -0.257275 0.243273 -4.202344
v -0.282009 0.260592 -4.202344
v -0.294770 0.287959 -4.202344
v -0.292139 0.318039 -4.202344
v -0.270121 0.337174 -4.202344
v -0.246184 0.348336 -4.202344
v -0.219873 0.346034 -4.202344
v -0.198238 0.330885 -4.202344
v -0.187076 0.306948 -4.202344
v -0.189378 0.280637 -4.202344
v -0.204527 0.259002 -4.202344
v -0.228464 0.247840 -4.202344
v -0.254775 0.250142 -4.202344
v -0.276410 0.265291 -4.202344
v -0.287571 0.289228 -4.202344
v -0.285270 0.315539 -4.202344
v -0.246184 0.348336 -4.220481
v -0.219873 0.346034 -4.220481
v -0.198238 0.330885 -4.220481
v -0.187076 0.306948 -4.220481
v -0.189378 0.280637 -4.220481
v -0.204527 0.259002 -4.220481
v -0.228464 0.247840 -4.220481
v -0.254775 0.250142 -4.220481
v -0.276410 0.265291 -4.220481
v -0.287571 0.289228 -4.220481
v -0.285270 0.315539 -4.220481
v -0.270121 0.337174 -4.220481
v -0.226857 0.279959 -5.046086
v -0.226857 0.279959 -5.152787
v -0.216390 0.298088 -5.046086
v -0.216390 0.298088 -5.152787
v -0.226857 0.316217 -5.046086
v -0.226857 0.316217 -5.152787
v -0.247790 0.316217 -5.046086
v -0.247790 0.316217 -5.152787
v -0.258257 0.298088 -5.046086
v -0.258257 0.298088 -5.152787
v -0.247790 0.279959 -5.046086
v -0.247790 0.279959 -5.152787
v -0.226001 0.278476 -5.152787
v -0.214677 0.298088 -5.152787
v -0.226001 0.317700 -5.152787
v -0.248647 0.317700 -5.152787
v -0.259970 0.298088 -5.152787
v -0.248647 0.278476 -5.152787
v -0.226001 0.278476 -5.198586
v -0.214677 0.298088 -5.198586
v -0.226001 0.317700 -5.198586
v -0.248647 0.317700 -5.198586
v -0.259970 0.298088 -5.198586
v -0.248647 0.278476 -5.198586
v -0.228373 0.282585 -5.209674
v -0.219422 0.298088 -5.209674
v -0.228373 0.313591 -5.209674
v -0.246274 0.313591 -5.209674
v -0.255225 0.298088 -5.209674
v -0.246274 0.282585 -5.209674
v -0.222254 0.271987 -5.209674
v -0.207185 0.298088 -5.209674
v -0.222254 0.324189 -5.209674
v -0.252393 0.324189 -5.209674
v -0.267463 0.298088 -5.209674
v -0.252393 0.271987 -5.209674
v -0.236354 0.296408 -5.209928
v -0.231791 0.288506 -5.206840
v -0.233128 0.290820 -5.209023
v -0.235383 0.298088 -5.209928
v -0.226259 0.298088 -5.206840
v -0.228931 0.298088 -5.209023
v -0.236354 0.299768 -5.209928
v -0.231791 0.307671 -5.206840
v -0.233128 0.305356 -5.209023
v -0.238294 0.299768 -5.209928
v -0.242856 0.307671 -5.206840
v -0.241520 0.305356 -5.209023
v -0.239264 0.298088 -5.209928
v -0.248388 0.298088 -5.206840
v -0.245716 0.298088 -5.209023
v -0.238294 0.296408 -5.209928
v -0.242856 0.288506 -5.206840
v -0.241520 0.290820 -5.209023
v -0.224699 0.276221 -5.046086
v -0.212074 0.298088 -5.046086
v -0.224699 0.319955 -5.046086
v -0.249948 0.319955 -5.046086
v -0.262573 0.298088 -5.046086
v -0.249948 0.276221 -5.046086
v -0.224699 0.276221 -4.843795
v -0.212074 0.298088 -4.843795
v -0.224699 0.319955 -4.843795
v -0.249948 0.319955 -4.843795
v -0.262573 0.298088 -4.843795
v -0.249948 0.276221 -4.843795
vn -0.1736 0.9848 -0.0000
vn 0.3420 0.9397 -0.0000
vn 0.7660 0.6428 -0.0000
vn 0.9848 0.1736 -0.0000
vn 0.9397 -0.3420 -0.0000
vn 0.6428 -0.7660 -0.0000
vn 0.1736 -0.9848 -0.0000
vn -0.3420 -0.9397 -0.0000
vn -0.7660 -0.6428 -0.0000
vn -0.9848 -0.1736 -0.0000
vn -0.9397 0.3420 -0.0000
vn -0.6428 0.7660 -0.0000
vn -0.0000 -0.0001 -1.0000
vn -0.0000 -0.0000 -1.0000
vn -0.0063 0.0075 -1.0000
vn -0.0000 -0.0000 1.0000
vn -0.1029 0.5835 0.8056
vn -0.3808 0.4539 0.8056
vn -0.2801 0.3339 0.9000
vn -0.0757 0.4292 0.9000
vn -0.1737 0.9848 -0.0000
vn -0.0763 0.0910 0.9929
vn -0.1116 0.0406 0.9929
vn -0.1170 -0.0206 0.9929
vn -0.0910 -0.0763 0.9929
vn -0.0406 -0.1116 0.9929
vn 0.0206 -0.1170 0.9929
vn 0.0763 -0.0910 0.9929
vn 0.1116 -0.0406 0.9929
vn 0.1170 0.0206 0.9929
vn 0.0910 0.0763 0.9929
vn 0.0406 0.1116 0.9929
vn -0.0206 0.1169 0.9929
vn 0.2026 0.5567 0.8056
vn 0.1491 0.4095 0.9000
vn 0.4539 0.3808 0.8056
vn 0.3339 0.2801 0.9000
vn 0.5835 0.1029 0.8056
vn 0.4292 0.0757 0.9000
vn 0.5567 -0.2026 0.8056
vn 0.4095 -0.1491 0.9000
vn 0.3808 -0.4539 0.8056
vn 0.2801 -0.3339 0.9000
vn 0.1029 -0.5835 0.8056
vn 0.0757 -0.4292 0.9000
vn -0.2026 -0.5567 0.8056
vn -0.1491 -0.4095 0.9000
vn -0.4539 -0.3808 0.8056
vn -0.3339 -0.2801 0.9000
vn -0.5835 -0.1029 0.8056
vn -0.4292 -0.0757 0.9000
vn -0.5567 0.2026 0.8056
vn -0.4095 0.1491 0.9000
vn -0.2190 0.9757 -0.0063
vn -0.2080 0.9781 -0.0061
vn -0.9250 0.3799 -0.0056
vn -0.9298 0.3682 -0.0053
vn -0.6464 0.7629 -0.0115
vn -0.6483 0.7613 -0.0115
vn 0.5000 -0.8660 -0.0000
vn 1.0000 -0.0000 -0.0000
vn 0.5000 0.8660 -0.0000
vn -0.5000 0.8660 -0.0000
vn -1.0000 -0.0000 -0.0000
vn -0.5000 -0.8660 -0.0000
vn -0.0000 0.0001 1.0000
vn -0.0000 -0.0001 1.0000
vn -0.8286 -0.0000 0.5599
vn -0.4143 -0.7176 0.5599
vn 0.4143 0.7176 0.5599
vn 0.8286 -0.0000 0.5599
vn 0.4143 -0.7176 0.5599
vn -0.4143 0.7176 0.5599
vn -0.3164 -0.5480 -0.7743
vn -0.2350 -0.4070 -0.8827
vn 0.2350 -0.4070 -0.8827
vn 0.3164 -0.5480 -0.7743
vn -0.0463 -0.0801 -0.9957
vn 0.0463 -0.0801 -0.9957
vn -0.1915 -0.3317 -0.9237
vn -0.3830 -0.0000 -0.9238
vn 0.3830 -0.0000 -0.9238
vn 0.1915 -0.3317 -0.9237
vn -0.0926 -0.0000 -0.9957
vn -0.0463 0.0801 -0.9957
vn 0.0463 0.0801 -0.9957
vn 0.0926 -0.0000 -0.9957
vn 0.1915 0.3317 -0.9237
vn 0.6328 -0.0000 -0.7743
vn 0.4700 -0.0000 -0.8827
vn 0.3164 0.5480 -0.7743
vn 0.2350 0.4070 -0.8827
vn -0.3164 0.5480 -0.7743
vn -0.2350 0.4070 -0.8827
vn -0.6328 -0.0000 -0.7743
vn -0.4700 -0.0000 -0.8827
vn -0.1915 0.3317 -0.9237
vt 0.955347 0.183701
vt 0.955213 0.188275
vt 0.940422 0.187337
vt 0.940720 0.183407
vt 0.954836 0.192876
vt 0.939949 0.191208
vt 0.954220 0.197489
vt 0.939278 0.195074
vt 0.953371 0.202102
vt 0.938272 0.198933
vt 0.952307 0.206711
vt 0.936596 0.202796
vt 0.950418 0.154154
vt 0.951581 0.157971
vt 0.938227 0.161885
vt 0.936530 0.158386
vt 0.952683 0.162069
vt 0.939344 0.165347
vt 0.953624 0.166214
vt 0.940063 0.168851
vt 0.954371 0.170441
vt 0.940533 0.172309
vt 0.954916 0.174770
vt 0.940789 0.175915
vt 0.955245 0.179193
vt 0.940848 0.179617
vt 0.964653 0.629097
vt 0.952966 0.626331
vt 0.952853 0.626349
vt 0.964738 0.622901
vt 0.940181 0.179613
vt 0.940033 0.183371
vt 0.969738 0.355919
vt 0.967886 0.352712
vt 0.967886 0.349008
vt 0.969738 0.345801
vt 0.972945 0.343949
vt 0.976649 0.343949
vt 0.979857 0.345801
vt 0.981708 0.349008
vt 0.981708 0.352712
vt 0.979857 0.355919
vt 0.976649 0.357771
vt 0.972945 0.357771
vt 0.943943 0.636582
vt 0.950204 0.639301
vt 0.949711 0.642116
vt 0.942108 0.638792
vt 0.940139 0.175945
vt 0.939906 0.172374
vt 0.939479 0.168953
vt 0.938696 0.165519
vt 0.937652 0.162118
vt 0.935986 0.158866
vt 0.937633 0.198711
vt 0.935986 0.202303
vt 0.938559 0.194918
vt 0.939298 0.191112
vt 0.939690 0.187266
vt 0.655313 0.328662
vt 0.655313 0.324958
vt 0.663832 0.324958
vt 0.663832 0.328662
vt 0.655313 0.321254
vt 0.663832 0.321254
vt 0.655313 0.317550
vt 0.663832 0.317550
vt 0.655313 0.313847
vt 0.663832 0.313847
vt 0.655313 0.310143
vt 0.663832 0.310143
vt 0.655313 0.354588
vt 0.655313 0.350884
vt 0.663832 0.350884
vt 0.663832 0.354588
vt 0.655313 0.347180
vt 0.663832 0.347180
vt 0.655313 0.343476
vt 0.663832 0.343476
vt 0.655313 0.339773
vt 0.663832 0.339773
vt 0.655313 0.336069
vt 0.663832 0.336069
vt 0.655313 0.332365
vt 0.663832 0.332365
vt 0.595036 0.334576
vt 0.596203 0.334604
vt 0.596039 0.339109
vt 0.594797 0.339097
vt 0.956787 0.638579
vt 0.957744 0.641199
vt 0.961954 0.634758
vt 0.964091 0.636532
vt 0.967280 0.629624
vt 0.967280 0.622126
vt 0.961268 0.617472
vt 0.963138 0.615569
vt 0.955698 0.614128
vt 0.956414 0.611430
vt 0.949037 0.614545
vt 0.948242 0.611693
vt 0.943058 0.617682
vt 0.941047 0.615711
vt 0.940005 0.623860
vt 0.937116 0.623081
vt 0.939977 0.630834
vt 0.937063 0.631756
vt 0.952680 0.626591
vt 0.952747 0.626671
vt 0.952951 0.626384
vt 0.952862 0.626392
vt 0.953075 0.626613
vt 0.953094 0.626510
vt 0.952743 0.626381
vt 0.952825 0.626741
vt 0.953057 0.626406
vt 0.952703 0.626483
vt 0.952922 0.626721
vt 0.953011 0.626690
vt 0.517935 0.988288
vt 0.514431 0.988332
vt 0.514910 0.986367
vt 0.517370 0.986357
vt 0.952914 0.626685
vt 0.952985 0.626655
vt 0.919136 0.634365
vt 0.921662 0.634384
vt 0.921810 0.638624
vt 0.919098 0.638555
vt 0.952733 0.626580
vt 0.952776 0.626646
vt 0.953033 0.626595
vt 0.953046 0.626515
vt 0.952768 0.626434
vt 0.515873 0.982720
vt 0.515433 0.982464
vt 0.515181 0.982023
vt 0.515181 0.981513
vt 0.515437 0.981073
vt 0.515878 0.980820
vt 0.516388 0.980821
vt 0.516827 0.981078
vt 0.517081 0.981520
vt 0.517080 0.982029
vt 0.516824 0.982469
vt 0.516383 0.982722
vt 0.952840 0.626688
vt 0.953019 0.626436
vt 0.952769 0.626433
vt 0.952742 0.626499
vt 0.520934 0.986512
vt 0.519494 0.985122
vt 0.522646 0.983505
vt 0.520729 0.983000
vt 0.522646 0.980031
vt 0.520695 0.980553
vt 0.520914 0.977018
vt 0.519501 0.978413
vt 0.517929 0.975258
vt 0.517371 0.977185
vt 0.514427 0.975213
vt 0.514911 0.977181
vt 0.511342 0.976953
vt 0.512782 0.978416
vt 0.509566 0.980004
vt 0.511510 0.980529
vt 0.509565 0.983539
vt 0.511550 0.982996
vt 0.511360 0.986605
vt 0.512771 0.985139
vt 0.598942 0.334660
vt 0.598777 0.339161
vt 0.917936 0.630429
vt 0.919307 0.630462
vt 0.917693 0.634337
vt 0.918054 0.626676
vt 0.919363 0.626685
vt 0.918152 0.623084
vt 0.919403 0.623083
vt 0.918203 0.619645
vt 0.919375 0.619610
vt 0.917909 0.616085
vt 0.919251 0.615959
vt 0.917260 0.612197
vt 0.918738 0.611582
vt 0.917782 0.656706
vt 0.919249 0.656754
vt 0.918883 0.661381
vt 0.917396 0.660829
vt 0.917569 0.652468
vt 0.919149 0.652423
vt 0.917260 0.647839
vt 0.919044 0.647823
vt 0.917404 0.643073
vt 0.919057 0.643082
vt 0.917543 0.638548
vt 0.923103 0.634355
vt 0.923384 0.638569
vt 0.921699 0.630499
vt 0.921643 0.626782
vt 0.921613 0.623173
vt 0.921590 0.619692
vt 0.921596 0.615990
vt 0.921803 0.611430
vt 0.921898 0.656756
vt 0.922122 0.661466
vt 0.921876 0.652492
vt 0.921907 0.647952
vt 0.921919 0.643212
vt 0.958209 0.068668
vt 0.954505 0.068668
vt 0.954505 0.006680
vt 0.958209 0.006680
vt 0.922957 0.630493
vt 0.923032 0.626764
vt 0.922793 0.623151
vt 0.922860 0.619694
vt 0.922987 0.616032
vt 0.923379 0.611961
vt 0.923361 0.656706
vt 0.923658 0.660937
vt 0.923434 0.652485
vt 0.923561 0.647960
vt 0.923702 0.643195
vt 0.613599 0.328662
vt 0.613599 0.324958
vt 0.641952 0.324958
vt 0.641952 0.328662
vt 0.613599 0.321254
vt 0.641952 0.321254
vt 0.613599 0.317550
vt 0.641952 0.317550
vt 0.613599 0.313847
vt 0.641952 0.313847
vt 0.613599 0.310143
vt 0.641952 0.310143
vt 0.613599 0.354588
vt 0.613599 0.350884
vt 0.641952 0.350884
vt 0.641952 0.354588
vt 0.613599 0.347180
vt 0.641952 0.347180
vt 0.613599 0.343476
vt 0.641952 0.343476
vt 0.613599 0.339773
vt 0.641952 0.339773
vt 0.613599 0.336069
vt 0.641952 0.336069
vt 0.613599 0.332365
vt 0.641952 0.332365
vt 0.947123 0.309190
vt 0.947123 0.340009
vt 0.944656 0.340009
vt 0.944656 0.309190
vt 0.954525 0.309190
vt 0.954525 0.340009
vt 0.952058 0.340009
vt 0.952058 0.309190
vt 0.949590 0.340009
vt 0.949590 0.309190
vt 0.009148 0.926132
vt 0.006680 0.926132
vt 0.006680 0.956950
vt 0.009148 0.956950
vt 0.016550 0.926132
vt 0.014082 0.926132
vt 0.014082 0.956950
vt 0.016550 0.956950
vt 0.011615 0.926132
vt 0.011615 0.956950
vt 0.870519 0.913455
vt 0.870519 0.944274
vt 0.868052 0.944274
vt 0.868052 0.913455
vt 0.877921 0.913455
vt 0.877921 0.944274
vt 0.875454 0.944274
vt 0.875454 0.913455
vt 0.872986 0.944274
vt 0.872986 0.913455
vt 0.180259 0.929471
vt 0.177791 0.929471
vt 0.177791 0.960289
vt 0.180259 0.960289
vt 0.187661 0.929471
vt 0.185193 0.929471
vt 0.185193 0.960289
vt 0.187661 0.960289
vt 0.182726 0.929471
vt 0.182726 0.960289
vt 0.529150 0.950379
vt 0.526214 0.951157
vt 0.525681 0.933729
vt 0.528626 0.933711
vt 0.595149 0.330236
vt 0.596254 0.330245
vt 0.595267 0.326167
vt 0.596313 0.326179
vt 0.595365 0.322275
vt 0.596363 0.322280
vt 0.595429 0.318564
vt 0.596350 0.318561
vt 0.595329 0.314798
vt 0.596374 0.314739
vt 0.594797 0.310693
vt 0.595937 0.310252
vt 0.595404 0.354810
vt 0.596302 0.354831
vt 0.596152 0.358664
vt 0.595216 0.358360
vt 0.595344 0.351300
vt 0.596300 0.351283
vt 0.595133 0.347555
vt 0.596154 0.347534
vt 0.595015 0.343495
vt 0.596128 0.343476
vt 0.600181 0.334672
vt 0.599942 0.339188
vt 0.598859 0.330318
vt 0.598789 0.326294
vt 0.598748 0.322387
vt 0.598721 0.318564
vt 0.598808 0.314743
vt 0.599046 0.310143
vt 0.598473 0.354821
vt 0.598779 0.358580
vt 0.598560 0.351291
vt 0.598580 0.347517
vt 0.598733 0.343492
vt 0.599959 0.330289
vt 0.599766 0.326280
vt 0.599821 0.322379
vt 0.599665 0.318570
vt 0.599863 0.314789
vt 0.600238 0.310547
vt 0.599366 0.354792
vt 0.599680 0.358248
vt 0.599510 0.351303
vt 0.599606 0.347538
vt 0.599826 0.343514
vt 0.950801 0.068668
vt 0.950801 0.006680
vt 0.947097 0.068668
vt 0.947097 0.006680
vt 0.943394 0.068668
vt 0.943394 0.006680
vt 0.939690 0.068668
vt 0.939690 0.006680
vt 0.935986 0.068668
vt 0.935986 0.006680
vt 0.980431 0.068668
vt 0.976727 0.068668
vt 0.976727 0.006680
vt 0.980431 0.006680
vt 0.973023 0.068668
vt 0.973023 0.006680
vt 0.969320 0.068668
vt 0.969320 0.006680
vt 0.965616 0.068668
vt 0.965616 0.006680
vt 0.961912 0.068668
vt 0.961912 0.006680
vt 0.523266 0.951421
vt 0.522749 0.933558
vt 0.520086 0.951370
vt 0.519981 0.933766
vt 0.516881 0.951024
vt 0.516941 0.934197
vt 0.513971 0.949704
vt 0.513899 0.935107
vt 0.516822 0.951267
vt 0.513724 0.949881
vt 0.529239 0.950609
vt 0.526245 0.951332
vt 0.532075 0.948847
vt 0.532266 0.948966
vt 0.531188 0.934492
vt 0.528696 0.933274
vt 0.531634 0.934057
vt 0.520078 0.951598
vt 0.523280 0.951640
vt 0.523893 0.959592
vt 0.519303 0.959364
vt 0.532245 0.957022
vt 0.528246 0.958521
vt 0.535253 0.954849
vt 0.985360 0.314735
vt 0.987583 0.316011
vt 0.987581 0.317743
vt 0.983866 0.315599
vt 0.514814 0.958484
vt 0.513956 0.960651
vt 0.509565 0.958027
vt 0.511229 0.956481
vt 0.528986 0.960817
vt 0.524115 0.961852
vt 0.519959 0.933258
vt 0.522743 0.933156
vt 0.536808 0.955939
vt 0.533421 0.958823
vt 0.519004 0.961852
vt 0.989778 0.314729
vt 0.991277 0.315593
vt 0.989766 0.312187
vt 0.991268 0.311313
vt 0.987562 0.310918
vt 0.987554 0.309190
vt 0.985365 0.312183
vt 0.983866 0.311325
vt 0.640763 0.987208
vt 0.641214 0.987487
vt 0.641234 0.988623
vt 0.640763 0.988896
vt 0.641981 0.987923
vt 0.641982 0.988191
vt 0.988880 0.314216
vt 0.988855 0.312716
vt 0.987561 0.311951
vt 0.986262 0.312714
vt 0.642214 0.987788
vt 0.642448 0.987922
vt 0.642448 0.988189
vt 0.642216 0.988324
vt 0.525694 0.933132
vt 0.986274 0.314220
vt 0.642220 0.989727
vt 0.642218 0.989208
vt 0.643671 0.988887
vt 0.643199 0.988617
vt 0.643661 0.987201
vt 0.643213 0.987481
vt 0.642211 0.986387
vt 0.642212 0.986902
vt 0.987581 0.314955
vt 0.525480 0.908347
vt 0.529216 0.908390
vt 0.516810 0.933610
vt 0.513499 0.934744
vt 0.521751 0.908409
vt 0.532958 0.908540
vt 0.514301 0.908847
vt 0.518030 0.908570
vt 0.511106 0.909145
s 1
f 50/1/1 51/2/2 27/3/2 26/4/1
f 51/2/2 52/5/3 28/6/3 27/3/2
f 52/5/3 53/7/4 29/8/4 28/6/3
f 53/7/4 54/9/5 30/10/5 29/8/4
f 54/9/5 55/11/6 31/12/6 30/10/5
f 55/13/6 56/14/7 32/15/7 31/16/6
f 56/14/7 57/17/8 33/18/8 32/15/7
f 57/17/8 58/19/9 34/20/9 33/18/8
f 58/19/9 59/21/10 35/22/10 34/20/9
f 59/21/10 60/23/11 36/24/11 35/22/10
f 60/23/11 49/25/12 25/26/12 36/24/11
f 10/27/10 65/28/10 66/29/11 12/30/11
f 48/31/13 25/26/13 26/4/14 37/32/14
f 1/33/15 3/34/15 5/35/15 7/36/15 9/37/15 11/38/15 13/39/15 15/40/15 17/41/15 19/42/15 21/43/15 23/44/15
f 2/45/16 4/46/16 50/47/16 49/48/16
f 47/49/14 36/24/14 25/26/13 48/31/13
f 46/50/14 35/22/14 36/24/14 47/49/14
f 45/51/14 34/20/14 35/22/14 46/50/14
f 44/52/14 33/18/14 34/20/14 45/51/14
f 43/53/14 32/15/14 33/18/14 44/52/14
f 42/54/14 31/16/14 32/15/14 43/53/14
f 41/55/14 30/10/14 31/12/14 42/56/14
f 40/57/14 29/8/14 30/10/14 41/55/14
f 39/58/14 28/6/14 29/8/14 40/57/14
f 38/59/14 27/3/14 28/6/14 39/58/14
f 37/32/14 26/4/14 27/3/14 38/59/14
f 37/60/1 38/61/2 215/62/2 214/63/1
f 38/61/2 39/64/3 216/65/3 215/62/2
f 39/64/3 40/66/4 217/67/4 216/65/3
f 40/66/4 41/68/5 218/69/5 217/67/4
f 41/68/5 42/70/6 219/71/6 218/69/5
f 42/72/6 43/73/7 220/74/7 219/75/6
f 43/73/7 44/76/8 221/77/8 220/74/7
f 44/76/8 45/78/9 222/79/9 221/77/8
f 45/78/9 46/80/10 223/81/10 222/79/9
f 46/80/10 47/82/11 224/83/11 223/81/10
f 47/82/11 48/84/12 213/85/12 224/83/11
f 236/86/14 189/87/14 190/88/14 225/89/14
f 4/46/16 6/90/16 51/91/16 50/47/16
f 6/90/16 8/92/16 52/93/16 51/91/16
f 8/92/16 10/27/16 53/94/16 52/93/16
f 10/27/16 12/30/16 54/95/16 53/94/16
f 12/30/16 14/96/16 55/97/16 54/95/16
f 14/96/16 16/98/16 56/99/16 55/97/16
f 16/98/16 18/100/16 57/101/16 56/99/16
f 18/100/16 20/102/16 58/103/16 57/101/16
f 20/102/16 22/104/16 59/105/16 58/103/16
f 22/104/16 24/106/16 60/107/16 59/105/16
f 24/106/16 2/45/16 49/48/16 60/107/16
f 20/102/3 18/100/2 69/108/2 70/109/3
f 66/29/5 65/28/4 86/110/4 89/111/5
f 6/90/8 4/46/7 62/112/7 63/113/8
f 14/96/12 12/30/11 66/29/11 67/114/12
f 22/104/4 20/102/3 70/109/3 71/115/4
f 8/92/9 6/90/8 63/113/8 64/116/9
f 16/98/1 14/96/12 67/114/12 68/117/1
f 24/106/5 22/104/4 71/115/4 72/118/5
f 10/27/10 8/92/9 64/116/9 65/28/10
f 18/100/2 16/98/1 68/117/1 69/108/2
f 2/45/6 24/106/5 72/118/5 61/119/6
f 4/46/7 2/45/6 61/119/6 62/112/7
f 77/120/17 73/121/18 75/122/19 78/123/20
f 61/119/12 72/118/11 107/124/11 73/125/12
f 120/126/12 121/127/12 122/128/1 109/129/1
f 70/109/9 69/108/8 98/130/8 101/131/9
f 63/113/2 62/112/1 77/132/21 80/133/2
f 67/114/6 66/29/5 89/111/5 92/134/6
f 74/135/22 106/136/23 103/137/24 100/138/25 97/139/26 94/140/27 91/141/28 88/142/29 85/143/30 82/144/31 79/145/32 76/146/33
f 71/115/10 70/109/9 101/131/9 104/147/10
f 64/116/3 63/113/2 80/133/2 83/148/3
f 68/117/7 67/114/6 92/149/6 95/150/7
f 71/115/10 104/147/10 107/124/11 72/118/11
f 65/28/4 64/116/3 83/148/3 86/110/4
f 69/108/8 68/117/7 95/150/7 98/130/8
f 78/123/20 75/122/19 74/135/22 76/146/33
f 80/151/34 77/120/17 78/123/20 81/152/35
f 81/152/35 78/123/20 76/146/33 79/145/32
f 83/153/36 80/151/34 81/152/35 84/154/37
f 84/154/37 81/152/35 79/145/32 82/144/31
f 86/155/38 83/153/36 84/154/37 87/156/39
f 87/156/39 84/154/37 82/144/31 85/143/30
f 89/157/40 86/155/38 87/156/39 90/158/41
f 90/158/41 87/156/39 85/143/30 88/142/29
f 92/159/42 89/157/40 90/158/41 93/160/43
f 93/160/43 90/158/41 88/142/29 91/141/28
f 95/161/44 92/159/42 93/160/43 96/162/45
f 96/162/45 93/160/43 91/141/28 94/140/27
f 98/163/46 95/161/44 96/162/45 99/164/47
f 99/164/47 96/162/45 94/140/27 97/139/26
f 101/165/48 98/163/46 99/164/47 102/166/49
f 102/166/49 99/164/47 97/139/26 100/138/25
f 104/167/50 101/165/48 102/166/49 105/168/51
f 105/168/51 102/166/49 100/138/25 103/137/24
f 107/169/52 104/167/50 105/168/51 108/170/53
f 108/170/53 105/168/51 103/137/24 106/136/23
f 73/121/18 107/169/52 108/170/53 75/122/19
f 75/122/19 108/170/53 106/136/23 74/135/22
f 61/119/12 73/125/12 77/132/21 62/112/1
f 189/87/12 201/171/12 202/172/1 190/88/1
f 155/173/14 119/174/14 120/126/14 156/175/14
f 154/176/14 118/177/14 119/174/14 155/173/14
f 153/178/14 117/179/14 118/177/14 154/176/14
f 152/180/14 116/181/14 117/179/14 153/178/14
f 151/182/14 115/183/14 116/181/14 152/180/14
f 150/184/14 114/185/14 115/183/14 151/182/14
f 149/186/14 113/187/14 114/188/14 150/189/14
f 148/190/14 112/191/14 113/187/14 149/186/14
f 147/192/14 111/193/14 112/191/14 148/190/14
f 146/194/14 110/195/14 111/193/14 147/192/14
f 145/196/14 109/129/14 110/195/14 146/194/14
f 121/127/16 133/197/16 134/198/16 122/128/16
f 119/174/11 132/199/11 121/127/12 120/126/12
f 118/177/10 131/200/10 132/199/11 119/174/11
f 117/179/9 130/201/9 131/200/10 118/177/10
f 116/181/8 129/202/8 130/201/9 117/179/9
f 115/183/7 128/203/7 129/202/8 116/181/8
f 114/185/6 127/204/6 128/203/7 115/183/7
f 113/187/5 126/205/5 127/206/6 114/188/6
f 112/191/4 125/207/4 126/205/5 113/187/5
f 111/193/3 124/208/3 125/207/4 112/191/4
f 110/195/2 123/209/2 124/208/3 111/193/3
f 109/129/1 122/128/1 123/209/2 110/195/2
f 236/210/12 225/211/1 134/212/1 133/213/12
f 132/199/16 144/214/16 133/197/16 121/127/16
f 131/200/16 143/215/16 144/214/16 132/199/16
f 130/201/16 142/216/16 143/215/16 131/200/16
f 129/202/16 141/217/16 142/216/16 130/201/16
f 128/203/16 140/218/16 141/217/16 129/202/16
f 127/204/16 139/219/16 140/218/16 128/203/16
f 126/205/16 138/220/16 139/221/16 127/206/16
f 125/207/16 137/222/16 138/220/16 126/205/16
f 124/208/16 136/223/16 137/222/16 125/207/16
f 123/209/16 135/224/16 136/223/16 124/208/16
f 122/128/16 134/198/16 135/224/16 123/209/16
f 145/225/54 146/226/2 5/227/2 3/228/55
f 146/226/2 147/229/3 7/230/3 5/227/2
f 147/229/3 148/231/4 9/232/4 7/230/3
f 148/231/4 149/233/5 11/234/5 9/232/4
f 149/233/5 150/235/6 13/236/6 11/234/5
f 150/237/6 151/238/7 15/239/7 13/240/6
f 151/238/7 152/241/8 17/242/8 15/239/7
f 152/241/8 153/243/9 19/244/9 17/242/8
f 153/243/9 154/245/10 21/246/10 19/244/9
f 154/245/10 155/247/56 23/248/57 21/246/10
f 155/247/56 156/249/58 1/250/59 23/248/57
f 49/25/12 50/1/1 26/4/1 25/26/12
s 0
f 157/251/9 158/252/9 160/253/9 159/254/9
f 159/255/14 160/256/14 164/257/14 163/258/14
f 163/258/3 164/257/3 162/259/3 161/260/3
f 161/260/16 162/259/16 158/252/16 157/251/16
f 165/261/3 167/262/3 168/263/3 166/264/3
f 167/265/14 171/266/14 172/267/14 168/268/14
f 171/266/9 169/269/9 170/270/9 172/267/9
f 169/269/16 165/261/16 166/264/16 170/270/16
f 173/271/9 174/272/9 176/273/9 175/274/9
f 175/275/14 176/276/14 180/277/14 179/278/14
f 179/278/3 180/277/3 178/279/3 177/280/3
f 177/280/16 178/279/16 174/272/16 173/271/16
f 181/281/3 183/282/3 184/283/3 182/284/3
f 183/285/14 187/286/14 188/287/14 184/288/14
f 187/286/9 185/289/9 186/290/9 188/287/9
f 185/289/16 181/281/16 182/284/16 186/290/16
s 1
f 238/291/60 240/292/61 239/293/61 237/294/60
f 235/295/14 200/296/14 189/87/14 236/86/14
f 234/297/14 199/298/14 200/296/14 235/295/14
f 233/299/14 198/300/14 199/298/14 234/297/14
f 232/301/14 197/302/14 198/300/14 233/299/14
f 231/303/14 196/304/14 197/302/14 232/301/14
f 230/305/14 195/306/14 196/304/14 231/303/14
f 229/307/14 194/308/14 195/309/14 230/310/14
f 228/311/14 193/312/14 194/308/14 229/307/14
f 227/313/14 192/314/14 193/312/14 228/311/14
f 226/315/14 191/316/14 192/314/14 227/313/14
f 225/89/14 190/88/14 191/316/14 226/315/14
f 201/171/16 213/317/16 214/318/16 202/172/16
f 200/296/11 212/319/11 201/171/12 189/87/12
f 199/298/10 211/320/10 212/319/11 200/296/11
f 198/300/9 210/321/9 211/320/10 199/298/10
f 197/302/8 209/322/8 210/321/9 198/300/9
f 196/304/7 208/323/7 209/322/8 197/302/8
f 195/306/6 207/324/6 208/323/7 196/304/7
f 194/308/5 206/325/5 207/326/6 195/309/6
f 193/312/4 205/327/4 206/325/5 194/308/5
f 192/314/3 204/328/3 205/327/4 193/312/4
f 191/316/2 203/329/2 204/328/3 192/314/3
f 190/88/1 202/172/1 203/329/2 191/316/2
f 48/84/12 37/60/1 214/63/1 213/85/12
f 212/319/16 224/330/16 213/317/16 201/171/16
f 211/320/16 223/331/16 224/330/16 212/319/16
f 210/321/16 222/332/16 223/331/16 211/320/16
f 209/322/16 221/333/16 222/332/16 210/321/16
f 208/323/16 220/334/16 221/333/16 209/322/16
f 207/324/16 219/335/16 220/334/16 208/323/16
f 206/325/16 218/336/16 219/337/16 207/326/16
f 205/327/16 217/338/16 218/336/16 206/325/16
f 204/328/16 216/339/16 217/338/16 205/327/16
f 203/329/16 215/340/16 216/339/16 204/328/16
f 202/172/16 214/318/16 215/340/16 203/329/16
f 225/211/1 226/341/2 135/342/2 134/212/1
f 226/341/2 227/343/3 136/344/3 135/342/2
f 227/343/3 228/345/4 137/346/4 136/344/3
f 228/345/4 229/347/5 138/348/5 137/346/4
f 229/347/5 230/349/6 139/350/6 138/348/5
f 230/351/6 231/352/7 140/353/7 139/354/6
f 231/352/7 232/355/8 141/356/8 140/353/7
f 232/355/8 233/357/9 142/358/9 141/356/8
f 233/357/9 234/359/10 143/360/10 142/358/9
f 234/359/10 235/361/11 144/362/11 143/360/10
f 235/361/11 236/210/12 133/213/12 144/362/11
f 156/175/14 120/126/14 109/129/14 145/196/14
f 240/292/61 242/363/62 241/364/62 239/293/61
f 242/363/62 244/365/63 243/366/63 241/364/62
f 244/365/63 246/367/64 245/368/64 243/366/63
f 246/367/64 248/369/65 247/370/65 245/368/64
f 248/369/16 246/367/16 253/371/16 254/372/16
f 249/373/66 250/374/16 240/292/16 238/291/66
f 248/375/16 254/376/16 249/373/66 238/291/66
f 247/377/14 237/294/14 291/378/14 296/379/14
f 252/380/63 251/381/62 257/382/62 258/383/63
f 240/292/16 250/374/16 251/381/67 242/363/67
f 250/374/61 249/373/60 255/384/60 256/385/61
f 242/363/67 251/381/67 252/380/16 244/365/16
f 252/380/16 253/371/16 246/367/16 244/365/16
f 249/373/60 254/376/65 260/386/65 255/384/60
f 266/387/14 261/388/14 267/389/14 272/390/14
f 259/391/68 271/392/68 272/393/69 260/394/69
f 254/372/65 253/371/64 259/391/64 260/394/65
f 250/374/61 256/385/61 257/382/62 251/381/62
f 252/380/63 258/383/63 259/391/64 253/371/64
f 257/382/70 256/385/71 268/395/71 269/396/70
f 241/364/14 243/366/14 294/397/14 293/398/14
f 255/384/72 260/386/69 272/399/69 267/400/72
f 256/385/71 255/384/72 267/400/72 268/395/71
f 259/391/68 258/383/73 270/401/73 271/392/68
f 257/382/70 269/396/70 270/401/73 258/383/73
f 261/388/14 262/402/14 268/403/14 267/389/14
f 262/402/14 263/404/14 269/405/14 268/403/14
f 263/404/14 264/406/14 270/407/14 269/405/14
f 264/406/14 265/408/14 271/409/14 270/407/14
f 265/408/14 266/387/14 272/390/14 271/409/14
f 289/410/74 290/411/75 275/412/76 274/413/77
f 290/411/75 288/414/78 273/415/79 275/412/76
f 263/404/80 262/402/81 277/416/81 280/417/80
f 265/408/82 264/406/83 283/418/83 286/419/82
f 288/414/78 285/420/84 282/421/85 279/422/86 276/423/87 273/415/79
f 239/293/14 241/364/14 293/398/14 292/424/14
f 264/406/83 263/404/80 280/417/80 283/418/83
f 286/419/82 289/425/88 266/387/88 265/408/82
f 277/426/89 274/413/77 275/412/76 278/427/90
f 278/427/90 275/412/76 273/415/79 276/423/87
f 280/428/91 277/426/89 278/427/90 281/429/92
f 281/429/92 278/427/90 276/423/87 279/422/86
f 283/430/93 280/428/91 281/429/92 284/431/94
f 284/431/94 281/429/92 279/422/86 282/421/85
f 286/432/95 283/430/93 284/431/94 287/433/96
f 287/433/96 284/431/94 282/421/85 285/420/84
f 289/410/74 286/432/95 287/433/96 290/411/75
f 290/411/75 287/433/96 285/420/84 288/414/78
f 266/387/88 289/425/88 274/434/97 261/388/97
f 262/402/81 261/388/97 274/434/97 277/416/81
f 291/378/60 292/424/61 298/435/61 297/436/60
f 243/366/14 245/368/14 295/437/14 294/397/14
f 245/368/14 247/370/14 296/438/14 295/437/14
f 292/424/61 293/398/62 299/439/62 298/435/61
f 237/294/14 239/293/14 292/424/14 291/378/14
f 296/379/65 291/378/60 297/436/60 302/440/65
f 294/397/63 295/437/64 301/441/64 300/442/63
f 293/398/62 294/397/63 300/442/63 299/439/62
f 295/437/64 296/438/65 302/443/65 301/441/64
f 248/375/65 238/291/60 237/294/60 247/377/65
f 156/249/58 145/225/54 3/228/55 1/250/59
