# Blender 4.1.1
# www.blender.org
o Telescope_GreatRefractor_SlowMotionCables
v -0.188145 -0.270421 -0.246896
v -0.168145 -0.270421 -0.246896
v -0.158145 -0.287717 -0.245973
v -0.168145 -0.305013 -0.245049
v -0.188145 -0.305013 -0.245049
v -0.198145 -0.287717 -0.245973
v -0.190676 -0.275177 -0.934337
v -0.170676 -0.275180 -0.934427
v -0.160678 -0.292501 -0.934554
v -0.170680 -0.309820 -0.934590
v -0.190680 -0.309818 -0.934500
v -0.200678 -0.292497 -0.934373
v -0.196714 -0.256761 -2.059739
v -0.176715 -0.256763 -2.059850
v -0.166718 -0.274081 -2.060259
v -0.176722 -0.291397 -2.060558
v -0.196722 -0.291395 -2.060448
v -0.206718 -0.274077 -2.060038
v -0.203923 -0.225612 -3.328994
v -0.183923 -0.225614 -3.329105
v -0.173928 -0.242929 -3.329631
v -0.183932 -0.260242 -3.330046
v -0.203931 -0.260241 -3.329935
v -0.213927 -0.242925 -3.329409
v -0.209963 -0.192204 -4.448443
v -0.189963 -0.192206 -4.448534
v -0.179968 -0.209518 -4.449161
v -0.189972 -0.226828 -4.449696
v -0.209972 -0.226825 -4.449605
v -0.219967 -0.209513 -4.448978
v -0.212495 -0.167013 -5.124435
v -0.192495 -0.167019 -5.124435
v -0.182500 -0.184321 -5.125289
v -0.192506 -0.201618 -5.126143
v -0.212506 -0.201611 -5.126143
v -0.222500 -0.184309 -5.125288
v -0.109939 -0.313324 -0.203255
v -0.089939 -0.313324 -0.203255
v -0.079939 -0.330643 -0.203046
v -0.089939 -0.347962 -0.202837
v -0.109939 -0.347962 -0.202837
v -0.119939 -0.330643 -0.203046
v -0.107287 -0.310246 -1.241775
v -0.087287 -0.310246 -1.241683
v -0.077286 -0.327565 -1.241894
v -0.087285 -0.344883 -1.242197
v -0.107285 -0.344883 -1.242289
v -0.117286 -0.327564 -1.242078
v -0.100961 -0.284669 -2.200092
v -0.080962 -0.284671 -2.199945
v -0.070959 -0.301984 -2.200408
v -0.080956 -0.319295 -2.201018
v -0.100956 -0.319294 -2.201165
v -0.110958 -0.301981 -2.200702
v -0.093409 -0.251811 -3.131421
v -0.073410 -0.251813 -3.131274
v -0.063408 -0.269126 -3.131731
v -0.073405 -0.286437 -3.132335
v -0.093404 -0.286436 -3.132482
v -0.103407 -0.269123 -3.132025
v -0.087081 -0.226899 -4.088887
v -0.067081 -0.226899 -4.088795
v -0.057080 -0.244218 -4.088989
v -0.067079 -0.261537 -4.089275
v -0.087079 -0.261537 -4.089366
v -0.097080 -0.244218 -4.089172
v -0.084426 -0.225172 -5.125525
v -0.064426 -0.225172 -5.125525
v -0.054427 -0.242491 -5.125289
v -0.064427 -0.259810 -5.125052
v -0.084427 -0.259810 -5.125052
v -0.094427 -0.242491 -5.125289
v -0.076381 -0.197641 -5.145094
v -0.076381 -0.184828 -5.122094
v -0.053737 -0.203708 -5.145094
v -0.047331 -0.192612 -5.122094
v -0.037161 -0.220284 -5.145094
v -0.026064 -0.213878 -5.122094
v -0.031094 -0.242928 -5.145094
v -0.018281 -0.242928 -5.122094
v -0.037161 -0.265571 -5.145094
v -0.026064 -0.271978 -5.122094
v -0.053737 -0.282147 -5.145094
v -0.047331 -0.293244 -5.122094
v -0.076381 -0.288215 -5.145094
v -0.076381 -0.301028 -5.122094
v -0.099024 -0.282147 -5.145094
v -0.105431 -0.293244 -5.122094
v -0.115600 -0.265571 -5.145094
v -0.126697 -0.271978 -5.122094
v -0.121668 -0.242928 -5.145094
v -0.134481 -0.242928 -5.122094
v -0.115600 -0.220284 -5.145094
v -0.126697 -0.213878 -5.122094
v -0.099024 -0.203708 -5.145094
v -0.105431 -0.192612 -5.122094
v -0.076381 -0.184828 -5.145094
v -0.047331 -0.192612 -5.145094
v -0.026064 -0.213878 -5.145094
v -0.018281 -0.242928 -5.145094
v -0.026064 -0.271978 -5.145094
v -0.047331 -0.293244 -5.145094
v -0.076381 -0.301028 -5.145094
v -0.105431 -0.293244 -5.145094
v -0.126697 -0.271978 -5.145094
v -0.134481 -0.242928 -5.145094
v -0.126697 -0.213878 -5.145094
v -0.105431 -0.192612 -5.145094
v -0.076381 -0.197641 -5.137876
v -0.053737 -0.203708 -5.137876
v -0.037161 -0.220284 -5.137876
v -0.031094 -0.242928 -5.137876
v -0.037161 -0.265571 -5.137876
v -0.053737 -0.282147 -5.137876
v -0.076381 -0.288215 -5.137876
v -0.099024 -0.282147 -5.137876
v -0.115600 -0.265571 -5.137876
v -0.121668 -0.242928 -5.137876
v -0.115600 -0.220284 -5.137876
v -0.099024 -0.203708 -5.137876
v -0.206164 -0.140534 -5.142736
v -0.206164 -0.128928 -5.119104
v -0.183520 -0.146594 -5.143050
v -0.177114 -0.136702 -5.119507
v -0.166944 -0.163148 -5.143908
v -0.155848 -0.157939 -5.120607
v -0.160877 -0.185761 -5.145079
v -0.148064 -0.186950 -5.122109
v -0.166944 -0.208374 -5.146250
v -0.155848 -0.215962 -5.123612
v -0.183520 -0.224928 -5.147107
v -0.177114 -0.237199 -5.124712
v -0.206164 -0.230987 -5.147421
v -0.206164 -0.244973 -5.125114
v -0.228807 -0.224928 -5.147107
v -0.235214 -0.237199 -5.124712
v -0.245384 -0.208374 -5.146250
v -0.256480 -0.215962 -5.123612
v -0.251451 -0.185761 -5.145079
v -0.264264 -0.186950 -5.122109
v -0.245384 -0.163148 -5.143908
v -0.256480 -0.157939 -5.120607
v -0.228807 -0.146594 -5.143050
v -0.235214 -0.136702 -5.119507
v -0.206164 -0.127739 -5.142074
v -0.177114 -0.135512 -5.142476
v -0.155848 -0.156750 -5.143576
v -0.148064 -0.185761 -5.145079
v -0.155848 -0.214772 -5.146581
v -0.177114 -0.236009 -5.147681
v -0.206164 -0.243783 -5.148084
v -0.235214 -0.236009 -5.147681
v -0.256480 -0.214772 -5.146581
v -0.264264 -0.185761 -5.145079
v -0.256480 -0.156750 -5.143576
v -0.235214 -0.135512 -5.142476
v -0.206164 -0.140534 -5.135518
v -0.183520 -0.146594 -5.135832
v -0.166944 -0.163148 -5.136690
v -0.160877 -0.185761 -5.137861
v -0.166944 -0.208374 -5.139032
v -0.183520 -0.224928 -5.139889
v -0.206164 -0.230987 -5.140203
v -0.228807 -0.224928 -5.139889
v -0.245384 -0.208374 -5.139032
v -0.251451 -0.185761 -5.137861
v -0.245384 -0.163148 -5.136690
v -0.228807 -0.146594 -5.135832
v -0.057865 -0.311549 -0.282580
v -0.057865 -0.311549 -0.119049
v -0.064481 -0.349070 -0.282580
v -0.064481 -0.349070 -0.119049
v -0.100283 -0.362101 -0.282580
v -0.100283 -0.362101 -0.119049
v -0.129470 -0.337611 -0.282580
v -0.129470 -0.337611 -0.119049
v -0.122854 -0.300090 -0.282580
v -0.122854 -0.300090 -0.119049
v -0.087051 -0.287059 -0.282580
v -0.087051 -0.287059 -0.119049
v -0.143494 -0.275964 -0.282580
v -0.143494 -0.275964 -0.119049
v -0.150110 -0.313485 -0.282580
v -0.150110 -0.313485 -0.119049
v -0.185912 -0.326516 -0.282580
v -0.185912 -0.326516 -0.119049
v -0.215099 -0.302026 -0.282580
v -0.215099 -0.302026 -0.119049
v -0.208483 -0.264504 -0.282580
v -0.208483 -0.264504 -0.119049
v -0.172680 -0.251473 -0.282580
v -0.172680 -0.251473 -0.119049
vn -0.5053 0.8630 -0.0041
vn -0.5012 0.8653 0.0064
vn -1.0000 -0.0036 0.0045
vn -0.9999 -0.0146 0.0038
vn 0.5071 0.8618 -0.0078
vn 0.5019 0.8649 0.0018
vn 0.9999 -0.0149 -0.0036
vn 1.0000 -0.0038 -0.0045
vn 0.4942 -0.8693 0.0042
vn 0.4984 -0.8669 -0.0063
vn -0.4926 -0.8702 0.0079
vn -0.4983 -0.8670 -0.0018
vn -0.5003 0.8656 0.0205
vn -1.0000 -0.0012 0.0055
vn 0.5008 0.8655 0.0149
vn 1.0000 -0.0014 -0.0056
vn 0.4993 -0.8662 -0.0205
vn -0.4996 -0.8661 -0.0150
vn -0.5002 0.8655 0.0263
vn -1.0000 -0.0007 0.0055
vn 0.5005 0.8655 0.0208
vn 1.0000 -0.0009 -0.0056
vn 0.4994 -0.8660 -0.0263
vn -0.4999 -0.8658 -0.0208
vn -0.5005 0.8652 0.0313
vn -1.0000 -0.0011 0.0045
vn 0.5005 0.8653 0.0267
vn 1.0000 -0.0013 -0.0046
vn 0.4990 -0.8660 -0.0313
vn -0.4999 -0.8657 -0.0268
vn -0.5023 0.8640 0.0341
vn -1.0000 -0.0037 0.0036
vn 0.5010 0.8649 0.0304
vn 1.0000 -0.0040 -0.0039
vn 0.4972 -0.8670 -0.0342
vn -0.4995 -0.8658 -0.0304
vn -0.5027 0.8645 0.0013
vn -0.5022 0.8647 0.0105
vn -1.0000 -0.0038 -0.0046
vn -1.0000 -0.0048 -0.0026
vn 0.5014 0.8652 0.0038
vn 0.5011 0.8653 0.0151
vn 1.0000 -0.0048 0.0025
vn 1.0000 -0.0038 0.0045
vn 0.4973 -0.8676 -0.0013
vn 0.4979 -0.8671 -0.0106
vn -0.4985 -0.8669 -0.0038
vn -0.4988 -0.8666 -0.0151
vn -0.5009 0.8652 0.0231
vn -1.0000 -0.0013 -0.0074
vn 0.5003 0.8653 0.0305
vn 1.0000 -0.0014 0.0073
vn 0.4994 -0.8661 -0.0232
vn -0.4994 -0.8658 -0.0305
vn -0.4993 0.8661 0.0229
vn -1.0000 0.0015 -0.0073
vn 0.4994 0.8658 0.0302
vn 1.0000 0.0014 0.0074
vn 0.5009 -0.8652 -0.0228
vn -0.5003 -0.8653 -0.0302
vn -0.4979 0.8672 0.0097
vn -1.0000 0.0039 -0.0045
vn 0.4988 0.8666 0.0143
vn 1.0000 0.0039 0.0046
vn 0.5022 -0.8647 -0.0097
vn -0.5011 -0.8652 -0.0143
vn -0.4973 0.8676 0.0002
vn -1.0000 0.0049 -0.0026
vn 0.4985 0.8669 0.0027
vn 1.0000 0.0049 0.0026
vn 0.5027 -0.8645 -0.0002
vn -0.5015 -0.8652 -0.0027
vn 0.2588 0.9659 -0.0000
vn 0.7071 0.7071 -0.0000
vn 0.9659 0.2588 -0.0000
vn 0.9659 -0.2588 -0.0000
vn 0.7071 -0.7071 -0.0000
vn 0.2588 -0.9659 -0.0000
vn -0.2588 -0.9659 -0.0000
vn -0.7071 -0.7071 -0.0000
vn -0.9659 -0.2588 -0.0000
vn -0.9659 0.2588 -0.0000
vn -0.0000 -0.0000 1.0000
vn -0.7071 0.7071 -0.0000
vn -0.2588 0.9659 -0.0000
vn -0.0000 1.0000 -0.0000
vn 0.5000 0.8660 -0.0000
vn -0.0000 -0.0000 -1.0000
vn -1.0000 -0.0000 -0.0000
vn -0.8660 0.5000 -0.0000
vn 0.8660 -0.5000 -0.0000
vn 0.5000 -0.8660 -0.0000
vn -0.0000 -1.0000 -0.0000
vn -0.5000 -0.8660 -0.0000
vn 0.8660 0.5000 -0.0000
vn -0.5000 0.8660 -0.0000
vn -0.8660 -0.5000 -0.0000
vn 1.0000 -0.0000 -0.0000
vn 0.2588 0.9646 0.0500
vn 0.7071 0.7062 0.0366
vn 0.9659 0.2585 0.0134
vn 0.9659 -0.2585 -0.0134
vn 0.7071 -0.7062 -0.0366
vn 0.2588 -0.9646 -0.0500
vn -0.2588 -0.9646 -0.0500
vn -0.7071 -0.7062 -0.0366
vn -0.9659 -0.2585 -0.0134
vn -0.9659 0.2585 0.0134
vn -0.0000 -0.0517 0.9987
vn -0.7071 0.7062 0.0366
vn -0.2588 0.9646 0.0500
vn -0.8694 -0.4941 -0.0000
vn -1.0000 0.0085 -0.0000
vn -1.0000 -0.0085 -0.0000
vn -0.8620 -0.5068 -0.0000
vn -0.0000 0.0517 -0.9987
vn 1.0000 0.0085 -0.0000
vn 0.8694 -0.4941 -0.0000
vn 0.8620 -0.5068 -0.0000
vn 1.0000 -0.0085 -0.0000
vn 0.4958 0.8684 -0.0000
vn 0.5032 0.8642 -0.0000
vn -0.8620 0.5068 -0.0000
vn -0.8694 0.4941 -0.0000
vn 0.5032 -0.8642 -0.0000
vn 0.4958 -0.8684 -0.0000
vn -0.5032 -0.8642 -0.0000
vn -0.4958 -0.8684 -0.0000
vn 0.8620 0.5068 -0.0000
vn 0.8694 0.4941 -0.0000
vn -0.4958 0.8684 -0.0000
vn -0.5032 0.8642 -0.0000
vn 0.9848 -0.1736 -0.0000
vn 0.7660 -0.6428 -0.0000
vn -0.1736 -0.9848 -0.0000
vn -0.9397 -0.3420 -0.0000
vn -0.7660 0.6428 -0.0000
vn -0.3420 0.9397 -0.0000
vt 0.224800 0.006938
vt 0.224787 0.111983
vt 0.221733 0.111983
vt 0.221747 0.006821
vt 0.227856 0.006928
vt 0.227842 0.111983
vt 0.212556 0.006798
vt 0.212572 0.111983
vt 0.209518 0.111983
vt 0.209502 0.006927
vt 0.215619 0.006680
vt 0.215626 0.111983
vt 0.218685 0.006692
vt 0.218679 0.111983
vt 0.224776 0.283815
vt 0.221730 0.283815
vt 0.227823 0.283816
vt 0.212569 0.283814
vt 0.209518 0.283814
vt 0.215622 0.283814
vt 0.218678 0.283815
vt 0.224763 0.477445
vt 0.221717 0.477444
vt 0.227811 0.477445
vt 0.212566 0.477444
vt 0.209516 0.477444
vt 0.215615 0.477444
vt 0.218667 0.477444
vt 0.224761 0.648211
vt 0.221711 0.648211
vt 0.227810 0.648211
vt 0.212560 0.648210
vt 0.209510 0.648210
vt 0.215610 0.648210
vt 0.218660 0.648210
vt 0.224764 0.751392
vt 0.221713 0.751429
vt 0.227812 0.751380
vt 0.212552 0.751406
vt 0.209502 0.751380
vt 0.215605 0.751444
vt 0.218659 0.751456
vt 0.196141 0.006761
vt 0.196116 0.165199
vt 0.193066 0.165198
vt 0.193088 0.006717
vt 0.180856 0.006768
vt 0.180867 0.165198
vt 0.177817 0.165198
vt 0.177805 0.006761
vt 0.183905 0.006732
vt 0.183916 0.165198
vt 0.186965 0.006688
vt 0.186966 0.165198
vt 0.190027 0.006680
vt 0.190016 0.165198
vt 0.196111 0.311351
vt 0.193063 0.311351
vt 0.180876 0.311352
vt 0.177833 0.311352
vt 0.183920 0.311351
vt 0.186965 0.311351
vt 0.190016 0.311351
vt 0.196121 0.453408
vt 0.193071 0.453408
vt 0.180880 0.453408
vt 0.177831 0.453408
vt 0.183930 0.453408
vt 0.186977 0.453408
vt 0.190024 0.453408
vt 0.196141 0.599622
vt 0.193087 0.599622
vt 0.180866 0.599621
vt 0.177810 0.599621
vt 0.183922 0.599621
vt 0.186977 0.599622
vt 0.190032 0.599622
vt 0.196130 0.757941
vt 0.193076 0.757897
vt 0.180857 0.757949
vt 0.177791 0.757941
vt 0.183922 0.757912
vt 0.186978 0.757868
vt 0.190024 0.757860
vt 0.147173 0.955527
vt 0.150433 0.952422
vt 0.153744 0.958236
vt 0.149475 0.959228
vt 0.153672 0.964799
vt 0.149561 0.963525
vt 0.150386 0.970350
vt 0.147456 0.967260
vt 0.144903 0.973570
vt 0.143907 0.969517
vt 0.138636 0.973606
vt 0.139765 0.969670
vt 0.133322 0.970601
vt 0.136176 0.967722
vt 0.130042 0.965545
vt 0.133848 0.964347
vt 0.129480 0.959597
vt 0.133321 0.960141
vt 0.131546 0.953539
vt 0.135126 0.956156
vt 0.137156 0.948937
vt 0.138817 0.953762
vt 0.983538 0.203743
vt 0.979564 0.206037
vt 0.974976 0.206037
vt 0.971002 0.203743
vt 0.968708 0.199769
vt 0.968708 0.195181
vt 0.971002 0.191207
vt 0.974976 0.188913
vt 0.979564 0.188913
vt 0.983538 0.191207
vt 0.985833 0.195181
vt 0.985833 0.199769
vt 0.144483 0.948937
vt 0.143234 0.953480
vt 0.137285 0.966496
vt 0.135508 0.963729
vt 0.136424 0.963383
vt 0.137920 0.965770
vt 0.147716 0.959749
vt 0.145899 0.956901
vt 0.147803 0.963078
vt 0.146135 0.965992
vt 0.143379 0.967831
vt 0.140151 0.967984
vt 0.135151 0.960436
vt 0.136607 0.957420
vt 0.139400 0.955513
vt 0.142824 0.955345
vt 0.145246 0.957668
vt 0.146781 0.960065
vt 0.146847 0.962864
vt 0.145389 0.965325
vt 0.143051 0.966933
vt 0.140330 0.967057
vt 0.136128 0.960577
vt 0.137372 0.958048
vt 0.139741 0.956451
vt 0.142631 0.956353
vt 0.978379 0.432811
vt 0.982335 0.436097
vt 0.975862 0.439957
vt 0.974572 0.435307
vt 0.968804 0.439957
vt 0.970100 0.435618
vt 0.963074 0.436431
vt 0.966247 0.433445
vt 0.959974 0.430832
vt 0.963998 0.429872
vt 0.960066 0.424731
vt 0.963860 0.425806
vt 0.962913 0.419722
vt 0.965705 0.422339
vt 0.967482 0.416490
vt 0.968878 0.419887
vt 0.973373 0.415209
vt 0.972923 0.419485
vt 0.979189 0.417479
vt 0.976865 0.420799
vt 0.983863 0.422293
vt 0.979545 0.424192
vt 0.978158 0.979480
vt 0.978158 0.984069
vt 0.975864 0.988043
vt 0.971890 0.990337
vt 0.967301 0.990337
vt 0.963328 0.988043
vt 0.961033 0.984069
vt 0.961033 0.979480
vt 0.963328 0.975507
vt 0.967301 0.973212
vt 0.971890 0.973212
vt 0.975864 0.975507
vt 0.984589 0.429139
vt 0.980162 0.428585
vt 0.970533 0.433702
vt 0.967525 0.432086
vt 0.968244 0.431375
vt 0.970814 0.432743
vt 0.973972 0.433548
vt 0.976897 0.431583
vt 0.965669 0.429341
vt 0.965504 0.426164
vt 0.966932 0.423402
vt 0.969545 0.421597
vt 0.972742 0.421092
vt 0.975780 0.422294
vt 0.977816 0.424929
vt 0.978275 0.428318
vt 0.976044 0.430882
vt 0.973672 0.432543
vt 0.966586 0.429091
vt 0.966395 0.426393
vt 0.967581 0.423974
vt 0.969926 0.422473
vt 0.972696 0.422041
vt 0.975240 0.423117
vt 0.976943 0.425355
vt 0.977216 0.428201
vt 0.960936 0.295734
vt 0.935986 0.295734
vt 0.935986 0.289921
vt 0.960936 0.289921
vt 0.935986 0.284108
vt 0.960936 0.284108
vt 0.935986 0.278295
vt 0.960936 0.278295
vt 0.935986 0.272482
vt 0.960936 0.272482
vt 0.992119 0.703331
vt 0.992119 0.709144
vt 0.987085 0.712050
vt 0.982051 0.709144
vt 0.982051 0.703331
vt 0.987085 0.700424
vt 0.935986 0.266670
vt 0.960936 0.266670
vt 0.982051 0.684157
vt 0.982051 0.678344
vt 0.987085 0.675438
vt 0.992119 0.678344
vt 0.992119 0.684157
vt 0.987085 0.687063
vt 0.682365 0.975055
vt 0.657415 0.975055
vt 0.657415 0.969242
vt 0.682365 0.969242
vt 0.657415 0.963429
vt 0.682365 0.963429
vt 0.657415 0.957616
vt 0.682365 0.957616
vt 0.657415 0.951803
vt 0.682365 0.951803
vt 0.991976 0.814390
vt 0.986942 0.817296
vt 0.981908 0.814390
vt 0.981908 0.808577
vt 0.986942 0.805670
vt 0.991976 0.808577
vt 0.657415 0.945990
vt 0.682365 0.945990
vt 0.981908 0.783590
vt 0.986942 0.780683
vt 0.991976 0.783590
vt 0.991976 0.789403
vt 0.986942 0.792309
vt 0.981908 0.789403
s 1
f 1/1/1 7/2/2 12/3/3 6/4/4
f 2/5/5 8/6/6 7/2/2 1/1/1
f 3/7/7 9/8/8 8/9/6 2/10/5
f 4/11/9 10/12/10 9/8/8 3/7/7
f 5/13/11 11/14/12 10/12/10 4/11/9
f 6/4/4 12/3/3 11/14/12 5/13/11
f 7/2/2 13/15/13 18/16/14 12/3/3
f 8/6/6 14/17/15 13/15/13 7/2/2
f 9/8/8 15/18/16 14/19/15 8/9/6
f 10/12/10 16/20/17 15/18/16 9/8/8
f 11/14/12 17/21/18 16/20/17 10/12/10
f 12/3/3 18/16/14 17/21/18 11/14/12
f 13/15/13 19/22/19 24/23/20 18/16/14
f 14/17/15 20/24/21 19/22/19 13/15/13
f 15/18/16 21/25/22 20/26/21 14/19/15
f 16/20/17 22/27/23 21/25/22 15/18/16
f 17/21/18 23/28/24 22/27/23 16/20/17
f 18/16/14 24/23/20 23/28/24 17/21/18
f 19/22/19 25/29/25 30/30/26 24/23/20
f 20/24/21 26/31/27 25/29/25 19/22/19
f 21/25/22 27/32/28 26/33/27 20/26/21
f 22/27/23 28/34/29 27/32/28 21/25/22
f 23/28/24 29/35/30 28/34/29 22/27/23
f 24/23/20 30/30/26 29/35/30 23/28/24
f 25/29/25 31/36/31 36/37/32 30/30/26
f 26/31/27 32/38/33 31/36/31 25/29/25
f 27/32/28 33/39/34 32/40/33 26/33/27
f 28/34/29 34/41/35 33/39/34 27/32/28
f 29/35/30 35/42/36 34/41/35 28/34/29
f 30/30/26 36/37/32 35/42/36 29/35/30
f 37/43/37 43/44/38 48/45/39 42/46/40
f 38/47/41 44/48/42 43/49/38 37/50/37
f 39/51/43 45/52/44 44/48/42 38/47/41
f 40/53/45 46/54/46 45/52/44 39/51/43
f 41/55/47 47/56/48 46/54/46 40/53/45
f 42/46/40 48/45/39 47/56/48 41/55/47
f 43/44/38 49/57/49 54/58/50 48/45/39
f 44/48/42 50/59/51 49/60/49 43/49/38
f 45/52/44 51/61/52 50/59/51 44/48/42
f 46/54/46 52/62/53 51/61/52 45/52/44
f 47/56/48 53/63/54 52/62/53 46/54/46
f 48/45/39 54/58/50 53/63/54 47/56/48
f 49/57/49 55/64/55 60/65/56 54/58/50
f 50/59/51 56/66/57 55/67/55 49/60/49
f 51/61/52 57/68/58 56/66/57 50/59/51
f 52/62/53 58/69/59 57/68/58 51/61/52
f 53/63/54 59/70/60 58/69/59 52/62/53
f 54/58/50 60/65/56 59/70/60 53/63/54
f 55/64/55 61/71/61 66/72/62 60/65/56
f 56/66/57 62/73/63 61/74/61 55/67/55
f 57/68/58 63/75/64 62/73/63 56/66/57
f 58/69/59 64/76/65 63/75/64 57/68/58
f 59/70/60 65/77/66 64/76/65 58/69/59
f 60/65/56 66/72/62 65/77/66 59/70/60
f 61/71/61 67/78/67 72/79/68 66/72/62
f 62/73/63 68/80/69 67/81/67 61/74/61
f 63/75/64 69/82/70 68/80/69 62/73/63
f 64/76/65 70/83/71 69/82/70 63/75/64
f 65/77/66 71/84/72 70/83/71 64/76/65
f 66/72/62 72/79/68 71/84/72 65/77/66
f 97/85/73 74/86/73 76/87/73 98/88/73
f 98/88/74 76/87/74 78/89/74 99/90/74
f 99/90/75 78/89/75 80/91/75 100/92/75
f 100/92/76 80/91/76 82/93/76 101/94/76
f 101/94/77 82/93/77 84/95/77 102/96/77
f 102/96/78 84/95/78 86/97/78 103/98/78
f 103/98/79 86/97/79 88/99/79 104/100/79
f 104/100/80 88/99/80 90/101/80 105/102/80
f 105/102/81 90/101/81 92/103/81 106/104/81
f 106/104/82 92/103/82 94/105/82 107/106/82
f 76/107/83 74/108/83 96/109/83 94/110/83 92/111/83 90/112/83 88/113/83 86/114/83 84/115/83 82/116/83 80/117/83 78/118/83
f 107/106/84 94/105/84 96/119/84 108/120/84
f 108/120/85 96/119/85 74/86/85 97/85/85
f 85/121/86 87/122/87 116/123/87 115/124/86
f 75/125/88 73/126/88 97/85/88 98/88/88
f 77/127/88 75/125/88 98/88/88 99/90/88
f 79/128/88 77/127/88 99/90/88 100/92/88
f 81/129/88 79/128/88 100/92/88 101/94/88
f 83/130/88 81/129/88 101/94/88 102/96/88
f 85/121/88 83/130/88 102/96/88 103/98/88
f 87/122/88 85/121/88 103/98/88 104/100/88
f 89/131/88 87/122/88 104/100/88 105/102/88
f 91/132/88 89/131/88 105/102/88 106/104/88
f 93/133/88 91/132/88 106/104/88 107/106/88
f 95/134/88 93/133/88 107/106/88 108/120/88
f 73/126/88 95/134/88 108/120/88 97/85/88
f 109/135/88 110/136/88 111/137/88 112/138/88 113/139/88 114/140/88 115/124/88 116/123/88 117/141/88 118/142/88 119/143/88 120/144/88
f 79/128/89 81/129/90 113/139/90 112/138/89
f 93/133/91 95/134/92 120/144/92 119/143/91
f 73/126/93 75/125/94 110/136/94 109/135/93
f 87/122/87 89/131/95 117/141/95 116/123/87
f 81/129/90 83/130/96 114/140/96 113/139/90
f 95/134/92 73/126/93 109/135/93 120/144/92
f 75/125/94 77/127/97 111/137/97 110/136/94
f 89/131/95 91/132/98 118/142/98 117/141/95
f 83/130/96 85/121/86 115/124/86 114/140/96
f 77/127/97 79/128/89 112/138/89 111/137/97
f 91/132/98 93/133/91 119/143/91 118/142/98
f 145/145/99 122/146/99 124/147/99 146/148/99
f 146/148/100 124/147/100 126/149/100 147/150/100
f 147/150/101 126/149/101 128/151/101 148/152/101
f 148/152/102 128/151/102 130/153/102 149/154/102
f 149/154/103 130/153/103 132/155/103 150/156/103
f 150/156/104 132/155/104 134/157/104 151/158/104
f 151/158/105 134/157/105 136/159/105 152/160/105
f 152/160/106 136/159/106 138/161/106 153/162/106
f 153/162/107 138/161/107 140/163/107 154/164/107
f 154/164/108 140/163/108 142/165/108 155/166/108
f 124/167/109 122/168/109 144/169/109 142/170/109 140/171/109 138/172/109 136/173/109 134/174/109 132/175/109 130/176/109 128/177/109 126/178/109
f 155/166/110 142/165/110 144/179/110 156/180/110
f 156/180/111 144/179/111 122/146/111 145/145/111
f 125/181/112 127/182/113 160/183/114 159/184/115
f 123/185/116 121/186/116 145/145/116 146/148/116
f 125/181/116 123/185/116 146/148/116 147/150/116
f 127/182/116 125/181/116 147/150/116 148/152/116
f 129/187/116 127/182/116 148/152/116 149/154/116
f 131/188/116 129/187/116 149/154/116 150/156/116
f 133/189/116 131/188/116 150/156/116 151/158/116
f 135/190/116 133/189/116 151/158/116 152/160/116
f 137/191/116 135/190/116 152/160/116 153/162/116
f 139/192/116 137/191/116 153/162/116 154/164/116
f 141/193/116 139/192/116 154/164/116 155/166/116
f 143/194/116 141/193/116 155/166/116 156/180/116
f 121/186/116 143/194/116 156/180/116 145/145/116
f 157/195/116 158/196/116 159/184/116 160/183/116 161/197/116 162/198/116 163/199/116 164/200/116 165/201/116 166/202/116 167/203/116 168/204/116
f 139/192/117 141/193/118 167/203/119 166/202/120
f 133/189/86 135/190/121 164/200/122 163/199/86
f 127/182/113 129/187/123 161/197/124 160/183/114
f 141/193/118 143/194/125 168/204/126 167/203/119
f 121/186/93 123/185/127 158/196/128 157/195/93
f 135/190/121 137/191/129 165/201/130 164/200/122
f 129/187/123 131/188/131 162/198/132 161/197/124
f 143/194/125 121/186/93 157/195/93 168/204/126
f 123/185/127 125/181/112 159/184/115 158/196/128
f 137/191/129 139/192/117 166/202/120 165/201/130
f 131/188/131 133/189/86 163/199/86 162/198/132
f 169/205/133 170/206/133 172/207/134 171/208/134
f 171/208/134 172/207/134 174/209/135 173/210/135
f 173/210/135 174/209/135 176/211/136 175/212/136
f 175/212/136 176/211/136 178/213/137 177/214/137
f 172/215/83 170/216/83 180/217/83 178/218/83 176/219/83 174/220/83
f 177/214/137 178/213/137 180/221/138 179/222/138
f 169/223/88 171/224/88 173/225/88 175/226/88 177/227/88 179/228/88
f 181/229/133 182/230/133 184/231/134 183/232/134
f 183/232/134 184/231/134 186/233/135 185/234/135
f 185/234/135 186/233/135 188/235/136 187/236/136
f 187/236/136 188/235/136 190/237/137 189/238/137
f 184/239/83 182/240/83 192/241/83 190/242/83 188/243/83 186/244/83
f 189/238/137 190/237/137 192/245/138 191/246/138
f 181/247/88 183/248/88 185/249/88 187/250/88 189/251/88 191/252/88
