# Blender 4.1.1
# www.blender.org
o Telescope_5"Refractor
v -0.000000 0.082550 -1.086958
v -0.000000 0.097192 1.389542
v 0.041275 0.071490 -1.086958
v 0.048596 0.084171 1.389542
v 0.071490 0.041275 -1.086958
v 0.084171 0.048596 1.389542
v 0.082550 -0.000000 -1.086958
v 0.097192 0.000000 1.389542
v 0.071490 -0.041275 -1.086958
v 0.084171 -0.048596 1.389542
v 0.041275 -0.071490 -1.086958
v 0.048596 -0.084170 1.389542
v -0.000000 -0.082550 -1.086958
v -0.000000 -0.097192 1.389542
v -0.041275 -0.071490 -1.086958
v -0.048596 -0.084170 1.389542
v -0.071490 -0.041275 -1.086958
v -0.084171 -0.048596 1.389542
v -0.082550 -0.000000 -1.086958
v -0.097192 0.000000 1.389542
v -0.071490 0.041275 -1.086958
v -0.084171 0.048596 1.389542
v -0.041275 0.071490 -1.086958
v -0.048596 0.084171 1.389542
v -0.000000 0.089367 1.287339
v 0.044683 0.077394 1.287339
v 0.077394 0.044684 1.287339
v 0.089367 0.000000 1.287339
v 0.077394 -0.044683 1.287339
v 0.044683 -0.077394 1.287339
v -0.000000 -0.089367 1.287339
v -0.044684 -0.077394 1.287339
v -0.077394 -0.044683 1.287339
v -0.089367 0.000000 1.287339
v -0.077394 0.044684 1.287339
v -0.044684 0.077394 1.287339
v 0.041275 0.071491 1.287339
v 0.071490 0.041275 1.287339
v 0.082550 0.000000 1.287339
v 0.071490 -0.041275 1.287339
v 0.041275 -0.071490 1.287339
v -0.000000 -0.082550 1.287339
v -0.041275 -0.071490 1.287339
v -0.071490 -0.041275 1.287339
v -0.082550 0.000000 1.287339
v -0.071490 0.041275 1.287339
v -0.041275 0.071491 1.287339
v -0.000000 0.082550 1.287339
v 0.054235 0.093938 1.389542
v -0.000000 0.108470 1.389542
v 0.093937 0.054235 1.389542
v 0.108470 0.000000 1.389542
v 0.093937 -0.054235 1.389542
v 0.054235 -0.093937 1.389542
v -0.000000 -0.108470 1.389542
v -0.054235 -0.093937 1.389542
v -0.093938 -0.054235 1.389542
v -0.108470 0.000000 1.389542
v -0.093938 0.054235 1.389542
v -0.054235 0.093938 1.389542
v 0.054235 0.093938 1.403155
v -0.000000 0.108470 1.403155
v 0.093937 0.054235 1.403155
v 0.108470 0.000000 1.403155
v 0.093937 -0.054235 1.403155
v 0.054235 -0.093937 1.403155
v -0.000000 -0.108470 1.403155
v -0.054235 -0.093937 1.403155
v -0.093938 -0.054235 1.403155
v -0.108470 0.000000 1.403155
v -0.093938 0.054235 1.403155
v -0.054235 0.093938 1.403155
v 0.047913 0.082988 1.403155
v -0.000000 0.095827 1.403155
v 0.082988 0.047913 1.403155
v 0.095826 0.000000 1.403155
v 0.082988 -0.047913 1.403155
v 0.047913 -0.082988 1.403155
v -0.000000 -0.095826 1.403155
v -0.047913 -0.082988 1.403155
v -0.082988 -0.047913 1.403155
v -0.095826 0.000000 1.403155
v -0.082988 0.047913 1.403155
v -0.047913 0.082988 1.403155
v 0.047913 0.082988 1.469984
v -0.000000 0.095827 1.469984
v 0.082988 0.047913 1.469984
v 0.095826 0.000000 1.469984
v 0.082988 -0.047913 1.469984
v 0.047913 -0.082988 1.469984
v -0.000000 -0.095826 1.469984
v -0.047913 -0.082988 1.469984
v -0.082988 -0.047913 1.469984
v -0.095826 0.000000 1.469984
v -0.082988 0.047913 1.469984
v -0.047913 0.082988 1.469984
v 0.043074 0.074607 1.469984
v -0.000000 0.086149 1.469984
v 0.074607 0.043075 1.469984
v 0.086149 0.000000 1.469984
v 0.074607 -0.043074 1.469984
v 0.043074 -0.074607 1.469984
v -0.000000 -0.086149 1.469984
v -0.043075 -0.074607 1.469984
v -0.074607 -0.043074 1.469984
v -0.086149 0.000000 1.469984
v -0.074607 0.043075 1.469984
v -0.043075 0.074607 1.469984
v 0.037743 0.065373 1.475093
v -0.000000 0.075486 1.475093
v 0.065373 0.037743 1.475093
v 0.075486 0.000000 1.475093
v 0.065373 -0.037743 1.475093
v 0.037743 -0.065373 1.475093
v -0.000000 -0.075486 1.475093
v -0.037743 -0.065373 1.475093
v -0.065373 -0.037743 1.475093
v -0.075486 0.000000 1.475093
v -0.065373 0.037743 1.475093
v -0.037743 0.065373 1.475093
v 0.043074 0.074607 1.481452
v -0.000000 0.086149 1.481452
v 0.074607 0.043075 1.481452
v 0.086149 0.000000 1.481452
v 0.074607 -0.043074 1.481452
v 0.043074 -0.074607 1.481452
v -0.000000 -0.086149 1.481452
v -0.043075 -0.074607 1.481452
v -0.074607 -0.043074 1.481452
v -0.086149 0.000000 1.481452
v -0.074607 0.043075 1.481452
v -0.043075 0.074607 1.481452
v 0.020129 0.034864 1.451234
v 0.037743 0.065373 1.432890
v -0.000000 0.075486 1.432890
v -0.000000 0.040258 1.451234
v 0.034864 0.020129 1.451234
v 0.065373 0.037743 1.432890
v 0.040258 0.000000 1.451234
v 0.075486 0.000000 1.432890
v 0.034864 -0.020129 1.451234
v 0.065373 -0.037743 1.432890
v 0.020129 -0.034864 1.451234
v 0.037743 -0.065373 1.432890
v -0.000000 -0.040258 1.451234
v -0.000000 -0.075486 1.432890
v -0.020129 -0.034864 1.451234
v -0.037743 -0.065373 1.432890
v -0.034864 -0.020129 1.451234
v -0.065373 -0.037743 1.432890
v -0.040258 0.000000 1.451234
v -0.075486 0.000000 1.432890
v -0.034864 0.020129 1.451234
v -0.065373 0.037743 1.432890
v -0.020129 0.034864 1.451234
v -0.037743 0.065373 1.432890
v -0.000000 0.090499 -1.096426
v 0.045250 0.078375 -1.096426
v 0.078375 0.045250 -1.096426
v 0.090499 -0.000000 -1.096426
v 0.078375 -0.045250 -1.096426
v 0.045250 -0.078375 -1.096426
v -0.000000 -0.090499 -1.096426
v -0.045250 -0.078375 -1.096426
v -0.078375 -0.045250 -1.096426
v -0.090499 -0.000000 -1.096426
v -0.078375 0.045250 -1.096426
v -0.045250 0.078375 -1.096426
v -0.000000 0.082681 -1.107452
v 0.041340 0.071604 -1.107452
v 0.071604 0.041340 -1.107452
v 0.082681 -0.000000 -1.107452
v 0.071604 -0.041340 -1.107452
v 0.041340 -0.071604 -1.107452
v -0.000000 -0.082681 -1.107452
v -0.041340 -0.071604 -1.107452
v -0.071604 -0.041340 -1.107452
v -0.082681 -0.000000 -1.107452
v -0.071604 0.041340 -1.107452
v -0.041340 0.071604 -1.107452
v -0.000000 0.047369 -1.159911
v 0.023684 0.041023 -1.159911
v 0.041023 0.023684 -1.159911
v 0.047369 -0.000000 -1.159911
v 0.041023 -0.023684 -1.159911
v 0.023684 -0.041023 -1.159911
v -0.000000 -0.047369 -1.159911
v -0.023685 -0.041023 -1.159911
v -0.041023 -0.023684 -1.159911
v -0.047369 -0.000000 -1.159911
v -0.041023 0.023684 -1.159911
v -0.023685 0.041023 -1.159911
v -0.000000 0.047369 -1.130749
v -0.000000 0.071488 -1.107452
v -0.000000 0.054433 -1.114276
v 0.035744 0.061910 -1.107452
v 0.023684 0.041023 -1.130749
v 0.027217 0.047141 -1.114276
v 0.061910 0.035744 -1.107452
v 0.041023 0.023684 -1.130749
v 0.047140 0.027217 -1.114276
v 0.071488 -0.000000 -1.107452
v 0.047369 -0.000000 -1.130749
v 0.054433 -0.000000 -1.114276
v 0.061910 -0.035744 -1.107452
v 0.041023 -0.023684 -1.130749
v 0.047140 -0.027217 -1.114276
v 0.035744 -0.061910 -1.107452
v 0.023684 -0.041023 -1.130749
v 0.027217 -0.047141 -1.114276
v -0.000000 -0.071488 -1.107452
v -0.000000 -0.047369 -1.130749
v -0.000000 -0.054433 -1.114276
v -0.035744 -0.061910 -1.107452
v -0.023685 -0.041023 -1.130749
v -0.027217 -0.047141 -1.114276
v -0.061910 -0.035744 -1.107452
v -0.041023 -0.023684 -1.130749
v -0.047141 -0.027217 -1.114276
v -0.071488 -0.000000 -1.107452
v -0.047369 -0.000000 -1.130749
v -0.054433 -0.000000 -1.114276
v -0.061910 0.035744 -1.107452
v -0.041023 0.023684 -1.130749
v -0.047141 0.027217 -1.114276
v -0.035744 0.061910 -1.107452
v -0.023685 0.041023 -1.130749
v -0.027217 0.047141 -1.114276
v -0.000000 0.034627 -1.296993
v 0.017313 0.029987 -1.296993
v 0.029987 0.017313 -1.296993
v 0.034626 -0.000000 -1.296993
v 0.029987 -0.017313 -1.296993
v 0.017313 -0.029988 -1.296993
v -0.000000 -0.034627 -1.296993
v -0.017314 -0.029988 -1.296993
v -0.029988 -0.017313 -1.296993
v -0.034627 -0.000000 -1.296993
v -0.029988 0.017313 -1.296993
v -0.017314 0.029987 -1.296993
v -0.000000 0.047369 -1.296993
v 0.023684 0.041023 -1.296993
v 0.041022 0.023684 -1.296993
v 0.047369 -0.000000 -1.296993
v 0.041022 -0.023684 -1.296993
v 0.023684 -0.041023 -1.296993
v -0.000000 -0.047369 -1.296993
v -0.023685 -0.041023 -1.296993
v -0.041023 -0.023684 -1.296993
v -0.047369 -0.000000 -1.296993
v -0.041023 0.023684 -1.296993
v -0.023685 0.041023 -1.296993
v -0.000000 0.034627 -1.495025
v 0.017313 0.029987 -1.495025
v 0.029987 0.017313 -1.495025
v 0.034626 -0.000000 -1.495025
v 0.029987 -0.017313 -1.495025
v 0.017313 -0.029988 -1.495025
v -0.000000 -0.034627 -1.495025
v -0.017314 -0.029988 -1.495025
v -0.029988 -0.017313 -1.495025
v -0.034627 -0.000000 -1.495025
v -0.029988 0.017313 -1.495025
v -0.017314 0.029987 -1.495025
v -0.000000 0.016781 -1.494723
v 0.008390 0.014533 -1.494723
v 0.014533 0.008391 -1.494723
v 0.016781 -0.000000 -1.494723
v 0.014533 -0.008391 -1.494723
v 0.008390 -0.014533 -1.494723
v -0.000000 -0.016781 -1.494723
v -0.008391 -0.014533 -1.494723
v -0.014533 -0.008391 -1.494723
v -0.016782 -0.000000 -1.494723
v -0.014533 0.008391 -1.494723
v -0.008391 0.014533 -1.494723
v -0.000000 0.039092 -1.503075
v 0.019546 0.033855 -1.503075
v 0.033854 0.019546 -1.503075
v 0.039092 -0.000000 -1.503075
v 0.033854 -0.019546 -1.503075
v 0.019546 -0.033855 -1.503075
v -0.000000 -0.039092 -1.503075
v -0.019546 -0.033855 -1.503075
v -0.033855 -0.019546 -1.503075
v -0.039092 -0.000000 -1.503075
v -0.033855 0.019546 -1.503075
v -0.019546 0.033855 -1.503075
v -0.000000 0.008887 -1.497157
v -0.000000 0.016781 -1.490914
v 0.008390 0.014533 -1.490914
v 0.004443 0.007696 -1.497157
v 0.014533 0.008391 -1.490914
v 0.007696 0.004444 -1.497157
v 0.016781 -0.000000 -1.490914
v 0.008887 -0.000000 -1.497157
v 0.014533 -0.008391 -1.490914
v 0.007696 -0.004444 -1.497157
v 0.008390 -0.014533 -1.490914
v 0.004443 -0.007697 -1.497157
v -0.000000 -0.016781 -1.490914
v -0.000000 -0.008887 -1.497157
v -0.008391 -0.014533 -1.490914
v -0.004444 -0.007697 -1.497157
v -0.014533 -0.008391 -1.490914
v -0.007697 -0.004444 -1.497157
v -0.016782 -0.000000 -1.490914
v -0.008887 -0.000000 -1.497157
v -0.014533 0.008391 -1.490914
v -0.007697 0.004444 -1.497157
v -0.008391 0.014533 -1.490914
v -0.004444 0.007696 -1.497157
v 0.106665 0.152333 -1.340887
v 0.112172 0.143688 -1.340887
v 0.109954 0.133681 -1.340887
v 0.101309 0.128173 -1.340887
v 0.091301 0.130392 -1.340887
v 0.085794 0.139037 -1.340887
v 0.088012 0.149044 -1.340887
v 0.096657 0.154552 -1.340887
v 0.121966 0.174186 -0.690137
v 0.138444 0.148321 -0.690137
v 0.131806 0.118380 -0.690137
v 0.105941 0.101902 -0.690137
v 0.076000 0.108539 -0.690137
v 0.059522 0.134405 -0.690137
v 0.066160 0.164346 -0.690137
v 0.092025 0.180824 -0.690137
v 0.130989 0.147006 -0.690137
v 0.125606 0.122722 -0.690137
v 0.104627 0.109357 -0.690137
v 0.080342 0.114740 -0.690137
v 0.066977 0.135719 -0.690137
v 0.072361 0.160004 -0.690137
v 0.093340 0.173369 -0.690137
v 0.117624 0.167985 -0.690137
v 0.138444 0.148321 -0.628061
v 0.121966 0.174186 -0.628061
v 0.131806 0.118380 -0.628061
v 0.105941 0.101902 -0.628061
v 0.076000 0.108539 -0.628061
v 0.059522 0.134405 -0.628061
v 0.066160 0.164346 -0.628061
v 0.092025 0.180824 -0.628061
v 0.119737 0.145022 -0.623445
v 0.136928 0.148054 -0.639573
v 0.121083 0.172925 -0.639573
v 0.111071 0.158625 -0.623445
v 0.116246 0.129275 -0.623445
v 0.130546 0.119263 -0.639573
v 0.102643 0.120609 -0.623445
v 0.105674 0.103418 -0.639573
v 0.086896 0.124100 -0.623445
v 0.076883 0.109800 -0.639573
v 0.078229 0.137703 -0.623445
v 0.061038 0.134672 -0.639573
v 0.081720 0.153450 -0.623445
v 0.067421 0.163463 -0.639573
v 0.095324 0.162116 -0.623445
v 0.092292 0.179308 -0.639573
v 0.117624 0.167985 -1.343061
v 0.130989 0.147006 -1.343061
v 0.125606 0.122721 -1.343061
v 0.104627 0.109356 -1.343061
v 0.080342 0.114740 -1.343061
v 0.066977 0.135719 -1.343061
v 0.072361 0.160004 -1.343061
v 0.093340 0.173369 -1.343061
v 0.143248 0.149168 -1.197887
v 0.135802 0.115582 -1.197887
v 0.106788 0.097098 -1.197887
v 0.073202 0.104544 -1.197887
v 0.054718 0.133558 -1.197887
v 0.062164 0.167144 -1.197887
v 0.091178 0.185627 -1.197887
v 0.124764 0.178182 -1.197887
v 0.143248 0.149168 -1.219884
v 0.135802 0.115582 -1.219884
v 0.106788 0.097098 -1.219884
v 0.073202 0.104544 -1.219884
v 0.054718 0.133558 -1.219884
v 0.062164 0.167144 -1.219884
v 0.091178 0.185627 -1.219884
v 0.124764 0.178182 -1.219884
v 0.124764 0.178182 -0.801829
v 0.143248 0.149168 -0.801829
v 0.135802 0.115582 -0.801829
v 0.106788 0.097098 -0.801829
v 0.073202 0.104544 -0.801829
v 0.054718 0.133558 -0.801829
v 0.062164 0.167144 -0.801829
v 0.091178 0.185627 -0.801829
v 0.124764 0.178182 -0.781314
v 0.143248 0.149168 -0.781314
v 0.135802 0.115582 -0.781314
v 0.106788 0.097098 -0.781314
v 0.073202 0.104544 -0.781314
v 0.054718 0.133558 -0.781314
v 0.062164 0.167144 -0.781314
v 0.091178 0.185627 -0.781314
v 0.117624 0.167985 -0.781314
v 0.130989 0.147006 -0.781314
v 0.125606 0.122722 -0.781314
v 0.104627 0.109356 -0.781314
v 0.080342 0.114740 -0.781314
v 0.066977 0.135719 -0.781314
v 0.072361 0.160004 -0.781314
v 0.093340 0.173369 -0.781314
v 0.130989 0.147006 -0.801829
v 0.125606 0.122722 -0.801829
v 0.104627 0.109356 -0.801829
v 0.080342 0.114740 -0.801829
v 0.066977 0.135719 -0.801829
v 0.072361 0.160004 -0.801829
v 0.093340 0.173369 -0.801829
v 0.117624 0.167985 -0.801829
v 0.130989 0.147006 -1.197887
v 0.125606 0.122721 -1.197887
v 0.104627 0.109356 -1.197887
v 0.080342 0.114740 -1.197887
v 0.066977 0.135719 -1.197887
v 0.072361 0.160004 -1.197887
v 0.093340 0.173369 -1.197887
v 0.117624 0.167985 -1.197887
v 0.130989 0.147006 -1.219884
v 0.125606 0.122721 -1.219884
v 0.104627 0.109356 -1.219884
v 0.080342 0.114740 -1.219884
v 0.066977 0.135719 -1.219884
v 0.072361 0.160004 -1.219884
v 0.093340 0.173369 -1.219884
v 0.117624 0.167985 -1.219884
v 0.032590 0.060361 -0.784267
v 0.076770 0.123457 -0.784267
v 0.032590 0.060361 -0.800118
v 0.076770 0.123457 -0.800118
v 0.045574 0.051270 -0.784267
v 0.089754 0.114366 -0.784267
v 0.045574 0.051270 -0.800118
v 0.089754 0.114366 -0.800118
v 0.014766 0.034905 -1.200837
v 0.069630 0.113259 -1.200837
v 0.014766 0.034905 -1.216687
v 0.069630 0.113259 -1.216687
v 0.027750 0.025814 -1.200837
v 0.082614 0.104168 -1.200837
v 0.027750 0.025814 -1.216687
v 0.082614 0.104168 -1.216687
v -0.043831 0.000000 -1.217597
v -0.078171 0.000000 -1.217597
v -0.043831 0.006556 -1.214882
v -0.078171 0.006556 -1.214882
v -0.043831 0.009271 -1.208327
v -0.078171 0.009271 -1.208327
v -0.043831 0.006556 -1.201771
v -0.078171 0.006556 -1.201771
v -0.043831 0.000000 -1.199056
v -0.078171 0.000000 -1.199056
v -0.043831 -0.006556 -1.201771
v -0.078171 -0.006556 -1.201771
v -0.043831 -0.009271 -1.208327
v -0.078171 -0.009271 -1.208327
v -0.043831 -0.006556 -1.214882
v -0.078171 -0.006556 -1.214882
v -0.078171 0.023175 -1.231502
v -0.078171 0.000000 -1.241101
v -0.078171 0.032775 -1.208327
v -0.078171 0.023175 -1.185151
v -0.078171 0.000000 -1.175552
v -0.078171 -0.023175 -1.185151
v -0.078171 -0.032775 -1.208327
v -0.078171 -0.023175 -1.231502
v -0.094515 0.023175 -1.231502
v -0.094515 0.000000 -1.241101
v -0.094515 0.032775 -1.208327
v -0.094515 0.023175 -1.185151
v -0.094515 0.000000 -1.175552
v -0.094515 -0.023175 -1.185151
v -0.094515 -0.032775 -1.208327
v -0.094515 -0.023175 -1.231502
v 0.112121 0.160126 -1.335316
v 0.121541 0.145340 -1.335316
v 0.117746 0.128224 -1.335316
v 0.102961 0.118805 -1.335316
v 0.085845 0.122599 -1.335316
v 0.076425 0.137385 -1.335316
v 0.080220 0.154501 -1.335316
v 0.095006 0.163920 -1.335316
vn -0.0000 0.9971 -0.0763
vn 0.4985 0.8635 -0.0763
vn 0.8635 0.4985 -0.0763
vn 0.9971 -0.0000 -0.0763
vn 0.8635 -0.4985 -0.0763
vn 0.4985 -0.8635 -0.0763
vn -0.0000 -0.9971 -0.0763
vn -0.4985 -0.8635 -0.0763
vn -0.8635 -0.4985 -0.0763
vn -0.9971 -0.0000 -0.0763
vn -0.8635 0.4985 -0.0763
vn -0.0000 -0.0000 -1.0000
vn -0.4985 0.8635 -0.0763
vn -0.0000 -0.7659 0.6430
vn -0.3829 -0.6632 0.6430
vn -0.4997 -0.8654 0.0372
vn -0.0000 -0.9993 0.0372
vn -0.0000 1.0000 -0.0000
vn 0.5000 0.8660 -0.0000
vn -0.0000 -0.0000 1.0000
vn -0.8660 -0.5000 -0.0000
vn -0.5000 -0.8660 -0.0000
vn 0.5000 -0.8660 -0.0000
vn 0.8660 -0.5000 -0.0000
vn -0.5000 0.8660 -0.0000
vn 0.8660 0.5000 -0.0000
vn -1.0000 -0.0000 -0.0000
vn -0.0000 -1.0000 -0.0000
vn 1.0000 -0.0000 -0.0000
vn -0.8660 0.5000 -0.0000
vn -0.0000 0.8465 0.5324
vn -0.4232 0.7331 0.5324
vn -0.0000 -0.8465 0.5324
vn -0.4232 -0.7331 0.5324
vn -0.2561 -0.4436 0.8589
vn -0.0000 -0.5122 0.8589
vn -0.7331 -0.4232 0.5324
vn -0.4436 -0.2561 0.8589
vn -0.8465 -0.0000 0.5324
vn -0.5122 -0.0000 0.8589
vn -0.7331 0.4232 0.5324
vn -0.4436 0.2561 0.8589
vn -0.2561 0.4436 0.8589
vn -0.0000 0.5122 0.8589
vn 0.4232 0.7331 0.5324
vn 0.2561 0.4436 0.8589
vn 0.7331 0.4232 0.5324
vn 0.4436 0.2561 0.8589
vn 0.8465 -0.0000 0.5324
vn 0.5122 -0.0000 0.8589
vn 0.7331 -0.4232 0.5324
vn 0.4436 -0.2561 0.8589
vn 0.4232 -0.7331 0.5324
vn 0.2561 -0.4436 0.8589
vn 0.1372 0.2376 0.9616
vn -0.0000 0.2744 0.9616
vn -0.1372 0.2376 0.9616
vn -0.2376 0.1372 0.9616
vn -0.2744 -0.0000 0.9616
vn -0.2376 -0.1372 0.9616
vn -0.1372 -0.2376 0.9616
vn -0.0000 -0.2744 0.9616
vn 0.1372 -0.2376 0.9616
vn 0.2376 -0.1372 0.9616
vn 0.2744 -0.0000 0.9616
vn 0.2376 0.1372 0.9616
vn 0.2309 0.4000 0.8870
vn -0.0000 0.4618 0.8870
vn 0.4000 0.2309 0.8870
vn 0.4618 -0.0000 0.8870
vn 0.4000 -0.2309 0.8870
vn 0.2309 -0.4000 0.8870
vn -0.0000 -0.4618 0.8870
vn -0.2309 -0.4000 0.8870
vn -0.4000 -0.2309 0.8870
vn -0.4618 -0.0000 0.8870
vn -0.4000 0.2309 0.8870
vn -0.2309 0.4000 0.8870
vn 0.4997 0.8654 0.0372
vn 0.8654 0.4997 0.0372
vn 0.7064 0.4079 -0.5784
vn 0.4079 0.7064 -0.5784
vn 0.3829 -0.6632 0.6430
vn 0.4997 -0.8654 0.0372
vn 0.6632 -0.3829 0.6430
vn 0.8654 -0.4997 0.0372
vn 0.7659 -0.0000 0.6430
vn 0.9993 -0.0000 0.0372
vn -0.3829 0.6632 0.6430
vn -0.0000 0.7659 0.6430
vn -0.0000 0.9993 0.0372
vn -0.4997 0.8654 0.0372
vn 0.3829 0.6632 0.6430
vn 0.6632 0.3829 0.6430
vn -0.6632 0.3829 0.6430
vn -0.8654 0.4997 0.0372
vn -0.7659 -0.0000 0.6430
vn -0.9993 -0.0000 0.0372
vn -0.6632 -0.3829 0.6430
vn -0.8654 -0.4997 0.0372
vn 0.9781 -0.0000 -0.2080
vn 0.8471 -0.4891 -0.2080
vn -0.8157 -0.0000 -0.5784
vn -0.7064 -0.4079 -0.5784
vn -0.0000 -0.8157 -0.5784
vn 0.4079 -0.7064 -0.5784
vn 0.8157 -0.0000 -0.5784
vn -0.7064 0.4079 -0.5784
vn -0.4079 -0.7064 -0.5784
vn 0.7064 -0.4079 -0.5784
vn -0.4079 0.7064 -0.5784
vn -0.0000 0.8157 -0.5784
vn -0.4891 0.8471 -0.2080
vn -0.0000 0.9781 -0.2080
vn 0.1584 -0.0000 -0.9874
vn 0.1372 0.0792 -0.9874
vn 0.8471 0.4891 -0.2080
vn 0.4891 -0.8471 -0.2080
vn -0.0000 -0.9781 -0.2080
vn -0.4891 -0.8471 -0.2080
vn -0.8471 -0.4891 -0.2080
vn -0.9781 -0.0000 -0.2080
vn -0.8471 0.4891 -0.2080
vn 0.0792 0.1372 -0.9874
vn -0.0000 0.1584 -0.9874
vn -0.1372 0.0792 -0.9874
vn -0.1584 -0.0000 -0.9874
vn -0.0792 -0.1372 -0.9874
vn -0.0000 -0.1584 -0.9874
vn 0.1372 -0.0792 -0.9874
vn -0.0792 0.1372 -0.9874
vn -0.1372 -0.0792 -0.9874
vn 0.0792 -0.1372 -0.9874
vn 0.4891 0.8471 -0.2080
vn 0.3314 0.5741 -0.7487
vn -0.0000 0.6629 -0.7487
vn 0.5741 0.3314 -0.7487
vn 0.6629 -0.0000 -0.7487
vn 0.5741 -0.3314 -0.7487
vn 0.3314 -0.5741 -0.7487
vn -0.0000 -0.6629 -0.7487
vn -0.3314 -0.5741 -0.7487
vn -0.5741 -0.3314 -0.7487
vn -0.6629 -0.0000 -0.7487
vn -0.5741 0.3314 -0.7487
vn -0.3314 0.5741 -0.7487
vn -0.4372 -0.7573 0.4851
vn -0.7573 -0.4372 0.4851
vn 0.7573 -0.4372 0.4851
vn 0.4372 -0.7573 0.4851
vn -0.4372 0.7573 0.4850
vn -0.0000 0.8745 0.4850
vn 0.4372 0.7573 0.4851
vn 0.7573 0.4372 0.4851
vn -0.8745 -0.0000 0.4851
vn -0.0000 -0.8745 0.4851
vn 0.8745 -0.0000 0.4851
vn -0.7573 0.4372 0.4850
vn -0.1753 -0.3036 -0.9365
vn -0.0000 -0.3506 -0.9365
vn -0.3036 -0.1753 -0.9365
vn -0.3506 -0.0000 -0.9365
vn -0.3036 0.1753 -0.9365
vn -0.1753 0.3036 -0.9365
vn -0.0000 0.3506 -0.9365
vn 0.1753 0.3036 -0.9365
vn 0.3036 0.1753 -0.9365
vn 0.3506 -0.0000 -0.9365
vn 0.3036 -0.1753 -0.9365
vn 0.1753 -0.3036 -0.9365
vn -0.0000 0.3753 -0.9269
vn 0.1877 0.3251 -0.9269
vn 0.3251 0.1877 -0.9269
vn 0.3753 -0.0000 -0.9269
vn 0.3251 -0.1877 -0.9269
vn 0.1877 -0.3251 -0.9269
vn -0.0000 -0.3753 -0.9269
vn -0.1877 -0.3251 -0.9269
vn -0.3251 -0.1877 -0.9269
vn -0.3753 -0.0000 -0.9269
vn -0.3251 0.1877 -0.9269
vn -0.1877 0.3251 -0.9269
vn -0.0000 0.6203 -0.7844
vn 0.3102 0.5372 -0.7843
vn 0.5372 0.3102 -0.7843
vn 0.6203 -0.0000 -0.7843
vn 0.5372 -0.3102 -0.7843
vn 0.3102 -0.5372 -0.7843
vn -0.0000 -0.6203 -0.7843
vn -0.3102 -0.5372 -0.7844
vn -0.5372 -0.3102 -0.7843
vn -0.6203 -0.0000 -0.7843
vn -0.5372 0.3102 -0.7843
vn -0.3102 0.5372 -0.7844
vn 0.5736 0.8192 -0.0000
vn 0.9848 0.1736 -0.0000
vn 0.8192 -0.5736 -0.0000
vn 0.1736 -0.9848 -0.0000
vn -0.5736 -0.8192 -0.0000
vn -0.9848 -0.1736 -0.0000
vn -0.8192 0.5736 -0.0000
vn 0.9761 0.1721 0.1325
vn 0.8119 -0.5685 0.1325
vn -0.1736 0.9848 -0.0000
vn 0.1838 0.2625 -0.9473
vn 0.3156 0.0556 -0.9473
vn 0.2625 -0.1838 -0.9473
vn 0.0556 -0.3156 -0.9473
vn -0.1838 -0.2625 -0.9473
vn -0.3156 -0.0556 -0.9473
vn -0.2625 0.1838 -0.9473
vn -0.0556 0.3156 -0.9473
vn -0.9761 -0.1721 0.1325
vn -0.8119 0.5685 0.1325
vn -0.1721 0.9761 0.1325
vn 0.5685 0.8119 0.1325
vn 0.1721 -0.9761 0.1325
vn -0.5685 -0.8119 0.1325
vn 0.4311 0.0760 0.8991
vn 0.2511 0.3586 0.8991
vn -0.0760 0.4311 0.8991
vn -0.3585 0.2511 0.8991
vn -0.4311 -0.0760 0.8991
vn -0.2511 -0.3585 0.8991
vn 0.0760 -0.4311 0.8991
vn 0.3585 -0.2511 0.8991
vn 0.6683 0.1178 0.7345
vn 0.3892 0.5559 0.7345
vn 0.5559 -0.3892 0.7345
vn 0.1178 -0.6683 0.7345
vn -0.3892 -0.5559 0.7345
vn -0.6683 -0.1178 0.7345
vn -0.5559 0.3892 0.7345
vn -0.1178 0.6683 0.7345
vn -0.6186 -0.1091 -0.7781
vn -0.3603 -0.5146 -0.7781
vn -0.5146 0.3603 -0.7781
vn -0.1091 0.6186 -0.7781
vn 0.3603 0.5146 -0.7781
vn 0.6186 0.1091 -0.7781
vn 0.5146 -0.3603 -0.7781
vn 0.1091 -0.6186 -0.7781
vn -0.0000 0.7071 -0.7071
vn -0.0000 0.7071 0.7071
vn -0.0000 -0.7071 0.7071
vn -0.0000 -0.7071 -0.7071
vn 0.2899 0.4140 -0.8629
vn 0.4977 0.0878 -0.8629
vn 0.4140 -0.2899 -0.8629
vn 0.0878 -0.4977 -0.8629
vn -0.2899 -0.4140 -0.8629
vn -0.4977 -0.0878 -0.8629
vn -0.4140 0.2899 -0.8629
vn -0.0878 0.4977 -0.8629
vt 0.080133 0.846660
vt 0.065872 0.846439
vt 0.066233 0.839146
vt 0.080412 0.840153
vt 0.067040 0.832109
vt 0.080959 0.834020
vt 0.068535 0.825264
vt 0.082030 0.828125
vt 0.070269 0.818358
vt 0.083487 0.822392
vt 0.072390 0.811425
vt 0.085703 0.816992
vt 0.075247 0.804396
vt 0.089099 0.811653
vt 0.089054 0.883545
vt 0.073890 0.891036
vt 0.071167 0.883363
vt 0.085443 0.877830
vt 0.069247 0.875909
vt 0.083208 0.871991
vt 0.067476 0.868432
vt 0.081663 0.865862
vt 0.066288 0.861093
vt 0.080802 0.859581
vt 0.069653 0.883853
vt 0.067562 0.876338
vt 0.065815 0.853842
vt 0.080285 0.853243
vt 0.939423 0.737986
vt 0.936086 0.733183
vt 0.937535 0.732352
vt 0.940954 0.737265
vt 0.081277 0.853179
vt 0.081189 0.846669
vt 0.081771 0.859460
vt 0.082616 0.865662
vt 0.084119 0.871688
vt 0.086284 0.877395
vt 0.089742 0.882789
vt 0.086484 0.817408
vt 0.089742 0.812363
vt 0.084339 0.822685
vt 0.082920 0.828332
vt 0.081885 0.834155
vt 0.081383 0.840223
vt 0.279257 0.006680
vt 0.279257 0.358962
vt 0.272917 0.358962
vt 0.272917 0.006680
vt 0.064741 0.838979
vt 0.064331 0.846358
vt 0.062394 0.846329
vt 0.062848 0.838831
vt 0.072448 0.892018
vt 0.070992 0.810915
vt 0.073964 0.803365
vt 0.068820 0.817937
vt 0.066981 0.824908
vt 0.064274 0.853854
vt 0.065704 0.831883
vt 0.064746 0.861216
vt 0.065904 0.868695
vt 0.062343 0.853943
vt 0.062793 0.861458
vt 0.061152 0.861604
vt 0.060539 0.853960
vt 0.067733 0.884470
vt 0.065618 0.876859
vt 0.067002 0.817468
vt 0.069185 0.810348
vt 0.063847 0.831623
vt 0.063936 0.869100
vt 0.071842 0.802499
vt 0.065148 0.824543
vt 0.070147 0.892716
vt 0.065329 0.816983
vt 0.063631 0.824205
vt 0.053467 0.821680
vt 0.055360 0.814159
vt 0.060441 0.846263
vt 0.061088 0.838697
vt 0.065970 0.884926
vt 0.063801 0.877273
vt 0.067431 0.809759
vt 0.062140 0.831379
vt 0.061933 0.869454
vt 0.069719 0.802337
vt 0.068199 0.892729
vt 0.355254 0.356112
vt 0.344707 0.356112
vt 0.345210 0.354187
vt 0.354691 0.354206
vt 0.049971 0.862876
vt 0.049470 0.854358
vt 0.049684 0.845745
vt 0.050445 0.837324
vt 0.055137 0.888000
vt 0.052969 0.879841
vt 0.057457 0.806701
vt 0.051785 0.829340
vt 0.050998 0.871396
vt 0.059643 0.799344
vt 0.057391 0.895832
vt 0.367104 0.332068
vt 0.367187 0.341179
vt 0.364961 0.340658
vt 0.364912 0.332676
vt 0.336137 0.322217
vt 0.345033 0.317121
vt 0.345538 0.319068
vt 0.337452 0.323559
vt 0.330659 0.341556
vt 0.330785 0.331068
vt 0.332674 0.331628
vt 0.332643 0.341059
vt 0.364179 0.322690
vt 0.368955 0.331627
vt 0.362752 0.323998
vt 0.364168 0.350612
vt 0.362734 0.349287
vt 0.335709 0.350731
vt 0.337117 0.349335
vt 0.355400 0.317212
vt 0.354829 0.319087
vt 0.368970 0.341630
vt 0.362800 0.340104
vt 0.359397 0.346146
vt 0.354973 0.342064
vt 0.356938 0.338728
vt 0.345781 0.351908
vt 0.354006 0.351964
vt 0.346159 0.321287
vt 0.339118 0.325172
vt 0.334935 0.332203
vt 0.334909 0.340444
vt 0.361128 0.325617
vt 0.361027 0.347717
vt 0.338767 0.347670
vt 0.354240 0.321320
vt 0.337233 0.332852
vt 0.337026 0.339929
vt 0.340418 0.346105
vt 0.346404 0.349711
vt 0.353373 0.349665
vt 0.362862 0.333196
vt 0.359498 0.327154
vt 0.353575 0.323573
vt 0.346680 0.323354
vt 0.340699 0.326785
vt 0.343057 0.338317
vt 0.344717 0.341825
vt 0.347859 0.343890
vt 0.345070 0.330905
vt 0.343168 0.334292
vt 0.352052 0.329276
vt 0.348326 0.329079
vt 0.357015 0.334827
vt 0.351624 0.343955
vt 0.355253 0.331374
vt 0.965657 0.499706
vt 0.967167 0.497091
vt 0.969786 0.495594
vt 0.972812 0.495613
vt 0.975425 0.497134
vt 0.976914 0.499762
vt 0.976876 0.502776
vt 0.975326 0.505356
vt 0.972736 0.506877
vt 0.969723 0.506886
vt 0.967134 0.505347
vt 0.965677 0.502723
vt 0.959974 0.498212
vt 0.962948 0.492988
vt 0.959974 0.504243
vt 0.962984 0.509508
vt 0.968173 0.512539
vt 0.974196 0.512594
vt 0.979516 0.509585
vt 0.982624 0.504286
vt 0.982632 0.498166
vt 0.979561 0.492883
vt 0.974263 0.489863
vt 0.968172 0.489908
vt 0.931537 0.702364
vt 0.931798 0.697171
vt 0.933442 0.697351
vt 0.933147 0.702399
vt 0.934609 0.680426
vt 0.937977 0.675438
vt 0.939563 0.676158
vt 0.936134 0.681249
vt 0.932324 0.685885
vt 0.933890 0.686417
vt 0.930939 0.691516
vt 0.932517 0.691822
vt 0.930738 0.712672
vt 0.930203 0.707585
vt 0.931670 0.707499
vt 0.932095 0.712530
vt 0.930036 0.702348
vt 0.930259 0.697032
vt 0.931266 0.717714
vt 0.932702 0.717492
vt 0.932215 0.722808
vt 0.933675 0.722447
vt 0.933728 0.728025
vt 0.935192 0.727464
vt 0.941486 0.693612
vt 0.942383 0.689296
vt 0.947167 0.690547
vt 0.946452 0.694498
vt 0.935222 0.722035
vt 0.936710 0.726847
vt 0.940953 0.677538
vt 0.937656 0.682095
vt 0.934182 0.692171
vt 0.934243 0.717232
vt 0.938955 0.731470
vt 0.942357 0.735851
vt 0.935515 0.686995
vt 0.933599 0.712378
vt 0.933254 0.707425
vt 0.940737 0.711528
vt 0.940555 0.707084
vt 0.945677 0.706919
vt 0.945890 0.711077
vt 0.935608 0.692434
vt 0.934799 0.697505
vt 0.940779 0.698028
vt 0.945930 0.698583
vt 0.943745 0.685345
vt 0.948066 0.686816
vt 0.945340 0.682122
vt 0.948988 0.683351
vt 0.946415 0.731158
vt 0.944758 0.728146
vt 0.948824 0.726570
vt 0.949829 0.729890
vt 0.943233 0.724372
vt 0.947837 0.723008
vt 0.941999 0.720274
vt 0.946938 0.719172
vt 0.941189 0.715926
vt 0.946317 0.715187
vt 0.934533 0.702457
vt 0.934631 0.707392
vt 0.968266 0.724045
vt 0.968690 0.727428
vt 0.935567 0.716988
vt 0.936492 0.721690
vt 0.940121 0.730723
vt 0.943249 0.734614
vt 0.936928 0.687476
vt 0.935007 0.712241
vt 0.938034 0.726316
vt 0.938887 0.682815
vt 0.940352 0.702571
vt 0.945685 0.702739
vt 0.941898 0.678767
vt 0.937169 0.702497
vt 0.937454 0.707228
vt 0.937608 0.697718
vt 0.938445 0.693022
vt 0.939485 0.688442
vt 0.941144 0.684173
vt 0.943476 0.680681
vt 0.942271 0.729400
vt 0.944723 0.732611
vt 0.940531 0.725316
vt 0.938994 0.721020
vt 0.938180 0.716449
vt 0.937671 0.711861
vt 0.936126 0.226468
vt 0.936062 0.223910
vt 0.965573 0.223085
vt 0.965791 0.225839
vt 0.967950 0.692526
vt 0.967633 0.696073
vt 0.967198 0.710230
vt 0.967336 0.713728
vt 0.967223 0.703172
vt 0.967160 0.706709
vt 0.967884 0.720639
vt 0.968312 0.688989
vt 0.967385 0.699625
vt 0.967568 0.717199
vt 0.968690 0.685465
vt 0.184505 0.976806
vt 0.182201 0.975476
vt 0.182691 0.973650
vt 0.185841 0.975469
vt 0.185834 0.979109
vt 0.187661 0.978619
vt 0.185834 0.981768
vt 0.187661 0.982257
vt 0.184505 0.984071
vt 0.185841 0.985408
vt 0.182201 0.985401
vt 0.182691 0.987227
vt 0.179542 0.985401
vt 0.179053 0.987227
vt 0.177239 0.984071
vt 0.175902 0.985408
vt 0.175909 0.981768
vt 0.174083 0.982257
vt 0.175909 0.979109
vt 0.174083 0.978619
vt 0.177239 0.976806
vt 0.175902 0.975469
vt 0.179542 0.975476
vt 0.179053 0.973650
vt 0.965667 0.250311
vt 0.965859 0.247557
vt 0.967201 0.247593
vt 0.967031 0.250461
vt 0.936234 0.239263
vt 0.936239 0.236704
vt 0.965980 0.236738
vt 0.966015 0.239418
vt 0.936232 0.234144
vt 0.936211 0.231585
vt 0.965975 0.231272
vt 0.965932 0.233996
vt 0.936122 0.246946
vt 0.936173 0.244383
vt 0.965935 0.244811
vt 0.935986 0.221357
vt 0.965223 0.220424
vt 0.936176 0.229026
vt 0.965896 0.228576
vt 0.936211 0.241822
vt 0.965968 0.242092
vt 0.935986 0.252165
vt 0.936059 0.249508
vt 0.965336 0.252965
vt 0.984796 0.615697
vt 0.985897 0.615008
vt 0.986059 0.615507
vt 0.985191 0.616045
vt 0.966939 0.222925
vt 0.967129 0.225792
vt 0.967278 0.236757
vt 0.967248 0.239421
vt 0.967232 0.231259
vt 0.967279 0.233987
vt 0.967251 0.244807
vt 0.966465 0.220072
vt 0.967201 0.228566
vt 0.967256 0.242076
vt 0.966576 0.253309
vt 0.988317 0.619375
vt 0.989038 0.618209
vt 0.992616 0.619173
vt 0.990898 0.621963
vt 0.987205 0.619981
vt 0.988142 0.623488
vt 0.985953 0.620014
vt 0.985032 0.623488
vt 0.984836 0.619357
vt 0.982263 0.621934
vt 0.984184 0.618179
vt 0.980641 0.619138
vt 0.984214 0.616850
vt 0.980645 0.615917
vt 0.982160 0.613201
vt 0.984867 0.611517
vt 0.987193 0.614987
vt 0.988096 0.611430
vt 0.988326 0.615652
vt 0.990952 0.613020
vt 0.988991 0.616819
vt 0.992614 0.615857
vt 0.988445 0.618057
vt 0.988454 0.616974
vt 0.984756 0.618034
vt 0.985217 0.618980
vt 0.896264 0.658003
vt 0.896824 0.658319
vt 0.897154 0.658879
vt 0.897155 0.659534
vt 0.896827 0.660100
vt 0.896263 0.660419
vt 0.895617 0.660410
vt 0.895069 0.660077
vt 0.894744 0.659524
vt 0.894749 0.658884
vt 0.895067 0.658329
vt 0.895625 0.658015
vt 0.987070 0.615500
vt 0.984697 0.616963
vt 0.987081 0.619525
vt 0.987942 0.618991
vt 0.986078 0.619513
vt 0.987942 0.616041
vt 0.896681 0.656563
vt 0.897909 0.657288
vt 0.898600 0.658524
vt 0.898588 0.659919
vt 0.897900 0.661131
vt 0.896683 0.661855
vt 0.895253 0.661867
vt 0.894006 0.661141
vt 0.893305 0.659907
vt 0.893312 0.658496
vt 0.894016 0.657275
vt 0.895242 0.656563
vt 0.266577 0.358962
vt 0.266577 0.006680
vt 0.260237 0.358962
vt 0.260237 0.006680
vt 0.253897 0.358962
vt 0.253897 0.006680
vt 0.247557 0.358962
vt 0.247557 0.006680
vt 0.241217 0.358962
vt 0.241217 0.006680
vt 0.317298 0.358962
vt 0.310958 0.358962
vt 0.310958 0.006680
vt 0.317298 0.006680
vt 0.304618 0.358962
vt 0.304618 0.006680
vt 0.298278 0.358962
vt 0.298278 0.006680
vt 0.291938 0.358962
vt 0.291938 0.006680
vt 0.285598 0.358962
vt 0.285598 0.006680
vt 0.439660 0.340894
vt 0.448204 0.342229
vt 0.447206 0.347133
vt 0.438982 0.344966
vt 0.445722 0.351808
vt 0.437730 0.348660
vt 0.443880 0.356533
vt 0.435119 0.352012
vt 0.435199 0.322038
vt 0.444555 0.317672
vt 0.446279 0.322660
vt 0.437822 0.325533
vt 0.447585 0.327435
vt 0.439157 0.329043
vt 0.448382 0.332290
vt 0.439831 0.332812
vt 0.449491 0.327015
vt 0.450337 0.332083
vt 0.448597 0.337242
vt 0.439978 0.336748
vt 0.985744 0.249618
vt 0.984703 0.250676
vt 0.983224 0.250656
vt 0.982211 0.249594
vt 0.982172 0.248127
vt 0.983200 0.247067
vt 0.984680 0.247083
vt 0.985720 0.248135
vt 0.438881 0.336742
vt 0.438450 0.340750
vt 0.438793 0.332944
vt 0.438189 0.329328
vt 0.436992 0.326010
vt 0.434580 0.323141
vt 0.436856 0.348180
vt 0.434580 0.351039
vt 0.437945 0.344701
vt 0.973503 0.383395
vt 0.959974 0.383395
vt 0.959974 0.379704
vt 0.973503 0.379704
vt 0.959974 0.376013
vt 0.973503 0.376013
vt 0.959974 0.372323
vt 0.973503 0.372323
vt 0.973503 0.401848
vt 0.959974 0.401848
vt 0.959974 0.398158
vt 0.973503 0.398158
vt 0.959974 0.394467
vt 0.973503 0.394467
vt 0.959974 0.390776
vt 0.973503 0.390776
vt 0.959974 0.387086
vt 0.973503 0.387086
vt 0.449151 0.347635
vt 0.447541 0.352459
vt 0.445757 0.357141
vt 0.446557 0.317121
vt 0.448148 0.322099
vt 0.450581 0.337272
vt 0.450179 0.342499
vt 0.989371 0.227152
vt 0.987847 0.228757
vt 0.985618 0.228827
vt 0.984007 0.227262
vt 0.983911 0.225027
vt 0.985466 0.223447
vt 0.987629 0.223489
vt 0.989267 0.224955
vt 0.992672 0.228671
vt 0.989085 0.232171
vt 0.992672 0.223617
vt 0.988971 0.220072
vt 0.983930 0.220229
vt 0.980640 0.223743
vt 0.980675 0.228540
vt 0.984086 0.232084
vt 0.984085 0.876299
vt 0.984117 0.878797
vt 0.982324 0.879513
vt 0.982365 0.875584
vt 0.985875 0.874555
vt 0.985112 0.872824
vt 0.988394 0.874601
vt 0.989084 0.872807
vt 0.990173 0.876408
vt 0.991951 0.875618
vt 0.990127 0.878929
vt 0.991951 0.879701
vt 0.988365 0.880695
vt 0.989016 0.882504
vt 0.985839 0.880658
vt 0.985069 0.882379
vt 0.542818 0.336708
vt 0.540092 0.336411
vt 0.540409 0.332563
vt 0.542810 0.332830
vt 0.542825 0.341133
vt 0.539732 0.340784
vt 0.542725 0.346254
vt 0.539293 0.345746
vt 0.542464 0.351817
vt 0.538739 0.351324
vt 0.543035 0.358426
vt 0.537558 0.358426
vt 0.542910 0.326282
vt 0.540845 0.326056
vt 0.540570 0.322520
vt 0.543474 0.322576
vt 0.542823 0.329407
vt 0.540683 0.329161
vt 0.544402 0.332872
vt 0.544228 0.329465
vt 0.544180 0.326434
vt 0.544757 0.323420
vt 0.545395 0.357093
vt 0.544738 0.351718
vt 0.545272 0.346352
vt 0.544922 0.341181
vt 0.544635 0.336747
vt 0.567212 0.340717
vt 0.568638 0.340698
vt 0.568607 0.344337
vt 0.566928 0.344335
vt 0.566821 0.337072
vt 0.568546 0.337037
vt 0.566338 0.332815
vt 0.568442 0.332801
vt 0.566586 0.328362
vt 0.568437 0.328207
vt 0.565483 0.323758
vt 0.567689 0.322361
vt 0.566074 0.352894
vt 0.568251 0.353077
vt 0.567617 0.358959
vt 0.565483 0.357755
vt 0.566585 0.348409
vt 0.568469 0.348458
vt 0.570961 0.340820
vt 0.571054 0.344480
vt 0.570993 0.337182
vt 0.571136 0.333063
vt 0.571386 0.328472
vt 0.572199 0.322171
vt 0.571149 0.353315
vt 0.571830 0.358760
vt 0.571157 0.348717
vt 0.572387 0.340801
vt 0.572778 0.344445
vt 0.572671 0.337184
vt 0.573013 0.333113
vt 0.573519 0.328653
vt 0.574622 0.323616
vt 0.573022 0.353153
vt 0.573739 0.357580
vt 0.573263 0.348702
vt 0.947058 0.082029
vt 0.947058 0.140793
vt 0.943368 0.140793
vt 0.943368 0.082029
vt 0.939677 0.140793
vt 0.939677 0.082029
vt 0.935986 0.140793
vt 0.935986 0.082029
vt 0.965512 0.082029
vt 0.965512 0.140793
vt 0.961821 0.140793
vt 0.961821 0.082029
vt 0.958130 0.140793
vt 0.958130 0.082029
vt 0.954440 0.140793
vt 0.954440 0.082029
vt 0.950749 0.140793
vt 0.950749 0.082029
vt 0.538291 0.336311
vt 0.538825 0.332474
vt 0.537696 0.340666
vt 0.537017 0.345566
vt 0.536113 0.350959
vt 0.535054 0.356815
vt 0.539598 0.326107
vt 0.539292 0.323216
vt 0.539288 0.329100
vt 0.910328 0.953085
vt 0.892051 0.953085
vt 0.892051 0.949395
vt 0.910328 0.949395
vt 0.910328 0.956776
vt 0.892051 0.956776
vt 0.910328 0.960467
vt 0.892051 0.960467
vt 0.910328 0.964157
vt 0.892051 0.964157
vt 0.910328 0.967848
vt 0.892051 0.967848
vt 0.910328 0.942013
vt 0.892051 0.942013
vt 0.892051 0.938323
vt 0.910328 0.938323
vt 0.910328 0.945704
vt 0.892051 0.945704
vt 0.989379 0.848017
vt 0.989379 0.859446
vt 0.987028 0.859446
vt 0.987028 0.848017
vt 0.984676 0.859446
vt 0.984676 0.848017
vt 0.982324 0.859446
vt 0.982324 0.848017
vt 0.991731 0.848017
vt 0.991731 0.859446
vt 0.110158 0.881500
vt 0.110158 0.895692
vt 0.107807 0.895692
vt 0.107807 0.881500
vt 0.105455 0.895692
vt 0.105455 0.881500
vt 0.103103 0.895692
vt 0.103103 0.881500
vt 0.112510 0.881500
vt 0.112510 0.895692
vt 0.989784 0.160471
vt 0.984688 0.160471
vt 0.984688 0.159418
vt 0.989784 0.159418
vt 0.984688 0.158365
vt 0.989784 0.158365
vt 0.984688 0.157313
vt 0.989784 0.157313
vt 0.984688 0.156260
vt 0.989784 0.156260
vt 0.984688 0.155207
vt 0.989784 0.155207
vt 0.984688 0.154154
vt 0.989784 0.154154
vt 0.580947 0.986228
vt 0.580203 0.986973
vt 0.576981 0.985638
vt 0.579613 0.983007
vt 0.989784 0.162577
vt 0.984688 0.162577
vt 0.984688 0.161524
vt 0.989784 0.161524
vt 0.515433 0.320843
vt 0.515433 0.317121
vt 0.517858 0.317121
vt 0.517858 0.320843
vt 0.582745 0.988026
vt 0.582745 0.986973
vt 0.585966 0.985638
vt 0.585966 0.989360
vt 0.582000 0.986228
vt 0.583335 0.983007
vt 0.582000 0.988770
vt 0.583335 0.991992
vt 0.580203 0.988026
vt 0.576981 0.989360
vt 0.580947 0.988770
vt 0.579613 0.991992
vt 0.557266 0.991992
vt 0.554635 0.989360
vt 0.554635 0.985638
vt 0.557267 0.983007
vt 0.560988 0.983007
vt 0.563620 0.985638
vt 0.563620 0.989360
vt 0.560988 0.991992
vt 0.515433 0.343174
vt 0.515433 0.339452
vt 0.517858 0.339452
vt 0.517858 0.343174
vt 0.515433 0.335731
vt 0.515433 0.332009
vt 0.517858 0.332009
vt 0.517858 0.335731
vt 0.515433 0.328287
vt 0.515433 0.324565
vt 0.517858 0.324565
vt 0.517858 0.328287
vt 0.515433 0.346896
vt 0.517858 0.346896
vt 0.987267 0.250286
vt 0.985329 0.252200
vt 0.982609 0.252200
vt 0.980654 0.250241
vt 0.980640 0.247470
vt 0.982570 0.245531
vt 0.985337 0.245535
vt 0.987288 0.247524
s 1
f 25/1/1 2/2/1 4/3/2 26/4/2
f 26/4/2 4/3/2 6/5/3 27/6/3
f 27/6/3 6/5/3 8/7/4 28/8/4
f 28/8/4 8/7/4 10/9/5 29/10/5
f 29/10/5 10/9/5 12/11/6 30/12/6
f 30/12/6 12/11/6 14/13/7 31/14/7
f 31/15/7 14/16/7 16/17/8 32/18/8
f 32/18/8 16/17/8 18/19/9 33/20/9
f 33/20/9 18/19/9 20/21/10 34/22/10
f 34/22/10 20/21/10 22/23/11 35/24/11
f 18/19/12 16/17/12 56/25/12 57/26/12
f 35/24/11 22/23/11 24/27/13 36/28/13
f 36/28/13 24/27/13 2/2/1 25/1/1
f 13/29/14 15/30/15 164/31/16 163/32/17
f 47/33/12 36/28/12 25/1/12 48/34/12
f 46/35/12 35/24/12 36/28/12 47/33/12
f 45/36/12 34/22/12 35/24/12 46/35/12
f 44/37/12 33/20/12 34/22/12 45/36/12
f 43/38/12 32/18/12 33/20/12 44/37/12
f 42/39/12 31/15/12 32/18/12 43/38/12
f 41/40/12 30/12/12 31/14/12 42/41/12
f 40/42/12 29/10/12 30/12/12 41/40/12
f 39/43/12 28/8/12 29/10/12 40/42/12
f 38/44/12 27/6/12 28/8/12 39/43/12
f 37/45/12 26/4/12 27/6/12 38/44/12
f 48/34/12 25/1/12 26/4/12 37/45/12
f 1/46/18 48/47/18 37/48/19 3/49/19
f 49/50/19 50/51/18 62/52/18 61/53/19
f 16/17/12 14/16/12 55/54/12 56/25/12
f 14/13/12 12/11/12 54/55/12 55/56/12
f 12/11/12 10/9/12 53/57/12 54/55/12
f 10/9/12 8/7/12 52/58/12 53/57/12
f 2/2/12 24/27/12 60/59/12 50/51/12
f 4/3/12 2/2/12 50/51/12 49/50/12
f 8/7/12 6/5/12 51/60/12 52/58/12
f 24/27/12 22/23/12 59/61/12 60/59/12
f 6/5/12 4/3/12 49/50/12 51/60/12
f 22/23/12 20/21/12 58/62/12 59/61/12
f 20/21/12 18/19/12 57/26/12 58/62/12
f 72/63/20 71/64/20 83/65/20 84/66/20
f 57/26/21 56/25/22 68/67/22 69/68/21
f 54/55/23 53/57/24 65/69/24 66/70/23
f 50/51/18 60/59/25 72/63/25 62/52/18
f 51/60/26 49/50/19 61/53/19 63/71/26
f 58/62/27 57/26/21 69/68/21 70/72/27
f 55/56/28 54/55/23 66/70/23 67/73/28
f 52/58/29 51/60/26 63/71/26 64/74/29
f 59/61/30 58/62/27 70/72/27 71/64/30
f 56/25/22 55/54/28 67/75/28 68/67/22
f 53/57/24 52/58/29 64/74/29 65/69/24
f 60/59/25 59/61/30 71/64/30 72/63/25
f 77/76/24 76/77/29 88/78/29 89/79/24
f 61/53/20 62/52/20 74/80/20 73/81/20
f 69/68/20 68/67/20 80/82/20 81/83/20
f 66/70/20 65/69/20 77/76/20 78/84/20
f 62/52/20 72/63/20 84/66/20 74/80/20
f 63/71/20 61/53/20 73/81/20 75/85/20
f 70/72/20 69/68/20 81/83/20 82/86/20
f 67/73/20 66/70/20 78/84/20 79/87/20
f 64/74/20 63/71/20 75/85/20 76/77/20
f 71/64/20 70/72/20 82/86/20 83/65/20
f 68/67/20 67/75/20 79/88/20 80/82/20
f 65/69/20 64/74/20 76/77/20 77/76/20
f 89/89/20 88/90/20 100/91/20 101/92/20
f 84/66/25 83/65/30 95/93/30 96/94/25
f 73/81/19 74/80/18 86/95/18 85/96/19
f 81/83/21 80/82/22 92/97/22 93/98/21
f 78/84/23 77/76/24 89/79/24 90/99/23
f 74/80/18 84/66/25 96/94/25 86/95/18
f 75/85/26 73/81/19 85/96/19 87/100/26
f 82/86/27 81/83/21 93/98/21 94/101/27
f 79/87/28 78/84/23 90/99/23 91/102/28
f 76/77/29 75/85/26 87/100/26 88/78/29
f 83/65/30 82/86/27 94/101/27 95/93/30
f 80/82/22 79/88/28 91/103/28 92/97/22
f 104/104/22 103/105/28 127/106/28 128/107/22
f 96/108/20 95/109/20 107/110/20 108/111/20
f 85/112/20 86/113/20 98/114/20 97/115/20
f 93/116/20 92/117/20 104/104/20 105/118/20
f 90/119/20 89/89/20 101/92/20 102/120/20
f 86/113/20 96/108/20 108/111/20 98/114/20
f 87/121/20 85/112/20 97/115/20 99/122/20
f 94/123/20 93/116/20 105/118/20 106/124/20
f 91/125/20 90/119/20 102/120/20 103/105/20
f 88/90/20 87/121/20 99/122/20 100/91/20
f 95/109/20 94/123/20 106/124/20 107/110/20
f 92/117/20 91/125/20 103/105/20 104/104/20
f 115/126/31 114/127/32 144/128/25 146/129/18
f 101/92/24 100/91/29 124/130/29 125/131/24
f 108/111/25 107/110/30 131/132/30 132/133/25
f 97/115/19 98/114/18 122/134/18 121/135/19
f 105/118/21 104/104/22 128/107/22 129/136/21
f 102/120/23 101/92/24 125/131/24 126/137/23
f 98/114/18 108/111/25 132/133/25 122/134/18
f 99/122/26 97/115/19 121/135/19 123/138/26
f 106/124/27 105/118/21 129/136/21 130/139/27
f 103/105/28 102/120/23 126/137/23 127/106/28
f 100/91/29 99/122/26 123/138/26 124/130/29
f 107/110/30 106/124/27 130/139/27 131/132/30
f 110/140/33 109/141/34 121/135/35 122/134/36
f 109/141/34 111/142/37 123/138/38 121/135/35
f 111/142/37 112/143/39 124/130/40 123/138/38
f 112/143/39 113/144/41 125/131/42 124/130/40
f 113/144/41 114/127/32 126/137/43 125/131/42
f 114/127/32 115/126/31 127/106/44 126/137/43
f 115/126/31 116/145/45 128/107/46 127/106/44
f 116/145/45 117/146/47 129/136/48 128/107/46
f 117/146/47 118/147/49 130/139/50 129/136/48
f 118/147/49 119/148/51 131/132/52 130/139/50
f 119/148/51 120/149/53 132/133/54 131/132/52
f 120/149/53 110/140/33 122/134/36 132/133/54
f 111/142/37 109/141/34 134/150/22 138/151/21
f 112/143/39 111/142/37 138/151/21 140/152/27
f 110/140/33 120/149/53 156/153/23 135/154/28
f 119/148/51 118/147/49 152/155/29 154/156/24
f 116/145/45 115/126/31 146/129/18 148/157/19
f 113/144/41 112/143/39 140/152/27 142/158/30
f 120/149/53 119/148/51 154/156/24 156/153/23
f 117/146/47 116/145/45 148/157/19 150/159/26
f 114/127/32 113/144/41 142/158/30 144/128/25
f 133/160/55 136/161/56 155/162/57 153/163/58 151/164/59 149/165/60 147/166/61 145/167/62 143/168/63 141/169/64 139/170/65 137/171/66
f 118/147/49 117/146/47 150/159/26 152/155/29
f 134/172/67 135/173/68 136/161/56 133/160/55
f 138/174/69 134/172/67 133/160/55 137/171/66
f 140/175/70 138/174/69 137/171/66 139/170/65
f 142/176/71 140/175/70 139/170/65 141/169/64
f 144/177/72 142/176/71 141/169/64 143/168/63
f 146/178/73 144/177/72 143/168/63 145/167/62
f 148/179/74 146/178/73 145/167/62 147/166/61
f 150/180/75 148/179/74 147/166/61 149/165/60
f 152/181/76 150/180/75 149/165/60 151/164/59
f 154/182/77 152/181/76 151/164/59 153/163/58
f 156/183/78 154/182/77 153/163/58 155/162/57
f 135/173/68 156/183/78 155/162/57 136/161/56
f 109/141/34 110/140/33 135/154/28 134/150/22
f 158/184/79 159/185/80 171/186/81 170/187/82
f 11/188/83 13/189/14 163/190/17 162/191/84
f 9/192/85 11/188/83 162/191/84 161/193/86
f 7/194/87 9/192/85 161/193/86 160/195/88
f 23/196/89 1/197/90 157/198/91 168/199/92
f 1/197/90 3/200/93 158/184/79 157/198/91
f 5/201/94 7/194/87 160/195/88 159/185/80
f 21/202/95 23/196/89 168/199/92 167/203/96
f 3/200/93 5/201/94 159/185/80 158/184/79
f 19/204/97 21/202/95 167/203/96 166/205/98
f 17/206/99 19/204/97 166/205/98 165/207/100
f 15/30/15 17/206/99 165/207/100 164/31/16
f 203/208/101 206/209/102 185/210/24 184/211/29
f 165/207/100 166/205/98 178/212/103 177/213/104
f 162/191/84 163/190/17 175/214/105 174/215/106
f 159/185/80 160/195/88 172/216/107 171/186/81
f 166/205/98 167/203/96 179/217/108 178/212/103
f 163/32/17 164/31/16 176/218/109 175/219/105
f 160/195/88 161/193/86 173/220/110 172/216/107
f 167/203/96 168/199/92 180/221/111 179/217/108
f 157/198/91 158/184/79 170/187/82 169/222/112
f 164/31/16 165/207/100 177/213/104 176/218/109
f 161/193/86 162/191/84 174/215/106 173/220/110
f 168/199/92 157/198/91 169/222/112 180/221/111
f 227/223/113 193/224/114 181/225/18 192/226/25
f 202/227/115 199/228/116 171/186/12 172/216/12
f 200/229/117 203/208/101 184/211/29 183/230/26
f 206/209/102 209/231/118 186/232/23 185/210/24
f 209/231/118 212/233/119 187/234/28 186/232/23
f 212/235/119 215/236/120 188/237/22 187/238/28
f 215/236/120 218/239/121 189/240/21 188/237/22
f 218/239/121 221/241/122 190/242/27 189/240/21
f 221/241/122 224/243/123 191/244/30 190/242/27
f 224/243/123 227/223/113 192/226/25 191/244/30
f 196/245/124 194/246/125 169/222/12 170/187/12
f 187/238/28 188/237/22 248/247/22 247/248/28
f 223/249/126 220/250/127 178/212/12 179/217/12
f 214/251/128 211/252/129 175/219/12 176/218/12
f 205/253/130 202/227/115 172/216/12 173/220/12
f 226/254/131 223/249/126 179/217/12 180/221/12
f 194/246/125 226/254/131 180/221/12 169/222/12
f 217/255/132 214/251/128 176/218/12 177/213/12
f 208/256/133 205/253/130 173/220/12 174/215/12
f 197/257/134 200/229/117 183/230/26 182/258/19
f 199/228/116 196/245/124 170/187/12 171/186/12
f 220/250/127 217/255/132 177/213/12 178/212/12
f 211/259/129 208/256/133 174/215/12 175/214/12
f 194/246/125 196/245/124 198/260/135 195/261/136
f 195/261/136 198/260/135 197/257/134 193/224/114
f 196/245/124 199/228/116 201/262/137 198/260/135
f 198/260/135 201/262/137 200/229/117 197/257/134
f 199/228/116 202/227/115 204/263/138 201/262/137
f 201/262/137 204/263/138 203/208/101 200/229/117
f 202/227/115 205/253/130 207/264/139 204/263/138
f 204/263/138 207/264/139 206/209/102 203/208/101
f 205/253/130 208/256/133 210/265/140 207/264/139
f 207/264/139 210/265/140 209/231/118 206/209/102
f 208/256/133 211/259/129 213/266/141 210/265/140
f 210/265/140 213/266/141 212/233/119 209/231/118
f 211/252/129 214/251/128 216/267/142 213/268/141
f 213/268/141 216/267/142 215/236/120 212/235/119
f 214/251/128 217/255/132 219/269/143 216/267/142
f 216/267/142 219/269/143 218/239/121 215/236/120
f 217/255/132 220/250/127 222/270/144 219/269/143
f 219/269/143 222/270/144 221/241/122 218/239/121
f 220/250/127 223/249/126 225/271/145 222/270/144
f 222/270/144 225/271/145 224/243/123 221/241/122
f 223/249/126 226/254/131 228/272/146 225/271/145
f 225/271/145 228/272/146 227/223/113 224/243/123
f 226/254/131 194/246/125 195/261/136 228/272/146
f 228/272/146 195/261/136 193/224/114 227/223/113
f 193/224/114 197/257/134 182/258/19 181/225/18
f 233/273/24 234/274/23 258/275/23 257/276/24
f 184/211/29 185/210/24 245/277/24 244/278/29
f 191/244/30 192/226/25 252/279/25 251/280/30
f 181/225/18 182/258/19 242/281/19 241/282/18
f 188/237/22 189/240/21 249/283/21 248/247/22
f 185/210/24 186/232/23 246/284/23 245/277/24
f 192/226/25 181/225/18 241/282/18 252/279/25
f 182/258/19 183/230/26 243/285/26 242/281/19
f 189/240/21 190/242/27 250/286/27 249/283/21
f 186/232/23 187/234/28 247/287/28 246/284/23
f 183/230/26 184/211/29 244/278/29 243/285/26
f 190/242/27 191/244/30 251/280/30 250/286/27
f 230/288/12 229/289/12 241/290/12 242/291/12
f 231/292/12 230/288/12 242/291/12 243/293/12
f 232/294/12 231/292/12 243/293/12 244/295/12
f 233/296/12 232/294/12 244/295/12 245/297/12
f 234/298/12 233/296/12 245/297/12 246/299/12
f 235/300/12 234/298/12 246/299/12 247/301/12
f 236/302/12 235/300/12 247/301/12 248/303/12
f 237/304/12 236/302/12 248/303/12 249/305/12
f 238/306/12 237/304/12 249/305/12 250/307/12
f 239/308/12 238/306/12 250/307/12 251/309/12
f 240/310/12 239/308/12 251/309/12 252/311/12
f 229/289/12 240/310/12 252/311/12 241/290/12
f 260/312/147 261/313/148 285/314/148 284/315/147
f 240/316/25 229/317/18 253/318/18 264/319/25
f 230/320/19 231/321/26 255/322/26 254/323/19
f 237/324/21 238/325/27 262/326/27 261/313/21
f 234/274/23 235/327/28 259/328/28 258/275/23
f 231/321/26 232/329/29 256/330/29 255/322/26
f 238/325/27 239/331/30 263/332/30 262/326/27
f 235/333/28 236/334/22 260/312/22 259/335/28
f 232/329/29 233/273/24 257/276/24 256/330/29
f 239/331/30 240/316/25 264/319/25 263/332/30
f 229/317/18 230/320/19 254/323/19 253/318/18
f 236/334/22 237/324/21 261/313/21 260/312/22
f 272/336/19 273/337/26 305/338/26 303/339/19
f 257/276/149 258/275/150 282/340/150 281/341/149
f 264/319/151 253/318/152 277/342/152 288/343/151
f 254/323/153 255/322/154 279/344/154 278/345/153
f 261/313/148 262/326/155 286/346/155 285/314/148
f 258/275/150 259/328/156 283/347/156 282/340/150
f 255/322/154 256/330/157 280/348/157 279/344/154
f 262/326/155 263/332/158 287/349/158 286/346/155
f 259/335/156 260/312/147 284/315/147 283/350/156
f 256/330/157 257/276/149 281/341/149 280/348/157
f 263/332/158 264/319/151 288/343/151 287/349/158
f 253/318/152 254/323/153 278/345/153 277/342/152
f 266/351/159 265/352/160 277/353/160 278/354/159
f 267/355/161 266/351/159 278/354/159 279/356/161
f 268/357/162 267/355/161 279/356/161 280/358/162
f 269/359/163 268/357/162 280/358/162 281/360/163
f 270/361/164 269/359/163 281/360/163 282/362/164
f 271/363/165 270/361/164 282/362/164 283/364/165
f 272/336/166 271/363/165 283/364/165 284/365/166
f 273/337/167 272/336/166 284/365/166 285/366/167
f 274/367/168 273/337/167 285/366/167 286/368/168
f 275/369/169 274/367/168 286/368/168 287/370/169
f 276/371/170 275/369/169 287/370/169 288/372/170
f 265/352/160 276/371/170 288/372/170 277/353/160
f 276/371/23 265/352/28 290/373/28 311/374/23
f 269/359/30 270/361/25 299/375/25 297/376/30
f 289/377/171 292/378/172 294/379/173 296/380/174 298/381/175 300/382/176 302/383/177 304/384/178 306/385/179 308/386/180 310/387/181 312/388/182
f 273/337/26 274/367/29 307/389/29 305/338/26
f 270/361/25 271/363/18 301/390/18 299/375/25
f 266/351/22 267/355/21 293/391/21 291/392/22
f 267/355/21 268/357/27 295/393/27 293/391/21
f 274/367/29 275/369/24 309/394/24 307/389/29
f 271/363/18 272/336/19 303/339/19 301/390/18
f 268/357/27 269/359/30 297/376/30 295/393/27
f 275/369/24 276/371/23 311/374/23 309/394/24
f 290/395/183 291/396/184 292/378/172 289/377/171
f 291/396/184 293/397/185 294/379/173 292/378/172
f 293/397/185 295/398/186 296/380/174 294/379/173
f 295/398/186 297/399/187 298/381/175 296/380/174
f 297/399/187 299/400/188 300/382/176 298/381/175
f 299/400/188 301/401/189 302/383/177 300/382/176
f 301/401/189 303/402/190 304/384/178 302/383/177
f 303/402/190 305/403/191 306/385/179 304/384/178
f 305/403/191 307/404/192 308/386/180 306/385/179
f 307/404/192 309/405/193 310/387/181 308/386/180
f 309/405/193 311/406/194 312/388/182 310/387/181
f 311/406/194 290/395/183 289/377/171 312/388/182
f 265/352/28 266/351/22 291/392/22 290/373/28
f 37/48/19 38/407/26 5/408/26 3/49/19
f 38/407/26 39/409/29 7/410/29 5/408/26
f 39/409/29 40/411/24 9/412/24 7/410/29
f 40/411/24 41/413/23 11/414/23 9/412/24
f 41/413/23 42/415/28 13/416/28 11/414/23
f 42/417/28 43/418/22 15/419/22 13/420/28
f 43/418/22 44/421/21 17/422/21 15/419/22
f 44/421/21 45/423/27 19/424/27 17/422/21
f 45/423/27 46/425/30 21/426/30 19/424/27
f 46/425/30 47/427/25 23/428/25 21/426/30
f 47/427/25 48/47/18 1/46/18 23/428/25
f 321/429/195 338/430/195 337/431/196 322/432/196
f 322/432/196 337/431/196 339/433/197 323/434/197
f 323/434/197 339/433/197 340/435/198 324/436/198
f 324/437/198 340/438/198 341/439/199 325/440/199
f 325/440/199 341/439/199 342/441/200 326/442/200
f 326/442/200 342/441/200 343/443/201 327/444/201
f 342/441/202 356/445/202 358/446/203 343/443/203
f 327/444/201 343/443/201 344/447/204 328/448/204
f 328/448/204 344/447/204 338/430/195 321/429/195
f 313/449/205 314/450/206 315/451/207 316/452/208 317/453/209 318/454/210 319/455/211 320/456/212
f 335/457/12 328/448/12 321/429/12 336/458/12
f 334/459/12 327/444/12 328/448/12 335/457/12
f 333/460/12 326/442/12 327/444/12 334/459/12
f 332/461/12 325/440/12 326/442/12 333/460/12
f 331/462/12 324/437/12 325/440/12 332/461/12
f 330/463/12 323/434/12 324/436/12 331/464/12
f 329/465/12 322/432/12 323/434/12 330/463/12
f 336/458/12 321/429/12 322/432/12 329/465/12
f 401/466/195 336/467/195 329/468/196 402/469/196
f 402/469/196 329/468/196 330/470/197 403/471/197
f 403/471/197 330/470/197 331/472/198 404/473/198
f 404/474/198 331/475/198 332/476/199 405/477/199
f 405/477/199 332/476/199 333/478/200 406/479/200
f 406/479/200 333/478/200 334/480/201 407/481/201
f 407/481/201 334/480/201 335/482/204 408/483/204
f 408/483/204 335/482/204 336/467/195 401/466/195
f 337/431/213 346/484/213 350/485/214 339/433/214
f 339/433/214 350/485/214 352/486/215 340/435/215
f 340/438/215 352/487/215 354/488/216 341/439/216
f 342/441/202 341/439/216 354/488/216 356/445/202
f 343/443/203 358/446/203 360/489/217 344/447/217
f 344/447/217 360/489/217 347/490/218 338/430/218
f 345/491/219 348/492/220 359/493/221 357/494/222 355/495/223 353/496/224 351/497/225 349/498/226
f 346/499/227 347/500/228 348/492/220 345/491/219
f 350/501/229 346/499/227 345/491/219 349/498/226
f 352/502/230 350/501/229 349/498/226 351/497/225
f 354/503/231 352/502/230 351/497/225 353/496/224
f 356/504/232 354/503/231 353/496/224 355/495/223
f 358/505/233 356/504/232 355/495/223 357/494/222
f 360/506/234 358/505/233 357/494/222 359/493/221
f 347/500/228 360/506/234 359/493/221 348/492/220
f 338/430/218 347/490/218 346/484/213 337/431/213
f 482/507/235 481/508/236 361/509/236 362/510/235
f 483/511/237 482/507/235 362/510/235 363/512/237
f 484/513/238 483/511/237 363/512/237 364/514/238
f 485/515/239 484/513/238 364/514/238 365/516/239
f 486/517/240 485/515/239 365/516/239 366/518/240
f 487/519/241 486/517/240 366/518/240 367/520/241
f 488/521/242 487/519/241 367/520/241 368/522/242
f 481/508/236 488/521/242 368/522/242 361/509/236
f 383/523/204 375/524/204 376/525/195 384/526/195
f 382/527/201 374/528/201 375/524/204 383/523/204
f 381/529/200 373/530/200 374/528/201 382/527/201
f 380/531/199 372/532/199 373/530/200 381/529/200
f 379/533/198 371/534/198 372/532/199 380/531/199
f 378/535/197 370/536/197 371/537/198 379/538/198
f 377/539/196 369/540/196 370/536/197 378/535/197
f 384/526/195 376/525/195 369/540/196 377/539/196
f 432/541/12 384/526/12 377/539/12 425/542/12
f 425/542/12 377/539/12 378/535/12 426/543/12
f 426/543/12 378/535/12 379/538/12 427/544/12
f 427/545/12 379/533/12 380/531/12 428/546/12
f 428/546/12 380/531/12 381/529/12 429/547/12
f 429/547/12 381/529/12 382/527/12 430/548/12
f 430/548/12 382/527/12 383/523/12 431/549/12
f 431/549/12 383/523/12 384/526/12 432/541/12
f 415/550/12 392/551/12 385/552/12 416/553/12
f 414/554/12 391/555/12 392/551/12 415/550/12
f 413/556/12 390/557/12 391/555/12 414/554/12
f 412/558/12 389/559/12 390/557/12 413/556/12
f 411/560/12 388/561/12 389/559/12 412/558/12
f 410/562/12 387/563/12 388/564/12 411/565/12
f 409/566/12 386/567/12 387/563/12 410/562/12
f 416/553/12 385/552/12 386/567/12 409/566/12
f 392/551/204 400/568/204 393/569/195 385/552/195
f 391/555/201 399/570/201 400/568/204 392/551/204
f 390/557/200 398/571/200 399/570/201 391/555/201
f 389/559/199 397/572/199 398/571/200 390/557/200
f 388/561/198 396/573/198 397/572/199 389/559/199
f 387/563/197 395/574/197 396/575/198 388/564/198
f 386/567/196 394/576/196 395/574/197 387/563/197
f 385/552/195 393/569/195 394/576/196 386/567/196
f 400/568/20 408/577/20 401/578/20 393/569/20
f 399/570/20 407/579/20 408/577/20 400/568/20
f 398/571/20 406/580/20 407/579/20 399/570/20
f 397/572/20 405/581/20 406/580/20 398/571/20
f 396/573/20 404/582/20 405/581/20 397/572/20
f 395/574/20 403/583/20 404/584/20 396/575/20
f 394/576/20 402/585/20 403/583/20 395/574/20
f 393/569/20 401/578/20 402/585/20 394/576/20
f 424/586/195 416/587/195 409/588/196 417/589/196
f 417/589/196 409/588/196 410/590/197 418/591/197
f 418/591/197 410/590/197 411/592/198 419/593/198
f 419/594/198 411/595/198 412/596/199 420/597/199
f 420/597/199 412/596/199 413/598/200 421/599/200
f 421/599/200 413/598/200 414/600/201 422/601/201
f 422/601/201 414/600/201 415/602/204 423/603/204
f 423/603/204 415/602/204 416/587/195 424/586/195
f 375/524/20 423/604/20 424/605/20 376/525/20
f 374/528/20 422/606/20 423/604/20 375/524/20
f 373/530/20 421/607/20 422/606/20 374/528/20
f 372/532/20 420/608/20 421/607/20 373/530/20
f 371/534/20 419/609/20 420/608/20 372/532/20
f 370/536/20 418/610/20 419/611/20 371/537/20
f 369/540/20 417/612/20 418/610/20 370/536/20
f 376/525/20 424/605/20 417/612/20 369/540/20
f 368/613/204 431/614/204 432/615/195 361/616/195
f 367/617/201 430/618/201 431/614/204 368/613/204
f 366/619/200 429/620/200 430/618/201 367/617/201
f 365/621/199 428/622/199 429/620/200 366/619/200
f 364/623/198 427/624/198 428/622/199 365/621/199
f 363/625/197 426/626/197 427/627/198 364/628/198
f 362/629/196 425/630/196 426/626/197 363/625/197
f 361/616/195 432/615/195 425/630/196 362/629/196
s 0
f 433/631/201 434/632/201 436/633/201 435/634/201
f 435/634/12 436/633/12 440/635/12 439/636/12
f 439/636/197 440/635/197 438/637/197 437/638/197
f 437/639/20 438/640/20 434/632/20 433/631/20
f 441/641/201 442/642/201 444/643/201 443/644/201
f 443/644/12 444/643/12 448/645/12 447/646/12
f 447/646/197 448/645/197 446/647/197 445/648/197
f 445/649/20 446/650/20 442/642/20 441/641/20
s 1
f 449/651/12 450/652/12 452/653/243 451/654/243
f 451/654/243 452/653/243 454/655/18 453/656/18
f 453/656/18 454/655/18 456/657/244 455/658/244
f 455/658/244 456/657/244 458/659/20 457/660/20
f 457/660/20 458/659/20 460/661/245 459/662/245
f 459/662/245 460/661/245 462/663/28 461/664/28
f 456/665/29 454/666/29 467/667/29 468/668/29
f 461/669/28 462/670/28 464/671/246 463/672/246
f 463/672/246 464/671/246 450/652/12 449/651/12
f 472/673/246 471/674/28 479/675/28 480/676/246
f 462/677/29 460/678/29 470/679/29 471/680/29
f 458/681/29 456/665/29 468/668/29 469/682/29
f 464/683/29 462/677/29 471/680/29 472/684/29
f 454/666/29 452/685/29 465/686/29 467/667/29
f 460/678/29 458/681/29 469/682/29 470/679/29
f 450/687/29 464/683/29 472/684/29 466/688/29
f 452/685/29 450/687/29 466/688/29 465/686/29
f 473/689/27 474/690/27 480/691/27 479/692/27 478/693/27 477/694/27 476/695/27 475/696/27
f 470/697/245 469/698/20 477/699/20 478/700/245
f 468/701/244 467/702/18 475/703/18 476/704/244
f 465/705/243 466/706/12 474/707/12 473/708/243
f 466/706/12 472/673/246 480/676/246 474/707/12
f 471/709/28 470/697/245 478/700/245 479/710/28
f 469/698/20 468/701/244 476/704/244 477/699/20
f 467/702/18 465/705/243 473/708/243 475/703/18
f 314/450/206 313/449/205 481/711/247 482/712/248
f 315/451/207 314/450/206 482/712/248 483/713/249
f 316/452/208 315/451/207 483/713/249 484/714/250
f 317/453/209 316/452/208 484/714/250 485/715/251
f 318/454/210 317/453/209 485/715/251 486/716/252
f 319/455/211 318/454/210 486/716/252 487/717/253
f 320/456/212 319/455/211 487/717/253 488/718/254
f 313/449/205 320/456/212 488/718/254 481/711/247
