# Blender 4.1.1
# www.blender.org
o Telescope_5"Refractor_TubeRings
v 0.000000 0.093561 0.130121
v 0.000000 0.093561 0.172463
v 0.046781 0.081026 0.130121
v 0.046781 0.081026 0.172463
v 0.081026 0.046781 0.130121
v 0.081026 0.046781 0.172463
v 0.093561 -0.000000 0.130121
v 0.093561 0.000000 0.172463
v 0.081026 -0.046781 0.130121
v 0.081026 -0.046781 0.172463
v 0.038934 -0.081026 0.130121
v 0.038934 -0.081026 0.172463
v -0.038934 -0.081026 0.130121
v -0.038934 -0.081026 0.172463
v -0.081026 -0.046781 0.130121
v -0.081026 -0.046781 0.172463
v -0.081026 0.046781 0.130121
v -0.081026 0.046781 0.172463
v -0.046781 0.081026 0.130121
v -0.046781 0.081026 0.172463
v -0.030234 -0.100530 0.130121
v -0.030234 -0.100530 0.172463
v 0.030235 -0.100530 0.130121
v 0.030235 -0.100530 0.172463
v -0.090250 -0.009974 0.130121
v -0.090250 0.009974 0.130121
v -0.090250 0.009974 0.172463
v -0.090250 -0.009974 0.172463
v -0.125712 -0.009974 0.172463
v -0.125712 0.009974 0.172463
v -0.125712 0.009974 0.130121
v -0.125712 -0.009974 0.130121
v -0.107981 -0.000026 0.137292
v -0.107981 0.019974 0.137292
v -0.095857 -0.000026 0.144292
v -0.095857 0.019974 0.144292
v -0.095857 -0.000026 0.158292
v -0.095857 0.019974 0.158292
v -0.107981 -0.000026 0.165292
v -0.107981 0.019974 0.165292
v -0.120105 -0.000026 0.158292
v -0.120105 0.019974 0.158292
v -0.120105 -0.000026 0.144292
v -0.120105 0.019974 0.144292
v 0.000000 0.093561 -0.172464
v 0.000000 0.093561 -0.130121
v 0.046781 0.081026 -0.172464
v 0.046781 0.081026 -0.130121
v 0.081027 0.046781 -0.172464
v 0.081027 0.046781 -0.130121
v 0.093561 -0.000000 -0.172464
v 0.093561 -0.000000 -0.130121
v 0.081027 -0.046781 -0.172464
v 0.081027 -0.046781 -0.130121
v 0.038934 -0.081026 -0.172464
v 0.038934 -0.081026 -0.130121
v -0.038934 -0.081026 -0.172464
v -0.038934 -0.081026 -0.130121
v -0.081026 -0.046781 -0.172464
v -0.081026 -0.046781 -0.130121
v -0.081026 0.046781 -0.172464
v -0.081026 0.046781 -0.130121
v -0.046781 0.081026 -0.172464
v -0.046781 0.081026 -0.130121
v -0.030234 -0.100530 -0.172464
v -0.030234 -0.100530 -0.130121
v 0.030235 -0.100530 -0.172464
v 0.030235 -0.100530 -0.130121
v -0.090250 -0.009974 -0.172464
v -0.090250 0.009974 -0.172464
v -0.090250 0.009974 -0.130121
v -0.090250 -0.009974 -0.130121
v -0.125712 -0.009974 -0.130121
v -0.125712 0.009974 -0.130121
v -0.125712 0.009974 -0.172464
v -0.125712 -0.009974 -0.172464
v -0.107981 -0.000026 -0.165292
v -0.107981 0.019974 -0.165292
v -0.095856 -0.000026 -0.158292
v -0.095856 0.019974 -0.158292
v -0.095856 -0.000026 -0.144292
v -0.095856 0.019974 -0.144292
v -0.107981 -0.000026 -0.137292
v -0.107981 0.019974 -0.137292
v -0.120105 -0.000026 -0.144292
v -0.120105 0.019974 -0.144292
v -0.120105 -0.000026 -0.158292
v -0.120105 0.019974 -0.158292
v -0.037316 -0.116069 0.177533
v -0.032941 -0.098110 0.177533
v -0.037316 -0.116069 -0.177533
v -0.032941 -0.098110 -0.177533
v 0.037316 -0.116069 0.177533
v 0.032941 -0.098110 0.177533
v 0.037316 -0.116069 -0.177533
v 0.032941 -0.098110 -0.177533
v 0.000000 -0.128132 0.138763
v 0.000000 -0.108132 0.138763
v 0.012124 -0.128132 0.145763
v 0.012124 -0.108132 0.145763
v 0.012124 -0.128132 0.159763
v 0.012124 -0.108132 0.159763
v 0.000000 -0.128132 0.166763
v 0.000000 -0.108132 0.166763
v -0.012124 -0.128132 0.159763
v -0.012124 -0.108132 0.159763
v -0.012124 -0.128132 0.145763
v -0.012124 -0.108132 0.145763
v 0.000000 -0.128132 -0.165806
v 0.000000 -0.108132 -0.165806
v 0.012124 -0.128132 -0.158806
v 0.012124 -0.108132 -0.158806
v 0.012124 -0.128132 -0.144806
v 0.012124 -0.108132 -0.144806
v 0.000000 -0.128132 -0.137806
v 0.000000 -0.108132 -0.137806
v -0.012124 -0.128132 -0.144806
v -0.012124 -0.108132 -0.144806
v -0.012124 -0.128132 -0.158806
v -0.012124 -0.108132 -0.158806
vn -0.0000 1.0000 -0.0000
vn 0.5000 0.8660 -0.0000
vn 0.8660 0.5000 -0.0000
vn 1.0000 -0.0000 -0.0000
vn 0.8393 -0.5437 -0.0000
vn 0.6311 -0.7757 -0.0000
vn -0.0000 -0.0000 -1.0000
vn -0.0000 -0.0000 1.0000
vn -0.6311 -0.7757 -0.0000
vn -0.8437 -0.5368 -0.0000
vn -0.9700 0.2431 -0.0000
vn -0.8701 0.4929 -0.0000
vn 0.9133 -0.4073 -0.0000
vn -0.9700 -0.2431 -0.0000
vn -0.5000 0.8660 -0.0000
vn -0.9133 -0.4073 -0.0000
vn -0.0000 -1.0000 -0.0000
vn -1.0000 -0.0000 -0.0000
vn 0.5000 -0.0000 -0.8660
vn 0.5000 -0.0000 0.8660
vn -0.5000 -0.0000 0.8660
vn -0.5000 -0.0000 -0.8660
vn -0.9716 0.2367 -0.0000
vn 0.9716 0.2367 -0.0000
vt 0.149079 0.838254
vt 0.142963 0.838254
vt 0.142963 0.831257
vt 0.149079 0.831257
vt 0.142963 0.824261
vt 0.149079 0.824261
vt 0.142963 0.817264
vt 0.149079 0.817264
vt 0.142963 0.810268
vt 0.149079 0.810268
vt 0.142963 0.802429
vt 0.149079 0.802429
vt 0.737580 0.964133
vt 0.745321 0.972295
vt 0.742412 0.973322
vt 0.736400 0.966984
vt 0.227856 0.972549
vt 0.224519 0.978698
vt 0.218555 0.982356
vt 0.211561 0.982541
vt 0.206786 0.979848
vt 0.204695 0.977865
vt 0.201754 0.973239
vt 0.202349 0.965423
vt 0.210090 0.957261
vt 0.217864 0.956254
vt 0.224014 0.959590
vt 0.227671 0.965555
vt 0.967150 0.956766
vt 0.961033 0.956766
vt 0.961033 0.948927
vt 0.967150 0.948927
vt 0.149079 0.857728
vt 0.142963 0.857728
vt 0.142963 0.852247
vt 0.149079 0.852247
vt 0.142963 0.799344
vt 0.149079 0.799344
vt 0.961033 0.943445
vt 0.967150 0.943445
vt 0.142963 0.845250
vt 0.149079 0.845250
vt 0.967150 0.959851
vt 0.961033 0.959851
vt 0.149079 0.862851
vt 0.142963 0.862851
vt 0.961033 0.938322
vt 0.967150 0.938322
vt 0.759750 0.950857
vt 0.763087 0.957007
vt 0.762902 0.964001
vt 0.759244 0.969965
vt 0.753095 0.973302
vt 0.736985 0.956316
vt 0.739926 0.951690
vt 0.742016 0.949707
vt 0.746791 0.947015
vt 0.753785 0.947200
vt 0.149079 0.865733
vt 0.142963 0.865733
vt 0.736400 0.947973
vt 0.738491 0.945990
vt 0.203260 0.983565
vt 0.201169 0.981582
vt 0.201169 0.962572
vt 0.207181 0.956234
vt 0.006680 0.970311
vt 0.009570 0.970311
vt 0.009570 0.972334
vt 0.006680 0.972334
vt 0.009570 0.974356
vt 0.006680 0.974356
vt 0.009570 0.976379
vt 0.006680 0.976379
vt 0.009570 0.978401
vt 0.006680 0.978401
vt 0.984075 0.918719
vt 0.985827 0.919730
vt 0.985827 0.921753
vt 0.984075 0.922764
vt 0.982324 0.921753
vt 0.982324 0.919730
vt 0.009570 0.980424
vt 0.006680 0.980424
vt 0.009570 0.982446
vt 0.006680 0.982446
vt 0.916675 0.714348
vt 0.910558 0.714348
vt 0.910558 0.707351
vt 0.916675 0.707351
vt 0.910558 0.700355
vt 0.916675 0.700355
vt 0.910558 0.693358
vt 0.916675 0.693358
vt 0.910558 0.686362
vt 0.916675 0.686362
vt 0.910558 0.678523
vt 0.916675 0.678523
vt 0.777627 0.964133
vt 0.785368 0.972295
vt 0.782459 0.973322
vt 0.776448 0.966984
vt 0.843181 0.962305
vt 0.839845 0.968455
vt 0.833880 0.972112
vt 0.826886 0.972297
vt 0.822111 0.969605
vt 0.820020 0.967622
vt 0.817079 0.962996
vt 0.817674 0.955179
vt 0.825416 0.947017
vt 0.833190 0.946010
vt 0.839339 0.949347
vt 0.842996 0.955311
vt 0.036028 0.944576
vt 0.029911 0.944576
vt 0.029911 0.936737
vt 0.036028 0.936737
vt 0.916675 0.733822
vt 0.910558 0.733822
vt 0.910558 0.728341
vt 0.916675 0.728341
vt 0.910558 0.675438
vt 0.916675 0.675438
vt 0.029911 0.931255
vt 0.036028 0.931255
vt 0.910558 0.721344
vt 0.916675 0.721344
vt 0.036028 0.947661
vt 0.029911 0.947661
vt 0.916675 0.738945
vt 0.910558 0.738945
vt 0.029911 0.926132
vt 0.036028 0.926132
vt 0.799797 0.950857
vt 0.803134 0.957007
vt 0.802949 0.964001
vt 0.799292 0.969965
vt 0.793142 0.973302
vt 0.777032 0.956316
vt 0.779973 0.951690
vt 0.782064 0.949707
vt 0.786839 0.947015
vt 0.793833 0.947200
vt 0.916675 0.741827
vt 0.910558 0.741827
vt 0.776448 0.947973
vt 0.778539 0.945990
vt 0.818586 0.973322
vt 0.816495 0.971339
vt 0.816495 0.952329
vt 0.822506 0.945990
vt 0.981908 0.755188
vt 0.984798 0.755188
vt 0.984798 0.757210
vt 0.981908 0.757210
vt 0.984798 0.759233
vt 0.981908 0.759233
vt 0.984798 0.761255
vt 0.981908 0.761255
vt 0.984798 0.763278
vt 0.981908 0.763278
vt 0.988615 0.389729
vt 0.990366 0.390740
vt 0.990366 0.392762
vt 0.988615 0.393774
vt 0.986863 0.392762
vt 0.986863 0.390740
vt 0.984798 0.765300
vt 0.981908 0.765300
vt 0.984798 0.767323
vt 0.981908 0.767323
vt 0.212998 0.891579
vt 0.215668 0.891579
vt 0.215668 0.942873
vt 0.212998 0.942873
vt 0.142963 0.881688
vt 0.143595 0.879094
vt 0.153112 0.879094
vt 0.153744 0.881688
vt 0.227856 0.942873
vt 0.225185 0.942873
vt 0.225185 0.891579
vt 0.227856 0.891579
vt 0.153744 0.932982
vt 0.153112 0.935576
vt 0.143595 0.935576
vt 0.142963 0.932982
vt 0.980641 0.636849
vt 0.983530 0.636849
vt 0.983530 0.638871
vt 0.980641 0.638871
vt 0.983530 0.640894
vt 0.980641 0.640894
vt 0.983530 0.642916
vt 0.980641 0.642916
vt 0.983530 0.644939
vt 0.980641 0.644939
vt 0.983530 0.646961
vt 0.980641 0.646961
vt 0.983530 0.648984
vt 0.980641 0.648984
vt 0.988615 0.372323
vt 0.990367 0.373334
vt 0.990367 0.375356
vt 0.988615 0.376368
vt 0.986863 0.375356
vt 0.986863 0.373334
vt 0.125871 0.887567
vt 0.128760 0.887567
vt 0.128760 0.889590
vt 0.125871 0.889590
vt 0.128760 0.891612
vt 0.125871 0.891612
vt 0.128760 0.893635
vt 0.125871 0.893635
vt 0.125871 0.881500
vt 0.128760 0.881500
vt 0.128760 0.883522
vt 0.125871 0.883522
vt 0.128760 0.885545
vt 0.125871 0.885545
vt 0.960519 0.656488
vt 0.960519 0.658511
vt 0.958768 0.659522
vt 0.957016 0.658511
vt 0.957016 0.656488
vt 0.958768 0.655477
s 1
f 1/1/1 2/2/1 4/3/2 3/4/2
f 3/4/2 4/3/2 6/5/3 5/6/3
f 5/6/3 6/5/3 8/7/4 7/8/4
f 7/8/4 8/7/4 10/9/5 9/10/5
f 9/10/5 10/9/5 12/11/6 11/12/6
f 13/13/7 11/14/7 23/15/7 21/16/7
f 4/17/8 2/18/8 20/19/8 18/20/8 27/21/8 28/22/8 16/23/8 14/24/8 12/25/8 10/26/8 8/27/8 6/28/8
f 13/29/9 14/30/9 16/31/10 15/32/10
f 26/33/11 27/34/11 18/35/12 17/36/12
f 11/12/13 12/11/13 24/37/13 23/38/13
f 15/32/10 16/31/10 28/39/14 25/40/14
f 17/36/12 18/35/12 20/41/15 19/42/15
f 19/42/15 20/41/15 2/2/1 1/1/1
f 14/30/16 13/29/16 21/43/16 22/44/16
f 27/34/1 26/33/1 31/45/1 30/46/1
f 25/40/17 28/39/17 29/47/17 32/48/17
f 1/49/7 3/50/7 5/51/7 7/52/7 9/53/7 11/14/7 13/13/7 15/54/7 25/55/7 26/56/7 17/57/7 19/58/7
f 30/46/18 31/45/18 32/59/18 29/60/18
f 26/56/7 25/55/7 32/61/7 31/62/7
f 28/22/8 27/21/8 30/63/8 29/64/8
f 12/25/8 14/24/8 22/65/8 24/66/8
s 0
f 33/67/19 34/68/19 36/69/19 35/70/19
f 35/70/4 36/69/4 38/71/4 37/72/4
f 37/72/20 38/71/20 40/73/20 39/74/20
f 39/74/21 40/73/21 42/75/21 41/76/21
f 36/77/1 34/78/1 44/79/1 42/80/1 40/81/1 38/82/1
f 41/76/18 42/75/18 44/83/18 43/84/18
f 43/84/22 44/83/22 34/85/22 33/86/22
s 1
f 45/87/1 46/88/1 48/89/2 47/90/2
f 47/90/2 48/89/2 50/91/3 49/92/3
f 49/92/3 50/91/3 52/93/4 51/94/4
f 51/94/4 52/93/4 54/95/5 53/96/5
f 53/96/5 54/95/5 56/97/6 55/98/6
f 57/99/7 55/100/7 67/101/7 65/102/7
f 48/103/8 46/104/8 64/105/8 62/106/8 71/107/8 72/108/8 60/109/8 58/110/8 56/111/8 54/112/8 52/113/8 50/114/8
f 57/115/9 58/116/9 60/117/10 59/118/10
f 70/119/11 71/120/11 62/121/12 61/122/12
f 55/98/13 56/97/13 68/123/13 67/124/13
f 59/118/10 60/117/10 72/125/14 69/126/14
f 61/122/12 62/121/12 64/127/15 63/128/15
f 63/128/15 64/127/15 46/88/1 45/87/1
f 58/116/16 57/115/16 65/129/16 66/130/16
f 71/120/1 70/119/1 75/131/1 74/132/1
f 69/126/17 72/125/17 73/133/17 76/134/17
f 45/135/7 47/136/7 49/137/7 51/138/7 53/139/7 55/100/7 57/99/7 59/140/7 69/141/7 70/142/7 61/143/7 63/144/7
f 74/132/18 75/131/18 76/145/18 73/146/18
f 70/142/7 69/141/7 76/147/7 75/148/7
f 72/108/8 71/107/8 74/149/8 73/150/8
f 56/111/8 58/110/8 66/151/8 68/152/8
s 0
f 77/153/19 78/154/19 80/155/19 79/156/19
f 79/156/4 80/155/4 82/157/4 81/158/4
f 81/158/20 82/157/20 84/159/20 83/160/20
f 83/160/21 84/159/21 86/161/21 85/162/21
f 80/163/1 78/164/1 88/165/1 86/166/1 84/167/1 82/168/1
f 85/162/18 86/161/18 88/169/18 87/170/18
f 87/170/22 88/169/22 78/171/22 77/172/22
f 89/173/23 90/174/23 92/175/23 91/176/23
f 91/177/7 92/178/7 96/179/7 95/180/7
f 95/181/24 96/182/24 94/183/24 93/184/24
f 93/185/8 94/186/8 90/187/8 89/188/8
f 91/177/17 95/180/17 93/185/17 89/188/17
f 96/182/1 92/175/1 90/174/1 94/183/1
f 97/189/19 98/190/19 100/191/19 99/192/19
f 99/192/4 100/191/4 102/193/4 101/194/4
f 101/194/20 102/193/20 104/195/20 103/196/20
f 103/196/21 104/195/21 106/197/21 105/198/21
f 105/198/18 106/197/18 108/199/18 107/200/18
f 107/200/22 108/199/22 98/201/22 97/202/22
f 97/203/17 99/204/17 101/205/17 103/206/17 105/207/17 107/208/17
f 109/209/19 110/210/19 112/211/19 111/212/19
f 111/212/4 112/211/4 114/213/4 113/214/4
f 113/214/20 114/213/20 116/215/20 115/216/20
f 115/217/21 116/218/21 118/219/21 117/220/21
f 117/220/18 118/219/18 120/221/18 119/222/18
f 119/222/22 120/221/22 110/210/22 109/209/22
f 109/223/17 111/224/17 113/225/17 115/226/17 117/227/17 119/228/17
