# Blender 4.1.1
# www.blender.org
o Telescope_GreatRefractor_GuideScope
v 0.173834 0.488925 0.381000
v 0.167027 0.488925 0.162006
v 0.167910 0.533916 0.381000
v 0.161336 0.532155 0.162006
v 0.150544 0.575842 0.381000
v 0.144650 0.572438 0.162006
v 0.122919 0.611844 0.381000
v 0.118106 0.607031 0.162006
v 0.086917 0.639469 0.381000
v 0.083513 0.633575 0.162006
v 0.044992 0.656835 0.381000
v 0.043230 0.650261 0.162006
v 0.000000 0.662759 0.381000
v 0.000000 0.655952 0.162006
v -0.044991 0.656835 0.381000
v -0.043230 0.650261 0.162006
v -0.086917 0.639469 0.381000
v -0.083513 0.633575 0.162006
v -0.122919 0.611844 0.381000
v -0.118106 0.607031 0.162006
v -0.150544 0.575842 0.381000
v -0.144650 0.572438 0.162006
v -0.167910 0.533916 0.381000
v -0.161336 0.532155 0.162006
v -0.173834 0.488925 0.381000
v -0.167027 0.488925 0.162006
v -0.167910 0.443934 0.381000
v -0.161336 0.445695 0.162006
v -0.150544 0.402008 0.381000
v -0.144650 0.405411 0.162006
v -0.122919 0.366006 0.381000
v -0.118106 0.370819 0.162006
v -0.086917 0.338381 0.381000
v -0.083513 0.344275 0.162006
v -0.044991 0.321015 0.381000
v -0.043230 0.327589 0.162006
v 0.000000 0.315091 0.381000
v -0.000000 0.321898 0.162006
v 0.044991 0.321015 0.381000
v 0.043230 0.327589 0.162006
v 0.086917 0.338381 0.381000
v 0.083513 0.344275 0.162006
v 0.122919 0.366006 0.381000
v 0.118106 0.370819 0.162006
v 0.150544 0.402008 0.381000
v 0.144650 0.405411 0.162006
v 0.167910 0.443933 0.381000
v 0.161336 0.445695 0.162006
v 0.089167 0.512817 -4.858109
v 0.092312 0.488925 -4.858109
v 0.079945 0.535081 -4.858109
v 0.065275 0.554200 -4.858109
v 0.046156 0.568870 -4.858109
v 0.023892 0.578092 -4.858109
v 0.000000 0.581237 -4.858109
v -0.023892 0.578092 -4.858109
v -0.046156 0.568870 -4.858109
v -0.065275 0.554200 -4.858109
v -0.079945 0.535081 -4.858109
v -0.089167 0.512817 -4.858109
v -0.092312 0.488925 -4.858109
v -0.089167 0.465033 -4.858109
v -0.079945 0.442769 -4.858109
v -0.065275 0.423650 -4.858109
v -0.046156 0.408980 -4.858109
v -0.023892 0.399758 -4.858109
v 0.000000 0.396612 -4.858109
v 0.023892 0.399758 -4.858109
v 0.046156 0.408980 -4.858109
v 0.065275 0.423650 -4.858109
v 0.079945 0.442769 -4.858109
v 0.089167 0.465033 -4.858109
v 0.031899 0.369875 -2.344112
v 0.061625 0.382188 -2.344112
v 0.106737 0.550550 -2.344112
v 0.087151 0.576076 -2.344112
v -0.031899 0.607975 -2.344112
v -0.061625 0.595662 -2.344112
v 0.123250 0.488925 -2.344112
v 0.119050 0.520824 -2.344112
v -0.123250 0.488925 -2.344112
v -0.119050 0.457026 -2.344112
v -0.031899 0.369875 -2.344112
v 0.000000 0.365675 -2.344112
v 0.106737 0.427300 -2.344112
v 0.119050 0.457026 -2.344112
v 0.031899 0.607975 -2.344112
v 0.000000 0.612175 -2.344112
v -0.106737 0.550550 -2.344112
v -0.119050 0.520824 -2.344112
v -0.087151 0.401774 -2.344112
v -0.061625 0.382188 -2.344112
v 0.087151 0.401774 -2.344112
v 0.061625 0.595662 -2.344112
v -0.087151 0.576076 -2.344112
v -0.106737 0.427300 -2.344112
v 0.072569 0.363231 -1.091053
v 0.102628 0.591553 -1.091053
v -0.072569 0.614618 -1.091053
v 0.140193 0.526489 -1.091053
v -0.140193 0.451360 -1.091053
v -0.000000 0.343787 -1.091053
v 0.140193 0.451360 -1.091053
v 0.000000 0.634063 -1.091053
v -0.140193 0.526489 -1.091053
v -0.072569 0.363231 -1.091053
v 0.102628 0.386297 -1.091053
v 0.072569 0.614618 -1.091053
v -0.102628 0.591553 -1.091053
v -0.125693 0.416356 -1.091053
v 0.037565 0.348732 -1.091053
v 0.125693 0.561494 -1.091053
v -0.037565 0.629118 -1.091053
v 0.145138 0.488925 -1.091053
v -0.145138 0.488925 -1.091053
v -0.037565 0.348732 -1.091053
v 0.125693 0.416356 -1.091053
v 0.037565 0.629118 -1.091053
v -0.125693 0.561494 -1.091053
v -0.102628 0.386297 -1.091053
v 0.026234 0.391018 -3.597171
v 0.087781 0.539605 -3.597171
v -0.026234 0.586832 -3.597171
v 0.101361 0.488925 -3.597171
v -0.101361 0.488925 -3.597171
v -0.026234 0.391018 -3.597171
v 0.087781 0.438244 -3.597171
v 0.026234 0.586832 -3.597171
v -0.087781 0.539605 -3.597171
v -0.071673 0.417252 -3.597171
v 0.050681 0.401144 -3.597171
v 0.071673 0.560598 -3.597171
v -0.050680 0.576706 -3.597171
v 0.097907 0.515159 -3.597171
v -0.097907 0.462691 -3.597171
v 0.000000 0.387564 -3.597171
v 0.097907 0.462691 -3.597171
v 0.000000 0.590286 -3.597171
v -0.097907 0.515159 -3.597171
v -0.050680 0.401144 -3.597171
v 0.071673 0.417252 -3.597171
v 0.050681 0.576706 -3.597171
v -0.071673 0.560598 -3.597171
v -0.087781 0.438244 -3.597171
v 0.173834 0.488925 0.417873
v 0.167910 0.533916 0.417873
v 0.150544 0.575842 0.417873
v 0.122919 0.611844 0.417873
v 0.086917 0.639469 0.417873
v 0.044992 0.656835 0.417873
v 0.000000 0.662759 0.417873
v -0.044991 0.656835 0.417873
v -0.086917 0.639469 0.417873
v -0.122919 0.611844 0.417873
v -0.150544 0.575842 0.417873
v -0.167910 0.533916 0.417873
v -0.173834 0.488925 0.417873
v -0.167910 0.443934 0.417873
v -0.150544 0.402008 0.417873
v -0.122919 0.366006 0.417873
v -0.086917 0.338381 0.417873
v -0.044991 0.321015 0.417873
v 0.000000 0.315091 0.417873
v 0.044991 0.321015 0.417873
v 0.086917 0.338381 0.417873
v 0.122919 0.366006 0.417873
v 0.150544 0.402008 0.417873
v 0.167910 0.443933 0.417873
v 0.167027 0.488925 0.381000
v 0.161336 0.532155 0.381000
v 0.144650 0.572438 0.381000
v 0.118106 0.607031 0.381000
v 0.083514 0.633575 0.381000
v 0.043230 0.650261 0.381000
v 0.000000 0.655952 0.381000
v -0.043230 0.650261 0.381000
v -0.083513 0.633575 0.381000
v -0.118106 0.607031 0.381000
v -0.144650 0.572438 0.381000
v -0.161336 0.532155 0.381000
v -0.167027 0.488925 0.381000
v -0.161336 0.445695 0.381000
v -0.144650 0.405411 0.381000
v -0.118106 0.370819 0.381000
v -0.083513 0.344275 0.381000
v -0.043230 0.327589 0.381000
v 0.000000 0.321898 0.381000
v 0.043230 0.327589 0.381000
v 0.083514 0.344275 0.381000
v 0.118106 0.370819 0.381000
v 0.144650 0.405411 0.381000
v 0.161336 0.445695 0.381000
v 0.150783 0.488925 0.417873
v 0.145645 0.527950 0.417873
v 0.130582 0.564316 0.417873
v 0.106619 0.595544 0.417873
v 0.075391 0.619506 0.417873
v 0.039025 0.634570 0.417873
v 0.000000 0.639708 0.417873
v -0.039025 0.634570 0.417873
v -0.075391 0.619506 0.417873
v -0.106619 0.595544 0.417873
v -0.130581 0.564316 0.417873
v -0.145645 0.527950 0.417873
v -0.150783 0.488925 0.417873
v -0.145645 0.449900 0.417873
v -0.130581 0.413534 0.417873
v -0.106619 0.382306 0.417873
v -0.075391 0.358343 0.417873
v -0.039025 0.343280 0.417873
v 0.000000 0.338142 0.417873
v 0.039025 0.343280 0.417873
v 0.075391 0.358343 0.417873
v 0.106619 0.382306 0.417873
v 0.130582 0.413534 0.417873
v 0.145645 0.449900 0.417873
v 0.150783 0.488925 0.621883
v 0.145645 0.527950 0.621883
v 0.130582 0.564316 0.621883
v 0.106619 0.595544 0.621883
v 0.075391 0.619506 0.621883
v 0.039025 0.634570 0.621883
v 0.000000 0.639708 0.621883
v -0.039025 0.634570 0.621883
v -0.075391 0.619506 0.621883
v -0.106619 0.595544 0.621883
v -0.130582 0.564316 0.621883
v -0.145645 0.527950 0.621883
v -0.150783 0.488925 0.621883
v -0.145645 0.449900 0.621883
v -0.130582 0.413534 0.621883
v -0.106619 0.382306 0.621883
v -0.075391 0.358343 0.621883
v -0.039025 0.343280 0.621883
v 0.000000 0.338142 0.621883
v 0.039025 0.343280 0.621883
v 0.075391 0.358343 0.621883
v 0.106619 0.382306 0.621883
v 0.130582 0.413534 0.621883
v 0.145645 0.449900 0.621883
v 0.164816 0.488925 0.621883
v 0.159200 0.531583 0.621883
v 0.142735 0.571333 0.621883
v 0.116543 0.605468 0.621883
v 0.082408 0.631660 0.621883
v 0.042658 0.648125 0.621883
v 0.000000 0.653741 0.621883
v -0.042658 0.648125 0.621883
v -0.082408 0.631660 0.621883
v -0.116543 0.605468 0.621883
v -0.142735 0.571333 0.621883
v -0.159200 0.531583 0.621883
v -0.164816 0.488925 0.621883
v -0.159200 0.446267 0.621883
v -0.142735 0.406517 0.621883
v -0.116543 0.372382 0.621883
v -0.082408 0.346190 0.621883
v -0.042658 0.329725 0.621883
v 0.000000 0.324109 0.621883
v 0.042658 0.329725 0.621883
v 0.082408 0.346190 0.621883
v 0.116543 0.372382 0.621883
v 0.142735 0.406517 0.621883
v 0.159200 0.446267 0.621883
v 0.164816 0.488925 0.669213
v 0.159200 0.531583 0.669213
v 0.142735 0.571333 0.669213
v 0.116543 0.605468 0.669213
v 0.082408 0.631660 0.669213
v 0.042658 0.648125 0.669213
v 0.000000 0.653741 0.669213
v -0.042658 0.648125 0.669213
v -0.082408 0.631660 0.669213
v -0.116543 0.605468 0.669213
v -0.142735 0.571333 0.669213
v -0.159200 0.531583 0.669213
v -0.164816 0.488925 0.669213
v -0.159200 0.446267 0.669213
v -0.142735 0.406517 0.669213
v -0.116543 0.372382 0.669213
v -0.082408 0.346190 0.669213
v -0.042658 0.329725 0.669213
v 0.000000 0.324109 0.669213
v 0.042658 0.329725 0.669213
v 0.082408 0.346190 0.669213
v 0.116543 0.372382 0.669213
v 0.142735 0.406517 0.669213
v 0.159200 0.446267 0.669213
v 0.146524 0.488925 0.669213
v 0.141531 0.526848 0.669213
v 0.126894 0.562187 0.669213
v 0.103608 0.592533 0.669213
v 0.073262 0.615818 0.669213
v 0.037923 0.630456 0.669213
v 0.000000 0.635449 0.669213
v -0.037923 0.630456 0.669213
v -0.073262 0.615818 0.669213
v -0.103608 0.592533 0.669213
v -0.126893 0.562187 0.669213
v -0.141531 0.526848 0.669213
v -0.146524 0.488925 0.669213
v -0.141531 0.451002 0.669213
v -0.126893 0.415663 0.669213
v -0.103608 0.385317 0.669213
v -0.073262 0.362031 0.669213
v -0.037923 0.347394 0.669213
v 0.000000 0.342401 0.669213
v 0.037923 0.347394 0.669213
v 0.073262 0.362031 0.669213
v 0.103608 0.385317 0.669213
v 0.126894 0.415663 0.669213
v 0.141531 0.451002 0.669213
v 0.146524 0.488925 0.632591
v 0.141531 0.526848 0.632591
v 0.126894 0.562187 0.632591
v 0.103608 0.592533 0.632591
v 0.073262 0.615818 0.632591
v 0.037923 0.630456 0.632591
v 0.000000 0.635449 0.632591
v -0.037923 0.630456 0.632591
v -0.073262 0.615818 0.632591
v -0.103608 0.592533 0.632591
v -0.126893 0.562187 0.632591
v -0.141531 0.526848 0.632591
v -0.146524 0.488925 0.632591
v -0.141531 0.451002 0.632591
v -0.126893 0.415663 0.632591
v -0.103608 0.385317 0.632591
v -0.073262 0.362031 0.632591
v -0.037923 0.347394 0.632591
v 0.000000 0.342401 0.632591
v 0.037923 0.347394 0.632591
v 0.073262 0.362031 0.632591
v 0.103608 0.385317 0.632591
v 0.126894 0.415663 0.632591
v 0.141531 0.451002 0.632591
v 0.127259 0.488925 0.583103
v 0.122923 0.521862 0.583103
v 0.110210 0.552554 0.583103
v 0.089986 0.578911 0.583103
v 0.063630 0.599134 0.583103
v 0.032937 0.611848 0.583103
v 0.000000 0.616184 0.583103
v -0.032937 0.611848 0.583103
v -0.063629 0.599134 0.583103
v -0.089986 0.578911 0.583103
v -0.110209 0.552554 0.583103
v -0.122923 0.521862 0.583103
v -0.127259 0.488925 0.583103
v -0.122923 0.455988 0.583103
v -0.110209 0.425295 0.583103
v -0.089986 0.398939 0.583103
v -0.063629 0.378715 0.583103
v -0.032937 0.366002 0.583103
v 0.000000 0.361666 0.583103
v 0.032937 0.366002 0.583103
v 0.063630 0.378715 0.583103
v 0.089986 0.398939 0.583103
v 0.110210 0.425295 0.583103
v 0.122923 0.455988 0.583103
v 0.020470 0.488925 0.595778
v 0.127259 0.488925 0.569037
v 0.073864 0.488925 0.591131
v 0.112952 0.488925 0.578435
v 0.122923 0.521862 0.569037
v 0.019772 0.494223 0.595778
v 0.109103 0.518159 0.578435
v 0.071348 0.508042 0.591131
v 0.110210 0.552554 0.569037
v 0.017727 0.499160 0.595778
v 0.097819 0.545401 0.578435
v 0.063968 0.525857 0.591131
v 0.089986 0.578911 0.569037
v 0.014474 0.503399 0.595778
v 0.079869 0.568794 0.578435
v 0.052230 0.541155 0.591131
v 0.063630 0.599134 0.569037
v 0.010235 0.506652 0.595778
v 0.056476 0.586744 0.578435
v 0.036932 0.552893 0.591131
v 0.032937 0.611848 0.569037
v 0.005298 0.508697 0.595778
v 0.029234 0.598028 0.578435
v 0.019118 0.560272 0.591131
v 0.000000 0.616184 0.569037
v 0.000000 0.509395 0.595778
v 0.000000 0.601877 0.578435
v 0.000000 0.562789 0.591131
v -0.032937 0.611848 0.569037
v -0.005298 0.508697 0.595778
v -0.029234 0.598028 0.578435
v -0.019117 0.560272 0.591131
v -0.063629 0.599134 0.569037
v -0.010235 0.506652 0.595778
v -0.056476 0.586744 0.578435
v -0.036932 0.552893 0.591131
v -0.089986 0.578911 0.569037
v -0.014474 0.503399 0.595778
v -0.079869 0.568794 0.578435
v -0.052230 0.541155 0.591131
v -0.110209 0.552554 0.569037
v -0.017727 0.499160 0.595778
v -0.097819 0.545401 0.578435
v -0.063968 0.525857 0.591131
v -0.122923 0.521862 0.569037
v -0.019772 0.494223 0.595778
v -0.109103 0.518159 0.578435
v -0.071347 0.508042 0.591131
v -0.127259 0.488925 0.569037
v -0.020470 0.488925 0.595778
v -0.112952 0.488925 0.578435
v -0.073864 0.488925 0.591131
v -0.122923 0.455988 0.569037
v -0.019772 0.483627 0.595778
v -0.109103 0.459691 0.578435
v -0.071347 0.469807 0.591131
v -0.110209 0.425295 0.569037
v -0.017727 0.478690 0.595778
v -0.097819 0.432449 0.578435
v -0.063968 0.451993 0.591131
v -0.089986 0.398939 0.569037
v -0.014474 0.474451 0.595778
v -0.079869 0.409056 0.578435
v -0.052230 0.436695 0.591131
v -0.063629 0.378715 0.569037
v -0.010235 0.471198 0.595778
v -0.056476 0.391106 0.578435
v -0.036932 0.424957 0.591131
v -0.032937 0.366002 0.569037
v -0.005298 0.469153 0.595778
v -0.029234 0.379822 0.578435
v -0.019117 0.417577 0.591131
v 0.000000 0.361666 0.569037
v 0.000000 0.468455 0.595778
v 0.000000 0.375973 0.578435
v 0.000000 0.415061 0.591131
v 0.032937 0.366002 0.569037
v 0.005298 0.469153 0.595778
v 0.029234 0.379822 0.578435
v 0.019118 0.417577 0.591131
v 0.063630 0.378715 0.569037
v 0.010235 0.471198 0.595778
v 0.056476 0.391106 0.578435
v 0.036932 0.424957 0.591131
v 0.089986 0.398939 0.569037
v 0.014474 0.474451 0.595778
v 0.079869 0.409056 0.578435
v 0.052230 0.436695 0.591131
v 0.110210 0.425295 0.569037
v 0.017727 0.478690 0.595778
v 0.097819 0.432449 0.578435
v 0.063968 0.451993 0.591131
v 0.122923 0.455988 0.569037
v 0.019772 0.483627 0.595778
v 0.109103 0.459691 0.578435
v 0.071348 0.469807 0.591131
v 0.023991 0.399391 -4.834549
v 0.080274 0.535271 -4.834549
v -0.023991 0.578459 -4.834549
v 0.092692 0.488925 -4.834549
v -0.092692 0.488925 -4.834549
v -0.023991 0.399391 -4.834549
v 0.080274 0.442579 -4.834549
v 0.023991 0.578459 -4.834549
v -0.080274 0.535271 -4.834549
v -0.065543 0.423382 -4.834549
v 0.046346 0.408651 -4.834549
v 0.065543 0.554468 -4.834549
v -0.046346 0.569199 -4.834549
v 0.089534 0.512915 -4.834549
v -0.089534 0.464934 -4.834549
v 0.000000 0.396233 -4.834549
v 0.089534 0.464934 -4.834549
v 0.000000 0.581617 -4.834549
v -0.089534 0.512915 -4.834549
v -0.046346 0.408651 -4.834549
v 0.065543 0.423382 -4.834549
v 0.046346 0.569199 -4.834549
v -0.065543 0.554468 -4.834549
v -0.080274 0.442579 -4.834549
v 0.039900 0.419817 -4.834543
v 0.056427 0.545352 -4.834543
v -0.039900 0.558033 -4.834543
v 0.077080 0.509579 -4.834543
v -0.077080 0.468271 -4.834543
v 0.000000 0.409125 -4.834543
v 0.077080 0.468271 -4.834543
v 0.000000 0.568724 -4.834543
v -0.077080 0.509579 -4.834543
v -0.039900 0.419817 -4.834543
v 0.056427 0.432498 -4.834543
v 0.039900 0.558033 -4.834543
v -0.056427 0.545352 -4.834543
v -0.069108 0.449025 -4.834543
v 0.020654 0.411845 -4.834543
v 0.069108 0.528825 -4.834543
v -0.020654 0.566005 -4.834543
v 0.079800 0.488925 -4.834543
v -0.079799 0.488925 -4.834543
v -0.020654 0.411845 -4.834543
v 0.069108 0.449025 -4.834543
v 0.020654 0.566005 -4.834543
v -0.069108 0.528825 -4.834543
v -0.056427 0.432498 -4.834543
v 0.194310 0.488925 -0.681798
v 0.194310 0.488925 -0.716285
v 0.187689 0.539216 -0.681798
v 0.187689 0.539216 -0.716285
v 0.168277 0.586080 -0.681798
v 0.168277 0.586080 -0.716285
v 0.137398 0.626323 -0.681798
v 0.137398 0.626323 -0.716285
v 0.097155 0.657202 -0.681798
v 0.097155 0.657202 -0.716285
v 0.050291 0.676614 -0.681798
v 0.050291 0.676614 -0.716285
v 0.000000 0.683235 -0.681798
v 0.000000 0.683235 -0.716285
v -0.050291 0.676614 -0.681798
v -0.050291 0.676614 -0.716285
v -0.097155 0.657202 -0.681798
v -0.097155 0.657202 -0.716285
v -0.137398 0.626323 -0.681798
v -0.137398 0.626323 -0.716285
v -0.168277 0.586080 -0.681798
v -0.168277 0.586080 -0.716285
v -0.187689 0.539216 -0.681798
v -0.187689 0.539216 -0.716285
v -0.194310 0.488925 -0.681798
v -0.194310 0.488925 -0.716285
v -0.187689 0.259859 -0.681798
v -0.187689 0.259859 -0.716285
v 0.187689 0.259859 -0.681798
v 0.187689 0.259859 -0.716285
v -0.157368 0.139382 -4.839992
v -0.174025 0.145444 -4.839992
v -0.157368 0.139382 -4.856752
v -0.174025 0.145444 -4.856752
v -0.064654 0.456714 -4.840127
v -0.081311 0.462777 -4.840127
v -0.064654 0.456714 -4.856887
v -0.081311 0.462777 -4.856887
v 0.157368 0.139382 -4.839992
v 0.174025 0.145445 -4.839992
v 0.157368 0.139382 -4.856752
v 0.174025 0.145445 -4.856752
v 0.064654 0.456714 -4.840127
v 0.081311 0.462777 -4.840127
v 0.064654 0.456714 -4.856887
v 0.081311 0.462777 -4.856887
v -0.160302 0.096375 -4.230013
v -0.178159 0.099942 -4.235187
v -0.160002 0.081814 -4.238750
v -0.177859 0.085381 -4.243923
v -0.067950 0.468198 -4.841800
v -0.085802 0.471534 -4.847106
v -0.067641 0.453266 -4.849910
v -0.085494 0.456602 -4.855215
v 0.175859 0.073217 -4.203773
v 0.193584 0.076085 -4.208946
v 0.176159 0.058657 -4.212509
v 0.193884 0.061524 -4.217683
v 0.070161 0.465481 -4.841800
v 0.087891 0.468118 -4.847106
v 0.070470 0.450550 -4.849910
v 0.088199 0.453186 -4.855216
v 0.057866 0.505047 -4.847873
v 0.036802 0.499403 -4.933406
v 0.042361 0.531903 -4.847873
v 0.026941 0.516483 -4.933406
v 0.015505 0.547408 -4.847873
v 0.009861 0.526344 -4.933406
v -0.015505 0.547408 -4.847873
v -0.009861 0.526344 -4.933406
v -0.042361 0.531903 -4.847873
v -0.026941 0.516483 -4.933406
v -0.057866 0.505047 -4.847873
v -0.036802 0.499403 -4.933406
v -0.057866 0.474037 -4.847873
v -0.036802 0.479681 -4.933406
v -0.042361 0.447181 -4.847873
v -0.026941 0.462601 -4.933406
v -0.015505 0.431676 -4.847873
v -0.009861 0.452740 -4.933406
v 0.015505 0.431676 -4.847873
v 0.009861 0.452740 -4.933406
v 0.042361 0.447181 -4.847873
v 0.026941 0.462601 -4.933406
v 0.057866 0.474037 -4.847873
v 0.036802 0.479681 -4.933406
v 0.057866 0.505047 -4.857571
v 0.042361 0.531903 -4.857571
v 0.015505 0.547408 -4.857571
v -0.015505 0.547408 -4.857571
v -0.042361 0.531903 -4.857571
v -0.057866 0.505047 -4.857571
v -0.057866 0.474037 -4.857571
v -0.042361 0.447181 -4.857571
v -0.015505 0.431676 -4.857571
v 0.015505 0.431676 -4.857571
v 0.042361 0.447181 -4.857571
v 0.057866 0.474037 -4.857571
v 0.044800 0.501546 -4.876170
v 0.032796 0.522338 -4.876170
v 0.012004 0.534342 -4.876170
v -0.012004 0.534342 -4.876170
v -0.032796 0.522338 -4.876170
v -0.044800 0.501546 -4.876170
v -0.044800 0.477538 -4.876170
v -0.032796 0.456746 -4.876170
v -0.012004 0.444742 -4.876170
v 0.012004 0.444742 -4.876170
v 0.032796 0.456746 -4.876170
v 0.044800 0.477538 -4.876170
v 0.036802 0.499403 -4.876170
v 0.026941 0.516483 -4.876170
v 0.009861 0.526344 -4.876170
v -0.009861 0.526344 -4.876170
v -0.026941 0.516483 -4.876170
v -0.036802 0.499403 -4.876170
v -0.036802 0.479681 -4.876170
v -0.026941 0.462601 -4.876170
v -0.009861 0.452740 -4.876170
v 0.009861 0.452740 -4.876170
v 0.026941 0.462601 -4.876170
v 0.036802 0.479681 -4.876170
v 0.031534 0.489542 -4.802797
v 0.031534 0.489542 -4.963529
v 0.027309 0.505309 -4.802797
v 0.027309 0.505309 -4.963529
v 0.015767 0.516851 -4.802797
v 0.015767 0.516851 -4.963529
v 0.000000 0.521076 -4.802797
v 0.000000 0.521076 -4.963529
v -0.015767 0.516851 -4.802797
v -0.015767 0.516851 -4.963529
v -0.027309 0.505309 -4.802797
v -0.027309 0.505309 -4.963529
v -0.031534 0.489542 -4.802797
v -0.031534 0.489542 -4.963529
v -0.027309 0.473775 -4.802797
v -0.027309 0.473775 -4.963529
v -0.015767 0.462233 -4.802797
v -0.015767 0.462233 -4.963529
v 0.000000 0.458008 -4.802797
v 0.000000 0.458008 -4.963529
v 0.015767 0.462233 -4.802797
v 0.015767 0.462233 -4.963529
v 0.027309 0.473775 -4.802797
v 0.027309 0.473775 -4.963529
v 0.034114 0.489542 -4.963529
v 0.029543 0.506599 -4.963529
v 0.017057 0.519085 -4.963529
v 0.000000 0.523656 -4.963529
v -0.017057 0.519085 -4.963529
v -0.029543 0.506599 -4.963529
v -0.034114 0.489542 -4.963529
v -0.029543 0.472485 -4.963529
v -0.017057 0.459999 -4.963529
v 0.000000 0.455428 -4.963529
v 0.017057 0.459999 -4.963529
v 0.029543 0.472485 -4.963529
v 0.034114 0.489542 -5.032518
v 0.029543 0.506599 -5.032518
v 0.017057 0.519085 -5.032518
v 0.000000 0.523656 -5.032518
v -0.017057 0.519085 -5.032518
v -0.029543 0.506599 -5.032518
v -0.034114 0.489542 -5.032518
v -0.029543 0.472485 -5.032518
v -0.017057 0.459999 -5.032518
v 0.000000 0.455428 -5.032518
v 0.017057 0.459999 -5.032518
v 0.029543 0.472485 -5.032518
v 0.022174 0.489542 -5.049926
v 0.019204 0.500629 -5.049926
v 0.011087 0.508746 -5.049926
v 0.000000 0.511716 -5.049926
v -0.011087 0.508746 -5.049926
v -0.019204 0.500629 -5.049926
v -0.022174 0.489542 -5.049926
v -0.019204 0.478455 -5.049926
v -0.011087 0.470338 -5.049926
v 0.000000 0.467368 -5.049926
v 0.011087 0.470338 -5.049926
v 0.019204 0.478455 -5.049926
v 0.027941 0.489542 -5.049926
v 0.024197 0.503512 -5.049926
v 0.013970 0.513739 -5.049926
v 0.000000 0.517483 -5.049926
v -0.013970 0.513739 -5.049926
v -0.024197 0.503512 -5.049926
v -0.027941 0.489542 -5.049926
v -0.024197 0.475572 -5.049926
v -0.013970 0.465345 -5.049926
v 0.000000 0.461601 -5.049926
v 0.013970 0.465345 -5.049926
v 0.024197 0.475572 -5.049926
v 0.022174 0.489542 -5.044245
v 0.002923 0.489542 -5.049603
v 0.012642 0.489542 -5.048241
v 0.002531 0.491003 -5.049603
v 0.019204 0.500629 -5.044245
v 0.010948 0.495863 -5.048241
v 0.001461 0.492073 -5.049603
v 0.011087 0.508746 -5.044245
v 0.006321 0.500490 -5.048241
v 0.000000 0.492465 -5.049603
v 0.000000 0.511716 -5.044245
v 0.000000 0.502184 -5.048241
v -0.001461 0.492073 -5.049603
v -0.011087 0.508746 -5.044245
v -0.006321 0.500490 -5.048241
v -0.002531 0.491003 -5.049603
v -0.019204 0.500629 -5.044245
v -0.010948 0.495863 -5.048241
v -0.002923 0.489542 -5.049603
v -0.022174 0.489542 -5.044245
v -0.012642 0.489542 -5.048241
v -0.002531 0.488081 -5.049603
v -0.019204 0.478455 -5.044245
v -0.010948 0.483221 -5.048241
v -0.001461 0.487011 -5.049603
v -0.011087 0.470338 -5.044245
v -0.006321 0.478594 -5.048241
v 0.000000 0.486619 -5.049603
v 0.000000 0.467368 -5.044245
v 0.000000 0.476900 -5.048241
v 0.001461 0.487011 -5.049603
v 0.011087 0.470338 -5.044245
v 0.006321 0.478594 -5.048241
v 0.002531 0.488081 -5.049603
v 0.019204 0.478455 -5.044245
v 0.010948 0.483221 -5.048241
v -0.141398 0.256983 -4.865103
v -0.131915 0.287625 -4.865103
v -0.141398 0.256983 -4.855270
v -0.131915 0.287625 -4.855270
v 0.141398 0.256983 -4.865103
v 0.131915 0.287625 -4.865103
v 0.141398 0.256983 -4.855270
v 0.131915 0.287625 -4.855270
v 0.051190 0.503258 -4.858808
v 0.044800 0.501546 -4.866491
v 0.037474 0.527016 -4.858808
v 0.032796 0.522338 -4.866491
v 0.013716 0.540732 -4.858808
v 0.012004 0.534342 -4.866491
v -0.013716 0.540732 -4.858808
v -0.012004 0.534342 -4.866491
v -0.037473 0.527016 -4.858808
v -0.032796 0.522338 -4.866491
v -0.051190 0.503258 -4.858808
v -0.044800 0.501546 -4.866491
v -0.051190 0.475826 -4.858808
v -0.044800 0.477538 -4.866491
v -0.037473 0.452069 -4.858808
v -0.032796 0.456746 -4.866491
v -0.013716 0.438352 -4.858808
v -0.012004 0.444742 -4.866491
v 0.013716 0.438352 -4.858808
v 0.012004 0.444742 -4.866491
v 0.037474 0.452069 -4.858808
v 0.032796 0.456746 -4.866491
v 0.044800 0.477538 -4.866491
v 0.051190 0.475826 -4.858808
vn 1.0000 -0.0000 -0.0000
vn 0.9659 0.2588 -0.0000
vn 0.8660 0.5000 -0.0000
vn 0.7071 0.7071 -0.0000
vn 0.5000 0.8660 -0.0000
vn 0.2588 0.9659 -0.0000
vn -0.0000 1.0000 -0.0000
vn -0.2588 0.9659 -0.0000
vn -0.5000 0.8660 -0.0000
vn -0.7071 0.7071 -0.0000
vn -0.8660 0.5000 -0.0000
vn -0.9659 0.2588 -0.0000
vn -1.0000 -0.0000 -0.0000
vn -0.9659 -0.2588 -0.0000
vn -0.8660 -0.5000 -0.0000
vn -0.7071 -0.7071 -0.0000
vn -0.5000 -0.8660 -0.0000
vn -0.2588 -0.9659 -0.0000
vn -0.0000 -1.0000 -0.0000
vn 0.2588 -0.9659 -0.0000
vn 0.5000 -0.8660 -0.0000
vn 0.7071 -0.7071 -0.0000
vn 0.8660 -0.5000 -0.0000
vn 0.4999 -0.8659 -0.0161
vn 0.2588 -0.9658 -0.0161
vn 0.9659 -0.2588 -0.0000
vn -0.0000 -0.0000 -1.0000
vn 0.7070 0.7070 -0.0161
vn 0.8659 0.4999 -0.0161
vn -0.4999 0.8659 -0.0161
vn -0.2588 0.9658 -0.0161
vn 0.9658 0.2588 -0.0161
vn 0.9999 -0.0000 -0.0161
vn -0.9658 -0.2588 -0.0161
vn -0.9999 -0.0000 -0.0161
vn -0.0000 -0.9999 -0.0161
vn -0.2588 -0.9658 -0.0161
vn 0.9658 -0.2588 -0.0161
vn 0.8659 -0.4999 -0.0161
vn -0.0000 0.9999 -0.0161
vn 0.2588 0.9658 -0.0161
vn -0.9658 0.2588 -0.0161
vn -0.8659 0.4999 -0.0161
vn -0.4999 -0.8659 -0.0161
vn -0.7070 -0.7070 -0.0161
vn 0.7070 -0.7070 -0.0161
vn 0.4999 0.8659 -0.0161
vn -0.7070 0.7070 -0.0161
vn -0.8659 -0.4999 -0.0161
vn -0.7070 -0.7070 -0.0175
vn -0.8659 -0.4999 -0.0175
vn -0.8659 0.4999 -0.0175
vn -0.7070 0.7070 -0.0175
vn 0.2588 0.9658 -0.0175
vn 0.4999 0.8659 -0.0175
vn 0.8659 -0.4999 -0.0175
vn 0.7070 -0.7070 -0.0175
vn -0.2588 -0.9658 -0.0175
vn -0.4999 -0.8659 -0.0175
vn -0.9998 -0.0000 -0.0175
vn -0.9658 0.2588 -0.0175
vn -0.2588 0.9658 -0.0175
vn -0.0000 0.9998 -0.0175
vn 0.8659 0.4999 -0.0175
vn 0.9658 0.2588 -0.0175
vn 0.9998 -0.0000 -0.0175
vn 0.9658 -0.2588 -0.0175
vn 0.2588 -0.9658 -0.0175
vn -0.0000 -0.9998 -0.0175
vn -0.9658 -0.2588 -0.0175
vn -0.4999 0.8659 -0.0175
vn 0.7070 0.7070 -0.0175
vn 0.4999 -0.8659 -0.0175
vn -0.8659 -0.4999 -0.0174
vn -0.7070 -0.7070 -0.0174
vn -0.7070 0.7070 -0.0174
vn -0.8659 0.4999 -0.0174
vn 0.4999 0.8659 -0.0174
vn 0.2588 0.9658 -0.0174
vn 0.7070 -0.7070 -0.0174
vn 0.8659 -0.4999 -0.0174
vn -0.4999 -0.8659 -0.0174
vn -0.2588 -0.9658 -0.0174
vn -0.9658 0.2588 -0.0174
vn -0.9998 -0.0000 -0.0174
vn -0.0000 0.9998 -0.0174
vn -0.2588 0.9658 -0.0174
vn 0.9658 0.2588 -0.0174
vn 0.8659 0.4999 -0.0174
vn 0.9658 -0.2588 -0.0174
vn 0.9998 -0.0000 -0.0174
vn -0.0000 -0.9998 -0.0174
vn 0.2588 -0.9658 -0.0174
vn -0.9658 -0.2588 -0.0174
vn -0.4999 0.8659 -0.0174
vn 0.7070 0.7070 -0.0174
vn 0.4999 -0.8659 -0.0174
vn -0.0000 -0.0000 1.0000
vn -0.6589 -0.6589 0.3628
vn -0.4659 -0.8070 0.3628
vn -0.0000 0.9319 0.3628
vn -0.2412 0.9001 0.3628
vn 0.9001 -0.2412 0.3628
vn 0.9319 -0.0000 0.3628
vn -0.2412 -0.9001 0.3628
vn -0.4659 0.8070 0.3628
vn 0.9001 0.2412 0.3628
vn -0.0000 -0.9319 0.3628
vn -0.6589 0.6589 0.3628
vn 0.8070 0.4659 0.3628
vn 0.2412 -0.9001 0.3628
vn -0.8070 0.4659 0.3628
vn 0.6589 0.6589 0.3628
vn 0.4659 -0.8070 0.3628
vn -0.9001 0.2412 0.3628
vn -0.9319 -0.0000 0.3628
vn -0.9001 -0.2412 0.3628
vn 0.4659 0.8070 0.3628
vn 0.6589 -0.6589 0.3628
vn -0.8070 -0.4659 0.3628
vn 0.2412 0.9001 0.3628
vn 0.8070 -0.4659 0.3628
vn 0.0470 -0.0000 0.9989
vn 0.0454 0.0122 0.9989
vn 0.0407 0.0235 0.9989
vn 0.0332 0.0332 0.9989
vn 0.0235 0.0407 0.9989
vn 0.0122 0.0454 0.9989
vn -0.0000 0.0470 0.9989
vn -0.0122 0.0454 0.9989
vn -0.0235 0.0407 0.9989
vn -0.0332 0.0332 0.9989
vn -0.0407 0.0235 0.9989
vn -0.0454 0.0122 0.9989
vn -0.0470 -0.0000 0.9989
vn -0.0454 -0.0122 0.9989
vn -0.0407 -0.0235 0.9989
vn -0.0332 -0.0332 0.9989
vn -0.0235 -0.0407 0.9989
vn -0.0122 -0.0454 0.9989
vn -0.0000 -0.0470 0.9989
vn 0.0122 -0.0454 0.9989
vn 0.0235 -0.0407 0.9989
vn 0.0332 -0.0332 0.9989
vn 0.0407 -0.0235 0.9989
vn 0.0454 -0.0122 0.9989
vn 0.5490 -0.0000 0.8358
vn 0.5303 0.1421 0.8358
vn 0.4267 0.1143 0.8971
vn 0.4417 -0.0000 0.8971
vn 0.2010 0.0539 0.9781
vn 0.2081 -0.0000 0.9781
vn 0.4755 0.2745 0.8358
vn 0.3826 0.2209 0.8971
vn 0.1803 0.1041 0.9781
vn 0.3882 0.3882 0.8358
vn 0.3124 0.3124 0.8971
vn 0.1472 0.1472 0.9781
vn 0.2745 0.4755 0.8358
vn 0.2209 0.3826 0.8971
vn 0.1041 0.1803 0.9781
vn 0.1421 0.5303 0.8358
vn 0.1143 0.4267 0.8971
vn 0.0539 0.2010 0.9781
vn -0.0000 0.5490 0.8358
vn -0.0000 0.4417 0.8971
vn -0.0000 0.2081 0.9781
vn -0.1421 0.5303 0.8358
vn -0.1143 0.4267 0.8971
vn -0.0539 0.2010 0.9781
vn -0.2745 0.4754 0.8358
vn -0.2209 0.3826 0.8971
vn -0.1041 0.1803 0.9781
vn -0.3882 0.3882 0.8358
vn -0.3124 0.3124 0.8971
vn -0.1472 0.1472 0.9781
vn -0.4755 0.2745 0.8358
vn -0.3826 0.2209 0.8971
vn -0.1803 0.1041 0.9781
vn -0.5303 0.1421 0.8358
vn -0.4267 0.1143 0.8971
vn -0.2010 0.0539 0.9781
vn -0.5490 -0.0000 0.8358
vn -0.4417 -0.0000 0.8971
vn -0.2081 -0.0000 0.9781
vn -0.5303 -0.1421 0.8358
vn -0.4267 -0.1143 0.8971
vn -0.2010 -0.0539 0.9781
vn -0.4755 -0.2745 0.8358
vn -0.3826 -0.2209 0.8971
vn -0.1803 -0.1041 0.9781
vn -0.3882 -0.3882 0.8358
vn -0.3124 -0.3124 0.8971
vn -0.1472 -0.1472 0.9781
vn -0.2745 -0.4755 0.8358
vn -0.2209 -0.3826 0.8971
vn -0.1041 -0.1803 0.9781
vn -0.1421 -0.5303 0.8358
vn -0.1143 -0.4267 0.8971
vn -0.0539 -0.2010 0.9781
vn -0.0000 -0.5490 0.8358
vn -0.0000 -0.4417 0.8971
vn -0.0000 -0.2081 0.9781
vn 0.1421 -0.5303 0.8358
vn 0.1143 -0.4267 0.8971
vn 0.0539 -0.2010 0.9781
vn 0.2745 -0.4754 0.8358
vn 0.2209 -0.3826 0.8971
vn 0.1041 -0.1803 0.9781
vn 0.3882 -0.3882 0.8358
vn 0.3124 -0.3124 0.8971
vn 0.1472 -0.1472 0.9781
vn 0.4755 -0.2745 0.8358
vn 0.3826 -0.2209 0.8971
vn 0.1803 -0.1041 0.9781
vn 0.5303 -0.1421 0.8358
vn 0.4267 -0.1143 0.8971
vn 0.2010 -0.0539 0.9781
vn -0.0003 -0.0003 1.0000
vn -0.0004 -0.0002 1.0000
vn -0.0004 0.0002 1.0000
vn -0.0003 0.0003 1.0000
vn 0.0001 0.0005 1.0000
vn 0.0002 0.0004 1.0000
vn 0.0004 -0.0002 1.0000
vn 0.0003 -0.0003 1.0000
vn -0.0001 -0.0005 1.0000
vn -0.0002 -0.0004 1.0000
vn -0.0005 -0.0000 1.0000
vn -0.0005 0.0001 1.0000
vn -0.0001 0.0005 1.0000
vn -0.0000 0.0005 1.0000
vn 0.0004 0.0002 1.0000
vn 0.0005 0.0001 1.0000
vn 0.0005 -0.0000 1.0000
vn 0.0005 -0.0001 1.0000
vn 0.0001 -0.0004 1.0000
vn -0.0000 -0.0005 1.0000
vn -0.0005 -0.0001 1.0000
vn -0.0002 0.0004 1.0000
vn 0.0003 0.0003 1.0000
vn 0.0002 -0.0004 1.0000
vn 0.9987 0.0510 -0.0000
vn -0.9987 0.0510 -0.0000
vn -0.9996 -0.0289 -0.0000
vn 0.9996 -0.0289 -0.0000
vn -0.0001 -0.0004 -1.0000
vn 0.0001 0.0004 1.0000
vn 0.9599 -0.2804 -0.0000
vn -0.9599 0.2804 -0.0000
vn 0.0001 -0.0004 -1.0000
vn -0.0001 0.0004 1.0000
vn -0.9599 -0.2804 -0.0000
vn 0.9599 0.2804 -0.0000
vn -0.0123 -0.8538 -0.5205
vn 0.0123 0.8538 0.5205
vn 0.9915 -0.0483 0.1204
vn -0.9915 0.0483 -0.1204
vn -0.0215 -0.8534 -0.5209
vn 0.0215 0.8534 0.5209
vn -0.9901 -0.0845 0.1121
vn 0.9901 0.0845 -0.1121
vn 0.8981 0.2406 -0.3682
vn 0.8981 -0.2406 -0.3682
vn 0.1702 0.0456 -0.9844
vn 0.4359 0.1168 -0.8924
vn 0.3191 0.3191 -0.8924
vn 0.1246 0.1246 -0.9843
vn 0.6574 0.6574 -0.3682
vn 0.6574 -0.6574 -0.3682
vn 0.2406 -0.8980 -0.3683
vn -0.2406 -0.8980 -0.3683
vn -0.6574 -0.6574 -0.3682
vn -0.8981 -0.2406 -0.3682
vn -0.8981 0.2406 -0.3682
vn -0.6574 0.6574 -0.3683
vn -0.2406 0.8980 -0.3683
vn 0.2406 0.8980 -0.3682
vn 0.1168 0.4359 -0.8924
vn 0.0456 0.1702 -0.9844
vn 0.1246 -0.1246 -0.9843
vn 0.3191 -0.3191 -0.8924
vn 0.4359 -0.1168 -0.8924
vn 0.1702 -0.0456 -0.9844
vn 0.0456 -0.1702 -0.9843
vn 0.1168 -0.4359 -0.8924
vn -0.0456 -0.1702 -0.9844
vn -0.1168 -0.4359 -0.8924
vn -0.1246 -0.1246 -0.9843
vn -0.3191 -0.3191 -0.8924
vn -0.1702 -0.0456 -0.9844
vn -0.4359 -0.1168 -0.8924
vn -0.1702 0.0456 -0.9844
vn -0.4359 0.1168 -0.8924
vn -0.1246 0.1246 -0.9843
vn -0.3191 0.3191 -0.8924
vn -0.0456 0.1702 -0.9844
vn -0.1168 0.4359 -0.8924
vn -0.0000 -0.0001 1.0000
vn -0.0000 0.0001 1.0000
vn -0.9425 -0.0000 -0.3342
vn -0.8162 -0.4713 -0.3342
vn 0.8162 -0.4712 -0.3342
vn 0.4712 -0.8162 -0.3342
vn -0.4712 0.8162 -0.3342
vn -0.0000 0.9425 -0.3342
vn -0.4712 -0.8162 -0.3342
vn 0.9425 -0.0000 -0.3342
vn 0.8162 0.4712 -0.3342
vn -0.8162 0.4712 -0.3342
vn -0.0000 -0.9425 -0.3342
vn 0.4712 0.8162 -0.3342
vn -0.0000 0.0001 -1.0000
vn 0.3348 0.1933 -0.9223
vn 0.3866 -0.0000 -0.9223
vn 0.2846 -0.0000 -0.9587
vn 0.2464 0.1423 -0.9587
vn 0.0811 -0.0000 -0.9967
vn 0.0703 -0.0405 -0.9967
vn 0.0406 -0.0702 -0.9967
vn -0.0000 -0.0811 -0.9967
vn -0.0406 -0.0703 -0.9967
vn -0.0703 -0.0406 -0.9967
vn -0.0811 -0.0000 -0.9967
vn -0.0703 0.0406 -0.9967
vn -0.0406 0.0703 -0.9967
vn -0.0000 0.0811 -0.9967
vn 0.0406 0.0703 -0.9967
vn 0.0703 0.0406 -0.9967
vn 0.1933 0.3347 -0.9223
vn 0.1423 0.2464 -0.9587
vn -0.0000 0.3865 -0.9223
vn -0.0000 0.2845 -0.9587
vn -0.1933 0.3348 -0.9223
vn -0.1423 0.2464 -0.9587
vn -0.3348 0.1933 -0.9223
vn -0.2464 0.1423 -0.9587
vn -0.3866 -0.0000 -0.9223
vn -0.2846 -0.0000 -0.9587
vn -0.3348 -0.1933 -0.9223
vn -0.2464 -0.1423 -0.9587
vn -0.1933 -0.3347 -0.9223
vn -0.1423 -0.2464 -0.9587
vn -0.0000 -0.3865 -0.9223
vn -0.0000 -0.2846 -0.9587
vn 0.1933 -0.3348 -0.9223
vn 0.1423 -0.2464 -0.9587
vn 0.3348 -0.1933 -0.9223
vn 0.2464 -0.1423 -0.9587
vn -0.9553 0.2956 -0.0000
vn 0.9553 0.2956 -0.0000
vt 0.125084 0.007171
vt 0.124371 0.039917
vt 0.117895 0.039776
vt 0.118510 0.007031
vt 0.111423 0.039658
vt 0.111933 0.006913
vt 0.104952 0.039565
vt 0.105352 0.006818
vt 0.098482 0.039496
vt 0.098768 0.006747
vt 0.092012 0.039451
vt 0.092182 0.006701
vt 0.085544 0.039432
vt 0.085595 0.006680
vt 0.079074 0.039444
vt 0.079007 0.006686
vt 0.072604 0.039474
vt 0.072420 0.006716
vt 0.066132 0.039535
vt 0.065834 0.006772
vt 0.059659 0.039614
vt 0.059250 0.006852
vt 0.053184 0.039717
vt 0.052668 0.006954
vt 0.046707 0.039852
vt 0.046089 0.007079
vt 0.040225 0.040003
vt 0.039513 0.007224
vt 0.033740 0.040178
vt 0.032941 0.007388
vt 0.027248 0.040382
vt 0.026373 0.007567
vt 0.020749 0.040603
vt 0.019807 0.007759
vt 0.014241 0.040846
vt 0.013243 0.007960
vt 0.007721 0.041112
vt 0.006680 0.008167
vt 0.164430 0.008343
vt 0.163322 0.041224
vt 0.156810 0.040949
vt 0.157884 0.008122
vt 0.150309 0.040689
vt 0.151332 0.007906
vt 0.143816 0.040464
vt 0.144777 0.007700
vt 0.137330 0.040261
vt 0.138217 0.007508
vt 0.110297 0.806067
vt 0.107181 0.804277
vt 0.108825 0.801031
vt 0.112226 0.802962
vt 0.130848 0.040074
vt 0.131653 0.007330
vt 0.897103 0.458272
vt 0.897156 0.452377
vt 0.901964 0.452302
vt 0.901981 0.458232
vt 0.720311 0.968033
vt 0.717768 0.970575
vt 0.714654 0.972373
vt 0.711181 0.973304
vt 0.707585 0.973304
vt 0.704111 0.972373
vt 0.700997 0.970575
vt 0.698454 0.968033
vt 0.696656 0.964918
vt 0.695726 0.961445
vt 0.695726 0.957849
vt 0.696656 0.954376
vt 0.698454 0.951262
vt 0.700997 0.948719
vt 0.704111 0.946921
vt 0.707585 0.945990
vt 0.711181 0.945990
vt 0.714654 0.946921
vt 0.717768 0.948719
vt 0.720311 0.951262
vt 0.722109 0.954376
vt 0.723039 0.957849
vt 0.723039 0.961445
vt 0.722109 0.964918
vt 0.125054 0.826041
vt 0.123882 0.822701
vt 0.127364 0.821404
vt 0.128538 0.825155
vt 0.125286 0.842529
vt 0.125940 0.839330
vt 0.129250 0.839778
vt 0.128557 0.843314
vt 0.122379 0.819447
vt 0.120562 0.816234
vt 0.123696 0.814176
vt 0.125778 0.817694
vt 0.117058 0.856908
vt 0.119346 0.854401
vt 0.122041 0.856551
vt 0.119562 0.859377
vt 0.103426 0.865109
vt 0.106489 0.864072
vt 0.107644 0.867002
vt 0.104543 0.868139
vt 0.118300 0.813312
vt 0.115883 0.810560
vt 0.118487 0.807841
vt 0.121294 0.810846
vt 0.126288 0.836051
vt 0.126195 0.832748
vt 0.129602 0.832598
vt 0.129583 0.836206
vt 0.121252 0.851588
vt 0.122965 0.848688
vt 0.126088 0.850186
vt 0.124265 0.853499
vt 0.109313 0.862767
vt 0.112060 0.861135
vt 0.113832 0.863925
vt 0.110757 0.865645
vt 0.113171 0.808165
vt 0.115445 0.805227
vt 0.125808 0.829426
vt 0.129273 0.828916
vt 0.124281 0.845634
vt 0.127501 0.846779
vt 0.114644 0.859154
vt 0.116774 0.861825
vt 0.103677 0.802753
vt 0.105334 0.799344
vt 0.034623 0.226981
vt 0.040273 0.226766
vt 0.047052 0.413713
vt 0.042252 0.413898
vt 0.062884 0.226161
vt 0.068537 0.226073
vt 0.071061 0.413114
vt 0.066258 0.413190
vt 0.091153 0.225976
vt 0.096806 0.226015
vt 0.095078 0.413062
vt 0.090275 0.413029
vt 0.130719 0.226783
vt 0.136368 0.226999
vt 0.128690 0.413906
vt 0.123890 0.413720
vt 0.023323 0.227488
vt 0.028972 0.227222
vt 0.037453 0.414105
vt 0.032654 0.414334
vt 0.051577 0.226413
vt 0.057230 0.226274
vt 0.061456 0.413288
vt 0.056654 0.413408
vt 0.079845 0.225974
vt 0.085499 0.225962
vt 0.085471 0.413017
vt 0.080668 0.413028
vt 0.108113 0.226169
vt 0.113765 0.226285
vt 0.109486 0.413293
vt 0.104684 0.413194
vt 0.119417 0.226425
vt 0.125068 0.226591
vt 0.119090 0.413556
vt 0.114288 0.413413
vt 0.147665 0.227510
vt 0.153310 0.227803
vt 0.143083 0.414596
vt 0.138287 0.414344
vt 0.045925 0.226577
vt 0.051852 0.413549
vt 0.074191 0.226011
vt 0.075864 0.413060
vt 0.102460 0.226079
vt 0.099881 0.413117
vt 0.142017 0.227242
vt 0.133489 0.414115
vt 0.017675 0.227780
vt 0.027857 0.414585
vt 0.053853 0.600718
vt 0.049904 0.600871
vt 0.073603 0.600225
vt 0.069652 0.600288
vt 0.093359 0.600181
vt 0.089408 0.600154
vt 0.121008 0.600874
vt 0.117060 0.600722
vt 0.045957 0.601041
vt 0.042010 0.601230
vt 0.065701 0.600368
vt 0.061751 0.600467
vt 0.085456 0.600145
vt 0.081505 0.600153
vt 0.105211 0.600370
vt 0.101261 0.600289
vt 0.113111 0.600586
vt 0.109161 0.600469
vt 0.132848 0.601441
vt 0.128903 0.601234
vt 0.057802 0.600584
vt 0.077554 0.600180
vt 0.097310 0.600226
vt 0.124956 0.601045
vt 0.038064 0.601436
vt 0.902046 0.446389
vt 0.901967 0.440477
vt 0.905323 0.440455
vt 0.905161 0.446390
vt 0.897046 0.428904
vt 0.896933 0.423074
vt 0.901732 0.422846
vt 0.901805 0.428705
vt 0.896043 0.399952
vt 0.895721 0.394229
vt 0.900373 0.393847
vt 0.900771 0.399600
vt 0.894994 0.512261
vt 0.895362 0.506160
vt 0.900376 0.506286
vt 0.900040 0.512429
vt 0.896854 0.470118
vt 0.896986 0.464189
vt 0.901823 0.464177
vt 0.901753 0.470141
vt 0.897176 0.440611
vt 0.897143 0.434745
vt 0.901973 0.434581
vt 0.896472 0.482022
vt 0.896667 0.476066
vt 0.901523 0.476107
vt 0.901402 0.482097
vt 0.896562 0.411476
vt 0.896308 0.405706
vt 0.901002 0.405383
vt 0.901329 0.411184
vt 0.894951 0.382811
vt 0.894202 0.376771
vt 0.899405 0.376319
vt 0.899630 0.382356
vt 0.895945 0.494007
vt 0.896214 0.488001
vt 0.901111 0.488100
vt 0.900926 0.494137
vt 0.897195 0.446487
vt 0.896756 0.417270
vt 0.901485 0.417008
vt 0.895384 0.388521
vt 0.900071 0.388108
vt 0.895651 0.500101
vt 0.900585 0.500207
vt 0.894304 0.518735
vt 0.899965 0.519102
vt 0.895286 0.487963
vt 0.895547 0.481989
vt 0.895007 0.493963
vt 0.894685 0.500055
vt 0.894446 0.506110
vt 0.894032 0.512176
vt 0.893305 0.518490
vt 0.894068 0.382902
vt 0.893305 0.377009
vt 0.894502 0.388583
vt 0.894837 0.394282
vt 0.895155 0.399999
vt 0.895416 0.405749
vt 0.895667 0.411513
vt 0.895858 0.417301
vt 0.896032 0.423099
vt 0.896143 0.428922
vt 0.896236 0.434757
vt 0.896267 0.440617
vt 0.896283 0.446488
vt 0.896244 0.452372
vt 0.896188 0.458261
vt 0.896069 0.464172
vt 0.895934 0.470096
vt 0.895745 0.476039
vt 0.937483 0.440124
vt 0.937624 0.446325
vt 0.904116 0.494272
vt 0.904026 0.500360
vt 0.903632 0.393649
vt 0.903813 0.399427
vt 0.905079 0.434532
vt 0.904530 0.488237
vt 0.904914 0.476208
vt 0.904565 0.482201
vt 0.903082 0.387907
vt 0.905138 0.428638
vt 0.904896 0.470218
vt 0.902840 0.382210
vt 0.904818 0.422756
vt 0.905208 0.464240
vt 0.902547 0.376598
vt 0.904798 0.416895
vt 0.905114 0.458263
vt 0.903512 0.512502
vt 0.903407 0.518667
vt 0.904395 0.411052
vt 0.905327 0.452322
vt 0.903585 0.506417
vt 0.904289 0.405225
vt 0.937059 0.421812
vt 0.936733 0.415814
vt 0.938784 0.415725
vt 0.939025 0.421736
vt 0.937129 0.495730
vt 0.936737 0.501913
vt 0.934998 0.391586
vt 0.935613 0.397587
vt 0.937465 0.433994
vt 0.937283 0.489591
vt 0.937465 0.477097
vt 0.937413 0.483389
vt 0.934524 0.385627
vt 0.937162 0.427888
vt 0.937688 0.470875
vt 0.933726 0.379773
vt 0.937658 0.464698
vt 0.932679 0.373935
vt 0.937801 0.458552
vt 0.935987 0.514200
vt 0.935178 0.520211
vt 0.936376 0.409764
vt 0.937721 0.452470
vt 0.936525 0.508108
vt 0.935922 0.403641
vt 0.938933 0.502022
vt 0.939136 0.495811
vt 0.946005 0.496001
vt 0.945782 0.502260
vt 0.939791 0.458557
vt 0.939839 0.464714
vt 0.938107 0.514424
vt 0.937278 0.520774
vt 0.938454 0.409649
vt 0.939799 0.452469
vt 0.938539 0.508234
vt 0.938085 0.403501
vt 0.939733 0.446310
vt 0.937585 0.397433
vt 0.939670 0.440086
vt 0.937122 0.391391
vt 0.939462 0.433939
vt 0.939380 0.489667
vt 0.939685 0.477141
vt 0.939543 0.483444
vt 0.936459 0.385408
vt 0.939320 0.427818
vt 0.939713 0.470906
vt 0.935770 0.379465
vt 0.934711 0.373317
vt 0.431902 0.954923
vt 0.429542 0.946342
vt 0.433282 0.945836
vt 0.435305 0.953492
vt 0.943772 0.390669
vt 0.944313 0.396810
vt 0.946247 0.433660
vt 0.946444 0.439872
vt 0.946226 0.489789
vt 0.946548 0.477178
vt 0.946421 0.483517
vt 0.943117 0.384558
vt 0.946018 0.427488
vt 0.946588 0.470898
vt 0.942352 0.378447
vt 0.945738 0.421378
vt 0.946613 0.464657
vt 0.941448 0.372323
vt 0.945471 0.415308
vt 0.946584 0.458475
vt 0.945077 0.514978
vt 0.944452 0.521533
vt 0.945173 0.409175
vt 0.946568 0.452337
vt 0.945475 0.508586
vt 0.944796 0.402969
vt 0.946536 0.446141
vt 0.439169 0.923456
vt 0.444767 0.917945
vt 0.448864 0.923253
vt 0.444533 0.927546
vt 0.483810 0.968273
vt 0.476293 0.972790
vt 0.474836 0.969444
vt 0.481490 0.965366
vt 0.467307 0.908373
vt 0.475746 0.910598
vt 0.474330 0.914024
vt 0.466837 0.911967
vt 0.429542 0.937454
vt 0.433198 0.937928
vt 0.467832 0.975249
vt 0.467288 0.971547
vt 0.483304 0.914981
vt 0.481096 0.917862
vt 0.431813 0.928874
vt 0.435290 0.930311
vt 0.458994 0.975343
vt 0.459429 0.971698
vt 0.489506 0.921146
vt 0.486561 0.923407
vt 0.436259 0.921223
vt 0.450421 0.973177
vt 0.451824 0.969694
vt 0.493862 0.928733
vt 0.490509 0.930129
vt 0.442494 0.914977
vt 0.442726 0.968794
vt 0.444940 0.965856
vt 0.496170 0.937162
vt 0.492495 0.937665
vt 0.496204 0.945880
vt 0.494101 0.954323
vt 0.490657 0.952962
vt 0.492609 0.945449
vt 0.450123 0.910617
vt 0.451514 0.913983
vt 0.436385 0.962603
vt 0.439356 0.960287
vt 0.489861 0.961953
vt 0.486942 0.959797
vt 0.458582 0.908347
vt 0.459064 0.912029
vt 0.477325 0.960140
vt 0.472160 0.963269
vt 0.469192 0.956448
vt 0.472732 0.954372
vt 0.449040 0.960426
vt 0.454325 0.963471
vt 0.485901 0.938583
vt 0.484311 0.932709
vt 0.484468 0.950517
vt 0.485924 0.944651
vt 0.454093 0.920166
vt 0.444679 0.956143
vt 0.481565 0.955825
vt 0.459951 0.918634
vt 0.441557 0.950858
vt 0.465975 0.918598
vt 0.439990 0.944921
vt 0.471801 0.920155
vt 0.439923 0.938785
vt 0.466317 0.964940
vt 0.477024 0.923168
vt 0.441532 0.932871
vt 0.460238 0.964969
vt 0.481285 0.927458
vt 0.453421 0.929122
vt 0.457003 0.927059
vt 0.457675 0.928586
vt 0.454480 0.930448
vt 0.469027 0.927005
vt 0.465075 0.925930
vt 0.447446 0.939735
vt 0.447426 0.943906
vt 0.465251 0.957513
vt 0.472549 0.929077
vt 0.448457 0.935699
vt 0.461140 0.957584
vt 0.475400 0.932013
vt 0.450547 0.932102
vt 0.457158 0.956499
vt 0.477381 0.935623
vt 0.453541 0.954479
vt 0.478351 0.939653
vt 0.477524 0.947827
vt 0.478505 0.943802
vt 0.450613 0.951515
vt 0.475545 0.951400
vt 0.460954 0.925925
vt 0.448563 0.947910
vt 0.476808 0.943647
vt 0.476658 0.939898
vt 0.451952 0.950477
vt 0.454560 0.953116
vt 0.404170 0.338414
vt 0.403613 0.338970
vt 0.402932 0.339362
vt 0.402171 0.339565
vt 0.401384 0.339564
vt 0.400625 0.339359
vt 0.399944 0.338964
vt 0.399388 0.338407
vt 0.398996 0.337725
vt 0.398793 0.336965
vt 0.398794 0.336178
vt 0.398999 0.335418
vt 0.399394 0.334738
vt 0.399951 0.334182
vt 0.400633 0.333790
vt 0.401394 0.333587
vt 0.402180 0.333589
vt 0.402940 0.333794
vt 0.403621 0.334188
vt 0.404176 0.334746
vt 0.404569 0.335427
vt 0.404771 0.336188
vt 0.404770 0.336974
vt 0.404565 0.337734
vt 0.461205 0.927594
vt 0.450111 0.947245
vt 0.474207 0.950436
vt 0.475961 0.947237
vt 0.471678 0.953064
vt 0.464875 0.927591
vt 0.449117 0.943658
vt 0.468531 0.954918
vt 0.468399 0.928548
vt 0.449123 0.939928
vt 0.465007 0.955874
vt 0.471536 0.930398
vt 0.450045 0.936325
vt 0.461335 0.955906
vt 0.474069 0.933021
vt 0.451901 0.933098
vt 0.457777 0.954944
vt 0.475820 0.936248
vt 0.417327 0.348535
vt 0.413701 0.352147
vt 0.412118 0.350081
vt 0.415247 0.346936
vt 0.408406 0.345235
vt 0.410414 0.343220
vt 0.409269 0.354707
vt 0.408266 0.352282
vt 0.405937 0.346647
vt 0.404323 0.356023
vt 0.403985 0.353443
vt 0.403190 0.347389
vt 0.399206 0.356025
vt 0.399551 0.353424
vt 0.400343 0.347381
vt 0.394262 0.354689
vt 0.395261 0.352283
vt 0.397596 0.346637
vt 0.389824 0.352129
vt 0.391424 0.350046
vt 0.395139 0.345208
vt 0.386208 0.348499
vt 0.388275 0.346915
vt 0.393124 0.343200
vt 0.383646 0.344062
vt 0.386073 0.343060
vt 0.391711 0.340731
vt 0.382331 0.339111
vt 0.384913 0.338775
vt 0.390970 0.337984
vt 0.382331 0.333989
vt 0.384935 0.334335
vt 0.390981 0.335139
vt 0.383669 0.329045
vt 0.386073 0.330045
vt 0.391713 0.332389
vt 0.386230 0.324610
vt 0.388312 0.326211
vt 0.393146 0.329931
vt 0.389860 0.320997
vt 0.391443 0.323065
vt 0.395155 0.327915
vt 0.394296 0.318436
vt 0.395299 0.320864
vt 0.397626 0.326503
vt 0.399247 0.317122
vt 0.399584 0.319704
vt 0.400374 0.325762
vt 0.404369 0.317121
vt 0.404024 0.319725
vt 0.403221 0.325774
vt 0.409316 0.318457
vt 0.408316 0.320863
vt 0.405972 0.326507
vt 0.413756 0.321021
vt 0.412148 0.323104
vt 0.408433 0.327940
vt 0.417375 0.324670
vt 0.415288 0.326251
vt 0.410437 0.329961
vt 0.419916 0.329115
vt 0.417500 0.330099
vt 0.411863 0.332423
vt 0.421219 0.334047
vt 0.418643 0.334381
vt 0.412589 0.335174
vt 0.421219 0.339162
vt 0.418619 0.338816
vt 0.412578 0.338016
vt 0.419885 0.344102
vt 0.417482 0.343104
vt 0.411846 0.340763
vt 0.111017 0.859596
vt 0.113483 0.857779
vt 0.121250 0.847813
vt 0.122598 0.844980
vt 0.124378 0.832877
vt 0.123929 0.829780
vt 0.114397 0.812037
vt 0.111924 0.809685
vt 0.105868 0.862485
vt 0.108465 0.861219
vt 0.117804 0.853179
vt 0.119693 0.850590
vt 0.124114 0.839067
vt 0.124384 0.835972
vt 0.122069 0.823436
vt 0.120584 0.820406
vt 0.118778 0.817414
vt 0.116741 0.814586
vt 0.106295 0.806119
vt 0.103103 0.804847
vt 0.115706 0.855614
vt 0.123518 0.842075
vt 0.123113 0.826597
vt 0.109227 0.807751
vt 0.103103 0.863317
vt 0.119658 0.785820
vt 0.116550 0.785672
vt 0.097894 0.785077
vt 0.094784 0.785028
vt 0.082340 0.784971
vt 0.079229 0.784992
vt 0.104115 0.785219
vt 0.101005 0.785141
vt 0.066787 0.785219
vt 0.063677 0.785311
vt 0.051244 0.785820
vt 0.048137 0.785983
vt 0.110334 0.785417
vt 0.107224 0.785311
vt 0.088562 0.784971
vt 0.085451 0.784964
vt 0.073007 0.785077
vt 0.069897 0.785141
vt 0.057459 0.785537
vt 0.054351 0.785672
vt 0.113442 0.785537
vt 0.091673 0.784992
vt 0.076118 0.785028
vt 0.060568 0.785417
vt 0.122765 0.785983
vt 0.892051 0.709632
vt 0.897197 0.709632
vt 0.897197 0.717202
vt 0.892051 0.717202
vt 0.897197 0.724771
vt 0.892051 0.724771
vt 0.897197 0.732340
vt 0.892051 0.732340
vt 0.897197 0.739909
vt 0.892051 0.739909
vt 0.897197 0.747478
vt 0.892051 0.747478
vt 0.897197 0.755047
vt 0.892051 0.755047
vt 0.897197 0.762616
vt 0.892051 0.762616
vt 0.897197 0.770185
vt 0.892051 0.770185
vt 0.897197 0.777754
vt 0.892051 0.777754
vt 0.897197 0.785323
vt 0.892051 0.785323
vt 0.897197 0.792892
vt 0.892051 0.792892
vt 0.897197 0.800461
vt 0.892051 0.800461
vt 0.897197 0.834656
vt 0.892051 0.834656
vt 0.967559 0.776678
vt 0.968547 0.784182
vt 0.967559 0.818363
vt 0.911546 0.818363
vt 0.910558 0.784182
vt 0.911546 0.776678
vt 0.914443 0.769685
vt 0.919051 0.763680
vt 0.925056 0.759072
vt 0.932049 0.756176
vt 0.939553 0.755188
vt 0.947057 0.756176
vt 0.954050 0.759072
vt 0.960055 0.763680
vt 0.964663 0.769685
vt 0.892051 0.675438
vt 0.897197 0.675438
vt 0.975249 0.569075
vt 0.974261 0.576579
vt 0.971365 0.583572
vt 0.966757 0.589577
vt 0.960752 0.594185
vt 0.953759 0.597081
vt 0.946255 0.598069
vt 0.938751 0.597081
vt 0.931758 0.594185
vt 0.925753 0.589577
vt 0.921145 0.583572
vt 0.918248 0.576579
vt 0.917260 0.569075
vt 0.918248 0.534894
vt 0.974261 0.534894
vt 0.851777 0.309191
vt 0.854417 0.309363
vt 0.854417 0.358694
vt 0.851777 0.358523
vt 0.859557 0.358522
vt 0.856918 0.358693
vt 0.856918 0.309362
vt 0.859557 0.309190
vt 0.849276 0.358522
vt 0.849276 0.309190
vt 0.880698 0.309191
vt 0.880698 0.358523
vt 0.878058 0.358694
vt 0.878058 0.309363
vt 0.872918 0.358522
vt 0.872918 0.309190
vt 0.875557 0.309362
vt 0.875558 0.358693
vt 0.883199 0.309190
vt 0.883199 0.358522
vt 0.893305 0.534895
vt 0.896068 0.535483
vt 0.896067 0.643086
vt 0.893305 0.642500
vt 0.901362 0.642615
vt 0.898600 0.643202
vt 0.898602 0.535490
vt 0.901365 0.534903
vt 0.903900 0.534894
vt 0.903895 0.642499
vt 0.227856 0.764818
vt 0.227855 0.877576
vt 0.225111 0.878078
vt 0.225113 0.765321
vt 0.219835 0.877716
vt 0.219837 0.764850
vt 0.222579 0.765353
vt 0.222579 0.878218
vt 0.217303 0.764817
vt 0.217303 0.877575
vt 0.974409 0.476269
vt 0.973962 0.474587
vt 0.978398 0.472155
vt 0.979649 0.473508
vt 0.834108 0.331103
vt 0.834108 0.334046
vt 0.825568 0.334046
vt 0.825567 0.331103
vt 0.834108 0.336989
vt 0.825567 0.336989
vt 0.834108 0.339932
vt 0.825567 0.339932
vt 0.834108 0.342875
vt 0.825567 0.342875
vt 0.834108 0.345818
vt 0.825567 0.345818
vt 0.834108 0.348761
vt 0.825568 0.348761
vt 0.834108 0.351703
vt 0.825568 0.351703
vt 0.834108 0.316389
vt 0.834108 0.319332
vt 0.825568 0.319332
vt 0.825567 0.316389
vt 0.834108 0.322275
vt 0.825567 0.322275
vt 0.834108 0.325218
vt 0.825567 0.325218
vt 0.903034 0.985229
vt 0.903034 0.988172
vt 0.901563 0.990720
vt 0.899014 0.992192
vt 0.896071 0.992192
vt 0.893523 0.990720
vt 0.892051 0.988172
vt 0.892051 0.985229
vt 0.893523 0.982680
vt 0.896071 0.981209
vt 0.899014 0.981209
vt 0.901563 0.982680
vt 0.970073 0.470091
vt 0.972829 0.470245
vt 0.973155 0.471512
vt 0.969678 0.471546
vt 0.968886 0.474561
vt 0.968386 0.476502
vt 0.962991 0.473355
vt 0.964361 0.472036
vt 0.959974 0.467983
vt 0.961804 0.467528
vt 0.959974 0.461855
vt 0.961817 0.462354
vt 0.962985 0.456249
vt 0.964334 0.457665
vt 0.968638 0.453318
vt 0.969056 0.455215
vt 0.974890 0.453474
vt 0.974317 0.455305
vt 0.980237 0.456777
vt 0.978809 0.458043
vt 0.982947 0.462277
vt 0.981113 0.462660
vt 0.982788 0.468308
vt 0.981017 0.467762
vt 0.973662 0.473451
vt 0.977571 0.471291
vt 0.973155 0.471512
vt 0.975216 0.468817
vt 0.976151 0.469802
vt 0.966660 0.469764
vt 0.967684 0.468763
vt 0.969678 0.471546
vt 0.964931 0.466705
vt 0.966294 0.466356
vt 0.966660 0.469764
vt 0.964973 0.463180
vt 0.966277 0.463538
vt 0.964931 0.466705
vt 0.966715 0.460093
vt 0.967769 0.461174
vt 0.969827 0.458347
vt 0.970176 0.459781
vt 0.966715 0.460093
vt 0.973378 0.458448
vt 0.972965 0.459828
vt 0.969827 0.458347
vt 0.976370 0.460313
vt 0.975340 0.461271
vt 0.973378 0.458448
vt 0.978071 0.463379
vt 0.976682 0.463699
vt 0.976370 0.460313
vt 0.977962 0.466855
vt 0.976621 0.466454
vt 0.978071 0.463379
vt 0.976151 0.469802
vt 0.977962 0.466855
vt 0.972576 0.469250
vt 0.974543 0.468124
vt 0.979917 0.467436
vt 0.965184 0.471218
vt 0.969155 0.473520
vt 0.962934 0.467227
vt 0.962982 0.462653
vt 0.962934 0.467227
vt 0.965189 0.458534
vt 0.962982 0.462653
vt 0.969330 0.456323
vt 0.973979 0.456437
vt 0.969330 0.456323
vt 0.977916 0.458875
vt 0.980035 0.462917
vt 0.979917 0.467436
vt 0.834108 0.328161
vt 0.825567 0.328161
vt 0.970317 0.469204
vt 0.968377 0.468083
vt 0.967246 0.466114
vt 0.967258 0.463825
vt 0.968430 0.461870
vt 0.970412 0.460739
vt 0.972684 0.460768
vt 0.974632 0.461939
vt 0.975735 0.463922
vt 0.975695 0.466179
vt 0.947672 0.948065
vt 0.947672 0.950501
vt 0.923689 0.950501
vt 0.923689 0.948065
vt 0.947672 0.952937
vt 0.923689 0.952937
vt 0.947672 0.955372
vt 0.923689 0.955372
vt 0.947672 0.957808
vt 0.923689 0.957808
vt 0.947672 0.960244
vt 0.923689 0.960244
vt 0.947672 0.962679
vt 0.923689 0.962679
vt 0.947672 0.965115
vt 0.923689 0.965115
vt 0.947672 0.967551
vt 0.923689 0.967551
vt 0.947672 0.938323
vt 0.947672 0.940758
vt 0.923689 0.940758
vt 0.923689 0.938323
vt 0.947672 0.943194
vt 0.923689 0.943194
vt 0.947672 0.945630
vt 0.923689 0.945630
vt 0.328791 0.919646
vt 0.328384 0.922199
vt 0.327996 0.922155
vt 0.328384 0.919557
vt 0.327942 0.929698
vt 0.327558 0.929683
vt 0.327654 0.927134
vt 0.328063 0.927154
vt 0.327413 0.934492
vt 0.327435 0.936854
vt 0.317999 0.937200
vt 0.317990 0.934613
vt 0.328984 0.946908
vt 0.328626 0.947108
vt 0.327966 0.944458
vt 0.328346 0.944392
vt 0.327755 0.934493
vt 0.327805 0.936844
vt 0.327826 0.932144
vt 0.327457 0.932133
vt 0.327921 0.939295
vt 0.327536 0.939315
vt 0.328174 0.924653
vt 0.327813 0.924629
vt 0.329182 0.916738
vt 0.329588 0.916981
vt 0.328112 0.941845
vt 0.327698 0.941879
vt 0.318034 0.929459
vt 0.318067 0.926831
vt 0.318139 0.924158
vt 0.314945 0.924111
vt 0.315091 0.921441
vt 0.318148 0.921463
vt 0.318185 0.918673
vt 0.318100 0.915803
vt 0.317916 0.947934
vt 0.318044 0.945174
vt 0.317987 0.932045
vt 0.318032 0.942470
vt 0.318038 0.939823
vt 0.314986 0.945010
vt 0.315037 0.942474
vt 0.315058 0.932029
vt 0.315001 0.929454
vt 0.315047 0.918846
vt 0.314903 0.939850
vt 0.314933 0.937196
vt 0.314960 0.926811
vt 0.314822 0.916283
vt 0.314987 0.934588
vt 0.314822 0.947456
vt 0.990425 0.901967
vt 0.990618 0.899949
vt 0.991609 0.899805
vt 0.991333 0.902324
vt 0.989757 0.898073
vt 0.990559 0.897421
vt 0.988014 0.896857
vt 0.988327 0.895865
vt 0.985908 0.896902
vt 0.985634 0.895912
vt 0.984198 0.897995
vt 0.983452 0.897310
vt 0.983238 0.899768
vt 0.982324 0.899542
vt 0.983245 0.901765
vt 0.982324 0.901977
vt 0.984151 0.903458
vt 0.983478 0.904084
vt 0.985741 0.904371
vt 0.985476 0.905257
vt 0.987577 0.904491
vt 0.987762 0.905358
vt 0.989294 0.903604
vt 0.989897 0.904331
vt 0.939474 0.655477
vt 0.941238 0.655477
vt 0.940837 0.656977
vt 0.939873 0.656971
vt 0.988716 0.902928
vt 0.989575 0.901638
vt 0.984749 0.902873
vt 0.985960 0.903643
vt 0.986183 0.897808
vt 0.984879 0.898597
vt 0.989700 0.900087
vt 0.989019 0.898684
vt 0.984141 0.899974
vt 0.940468 0.658358
vt 0.940661 0.658469
vt 0.940772 0.658661
vt 0.940773 0.658883
vt 0.940663 0.659075
vt 0.940471 0.659187
vt 0.940248 0.659187
vt 0.940056 0.659077
vt 0.939944 0.658885
vt 0.939944 0.658663
vt 0.940054 0.658470
vt 0.940246 0.658359
vt 0.987400 0.903656
vt 0.987708 0.897848
vt 0.984108 0.901543
vt 0.937949 0.656356
vt 0.939038 0.657459
vt 0.937062 0.657885
vt 0.938559 0.658296
vt 0.937063 0.659658
vt 0.938566 0.659257
vt 0.937947 0.661189
vt 0.939041 0.660094
vt 0.939478 0.662069
vt 0.939880 0.660570
vt 0.941241 0.662070
vt 0.940844 0.660576
vt 0.942767 0.661192
vt 0.941679 0.660089
vt 0.943655 0.659664
vt 0.942158 0.659252
vt 0.943655 0.657890
vt 0.942152 0.658291
vt 0.942770 0.656357
vt 0.941676 0.657452
vt 0.163908 0.799344
vt 0.162441 0.799344
vt 0.162441 0.804130
vt 0.163908 0.804130
vt 0.681765 0.352341
vt 0.681765 0.310143
vt 0.677193 0.311558
vt 0.677193 0.350926
vt 0.162440 0.848285
vt 0.163908 0.848285
vt 0.163908 0.843499
vt 0.162440 0.843499
vt 0.683233 0.310143
vt 0.683233 0.352341
vt 0.687805 0.350926
vt 0.687805 0.311558
vt 0.969155 0.473520
s 1
f 169/1/1 2/2/1 4/3/2 170/4/2
f 170/4/2 4/3/2 6/5/3 171/6/3
f 171/6/3 6/5/3 8/7/4 172/8/4
f 172/8/4 8/7/4 10/9/5 173/10/5
f 173/10/5 10/9/5 12/11/6 174/12/6
f 174/12/6 12/11/6 14/13/7 175/14/7
f 175/14/7 14/13/7 16/15/8 176/16/8
f 176/16/8 16/15/8 18/17/9 177/18/9
f 177/18/9 18/17/9 20/19/10 178/20/10
f 178/20/10 20/19/10 22/21/11 179/22/11
f 179/22/11 22/21/11 24/23/12 180/24/12
f 180/24/12 24/23/12 26/25/13 181/26/13
f 181/26/13 26/25/13 28/27/14 182/28/14
f 182/28/14 28/27/14 30/29/15 183/30/15
f 183/30/15 30/29/15 32/31/16 184/32/16
f 184/32/16 32/31/16 34/33/17 185/34/17
f 185/34/17 34/33/17 36/35/18 186/36/18
f 186/36/18 36/35/18 38/37/19 187/38/19
f 187/39/19 38/40/19 40/41/20 188/42/20
f 188/42/20 40/41/20 42/43/21 189/44/21
f 189/44/21 42/43/21 44/45/22 190/46/22
f 190/46/22 44/45/22 46/47/23 191/48/23
f 467/49/24 457/50/25 68/51/25 69/52/24
f 191/48/23 46/47/23 48/53/26 192/54/26
f 192/54/26 48/53/26 2/2/1 169/1/1
f 9/55/5 11/56/6 150/57/6 149/58/5
f 49/59/27 50/60/27 72/61/27 71/62/27 70/63/27 69/64/27 68/65/27 67/66/27 66/67/27 65/68/27 64/69/27 63/70/27 62/71/27 61/72/27 60/73/27 59/74/27 58/75/27 57/76/27 56/77/27 55/78/27 54/79/27 53/80/27 52/81/27 51/82/27
f 468/83/28 458/84/29 51/85/29 52/86/28
f 469/87/30 459/88/31 56/89/31 57/90/30
f 470/91/32 460/92/33 50/93/33 49/94/32
f 471/95/34 461/96/35 61/97/35 62/98/34
f 472/99/36 462/100/37 66/101/37 67/102/36
f 473/103/38 463/104/39 71/105/39 72/106/38
f 474/107/40 464/108/41 54/109/41 55/110/40
f 475/111/42 465/112/43 59/113/43 60/114/42
f 476/115/44 466/116/45 64/117/45 65/118/44
f 477/119/46 467/49/24 69/52/24 70/120/46
f 478/121/47 468/83/28 52/86/28 53/122/47
f 479/123/48 469/87/30 57/90/30 58/124/48
f 480/125/49 471/95/34 62/98/34 63/126/49
f 457/50/25 472/127/36 67/128/36 68/51/25
f 460/92/33 473/103/38 72/106/38 50/93/33
f 458/84/29 470/91/32 49/94/32 51/85/29
f 459/88/31 474/107/40 55/110/40 56/89/31
f 461/96/35 475/111/42 60/114/42 61/97/35
f 462/100/37 476/115/44 65/118/44 66/101/37
f 463/104/39 477/119/46 70/120/46 71/105/39
f 464/108/41 478/121/47 53/122/47 54/109/41
f 465/112/43 479/123/48 58/124/48 59/113/43
f 466/116/45 480/125/49 63/126/49 64/117/45
f 120/129/50 110/130/51 96/131/51 91/132/50
f 119/133/52 109/134/53 95/135/53 89/136/52
f 118/137/54 108/138/55 94/139/55 87/140/54
f 117/141/56 107/142/57 93/143/57 85/144/56
f 116/145/58 106/146/59 92/147/59 83/148/58
f 115/149/60 105/150/61 90/151/61 81/152/60
f 113/153/62 104/154/63 88/155/63 77/156/62
f 112/157/64 100/158/65 80/159/65 75/160/64
f 114/161/66 103/162/67 86/163/67 79/164/66
f 111/165/68 102/166/69 84/167/69 73/168/68
f 110/130/51 101/169/70 82/170/70 96/131/51
f 109/134/53 99/171/71 78/172/71 95/135/53
f 108/138/55 98/173/72 76/174/72 94/139/55
f 107/142/57 97/175/73 74/176/73 93/143/57
f 106/146/59 120/129/50 91/132/50 92/147/59
f 105/150/61 119/133/52 89/136/52 90/151/61
f 104/154/63 118/137/54 87/140/54 88/155/63
f 103/162/67 117/141/56 85/144/56 86/163/67
f 102/177/69 116/145/58 83/148/58 84/178/69
f 101/169/70 115/149/60 81/152/60 82/170/70
f 100/158/65 114/161/66 79/164/66 80/159/65
f 99/171/71 113/153/62 77/156/62 78/172/71
f 98/173/72 112/157/64 75/160/64 76/174/72
f 97/175/73 111/165/68 73/168/68 74/176/73
f 42/43/73 40/41/68 111/165/68 97/175/73
f 8/7/72 6/5/64 112/157/64 98/173/72
f 18/17/71 16/15/62 113/153/62 99/171/71
f 4/3/65 2/2/66 114/161/66 100/158/65
f 28/27/70 26/25/60 115/149/60 101/169/70
f 38/37/69 36/35/58 116/145/58 102/177/69
f 48/53/67 46/47/56 117/141/56 103/162/67
f 14/13/63 12/11/54 118/137/54 104/154/63
f 24/23/61 22/21/52 119/133/52 105/150/61
f 34/33/59 32/31/50 120/129/50 106/146/59
f 44/45/57 42/43/73 97/175/73 107/142/57
f 10/9/55 8/7/72 98/173/72 108/138/55
f 20/19/53 18/17/71 99/171/71 109/134/53
f 30/29/51 28/27/70 101/169/70 110/130/51
f 40/41/68 38/40/69 102/166/69 111/165/68
f 2/2/66 48/53/67 103/162/67 114/161/66
f 6/5/64 4/3/65 100/158/65 112/157/64
f 16/15/62 14/13/63 104/154/63 113/153/62
f 26/25/60 24/23/61 105/150/61 115/149/60
f 36/35/58 34/33/59 106/146/59 116/145/58
f 46/47/56 44/45/57 107/142/57 117/141/56
f 12/11/54 10/9/55 108/138/55 118/137/54
f 22/21/52 20/19/53 109/134/53 119/133/52
f 32/31/50 30/29/51 110/130/51 120/129/50
f 91/132/50 96/131/51 144/179/74 130/180/75
f 89/136/52 95/135/53 143/181/76 129/182/77
f 87/140/54 94/139/55 142/183/78 128/184/79
f 85/144/56 93/143/57 141/185/80 127/186/81
f 83/148/58 92/147/59 140/187/82 126/188/83
f 81/152/60 90/151/61 139/189/84 125/190/85
f 77/156/62 88/155/63 138/191/86 123/192/87
f 75/160/64 80/159/65 134/193/88 122/194/89
f 79/164/66 86/163/67 137/195/90 124/196/91
f 73/168/68 84/167/69 136/197/92 121/198/93
f 96/131/51 82/170/70 135/199/94 144/179/74
f 95/135/53 78/172/71 133/200/95 143/181/76
f 94/139/55 76/174/72 132/201/96 142/183/78
f 93/143/57 74/176/73 131/202/97 141/185/80
f 92/147/59 91/132/50 130/180/75 140/187/82
f 90/151/61 89/136/52 129/182/77 139/189/84
f 88/155/63 87/140/54 128/184/79 138/191/86
f 86/163/67 85/144/56 127/186/81 137/195/90
f 84/178/69 83/148/58 126/188/83 136/203/92
f 82/170/70 81/152/60 125/190/85 135/199/94
f 80/159/65 79/164/66 124/196/91 134/193/88
f 78/172/71 77/156/62 123/192/87 133/200/95
f 76/174/72 75/160/64 122/194/89 132/201/96
f 74/176/73 73/168/68 121/198/93 131/202/97
f 151/204/98 152/205/98 200/206/98 199/207/98
f 19/208/10 21/209/11 155/210/11 154/211/10
f 29/212/15 31/213/16 160/214/16 159/215/15
f 39/216/20 41/217/21 165/218/21 164/219/20
f 5/220/3 7/221/4 148/222/4 147/223/3
f 15/224/8 17/225/9 153/226/9 152/205/8
f 1/227/1 3/228/2 146/229/2 145/230/1
f 25/231/13 27/232/14 158/233/14 157/234/13
f 35/235/18 37/236/19 163/237/19 162/238/18
f 45/239/23 47/240/26 168/241/26 167/242/23
f 11/56/6 13/243/7 151/204/7 150/57/6
f 21/209/11 23/244/12 156/245/12 155/210/11
f 31/213/16 33/246/17 161/247/17 160/214/16
f 41/217/21 43/248/22 166/249/22 165/218/21
f 7/221/4 9/55/5 149/58/5 148/222/4
f 17/225/9 19/208/10 154/211/10 153/226/9
f 27/232/14 29/212/15 159/215/15 158/233/14
f 37/250/19 39/216/20 164/219/20 163/251/19
f 47/240/26 1/227/1 145/230/1 168/241/26
f 3/228/2 5/220/3 147/223/3 146/229/2
f 13/243/7 15/224/8 152/205/8 151/204/7
f 23/244/12 25/231/13 157/234/13 156/245/12
f 33/246/17 35/235/18 162/238/18 161/247/17
f 43/248/22 45/239/23 167/242/23 166/249/22
f 47/240/27 192/252/27 169/253/27 1/227/27
f 45/239/27 191/254/27 192/252/27 47/240/27
f 43/248/27 190/255/27 191/254/27 45/239/27
f 41/217/27 189/256/27 190/255/27 43/248/27
f 39/216/27 188/257/27 189/256/27 41/217/27
f 37/250/27 187/258/27 188/257/27 39/216/27
f 35/235/27 186/259/27 187/260/27 37/236/27
f 33/246/27 185/261/27 186/259/27 35/235/27
f 31/213/27 184/262/27 185/261/27 33/246/27
f 29/212/27 183/263/27 184/262/27 31/213/27
f 27/232/27 182/264/27 183/263/27 29/212/27
f 25/231/27 181/265/27 182/264/27 27/232/27
f 23/244/27 180/266/27 181/265/27 25/231/27
f 21/209/27 179/267/27 180/266/27 23/244/27
f 19/208/27 178/268/27 179/267/27 21/209/27
f 17/225/27 177/269/27 178/268/27 19/208/27
f 15/224/27 176/270/27 177/269/27 17/225/27
f 13/243/27 175/271/27 176/270/27 15/224/27
f 11/56/27 174/272/27 175/271/27 13/243/27
f 9/55/27 173/273/27 174/272/27 11/56/27
f 7/221/27 172/274/27 173/273/27 9/55/27
f 5/220/27 171/275/27 172/274/27 7/221/27
f 3/228/27 170/276/27 171/275/27 5/220/27
f 1/227/27 169/253/27 170/276/27 3/228/27
f 199/207/7 200/206/8 224/277/8 223/278/7
f 166/249/98 167/242/98 215/279/98 214/280/98
f 159/215/98 160/214/98 208/281/98 207/282/98
f 152/205/98 153/226/98 201/283/98 200/206/98
f 167/242/98 168/241/98 216/284/98 215/279/98
f 145/230/98 146/229/98 194/285/98 193/286/98
f 160/214/98 161/247/98 209/287/98 208/281/98
f 153/226/98 154/211/98 202/288/98 201/283/98
f 168/241/98 145/230/98 193/286/98 216/284/98
f 146/229/98 147/223/98 195/289/98 194/285/98
f 161/247/98 162/238/98 210/290/98 209/287/98
f 154/211/98 155/210/98 203/291/98 202/288/98
f 147/223/98 148/222/98 196/292/98 195/289/98
f 162/238/98 163/237/98 211/293/98 210/290/98
f 155/210/98 156/245/98 204/294/98 203/291/98
f 148/222/98 149/58/98 197/295/98 196/292/98
f 163/251/98 164/219/98 212/296/98 211/297/98
f 156/245/98 157/234/98 205/298/98 204/294/98
f 149/58/98 150/57/98 198/299/98 197/295/98
f 164/219/98 165/218/98 213/300/98 212/296/98
f 157/234/98 158/233/98 206/301/98 205/298/98
f 150/57/98 151/204/98 199/207/98 198/299/98
f 165/218/98 166/249/98 214/280/98 213/300/98
f 158/233/98 159/215/98 207/282/98 206/301/98
f 227/302/27 228/303/27 252/304/27 251/305/27
f 214/280/22 215/279/23 239/306/23 238/307/22
f 207/282/15 208/281/16 232/308/16 231/309/15
f 200/206/8 201/283/9 225/310/9 224/277/8
f 215/279/23 216/284/26 240/311/26 239/306/23
f 193/286/1 194/285/2 218/312/2 217/313/1
f 208/281/16 209/287/17 233/314/17 232/308/16
f 201/283/9 202/288/10 226/315/10 225/310/9
f 216/284/26 193/286/1 217/313/1 240/311/26
f 194/285/2 195/289/3 219/316/3 218/312/2
f 209/287/17 210/290/18 234/317/18 233/314/17
f 202/288/10 203/291/11 227/302/11 226/315/10
f 195/289/3 196/292/4 220/318/4 219/316/3
f 210/290/18 211/293/19 235/319/19 234/317/18
f 203/291/11 204/294/12 228/303/12 227/302/11
f 196/292/4 197/295/5 221/320/5 220/318/4
f 211/297/19 212/296/20 236/321/20 235/322/19
f 204/294/12 205/298/13 229/323/13 228/303/12
f 197/295/5 198/299/6 222/324/6 221/320/5
f 212/296/20 213/300/21 237/325/21 236/321/20
f 205/298/13 206/301/14 230/326/14 229/323/13
f 198/299/6 199/207/7 223/278/7 222/324/6
f 213/300/21 214/280/22 238/307/22 237/325/21
f 206/301/14 207/282/15 231/309/15 230/326/14
f 262/327/22 263/328/23 287/329/23 286/330/22
f 220/318/27 221/320/27 245/331/27 244/332/27
f 235/322/27 236/321/27 260/333/27 259/334/27
f 228/303/27 229/323/27 253/335/27 252/304/27
f 221/320/27 222/324/27 246/336/27 245/331/27
f 236/321/27 237/325/27 261/337/27 260/333/27
f 229/323/27 230/326/27 254/338/27 253/335/27
f 222/324/27 223/278/27 247/339/27 246/336/27
f 237/325/27 238/307/27 262/327/27 261/337/27
f 230/326/27 231/309/27 255/340/27 254/338/27
f 223/278/27 224/277/27 248/341/27 247/339/27
f 238/307/27 239/306/27 263/328/27 262/327/27
f 231/309/27 232/308/27 256/342/27 255/340/27
f 224/277/27 225/310/27 249/343/27 248/341/27
f 239/306/27 240/311/27 264/344/27 263/328/27
f 217/313/27 218/312/27 242/345/27 241/346/27
f 232/308/27 233/314/27 257/347/27 256/342/27
f 225/310/27 226/315/27 250/348/27 249/343/27
f 240/311/27 217/313/27 241/346/27 264/344/27
f 218/312/27 219/316/27 243/349/27 242/345/27
f 233/314/27 234/317/27 258/350/27 257/347/27
f 226/315/27 227/302/27 251/305/27 250/348/27
f 219/316/27 220/318/27 244/332/27 243/349/27
f 234/317/27 235/319/27 259/351/27 258/350/27
f 275/352/98 276/353/98 300/354/98 299/355/98
f 255/340/15 256/342/16 280/356/16 279/357/15
f 248/341/8 249/343/9 273/358/9 272/359/8
f 263/328/23 264/344/26 288/360/26 287/329/23
f 241/346/1 242/345/2 266/361/2 265/362/1
f 256/342/16 257/347/17 281/363/17 280/356/16
f 249/343/9 250/348/10 274/364/10 273/358/9
f 264/344/26 241/346/1 265/362/1 288/360/26
f 242/345/2 243/349/3 267/365/3 266/361/2
f 257/347/17 258/350/18 282/366/18 281/363/17
f 250/348/10 251/305/11 275/367/11 274/364/10
f 243/349/3 244/332/4 268/368/4 267/365/3
f 258/350/18 259/351/19 283/369/19 282/366/18
f 251/305/11 252/304/12 276/370/12 275/367/11
f 244/332/4 245/331/5 269/371/5 268/368/4
f 259/334/19 260/333/20 284/372/20 283/373/19
f 252/304/12 253/335/13 277/374/13 276/370/12
f 245/331/5 246/336/6 270/375/6 269/371/5
f 260/333/20 261/337/21 285/376/21 284/372/20
f 253/335/13 254/338/14 278/377/14 277/374/13
f 246/336/6 247/339/7 271/378/7 270/375/6
f 261/337/21 262/327/22 286/330/22 285/376/21
f 254/338/14 255/340/15 279/357/15 278/377/14
f 247/339/7 248/341/8 272/359/8 271/378/7
f 303/379/3 304/380/4 328/381/4 327/382/3
f 268/383/98 269/384/98 293/385/98 292/386/98
f 283/387/98 284/388/98 308/389/98 307/390/98
f 276/353/98 277/391/98 301/392/98 300/354/98
f 269/384/98 270/393/98 294/394/98 293/385/98
f 284/388/98 285/395/98 309/396/98 308/389/98
f 277/391/98 278/397/98 302/398/98 301/392/98
f 270/393/98 271/399/98 295/400/98 294/394/98
f 285/395/98 286/401/98 310/402/98 309/396/98
f 278/397/98 279/403/98 303/379/98 302/398/98
f 271/399/98 272/404/98 296/405/98 295/400/98
f 286/401/98 287/406/98 311/407/98 310/402/98
f 279/403/98 280/408/98 304/380/98 303/379/98
f 272/404/98 273/409/98 297/410/98 296/405/98
f 287/406/98 288/411/98 312/412/98 311/407/98
f 265/413/98 266/414/98 290/415/98 289/416/98
f 280/408/98 281/417/98 305/418/98 304/380/98
f 273/409/98 274/419/98 298/420/98 297/410/98
f 288/411/98 265/413/98 289/416/98 312/412/98
f 266/414/98 267/421/98 291/422/98 290/415/98
f 281/417/98 282/423/98 306/424/98 305/418/98
f 274/419/98 275/352/98 299/355/98 298/420/98
f 267/421/98 268/383/98 292/386/98 291/422/98
f 282/423/98 283/387/98 307/390/98 306/424/98
f 316/425/99 317/426/100 341/427/100 340/428/99
f 296/405/20 297/410/21 321/429/21 320/430/20
f 311/407/11 312/412/12 336/431/12 335/432/11
f 289/416/13 290/415/14 314/433/14 313/434/13
f 304/380/4 305/418/5 329/435/5 328/381/4
f 297/410/21 298/420/22 322/436/22 321/429/21
f 312/412/12 289/416/13 313/434/13 336/431/12
f 290/415/14 291/422/15 315/437/15 314/433/14
f 305/418/5 306/424/6 330/438/6 329/435/5
f 298/420/22 299/355/23 323/439/23 322/436/22
f 291/422/15 292/386/16 316/425/16 315/437/15
f 306/424/6 307/390/7 331/440/7 330/438/6
f 299/355/23 300/354/26 324/441/26 323/439/23
f 292/386/16 293/385/17 317/426/17 316/425/16
f 307/390/7 308/389/8 332/442/8 331/440/7
f 300/354/26 301/392/1 325/443/1 324/441/26
f 293/385/17 294/394/18 318/444/18 317/426/17
f 308/389/8 309/396/9 333/445/9 332/442/8
f 301/392/1 302/398/2 326/446/2 325/443/1
f 294/394/18 295/400/19 319/447/19 318/444/18
f 309/396/9 310/402/10 334/448/10 333/445/9
f 302/398/2 303/379/3 327/382/3 326/446/2
f 295/400/19 296/405/20 320/430/20 319/447/19
f 310/402/10 311/407/11 335/432/11 334/448/10
f 352/449/4 353/450/5 425/451/5 421/452/4
f 331/440/101 332/442/102 356/453/102 355/454/101
f 324/441/103 325/443/104 349/455/104 348/456/103
f 317/426/100 318/444/105 342/457/105 341/427/100
f 332/442/102 333/445/106 357/458/106 356/453/102
f 325/443/104 326/446/107 350/459/107 349/455/104
f 318/444/105 319/447/108 343/460/108 342/457/105
f 333/445/106 334/448/109 358/461/109 357/458/106
f 326/446/107 327/382/110 351/462/110 350/459/107
f 319/447/108 320/430/111 344/463/111 343/460/108
f 334/448/109 335/432/112 359/464/112 358/461/109
f 327/382/110 328/381/113 352/449/113 351/462/110
f 320/430/111 321/429/114 345/465/114 344/463/111
f 335/432/112 336/431/115 360/466/115 359/464/112
f 313/434/116 314/433/117 338/467/117 337/468/116
f 328/381/113 329/435/118 353/450/118 352/449/113
f 321/429/114 322/436/119 346/469/119 345/465/114
f 336/431/115 313/434/116 337/468/116 360/466/115
f 314/433/117 315/437/120 339/470/120 338/467/117
f 329/435/118 330/438/121 354/471/121 353/450/118
f 322/436/119 323/439/122 347/472/122 346/469/119
f 315/437/120 316/425/99 340/428/99 339/470/120
f 330/438/121 331/440/101 355/454/101 354/471/121
f 323/439/122 324/441/103 348/456/103 347/472/122
f 360/466/12 337/468/13 362/473/13 453/474/12
f 345/465/21 346/469/22 397/475/22 393/476/21
f 361/477/123 366/478/124 370/479/125 374/480/126 378/481/127 382/482/128 386/483/129 390/484/130 394/485/131 398/486/132 402/487/133 406/488/134 410/489/135 414/490/136 418/491/137 422/492/138 426/493/139 430/494/140 434/495/141 438/496/142 442/497/143 446/498/144 450/499/145 454/500/146
f 353/450/5 354/471/6 429/501/6 425/451/5
f 346/469/22 347/472/23 401/502/23 397/475/22
f 338/467/14 339/470/15 369/503/15 365/504/14
f 339/470/15 340/428/16 373/505/16 369/503/15
f 354/471/6 355/454/7 433/506/7 429/501/6
f 347/472/23 348/456/26 405/507/26 401/502/23
f 340/428/16 341/427/17 377/508/17 373/505/16
f 355/454/7 356/453/8 437/509/8 433/506/7
f 348/456/26 349/455/1 409/510/1 405/507/26
f 341/427/17 342/457/18 381/511/18 377/508/17
f 356/453/8 357/458/9 441/512/9 437/509/8
f 349/455/1 350/459/2 413/513/2 409/510/1
f 342/457/18 343/460/19 385/514/19 381/511/18
f 357/458/9 358/461/10 445/515/10 441/512/9
f 350/459/2 351/462/3 417/516/3 413/513/2
f 343/460/19 344/463/20 389/517/20 385/514/19
f 358/461/10 359/464/11 449/518/11 445/515/10
f 351/462/3 352/449/4 421/452/4 417/516/3
f 344/463/20 345/465/21 393/476/21 389/517/20
f 359/464/11 360/466/12 453/474/12 449/518/11
f 362/519/147 365/520/148 367/521/149 364/522/150
f 364/522/150 367/521/149 368/523/151 363/524/152
f 363/524/152 368/523/151 366/478/124 361/477/123
f 365/520/148 369/525/153 371/526/154 367/521/149
f 367/521/149 371/526/154 372/527/155 368/523/151
f 368/523/151 372/527/155 370/479/125 366/478/124
f 369/525/153 373/528/156 375/529/157 371/526/154
f 371/526/154 375/529/157 376/530/158 372/527/155
f 372/527/155 376/530/158 374/480/126 370/479/125
f 373/528/156 377/531/159 379/532/160 375/529/157
f 375/529/157 379/532/160 380/533/161 376/530/158
f 376/530/158 380/533/161 378/481/127 374/480/126
f 377/531/159 381/534/162 383/535/163 379/532/160
f 379/532/160 383/535/163 384/536/164 380/533/161
f 380/533/161 384/536/164 382/482/128 378/481/127
f 381/534/162 385/537/165 387/538/166 383/535/163
f 383/535/163 387/538/166 388/539/167 384/536/164
f 384/536/164 388/539/167 386/483/129 382/482/128
f 385/537/165 389/540/168 391/541/169 387/538/166
f 387/538/166 391/541/169 392/542/170 388/539/167
f 388/539/167 392/542/170 390/484/130 386/483/129
f 389/540/168 393/543/171 395/544/172 391/541/169
f 391/541/169 395/544/172 396/545/173 392/542/170
f 392/542/170 396/545/173 394/485/131 390/484/130
f 393/543/171 397/546/174 399/547/175 395/544/172
f 395/544/172 399/547/175 400/548/176 396/545/173
f 396/545/173 400/548/176 398/486/132 394/485/131
f 397/546/174 401/549/177 403/550/178 399/547/175
f 399/547/175 403/550/178 404/551/179 400/548/176
f 400/548/176 404/551/179 402/487/133 398/486/132
f 401/549/177 405/552/180 407/553/181 403/550/178
f 403/550/178 407/553/181 408/554/182 404/551/179
f 404/551/179 408/554/182 406/488/134 402/487/133
f 405/552/180 409/555/183 411/556/184 407/553/181
f 407/553/181 411/556/184 412/557/185 408/554/182
f 408/554/182 412/557/185 410/489/135 406/488/134
f 409/555/183 413/558/186 415/559/187 411/556/184
f 411/556/184 415/559/187 416/560/188 412/557/185
f 412/557/185 416/560/188 414/490/136 410/489/135
f 413/558/186 417/561/189 419/562/190 415/559/187
f 415/559/187 419/562/190 420/563/191 416/560/188
f 416/560/188 420/563/191 418/491/137 414/490/136
f 417/561/189 421/564/192 423/565/193 419/562/190
f 419/562/190 423/565/193 424/566/194 420/563/191
f 420/563/191 424/566/194 422/492/138 418/491/137
f 421/564/192 425/567/195 427/568/196 423/565/193
f 423/565/193 427/568/196 428/569/197 424/566/194
f 424/566/194 428/569/197 426/493/139 422/492/138
f 425/567/195 429/570/198 431/571/199 427/568/196
f 427/568/196 431/571/199 432/572/200 428/569/197
f 428/569/197 432/572/200 430/494/140 426/493/139
f 429/570/198 433/573/201 435/574/202 431/571/199
f 431/571/199 435/574/202 436/575/203 432/572/200
f 432/572/200 436/575/203 434/495/141 430/494/140
f 433/573/201 437/576/204 439/577/205 435/574/202
f 435/574/202 439/577/205 440/578/206 436/575/203
f 436/575/203 440/578/206 438/496/142 434/495/141
f 437/576/204 441/579/207 443/580/208 439/577/205
f 439/577/205 443/580/208 444/581/209 440/578/206
f 440/578/206 444/581/209 442/497/143 438/496/142
f 441/579/207 445/582/210 447/583/211 443/580/208
f 443/580/208 447/583/211 448/584/212 444/581/209
f 444/581/209 448/584/212 446/498/144 442/497/143
f 445/582/210 449/585/213 451/586/214 447/583/211
f 447/583/211 451/586/214 452/587/215 448/584/212
f 448/584/212 452/587/215 450/499/145 446/498/144
f 449/585/213 453/588/216 455/589/217 451/586/214
f 451/586/214 455/589/217 456/590/218 452/587/215
f 452/587/215 456/590/218 454/500/146 450/499/145
f 453/588/216 362/519/147 364/522/150 455/589/217
f 455/589/217 364/522/150 363/524/152 456/590/218
f 456/590/218 363/524/152 361/477/123 454/500/146
f 337/468/13 338/467/14 365/504/14 362/473/13
f 504/591/219 494/592/220 480/125/220 466/116/219
f 503/593/221 493/594/222 479/123/222 465/112/221
f 502/595/223 492/596/224 478/121/224 464/108/223
f 501/597/225 491/598/226 477/119/226 463/104/225
f 500/599/227 490/600/228 476/115/228 462/100/227
f 499/601/229 489/602/230 475/111/230 461/96/229
f 497/603/231 488/604/232 474/107/232 459/88/231
f 496/605/233 484/606/234 470/91/234 458/84/233
f 498/607/235 487/608/236 473/103/236 460/92/235
f 495/609/237 486/610/238 472/127/238 457/50/237
f 494/592/220 485/611/239 471/95/239 480/125/220
f 493/594/222 483/612/240 469/87/240 479/123/222
f 492/596/224 482/613/241 468/83/241 478/121/224
f 491/598/226 481/614/242 467/49/242 477/119/226
f 490/600/228 504/591/219 466/116/219 476/115/228
f 489/602/230 503/593/221 465/112/221 475/111/230
f 488/604/232 502/595/223 464/108/223 474/107/232
f 487/608/236 501/597/225 463/104/225 473/103/236
f 486/615/238 500/599/227 462/100/227 472/99/238
f 485/611/239 499/601/229 461/96/229 471/95/239
f 484/606/234 498/607/235 460/92/235 470/91/234
f 483/612/240 497/603/231 459/88/231 469/87/240
f 482/613/241 496/605/233 458/84/233 468/83/241
f 481/614/242 495/609/237 457/50/237 467/49/242
f 131/202/97 121/198/93 495/616/93 481/617/97
f 132/201/96 122/194/89 496/618/89 482/619/96
f 133/200/95 123/192/87 497/620/87 483/621/95
f 134/193/88 124/196/91 498/622/91 484/623/88
f 135/199/94 125/190/85 499/624/85 485/625/94
f 136/203/92 126/188/83 500/626/83 486/627/92
f 137/195/90 127/186/81 501/628/81 487/629/90
f 138/191/86 128/184/79 502/630/79 488/631/86
f 139/189/84 129/182/77 503/632/77 489/633/84
f 140/187/82 130/180/75 504/634/75 490/635/82
f 141/185/80 131/202/97 481/617/97 491/636/80
f 142/183/78 132/201/96 482/619/96 492/637/78
f 143/181/76 133/200/95 483/621/95 493/638/76
f 144/179/74 135/199/94 485/625/94 494/639/74
f 121/198/93 136/197/92 486/640/92 495/616/93
f 124/196/91 137/195/90 487/629/90 498/622/91
f 122/194/89 134/193/88 484/623/88 496/618/89
f 123/192/87 138/191/86 488/631/86 497/620/87
f 125/190/85 139/189/84 489/633/84 499/624/85
f 126/188/83 140/187/82 490/635/82 500/626/83
f 127/186/81 141/185/80 491/636/80 501/628/81
f 128/184/79 142/183/78 492/637/78 502/630/79
f 129/182/77 143/181/76 493/638/76 503/632/77
f 130/180/75 144/179/74 494/639/74 504/634/75
f 505/641/243 506/642/243 508/643/2 507/644/2
f 507/644/2 508/643/2 510/645/3 509/646/3
f 509/646/3 510/645/3 512/647/4 511/648/4
f 511/648/4 512/647/4 514/649/5 513/650/5
f 513/650/5 514/649/5 516/651/6 515/652/6
f 515/652/6 516/651/6 518/653/7 517/654/7
f 517/654/7 518/653/7 520/655/8 519/656/8
f 519/656/8 520/655/8 522/657/9 521/658/9
f 521/658/9 522/657/9 524/659/10 523/660/10
f 523/660/10 524/659/10 526/661/11 525/662/11
f 525/662/11 526/661/11 528/663/12 527/664/12
f 527/664/12 528/663/12 530/665/244 529/666/244
f 529/666/244 530/665/244 532/667/245 531/668/245
f 508/669/27 506/670/27 534/671/27 532/672/27 530/673/27 528/674/27 526/675/27 524/676/27 522/677/27 520/678/27 518/679/27 516/680/27 514/681/27 512/682/27 510/683/27
f 533/684/246 534/685/246 506/642/243 505/641/243
f 505/686/98 507/687/98 509/688/98 511/689/98 513/690/98 515/691/98 517/692/98 519/693/98 521/694/98 523/695/98 525/696/98 527/697/98 529/698/98 531/699/98 533/700/98
s 0
f 537/701/247 538/702/247 542/703/247 541/704/247
f 539/705/248 540/706/248 536/707/248 535/708/248
f 537/701/249 541/704/249 539/709/249 535/710/249
f 542/703/250 538/702/250 536/707/250 540/706/250
f 545/711/251 549/712/251 550/713/251 546/714/251
f 547/715/252 543/716/252 544/717/252 548/718/252
f 545/711/253 543/719/253 547/720/253 549/712/253
f 550/713/254 548/718/254 544/717/254 546/714/254
f 553/721/255 554/722/255 558/723/255 557/724/255
f 555/725/256 556/726/256 552/727/256 551/728/256
f 553/729/257 557/730/257 555/725/257 551/728/257
f 558/723/258 554/722/258 552/727/258 556/726/258
f 561/731/259 565/732/259 566/733/259 562/734/259
f 563/735/260 559/736/260 560/737/260 564/738/260
f 561/739/261 559/736/261 563/735/261 565/740/261
f 566/733/262 564/738/262 560/737/262 562/734/262
s 1
f 567/741/2 591/742/2 592/743/4 569/744/4
f 570/745/4 572/746/6 617/747/6 616/748/4
f 572/746/6 574/749/8 618/750/8 617/747/6
f 574/749/8 576/751/10 619/752/10 618/750/8
f 576/751/10 578/753/12 620/754/12 619/752/10
f 578/753/12 580/755/14 621/756/14 620/754/12
f 580/755/14 582/757/16 622/758/16 621/756/14
f 582/757/16 584/759/18 623/760/18 622/758/16
f 584/761/18 586/762/20 624/763/20 623/764/18
f 586/762/20 588/765/22 625/766/22 624/763/20
f 588/765/22 590/767/26 626/768/26 625/766/22
f 568/769/27 590/770/27 588/771/27 586/772/27 584/773/27 582/774/27 580/775/27 578/776/27 576/777/27 574/778/27 572/779/27 570/780/27
f 614/781/26 603/782/2 744/783/263 765/784/264
f 602/785/26 591/742/2 567/741/2 589/786/26
f 587/787/22 601/788/22 602/785/26 589/786/26
f 585/789/20 600/790/20 601/788/22 587/787/22
f 583/791/18 599/792/18 600/790/20 585/789/20
f 581/793/16 598/794/16 599/792/18 583/791/18
f 579/795/14 597/796/14 598/794/16 581/793/16
f 577/797/12 596/798/12 597/796/14 579/795/14
f 575/799/10 595/800/10 596/798/12 577/797/12
f 573/801/8 594/802/8 595/800/10 575/799/10
f 571/803/6 593/804/6 594/802/8 573/801/8
f 569/744/4 592/743/4 593/804/6 571/803/6
f 591/742/265 743/805/266 745/806/267 592/743/268
f 744/807/263 603/782/2 604/808/4 746/809/269
f 764/810/270 613/811/22 614/781/26 765/812/264
f 762/813/271 612/814/20 613/811/22 764/815/270
f 760/816/272 611/817/18 612/814/20 762/818/271
f 758/819/273 610/820/16 611/817/18 760/816/272
f 756/821/274 609/822/14 610/820/16 758/823/273
f 754/824/275 608/825/12 609/822/14 756/826/274
f 752/827/276 607/828/10 608/825/12 754/829/275
f 750/830/277 606/831/8 607/828/10 752/832/276
f 748/833/278 605/834/6 606/831/8 750/835/277
f 746/836/269 604/808/4 605/834/6 748/837/278
f 603/782/27 615/838/27 616/839/27 604/808/27
f 592/743/268 745/806/267 747/840/279 593/804/280
f 601/788/281 763/841/282 766/842/283 602/785/284
f 600/790/285 761/843/286 763/841/282 601/788/281
f 599/792/287 759/844/288 761/845/286 600/790/285
f 598/794/289 757/846/290 759/847/288 599/792/287
f 597/796/291 755/848/292 757/846/290 598/794/289
f 596/798/293 753/849/294 755/850/292 597/796/291
f 595/800/295 751/851/296 753/849/294 596/798/293
f 594/802/297 749/852/298 751/851/296 595/800/295
f 593/804/280 747/853/279 749/852/298 594/802/297
f 568/854/2 570/745/4 616/748/4 615/855/2
f 626/856/27 615/838/27 603/782/27 614/781/27
f 613/811/27 625/857/27 626/856/27 614/781/27
f 612/814/27 624/858/27 625/857/27 613/811/27
f 611/817/27 623/859/27 624/858/27 612/814/27
f 610/820/27 622/860/27 623/859/27 611/817/27
f 609/822/27 621/861/27 622/860/27 610/820/27
f 608/825/27 620/862/27 621/861/27 609/822/27
f 607/828/27 619/863/27 620/862/27 608/825/27
f 606/831/27 618/864/27 619/863/27 607/828/27
f 605/834/27 617/865/27 618/864/27 606/831/27
f 604/808/27 616/839/27 617/865/27 605/834/27
f 630/866/3 632/867/5 631/868/5 629/869/3
f 632/867/5 634/870/7 633/871/7 631/868/5
f 634/870/7 636/872/9 635/873/9 633/871/7
f 636/872/9 638/874/11 637/875/11 635/873/9
f 638/874/11 640/876/13 639/877/13 637/875/11
f 640/876/13 642/878/15 641/879/15 639/877/13
f 642/878/15 644/880/17 643/881/17 641/879/15
f 644/880/17 646/882/19 645/883/19 643/881/17
f 646/884/19 648/885/21 647/886/21 645/887/19
f 648/885/21 650/888/23 649/889/23 647/886/21
f 650/888/23 628/890/1 627/891/1 649/889/23
f 644/892/299 642/893/299 658/894/299 659/895/299
f 636/896/98 655/897/98 656/898/300 638/899/300
f 653/900/5 652/901/3 664/902/3 665/903/5
f 646/904/98 660/905/98 661/906/299 648/907/299
f 632/908/300 630/909/98 652/901/98 653/900/300
f 634/910/98 654/911/98 655/897/98 636/896/98
f 630/909/98 628/912/98 651/913/98 652/901/98
f 642/893/299 640/914/98 657/915/98 658/894/299
f 644/892/299 659/895/299 660/916/98 646/917/98
f 628/912/98 650/918/98 662/919/98 651/913/98
f 632/908/300 653/900/300 654/911/98 634/910/98
f 640/914/98 638/899/300 656/898/300 657/915/98
f 650/918/98 648/907/299 661/906/299 662/919/98
f 655/897/9 667/920/9 668/921/11 656/898/11
f 669/922/301 693/923/301 694/924/302 670/925/302
f 659/895/17 671/926/17 672/927/19 660/916/19
f 657/915/13 656/898/11 668/921/11 669/922/13
f 661/906/21 660/905/19 672/928/19 673/929/21
f 654/911/7 653/900/5 665/903/5 666/930/7
f 658/894/15 657/915/13 669/922/13 670/925/15
f 662/919/23 661/906/21 673/929/21 674/931/23
f 655/897/9 654/911/7 666/930/7 667/920/9
f 659/895/17 658/894/15 670/925/15 671/926/17
f 651/913/1 662/919/23 674/931/23 663/932/1
f 652/901/3 651/913/1 663/932/1 664/902/3
f 674/931/303 673/929/304 697/933/304 698/934/303
f 626/768/26 590/767/26 568/854/2 615/855/2
f 667/920/305 666/930/306 690/935/306 691/936/305
f 671/926/307 670/925/302 694/924/302 695/937/307
f 663/932/308 674/931/303 698/934/303 687/938/308
f 664/902/309 663/932/308 687/938/308 688/939/309
f 668/921/310 667/920/305 691/936/305 692/940/310
f 672/927/311 671/926/307 695/937/307 696/941/311
f 665/903/312 664/902/309 688/939/309 689/942/312
f 669/922/301 668/921/310 692/940/310 693/923/301
f 673/929/304 672/928/311 696/943/311 697/933/304
f 666/930/306 665/903/312 689/942/312 690/935/306
f 675/944/27 676/945/27 688/946/27 687/947/27
f 676/945/27 677/948/313 689/949/313 688/946/27
f 677/948/313 678/950/313 690/951/313 689/949/313
f 678/950/313 679/952/27 691/953/27 690/951/313
f 679/952/27 680/954/27 692/955/27 691/953/27
f 680/954/27 681/956/27 693/957/27 692/955/27
f 681/956/27 682/958/27 694/959/27 693/957/27
f 682/958/27 683/960/27 695/961/27 694/959/27
f 683/960/27 684/962/27 696/963/27 695/961/27
f 684/962/27 685/964/27 697/965/27 696/963/27
f 685/964/27 686/966/27 698/967/27 697/965/27
f 686/966/27 675/944/27 687/947/27 698/967/27
f 703/968/314 699/969/315 701/970/316 704/971/317
f 675/944/13 686/966/11 733/972/11 699/973/13
f 684/962/7 683/960/5 724/974/5 727/975/7
f 680/954/23 679/952/21 712/976/21 715/977/23
f 677/948/17 676/945/15 703/978/15 706/979/17
f 681/956/1 680/954/23 715/977/23 718/980/1
f 700/981/318 732/982/319 729/983/320 726/984/321 723/985/322 720/986/323 717/987/324 714/988/325 711/989/326 708/990/327 705/991/328 702/992/329
f 685/964/9 684/962/7 727/975/7 730/993/9
f 678/950/19 677/948/17 706/979/17 709/994/19
f 682/958/3 681/956/1 718/980/1 721/995/3
f 685/964/9 730/993/9 733/972/11 686/966/11
f 678/950/19 709/994/19 712/976/21 679/952/21
f 683/960/5 682/958/3 721/995/3 724/974/5
f 704/971/317 701/970/316 700/981/318 702/992/329
f 706/996/330 703/968/314 704/971/317 707/997/331
f 707/997/331 704/971/317 702/992/329 705/991/328
f 709/998/332 706/996/330 707/997/331 710/999/333
f 710/999/333 707/997/331 705/991/328 708/990/327
f 712/1000/334 709/998/332 710/999/333 713/1001/335
f 713/1001/335 710/999/333 708/990/327 711/989/326
f 715/1002/336 712/1000/334 713/1001/335 716/1003/337
f 716/1003/337 713/1001/335 711/989/326 714/988/325
f 718/1004/338 715/1002/336 716/1003/337 719/1005/339
f 719/1005/339 716/1003/337 714/988/325 717/987/324
f 721/1006/340 718/1004/338 719/1005/339 722/1007/341
f 722/1007/341 719/1005/339 717/987/324 720/986/323
f 724/1008/342 721/1006/340 722/1007/341 725/1009/343
f 725/1009/343 722/1007/341 720/986/323 723/985/322
f 727/1010/344 724/1008/342 725/1009/343 728/1011/345
f 728/1011/345 725/1009/343 723/985/322 726/984/321
f 730/1012/346 727/1010/344 728/1011/345 731/1013/347
f 731/1013/347 728/1011/345 726/984/321 729/983/320
f 733/1014/348 730/1012/346 731/1013/347 734/1015/349
f 734/1015/349 731/1013/347 729/983/320 732/982/319
f 699/969/315 733/1014/348 734/1015/349 701/970/316
f 701/970/316 734/1015/349 732/982/319 700/981/318
f 675/944/13 699/973/13 703/978/15 676/945/15
f 628/890/1 630/866/3 629/869/3 627/891/1
s 0
f 735/1016/350 737/1017/350 738/1018/350 736/1019/350
f 737/1020/98 741/1021/98 742/1022/98 738/1023/98
f 741/1024/351 739/1025/351 740/1026/351 742/1027/351
f 739/1028/27 735/1029/27 736/1030/27 740/1031/27
f 737/1020/19 735/1029/19 739/1028/19 741/1021/19
f 742/1027/7 740/1026/7 736/1019/7 738/1018/7
s 1
f 764/810/270 765/812/264 766/842/283 763/841/282
f 762/813/271 764/815/270 763/841/282 761/843/286
f 760/816/272 762/818/271 761/845/286 759/844/288
f 758/819/273 760/816/272 759/847/288 757/846/290
f 756/821/274 758/823/273 757/846/290 755/848/292
f 754/824/275 756/826/274 755/850/292 753/849/294
f 752/827/276 754/829/275 753/849/294 751/851/296
f 750/830/277 752/832/276 751/851/296 749/852/298
f 748/833/278 750/835/277 749/852/298 747/853/279
f 746/836/269 748/837/278 747/840/279 745/806/267
f 744/807/263 746/809/269 745/806/267 743/805/266
f 765/784/264 744/783/263 743/805/266 766/1032/283
f 766/1032/283 743/805/266 591/742/265 602/785/284
