# Blender 4.1.1
# www.blender.org
o SmokestackModular_PipeSuperTall
v 0.173842 2.027152 -0.100368
v 0.193895 2.027152 -0.051954
v 0.193895 2.027152 0.051954
v 0.173842 2.027152 0.100368
v 0.051954 2.027152 0.193895
v -0.000000 2.027152 0.200735
v -0.051954 2.027152 0.193895
v -0.200735 2.027152 0.000000
v -0.141941 2.027152 -0.141941
v -0.100368 2.027152 -0.173842
v -0.051954 2.027152 -0.193895
v 0.046257 2.053116 -0.172633
v -0.000000 2.053116 -0.178723
v 0.089361 2.053116 -0.154778
v 0.126376 2.053116 -0.126376
v 0.154778 2.053116 -0.089361
v 0.172633 2.053116 -0.046257
v 0.178723 2.053116 0.000000
v 0.172633 2.053116 0.046257
v 0.154778 2.053116 0.089361
v 0.126376 2.053116 0.126376
v 0.089361 2.053116 0.154778
v 0.046257 2.053116 0.172633
v -0.000000 2.053116 0.178723
v -0.046257 2.053116 0.172633
v -0.089361 2.053116 0.154778
v -0.126376 2.053116 0.126376
v -0.154778 2.053116 0.089361
v -0.172633 2.053116 0.046257
v -0.178723 2.053116 0.000000
v -0.172633 2.053116 -0.046257
v -0.154778 2.053116 -0.089361
v -0.126376 2.053116 -0.126376
v -0.089361 2.053116 -0.154778
v -0.046257 2.053116 -0.172633
v -0.181585 2.027152 -0.104838
v -0.202532 2.027152 0.054268
v -0.181585 2.027152 0.104838
v -0.148264 2.027152 0.148264
v -0.104838 2.027152 0.181585
v -0.054268 2.027152 0.202532
v 0.054268 2.027152 0.202532
v 0.104838 2.027152 0.181585
v 0.202532 2.027152 0.054268
v 0.209677 2.027152 0.000000
v 0.148264 2.027152 -0.148264
v 0.104838 2.027152 -0.181585
v 0.054268 2.027152 -0.202532
v 0.052999 2.053116 -0.197796
v -0.000000 2.053116 -0.204774
v 0.102387 2.053116 -0.177339
v 0.144797 2.053116 -0.144797
v 0.177339 2.053116 -0.102387
v 0.197796 2.053116 -0.052999
v 0.204774 2.053116 0.000000
v 0.197796 2.053116 0.052999
v 0.177339 2.053116 0.102387
v 0.144797 2.053116 0.144797
v 0.102387 2.053116 0.177339
v 0.052999 2.053116 0.197796
v -0.000000 2.053116 0.204774
v -0.052999 2.053116 0.197796
v -0.102387 2.053116 0.177339
v -0.144797 2.053116 0.144797
v -0.177339 2.053116 0.102387
v -0.197796 2.053116 0.052999
v -0.204774 2.053116 0.000000
v -0.197796 2.053116 -0.052999
v -0.177339 2.053116 -0.102387
v -0.144797 2.053116 -0.144797
v -0.102387 2.053116 -0.177339
v -0.052999 2.053116 -0.197796
v 0.000000 0.087144 0.000000
v 0.202418 2.027152 -0.054238
v -0.148180 2.027152 -0.148180
v 0.156025 0.225356 -0.090081
v -0.174023 0.225356 -0.046629
v -0.000000 0.225356 0.180162
v -0.000000 0.225356 -0.180162
v 0.090081 0.225356 -0.156025
v -0.174023 0.225356 0.046629
v 0.090081 0.225356 0.156025
v 0.127394 0.225356 -0.127394
v -0.180162 0.225356 0.000000
v 0.046629 0.225356 0.174023
v 0.127394 0.225356 0.127394
v -0.156025 0.225356 0.090081
v 0.046629 0.225356 -0.174023
v -0.046629 0.225356 -0.174023
v 0.156025 0.225356 0.090081
v -0.127394 0.225356 0.127394
v -0.090081 0.225356 -0.156025
v 0.174023 0.225356 0.046629
v -0.090081 0.225356 0.156025
v -0.127394 0.225356 -0.127394
v 0.180162 0.225356 0.000000
v -0.046629 0.225356 0.174023
v -0.156025 0.225356 -0.090081
v 0.174023 0.225356 -0.046629
v 0.056192 2.040134 -0.209712
v -0.108555 2.040134 0.188023
v -0.000000 2.040134 -0.217110
v -0.153520 2.040134 0.153520
v 0.217110 2.040134 0.000000
v 0.188023 2.040134 0.108555
v -0.108555 2.040134 -0.188023
v -0.188023 2.040134 0.108555
v -0.188023 2.040134 -0.108555
v 0.056192 2.040134 0.209712
v -0.056192 2.040134 0.209712
v 0.209712 2.040134 0.056192
v 0.108555 2.040134 -0.188023
v -0.217110 2.040134 0.000000
v 0.108555 2.040134 0.188023
v -0.209712 2.040134 0.056192
v -0.000000 2.040134 0.217110
v 0.153520 2.040134 -0.153520
v -0.056176 2.040134 -0.209653
v 0.153477 2.040134 0.153477
v -0.209653 2.040134 -0.056176
v -0.153477 2.040134 -0.153477
v 0.209653 2.040134 -0.056176
v 0.187970 2.040134 -0.108525
v 0.051954 2.027152 -0.193895
v -0.000000 2.027152 -0.200735
v 0.100368 2.027152 -0.173842
v 0.141941 2.027152 -0.141941
v 0.200735 2.027152 0.000000
v 0.141941 2.027152 0.141941
v 0.100368 2.027152 0.173842
v -0.100368 2.027152 0.173842
v -0.141941 2.027152 0.141941
v -0.173842 2.027152 0.100368
v -0.193895 2.027152 0.051954
v -0.193895 2.027152 -0.051954
v -0.173842 2.027152 -0.100368
v -0.104838 2.027152 -0.181585
v -0.209677 2.027152 0.000000
v -0.000000 2.027152 0.209677
v 0.181585 2.027152 0.104838
v -0.000000 2.027152 -0.209677
v 0.181483 2.027152 -0.104779
v 0.148180 2.027152 0.148180
v -0.202418 2.027152 -0.054238
v -0.054238 2.027152 -0.202418
v 0.165796 1.174735 -0.095722
v -0.000000 1.174735 0.191444
v -0.191444 1.174735 0.000000
v 0.049549 1.174735 0.184921
v -0.049549 1.174735 -0.184921
v 0.165796 1.174735 0.095722
v -0.095722 1.174735 -0.165796
v 0.184921 1.174735 0.049549
v -0.135372 1.174735 -0.135372
v -0.049549 1.174735 0.184921
v 0.184921 1.174735 -0.049549
v -0.184921 1.174735 -0.049549
v -0.000000 1.174735 -0.191444
v 0.095722 1.174735 -0.165796
v -0.184921 1.174735 0.049549
v 0.095722 1.174735 0.165796
v 0.135372 1.174735 -0.135372
v 0.135372 1.174735 0.135372
v -0.165796 1.174735 0.095722
v 0.049549 1.174735 -0.184921
v -0.135372 1.174735 0.135372
v -0.095722 1.174735 0.165796
v 0.191444 1.174735 0.000000
v -0.165796 1.174735 -0.095722
v -0.189652 0.987464 0.000000
v 0.049086 0.987464 0.183190
v -0.049086 0.987464 -0.183190
v 0.164244 0.987464 0.094826
v -0.094826 0.987464 -0.164244
v 0.183190 0.987464 0.049086
v -0.134104 0.987464 -0.134104
v -0.049086 0.987464 0.183190
v 0.183190 0.987464 -0.049086
v 0.094826 0.987464 -0.164244
v -0.183190 0.987464 0.049086
v 0.094826 0.987464 0.164244
v 0.134104 0.987464 -0.134104
v 0.134104 0.987464 0.134104
v -0.164244 0.987464 0.094826
v 0.049086 0.987464 -0.183190
v -0.134104 0.987464 0.134104
v -0.094826 0.987464 0.164244
v 0.189652 0.987464 0.000000
v -0.164244 0.987464 -0.094826
v 0.164244 0.987464 -0.094826
v -0.000000 0.987464 0.189652
v -0.183190 0.987464 -0.049086
v -0.000000 0.987464 -0.189652
v 0.166680 1.224462 -0.096233
v -0.000000 1.224462 0.192466
v -0.185907 1.224462 -0.049814
v -0.000000 1.224462 -0.192466
v -0.192466 1.224462 0.000000
v 0.049814 1.224462 0.185907
v -0.049814 1.224462 -0.185907
v 0.166680 1.224462 0.096233
v -0.096233 1.224462 -0.166680
v 0.185907 1.224462 0.049814
v -0.136094 1.224462 -0.136094
v -0.049814 1.224462 0.185907
v 0.185907 1.224462 -0.049814
v 0.096233 1.224462 -0.166680
v -0.185907 1.224462 0.049814
v 0.096233 1.224462 0.166680
v 0.136094 1.224462 -0.136094
v 0.136094 1.224462 0.136094
v -0.166680 1.224462 0.096233
v 0.049814 1.224462 -0.185907
v -0.136094 1.224462 0.136094
v -0.096233 1.224462 0.166680
v 0.192466 1.224462 0.000000
v -0.166680 1.224462 -0.096233
v 0.168080 1.403149 -0.097041
v -0.000000 1.403149 0.194081
v -0.187468 1.403149 -0.050232
v -0.000000 1.403149 -0.194081
v -0.194081 1.403149 0.000000
v 0.050232 1.403149 0.187468
v -0.050232 1.403149 -0.187468
v 0.168080 1.403149 0.097041
v -0.097041 1.403149 -0.168080
v 0.187468 1.403149 0.050232
v -0.137236 1.403149 -0.137236
v -0.050232 1.403149 0.187468
v 0.187468 1.403149 -0.050232
v 0.097041 1.403149 -0.168080
v -0.187468 1.403149 0.050232
v 0.097041 1.403149 0.168080
v 0.137236 1.403149 -0.137236
v 0.137236 1.403149 0.137236
v -0.168080 1.403149 0.097041
v 0.050232 1.403149 -0.187468
v -0.137236 1.403149 0.137236
v -0.097041 1.403149 0.168080
v 0.194081 1.403149 0.000000
v -0.168080 1.403149 -0.097041
v 0.169131 1.462261 -0.097648
v -0.000000 1.462261 0.195295
v -0.188641 1.462261 -0.050546
v -0.000000 1.462261 -0.195295
v -0.195295 1.462261 0.000000
v 0.050546 1.462261 0.188641
v -0.050546 1.462261 -0.188641
v 0.169131 1.462261 0.097648
v -0.097648 1.462261 -0.169131
v 0.188641 1.462261 0.050546
v -0.138095 1.462261 -0.138095
v -0.050546 1.462261 0.188641
v 0.188641 1.462261 -0.050546
v 0.097648 1.462261 -0.169131
v -0.188641 1.462261 0.050546
v 0.097648 1.462261 0.169131
v 0.138095 1.462261 -0.138095
v 0.138095 1.462261 0.138095
v -0.169131 1.462261 0.097648
v 0.050546 1.462261 -0.188641
v -0.138095 1.462261 0.138095
v -0.097648 1.462261 0.169131
v 0.195295 1.462261 0.000000
v -0.169131 1.462261 -0.097648
v 0.170284 1.627104 -0.098314
v -0.000000 1.627104 0.196627
v -0.189927 1.627104 -0.050891
v -0.000000 1.627104 -0.196627
v -0.196627 1.627104 0.000000
v 0.050891 1.627104 0.189927
v -0.050891 1.627104 -0.189927
v 0.170284 1.627104 0.098314
v -0.098314 1.627104 -0.170284
v 0.189927 1.627104 0.050891
v -0.139036 1.627104 -0.139036
v -0.050891 1.627104 0.189927
v 0.189927 1.627104 -0.050891
v 0.098314 1.627104 -0.170284
v -0.189927 1.627104 0.050891
v 0.098314 1.627104 0.170284
v 0.139036 1.627104 -0.139036
v 0.139036 1.627104 0.139036
v -0.170284 1.627104 0.098314
v 0.050891 1.627104 -0.189927
v -0.139036 1.627104 0.139036
v -0.098314 1.627104 0.170284
v 0.196627 1.627104 0.000000
v -0.170284 1.627104 -0.098314
v 0.171297 1.684062 -0.098898
v -0.000000 1.684062 0.197797
v -0.191057 1.684062 -0.051194
v -0.000000 1.684062 -0.197797
v -0.197797 1.684062 0.000000
v 0.051194 1.684062 0.191057
v -0.051194 1.684062 -0.191057
v 0.171297 1.684062 0.098898
v -0.098898 1.684062 -0.171297
v 0.191057 1.684062 0.051194
v -0.139863 1.684062 -0.139863
v -0.051194 1.684062 0.191057
v 0.191057 1.684062 -0.051194
v 0.098898 1.684062 -0.171297
v -0.191057 1.684062 0.051194
v 0.098898 1.684062 0.171297
v 0.139863 1.684062 -0.139863
v 0.139863 1.684062 0.139863
v -0.171297 1.684062 0.098898
v 0.051194 1.684062 -0.191057
v -0.139863 1.684062 0.139863
v -0.098898 1.684062 0.171297
v 0.197797 1.684062 0.000000
v -0.171297 1.684062 -0.098898
v 0.172251 1.837721 -0.099449
v -0.000000 1.837721 0.198899
v -0.192121 1.837721 -0.051479
v -0.000000 1.837721 -0.198899
v -0.198899 1.837721 0.000000
v 0.051479 1.837721 0.192121
v -0.051479 1.837721 -0.192121
v 0.172251 1.837721 0.099449
v -0.099449 1.837721 -0.172251
v 0.192121 1.837721 0.051479
v -0.140643 1.837721 -0.140643
v -0.051479 1.837721 0.192121
v 0.192121 1.837721 -0.051479
v 0.099449 1.837721 -0.172251
v -0.192121 1.837721 0.051479
v 0.099449 1.837721 0.172251
v 0.140643 1.837721 -0.140643
v 0.140643 1.837721 0.140643
v -0.172251 1.837721 0.099449
v 0.051479 1.837721 -0.192121
v -0.140643 1.837721 0.140643
v -0.099449 1.837721 0.172251
v 0.198899 1.837721 0.000000
v -0.172251 1.837721 -0.099449
v 0.173171 1.889423 -0.099980
v -0.000000 1.889423 0.199961
v -0.193147 1.889423 -0.051754
v -0.000000 1.889423 -0.199961
v -0.199961 1.889423 0.000000
v 0.051754 1.889423 0.193147
v -0.051754 1.889423 -0.193147
v 0.173171 1.889423 0.099980
v -0.099980 1.889423 -0.173171
v 0.193147 1.889423 0.051754
v -0.141393 1.889423 -0.141393
v -0.051754 1.889423 0.193147
v 0.193147 1.889423 -0.051754
v 0.099980 1.889423 -0.173171
v -0.193147 1.889423 0.051754
v 0.099980 1.889423 0.173171
v 0.141393 1.889423 -0.141393
v 0.141393 1.889423 0.141393
v -0.173171 1.889423 0.099980
v 0.051754 1.889423 -0.193147
v -0.141393 1.889423 0.141393
v -0.099980 1.889423 0.173171
v 0.199961 1.889423 0.000000
v -0.173171 1.889423 -0.099980
v -0.188471 0.929971 0.000000
v 0.048780 0.929971 0.182049
v -0.048780 0.929971 -0.182049
v 0.163221 0.929971 0.094236
v -0.094236 0.929971 -0.163221
v 0.182049 0.929971 0.048780
v -0.133269 0.929971 -0.133269
v -0.048780 0.929971 0.182049
v 0.182049 0.929971 -0.048780
v 0.094236 0.929971 -0.163221
v -0.182049 0.929971 0.048780
v 0.094236 0.929971 0.163221
v 0.133269 0.929971 -0.133269
v 0.133269 0.929971 0.133269
v -0.163221 0.929971 0.094236
v 0.048780 0.929971 -0.182049
v -0.133269 0.929971 0.133269
v -0.094236 0.929971 0.163221
v 0.188471 0.929971 0.000000
v -0.163221 0.929971 -0.094236
v 0.163221 0.929971 -0.094236
v -0.000000 0.929971 0.188471
v -0.182049 0.929971 -0.048780
v -0.000000 0.929971 -0.188471
v -0.186611 0.739362 0.000000
v 0.048298 0.739362 0.180252
v -0.048298 0.739362 -0.180252
v 0.161610 0.739362 0.093305
v -0.093305 0.739362 -0.161610
v 0.180252 0.739362 0.048298
v -0.131954 0.739362 -0.131954
v -0.048298 0.739362 0.180252
v 0.180252 0.739362 -0.048298
v 0.093305 0.739362 -0.161610
v -0.180252 0.739362 0.048298
v 0.093305 0.739362 0.161610
v 0.131954 0.739362 -0.131954
v 0.131954 0.739362 0.131954
v -0.161610 0.739362 0.093305
v 0.048298 0.739362 -0.180252
v -0.131954 0.739362 0.131954
v -0.093305 0.739362 0.161610
v 0.186611 0.739362 0.000000
v -0.161610 0.739362 -0.093305
v 0.161610 0.739362 -0.093305
v -0.000000 0.739362 0.186611
v -0.180252 0.739362 -0.048298
v -0.000000 0.739362 -0.186611
v -0.185254 0.673321 0.000000
v 0.047947 0.673321 0.178942
v -0.047947 0.673321 -0.178942
v 0.160435 0.673321 0.092627
v -0.092627 0.673321 -0.160435
v 0.178942 0.673321 0.047947
v -0.130995 0.673321 -0.130995
v -0.047947 0.673321 0.178942
v 0.178942 0.673321 -0.047947
v 0.092627 0.673321 -0.160435
v -0.178942 0.673321 0.047947
v 0.092627 0.673321 0.160435
v 0.130995 0.673321 -0.130995
v 0.130995 0.673321 0.130995
v -0.160435 0.673321 0.092627
v 0.047947 0.673321 -0.178942
v -0.130995 0.673321 0.130995
v -0.092627 0.673321 0.160435
v 0.185254 0.673321 0.000000
v -0.160435 0.673321 -0.092627
v 0.160435 0.673321 -0.092627
v -0.000000 0.673321 0.185254
v -0.178942 0.673321 -0.047947
v -0.000000 0.673321 -0.185254
v -0.183698 0.497548 0.000000
v 0.047545 0.497548 0.177439
v -0.047545 0.497548 -0.177439
v 0.159087 0.497548 0.091849
v -0.091849 0.497548 -0.159087
v 0.177439 0.497548 0.047545
v -0.129894 0.497548 -0.129894
v -0.047545 0.497548 0.177439
v 0.177439 0.497548 -0.047545
v 0.091849 0.497548 -0.159087
v -0.177439 0.497548 0.047545
v 0.091849 0.497548 0.159087
v 0.129894 0.497548 -0.129894
v 0.129894 0.497548 0.129894
v -0.159087 0.497548 0.091849
v 0.047545 0.497548 -0.177439
v -0.129894 0.497548 0.129894
v -0.091849 0.497548 0.159087
v 0.183698 0.497548 0.000000
v -0.159087 0.497548 -0.091849
v 0.159087 0.497548 -0.091849
v -0.000000 0.497548 0.183698
v -0.177439 0.497548 -0.047545
v -0.000000 0.497548 -0.183698
v -0.182443 0.436447 0.000000
v 0.047220 0.436447 0.176227
v -0.047220 0.436447 -0.176227
v 0.158001 0.436447 0.091222
v -0.091222 0.436447 -0.158001
v 0.176227 0.436447 0.047220
v -0.129007 0.436447 -0.129007
v -0.047220 0.436447 0.176227
v 0.176227 0.436447 -0.047220
v 0.091222 0.436447 -0.158001
v -0.176227 0.436447 0.047220
v 0.091222 0.436447 0.158001
v 0.129007 0.436447 -0.129007
v 0.129007 0.436447 0.129007
v -0.158001 0.436447 0.091222
v 0.047220 0.436447 -0.176227
v -0.129007 0.436447 0.129007
v -0.091222 0.436447 0.158001
v 0.182443 0.436447 0.000000
v -0.158001 0.436447 -0.091222
v 0.158001 0.436447 -0.091222
v -0.000000 0.436447 0.182443
v -0.176227 0.436447 -0.047220
v -0.000000 0.436447 -0.182443
v -0.181132 0.272570 0.000000
v 0.046880 0.272570 0.174960
v -0.046880 0.272570 -0.174960
v 0.156865 0.272570 0.090566
v -0.090566 0.272570 -0.156865
v 0.174960 0.272570 0.046880
v -0.128079 0.272570 -0.128079
v -0.046880 0.272570 0.174960
v 0.174960 0.272570 -0.046880
v 0.090566 0.272570 -0.156865
v -0.174960 0.272570 0.046880
v 0.090566 0.272570 0.156865
v 0.128079 0.272570 -0.128079
v 0.128079 0.272570 0.128079
v -0.156865 0.272570 0.090566
v 0.046880 0.272570 -0.174960
v -0.128079 0.272570 0.128079
v -0.090566 0.272570 0.156865
v 0.181132 0.272570 0.000000
v -0.156865 0.272570 -0.090566
v 0.156865 0.272570 -0.090566
v -0.000000 0.272570 0.181132
v -0.174960 0.272570 -0.046880
v -0.000000 0.272570 -0.181132
vn 0.9658 -0.0131 -0.2588
vn 0.8660 -0.0131 -0.5000
vn 0.8660 -0.0056 -0.5000
vn 0.9659 -0.0056 -0.2588
vn -0.8660 -0.0131 -0.5000
vn -0.9658 -0.0131 -0.2588
vn -0.9659 -0.0056 -0.2588
vn -0.8660 -0.0056 -0.5000
vn -0.2588 -0.0131 0.9658
vn -0.0000 -0.0131 0.9999
vn -0.0000 -0.0056 1.0000
vn -0.2588 -0.0056 0.9659
vn 0.9999 -0.0131 -0.0000
vn 1.0000 -0.0056 -0.0000
vn -0.7070 -0.0131 -0.7070
vn -0.7071 -0.0056 -0.7071
vn -0.5000 -0.0131 0.8660
vn -0.5000 -0.0056 0.8660
vn 0.9658 -0.0131 0.2588
vn 0.9659 -0.0056 0.2588
vn -0.5000 -0.0131 -0.8660
vn -0.5000 -0.0056 -0.8660
vn -0.7070 -0.0131 0.7070
vn -0.7071 -0.0056 0.7071
vn 0.8660 -0.0131 0.5000
vn 0.8660 -0.0056 0.5000
vn -0.2588 -0.0131 -0.9658
vn -0.2588 -0.0056 -0.9659
vn 0.2588 -0.0131 -0.9658
vn -0.0000 -0.0131 -0.9999
vn -0.0000 -0.0056 -1.0000
vn 0.2588 -0.0056 -0.9659
vn -0.8660 -0.0131 0.5000
vn -0.8660 -0.0056 0.5000
vn 0.7070 -0.0131 0.7070
vn 0.7071 -0.0056 0.7071
vn 0.5000 -0.0131 -0.8660
vn 0.5000 -0.0056 -0.8660
vn -0.9658 -0.0131 0.2588
vn -0.9659 -0.0056 0.2588
vn 0.5000 -0.0131 0.8660
vn 0.5000 -0.0056 0.8660
vn 0.7070 -0.0131 -0.7070
vn 0.7071 -0.0056 -0.7071
vn -0.9999 -0.0131 -0.0000
vn -1.0000 -0.0056 -0.0000
vn 0.2588 -0.0131 0.9658
vn 0.2588 -0.0056 0.9659
vn 0.4979 0.0905 -0.8625
vn 0.2578 0.0905 -0.9620
vn -0.0000 1.0000 -0.0000
vn -0.8604 0.1142 0.4967
vn -0.9596 0.1142 0.2571
vn -0.8382 -0.4969 0.2246
vn -0.7515 -0.4969 0.4339
vn 0.2571 0.1142 -0.9596
vn 0.4967 0.1142 -0.8604
vn 0.4339 -0.4969 -0.7515
vn 0.2246 -0.4969 -0.8382
vn 0.7026 0.1129 0.7026
vn 0.4972 0.1134 0.8602
vn 0.4343 -0.4977 0.7508
vn 0.6131 -0.4983 0.6131
vn 0.8602 0.1134 0.4972
vn 0.7508 -0.4977 0.4343
vn -0.7025 0.1142 0.7025
vn -0.6136 -0.4969 0.6136
vn -0.2572 0.1129 -0.9598
vn -0.0005 0.1134 -0.9935
vn -0.0007 -0.4977 -0.8674
vn -0.2244 -0.4983 -0.8375
vn -0.4968 0.1127 -0.8605
vn -0.4335 -0.4984 -0.7508
vn 0.9596 0.1142 0.2571
vn 0.8382 -0.4969 0.2246
vn -0.7026 0.1129 -0.7026
vn -0.6131 -0.4983 -0.6131
vn 0.9935 0.1134 -0.0005
vn 0.8674 -0.4977 -0.0007
vn -0.4967 0.1142 0.8604
vn -0.4339 -0.4969 0.7515
vn -0.8605 0.1127 -0.4968
vn -0.7508 -0.4984 -0.4335
vn 0.9597 0.1122 -0.2577
vn 0.8369 -0.4990 -0.2249
vn -0.2571 0.1142 0.9596
vn -0.2246 -0.4969 0.8382
vn -0.9598 0.1129 -0.2572
vn -0.8375 -0.4983 -0.2244
vn 0.8608 0.1122 -0.4964
vn 0.7508 -0.4990 -0.4327
vn -0.0000 0.1142 0.9935
vn -0.0000 -0.4969 0.8678
vn -0.9935 0.1134 -0.0005
vn -0.8674 -0.4977 -0.0007
vn 0.7029 0.1134 -0.7022
vn 0.6138 -0.4977 -0.6128
vn 0.2571 0.1142 0.9596
vn 0.2246 -0.4969 0.8382
vn -0.9620 0.0905 -0.2578
vn -0.9959 0.0905 -0.0000
vn 0.4979 0.0905 0.8625
vn 0.7042 0.0905 0.7042
vn 0.7042 0.0905 -0.7042
vn -0.8625 0.0905 -0.4979
vn 0.2578 0.0905 0.9620
vn -0.2578 0.0905 0.9620
vn -0.0000 0.0905 0.9959
vn 0.8625 0.0905 -0.4979
vn -0.7042 0.0905 -0.7042
vn -0.4979 0.0905 0.8625
vn 0.9620 0.0905 -0.2578
vn -0.4979 0.0905 -0.8625
vn -0.7042 0.0905 0.7042
vn 0.9959 0.0905 -0.0000
vn -0.2578 0.0905 -0.9620
vn -0.8625 0.0905 0.4979
vn 0.9620 0.0905 0.2578
vn -0.0000 0.0905 -0.9959
vn -0.9620 0.0905 0.2578
vn 0.8625 0.0905 0.4979
vn 0.3629 0.6884 0.6280
vn 0.1876 0.6889 0.7002
vn 0.3624 0.6889 -0.6278
vn 0.5131 0.6884 -0.5127
vn -0.7002 0.6889 0.1876
vn -0.7253 0.6884 -0.0003
vn -0.0000 0.6889 0.7249
vn 0.6290 0.6875 -0.3629
vn -0.7010 0.6879 -0.1878
vn -0.1876 0.6889 0.7002
vn 0.7014 0.6875 -0.1882
vn -0.6285 0.6880 -0.3629
vn -0.3624 0.6889 0.6278
vn 0.7253 0.6884 -0.0003
vn -0.5132 0.6879 -0.5132
vn -0.5126 0.6889 0.5126
vn 0.7002 0.6889 0.1876
vn -0.3629 0.6880 -0.6285
vn -0.0003 0.6884 -0.7253
vn 0.1876 0.6889 -0.7002
vn 0.6280 0.6884 0.3629
vn -0.1878 0.6879 -0.7010
vn -0.6278 0.6889 0.3624
vn 0.5132 0.6879 0.5132
vn -0.0000 -1.0000 -0.0000
vn -0.0000 -0.0150 0.9999
vn 0.2588 -0.0150 0.9658
vn 0.2588 -0.0151 0.9658
vn -0.0000 -0.0151 0.9999
vn -0.9658 -0.0150 -0.2588
vn -0.9999 -0.0150 -0.0000
vn -0.9999 -0.0151 -0.0000
vn -0.9658 -0.0151 -0.2588
vn 0.8659 -0.0150 -0.4999
vn 0.7070 -0.0150 -0.7070
vn 0.7070 -0.0151 -0.7070
vn 0.8659 -0.0151 -0.4999
vn 0.4999 -0.0150 0.8659
vn 0.4999 -0.0151 0.8659
vn -0.9658 -0.0150 0.2588
vn -0.9658 -0.0151 0.2588
vn 0.4999 -0.0150 -0.8659
vn 0.4999 -0.0151 -0.8659
vn 0.7070 -0.0150 0.7070
vn 0.7070 -0.0151 0.7070
vn -0.8659 -0.0150 0.4999
vn -0.8659 -0.0151 0.4999
vn 0.2588 -0.0150 -0.9658
vn 0.2588 -0.0151 -0.9658
vn -0.0000 -0.0150 -0.9999
vn -0.2588 -0.0150 -0.9658
vn -0.2588 -0.0151 -0.9658
vn -0.0000 -0.0151 -0.9999
vn 0.8659 -0.0150 0.4999
vn 0.8659 -0.0151 0.4999
vn -0.7070 -0.0150 0.7070
vn -0.7070 -0.0151 0.7070
vn -0.4999 -0.0150 -0.8659
vn -0.4999 -0.0151 -0.8659
vn 0.9658 -0.0150 0.2588
vn 0.9658 -0.0151 0.2588
vn -0.4999 -0.0150 0.8659
vn -0.4999 -0.0151 0.8659
vn -0.7070 -0.0150 -0.7070
vn -0.7070 -0.0151 -0.7070
vn 0.9999 -0.0150 -0.0000
vn 0.9999 -0.0151 -0.0000
vn -0.2588 -0.0150 0.9658
vn -0.2588 -0.0151 0.9658
vn -0.8659 -0.0150 -0.4999
vn -0.8659 -0.0151 -0.4999
vn 0.9658 -0.0150 -0.2588
vn 0.9658 -0.0151 -0.2588
vn 0.9658 -0.0152 -0.2588
vn 0.8659 -0.0152 -0.4999
vn -0.8659 -0.0152 -0.4999
vn -0.9658 -0.0152 -0.2588
vn -0.2588 -0.0152 0.9658
vn -0.0000 -0.0152 0.9999
vn 0.9999 -0.0152 -0.0000
vn -0.7070 -0.0152 -0.7070
vn -0.4999 -0.0152 0.8659
vn 0.9658 -0.0152 0.2588
vn -0.4999 -0.0152 -0.8659
vn -0.7070 -0.0152 0.7070
vn 0.8659 -0.0152 0.4999
vn -0.2588 -0.0152 -0.9658
vn 0.2588 -0.0152 -0.9658
vn -0.0000 -0.0152 -0.9999
vn -0.8659 -0.0152 0.4999
vn 0.7070 -0.0152 0.7070
vn 0.4999 -0.0152 -0.8659
vn -0.9658 -0.0152 0.2588
vn 0.4999 -0.0152 0.8659
vn 0.7070 -0.0152 -0.7070
vn -0.9999 -0.0152 -0.0000
vn 0.2588 -0.0152 0.9658
vn 0.2588 -0.0148 0.9658
vn -0.0000 -0.0148 0.9999
vn -0.9999 -0.0148 -0.0000
vn -0.9658 -0.0148 -0.2588
vn 0.7070 -0.0148 -0.7070
vn 0.8659 -0.0148 -0.4999
vn 0.4999 -0.0148 0.8659
vn -0.9658 -0.0148 0.2588
vn 0.4999 -0.0148 -0.8659
vn 0.7070 -0.0148 0.7070
vn -0.8659 -0.0148 0.4999
vn 0.2588 -0.0148 -0.9658
vn -0.2588 -0.0148 -0.9658
vn -0.0000 -0.0148 -0.9999
vn 0.8659 -0.0148 0.4999
vn -0.7070 -0.0148 0.7070
vn -0.4999 -0.0148 -0.8659
vn 0.9658 -0.0148 0.2588
vn -0.4999 -0.0148 0.8659
vn -0.7070 -0.0148 -0.7070
vn 0.9999 -0.0148 -0.0000
vn -0.2588 -0.0148 0.9658
vn -0.8659 -0.0148 -0.4999
vn 0.9658 -0.0148 -0.2588
vn 0.2588 -0.0143 0.9658
vn -0.0000 -0.0143 0.9999
vn -0.9999 -0.0143 -0.0000
vn -0.9658 -0.0143 -0.2588
vn 0.7070 -0.0143 -0.7070
vn 0.8659 -0.0143 -0.4999
vn 0.4999 -0.0143 0.8659
vn -0.9658 -0.0143 0.2588
vn 0.4999 -0.0143 -0.8659
vn 0.7070 -0.0143 0.7070
vn -0.8659 -0.0143 0.4999
vn 0.2588 -0.0143 -0.9658
vn -0.2588 -0.0143 -0.9658
vn -0.0000 -0.0143 -0.9999
vn 0.8659 -0.0143 0.4999
vn -0.7070 -0.0143 0.7070
vn -0.4999 -0.0143 -0.8659
vn 0.9658 -0.0143 0.2588
vn -0.4999 -0.0143 0.8659
vn -0.7070 -0.0143 -0.7070
vn 0.9999 -0.0143 -0.0000
vn -0.2588 -0.0143 0.9658
vn -0.8659 -0.0143 -0.4999
vn 0.9658 -0.0143 -0.2588
vn 0.2588 -0.0138 0.9658
vn -0.0000 -0.0138 0.9999
vn -0.9999 -0.0138 -0.0000
vn -0.9658 -0.0138 -0.2588
vn 0.7070 -0.0138 -0.7070
vn 0.8659 -0.0138 -0.5000
vn 0.5000 -0.0138 0.8659
vn -0.9658 -0.0138 0.2588
vn 0.5000 -0.0138 -0.8659
vn 0.7070 -0.0138 0.7070
vn -0.8659 -0.0138 0.5000
vn 0.2588 -0.0138 -0.9658
vn -0.2588 -0.0138 -0.9658
vn -0.0000 -0.0138 -0.9999
vn 0.8659 -0.0138 0.5000
vn -0.7070 -0.0138 0.7070
vn -0.5000 -0.0138 -0.8659
vn 0.9658 -0.0138 0.2588
vn -0.5000 -0.0138 0.8659
vn -0.7070 -0.0138 -0.7070
vn 0.9999 -0.0138 -0.0000
vn -0.2588 -0.0138 0.9658
vn -0.8659 -0.0138 -0.5000
vn 0.9658 -0.0138 -0.2588
vn 0.2588 -0.0139 0.9658
vn -0.0000 -0.0139 0.9999
vn -0.9999 -0.0139 -0.0000
vn -0.9658 -0.0139 -0.2588
vn 0.7070 -0.0139 -0.7070
vn 0.8659 -0.0139 -0.5000
vn 0.5000 -0.0139 0.8659
vn -0.9658 -0.0139 0.2588
vn 0.5000 -0.0139 -0.8659
vn 0.7070 -0.0139 0.7070
vn -0.8659 -0.0139 0.5000
vn 0.2588 -0.0139 -0.9658
vn -0.2588 -0.0139 -0.9658
vn -0.0000 -0.0139 -0.9999
vn 0.8659 -0.0139 0.5000
vn -0.7070 -0.0139 0.7070
vn -0.5000 -0.0139 -0.8659
vn 0.9658 -0.0139 0.2588
vn -0.5000 -0.0139 0.8659
vn -0.7070 -0.0139 -0.7070
vn 0.9999 -0.0139 -0.0000
vn -0.2588 -0.0139 0.9658
vn -0.8659 -0.0139 -0.5000
vn 0.9658 -0.0139 -0.2588
vn 0.9658 -0.0147 -0.2588
vn 0.8659 -0.0147 -0.4999
vn -0.8659 -0.0147 -0.4999
vn -0.9658 -0.0147 -0.2588
vn -0.2588 -0.0147 0.9658
vn -0.0000 -0.0147 0.9999
vn 0.9999 -0.0147 -0.0000
vn -0.7070 -0.0147 -0.7070
vn -0.4999 -0.0147 0.8659
vn 0.9658 -0.0147 0.2588
vn -0.4999 -0.0147 -0.8659
vn -0.7070 -0.0147 0.7070
vn 0.8659 -0.0147 0.4999
vn -0.2588 -0.0147 -0.9658
vn 0.2588 -0.0147 -0.9658
vn -0.0000 -0.0147 -0.9999
vn -0.8659 -0.0147 0.4999
vn 0.7070 -0.0147 0.7070
vn 0.4999 -0.0147 -0.8659
vn -0.9658 -0.0147 0.2588
vn 0.4999 -0.0147 0.8659
vn 0.7070 -0.0147 -0.7070
vn -0.9999 -0.0147 -0.0000
vn 0.2588 -0.0147 0.9658
vn 0.9657 -0.0205 -0.2588
vn 0.8658 -0.0205 -0.4999
vn -0.8658 -0.0205 -0.4999
vn -0.9657 -0.0205 -0.2588
vn -0.2588 -0.0205 0.9657
vn -0.0000 -0.0205 0.9998
vn 0.9998 -0.0205 -0.0000
vn -0.7070 -0.0205 -0.7070
vn -0.4999 -0.0205 0.8658
vn 0.9657 -0.0205 0.2588
vn -0.4999 -0.0205 -0.8658
vn -0.7070 -0.0205 0.7070
vn 0.8658 -0.0205 0.4999
vn -0.2588 -0.0205 -0.9657
vn 0.2588 -0.0205 -0.9657
vn -0.0000 -0.0205 -0.9998
vn -0.8658 -0.0205 0.4999
vn 0.7070 -0.0205 0.7070
vn 0.4999 -0.0205 -0.8658
vn -0.9657 -0.0205 0.2588
vn 0.4999 -0.0205 0.8658
vn 0.7070 -0.0205 -0.7070
vn -0.9998 -0.0205 -0.0000
vn 0.2588 -0.0205 0.9657
vt 0.731113 0.224196
vt 0.731417 0.211610
vt 0.740516 0.211805
vt 0.740211 0.224439
vt 0.731417 0.110904
vt 0.731113 0.098318
vt 0.740211 0.098075
vt 0.740516 0.110709
vt 0.727875 0.022856
vt 0.727100 0.010291
vt 0.736182 0.009706
vt 0.736961 0.022320
vt 0.730742 0.236779
vt 0.739838 0.237072
vt 0.731653 0.123491
vt 0.740753 0.123345
vt 0.728584 0.035425
vt 0.737671 0.034938
vt 0.730304 0.249361
vt 0.739398 0.249702
vt 0.731822 0.136079
vt 0.740922 0.135982
vt 0.729224 0.047998
vt 0.738315 0.047559
vt 0.729798 0.261940
vt 0.738890 0.262330
vt 0.731923 0.148668
vt 0.741024 0.148619
vt 0.731923 0.173846
vt 0.731957 0.161257
vt 0.741058 0.161257
vt 0.741024 0.173895
vt 0.729798 0.060574
vt 0.738890 0.060184
vt 0.729224 0.274516
vt 0.738315 0.274955
vt 0.731822 0.186435
vt 0.740922 0.186533
vt 0.730304 0.073153
vt 0.739398 0.072812
vt 0.728584 0.287089
vt 0.737671 0.287577
vt 0.731653 0.199023
vt 0.740753 0.199169
vt 0.730742 0.085735
vt 0.739838 0.085442
vt 0.727875 0.299658
vt 0.736961 0.300195
vt 0.727100 0.312224
vt 0.736182 0.312809
vt 0.765733 0.576905
vt 0.759002 0.567888
vt 0.990294 0.402253
vt 0.168048 0.800424
vt 0.153988 0.800250
vt 0.153475 0.796265
vt 0.168644 0.796265
vt 0.117520 0.884048
vt 0.127013 0.894251
vt 0.124430 0.897369
vt 0.114286 0.886360
vt 0.209090 0.873855
vt 0.212865 0.860608
vt 0.216952 0.861220
vt 0.212576 0.875360
vt 0.202222 0.885690
vt 0.205352 0.888087
vt 0.181580 0.804127
vt 0.183110 0.800563
vt 0.107742 0.858739
vt 0.110922 0.871966
vt 0.107265 0.873351
vt 0.103994 0.859178
vt 0.107924 0.845056
vt 0.103878 0.844460
vt 0.192337 0.895419
vt 0.194767 0.898617
vt 0.111724 0.831861
vt 0.108225 0.830348
vt 0.180073 0.902248
vt 0.181601 0.906147
vt 0.193579 0.811368
vt 0.196209 0.808098
vt 0.118753 0.820042
vt 0.115538 0.817495
vt 0.166559 0.905637
vt 0.166972 0.909453
vt 0.203155 0.821551
vt 0.206396 0.819265
vt 0.128641 0.810492
vt 0.126382 0.807443
vt 0.152699 0.905362
vt 0.152165 0.909348
vt 0.209656 0.833570
vt 0.213150 0.832200
vt 0.140549 0.803729
vt 0.139046 0.800083
vt 0.139097 0.901627
vt 0.137412 0.905527
vt 0.213071 0.846759
vt 0.216977 0.846252
vt 0.120780 0.868149
vt 0.126076 0.877814
vt 0.121075 0.881474
vt 0.115045 0.870383
vt 0.133776 0.885855
vt 0.129812 0.890743
vt 0.143424 0.891682
vt 0.140907 0.897450
vt 0.154217 0.894799
vt 0.153331 0.900987
vt 0.165307 0.895015
vt 0.166015 0.901220
vt 0.176095 0.892313
vt 0.178393 0.898116
vt 0.185871 0.886892
vt 0.189621 0.891880
vt 0.193812 0.879158
vt 0.198708 0.882971
vt 0.199420 0.869717
vt 0.205076 0.872139
vt 0.202387 0.859106
vt 0.208506 0.860012
vt 0.202566 0.848030
vt 0.208666 0.847304
vt 0.199909 0.837419
vt 0.205615 0.835158
vt 0.194595 0.827826
vt 0.199597 0.824173
vt 0.186866 0.819782
vt 0.190754 0.814884
vt 0.177291 0.814027
vt 0.179758 0.808244
vt 0.166521 0.811017
vt 0.167420 0.804811
vt 0.155318 0.810871
vt 0.154577 0.804678
vt 0.144551 0.813598
vt 0.142227 0.807854
vt 0.134937 0.818959
vt 0.131246 0.813989
vt 0.127024 0.826622
vt 0.122218 0.822788
vt 0.121365 0.836043
vt 0.115736 0.833599
vt 0.118339 0.846588
vt 0.112283 0.845701
vt 0.118140 0.857541
vt 0.112053 0.858250
vt 0.923409 0.678762
vt 0.912527 0.675901
vt 0.831233 0.638113
vt 0.822030 0.631639
vt 0.772816 0.585648
vt 0.934396 0.681191
vt 0.840684 0.644219
vt 0.860274 0.655286
vt 0.850370 0.649946
vt 0.780238 0.594105
vt 0.945471 0.683183
vt 0.870382 0.660229
vt 0.787989 0.602262
vt 0.956615 0.684736
vt 0.880678 0.664770
vt 0.796057 0.610105
vt 0.967812 0.685847
vt 0.891145 0.668899
vt 0.804428 0.617624
vt 0.979044 0.686514
vt 0.901767 0.672611
vt 0.813090 0.624805
vt 0.990294 0.686736
vt 0.241797 0.827874
vt 0.238526 0.840082
vt 0.236388 0.839800
vt 0.239805 0.827049
vt 0.280205 0.894398
vt 0.292843 0.894398
vt 0.293124 0.896536
vt 0.279923 0.896536
vt 0.334521 0.840082
vt 0.331250 0.827874
vt 0.333243 0.827049
vt 0.336631 0.839804
vt 0.248116 0.816929
vt 0.246428 0.815634
vt 0.267998 0.891127
vt 0.267172 0.893119
vt 0.334521 0.852719
vt 0.336631 0.852997
vt 0.257053 0.807993
vt 0.255740 0.806282
vt 0.257053 0.884808
vt 0.255740 0.886519
vt 0.331250 0.864927
vt 0.333243 0.865752
vt 0.267997 0.801674
vt 0.267183 0.799708
vt 0.248116 0.875872
vt 0.246406 0.877185
vt 0.324931 0.875872
vt 0.326642 0.877184
vt 0.280205 0.798403
vt 0.279923 0.796265
vt 0.241797 0.864927
vt 0.239805 0.865752
vt 0.315995 0.884808
vt 0.317308 0.886519
vt 0.292843 0.798403
vt 0.293121 0.796293
vt 0.315995 0.807993
vt 0.305050 0.801674
vt 0.305875 0.799682
vt 0.317308 0.806282
vt 0.238526 0.852720
vt 0.236388 0.853001
vt 0.305050 0.891127
vt 0.305865 0.893093
vt 0.324931 0.816929
vt 0.326642 0.815617
vt 0.606266 0.304441
vt 0.607002 0.292523
vt 0.628017 0.293764
vt 0.627275 0.305794
vt 0.610073 0.101563
vt 0.609721 0.089628
vt 0.630762 0.088951
vt 0.631117 0.100999
vt 0.610361 0.209014
vt 0.610585 0.197076
vt 0.631634 0.197415
vt 0.631408 0.209466
vt 0.607674 0.280602
vt 0.628695 0.281730
vt 0.609305 0.077695
vt 0.630342 0.076905
vt 0.610745 0.185137
vt 0.631795 0.185363
vt 0.608281 0.268677
vt 0.629309 0.269692
vt 0.608825 0.065765
vt 0.629858 0.064862
vt 0.610841 0.173197
vt 0.631892 0.173310
vt 0.610873 0.161257
vt 0.610841 0.149317
vt 0.631892 0.149204
vt 0.631925 0.161257
vt 0.608825 0.256750
vt 0.629858 0.257652
vt 0.608281 0.053837
vt 0.629309 0.052822
vt 0.610745 0.137377
vt 0.631795 0.137151
vt 0.609305 0.244819
vt 0.630342 0.245609
vt 0.607674 0.041912
vt 0.628695 0.040784
vt 0.610585 0.125438
vt 0.631634 0.125099
vt 0.609721 0.232886
vt 0.630762 0.233563
vt 0.607002 0.029991
vt 0.628017 0.028750
vt 0.610361 0.113500
vt 0.631408 0.113049
vt 0.610073 0.220951
vt 0.631117 0.221515
vt 0.606266 0.018073
vt 0.627275 0.016720
vt 0.596209 0.220579
vt 0.596495 0.208717
vt 0.596495 0.113797
vt 0.596209 0.101935
vt 0.593157 0.030808
vt 0.592426 0.018965
vt 0.595859 0.232440
vt 0.596718 0.125661
vt 0.593825 0.042655
vt 0.595446 0.244299
vt 0.596877 0.137526
vt 0.594429 0.054506
vt 0.594969 0.256155
vt 0.596972 0.149391
vt 0.596972 0.173123
vt 0.597004 0.161257
vt 0.594969 0.066359
vt 0.594429 0.268009
vt 0.596877 0.184988
vt 0.595446 0.078215
vt 0.593825 0.279859
vt 0.596718 0.196853
vt 0.595859 0.090074
vt 0.593157 0.291706
vt 0.592426 0.303549
vt 0.639991 0.294471
vt 0.639245 0.306565
vt 0.642751 0.088565
vt 0.643108 0.100678
vt 0.643627 0.197608
vt 0.643400 0.209723
vt 0.640673 0.282372
vt 0.642329 0.076456
vt 0.643790 0.185491
vt 0.641290 0.270271
vt 0.641842 0.064348
vt 0.643887 0.173374
vt 0.643887 0.149140
vt 0.643920 0.161257
vt 0.641842 0.258166
vt 0.641290 0.052243
vt 0.643790 0.137023
vt 0.642329 0.246059
vt 0.640673 0.040142
vt 0.643627 0.124907
vt 0.642751 0.233949
vt 0.639991 0.028043
vt 0.643400 0.112791
vt 0.643108 0.221836
vt 0.639245 0.015949
vt 0.658939 0.295589
vt 0.658187 0.307785
vt 0.661722 0.087955
vt 0.662082 0.100169
vt 0.662606 0.197913
vt 0.662377 0.210130
vt 0.659627 0.283389
vt 0.661296 0.075744
vt 0.662770 0.185695
vt 0.660249 0.271186
vt 0.660805 0.063534
vt 0.662868 0.173476
vt 0.662868 0.149038
vt 0.662901 0.161257
vt 0.660805 0.258980
vt 0.660249 0.051328
vt 0.662770 0.136819
vt 0.661296 0.246770
vt 0.659627 0.039125
vt 0.662606 0.124601
vt 0.661722 0.234559
vt 0.658939 0.026925
vt 0.662377 0.112384
vt 0.662082 0.222345
vt 0.658187 0.014729
vt 0.673174 0.296429
vt 0.672416 0.308701
vt 0.675974 0.087497
vt 0.676336 0.099787
vt 0.676863 0.198142
vt 0.676633 0.210435
vt 0.673865 0.284153
vt 0.675545 0.075209
vt 0.677028 0.185848
vt 0.674491 0.271874
vt 0.675051 0.062923
vt 0.677127 0.173553
vt 0.677127 0.148962
vt 0.677160 0.161257
vt 0.675051 0.259591
vt 0.674491 0.050640
vt 0.677028 0.136666
vt 0.675545 0.247305
vt 0.673865 0.038361
vt 0.676863 0.124372
vt 0.675974 0.235017
vt 0.673174 0.026085
vt 0.676633 0.112079
vt 0.676336 0.222727
vt 0.672416 0.013813
vt 0.688788 0.297351
vt 0.688026 0.309707
vt 0.691607 0.086994
vt 0.691972 0.099368
vt 0.692503 0.198393
vt 0.692271 0.210771
vt 0.689485 0.284991
vt 0.691176 0.074622
vt 0.692669 0.186015
vt 0.690115 0.272628
vt 0.690679 0.062253
vt 0.692768 0.173636
vt 0.692768 0.148878
vt 0.692801 0.161257
vt 0.690679 0.260261
vt 0.690115 0.049886
vt 0.692669 0.136499
vt 0.691176 0.247892
vt 0.689485 0.037523
vt 0.692503 0.124121
vt 0.691607 0.235520
vt 0.688788 0.025163
vt 0.692271 0.111743
vt 0.691972 0.223146
vt 0.688026 0.012807
vt 0.702504 0.298161
vt 0.701737 0.310590
vt 0.705340 0.086552
vt 0.705707 0.099000
vt 0.706241 0.198614
vt 0.706007 0.211065
vt 0.703204 0.285727
vt 0.704906 0.074107
vt 0.706408 0.186163
vt 0.703838 0.273290
vt 0.704405 0.061664
vt 0.706508 0.173710
vt 0.706508 0.148804
vt 0.706541 0.161257
vt 0.704406 0.260850
vt 0.703838 0.049224
vt 0.706407 0.136351
vt 0.704906 0.248407
vt 0.703204 0.036787
vt 0.706241 0.123900
vt 0.705340 0.235962
vt 0.702504 0.024353
vt 0.706007 0.111449
vt 0.705707 0.223514
vt 0.701737 0.011924
vt 0.715425 0.298923
vt 0.714654 0.311422
vt 0.718277 0.086136
vt 0.718646 0.098653
vt 0.719183 0.198823
vt 0.718948 0.211343
vt 0.716130 0.286421
vt 0.717840 0.073621
vt 0.719351 0.186301
vt 0.716767 0.273915
vt 0.717337 0.061109
vt 0.719451 0.173779
vt 0.719451 0.148735
vt 0.719485 0.161257
vt 0.717337 0.261405
vt 0.716767 0.048599
vt 0.719351 0.136213
vt 0.717840 0.248893
vt 0.716130 0.036093
vt 0.719183 0.123692
vt 0.718277 0.236378
vt 0.715425 0.023591
vt 0.718948 0.111171
vt 0.718646 0.223861
vt 0.714654 0.011092
vt 0.570615 0.302145
vt 0.571338 0.290418
vt 0.574360 0.102520
vt 0.574014 0.090777
vt 0.574643 0.208248
vt 0.574864 0.196502
vt 0.571999 0.278688
vt 0.573605 0.079035
vt 0.575021 0.184754
vt 0.572597 0.266955
vt 0.573132 0.067296
vt 0.575116 0.173006
vt 0.575147 0.161257
vt 0.575116 0.149508
vt 0.573132 0.255218
vt 0.572597 0.055560
vt 0.575021 0.137760
vt 0.573604 0.243479
vt 0.571999 0.043826
vt 0.574864 0.126012
vt 0.574014 0.231737
vt 0.571338 0.032096
vt 0.574643 0.114266
vt 0.574360 0.219994
vt 0.570615 0.020370
vt 0.558435 0.219567
vt 0.558717 0.207907
vt 0.558716 0.114607
vt 0.558435 0.102947
vt 0.555435 0.033035
vt 0.554717 0.021393
vt 0.558091 0.231225
vt 0.558935 0.126269
vt 0.556092 0.044680
vt 0.557685 0.242881
vt 0.559092 0.137931
vt 0.556685 0.056328
vt 0.557216 0.254535
vt 0.559185 0.149594
vt 0.559185 0.172920
vt 0.559217 0.161257
vt 0.557216 0.067979
vt 0.556685 0.266186
vt 0.559092 0.184583
vt 0.557685 0.079633
vt 0.556092 0.277835
vt 0.558935 0.196246
vt 0.558091 0.091289
vt 0.555436 0.289479
vt 0.554717 0.301121
vt 0.536477 0.299946
vt 0.537189 0.288402
vt 0.540164 0.103437
vt 0.539823 0.091877
vt 0.540443 0.207515
vt 0.540659 0.195952
vt 0.537840 0.276855
vt 0.539420 0.080318
vt 0.540814 0.184387
vt 0.538428 0.265305
vt 0.538955 0.068762
vt 0.540907 0.172822
vt 0.540938 0.161257
vt 0.540908 0.149692
vt 0.538955 0.253752
vt 0.538428 0.057209
vt 0.540814 0.138127
vt 0.539420 0.242196
vt 0.537840 0.045659
vt 0.540659 0.126562
vt 0.539823 0.230637
vt 0.537189 0.034112
vt 0.540442 0.114999
vt 0.540164 0.219077
vt 0.536477 0.022568
vt 0.525430 0.218682
vt 0.525707 0.207199
vt 0.525707 0.115315
vt 0.525430 0.103832
vt 0.522476 0.034980
vt 0.521768 0.023516
vt 0.525092 0.230163
vt 0.525923 0.126799
vt 0.523122 0.046448
vt 0.524692 0.241643
vt 0.526077 0.138285
vt 0.523707 0.057920
vt 0.524230 0.253120
vt 0.526169 0.149771
vt 0.526169 0.172743
vt 0.526200 0.161257
vt 0.524230 0.069394
vt 0.523707 0.264594
vt 0.526077 0.184229
vt 0.524691 0.080871
vt 0.523122 0.276066
vt 0.525923 0.195715
vt 0.525092 0.092351
vt 0.522476 0.287534
vt 0.521768 0.298998
vt 0.506392 0.298008
vt 0.507094 0.286626
vt 0.510027 0.104245
vt 0.509691 0.092846
vt 0.510302 0.206869
vt 0.510516 0.195467
vt 0.507736 0.275240
vt 0.509294 0.081449
vt 0.510669 0.184064
vt 0.508316 0.263851
vt 0.508835 0.070055
vt 0.510760 0.172661
vt 0.510791 0.161257
vt 0.510760 0.149853
vt 0.508835 0.252459
vt 0.508316 0.058663
vt 0.510669 0.138450
vt 0.509294 0.241065
vt 0.507735 0.047274
vt 0.510516 0.127047
vt 0.509691 0.229668
vt 0.507094 0.035888
vt 0.510302 0.115645
vt 0.510027 0.218269
vt 0.506391 0.024506
vt 0.498642 0.217964
vt 0.498916 0.206625
vt 0.498916 0.115890
vt 0.498642 0.104550
vt 0.495725 0.036559
vt 0.495026 0.025238
vt 0.498308 0.229302
vt 0.499128 0.127230
vt 0.496363 0.047884
vt 0.497913 0.240638
vt 0.499280 0.138572
vt 0.496940 0.059212
vt 0.497457 0.251971
vt 0.499372 0.149914
vt 0.499372 0.172600
vt 0.499402 0.161257
vt 0.497457 0.070543
vt 0.496940 0.263302
vt 0.499280 0.183942
vt 0.497913 0.081877
vt 0.496363 0.274630
vt 0.499128 0.195284
vt 0.498308 0.093212
vt 0.495725 0.285955
vt 0.495026 0.297276
s 1
f 350/1/1 338/2/2 1/3/3 2/4/4
f 361/5/5 340/6/6 135/7/7 136/8/8
f 349/9/9 339/10/10 6/11/11 7/12/12
f 360/13/13 350/1/1 2/4/4 128/14/14
f 348/15/15 361/5/5 136/8/8 9/16/16
f 359/17/17 349/9/9 7/12/12 131/18/18
f 347/19/19 360/13/13 128/14/14 3/20/20
f 346/21/21 348/15/15 9/16/16 10/22/22
f 358/23/23 359/17/17 131/18/18 132/24/24
f 345/25/25 347/19/19 3/20/20 4/26/26
f 344/27/27 346/21/21 10/22/22 11/28/28
f 357/29/29 341/30/30 125/31/31 124/32/32
f 356/33/33 358/23/23 132/24/24 133/34/34
f 355/35/35 345/25/25 4/26/26 129/36/36
f 341/30/30 344/27/27 11/28/28 125/31/31
f 351/37/37 357/29/29 124/32/32 126/38/38
f 352/39/39 356/33/33 133/34/34 134/40/40
f 353/41/41 355/35/35 129/36/36 130/42/42
f 354/43/43 351/37/37 126/38/38 127/44/44
f 342/45/45 352/39/39 134/40/40 8/46/46
f 343/47/47 353/41/41 130/42/42 5/48/48
f 338/2/2 354/43/43 127/44/44 1/3/3
f 340/6/6 342/45/45 8/46/46 135/7/7
f 339/49/10 343/47/47 5/48/48 6/50/11
f 26/51/49 25/52/50 73/53/51
f 107/54/52 115/55/53 37/56/54 38/57/55
f 100/58/56 112/59/57 47/60/58 48/61/59
f 119/62/60 114/63/61 43/64/62 143/65/63
f 105/66/64 119/62/60 143/65/63 140/67/65
f 103/68/66 107/54/52 38/57/55 39/69/67
f 118/70/68 102/71/69 141/72/70 145/73/71
f 106/74/72 118/70/68 145/73/71 137/75/73
f 111/76/74 105/66/64 140/67/65 44/77/75
f 102/71/69 100/58/56 48/61/59 141/72/70
f 121/78/76 106/74/72 137/75/73 75/79/77
f 104/80/78 111/76/74 44/77/75 45/81/79
f 101/82/80 103/68/66 39/69/67 40/83/81
f 108/84/82 121/78/76 75/79/77 36/85/83
f 122/86/84 104/80/78 45/81/79 74/87/85
f 110/88/86 101/82/80 40/83/81 41/89/87
f 120/90/88 108/84/82 36/85/83 144/91/89
f 123/92/90 122/86/84 74/87/85 142/93/91
f 116/94/92 110/88/86 41/89/87 139/95/93
f 113/96/94 120/90/88 144/91/89 138/97/95
f 117/98/96 123/92/90 142/93/91 46/99/97
f 109/100/98 116/94/92 139/95/93 42/101/99
f 115/55/53 113/96/94 138/97/95 37/56/54
f 112/59/57 117/98/96 46/99/97 47/60/58
f 114/63/61 109/100/98 42/101/99 43/64/62
f 13/102/51 12/103/51 49/104/51 50/105/51
f 12/103/51 14/106/51 51/107/51 49/104/51
f 14/106/51 15/108/51 52/109/51 51/107/51
f 15/108/51 16/110/51 53/111/51 52/109/51
f 16/110/51 17/112/51 54/113/51 53/111/51
f 17/112/51 18/114/51 55/115/51 54/113/51
f 18/114/51 19/116/51 56/117/51 55/115/51
f 19/116/51 20/118/51 57/119/51 56/117/51
f 20/118/51 21/120/51 58/121/51 57/119/51
f 21/120/51 22/122/51 59/123/51 58/121/51
f 22/122/51 23/124/51 60/125/51 59/123/51
f 23/124/51 24/126/51 61/127/51 60/125/51
f 24/126/51 25/128/51 62/129/51 61/127/51
f 25/128/51 26/130/51 63/131/51 62/129/51
f 26/130/51 27/132/51 64/133/51 63/131/51
f 27/132/51 28/134/51 65/135/51 64/133/51
f 28/134/51 29/136/51 66/137/51 65/135/51
f 29/136/51 30/138/51 67/139/51 66/137/51
f 30/138/51 31/140/51 68/141/51 67/139/51
f 31/140/51 32/142/51 69/143/51 68/141/51
f 32/142/51 33/144/51 70/145/51 69/143/51
f 33/144/51 34/146/51 71/147/51 70/145/51
f 34/146/51 35/148/51 72/149/51 71/147/51
f 35/148/51 13/102/51 50/105/51 72/149/51
f 19/150/100 18/151/101 73/53/51
f 34/152/102 33/153/103 73/53/51
f 27/154/104 26/51/49 73/53/51
f 20/155/105 19/150/100 73/53/51
f 35/156/106 34/152/102 73/53/51
f 12/157/107 13/158/108 73/53/51
f 28/159/109 27/154/104 73/53/51
f 21/160/110 20/155/105 73/53/51
f 13/158/108 35/156/106 73/53/51
f 14/161/111 12/157/107 73/53/51
f 29/162/112 28/159/109 73/53/51
f 22/163/113 21/160/110 73/53/51
f 15/164/114 14/161/111 73/53/51
f 30/165/115 29/162/112 73/53/51
f 23/166/116 22/163/113 73/53/51
f 16/167/117 15/164/114 73/53/51
f 31/168/118 30/165/115 73/53/51
f 24/169/119 23/166/116 73/53/51
f 17/170/120 16/167/117 73/53/51
f 32/171/121 31/168/118 73/53/51
f 25/172/50 24/169/119 73/53/51
f 18/151/101 17/170/120 73/53/51
f 33/153/103 32/171/121 73/53/51
f 59/123/122 60/125/123 109/100/98 114/63/61
f 51/107/124 52/109/125 117/98/96 112/59/57
f 66/137/126 67/139/127 113/96/94 115/55/53
f 60/125/123 61/127/128 116/94/92 109/100/98
f 52/109/125 53/111/129 123/92/90 117/98/96
f 67/139/127 68/141/130 120/90/88 113/96/94
f 61/127/128 62/129/131 110/88/86 116/94/92
f 53/111/129 54/113/132 122/86/84 123/92/90
f 68/141/130 69/143/133 108/84/82 120/90/88
f 62/129/131 63/131/134 101/82/80 110/88/86
f 54/113/132 55/115/135 104/80/78 122/86/84
f 69/143/133 70/145/136 121/78/76 108/84/82
f 63/131/134 64/133/137 103/68/66 101/82/80
f 55/115/135 56/117/138 111/76/74 104/80/78
f 70/145/136 71/147/139 106/74/72 121/78/76
f 50/105/140 49/104/141 100/58/56 102/71/69
f 56/117/138 57/119/142 105/66/64 111/76/74
f 71/147/139 72/149/143 118/70/68 106/74/72
f 72/149/143 50/105/140 102/71/69 118/70/68
f 64/133/137 65/135/144 107/54/52 103/68/66
f 57/119/142 58/121/145 119/62/60 105/66/64
f 58/121/145 59/123/122 114/63/61 119/62/60
f 49/104/141 51/107/124 112/59/57 100/58/56
f 65/135/144 66/137/126 115/55/53 107/54/52
f 8/173/146 134/174/146 37/175/146 138/176/146
f 5/177/146 130/178/146 43/179/146 42/180/146
f 1/181/146 127/182/146 46/183/146 142/184/146
f 135/185/146 8/173/146 138/176/146 144/186/146
f 6/187/146 5/177/146 42/180/146 139/188/146
f 2/189/146 1/181/146 142/184/146 74/190/146
f 136/191/146 135/185/146 144/186/146 36/192/146
f 7/193/146 6/187/146 139/188/146 41/194/146
f 128/195/146 2/189/146 74/190/146 45/196/146
f 9/197/146 136/191/146 36/192/146 75/198/146
f 131/199/146 7/193/146 41/194/146 40/200/146
f 3/201/146 128/195/146 45/196/146 44/202/146
f 10/203/146 9/197/146 75/198/146 137/204/146
f 132/205/146 131/199/146 40/200/146 39/206/146
f 4/207/146 3/201/146 44/202/146 140/208/146
f 11/209/146 10/203/146 137/204/146 145/210/146
f 124/211/146 125/212/146 141/213/146 48/214/146
f 133/215/146 132/205/146 39/206/146 38/216/146
f 129/217/146 4/207/146 140/208/146 143/218/146
f 125/212/146 11/209/146 145/210/146 141/213/146
f 126/219/146 124/211/146 48/214/146 47/220/146
f 134/174/146 133/215/146 38/216/146 37/175/146
f 130/178/146 129/217/146 143/218/146 43/179/146
f 127/182/146 126/219/146 47/220/146 46/183/146
f 191/221/147 171/222/148 149/223/149 147/224/150
f 192/225/151 170/226/152 148/227/153 157/228/154
f 190/229/155 182/230/156 162/231/157 146/232/158
f 171/222/148 181/233/159 161/234/160 149/223/149
f 170/226/152 180/235/161 160/236/162 148/227/153
f 182/230/156 179/237/163 159/238/164 162/231/157
f 181/233/159 183/239/165 163/240/166 161/234/160
f 180/235/161 184/241/167 164/242/168 160/236/162
f 179/237/163 185/243/169 165/244/170 159/238/164
f 193/245/171 172/246/172 150/247/173 158/248/174
f 183/239/165 173/249/175 151/250/176 163/240/166
f 184/241/167 186/251/177 166/252/178 164/242/168
f 185/243/169 193/245/171 158/248/174 165/244/170
f 172/246/172 174/253/179 152/254/180 150/247/173
f 173/249/175 175/255/181 153/256/182 151/250/176
f 186/251/177 187/257/183 167/258/184 166/252/178
f 174/253/179 176/259/185 154/260/186 152/254/180
f 175/255/181 188/261/187 168/262/188 153/256/182
f 187/257/183 177/263/189 155/264/190 167/258/184
f 176/259/185 189/265/191 169/266/192 154/260/186
f 188/261/187 178/267/193 156/268/194 168/262/188
f 177/263/189 191/269/147 147/270/150 155/264/190
f 189/265/191 192/225/151 157/228/154 169/266/192
f 178/267/193 190/229/155 146/232/158 156/268/194
f 370/271/195 382/272/196 190/229/155 178/267/193
f 381/273/197 384/274/198 192/225/151 189/265/191
f 369/275/199 383/276/200 191/269/147 177/263/189
f 380/277/201 370/271/195 178/267/193 188/261/187
f 368/278/202 381/273/197 189/265/191 176/259/185
f 379/279/203 369/275/199 177/263/189 187/257/183
f 367/280/204 380/277/201 188/261/187 175/255/181
f 366/281/205 368/278/202 176/259/185 174/253/179
f 378/282/206 379/279/203 187/257/183 186/251/177
f 365/283/207 367/280/204 175/255/181 173/249/175
f 364/284/208 366/281/205 174/253/179 172/246/172
f 377/285/209 385/286/210 193/245/171 185/243/169
f 376/287/211 378/282/206 186/251/177 184/241/167
f 375/288/212 365/283/207 173/249/175 183/239/165
f 385/286/210 364/284/208 172/246/172 193/245/171
f 371/289/213 377/285/209 185/243/169 179/237/163
f 372/290/214 376/287/211 184/241/167 180/235/161
f 373/291/215 375/288/212 183/239/165 181/233/159
f 374/292/216 371/289/213 179/237/163 182/230/156
f 362/293/217 372/290/214 180/235/161 170/226/152
f 363/294/218 373/291/215 181/233/159 171/222/148
f 382/272/196 374/292/216 182/230/156 190/229/155
f 384/274/198 362/293/217 170/226/152 192/225/151
f 383/295/200 363/294/218 171/222/148 191/221/147
f 147/224/150 149/223/149 199/296/219 195/297/220
f 157/228/154 148/227/153 198/298/221 196/299/222
f 146/232/158 162/231/157 210/300/223 194/301/224
f 149/223/149 161/234/160 209/302/225 199/296/219
f 148/227/153 160/236/162 208/303/226 198/298/221
f 162/231/157 159/238/164 207/304/227 210/300/223
f 161/234/160 163/240/166 211/305/228 209/302/225
f 160/236/162 164/242/168 212/306/229 208/303/226
f 159/238/164 165/244/170 213/307/230 207/304/227
f 158/248/174 150/247/173 200/308/231 197/309/232
f 163/240/166 151/250/176 201/310/233 211/305/228
f 164/242/168 166/252/178 214/311/234 212/306/229
f 165/244/170 158/248/174 197/309/232 213/307/230
f 150/247/173 152/254/180 202/312/235 200/308/231
f 151/250/176 153/256/182 203/313/236 201/310/233
f 166/252/178 167/258/184 215/314/237 214/311/234
f 152/254/180 154/260/186 204/315/238 202/312/235
f 153/256/182 168/262/188 216/316/239 203/313/236
f 167/258/184 155/264/190 205/317/240 215/314/237
f 154/260/186 169/266/192 217/318/241 204/315/238
f 168/262/188 156/268/194 206/319/242 216/316/239
f 155/264/190 147/270/150 195/320/220 205/317/240
f 169/266/192 157/228/154 196/299/222 217/318/241
f 156/268/194 146/232/158 194/301/224 206/319/242
f 195/297/220 199/296/219 223/321/219 219/322/220
f 196/299/222 198/298/221 222/323/221 220/324/222
f 194/301/224 210/300/223 234/325/223 218/326/224
f 199/296/219 209/302/225 233/327/225 223/321/219
f 198/298/221 208/303/226 232/328/226 222/323/221
f 210/300/223 207/304/227 231/329/227 234/325/223
f 209/302/225 211/305/228 235/330/228 233/327/225
f 208/303/226 212/306/229 236/331/229 232/328/226
f 207/304/227 213/307/230 237/332/230 231/329/227
f 197/309/232 200/308/231 224/333/231 221/334/232
f 211/305/228 201/310/233 225/335/233 235/330/228
f 212/306/229 214/311/234 238/336/234 236/331/229
f 213/307/230 197/309/232 221/334/232 237/332/230
f 200/308/231 202/312/235 226/337/235 224/333/231
f 201/310/233 203/313/236 227/338/236 225/335/233
f 214/311/234 215/314/237 239/339/237 238/336/234
f 202/312/235 204/315/238 228/340/238 226/337/235
f 203/313/236 216/316/239 240/341/239 227/338/236
f 215/314/237 205/317/240 229/342/240 239/339/237
f 204/315/238 217/318/241 241/343/241 228/340/238
f 216/316/239 206/319/242 230/344/242 240/341/239
f 205/317/240 195/320/220 219/345/220 229/342/240
f 217/318/241 196/299/222 220/324/222 241/343/241
f 206/319/242 194/301/224 218/326/224 230/344/242
f 219/322/220 223/321/219 247/346/243 243/347/244
f 220/324/222 222/323/221 246/348/245 244/349/246
f 218/326/224 234/325/223 258/350/247 242/351/248
f 223/321/219 233/327/225 257/352/249 247/346/243
f 222/323/221 232/328/226 256/353/250 246/348/245
f 234/325/223 231/329/227 255/354/251 258/350/247
f 233/327/225 235/330/228 259/355/252 257/352/249
f 232/328/226 236/331/229 260/356/253 256/353/250
f 231/329/227 237/332/230 261/357/254 255/354/251
f 221/334/232 224/333/231 248/358/255 245/359/256
f 235/330/228 225/335/233 249/360/257 259/355/252
f 236/331/229 238/336/234 262/361/258 260/356/253
f 237/332/230 221/334/232 245/359/256 261/357/254
f 224/333/231 226/337/235 250/362/259 248/358/255
f 225/335/233 227/338/236 251/363/260 249/360/257
f 238/336/234 239/339/237 263/364/261 262/361/258
f 226/337/235 228/340/238 252/365/262 250/362/259
f 227/338/236 240/341/239 264/366/263 251/363/260
f 239/339/237 229/342/240 253/367/264 263/364/261
f 228/340/238 241/343/241 265/368/265 252/365/262
f 240/341/239 230/344/242 254/369/266 264/366/263
f 229/342/240 219/345/220 243/370/244 253/367/264
f 241/343/241 220/324/222 244/349/246 265/368/265
f 230/344/242 218/326/224 242/351/248 254/369/266
f 243/347/244 247/346/243 271/371/243 267/372/244
f 244/349/246 246/348/245 270/373/245 268/374/246
f 242/351/248 258/350/247 282/375/247 266/376/248
f 247/346/243 257/352/249 281/377/249 271/371/243
f 246/348/245 256/353/250 280/378/250 270/373/245
f 258/350/247 255/354/251 279/379/251 282/375/247
f 257/352/249 259/355/252 283/380/252 281/377/249
f 256/353/250 260/356/253 284/381/253 280/378/250
f 255/354/251 261/357/254 285/382/254 279/379/251
f 245/359/256 248/358/255 272/383/255 269/384/256
f 259/355/252 249/360/257 273/385/257 283/380/252
f 260/356/253 262/361/258 286/386/258 284/381/253
f 261/357/254 245/359/256 269/384/256 285/382/254
f 248/358/255 250/362/259 274/387/259 272/383/255
f 249/360/257 251/363/260 275/388/260 273/385/257
f 262/361/258 263/364/261 287/389/261 286/386/258
f 250/362/259 252/365/262 276/390/262 274/387/259
f 251/363/260 264/366/263 288/391/263 275/388/260
f 263/364/261 253/367/264 277/392/264 287/389/261
f 252/365/262 265/368/265 289/393/265 276/390/262
f 264/366/263 254/369/266 278/394/266 288/391/263
f 253/367/264 243/370/244 267/395/244 277/392/264
f 265/368/265 244/349/246 268/374/246 289/393/265
f 254/369/266 242/351/248 266/376/248 278/394/266
f 267/372/244 271/371/243 295/396/267 291/397/268
f 268/374/246 270/373/245 294/398/269 292/399/270
f 266/376/248 282/375/247 306/400/271 290/401/272
f 271/371/243 281/377/249 305/402/273 295/396/267
f 270/373/245 280/378/250 304/403/274 294/398/269
f 282/375/247 279/379/251 303/404/275 306/400/271
f 281/377/249 283/380/252 307/405/276 305/402/273
f 280/378/250 284/381/253 308/406/277 304/403/274
f 279/379/251 285/382/254 309/407/278 303/404/275
f 269/384/256 272/383/255 296/408/279 293/409/280
f 283/380/252 273/385/257 297/410/281 307/405/276
f 284/381/253 286/386/258 310/411/282 308/406/277
f 285/382/254 269/384/256 293/409/280 309/407/278
f 272/383/255 274/387/259 298/412/283 296/408/279
f 273/385/257 275/388/260 299/413/284 297/410/281
f 286/386/258 287/389/261 311/414/285 310/411/282
f 274/387/259 276/390/262 300/415/286 298/412/283
f 275/388/260 288/391/263 312/416/287 299/413/284
f 287/389/261 277/392/264 301/417/288 311/414/285
f 276/390/262 289/393/265 313/418/289 300/415/286
f 288/391/263 278/394/266 302/419/290 312/416/287
f 277/392/264 267/395/244 291/420/268 301/417/288
f 289/393/265 268/374/246 292/399/270 313/418/289
f 278/394/266 266/376/248 290/401/272 302/419/290
f 291/397/268 295/396/267 319/421/291 315/422/292
f 292/399/270 294/398/269 318/423/293 316/424/294
f 290/401/272 306/400/271 330/425/295 314/426/296
f 295/396/267 305/402/273 329/427/297 319/421/291
f 294/398/269 304/403/274 328/428/298 318/423/293
f 306/400/271 303/404/275 327/429/299 330/425/295
f 305/402/273 307/405/276 331/430/300 329/427/297
f 304/403/274 308/406/277 332/431/301 328/428/298
f 303/404/275 309/407/278 333/432/302 327/429/299
f 293/409/280 296/408/279 320/433/303 317/434/304
f 307/405/276 297/410/281 321/435/305 331/430/300
f 308/406/277 310/411/282 334/436/306 332/431/301
f 309/407/278 293/409/280 317/434/304 333/432/302
f 296/408/279 298/412/283 322/437/307 320/433/303
f 297/410/281 299/413/284 323/438/308 321/435/305
f 310/411/282 311/414/285 335/439/309 334/436/306
f 298/412/283 300/415/286 324/440/310 322/437/307
f 299/413/284 312/416/287 336/441/311 323/438/308
f 311/414/285 301/417/288 325/442/312 335/439/309
f 300/415/286 313/418/289 337/443/313 324/440/310
f 312/416/287 302/419/290 326/444/314 336/441/311
f 301/417/288 291/420/268 315/445/292 325/442/312
f 313/418/289 292/399/270 316/424/294 337/443/313
f 302/419/290 290/401/272 314/426/296 326/444/314
f 315/422/292 319/421/291 343/47/47 339/49/10
f 316/424/294 318/423/293 342/45/45 340/6/6
f 314/426/296 330/425/295 354/43/43 338/2/2
f 319/421/291 329/427/297 353/41/41 343/47/47
f 318/423/293 328/428/298 352/39/39 342/45/45
f 330/425/295 327/429/299 351/37/37 354/43/43
f 329/427/297 331/430/300 355/35/35 353/41/41
f 328/428/298 332/431/301 356/33/33 352/39/39
f 327/429/299 333/432/302 357/29/29 351/37/37
f 317/434/304 320/433/303 344/27/27 341/30/30
f 331/430/300 321/435/305 345/25/25 355/35/35
f 332/431/301 334/436/306 358/23/23 356/33/33
f 333/432/302 317/434/304 341/30/30 357/29/29
f 320/433/303 322/437/307 346/21/21 344/27/27
f 321/435/305 323/438/308 347/19/19 345/25/25
f 334/436/306 335/439/309 359/17/17 358/23/23
f 322/437/307 324/440/310 348/15/15 346/21/21
f 323/438/308 336/441/311 360/13/13 347/19/19
f 335/439/309 325/442/312 349/9/9 359/17/17
f 324/440/310 337/443/313 361/5/5 348/15/15
f 336/441/311 326/444/314 350/1/1 360/13/13
f 325/442/312 315/445/292 339/10/10 349/9/9
f 337/443/313 316/424/294 340/6/6 361/5/5
f 326/444/314 314/426/296 338/2/2 350/1/1
f 407/446/150 387/447/149 363/294/218 383/295/200
f 408/448/154 386/449/153 362/293/217 384/274/198
f 406/450/158 398/451/157 374/292/216 382/272/196
f 387/447/149 397/452/160 373/291/215 363/294/218
f 386/449/153 396/453/162 372/290/214 362/293/217
f 398/451/157 395/454/164 371/289/213 374/292/216
f 397/452/160 399/455/166 375/288/212 373/291/215
f 396/453/162 400/456/168 376/287/211 372/290/214
f 395/454/164 401/457/170 377/285/209 371/289/213
f 409/458/174 388/459/173 364/284/208 385/286/210
f 399/455/166 389/460/176 365/283/207 375/288/212
f 400/456/168 402/461/178 378/282/206 376/287/211
f 401/457/170 409/458/174 385/286/210 377/285/209
f 388/459/173 390/462/180 366/281/205 364/284/208
f 389/460/176 391/463/182 367/280/204 365/283/207
f 402/461/178 403/464/184 379/279/203 378/282/206
f 390/462/180 392/465/186 368/278/202 366/281/205
f 391/463/182 404/466/188 380/277/201 367/280/204
f 403/464/184 393/467/190 369/275/199 379/279/203
f 392/465/186 405/468/192 381/273/197 368/278/202
f 404/466/188 394/469/194 370/271/195 380/277/201
f 393/467/190 407/470/150 383/276/200 369/275/199
f 405/468/192 408/448/154 384/274/198 381/273/197
f 394/469/194 406/450/158 382/272/196 370/271/195
f 418/471/315 430/472/316 406/450/158 394/469/194
f 429/473/317 432/474/318 408/448/154 405/468/192
f 417/475/319 431/476/320 407/470/150 393/467/190
f 428/477/321 418/471/315 394/469/194 404/466/188
f 416/478/322 429/473/317 405/468/192 392/465/186
f 427/479/323 417/475/319 393/467/190 403/464/184
f 415/480/324 428/477/321 404/466/188 391/463/182
f 414/481/325 416/478/322 392/465/186 390/462/180
f 426/482/326 427/479/323 403/464/184 402/461/178
f 413/483/327 415/480/324 391/463/182 389/460/176
f 412/484/328 414/481/325 390/462/180 388/459/173
f 425/485/329 433/486/330 409/458/174 401/457/170
f 424/487/331 426/482/326 402/461/178 400/456/168
f 423/488/332 413/483/327 389/460/176 399/455/166
f 433/486/330 412/484/328 388/459/173 409/458/174
f 419/489/333 425/485/329 401/457/170 395/454/164
f 420/490/334 424/487/331 400/456/168 396/453/162
f 421/491/335 423/488/332 399/455/166 397/452/160
f 422/492/336 419/489/333 395/454/164 398/451/157
f 410/493/337 420/490/334 396/453/162 386/449/153
f 411/494/338 421/491/335 397/452/160 387/447/149
f 430/472/316 422/492/336 398/451/157 406/450/158
f 432/474/318 410/493/337 386/449/153 408/448/154
f 431/495/320 411/494/338 387/447/149 407/446/150
f 455/496/320 435/497/338 411/494/338 431/495/320
f 456/498/318 434/499/337 410/493/337 432/474/318
f 454/500/316 446/501/336 422/492/336 430/472/316
f 435/497/338 445/502/335 421/491/335 411/494/338
f 434/499/337 444/503/334 420/490/334 410/493/337
f 446/501/336 443/504/333 419/489/333 422/492/336
f 445/502/335 447/505/332 423/488/332 421/491/335
f 444/503/334 448/506/331 424/487/331 420/490/334
f 443/504/333 449/507/329 425/485/329 419/489/333
f 457/508/330 436/509/328 412/484/328 433/486/330
f 447/505/332 437/510/327 413/483/327 423/488/332
f 448/506/331 450/511/326 426/482/326 424/487/331
f 449/507/329 457/508/330 433/486/330 425/485/329
f 436/509/328 438/512/325 414/481/325 412/484/328
f 437/510/327 439/513/324 415/480/324 413/483/327
f 450/511/326 451/514/323 427/479/323 426/482/326
f 438/512/325 440/515/322 416/478/322 414/481/325
f 439/513/324 452/516/321 428/477/321 415/480/324
f 451/514/323 441/517/319 417/475/319 427/479/323
f 440/515/322 453/518/317 429/473/317 416/478/322
f 452/516/321 442/519/315 418/471/315 428/477/321
f 441/517/319 455/520/320 431/476/320 417/475/319
f 453/518/317 456/498/318 432/474/318 429/473/317
f 442/519/315 454/500/316 430/472/316 418/471/315
f 466/521/266 478/522/248 454/500/316 442/519/315
f 477/523/265 480/524/246 456/498/318 453/518/317
f 465/525/264 479/526/244 455/520/320 441/517/319
f 476/527/263 466/521/266 442/519/315 452/516/321
f 464/528/262 477/523/265 453/518/317 440/515/322
f 475/529/261 465/525/264 441/517/319 451/514/323
f 463/530/260 476/527/263 452/516/321 439/513/324
f 462/531/259 464/528/262 440/515/322 438/512/325
f 474/532/258 475/529/261 451/514/323 450/511/326
f 461/533/257 463/530/260 439/513/324 437/510/327
f 460/534/255 462/531/259 438/512/325 436/509/328
f 473/535/254 481/536/256 457/508/330 449/507/329
f 472/537/253 474/532/258 450/511/326 448/506/331
f 471/538/252 461/533/257 437/510/327 447/505/332
f 481/536/256 460/534/255 436/509/328 457/508/330
f 467/539/251 473/535/254 449/507/329 443/504/333
f 468/540/250 472/537/253 448/506/331 444/503/334
f 469/541/249 471/538/252 447/505/332 445/502/335
f 470/542/247 467/539/251 443/504/333 446/501/336
f 458/543/245 468/540/250 444/503/334 434/499/337
f 459/544/243 469/541/249 445/502/335 435/497/338
f 478/522/248 470/542/247 446/501/336 454/500/316
f 480/524/246 458/543/245 434/499/337 456/498/318
f 479/545/244 459/544/243 435/497/338 455/496/320
f 503/546/244 483/547/243 459/544/243 479/545/244
f 504/548/246 482/549/245 458/543/245 480/524/246
f 502/550/248 494/551/247 470/542/247 478/522/248
f 483/547/243 493/552/249 469/541/249 459/544/243
f 482/549/245 492/553/250 468/540/250 458/543/245
f 494/551/247 491/554/251 467/539/251 470/542/247
f 493/552/249 495/555/252 471/538/252 469/541/249
f 492/553/250 496/556/253 472/537/253 468/540/250
f 491/554/251 497/557/254 473/535/254 467/539/251
f 505/558/256 484/559/255 460/534/255 481/536/256
f 495/555/252 485/560/257 461/533/257 471/538/252
f 496/556/253 498/561/258 474/532/258 472/537/253
f 497/557/254 505/558/256 481/536/256 473/535/254
f 484/559/255 486/562/259 462/531/259 460/534/255
f 485/560/257 487/563/260 463/530/260 461/533/257
f 498/561/258 499/564/261 475/529/261 474/532/258
f 486/562/259 488/565/262 464/528/262 462/531/259
f 487/563/260 500/566/263 476/527/263 463/530/260
f 499/564/261 489/567/264 465/525/264 475/529/261
f 488/565/262 501/568/265 477/523/265 464/528/262
f 500/566/263 490/569/266 466/521/266 476/527/263
f 489/567/264 503/570/244 479/526/244 465/525/264
f 501/568/265 504/548/246 480/524/246 477/523/265
f 490/569/266 502/550/248 478/522/248 466/521/266
f 99/571/339 76/572/340 502/550/248 490/569/266
f 98/573/341 77/574/342 504/548/246 501/568/265
f 97/575/343 78/576/344 503/570/244 489/567/264
f 96/577/345 99/571/339 490/569/266 500/566/263
f 95/578/346 98/573/341 501/568/265 488/565/262
f 94/579/347 97/575/343 489/567/264 499/564/261
f 93/580/348 96/577/345 500/566/263 487/563/260
f 92/581/349 95/578/346 488/565/262 486/562/259
f 91/582/350 94/579/347 499/564/261 498/561/258
f 90/583/351 93/580/348 487/563/260 485/560/257
f 89/584/352 92/581/349 486/562/259 484/559/255
f 88/585/353 79/586/354 505/558/256 497/557/254
f 87/587/355 91/582/350 498/561/258 496/556/253
f 86/588/356 90/583/351 485/560/257 495/555/252
f 79/586/354 89/584/352 484/559/255 505/558/256
f 80/589/357 88/585/353 497/557/254 491/554/251
f 81/590/358 87/587/355 496/556/253 492/553/250
f 82/591/359 86/588/356 495/555/252 493/552/249
f 83/592/360 80/589/357 491/554/251 494/551/247
f 84/593/361 81/590/358 492/553/250 482/549/245
f 85/594/362 82/591/359 493/552/249 483/547/243
f 76/572/340 83/592/360 494/551/247 502/550/248
f 77/574/342 84/593/361 482/549/245 504/548/246
f 78/595/344 85/594/362 483/547/243 503/546/244
