# Blender 4.1.1
# www.blender.org
o SmokestackModular_PipeTall
v 0.173842 1.227152 -0.100368
v 0.193895 1.227152 -0.051954
v 0.193895 1.227152 0.051954
v 0.173842 1.227152 0.100368
v 0.051954 1.227152 0.193895
v -0.000000 1.227152 0.200735
v -0.051954 1.227152 0.193895
v -0.200735 1.227152 0.000000
v -0.141941 1.227152 -0.141941
v -0.100368 1.227152 -0.173842
v -0.051954 1.227152 -0.193895
v 0.046257 1.253116 -0.172633
v -0.000000 1.253116 -0.178723
v 0.089361 1.253116 -0.154778
v 0.126376 1.253116 -0.126376
v 0.154778 1.253116 -0.089361
v 0.172633 1.253116 -0.046257
v 0.178723 1.253116 0.000000
v 0.172633 1.253116 0.046257
v 0.154778 1.253116 0.089361
v 0.126376 1.253116 0.126376
v 0.089361 1.253116 0.154778
v 0.046257 1.253116 0.172633
v -0.000000 1.253116 0.178723
v -0.046257 1.253116 0.172633
v -0.089361 1.253116 0.154778
v -0.126376 1.253116 0.126376
v -0.154778 1.253116 0.089361
v -0.172633 1.253116 0.046257
v -0.178723 1.253116 0.000000
v -0.172633 1.253116 -0.046257
v -0.154778 1.253116 -0.089361
v -0.126376 1.253116 -0.126376
v -0.089361 1.253116 -0.154778
v -0.046257 1.253116 -0.172633
v -0.181585 1.227152 -0.104838
v -0.202532 1.227152 0.054268
v -0.181585 1.227152 0.104838
v -0.148264 1.227152 0.148264
v -0.104838 1.227152 0.181585
v -0.054268 1.227152 0.202532
v 0.054268 1.227152 0.202532
v 0.104838 1.227152 0.181585
v 0.202532 1.227152 0.054268
v 0.209677 1.227152 0.000000
v 0.148264 1.227152 -0.148264
v 0.104838 1.227152 -0.181585
v 0.054268 1.227152 -0.202532
v 0.052999 1.253116 -0.197796
v -0.000000 1.253116 -0.204774
v 0.102387 1.253116 -0.177339
v 0.144797 1.253116 -0.144797
v 0.177339 1.253116 -0.102387
v 0.197796 1.253116 -0.052999
v 0.204774 1.253116 0.000000
v 0.197796 1.253116 0.052999
v 0.177339 1.253116 0.102387
v 0.144797 1.253116 0.144797
v 0.102387 1.253116 0.177339
v 0.052999 1.253116 0.197796
v -0.000000 1.253116 0.204774
v -0.052999 1.253116 0.197796
v -0.102387 1.253116 0.177339
v -0.144797 1.253116 0.144797
v -0.177339 1.253116 0.102387
v -0.197796 1.253116 0.052999
v -0.204774 1.253116 0.000000
v -0.197796 1.253116 -0.052999
v -0.177339 1.253116 -0.102387
v -0.144797 1.253116 -0.144797
v -0.102387 1.253116 -0.177339
v -0.052999 1.253116 -0.197796
v 0.000000 0.087144 0.000000
v 0.202418 1.227152 -0.054238
v -0.148180 1.227152 -0.148180
v 0.156025 0.225356 -0.090081
v -0.174023 0.225356 -0.046629
v -0.000000 0.225356 0.180162
v -0.000000 0.225356 -0.180162
v 0.090081 0.225356 -0.156025
v -0.174023 0.225356 0.046629
v 0.090081 0.225356 0.156025
v 0.127394 0.225356 -0.127394
v -0.180162 0.225356 0.000000
v 0.046629 0.225356 0.174023
v 0.127394 0.225356 0.127394
v -0.156025 0.225356 0.090081
v 0.046629 0.225356 -0.174023
v -0.046629 0.225356 -0.174023
v 0.156025 0.225356 0.090081
v -0.127394 0.225356 0.127394
v -0.090081 0.225356 -0.156025
v 0.174023 0.225356 0.046629
v -0.090081 0.225356 0.156025
v -0.127394 0.225356 -0.127394
v 0.180162 0.225356 0.000000
v -0.046629 0.225356 0.174023
v -0.156025 0.225356 -0.090081
v 0.174023 0.225356 -0.046629
v 0.056192 1.240134 -0.209712
v -0.108555 1.240134 0.188023
v -0.000000 1.240134 -0.217110
v -0.153520 1.240134 0.153520
v 0.217110 1.240134 0.000000
v 0.188023 1.240134 0.108555
v -0.108555 1.240134 -0.188023
v -0.188023 1.240134 0.108555
v -0.188023 1.240134 -0.108555
v 0.056192 1.240134 0.209712
v -0.056192 1.240134 0.209712
v 0.209712 1.240134 0.056192
v 0.108555 1.240134 -0.188023
v -0.217110 1.240134 0.000000
v 0.108555 1.240134 0.188023
v -0.209712 1.240134 0.056192
v -0.000000 1.240134 0.217110
v 0.153520 1.240134 -0.153520
v -0.056176 1.240134 -0.209653
v 0.153477 1.240134 0.153477
v -0.209653 1.240134 -0.056176
v -0.153477 1.240134 -0.153477
v 0.209653 1.240134 -0.056176
v 0.187970 1.240134 -0.108525
v 0.051954 1.227152 -0.193895
v -0.000000 1.227152 -0.200735
v 0.100368 1.227152 -0.173842
v 0.141941 1.227152 -0.141941
v 0.200735 1.227152 0.000000
v 0.141941 1.227152 0.141941
v 0.100368 1.227152 0.173842
v -0.100368 1.227152 0.173842
v -0.141941 1.227152 0.141941
v -0.173842 1.227152 0.100368
v -0.193895 1.227152 0.051954
v -0.193895 1.227152 -0.051954
v -0.173842 1.227152 -0.100368
v -0.104838 1.227152 -0.181585
v -0.209677 1.227152 0.000000
v -0.000000 1.227152 0.209677
v 0.181585 1.227152 0.104838
v -0.000000 1.227152 -0.209677
v 0.181483 1.227152 -0.104779
v 0.148180 1.227152 0.148180
v -0.202418 1.227152 -0.054238
v -0.054238 1.227152 -0.202418
vn 0.9657 -0.0205 -0.2588
vn 0.8658 -0.0205 -0.4999
vn -0.8658 -0.0205 -0.4999
vn -0.9657 -0.0205 -0.2588
vn -0.2588 -0.0205 0.9657
vn -0.0000 -0.0205 0.9998
vn 0.9998 -0.0205 -0.0000
vn -0.7070 -0.0205 -0.7070
vn -0.4999 -0.0205 0.8658
vn 0.9657 -0.0205 0.2588
vn -0.4999 -0.0205 -0.8658
vn -0.7070 -0.0205 0.7070
vn 0.8658 -0.0205 0.4999
vn -0.2588 -0.0205 -0.9657
vn 0.2588 -0.0205 -0.9657
vn -0.0000 -0.0205 -0.9998
vn -0.8658 -0.0205 0.4999
vn 0.7070 -0.0205 0.7070
vn 0.4999 -0.0205 -0.8658
vn -0.9657 -0.0205 0.2588
vn 0.4999 -0.0205 0.8658
vn 0.7070 -0.0205 -0.7070
vn -0.9998 -0.0205 -0.0000
vn 0.2588 -0.0205 0.9657
vn 0.4942 0.1515 -0.8560
vn 0.2558 0.1515 -0.9548
vn -0.0001 1.0000 -0.0000
vn -0.8604 0.1141 0.4967
vn -0.9596 0.1142 0.2571
vn -0.8382 -0.4969 0.2246
vn -0.7515 -0.4969 0.4339
vn 0.2571 0.1142 -0.9596
vn 0.4967 0.1142 -0.8604
vn 0.4339 -0.4969 -0.7515
vn 0.2246 -0.4969 -0.8382
vn 0.7026 0.1129 0.7026
vn 0.4972 0.1134 0.8602
vn 0.4343 -0.4977 0.7508
vn 0.6131 -0.4983 0.6131
vn 0.8602 0.1134 0.4972
vn 0.7508 -0.4977 0.4343
vn -0.7025 0.1141 0.7025
vn -0.6136 -0.4969 0.6136
vn -0.2572 0.1129 -0.9598
vn -0.0005 0.1134 -0.9935
vn -0.0007 -0.4977 -0.8674
vn -0.2244 -0.4983 -0.8375
vn -0.4968 0.1127 -0.8605
vn -0.4335 -0.4984 -0.7508
vn 0.9596 0.1142 0.2571
vn 0.8382 -0.4969 0.2246
vn -0.7026 0.1129 -0.7026
vn -0.6131 -0.4983 -0.6131
vn 0.9935 0.1134 -0.0005
vn 0.8674 -0.4977 -0.0007
vn -0.4967 0.1142 0.8604
vn -0.4339 -0.4969 0.7515
vn -0.8605 0.1127 -0.4968
vn -0.7508 -0.4984 -0.4335
vn 0.9597 0.1122 -0.2577
vn 0.8369 -0.4990 -0.2249
vn -0.2571 0.1142 0.9596
vn -0.2246 -0.4969 0.8382
vn -0.9598 0.1129 -0.2572
vn -0.8375 -0.4983 -0.2244
vn 0.8608 0.1122 -0.4964
vn 0.7508 -0.4990 -0.4327
vn -0.0000 0.1142 0.9935
vn -0.0000 -0.4969 0.8678
vn -0.9935 0.1134 -0.0005
vn -0.8674 -0.4977 -0.0007
vn 0.7029 0.1134 -0.7022
vn 0.6138 -0.4977 -0.6128
vn 0.2571 0.1142 0.9596
vn 0.2246 -0.4969 0.8382
vn -0.0000 1.0000 -0.0000
vn -0.9548 0.1515 -0.2558
vn -0.9885 0.1515 -0.0000
vn 0.4942 0.1515 0.8560
vn 0.6989 0.1515 0.6989
vn 0.6989 0.1515 -0.6989
vn -0.8560 0.1515 -0.4942
vn 0.2558 0.1515 0.9548
vn -0.2558 0.1515 0.9548
vn -0.0000 0.1515 0.9885
vn 0.8560 0.1515 -0.4942
vn -0.6989 0.1515 -0.6989
vn -0.4942 0.1515 0.8560
vn 0.9548 0.1515 -0.2558
vn -0.4942 0.1515 -0.8560
vn -0.6989 0.1515 0.6989
vn 0.9885 0.1515 -0.0000
vn -0.2558 0.1515 -0.9548
vn -0.8560 0.1515 0.4942
vn 0.9548 0.1515 0.2558
vn -0.0000 0.1515 -0.9885
vn -0.9548 0.1515 0.2558
vn 0.8560 0.1515 0.4942
vn 0.3629 0.6884 0.6280
vn 0.1876 0.6889 0.7002
vn 0.3625 0.6889 -0.6278
vn 0.5131 0.6884 -0.5127
vn -0.7002 0.6889 0.1876
vn -0.7253 0.6884 -0.0003
vn -0.0000 0.6889 0.7249
vn 0.6290 0.6875 -0.3629
vn -0.7010 0.6879 -0.1878
vn -0.1876 0.6889 0.7002
vn 0.7014 0.6875 -0.1882
vn -0.6285 0.6880 -0.3629
vn -0.3625 0.6889 0.6278
vn 0.7253 0.6884 -0.0003
vn -0.5132 0.6879 -0.5132
vn -0.5126 0.6889 0.5126
vn 0.7002 0.6889 0.1876
vn -0.3629 0.6880 -0.6285
vn -0.0003 0.6884 -0.7253
vn 0.1876 0.6889 -0.7002
vn 0.6280 0.6884 0.3629
vn -0.1878 0.6879 -0.7010
vn -0.6278 0.6889 0.3624
vn 0.5132 0.6879 0.5132
vn -0.0000 -1.0000 -0.0000
vt 0.498642 0.217964
vt 0.498916 0.206625
vt 0.740516 0.211805
vt 0.740211 0.224439
vt 0.498916 0.115890
vt 0.498642 0.104550
vt 0.740211 0.098075
vt 0.740516 0.110709
vt 0.495725 0.036559
vt 0.495026 0.025238
vt 0.736182 0.009706
vt 0.736961 0.022320
vt 0.498308 0.229302
vt 0.739838 0.237072
vt 0.499128 0.127230
vt 0.740753 0.123345
vt 0.496363 0.047884
vt 0.737671 0.034938
vt 0.497913 0.240638
vt 0.739398 0.249702
vt 0.499280 0.138572
vt 0.740922 0.135982
vt 0.496940 0.059212
vt 0.738315 0.047559
vt 0.497457 0.251971
vt 0.738890 0.262330
vt 0.499372 0.149914
vt 0.741024 0.148619
vt 0.499372 0.172600
vt 0.499402 0.161257
vt 0.741058 0.161257
vt 0.741024 0.173895
vt 0.497457 0.070543
vt 0.738890 0.060184
vt 0.496940 0.263302
vt 0.738315 0.274955
vt 0.499280 0.183942
vt 0.740922 0.186533
vt 0.497913 0.081877
vt 0.739398 0.072812
vt 0.496363 0.274630
vt 0.737671 0.287577
vt 0.499128 0.195284
vt 0.740753 0.199169
vt 0.498308 0.093212
vt 0.739838 0.085442
vt 0.495725 0.285955
vt 0.736961 0.300195
vt 0.495026 0.297276
vt 0.736182 0.312809
vt 0.765733 0.576905
vt 0.759002 0.567888
vt 0.990294 0.402253
vt 0.168048 0.800424
vt 0.153988 0.800250
vt 0.153475 0.796265
vt 0.168644 0.796265
vt 0.117520 0.884048
vt 0.127013 0.894251
vt 0.124430 0.897369
vt 0.114286 0.886360
vt 0.209090 0.873855
vt 0.212865 0.860608
vt 0.216952 0.861220
vt 0.212576 0.875360
vt 0.202222 0.885690
vt 0.205352 0.888087
vt 0.181580 0.804127
vt 0.183110 0.800563
vt 0.107742 0.858739
vt 0.110922 0.871966
vt 0.107265 0.873351
vt 0.103994 0.859178
vt 0.107924 0.845056
vt 0.103878 0.844460
vt 0.192337 0.895419
vt 0.194767 0.898617
vt 0.111724 0.831861
vt 0.108225 0.830348
vt 0.180073 0.902248
vt 0.181601 0.906147
vt 0.193579 0.811368
vt 0.196209 0.808098
vt 0.118753 0.820042
vt 0.115538 0.817495
vt 0.166559 0.905637
vt 0.166972 0.909453
vt 0.203155 0.821551
vt 0.206396 0.819265
vt 0.128641 0.810492
vt 0.126382 0.807443
vt 0.152699 0.905362
vt 0.152165 0.909348
vt 0.209656 0.833570
vt 0.213150 0.832200
vt 0.140549 0.803729
vt 0.139046 0.800083
vt 0.139097 0.901627
vt 0.137412 0.905527
vt 0.213071 0.846759
vt 0.216977 0.846252
vt 0.120780 0.868149
vt 0.126076 0.877814
vt 0.121075 0.881474
vt 0.115045 0.870383
vt 0.133776 0.885855
vt 0.129812 0.890743
vt 0.143424 0.891682
vt 0.140907 0.897450
vt 0.154217 0.894799
vt 0.153331 0.900987
vt 0.165307 0.895015
vt 0.166015 0.901220
vt 0.176095 0.892313
vt 0.178393 0.898116
vt 0.185871 0.886892
vt 0.189621 0.891880
vt 0.193812 0.879158
vt 0.198708 0.882971
vt 0.199420 0.869717
vt 0.205076 0.872139
vt 0.202387 0.859106
vt 0.208506 0.860012
vt 0.202566 0.848030
vt 0.208666 0.847304
vt 0.199909 0.837419
vt 0.205615 0.835158
vt 0.194595 0.827826
vt 0.199597 0.824173
vt 0.186866 0.819782
vt 0.190754 0.814884
vt 0.177291 0.814027
vt 0.179758 0.808244
vt 0.166521 0.811017
vt 0.167420 0.804811
vt 0.155318 0.810871
vt 0.154577 0.804678
vt 0.144551 0.813598
vt 0.142227 0.807854
vt 0.134937 0.818959
vt 0.131246 0.813989
vt 0.127024 0.826622
vt 0.122218 0.822788
vt 0.121365 0.836043
vt 0.115736 0.833599
vt 0.118339 0.846588
vt 0.112283 0.845701
vt 0.118140 0.857541
vt 0.112053 0.858250
vt 0.923409 0.678762
vt 0.912527 0.675901
vt 0.831233 0.638113
vt 0.822030 0.631639
vt 0.772816 0.585648
vt 0.934396 0.681191
vt 0.840684 0.644219
vt 0.860274 0.655286
vt 0.850370 0.649946
vt 0.780238 0.594105
vt 0.945471 0.683183
vt 0.870382 0.660229
vt 0.787989 0.602262
vt 0.956615 0.684736
vt 0.880678 0.664770
vt 0.796057 0.610105
vt 0.967812 0.685847
vt 0.891145 0.668899
vt 0.804428 0.617624
vt 0.979044 0.686514
vt 0.901767 0.672611
vt 0.813090 0.624805
vt 0.990294 0.686736
vt 0.241797 0.827874
vt 0.238526 0.840082
vt 0.236388 0.839800
vt 0.239805 0.827049
vt 0.280205 0.894398
vt 0.292843 0.894398
vt 0.293124 0.896536
vt 0.279923 0.896536
vt 0.334521 0.840082
vt 0.331250 0.827874
vt 0.333243 0.827049
vt 0.336631 0.839804
vt 0.248116 0.816929
vt 0.246428 0.815634
vt 0.267998 0.891127
vt 0.267172 0.893119
vt 0.334521 0.852719
vt 0.336631 0.852997
vt 0.257053 0.807993
vt 0.255740 0.806282
vt 0.257053 0.884808
vt 0.255740 0.886519
vt 0.331250 0.864927
vt 0.333243 0.865752
vt 0.267997 0.801674
vt 0.267183 0.799708
vt 0.248116 0.875872
vt 0.246406 0.877185
vt 0.324931 0.875872
vt 0.326642 0.877184
vt 0.280205 0.798403
vt 0.279923 0.796265
vt 0.241797 0.864927
vt 0.239805 0.865752
vt 0.315995 0.884808
vt 0.317308 0.886519
vt 0.292843 0.798403
vt 0.293121 0.796293
vt 0.315995 0.807993
vt 0.305050 0.801674
vt 0.305875 0.799682
vt 0.317308 0.806282
vt 0.238526 0.852720
vt 0.236388 0.853001
vt 0.305050 0.891127
vt 0.305865 0.893093
vt 0.324931 0.816929
vt 0.326642 0.815617
s 1
f 99/1/1 76/2/2 1/3/2 2/4/1
f 98/5/3 77/6/4 135/7/4 136/8/3
f 97/9/5 78/10/6 6/11/6 7/12/5
f 96/13/7 99/1/1 2/4/1 128/14/7
f 95/15/8 98/5/3 136/8/3 9/16/8
f 94/17/9 97/9/5 7/12/5 131/18/9
f 93/19/10 96/13/7 128/14/7 3/20/10
f 92/21/11 95/15/8 9/16/8 10/22/11
f 91/23/12 94/17/9 131/18/9 132/24/12
f 90/25/13 93/19/10 3/20/10 4/26/13
f 89/27/14 92/21/11 10/22/11 11/28/14
f 88/29/15 79/30/16 125/31/16 124/32/15
f 87/33/17 91/23/12 132/24/12 133/34/17
f 86/35/18 90/25/13 4/26/13 129/36/18
f 79/30/16 89/27/14 11/28/14 125/31/16
f 80/37/19 88/29/15 124/32/15 126/38/19
f 81/39/20 87/33/17 133/34/17 134/40/20
f 82/41/21 86/35/18 129/36/18 130/42/21
f 83/43/22 80/37/19 126/38/19 127/44/22
f 84/45/23 81/39/20 134/40/20 8/46/23
f 85/47/24 82/41/21 130/42/21 5/48/24
f 76/2/2 83/43/22 127/44/22 1/3/2
f 77/6/4 84/45/23 8/46/23 135/7/4
f 78/49/6 85/47/24 5/48/24 6/50/6
f 26/51/25 25/52/26 73/53/27
f 107/54/28 115/55/29 37/56/30 38/57/31
f 100/58/32 112/59/33 47/60/34 48/61/35
f 119/62/36 114/63/37 43/64/38 143/65/39
f 105/66/40 119/62/36 143/65/39 140/67/41
f 103/68/42 107/54/28 38/57/31 39/69/43
f 118/70/44 102/71/45 141/72/46 145/73/47
f 106/74/48 118/70/44 145/73/47 137/75/49
f 111/76/50 105/66/40 140/67/41 44/77/51
f 102/71/45 100/58/32 48/61/35 141/72/46
f 121/78/52 106/74/48 137/75/49 75/79/53
f 104/80/54 111/76/50 44/77/51 45/81/55
f 101/82/56 103/68/42 39/69/43 40/83/57
f 108/84/58 121/78/52 75/79/53 36/85/59
f 122/86/60 104/80/54 45/81/55 74/87/61
f 110/88/62 101/82/56 40/83/57 41/89/63
f 120/90/64 108/84/58 36/85/59 144/91/65
f 123/92/66 122/86/60 74/87/61 142/93/67
f 116/94/68 110/88/62 41/89/63 139/95/69
f 113/96/70 120/90/64 144/91/65 138/97/71
f 117/98/72 123/92/66 142/93/67 46/99/73
f 109/100/74 116/94/68 139/95/69 42/101/75
f 115/55/29 113/96/70 138/97/71 37/56/30
f 112/59/33 117/98/72 46/99/73 47/60/34
f 114/63/37 109/100/74 42/101/75 43/64/38
f 13/102/76 12/103/76 49/104/76 50/105/76
f 12/103/76 14/106/76 51/107/76 49/104/76
f 14/106/76 15/108/76 52/109/76 51/107/76
f 15/108/76 16/110/76 53/111/76 52/109/76
f 16/110/76 17/112/76 54/113/76 53/111/76
f 17/112/76 18/114/76 55/115/76 54/113/76
f 18/114/76 19/116/76 56/117/76 55/115/76
f 19/116/76 20/118/76 57/119/76 56/117/76
f 20/118/76 21/120/76 58/121/76 57/119/76
f 21/120/76 22/122/76 59/123/76 58/121/76
f 22/122/76 23/124/76 60/125/76 59/123/76
f 23/124/76 24/126/76 61/127/76 60/125/76
f 24/126/76 25/128/76 62/129/76 61/127/76
f 25/128/76 26/130/76 63/131/76 62/129/76
f 26/130/76 27/132/76 64/133/76 63/131/76
f 27/132/76 28/134/76 65/135/76 64/133/76
f 28/134/76 29/136/76 66/137/76 65/135/76
f 29/136/76 30/138/76 67/139/76 66/137/76
f 30/138/76 31/140/76 68/141/76 67/139/76
f 31/140/76 32/142/76 69/143/76 68/141/76
f 32/142/76 33/144/76 70/145/76 69/143/76
f 33/144/76 34/146/76 71/147/76 70/145/76
f 34/146/76 35/148/76 72/149/76 71/147/76
f 35/148/76 13/102/76 50/105/76 72/149/76
f 19/150/77 18/151/78 73/53/27
f 34/152/79 33/153/80 73/53/27
f 27/154/81 26/51/25 73/53/27
f 20/155/82 19/150/77 73/53/27
f 35/156/83 34/152/79 73/53/27
f 12/157/84 13/158/85 73/53/27
f 28/159/86 27/154/81 73/53/27
f 21/160/87 20/155/82 73/53/27
f 13/158/85 35/156/83 73/53/27
f 14/161/88 12/157/84 73/53/27
f 29/162/89 28/159/86 73/53/27
f 22/163/90 21/160/87 73/53/27
f 15/164/91 14/161/88 73/53/27
f 30/165/92 29/162/89 73/53/27
f 23/166/93 22/163/90 73/53/27
f 16/167/94 15/164/91 73/53/27
f 31/168/95 30/165/92 73/53/27
f 24/169/96 23/166/93 73/53/27
f 17/170/97 16/167/94 73/53/27
f 32/171/98 31/168/95 73/53/27
f 25/172/26 24/169/96 73/53/27
f 18/151/78 17/170/97 73/53/27
f 33/153/80 32/171/98 73/53/27
f 59/123/99 60/125/100 109/100/74 114/63/37
f 51/107/101 52/109/102 117/98/72 112/59/33
f 66/137/103 67/139/104 113/96/70 115/55/29
f 60/125/100 61/127/105 116/94/68 109/100/74
f 52/109/102 53/111/106 123/92/66 117/98/72
f 67/139/104 68/141/107 120/90/64 113/96/70
f 61/127/105 62/129/108 110/88/62 116/94/68
f 53/111/106 54/113/109 122/86/60 123/92/66
f 68/141/107 69/143/110 108/84/58 120/90/64
f 62/129/108 63/131/111 101/82/56 110/88/62
f 54/113/109 55/115/112 104/80/54 122/86/60
f 69/143/110 70/145/113 121/78/52 108/84/58
f 63/131/111 64/133/114 103/68/42 101/82/56
f 55/115/112 56/117/115 111/76/50 104/80/54
f 70/145/113 71/147/116 106/74/48 121/78/52
f 50/105/117 49/104/118 100/58/32 102/71/45
f 56/117/115 57/119/119 105/66/40 111/76/50
f 71/147/116 72/149/120 118/70/44 106/74/48
f 72/149/120 50/105/117 102/71/45 118/70/44
f 64/133/114 65/135/121 107/54/28 103/68/42
f 57/119/119 58/121/122 119/62/36 105/66/40
f 58/121/122 59/123/99 114/63/37 119/62/36
f 49/104/118 51/107/101 112/59/33 100/58/32
f 65/135/121 66/137/103 115/55/29 107/54/28
f 8/173/123 134/174/123 37/175/123 138/176/123
f 5/177/123 130/178/123 43/179/123 42/180/123
f 1/181/123 127/182/123 46/183/123 142/184/123
f 135/185/123 8/173/123 138/176/123 144/186/123
f 6/187/123 5/177/123 42/180/123 139/188/123
f 2/189/123 1/181/123 142/184/123 74/190/123
f 136/191/123 135/185/123 144/186/123 36/192/123
f 7/193/123 6/187/123 139/188/123 41/194/123
f 128/195/123 2/189/123 74/190/123 45/196/123
f 9/197/123 136/191/123 36/192/123 75/198/123
f 131/199/123 7/193/123 41/194/123 40/200/123
f 3/201/123 128/195/123 45/196/123 44/202/123
f 10/203/123 9/197/123 75/198/123 137/204/123
f 132/205/123 131/199/123 40/200/123 39/206/123
f 4/207/123 3/201/123 44/202/123 140/208/123
f 11/209/123 10/203/123 137/204/123 145/210/123
f 124/211/123 125/212/123 141/213/123 48/214/123
f 133/215/123 132/205/123 39/206/123 38/216/123
f 129/217/123 4/207/123 140/208/123 143/218/123
f 125/212/123 11/209/123 145/210/123 141/213/123
f 126/219/123 124/211/123 48/214/123 47/220/123
f 134/174/123 133/215/123 38/216/123 37/175/123
f 130/178/123 129/217/123 143/218/123 43/179/123
f 127/182/123 126/219/123 47/220/123 46/183/123
