# Blender 4.1.1
# www.blender.org
o SmokestackModular_Base_Generic
v 0.000000 0.058347 -0.312500
v 0.080881 0.058347 -0.301852
v 0.156250 0.058347 -0.270633
v 0.220971 0.058347 -0.220971
v 0.270633 0.058347 -0.156250
v 0.301852 0.058347 -0.080881
v 0.312500 0.058347 0.000000
v 0.301852 0.058347 0.080881
v 0.270633 0.058347 0.156250
v 0.220971 0.058347 0.220971
v 0.156250 0.058347 0.270633
v 0.080881 0.058347 0.301852
v 0.000000 0.058347 0.312500
v -0.080881 0.058347 0.301852
v -0.156250 0.058347 0.270633
v -0.220971 0.058347 0.220971
v -0.270633 0.058347 0.156250
v -0.301852 0.058347 0.080881
v -0.312500 0.058347 0.000000
v -0.301852 0.058347 -0.080881
v -0.270633 0.058347 -0.156250
v -0.220971 0.058347 -0.220971
v -0.156250 0.058347 -0.270633
v -0.080881 0.058347 -0.301852
v 0.061987 0.100065 -0.231338
v -0.000000 0.100065 -0.239499
v 0.119750 0.100065 -0.207412
v 0.169351 0.100065 -0.169351
v 0.207412 0.100065 -0.119750
v 0.231338 0.100065 -0.061987
v 0.239499 0.100065 0.000000
v 0.231338 0.100065 0.061987
v 0.207412 0.100065 0.119750
v 0.169351 0.100065 0.169351
v 0.119750 0.100065 0.207412
v 0.061987 0.100065 0.231338
v -0.000000 0.100065 0.239499
v -0.061987 0.100065 0.231338
v -0.119750 0.100065 0.207412
v -0.169351 0.100065 0.169351
v -0.207412 0.100065 0.119750
v -0.231338 0.100065 0.061987
v -0.239499 0.100065 0.000000
v -0.231338 0.100065 -0.061987
v -0.207412 0.100065 -0.119750
v -0.169351 0.100065 -0.169351
v -0.119750 0.100065 -0.207412
v -0.061987 0.100065 -0.231338
v 0.049084 0.142499 -0.183183
v -0.000000 0.142499 -0.189645
v 0.094822 0.142499 -0.164237
v 0.134099 0.142499 -0.134099
v 0.164237 0.142499 -0.094822
v 0.183183 0.142499 -0.049084
v 0.189645 0.142499 0.000000
v 0.183183 0.142499 0.049084
v 0.164237 0.142499 0.094822
v 0.134099 0.142499 0.134099
v 0.094822 0.142499 0.164237
v 0.049084 0.142499 0.183183
v -0.000000 0.142499 0.189645
v -0.049084 0.142499 0.183183
v -0.094822 0.142499 0.164237
v -0.134099 0.142499 0.134099
v -0.164237 0.142499 0.094822
v -0.183183 0.142499 0.049084
v -0.189645 0.142499 0.000000
v -0.183183 0.142499 -0.049084
v -0.164237 0.142499 -0.094822
v -0.134099 0.142499 -0.134099
v -0.094822 0.142499 -0.164237
v -0.049084 0.142499 -0.183183
v 0.046278 0.166210 -0.172714
v -0.000000 0.166210 -0.178806
v 0.089403 0.166210 -0.154851
v 0.126435 0.166210 -0.126435
v 0.154851 0.166210 -0.089403
v 0.172714 0.166210 -0.046278
v 0.178806 0.166210 0.000000
v 0.172714 0.166210 0.046278
v 0.154851 0.166210 0.089403
v 0.126435 0.166210 0.126435
v 0.089403 0.166210 0.154851
v 0.046278 0.166210 0.172714
v -0.000000 0.166210 0.178806
v -0.046278 0.166210 0.172714
v -0.089403 0.166210 0.154851
v -0.126435 0.166210 0.126435
v -0.154851 0.166210 0.089403
v -0.172714 0.166210 0.046278
v -0.178806 0.166210 0.000000
v -0.172714 0.166210 -0.046278
v -0.154851 0.166210 -0.089403
v -0.126435 0.166210 -0.126435
v -0.089403 0.166210 -0.154851
v -0.046278 0.166210 -0.172714
v 0.053610 0.171057 0.200076
v -0.207134 0.171057 0.000000
v 0.146466 0.171057 -0.146466
v 0.103567 0.171057 0.179383
v -0.200076 0.171057 0.053610
v 0.103567 0.171057 -0.179383
v 0.080881 -0.041830 -0.301852
v 0.000000 -0.041830 -0.312500
v 0.156250 -0.041830 -0.270633
v 0.220971 -0.041830 -0.220971
v 0.270633 -0.041830 -0.156250
v 0.301852 -0.041830 -0.080881
v 0.312500 -0.041830 -0.000000
v 0.301852 -0.041830 0.080881
v 0.270633 -0.041830 0.156250
v 0.220971 -0.041830 0.220971
v 0.156250 -0.041830 0.270633
v 0.080881 -0.041830 0.301852
v 0.000000 -0.041830 0.312500
v -0.080881 -0.041830 0.301852
v -0.156250 -0.041830 0.270633
v -0.220971 -0.041830 0.220971
v -0.270633 -0.041830 0.156250
v -0.301852 -0.041830 0.080881
v -0.312500 -0.041830 -0.000000
v -0.301852 -0.041830 -0.080881
v -0.270633 -0.041830 -0.156250
v -0.220971 -0.041830 -0.220971
v -0.156250 -0.041830 -0.270633
v -0.080881 -0.041830 -0.301852
v 0.146466 0.171057 0.146466
v -0.179383 0.171057 0.103567
v 0.053610 0.171057 -0.200076
v -0.000000 0.171057 -0.207134
v -0.053610 0.171057 -0.200076
v 0.179383 0.171057 0.103567
v -0.146466 0.171057 0.146466
v -0.103567 0.171057 -0.179383
v 0.200076 0.171057 0.053610
v -0.103567 0.171057 0.179383
v -0.146466 0.171057 -0.146466
v 0.207134 0.171057 0.000000
v -0.053610 0.171057 0.200076
v -0.000000 0.171057 0.207134
v -0.179383 0.171057 -0.103567
v -0.200076 0.171057 -0.053610
v 0.200076 0.171057 -0.053610
v 0.179383 0.171057 -0.103567
v 0.180743 0.220509 -0.104352
v -0.201593 0.220509 -0.054017
v -0.000000 0.220509 0.208704
v -0.000000 0.220509 -0.208704
v 0.054017 0.220509 0.201593
v -0.208704 0.220509 0.000000
v 0.147576 0.220509 -0.147576
v 0.104352 0.220509 0.180743
v -0.201593 0.220509 0.054017
v 0.104352 0.220509 -0.180743
v 0.147576 0.220509 0.147576
v -0.180743 0.220509 0.104352
v 0.054017 0.220509 -0.201593
v -0.054017 0.220509 -0.201593
v 0.180743 0.220509 0.104352
v -0.147576 0.220509 0.147576
v -0.104352 0.220509 -0.180743
v 0.201593 0.220509 0.054017
v -0.104352 0.220509 0.180743
v -0.147576 0.220509 -0.147576
v 0.208704 0.220509 0.000000
v -0.054017 0.220509 0.201593
v -0.180743 0.220509 -0.104352
v 0.201593 0.220509 -0.054017
v 0.156025 0.225356 -0.090081
v -0.174023 0.225356 -0.046629
v -0.000000 0.225356 0.180162
v -0.000000 0.225356 -0.180162
v 0.090081 0.225356 -0.156025
v -0.174023 0.225356 0.046629
v 0.090081 0.225356 0.156025
v 0.127394 0.225356 -0.127394
v -0.180162 0.225356 0.000000
v 0.046629 0.225356 0.174023
v 0.127394 0.225356 0.127394
v -0.156025 0.225356 0.090081
v 0.046629 0.225356 -0.174023
v -0.046629 0.225356 -0.174023
v 0.156025 0.225356 0.090081
v -0.127394 0.225356 0.127394
v -0.090081 0.225356 -0.156025
v 0.174023 0.225356 0.046629
v -0.090081 0.225356 0.156025
v -0.127394 0.225356 -0.127394
v 0.180162 0.225356 0.000000
v -0.046629 0.225356 0.174023
v -0.156025 0.225356 -0.090081
v 0.174023 0.225356 -0.046629
vn -0.0000 -0.0000 -1.0000
vn 0.2588 -0.0000 -0.9659
vn -0.1474 0.8220 0.5500
vn -0.0000 0.8220 0.5694
vn -0.0000 0.6118 0.7910
vn -0.2047 0.6118 0.7641
vn -0.3508 0.8682 0.3508
vn -0.2481 0.8682 0.4297
vn -0.2847 0.8220 0.4931
vn -0.4026 0.8220 0.4026
vn 0.4297 0.8682 0.2481
vn 0.4793 0.8682 0.1284
vn 0.5500 0.8220 0.1474
vn 0.4931 0.8220 0.2847
vn -0.1284 0.8682 -0.4793
vn -0.2481 0.8682 -0.4297
vn -0.2847 0.8220 -0.4931
vn -0.1474 0.8220 -0.5500
vn 0.1284 0.8682 -0.4793
vn -0.0000 0.8682 -0.4962
vn -0.0000 0.8220 -0.5694
vn 0.1474 0.8220 -0.5500
vn -0.4297 0.8682 0.2481
vn -0.4931 0.8220 0.2847
vn 0.3508 0.8682 0.3508
vn 0.4026 0.8220 0.4026
vn 0.2481 0.8682 -0.4297
vn 0.2847 0.8220 -0.4931
vn -0.4793 0.8682 0.1284
vn -0.5500 0.8220 0.1474
vn 0.2481 0.8682 0.4297
vn 0.2847 0.8220 0.4931
vn 0.3508 0.8682 -0.3508
vn 0.4026 0.8220 -0.4026
vn -0.4962 0.8682 -0.0000
vn -0.5694 0.8220 -0.0000
vn 0.1284 0.8682 0.4793
vn 0.1474 0.8220 0.5500
vn 0.4297 0.8682 -0.2481
vn 0.4931 0.8220 -0.2847
vn -0.4793 0.8682 -0.1284
vn -0.5500 0.8220 -0.1474
vn -0.0000 0.8682 0.4962
vn 0.4793 0.8682 -0.1284
vn 0.5500 0.8220 -0.1474
vn -0.4297 0.8682 -0.2481
vn -0.4931 0.8220 -0.2847
vn -0.1284 0.8682 0.4793
vn 0.4962 0.8682 -0.0000
vn 0.5694 0.8220 -0.0000
vn -0.3508 0.8682 -0.3508
vn -0.4026 0.8220 -0.4026
vn 0.3955 0.6118 -0.6851
vn 0.2047 0.6118 -0.7641
vn 0.2354 0.4157 -0.8785
vn 0.4547 0.4157 -0.7876
vn 0.7641 0.6118 -0.2047
vn 0.7910 0.6118 -0.0000
vn -0.6851 0.6118 -0.3955
vn -0.5594 0.6118 -0.5594
vn -0.3955 0.6118 0.6851
vn 0.7641 0.6118 0.2047
vn -0.3955 0.6118 -0.6851
vn -0.5594 0.6118 0.5594
vn 0.6851 0.6118 0.3955
vn -0.2047 0.6118 -0.7641
vn -0.0000 0.6118 -0.7910
vn -0.6851 0.6118 0.3955
vn 0.5594 0.6118 0.5594
vn -0.7641 0.6118 0.2047
vn 0.3955 0.6118 0.6851
vn 0.5594 0.6118 -0.5594
vn -0.7910 0.6118 -0.0000
vn 0.2047 0.6118 0.7641
vn 0.6851 0.6118 -0.3955
vn -0.7641 0.6118 -0.2047
vn -0.7876 0.4157 0.4547
vn -0.8785 0.4157 0.2354
vn 0.6431 0.4157 0.6431
vn 0.4547 0.4157 0.7876
vn 0.6431 0.4157 -0.6431
vn -0.9095 0.4157 -0.0000
vn 0.2354 0.4157 0.8785
vn 0.7876 0.4157 -0.4547
vn -0.8785 0.4157 -0.2354
vn -0.0000 0.4157 0.9095
vn 0.8785 0.4157 -0.2354
vn -0.7876 0.4157 -0.4547
vn -0.2354 0.4157 0.8785
vn 0.9095 0.4157 -0.0000
vn -0.6431 0.4157 -0.6431
vn -0.4547 0.4157 0.7876
vn 0.8785 0.4157 0.2354
vn -0.4547 0.4157 -0.7876
vn -0.6431 0.4157 0.6431
vn 0.7876 0.4157 0.4547
vn -0.2354 0.4157 -0.8785
vn -0.0000 0.4157 -0.9095
vn -0.0000 -1.0000 -0.0000
vn -0.7071 -0.0000 0.7071
vn -0.8660 -0.0000 0.5000
vn 0.8660 -0.0000 0.5000
vn 0.7071 -0.0000 0.7071
vn -0.2588 -0.0000 -0.9659
vn 0.5000 -0.0000 -0.8660
vn -0.9659 -0.0000 0.2588
vn 0.5000 -0.0000 0.8660
vn 0.7071 -0.0000 -0.7071
vn -1.0000 -0.0000 -0.0000
vn 0.2588 -0.0000 0.9659
vn 0.8660 -0.0000 -0.5000
vn -0.9659 -0.0000 -0.2588
vn -0.0000 -0.0000 1.0000
vn 0.9659 -0.0000 -0.2588
vn -0.8660 -0.0000 -0.5000
vn -0.2588 -0.0000 0.9659
vn 1.0000 -0.0000 -0.0000
vn -0.7071 -0.0000 -0.7071
vn -0.5000 -0.0000 0.8660
vn 0.9659 -0.0000 0.2588
vn -0.5000 -0.0000 -0.8660
vn -0.0000 -0.9857 0.1687
vn 0.0437 -0.9857 0.1629
vn -0.1629 -0.9857 -0.0437
vn -0.1687 -0.9857 -0.0000
vn 0.1461 -0.9857 -0.0843
vn 0.1193 -0.9857 -0.1193
vn 0.0843 -0.9857 0.1461
vn -0.1629 -0.9857 0.0437
vn 0.0843 -0.9857 -0.1461
vn 0.1193 -0.9857 0.1193
vn -0.1461 -0.9857 0.0843
vn 0.0437 -0.9857 -0.1629
vn -0.0000 -0.9857 -0.1687
vn -0.0437 -0.9857 -0.1629
vn 0.1461 -0.9857 0.0843
vn -0.1193 -0.9857 0.1193
vn -0.0843 -0.9857 -0.1461
vn 0.1629 -0.9857 0.0437
vn -0.0843 -0.9857 0.1461
vn -0.1193 -0.9857 -0.1193
vn 0.1687 -0.9857 -0.0000
vn -0.0437 -0.9857 0.1629
vn -0.1461 -0.9857 -0.0843
vn 0.1629 -0.9857 -0.0437
vn -0.0000 -0.0317 0.9995
vn 0.2587 -0.0317 0.9654
vn -0.9654 -0.0317 -0.2587
vn -0.9995 -0.0317 -0.0000
vn 0.8656 -0.0317 -0.4997
vn 0.7068 -0.0317 -0.7068
vn 0.4997 -0.0317 0.8656
vn -0.9654 -0.0317 0.2587
vn 0.4997 -0.0317 -0.8656
vn 0.7068 -0.0317 0.7068
vn -0.8656 -0.0317 0.4997
vn 0.2587 -0.0317 -0.9654
vn -0.0000 -0.0317 -0.9995
vn -0.2587 -0.0317 -0.9654
vn 0.8656 -0.0317 0.4997
vn -0.7068 -0.0317 0.7068
vn -0.4997 -0.0317 -0.8656
vn 0.9654 -0.0317 0.2587
vn -0.4997 -0.0317 0.8656
vn -0.7068 -0.0317 -0.7068
vn 0.9995 -0.0317 -0.0000
vn -0.2587 -0.0317 0.9654
vn -0.8656 -0.0317 -0.4997
vn 0.9654 -0.0317 -0.2587
vn -0.0000 0.9859 0.1674
vn 0.0433 0.9859 0.1617
vn -0.1617 0.9859 -0.0433
vn -0.1674 0.9859 -0.0000
vn 0.1450 0.9859 -0.0837
vn 0.1184 0.9859 -0.1184
vn 0.0837 0.9859 0.1450
vn -0.1617 0.9859 0.0433
vn 0.0837 0.9859 -0.1450
vn 0.1184 0.9859 0.1184
vn -0.1450 0.9859 0.0837
vn 0.0433 0.9859 -0.1617
vn -0.0000 0.9859 -0.1674
vn -0.0433 0.9859 -0.1617
vn 0.1450 0.9859 0.0837
vn -0.1184 0.9859 0.1184
vn -0.0837 0.9859 -0.1450
vn 0.1617 0.9859 0.0433
vn -0.0837 0.9859 0.1450
vn -0.1184 0.9859 -0.1184
vn 0.1674 0.9859 -0.0000
vn -0.0433 0.9859 0.1617
vn -0.1450 0.9859 -0.0837
vn 0.1617 0.9859 -0.0433
vt 0.063313 0.213764
vt 0.065532 0.196760
vt 0.084467 0.196760
vt 0.084467 0.213764
vt 0.779848 0.851180
vt 0.769915 0.843008
vt 0.778247 0.833863
vt 0.786542 0.840006
vt 0.801690 0.878841
vt 0.785708 0.872211
vt 0.791584 0.857199
vt 0.804302 0.861376
vt 0.818416 0.706148
vt 0.835146 0.706797
vt 0.830547 0.726592
vt 0.817474 0.725334
vt 0.897828 0.810637
vt 0.893447 0.826663
vt 0.878485 0.820324
vt 0.882363 0.807512
vt 0.897828 0.777533
vt 0.898984 0.794085
vt 0.883579 0.794085
vt 0.882363 0.780657
vt 0.818416 0.882021
vt 0.817474 0.862835
vt 0.801690 0.709328
vt 0.804302 0.726793
vt 0.893447 0.761506
vt 0.878485 0.767845
vt 0.835146 0.881372
vt 0.830547 0.861577
vt 0.785708 0.715958
vt 0.791584 0.730970
vt 0.887008 0.745398
vt 0.872619 0.755734
vt 0.851202 0.877063
vt 0.843054 0.857796
vt 0.771305 0.724060
vt 0.779848 0.736989
vt 0.877614 0.731176
vt 0.864487 0.745236
vt 0.865484 0.868546
vt 0.854478 0.851449
vt 0.759002 0.735011
vt 0.769915 0.745161
vt 0.865484 0.719623
vt 0.854478 0.736720
vt 0.877614 0.856993
vt 0.864487 0.842933
vt 0.771305 0.864109
vt 0.759002 0.853158
vt 0.851202 0.711106
vt 0.843054 0.730373
vt 0.887008 0.842771
vt 0.872618 0.832435
vt 0.866196 0.773423
vt 0.869432 0.783507
vt 0.865146 0.784512
vt 0.861952 0.775468
vt 0.846469 0.749088
vt 0.837246 0.744098
vt 0.854622 0.832386
vt 0.861311 0.824180
vt 0.796048 0.844525
vt 0.827243 0.740949
vt 0.866196 0.814746
vt 0.806219 0.847526
vt 0.816763 0.739752
vt 0.869432 0.804662
vt 0.870408 0.794085
vt 0.816763 0.848417
vt 0.806219 0.740643
vt 0.827243 0.847220
vt 0.796048 0.743644
vt 0.861311 0.763989
vt 0.837246 0.844071
vt 0.786542 0.748163
vt 0.854622 0.755783
vt 0.846469 0.839082
vt 0.778247 0.754306
vt 0.816342 0.842202
vt 0.825696 0.840768
vt 0.806837 0.746156
vt 0.797486 0.748129
vt 0.856913 0.767366
vt 0.834617 0.837860
vt 0.788679 0.751997
vt 0.850450 0.760406
vt 0.842914 0.833481
vt 0.780743 0.757433
vt 0.842914 0.754689
vt 0.850450 0.827763
vt 0.780743 0.830736
vt 0.788679 0.836172
vt 0.834617 0.750309
vt 0.856913 0.820803
vt 0.797486 0.840040
vt 0.825696 0.747401
vt 0.861952 0.812701
vt 0.806837 0.842013
vt 0.816342 0.745967
vt 0.865146 0.803657
vt 0.866276 0.794085
vt 0.680993 0.755977
vt 0.693017 0.768002
vt 0.701519 0.782728
vt 0.705920 0.799154
vt 0.705920 0.816159
vt 0.701519 0.832584
vt 0.693017 0.847311
vt 0.680993 0.859335
vt 0.666266 0.867838
vt 0.649840 0.872239
vt 0.632836 0.872239
vt 0.616410 0.867838
vt 0.601683 0.859335
vt 0.589659 0.847311
vt 0.581157 0.832584
vt 0.576755 0.816159
vt 0.576755 0.799154
vt 0.581157 0.782728
vt 0.589659 0.768002
vt 0.601683 0.755977
vt 0.616410 0.747475
vt 0.632836 0.743074
vt 0.649840 0.743074
vt 0.666266 0.747475
vt 0.073019 0.366809
vt 0.077307 0.349804
vt 0.084467 0.349804
vt 0.084467 0.366809
vt 0.077307 0.077725
vt 0.073019 0.060720
vt 0.084467 0.060720
vt 0.084467 0.077725
vt 0.065532 0.230769
vt 0.084467 0.230769
vt 0.067600 0.179755
vt 0.084467 0.179755
vt 0.080003 0.332799
vt 0.084467 0.332799
vt 0.067600 0.043715
vt 0.084467 0.043715
vt 0.073019 0.162750
vt 0.084467 0.162750
vt 0.081297 0.315794
vt 0.084467 0.315794
vt 0.065532 0.026711
vt 0.084467 0.026711
vt 0.077307 0.145745
vt 0.084467 0.145745
vt 0.080003 0.298789
vt 0.084467 0.298789
vt 0.063313 0.009706
vt 0.084467 0.009706
vt 0.080003 0.128740
vt 0.084467 0.128740
vt 0.077307 0.281784
vt 0.084467 0.281784
vt 0.063313 0.417823
vt 0.065532 0.400818
vt 0.084467 0.400818
vt 0.084467 0.417823
vt 0.081297 0.111735
vt 0.084467 0.111735
vt 0.073019 0.264779
vt 0.084467 0.264779
vt 0.067601 0.383813
vt 0.084467 0.383814
vt 0.080003 0.094730
vt 0.084467 0.094730
vt 0.067600 0.247774
vt 0.084467 0.247774
vt 0.470644 0.980662
vt 0.479861 0.977547
vt 0.482494 0.982928
vt 0.471816 0.986537
vt 0.425747 0.938714
vt 0.425747 0.948444
vt 0.419806 0.949215
vt 0.419806 0.937943
vt 0.492402 0.919500
vt 0.485292 0.912857
vt 0.488785 0.907990
vt 0.497021 0.915685
vt 0.487979 0.972182
vt 0.491897 0.976714
vt 0.428230 0.957852
vt 0.422682 0.960113
vt 0.476723 0.908249
vt 0.478858 0.902652
vt 0.494459 0.964924
vt 0.499404 0.968306
vt 0.433031 0.966315
vt 0.428244 0.969916
vt 0.467261 0.905980
vt 0.467898 0.900023
vt 0.457534 0.906200
vt 0.448185 0.908895
vt 0.445799 0.903400
vt 0.456629 0.900278
vt 0.498872 0.956253
vt 0.504517 0.958261
vt 0.439833 0.973272
vt 0.436124 0.977976
vt 0.439833 0.913886
vt 0.436124 0.909182
vt 0.500927 0.946742
vt 0.506897 0.947244
vt 0.448185 0.978264
vt 0.445799 0.983758
vt 0.433031 0.920844
vt 0.428244 0.917242
vt 0.500487 0.937023
vt 0.506387 0.935984
vt 0.457534 0.980959
vt 0.456629 0.986880
vt 0.428230 0.929306
vt 0.422682 0.927045
vt 0.497581 0.927737
vt 0.503020 0.925227
vt 0.467261 0.981179
vt 0.467898 0.987135
vt 0.063313 0.708325
vt 0.064385 0.697105
vt 0.074655 0.698044
vt 0.073575 0.709349
vt 0.068865 0.516951
vt 0.068351 0.505692
vt 0.078652 0.505179
vt 0.079169 0.516524
vt 0.069285 0.618369
vt 0.069612 0.607102
vt 0.079922 0.607359
vt 0.079593 0.618711
vt 0.065365 0.685876
vt 0.075642 0.686730
vt 0.067744 0.494437
vt 0.078040 0.493839
vt 0.069845 0.595833
vt 0.080157 0.596004
vt 0.066251 0.674640
vt 0.076536 0.675408
vt 0.067044 0.483187
vt 0.077335 0.482504
vt 0.069985 0.584563
vt 0.080298 0.584648
vt 0.070032 0.573292
vt 0.069985 0.562021
vt 0.080298 0.561935
vt 0.080345 0.573292
vt 0.067044 0.663397
vt 0.077335 0.664080
vt 0.066251 0.471944
vt 0.076536 0.471175
vt 0.069845 0.550750
vt 0.080157 0.550579
vt 0.067744 0.652147
vt 0.078040 0.652745
vt 0.065365 0.460707
vt 0.075642 0.459854
vt 0.069612 0.539481
vt 0.079922 0.539225
vt 0.068351 0.640892
vt 0.078652 0.641405
vt 0.064385 0.449479
vt 0.074655 0.448540
vt 0.069285 0.528215
vt 0.079593 0.527873
vt 0.068865 0.629632
vt 0.079169 0.630060
vt 0.063313 0.438258
vt 0.073575 0.437234
vt 0.616024 0.891650
vt 0.627378 0.891903
vt 0.626468 0.897869
vt 0.616666 0.897650
vt 0.580647 0.953990
vt 0.577262 0.943149
vt 0.583206 0.942107
vt 0.586128 0.951465
vt 0.661586 0.952185
vt 0.655981 0.962062
vt 0.651159 0.958433
vt 0.655998 0.949906
vt 0.638291 0.895046
vt 0.635889 0.900582
vt 0.576755 0.931804
vt 0.582769 0.932313
vt 0.648041 0.970181
vt 0.644305 0.965442
vt 0.648041 0.900870
vt 0.644305 0.905609
vt 0.579162 0.920705
vt 0.584846 0.922732
vt 0.638291 0.976005
vt 0.635889 0.970469
vt 0.627378 0.979148
vt 0.616024 0.979401
vt 0.616666 0.973401
vt 0.626468 0.973182
vt 0.655981 0.908989
vt 0.651159 0.912619
vt 0.584321 0.910587
vt 0.589299 0.913998
vt 0.604981 0.976748
vt 0.607134 0.971111
vt 0.661586 0.918867
vt 0.655998 0.921145
vt 0.591891 0.902122
vt 0.595835 0.906690
vt 0.594981 0.971365
vt 0.598502 0.966463
vt 0.664485 0.929847
vt 0.658500 0.930624
vt 0.601372 0.895869
vt 0.604019 0.901293
vt 0.586687 0.963607
vt 0.591342 0.959767
vt 0.664485 0.941204
vt 0.658500 0.940427
vt 0.612134 0.892243
vt 0.613309 0.898162
s 1
f 1/1/1 2/2/2 103/3/2 104/4/1
f 38/5/3 37/6/4 61/7/5 62/8/6
f 16/9/7 15/10/8 39/11/9 40/12/10
f 9/13/11 8/14/12 32/15/13 33/16/14
f 24/17/15 23/18/16 47/19/17 48/20/18
f 2/21/19 1/22/20 26/23/21 25/24/22
f 17/25/23 16/9/7 40/12/10 41/26/24
f 10/27/25 9/13/11 33/16/14 34/28/26
f 1/22/20 24/17/15 48/20/18 26/23/21
f 3/29/27 2/21/19 25/24/22 27/30/28
f 18/31/29 17/25/23 41/26/24 42/32/30
f 11/33/31 10/27/25 34/28/26 35/34/32
f 4/35/33 3/29/27 27/30/28 28/36/34
f 19/37/35 18/31/29 42/32/30 43/38/36
f 12/39/37 11/33/31 35/34/32 36/40/38
f 5/41/39 4/35/33 28/36/34 29/42/40
f 20/43/41 19/37/35 43/38/36 44/44/42
f 13/45/43 12/39/37 36/40/38 37/46/4
f 6/47/44 5/41/39 29/42/40 30/48/45
f 21/49/46 20/43/41 44/44/42 45/50/47
f 14/51/48 13/52/43 37/6/4 38/5/3
f 7/53/49 6/47/44 30/48/45 31/54/50
f 22/55/51 21/49/46 45/50/47 46/56/52
f 15/10/8 14/51/48 38/5/3 39/11/9
f 8/14/12 7/53/49 31/54/50 32/15/13
f 23/18/16 22/55/51 46/56/52 47/19/17
f 51/57/53 49/58/54 73/59/55 75/60/56
f 31/54/50 30/48/45 54/61/57 55/62/58
f 46/56/52 45/50/47 69/63/59 70/64/60
f 39/11/9 38/5/3 62/8/6 63/65/61
f 32/15/13 31/54/50 55/62/58 56/66/62
f 47/19/17 46/56/52 70/64/60 71/67/63
f 40/12/10 39/11/9 63/65/61 64/68/64
f 33/16/14 32/15/13 56/66/62 57/69/65
f 48/20/18 47/19/17 71/67/63 72/70/66
f 25/24/22 26/23/21 50/71/67 49/58/54
f 41/26/24 40/12/10 64/68/64 65/72/68
f 34/28/26 33/16/14 57/69/65 58/73/69
f 26/23/21 48/20/18 72/70/66 50/71/67
f 27/30/28 25/24/22 49/58/54 51/57/53
f 42/32/30 41/26/24 65/72/68 66/74/70
f 35/34/32 34/28/26 58/73/69 59/75/71
f 28/36/34 27/30/28 51/57/53 52/76/72
f 43/38/36 42/32/30 66/74/70 67/77/73
f 36/40/38 35/34/32 59/75/71 60/78/74
f 29/42/40 28/36/34 52/76/72 53/79/75
f 44/44/42 43/38/36 67/77/73 68/80/76
f 37/46/4 36/40/38 60/78/74 61/81/5
f 30/48/45 29/42/40 53/79/75 54/61/57
f 45/50/47 44/44/42 68/80/76 69/63/59
f 66/74/70 65/72/68 89/82/77 90/83/78
f 59/75/71 58/73/69 82/84/79 83/85/80
f 52/76/72 51/57/53 75/60/56 76/86/81
f 67/77/73 66/74/70 90/83/78 91/87/82
f 60/78/74 59/75/71 83/85/80 84/88/83
f 53/79/75 52/76/72 76/86/81 77/89/84
f 68/80/76 67/77/73 91/87/82 92/90/85
f 61/81/5 60/78/74 84/88/83 85/91/86
f 54/61/57 53/79/75 77/89/84 78/92/87
f 69/63/59 68/80/76 92/90/85 93/93/88
f 62/8/6 61/7/5 85/94/86 86/95/89
f 55/62/58 54/61/57 78/92/87 79/96/90
f 70/64/60 69/63/59 93/93/88 94/97/91
f 63/65/61 62/8/6 86/95/89 87/98/92
f 56/66/62 55/62/58 79/96/90 80/99/93
f 71/67/63 70/64/60 94/97/91 95/100/94
f 64/68/64 63/65/61 87/98/92 88/101/95
f 57/69/65 56/66/62 80/99/93 81/102/96
f 72/70/66 71/67/63 95/100/94 96/103/97
f 49/58/54 50/71/67 74/104/98 73/59/55
f 65/72/68 64/68/64 88/101/95 89/82/77
f 58/73/69 57/69/65 81/102/96 82/84/79
f 50/71/67 72/70/66 96/103/97 74/104/98
f 103/105/99 105/106/99 106/107/99 107/108/99 108/109/99 109/110/99 110/111/99 111/112/99 112/113/99 113/114/99 114/115/99 115/116/99 116/117/99 117/118/99 118/119/99 119/120/99 120/121/99 121/122/99 122/123/99 123/124/99 124/125/99 125/126/99 126/127/99 104/128/99
f 16/129/100 17/130/101 119/131/101 118/132/100
f 9/133/102 10/134/103 112/135/103 111/136/102
f 24/137/104 1/1/1 104/4/1 126/138/104
f 2/2/2 3/139/105 105/140/105 103/3/2
f 17/130/101 18/141/106 120/142/106 119/131/101
f 10/134/103 11/143/107 113/144/107 112/135/103
f 3/139/105 4/145/108 106/146/108 105/140/105
f 18/141/106 19/147/109 121/148/109 120/142/106
f 11/143/107 12/149/110 114/150/110 113/144/107
f 4/145/108 5/151/111 107/152/111 106/146/108
f 19/147/109 20/153/112 122/154/112 121/148/109
f 12/149/110 13/155/113 115/156/113 114/150/110
f 5/151/111 6/157/114 108/158/114 107/152/111
f 20/153/112 21/159/115 123/160/115 122/154/112
f 13/161/113 14/162/116 116/163/116 115/164/113
f 6/157/114 7/165/117 109/166/117 108/158/114
f 21/159/115 22/167/118 124/168/118 123/160/115
f 14/162/116 15/169/119 117/170/119 116/163/116
f 7/165/117 8/171/120 110/172/120 109/166/117
f 22/167/118 23/173/121 125/174/121 124/168/118
f 15/169/119 16/129/100 118/132/100 117/170/119
f 8/171/120 9/133/102 111/136/102 110/172/120
f 23/173/121 24/137/104 126/138/104 125/174/121
f 85/175/122 84/176/123 97/177/123 140/178/122
f 92/179/124 91/180/125 98/181/125 142/182/124
f 77/183/126 76/184/127 99/185/127 144/186/126
f 84/176/123 83/187/128 100/188/128 97/177/123
f 91/180/125 90/189/129 101/190/129 98/181/125
f 76/184/127 75/191/130 102/192/130 99/185/127
f 83/187/128 82/193/131 127/194/131 100/188/128
f 90/189/129 89/195/132 128/196/132 101/190/129
f 75/191/130 73/197/133 129/198/133 102/192/130
f 74/199/134 96/200/135 131/201/135 130/202/134
f 82/193/131 81/203/136 132/204/136 127/194/131
f 89/195/132 88/205/137 133/206/137 128/196/132
f 73/197/133 74/199/134 130/202/134 129/198/133
f 96/200/135 95/207/138 134/208/138 131/201/135
f 81/203/136 80/209/139 135/210/139 132/204/136
f 88/205/137 87/211/140 136/212/140 133/206/137
f 95/207/138 94/213/141 137/214/141 134/208/138
f 80/209/139 79/215/142 138/216/142 135/210/139
f 87/211/140 86/217/143 139/218/143 136/212/140
f 94/213/141 93/219/144 141/220/144 137/214/141
f 79/215/142 78/221/145 143/222/145 138/216/142
f 86/217/143 85/223/122 140/224/122 139/218/143
f 93/219/144 92/179/124 142/182/124 141/220/144
f 78/221/145 77/183/126 144/186/126 143/222/145
f 140/225/146 97/226/147 149/227/147 147/228/146
f 142/229/148 98/230/149 150/231/149 146/232/148
f 144/233/150 99/234/151 151/235/151 145/236/150
f 97/226/147 100/237/152 152/238/152 149/227/147
f 98/230/149 101/239/153 153/240/153 150/231/149
f 99/234/151 102/241/154 154/242/154 151/235/151
f 100/237/152 127/243/155 155/244/155 152/238/152
f 101/239/153 128/245/156 156/246/156 153/240/153
f 102/241/154 129/247/157 157/248/157 154/242/154
f 130/249/158 131/250/159 158/251/159 148/252/158
f 127/243/155 132/253/160 159/254/160 155/244/155
f 128/245/156 133/255/161 160/256/161 156/246/156
f 129/247/157 130/249/158 148/252/158 157/248/157
f 131/250/159 134/257/162 161/258/162 158/251/159
f 132/253/160 135/259/163 162/260/163 159/254/160
f 133/255/161 136/261/164 163/262/164 160/256/161
f 134/257/162 137/263/165 164/264/165 161/258/162
f 135/259/163 138/265/166 165/266/166 162/260/163
f 136/261/164 139/267/167 166/268/167 163/262/164
f 137/263/165 141/269/168 167/270/168 164/264/165
f 138/265/166 143/271/169 168/272/169 165/266/166
f 139/267/167 140/273/146 147/274/146 166/268/167
f 141/269/168 142/229/148 146/232/148 167/270/168
f 143/271/169 144/233/150 145/236/150 168/272/169
f 147/275/170 149/276/171 178/277/171 171/278/170
f 146/279/172 150/280/173 177/281/173 170/282/172
f 145/283/174 151/284/175 176/285/175 169/286/174
f 149/276/171 152/287/176 175/288/176 178/277/171
f 150/280/173 153/289/177 174/290/177 177/281/173
f 151/284/175 154/291/178 173/292/178 176/285/175
f 152/287/176 155/293/179 179/294/179 175/288/176
f 153/289/177 156/295/180 180/296/180 174/290/177
f 154/291/178 157/297/181 181/298/181 173/292/178
f 148/299/182 158/300/183 182/301/183 172/302/182
f 155/293/179 159/303/184 183/304/184 179/294/179
f 156/295/180 160/305/185 184/306/185 180/296/180
f 157/297/181 148/299/182 172/302/182 181/298/181
f 158/300/183 161/307/186 185/308/186 182/301/183
f 159/303/184 162/309/187 186/310/187 183/304/184
f 160/305/185 163/311/188 187/312/188 184/306/185
f 161/307/186 164/313/189 188/314/189 185/308/186
f 162/309/187 165/315/190 189/316/190 186/310/187
f 163/311/188 166/317/191 190/318/191 187/312/188
f 164/313/189 167/319/192 191/320/192 188/314/189
f 165/315/190 168/321/193 192/322/193 189/316/190
f 166/317/191 147/323/170 171/324/170 190/318/191
f 167/319/192 146/279/172 170/282/172 191/320/192
f 168/321/193 145/283/174 169/286/174 192/322/193
