# Blender 4.1.1
# www.blender.org
o SmokestackModular_PipeSmall
v 0.156380 0.350353 -0.090286
v 0.174420 0.350353 -0.046736
v 0.174420 0.350353 0.046736
v 0.156380 0.350353 0.090286
v 0.046736 0.350353 0.174420
v -0.000000 0.350353 0.180572
v -0.046736 0.350353 0.174420
v -0.180572 0.350353 0.000000
v -0.127684 0.350353 -0.127684
v -0.090286 0.350353 -0.156380
v -0.046736 0.350353 -0.174420
v 0.041611 0.373709 -0.155293
v -0.000000 0.373709 -0.160771
v 0.080385 0.373709 -0.139232
v 0.113682 0.373709 -0.113682
v 0.139232 0.373709 -0.080385
v 0.155293 0.373709 -0.041611
v 0.160771 0.373709 0.000000
v 0.155293 0.373709 0.041611
v 0.139232 0.373709 0.080385
v 0.113682 0.373709 0.113682
v 0.080385 0.373709 0.139232
v 0.041611 0.373709 0.155293
v -0.000000 0.373709 0.160771
v -0.041611 0.373709 0.155293
v -0.080385 0.373709 0.139232
v -0.113682 0.373709 0.113682
v -0.139232 0.373709 0.080385
v -0.155293 0.373709 0.041611
v -0.160771 0.373709 0.000000
v -0.155293 0.373709 -0.041611
v -0.139232 0.373709 -0.080385
v -0.113682 0.373709 -0.113682
v -0.080385 0.373709 -0.139232
v -0.041611 0.373709 -0.155293
v -0.163346 0.350353 -0.094308
v -0.182189 0.350353 0.048817
v -0.163346 0.350353 0.094308
v -0.133371 0.350353 0.133371
v -0.094308 0.350353 0.163346
v -0.048817 0.350353 0.182189
v 0.048817 0.350353 0.182189
v 0.094308 0.350353 0.163346
v 0.182189 0.350353 0.048817
v 0.188616 0.350353 0.000000
v 0.133371 0.350353 -0.133371
v 0.094308 0.350353 -0.163346
v 0.048817 0.350353 -0.182189
v 0.047676 0.373709 -0.177928
v -0.000000 0.373709 -0.184205
v 0.092102 0.373709 -0.159526
v 0.130253 0.373709 -0.130253
v 0.159526 0.373709 -0.092102
v 0.177928 0.373709 -0.047676
v 0.184205 0.373709 0.000000
v 0.177928 0.373709 0.047676
v 0.159526 0.373709 0.092102
v 0.130253 0.373709 0.130253
v 0.092102 0.373709 0.159526
v 0.047676 0.373709 0.177928
v -0.000000 0.373709 0.184205
v -0.047676 0.373709 0.177928
v -0.092103 0.373709 0.159526
v -0.130253 0.373709 0.130253
v -0.159526 0.373709 0.092102
v -0.177928 0.373709 0.047676
v -0.184205 0.373709 0.000000
v -0.177928 0.373709 -0.047676
v -0.159526 0.373709 -0.092102
v -0.130253 0.373709 -0.130253
v -0.092103 0.373709 -0.159526
v -0.047676 0.373709 -0.177928
v 0.000000 0.087144 0.000000
v 0.182086 0.350353 -0.048790
v -0.133296 0.350353 -0.133296
v 0.156025 0.225356 -0.090081
v -0.174023 0.225356 -0.046629
v -0.000000 0.225356 0.180162
v -0.000000 0.225356 -0.180162
v 0.090081 0.225356 -0.156025
v -0.174023 0.225356 0.046629
v 0.090081 0.225356 0.156025
v 0.127394 0.225356 -0.127394
v -0.180162 0.225356 0.000000
v 0.046629 0.225356 0.174023
v 0.127394 0.225356 0.127394
v -0.156025 0.225356 0.090081
v 0.046629 0.225356 -0.174023
v -0.046629 0.225356 -0.174023
v 0.156025 0.225356 0.090081
v -0.127394 0.225356 0.127394
v -0.090081 0.225356 -0.156025
v 0.174023 0.225356 0.046629
v -0.090081 0.225356 0.156025
v -0.127394 0.225356 -0.127394
v 0.180162 0.225356 0.000000
v -0.046629 0.225356 0.174023
v -0.156025 0.225356 -0.090081
v 0.174023 0.225356 -0.046629
v 0.050548 0.362031 -0.188648
v -0.097651 0.362031 0.169137
v -0.000000 0.362031 -0.195302
v -0.138100 0.362031 0.138100
v 0.195302 0.362031 0.000000
v 0.169137 0.362031 0.097651
v -0.097651 0.362031 -0.169137
v -0.169137 0.362031 0.097651
v -0.169137 0.362031 -0.097651
v 0.050548 0.362031 0.188648
v -0.050548 0.362031 0.188648
v 0.188648 0.362031 0.050548
v 0.097651 0.362031 -0.169137
v -0.195302 0.362031 0.000000
v 0.097651 0.362031 0.169137
v -0.188648 0.362031 0.050548
v -0.000000 0.362031 0.195302
v 0.138100 0.362031 -0.138100
v -0.050534 0.362031 -0.188595
v 0.138061 0.362031 0.138061
v -0.188595 0.362031 -0.050534
v -0.138061 0.362031 -0.138061
v 0.188595 0.362031 -0.050534
v 0.169089 0.362031 -0.097624
v 0.046736 0.350353 -0.174420
v -0.000000 0.350353 -0.180572
v 0.090286 0.350353 -0.156380
v 0.127684 0.350353 -0.127684
v 0.180572 0.350353 0.000000
v 0.127684 0.350353 0.127684
v 0.090286 0.350353 0.156380
v -0.090286 0.350353 0.156380
v -0.127684 0.350353 0.127684
v -0.156380 0.350353 0.090286
v -0.174420 0.350353 0.046736
v -0.174420 0.350353 -0.046736
v -0.156380 0.350353 -0.090286
v -0.094308 0.350353 -0.163346
v -0.188616 0.350353 0.000000
v -0.000000 0.350353 0.188616
v 0.163346 0.350353 0.094308
v -0.000000 0.350353 -0.188616
v 0.163254 0.350353 -0.094255
v 0.133296 0.350353 0.133296
v -0.182086 0.350353 -0.048790
v -0.048790 0.350353 -0.182086
vn 0.9659 -0.0033 -0.2588
vn 0.8660 -0.0033 -0.5000
vn -0.8660 -0.0033 -0.5000
vn -0.9659 -0.0033 -0.2588
vn -0.2588 -0.0033 0.9659
vn -0.0000 -0.0033 1.0000
vn 1.0000 -0.0033 -0.0000
vn -0.7071 -0.0033 -0.7071
vn -0.5000 -0.0033 0.8660
vn 0.9659 -0.0033 0.2588
vn -0.5000 -0.0033 -0.8660
vn -0.7071 -0.0033 0.7071
vn 0.8660 -0.0033 0.5000
vn -0.2588 -0.0033 -0.9659
vn 0.2588 -0.0033 -0.9659
vn -0.0000 -0.0033 -1.0000
vn -0.8660 -0.0033 0.5000
vn 0.7071 -0.0033 0.7071
vn 0.5000 -0.0033 -0.8660
vn -0.9659 -0.0033 0.2588
vn 0.5000 -0.0033 0.8660
vn 0.7071 -0.0033 -0.7071
vn -1.0000 -0.0033 -0.0000
vn 0.2588 -0.0033 0.9659
vn 0.4361 0.4893 -0.7553
vn 0.2257 0.4893 -0.8424
vn -0.0000 1.0000 -0.0000
vn -0.8604 0.1141 0.4967
vn -0.9596 0.1142 0.2571
vn -0.8382 -0.4969 0.2246
vn -0.7515 -0.4969 0.4339
vn 0.2571 0.1142 -0.9596
vn 0.4967 0.1142 -0.8604
vn 0.4339 -0.4969 -0.7515
vn 0.2246 -0.4969 -0.8382
vn 0.7026 0.1129 0.7026
vn 0.4972 0.1134 0.8602
vn 0.4343 -0.4977 0.7508
vn 0.6131 -0.4983 0.6131
vn 0.8602 0.1134 0.4972
vn 0.7508 -0.4977 0.4343
vn -0.7025 0.1142 0.7025
vn -0.6136 -0.4969 0.6136
vn -0.2572 0.1129 -0.9598
vn -0.0005 0.1134 -0.9935
vn -0.0007 -0.4977 -0.8674
vn -0.2244 -0.4983 -0.8375
vn -0.4968 0.1127 -0.8605
vn -0.4335 -0.4984 -0.7508
vn 0.9596 0.1142 0.2571
vn 0.8382 -0.4969 0.2246
vn -0.7026 0.1129 -0.7026
vn -0.6131 -0.4983 -0.6131
vn 0.9935 0.1134 -0.0005
vn 0.8674 -0.4977 -0.0007
vn -0.4967 0.1142 0.8604
vn -0.4339 -0.4969 0.7515
vn -0.8605 0.1127 -0.4968
vn -0.7508 -0.4984 -0.4335
vn 0.9597 0.1122 -0.2577
vn 0.8369 -0.4990 -0.2249
vn -0.2571 0.1142 0.9596
vn -0.2246 -0.4969 0.8382
vn -0.9598 0.1129 -0.2572
vn -0.8375 -0.4983 -0.2244
vn 0.8608 0.1122 -0.4964
vn 0.7508 -0.4990 -0.4327
vn -0.0000 0.1142 0.9935
vn -0.0000 -0.4969 0.8678
vn -0.9935 0.1134 -0.0005
vn -0.8674 -0.4977 -0.0007
vn 0.7029 0.1134 -0.7022
vn 0.6138 -0.4977 -0.6128
vn 0.2571 0.1142 0.9596
vn 0.2246 -0.4969 0.8382
vn -0.8424 0.4893 -0.2257
vn -0.8721 0.4893 -0.0000
vn 0.4361 0.4893 0.7553
vn 0.6167 0.4893 0.6167
vn 0.6167 0.4893 -0.6167
vn -0.7553 0.4893 -0.4361
vn 0.2257 0.4893 0.8424
vn -0.2257 0.4893 0.8424
vn -0.0000 0.4893 0.8721
vn 0.7553 0.4893 -0.4361
vn -0.6167 0.4893 -0.6167
vn -0.4361 0.4893 0.7553
vn 0.8424 0.4893 -0.2257
vn -0.4361 0.4893 -0.7553
vn -0.6167 0.4893 0.6167
vn 0.8721 0.4893 -0.0000
vn -0.2257 0.4893 -0.8424
vn -0.7553 0.4893 0.4361
vn 0.8424 0.4893 0.2257
vn -0.0000 0.4893 -0.8721
vn -0.8424 0.4893 0.2257
vn 0.7553 0.4893 0.4361
vn 0.3629 0.6884 0.6280
vn 0.1876 0.6889 0.7002
vn 0.3625 0.6889 -0.6278
vn 0.5131 0.6884 -0.5127
vn -0.7002 0.6889 0.1876
vn -0.7253 0.6884 -0.0003
vn -0.0000 0.6889 0.7249
vn 0.6290 0.6875 -0.3629
vn -0.7010 0.6879 -0.1878
vn -0.1876 0.6889 0.7002
vn 0.7014 0.6875 -0.1882
vn -0.6285 0.6880 -0.3629
vn -0.3625 0.6889 0.6278
vn 0.7253 0.6884 -0.0003
vn -0.5132 0.6879 -0.5132
vn -0.5126 0.6889 0.5126
vn 0.7002 0.6889 0.1876
vn -0.3629 0.6880 -0.6285
vn -0.0003 0.6884 -0.7253
vn 0.1876 0.6889 -0.7002
vn 0.6280 0.6884 0.3629
vn -0.1878 0.6879 -0.7010
vn -0.6278 0.6889 0.3624
vn 0.5132 0.6879 0.5132
vn -0.0000 -1.0000 -0.0000
vt 0.605910 0.217964
vt 0.605952 0.206625
vt 0.642948 0.207862
vt 0.642902 0.219511
vt 0.605952 0.115890
vt 0.605910 0.104550
vt 0.642902 0.103003
vt 0.642948 0.114652
vt 0.605463 0.036559
vt 0.605356 0.025238
vt 0.642285 0.021527
vt 0.642404 0.033157
vt 0.605859 0.229302
vt 0.642845 0.231158
vt 0.605984 0.127230
vt 0.642985 0.126302
vt 0.605561 0.047884
vt 0.642513 0.044790
vt 0.605798 0.240638
vt 0.642777 0.242804
vt 0.606008 0.138572
vt 0.643011 0.137953
vt 0.605649 0.059212
vt 0.642611 0.056428
vt 0.605728 0.251971
vt 0.642700 0.254446
vt 0.606022 0.149914
vt 0.643026 0.149605
vt 0.606022 0.172600
vt 0.606026 0.161257
vt 0.643031 0.161257
vt 0.643026 0.172909
vt 0.605728 0.070543
vt 0.642700 0.068068
vt 0.605649 0.263302
vt 0.642611 0.266087
vt 0.606008 0.183942
vt 0.643011 0.184561
vt 0.605798 0.081877
vt 0.642777 0.079710
vt 0.605561 0.274630
vt 0.642513 0.277724
vt 0.605984 0.195284
vt 0.642985 0.196212
vt 0.605859 0.093212
vt 0.642845 0.091356
vt 0.605463 0.285955
vt 0.642404 0.289357
vt 0.605356 0.297276
vt 0.642285 0.300988
vt 0.765733 0.576905
vt 0.759002 0.567888
vt 0.990294 0.402253
vt 0.168048 0.800424
vt 0.153988 0.800250
vt 0.153475 0.796265
vt 0.168644 0.796265
vt 0.117520 0.884048
vt 0.127013 0.894251
vt 0.124430 0.897369
vt 0.114286 0.886360
vt 0.209090 0.873855
vt 0.212865 0.860608
vt 0.216952 0.861220
vt 0.212576 0.875360
vt 0.202222 0.885690
vt 0.205352 0.888087
vt 0.181580 0.804127
vt 0.183110 0.800563
vt 0.107742 0.858739
vt 0.110922 0.871966
vt 0.107265 0.873351
vt 0.103994 0.859178
vt 0.107924 0.845056
vt 0.103878 0.844460
vt 0.192337 0.895419
vt 0.194767 0.898617
vt 0.111724 0.831861
vt 0.108225 0.830348
vt 0.180073 0.902248
vt 0.181601 0.906147
vt 0.193579 0.811368
vt 0.196209 0.808098
vt 0.118753 0.820042
vt 0.115538 0.817495
vt 0.166559 0.905637
vt 0.166972 0.909453
vt 0.203155 0.821551
vt 0.206396 0.819265
vt 0.128641 0.810492
vt 0.126382 0.807443
vt 0.152699 0.905362
vt 0.152165 0.909348
vt 0.209656 0.833570
vt 0.213150 0.832200
vt 0.140549 0.803729
vt 0.139046 0.800083
vt 0.139097 0.901627
vt 0.137412 0.905527
vt 0.213071 0.846759
vt 0.216977 0.846252
vt 0.120780 0.868149
vt 0.126076 0.877814
vt 0.121075 0.881474
vt 0.115045 0.870383
vt 0.133776 0.885855
vt 0.129812 0.890743
vt 0.143424 0.891682
vt 0.140907 0.897450
vt 0.154217 0.894799
vt 0.153331 0.900987
vt 0.165307 0.895015
vt 0.166015 0.901220
vt 0.176095 0.892313
vt 0.178393 0.898116
vt 0.185871 0.886892
vt 0.189621 0.891880
vt 0.193812 0.879158
vt 0.198708 0.882971
vt 0.199420 0.869717
vt 0.205076 0.872139
vt 0.202387 0.859106
vt 0.208506 0.860012
vt 0.202566 0.848030
vt 0.208666 0.847304
vt 0.199909 0.837419
vt 0.205615 0.835158
vt 0.194595 0.827826
vt 0.199597 0.824173
vt 0.186866 0.819782
vt 0.190754 0.814884
vt 0.177291 0.814027
vt 0.179758 0.808244
vt 0.166521 0.811017
vt 0.167420 0.804811
vt 0.155318 0.810871
vt 0.154577 0.804678
vt 0.144551 0.813598
vt 0.142227 0.807854
vt 0.134937 0.818959
vt 0.131246 0.813989
vt 0.127024 0.826622
vt 0.122218 0.822788
vt 0.121365 0.836043
vt 0.115736 0.833599
vt 0.118339 0.846588
vt 0.112283 0.845701
vt 0.118140 0.857541
vt 0.112053 0.858250
vt 0.923409 0.678762
vt 0.912527 0.675901
vt 0.831233 0.638113
vt 0.822030 0.631639
vt 0.772816 0.585648
vt 0.934396 0.681191
vt 0.840684 0.644219
vt 0.860274 0.655286
vt 0.850370 0.649946
vt 0.780238 0.594105
vt 0.945471 0.683183
vt 0.870382 0.660229
vt 0.787989 0.602262
vt 0.956615 0.684736
vt 0.880678 0.664770
vt 0.796057 0.610105
vt 0.967812 0.685847
vt 0.891145 0.668899
vt 0.804428 0.617624
vt 0.979044 0.686514
vt 0.901767 0.672611
vt 0.813090 0.624805
vt 0.990294 0.686736
vt 0.241797 0.827874
vt 0.238526 0.840082
vt 0.236388 0.839800
vt 0.239805 0.827049
vt 0.280205 0.894398
vt 0.292843 0.894398
vt 0.293124 0.896536
vt 0.279923 0.896536
vt 0.334521 0.840082
vt 0.331250 0.827874
vt 0.333243 0.827049
vt 0.336631 0.839804
vt 0.248116 0.816929
vt 0.246428 0.815634
vt 0.267998 0.891127
vt 0.267172 0.893119
vt 0.334521 0.852719
vt 0.336631 0.852997
vt 0.257053 0.807993
vt 0.255740 0.806282
vt 0.257053 0.884808
vt 0.255740 0.886519
vt 0.331250 0.864927
vt 0.333243 0.865752
vt 0.267997 0.801674
vt 0.267183 0.799708
vt 0.248116 0.875872
vt 0.246406 0.877185
vt 0.324931 0.875872
vt 0.326642 0.877184
vt 0.280205 0.798403
vt 0.279923 0.796265
vt 0.241797 0.864927
vt 0.239805 0.865752
vt 0.315995 0.884808
vt 0.317308 0.886519
vt 0.292843 0.798403
vt 0.293121 0.796293
vt 0.315995 0.807993
vt 0.305050 0.801674
vt 0.305875 0.799682
vt 0.317308 0.806282
vt 0.238526 0.852720
vt 0.236388 0.853001
vt 0.305050 0.891127
vt 0.305865 0.893093
vt 0.324931 0.816929
vt 0.326642 0.815617
s 1
f 99/1/1 76/2/2 1/3/2 2/4/1
f 98/5/3 77/6/4 135/7/4 136/8/3
f 97/9/5 78/10/6 6/11/6 7/12/5
f 96/13/7 99/1/1 2/4/1 128/14/7
f 95/15/8 98/5/3 136/8/3 9/16/8
f 94/17/9 97/9/5 7/12/5 131/18/9
f 93/19/10 96/13/7 128/14/7 3/20/10
f 92/21/11 95/15/8 9/16/8 10/22/11
f 91/23/12 94/17/9 131/18/9 132/24/12
f 90/25/13 93/19/10 3/20/10 4/26/13
f 89/27/14 92/21/11 10/22/11 11/28/14
f 88/29/15 79/30/16 125/31/16 124/32/15
f 87/33/17 91/23/12 132/24/12 133/34/17
f 86/35/18 90/25/13 4/26/13 129/36/18
f 79/30/16 89/27/14 11/28/14 125/31/16
f 80/37/19 88/29/15 124/32/15 126/38/19
f 81/39/20 87/33/17 133/34/17 134/40/20
f 82/41/21 86/35/18 129/36/18 130/42/21
f 83/43/22 80/37/19 126/38/19 127/44/22
f 84/45/23 81/39/20 134/40/20 8/46/23
f 85/47/24 82/41/21 130/42/21 5/48/24
f 76/2/2 83/43/22 127/44/22 1/3/2
f 77/6/4 84/45/23 8/46/23 135/7/4
f 78/49/6 85/47/24 5/48/24 6/50/6
f 26/51/25 25/52/26 73/53/27
f 107/54/28 115/55/29 37/56/30 38/57/31
f 100/58/32 112/59/33 47/60/34 48/61/35
f 119/62/36 114/63/37 43/64/38 143/65/39
f 105/66/40 119/62/36 143/65/39 140/67/41
f 103/68/42 107/54/28 38/57/31 39/69/43
f 118/70/44 102/71/45 141/72/46 145/73/47
f 106/74/48 118/70/44 145/73/47 137/75/49
f 111/76/50 105/66/40 140/67/41 44/77/51
f 102/71/45 100/58/32 48/61/35 141/72/46
f 121/78/52 106/74/48 137/75/49 75/79/53
f 104/80/54 111/76/50 44/77/51 45/81/55
f 101/82/56 103/68/42 39/69/43 40/83/57
f 108/84/58 121/78/52 75/79/53 36/85/59
f 122/86/60 104/80/54 45/81/55 74/87/61
f 110/88/62 101/82/56 40/83/57 41/89/63
f 120/90/64 108/84/58 36/85/59 144/91/65
f 123/92/66 122/86/60 74/87/61 142/93/67
f 116/94/68 110/88/62 41/89/63 139/95/69
f 113/96/70 120/90/64 144/91/65 138/97/71
f 117/98/72 123/92/66 142/93/67 46/99/73
f 109/100/74 116/94/68 139/95/69 42/101/75
f 115/55/29 113/96/70 138/97/71 37/56/30
f 112/59/33 117/98/72 46/99/73 47/60/34
f 114/63/37 109/100/74 42/101/75 43/64/38
f 13/102/27 12/103/27 49/104/27 50/105/27
f 12/103/27 14/106/27 51/107/27 49/104/27
f 14/106/27 15/108/27 52/109/27 51/107/27
f 15/108/27 16/110/27 53/111/27 52/109/27
f 16/110/27 17/112/27 54/113/27 53/111/27
f 17/112/27 18/114/27 55/115/27 54/113/27
f 18/114/27 19/116/27 56/117/27 55/115/27
f 19/116/27 20/118/27 57/119/27 56/117/27
f 20/118/27 21/120/27 58/121/27 57/119/27
f 21/120/27 22/122/27 59/123/27 58/121/27
f 22/122/27 23/124/27 60/125/27 59/123/27
f 23/124/27 24/126/27 61/127/27 60/125/27
f 24/126/27 25/128/27 62/129/27 61/127/27
f 25/128/27 26/130/27 63/131/27 62/129/27
f 26/130/27 27/132/27 64/133/27 63/131/27
f 27/132/27 28/134/27 65/135/27 64/133/27
f 28/134/27 29/136/27 66/137/27 65/135/27
f 29/136/27 30/138/27 67/139/27 66/137/27
f 30/138/27 31/140/27 68/141/27 67/139/27
f 31/140/27 32/142/27 69/143/27 68/141/27
f 32/142/27 33/144/27 70/145/27 69/143/27
f 33/144/27 34/146/27 71/147/27 70/145/27
f 34/146/27 35/148/27 72/149/27 71/147/27
f 35/148/27 13/102/27 50/105/27 72/149/27
f 19/150/76 18/151/77 73/53/27
f 34/152/78 33/153/79 73/53/27
f 27/154/80 26/51/25 73/53/27
f 20/155/81 19/150/76 73/53/27
f 35/156/82 34/152/78 73/53/27
f 12/157/83 13/158/84 73/53/27
f 28/159/85 27/154/80 73/53/27
f 21/160/86 20/155/81 73/53/27
f 13/158/84 35/156/82 73/53/27
f 14/161/87 12/157/83 73/53/27
f 29/162/88 28/159/85 73/53/27
f 22/163/89 21/160/86 73/53/27
f 15/164/90 14/161/87 73/53/27
f 30/165/91 29/162/88 73/53/27
f 23/166/92 22/163/89 73/53/27
f 16/167/93 15/164/90 73/53/27
f 31/168/94 30/165/91 73/53/27
f 24/169/95 23/166/92 73/53/27
f 17/170/96 16/167/93 73/53/27
f 32/171/97 31/168/94 73/53/27
f 25/172/26 24/169/95 73/53/27
f 18/151/77 17/170/96 73/53/27
f 33/153/79 32/171/97 73/53/27
f 59/123/98 60/125/99 109/100/74 114/63/37
f 51/107/100 52/109/101 117/98/72 112/59/33
f 66/137/102 67/139/103 113/96/70 115/55/29
f 60/125/99 61/127/104 116/94/68 109/100/74
f 52/109/101 53/111/105 123/92/66 117/98/72
f 67/139/103 68/141/106 120/90/64 113/96/70
f 61/127/104 62/129/107 110/88/62 116/94/68
f 53/111/105 54/113/108 122/86/60 123/92/66
f 68/141/106 69/143/109 108/84/58 120/90/64
f 62/129/107 63/131/110 101/82/56 110/88/62
f 54/113/108 55/115/111 104/80/54 122/86/60
f 69/143/109 70/145/112 121/78/52 108/84/58
f 63/131/110 64/133/113 103/68/42 101/82/56
f 55/115/111 56/117/114 111/76/50 104/80/54
f 70/145/112 71/147/115 106/74/48 121/78/52
f 50/105/116 49/104/117 100/58/32 102/71/45
f 56/117/114 57/119/118 105/66/40 111/76/50
f 71/147/115 72/149/119 118/70/44 106/74/48
f 72/149/119 50/105/116 102/71/45 118/70/44
f 64/133/113 65/135/120 107/54/28 103/68/42
f 57/119/118 58/121/121 119/62/36 105/66/40
f 58/121/121 59/123/98 114/63/37 119/62/36
f 49/104/117 51/107/100 112/59/33 100/58/32
f 65/135/120 66/137/102 115/55/29 107/54/28
f 8/173/122 134/174/122 37/175/122 138/176/122
f 5/177/122 130/178/122 43/179/122 42/180/122
f 1/181/122 127/182/122 46/183/122 142/184/122
f 135/185/122 8/173/122 138/176/122 144/186/122
f 6/187/122 5/177/122 42/180/122 139/188/122
f 2/189/122 1/181/122 142/184/122 74/190/122
f 136/191/122 135/185/122 144/186/122 36/192/122
f 7/193/122 6/187/122 139/188/122 41/194/122
f 128/195/122 2/189/122 74/190/122 45/196/122
f 9/197/122 136/191/122 36/192/122 75/198/122
f 131/199/122 7/193/122 41/194/122 40/200/122
f 3/201/122 128/195/122 45/196/122 44/202/122
f 10/203/122 9/197/122 75/198/122 137/204/122
f 132/205/122 131/199/122 40/200/122 39/206/122
f 4/207/122 3/201/122 44/202/122 140/208/122
f 11/209/122 10/203/122 137/204/122 145/210/122
f 124/211/122 125/212/122 141/213/122 48/214/122
f 133/215/122 132/205/122 39/206/122 38/216/122
f 129/217/122 4/207/122 140/208/122 143/218/122
f 125/212/122 11/209/122 145/210/122 141/213/122
f 126/219/122 124/211/122 48/214/122 47/220/122
f 134/174/122 133/215/122 38/216/122 37/175/122
f 130/178/122 129/217/122 143/218/122 43/179/122
f 127/182/122 126/219/122 47/220/122 46/183/122
