# Blender 4.1.1
# www.blender.org
o SmokestackModular_Base_1.25m
v 0.000000 0.101486 -0.312500
v 0.080881 0.090838 -0.301852
v 0.156250 0.080915 -0.270633
v 0.220971 0.054919 -0.220971
v 0.270633 0.034348 -0.156250
v 0.301852 0.021417 -0.080881
v 0.312500 0.015208 0.000000
v 0.301852 0.021417 0.080881
v 0.270633 0.034348 0.156250
v 0.220971 0.054919 0.220971
v 0.156250 0.080915 0.270633
v 0.080881 0.090837 0.301852
v 0.000000 0.101486 0.312500
v -0.080881 0.090838 0.301852
v -0.156250 0.080915 0.270633
v -0.220971 0.054919 0.220971
v -0.270633 0.034348 0.156250
v -0.301852 0.021417 0.080881
v -0.312500 0.015208 0.000000
v -0.301852 0.021417 -0.080881
v -0.270633 0.034348 -0.156250
v -0.220971 0.054919 -0.220971
v -0.156250 0.080915 -0.270633
v -0.080881 0.090837 -0.301852
v 0.061987 0.111317 -0.231338
v -0.000000 0.115005 -0.239499
v 0.119750 0.107881 -0.207412
v 0.169351 0.098878 -0.169351
v 0.207412 0.091753 -0.119750
v 0.231338 0.087275 -0.061987
v 0.239499 0.085125 0.000000
v 0.231338 0.087275 0.061987
v 0.207412 0.091753 0.119750
v 0.169351 0.098878 0.169351
v 0.119750 0.107881 0.207412
v 0.061987 0.111317 0.231338
v -0.000000 0.115005 0.239499
v -0.061987 0.111317 0.231338
v -0.119750 0.107881 0.207412
v -0.169351 0.098878 0.169351
v -0.207412 0.091753 0.119750
v -0.231338 0.087275 0.061987
v -0.239499 0.085125 0.000000
v -0.231338 0.087275 -0.061987
v -0.207412 0.091753 -0.119750
v -0.169351 0.098878 -0.169351
v -0.119750 0.107881 -0.207412
v -0.061987 0.111317 -0.231338
v 0.049084 0.148227 -0.183183
v -0.000000 0.150105 -0.189645
v 0.094822 0.146478 -0.164237
v 0.134099 0.141895 -0.134099
v 0.164237 0.138268 -0.094822
v 0.183183 0.135988 -0.049084
v 0.189645 0.134893 0.000000
v 0.183183 0.135988 0.049084
v 0.164237 0.138268 0.094822
v 0.134099 0.141895 0.134099
v 0.094822 0.146478 0.164237
v 0.049084 0.148227 0.183183
v -0.000000 0.150105 0.189645
v -0.049084 0.148227 0.183183
v -0.094822 0.146478 0.164237
v -0.134099 0.141895 0.134099
v -0.164237 0.138268 0.094822
v -0.183183 0.135988 0.049084
v -0.189645 0.134893 0.000000
v -0.183183 0.135988 -0.049084
v -0.164237 0.138268 -0.094822
v -0.134099 0.141895 -0.134099
v -0.094822 0.146478 -0.164237
v -0.049084 0.148227 -0.183183
v 0.046278 0.166210 -0.172714
v -0.000000 0.166210 -0.178806
v 0.089403 0.166210 -0.154851
v 0.126435 0.166210 -0.126435
v 0.154851 0.166210 -0.089403
v 0.172714 0.166210 -0.046278
v 0.178806 0.166210 0.000000
v 0.172714 0.166210 0.046278
v 0.154851 0.166210 0.089403
v 0.126435 0.166210 0.126435
v 0.089403 0.166210 0.154851
v 0.046278 0.166210 0.172714
v -0.000000 0.166210 0.178806
v -0.046278 0.166210 0.172714
v -0.089403 0.166210 0.154851
v -0.126435 0.166210 0.126435
v -0.154851 0.166210 0.089403
v -0.172714 0.166210 0.046278
v -0.178806 0.166210 0.000000
v -0.172714 0.166210 -0.046278
v -0.154851 0.166210 -0.089403
v -0.126435 0.166210 -0.126435
v -0.089403 0.166210 -0.154851
v -0.046278 0.166210 -0.172714
v 0.053610 0.171057 0.200076
v -0.207134 0.171057 0.000000
v 0.146466 0.171057 -0.146466
v 0.103567 0.171057 0.179383
v -0.200076 0.171057 0.053610
v 0.103567 0.171057 -0.179383
v 0.080881 0.000000 -0.301852
v 0.000000 0.000000 -0.312500
v 0.156250 0.000000 -0.270633
v 0.220971 0.000000 -0.220971
v 0.270633 0.000000 -0.156250
v 0.301852 0.000000 -0.080881
v 0.312500 0.000000 -0.000000
v 0.301852 0.000000 0.080881
v 0.270633 0.000000 0.156250
v 0.220971 0.000000 0.220971
v 0.156250 0.000000 0.270633
v 0.080881 0.000000 0.301852
v 0.000000 0.000000 0.312500
v -0.080881 0.000000 0.301852
v -0.156250 0.000000 0.270633
v -0.220971 0.000000 0.220971
v -0.270633 0.000000 0.156250
v -0.301852 0.000000 0.080881
v -0.312500 0.000000 -0.000000
v -0.301852 0.000000 -0.080881
v -0.270633 0.000000 -0.156250
v -0.220971 0.000000 -0.220971
v -0.156250 0.000000 -0.270633
v -0.080881 0.000000 -0.301852
v 0.146466 0.171057 0.146466
v -0.179383 0.171057 0.103567
v 0.053610 0.171057 -0.200076
v -0.000000 0.171057 -0.207134
v -0.053610 0.171057 -0.200076
v 0.179383 0.171057 0.103567
v -0.146466 0.171057 0.146466
v -0.103567 0.171057 -0.179383
v 0.200076 0.171057 0.053610
v -0.103567 0.171057 0.179383
v -0.146466 0.171057 -0.146466
v 0.207134 0.171057 0.000000
v -0.053610 0.171057 0.200076
v -0.000000 0.171057 0.207134
v -0.179383 0.171057 -0.103567
v -0.200076 0.171057 -0.053610
v 0.200076 0.171057 -0.053610
v 0.179383 0.171057 -0.103567
v 0.180743 0.220509 -0.104352
v -0.201593 0.220509 -0.054017
v -0.000000 0.220509 0.208704
v -0.000000 0.220509 -0.208704
v 0.054017 0.220509 0.201593
v -0.208704 0.220509 0.000000
v 0.147576 0.220509 -0.147576
v 0.104352 0.220509 0.180743
v -0.201593 0.220509 0.054017
v 0.104352 0.220509 -0.180743
v 0.147576 0.220509 0.147576
v -0.180743 0.220509 0.104352
v 0.054017 0.220509 -0.201593
v -0.054017 0.220509 -0.201593
v 0.180743 0.220509 0.104352
v -0.147576 0.220509 0.147576
v -0.104352 0.220509 -0.180743
v 0.201593 0.220509 0.054017
v -0.104352 0.220509 0.180743
v -0.147576 0.220509 -0.147576
v 0.208704 0.220509 0.000000
v -0.054017 0.220509 0.201593
v -0.180743 0.220509 -0.104352
v 0.201593 0.220509 -0.054017
v 0.156025 0.225356 -0.090081
v -0.174023 0.225356 -0.046629
v -0.000000 0.225356 0.180162
v -0.000000 0.225356 -0.180162
v 0.090081 0.225356 -0.156025
v -0.174023 0.225356 0.046629
v 0.090081 0.225356 0.156025
v 0.127394 0.225356 -0.127394
v -0.180162 0.225356 0.000000
v 0.046629 0.225356 0.174023
v 0.127394 0.225356 0.127394
v -0.156025 0.225356 0.090081
v 0.046629 0.225356 -0.174023
v -0.046629 0.225356 -0.174023
v 0.156025 0.225356 0.090081
v -0.127394 0.225356 0.127394
v -0.090081 0.225356 -0.156025
v 0.174023 0.225356 0.046629
v -0.090081 0.225356 0.156025
v -0.127394 0.225356 -0.127394
v 0.180162 0.225356 0.000000
v -0.046629 0.225356 0.174023
v -0.156025 0.225356 -0.090081
v 0.174023 0.225356 -0.046629
vn -0.0000 -0.0000 -1.0000
vn 0.2487 -0.0000 -0.9686
vn 0.2588 -0.0000 -0.9659
vn -0.1799 0.9019 0.3926
vn -0.0000 0.9184 0.3956
vn -0.0000 0.6933 0.7206
vn -0.2156 0.6813 0.6996
vn -0.4941 0.8418 0.2174
vn -0.3237 0.9171 0.2329
vn -0.3445 0.8660 0.3624
vn -0.5055 0.8083 0.3020
vn 0.5926 0.7828 0.1898
vn 0.6601 0.7442 0.1020
vn 0.6697 0.7320 0.1253
vn 0.6031 0.7617 0.2369
vn -0.1636 0.9584 -0.2338
vn -0.3237 0.9171 -0.2329
vn -0.3445 0.8660 -0.3624
vn -0.1799 0.9019 -0.3926
vn 0.1636 0.9584 -0.2338
vn -0.0000 0.9767 -0.2148
vn -0.0000 0.9184 -0.3956
vn 0.1799 0.9020 -0.3926
vn -0.5926 0.7828 0.1898
vn -0.6031 0.7617 0.2369
vn 0.4941 0.8418 0.2174
vn 0.5055 0.8083 0.3020
vn 0.3237 0.9171 -0.2329
vn 0.3445 0.8660 -0.3624
vn -0.6601 0.7442 0.1020
vn -0.6697 0.7320 0.1253
vn 0.3237 0.9171 0.2329
vn 0.3445 0.8660 0.3624
vn 0.4941 0.8418 -0.2174
vn 0.5055 0.8083 -0.3020
vn -0.6840 0.7295 -0.0000
vn -0.6933 0.7206 -0.0000
vn 0.1636 0.9584 0.2338
vn 0.1799 0.9019 0.3926
vn 0.5926 0.7828 -0.1898
vn 0.6031 0.7617 -0.2369
vn -0.6601 0.7442 -0.1020
vn -0.6697 0.7320 -0.1253
vn -0.0000 0.9767 0.2147
vn 0.6601 0.7442 -0.1020
vn 0.6697 0.7320 -0.1253
vn -0.5926 0.7828 -0.1898
vn -0.6031 0.7617 -0.2369
vn -0.1636 0.9584 0.2338
vn 0.6840 0.7295 -0.0000
vn 0.6933 0.7206 -0.0000
vn -0.4941 0.8418 -0.2174
vn -0.5055 0.8083 -0.3020
vn 0.4186 0.6482 -0.6361
vn 0.2156 0.6813 -0.6996
vn 0.2323 0.5175 -0.8235
vn 0.4558 0.4704 -0.7556
vn 0.8107 0.5520 -0.1951
vn 0.8381 0.5455 -0.0000
vn -0.7283 0.5729 -0.3760
vn -0.6000 0.6076 -0.5205
vn -0.4186 0.6482 0.6361
vn 0.8107 0.5520 0.1951
vn -0.4186 0.6482 -0.6361
vn -0.6000 0.6076 0.5205
vn 0.7283 0.5729 0.3760
vn -0.2156 0.6813 -0.6996
vn -0.0000 0.6933 -0.7206
vn -0.7283 0.5729 0.3760
vn 0.6000 0.6076 0.5205
vn -0.8107 0.5520 0.1951
vn 0.4186 0.6482 0.6361
vn 0.6000 0.6076 -0.5205
vn -0.8381 0.5455 -0.0000
vn 0.2156 0.6813 0.6996
vn 0.7283 0.5729 -0.3760
vn -0.8107 0.5520 -0.1951
vn -0.8119 0.3661 0.4547
vn -0.9098 0.3406 0.2372
vn 0.6577 0.4123 0.6304
vn 0.4558 0.4704 0.7556
vn 0.6577 0.4123 -0.6304
vn -0.9432 0.3321 -0.0000
vn 0.2323 0.5175 0.8235
vn 0.8119 0.3661 -0.4547
vn -0.9098 0.3406 -0.2372
vn -0.0000 0.5372 0.8434
vn 0.9098 0.3406 -0.2372
vn -0.8119 0.3661 -0.4547
vn -0.2323 0.5175 0.8235
vn 0.9432 0.3321 -0.0000
vn -0.6577 0.4123 -0.6304
vn -0.4558 0.4704 0.7556
vn 0.9098 0.3406 0.2372
vn -0.4558 0.4704 -0.7556
vn -0.6577 0.4123 0.6304
vn 0.8119 0.3661 0.4547
vn -0.2323 0.5175 -0.8235
vn -0.0000 0.5372 -0.8434
vn -0.0000 -1.0000 -0.0000
vn -0.6908 -0.0000 0.7231
vn -0.8577 -0.0000 0.5142
vn -0.8660 -0.0000 0.5000
vn -0.7071 -0.0000 0.7071
vn 0.8577 -0.0000 0.5142
vn 0.6908 -0.0000 0.7231
vn 0.7071 -0.0000 0.7071
vn 0.8660 -0.0000 0.5000
vn -0.2487 -0.0000 -0.9686
vn -0.2588 -0.0000 -0.9659
vn 0.4833 -0.0000 -0.8754
vn 0.5000 -0.0000 -0.8660
vn -0.9634 -0.0000 0.2680
vn -0.9659 -0.0000 0.2588
vn 0.4833 -0.0000 0.8754
vn 0.5000 -0.0000 0.8660
vn 0.6908 -0.0000 -0.7231
vn 0.7071 -0.0000 -0.7071
vn -1.0000 -0.0000 -0.0000
vn 0.2487 -0.0000 0.9686
vn 0.2588 -0.0000 0.9659
vn 0.8577 -0.0000 -0.5142
vn 0.8660 -0.0000 -0.5000
vn -0.9634 -0.0000 -0.2680
vn -0.9659 -0.0000 -0.2588
vn -0.0000 -0.0000 1.0000
vn 0.9634 -0.0000 -0.2680
vn 0.9659 -0.0000 -0.2588
vn -0.8577 -0.0000 -0.5142
vn -0.8660 -0.0000 -0.5000
vn -0.2487 -0.0000 0.9686
vn -0.2588 -0.0000 0.9659
vn 1.0000 -0.0000 -0.0000
vn -0.6908 -0.0000 -0.7231
vn -0.7071 -0.0000 -0.7071
vn -0.4833 -0.0000 0.8754
vn -0.5000 -0.0000 0.8660
vn 0.9634 -0.0000 0.2680
vn 0.9659 -0.0000 0.2588
vn -0.4833 -0.0000 -0.8754
vn -0.5000 -0.0000 -0.8660
vn -0.0000 -0.9857 0.1687
vn 0.0437 -0.9857 0.1629
vn -0.1629 -0.9857 -0.0437
vn -0.1687 -0.9857 -0.0000
vn 0.1461 -0.9857 -0.0843
vn 0.1193 -0.9857 -0.1193
vn 0.0843 -0.9857 0.1461
vn -0.1629 -0.9857 0.0437
vn 0.0843 -0.9857 -0.1461
vn 0.1193 -0.9857 0.1193
vn -0.1461 -0.9857 0.0843
vn 0.0437 -0.9857 -0.1629
vn -0.0000 -0.9857 -0.1687
vn -0.0437 -0.9857 -0.1629
vn 0.1461 -0.9857 0.0843
vn -0.1193 -0.9857 0.1193
vn -0.0843 -0.9857 -0.1461
vn 0.1629 -0.9857 0.0437
vn -0.0843 -0.9857 0.1461
vn -0.1193 -0.9857 -0.1193
vn 0.1687 -0.9857 -0.0000
vn -0.0437 -0.9857 0.1629
vn -0.1461 -0.9857 -0.0843
vn 0.1629 -0.9857 -0.0437
vn -0.0000 -0.0317 0.9995
vn 0.2587 -0.0317 0.9654
vn -0.9654 -0.0317 -0.2587
vn -0.9995 -0.0317 -0.0000
vn 0.8656 -0.0317 -0.4997
vn 0.7068 -0.0317 -0.7068
vn 0.4997 -0.0317 0.8656
vn -0.9654 -0.0317 0.2587
vn 0.4997 -0.0317 -0.8656
vn 0.7068 -0.0317 0.7068
vn -0.8656 -0.0317 0.4997
vn 0.2587 -0.0317 -0.9654
vn -0.0000 -0.0317 -0.9995
vn -0.2587 -0.0317 -0.9654
vn 0.8656 -0.0317 0.4997
vn -0.7068 -0.0317 0.7068
vn -0.4997 -0.0317 -0.8656
vn 0.9654 -0.0317 0.2587
vn -0.4997 -0.0317 0.8656
vn -0.7068 -0.0317 -0.7068
vn 0.9995 -0.0317 -0.0000
vn -0.2587 -0.0317 0.9654
vn -0.8656 -0.0317 -0.4997
vn 0.9654 -0.0317 -0.2587
vn -0.0000 0.9859 0.1674
vn 0.0433 0.9859 0.1617
vn -0.1617 0.9859 -0.0433
vn -0.1674 0.9859 -0.0000
vn 0.1450 0.9859 -0.0837
vn 0.1184 0.9859 -0.1184
vn 0.0837 0.9859 0.1450
vn -0.1617 0.9859 0.0433
vn 0.0837 0.9859 -0.1450
vn 0.1184 0.9859 0.1184
vn -0.1450 0.9859 0.0837
vn 0.0433 0.9859 -0.1617
vn -0.0000 0.9859 -0.1674
vn -0.0433 0.9859 -0.1617
vn 0.1450 0.9859 0.0837
vn -0.1184 0.9859 0.1184
vn -0.0837 0.9859 -0.1450
vn 0.1617 0.9859 0.0433
vn -0.0837 0.9859 0.1450
vn -0.1184 0.9859 -0.1184
vn 0.1674 0.9859 -0.0000
vn -0.0433 0.9859 0.1617
vn -0.1450 0.9859 -0.0837
vn 0.1617 0.9859 -0.0433
vt 0.063313 0.213764
vt 0.065532 0.196760
vt 0.084467 0.196760
vt 0.084467 0.213764
vt 0.779848 0.851180
vt 0.769915 0.843008
vt 0.778247 0.833863
vt 0.786542 0.840006
vt 0.801690 0.878841
vt 0.785708 0.872211
vt 0.791584 0.857199
vt 0.804302 0.861376
vt 0.818416 0.706148
vt 0.835146 0.706797
vt 0.830547 0.726592
vt 0.817474 0.725334
vt 0.897828 0.810637
vt 0.893447 0.826663
vt 0.878485 0.820324
vt 0.882363 0.807512
vt 0.897828 0.777533
vt 0.898984 0.794085
vt 0.883579 0.794085
vt 0.882363 0.780657
vt 0.818416 0.882021
vt 0.817474 0.862835
vt 0.801690 0.709328
vt 0.804302 0.726793
vt 0.893447 0.761506
vt 0.878485 0.767845
vt 0.835146 0.881372
vt 0.830547 0.861577
vt 0.785708 0.715958
vt 0.791584 0.730970
vt 0.887008 0.745398
vt 0.872619 0.755734
vt 0.851202 0.877063
vt 0.843054 0.857796
vt 0.771305 0.724060
vt 0.779848 0.736989
vt 0.877614 0.731176
vt 0.864487 0.745236
vt 0.865484 0.868546
vt 0.854478 0.851449
vt 0.759002 0.735011
vt 0.769915 0.745161
vt 0.865484 0.719623
vt 0.854478 0.736720
vt 0.877614 0.856993
vt 0.864487 0.842933
vt 0.771305 0.864109
vt 0.759002 0.853158
vt 0.851202 0.711106
vt 0.843054 0.730373
vt 0.887008 0.842771
vt 0.872618 0.832435
vt 0.866196 0.773423
vt 0.869432 0.783507
vt 0.865146 0.784512
vt 0.861952 0.775468
vt 0.846469 0.749088
vt 0.837246 0.744098
vt 0.854622 0.832386
vt 0.861311 0.824180
vt 0.796048 0.844525
vt 0.827243 0.740949
vt 0.866196 0.814746
vt 0.806219 0.847526
vt 0.816763 0.739752
vt 0.869432 0.804662
vt 0.870408 0.794085
vt 0.816763 0.848417
vt 0.806219 0.740643
vt 0.827243 0.847220
vt 0.796048 0.743644
vt 0.861311 0.763989
vt 0.837246 0.844071
vt 0.786542 0.748163
vt 0.854622 0.755783
vt 0.846469 0.839082
vt 0.778247 0.754306
vt 0.816342 0.842202
vt 0.825696 0.840768
vt 0.806837 0.746156
vt 0.797486 0.748129
vt 0.856913 0.767366
vt 0.834617 0.837860
vt 0.788679 0.751997
vt 0.850450 0.760406
vt 0.842914 0.833481
vt 0.780743 0.757433
vt 0.842914 0.754689
vt 0.850450 0.827763
vt 0.780743 0.830736
vt 0.788679 0.836172
vt 0.834617 0.750309
vt 0.856913 0.820803
vt 0.797486 0.840040
vt 0.825696 0.747401
vt 0.861952 0.812701
vt 0.806837 0.842013
vt 0.816342 0.745967
vt 0.865146 0.803657
vt 0.866276 0.794085
vt 0.680993 0.755977
vt 0.693017 0.768002
vt 0.701519 0.782728
vt 0.705920 0.799154
vt 0.705920 0.816159
vt 0.701519 0.832584
vt 0.693017 0.847311
vt 0.680993 0.859335
vt 0.666266 0.867838
vt 0.649840 0.872239
vt 0.632836 0.872239
vt 0.616410 0.867838
vt 0.601683 0.859335
vt 0.589659 0.847311
vt 0.581157 0.832584
vt 0.576755 0.816159
vt 0.576755 0.799154
vt 0.581157 0.782728
vt 0.589659 0.768002
vt 0.601683 0.755977
vt 0.616410 0.747475
vt 0.632836 0.743074
vt 0.649840 0.743074
vt 0.666266 0.747475
vt 0.073019 0.366809
vt 0.077307 0.349804
vt 0.084467 0.349804
vt 0.084467 0.366809
vt 0.077307 0.077725
vt 0.073019 0.060720
vt 0.084467 0.060720
vt 0.084467 0.077725
vt 0.065532 0.230769
vt 0.084467 0.230769
vt 0.067600 0.179755
vt 0.084467 0.179755
vt 0.080003 0.332799
vt 0.084467 0.332799
vt 0.067600 0.043715
vt 0.084467 0.043715
vt 0.073019 0.162750
vt 0.084467 0.162750
vt 0.081297 0.315794
vt 0.084467 0.315794
vt 0.065532 0.026711
vt 0.084467 0.026711
vt 0.077307 0.145745
vt 0.084467 0.145745
vt 0.080003 0.298789
vt 0.084467 0.298789
vt 0.063313 0.009706
vt 0.084467 0.009706
vt 0.080003 0.128740
vt 0.084467 0.128740
vt 0.077307 0.281784
vt 0.084467 0.281784
vt 0.063313 0.417823
vt 0.065532 0.400818
vt 0.084467 0.400818
vt 0.084467 0.417823
vt 0.081297 0.111735
vt 0.084467 0.111735
vt 0.073019 0.264779
vt 0.084467 0.264779
vt 0.067601 0.383813
vt 0.084467 0.383814
vt 0.080003 0.094730
vt 0.084467 0.094730
vt 0.067600 0.247774
vt 0.084467 0.247774
vt 0.470644 0.980662
vt 0.479861 0.977547
vt 0.482494 0.982928
vt 0.471816 0.986537
vt 0.425747 0.938714
vt 0.425747 0.948444
vt 0.419806 0.949215
vt 0.419806 0.937943
vt 0.492402 0.919500
vt 0.485292 0.912857
vt 0.488785 0.907990
vt 0.497021 0.915685
vt 0.487979 0.972182
vt 0.491897 0.976714
vt 0.428230 0.957852
vt 0.422682 0.960113
vt 0.476723 0.908249
vt 0.478858 0.902652
vt 0.494459 0.964924
vt 0.499404 0.968306
vt 0.433031 0.966315
vt 0.428244 0.969916
vt 0.467261 0.905980
vt 0.467898 0.900023
vt 0.457534 0.906200
vt 0.448185 0.908895
vt 0.445799 0.903400
vt 0.456629 0.900278
vt 0.498872 0.956253
vt 0.504517 0.958261
vt 0.439833 0.973272
vt 0.436124 0.977976
vt 0.439833 0.913886
vt 0.436124 0.909182
vt 0.500927 0.946742
vt 0.506897 0.947244
vt 0.448185 0.978264
vt 0.445799 0.983758
vt 0.433031 0.920844
vt 0.428244 0.917242
vt 0.500487 0.937023
vt 0.506387 0.935984
vt 0.457534 0.980959
vt 0.456629 0.986880
vt 0.428230 0.929306
vt 0.422682 0.927045
vt 0.497581 0.927737
vt 0.503020 0.925227
vt 0.467261 0.981179
vt 0.467898 0.987135
vt 0.063313 0.708325
vt 0.064385 0.697105
vt 0.074655 0.698044
vt 0.073575 0.709349
vt 0.068865 0.516951
vt 0.068351 0.505692
vt 0.078652 0.505179
vt 0.079169 0.516524
vt 0.069285 0.618369
vt 0.069612 0.607102
vt 0.079922 0.607359
vt 0.079593 0.618711
vt 0.065365 0.685876
vt 0.075642 0.686730
vt 0.067744 0.494437
vt 0.078040 0.493839
vt 0.069845 0.595833
vt 0.080157 0.596004
vt 0.066251 0.674640
vt 0.076536 0.675408
vt 0.067044 0.483187
vt 0.077335 0.482504
vt 0.069985 0.584563
vt 0.080298 0.584648
vt 0.070032 0.573292
vt 0.069985 0.562021
vt 0.080298 0.561935
vt 0.080345 0.573292
vt 0.067044 0.663397
vt 0.077335 0.664080
vt 0.066251 0.471944
vt 0.076536 0.471175
vt 0.069845 0.550750
vt 0.080157 0.550579
vt 0.067744 0.652147
vt 0.078040 0.652745
vt 0.065365 0.460707
vt 0.075642 0.459854
vt 0.069612 0.539481
vt 0.079922 0.539225
vt 0.068351 0.640892
vt 0.078652 0.641405
vt 0.064385 0.449479
vt 0.074655 0.448540
vt 0.069285 0.528215
vt 0.079593 0.527873
vt 0.068865 0.629632
vt 0.079169 0.630060
vt 0.063313 0.438258
vt 0.073575 0.437234
vt 0.616024 0.891650
vt 0.627378 0.891903
vt 0.626468 0.897869
vt 0.616666 0.897650
vt 0.580647 0.953990
vt 0.577262 0.943149
vt 0.583206 0.942107
vt 0.586128 0.951465
vt 0.661586 0.952185
vt 0.655981 0.962062
vt 0.651159 0.958433
vt 0.655998 0.949906
vt 0.638291 0.895046
vt 0.635889 0.900582
vt 0.576755 0.931804
vt 0.582769 0.932313
vt 0.648041 0.970181
vt 0.644305 0.965442
vt 0.648041 0.900870
vt 0.644305 0.905609
vt 0.579162 0.920705
vt 0.584846 0.922732
vt 0.638291 0.976005
vt 0.635889 0.970469
vt 0.627378 0.979148
vt 0.616024 0.979401
vt 0.616666 0.973401
vt 0.626468 0.973182
vt 0.655981 0.908989
vt 0.651159 0.912619
vt 0.584321 0.910587
vt 0.589299 0.913998
vt 0.604981 0.976748
vt 0.607134 0.971111
vt 0.661586 0.918867
vt 0.655998 0.921145
vt 0.591891 0.902122
vt 0.595835 0.906690
vt 0.594981 0.971365
vt 0.598502 0.966463
vt 0.664485 0.929847
vt 0.658500 0.930624
vt 0.601372 0.895869
vt 0.604019 0.901293
vt 0.586687 0.963607
vt 0.591342 0.959767
vt 0.664485 0.941204
vt 0.658500 0.940427
vt 0.612134 0.892243
vt 0.613309 0.898162
s 1
f 1/1/1 2/2/2 103/3/3 104/4/1
f 38/5/4 37/6/5 61/7/6 62/8/7
f 16/9/8 15/10/9 39/11/10 40/12/11
f 9/13/12 8/14/13 32/15/14 33/16/15
f 24/17/16 23/18/17 47/19/18 48/20/19
f 2/21/20 1/22/21 26/23/22 25/24/23
f 17/25/24 16/9/8 40/12/11 41/26/25
f 10/27/26 9/13/12 33/16/15 34/28/27
f 1/22/21 24/17/16 48/20/19 26/23/22
f 3/29/28 2/21/20 25/24/23 27/30/29
f 18/31/30 17/25/24 41/26/25 42/32/31
f 11/33/32 10/27/26 34/28/27 35/34/33
f 4/35/34 3/29/28 27/30/29 28/36/35
f 19/37/36 18/31/30 42/32/31 43/38/37
f 12/39/38 11/33/32 35/34/33 36/40/39
f 5/41/40 4/35/34 28/36/35 29/42/41
f 20/43/42 19/37/36 43/38/37 44/44/43
f 13/45/44 12/39/38 36/40/39 37/46/5
f 6/47/45 5/41/40 29/42/41 30/48/46
f 21/49/47 20/43/42 44/44/43 45/50/48
f 14/51/49 13/52/44 37/6/5 38/5/4
f 7/53/50 6/47/45 30/48/46 31/54/51
f 22/55/52 21/49/47 45/50/48 46/56/53
f 15/10/9 14/51/49 38/5/4 39/11/10
f 8/14/13 7/53/50 31/54/51 32/15/14
f 23/18/17 22/55/52 46/56/53 47/19/18
f 51/57/54 49/58/55 73/59/56 75/60/57
f 31/54/51 30/48/46 54/61/58 55/62/59
f 46/56/53 45/50/48 69/63/60 70/64/61
f 39/11/10 38/5/4 62/8/7 63/65/62
f 32/15/14 31/54/51 55/62/59 56/66/63
f 47/19/18 46/56/53 70/64/61 71/67/64
f 40/12/11 39/11/10 63/65/62 64/68/65
f 33/16/15 32/15/14 56/66/63 57/69/66
f 48/20/19 47/19/18 71/67/64 72/70/67
f 25/24/23 26/23/22 50/71/68 49/58/55
f 41/26/25 40/12/11 64/68/65 65/72/69
f 34/28/27 33/16/15 57/69/66 58/73/70
f 26/23/22 48/20/19 72/70/67 50/71/68
f 27/30/29 25/24/23 49/58/55 51/57/54
f 42/32/31 41/26/25 65/72/69 66/74/71
f 35/34/33 34/28/27 58/73/70 59/75/72
f 28/36/35 27/30/29 51/57/54 52/76/73
f 43/38/37 42/32/31 66/74/71 67/77/74
f 36/40/39 35/34/33 59/75/72 60/78/75
f 29/42/41 28/36/35 52/76/73 53/79/76
f 44/44/43 43/38/37 67/77/74 68/80/77
f 37/46/5 36/40/39 60/78/75 61/81/6
f 30/48/46 29/42/41 53/79/76 54/61/58
f 45/50/48 44/44/43 68/80/77 69/63/60
f 66/74/71 65/72/69 89/82/78 90/83/79
f 59/75/72 58/73/70 82/84/80 83/85/81
f 52/76/73 51/57/54 75/60/57 76/86/82
f 67/77/74 66/74/71 90/83/79 91/87/83
f 60/78/75 59/75/72 83/85/81 84/88/84
f 53/79/76 52/76/73 76/86/82 77/89/85
f 68/80/77 67/77/74 91/87/83 92/90/86
f 61/81/6 60/78/75 84/88/84 85/91/87
f 54/61/58 53/79/76 77/89/85 78/92/88
f 69/63/60 68/80/77 92/90/86 93/93/89
f 62/8/7 61/7/6 85/94/87 86/95/90
f 55/62/59 54/61/58 78/92/88 79/96/91
f 70/64/61 69/63/60 93/93/89 94/97/92
f 63/65/62 62/8/7 86/95/90 87/98/93
f 56/66/63 55/62/59 79/96/91 80/99/94
f 71/67/64 70/64/61 94/97/92 95/100/95
f 64/68/65 63/65/62 87/98/93 88/101/96
f 57/69/66 56/66/63 80/99/94 81/102/97
f 72/70/67 71/67/64 95/100/95 96/103/98
f 49/58/55 50/71/68 74/104/99 73/59/56
f 65/72/69 64/68/65 88/101/96 89/82/78
f 58/73/70 57/69/66 81/102/97 82/84/80
f 50/71/68 72/70/67 96/103/98 74/104/99
f 103/105/100 105/106/100 106/107/100 107/108/100 108/109/100 109/110/100 110/111/100 111/112/100 112/113/100 113/114/100 114/115/100 115/116/100 116/117/100 117/118/100 118/119/100 119/120/100 120/121/100 121/122/100 122/123/100 123/124/100 124/125/100 125/126/100 126/127/100 104/128/100
f 16/129/101 17/130/102 119/131/103 118/132/104
f 9/133/105 10/134/106 112/135/107 111/136/108
f 24/137/109 1/1/1 104/4/1 126/138/110
f 2/2/2 3/139/111 105/140/112 103/3/3
f 17/130/102 18/141/113 120/142/114 119/131/103
f 10/134/106 11/143/115 113/144/116 112/135/107
f 3/139/111 4/145/117 106/146/118 105/140/112
f 18/141/113 19/147/119 121/148/119 120/142/114
f 11/143/115 12/149/120 114/150/121 113/144/116
f 4/145/117 5/151/122 107/152/123 106/146/118
f 19/147/119 20/153/124 122/154/125 121/148/119
f 12/149/120 13/155/126 115/156/126 114/150/121
f 5/151/122 6/157/127 108/158/128 107/152/123
f 20/153/124 21/159/129 123/160/130 122/154/125
f 13/161/126 14/162/131 116/163/132 115/164/126
f 6/157/127 7/165/133 109/166/133 108/158/128
f 21/159/129 22/167/134 124/168/135 123/160/130
f 14/162/131 15/169/136 117/170/137 116/163/132
f 7/165/133 8/171/138 110/172/139 109/166/133
f 22/167/134 23/173/140 125/174/141 124/168/135
f 15/169/136 16/129/101 118/132/104 117/170/137
f 8/171/138 9/133/105 111/136/108 110/172/139
f 23/173/140 24/137/109 126/138/110 125/174/141
f 85/175/142 84/176/143 97/177/143 140/178/142
f 92/179/144 91/180/145 98/181/145 142/182/144
f 77/183/146 76/184/147 99/185/147 144/186/146
f 84/176/143 83/187/148 100/188/148 97/177/143
f 91/180/145 90/189/149 101/190/149 98/181/145
f 76/184/147 75/191/150 102/192/150 99/185/147
f 83/187/148 82/193/151 127/194/151 100/188/148
f 90/189/149 89/195/152 128/196/152 101/190/149
f 75/191/150 73/197/153 129/198/153 102/192/150
f 74/199/154 96/200/155 131/201/155 130/202/154
f 82/193/151 81/203/156 132/204/156 127/194/151
f 89/195/152 88/205/157 133/206/157 128/196/152
f 73/197/153 74/199/154 130/202/154 129/198/153
f 96/200/155 95/207/158 134/208/158 131/201/155
f 81/203/156 80/209/159 135/210/159 132/204/156
f 88/205/157 87/211/160 136/212/160 133/206/157
f 95/207/158 94/213/161 137/214/161 134/208/158
f 80/209/159 79/215/162 138/216/162 135/210/159
f 87/211/160 86/217/163 139/218/163 136/212/160
f 94/213/161 93/219/164 141/220/164 137/214/161
f 79/215/162 78/221/165 143/222/165 138/216/162
f 86/217/163 85/223/142 140/224/142 139/218/163
f 93/219/164 92/179/144 142/182/144 141/220/164
f 78/221/165 77/183/146 144/186/146 143/222/165
f 140/225/166 97/226/167 149/227/167 147/228/166
f 142/229/168 98/230/169 150/231/169 146/232/168
f 144/233/170 99/234/171 151/235/171 145/236/170
f 97/226/167 100/237/172 152/238/172 149/227/167
f 98/230/169 101/239/173 153/240/173 150/231/169
f 99/234/171 102/241/174 154/242/174 151/235/171
f 100/237/172 127/243/175 155/244/175 152/238/172
f 101/239/173 128/245/176 156/246/176 153/240/173
f 102/241/174 129/247/177 157/248/177 154/242/174
f 130/249/178 131/250/179 158/251/179 148/252/178
f 127/243/175 132/253/180 159/254/180 155/244/175
f 128/245/176 133/255/181 160/256/181 156/246/176
f 129/247/177 130/249/178 148/252/178 157/248/177
f 131/250/179 134/257/182 161/258/182 158/251/179
f 132/253/180 135/259/183 162/260/183 159/254/180
f 133/255/181 136/261/184 163/262/184 160/256/181
f 134/257/182 137/263/185 164/264/185 161/258/182
f 135/259/183 138/265/186 165/266/186 162/260/183
f 136/261/184 139/267/187 166/268/187 163/262/184
f 137/263/185 141/269/188 167/270/188 164/264/185
f 138/265/186 143/271/189 168/272/189 165/266/186
f 139/267/187 140/273/166 147/274/166 166/268/187
f 141/269/188 142/229/168 146/232/168 167/270/188
f 143/271/189 144/233/170 145/236/170 168/272/189
f 147/275/190 149/276/191 178/277/191 171/278/190
f 146/279/192 150/280/193 177/281/193 170/282/192
f 145/283/194 151/284/195 176/285/195 169/286/194
f 149/276/191 152/287/196 175/288/196 178/277/191
f 150/280/193 153/289/197 174/290/197 177/281/193
f 151/284/195 154/291/198 173/292/198 176/285/195
f 152/287/196 155/293/199 179/294/199 175/288/196
f 153/289/197 156/295/200 180/296/200 174/290/197
f 154/291/198 157/297/201 181/298/201 173/292/198
f 148/299/202 158/300/203 182/301/203 172/302/202
f 155/293/199 159/303/204 183/304/204 179/294/199
f 156/295/200 160/305/205 184/306/205 180/296/200
f 157/297/201 148/299/202 172/302/202 181/298/201
f 158/300/203 161/307/206 185/308/206 182/301/203
f 159/303/204 162/309/207 186/310/207 183/304/204
f 160/305/205 163/311/208 187/312/208 184/306/205
f 161/307/206 164/313/209 188/314/209 185/308/206
f 162/309/207 165/315/210 189/316/210 186/310/207
f 163/311/208 166/317/211 190/318/211 187/312/208
f 164/313/209 167/319/212 191/320/212 188/314/209
f 165/315/210 168/321/213 192/322/213 189/316/210
f 166/317/211 147/323/190 171/324/190 190/318/211
f 167/319/212 146/279/192 170/282/192 191/320/212
f 168/321/213 145/283/194 169/286/194 192/322/213
