# Blender 4.1.1
# www.blender.org
o SmokestackModular_DiamondSmall
v 0.426183 1.056718 -0.114195
v -0.382106 1.056718 -0.220609
v -0.114196 1.056718 0.426183
v 0.441218 1.056718 0.000000
v -0.311988 1.056718 -0.311988
v -0.220609 1.056718 0.382106
v 0.426183 1.056718 0.114196
v -0.220609 1.056718 -0.382106
v -0.311988 1.056718 0.311988
v 0.382106 1.056718 0.220609
v -0.114196 1.056718 -0.426183
v 0.114195 1.056718 -0.426183
v -0.382106 1.056718 0.220609
v 0.311988 1.056718 0.311988
v 0.114195 1.056718 0.426183
v -0.441218 1.056718 0.000000
v 0.311988 1.056718 -0.311988
v 0.220609 1.056718 0.382106
v -0.426183 1.056718 0.114196
v 0.220609 1.056718 -0.382106
v -0.000000 1.056718 -0.441218
v -0.000000 1.056718 0.441218
v -0.426183 1.056718 -0.114195
v 0.382106 1.056718 -0.220609
v 0.382106 1.035825 -0.220609
v -0.426183 1.035825 -0.114195
v -0.000000 1.035825 0.441218
v -0.000000 1.035825 -0.441218
v 0.220609 1.035825 -0.382106
v -0.426183 1.035825 0.114196
v 0.220609 1.035825 0.382106
v 0.311988 1.035825 -0.311988
v -0.441218 1.035825 0.000000
v 0.114195 1.035825 0.426183
v 0.311988 1.035825 0.311988
v -0.382106 1.035825 0.220609
v 0.114195 1.035825 -0.426183
v -0.114196 1.035825 -0.426183
v 0.382106 1.035825 0.220609
v -0.311988 1.035825 0.311988
v -0.220609 1.035825 -0.382106
v 0.426183 1.035825 0.114196
v -0.220609 1.035825 0.382106
v -0.311988 1.035825 -0.311988
v 0.441218 1.035825 0.000000
v -0.114196 1.035825 0.426183
v -0.382106 1.035825 -0.220609
v 0.426183 1.035825 -0.114195
v 0.185901 0.734596 -0.049812
v -0.166674 0.734596 -0.096230
v -0.049812 0.734596 0.185901
v 0.192459 0.734596 0.000000
v -0.136089 0.734596 -0.136089
v -0.096230 0.734596 0.166674
v 0.185901 0.734596 0.049812
v -0.096230 0.734596 -0.166674
v -0.136089 0.734596 0.136089
v 0.166674 0.734596 0.096230
v -0.049812 0.734596 -0.185901
v 0.049812 0.734596 -0.185901
v -0.166674 0.734596 0.096230
v 0.136089 0.734596 0.136089
v 0.049812 0.734596 0.185901
v -0.192459 0.734596 0.000000
v 0.136089 0.734596 -0.136089
v 0.096230 0.734596 0.166674
v -0.185901 0.734596 0.049812
v 0.096230 0.734596 -0.166674
v -0.000000 0.734596 -0.192459
v -0.000000 0.734596 0.192459
v -0.185901 0.734596 -0.049812
v 0.166674 0.734596 -0.096230
v 0.000000 0.087144 0.000000
v 0.166674 0.372410 -0.096230
v -0.185901 0.372410 -0.049812
v 0.156025 0.225356 -0.090081
v -0.174023 0.225356 -0.046629
v -0.000000 0.225356 0.180162
v -0.000000 0.225356 -0.180162
v 0.090081 0.225356 -0.156025
v -0.174023 0.225356 0.046629
v 0.090081 0.225356 0.156025
v 0.127394 0.225356 -0.127394
v -0.180162 0.225356 0.000000
v 0.046629 0.225356 0.174023
v 0.127394 0.225356 0.127394
v -0.156025 0.225356 0.090081
v 0.046629 0.225356 -0.174023
v -0.046629 0.225356 -0.174023
v 0.156025 0.225356 0.090081
v -0.127394 0.225356 0.127394
v -0.090081 0.225356 -0.156025
v 0.174023 0.225356 0.046629
v -0.090081 0.225356 0.156025
v -0.127394 0.225356 -0.127394
v 0.180162 0.225356 0.000000
v -0.046629 0.225356 0.174023
v -0.156025 0.225356 -0.090081
v 0.174023 0.225356 -0.046629
v -0.000000 0.372410 0.192459
v -0.000000 0.372410 -0.192459
v 0.096230 0.372410 -0.166674
v -0.185901 0.372410 0.049812
v 0.096230 0.372410 0.166674
v 0.136089 0.372410 -0.136089
v -0.192459 0.372410 0.000000
v 0.049812 0.372410 0.185901
v 0.136089 0.372410 0.136089
v -0.166674 0.372410 0.096230
v 0.049812 0.372410 -0.185901
v -0.049812 0.372410 -0.185901
v 0.166674 0.372410 0.096230
v -0.136089 0.372410 0.136089
v -0.096230 0.372410 -0.166674
v 0.185901 0.372410 0.049812
v -0.096230 0.372410 0.166674
v -0.136089 0.372410 -0.136089
v 0.192459 0.372410 0.000000
v -0.049812 0.372410 0.185901
v -0.166674 0.372410 -0.096230
v 0.185901 0.372410 -0.049812
v 0.174023 0.372410 -0.046629
v -0.156025 0.372410 -0.090081
v -0.046629 0.372410 0.174023
v 0.180162 0.372410 0.000000
v -0.127394 0.372410 -0.127394
v -0.090081 0.372410 0.156025
v 0.174023 0.372410 0.046629
v -0.090081 0.372410 -0.156025
v -0.127394 0.372410 0.127394
v 0.156025 0.372410 0.090081
v -0.046629 0.372410 -0.174023
v 0.046629 0.372410 -0.174023
v -0.156025 0.372410 0.090081
v 0.127394 0.372410 0.127394
v 0.046629 0.372410 0.174023
v -0.180162 0.372410 0.000000
v 0.127394 0.372410 -0.127394
v 0.090081 0.372410 0.156025
v -0.174023 0.372410 0.046629
v 0.090081 0.372410 -0.156025
v -0.000000 0.372410 -0.180162
v -0.000000 0.372410 0.180162
v -0.174023 0.372410 -0.046629
v 0.156025 0.372410 -0.090081
v 0.214074 1.256630 -0.057361
v -0.191934 1.256630 -0.110813
v -0.057361 1.256630 0.214074
v 0.221626 1.256630 0.000000
v -0.156713 1.256630 -0.156713
v -0.110813 1.256630 0.191934
v 0.214074 1.256630 0.057361
v -0.110813 1.256630 -0.191934
v -0.156713 1.256630 0.156713
v 0.191934 1.256630 0.110813
v -0.057361 1.256630 -0.214074
v 0.057361 1.256630 -0.214074
v -0.191934 1.256630 0.110813
v 0.156713 1.256630 0.156713
v 0.057361 1.256630 0.214074
v -0.221626 1.256630 0.000000
v 0.156713 1.256630 -0.156713
v 0.110813 1.256630 0.191934
v -0.214074 1.256630 0.057361
v 0.110813 1.256630 -0.191934
v -0.000000 1.256630 -0.221626
v -0.000000 1.256630 0.221626
v -0.214074 1.256630 -0.057361
v 0.191934 1.256630 -0.110813
v -0.368393 1.035825 -0.212692
v -0.110097 1.035825 0.410888
v -0.410888 1.035825 0.110097
v -0.368393 1.035825 0.212692
v 0.368393 1.035825 0.212692
v 0.300791 1.035825 0.300791
v -0.110097 1.035825 -0.410888
v 0.300791 1.035825 -0.300791
v 0.410888 1.035825 -0.110097
v 0.110097 1.035825 -0.410888
v 0.110097 1.035825 0.410888
v 0.410888 1.035825 0.110097
v -0.300791 1.035825 -0.300791
v -0.212692 1.035825 -0.368393
v 0.425383 1.035825 0.000000
v 0.212692 1.035825 -0.368393
v -0.410888 1.035825 -0.110097
v -0.000000 1.035825 0.425383
v -0.300791 1.035825 0.300791
v -0.212692 1.035825 0.368393
v -0.425383 1.035825 0.000000
v 0.212692 1.035825 0.368393
v -0.000000 1.035825 -0.425383
v 0.368393 1.035825 -0.212692
v -0.300791 1.056718 -0.300791
v -0.368393 1.056718 -0.212692
v -0.410888 1.056718 -0.110097
v -0.425383 1.056718 0.000000
v -0.410888 1.056718 0.110097
v 0.212692 1.056718 0.368393
v 0.300791 1.056718 0.300791
v -0.212692 1.056718 -0.368393
v 0.212692 1.056718 -0.368393
v 0.110097 1.056718 -0.410888
v 0.368393 1.056718 0.212692
v 0.410888 1.056718 0.110097
v -0.000000 1.056718 -0.425383
v -0.110097 1.056718 -0.410888
v 0.110097 1.056718 0.410888
v -0.110097 1.056718 0.410888
v -0.000000 1.056718 0.425383
v -0.212692 1.056718 0.368393
v -0.368393 1.056718 0.212692
v -0.300791 1.056718 0.300791
v 0.368393 1.056718 -0.212692
v 0.300791 1.056718 -0.300791
v 0.425383 1.056718 0.000000
v 0.410888 1.056718 -0.110097
v 0.151101 1.282317 0.087238
v 0.123374 1.282317 0.123374
v -0.151101 1.282317 0.087238
v -0.168532 1.282317 0.045158
v 0.168532 1.282317 -0.045158
v 0.174477 1.282317 0.000000
v 0.087238 1.282317 0.151101
v -0.168532 1.282317 -0.045158
v -0.151101 1.282317 -0.087238
v 0.087238 1.282317 -0.151101
v 0.123374 1.282317 -0.123374
v 0.045158 1.282317 0.168532
v -0.000000 1.282317 0.174477
v 0.045158 1.282317 -0.168532
v 0.151101 1.282317 -0.087238
v -0.087238 1.282317 0.151101
v -0.123374 1.282317 0.123374
v -0.123374 1.282317 -0.123374
v -0.087238 1.282317 -0.151101
v -0.045158 1.282317 -0.168532
v -0.045158 1.282317 0.168532
v -0.174477 1.282317 0.000000
v -0.000000 1.282317 -0.174477
v 0.168532 1.282317 0.045158
v 0.191934 1.282317 0.110813
v 0.156713 1.282317 0.156713
v -0.191934 1.282317 0.110813
v -0.214074 1.282317 0.057361
v 0.214074 1.282317 -0.057361
v 0.221626 1.282317 0.000000
v 0.110813 1.282317 0.191934
v -0.214074 1.282317 -0.057361
v -0.191934 1.282317 -0.110813
v 0.110813 1.282317 -0.191934
v 0.156713 1.282317 -0.156713
v 0.057361 1.282317 0.214074
v -0.000000 1.282317 0.221626
v 0.057361 1.282317 -0.214074
v 0.191934 1.282317 -0.110813
v -0.110813 1.282317 0.191934
v -0.156713 1.282317 0.156713
v -0.156713 1.282317 -0.156713
v -0.110813 1.282317 -0.191934
v -0.057361 1.282317 -0.214074
v -0.057361 1.282317 0.214074
v -0.221626 1.282317 0.000000
v -0.000000 1.282317 -0.221626
v 0.214074 1.282317 0.057361
v 0.000000 0.045561 0.000000
vn 0.6765 0.7138 0.1813
vn 0.7003 0.7138 -0.0000
vn -1.0000 -0.0000 -0.0000
vn -0.9659 -0.0000 0.2588
vn 0.6065 0.7138 0.3502
vn 0.6765 0.7138 -0.1813
vn -0.8660 -0.0000 0.5000
vn -0.7071 -0.0000 0.7071
vn 0.3502 0.7138 -0.6065
vn 0.1813 0.7138 -0.6765
vn 0.6065 0.7138 -0.3502
vn 0.4952 0.7138 -0.4952
vn -0.7071 -0.0000 -0.7071
vn -0.8660 -0.0000 -0.5000
vn 0.7071 -0.0000 -0.7071
vn 0.5000 -0.0000 -0.8660
vn -0.1813 0.7138 -0.6765
vn -0.3502 0.7138 -0.6065
vn 0.2588 -0.0000 0.9659
vn 0.5000 -0.0000 0.8660
vn -0.2588 -0.0000 0.9659
vn -0.0000 -0.0000 1.0000
vn 0.2588 -0.0000 -0.9659
vn -0.0000 -0.0000 -1.0000
vn -0.6765 0.7138 -0.1813
vn -0.7003 0.7138 -0.0000
vn -0.2588 -0.0000 -0.9659
vn -0.5000 -0.0000 -0.8660
vn 0.7071 -0.0000 0.7071
vn 1.0000 -0.0000 -0.0000
vn 0.9659 -0.0000 -0.2588
vn -0.6765 0.7138 0.1813
vn -0.1813 0.7138 0.6765
vn -0.0000 0.7138 0.7003
vn -0.6065 0.7138 0.3502
vn 0.3502 0.7138 0.6065
vn 0.4952 0.7138 0.4952
vn -0.0000 -1.0000 -0.0000
vn 0.8660 -0.0000 0.5000
vn -0.9659 -0.0000 -0.2588
vn -0.5000 -0.0000 0.8660
vn 0.9659 -0.0000 0.2588
vn 0.8660 -0.0000 -0.5000
vn -0.6065 0.7138 -0.3502
vn 0.1813 0.7138 0.6765
vn -0.4952 0.7138 -0.4952
vn -0.3502 0.7138 0.6065
vn -0.0000 0.7138 -0.7003
vn -0.4952 0.7138 0.4952
vn 0.6851 -0.6117 -0.3955
vn 0.7641 -0.6117 -0.2047
vn 0.2047 -0.6117 0.7641
vn -0.0000 -0.6117 0.7911
vn 0.3955 -0.6117 -0.6851
vn 0.5594 -0.6117 -0.5594
vn -0.2047 -0.6117 -0.7641
vn -0.0000 -0.6117 -0.7911
vn 0.3955 -0.6117 0.6851
vn 0.5594 -0.6117 0.5594
vn -0.5594 -0.6117 0.5594
vn -0.6851 -0.6117 0.3955
vn 0.6851 -0.6117 0.3955
vn 0.2047 -0.6117 -0.7641
vn -0.7641 -0.6117 0.2047
vn -0.7911 -0.6117 -0.0000
vn -0.7641 -0.6117 -0.2047
vn 0.7911 -0.6117 -0.0000
vn -0.2047 -0.6117 0.7641
vn -0.3955 -0.6117 0.6851
vn 0.7641 -0.6117 0.2047
vn -0.6851 -0.6117 -0.3955
vn -0.5594 -0.6117 -0.5594
vn -0.3955 -0.6117 -0.6851
vn -0.0000 1.0000 -0.0000
vn -0.4951 0.1397 -0.8575
vn -0.7002 0.1397 -0.7002
vn 0.7002 0.1397 0.7002
vn 0.8575 0.1397 0.4951
vn 0.2563 0.1397 0.9565
vn 0.4951 0.1397 0.8575
vn 0.9565 0.1397 0.2563
vn -0.8575 0.1397 -0.4951
vn -0.9565 0.1397 -0.2563
vn 0.8575 0.1397 -0.4951
vn 0.7002 0.1397 -0.7002
vn -0.7002 0.1397 0.7002
vn -0.4951 0.1397 0.8575
vn -0.9565 0.1397 0.2563
vn -0.8575 0.1397 0.4951
vn 0.4951 0.1397 -0.8575
vn 0.2563 0.1397 -0.9565
vn -0.0000 0.1397 -0.9902
vn -0.2563 0.1397 -0.9565
vn 0.9902 0.1397 -0.0000
vn 0.9565 0.1397 -0.2563
vn -0.2563 0.1397 0.9565
vn -0.0000 0.1397 0.9902
vn -0.9902 0.1397 -0.0000
vt 0.733874 0.583609
vt 0.723352 0.622973
vt 0.636095 0.587033
vt 0.640562 0.571318
vt 0.885320 0.068134
vt 0.885320 0.077872
vt 0.854872 0.077872
vt 0.854872 0.068134
vt 0.733877 0.542992
vt 0.640843 0.554978
vt 0.702892 0.658398
vt 0.627737 0.601053
vt 0.009706 0.604663
vt 0.009706 0.567478
vt 0.016451 0.567478
vt 0.016451 0.604663
vt 0.598323 0.717894
vt 0.557470 0.717507
vt 0.570043 0.624417
vt 0.586281 0.624659
vt 0.673813 0.687366
vt 0.638108 0.707745
vt 0.601859 0.620351
vt 0.616057 0.612418
vt 0.009706 0.790587
vt 0.009706 0.753402
vt 0.016451 0.753402
vt 0.016451 0.790587
vt 0.885320 0.214205
vt 0.885320 0.223943
vt 0.854872 0.223943
vt 0.854872 0.214205
vt 0.483368 0.685672
vt 0.455061 0.656625
vt 0.529329 0.600343
vt 0.540563 0.611919
vt 0.009706 0.418739
vt 0.009706 0.381554
vt 0.016451 0.381554
vt 0.016451 0.418739
vt 0.885320 0.116824
vt 0.885320 0.126563
vt 0.854872 0.126563
vt 0.854872 0.116824
vt 0.885320 0.233681
vt 0.885320 0.243420
vt 0.854872 0.243420
vt 0.854872 0.233681
vt 0.425513 0.542455
vt 0.435815 0.503596
vt 0.521870 0.538828
vt 0.517690 0.554438
vt 0.009706 0.864956
vt 0.009706 0.827771
vt 0.016451 0.827771
vt 0.016451 0.864956
vt 0.885320 0.146039
vt 0.885320 0.155777
vt 0.854872 0.155777
vt 0.854872 0.146039
vt 0.885320 0.038920
vt 0.885320 0.048658
vt 0.854872 0.048658
vt 0.854872 0.038920
vt 0.885320 0.184991
vt 0.885320 0.194729
vt 0.854872 0.194729
vt 0.854872 0.184991
vt 0.885320 0.019444
vt 0.885320 0.029182
vt 0.854872 0.029182
vt 0.854872 0.019444
vt 0.455759 0.468391
vt 0.529889 0.524868
vt 0.599638 0.408001
vt 0.639130 0.418633
vt 0.602754 0.505333
vt 0.587022 0.501209
vt 0.484311 0.439552
vt 0.541274 0.513374
vt 0.703465 0.468185
vt 0.723623 0.503664
vt 0.636472 0.539207
vt 0.628213 0.525115
vt 0.360142 0.028887
vt 0.314162 0.016400
vt 0.315072 0.009726
vt 0.362791 0.022705
vt 0.760469 0.118631
vt 0.760469 0.106528
vt 0.835461 0.106528
vt 0.835461 0.118631
vt 0.937821 0.313665
vt 0.937821 0.303927
vt 0.946802 0.302744
vt 0.946802 0.314847
vt 0.760469 0.082323
vt 0.760469 0.070220
vt 0.835461 0.070220
vt 0.835461 0.082323
vt 0.885320 0.058396
vt 0.854872 0.058396
vt 0.760469 0.227556
vt 0.760469 0.215454
vt 0.835461 0.215454
vt 0.835461 0.227556
vt 0.885320 0.136301
vt 0.854872 0.136301
vt 0.885320 0.087610
vt 0.854872 0.087610
vt 0.935301 0.294520
vt 0.943670 0.291054
vt 0.886562 0.343259
vt 0.895968 0.345780
vt 0.894786 0.354761
vt 0.883095 0.351628
vt 0.885320 0.097348
vt 0.885320 0.107086
vt 0.854872 0.107086
vt 0.854872 0.097348
vt 0.915112 0.343259
vt 0.923546 0.338390
vt 0.929060 0.345577
vt 0.918579 0.351628
vt 0.760469 0.203351
vt 0.760469 0.191248
vt 0.835461 0.191248
vt 0.835461 0.203351
vt 0.760469 0.094425
vt 0.835461 0.094425
vt 0.915112 0.274332
vt 0.905706 0.271812
vt 0.906888 0.262831
vt 0.918579 0.265963
vt 0.760469 0.130734
vt 0.835461 0.130734
vt 0.760469 0.263865
vt 0.760469 0.251762
vt 0.835461 0.251762
vt 0.835461 0.263865
vt 0.760469 0.142837
vt 0.835461 0.142837
vt 0.885320 0.165515
vt 0.885320 0.175253
vt 0.854872 0.175253
vt 0.854872 0.165515
vt 0.871242 0.286087
vt 0.866373 0.294520
vt 0.858004 0.291054
vt 0.864056 0.280573
vt 0.760469 0.239659
vt 0.835461 0.239659
vt 0.923546 0.279201
vt 0.929060 0.272015
vt 0.009706 0.344369
vt 0.009706 0.307184
vt 0.016451 0.307184
vt 0.016451 0.344369
vt 0.009706 0.530293
vt 0.016451 0.530293
vt 0.009706 0.195630
vt 0.009706 0.158445
vt 0.016451 0.158445
vt 0.016451 0.195630
vt 0.009706 0.121260
vt 0.009706 0.084075
vt 0.016451 0.084075
vt 0.016451 0.121260
vt 0.009706 0.269999
vt 0.009706 0.232814
vt 0.016451 0.232814
vt 0.016451 0.269999
vt 0.009706 0.493108
vt 0.009706 0.455923
vt 0.016451 0.455923
vt 0.016451 0.493108
vt 0.009706 0.716217
vt 0.016451 0.716217
vt 0.266547 0.016377
vt 0.220624 0.028728
vt 0.218059 0.022519
vt 0.265684 0.009706
vt 0.360280 0.363670
vt 0.400928 0.339720
vt 0.405016 0.344985
vt 0.362829 0.369775
vt 0.400860 0.053306
vt 0.404998 0.048050
vt 0.122284 0.266247
vt 0.146273 0.307554
vt 0.140926 0.311674
vt 0.116037 0.268785
vt 0.314596 0.375688
vt 0.315502 0.382363
vt 0.110529 0.220122
vt 0.103878 0.220943
vt 0.433972 0.306104
vt 0.439267 0.310123
vt 0.469043 0.173334
vt 0.457564 0.127741
vt 0.463743 0.125264
vt 0.475615 0.172535
vt 0.179550 0.052564
vt 0.175467 0.047243
vt 0.146130 0.086184
vt 0.140818 0.082112
vt 0.457154 0.265286
vt 0.469055 0.220065
vt 0.475600 0.220930
vt 0.463277 0.267800
vt 0.760469 0.179145
vt 0.835461 0.179145
vt 0.760469 0.058117
vt 0.760469 0.046014
vt 0.835461 0.046014
vt 0.835461 0.058117
vt 0.760469 0.167042
vt 0.760469 0.154939
vt 0.835461 0.154939
vt 0.835461 0.167042
vt 0.009706 0.046890
vt 0.016451 0.046890
vt 0.760469 0.300173
vt 0.760469 0.288070
vt 0.835461 0.288070
vt 0.835461 0.300173
vt 0.122603 0.127226
vt 0.116431 0.124671
vt 0.434121 0.086803
vt 0.439439 0.082777
vt 0.009706 0.009706
vt 0.016451 0.009706
vt 0.267348 0.376211
vt 0.266525 0.382841
vt 0.110494 0.172866
vt 0.103878 0.171988
vt 0.221551 0.364429
vt 0.219029 0.370635
vt 0.180218 0.341044
vt 0.176150 0.346403
vt 0.009706 0.641847
vt 0.016451 0.641847
vt 0.009706 0.679032
vt 0.016451 0.679032
vt 0.760469 0.033911
vt 0.760469 0.021808
vt 0.835461 0.021808
vt 0.835461 0.033911
vt 0.878128 0.338390
vt 0.872614 0.345577
vt 0.905706 0.345780
vt 0.906888 0.354761
vt 0.863853 0.313665
vt 0.866373 0.323071
vt 0.858004 0.326538
vt 0.854872 0.314847
vt 0.871242 0.331505
vt 0.864056 0.337019
vt 0.885320 0.204467
vt 0.854872 0.204467
vt 0.863853 0.303927
vt 0.854872 0.302744
vt 0.886562 0.274332
vt 0.878128 0.279201
vt 0.872614 0.272015
vt 0.883095 0.265963
vt 0.885320 0.009706
vt 0.854872 0.009706
vt 0.930432 0.331504
vt 0.935301 0.323071
vt 0.943670 0.326538
vt 0.937618 0.337019
vt 0.930432 0.286087
vt 0.937618 0.280573
vt 0.895968 0.271812
vt 0.894786 0.262831
vt 0.425437 0.582406
vt 0.517469 0.570600
vt 0.674651 0.439073
vt 0.616625 0.513658
vt 0.435388 0.621290
vt 0.521438 0.586297
vt 0.558789 0.408196
vt 0.570892 0.501057
vt 0.760469 0.275968
vt 0.835461 0.275968
vt 0.518274 0.706366
vt 0.554469 0.620233
vt 0.519448 0.418848
vt 0.555246 0.505337
vt 0.009706 0.902141
vt 0.016451 0.902141
vt 0.760469 0.009706
vt 0.835461 0.009706
vt 0.314531 0.207527
vt 0.310945 0.213483
vt 0.273515 0.217235
vt 0.268762 0.212127
vt 0.316480 0.193856
vt 0.316426 0.200818
vt 0.306998 0.175665
vt 0.311700 0.180814
vt 0.279426 0.220932
vt 0.286090 0.222964
vt 0.263786 0.192156
vt 0.265823 0.185433
vt 0.293049 0.223188
vt 0.314873 0.187014
vt 0.269515 0.179474
vt 0.274606 0.174684
vt 0.280748 0.171386
vt 0.305923 0.218278
vt 0.265478 0.205968
vt 0.263896 0.199153
vt 0.299823 0.221585
vt 0.287439 0.169652
vt 0.294432 0.169887
vt 0.301097 0.171933
vt 0.556635 0.723233
vt 0.515989 0.711660
vt 0.641361 0.413271
vt 0.678205 0.434475
vt 0.480746 0.434975
vt 0.517213 0.413513
vt 0.450451 0.660049
vt 0.430081 0.623398
vt 0.558024 0.402459
vt 0.479801 0.690187
vt 0.640285 0.713152
vt 0.599011 0.723663
vt 0.600394 0.402253
vt 0.419806 0.583099
vt 0.707493 0.661949
vt 0.677336 0.692007
vt 0.708092 0.464689
vt 0.419915 0.541718
vt 0.728976 0.501499
vt 0.739591 0.542270
vt 0.451202 0.464942
vt 0.430492 0.501424
vt 0.728698 0.625198
vt 0.739591 0.584371
vt 0.035862 0.027813
vt 0.035862 0.009706
vt 0.043901 0.009706
vt 0.043901 0.027813
vt 0.382130 0.653056
vt 0.372386 0.663461
vt 0.103878 0.402253
vt 0.035862 0.353742
vt 0.035862 0.335635
vt 0.043901 0.335635
vt 0.043901 0.353742
vt 0.035862 0.317528
vt 0.035862 0.299421
vt 0.043901 0.299421
vt 0.043901 0.317528
vt 0.035862 0.389957
vt 0.035862 0.371850
vt 0.043901 0.371850
vt 0.043901 0.389957
vt 0.035862 0.082134
vt 0.035862 0.064027
vt 0.043901 0.064027
vt 0.043901 0.082134
vt 0.035862 0.118349
vt 0.035862 0.100242
vt 0.043901 0.100242
vt 0.043901 0.118349
vt 0.035862 0.136456
vt 0.043901 0.136456
vt 0.035862 0.426171
vt 0.035862 0.408064
vt 0.043901 0.408064
vt 0.043901 0.426171
vt 0.035862 0.190778
vt 0.035862 0.172670
vt 0.043901 0.172670
vt 0.043901 0.190778
vt 0.035862 0.281314
vt 0.035862 0.263206
vt 0.043901 0.263206
vt 0.043901 0.281314
vt 0.035862 0.245099
vt 0.035862 0.226992
vt 0.043901 0.226992
vt 0.043901 0.245099
vt 0.035862 0.208885
vt 0.043901 0.208885
vt 0.035862 0.154563
vt 0.043901 0.154563
vt 0.035862 0.045920
vt 0.043901 0.045920
vt 0.035862 0.444279
vt 0.043901 0.444279
vt 0.467678 0.761393
vt 0.455333 0.768521
vt 0.446350 0.756814
vt 0.462031 0.747760
vt 0.455333 0.855164
vt 0.467678 0.862292
vt 0.462031 0.875925
vt 0.446350 0.866871
vt 0.509472 0.761393
vt 0.495703 0.757704
vt 0.497629 0.743074
vt 0.515119 0.747760
vt 0.445253 0.778601
vt 0.433546 0.769618
vt 0.495703 0.865982
vt 0.509472 0.862292
vt 0.515119 0.875925
vt 0.497629 0.880612
vt 0.539025 0.790946
vt 0.531897 0.778601
vt 0.543604 0.769618
vt 0.552658 0.785299
vt 0.438126 0.790946
vt 0.434436 0.804715
vt 0.419806 0.802789
vt 0.424493 0.785299
vt 0.542714 0.804715
vt 0.557344 0.802789
vt 0.521817 0.768521
vt 0.530800 0.756814
vt 0.438126 0.832739
vt 0.445253 0.845085
vt 0.433546 0.854068
vt 0.424493 0.838386
vt 0.521817 0.855165
vt 0.531897 0.845085
vt 0.543604 0.854068
vt 0.530800 0.866872
vt 0.539024 0.832740
vt 0.552658 0.838387
vt 0.434436 0.818970
vt 0.419806 0.820896
vt 0.481448 0.865981
vt 0.479522 0.880612
vt 0.542714 0.818970
vt 0.557344 0.820896
vt 0.481448 0.757704
vt 0.479522 0.743074
vt 0.229687 0.755096
vt 0.216172 0.759627
vt 0.256153 0.744508
vt 0.243021 0.750054
vt 0.202493 0.763641
vt 0.362254 0.673487
vt 0.351747 0.683121
vt 0.160682 0.772522
vt 0.146553 0.774415
vt 0.306291 0.717460
vt 0.294151 0.724932
vt 0.329672 0.701156
vt 0.318137 0.709530
vt 0.132362 0.775769
vt 0.118131 0.776583
vt 0.400395 0.631172
vt 0.391471 0.642287
vt 0.103878 0.776854
vt 0.188672 0.767131
vt 0.174728 0.770093
vt 0.281737 0.731938
vt 0.269064 0.738466
vt 0.340881 0.692349
s 1
f 205/1/1 216/2/2 149/3/2 152/4/1
f 84/5/3 81/6/4 140/7/4 137/8/3
f 204/9/5 205/1/1 152/4/1 155/10/5
f 216/2/2 217/11/6 146/12/6 149/3/2
f 36/13/7 40/14/8 9/15/8 13/16/7
f 202/17/9 203/18/10 157/19/10 165/20/9
f 214/21/11 215/22/12 162/23/12 169/24/11
f 44/25/13 47/26/14 2/27/14 5/28/13
f 83/29/15 80/30/16 141/31/16 138/32/15
f 207/33/17 201/34/18 153/35/18 156/36/17
f 34/37/19 31/38/20 18/39/20 15/40/19
f 97/41/21 78/42/22 143/43/22 124/44/21
f 88/45/23 79/46/24 142/47/24 133/48/23
f 196/49/25 197/50/26 161/51/26 168/52/25
f 38/53/27 41/54/28 8/55/28 11/56/27
f 82/57/20 86/58/29 135/59/29 139/60/20
f 95/61/13 98/62/14 123/63/14 126/64/13
f 96/65/30 99/66/31 122/67/31 125/68/30
f 89/69/27 92/70/28 129/71/28 132/72/27
f 197/50/26 198/73/32 164/74/32 161/51/26
f 209/75/33 210/76/34 167/77/34 148/78/33
f 198/73/32 212/79/35 158/80/35 164/74/32
f 199/81/36 200/82/37 159/83/37 163/84/36
f 200/82/37 204/9/5 155/10/5 159/83/37
f 183/85/38 182/86/38 44/87/38 41/88/38
f 108/89/29 112/90/39 58/91/39 62/92/29
f 122/93/38 145/94/38 74/95/38 121/96/38
f 118/97/30 121/98/31 49/99/31 52/100/30
f 98/62/14 77/101/40 144/102/40 123/63/14
f 106/103/3 103/104/4 67/105/4 64/106/3
f 78/42/22 85/107/19 136/108/19 143/43/22
f 81/6/4 87/109/7 134/110/7 140/7/4
f 145/94/38 138/111/38 105/112/38 74/95/38
f 143/113/38 136/114/38 107/115/38 100/116/38
f 91/117/8 94/118/41 127/119/41 130/120/8
f 135/121/38 131/122/38 112/123/38 108/124/38
f 109/125/7 113/126/8 57/127/8 61/128/7
f 115/129/42 118/97/30 52/100/30 55/130/42
f 142/131/38 132/132/38 111/133/38 101/134/38
f 104/135/20 108/89/29 62/92/29 66/136/20
f 117/137/13 120/138/14 50/139/14 53/140/13
f 80/30/16 88/45/23 133/48/23 141/31/16
f 107/141/19 104/135/20 66/136/20 63/142/19
f 90/143/39 93/144/42 128/145/42 131/146/39
f 144/147/38 137/148/38 106/149/38 75/150/38
f 75/151/40 106/103/3 64/106/3 71/152/40
f 112/90/39 115/129/42 55/130/42 58/91/39
f 133/153/38 142/131/38 101/134/38 110/154/38
f 103/104/4 109/125/7 61/128/7 67/105/4
f 35/155/29 39/156/39 10/157/39 14/158/29
f 40/14/8 43/159/41 6/160/41 9/15/8
f 48/161/31 25/162/43 24/163/43 1/164/31
f 32/165/15 29/166/16 20/167/16 17/168/15
f 42/169/42 45/170/30 4/171/30 7/172/42
f 46/173/21 27/174/22 22/175/22 3/176/21
f 47/26/14 26/177/40 23/178/40 2/27/14
f 170/179/38 186/180/38 26/181/38 47/182/38
f 181/183/38 184/184/38 45/185/38 42/186/38
f 176/187/38 183/85/38 41/88/38 38/188/38
f 182/86/38 170/179/38 47/182/38 44/87/38
f 171/189/38 187/190/38 27/191/38 46/192/38
f 174/193/38 181/183/38 42/186/38 39/194/38
f 189/195/38 171/189/38 46/192/38 43/196/38
f 184/184/38 178/197/38 48/198/38 45/185/38
f 185/199/38 179/200/38 37/201/38 29/202/38
f 186/180/38 190/203/38 33/204/38 26/181/38
f 190/203/38 172/205/38 30/206/38 33/204/38
f 193/207/38 177/208/38 32/209/38 25/210/38
f 113/126/8 116/211/41 54/212/41 57/127/8
f 74/213/43 105/214/15 65/215/15 72/216/43
f 119/217/21 100/218/22 70/219/22 51/220/21
f 116/211/41 119/217/21 51/220/21 54/212/41
f 27/174/22 34/37/19 15/40/19 22/175/22
f 29/166/16 37/221/23 12/222/23 20/167/16
f 101/223/24 111/224/27 59/225/27 69/226/24
f 172/205/38 173/227/38 36/228/38 30/206/38
f 179/200/38 192/229/38 28/230/38 37/201/38
f 120/138/14 75/151/40 71/152/40 50/139/14
f 37/221/23 28/231/24 21/232/24 12/222/23
f 175/233/38 174/193/38 39/194/38 35/234/38
f 173/227/38 188/235/38 40/236/38 36/228/38
f 43/159/41 46/173/21 3/176/21 6/160/41
f 45/170/30 48/161/31 1/164/31 4/171/30
f 191/237/38 175/233/38 35/234/38 31/238/38
f 180/239/38 191/237/38 31/238/38 34/240/38
f 30/241/4 36/13/7 13/16/7 19/242/4
f 192/229/38 176/187/38 38/188/38 28/230/38
f 177/208/38 185/199/38 29/202/38 32/209/38
f 26/177/40 33/243/3 16/244/3 23/178/40
f 187/190/38 180/239/38 34/240/38 27/191/38
f 178/197/38 193/207/38 25/210/38 48/198/38
f 41/54/28 44/25/13 5/28/13 8/55/28
f 102/245/16 110/246/23 60/247/23 68/248/16
f 188/235/38 189/195/38 43/196/38 40/236/38
f 33/243/3 30/241/4 19/242/4 16/244/3
f 105/214/15 102/245/16 68/248/16 65/215/15
f 124/249/38 143/113/38 100/116/38 119/250/38
f 136/114/38 139/251/38 104/252/38 107/115/38
f 93/144/42 96/65/30 125/68/30 128/145/42
f 134/253/38 130/254/38 113/255/38 109/256/38
f 130/254/38 127/257/38 116/258/38 113/255/38
f 76/259/43 83/29/15 138/32/15 145/260/43
f 140/261/38 134/253/38 109/256/38 103/262/38
f 126/263/38 123/264/38 120/265/38 117/266/38
f 79/267/24 89/69/27 132/72/27 142/268/24
f 87/109/7 91/117/8 130/120/8 134/110/7
f 123/264/38 144/147/38 75/150/38 120/265/38
f 92/70/28 95/61/13 126/64/13 129/71/28
f 94/118/41 97/41/21 124/44/21 127/119/41
f 128/269/38 125/270/38 118/271/38 115/272/38
f 77/101/40 84/5/3 137/8/3 144/102/40
f 137/148/38 140/261/38 103/262/38 106/149/38
f 141/273/38 133/153/38 110/154/38 102/274/38
f 99/66/31 76/259/43 145/260/43 122/67/31
f 138/111/38 141/273/38 102/274/38 105/112/38
f 85/107/19 82/57/20 139/60/20 136/108/19
f 132/132/38 129/275/38 114/276/38 111/133/38
f 139/251/38 135/121/38 108/124/38 104/252/38
f 127/257/38 124/249/38 119/250/38 116/258/38
f 86/58/29 90/143/39 131/146/39 135/59/29
f 195/277/44 196/49/25 168/52/25 147/278/44
f 208/279/45 199/81/36 163/84/36 160/280/45
f 217/11/6 214/21/11 169/24/11 146/12/6
f 194/281/46 195/277/44 147/278/44 150/282/46
f 211/283/47 209/75/33 148/78/33 151/284/47
f 215/22/12 202/17/9 165/20/9 162/23/12
f 111/224/27 114/285/28 56/286/28 59/225/27
f 206/287/48 207/33/17 156/36/17 166/288/48
f 213/289/49 211/283/47 151/284/47 154/290/49
f 25/162/43 32/165/15 17/168/15 24/163/43
f 201/34/18 194/281/46 150/282/46 153/35/18
f 212/79/35 213/289/49 154/290/49 158/80/35
f 28/291/24 38/53/27 11/56/27 21/292/24
f 114/285/28 117/137/13 53/140/13 56/286/28
f 210/76/34 208/279/45 160/280/45 167/77/34
f 31/38/20 35/155/29 14/158/29 18/39/20
f 125/270/38 122/93/38 121/96/38 118/271/38
f 100/218/22 107/141/19 63/142/19 70/219/22
f 203/18/10 206/287/48 166/288/48 157/19/10
f 39/156/39 42/169/42 7/172/42 10/157/39
f 131/122/38 128/269/38 115/272/38 112/123/38
f 121/98/31 74/213/43 72/216/43 49/99/31
f 110/246/23 101/293/24 69/294/24 60/247/23
f 129/275/38 126/263/38 117/266/38 114/276/38
f 72/295/50 193/207/50 178/197/51 49/296/51
f 63/297/52 180/239/52 187/190/53 70/298/53
f 68/299/54 185/199/54 177/208/55 65/300/55
f 59/301/56 176/187/56 192/229/57 69/302/57
f 66/303/58 191/237/58 180/239/52 63/297/52
f 62/304/59 175/233/59 191/237/58 66/303/58
f 57/305/60 188/235/60 173/227/61 61/306/61
f 58/307/62 174/193/62 175/233/59 62/304/59
f 69/302/57 192/229/57 179/200/63 60/308/63
f 61/306/61 173/227/61 172/205/64 67/309/64
f 65/300/55 177/208/55 193/207/50 72/295/50
f 67/309/64 172/205/64 190/203/65 64/310/65
f 64/310/65 190/203/65 186/180/66 71/311/66
f 60/308/63 179/200/63 185/199/54 68/299/54
f 49/296/51 178/197/51 184/184/67 52/312/67
f 51/313/68 171/189/68 189/195/69 54/314/69
f 55/315/70 181/183/70 174/193/62 58/307/62
f 70/298/53 187/190/53 171/189/68 51/313/68
f 50/316/71 170/179/71 182/86/72 53/317/72
f 56/318/73 183/85/73 176/187/56 59/301/56
f 52/312/67 184/184/67 181/183/70 55/315/70
f 71/311/66 186/180/66 170/179/71 50/316/71
f 53/317/72 182/86/72 183/85/73 56/318/73
f 12/319/74 21/320/74 206/287/74 203/18/74
f 22/321/74 15/322/74 208/279/74 210/76/74
f 13/323/74 9/324/74 213/289/74 212/79/74
f 8/325/74 5/326/74 194/281/74 201/34/74
f 9/324/74 6/327/74 211/283/74 213/289/74
f 21/320/74 11/328/74 207/33/74 206/287/74
f 17/329/74 20/330/74 202/17/74 215/22/74
f 6/327/74 3/331/74 209/75/74 211/283/74
f 5/326/74 2/332/74 195/277/74 194/281/74
f 1/333/74 24/334/74 214/21/74 217/11/74
f 15/322/74 18/335/74 199/81/74 208/279/74
f 2/332/74 23/336/74 196/49/74 195/277/74
f 14/337/74 10/338/74 204/9/74 200/82/74
f 18/335/74 14/337/74 200/82/74 199/81/74
f 19/339/74 13/323/74 212/79/74 198/73/74
f 3/331/74 22/321/74 210/76/74 209/75/74
f 16/340/74 19/339/74 198/73/74 197/50/74
f 23/336/74 16/340/74 197/50/74 196/49/74
f 11/328/74 8/325/74 201/34/74 207/33/74
f 24/334/74 17/329/74 215/22/74 214/21/74
f 20/330/74 12/319/74 203/18/74 202/17/74
f 4/341/74 1/333/74 217/11/74 216/2/74
f 10/338/74 7/342/74 205/1/74 204/9/74
f 7/342/74 4/341/74 216/2/74 205/1/74
f 157/343/23 166/344/24 264/345/24 255/346/23
f 224/347/75 219/348/76 266/349/74
f 168/350/40 161/351/3 263/352/3 249/353/40
f 164/354/4 158/355/7 244/356/7 245/357/4
f 150/358/13 147/359/14 250/360/14 259/361/13
f 169/362/43 162/363/15 252/364/15 256/365/43
f 149/366/30 146/367/31 246/368/31 247/369/30
f 146/367/31 169/362/43 256/365/43 246/368/31
f 152/370/42 149/366/30 247/369/30 265/371/42
f 156/372/27 153/373/28 260/374/28 261/375/27
f 163/376/20 159/377/29 243/378/29 248/379/20
f 154/380/8 151/381/41 257/382/41 258/383/8
f 158/355/7 154/380/8 258/383/8 244/356/7
f 148/384/21 167/385/22 254/386/22 262/387/21
f 153/373/28 150/358/13 259/361/13 260/374/28
f 151/381/41 148/384/21 262/387/21 257/382/41
f 167/385/22 160/388/19 253/389/19 254/386/22
f 161/351/3 164/354/4 245/357/4 263/352/3
f 147/359/14 168/350/40 249/353/40 250/360/14
f 155/390/39 152/370/42 265/371/42 242/391/39
f 160/388/19 163/376/20 248/379/20 253/389/19
f 162/363/15 165/392/16 251/393/16 252/364/15
f 166/394/24 156/372/27 261/375/27 264/395/24
f 165/392/16 157/343/23 255/346/23 251/393/16
f 159/377/29 155/390/39 242/391/39 243/378/29
f 218/396/74 219/397/74 243/398/74 242/399/74
f 220/400/74 221/401/74 245/402/74 244/403/74
f 222/404/74 223/405/74 247/406/74 246/407/74
f 219/397/74 224/408/74 248/409/74 243/398/74
f 225/410/74 226/411/74 250/412/74 249/413/74
f 227/414/74 228/415/74 252/416/74 251/417/74
f 229/418/74 230/419/74 254/420/74 253/421/74
f 231/422/74 227/414/74 251/417/74 255/423/74
f 228/415/74 232/424/74 256/425/74 252/416/74
f 233/426/74 234/427/74 258/428/74 257/429/74
f 235/430/74 236/431/74 260/432/74 259/433/74
f 236/431/74 237/434/74 261/435/74 260/432/74
f 234/427/74 220/400/74 244/403/74 258/428/74
f 238/436/74 233/426/74 257/429/74 262/437/74
f 221/401/74 239/438/74 263/439/74 245/402/74
f 224/408/74 229/418/74 253/421/74 248/409/74
f 239/438/74 225/410/74 249/413/74 263/439/74
f 240/440/74 231/422/74 255/423/74 264/441/74
f 226/411/74 235/430/74 259/433/74 250/412/74
f 241/442/74 218/396/74 242/399/74 265/443/74
f 232/424/74 222/404/74 246/407/74 256/425/74
f 230/419/74 238/436/74 262/437/74 254/420/74
f 237/434/74 240/440/74 264/441/74 261/435/74
f 223/405/74 241/442/74 265/443/74 247/406/74
f 235/444/77 226/445/78 266/349/74
f 237/446/79 236/447/80 266/349/74
f 226/445/78 225/448/81 266/349/74
f 218/449/82 241/450/83 266/349/74
f 220/451/84 234/452/85 266/349/74
f 228/453/86 227/454/87 266/349/74
f 222/455/88 232/456/89 266/349/74
f 233/457/90 238/458/91 266/349/74
f 230/459/92 229/460/93 266/349/74
f 238/458/91 230/461/92 266/349/74
f 239/462/94 221/463/95 266/349/74
f 227/454/87 231/464/96 266/349/74
f 240/465/97 237/446/79 266/349/74
f 219/348/76 218/449/82 266/349/74
f 229/460/93 224/347/75 266/349/74
f 232/456/89 228/453/86 266/349/74
f 241/450/83 223/466/98 266/349/74
f 221/463/95 220/451/84 266/349/74
f 225/448/81 239/462/94 266/349/74
f 234/452/85 233/457/90 266/349/74
f 223/466/98 222/455/88 266/349/74
f 231/464/96 240/465/97 266/349/74
f 236/447/80 235/444/77 266/349/74
f 54/314/69 189/195/69 188/235/60 57/305/60
