# Blender 4.1.1
# www.blender.org
o Dynamo_ExhaustPipeCurved
v -0.114083 0.258587 -0.132914
v -0.134589 0.296925 -0.059003
v -0.114083 0.305418 -0.059132
v -0.093577 0.296925 -0.059003
v -0.085083 0.276422 -0.058693
v -0.093577 0.255918 -0.058382
v -0.114083 0.247425 -0.058254
v -0.134589 0.255918 -0.058382
v -0.143083 0.276422 -0.058693
v -0.134589 0.294449 -0.098419
v -0.114083 0.302731 -0.100307
v -0.093577 0.294449 -0.098419
v -0.085083 0.274456 -0.093861
v -0.093577 0.254463 -0.089303
v -0.114083 0.246182 -0.087415
v -0.134589 0.254463 -0.089303
v -0.143083 0.274456 -0.093861
v -0.134589 0.280642 -0.129864
v -0.114083 0.287086 -0.135397
v -0.093577 0.280642 -0.129864
v -0.085083 0.265082 -0.116507
v -0.093577 0.249523 -0.103150
v -0.114083 0.243078 -0.097618
v -0.134589 0.249523 -0.103150
v -0.143083 0.265082 -0.116507
v -0.134589 0.251050 -0.148496
v -0.114083 0.253913 -0.156493
v -0.093577 0.251050 -0.148496
v -0.085083 0.244140 -0.129189
v -0.093577 0.237230 -0.109882
v -0.114083 0.234368 -0.101885
v -0.134589 0.237230 -0.109882
v -0.143083 0.244140 -0.129189
v -0.134589 0.209012 -0.154913
v -0.114083 0.209651 -0.163383
v -0.093577 0.209012 -0.154913
v -0.085083 0.207471 -0.134465
v -0.093577 0.205929 -0.114017
v -0.114083 0.205290 -0.105547
v -0.134589 0.205929 -0.114017
v -0.143083 0.207471 -0.134465
v -0.134589 0.150570 -0.155398
v -0.114083 0.150427 -0.163891
v -0.093577 0.150570 -0.155398
v -0.085083 0.150915 -0.134895
v -0.093577 0.151259 -0.114392
v -0.114083 0.151402 -0.105899
v -0.134589 0.151259 -0.114392
v -0.143083 0.150915 -0.134895
v -0.134589 0.295270 0.179065
v -0.114083 0.303764 0.179065
v -0.093577 0.295270 0.179065
v -0.085083 0.274764 0.179065
v -0.093577 0.254258 0.179065
v -0.114083 0.245764 0.179065
v -0.143083 0.274764 0.179065
v -0.134589 0.254258 0.179065
vn -1.0000 -0.0017 -0.0000
vn -1.0000 0.0076 -0.0011
vn -0.7095 -0.7046 0.0141
vn -0.7062 -0.7080 -0.0050
vn -0.0000 1.0000 0.0069
vn -0.0000 0.9996 -0.0284
vn -0.7021 0.7118 -0.0199
vn -0.7079 0.7063 0.0049
vn 0.7079 0.7063 0.0049
vn 0.7021 0.7118 -0.0199
vn 1.0000 -0.0017 -0.0000
vn 1.0000 0.0076 -0.0011
vn 0.7062 -0.7080 -0.0049
vn 0.7095 -0.7046 0.0141
vn -0.0000 -1.0000 -0.0070
vn -0.0000 -0.9998 0.0190
vn -0.6855 0.7074 -0.1723
vn -0.9992 0.0386 -0.0130
vn -0.0000 0.9714 -0.2376
vn 0.6855 0.7074 -0.1723
vn 0.9992 0.0386 -0.0130
vn 0.7227 -0.6782 0.1331
vn -0.0000 -0.9834 0.1813
vn -0.7227 -0.6782 0.1331
vn -0.6760 0.5581 -0.4812
vn -0.9970 0.0581 -0.0506
vn -0.0000 0.7574 -0.6530
vn 0.6760 0.5581 -0.4812
vn 0.9970 0.0581 -0.0506
vn 0.7608 -0.4936 0.4214
vn -0.0000 -0.7614 0.6482
vn -0.7608 -0.4936 0.4214
vn -0.6827 0.2557 -0.6845
vn -0.9988 0.0199 -0.0443
vn -0.0000 0.3505 -0.9366
vn 0.6827 0.2557 -0.6845
vn 0.9988 0.0199 -0.0443
vn 0.7282 -0.2125 0.6516
vn -0.0000 -0.2989 0.9543
vn -0.7282 -0.2125 0.6516
vn -0.6976 0.0573 -0.7142
vn -0.9999 0.0023 -0.0163
vn -0.0000 0.0806 -0.9967
vn 0.6976 0.0573 -0.7142
vn 0.9999 0.0023 -0.0163
vn 0.7136 -0.0484 0.6989
vn -0.0000 -0.0674 0.9977
vn -0.7136 -0.0484 0.6989
vn -0.7037 0.0059 -0.7105
vn -1.0000 0.0002 -0.0059
vn -0.0000 0.0084 -1.0000
vn 0.7037 0.0059 -0.7105
vn 1.0000 0.0002 -0.0059
vn 0.7096 -0.0048 0.7045
vn -0.0000 -0.0067 1.0000
vn -0.7096 -0.0048 0.7045
vn -0.0000 0.0514 0.9987
vn -0.0000 -0.9897 0.1433
vn 0.6953 -0.7071 0.1288
vn -0.9956 -0.0121 0.0932
vn -0.6953 -0.7071 0.1288
vn -0.0000 0.9992 0.0411
vn -0.7121 0.6998 0.0565
vn 0.9956 -0.0121 0.0932
vn 0.7121 0.6998 0.0565
vt 0.552904 0.245943
vt 0.550807 0.112576
vt 0.563339 0.110574
vt 0.565592 0.245897
vt 0.527466 0.245956
vt 0.527692 0.114768
vt 0.539078 0.114150
vt 0.540209 0.245956
vt 0.514723 0.245912
vt 0.516308 0.114111
vt 0.502028 0.245856
vt 0.504585 0.112496
vt 0.489340 0.245766
vt 0.492060 0.110451
vt 0.476545 0.245605
vt 0.478633 0.108801
vt 0.576771 0.108970
vt 0.578388 0.245780
vt 0.536931 0.095961
vt 0.547198 0.094331
vt 0.527724 0.096326
vt 0.518519 0.095930
vt 0.508256 0.094264
vt 0.495681 0.091584
vt 0.481261 0.089331
vt 0.559783 0.091694
vt 0.574210 0.089491
vt 0.535874 0.082382
vt 0.545686 0.082326
vt 0.527748 0.082387
vt 0.519622 0.082354
vt 0.509810 0.082264
vt 0.496862 0.082152
vt 0.482152 0.082166
vt 0.558635 0.082258
vt 0.573344 0.082323
vt 0.536809 0.068645
vt 0.546982 0.070305
vt 0.527772 0.068303
vt 0.518734 0.068614
vt 0.508556 0.070238
vt 0.495862 0.073096
vt 0.481317 0.075683
vt 0.559665 0.073206
vt 0.574202 0.075843
vt 0.539175 0.049031
vt 0.551037 0.050873
vt 0.527806 0.048416
vt 0.516436 0.048992
vt 0.504568 0.050793
vt 0.491624 0.053433
vt 0.477547 0.056164
vt 0.563971 0.053558
vt 0.578039 0.056337
vt 0.542002 0.015475
vt 0.555841 0.017474
vt 0.527865 0.014537
vt 0.513725 0.015426
vt 0.499879 0.017378
vt 0.486136 0.019767
vt 0.472135 0.022121
vt 0.569576 0.019911
vt 0.583568 0.022313
vt 0.177389 0.811025
vt 0.177389 0.635537
vt 0.189727 0.636214
vt 0.820199 0.281334
vt 0.795510 0.454238
vt 0.783257 0.452641
vt 0.820199 0.455157
vt 0.807845 0.454963
vt 0.201938 0.638101
vt 0.213985 0.640847
vt 0.771221 0.449849
vt 0.225903 0.644109
s 1
f 56/1/1 9/2/2 8/3/3 57/4/4
f 51/5/5 3/6/6 2/7/7 50/8/8
f 52/9/9 4/10/10 3/6/6 51/5/5
f 53/11/11 5/12/12 4/10/10 52/9/9
f 54/13/13 6/14/14 5/12/12 53/11/11
f 55/15/15 7/16/16 6/14/14 54/13/13
f 57/4/4 8/3/3 7/17/16 55/18/15
f 50/8/8 2/7/7 9/2/2 56/1/1
f 2/7/7 10/19/17 17/20/18 9/2/2
f 3/6/6 11/21/19 10/19/17 2/7/7
f 4/10/10 12/22/20 11/21/19 3/6/6
f 5/12/12 13/23/21 12/22/20 4/10/10
f 6/14/14 14/24/22 13/23/21 5/12/12
f 7/16/16 15/25/23 14/24/22 6/14/14
f 8/3/3 16/26/24 15/27/23 7/17/16
f 9/2/2 17/20/18 16/26/24 8/3/3
f 10/19/17 18/28/25 25/29/26 17/20/18
f 11/21/19 19/30/27 18/28/25 10/19/17
f 12/22/20 20/31/28 19/30/27 11/21/19
f 13/23/21 21/32/29 20/31/28 12/22/20
f 14/24/22 22/33/30 21/32/29 13/23/21
f 15/25/23 23/34/31 22/33/30 14/24/22
f 16/26/24 24/35/32 23/36/31 15/27/23
f 17/20/18 25/29/26 24/35/32 16/26/24
f 18/28/25 26/37/33 33/38/34 25/29/26
f 19/30/27 27/39/35 26/37/33 18/28/25
f 20/31/28 28/40/36 27/39/35 19/30/27
f 21/32/29 29/41/37 28/40/36 20/31/28
f 22/33/30 30/42/38 29/41/37 21/32/29
f 23/34/31 31/43/39 30/42/38 22/33/30
f 24/35/32 32/44/40 31/45/39 23/36/31
f 25/29/26 33/38/34 32/44/40 24/35/32
f 26/37/33 34/46/41 41/47/42 33/38/34
f 27/39/35 35/48/43 34/46/41 26/37/33
f 28/40/36 36/49/44 35/48/43 27/39/35
f 29/41/37 37/50/45 36/49/44 28/40/36
f 30/42/38 38/51/46 37/50/45 29/41/37
f 31/43/39 39/52/47 38/51/46 30/42/38
f 32/44/40 40/53/48 39/54/47 31/45/39
f 33/38/34 41/47/42 40/53/48 32/44/40
f 34/46/41 42/55/49 49/56/50 41/47/42
f 35/48/43 43/57/51 42/55/49 34/46/41
f 36/49/44 44/58/52 43/57/51 35/48/43
f 37/50/45 45/59/53 44/58/52 36/49/44
f 38/51/46 46/60/54 45/59/53 37/50/45
f 39/52/47 47/61/55 46/60/54 38/51/46
f 40/53/48 48/62/56 47/63/55 39/54/47
f 41/47/42 49/56/50 48/62/56 40/53/48
f 1/64/57 51/65/58 50/66/59
f 1/67/57 53/68/60 52/69/61
f 1/67/57 55/70/62 54/71/63
f 1/64/57 50/66/59 56/72/64
f 1/64/57 56/72/64 57/73/65
f 1/67/57 52/69/61 51/74/58
f 1/67/57 54/71/63 53/68/60
f 1/64/57 57/73/65 55/75/62
