# Blender 4.1.1
# www.blender.org
o Dynamo_ExhaustPipeStraight
v -0.114083 0.140199 -0.164139
v -0.114083 0.159085 -0.133999
v -0.092770 0.140199 -0.155311
v -0.083942 0.140199 -0.133999
v -0.092770 0.140199 -0.112686
v -0.114083 0.140199 -0.103858
v -0.135396 0.140199 -0.112686
v -0.144224 0.140199 -0.133999
v -0.135396 0.140199 -0.155311
v -0.092770 0.537877 -0.155311
v -0.114083 0.537877 -0.164139
v -0.083942 0.537877 -0.133999
v -0.092770 0.537877 -0.112686
v -0.114083 0.537877 -0.103858
v -0.135396 0.537877 -0.112686
v -0.144224 0.537877 -0.133999
v -0.135396 0.537877 -0.155311
vn -0.0000 -0.0000 -1.0000
vn 0.7071 -0.0000 -0.7071
vn 1.0000 -0.0000 -0.0000
vn 0.7071 -0.0000 0.7071
vn -0.0000 -0.0000 1.0000
vn -0.7071 -0.0000 0.7071
vn -1.0000 -0.0000 -0.0000
vn -0.7071 -0.0000 -0.7071
vn -0.0000 1.0000 -0.0000
vn -0.7049 0.0793 0.7049
vn -0.0000 0.0793 0.9968
vn -0.9968 0.0793 -0.0000
vn -0.7049 0.0793 -0.7049
vn -0.0000 0.0793 -0.9968
vn 0.7049 0.0793 -0.7049
vn 0.9968 0.0793 -0.0000
vn 0.7049 0.0793 0.7049
vt 0.443060 0.014537
vt 0.443060 0.252259
vt 0.429270 0.252259
vt 0.429270 0.014537
vt 0.415480 0.252259
vt 0.415480 0.014537
vt 0.401690 0.252259
vt 0.401690 0.014537
vt 0.387900 0.252259
vt 0.387900 0.014537
vt 0.374111 0.252259
vt 0.374111 0.014537
vt 0.360321 0.252259
vt 0.360321 0.014537
vt 0.346531 0.252259
vt 0.346531 0.014537
vt 0.332741 0.252259
vt 0.332741 0.014537
vt 0.177389 0.379314
vt 0.191173 0.606043
vt 0.177389 0.606462
vt 0.204905 0.604789
vt 0.218537 0.602704
vt 0.232016 0.599795
vt 0.245295 0.596074
vt 0.258323 0.591554
vt 0.271052 0.586252
vt 0.283437 0.580187
s 1
f 1/1/1 11/2/1 10/3/2 3/4/2
f 3/4/2 10/3/2 12/5/3 4/6/3
f 4/6/3 12/5/3 13/7/4 5/8/4
f 5/8/4 13/7/4 14/9/5 6/10/5
f 6/10/5 14/9/5 15/11/6 7/12/6
f 7/12/6 15/11/6 16/13/7 8/14/7
f 8/14/7 16/13/7 17/15/8 9/16/8
f 9/16/8 17/15/8 11/17/1 1/18/1
f 2/19/9 10/20/10 11/21/11
f 2/19/9 12/22/12 10/20/10
f 2/19/9 13/23/13 12/22/12
f 2/19/9 14/24/14 13/23/13
f 2/19/9 15/25/15 14/24/14
f 2/19/9 16/26/16 15/25/15
f 2/19/9 17/27/17 16/26/16
f 2/19/9 11/28/11 17/27/17
