# Blender 4.1.1
# www.blender.org
o SpaceCapsule_Pipes
v 0.665492 -0.650913 0.038184
v 0.815509 -0.266319 0.127722
v 0.703676 -0.650913 0.054000
v 0.815509 -0.239929 0.158050
v 0.815509 -0.258589 0.149167
v 0.741859 -0.650913 0.038184
v 0.815509 -0.187169 0.158050
v 0.757676 -0.650913 -0.000000
v 0.741859 -0.650913 -0.038184
v 0.815509 -0.160779 0.127722
v 0.703676 -0.650913 -0.054000
v 0.815509 -0.168509 0.149167
v 0.815509 -0.239929 -0.158050
v 0.665492 -0.650913 -0.038184
v 0.649676 -0.650913 -0.000000
v 0.815509 -0.266319 -0.127722
v 0.681410 -0.560799 0.038184
v 0.815509 -0.258589 -0.149167
v 0.815509 -0.160779 -0.127722
v 0.717437 -0.573449 0.054000
v 0.815509 -0.187169 -0.158050
v 0.753465 -0.586098 0.038184
v 0.768388 -0.591338 -0.000000
v 0.815509 -0.168509 -0.149167
v 0.947845 -0.222616 0.135717
v 0.753465 -0.586098 -0.038184
v 0.947845 -0.249147 0.105368
v 0.717437 -0.573449 -0.054000
v 0.681410 -0.560799 -0.038184
v 0.947845 -0.241376 0.126828
v 0.937277 -0.239876 0.158050
v 0.666486 -0.555560 -0.000000
v 0.937277 -0.266319 0.127819
v 0.719134 -0.490682 0.038184
v 0.937277 -0.258574 0.149195
v 0.751906 -0.510278 0.054000
v 0.784678 -0.529874 0.038184
v 0.937277 -0.160779 0.127819
v 0.937277 -0.187222 0.158050
v 0.798253 -0.537991 -0.000000
v 0.937277 -0.168524 0.149195
v 0.784678 -0.529874 -0.038184
v 0.947845 -0.177951 0.105368
v 0.751906 -0.510278 -0.054000
v 0.947845 -0.204482 0.135717
v 0.719134 -0.490682 -0.038184
v 0.947845 -0.185722 0.126828
v 0.705559 -0.482565 -0.000000
v 0.947845 -0.249147 -0.105368
v 0.764478 -0.421178 0.038184
v 0.947845 -0.222616 -0.135717
v 0.796858 -0.441416 0.054000
v 0.947845 -0.241376 -0.126828
v 0.829237 -0.461653 0.038184
v 0.937277 -0.266319 -0.127819
v 0.842649 -0.470036 0.000000
v 0.937277 -0.239876 -0.158050
v 0.829237 -0.461653 -0.038184
v 0.937277 -0.258574 -0.149195
v 0.796858 -0.441416 -0.054000
v 0.947845 -0.204482 -0.135717
v 0.764478 -0.421178 -0.038184
v 0.947845 -0.177951 -0.105368
v 0.751066 -0.412796 0.000000
v 0.947845 -0.185722 -0.126828
v 0.800318 -0.361224 0.038184
v 0.937277 -0.187222 -0.158050
v 0.833228 -0.380587 0.054000
v 0.937277 -0.160779 -0.127819
v 0.866138 -0.399950 0.038184
v 0.937277 -0.168524 -0.149195
v 0.879770 -0.407971 0.000000
v 0.866138 -0.399950 -0.038184
v 0.833228 -0.380587 -0.054000
v 0.800318 -0.361224 -0.038184
v 0.786687 -0.353203 0.000000
v 0.817538 -0.331483 0.038184
v 0.850840 -0.350165 0.054000
v 0.884141 -0.368847 0.038184
v 0.897935 -0.376585 0.000000
v 0.884141 -0.368847 -0.038184
v 0.850840 -0.350165 -0.054000
v 0.817538 -0.331483 -0.038184
v 0.803744 -0.323744 0.000000
v 0.838690 -0.292780 0.038184
v 0.873529 -0.308408 0.054000
v 0.908368 -0.324037 0.038184
v 0.922798 -0.330510 0.000000
v 0.908368 -0.324037 -0.038184
v 0.873529 -0.308408 -0.054000
v 0.838690 -0.292780 -0.038184
v 0.824259 -0.286307 0.000000
v 0.937438 -0.266057 -0.000003
v 0.883679 -0.266319 -0.106966
v 0.921864 -0.266319 -0.075636
v 0.921864 -0.266319 0.075636
v 0.829802 -0.266319 0.000000
v 0.845553 -0.266319 0.075636
v 0.883679 -0.266319 0.106966
v 0.845553 -0.266319 -0.075636
v 0.845217 -0.271580 0.059319
v 0.841019 -0.286560 0.040810
v 0.878492 -0.294624 0.059658
v 0.882697 -0.278586 0.077431
v 0.920392 -0.282974 0.056097
v 0.915716 -0.303192 0.042794
v 0.931159 -0.306646 0.000000
v 0.935816 -0.285964 -0.000001
v 0.920392 -0.282974 -0.056097
v 0.915716 -0.303192 -0.042794
v 0.878492 -0.294624 -0.059658
v 0.882698 -0.278587 -0.077431
v 0.845217 -0.271580 -0.059319
v 0.841019 -0.286560 -0.040810
v 0.829836 -0.265659 0.000000
v 0.825492 -0.283105 0.000000
v 0.701617 -0.228744 -0.000000
v 0.715954 -0.584283 -0.000000
v 0.701616 -0.639126 -0.066000
v 0.654947 -0.639126 -0.046669
v 0.635616 -0.639126 -0.000000
v 0.654947 -0.639126 0.046669
v 0.701616 -0.639126 0.066000
v 0.748285 -0.639126 0.046669
v 0.767616 -0.639126 0.000000
v 0.748286 -0.639126 -0.046669
v 0.701616 -0.639126 -0.040303
v 0.673118 -0.639126 -0.028499
v 0.661313 -0.639126 -0.000000
v 0.673118 -0.639126 0.028499
v 0.701616 -0.639126 0.040303
v 0.730115 -0.639126 0.028499
v 0.741919 -0.639126 0.000000
v 0.730115 -0.639126 -0.028499
v 0.654947 -0.739127 -0.046669
v 0.635616 -0.739127 -0.000000
v 0.654947 -0.739127 0.046669
v 0.701616 -0.739127 0.066000
v 0.748285 -0.739127 0.046669
v 0.767616 -0.739127 0.000000
v 0.748286 -0.739127 -0.046669
v 0.701616 -0.739127 -0.066000
v 0.896754 -0.197961 0.143155
v 0.878754 -0.197961 0.143155
v 0.869754 -0.213549 0.143155
v 0.878754 -0.229138 0.143155
v 0.896754 -0.229138 0.143155
v 0.905754 -0.213549 0.143155
v 0.891838 -0.185502 0.282571
v 0.873904 -0.185655 0.281045
v 0.864804 -0.201011 0.283370
v 0.873639 -0.216213 0.287221
v 0.891573 -0.216060 0.288748
v 0.900673 -0.200705 0.286422
v 0.878934 -0.155961 0.374178
v 0.861306 -0.156768 0.370628
v 0.851868 -0.171401 0.375188
v 0.860058 -0.185227 0.383298
v 0.877686 -0.184420 0.386849
v 0.887124 -0.169787 0.382289
v 0.860475 -0.120377 0.432797
v 0.843560 -0.122448 0.427001
v 0.833818 -0.136543 0.432517
v 0.840992 -0.148568 0.443828
v 0.857907 -0.146497 0.449624
v 0.867649 -0.132402 0.444108
v 0.837857 -0.088847 0.473733
v 0.822016 -0.092221 0.465881
v 0.813317 -0.107582 0.469397
v 0.820461 -0.119570 0.480766
v 0.836302 -0.116197 0.488619
v 0.845000 -0.100835 0.485103
v 0.813365 -0.074524 0.509951
v 0.798569 -0.078504 0.500505
v 0.792682 -0.095497 0.499735
v 0.801592 -0.108510 0.508411
v 0.816389 -0.104530 0.517857
v 0.822275 -0.087538 0.518627
v 0.778429 -0.074366 0.559671
v 0.764435 -0.078453 0.549114
v 0.760281 -0.095678 0.545944
v 0.770121 -0.108816 0.553331
v 0.784116 -0.104728 0.563887
v 0.788270 -0.087504 0.567057
v 0.731554 -0.074542 0.617660
v 0.718260 -0.078627 0.606232
v 0.714321 -0.095851 0.602795
v 0.723676 -0.108990 0.610786
v 0.736969 -0.104905 0.622213
v 0.740909 -0.087681 0.625650
v 0.674369 -0.074752 0.680394
v 0.661816 -0.078834 0.668157
v 0.658095 -0.096057 0.664481
v 0.666928 -0.109198 0.673042
v 0.679482 -0.105116 0.685279
v 0.683202 -0.087893 0.688955
v 0.609974 -0.074927 0.742295
v 0.598377 -0.079007 0.729147
v 0.594932 -0.096230 0.725208
v 0.603085 -0.109373 0.734417
v 0.614682 -0.105293 0.747565
v 0.618126 -0.088070 0.751504
v 0.541411 -0.075001 0.797795
v 0.531337 -0.079079 0.783447
v 0.528334 -0.096302 0.779159
v 0.535407 -0.109446 0.789220
v 0.545481 -0.105368 0.803568
v 0.548484 -0.088145 0.807856
v 0.445724 -0.075001 0.855668
v 0.437800 -0.079079 0.840029
v 0.435434 -0.096301 0.835359
v 0.440992 -0.109445 0.846329
v 0.448915 -0.105368 0.861968
v 0.451281 -0.088146 0.866638
v 0.341304 -0.075001 0.899074
v 0.335635 -0.079079 0.882484
v 0.333942 -0.096301 0.877530
v 0.337919 -0.109445 0.889167
v 0.343588 -0.105368 0.905757
v 0.345281 -0.088146 0.910710
v 0.231240 -0.075001 0.928910
v 0.227618 -0.079079 0.911756
v 0.226536 -0.096301 0.906634
v 0.229077 -0.109445 0.918666
v 0.232700 -0.105368 0.935820
v 0.233781 -0.088146 0.940942
v 0.118512 -0.075001 0.946126
v 0.116756 -0.079079 0.928682
v 0.116231 -0.096301 0.923474
v 0.117463 -0.109445 0.935709
v 0.119220 -0.105368 0.953153
v 0.119744 -0.088146 0.958362
v 0.006069 -0.075001 0.951659
v 0.006140 -0.079079 0.934127
v 0.006158 -0.096301 0.928892
v 0.006104 -0.109446 0.941189
v 0.006032 -0.105368 0.958721
v 0.006015 -0.088146 0.963956
v -0.097216 -0.074953 0.945720
v -0.095253 -0.079032 0.928299
v -0.094680 -0.096255 0.923097
v -0.096072 -0.109398 0.935316
v -0.098035 -0.105319 0.952738
v -0.098607 -0.088097 0.957940
v -0.184421 -0.074839 0.930983
v -0.180709 -0.078920 0.913849
v -0.179627 -0.096143 0.908731
v -0.182255 -0.109285 0.920746
v -0.185966 -0.105204 0.937880
v -0.187049 -0.087981 0.942999
v -0.255533 -0.074703 0.912076
v -0.250501 -0.078786 0.895283
v -0.249030 -0.096010 0.890265
v -0.252590 -0.109150 0.902041
v -0.257622 -0.105067 0.918834
v -0.259093 -0.087843 0.923851
v -0.310530 -0.074589 0.893656
v -0.304917 -0.078673 0.877048
v -0.303267 -0.095897 0.872088
v -0.307230 -0.109037 0.883734
v -0.312843 -0.104953 0.900342
v -0.314493 -0.087729 0.905302
v -0.350607 -0.074578 0.879956
v -0.344663 -0.078651 0.863462
v -0.341915 -0.095839 0.858875
v -0.345112 -0.108953 0.870783
v -0.351057 -0.104880 0.887277
v -0.353805 -0.087692 0.891864
v -0.386506 -0.080240 0.867199
v -0.377586 -0.083542 0.851917
v -0.369043 -0.099229 0.849694
v -0.369420 -0.111613 0.862751
v -0.378341 -0.108310 0.878032
v -0.386883 -0.092624 0.880256
v -0.408390 -0.101486 0.852251
v -0.395419 -0.100821 0.839789
v -0.380024 -0.109795 0.842333
v -0.377601 -0.119434 0.857340
v -0.390571 -0.120100 0.869802
v -0.405966 -0.111126 0.867258
v -0.412992 -0.135958 0.835892
v -0.399097 -0.131187 0.825492
v -0.382240 -0.133672 0.831297
v -0.379280 -0.140928 0.847502
v -0.393175 -0.145698 0.857902
v -0.410031 -0.143213 0.852097
v -0.407261 -0.182512 0.815835
v -0.393484 -0.176217 0.806110
v -0.376788 -0.176654 0.812821
v -0.373868 -0.183388 0.829257
v -0.387644 -0.189683 0.838982
v -0.404341 -0.189245 0.832271
v -0.396125 -0.246821 0.787410
v -0.382349 -0.240524 0.777686
v -0.365684 -0.240760 0.784484
v -0.362794 -0.247293 0.801005
v -0.376571 -0.253590 0.810730
v -0.393236 -0.253354 0.803932
v -0.392656 -0.270945 0.777653
v -0.378856 -0.264800 0.767865
v -0.362178 -0.265118 0.774628
v -0.359300 -0.271581 0.791179
v -0.373099 -0.277726 0.800967
v -0.389778 -0.277408 0.794204
v -0.387172 -0.306125 0.762569
v -0.373537 -0.299002 0.753223
v -0.356878 -0.299209 0.760036
v -0.353853 -0.306539 0.776196
v -0.367488 -0.313662 0.785542
v -0.384148 -0.313455 0.778729
v -0.379332 -0.341588 0.742973
v -0.366332 -0.331882 0.735175
v -0.349749 -0.331780 0.742174
v -0.346165 -0.341384 0.756970
v -0.359165 -0.351089 0.764768
v -0.375749 -0.351191 0.757770
v -0.368649 -0.361393 0.719395
v -0.358177 -0.346948 0.717016
v -0.341898 -0.346275 0.724668
v -0.336092 -0.360047 0.734698
v -0.346564 -0.374492 0.737078
v -0.362843 -0.375165 0.729426
v -0.362588 -0.359187 0.706004
v -0.357235 -0.341539 0.716515
v -0.338882 -0.340671 0.727145
v -0.325882 -0.357451 0.727265
v -0.331235 -0.375099 0.716754
v -0.349588 -0.375967 0.706123
v -0.361101 -0.356195 0.694415
v -0.355748 -0.338547 0.704926
v -0.337396 -0.337679 0.715556
v -0.324396 -0.354459 0.715676
v -0.329748 -0.372107 0.705165
v -0.348101 -0.372975 0.694534
v -0.340070 -0.343432 0.725443
v -0.329047 -0.357661 0.725544
v -0.360172 -0.359133 0.707515
v -0.333586 -0.372626 0.716631
v -0.355633 -0.344168 0.716428
v -0.349148 -0.373362 0.707617
v 0.938529 -0.197701 -0.033987
v 0.950840 -0.197701 -0.033987
v 0.938529 -0.226375 -0.035238
v 0.950840 -0.226375 -0.035238
v 0.938529 -0.247536 -0.015848
v 0.950840 -0.247536 -0.015848
v 0.938529 -0.248788 0.012826
v 0.950840 -0.248788 0.012826
v 0.938529 -0.229397 0.033987
v 0.950840 -0.229397 0.033987
v 0.938529 -0.200723 0.035238
v 0.950840 -0.200723 0.035238
v 0.938529 -0.179563 0.015848
v 0.950840 -0.179563 0.015848
v 0.938529 -0.178311 -0.012826
v 0.950840 -0.178311 -0.012826
v 0.957028 -0.220971 -0.020392
v 0.957028 -0.204378 -0.019667
v 0.957028 -0.233217 -0.009171
v 0.957028 -0.233941 0.007422
v 0.957028 -0.222720 0.019667
v 0.957028 -0.206127 0.020392
v 0.957028 -0.193882 0.009171
v 0.957028 -0.193157 -0.007422
v 0.964872 -0.220971 -0.020392
v 0.964872 -0.204378 -0.019667
v 0.964872 -0.233217 -0.009171
v 0.964872 -0.233941 0.007422
v 0.964872 -0.222720 0.019667
v 0.964872 -0.206127 0.020392
v 0.964872 -0.193882 0.009171
v 0.964872 -0.193157 -0.007422
v 0.938529 -0.197701 -0.132482
v 0.950840 -0.197701 -0.132482
v 0.938529 -0.226375 -0.133734
v 0.950840 -0.226375 -0.133734
v 0.938529 -0.247536 -0.114344
v 0.950840 -0.247536 -0.114344
v 0.938529 -0.248788 -0.085670
v 0.950840 -0.248788 -0.085670
v 0.938529 -0.229397 -0.064509
v 0.950840 -0.229397 -0.064509
v 0.938529 -0.200723 -0.063257
v 0.950840 -0.200723 -0.063257
v 0.938529 -0.179563 -0.082647
v 0.950840 -0.179563 -0.082647
v 0.938529 -0.178311 -0.111321
v 0.950840 -0.178311 -0.111321
v 0.957028 -0.220971 -0.118887
v 0.957028 -0.204378 -0.118163
v 0.957028 -0.233217 -0.107666
v 0.957028 -0.233941 -0.091073
v 0.957028 -0.222720 -0.078828
v 0.957028 -0.206127 -0.078103
v 0.957028 -0.193882 -0.089324
v 0.957028 -0.193157 -0.105917
v 0.964872 -0.220971 -0.118887
v 0.964872 -0.204378 -0.118163
v 0.964872 -0.233217 -0.107666
v 0.964872 -0.233941 -0.091073
v 0.964872 -0.222720 -0.078828
v 0.964872 -0.206127 -0.078103
v 0.964872 -0.193882 -0.089324
v 0.964872 -0.193157 -0.105917
v 0.938529 -0.197701 0.064057
v 0.950840 -0.197701 0.064057
v 0.938529 -0.226375 0.062805
v 0.950840 -0.226375 0.062805
v 0.938529 -0.247536 0.082195
v 0.950840 -0.247536 0.082195
v 0.938529 -0.248788 0.110869
v 0.950840 -0.248788 0.110869
v 0.938529 -0.229397 0.132030
v 0.950840 -0.229397 0.132030
v 0.938529 -0.200723 0.133282
v 0.950840 -0.200723 0.133282
v 0.938529 -0.179563 0.113892
v 0.950840 -0.179563 0.113892
v 0.938529 -0.178311 0.085218
v 0.950840 -0.178311 0.085218
v 0.957028 -0.220971 0.077652
v 0.957028 -0.204378 0.078376
v 0.957028 -0.233217 0.088872
v 0.957028 -0.233941 0.105466
v 0.957028 -0.222720 0.117711
v 0.957028 -0.206127 0.118435
v 0.957028 -0.193882 0.107215
v 0.957028 -0.193157 0.090621
v 0.964872 -0.220971 0.077652
v 0.964872 -0.204378 0.078376
v 0.964872 -0.233217 0.088872
v 0.964872 -0.233941 0.105466
v 0.964872 -0.222720 0.117711
v 0.964872 -0.206127 0.118435
v 0.964872 -0.193882 0.107215
v 0.964872 -0.193157 0.090621
vn 0.9015 0.4203 -0.1030
vn 0.9015 0.4203 0.1030
vn 0.8744 0.4834 0.0419
vn 0.8744 0.4834 -0.0419
vn 0.9270 0.0997 0.3616
vn 0.9270 -0.0997 0.3616
vn 0.9193 -0.0593 0.3891
vn 0.9193 0.0593 0.3891
vn -0.0000 -0.2198 0.9756
vn -0.0000 0.2198 0.9756
vn -0.0000 0.2199 0.9755
vn -0.0000 -0.2199 0.9755
vn -0.0001 0.9850 -0.1726
vn -0.0001 0.9850 -0.1724
vn -0.0001 0.9850 0.1724
vn -0.0001 0.9850 0.1726
vn -0.0000 -0.2199 -0.9755
vn -0.0000 0.2199 -0.9755
vn -0.0000 0.2198 -0.9756
vn -0.0000 -0.2198 -0.9756
vn 1.0000 -0.0000 -0.0000
vn 0.9193 0.0593 -0.3891
vn 0.9193 -0.0593 -0.3891
vn 0.9270 -0.0997 -0.3616
vn 0.9270 0.0997 -0.3616
vn 0.8744 -0.4834 -0.0419
vn 0.8744 -0.4834 0.0419
vn 0.9016 -0.4202 0.1031
vn 0.8516 -0.5241 -0.0000
vn 0.9016 -0.4202 -0.1031
vn 0.9331 0.2802 -0.2254
vn 0.9352 0.2547 -0.2461
vn 0.9352 -0.2547 -0.2461
vn 0.9331 -0.2802 -0.2254
vn 0.9352 -0.2547 0.2461
vn 0.9331 -0.2802 0.2254
vn 0.9331 0.2802 0.2254
vn 0.9352 0.2547 0.2461
vn -0.0001 -0.7403 -0.6722
vn -0.0001 -0.7404 -0.6721
vn 0.0005 -0.9850 -0.1725
vn 0.0005 -0.9850 -0.1724
vn -0.0001 -0.7404 0.6721
vn -0.0001 -0.7403 0.6722
vn 0.0005 -0.9850 0.1724
vn 0.0005 -0.9850 0.1725
vn -0.0001 0.7404 0.6721
vn -0.0001 0.7403 0.6722
vn -0.0001 0.7404 -0.6721
vn -0.0001 0.7403 -0.6722
vn -0.7210 0.1273 0.6812
vn -0.6849 0.2376 0.6888
vn -0.9448 0.3275 -0.0000
vn -0.9848 0.1738 -0.0000
vn -0.0427 0.0074 0.9991
vn -0.0374 0.0123 0.9992
vn 0.6788 -0.1215 0.7242
vn 0.6456 -0.2296 0.7284
vn 0.9843 -0.1766 -0.0000
vn 0.9417 -0.3365 -0.0000
vn 0.6788 -0.1215 -0.7242
vn 0.6456 -0.2296 -0.7284
vn -0.0427 0.0074 -0.9991
vn -0.0374 0.0123 -0.9992
vn -0.7210 0.1273 -0.6812
vn -0.6849 0.2376 -0.6888
vn -0.6129 0.3639 0.7013
vn -0.8601 0.5101 -0.0000
vn -0.0086 0.0043 1.0000
vn 0.6024 -0.3633 0.7107
vn 0.8558 -0.5172 -0.0000
vn 0.6024 -0.3633 -0.7107
vn -0.0086 0.0043 -1.0000
vn -0.6129 0.3639 -0.7013
vn -0.5977 0.3734 0.7095
vn -0.8481 0.5298 -0.0000
vn 0.0040 -0.0026 1.0000
vn 0.6016 -0.3762 0.7047
vn 0.8479 -0.5302 -0.0000
vn 0.6016 -0.3762 -0.7047
vn 0.0041 -0.0026 -1.0000
vn -0.5977 0.3734 -0.7095
vn -0.6087 0.3581 0.7079
vn -0.8619 0.5071 -0.0000
vn 0.0015 -0.0009 1.0000
vn 0.6102 -0.3590 0.7062
vn 0.8619 -0.5071 -0.0000
vn 0.6102 -0.3590 -0.7062
vn 0.0015 -0.0009 -1.0000
vn -0.6087 0.3581 -0.7079
vn -0.6151 0.3461 0.7084
vn -0.8714 0.4906 -0.0000
vn 0.0030 -0.0014 1.0000
vn 0.6187 -0.3462 0.7052
vn 0.8728 -0.4881 -0.0000
vn 0.6187 -0.3462 -0.7052
vn 0.0030 -0.0014 -1.0000
vn -0.6151 0.3461 -0.7084
vn -0.7035 0.1939 0.6837
vn -0.9290 0.3701 -0.0000
vn -0.0387 -0.1626 0.9859
vn 0.6463 -0.3619 0.6718
vn 0.9068 -0.4216 -0.0000
vn 0.6463 -0.3619 -0.6718
vn -0.0387 -0.1626 -0.9859
vn -0.7035 0.1939 -0.6837
vn -0.9696 -0.2448 -0.0000
vn -0.6922 -0.6079 0.3890
vn -0.3909 -0.8590 0.3307
vn -0.8380 -0.5457 -0.0000
vn -0.0389 -0.8335 0.5512
vn -0.0042 -0.9007 0.4345
vn 0.9395 -0.3426 -0.0000
vn 0.6681 -0.4439 0.5971
vn 0.7095 -0.5230 0.4723
vn 0.9646 -0.2639 -0.0000
vn 0.9781 -0.2080 -0.0000
vn 0.5121 -0.7305 0.4517
vn -0.0974 -0.5398 -0.8362
vn 0.6681 -0.4439 -0.5971
vn 0.7095 -0.5230 -0.4723
vn -0.0388 -0.8335 -0.5512
vn -0.0042 -0.9007 -0.4345
vn 0.5121 -0.7305 -0.4517
vn -0.9855 0.1697 -0.0000
vn -0.7979 -0.1057 -0.5935
vn -0.6922 -0.6079 -0.3890
vn -0.3909 -0.8590 -0.3307
vn -0.7979 -0.1057 0.5935
vn -0.0974 -0.5398 0.8362
vn 0.0011 -1.0000 -0.0000
vn -0.0000 -0.0000 -1.0000
vn 0.7071 -0.0000 -0.7071
vn 0.7071 -0.0000 0.7071
vn -0.0000 -0.0000 1.0000
vn -0.7071 -0.0000 0.7071
vn -1.0000 -0.0000 -0.0000
vn -0.7071 -0.0000 -0.7071
vn -0.0000 1.0000 -0.0000
vn -0.0794 -0.9968 -0.0000
vn 0.8876 -0.4605 -0.0000
vn 0.6421 -0.4418 0.6265
vn 0.6421 -0.4418 -0.6265
vn 0.0167 -0.3934 -0.9192
vn -0.9486 -0.3165 -0.0000
vn -0.6560 -0.3401 -0.6738
vn -0.6560 -0.3401 0.6738
vn 0.0167 -0.3934 0.9192
vn 0.5201 0.8522 -0.0578
vn 0.5334 0.8368 -0.1234
vn 0.9955 -0.0252 0.0918
vn 0.9989 -0.0284 0.0380
vn -0.5017 0.8599 -0.0945
vn -0.4943 0.8426 -0.2137
vn -0.9991 -0.0284 -0.0327
vn -0.9960 -0.0435 -0.0776
vn -0.4786 -0.8759 0.0616
vn -0.4795 -0.8672 0.1343
vn 0.4939 -0.8643 0.0951
vn 0.4877 -0.8463 0.2143
vn 0.5561 0.7961 -0.2387
vn 0.9774 0.0138 0.2111
vn -0.4533 0.7688 -0.4510
vn -0.9801 -0.0783 -0.1823
vn -0.4951 -0.8272 0.2658
vn 0.4560 -0.7677 0.4502
vn 0.5633 0.7739 -0.2893
vn 0.9384 0.1028 0.3299
vn -0.3840 0.6767 -0.6282
vn -0.9410 -0.1282 -0.3133
vn -0.5187 -0.7917 0.3228
vn 0.4085 -0.6622 0.6282
vn 0.4805 0.8548 -0.1960
vn 0.8813 0.2215 0.4174
vn -0.3688 0.6877 -0.6254
vn -0.8773 -0.1498 -0.4560
vn -0.4841 -0.8527 0.1963
vn 0.4296 -0.6399 0.6372
vn 0.3187 0.9472 0.0351
vn 0.8167 0.2672 0.5114
vn -0.4731 0.7441 -0.4717
vn -0.8255 -0.1737 -0.5369
vn -0.3368 -0.9402 -0.0517
vn 0.5219 -0.6949 0.4947
vn 0.2394 0.9539 0.1809
vn 0.7782 0.2249 0.5864
vn -0.5404 0.7365 -0.4068
vn -0.7767 -0.2294 -0.5866
vn -0.2220 -0.9599 -0.1713
vn 0.5508 -0.7256 0.4123
vn 0.2254 0.9542 0.1965
vn 0.7389 0.2249 0.6352
vn -0.5159 0.7347 -0.4406
vn -0.7382 -0.2290 -0.6346
vn -0.2123 -0.9595 -0.1853
vn 0.5235 -0.7253 0.4472
vn 0.2135 0.9539 0.2109
vn 0.6978 0.2244 0.6803
vn -0.4867 0.7353 -0.4717
vn -0.6970 -0.2292 -0.6794
vn -0.1998 -0.9597 -0.1975
vn 0.4946 -0.7249 0.4795
vn 0.1995 0.9530 0.2282
vn 0.6447 0.2235 0.7311
vn -0.4482 0.7368 -0.5061
vn -0.6439 -0.2298 -0.7298
vn -0.1831 -0.9605 -0.2094
vn 0.4575 -0.7235 0.5170
vn 0.1780 0.9506 0.2543
vn 0.5602 0.2218 0.7981
vn -0.3861 0.7412 -0.5491
vn -0.5591 -0.2317 -0.7961
vn -0.1552 -0.9627 -0.2216
vn 0.3992 -0.7197 0.5681
vn 0.1412 0.9500 0.2786
vn 0.4407 0.2215 0.8699
vn -0.3028 0.7424 -0.5977
vn -0.4396 -0.2320 -0.8677
vn -0.1214 -0.9632 -0.2396
vn 0.3143 -0.7186 0.6204
vn 0.1001 0.9509 0.2928
vn 0.3154 0.2221 0.9226
vn -0.2173 0.7406 -0.6358
vn -0.3146 -0.2312 -0.9207
vn -0.0879 -0.9624 -0.2572
vn 0.2244 -0.7201 0.6566
vn 0.0635 0.9517 0.3005
vn 0.2015 0.2227 0.9539
vn -0.1391 0.7393 -0.6588
vn -0.2010 -0.2306 -0.9521
vn -0.0566 -0.9617 -0.2683
vn 0.1431 -0.7214 0.6776
vn 0.0306 0.9522 0.3041
vn 0.0977 0.2230 0.9699
vn -0.0676 0.7384 -0.6709
vn -0.0975 -0.2302 -0.9683
vn -0.0276 -0.9612 -0.2744
vn 0.0693 -0.7222 0.6882
vn -0.0010 0.9520 0.3062
vn -0.0040 0.2228 0.9749
vn 0.0029 0.7387 -0.6740
vn 0.0040 -0.2304 -0.9731
vn 0.0009 -0.9614 -0.2751
vn -0.0030 -0.7219 0.6920
vn -0.0336 0.9518 0.3048
vn -0.1092 0.2227 0.9687
vn 0.0763 0.7390 -0.6694
vn 0.1090 -0.2307 -0.9669
vn 0.0300 -0.9616 -0.2729
vn -0.0783 -0.7217 0.6878
vn -0.0630 0.9527 0.2974
vn -0.2063 0.2235 0.9526
vn 0.1444 0.7375 -0.6598
vn 0.2061 -0.2301 -0.9511
vn 0.0573 -0.9609 -0.2710
vn -0.1476 -0.7229 0.6750
vn -0.0844 0.9540 0.2876
vn -0.2796 0.2246 0.9335
vn 0.1963 0.7351 -0.6490
vn 0.2795 -0.2291 -0.9324
vn 0.0791 -0.9596 -0.2699
vn -0.1992 -0.7250 0.6593
vn -0.0922 0.9566 0.2763
vn -0.3119 0.2269 0.9226
vn 0.2198 0.7306 -0.6464
vn 0.3118 -0.2271 -0.9226
vn 0.0911 -0.9572 -0.2748
vn -0.2205 -0.7296 0.6474
vn -0.1586 0.9558 0.2477
vn -0.3343 0.2495 0.9088
vn 0.1694 0.7395 -0.6515
vn 0.3253 -0.2120 -0.9215
vn 0.1443 -0.9537 -0.2639
vn -0.1854 -0.7208 0.6679
vn -0.4833 0.8663 0.1262
vn -0.5177 0.2417 0.8207
vn -0.0259 0.7310 -0.6819
vn 0.4662 -0.1056 -0.8783
vn 0.4616 -0.8788 -0.1210
vn -0.0764 -0.6296 0.7732
vn -0.8559 0.5007 -0.1296
vn -0.7557 0.0068 0.6549
vn -0.2076 0.5594 -0.8025
vn 0.6665 0.0945 -0.7395
vn 0.8530 -0.4964 0.1613
vn 0.0448 -0.5041 0.8625
vn -0.9392 0.1427 -0.3124
vn -0.7894 -0.2514 0.5600
vn -0.1991 0.4042 -0.8927
vn 0.7578 0.2778 -0.5904
vn 0.9341 -0.1296 0.3328
vn 0.1349 -0.4010 0.9061
vn -0.9291 0.0233 -0.3691
vn -0.7676 -0.3485 0.5379
vn -0.1694 0.3729 -0.9122
vn 0.7636 0.3508 -0.5421
vn 0.9262 -0.0251 0.3761
vn 0.1558 -0.3750 0.9138
vn -0.9237 0.0157 -0.3828
vn -0.7663 -0.3495 0.5392
vn -0.1560 0.3639 -0.9183
vn 0.7645 0.3501 -0.5412
vn 0.9279 -0.0106 0.3726
vn 0.1651 -0.3620 0.9174
vn -0.9278 0.0162 -0.3727
vn -0.7656 -0.3419 0.5449
vn -0.1617 0.3585 -0.9194
vn 0.7676 0.3409 -0.5428
vn 0.9253 -0.0192 0.3787
vn 0.1578 -0.3596 0.9197
vn -0.9312 0.0030 -0.3645
vn -0.7527 -0.3985 0.5240
vn -0.1775 0.4040 -0.8974
vn 0.7620 0.3929 -0.5148
vn 0.9196 -0.0199 0.3923
vn 0.1579 -0.4105 0.8981
vn -0.9357 -0.0499 -0.3493
vn -0.6940 -0.5852 0.4194
vn -0.2492 0.5609 -0.7895
vn 0.7269 0.5716 -0.3807
vn 0.9028 -0.0361 0.4286
vn 0.1822 -0.5814 0.7930
vn -0.8714 -0.1655 -0.4618
vn -0.5061 -0.8621 0.0271
vn -0.6179 0.6457 -0.4487
vn 0.3583 0.7761 0.5190
vn 0.8294 -0.1023 0.5492
vn 0.3061 -0.8379 0.4519
vn -0.4912 -0.3501 0.7976
vn -0.4913 -0.3498 0.7977
vn -0.4658 -0.3797 0.7993
vn -0.4686 -0.3786 0.7982
vn -0.4814 -0.3202 0.8159
vn -0.4790 -0.3188 0.8179
vn -0.4504 -0.3201 0.8335
vn -0.4483 -0.3214 0.8341
vn -0.4301 -0.3472 0.8334
vn -0.4301 -0.3470 0.8334
vn -0.4380 -0.3758 0.8167
vn -0.4364 -0.3742 0.8183
vn -0.9763 -0.1431 -0.1622
vn -0.5702 0.8102 0.1360
vn -0.7456 0.6621 0.0753
vn -0.9685 -0.1811 -0.1710
vn 0.4325 0.8580 0.2770
vn 0.9685 0.1811 0.1710
vn 0.9763 0.1431 0.1622
vn 0.2597 0.9265 0.2725
vn 0.7456 -0.6621 -0.0753
vn -0.2597 -0.9265 -0.2725
vn -0.4325 -0.8580 -0.2770
vn 0.5702 -0.8102 -0.1360
vn -0.2887 -0.9154 -0.2805
vn 0.4484 -0.8685 0.2112
vn 0.7146 -0.0337 0.6987
vn 0.0451 0.4821 0.8750
vn -0.6603 0.4556 0.5971
vn -0.8148 -0.1205 -0.5671
vn -0.0000 0.4226 -0.9063
vn -0.0000 -0.3420 -0.9397
vn -0.0000 -0.9063 -0.4226
vn -0.0000 -0.9397 0.3420
vn -0.0000 -0.4226 0.9063
vn -0.0000 0.3420 0.9397
vn -0.0000 0.9063 0.4226
vn 0.9311 -0.1541 0.3305
vn 0.9311 -0.3427 0.1247
vn -0.0000 0.9397 -0.3420
vn 0.9311 0.3427 -0.1247
vn 0.9311 0.3305 0.1541
vn 0.9311 -0.3305 -0.1541
vn 0.9311 -0.1247 -0.3427
vn 0.9311 0.1247 0.3427
vn 0.9311 0.1541 -0.3305
vt 0.084117 0.843660
vt 0.084123 0.814559
vt 0.086419 0.817204
vt 0.086400 0.841005
vt 0.087307 0.810920
vt 0.093517 0.810899
vt 0.091476 0.813746
vt 0.089403 0.813739
vt 0.089812 0.687784
vt 0.089817 0.693779
vt 0.075952 0.693796
vt 0.075948 0.687788
vt 0.089841 0.727831
vt 0.075976 0.727830
vt 0.075956 0.698744
vt 0.089821 0.698724
vt 0.075983 0.738786
vt 0.075979 0.732779
vt 0.089844 0.732776
vt 0.089848 0.738771
vt 0.087274 0.814764
vt 0.093600 0.814746
vt 0.094473 0.817175
vt 0.094456 0.841025
vt 0.093585 0.843456
vt 0.091453 0.844465
vt 0.089382 0.844449
vt 0.087262 0.843439
vt 0.093531 0.847288
vt 0.087329 0.847284
vt 0.096743 0.814514
vt 0.096743 0.829103
vt 0.096721 0.843678
vt 0.085100 0.846201
vt 0.095745 0.846206
vt 0.095751 0.811975
vt 0.085091 0.812017
vt 0.089849 0.741127
vt 0.075985 0.741139
vt 0.089851 0.743715
vt 0.075986 0.743735
vt 0.075946 0.685435
vt 0.089811 0.685428
vt 0.075944 0.682840
vt 0.089809 0.682840
vt 0.075954 0.696149
vt 0.089819 0.696135
vt 0.075978 0.730425
vt 0.089842 0.730420
vt 0.814917 0.880070
vt 0.813514 0.889462
vt 0.809288 0.889152
vt 0.810711 0.879181
vt 0.819113 0.881421
vt 0.817825 0.889754
vt 0.823248 0.882718
vt 0.822455 0.889958
vt 0.827382 0.883297
vt 0.827377 0.889974
vt 0.831516 0.882725
vt 0.832298 0.889965
vt 0.835651 0.881434
vt 0.836927 0.889767
vt 0.839848 0.880090
vt 0.841237 0.889480
vt 0.844054 0.879208
vt 0.845461 0.889176
vt 0.813659 0.897618
vt 0.809358 0.897657
vt 0.818051 0.897528
vt 0.822631 0.897404
vt 0.827373 0.897335
vt 0.832114 0.897409
vt 0.836692 0.897537
vt 0.841082 0.897632
vt 0.845381 0.897675
vt 0.813737 0.906366
vt 0.809440 0.906148
vt 0.818208 0.906505
vt 0.822769 0.906561
vt 0.827369 0.906571
vt 0.831968 0.906564
vt 0.836528 0.906511
vt 0.840998 0.906376
vt 0.845292 0.906161
vt 0.813072 0.913947
vt 0.808626 0.913128
vt 0.817764 0.914520
vt 0.822556 0.914787
vt 0.827366 0.914860
vt 0.832176 0.914789
vt 0.836967 0.914525
vt 0.841657 0.913954
vt 0.846101 0.913138
vt 0.812351 0.917902
vt 0.807839 0.916575
vt 0.817336 0.918758
vt 0.822401 0.919066
vt 0.827365 0.919110
vt 0.832329 0.919068
vt 0.837393 0.918761
vt 0.842377 0.917907
vt 0.846887 0.916582
vt 0.810547 0.923677
vt 0.806210 0.920675
vt 0.816474 0.925233
vt 0.822272 0.925404
vt 0.827364 0.925230
vt 0.832457 0.925405
vt 0.838253 0.925235
vt 0.844178 0.923681
vt 0.848514 0.920680
vt 0.804692 0.922373
vt 0.810310 0.928169
vt 0.810852 0.930274
vt 0.804624 0.922426
vt 0.815316 0.930610
vt 0.814159 0.934032
vt 0.827364 0.928125
vt 0.821832 0.928283
vt 0.820656 0.931081
vt 0.827364 0.930432
vt 0.827364 0.932544
vt 0.819023 0.933347
vt 0.838654 0.927441
vt 0.832896 0.928284
vt 0.834072 0.931081
vt 0.839411 0.930610
vt 0.840568 0.934032
vt 0.835705 0.933347
vt 0.848761 0.921003
vt 0.844399 0.924673
vt 0.844415 0.928170
vt 0.850031 0.922376
vt 0.850099 0.922429
vt 0.843874 0.930275
vt 0.810327 0.924670
vt 0.805962 0.920998
vt 0.816073 0.927440
vt 0.089868 0.772823
vt 0.076003 0.772820
vt 0.089878 0.758269
vt 0.527501 0.809214
vt 0.536078 0.814457
vt 0.534349 0.818332
vt 0.524914 0.814837
vt 0.533660 0.822240
vt 0.523444 0.820918
vt 0.533953 0.826322
vt 0.523212 0.827413
vt 0.535386 0.830715
vt 0.524369 0.834243
vt 0.538193 0.835189
vt 0.527013 0.841181
vt 0.543367 0.839657
vt 0.531058 0.847983
vt 0.534913 0.799606
vt 0.543853 0.807277
vt 0.538931 0.810750
vt 0.531038 0.804122
vt 0.538433 0.815817
vt 0.536777 0.819034
vt 0.535946 0.822331
vt 0.536581 0.825809
vt 0.538116 0.829454
vt 0.540711 0.832936
vt 0.544611 0.835624
vt 0.544611 0.810905
vt 0.540978 0.812943
vt 0.762057 0.412700
vt 0.748622 0.427330
vt 0.745138 0.422754
vt 0.756396 0.393852
vt 0.762057 0.392838
vt 0.751394 0.396692
vt 0.744738 0.405954
vt 0.747460 0.400887
vt 0.743315 0.411527
vt 0.743375 0.417279
vt 0.306292 0.685792
vt 0.306542 0.669959
vt 0.308529 0.669991
vt 0.308269 0.686015
vt 0.304330 0.685698
vt 0.304509 0.669925
vt 0.302367 0.685802
vt 0.302435 0.669910
vt 0.312388 0.686115
vt 0.312501 0.670040
vt 0.314491 0.670052
vt 0.314409 0.685933
vt 0.310321 0.686171
vt 0.310533 0.670015
vt 0.306660 0.658854
vt 0.308701 0.658890
vt 0.304617 0.658796
vt 0.302554 0.658750
vt 0.312602 0.658959
vt 0.314638 0.658977
vt 0.310651 0.658929
vt 0.306852 0.650849
vt 0.308798 0.650869
vt 0.304792 0.650805
vt 0.302753 0.650735
vt 0.312712 0.650924
vt 0.314717 0.650974
vt 0.310713 0.650897
vt 0.306844 0.644894
vt 0.308720 0.644894
vt 0.304966 0.644867
vt 0.303000 0.644834
vt 0.312910 0.644929
vt 0.315054 0.645049
vt 0.310735 0.644860
vt 0.306796 0.640279
vt 0.308736 0.640305
vt 0.304929 0.640263
vt 0.302895 0.640309
vt 0.313043 0.640445
vt 0.315265 0.640461
vt 0.310850 0.640361
vt 0.306924 0.633717
vt 0.308965 0.633744
vt 0.304854 0.633717
vt 0.302783 0.633729
vt 0.313014 0.633778
vt 0.315073 0.633769
vt 0.310979 0.633767
vt 0.306962 0.625306
vt 0.308995 0.625320
vt 0.304925 0.625294
vt 0.302853 0.625281
vt 0.313059 0.625351
vt 0.315117 0.625367
vt 0.311031 0.625335
vt 0.307020 0.615698
vt 0.309063 0.615710
vt 0.304971 0.615683
vt 0.302902 0.615669
vt 0.313149 0.615747
vt 0.315214 0.615765
vt 0.311105 0.615729
vt 0.307092 0.605560
vt 0.309139 0.605573
vt 0.305040 0.605542
vt 0.302960 0.605526
vt 0.313234 0.605608
vt 0.315310 0.605624
vt 0.311186 0.605593
vt 0.307172 0.595552
vt 0.309215 0.595560
vt 0.305117 0.595538
vt 0.303026 0.595525
vt 0.313305 0.595603
vt 0.315390 0.595623
vt 0.311258 0.595584
vt 0.307240 0.582814
vt 0.309311 0.582830
vt 0.305152 0.582799
vt 0.303072 0.582783
vt 0.313455 0.582863
vt 0.315543 0.582879
vt 0.311370 0.582846
vt 0.307355 0.569925
vt 0.309408 0.569944
vt 0.305300 0.569909
vt 0.303217 0.569889
vt 0.313515 0.569967
vt 0.315595 0.569978
vt 0.311462 0.569954
vt 0.307467 0.557006
vt 0.309506 0.557025
vt 0.305426 0.556990
vt 0.303362 0.556971
vt 0.313585 0.557048
vt 0.315646 0.557059
vt 0.311546 0.557035
vt 0.307579 0.544167
vt 0.309602 0.544183
vt 0.305563 0.544152
vt 0.303498 0.544137
vt 0.313649 0.544213
vt 0.315703 0.544229
vt 0.311634 0.544198
vt 0.307660 0.531485
vt 0.309700 0.531497
vt 0.305616 0.531470
vt 0.303550 0.531458
vt 0.313781 0.531536
vt 0.315843 0.531556
vt 0.311739 0.531518
vt 0.307736 0.519754
vt 0.309791 0.519771
vt 0.305662 0.519737
vt 0.303591 0.519721
vt 0.313903 0.519801
vt 0.315980 0.519816
vt 0.311835 0.519786
vt 0.307830 0.509714
vt 0.309868 0.509735
vt 0.305777 0.509697
vt 0.303694 0.509679
vt 0.313949 0.509757
vt 0.316026 0.509770
vt 0.311905 0.509744
vt 0.307900 0.501378
vt 0.309934 0.501396
vt 0.305850 0.501363
vt 0.303769 0.501344
vt 0.314009 0.501421
vt 0.316083 0.501440
vt 0.311967 0.501406
vt 0.307939 0.494832
vt 0.309979 0.494826
vt 0.305902 0.494787
vt 0.303842 0.494716
vt 0.314079 0.494802
vt 0.316162 0.494823
vt 0.312018 0.494804
vt 0.307988 0.490306
vt 0.309890 0.490271
vt 0.306110 0.490199
vt 0.304105 0.489992
vt 0.314072 0.490009
vt 0.316252 0.490052
vt 0.311899 0.490121
vt 0.308058 0.486842
vt 0.309643 0.486838
vt 0.306522 0.486788
vt 0.304595 0.486558
vt 0.313928 0.486419
vt 0.316449 0.486529
vt 0.311500 0.486647
vt 0.308157 0.484222
vt 0.309661 0.484229
vt 0.306540 0.484246
vt 0.304464 0.484396
vt 0.314035 0.484565
vt 0.316464 0.484448
vt 0.311597 0.484381
vt 0.308132 0.480807
vt 0.309969 0.480864
vt 0.306260 0.480874
vt 0.304188 0.481040
vt 0.314098 0.481223
vt 0.316290 0.481208
vt 0.311927 0.481050
vt 0.308147 0.475417
vt 0.310182 0.475458
vt 0.306100 0.475430
vt 0.304007 0.475464
vt 0.314281 0.475597
vt 0.316372 0.475647
vt 0.312215 0.475527
vt 0.308214 0.467290
vt 0.310309 0.467337
vt 0.306135 0.467244
vt 0.304048 0.467200
vt 0.314490 0.467388
vt 0.316575 0.467400
vt 0.312406 0.467369
vt 0.308321 0.464268
vt 0.310370 0.464329
vt 0.306255 0.464187
vt 0.304154 0.464108
vt 0.314460 0.464348
vt 0.316538 0.464321
vt 0.312416 0.464357
vt 0.308488 0.459885
vt 0.310473 0.459963
vt 0.306442 0.459794
vt 0.304322 0.459730
vt 0.314402 0.460002
vt 0.316463 0.459967
vt 0.312431 0.460012
vt 0.308719 0.455253
vt 0.310677 0.455460
vt 0.306516 0.455059
vt 0.304383 0.455272
vt 0.314352 0.455532
vt 0.316393 0.455519
vt 0.312434 0.455576
vt 0.308912 0.451323
vt 0.310859 0.451680
vt 0.306239 0.451092
vt 0.303914 0.452725
vt 0.314557 0.451982
vt 0.316765 0.452702
vt 0.312628 0.451840
vt 0.308408 0.449288
vt 0.308269 0.448961
vt 0.311172 0.448212
vt 0.311136 0.448593
vt 0.305622 0.450916
vt 0.305327 0.450569
vt 0.303482 0.452620
vt 0.302931 0.452467
vt 0.315459 0.450726
vt 0.315773 0.450385
vt 0.317553 0.452422
vt 0.317149 0.452538
vt 0.313570 0.449230
vt 0.313776 0.448892
vt 0.304879 0.448769
vt 0.307677 0.447207
vt 0.316856 0.448931
vt 0.319073 0.451345
vt 0.310696 0.446490
vt 0.313936 0.447138
vt 0.302367 0.450660
vt 0.932049 0.196154
vt 0.932925 0.194533
vt 0.936104 0.194636
vt 0.936662 0.196501
vt 0.938431 0.192427
vt 0.940468 0.193322
vt 0.938473 0.189219
vt 0.940233 0.188387
vt 0.936271 0.186675
vt 0.936933 0.185090
vt 0.932949 0.186840
vt 0.932319 0.185090
vt 0.930776 0.189174
vt 0.929131 0.188386
vt 0.936777 0.189862
vt 0.935528 0.188452
vt 0.930822 0.192264
vt 0.929110 0.192824
vt 0.935414 0.192907
vt 0.933621 0.192901
vt 0.933878 0.192188
vt 0.935097 0.192207
vt 0.932449 0.189852
vt 0.932382 0.191646
vt 0.936655 0.191644
vt 0.933666 0.188524
vt 0.933074 0.191339
vt 0.933187 0.190128
vt 0.934013 0.189228
vt 0.935172 0.189268
vt 0.936023 0.190123
vt 0.936031 0.191368
vt 0.487412 0.954147
vt 0.489133 0.953521
vt 0.491413 0.955707
vt 0.490617 0.957398
vt 0.494617 0.955618
vt 0.495269 0.957411
vt 0.496893 0.953243
vt 0.498658 0.954071
vt 0.496832 0.949915
vt 0.498665 0.949212
vt 0.494319 0.947783
vt 0.495041 0.946008
vt 0.491109 0.948063
vt 0.490395 0.946361
vt 0.495113 0.952584
vt 0.495056 0.950749
vt 0.489071 0.950424
vt 0.487412 0.949701
vt 0.492033 0.954017
vt 0.490744 0.952782
vt 0.491427 0.952435
vt 0.492258 0.953289
vt 0.491907 0.949695
vt 0.490656 0.951005
vt 0.493839 0.953926
vt 0.493708 0.949535
vt 0.491384 0.951235
vt 0.492277 0.950392
vt 0.493504 0.950281
vt 0.494364 0.951107
vt 0.494359 0.952334
vt 0.493470 0.953225
vt 0.851253 0.964309
vt 0.852011 0.962568
vt 0.855227 0.962511
vt 0.855901 0.964266
vt 0.857305 0.960095
vt 0.858983 0.960825
vt 0.857145 0.957011
vt 0.858859 0.956383
vt 0.854955 0.954720
vt 0.855793 0.953034
vt 0.851713 0.954778
vt 0.851073 0.952971
vt 0.849481 0.957152
vt 0.847727 0.956338
vt 0.855544 0.957702
vt 0.854330 0.956365
vt 0.849535 0.960455
vt 0.847727 0.961136
vt 0.854424 0.960806
vt 0.852624 0.960888
vt 0.852863 0.960139
vt 0.854063 0.960141
vt 0.851264 0.957817
vt 0.851292 0.959656
vt 0.855605 0.959462
vt 0.852480 0.956449
vt 0.851982 0.959306
vt 0.852029 0.958070
vt 0.852843 0.957146
vt 0.854011 0.957164
vt 0.854909 0.957980
vt 0.854872 0.959226
s 1
f 69/1/1 38/2/2 43/3/3 63/4/4
f 39/5/5 31/6/6 25/7/7 45/8/8
f 31/9/9 39/10/10 7/11/11 4/12/12
f 69/13/13 19/14/14 10/15/15 38/16/16
f 13/17/17 21/18/18 67/19/19 57/20/20
f 47/21/21 45/8/21 25/7/21 30/22/21 27/23/21 49/24/21 53/25/21 51/26/21 61/27/21 65/28/21 63/4/21 43/3/21
f 61/27/22 51/26/23 57/29/24 67/30/25
f 49/24/26 27/23/27 33/31/28 93/32/29 55/33/30
f 69/1/1 63/4/4 65/28/31 71/34/32
f 71/34/32 65/28/31 61/27/22 67/30/25
f 49/24/26 55/33/30 59/35/33 53/25/34
f 53/25/34 59/35/33 57/29/24 51/26/23
f 25/7/7 31/6/6 35/36/35 30/22/36
f 30/22/36 35/36/35 33/31/28 27/23/27
f 39/5/5 45/8/8 47/21/37 41/37/38
f 41/37/38 47/21/37 43/3/3 38/2/2
f 13/17/17 57/20/20 59/38/39 18/39/40
f 18/39/40 59/38/39 55/40/41 16/41/42
f 31/9/9 4/12/12 5/42/43 35/43/44
f 35/43/44 5/42/43 2/44/45 33/45/46
f 38/16/16 10/15/15 12/46/47 41/47/48
f 41/47/48 12/46/47 7/11/11 39/10/10
f 67/19/19 21/18/18 24/48/49 71/49/50
f 71/49/50 24/48/49 19/14/14 69/13/13
f 1/50/51 17/51/52 32/52/53 15/53/54
f 3/54/55 20/55/56 17/51/52 1/50/51
f 6/56/57 22/57/58 20/55/56 3/54/55
f 8/58/59 23/59/60 22/57/58 6/56/57
f 9/60/61 26/61/62 23/59/60 8/58/59
f 11/62/63 28/63/64 26/61/62 9/60/61
f 14/64/65 29/65/66 28/63/64 11/62/63
f 15/66/54 32/67/53 29/65/66 14/64/65
f 17/51/52 34/68/67 48/69/68 32/52/53
f 20/55/56 36/70/69 34/68/67 17/51/52
f 22/57/58 37/71/70 36/70/69 20/55/56
f 23/59/60 40/72/71 37/71/70 22/57/58
f 26/61/62 42/73/72 40/72/71 23/59/60
f 28/63/64 44/74/73 42/73/72 26/61/62
f 29/65/66 46/75/74 44/74/73 28/63/64
f 32/67/53 48/76/68 46/75/74 29/65/66
f 34/68/67 50/77/75 64/78/76 48/69/68
f 36/70/69 52/79/77 50/77/75 34/68/67
f 37/71/70 54/80/78 52/79/77 36/70/69
f 40/72/71 56/81/79 54/80/78 37/71/70
f 42/73/72 58/82/80 56/81/79 40/72/71
f 44/74/73 60/83/81 58/82/80 42/73/72
f 46/75/74 62/84/82 60/83/81 44/74/73
f 48/76/68 64/85/76 62/84/82 46/75/74
f 50/77/75 66/86/83 76/87/84 64/78/76
f 52/79/77 68/88/85 66/86/83 50/77/75
f 54/80/78 70/89/86 68/88/85 52/79/77
f 56/81/79 72/90/87 70/89/86 54/80/78
f 58/82/80 73/91/88 72/90/87 56/81/79
f 60/83/81 74/92/89 73/91/88 58/82/80
f 62/84/82 75/93/90 74/92/89 60/83/81
f 64/85/76 76/94/84 75/93/90 62/84/82
f 66/86/83 77/95/91 84/96/92 76/87/84
f 68/88/85 78/97/93 77/95/91 66/86/83
f 70/89/86 79/98/94 78/97/93 68/88/85
f 72/90/87 80/99/95 79/98/94 70/89/86
f 73/91/88 81/100/96 80/99/95 72/90/87
f 74/92/89 82/101/97 81/100/96 73/91/88
f 75/93/90 83/102/98 82/101/97 74/92/89
f 76/94/84 84/103/92 83/102/98 75/93/90
f 77/95/91 85/104/99 92/105/100 84/96/92
f 78/97/93 86/106/101 85/104/99 77/95/91
f 79/98/94 87/107/102 86/106/101 78/97/93
f 80/99/95 88/108/103 87/107/102 79/98/94
f 81/100/96 89/109/104 88/108/103 80/99/95
f 82/101/97 90/110/105 89/109/104 81/100/96
f 83/102/98 91/111/106 90/110/105 82/101/97
f 84/103/92 92/112/100 91/111/106 83/102/98
f 115/113/107 101/114/108 98/115/109 97/116/110
f 98/115/109 101/114/108 104/117/111 99/118/112
f 88/108/103 107/119/113 106/120/114 87/107/102
f 105/121/115 108/122/116 93/123/117 96/124/118
f 90/110/105 111/125/119 110/126/120 89/109/104
f 109/127/121 112/128/122 94/129/123 95/130/124
f 92/112/100 116/131/125 114/132/126 91/111/106
f 113/133/127 115/134/107 97/135/110 100/136/128
f 99/118/112 104/117/111 105/121/115 96/124/118
f 85/104/99 102/137/129 116/138/125 92/105/100
f 87/107/102 106/120/114 103/139/130 86/106/101
f 93/123/117 108/122/116 109/127/121 95/130/124
f 89/109/104 110/126/120 107/119/113 88/108/103
f 112/128/122 113/133/127 100/136/128 94/129/123
f 91/111/106 114/132/126 111/125/119 90/110/105
f 33/140/46 2/141/45 16/41/42 55/40/41 93/142/131
f 102/137/129 103/139/130 104/117/111 101/114/108
f 106/120/114 107/119/113 108/122/116 105/121/115
f 110/126/120 111/125/119 112/128/122 109/127/121
f 101/114/108 115/113/107 116/138/125 102/137/129
f 114/132/126 116/131/125 115/134/107 113/133/127
f 103/139/130 106/120/114 105/121/115 104/117/111
f 107/119/113 110/126/120 109/127/121 108/122/116
f 111/125/119 114/132/126 113/133/127 112/128/122
f 86/106/101 103/139/130 102/137/129 85/104/99
f 142/143/132 119/144/132 126/145/133 141/146/133
f 141/146/133 126/145/133 125/147/21 140/148/21
f 140/148/21 125/147/21 124/149/134 139/150/134
f 139/150/134 124/149/134 123/151/135 138/152/135
f 138/152/135 123/151/135 122/153/136 137/154/136
f 137/154/136 122/153/136 121/155/137 136/156/137
f 136/157/137 121/158/137 120/159/138 135/160/138
f 135/160/138 120/159/138 119/144/132 142/143/132
f 119/144/139 127/161/139 134/162/139 126/145/139
f 126/145/139 134/162/139 133/163/139 125/147/139
f 125/147/139 133/163/139 132/164/139 124/149/139
f 124/149/139 132/164/139 131/165/139 123/151/139
f 123/151/139 131/165/139 130/166/139 122/153/139
f 122/153/139 130/166/139 129/167/139 121/155/139
f 121/158/139 129/168/139 128/169/139 120/159/139
f 120/159/139 128/169/139 127/161/139 119/144/139
f 118/170/140 136/171/141 135/172/142
f 118/170/140 137/173/143 136/174/141
f 118/170/140 138/175/144 137/173/143
f 118/170/140 140/176/145 139/177/146
f 118/170/140 141/178/147 140/176/145
f 118/170/140 135/172/142 142/179/148
f 118/170/140 139/177/146 138/175/144
f 118/170/140 142/179/148 141/178/147
f 143/180/149 149/181/150 154/182/151 148/183/152
f 144/184/153 150/185/154 149/181/150 143/180/149
f 145/186/155 151/187/156 150/185/154 144/184/153
f 146/188/157 152/189/158 151/190/156 145/191/155
f 147/192/159 153/193/160 152/189/158 146/188/157
f 148/183/152 154/182/151 153/193/160 147/192/159
f 149/181/150 155/194/161 160/195/162 154/182/151
f 150/185/154 156/196/163 155/194/161 149/181/150
f 151/187/156 157/197/164 156/196/163 150/185/154
f 152/189/158 158/198/165 157/199/164 151/190/156
f 153/193/160 159/200/166 158/198/165 152/189/158
f 154/182/151 160/195/162 159/200/166 153/193/160
f 155/194/161 161/201/167 166/202/168 160/195/162
f 156/196/163 162/203/169 161/201/167 155/194/161
f 157/197/164 163/204/170 162/203/169 156/196/163
f 158/198/165 164/205/171 163/206/170 157/199/164
f 159/200/166 165/207/172 164/205/171 158/198/165
f 160/195/162 166/202/168 165/207/172 159/200/166
f 161/201/167 167/208/173 172/209/174 166/202/168
f 162/203/169 168/210/175 167/208/173 161/201/167
f 163/204/170 169/211/176 168/210/175 162/203/169
f 164/205/171 170/212/177 169/213/176 163/206/170
f 165/207/172 171/214/178 170/212/177 164/205/171
f 166/202/168 172/209/174 171/214/178 165/207/172
f 167/208/173 173/215/179 178/216/180 172/209/174
f 168/210/175 174/217/181 173/215/179 167/208/173
f 169/211/176 175/218/182 174/217/181 168/210/175
f 170/212/177 176/219/183 175/220/182 169/213/176
f 171/214/178 177/221/184 176/219/183 170/212/177
f 172/209/174 178/216/180 177/221/184 171/214/178
f 173/215/179 179/222/185 184/223/186 178/216/180
f 174/217/181 180/224/187 179/222/185 173/215/179
f 175/218/182 181/225/188 180/224/187 174/217/181
f 176/219/183 182/226/189 181/227/188 175/220/182
f 177/221/184 183/228/190 182/226/189 176/219/183
f 178/216/180 184/223/186 183/228/190 177/221/184
f 179/222/185 185/229/191 190/230/192 184/223/186
f 180/224/187 186/231/193 185/229/191 179/222/185
f 181/225/188 187/232/194 186/231/193 180/224/187
f 182/226/189 188/233/195 187/234/194 181/227/188
f 183/228/190 189/235/196 188/233/195 182/226/189
f 184/223/186 190/230/192 189/235/196 183/228/190
f 185/229/191 191/236/197 196/237/198 190/230/192
f 186/231/193 192/238/199 191/236/197 185/229/191
f 187/232/194 193/239/200 192/238/199 186/231/193
f 188/233/195 194/240/201 193/241/200 187/234/194
f 189/235/196 195/242/202 194/240/201 188/233/195
f 190/230/192 196/237/198 195/242/202 189/235/196
f 191/236/197 197/243/203 202/244/204 196/237/198
f 192/238/199 198/245/205 197/243/203 191/236/197
f 193/239/200 199/246/206 198/245/205 192/238/199
f 194/240/201 200/247/207 199/248/206 193/241/200
f 195/242/202 201/249/208 200/247/207 194/240/201
f 196/237/198 202/244/204 201/249/208 195/242/202
f 197/243/203 203/250/209 208/251/210 202/244/204
f 198/245/205 204/252/211 203/250/209 197/243/203
f 199/246/206 205/253/212 204/252/211 198/245/205
f 200/247/207 206/254/213 205/255/212 199/248/206
f 201/249/208 207/256/214 206/254/213 200/247/207
f 202/244/204 208/251/210 207/256/214 201/249/208
f 203/250/209 209/257/215 214/258/216 208/251/210
f 204/252/211 210/259/217 209/257/215 203/250/209
f 205/253/212 211/260/218 210/259/217 204/252/211
f 206/254/213 212/261/219 211/262/218 205/255/212
f 207/256/214 213/263/220 212/261/219 206/254/213
f 208/251/210 214/258/216 213/263/220 207/256/214
f 209/257/215 215/264/221 220/265/222 214/258/216
f 210/259/217 216/266/223 215/264/221 209/257/215
f 211/260/218 217/267/224 216/266/223 210/259/217
f 212/261/219 218/268/225 217/269/224 211/262/218
f 213/263/220 219/270/226 218/268/225 212/261/219
f 214/258/216 220/265/222 219/270/226 213/263/220
f 215/264/221 221/271/227 226/272/228 220/265/222
f 216/266/223 222/273/229 221/271/227 215/264/221
f 217/267/224 223/274/230 222/273/229 216/266/223
f 218/268/225 224/275/231 223/276/230 217/269/224
f 219/270/226 225/277/232 224/275/231 218/268/225
f 220/265/222 226/272/228 225/277/232 219/270/226
f 221/271/227 227/278/233 232/279/234 226/272/228
f 222/273/229 228/280/235 227/278/233 221/271/227
f 223/274/230 229/281/236 228/280/235 222/273/229
f 224/275/231 230/282/237 229/283/236 223/276/230
f 225/277/232 231/284/238 230/282/237 224/275/231
f 226/272/228 232/279/234 231/284/238 225/277/232
f 227/278/233 233/285/239 238/286/240 232/279/234
f 228/280/235 234/287/241 233/285/239 227/278/233
f 229/281/236 235/288/242 234/287/241 228/280/235
f 230/282/237 236/289/243 235/290/242 229/283/236
f 231/284/238 237/291/244 236/289/243 230/282/237
f 232/279/234 238/286/240 237/291/244 231/284/238
f 233/285/239 239/292/245 244/293/246 238/286/240
f 234/287/241 240/294/247 239/292/245 233/285/239
f 235/288/242 241/295/248 240/294/247 234/287/241
f 236/289/243 242/296/249 241/297/248 235/290/242
f 237/291/244 243/298/250 242/296/249 236/289/243
f 238/286/240 244/293/246 243/298/250 237/291/244
f 239/292/245 245/299/251 250/300/252 244/293/246
f 240/294/247 246/301/253 245/299/251 239/292/245
f 241/295/248 247/302/254 246/301/253 240/294/247
f 242/296/249 248/303/255 247/304/254 241/297/248
f 243/298/250 249/305/256 248/303/255 242/296/249
f 244/293/246 250/300/252 249/305/256 243/298/250
f 245/299/251 251/306/257 256/307/258 250/300/252
f 246/301/253 252/308/259 251/306/257 245/299/251
f 247/302/254 253/309/260 252/308/259 246/301/253
f 248/303/255 254/310/261 253/311/260 247/304/254
f 249/305/256 255/312/262 254/310/261 248/303/255
f 250/300/252 256/307/258 255/312/262 249/305/256
f 251/306/257 257/313/263 262/314/264 256/307/258
f 252/308/259 258/315/265 257/313/263 251/306/257
f 253/309/260 259/316/266 258/315/265 252/308/259
f 254/310/261 260/317/267 259/318/266 253/311/260
f 255/312/262 261/319/268 260/317/267 254/310/261
f 256/307/258 262/314/264 261/319/268 255/312/262
f 257/313/263 263/320/269 268/321/270 262/314/264
f 258/315/265 264/322/271 263/320/269 257/313/263
f 259/316/266 265/323/272 264/322/271 258/315/265
f 260/317/267 266/324/273 265/325/272 259/318/266
f 261/319/268 267/326/274 266/324/273 260/317/267
f 262/314/264 268/321/270 267/326/274 261/319/268
f 263/320/269 269/327/275 274/328/276 268/321/270
f 264/322/271 270/329/277 269/327/275 263/320/269
f 265/323/272 271/330/278 270/329/277 264/322/271
f 266/324/273 272/331/279 271/332/278 265/325/272
f 267/326/274 273/333/280 272/331/279 266/324/273
f 268/321/270 274/328/276 273/333/280 267/326/274
f 269/327/275 275/334/281 280/335/282 274/328/276
f 270/329/277 276/336/283 275/334/281 269/327/275
f 271/330/278 277/337/284 276/336/283 270/329/277
f 272/331/279 278/338/285 277/339/284 271/332/278
f 273/333/280 279/340/286 278/338/285 272/331/279
f 274/328/276 280/335/282 279/340/286 273/333/280
f 275/334/281 281/341/287 286/342/288 280/335/282
f 276/336/283 282/343/289 281/341/287 275/334/281
f 277/337/284 283/344/290 282/343/289 276/336/283
f 278/338/285 284/345/291 283/346/290 277/339/284
f 279/340/286 285/347/292 284/345/291 278/338/285
f 280/335/282 286/342/288 285/347/292 279/340/286
f 281/341/287 287/348/293 292/349/294 286/342/288
f 282/343/289 288/350/295 287/348/293 281/341/287
f 283/344/290 289/351/296 288/350/295 282/343/289
f 284/345/291 290/352/297 289/353/296 283/346/290
f 285/347/292 291/354/298 290/352/297 284/345/291
f 286/342/288 292/349/294 291/354/298 285/347/292
f 287/348/293 293/355/299 298/356/300 292/349/294
f 288/350/295 294/357/301 293/355/299 287/348/293
f 289/351/296 295/358/302 294/357/301 288/350/295
f 290/352/297 296/359/303 295/360/302 289/353/296
f 291/354/298 297/361/304 296/359/303 290/352/297
f 292/349/294 298/356/300 297/361/304 291/354/298
f 293/355/299 299/362/305 304/363/306 298/356/300
f 294/357/301 300/364/307 299/362/305 293/355/299
f 295/358/302 301/365/308 300/364/307 294/357/301
f 296/359/303 302/366/309 301/367/308 295/360/302
f 297/361/304 303/368/310 302/366/309 296/359/303
f 298/356/300 304/363/306 303/368/310 297/361/304
f 299/362/305 305/369/311 310/370/312 304/363/306
f 300/364/307 306/371/313 305/369/311 299/362/305
f 301/365/308 307/372/314 306/371/313 300/364/307
f 302/366/309 308/373/315 307/374/314 301/367/308
f 303/368/310 309/375/316 308/373/315 302/366/309
f 304/363/306 310/370/312 309/375/316 303/368/310
f 305/369/311 311/376/317 316/377/318 310/370/312
f 306/371/313 312/378/319 311/376/317 305/369/311
f 307/372/314 313/379/320 312/378/319 306/371/313
f 308/373/315 314/380/321 313/381/320 307/374/314
f 309/375/316 315/382/322 314/380/321 308/373/315
f 310/370/312 316/377/318 315/382/322 309/375/316
f 311/376/317 317/383/323 322/384/324 316/377/318
f 312/378/319 318/385/325 317/383/323 311/376/317
f 313/379/320 319/386/326 318/385/325 312/378/319
f 314/380/321 320/387/327 319/388/326 313/381/320
f 315/382/322 321/389/328 320/387/327 314/380/321
f 316/377/318 322/384/324 321/389/328 315/382/322
f 337/390/329 323/391/330 328/392/331 340/393/332
f 339/394/333 324/395/334 323/391/330 337/390/329
f 335/396/335 325/397/336 324/395/334 339/394/333
f 336/398/337 326/399/338 325/400/336 335/401/335
f 338/402/339 327/403/340 326/399/338 336/398/337
f 340/393/332 328/392/331 327/403/340 338/402/339
f 323/391/341 324/395/342 330/404/343 329/405/344
f 325/400/345 326/399/346 332/406/347 331/407/348
f 327/403/349 328/392/350 334/408/351 333/409/352
f 324/395/342 325/397/345 331/410/348 330/404/343
f 326/399/346 327/403/349 333/409/352 332/406/347
f 328/392/350 323/391/341 329/405/344 334/408/351
f 322/384/324 340/393/353 338/402/354 321/389/328
f 321/389/328 338/402/354 336/398/355 320/387/327
f 320/387/327 336/398/355 335/401/356 319/388/326
f 319/386/326 335/396/356 339/394/357 318/385/325
f 318/385/325 339/394/357 337/390/358 317/383/323
f 317/383/323 337/390/358 340/393/353 322/384/324
f 341/411/359 342/412/359 344/413/360 343/414/360
f 343/414/360 344/413/360 346/415/361 345/416/361
f 345/416/361 346/415/361 348/417/362 347/418/362
f 347/418/362 348/417/362 350/419/363 349/420/363
f 349/420/363 350/419/363 352/421/364 351/422/364
f 351/422/364 352/421/364 354/423/365 353/424/365
f 350/419/366 348/417/367 360/425/367 361/426/366
f 353/424/365 354/423/365 356/427/368 355/428/368
f 355/428/368 356/427/368 342/412/359 341/411/359
f 357/429/360 358/430/359 366/431/359 365/432/360
f 356/427/369 354/423/370 363/433/370 364/434/369
f 346/415/371 344/413/372 357/429/372 359/435/371
f 352/421/373 350/419/366 361/426/366 362/436/373
f 342/412/374 356/427/369 364/434/369 358/430/374
f 344/413/372 342/412/374 358/430/374 357/429/372
f 348/417/367 346/415/371 359/435/371 360/425/367
f 354/423/370 352/421/373 362/436/373 363/433/370
f 365/432/21 366/431/21 372/437/21 371/438/21 370/439/21 369/440/21 368/441/21 367/442/21
f 358/430/359 364/434/368 372/437/368 366/431/359
f 363/433/365 362/436/364 370/439/364 371/438/365
f 361/426/363 360/425/362 368/441/362 369/440/363
f 359/435/361 357/429/360 365/432/360 367/442/361
f 364/434/368 363/433/365 371/438/365 372/437/368
f 362/436/364 361/426/363 369/440/363 370/439/364
f 360/425/362 359/435/361 367/442/361 368/441/362
f 373/443/359 374/444/359 376/445/360 375/446/360
f 375/446/360 376/445/360 378/447/361 377/448/361
f 377/448/361 378/447/361 380/449/362 379/450/362
f 379/450/362 380/449/362 382/451/363 381/452/363
f 381/452/363 382/451/363 384/453/364 383/454/364
f 383/454/364 384/453/364 386/455/365 385/456/365
f 382/451/366 380/449/367 392/457/367 393/458/366
f 385/456/365 386/455/365 388/459/368 387/460/368
f 387/460/368 388/459/368 374/444/359 373/443/359
f 389/461/360 390/462/359 398/463/359 397/464/360
f 388/459/369 386/455/370 395/465/370 396/466/369
f 378/447/371 376/445/372 389/461/372 391/467/371
f 384/453/373 382/451/366 393/458/366 394/468/373
f 374/444/374 388/459/369 396/466/369 390/462/374
f 376/445/372 374/444/374 390/462/374 389/461/372
f 380/449/367 378/447/371 391/467/371 392/457/367
f 386/455/370 384/453/373 394/468/373 395/465/370
f 397/464/21 398/463/21 404/469/21 403/470/21 402/471/21 401/472/21 400/473/21 399/474/21
f 390/462/359 396/466/368 404/469/368 398/463/359
f 395/465/365 394/468/364 402/471/364 403/470/365
f 393/458/363 392/457/362 400/473/362 401/472/363
f 391/467/361 389/461/360 397/464/360 399/474/361
f 396/466/368 395/465/365 403/470/365 404/469/368
f 394/468/364 393/458/363 401/472/363 402/471/364
f 392/457/362 391/467/361 399/474/361 400/473/362
f 405/475/359 406/476/359 408/477/360 407/478/360
f 407/478/360 408/477/360 410/479/361 409/480/361
f 409/480/361 410/479/361 412/481/362 411/482/362
f 411/482/362 412/481/362 414/483/363 413/484/363
f 413/484/363 414/483/363 416/485/364 415/486/364
f 415/486/364 416/485/364 418/487/365 417/488/365
f 414/483/366 412/481/367 424/489/367 425/490/366
f 417/488/365 418/487/365 420/491/368 419/492/368
f 419/492/368 420/491/368 406/476/359 405/475/359
f 421/493/360 422/494/359 430/495/359 429/496/360
f 420/491/369 418/487/370 427/497/370 428/498/369
f 410/479/371 408/477/372 421/493/372 423/499/371
f 416/485/373 414/483/366 425/490/366 426/500/373
f 406/476/374 420/491/369 428/498/369 422/494/374
f 408/477/372 406/476/374 422/494/374 421/493/372
f 412/481/367 410/479/371 423/499/371 424/489/367
f 418/487/370 416/485/373 426/500/373 427/497/370
f 429/496/21 430/495/21 436/501/21 435/502/21 434/503/21 433/504/21 432/505/21 431/506/21
f 422/494/359 428/498/368 436/501/368 430/495/359
f 427/497/365 426/500/364 434/503/364 435/502/365
f 425/490/363 424/489/362 432/505/362 433/504/363
f 423/499/361 421/493/360 429/496/360 431/506/361
f 428/498/368 427/497/365 435/502/365 436/501/368
f 426/500/364 425/490/363 433/504/363 434/503/364
f 424/489/362 423/499/361 431/506/361 432/505/362
