# Blender 4.1.1
# www.blender.org
o SpaceCapsule_1.875mShroud
v 0.000000 -0.065230 -0.989325
v 0.256056 -0.065230 -0.955615
v 0.494663 -0.065230 -0.856781
v 0.699559 -0.065230 -0.699559
v 0.856781 -0.065230 -0.494663
v 0.955615 -0.065230 -0.256056
v 0.989325 -0.065230 0.000000
v 0.955615 -0.065230 0.256056
v 0.856781 -0.065230 0.494663
v 0.699559 -0.065230 0.699559
v 0.494663 -0.065230 0.856781
v 0.256056 -0.065230 0.955615
v 0.000000 -0.065230 0.989325
v -0.256056 -0.065230 0.955615
v -0.494663 -0.065230 0.856781
v -0.699559 -0.065230 0.699559
v -0.856781 -0.065230 0.494663
v -0.955615 -0.065230 0.256056
v -0.989325 -0.065230 0.000000
v -0.955615 -0.065230 -0.256056
v -0.856781 -0.065230 -0.494663
v -0.699559 -0.065230 -0.699559
v -0.494663 -0.065230 -0.856781
v -0.256056 -0.065230 -0.955615
v 0.000000 -0.742573 -0.937500
v 0.242643 -0.742573 -0.905555
v 0.937500 -0.742573 0.000000
v 0.905555 -0.742573 0.242643
v 0.242643 -0.742573 0.905555
v -0.242643 -0.742573 0.905555
v -0.468750 -0.742573 0.811899
v -0.905555 -0.742573 0.242643
v -0.937500 -0.742573 0.000000
v -0.811899 -0.742573 -0.468750
v -0.662913 -0.742573 -0.662913
v 0.000000 -0.558432 -0.951589
v 0.055457 -0.241106 -0.968568
v 0.137445 -0.316747 -0.951986
v 0.103263 -0.270465 -0.960027
v 0.064107 -0.539096 -0.944629
v 0.152853 -0.374891 -0.945509
v 0.145811 -0.437673 -0.941632
v 0.563431 -0.368914 -0.774976
v 0.565621 -0.430372 -0.767419
v 0.578576 -0.311996 -0.768797
v 0.586467 -0.487304 -0.745980
v 0.624230 -0.529657 -0.712953
v 0.673408 -0.548587 -0.673408
v 0.768797 -0.311996 -0.578576
v 0.750709 -0.266691 -0.607795
v 0.712953 -0.529657 -0.624230
v 0.767419 -0.430372 -0.565621
v 0.774976 -0.368914 0.563431
v 0.646786 -0.237954 0.723537
v 0.563431 -0.368914 0.774976
v 0.145811 -0.437673 0.941632
v 0.000000 -0.558431 0.951589
v 0.000000 -0.231797 0.976581
v -0.137444 -0.316747 0.951986
v -0.103263 -0.270465 0.960028
v -0.055457 -0.241106 0.968568
v -0.145810 -0.437673 0.941632
v -0.563431 -0.368914 0.774976
v -0.565621 -0.430372 0.767419
v -0.673408 -0.548587 0.673408
v -0.586466 -0.487304 0.745980
v -0.745980 -0.487304 0.586467
v -0.767419 -0.430372 0.565621
v -0.774976 -0.368914 -0.563431
v -0.768797 -0.311996 -0.578576
v -0.690707 -0.228847 -0.690707
v -0.646786 -0.237954 -0.723537
v -0.607795 -0.266691 -0.750709
v -0.624230 -0.529657 -0.712953
v -0.586467 -0.487303 -0.745980
v 0.512396 -0.090753 -0.585162
v 0.523244 -0.105774 -0.607977
v 0.551444 -0.079762 -0.551444
v 0.000000 -0.742573 -0.857120
v 0.473962 -0.122053 -0.608417
v 0.441994 -0.168896 -0.617668
v 0.569406 -0.095134 -0.569406
v 0.476518 -0.136075 -0.633083
v 0.421359 -0.224151 -0.611507
v 0.415198 -0.279407 -0.590872
v 0.221839 -0.742573 -0.827914
v 0.424449 -0.326250 -0.558904
v 0.447704 -0.357550 -0.520470
v 0.436342 -0.181424 -0.640904
v 0.408831 -0.234916 -0.630247
v 0.481422 -0.368541 -0.481422
v 0.520470 -0.357550 -0.447704
v 0.428560 -0.742573 -0.742288
v 0.558904 -0.326250 -0.424450
v 0.398175 -0.288409 -0.602737
v 0.590871 -0.279407 -0.415198
v 0.611507 -0.224151 -0.421359
v 0.606075 -0.742573 -0.606075
v 0.405996 -0.333757 -0.562561
v 0.617668 -0.168896 -0.441995
v 0.431102 -0.364058 -0.515835
v 0.608417 -0.122053 -0.473962
v 0.585162 -0.090753 -0.512396
v 0.469672 -0.374699 -0.469672
v -0.511295 -0.090753 0.586262
v 0.742288 -0.742573 -0.428560
v -0.551444 -0.079762 0.551444
v -0.471929 -0.122052 0.610450
v -0.439338 -0.168896 0.620324
v 0.515834 -0.364058 -0.431102
v -0.418484 -0.224151 0.614382
v 0.562560 -0.333757 -0.405996
v -0.412542 -0.279406 0.593528
v 0.827914 -0.742573 -0.221839
v -0.422416 -0.326250 0.560937
v 0.602737 -0.288409 -0.398175
v -0.446604 -0.357549 0.521571
v 0.630247 -0.234916 -0.408831
v -0.481422 -0.368540 0.481422
v -0.521571 -0.357549 0.446604
v 0.857120 -0.742573 0.000000
v -0.560937 -0.326250 0.422417
v 0.640903 -0.181424 -0.436342
v -0.593528 -0.279407 0.412542
v 0.633083 -0.136075 -0.476518
v -0.614382 -0.224151 0.418484
v 0.827914 -0.742573 0.221839
v -0.620324 -0.168896 0.439338
v 0.607977 -0.105774 -0.523244
v -0.610450 -0.122053 0.471929
v -0.586262 -0.090753 0.511296
v -0.523244 -0.105774 0.607977
v 0.059480 -0.073879 0.761852
v 0.000000 -0.062372 0.765621
v 0.742288 -0.742573 0.428560
v 0.109905 -0.106646 0.751119
v -0.569406 -0.095134 0.569406
v 0.143597 -0.155685 0.735056
v 0.155429 -0.213531 0.716108
v 0.606075 -0.742573 0.606075
v 0.143597 -0.271377 0.697160
v -0.476518 -0.136075 0.633083
v -0.436342 -0.181424 0.640904
v 0.109905 -0.320416 0.681097
v 0.059480 -0.353183 0.670364
v 0.000000 -0.364689 0.666595
v -0.408831 -0.234916 0.630248
v -0.059480 -0.353183 0.670364
v 0.428560 -0.742573 0.742288
v -0.398175 -0.288409 0.602737
v -0.109904 -0.320416 0.681097
v -0.143597 -0.271377 0.697160
v -0.405996 -0.333757 0.562561
v -0.155428 -0.213531 0.716108
v -0.143597 -0.155685 0.735056
v 0.221839 -0.742573 0.827914
v -0.109905 -0.106646 0.751119
v -0.431102 -0.364058 0.515835
v -0.059480 -0.073879 0.761852
v 0.586800 -0.088926 0.510758
v -0.469672 -0.374699 0.469673
v 0.551444 -0.077938 0.551444
v 0.000000 -0.742573 0.857120
v 0.611443 -0.120215 0.470936
v 0.621622 -0.167042 0.438041
v -0.515834 -0.364058 0.431102
v 0.615786 -0.222279 0.417080
v -0.562560 -0.333757 0.405996
v 0.594826 -0.277516 0.411244
v -0.221839 -0.742573 0.827914
v -0.602737 -0.288409 0.398175
v 0.561930 -0.324344 0.421423
v 0.522108 -0.355633 0.446066
v -0.630247 -0.234916 0.408831
v 0.481422 -0.366620 0.481422
v 0.446066 -0.355633 0.522108
v -0.428560 -0.742573 0.742288
v 0.421423 -0.324344 0.561930
v 0.411244 -0.277516 0.594826
v -0.640904 -0.181424 0.436342
v 0.417080 -0.222279 0.615786
v -0.633083 -0.136075 0.476518
v 0.438041 -0.167042 0.621622
v -0.606075 -0.742573 0.606075
v -0.607977 -0.105774 0.523244
v 0.470936 -0.120215 0.611443
v 0.510758 -0.088926 0.586800
v -0.059480 -0.073879 -0.761852
v -0.742288 -0.742573 0.428560
v 0.000000 -0.062372 -0.765621
v 0.059915 -0.105774 0.799894
v -0.109905 -0.106646 -0.751119
v 0.000000 -0.095134 0.805262
v -0.143597 -0.155685 -0.735056
v -0.827914 -0.742573 0.221839
v -0.155429 -0.213531 -0.716108
v 0.110708 -0.136075 0.784607
v -0.143597 -0.271377 -0.697161
v -0.109905 -0.320416 -0.681097
v 0.144647 -0.181424 0.761728
v -0.059480 -0.353183 -0.670364
v -0.000000 -0.364689 -0.666595
v -0.857120 -0.742573 0.000000
v 0.156565 -0.234916 0.734740
v 0.059480 -0.353183 -0.670364
v 0.109905 -0.320416 -0.681097
v 0.144647 -0.288409 0.707752
v 0.143597 -0.271377 -0.697160
v 0.155429 -0.213531 -0.716108
v -0.827914 -0.742573 -0.221839
v 0.143597 -0.155685 -0.735056
v 0.110708 -0.333757 0.684873
v 0.109905 -0.106646 -0.751119
v 0.059915 -0.364058 0.669585
v 0.059480 -0.073879 -0.761852
v -0.585577 -0.088925 -0.511980
v -0.742288 -0.742573 -0.428560
v -0.551444 -0.077938 -0.551444
v 0.000000 -0.374699 0.664217
v -0.609185 -0.120214 -0.473195
v -0.059915 -0.364058 0.669585
v -0.618671 -0.167042 -0.440992
v -0.612592 -0.222279 -0.420274
v -0.606075 -0.742573 -0.606075
v -0.110708 -0.333757 0.684873
v -0.591875 -0.277516 -0.414196
v -0.559672 -0.324344 -0.423682
v -0.520886 -0.355633 -0.447289
v -0.144647 -0.288409 0.707752
v -0.481422 -0.366620 -0.481422
v -0.428560 -0.742573 -0.742288
v -0.447289 -0.355633 -0.520886
v -0.156565 -0.234916 0.734740
v -0.144647 -0.181424 0.761728
v -0.423682 -0.324344 -0.559672
v -0.414196 -0.277516 -0.591875
v -0.221839 -0.742573 -0.827914
v -0.420274 -0.222279 -0.612592
v -0.440992 -0.167042 -0.618671
v -0.110708 -0.136075 0.784607
v -0.473195 -0.120214 -0.609184
v -0.511980 -0.088925 -0.585577
v -0.059915 -0.105774 0.799894
v 0.607977 -0.105774 0.523244
v 0.569406 -0.095134 0.569406
v 0.468750 -0.742573 -0.811899
v 0.633083 -0.136075 0.476518
v 0.640904 -0.181424 0.436342
v 0.662913 -0.742573 -0.662913
v 0.630247 -0.234916 0.408831
v 0.811899 -0.742573 -0.468750
v 0.602737 -0.288409 0.398175
v 0.905555 -0.742573 -0.242643
v 0.562561 -0.333757 0.405996
v 0.515834 -0.364058 0.431102
v 0.811899 -0.742573 0.468750
v 0.469672 -0.374699 0.469672
v 0.431102 -0.364058 0.515834
v 0.662913 -0.742573 0.662913
v 0.468750 -0.742573 0.811899
v 0.405996 -0.333757 0.562560
v 0.398175 -0.288409 0.602737
v 0.000000 -0.742573 0.937500
v 0.408831 -0.234916 0.630247
v 0.436342 -0.181424 0.640904
v 0.476518 -0.136075 0.633083
v -0.662913 -0.742573 0.662913
v 0.523244 -0.105774 0.607977
v -0.811899 -0.742573 0.468750
v -0.059915 -0.105774 -0.799894
v 0.000000 -0.095134 -0.805262
v -0.110708 -0.136075 -0.784607
v -0.905555 -0.742573 -0.242643
v -0.144647 -0.181424 -0.761728
v -0.156565 -0.234916 -0.734740
v -0.144647 -0.288409 -0.707752
v -0.468750 -0.742573 -0.811899
v -0.110708 -0.333757 -0.684873
v -0.242643 -0.742573 -0.905555
v -0.059915 -0.364058 -0.669585
v 0.000000 -0.052171 -0.909206
v -0.000000 -0.374699 -0.664217
v 0.059915 -0.364058 -0.669585
v 0.235320 -0.052171 -0.878226
v 0.454603 -0.052171 -0.787396
v 0.110708 -0.333757 -0.684873
v 0.144647 -0.288409 -0.707752
v 0.642906 -0.052171 -0.642906
v 0.787396 -0.052171 -0.454603
v 0.156565 -0.234916 -0.734740
v 0.878226 -0.052171 -0.235320
v 0.144647 -0.181424 -0.761727
v 0.909206 -0.052171 0.000000
v 0.110708 -0.136075 -0.784607
v 0.878226 -0.052171 0.235320
v 0.059915 -0.105774 -0.799894
v 0.787396 -0.052171 0.454603
v -0.607977 -0.105774 -0.523245
v -0.569406 -0.095134 -0.569407
v 0.642906 -0.052171 0.642906
v -0.633083 -0.136075 -0.476518
v 0.454603 -0.052171 0.787396
v -0.640904 -0.181424 -0.436342
v 0.235320 -0.052171 0.878226
v -0.630248 -0.234916 -0.408832
v 0.000000 -0.052171 0.909206
v -0.602737 -0.288409 -0.398175
v -0.235320 -0.052171 0.878226
v -0.562561 -0.333757 -0.405996
v -0.454603 -0.052171 0.787396
v -0.515835 -0.364058 -0.431102
v -0.642906 -0.052171 0.642906
v -0.469673 -0.374699 -0.469673
v -0.787396 -0.052171 0.454603
v -0.431102 -0.364058 -0.515835
v -0.878226 -0.052171 0.235320
v -0.909206 -0.052171 0.000000
v -0.405996 -0.333757 -0.562561
v -0.878226 -0.052171 -0.235320
v -0.398175 -0.288409 -0.602737
v -0.408831 -0.234916 -0.630248
v -0.787396 -0.052171 -0.454603
v -0.436342 -0.181424 -0.640904
v -0.642906 -0.052171 -0.642906
v -0.454603 -0.052171 -0.787396
v -0.476518 -0.136075 -0.633083
v -0.235320 -0.052171 -0.878226
v -0.523244 -0.105774 -0.607977
v 0.857120 -0.713356 0.000000
v 0.827914 -0.713356 -0.221839
v -0.606075 -0.713356 -0.606075
v -0.742288 -0.713356 -0.428560
v -0.428560 -0.713356 0.742288
v -0.221839 -0.713356 0.827914
v 0.827914 -0.713356 0.221839
v -0.428560 -0.713356 -0.742288
v -0.606075 -0.713356 0.606075
v 0.742288 -0.713356 0.428560
v -0.221839 -0.713356 -0.827914
v 0.221839 -0.713356 -0.827914
v 0.000000 -0.713356 -0.857120
v -0.742288 -0.713356 0.428560
v 0.606075 -0.713356 0.606075
v 0.428560 -0.713356 -0.742288
v -0.827914 -0.713356 0.221839
v 0.428560 -0.713356 0.742288
v 0.606075 -0.713356 -0.606075
v -0.857120 -0.713356 0.000000
v 0.221839 -0.713356 0.827914
v 0.742288 -0.713356 -0.428560
v -0.827914 -0.713356 -0.221839
v 0.000000 -0.713356 0.857120
v 0.909206 -0.713356 0.000000
v -0.642906 -0.713356 -0.642906
v -0.454603 -0.713356 0.787396
v 0.878226 -0.713356 0.235320
v -0.454603 -0.713356 -0.787396
v -0.642906 -0.713356 0.642906
v 0.787396 -0.713356 0.454603
v -0.235320 -0.713356 -0.878226
v 0.235320 -0.713356 -0.878226
v -0.787396 -0.713356 0.454603
v 0.642906 -0.713356 0.642906
v 0.454603 -0.713356 -0.787396
v -0.878226 -0.713356 0.235320
v 0.454603 -0.713356 0.787396
v 0.642906 -0.713356 -0.642906
v -0.909206 -0.713356 0.000000
v 0.235320 -0.713356 0.878226
v 0.787396 -0.713356 -0.454603
v -0.878226 -0.713356 -0.235320
v 0.000000 -0.713356 0.909206
v 0.878226 -0.713356 -0.235320
v -0.787396 -0.713356 -0.454603
v -0.235320 -0.713356 0.878226
v 0.000000 -0.713356 -0.909206
v -0.692278 -0.543823 -0.578563
v -0.731268 -0.487451 -0.527750
v -0.642906 -0.569118 -0.642906
v -0.642906 -0.152846 -0.642906
v -0.758620 -0.332258 -0.492105
v -0.754012 -0.412386 -0.498109
v -0.746331 -0.258835 -0.508119
v -0.684313 -0.164370 -0.588942
v -0.720241 -0.200893 -0.542121
v -0.578563 -0.543823 -0.692278
v -0.498109 -0.412386 -0.754012
v -0.492105 -0.332258 -0.758620
v -0.527750 -0.487451 -0.731268
v -0.508119 -0.258835 -0.746331
v -0.542121 -0.200893 -0.720241
v -0.588942 -0.164370 -0.684314
v -0.642906 -0.152846 0.642906
v -0.578563 -0.543823 0.692278
v -0.527750 -0.487451 0.731268
v -0.588942 -0.164370 0.684314
v -0.508119 -0.258835 0.746331
v -0.492104 -0.332258 0.758620
v -0.498109 -0.412386 0.754012
v -0.542121 -0.200893 0.720241
v 0.143909 -0.487451 -0.890260
v 0.080409 -0.543823 -0.898620
v 0.168441 -0.258835 -0.887030
v 0.188455 -0.332258 -0.884396
v 0.180951 -0.412386 -0.885384
v 0.125949 -0.200893 -0.892625
v 0.067438 -0.164370 -0.900328
v -0.692278 -0.543823 0.578563
v -0.758620 -0.332258 0.492105
v -0.754012 -0.412386 0.498109
v -0.746331 -0.258835 0.508119
v -0.731268 -0.487451 0.527751
v -0.642906 -0.569118 0.642906
v -0.720241 -0.200893 0.542121
v -0.684313 -0.164370 0.588942
v 0.642906 -0.569118 0.642906
v 0.642906 -0.152846 0.642906
v 0.731268 -0.487451 0.527750
v 0.692278 -0.543823 0.578563
v 0.684313 -0.164370 0.588942
v 0.720241 -0.200893 0.542121
v 0.754012 -0.412386 0.498109
v 0.758620 -0.332258 0.492104
v 0.746331 -0.258835 0.508119
v -0.143908 -0.487451 -0.890260
v -0.080409 -0.543823 -0.898620
v -0.000000 -0.569118 -0.909206
v -0.000000 -0.152846 -0.909206
v -0.188455 -0.332258 -0.884396
v -0.180951 -0.412386 -0.885384
v -0.067438 -0.164370 -0.900328
v -0.125949 -0.200893 -0.892625
v -0.168441 -0.258835 -0.887030
v 0.492104 -0.332258 0.758620
v 0.498109 -0.412386 0.754012
v 0.578563 -0.543823 0.692278
v 0.527750 -0.487451 0.731268
v 0.508119 -0.258835 0.746331
v 0.542121 -0.200893 0.720241
v 0.588942 -0.164370 0.684314
v 0.527750 -0.487451 -0.731268
v 0.578563 -0.543823 -0.692278
v 0.642906 -0.569118 -0.642906
v 0.642906 -0.152846 -0.642906
v 0.492104 -0.332258 -0.758620
v 0.498109 -0.412386 -0.754012
v 0.588942 -0.164370 -0.684314
v 0.508119 -0.258835 -0.746331
v 0.542121 -0.200893 -0.720241
v 0.758620 -0.332258 -0.492104
v 0.754012 -0.412386 -0.498109
v 0.692278 -0.543823 -0.578563
v 0.731268 -0.487451 -0.527750
v 0.746331 -0.258835 -0.508119
v 0.720241 -0.200893 -0.542121
v 0.684314 -0.164370 -0.588942
v 0.080409 -0.543823 0.898620
v 0.143909 -0.487451 0.890260
v 0.067438 -0.164370 0.900328
v 0.188455 -0.332258 0.884396
v 0.180951 -0.412386 0.885384
v 0.168441 -0.258835 0.887030
v 0.125949 -0.200893 0.892625
v -0.188455 -0.332258 0.884396
v -0.180950 -0.412386 0.885384
v -0.080409 -0.543823 0.898620
v -0.143908 -0.487451 0.890260
v -0.168441 -0.258835 0.887030
v -0.125949 -0.200893 0.892625
v -0.067438 -0.164370 0.900328
v -0.000000 -0.569118 0.909206
v -0.000000 -0.152846 0.909206
v 0.000000 -0.231797 -0.976581
v 0.115258 -0.495831 -0.941205
v 0.607795 -0.266691 -0.750709
v 0.690707 -0.228847 -0.690707
v 0.646786 -0.237954 -0.723537
v 0.723537 -0.237954 -0.646786
v 0.774976 -0.368914 -0.563431
v 0.745980 -0.487304 -0.586467
v 0.750709 -0.266691 0.607795
v 0.767419 -0.430372 0.565621
v 0.768797 -0.311996 0.578576
v 0.690707 -0.228847 0.690707
v 0.673408 -0.548587 0.673408
v 0.723537 -0.237954 0.646786
v 0.712953 -0.529657 0.624230
v 0.745980 -0.487304 0.586467
v 0.578576 -0.311996 0.768797
v 0.607795 -0.266691 0.750709
v 0.624230 -0.529657 0.712953
v 0.565621 -0.430372 0.767419
v 0.586467 -0.487304 0.745980
v 0.103263 -0.270465 0.960027
v 0.152853 -0.374891 0.945509
v 0.137445 -0.316747 0.951986
v 0.115258 -0.495831 0.941205
v 0.064108 -0.539096 0.944629
v 0.055457 -0.241106 0.968568
v -0.064107 -0.539096 0.944629
v -0.152853 -0.374891 0.945509
v -0.115257 -0.495831 0.941205
v -0.607795 -0.266691 0.750709
v -0.578576 -0.311996 0.768797
v -0.690707 -0.228847 0.690707
v -0.646786 -0.237954 0.723537
v -0.624230 -0.529657 0.712953
v -0.712953 -0.529657 0.624230
v -0.723537 -0.237954 0.646786
v -0.768797 -0.311996 0.578576
v -0.750708 -0.266691 0.607795
v -0.774976 -0.368914 0.563431
v -0.767419 -0.430372 -0.565621
v -0.750708 -0.266691 -0.607795
v -0.712953 -0.529657 -0.624230
v -0.745980 -0.487303 -0.586467
v -0.673408 -0.548587 -0.673408
v -0.723537 -0.237954 -0.646786
v -0.578576 -0.311996 -0.768797
v -0.563431 -0.368914 -0.774976
v -0.565621 -0.430372 -0.767419
v -0.152853 -0.374891 -0.945509
v -0.145810 -0.437673 -0.941632
v -0.103263 -0.270465 -0.960028
v -0.137444 -0.316747 -0.951986
v -0.064107 -0.539096 -0.944629
v -0.115258 -0.495831 -0.941205
v -0.055457 -0.241106 -0.968568
v -0.185609 -0.738570 -0.842892
v -0.185609 -0.719884 -0.842892
v -0.119890 -0.738570 -0.609605
v -0.119890 -0.719884 -0.609605
v -0.260703 -0.738570 -0.822770
v -0.260703 -0.719884 -0.822770
v -0.200974 -0.738570 -0.587878
v -0.200974 -0.719884 -0.587878
v -0.193922 -0.738570 -0.808960
v -0.193922 -0.719884 -0.808960
v -0.236538 -0.738570 -0.797541
v -0.236538 -0.719884 -0.797541
v -0.146217 -0.719884 -0.630922
v -0.188833 -0.738570 -0.619502
v -0.146217 -0.738570 -0.630922
v -0.188833 -0.719884 -0.619502
v 0.185610 -0.738570 0.842891
v 0.185610 -0.719884 0.842891
v 0.119890 -0.738570 0.609604
v 0.119890 -0.719884 0.609604
v 0.260704 -0.738570 0.822770
v 0.260704 -0.719884 0.822770
v 0.200975 -0.738570 0.587878
v 0.200975 -0.719884 0.587878
v 0.193922 -0.738570 0.808960
v 0.193922 -0.719884 0.808960
v 0.236539 -0.738570 0.797541
v 0.236539 -0.719884 0.797541
v 0.146217 -0.719884 0.630921
v 0.188834 -0.738570 0.619502
v 0.146217 -0.738570 0.630921
v 0.188834 -0.719884 0.619502
v 0.842892 -0.738570 -0.185609
v 0.842892 -0.719884 -0.185609
v 0.609605 -0.738570 -0.119890
v 0.609605 -0.719884 -0.119890
v 0.822770 -0.738570 -0.260704
v 0.822770 -0.719884 -0.260704
v 0.587878 -0.738570 -0.200975
v 0.587878 -0.719884 -0.200975
v 0.808960 -0.738570 -0.193922
v 0.808960 -0.719884 -0.193922
v 0.797541 -0.738570 -0.236539
v 0.797541 -0.719884 -0.236539
v 0.630922 -0.719884 -0.146217
v 0.619502 -0.738570 -0.188834
v 0.630922 -0.738570 -0.146217
v 0.619502 -0.719884 -0.188834
v -0.842891 -0.738570 0.185609
v -0.842891 -0.719884 0.185609
v -0.609604 -0.738570 0.119890
v -0.609604 -0.719884 0.119890
v -0.822770 -0.738570 0.260703
v -0.822770 -0.719884 0.260703
v -0.587878 -0.738570 0.200974
v -0.587878 -0.719884 0.200974
v -0.808960 -0.738570 0.193922
v -0.808960 -0.719884 0.193922
v -0.797540 -0.738570 0.236538
v -0.797540 -0.719884 0.236538
v -0.630921 -0.719884 0.146217
v -0.619502 -0.738570 0.188833
v -0.630921 -0.738570 0.146217
v -0.619502 -0.719884 0.188833
v -0.582188 -0.738570 -0.637161
v -0.582188 -0.719884 -0.637161
v -0.408630 -0.738570 -0.467988
v -0.408630 -0.719884 -0.467988
v -0.637161 -0.738570 -0.582188
v -0.637161 -0.719884 -0.582188
v -0.467988 -0.738570 -0.408630
v -0.467988 -0.719884 -0.408630
v -0.572421 -0.738570 -0.603619
v -0.572421 -0.719884 -0.603619
v -0.603619 -0.738570 -0.572421
v -0.603619 -0.719884 -0.572421
v -0.442088 -0.719884 -0.473286
v -0.473286 -0.738570 -0.442088
v -0.442088 -0.738570 -0.473286
v -0.473286 -0.719884 -0.442088
v 0.582188 -0.738570 0.637161
v 0.582188 -0.719884 0.637161
v 0.408630 -0.738570 0.467988
v 0.408630 -0.719884 0.467988
v 0.637161 -0.738570 0.582188
v 0.637161 -0.719884 0.582188
v 0.467988 -0.738570 0.408630
v 0.467988 -0.719884 0.408630
v 0.572421 -0.738570 0.603618
v 0.572421 -0.719884 0.603618
v 0.603619 -0.738570 0.572421
v 0.603619 -0.719884 0.572421
v 0.442088 -0.719884 0.473285
v 0.473286 -0.738570 0.442088
v 0.442088 -0.738570 0.473285
v 0.473286 -0.719884 0.442088
v 0.637161 -0.738570 -0.582188
v 0.637161 -0.719884 -0.582188
v 0.467988 -0.738570 -0.408630
v 0.467988 -0.719884 -0.408630
v 0.582188 -0.738570 -0.637161
v 0.582188 -0.719884 -0.637161
v 0.408630 -0.738570 -0.467988
v 0.408630 -0.719884 -0.467988
v 0.603619 -0.738570 -0.572421
v 0.603619 -0.719884 -0.572421
v 0.572421 -0.738570 -0.603619
v 0.572421 -0.719884 -0.603619
v 0.473286 -0.719884 -0.442088
v 0.442088 -0.738570 -0.473286
v 0.473286 -0.738570 -0.442088
v 0.442088 -0.719884 -0.473286
v -0.637161 -0.738570 0.582188
v -0.637161 -0.719884 0.582188
v -0.467988 -0.738570 0.408630
v -0.467988 -0.719884 0.408630
v -0.582188 -0.738570 0.637161
v -0.582188 -0.719884 0.637161
v -0.408630 -0.738570 0.467988
v -0.408630 -0.719884 0.467988
v -0.603619 -0.738570 0.572421
v -0.603619 -0.719884 0.572421
v -0.572421 -0.738570 0.603619
v -0.572421 -0.719884 0.603619
v -0.473285 -0.719884 0.442088
v -0.442088 -0.738570 0.473285
v -0.473285 -0.738570 0.442088
v -0.442088 -0.719884 0.473285
v -0.822770 -0.738570 -0.260704
v -0.822770 -0.719884 -0.260704
v -0.587878 -0.738570 -0.200975
v -0.587878 -0.719884 -0.200975
v -0.842891 -0.738570 -0.185609
v -0.842891 -0.719884 -0.185609
v -0.609604 -0.738570 -0.119890
v -0.609604 -0.719884 -0.119890
v -0.797541 -0.738570 -0.236539
v -0.797541 -0.719884 -0.236539
v -0.808960 -0.738570 -0.193922
v -0.808960 -0.719884 -0.193922
v -0.619502 -0.719884 -0.188834
v -0.630921 -0.738570 -0.146217
v -0.619502 -0.738570 -0.188834
v -0.630921 -0.719884 -0.146217
v 0.822771 -0.738570 0.260703
v 0.822771 -0.719884 0.260703
v 0.587878 -0.738570 0.200973
v 0.587878 -0.719884 0.200973
v 0.842892 -0.738570 0.185608
v 0.842892 -0.719884 0.185608
v 0.609605 -0.738570 0.119889
v 0.609605 -0.719884 0.119889
v 0.797541 -0.738570 0.236538
v 0.797541 -0.719884 0.236538
v 0.808960 -0.738570 0.193921
v 0.808960 -0.719884 0.193921
v 0.619503 -0.719884 0.188833
v 0.630922 -0.738570 0.146216
v 0.619503 -0.738570 0.188833
v 0.630922 -0.719884 0.146216
v 0.260703 -0.738570 -0.822771
v 0.260703 -0.719884 -0.822771
v 0.200974 -0.738570 -0.587879
v 0.200974 -0.719884 -0.587879
v 0.185609 -0.738570 -0.842892
v 0.185609 -0.719884 -0.842892
v 0.119890 -0.738570 -0.609605
v 0.119890 -0.719884 -0.609605
v 0.236538 -0.738570 -0.797541
v 0.236538 -0.719884 -0.797541
v 0.193922 -0.738570 -0.808960
v 0.193922 -0.719884 -0.808960
v 0.188833 -0.719884 -0.619503
v 0.146217 -0.738570 -0.630922
v 0.188833 -0.738570 -0.619503
v 0.146217 -0.719884 -0.630922
v -0.260703 -0.738570 0.822770
v -0.260703 -0.719884 0.822770
v -0.200974 -0.738570 0.587878
v -0.200974 -0.719884 0.587878
v -0.185609 -0.738570 0.842891
v -0.185609 -0.719884 0.842891
v -0.119890 -0.738570 0.609604
v -0.119890 -0.719884 0.609604
v -0.236538 -0.738570 0.797540
v -0.236538 -0.719884 0.797540
v -0.193921 -0.738570 0.808959
v -0.193921 -0.719884 0.808959
v -0.188833 -0.719884 0.619502
v -0.146216 -0.738570 0.630921
v -0.188833 -0.738570 0.619502
v -0.146216 -0.719884 0.630921
vn -0.0000 -0.0763 -0.9971
vn 0.2581 -0.0763 -0.9631
vn 0.0675 -0.0768 -0.9948
vn 0.1212 -0.0769 -0.9896
vn 0.1526 -0.0769 -0.9853
vn 0.1591 -0.0769 -0.9843
vn 0.1425 -0.0769 -0.9868
vn 0.1067 -0.0769 -0.9913
vn 0.0571 -0.0767 -0.9954
vn 0.4985 -0.0763 -0.8635
vn 0.7050 -0.0763 -0.7050
vn 0.6644 -0.0767 -0.7434
vn 0.6273 -0.0769 -0.7749
vn 0.5995 -0.0769 -0.7966
vn 0.5863 -0.0769 -0.8064
vn 0.5916 -0.0769 -0.8026
vn 0.6162 -0.0769 -0.7838
vn 0.6568 -0.0768 -0.7501
vn 0.8635 -0.0763 -0.4985
vn 0.7501 -0.0768 -0.6568
vn 0.7838 -0.0769 -0.6162
vn 0.8026 -0.0769 -0.5916
vn 0.8064 -0.0769 -0.5863
vn 0.7966 -0.0769 -0.5995
vn 0.7749 -0.0769 -0.6273
vn 0.7434 -0.0767 -0.6644
vn 0.9631 -0.0763 -0.2581
vn 0.9971 -0.0763 -0.0000
vn 0.9631 -0.0763 0.2581
vn 0.8635 -0.0763 0.4985
vn 0.7050 -0.0763 0.7050
vn 0.7434 -0.0767 0.6644
vn 0.7749 -0.0769 0.6273
vn 0.7966 -0.0769 0.5995
vn 0.8064 -0.0769 0.5863
vn 0.8026 -0.0769 0.5916
vn 0.7838 -0.0769 0.6162
vn 0.7501 -0.0768 0.6568
vn 0.4985 -0.0763 0.8635
vn 0.6568 -0.0768 0.7501
vn 0.6162 -0.0769 0.7838
vn 0.5916 -0.0769 0.8026
vn 0.5863 -0.0769 0.8064
vn 0.5995 -0.0769 0.7966
vn 0.6273 -0.0769 0.7749
vn 0.6644 -0.0767 0.7434
vn 0.2581 -0.0763 0.9631
vn -0.0000 -0.0763 0.9971
vn 0.0571 -0.0767 0.9954
vn 0.1067 -0.0769 0.9913
vn 0.1425 -0.0769 0.9868
vn 0.1591 -0.0769 0.9843
vn 0.1525 -0.0769 0.9853
vn 0.1212 -0.0769 0.9896
vn 0.0675 -0.0768 0.9948
vn -0.2581 -0.0763 0.9631
vn -0.0675 -0.0768 0.9948
vn -0.1212 -0.0769 0.9896
vn -0.1526 -0.0769 0.9853
vn -0.1591 -0.0769 0.9843
vn -0.1425 -0.0769 0.9868
vn -0.1067 -0.0769 0.9913
vn -0.0571 -0.0767 0.9954
vn -0.4985 -0.0763 0.8635
vn -0.7050 -0.0763 0.7050
vn -0.6644 -0.0767 0.7434
vn -0.6273 -0.0769 0.7749
vn -0.5995 -0.0769 0.7966
vn -0.5863 -0.0769 0.8064
vn -0.5916 -0.0769 0.8026
vn -0.6162 -0.0769 0.7838
vn -0.6568 -0.0768 0.7501
vn -0.8635 -0.0763 0.4985
vn -0.7501 -0.0768 0.6568
vn -0.7838 -0.0769 0.6162
vn -0.8026 -0.0769 0.5916
vn -0.8064 -0.0769 0.5863
vn -0.7966 -0.0769 0.5996
vn -0.7749 -0.0769 0.6273
vn -0.7434 -0.0767 0.6644
vn -0.9631 -0.0763 0.2581
vn -0.9971 -0.0763 -0.0000
vn -0.9631 -0.0763 -0.2581
vn -0.8635 -0.0763 -0.4985
vn -0.7050 -0.0763 -0.7050
vn -0.7434 -0.0767 -0.6644
vn -0.7749 -0.0769 -0.6273
vn -0.7966 -0.0769 -0.5995
vn -0.8064 -0.0769 -0.5863
vn -0.8026 -0.0769 -0.5916
vn -0.7838 -0.0769 -0.6162
vn -0.7501 -0.0768 -0.6568
vn -0.4985 -0.0763 -0.8635
vn -0.6568 -0.0768 -0.7501
vn -0.6162 -0.0769 -0.7838
vn -0.5916 -0.0769 -0.8026
vn -0.5863 -0.0769 -0.8064
vn -0.5995 -0.0769 -0.7966
vn -0.6273 -0.0769 -0.7749
vn -0.6644 -0.0767 -0.7434
vn -0.2581 -0.0763 -0.9631
vn -0.0571 -0.0767 -0.9954
vn -0.1067 -0.0769 -0.9913
vn -0.1425 -0.0769 -0.9868
vn -0.1591 -0.0769 -0.9843
vn -0.1525 -0.0769 -0.9853
vn -0.1212 -0.0769 -0.9896
vn -0.0675 -0.0768 -0.9948
vn -0.9659 -0.0000 0.2588
vn -1.0000 -0.0000 -0.0000
vn -0.0000 -1.0000 -0.0000
vn 0.7934 -0.0000 0.6088
vn 0.7071 -0.0000 0.7071
vn 0.8660 -0.0000 0.5000
vn 0.2588 -0.0000 -0.9659
vn 0.5000 -0.0000 -0.8660
vn -0.9659 -0.0000 -0.2588
vn 0.5000 -0.0000 0.8660
vn 0.6088 -0.0000 0.7934
vn 0.6088 -0.0000 -0.7934
vn 0.7071 -0.0000 -0.7071
vn -0.8660 -0.0000 -0.5000
vn 0.2588 -0.0000 0.9659
vn -0.0000 -0.0000 1.0000
vn -0.2588 -0.0000 0.9659
vn -0.1305 -0.0000 0.9914
vn 0.8660 -0.0000 -0.5000
vn 0.7934 -0.0000 -0.6088
vn -0.7071 -0.0000 -0.7071
vn -0.7934 -0.0000 -0.6088
vn 0.1305 -0.0000 0.9914
vn -0.5000 -0.0000 0.8660
vn 0.9659 -0.0000 -0.2588
vn -0.6088 -0.0000 -0.7934
vn -0.5000 -0.0000 -0.8660
vn -0.6088 -0.0000 0.7934
vn -0.7071 -0.0000 0.7071
vn 1.0000 -0.0000 -0.0000
vn -0.2588 -0.0000 -0.9659
vn -0.7934 -0.0000 0.6088
vn -0.8660 -0.0000 0.5000
vn 0.9659 -0.0000 0.2588
vn -0.1305 -0.0000 -0.9914
vn -0.0000 -0.0000 -1.0000
vn 0.1305 -0.0000 -0.9914
vn 0.6909 0.3603 0.6267
vn 0.7037 0.4210 0.5724
vn 0.5949 0.0945 0.7983
vn 0.5581 0.0207 0.8295
vn -0.4414 -0.7812 0.4414
vn -0.6737 -0.7190 0.1709
vn -0.6485 -0.7332 0.2047
vn 0.5839 0.8112 -0.0318
vn 0.5725 0.8183 -0.0520
vn 0.6945 0.6696 0.2633
vn 0.7034 0.6382 0.3130
vn -0.8886 -0.3098 -0.3384
vn -0.8882 -0.2462 -0.3880
vn -0.7983 0.0945 -0.5949
vn -0.8295 0.0207 -0.5581
vn -0.8377 -0.5329 -0.1196
vn -0.8170 -0.5721 -0.0718
vn -0.5724 0.4210 -0.7037
vn -0.6267 0.3603 -0.6909
vn 0.0318 0.8112 -0.5839
vn 0.0520 0.8183 -0.5725
vn 0.3457 0.8724 -0.3457
vn -0.2633 0.6696 -0.6945
vn -0.3130 0.6382 -0.7034
vn 0.0718 -0.5721 0.8170
vn 0.1196 -0.5329 0.8377
vn -0.1709 -0.7190 0.6737
vn -0.2047 -0.7332 0.6485
vn 0.3880 -0.2462 0.8882
vn 0.3384 -0.3098 0.8886
vn -0.6909 0.3603 -0.6267
vn -0.7037 0.4210 -0.5724
vn -0.5949 0.0945 -0.7983
vn -0.5581 0.0207 -0.8295
vn 0.4414 -0.7812 -0.4414
vn 0.6737 -0.7190 -0.1709
vn 0.6485 -0.7332 -0.2047
vn -0.5839 0.8112 0.0318
vn -0.5725 0.8183 0.0520
vn -0.6945 0.6696 -0.2633
vn -0.7034 0.6382 -0.3130
vn 0.8886 -0.3098 0.3384
vn 0.8882 -0.2462 0.3880
vn 0.7983 0.0945 0.5949
vn 0.8295 0.0207 0.5581
vn 0.8377 -0.5329 0.1196
vn 0.8170 -0.5721 0.0718
vn 0.5724 0.4210 0.7037
vn 0.6267 0.3603 0.6909
vn -0.0318 0.8112 0.5839
vn -0.0520 0.8183 0.5725
vn -0.3457 0.8724 0.3457
vn 0.2633 0.6696 0.6945
vn 0.3130 0.6382 0.7034
vn -0.0718 -0.5721 -0.8170
vn -0.1196 -0.5329 -0.8377
vn 0.1709 -0.7190 -0.6737
vn 0.2047 -0.7332 -0.6485
vn -0.3880 -0.2462 -0.8882
vn -0.3384 -0.3098 -0.8886
vn -0.9317 0.3603 0.0454
vn -0.9023 0.4210 0.0928
vn -0.9851 0.0945 -0.1438
vn -0.9812 0.0207 -0.1919
vn -0.0000 -0.7812 -0.6243
vn 0.3556 -0.7190 -0.5972
vn 0.3139 -0.7332 -0.6033
vn -0.3904 0.8112 0.4353
vn -0.3680 0.8183 0.4416
vn -0.6773 0.6696 0.3049
vn -0.7187 0.6382 0.2761
vn 0.9024 -0.2462 -0.3537
vn 0.9851 0.0945 -0.1438
vn 0.9812 0.0207 -0.1919
vn 0.8676 -0.3098 -0.3890
vn 0.6769 -0.5329 -0.5078
vn 0.6285 -0.5721 -0.5269
vn 0.9023 0.4210 0.0928
vn 0.9317 0.3603 0.0454
vn 0.3904 0.8112 0.4353
vn 0.3680 0.8183 0.4416
vn -0.0000 0.8724 0.4888
vn 0.6773 0.6696 0.3049
vn 0.7187 0.6382 0.2761
vn -0.6285 -0.5721 -0.5269
vn -0.6769 -0.5329 -0.5078
vn -0.3556 -0.7190 -0.5972
vn -0.3139 -0.7332 -0.6033
vn -0.9024 -0.2462 -0.3537
vn -0.8676 -0.3098 -0.3890
vn -0.6267 0.3603 0.6909
vn -0.5724 0.4210 0.7037
vn -0.7983 0.0945 0.5949
vn -0.8295 0.0207 0.5581
vn -0.4414 -0.7812 -0.4414
vn -0.1709 -0.7190 -0.6737
vn -0.2047 -0.7332 -0.6485
vn 0.0318 0.8112 0.5839
vn 0.0520 0.8183 0.5725
vn -0.2633 0.6696 0.6945
vn -0.3130 0.6382 0.7034
vn 0.3384 -0.3098 -0.8886
vn 0.3880 -0.2462 -0.8882
vn 0.5949 0.0945 -0.7983
vn 0.5581 0.0207 -0.8295
vn 0.1196 -0.5329 -0.8377
vn 0.0718 -0.5721 -0.8170
vn 0.7037 0.4210 -0.5724
vn 0.6909 0.3603 -0.6267
vn 0.5839 0.8112 0.0318
vn 0.5725 0.8183 0.0520
vn 0.3457 0.8724 0.3457
vn 0.6945 0.6696 -0.2633
vn 0.7034 0.6382 -0.3130
vn -0.8170 -0.5721 0.0718
vn -0.8377 -0.5329 0.1196
vn -0.6737 -0.7190 -0.1709
vn -0.6485 -0.7332 -0.2047
vn -0.8882 -0.2462 0.3880
vn -0.8886 -0.3098 0.3384
vn 0.9317 0.3603 -0.0454
vn 0.9023 0.4210 -0.0928
vn 0.9851 0.0945 0.1438
vn 0.9812 0.0207 0.1919
vn -0.0000 -0.7812 0.6243
vn -0.3556 -0.7190 0.5972
vn -0.3139 -0.7332 0.6033
vn 0.3904 0.8112 -0.4353
vn 0.3680 0.8183 -0.4416
vn 0.6773 0.6696 -0.3049
vn 0.7187 0.6382 -0.2761
vn -0.8676 -0.3098 0.3890
vn -0.9024 -0.2462 0.3537
vn -0.9851 0.0945 0.1438
vn -0.9812 0.0207 0.1919
vn -0.6769 -0.5329 0.5078
vn -0.6285 -0.5721 0.5269
vn -0.9023 0.4210 -0.0928
vn -0.9317 0.3603 -0.0454
vn -0.3904 0.8112 -0.4353
vn -0.3680 0.8183 -0.4416
vn -0.0000 0.8724 -0.4888
vn -0.6773 0.6696 -0.3049
vn -0.7187 0.6382 -0.2761
vn 0.6285 -0.5721 0.5269
vn 0.6769 -0.5329 0.5078
vn 0.3556 -0.7190 0.5972
vn 0.3139 -0.7332 0.6033
vn 0.9024 -0.2462 0.3537
vn 0.8676 -0.3098 0.3890
vn 0.6267 0.3603 -0.6909
vn 0.5724 0.4210 -0.7037
vn 0.7983 0.0945 -0.5949
vn 0.8295 0.0207 -0.5581
vn 0.4414 -0.7812 0.4414
vn 0.1709 -0.7190 0.6737
vn 0.2047 -0.7332 0.6485
vn -0.0520 0.8183 -0.5725
vn 0.2633 0.6696 -0.6945
vn 0.3130 0.6382 -0.7034
vn -0.0318 0.8112 -0.5839
vn -0.3384 -0.3098 0.8886
vn -0.3880 -0.2462 0.8882
vn -0.5949 0.0945 0.7983
vn -0.5581 0.0207 0.8295
vn -0.1196 -0.5329 0.8377
vn -0.0718 -0.5721 0.8170
vn -0.7037 0.4210 0.5724
vn -0.6909 0.3603 0.6267
vn -0.5725 0.8183 -0.0520
vn -0.3457 0.8724 -0.3457
vn -0.5839 0.8112 -0.0318
vn -0.6945 0.6696 0.2633
vn -0.7034 0.6382 0.3130
vn 0.8170 -0.5721 -0.0718
vn 0.8377 -0.5329 -0.1196
vn 0.6737 -0.7190 0.1709
vn 0.6485 -0.7332 0.2047
vn 0.8882 -0.2462 -0.3880
vn 0.8886 -0.3098 -0.3384
vn -0.6542 0.0060 -0.7563
vn -0.6933 -0.0707 -0.7171
vn -0.7934 -0.3711 -0.4825
vn -0.7805 -0.3085 -0.5438
vn 0.6218 0.7736 -0.1220
vn 0.6484 0.7566 -0.0839
vn 0.3922 0.8321 -0.3922
vn -0.7894 -0.5676 -0.2338
vn -0.7788 -0.6012 -0.1790
vn -0.6563 -0.7432 0.1296
vn -0.6698 -0.7350 0.1055
vn 0.7171 -0.0707 0.6933
vn 0.8307 0.2543 0.4953
vn 0.8370 0.3230 0.4418
vn 0.7563 0.0060 0.6542
vn 0.8051 0.5483 0.2263
vn 0.7861 0.5932 0.1735
vn 0.5438 -0.3085 0.7805
vn 0.4825 -0.3711 0.7934
vn -0.4272 -0.7969 0.4272
vn -0.1296 -0.7432 0.6563
vn -0.1055 -0.7350 0.6698
vn 0.2338 -0.5676 0.7894
vn 0.1790 -0.6012 0.7788
vn 0.0839 0.7566 -0.6484
vn -0.2263 0.5483 -0.8051
vn -0.1735 0.5932 -0.7861
vn 0.1220 0.7736 -0.6218
vn -0.4418 0.3230 -0.8370
vn -0.4953 0.2543 -0.8307
vn 0.6656 0.0100 0.7462
vn 0.7049 -0.0675 0.7061
vn 0.8017 -0.3702 0.4692
vn 0.7902 -0.3084 0.5296
vn -0.6184 0.7760 0.1241
vn -0.6452 0.7593 0.0853
vn -0.3919 0.8324 0.3919
vn 0.7926 -0.5684 0.2207
vn 0.7815 -0.6007 0.1687
vn 0.6558 -0.7428 -0.1345
vn 0.6686 -0.7351 -0.1122
vn -0.7462 0.0100 -0.6656
vn -0.7061 -0.0675 -0.7049
vn -0.8237 0.2605 -0.5036
vn -0.8307 0.3305 -0.4481
vn -0.7812 0.5998 -0.1733
vn -0.8002 0.5546 -0.2282
vn -0.4692 -0.3702 -0.8017
vn -0.5296 -0.3084 -0.7902
vn 0.4276 -0.7965 -0.4276
vn 0.1345 -0.7428 -0.6558
vn 0.1122 -0.7351 -0.6686
vn -0.2207 -0.5684 -0.7926
vn -0.1687 -0.6007 -0.7815
vn -0.1241 0.7760 0.6184
vn -0.0853 0.7593 0.6452
vn 0.2282 0.5546 0.8002
vn 0.1733 0.5998 0.7811
vn 0.4481 0.3305 0.8307
vn 0.5036 0.2605 0.8237
vn 0.9996 0.0253 0.0083
vn 0.9966 -0.0599 -0.0568
vn 0.8831 -0.3637 -0.2965
vn 0.9216 -0.3006 -0.2455
vn -0.3359 0.7773 0.5320
vn -0.3863 0.7607 0.5217
vn -0.0000 0.8266 0.5627
vn 0.6936 -0.5583 -0.4552
vn 0.6501 -0.5888 -0.4803
vn 0.3543 -0.7259 -0.5895
vn 0.3762 -0.7190 -0.5843
vn -0.9996 0.0253 0.0083
vn -0.9966 -0.0599 -0.0568
vn -0.9421 0.2747 0.1921
vn -0.9021 0.3531 0.2480
vn -0.6615 0.6159 0.4279
vn -0.7221 0.5675 0.3957
vn -0.9216 -0.3006 -0.2455
vn -0.8831 -0.3637 -0.2965
vn -0.0000 -0.7776 -0.6287
vn -0.3543 -0.7259 -0.5895
vn -0.3762 -0.7190 -0.5843
vn -0.6936 -0.5583 -0.4552
vn -0.6501 -0.5888 -0.4803
vn 0.3359 0.7773 0.5320
vn 0.3863 0.7607 0.5217
vn 0.7221 0.5675 0.3957
vn 0.6615 0.6159 0.4279
vn 0.9021 0.3531 0.2480
vn 0.9421 0.2747 0.1921
vn 0.7416 0.0125 -0.6707
vn 0.6999 -0.0665 -0.7112
vn 0.4600 -0.3693 -0.8075
vn 0.5213 -0.3071 -0.7962
vn 0.0894 0.7582 0.6459
vn 0.3947 0.8298 0.3947
vn 0.1290 0.7749 0.6188
vn 0.1598 -0.5986 -0.7850
vn -0.1406 -0.7395 -0.6583
vn -0.1189 -0.7319 -0.6709
vn 0.2114 -0.5666 -0.7964
vn -0.7112 -0.0665 0.6999
vn -0.5066 0.2626 0.8212
vn -0.4487 0.3341 0.8289
vn -0.6707 0.0125 0.7416
vn -0.2264 0.5561 0.7997
vn -0.1695 0.6019 0.7804
vn -0.7962 -0.3071 0.5213
vn -0.8075 -0.3693 0.4600
vn -0.4311 -0.7927 -0.4311
vn -0.6583 -0.7395 -0.1406
vn -0.6709 -0.7319 -0.1189
vn -0.7964 -0.5666 0.2114
vn -0.7850 -0.5986 0.1598
vn 0.6188 0.7749 0.1290
vn 0.6459 0.7582 0.0894
vn 0.7997 0.5561 -0.2264
vn 0.7804 0.6019 -0.1695
vn 0.8289 0.3341 -0.4487
vn 0.8212 0.2626 -0.5066
vn -0.9966 -0.0599 0.0568
vn -0.8831 -0.3637 0.2965
vn -0.9216 -0.3006 0.2455
vn -0.9996 0.0253 -0.0083
vn 0.3863 0.7607 -0.5217
vn -0.0000 0.8266 -0.5627
vn 0.3359 0.7773 -0.5320
vn -0.6936 -0.5583 0.4552
vn -0.6501 -0.5888 0.4803
vn -0.3543 -0.7259 0.5895
vn -0.3762 -0.7190 0.5843
vn 0.9966 -0.0599 0.0568
vn 0.9421 0.2747 -0.1921
vn 0.9021 0.3531 -0.2480
vn 0.9996 0.0253 -0.0083
vn 0.7221 0.5675 -0.3957
vn 0.6615 0.6159 -0.4279
vn 0.8831 -0.3637 0.2965
vn 0.9216 -0.3006 0.2455
vn -0.0000 -0.7776 0.6287
vn 0.3543 -0.7259 0.5895
vn 0.3762 -0.7190 0.5843
vn 0.6501 -0.5888 0.4803
vn 0.6936 -0.5583 0.4552
vn -0.3359 0.7773 -0.5320
vn -0.3863 0.7607 -0.5217
vn -0.7221 0.5675 -0.3957
vn -0.6615 0.6159 -0.4279
vn -0.9021 0.3531 -0.2480
vn -0.9421 0.2747 -0.1921
vn -0.7528 0.0081 0.6582
vn -0.7123 -0.0700 0.6984
vn -0.4748 -0.3704 0.7984
vn -0.5371 -0.3074 0.7856
vn -0.0878 0.7553 -0.6495
vn -0.3950 0.8294 -0.3950
vn -0.1266 0.7723 -0.6226
vn -0.2259 -0.5659 0.7929
vn -0.1712 -0.5992 0.7821
vn 0.1353 -0.7400 0.6589
vn 0.1115 -0.7319 0.6723
vn 0.6582 0.0081 -0.7528
vn 0.6984 -0.0700 -0.7123
vn 0.4973 0.2557 -0.8290
vn 0.4418 0.3258 -0.8358
vn 0.1698 0.5946 -0.7859
vn 0.2243 0.5491 -0.8051
vn 0.7984 -0.3704 -0.4748
vn 0.7856 -0.3074 -0.5371
vn 0.4306 -0.7931 0.4306
vn 0.6589 -0.7400 0.1353
vn 0.6723 -0.7319 0.1115
vn 0.7929 -0.5659 -0.2259
vn 0.7821 -0.5992 -0.1712
vn -0.6495 0.7553 -0.0878
vn -0.8051 0.5491 0.2243
vn -0.7859 0.5946 0.1698
vn -0.6226 0.7723 -0.1266
vn -0.8358 0.3258 0.4418
vn -0.8290 0.2557 0.4973
vn 0.6293 -0.0000 -0.7772
vn -0.7222 -0.0000 0.6917
vn -0.0000 1.0000 -0.0000
vn 0.9713 -0.0000 0.2379
vn -0.9336 -0.0000 -0.3584
vn -0.6293 -0.0000 0.7772
vn 0.7222 -0.0000 -0.6917
vn -0.9713 -0.0000 -0.2379
vn 0.9336 -0.0000 0.3584
vn 0.7772 -0.0000 0.6293
vn -0.6917 -0.0000 -0.7222
vn -0.2379 -0.0000 0.9713
vn 0.3584 -0.0000 -0.9336
vn -0.7772 -0.0000 -0.6293
vn 0.6917 -0.0000 0.7222
vn 0.2379 -0.0000 -0.9713
vn -0.3584 -0.0000 0.9336
vn 0.1564 -0.0000 -0.9877
vn -0.2796 -0.0000 0.9601
vn 0.9601 -0.0000 -0.2796
vn -0.9877 -0.0000 0.1564
vn -0.1564 -0.0000 0.9877
vn 0.2796 -0.0000 -0.9601
vn -0.9601 -0.0000 0.2796
vn 0.9877 -0.0000 -0.1564
vn 0.9877 -0.0000 0.1564
vn -0.9601 -0.0000 -0.2796
vn 0.2796 -0.0000 0.9601
vn -0.1564 -0.0000 -0.9877
vn -0.9877 -0.0000 -0.1564
vn 0.9601 -0.0000 0.2796
vn -0.2796 -0.0000 -0.9601
vn 0.1564 -0.0000 0.9877
vn -0.3584 -0.0000 -0.9336
vn 0.2379 -0.0000 0.9713
vn 0.6917 -0.0000 -0.7222
vn -0.7772 -0.0000 0.6293
vn 0.3584 -0.0000 0.9336
vn -0.2379 -0.0000 -0.9713
vn -0.6917 -0.0000 0.7222
vn 0.7772 -0.0000 -0.6293
vn 0.9336 -0.0000 -0.3584
vn -0.9713 -0.0000 0.2379
vn 0.7222 -0.0000 0.6917
vn -0.6293 -0.0000 -0.7772
vn -0.9336 -0.0000 0.3584
vn 0.9713 -0.0000 -0.2379
vn -0.7222 -0.0000 -0.6917
vn 0.6293 -0.0000 0.7772
vt 0.109950 0.501424
vt 0.106281 0.528702
vt 0.034485 0.518422
vt 0.037884 0.492622
vt 0.057237 0.494989
vt 0.058558 0.502036
vt 0.062478 0.508030
vt 0.068247 0.512040
vt 0.074828 0.513605
vt 0.081236 0.512723
vt 0.086660 0.509687
vt 0.090504 0.505002
vt 0.092499 0.499292
vt 0.102101 0.555957
vt 0.030524 0.544250
vt 0.046242 0.573623
vt 0.026027 0.569885
vt 0.097448 0.583082
vt 0.080455 0.579941
vt 0.080261 0.574020
vt 0.078043 0.568527
vt 0.073864 0.564102
vt 0.068135 0.561400
vt 0.061528 0.560931
vt 0.054964 0.562985
vt 0.049544 0.567428
vt 0.092113 0.610102
vt 0.021049 0.595442
vt 0.047112 0.580591
vt 0.050586 0.586683
vt 0.055985 0.590947
vt 0.062326 0.592870
vt 0.068642 0.592393
vt 0.074126 0.589751
vt 0.078164 0.585403
vt 0.086271 0.637062
vt 0.015513 0.620990
vt 0.079893 0.663900
vt 0.009470 0.646423
vt 0.009470 0.026946
vt 0.079852 0.009470
vt 0.086229 0.036292
vt 0.015513 0.052363
vt 0.092071 0.063237
vt 0.021049 0.077896
vt 0.046226 0.099697
vt 0.026021 0.103437
vt 0.097408 0.090242
vt 0.080424 0.093385
vt 0.078132 0.087926
vt 0.074096 0.083580
vt 0.068614 0.080940
vt 0.062301 0.080463
vt 0.055964 0.082385
vt 0.050568 0.086648
vt 0.047095 0.092733
vt 0.102065 0.117354
vt 0.030515 0.129067
vt 0.049528 0.105889
vt 0.054946 0.110335
vt 0.061508 0.112387
vt 0.068112 0.111918
vt 0.073839 0.109217
vt 0.078016 0.104794
vt 0.080232 0.099303
vt 0.106247 0.144599
vt 0.034478 0.154885
vt 0.057222 0.178303
vt 0.037875 0.180673
vt 0.109921 0.171868
vt 0.092474 0.174003
vt 0.090479 0.168295
vt 0.086635 0.163612
vt 0.081212 0.160577
vt 0.074806 0.159696
vt 0.068226 0.161261
vt 0.062460 0.165270
vt 0.058541 0.171258
vt 0.112912 0.199201
vt 0.040798 0.206518
vt 0.060201 0.184821
vt 0.065448 0.189693
vt 0.072007 0.192196
vt 0.078768 0.192131
vt 0.084774 0.189735
vt 0.089307 0.185485
vt 0.091909 0.180025
vt 0.115420 0.226644
vt 0.043175 0.232523
vt 0.065493 0.257221
vt 0.044993 0.258468
vt 0.117421 0.254085
vt 0.100189 0.255131
vt 0.098581 0.249437
vt 0.095107 0.244633
vt 0.089990 0.241345
vt 0.083785 0.240101
vt 0.077264 0.241236
vt 0.071391 0.244806
vt 0.067205 0.250419
vt 0.118734 0.281550
vt 0.046326 0.284441
vt 0.068014 0.263767
vt 0.072848 0.268838
vt 0.079107 0.271675
vt 0.085715 0.272015
vt 0.091726 0.270034
vt 0.096408 0.266156
vt 0.099276 0.260979
vt 0.119559 0.309088
vt 0.047107 0.310536
vt 0.119836 0.336637
vt 0.047369 0.336642
vt 0.119564 0.364186
vt 0.047111 0.362748
vt 0.118743 0.391724
vt 0.046334 0.388844
vt 0.045001 0.414815
vt 0.117436 0.419190
vt 0.100202 0.418149
vt 0.099287 0.412301
vt 0.096417 0.407124
vt 0.091733 0.403245
vt 0.085722 0.401264
vt 0.079113 0.401605
vt 0.072854 0.404442
vt 0.068022 0.409509
vt 0.065503 0.416056
vt 0.115441 0.446636
vt 0.043182 0.440766
vt 0.067217 0.422859
vt 0.071406 0.428476
vt 0.077279 0.432047
vt 0.083801 0.433181
vt 0.090007 0.431937
vt 0.095123 0.428649
vt 0.098596 0.423844
vt 0.112936 0.474084
vt 0.040808 0.466776
vt 0.091931 0.493269
vt 0.089327 0.487808
vt 0.084792 0.483557
vt 0.078785 0.481160
vt 0.072023 0.481095
vt 0.065461 0.483600
vt 0.060215 0.488468
vt 0.211736 0.035352
vt 0.211543 0.010008
vt 0.282141 0.009470
vt 0.282335 0.034813
vt 0.538173 0.490906
vt 0.520564 0.473350
vt 0.525812 0.466312
vt 0.545259 0.485428
vt 0.550747 0.512452
vt 0.558928 0.509126
vt 0.557236 0.536452
vt 0.565923 0.535361
vt 0.557404 0.561193
vt 0.565923 0.562260
vt 0.551139 0.585128
vt 0.559286 0.588326
vt 0.538941 0.606775
vt 0.546043 0.612007
vt 0.521474 0.624547
vt 0.526987 0.631576
vt 0.500180 0.637243
vt 0.503552 0.645294
vt 0.476678 0.643956
vt 0.477833 0.652457
vt 0.452550 0.644283
vt 0.451530 0.652607
vt 0.429275 0.638170
vt 0.426093 0.646091
vt 0.408370 0.625999
vt 0.403127 0.632856
vt 0.391368 0.608505
vt 0.384296 0.613774
vt 0.379395 0.586998
vt 0.371235 0.590122
vt 0.373467 0.563026
vt 0.364825 0.563972
vt 0.373552 0.538208
vt 0.365090 0.537297
vt 0.378681 0.514255
vt 0.370555 0.511403
vt 0.389974 0.492578
vt 0.382821 0.487620
vt 0.406747 0.474644
vt 0.401160 0.467788
vt 0.427710 0.461823
vt 0.424295 0.453812
vt 0.451228 0.455143
vt 0.450081 0.446591
vt 0.475576 0.454900
vt 0.476622 0.446490
vt 0.499171 0.461130
vt 0.502367 0.453078
vt 0.271387 0.244246
vt 0.272895 0.237084
vt 0.283428 0.237073
vt 0.283287 0.262326
vt 0.212700 0.262326
vt 0.212623 0.237169
vt 0.227806 0.237152
vt 0.230694 0.245699
vt 0.236764 0.252484
vt 0.244799 0.256464
vt 0.253363 0.257266
vt 0.261216 0.255108
vt 0.267431 0.250527
vt 0.212574 0.439329
vt 0.212639 0.413995
vt 0.283210 0.414175
vt 0.283146 0.439509
vt 0.211543 0.615982
vt 0.211736 0.590641
vt 0.282328 0.591178
vt 0.282135 0.616519
vt 0.212636 0.212009
vt 0.283216 0.211830
vt 0.271366 0.229925
vt 0.267394 0.223667
vt 0.261168 0.219101
vt 0.253310 0.216964
vt 0.244748 0.217790
vt 0.236722 0.221790
vt 0.230674 0.228598
vt 0.271363 0.396082
vt 0.272893 0.388923
vt 0.283425 0.388935
vt 0.212625 0.388841
vt 0.227806 0.388862
vt 0.230670 0.397415
vt 0.236719 0.404216
vt 0.244745 0.408215
vt 0.253305 0.409041
vt 0.261164 0.406904
vt 0.267390 0.402339
vt 0.211928 0.565300
vt 0.282521 0.565837
vt 0.212572 0.186673
vt 0.283152 0.186494
vt 0.227614 0.161453
vt 0.212432 0.161514
vt 0.212381 0.136356
vt 0.282967 0.135998
vt 0.283236 0.161250
vt 0.272703 0.161293
vt 0.271159 0.154138
vt 0.267171 0.147878
vt 0.260933 0.143329
vt 0.253069 0.141210
vt 0.244509 0.142056
vt 0.236494 0.146076
vt 0.230459 0.152892
vt 0.212700 0.363682
vt 0.283286 0.363682
vt 0.271386 0.381761
vt 0.267431 0.375480
vt 0.261216 0.370900
vt 0.253365 0.368741
vt 0.244800 0.369544
vt 0.236766 0.373523
vt 0.230698 0.380316
vt 0.272320 0.540513
vt 0.282853 0.540582
vt 0.212044 0.540137
vt 0.227227 0.540232
vt 0.230055 0.548801
vt 0.236071 0.555641
vt 0.244076 0.559681
vt 0.252634 0.560550
vt 0.260503 0.558451
vt 0.266752 0.553915
vt 0.270757 0.547664
vt 0.271210 0.168460
vt 0.230526 0.169992
vt 0.236608 0.176770
vt 0.244654 0.180729
vt 0.253220 0.181511
vt 0.261067 0.179335
vt 0.267270 0.174737
vt 0.212252 0.111018
vt 0.282838 0.110660
vt 0.212700 0.338343
vt 0.283286 0.338343
vt 0.230158 0.531699
vt 0.212250 0.514979
vt 0.282833 0.515338
vt 0.270845 0.533342
vt 0.266922 0.527054
vt 0.260729 0.522442
vt 0.252886 0.520245
vt 0.244317 0.521005
vt 0.236259 0.524944
vt 0.270850 0.092653
vt 0.272326 0.085481
vt 0.282860 0.085413
vt 0.212046 0.085859
vt 0.227230 0.085765
vt 0.230160 0.094297
vt 0.236263 0.101053
vt 0.244320 0.104992
vt 0.252889 0.105752
vt 0.260733 0.103555
vt 0.266925 0.098942
vt 0.212700 0.313004
vt 0.283286 0.313004
vt 0.212378 0.489642
vt 0.282962 0.490000
vt 0.230058 0.077195
vt 0.211929 0.060695
vt 0.282528 0.060156
vt 0.270764 0.078330
vt 0.266760 0.072078
vt 0.260509 0.067544
vt 0.252639 0.065445
vt 0.244080 0.066313
vt 0.236074 0.070354
vt 0.212700 0.287665
vt 0.283287 0.287665
vt 0.271153 0.471860
vt 0.272698 0.464706
vt 0.283230 0.464748
vt 0.212431 0.464482
vt 0.227612 0.464539
vt 0.230461 0.473099
vt 0.236493 0.479923
vt 0.244507 0.483943
vt 0.253066 0.484789
vt 0.260929 0.482671
vt 0.267165 0.478120
vt 0.271206 0.457540
vt 0.267268 0.451263
vt 0.261064 0.446667
vt 0.253216 0.444490
vt 0.244651 0.445272
vt 0.236605 0.449231
vt 0.230521 0.456000
vt 0.393904 0.606597
vt 0.410294 0.623504
vt 0.429006 0.464725
vt 0.408774 0.477096
vt 0.548153 0.583943
vt 0.554217 0.560816
vt 0.430449 0.635273
vt 0.392580 0.494398
vt 0.554055 0.536907
vt 0.452907 0.641178
vt 0.381667 0.515306
vt 0.547777 0.513718
vt 0.476196 0.640849
vt 0.376750 0.538522
vt 0.535631 0.492894
vt 0.518633 0.475915
vt 0.497985 0.464078
vt 0.498890 0.634323
vt 0.376644 0.562632
vt 0.475205 0.458041
vt 0.519467 0.622031
vt 0.382363 0.585811
vt 0.451700 0.458268
vt 0.536349 0.604853
vt 0.389192 0.690601
vt 0.404652 0.694380
vt 0.402391 0.700492
vt 0.383486 0.696383
vt 0.364825 0.726106
vt 0.398189 0.726106
vt 0.398446 0.732618
vt 0.367387 0.734799
vt 0.398039 0.678427
vt 0.409812 0.682412
vt 0.407192 0.688378
vt 0.394156 0.684731
vt 0.377507 0.749668
vt 0.400558 0.745468
vt 0.402391 0.751721
vt 0.383486 0.755829
vt 0.399234 0.739087
vt 0.371880 0.742715
vt 0.404652 0.757833
vt 0.389192 0.761611
vt 0.398039 0.773786
vt 0.409812 0.769801
vt 0.412360 0.775799
vt 0.400649 0.780667
vt 0.407192 0.763834
vt 0.394156 0.767482
vt 0.371880 0.709498
vt 0.399234 0.713126
vt 0.398446 0.719595
vt 0.367387 0.717413
vt 0.400558 0.706745
vt 0.377507 0.702545
vt 0.400649 0.671546
vt 0.412360 0.676414
vt 0.520942 0.761611
vt 0.505482 0.757833
vt 0.507743 0.751721
vt 0.526648 0.755829
vt 0.545309 0.726106
vt 0.511945 0.726106
vt 0.511687 0.719595
vt 0.542747 0.717413
vt 0.512095 0.773786
vt 0.500321 0.769801
vt 0.502942 0.763834
vt 0.515978 0.767482
vt 0.532627 0.702545
vt 0.509576 0.706745
vt 0.507743 0.700492
vt 0.526648 0.696383
vt 0.510900 0.713126
vt 0.538254 0.709498
vt 0.505482 0.694380
vt 0.520942 0.690601
vt 0.512095 0.678427
vt 0.500321 0.682412
vt 0.497774 0.676414
vt 0.509485 0.671546
vt 0.502942 0.688378
vt 0.515978 0.684731
vt 0.538254 0.742715
vt 0.510900 0.739087
vt 0.511687 0.732618
vt 0.542747 0.734799
vt 0.509576 0.745468
vt 0.532627 0.749668
vt 0.509485 0.780667
vt 0.497774 0.775799
vt 0.033836 0.701895
vt 0.049297 0.705673
vt 0.047036 0.711785
vt 0.028131 0.707677
vt 0.009470 0.737400
vt 0.042833 0.737400
vt 0.043091 0.743911
vt 0.012032 0.746093
vt 0.042683 0.689721
vt 0.054457 0.693706
vt 0.051836 0.699672
vt 0.038801 0.696025
vt 0.045202 0.756761
vt 0.047036 0.763015
vt 0.028131 0.767123
vt 0.022152 0.760961
vt 0.043879 0.750380
vt 0.016525 0.754008
vt 0.049297 0.769126
vt 0.033836 0.772905
vt 0.042683 0.785079
vt 0.054457 0.781094
vt 0.057005 0.787092
vt 0.045294 0.791960
vt 0.051836 0.775128
vt 0.038801 0.778775
vt 0.016525 0.720792
vt 0.043879 0.724419
vt 0.043091 0.730888
vt 0.012031 0.728707
vt 0.045202 0.718039
vt 0.022152 0.713839
vt 0.045294 0.682840
vt 0.057005 0.687707
vt 0.454468 0.761611
vt 0.439007 0.757833
vt 0.441268 0.751721
vt 0.460173 0.755829
vt 0.478834 0.726106
vt 0.445471 0.726106
vt 0.445213 0.719595
vt 0.476273 0.717413
vt 0.445621 0.773786
vt 0.433847 0.769801
vt 0.436468 0.763834
vt 0.449503 0.767482
vt 0.466152 0.702545
vt 0.443102 0.706745
vt 0.441268 0.700492
vt 0.460173 0.696383
vt 0.444425 0.713126
vt 0.471779 0.709498
vt 0.439007 0.694380
vt 0.454468 0.690601
vt 0.445621 0.678427
vt 0.433847 0.682412
vt 0.431299 0.676414
vt 0.443011 0.671546
vt 0.436468 0.688378
vt 0.449503 0.684731
vt 0.471779 0.742715
vt 0.444425 0.739087
vt 0.445213 0.732618
vt 0.476273 0.734799
vt 0.443102 0.745468
vt 0.466152 0.749668
vt 0.443011 0.780667
vt 0.431299 0.775799
vt 0.793810 0.099535
vt 0.778349 0.095756
vt 0.780611 0.089645
vt 0.799515 0.093753
vt 0.784813 0.064030
vt 0.784555 0.057518
vt 0.815615 0.055337
vt 0.818177 0.064030
vt 0.784963 0.111709
vt 0.773189 0.107724
vt 0.775810 0.101758
vt 0.788846 0.105405
vt 0.805495 0.040469
vt 0.782444 0.044669
vt 0.780611 0.038415
vt 0.799515 0.034307
vt 0.783768 0.051049
vt 0.811121 0.047422
vt 0.778349 0.032303
vt 0.793810 0.028525
vt 0.784963 0.016351
vt 0.773189 0.020336
vt 0.770642 0.014338
vt 0.782353 0.009470
vt 0.775810 0.026302
vt 0.788846 0.022655
vt 0.811121 0.080638
vt 0.783768 0.077010
vt 0.784555 0.070541
vt 0.815615 0.072723
vt 0.782444 0.083391
vt 0.805495 0.087591
vt 0.770642 0.113722
vt 0.782353 0.118590
vt 0.818561 0.317932
vt 0.803101 0.314154
vt 0.805362 0.308042
vt 0.824267 0.312150
vt 0.809564 0.282427
vt 0.809307 0.275916
vt 0.840366 0.273734
vt 0.842928 0.282427
vt 0.797940 0.326122
vt 0.800561 0.320155
vt 0.813597 0.323803
vt 0.809714 0.330107
vt 0.830246 0.258866
vt 0.807195 0.263066
vt 0.805362 0.256813
vt 0.824267 0.252705
vt 0.808519 0.269447
vt 0.835873 0.265819
vt 0.803101 0.250701
vt 0.818561 0.246923
vt 0.797940 0.238733
vt 0.795393 0.232735
vt 0.807104 0.227867
vt 0.809714 0.234748
vt 0.800561 0.244700
vt 0.813597 0.241052
vt 0.835873 0.299036
vt 0.808519 0.295408
vt 0.809307 0.288939
vt 0.840366 0.291121
vt 0.807195 0.301789
vt 0.830246 0.305989
vt 0.807104 0.336988
vt 0.795393 0.332120
vt 0.398207 0.822334
vt 0.370451 0.823682
vt 0.368488 0.817668
vt 0.395032 0.816873
vt 0.408007 0.853891
vt 0.374662 0.852695
vt 0.374975 0.847077
vt 0.409728 0.847077
vt 0.392625 0.811305
vt 0.366701 0.811804
vt 0.365405 0.806109
vt 0.391283 0.805534
vt 0.370451 0.870471
vt 0.372282 0.864416
vt 0.401748 0.866238
vt 0.398207 0.871819
vt 0.373739 0.858462
vt 0.405184 0.860300
vt 0.395032 0.877281
vt 0.368488 0.876486
vt 0.391159 0.894547
vt 0.364825 0.893641
vt 0.365405 0.888044
vt 0.391283 0.888619
vt 0.392625 0.882849
vt 0.366701 0.882349
vt 0.374662 0.841458
vt 0.373739 0.835691
vt 0.405184 0.833853
vt 0.408007 0.840263
vt 0.401748 0.827916
vt 0.372282 0.829737
vt 0.364825 0.800512
vt 0.391159 0.799606
vt 0.870045 0.032324
vt 0.842296 0.033362
vt 0.840415 0.027315
vt 0.866953 0.026815
vt 0.879771 0.063924
vt 0.846427 0.062891
vt 0.846740 0.057110
vt 0.881493 0.057110
vt 0.864660 0.021199
vt 0.838737 0.021370
vt 0.837567 0.015533
vt 0.863449 0.015399
vt 0.870045 0.081897
vt 0.842296 0.080859
vt 0.844077 0.074783
vt 0.873537 0.076285
vt 0.876953 0.070336
vt 0.845510 0.068773
vt 0.840415 0.086905
vt 0.866953 0.087406
vt 0.863464 0.104751
vt 0.837116 0.104459
vt 0.837567 0.098688
vt 0.863449 0.098821
vt 0.864660 0.093022
vt 0.838737 0.092851
vt 0.879771 0.050296
vt 0.846427 0.051330
vt 0.845510 0.045447
vt 0.876953 0.043885
vt 0.873537 0.037936
vt 0.844077 0.039438
vt 0.837116 0.009761
vt 0.863464 0.009470
vt 0.816262 0.523202
vt 0.846181 0.523471
vt 0.848015 0.529826
vt 0.819199 0.528949
vt 0.806398 0.490874
vt 0.841744 0.491368
vt 0.841386 0.497833
vt 0.804624 0.497833
vt 0.821192 0.534817
vt 0.849485 0.536234
vt 0.850285 0.542701
vt 0.821980 0.540819
vt 0.816262 0.472464
vt 0.846181 0.472195
vt 0.844330 0.478546
vt 0.812789 0.478254
vt 0.809305 0.484335
vt 0.842772 0.484933
vt 0.819199 0.466717
vt 0.848015 0.465840
vt 0.821449 0.448811
vt 0.850219 0.446490
vt 0.850285 0.452965
vt 0.821980 0.454847
vt 0.821192 0.460849
vt 0.849485 0.459432
vt 0.806398 0.504792
vt 0.841744 0.504298
vt 0.842772 0.510733
vt 0.809305 0.511331
vt 0.812789 0.517412
vt 0.844330 0.517120
vt 0.850219 0.549176
vt 0.821449 0.546855
vt 0.816114 0.762194
vt 0.843971 0.761329
vt 0.845841 0.767380
vt 0.819191 0.767712
vt 0.839810 0.731568
vt 0.839491 0.737428
vt 0.804624 0.737428
vt 0.806352 0.730615
vt 0.847487 0.773358
vt 0.848608 0.779260
vt 0.822606 0.779152
vt 0.821449 0.773342
vt 0.843971 0.713527
vt 0.842186 0.719603
vt 0.812617 0.718270
vt 0.816114 0.712661
vt 0.840740 0.725633
vt 0.809186 0.724211
vt 0.819191 0.707144
vt 0.845841 0.707476
vt 0.848994 0.689740
vt 0.848607 0.695595
vt 0.822606 0.695704
vt 0.822526 0.689774
vt 0.821449 0.701514
vt 0.847487 0.701498
vt 0.806352 0.744240
vt 0.839810 0.743288
vt 0.840740 0.749223
vt 0.809186 0.750645
vt 0.812617 0.756585
vt 0.842186 0.755253
vt 0.848994 0.785116
vt 0.822526 0.785081
vt 0.808728 0.593820
vt 0.806894 0.587465
vt 0.835711 0.588342
vt 0.838647 0.594089
vt 0.813166 0.625923
vt 0.813523 0.619458
vt 0.850285 0.619458
vt 0.848511 0.626417
vt 0.833717 0.582474
vt 0.805424 0.581057
vt 0.804624 0.574590
vt 0.832929 0.576472
vt 0.808728 0.645096
vt 0.810580 0.638745
vt 0.842120 0.639037
vt 0.838647 0.644827
vt 0.812137 0.632358
vt 0.845604 0.632956
vt 0.806894 0.651451
vt 0.835711 0.650574
vt 0.804690 0.670801
vt 0.804624 0.664326
vt 0.832929 0.662444
vt 0.833460 0.668480
vt 0.805424 0.657859
vt 0.833717 0.656442
vt 0.848511 0.612499
vt 0.813166 0.612993
vt 0.812137 0.606558
vt 0.845604 0.605960
vt 0.842120 0.599879
vt 0.810580 0.600171
vt 0.804690 0.568115
vt 0.833460 0.570436
vt 0.312493 0.871791
vt 0.340359 0.870580
vt 0.342320 0.876595
vt 0.315664 0.877255
vt 0.336108 0.841394
vt 0.335789 0.847074
vt 0.300923 0.847074
vt 0.302651 0.840261
vt 0.318048 0.882833
vt 0.344089 0.882481
vt 0.345352 0.888226
vt 0.319353 0.888612
vt 0.312493 0.822356
vt 0.340359 0.823567
vt 0.338517 0.829620
vt 0.308943 0.827931
vt 0.305489 0.833858
vt 0.337045 0.835587
vt 0.342320 0.817552
vt 0.315663 0.816892
vt 0.345886 0.800258
vt 0.345352 0.805921
vt 0.319353 0.805535
vt 0.319426 0.799606
vt 0.318048 0.811314
vt 0.344089 0.811666
vt 0.336108 0.852753
vt 0.337045 0.858560
vt 0.305489 0.860289
vt 0.302651 0.853886
vt 0.308943 0.866216
vt 0.338517 0.864527
vt 0.345886 0.893889
vt 0.319426 0.894541
vt 0.533276 0.929779
vt 0.531082 0.930105
vt 0.531038 0.926575
vt 0.532452 0.926462
vt 0.538580 0.951362
vt 0.540435 0.950821
vt 0.541773 0.953657
vt 0.540256 0.954373
vt 0.533799 0.951615
vt 0.533182 0.955043
vt 0.527527 0.950584
vt 0.531786 0.951584
vt 0.531687 0.954857
vt 0.525425 0.952611
vt 0.526491 0.932453
vt 0.538364 0.931071
vt 0.540242 0.931705
vt 0.540509 0.928346
vt 0.541773 0.929222
vt 0.523212 0.930932
vt 0.950746 0.715049
vt 0.952818 0.714953
vt 0.952940 0.718105
vt 0.951530 0.718327
vt 0.946008 0.694223
vt 0.944004 0.694733
vt 0.942670 0.691765
vt 0.944184 0.691009
vt 0.950982 0.693272
vt 0.951673 0.689740
vt 0.957647 0.695108
vt 0.953088 0.693384
vt 0.953176 0.689908
vt 0.960393 0.692916
vt 0.957150 0.713461
vt 0.945833 0.714670
vt 0.944047 0.714074
vt 0.943850 0.717149
vt 0.942670 0.716344
vt 0.959579 0.714907
vt 0.953207 0.449891
vt 0.951091 0.450056
vt 0.950870 0.446736
vt 0.952346 0.446490
vt 0.958262 0.471066
vt 0.960205 0.470553
vt 0.961484 0.473283
vt 0.960068 0.474017
vt 0.953427 0.471485
vt 0.952868 0.474959
vt 0.947075 0.470425
vt 0.951405 0.471456
vt 0.951334 0.474790
vt 0.944924 0.472496
vt 0.946367 0.451859
vt 0.958243 0.450234
vt 0.960076 0.450836
vt 0.960266 0.447669
vt 0.961484 0.448490
vt 0.943705 0.450377
vt 0.952175 0.621175
vt 0.954291 0.621010
vt 0.954512 0.624330
vt 0.953035 0.624575
vt 0.947119 0.599999
vt 0.945176 0.600513
vt 0.943897 0.597782
vt 0.945314 0.597049
vt 0.951955 0.599581
vt 0.952514 0.596107
vt 0.958306 0.600640
vt 0.953977 0.599609
vt 0.954047 0.596276
vt 0.960458 0.598570
vt 0.959014 0.619207
vt 0.947138 0.620832
vt 0.945305 0.620229
vt 0.945116 0.623397
vt 0.943897 0.622575
vt 0.961677 0.620689
vt 0.944801 0.253109
vt 0.946910 0.252958
vt 0.947109 0.256254
vt 0.945642 0.256489
vt 0.939904 0.232247
vt 0.937912 0.232750
vt 0.936604 0.229812
vt 0.938108 0.229069
vt 0.944820 0.231282
vt 0.945475 0.227867
vt 0.951044 0.232829
vt 0.946886 0.231347
vt 0.946918 0.228033
vt 0.953576 0.230806
vt 0.951603 0.251204
vt 0.939810 0.252762
vt 0.938002 0.252163
vt 0.937805 0.255293
vt 0.936604 0.254479
vt 0.954233 0.252690
vt 0.950667 0.762566
vt 0.952728 0.762399
vt 0.952720 0.765684
vt 0.951279 0.765790
vt 0.946071 0.741687
vt 0.944102 0.742225
vt 0.942670 0.739113
vt 0.944334 0.738347
vt 0.951099 0.740794
vt 0.951846 0.737266
vt 0.957746 0.742702
vt 0.953206 0.740930
vt 0.953340 0.737456
vt 0.960513 0.740544
vt 0.957147 0.760982
vt 0.945815 0.762059
vt 0.944057 0.761446
vt 0.943807 0.764444
vt 0.942670 0.763631
vt 0.959634 0.762539
vt 0.374893 0.916774
vt 0.372695 0.917104
vt 0.372657 0.913596
vt 0.374050 0.913487
vt 0.379983 0.938372
vt 0.381854 0.937822
vt 0.383223 0.940665
vt 0.381702 0.941397
vt 0.375177 0.938696
vt 0.374564 0.942136
vt 0.368899 0.937620
vt 0.373162 0.938654
vt 0.373055 0.941946
vt 0.366769 0.939645
vt 0.368085 0.919430
vt 0.379858 0.917956
vt 0.381725 0.918581
vt 0.381965 0.915260
vt 0.383223 0.916121
vt 0.364825 0.917893
vt 0.769170 0.911377
vt 0.771370 0.911042
vt 0.771423 0.914576
vt 0.770008 0.914693
vt 0.763914 0.889974
vt 0.762006 0.890478
vt 0.760703 0.887436
vt 0.762330 0.886739
vt 0.768687 0.889293
vt 0.769541 0.886015
vt 0.774871 0.890495
vt 0.770689 0.889413
vt 0.770949 0.886273
vt 0.776936 0.888601
vt 0.775963 0.908677
vt 0.764094 0.910116
vt 0.762223 0.909490
vt 0.761965 0.912839
vt 0.760703 0.911969
vt 0.779251 0.910193
vt 0.917069 0.328024
vt 0.919273 0.327795
vt 0.919430 0.331198
vt 0.918036 0.331431
vt 0.911608 0.306537
vt 0.909720 0.307040
vt 0.908480 0.304366
vt 0.909865 0.303654
vt 0.916331 0.306182
vt 0.916871 0.302764
vt 0.922601 0.307130
vt 0.918335 0.306186
vt 0.918373 0.302919
vt 0.924675 0.305073
vt 0.923773 0.325356
vt 0.911907 0.326851
vt 0.910007 0.326231
vt 0.909777 0.329653
vt 0.908480 0.328781
vt 0.927013 0.326784
vt 0.768802 0.958793
vt 0.770875 0.958610
vt 0.770892 0.961928
vt 0.769438 0.962045
vt 0.764030 0.937514
vt 0.762107 0.938071
vt 0.760703 0.935139
vt 0.762271 0.934388
vt 0.768971 0.937215
vt 0.769644 0.933632
vt 0.775706 0.938608
vt 0.771031 0.937315
vt 0.771228 0.933839
vt 0.778063 0.936477
vt 0.775332 0.957144
vt 0.763891 0.958291
vt 0.762105 0.957673
vt 0.761862 0.960716
vt 0.760703 0.959894
vt 0.777856 0.958698
vt 0.939117 0.140917
vt 0.936943 0.141077
vt 0.937170 0.137531
vt 0.938642 0.137529
vt 0.943945 0.161851
vt 0.945889 0.161318
vt 0.947286 0.164379
vt 0.945649 0.165126
vt 0.939012 0.162762
vt 0.938317 0.166151
vt 0.932849 0.161192
vt 0.936955 0.162684
vt 0.936892 0.165970
vt 0.930328 0.163173
vt 0.932286 0.143117
vt 0.944079 0.141515
vt 0.945851 0.142151
vt 0.946159 0.139137
vt 0.947286 0.139976
vt 0.929110 0.141404
vt 0.951506 0.546627
vt 0.953568 0.546460
vt 0.953560 0.549745
vt 0.952119 0.549851
vt 0.946911 0.525748
vt 0.944942 0.526286
vt 0.943509 0.523174
vt 0.945174 0.522408
vt 0.951938 0.524855
vt 0.952685 0.521327
vt 0.958586 0.526763
vt 0.954046 0.524991
vt 0.954180 0.521517
vt 0.961353 0.524605
vt 0.957987 0.545043
vt 0.946654 0.546120
vt 0.944896 0.545507
vt 0.944647 0.548505
vt 0.943509 0.547692
vt 0.960474 0.546600
s 1
f 1/1/1 2/2/2 26/3/2 25/4/1 36/5/1 40/6/3 474/7/4 42/8/5 41/9/6 38/10/7 39/11/8 37/12/9 473/13/1
f 26/3/2 2/2/2 3/14/10 246/15/10
f 48/16/11 249/17/11 246/15/10 3/14/10 4/18/11 476/19/11 477/20/12 475/21/13 45/22/14 43/23/15 44/24/16 46/25/17 47/26/18
f 476/19/11 4/18/11 5/27/19 251/28/19 249/17/11 48/16/11 51/29/20 480/30/21 52/31/22 479/32/23 49/33/24 50/34/25 478/35/26
f 251/28/19 5/27/19 6/36/27 253/37/27
f 253/37/27 6/36/27 7/38/28 27/39/28
f 27/40/28 7/41/28 8/42/29 28/43/29
f 28/43/29 8/42/29 9/44/30 256/45/30
f 485/46/31 259/47/31 256/45/30 9/44/30 10/48/31 484/49/31 486/50/32 481/51/33 483/52/34 53/53/35 482/54/36 488/55/37 487/56/38
f 484/49/31 10/48/31 11/57/39 260/58/39 259/47/31 485/46/31 491/59/40 493/60/41 492/61/42 55/62/43 489/63/44 490/64/45 54/65/46
f 260/58/39 11/57/39 12/66/47 29/67/47
f 57/68/48 263/69/48 29/67/47 12/66/47 13/70/48 58/71/48 499/72/49 494/73/50 496/74/51 495/75/52 56/76/53 497/77/54 498/78/55
f 58/71/48 13/70/48 14/79/56 30/80/56 263/69/48 57/68/48 500/81/57 502/82/58 62/83/59 501/84/60 59/85/61 60/86/62 61/87/63
f 30/80/56 14/79/56 15/88/64 31/89/64
f 65/90/65 267/91/65 31/89/64 15/88/64 16/92/65 505/93/65 506/94/66 503/95/67 504/96/68 63/97/69 64/98/70 66/99/71 507/100/72
f 16/92/65 17/101/73 269/102/73 267/91/65 65/90/65 508/103/74 67/104/75 68/105/76 512/106/77 510/107/78 511/108/79 509/109/80 505/93/65
f 269/102/73 17/101/73 18/110/81 32/111/81
f 32/111/81 18/110/81 19/112/82 33/113/82
f 33/113/82 19/112/82 20/114/83 273/115/83
f 273/115/83 20/114/83 21/116/84 34/117/84
f 35/118/85 34/117/84 21/116/84 22/119/85 71/120/85 518/121/86 514/122/87 70/123/88 69/124/89 513/125/90 516/126/91 515/127/92 517/128/85
f 22/119/85 23/129/93 277/130/93 35/118/85 517/128/85 74/131/94 75/132/95 521/133/96 520/134/97 519/135/98 73/136/99 72/137/100 71/120/85
f 277/130/93 23/129/93 24/138/101 279/139/101
f 25/4/1 279/139/101 24/138/101 1/1/1 473/13/1 528/140/102 524/141/103 525/142/104 522/143/105 523/144/106 527/145/107 526/146/108 36/5/1
f 373/147/109 353/148/110 293/149/110 291/150/109
f 86/151/111 79/152/111 25/153/111 26/154/111
f 93/155/111 86/151/111 26/154/111 246/156/111
f 98/157/111 93/155/111 246/156/111 249/158/111
f 106/159/111 98/157/111 249/158/111 251/160/111
f 114/161/111 106/159/111 251/160/111 253/162/111
f 121/163/111 114/161/111 253/162/111 27/164/111
f 127/165/111 121/163/111 27/164/111 28/166/111
f 135/167/111 127/165/111 28/166/111 256/168/111
f 140/169/111 135/167/111 256/168/111 259/170/111
f 149/171/111 140/169/111 259/170/111 260/172/111
f 156/173/111 149/171/111 260/172/111 29/174/111
f 163/175/111 156/173/111 29/174/111 263/176/111
f 170/177/111 163/175/111 263/176/111 30/178/111
f 177/179/111 170/177/111 30/178/111 31/180/111
f 184/181/111 177/179/111 31/180/111 267/182/111
f 189/183/111 184/181/111 267/182/111 269/184/111
f 195/185/111 189/183/111 269/184/111 32/186/111
f 203/187/111 195/185/111 32/186/111 33/188/111
f 210/189/111 203/187/111 33/188/111 273/190/111
f 217/191/111 210/189/111 273/190/111 34/192/111
f 224/193/111 217/191/111 34/192/111 35/194/111
f 231/195/111 224/193/111 35/194/111 277/196/111
f 237/197/111 231/195/111 277/196/111 279/198/111
f 79/152/111 237/197/111 279/198/111 25/153/111
f 384/199/112 380/200/113 324/201/113 322/202/114 374/203/114 354/204/113 379/205/113 377/206/112 378/207/112 382/208/112 381/209/112 383/210/112 385/211/112
f 375/212/115 355/213/116 310/214/116 308/215/115
f 353/216/110 356/217/117 295/218/117 293/219/110
f 379/205/113 354/204/113 357/220/118 325/221/118 324/201/113 380/200/113 392/222/119 391/223/119 390/224/119 388/225/119 387/226/119 389/227/119 386/228/119
f 396/229/120 393/230/121 312/231/121 310/214/116 355/213/116 358/232/121 413/233/121 394/234/120 395/235/120 399/236/120 398/237/120 397/238/120 400/239/120
f 356/217/117 359/240/122 297/241/122 295/218/117
f 357/220/118 360/242/123 327/243/123 325/221/118
f 427/244/124 376/245/124 361/246/125 284/247/125 281/248/124 428/249/124 407/250/126 406/251/126 403/252/126 404/253/126 405/254/126 401/255/126 402/256/126
f 413/233/121 358/232/121 362/257/127 314/258/127 312/231/121 393/230/121 415/259/128 414/260/128 411/261/128 409/262/128 410/263/128 412/264/128 408/265/128
f 417/266/129 300/267/129 297/241/122 359/240/122 363/268/129 416/269/129 419/270/130 418/271/130 422/272/130 423/273/130 424/274/130 421/275/130 420/276/130
f 431/277/131 428/249/124 281/248/124 327/243/123 360/242/123 376/245/124 427/244/124 426/278/131 425/279/131 430/280/131 429/281/131 433/282/131 432/283/131
f 361/246/125 364/284/132 285/285/132 284/247/125
f 362/257/127 365/286/133 316/287/133 314/258/127
f 436/288/134 416/269/129 363/268/129 366/289/135 302/290/135 300/267/129 417/266/129 440/291/134 439/292/134 438/293/134 434/294/134 435/295/134 437/296/134
f 447/297/136 444/298/137 288/299/137 285/285/132 364/284/132 367/300/137 443/301/137 442/302/136 441/303/136 446/304/136 445/305/136 448/306/136 449/307/136
f 365/286/133 368/308/138 317/309/138 316/287/133
f 366/289/135 369/310/139 304/311/139 302/290/135
f 452/312/140 443/301/137 367/300/137 370/313/141 289/314/141 288/299/137 444/298/137 456/315/140 455/316/140 454/317/140 450/318/140 451/319/140 453/320/140
f 368/308/138 371/321/142 319/322/142 317/309/138
f 459/323/143 472/324/144 306/325/144 304/311/139 369/310/139 372/326/144 471/327/144 457/328/143 458/329/143 461/330/143 460/331/143 462/332/143 463/333/143
f 370/313/141 373/147/109 291/150/109 289/314/141
f 371/321/142 374/203/114 322/202/114 319/322/142
f 471/327/144 372/326/144 375/212/115 308/215/115 306/325/144 472/324/144 470/334/145 469/335/145 468/336/145 464/337/145 465/338/145 467/339/145 466/340/145
f 163/175/144 170/177/115 334/341/115 352/342/144
f 210/189/142 217/191/114 332/343/114 351/344/142
f 106/159/141 114/161/109 330/345/109 350/346/141
f 156/173/139 163/175/144 352/342/144 349/347/139
f 203/187/138 210/189/142 351/344/142 348/348/138
f 98/157/137 106/159/141 350/346/141 347/349/137
f 149/171/135 156/173/139 349/347/139 346/350/135
f 195/185/133 203/187/138 348/348/138 345/351/133
f 93/155/132 98/157/137 347/349/137 344/352/132
f 140/169/129 149/171/135 346/350/135 343/353/129
f 189/183/127 195/185/133 345/351/133 342/354/127
f 86/151/125 93/155/132 344/352/132 340/355/125
f 237/197/123 79/152/124 341/356/124 339/357/123
f 135/167/122 140/169/129 343/353/129 338/358/122
f 184/181/121 189/183/127 342/354/127 337/359/121
f 79/152/124 86/151/125 340/355/125 341/356/124
f 231/195/118 237/197/123 339/357/123 336/360/118
f 127/165/117 135/167/122 338/358/122 335/361/117
f 177/179/116 184/181/121 337/359/121 333/362/116
f 224/193/113 231/195/118 336/360/118 331/363/113
f 121/163/110 127/165/117 335/361/117 329/364/110
f 170/177/115 177/179/116 333/362/116 334/341/115
f 217/191/114 224/193/113 331/363/113 332/343/114
f 114/161/109 121/163/110 329/364/110 330/345/109
f 454/365/146 123/366/147 118/367/148 450/368/149
f 443/369/150 104/370/150 101/371/151 442/372/152
f 456/373/153 129/374/154 125/375/155 455/376/156
f 446/377/157 95/378/158 90/379/159 445/380/160
f 442/372/152 101/371/151 99/381/161 441/382/162
f 455/376/156 125/375/155 123/366/147 454/365/146
f 445/380/160 90/379/159 89/383/163 448/384/164
f 99/381/161 95/378/158 446/377/157 441/382/162
f 447/385/165 77/386/166 82/387/167 444/388/167
f 89/383/163 83/389/168 449/390/169 448/384/164
f 453/391/170 112/392/171 110/393/172 452/394/173
f 118/367/148 116/395/174 451/396/175 450/368/149
f 449/390/169 83/389/168 77/386/166 447/385/165
f 452/394/173 110/393/172 104/370/150 443/369/150
f 451/396/175 116/395/174 112/392/171 453/391/170
f 444/397/167 82/398/167 129/374/154 456/373/153
f 411/399/176 180/400/177 174/401/178 409/402/179
f 413/403/180 161/404/180 158/405/181 394/406/182
f 415/407/183 185/408/184 182/409/185 414/410/186
f 399/411/187 150/412/188 147/413/189 398/414/190
f 394/406/182 158/405/181 153/415/191 395/416/192
f 414/410/186 182/409/185 180/400/177 411/399/176
f 398/414/190 147/413/189 143/417/193 397/418/194
f 395/416/192 153/415/191 150/412/188 399/411/187
f 396/419/195 132/420/196 137/421/197 393/422/197
f 397/418/194 143/417/193 142/423/198 400/424/199
f 412/425/200 168/426/201 166/427/202 408/428/203
f 171/429/204 410/430/205 409/402/179 174/401/178
f 400/424/199 142/423/198 132/420/196 396/419/195
f 408/428/203 166/427/202 161/404/180 413/403/180
f 410/430/205 171/429/204 168/426/201 412/425/200
f 393/431/197 137/432/197 185/408/184 415/407/183
f 468/433/206 234/434/207 233/435/208 464/436/209
f 471/437/210 219/438/210 214/439/211 457/440/212
f 470/441/213 243/442/214 240/443/215 469/444/216
f 207/445/217 204/446/218 460/447/219 461/448/220
f 214/439/211 212/449/221 458/450/222 457/440/212
f 469/444/216 240/443/215 234/434/207 468/433/206
f 460/447/219 204/446/218 200/451/223 462/452/224
f 212/449/221 207/445/217 461/448/220 458/450/222
f 459/453/225 191/454/226 193/455/227 472/456/227
f 462/452/224 200/451/223 197/457/228 463/458/229
f 467/459/230 225/460/231 221/461/232 466/462/233
f 233/435/208 229/463/234 465/464/235 464/436/209
f 463/458/229 197/457/228 191/454/226 459/453/225
f 466/462/233 221/461/232 219/438/210 471/437/210
f 229/463/234 225/460/231 467/459/230 465/464/235
f 472/465/227 193/466/227 243/442/214 470/441/213
f 438/467/236 265/468/237 264/469/238 434/470/239
f 416/471/240 257/472/240 255/473/241 419/474/242
f 440/475/243 268/476/244 266/477/245 439/478/246
f 422/479/247 252/480/248 250/481/249 423/482/250
f 419/474/242 255/473/241 254/483/251 418/484/252
f 439/478/246 266/477/245 265/468/237 438/467/236
f 423/482/250 250/481/249 248/485/253 424/486/254
f 254/483/251 252/480/248 422/479/247 418/484/252
f 420/487/255 244/488/256 245/489/257 417/490/257
f 424/486/254 248/485/253 247/491/258 421/492/259
f 437/493/260 261/494/261 258/495/262 436/496/263
f 262/497/264 435/498/265 434/470/239 264/469/238
f 247/491/258 244/488/256 420/487/255 421/492/259
f 436/496/263 258/495/262 257/472/240 416/471/240
f 435/498/265 262/497/264 261/494/261 437/493/260
f 417/499/257 245/500/257 268/476/244 440/475/243
f 403/501/266 292/502/267 290/503/268 404/504/269
f 282/505/270 280/506/271 426/507/272 427/508/270
f 407/509/273 296/510/274 294/511/275 406/512/276
f 430/513/277 276/514/278 275/515/279 429/516/280
f 280/506/271 278/517/281 425/518/282 426/507/272
f 406/512/276 294/511/275 292/502/267 403/501/266
f 429/516/280 275/515/279 274/519/283 433/520/284
f 425/518/282 278/517/281 276/514/278 430/513/277
f 431/521/285 270/522/286 271/523/287 428/524/287
f 433/520/284 274/519/283 272/525/288 432/526/289
f 401/527/290 286/528/291 283/529/292 402/530/293
f 404/504/269 290/503/268 287/531/294 405/532/295
f 272/525/288 270/522/286 431/521/285 432/526/289
f 402/530/293 283/529/292 282/505/270 427/508/270
f 405/532/295 287/531/294 286/528/291 401/527/290
f 271/533/287 296/510/274 407/509/273 428/534/287
f 390/535/296 323/536/297 321/537/298 388/538/299
f 313/539/300 311/540/301 377/541/302 379/542/300
f 328/543/303 326/544/304 391/545/305 392/546/306
f 382/547/307 307/548/308 305/549/309 381/550/310
f 377/541/302 311/540/301 309/551/311 378/552/312
f 391/545/305 326/544/304 323/536/297 390/535/296
f 381/550/310 305/549/309 303/553/313 383/554/314
f 378/552/312 309/551/311 307/548/308 382/547/307
f 298/555/315 299/556/316 380/557/316 384/558/317
f 303/553/313 301/559/318 385/560/319 383/554/314
f 389/561/320 318/562/321 315/563/322 386/564/323
f 321/537/298 320/565/324 387/566/325 388/538/299
f 301/559/318 298/555/315 384/558/317 385/560/319
f 315/563/322 313/539/300 379/542/300 386/564/323
f 387/566/325 320/565/324 318/562/321 389/561/320
f 380/567/316 299/568/316 328/543/303 392/546/306
f 479/569/326 97/570/327 100/571/328 49/572/329
f 47/573/330 88/574/331 91/575/332 48/576/332
f 50/577/333 102/578/334 103/579/335 478/580/336
f 84/581/337 85/582/338 44/583/339 43/584/340
f 87/585/341 88/574/331 47/573/330 46/586/342
f 49/572/329 100/571/328 102/578/334 50/577/333
f 45/587/343 81/588/344 84/581/337 43/584/340
f 44/583/339 85/582/338 87/585/341 46/586/342
f 476/589/345 78/590/345 76/591/346 477/592/347
f 475/593/348 80/594/349 81/588/344 45/587/343
f 92/595/350 94/596/351 480/597/352 51/598/353
f 52/599/354 96/600/355 97/570/327 479/569/326
f 477/592/347 76/591/346 80/594/349 475/593/348
f 48/576/332 91/575/332 92/595/350 51/598/353
f 94/596/351 96/600/355 52/599/354 480/597/352
f 478/580/336 103/579/335 78/601/345 476/602/345
f 512/603/356 126/604/357 128/605/358 510/606/359
f 507/607/360 117/608/361 119/609/362 65/610/362
f 511/611/363 130/612/364 131/613/365 509/614/366
f 63/615/367 111/616/368 113/617/369 64/618/370
f 66/619/371 115/620/372 117/608/361 507/607/360
f 510/606/359 128/605/358 130/612/364 511/611/363
f 109/621/373 111/616/368 63/615/367 504/622/374
f 64/618/370 113/617/369 115/620/372 66/619/371
f 505/623/375 107/624/375 105/625/376 506/626/377
f 503/627/378 108/628/379 109/621/373 504/622/374
f 508/629/380 120/630/381 122/631/382 67/632/383
f 68/633/384 124/634/385 126/604/357 512/603/356
f 506/626/377 105/625/376 108/628/379 503/627/378
f 65/610/362 119/609/362 120/630/381 508/629/380
f 67/632/383 122/631/382 124/634/385 68/633/384
f 509/614/366 131/613/365 107/635/375 505/636/375
f 501/637/386 154/638/387 155/639/388 59/640/389
f 498/641/390 145/642/391 146/643/392 57/644/392
f 60/645/393 157/646/394 159/647/395 61/648/396
f 495/649/397 139/650/398 141/651/399 56/652/400
f 497/653/401 144/654/402 145/642/391 498/641/390
f 59/640/389 155/639/388 157/646/394 60/645/393
f 496/655/403 138/656/404 139/650/398 495/649/397
f 56/652/400 141/651/399 144/654/402 497/653/401
f 58/657/405 134/658/405 133/659/406 499/660/407
f 494/661/408 136/662/409 138/656/404 496/655/403
f 500/663/410 148/664/411 151/665/412 502/666/413
f 62/667/414 152/668/415 154/638/387 501/637/386
f 133/659/406 136/662/409 494/661/408 499/660/407
f 57/644/392 146/643/392 148/664/411 500/663/410
f 502/666/413 151/665/412 152/668/415 62/667/414
f 61/648/396 159/647/395 134/669/405 58/670/405
f 55/671/416 181/672/417 183/673/418 489/674/419
f 173/675/420 175/676/421 485/677/421 487/678/422
f 186/679/423 187/680/424 54/681/425 490/682/426
f 167/683/427 169/684/428 482/685/429 53/686/430
f 172/687/431 173/675/420 487/678/422 488/688/432
f 183/673/418 186/679/423 490/682/426 489/674/419
f 483/689/433 165/690/434 167/683/427 53/686/430
f 482/685/429 169/684/428 172/687/431 488/688/432
f 162/691/435 160/692/436 486/693/437 484/694/435
f 481/695/438 164/696/439 165/690/434 483/689/433
f 491/697/440 176/698/441 178/699/442 493/700/443
f 492/701/444 179/702/445 181/672/417 55/671/416
f 160/692/436 164/696/439 481/695/438 486/693/437
f 485/677/421 175/676/421 176/698/441 491/697/440
f 493/700/443 178/699/442 179/702/445 492/701/444
f 187/680/424 162/703/435 484/704/435 54/681/425
f 209/705/446 211/706/447 38/707/448 41/708/449
f 201/709/450 202/710/451 36/711/451 526/712/452
f 39/713/453 213/714/454 215/715/455 37/716/456
f 196/717/457 198/718/458 523/719/459 522/720/460
f 199/721/461 201/709/450 526/712/452 527/722/462
f 211/706/447 213/714/454 39/713/453 38/707/448
f 194/723/463 196/717/457 522/720/460 525/724/464
f 198/718/458 199/721/461 527/722/462 523/719/459
f 190/725/465 188/726/466 528/727/467 473/728/465
f 192/729/468 194/723/463 525/724/464 524/730/469
f 40/731/470 205/732/471 206/733/472 474/734/473
f 42/735/474 208/736/475 209/705/446 41/708/449
f 528/727/467 188/726/466 192/729/468 524/730/469
f 36/711/451 202/710/451 205/732/471 40/731/470
f 474/734/473 206/733/472 208/736/475 42/735/474
f 215/715/455 190/737/465 473/738/465 37/716/456
f 520/739/476 238/740/477 239/741/478 519/742/479
f 228/743/480 230/744/481 517/745/481 515/746/482
f 73/747/483 241/748/484 242/749/485 72/750/486
f 69/751/487 223/752/488 226/753/489 513/754/490
f 516/755/491 227/756/492 228/743/480 515/746/482
f 241/748/484 73/747/483 519/742/479 239/741/478
f 222/757/493 223/752/488 69/751/487 70/758/494
f 513/754/490 226/753/489 227/756/492 516/755/491
f 218/759/495 216/760/496 518/761/497 71/762/495
f 514/763/498 220/764/499 222/757/493 70/758/494
f 232/765/500 235/766/501 75/767/502 74/768/503
f 521/769/504 236/770/505 238/740/477 520/739/476
f 216/760/496 220/764/499 514/763/498 518/761/497
f 230/744/481 232/765/500 74/768/503 517/745/481
f 235/766/501 236/770/505 521/769/504 75/767/502
f 72/750/486 242/749/485 218/771/495 71/772/495
s 0
f 543/773/506 541/774/506 532/775/506 531/776/506
f 539/777/507 540/778/507 534/779/507 533/780/507
f 537/781/111 539/777/111 533/780/111 529/782/111
f 540/783/508 538/784/508 530/785/508 534/786/508
f 544/787/508 541/774/508 538/784/508 540/783/508
f 543/773/111 542/788/111 539/777/111 537/781/111
f 542/788/109 544/789/109 540/778/109 539/777/109
f 529/782/509 530/785/509 538/784/509 537/781/509
f 535/790/510 536/791/510 544/789/510 542/788/510
f 531/776/111 535/790/111 542/788/111 543/773/111
f 536/792/508 532/775/508 541/774/508 544/787/508
f 537/781/133 538/784/133 541/774/133 543/773/133
f 559/793/511 557/794/511 548/795/511 547/796/511
f 555/797/512 556/798/512 550/799/512 549/800/512
f 553/801/111 555/797/111 549/800/111 545/802/111
f 556/803/508 554/804/508 546/805/508 550/806/508
f 560/807/508 557/794/508 554/804/508 556/803/508
f 559/793/111 558/808/111 555/797/111 553/801/111
f 558/808/133 560/809/133 556/798/133 555/797/133
f 545/802/513 546/805/513 554/804/513 553/801/513
f 551/810/514 552/811/514 560/809/514 558/808/514
f 547/796/111 551/810/111 558/808/111 559/793/111
f 552/812/508 548/795/508 557/794/508 560/807/508
f 553/801/109 554/804/109 557/794/109 559/793/109
f 575/813/515 573/814/515 564/815/515 563/816/515
f 571/817/516 572/818/516 566/819/516 565/820/516
f 569/821/111 571/817/111 565/820/111 561/822/111
f 572/823/508 570/824/508 562/825/508 566/826/508
f 576/827/508 573/814/508 570/824/508 572/823/508
f 575/813/111 574/828/111 571/817/111 569/821/111
f 574/828/139 576/829/139 572/818/139 571/817/139
f 561/822/517 562/825/517 570/824/517 569/821/517
f 567/830/518 568/831/518 576/829/518 574/828/518
f 563/816/111 567/830/111 574/828/111 575/813/111
f 568/832/508 564/815/508 573/814/508 576/827/508
f 569/821/123 570/824/123 573/814/123 575/813/123
f 591/833/519 589/834/519 580/835/519 579/836/519
f 587/837/520 588/838/520 582/839/520 581/840/520
f 585/841/111 587/837/111 581/840/111 577/842/111
f 588/843/508 586/844/508 578/845/508 582/846/508
f 592/847/508 589/834/508 586/844/508 588/843/508
f 591/833/111 590/848/111 587/837/111 585/841/111
f 590/848/123 592/849/123 588/838/123 587/837/123
f 577/842/521 578/845/521 586/844/521 585/841/521
f 583/850/522 584/851/522 592/849/522 590/848/522
f 579/836/111 583/850/111 590/848/111 591/833/111
f 584/852/508 580/835/508 589/834/508 592/847/508
f 585/841/139 586/844/139 589/834/139 591/833/139
f 607/853/523 605/854/523 596/855/523 595/856/523
f 603/857/524 604/858/524 598/859/524 597/860/524
f 601/861/111 603/857/111 597/860/111 593/862/111
f 604/863/508 602/864/508 594/865/508 598/866/508
f 608/867/508 605/854/508 602/864/508 604/863/508
f 607/853/111 606/868/111 603/857/111 601/861/111
f 606/868/137 608/869/137 604/858/137 603/857/137
f 593/862/525 594/865/525 602/864/525 601/861/525
f 599/870/526 600/871/526 608/869/526 606/868/526
f 595/856/111 599/870/111 606/868/111 607/853/111
f 600/872/508 596/855/508 605/854/508 608/867/508
f 601/861/121 602/864/121 605/854/121 607/853/121
f 623/873/527 621/874/527 612/875/527 611/876/527
f 619/877/528 620/878/528 614/879/528 613/880/528
f 617/881/111 619/877/111 613/880/111 609/882/111
f 620/883/508 618/884/508 610/885/508 614/886/508
f 624/887/508 621/874/508 618/884/508 620/883/508
f 623/873/111 622/888/111 619/877/111 617/881/111
f 622/888/121 624/889/121 620/878/121 619/877/121
f 609/882/529 610/885/529 618/884/529 617/881/529
f 615/890/530 616/891/530 624/889/530 622/888/530
f 611/876/111 615/890/111 622/888/111 623/873/111
f 616/892/508 612/875/508 621/874/508 624/887/508
f 617/881/137 618/884/137 621/874/137 623/873/137
f 639/893/531 637/894/531 628/895/531 627/896/531
f 635/897/532 636/898/532 630/899/532 629/900/532
f 633/901/111 635/897/111 629/900/111 625/902/111
f 636/903/508 634/904/508 626/905/508 630/906/508
f 640/907/508 637/894/508 634/904/508 636/903/508
f 639/893/111 638/908/111 635/897/111 633/901/111
f 638/908/129 640/909/129 636/898/129 635/897/129
f 625/902/533 626/905/533 634/904/533 633/901/533
f 631/910/534 632/911/534 640/909/534 638/908/534
f 627/896/111 631/910/111 638/908/111 639/893/111
f 632/912/508 628/895/508 637/894/508 640/907/508
f 633/901/113 634/904/113 637/894/113 639/893/113
f 655/913/535 653/914/535 644/915/535 643/916/535
f 651/917/536 652/918/536 646/919/536 645/920/536
f 649/921/111 651/917/111 645/920/111 641/922/111
f 652/923/508 650/924/508 642/925/508 646/926/508
f 656/927/508 653/914/508 650/924/508 652/923/508
f 655/913/111 654/928/111 651/917/111 649/921/111
f 654/928/113 656/929/113 652/918/113 651/917/113
f 641/922/537 642/925/537 650/924/537 649/921/537
f 647/930/538 648/931/538 656/929/538 654/928/538
f 643/916/111 647/930/111 654/928/111 655/913/111
f 648/932/508 644/915/508 653/914/508 656/927/508
f 649/921/129 650/924/129 653/914/129 655/913/129
f 671/933/539 669/934/539 660/935/539 659/936/539
f 667/937/540 668/938/540 662/939/540 661/940/540
f 665/941/111 667/937/111 661/940/111 657/942/111
f 668/943/508 666/944/508 658/945/508 662/946/508
f 672/947/508 669/934/508 666/944/508 668/943/508
f 671/933/111 670/948/111 667/937/111 665/941/111
f 670/948/125 672/949/125 668/938/125 667/937/125
f 657/942/541 658/945/541 666/944/541 665/941/541
f 663/950/542 664/951/542 672/949/542 670/948/542
f 659/936/111 663/950/111 670/948/111 671/933/111
f 664/952/508 660/935/508 669/934/508 672/947/508
f 665/941/115 666/944/115 669/934/115 671/933/115
f 687/953/543 685/954/543 676/955/543 675/956/543
f 683/957/544 684/958/544 678/959/544 677/960/544
f 681/961/111 683/957/111 677/960/111 673/962/111
f 684/963/508 682/964/508 674/965/508 678/966/508
f 688/967/508 685/954/508 682/964/508 684/963/508
f 687/953/111 686/968/111 683/957/111 681/961/111
f 686/968/115 688/969/115 684/958/115 683/957/115
f 673/962/545 674/965/545 682/964/545 681/961/545
f 679/970/546 680/971/546 688/969/546 686/968/546
f 675/956/111 679/970/111 686/968/111 687/953/111
f 680/972/508 676/955/508 685/954/508 688/967/508
f 681/961/125 682/964/125 685/954/125 687/953/125
f 703/973/547 701/974/547 692/975/547 691/976/547
f 699/977/548 700/978/548 694/979/548 693/980/548
f 697/981/111 699/977/111 693/980/111 689/982/111
f 700/983/508 698/984/508 690/985/508 694/986/508
f 704/987/508 701/974/508 698/984/508 700/983/508
f 703/973/111 702/988/111 699/977/111 697/981/111
f 702/988/117 704/989/117 700/978/117 699/977/117
f 689/982/549 690/985/549 698/984/549 697/981/549
f 695/990/550 696/991/550 704/989/550 702/988/550
f 691/976/111 695/990/111 702/988/111 703/973/111
f 696/992/508 692/975/508 701/974/508 704/987/508
f 697/981/142 698/984/142 701/974/142 703/973/142
f 719/993/551 717/994/551 708/995/551 707/996/551
f 715/997/552 716/998/552 710/999/552 709/1000/552
f 713/1001/111 715/997/111 709/1000/111 705/1002/111
f 716/1003/508 714/1004/508 706/1005/508 710/1006/508
f 720/1007/508 717/994/508 714/1004/508 716/1003/508
f 719/993/111 718/1008/111 715/997/111 713/1001/111
f 718/1008/142 720/1009/142 716/998/142 715/997/142
f 705/1002/553 706/1005/553 714/1004/553 713/1001/553
f 711/1010/554 712/1011/554 720/1009/554 718/1008/554
f 707/996/111 711/1010/111 718/1008/111 719/993/111
f 712/1012/508 708/995/508 717/994/508 720/1007/508
f 713/1001/117 714/1004/117 717/994/117 719/993/117
