# Blender 4.1.1
# www.blender.org
o SpaceCapsule_1.875_WindowGlass
v -0.586303 -0.189769 0.653972
v -0.623169 -0.181272 0.623169
v -0.548986 -0.213968 0.674023
v -0.516900 -0.250185 0.680269
v -0.494930 -0.292905 0.671758
v -0.486420 -0.335626 0.649788
v -0.492665 -0.371842 0.617702
v -0.512716 -0.396041 0.580385
v -0.543519 -0.404539 0.543519
v -0.580385 -0.396041 0.512716
v -0.617702 -0.371842 0.492665
v -0.649788 -0.335626 0.486420
v -0.671758 -0.292905 0.494930
v -0.680268 -0.250185 0.516901
v -0.674023 -0.213968 0.548986
v -0.653972 -0.189769 0.586303
v 0.047850 0.171041 -0.877007
v 0.000000 0.162544 -0.881294
v 0.088414 0.195240 -0.864798
v 0.115519 0.231457 -0.846526
v 0.125037 0.274177 -0.824973
v 0.115519 0.316898 -0.803420
v 0.088414 0.353114 -0.785148
v 0.047850 0.377313 -0.772940
v 0.000000 0.385811 -0.768652
v -0.047849 0.377313 -0.772939
v -0.088414 0.353114 -0.785148
v -0.115519 0.316898 -0.803420
v -0.125036 0.274177 -0.824973
v -0.115519 0.231457 -0.846526
v -0.088414 0.195240 -0.864798
v -0.047849 0.171041 -0.877007
v -0.586303 0.171041 -0.653972
v -0.623169 0.162544 -0.623169
v -0.548986 0.195240 -0.674023
v -0.516900 0.231457 -0.680269
v -0.494930 0.274177 -0.671758
v -0.486420 0.316898 -0.649788
v -0.492665 0.353114 -0.617702
v -0.512716 0.377313 -0.580385
v -0.543519 0.385811 -0.543519
v -0.580385 0.377313 -0.512716
v -0.617702 0.353114 -0.492665
v -0.649788 0.316898 -0.486420
v -0.671758 0.274177 -0.494930
v -0.680268 0.231457 -0.516900
v -0.674023 0.195240 -0.548986
v -0.653972 0.171041 -0.586303
v 0.653972 0.171041 -0.586303
v 0.623169 0.162544 -0.623169
v 0.674023 0.195240 -0.548986
v 0.680269 0.231457 -0.516901
v 0.671758 0.274177 -0.494930
v 0.649788 0.316898 -0.486420
v 0.617702 0.353114 -0.492665
v 0.580385 0.377313 -0.512716
v 0.543519 0.385811 -0.543519
v 0.512716 0.377313 -0.580385
v 0.492665 0.353114 -0.617702
v 0.486420 0.316898 -0.649788
v 0.494930 0.274177 -0.671758
v 0.516900 0.231457 -0.680269
v 0.548986 0.195240 -0.674023
v 0.586303 0.171041 -0.653972
v -0.653972 0.171041 0.586303
v -0.623169 0.162544 0.623169
v -0.674023 0.195240 0.548986
v -0.680268 0.231457 0.516901
v -0.671758 0.274177 0.494930
v -0.649788 0.316898 0.486420
v -0.617702 0.353114 0.492665
v -0.580385 0.377313 0.512716
v -0.543519 0.385811 0.543519
v -0.512716 0.377313 0.580385
v -0.492665 0.353114 0.617702
v -0.486420 0.316898 0.649788
v -0.494930 0.274177 0.671758
v -0.516900 0.231457 0.680269
v -0.548986 0.195240 0.674023
v -0.586303 0.171041 0.653972
v 0.586303 0.171041 0.653972
v 0.623169 0.162543 0.623169
v 0.548986 0.195240 0.674023
v 0.516901 0.231457 0.680268
v 0.494930 0.274177 0.671758
v 0.486420 0.316898 0.649788
v 0.492665 0.353114 0.617702
v 0.512716 0.377313 0.580385
v 0.543519 0.385811 0.543519
v 0.580385 0.377313 0.512716
v 0.617702 0.353114 0.492665
v 0.649788 0.316898 0.486419
v 0.671758 0.274177 0.494930
v 0.680269 0.231457 0.516900
v 0.674023 0.195240 0.548986
v 0.653972 0.171041 0.586303
v -0.047849 0.171041 0.877007
v 0.000000 0.162543 0.881294
v -0.088414 0.195240 0.864798
v -0.115519 0.231457 0.846526
v -0.125036 0.274177 0.824973
v -0.115519 0.316898 0.803420
v -0.088414 0.353114 0.785148
v -0.047849 0.377313 0.772939
v 0.000000 0.385811 0.768652
v 0.047849 0.377313 0.772939
v 0.088414 0.353114 0.785148
v 0.115519 0.316898 0.803420
v 0.125037 0.274177 0.824973
v 0.115519 0.231457 0.846526
v 0.088414 0.195240 0.864798
v 0.047849 0.171041 0.877007
v 0.877007 0.171041 0.047849
v 0.881294 0.162543 -0.000000
v 0.864798 0.195240 0.088414
v 0.846526 0.231457 0.115519
v 0.824973 0.274177 0.125037
v 0.803420 0.316898 0.115519
v 0.785148 0.353114 0.088414
v 0.772939 0.377313 0.047849
v 0.768652 0.385811 -0.000000
v 0.772939 0.377313 -0.047850
v 0.785148 0.353114 -0.088414
v 0.803420 0.316898 -0.115519
v 0.824973 0.274177 -0.125037
v 0.846526 0.231457 -0.115519
v 0.864798 0.195240 -0.088414
v 0.877007 0.171041 -0.047849
v -0.047849 -0.189770 -0.877007
v 0.000000 -0.181272 -0.881294
v -0.088414 -0.213969 -0.864798
v -0.115519 -0.250185 -0.846526
v -0.125036 -0.292906 -0.824973
v -0.115519 -0.335626 -0.803420
v -0.088414 -0.371843 -0.785148
v -0.047849 -0.396042 -0.772939
v 0.000000 -0.404539 -0.768652
v 0.047850 -0.396042 -0.772939
v 0.088414 -0.371843 -0.785148
v 0.115519 -0.335626 -0.803420
v 0.125037 -0.292906 -0.824973
v 0.115519 -0.250185 -0.846526
v 0.088414 -0.213969 -0.864798
v 0.047850 -0.189770 -0.877007
v 0.586303 -0.189769 -0.653972
v 0.623169 -0.181272 -0.623169
v 0.548986 -0.213969 -0.674023
v 0.516901 -0.250185 -0.680268
v 0.494930 -0.292905 -0.671758
v 0.486420 -0.335626 -0.649788
v 0.492665 -0.371842 -0.617702
v 0.512716 -0.396042 -0.580385
v 0.543519 -0.404539 -0.543519
v 0.580385 -0.396042 -0.512716
v 0.617702 -0.371842 -0.492665
v 0.649788 -0.335626 -0.486419
v 0.671758 -0.292905 -0.494930
v 0.680269 -0.250185 -0.516900
v 0.674023 -0.213969 -0.548986
v 0.653972 -0.189769 -0.586303
v -0.653972 -0.189769 -0.586303
v -0.623169 -0.181272 -0.623169
v -0.674023 -0.213969 -0.548986
v -0.680268 -0.250185 -0.516900
v -0.671758 -0.292906 -0.494930
v -0.649788 -0.335626 -0.486420
v -0.617702 -0.371842 -0.492665
v -0.580385 -0.396042 -0.512716
v -0.543519 -0.404539 -0.543519
v -0.512716 -0.396042 -0.580385
v -0.492665 -0.371843 -0.617702
v -0.486420 -0.335626 -0.649788
v -0.494930 -0.292906 -0.671758
v -0.516900 -0.250185 -0.680269
v -0.548986 -0.213969 -0.674023
v -0.586303 -0.189769 -0.653972
v 0.653972 -0.189769 0.586303
v 0.623169 -0.181272 0.623169
v 0.674023 -0.213968 0.548986
v 0.680268 -0.250185 0.516901
v 0.671758 -0.292905 0.494930
v 0.649788 -0.335626 0.486420
v 0.617702 -0.371842 0.492665
v 0.580385 -0.396041 0.512716
v 0.543519 -0.404539 0.543519
v 0.512716 -0.396041 0.580385
v 0.492665 -0.371842 0.617702
v 0.486420 -0.335626 0.649788
v 0.494930 -0.292905 0.671758
v 0.516900 -0.250185 0.680269
v 0.548986 -0.213968 0.674023
v 0.586303 -0.189769 0.653972
v 0.047849 -0.189769 0.877007
v 0.000000 -0.181272 0.881294
v 0.088414 -0.213968 0.864798
v 0.115519 -0.250185 0.846526
v 0.125037 -0.292905 0.824973
v 0.115519 -0.335626 0.803420
v 0.088414 -0.371842 0.785148
v 0.047849 -0.396041 0.772939
v 0.000000 -0.404539 0.768652
v -0.047849 -0.396041 0.772939
v -0.088414 -0.371842 0.785148
v -0.115519 -0.335626 0.803420
v -0.125037 -0.292905 0.824973
v -0.115519 -0.250185 0.846526
v -0.088414 -0.213968 0.864798
v -0.047849 -0.189769 0.877007
v 0.044527 0.802115 -0.486314
v 0.000000 0.796458 -0.499630
v 0.072046 0.816924 -0.451452
v 0.072046 0.835229 -0.408360
v 0.044527 0.850038 -0.373498
v 0.000000 0.855694 -0.360182
v -0.044527 0.850038 -0.373498
v -0.072046 0.835229 -0.408360
v -0.072046 0.816924 -0.451452
v -0.044527 0.802115 -0.486314
vn -0.6313 -0.4504 0.6313
vn -0.0000 0.4504 -0.8928
vn -0.6313 0.4504 -0.6313
vn 0.6313 0.4504 -0.6313
vn -0.6313 0.4504 0.6313
vn 0.6313 0.4504 0.6313
vn -0.0000 0.4504 0.8928
vn 0.8928 0.4504 -0.0000
vn -0.0000 -0.4504 -0.8928
vn 0.6313 -0.4504 -0.6313
vn -0.6313 -0.4504 -0.6313
vn 0.6313 -0.4504 0.6313
vn -0.0000 -0.4504 0.8928
vn -0.0000 0.9204 -0.3910
vt 0.943897 0.658000
vt 0.943897 0.653193
vt 0.945737 0.648753
vt 0.949135 0.645354
vt 0.953576 0.643515
vt 0.958382 0.643515
vt 0.962823 0.645354
vt 0.966222 0.648753
vt 0.968061 0.653193
vt 0.968061 0.658000
vt 0.966222 0.662440
vt 0.962823 0.665839
vt 0.958382 0.667678
vt 0.953576 0.667678
vt 0.949135 0.665839
vt 0.945737 0.662440
vt 0.977593 0.374853
vt 0.974194 0.378251
vt 0.969754 0.380091
vt 0.964947 0.380091
vt 0.960507 0.378251
vt 0.957108 0.374853
vt 0.955269 0.370412
vt 0.955269 0.365605
vt 0.957108 0.361165
vt 0.960507 0.357766
vt 0.964947 0.355927
vt 0.969754 0.355927
vt 0.974194 0.357766
vt 0.977593 0.361165
vt 0.979432 0.365606
vt 0.979432 0.370412
vt 0.945952 0.317249
vt 0.945952 0.312443
vt 0.947791 0.308002
vt 0.951190 0.304604
vt 0.955631 0.302764
vt 0.960437 0.302764
vt 0.964878 0.304604
vt 0.968276 0.308002
vt 0.970116 0.312443
vt 0.970116 0.317249
vt 0.968276 0.321690
vt 0.964878 0.325089
vt 0.960437 0.326928
vt 0.955631 0.326928
vt 0.951190 0.325089
vt 0.947792 0.321690
vt 0.897888 0.955319
vt 0.901286 0.958718
vt 0.903126 0.963159
vt 0.903126 0.967965
vt 0.901286 0.972406
vt 0.897888 0.975804
vt 0.893447 0.977644
vt 0.888641 0.977644
vt 0.884200 0.975804
vt 0.880801 0.972406
vt 0.878962 0.967965
vt 0.878962 0.963159
vt 0.880801 0.958718
vt 0.884200 0.955319
vt 0.888641 0.953480
vt 0.893447 0.953480
vt 0.923904 0.958718
vt 0.927303 0.955319
vt 0.931743 0.953480
vt 0.936550 0.953480
vt 0.940990 0.955319
vt 0.944389 0.958718
vt 0.946228 0.963159
vt 0.946228 0.967965
vt 0.944389 0.972406
vt 0.940990 0.975804
vt 0.936550 0.977644
vt 0.931743 0.977644
vt 0.927303 0.975804
vt 0.923904 0.972406
vt 0.922065 0.967965
vt 0.922065 0.963159
vt 0.958810 0.880611
vt 0.963250 0.878772
vt 0.968057 0.878772
vt 0.972497 0.880611
vt 0.975896 0.884010
vt 0.977735 0.888450
vt 0.977735 0.893257
vt 0.975896 0.897697
vt 0.972497 0.901096
vt 0.968057 0.902935
vt 0.963250 0.902935
vt 0.958810 0.901096
vt 0.955411 0.897697
vt 0.953572 0.893257
vt 0.953572 0.888450
vt 0.955411 0.884010
vt 0.648712 0.947211
vt 0.653153 0.945371
vt 0.657959 0.945371
vt 0.662400 0.947211
vt 0.665799 0.950609
vt 0.667638 0.955050
vt 0.667638 0.959856
vt 0.665799 0.964297
vt 0.662400 0.967696
vt 0.657959 0.969535
vt 0.653153 0.969535
vt 0.648712 0.967696
vt 0.645314 0.964297
vt 0.643474 0.959856
vt 0.643474 0.955050
vt 0.645314 0.950609
vt 0.958849 0.805894
vt 0.963289 0.804055
vt 0.968096 0.804055
vt 0.972536 0.805894
vt 0.975935 0.809293
vt 0.977775 0.813734
vt 0.977775 0.818540
vt 0.975935 0.822981
vt 0.972536 0.826379
vt 0.968096 0.828219
vt 0.963289 0.828219
vt 0.958849 0.826379
vt 0.955450 0.822981
vt 0.953611 0.818540
vt 0.953611 0.813734
vt 0.955450 0.809293
vt 0.823550 0.954811
vt 0.826949 0.958209
vt 0.828788 0.962650
vt 0.828788 0.967456
vt 0.826949 0.971897
vt 0.823550 0.975295
vt 0.819109 0.977135
vt 0.814303 0.977135
vt 0.809862 0.975295
vt 0.806464 0.971897
vt 0.804624 0.967456
vt 0.804624 0.962650
vt 0.806464 0.958209
vt 0.809862 0.954811
vt 0.814303 0.952971
vt 0.819109 0.952971
vt 0.711694 0.969506
vt 0.707254 0.967667
vt 0.703855 0.964268
vt 0.702016 0.959828
vt 0.702016 0.955021
vt 0.703855 0.950581
vt 0.707254 0.947182
vt 0.711694 0.945343
vt 0.716501 0.945343
vt 0.720941 0.947182
vt 0.724340 0.950581
vt 0.726179 0.955021
vt 0.726179 0.959828
vt 0.724340 0.964268
vt 0.720941 0.967667
vt 0.716501 0.969506
vt 0.090507 0.964284
vt 0.087108 0.967683
vt 0.082667 0.969522
vt 0.077861 0.969522
vt 0.073420 0.967683
vt 0.070022 0.964284
vt 0.068182 0.959844
vt 0.068182 0.955037
vt 0.070022 0.950597
vt 0.073420 0.947198
vt 0.077861 0.945359
vt 0.082667 0.945359
vt 0.087108 0.947198
vt 0.090507 0.950597
vt 0.092346 0.955037
vt 0.092346 0.959844
vt 0.599347 0.969588
vt 0.594540 0.969588
vt 0.590100 0.967749
vt 0.586701 0.964350
vt 0.584862 0.959909
vt 0.584862 0.955103
vt 0.586701 0.950662
vt 0.590100 0.947264
vt 0.594540 0.945424
vt 0.599347 0.945424
vt 0.603787 0.947264
vt 0.607186 0.950662
vt 0.609026 0.955103
vt 0.609026 0.959909
vt 0.607186 0.964350
vt 0.603787 0.967749
vt 0.019148 0.969616
vt 0.014708 0.967777
vt 0.011309 0.964378
vt 0.009470 0.959938
vt 0.009470 0.955131
vt 0.011309 0.950691
vt 0.014708 0.947292
vt 0.019148 0.945453
vt 0.023955 0.945453
vt 0.028395 0.947292
vt 0.031794 0.950691
vt 0.033633 0.955131
vt 0.033633 0.959938
vt 0.031794 0.964378
vt 0.028395 0.967777
vt 0.023955 0.969616
vt 0.909182 0.774337
vt 0.906470 0.778069
vt 0.902084 0.779494
vt 0.897697 0.778069
vt 0.894986 0.774337
vt 0.894986 0.769725
vt 0.897697 0.765993
vt 0.902084 0.764568
vt 0.906470 0.765993
vt 0.909182 0.769725
s 1
f 1/1/1 2/2/1 16/3/1 15/4/1 14/5/1 13/6/1 12/7/1 11/8/1 10/9/1 9/10/1 8/11/1 7/12/1 6/13/1 5/14/1 4/15/1 3/16/1
f 17/17/2 18/18/2 32/19/2 31/20/2 30/21/2 29/22/2 28/23/2 27/24/2 26/25/2 25/26/2 24/27/2 23/28/2 22/29/2 21/30/2 20/31/2 19/32/2
f 33/33/3 34/34/3 48/35/3 47/36/3 46/37/3 45/38/3 44/39/3 43/40/3 42/41/3 41/42/3 40/43/3 39/44/3 38/45/3 37/46/3 36/47/3 35/48/3
f 49/49/4 50/50/4 64/51/4 63/52/4 62/53/4 61/54/4 60/55/4 59/56/4 58/57/4 57/58/4 56/59/4 55/60/4 54/61/4 53/62/4 52/63/4 51/64/4
f 65/65/5 66/66/5 80/67/5 79/68/5 78/69/5 77/70/5 76/71/5 75/72/5 74/73/5 73/74/5 72/75/5 71/76/5 70/77/5 69/78/5 68/79/5 67/80/5
f 81/81/6 82/82/6 96/83/6 95/84/6 94/85/6 93/86/6 92/87/6 91/88/6 90/89/6 89/90/6 88/91/6 87/92/6 86/93/6 85/94/6 84/95/6 83/96/6
f 97/97/7 98/98/7 112/99/7 111/100/7 110/101/7 109/102/7 108/103/7 107/104/7 106/105/7 105/106/7 104/107/7 103/108/7 102/109/7 101/110/7 100/111/7 99/112/7
f 113/113/8 114/114/8 128/115/8 127/116/8 126/117/8 125/118/8 124/119/8 123/120/8 122/121/8 121/122/8 120/123/8 119/124/8 118/125/8 117/126/8 116/127/8 115/128/8
f 129/129/9 130/130/9 144/131/9 143/132/9 142/133/9 141/134/9 140/135/9 139/136/9 138/137/9 137/138/9 136/139/9 135/140/9 134/141/9 133/142/9 132/143/9 131/144/9
f 145/145/10 146/146/10 160/147/10 159/148/10 158/149/10 157/150/10 156/151/10 155/152/10 154/153/10 153/154/10 152/155/10 151/156/10 150/157/10 149/158/10 148/159/10 147/160/10
f 161/161/11 162/162/11 176/163/11 175/164/11 174/165/11 173/166/11 172/167/11 171/168/11 170/169/11 169/170/11 168/171/11 167/172/11 166/173/11 165/174/11 164/175/11 163/176/11
f 177/177/12 178/178/12 192/179/12 191/180/12 190/181/12 189/182/12 188/183/12 187/184/12 186/185/12 185/186/12 184/187/12 183/188/12 182/189/12 181/190/12 180/191/12 179/192/12
f 193/193/13 194/194/13 208/195/13 207/196/13 206/197/13 205/198/13 204/199/13 203/200/13 202/201/13 201/202/13 200/203/13 199/204/13 198/205/13 197/206/13 196/207/13 195/208/13
f 209/209/14 210/210/14 218/211/14 217/212/14 216/213/14 215/214/14 214/215/14 213/216/14 212/217/14 211/218/14
