# Blender 4.1.1
# www.blender.org
o SpaceCapsule_1.875_Hatch
v -0.679295 0.404791 -0.315668
v -0.716027 0.328585 -0.326803
v -0.652311 0.479459 -0.283020
v -0.636916 0.547501 -0.231085
v -0.631420 0.602899 -0.163402
v -0.624959 0.636207 -0.084583
v -0.628811 0.650622 0.000000
v -0.624959 0.636207 0.084583
v -0.631420 0.602899 0.163402
v -0.636916 0.547501 0.231085
v -0.652311 0.479459 0.283020
v -0.679295 0.404791 0.315668
v -0.716027 0.328585 0.326803
v -0.760006 0.256035 0.315668
v -0.808233 0.192084 0.283020
v -0.856301 0.140526 0.231085
v -0.886839 0.097762 0.163402
v -0.909842 0.072800 0.084583
v -0.923743 0.067341 0.000000
v -0.909842 0.072800 -0.084583
v -0.886839 0.097762 -0.163402
v -0.856301 0.140526 -0.231085
v -0.808233 0.192084 -0.283020
v -0.760006 0.256035 -0.315668
v -0.739893 0.341083 -0.318424
v -0.755612 0.350065 -0.296628
v -0.723420 0.416851 -0.286869
v -0.704095 0.415332 -0.307576
v -0.699469 0.483127 -0.257891
v -0.677776 0.488077 -0.275773
v -0.685205 0.544844 -0.208983
v -0.662740 0.554367 -0.225176
v -0.680676 0.593177 -0.151497
v -0.657377 0.608347 -0.159225
v -0.674470 0.625168 -0.075807
v -0.651086 0.640804 -0.082420
v -0.677922 0.638088 0.000000
v -0.654840 0.654851 0.000000
v -0.674470 0.625168 0.075807
v -0.651086 0.640804 0.082420
v -0.680676 0.593177 0.151497
v -0.657377 0.608347 0.159225
v -0.685205 0.544844 0.208983
v -0.662740 0.554367 0.225176
v -0.699469 0.483127 0.257891
v -0.677776 0.488077 0.275773
v -0.723420 0.416852 0.286869
v -0.704095 0.415332 0.307576
v -0.755613 0.350065 0.296628
v -0.739893 0.341083 0.318424
v -0.794410 0.286062 0.286805
v -0.782733 0.270386 0.307578
v -0.837650 0.228563 0.256893
v -0.829706 0.208061 0.275773
v -0.880100 0.183146 0.211518
v -0.876540 0.157820 0.225169
v -0.909104 0.142531 0.147237
v -0.906299 0.116155 0.159217
v -0.929820 0.120051 0.076255
v -0.928713 0.091832 0.082417
v -0.942352 0.115129 0.000000
v -0.942258 0.086512 0.000000
v -0.929819 0.120051 -0.076255
v -0.928713 0.091832 -0.082417
v -0.909104 0.142531 -0.147237
v -0.906299 0.116155 -0.159217
v -0.880100 0.183146 -0.211518
v -0.876540 0.157820 -0.225169
v -0.837650 0.228563 -0.256893
v -0.829706 0.208061 -0.275773
v -0.794410 0.286062 -0.286805
v -0.782733 0.270386 -0.307578
v -0.713486 0.411840 -0.286869
v -0.745679 0.345053 -0.296628
v -0.689535 0.478116 -0.257891
v -0.675271 0.539832 -0.208983
v -0.670743 0.588165 -0.151497
v -0.664536 0.620156 -0.075807
v -0.667988 0.633076 0.000000
v -0.664536 0.620156 0.075807
v -0.670743 0.588165 0.151497
v -0.675271 0.539832 0.208983
v -0.689535 0.478116 0.257891
v -0.713486 0.411840 0.286869
v -0.745679 0.345053 0.296628
v -0.784476 0.281050 0.286805
v -0.827716 0.223551 0.256893
v -0.870167 0.178134 0.211518
v -0.899170 0.137519 0.147237
v -0.919886 0.115039 0.076255
v -0.932418 0.110117 0.000000
v -0.919886 0.115039 -0.076255
v -0.899170 0.137519 -0.147237
v -0.870167 0.178134 -0.211518
v -0.827716 0.223551 -0.256893
v -0.784476 0.281050 -0.286805
v -0.790542 0.232264 0.293608
v -0.682437 0.446538 0.293608
v -0.784821 0.229377 0.294882
v -0.676716 0.443651 0.294882
v -0.779971 0.226930 0.298512
v -0.671866 0.441204 0.298512
v -0.668626 0.439569 0.303944
v -0.775592 0.224721 0.310352
v -0.667488 0.438995 0.310352
v -0.776730 0.225295 0.316760
v -0.668626 0.439569 0.316760
v -0.779971 0.226930 0.322193
v -0.671866 0.441204 0.322193
v -0.784821 0.229377 0.325823
v -0.676716 0.443651 0.325823
v -0.790542 0.232264 0.327097
v -0.682437 0.446538 0.327097
v -0.796263 0.235150 0.325823
v -0.688159 0.449424 0.325823
v -0.801113 0.237597 0.322193
v -0.693009 0.451871 0.322193
v -0.804354 0.239232 0.316760
v -0.696249 0.453506 0.316760
v -0.805492 0.239806 0.310352
v -0.697387 0.454080 0.310352
v -0.804354 0.239232 0.303944
v -0.696249 0.453506 0.303944
v -0.801113 0.237597 0.298512
v -0.693009 0.451871 0.298512
v -0.796263 0.235150 0.294882
v -0.688159 0.449424 0.294882
v -0.765354 0.282188 0.285352
v -0.707625 0.396613 0.285352
v -0.699084 0.392304 0.287255
v -0.756813 0.277879 0.287255
v -0.685305 0.385352 0.310352
v -0.687004 0.386209 0.319920
v -0.744733 0.271785 0.319920
v -0.691842 0.388650 0.328030
v -0.749572 0.274226 0.328030
v -0.699084 0.392304 0.333449
v -0.756813 0.277879 0.333449
v -0.707625 0.396613 0.335352
v -0.765354 0.282188 0.335352
v -0.716167 0.400922 0.333449
v -0.773896 0.286498 0.333449
v -0.723408 0.404576 0.328030
v -0.781137 0.290151 0.328030
v -0.728247 0.407017 0.319920
v -0.785976 0.292592 0.319920
v -0.729946 0.407874 0.310352
v -0.787675 0.293449 0.310352
v -0.714795 0.400230 0.284694
v -0.777561 0.288347 0.286223
v -0.716167 0.400922 0.287255
v -0.773896 0.286498 0.287255
v -0.707625 0.396613 0.297556
v -0.703253 0.394407 0.298530
v -0.696201 0.390849 0.310352
v -0.697070 0.391288 0.315249
v -0.699547 0.392537 0.319401
v -0.703253 0.394407 0.322175
v -0.707625 0.396613 0.323149
v -0.711997 0.398819 0.322175
v -0.715704 0.400689 0.319401
v -0.718180 0.401938 0.315249
v -0.719050 0.402377 0.310352
v -0.718180 0.401938 0.305456
v -0.715704 0.400689 0.301304
v -0.711997 0.398819 0.298530
v -0.760982 0.279983 0.298530
v -0.753930 0.276424 0.310352
v -0.754799 0.276863 0.315249
v -0.757276 0.278113 0.319401
v -0.760982 0.279983 0.322175
v -0.765354 0.282188 0.323149
v -0.769726 0.284394 0.322175
v -0.773433 0.286264 0.319401
v -0.775909 0.287513 0.315249
v -0.776779 0.287952 0.310352
v -0.775909 0.287513 0.305456
v -0.773433 0.286264 0.301304
v -0.769726 0.284394 0.298530
v -0.765354 0.282188 0.297556
v -0.790542 0.232264 0.285352
v -0.782001 0.227954 0.287255
v -0.673896 0.442228 0.287255
v -0.682437 0.446538 0.285352
v -0.774759 0.224301 0.292675
v -0.666655 0.438575 0.292675
v -0.661816 0.436134 0.300785
v -0.660117 0.435277 0.310352
v -0.769921 0.221860 0.319920
v -0.661816 0.436134 0.319920
v -0.774759 0.224301 0.328030
v -0.666655 0.438575 0.328030
v -0.782001 0.227954 0.333449
v -0.673896 0.442228 0.333449
v -0.790542 0.232264 0.335352
v -0.682437 0.446538 0.335352
v -0.799084 0.236573 0.333449
v -0.690979 0.450847 0.333449
v -0.806325 0.240226 0.328030
v -0.698220 0.454500 0.328030
v -0.811163 0.242667 0.319920
v -0.703059 0.456941 0.319920
v -0.812863 0.243525 0.310352
v -0.704758 0.457799 0.310352
v -0.802749 0.238422 0.286223
v -0.689607 0.450155 0.284694
v -0.799084 0.236573 0.287255
v -0.690979 0.450847 0.287255
v -0.794817 0.223792 0.293608
v -0.789095 0.220905 0.294882
v -0.672442 0.452123 0.294882
v -0.678163 0.455010 0.293608
v -0.784245 0.218458 0.298512
v -0.667592 0.449676 0.298512
v -0.664351 0.448041 0.303944
v -0.779867 0.216249 0.310352
v -0.663213 0.447467 0.310352
v -0.781005 0.216823 0.316760
v -0.664351 0.448041 0.316760
v -0.784245 0.218458 0.322193
v -0.667592 0.449676 0.322193
v -0.789095 0.220905 0.325823
v -0.672442 0.452123 0.325823
v -0.794817 0.223792 0.327097
v -0.678163 0.455010 0.327097
v -0.800538 0.226678 0.325823
v -0.683884 0.457896 0.325823
v -0.805388 0.229125 0.322193
v -0.688734 0.460343 0.322193
v -0.808628 0.230760 0.316760
v -0.691975 0.461978 0.316760
v -0.809766 0.231334 0.310352
v -0.693113 0.462552 0.310352
v -0.808628 0.230760 0.303944
v -0.691975 0.461978 0.303944
v -0.805388 0.229125 0.298512
v -0.688734 0.460343 0.298512
v -0.800538 0.226678 0.294882
v -0.683884 0.457896 0.294882
v -0.794817 0.223792 0.290236
v -0.787944 0.220324 0.291768
v -0.671290 0.451542 0.291768
v -0.678163 0.455010 0.290236
v -0.782117 0.217384 0.296128
v -0.665464 0.448603 0.296128
v -0.661570 0.446638 0.302654
v -0.660203 0.445949 0.310352
v -0.778224 0.215420 0.318051
v -0.661570 0.446638 0.318051
v -0.782117 0.217384 0.324577
v -0.665464 0.448603 0.324577
v -0.787944 0.220324 0.328937
v -0.671290 0.451542 0.328937
v -0.794817 0.223792 0.330469
v -0.678163 0.455010 0.330469
v -0.801690 0.227259 0.328937
v -0.685036 0.458477 0.328937
v -0.807516 0.230199 0.324577
v -0.690863 0.461417 0.324577
v -0.811409 0.232163 0.318051
v -0.694756 0.463381 0.318051
v -0.812776 0.232853 0.310352
v -0.696123 0.464071 0.310352
v -0.811409 0.232163 0.302654
v -0.694756 0.463381 0.302654
v -0.807516 0.230199 0.296128
v -0.690863 0.461417 0.296128
v -0.801690 0.227259 0.291768
v -0.685036 0.458477 0.291768
v -0.799094 0.215313 0.290236
v -0.792221 0.211846 0.291768
v -0.667013 0.460020 0.291768
v -0.673886 0.463488 0.290236
v -0.786394 0.208906 0.296128
v -0.661186 0.457081 0.296128
v -0.782501 0.206942 0.302654
v -0.657293 0.455117 0.302654
v -0.781134 0.206252 0.310352
v -0.655926 0.454427 0.310352
v -0.782501 0.206942 0.318051
v -0.657293 0.455117 0.318051
v -0.786394 0.208906 0.324577
v -0.661186 0.457081 0.324577
v -0.792221 0.211846 0.328937
v -0.667013 0.460020 0.328937
v -0.799094 0.215313 0.330469
v -0.673886 0.463488 0.330469
v -0.805967 0.218781 0.328937
v -0.680759 0.466955 0.328937
v -0.811793 0.221721 0.324577
v -0.686585 0.469895 0.324577
v -0.815687 0.223685 0.318051
v -0.690479 0.471859 0.318051
v -0.817054 0.224374 0.310352
v -0.691846 0.472549 0.310352
v -0.815687 0.223685 0.302654
v -0.690479 0.471859 0.302654
v -0.811793 0.221721 0.296128
v -0.686585 0.469895 0.296128
v -0.805967 0.218781 0.291768
v -0.680759 0.466955 0.291768
v -0.804031 0.239069 0.287762
v -0.694718 0.452734 0.274239
v -0.778844 0.288994 0.287762
v -0.719906 0.402809 0.274239
v -0.835349 0.255100 0.200087
v -0.735396 0.472943 0.168368
v -0.810347 0.304657 0.193314
v -0.760332 0.423518 0.176260
v -0.854012 0.264285 0.091259
v -0.845232 0.287696 0.066550
v -0.853720 0.267868 0.078905
v -0.850506 0.276437 0.069861
v -0.757082 0.456357 0.066550
v -0.743470 0.477330 0.091259
v -0.751160 0.467289 0.069861
v -0.746178 0.474966 0.078905
v -0.842436 0.293237 0.066550
v -0.828824 0.314210 0.091259
v -0.836514 0.304170 0.069861
v -0.831532 0.311846 0.078905
v -0.768658 0.427405 0.091259
v -0.759878 0.450815 0.066550
v -0.768366 0.430988 0.078905
v -0.765152 0.439556 0.069861
v -0.725732 0.412001 0.300785
v -0.725099 0.405429 0.295509
v -0.723642 0.404694 0.302922
v -0.729219 0.407507 0.306260
v -0.782828 0.291004 0.295509
v -0.788490 0.287608 0.300785
v -0.786948 0.293083 0.306260
v -0.781371 0.290269 0.302922
v -0.808649 0.247651 0.300785
v -0.808016 0.241079 0.295509
v -0.806559 0.240344 0.302922
v -0.812136 0.243158 0.306260
v -0.699911 0.455353 0.295509
v -0.705573 0.451958 0.300785
v -0.704031 0.457432 0.306260
v -0.698454 0.454618 0.302922
v -0.789883 0.294563 0.288202
v -0.797467 0.292137 0.288824
v -0.817626 0.252180 0.288824
v -0.815070 0.244638 0.288202
v -0.708550 0.459712 0.274679
v -0.716135 0.457286 0.275301
v -0.736294 0.417329 0.275301
v -0.733738 0.409787 0.274679
v -0.820651 0.309770 0.194151
v -0.828158 0.307450 0.195497
v -0.848143 0.267838 0.201367
v -0.845621 0.260277 0.201485
v -0.740314 0.475472 0.170086
v -0.747829 0.473138 0.171369
v -0.767843 0.433467 0.176716
v -0.765322 0.425905 0.176768
v -0.839480 0.313334 0.093051
v -0.832006 0.315815 0.091703
v -0.850438 0.296451 0.073161
v -0.845644 0.294856 0.066998
v -0.841719 0.311380 0.082839
v -0.834727 0.313458 0.079351
v -0.845543 0.305488 0.075898
v -0.839718 0.305786 0.070308
v -0.852571 0.292222 0.073161
v -0.848440 0.289314 0.066998
v -0.859639 0.273377 0.093051
v -0.857194 0.265890 0.091703
v -0.856931 0.282915 0.075898
v -0.853710 0.278053 0.070308
v -0.859398 0.276338 0.082839
v -0.856915 0.269480 0.079351
v -0.757073 0.477940 0.093051
v -0.749599 0.480422 0.091703
v -0.768031 0.461058 0.073161
v -0.763237 0.459462 0.066998
v -0.759312 0.475986 0.082839
v -0.752320 0.478065 0.079351
v -0.763135 0.470095 0.075898
v -0.757311 0.470393 0.070308
v -0.770164 0.456828 0.073161
v -0.766033 0.453921 0.066998
v -0.777232 0.437983 0.093051
v -0.774786 0.430497 0.091703
v -0.774524 0.447521 0.075898
v -0.771303 0.442659 0.070308
v -0.776991 0.440945 0.082839
v -0.774508 0.434086 0.079351
v -0.816605 0.342171 -0.009000
v -0.812548 0.350211 -0.024598
v -0.805522 0.364137 -0.033604
v -0.797409 0.380218 -0.033604
v -0.790383 0.394144 -0.024598
v -0.786327 0.402185 -0.009000
v -0.786327 0.402185 0.009012
v -0.790383 0.394144 0.024610
v -0.797409 0.380218 0.033616
v -0.805522 0.364137 0.033616
v -0.812548 0.350211 0.024610
v -0.816605 0.342171 0.009012
v -0.832193 0.350035 -0.009000
v -0.828136 0.358075 -0.024598
v -0.821110 0.372002 -0.033604
v -0.812997 0.388082 -0.033604
v -0.805971 0.402009 -0.024598
v -0.801915 0.410049 -0.009000
v -0.801915 0.410049 0.009012
v -0.805971 0.402009 0.024610
v -0.812997 0.388082 0.033616
v -0.821110 0.372002 0.033616
v -0.828136 0.358075 0.024610
v -0.832193 0.350035 0.009012
v -0.821391 0.371445 -0.002574
v -0.820229 0.373749 -0.007043
v -0.818216 0.377739 -0.009623
v -0.815891 0.382345 -0.009623
v -0.813878 0.386335 -0.007043
v -0.812716 0.388639 -0.002574
v -0.812716 0.388639 0.002586
v -0.813878 0.386335 0.007055
v -0.815891 0.382345 0.009635
v -0.818216 0.377739 0.009635
v -0.820229 0.373749 0.007055
v -0.821391 0.371445 0.002586
v -0.859649 0.390747 -0.002574
v -0.858487 0.393051 -0.007043
v -0.856474 0.397041 -0.009623
v -0.854150 0.401648 -0.009623
v -0.852137 0.405637 -0.007043
v -0.850975 0.407941 -0.002574
v -0.850975 0.407941 0.002586
v -0.852137 0.405637 0.007055
v -0.854150 0.401648 0.009635
v -0.856474 0.397041 0.009635
v -0.858487 0.393051 0.007055
v -0.859649 0.390747 0.002586
v -0.862608 0.395074 -0.001896
v -0.861752 0.396773 -0.005191
v -0.860268 0.399714 -0.007093
v -0.858554 0.403110 -0.007093
v -0.857070 0.406052 -0.005191
v -0.856214 0.407750 -0.001896
v -0.856214 0.407750 0.001908
v -0.857070 0.406052 0.005202
v -0.858554 0.403110 0.007104
v -0.860268 0.399714 0.007104
v -0.861752 0.396773 0.005202
v -0.862608 0.395074 0.001908
v -0.827084 0.367998 0.000006
v -0.860252 0.384731 0.000006
v -0.826162 0.369824 -0.007630
v -0.859330 0.386558 -0.007630
v -0.823644 0.374815 -0.013219
v -0.856812 0.391549 -0.013219
v -0.820205 0.381632 -0.015265
v -0.853373 0.398366 -0.015265
v -0.816766 0.388449 -0.013219
v -0.886110 0.302077 0.100719
v -0.881866 0.302280 0.098626
v -0.849934 0.405183 -0.013219
v -0.814248 0.393440 -0.007630
v -0.887898 0.300923 0.098883
v -0.847416 0.410173 -0.007630
v -0.885453 0.299962 0.094941
v -0.890558 0.301413 0.098122
v -0.813326 0.395266 0.000006
v -0.846494 0.412000 0.000006
v -0.890794 0.300947 0.093414
v -0.814248 0.393440 0.007642
v -0.892534 0.303262 0.098883
v -0.847416 0.410173 0.007642
v -0.894759 0.304658 0.094941
v -0.816766 0.388449 0.013231
v -0.892667 0.305386 0.100719
v -0.849934 0.405183 0.013231
v -0.895027 0.308920 0.098626
v -0.890880 0.306540 0.102555
v -0.820205 0.381632 0.015277
v -0.891439 0.311238 0.102311
v -0.853373 0.398366 0.015277
v -0.888219 0.306050 0.103316
v -0.823644 0.374815 0.013231
v -0.856812 0.391549 0.013231
v -0.886099 0.310253 0.103838
v -0.826162 0.369824 0.007642
v -0.886244 0.304201 0.102555
v -0.859330 0.386558 0.007642
v -0.882133 0.306543 0.102311
v -0.843668 0.376364 0.000006
v -0.880685 0.303639 0.096881
v -0.842746 0.378191 -0.007630
v -0.884487 0.301182 0.092974
v -0.880968 0.308158 0.100787
v -0.840228 0.383182 -0.013219
v -0.836789 0.389999 -0.015265
v -0.890148 0.302226 0.091356
v -0.894352 0.306159 0.092974
v -0.833350 0.396816 -0.013219
v -0.894635 0.310678 0.096881
v -0.830832 0.401807 -0.007630
v -0.890833 0.313134 0.100787
v -0.829910 0.403633 0.000006
v -0.830832 0.401807 0.007642
v -0.885172 0.312091 0.102405
v -0.833350 0.396816 0.013231
v -0.836789 0.389999 0.015277
v -0.837860 0.381987 0.013231
v -0.842746 0.378191 0.007642
v -0.889231 0.256927 0.000006
v -0.884596 0.257903 0.000006
v -0.890191 0.257411 -0.002591
v -0.886523 0.258876 -0.005206
v -0.892510 0.258581 -0.003666
v -0.891176 0.261223 -0.007365
v -0.894828 0.259750 -0.002591
v -0.895829 0.263571 -0.005206
v -0.895788 0.260235 0.000006
v -0.897757 0.264543 0.000006
v -0.894828 0.259750 0.002602
v -0.895829 0.263571 0.005218
v -0.892510 0.258581 0.003678
v -0.891176 0.261223 0.007376
v -0.890191 0.257411 0.002602
v -0.886523 0.258876 0.005218
v -0.883089 0.259908 0.000006
v -0.885132 0.260939 -0.005519
v -0.885132 0.260939 0.005530
v -0.890064 0.263427 -0.007807
v -0.894997 0.265915 -0.005519
v -0.897040 0.266946 0.000006
v -0.894997 0.265915 0.005530
v -0.890064 0.263427 0.007819
v -0.843508 0.383386 0.015194
v -0.846810 0.388154 0.015936
v -0.852606 0.387976 0.015194
v -0.855742 0.385838 0.012258
v -0.843365 0.379594 0.012258
v -0.846327 0.377800 0.008937
v -0.855425 0.382390 0.008937
v -0.851210 0.379432 0.006167
v -0.835421 0.371736 0.006919
v -0.840034 0.373457 0.004899
v -0.831296 0.369048 0.004899
v -0.830060 0.366957 0.000006
v -0.842450 0.373207 0.000006
v -0.840034 0.373457 -0.004888
v -0.831296 0.369048 -0.004888
v -0.835421 0.371736 -0.006907
v -0.834297 0.373928 -0.007630
v -0.834425 0.373993 0.007642
v -0.850844 0.379985 0.000006
v -0.844095 0.393685 0.015277
v -0.839808 0.379808 0.010408
v -0.832434 0.361281 0.000006
v -0.843375 0.367535 -0.005203
v -0.845604 0.367925 0.000006
v -0.834073 0.362842 -0.005203
v -0.838602 0.365430 -0.007357
v -0.834073 0.362842 0.005215
v -0.843375 0.367535 0.005215
v -0.838602 0.365430 0.007369
v -0.856981 0.383499 0.014905
v -0.853805 0.385656 0.017900
v -0.848017 0.385760 0.018696
v -0.856666 0.379985 0.011548
v -0.852452 0.376968 0.008848
v -0.847522 0.375371 0.011548
v -0.844508 0.377206 0.014905
v -0.844660 0.381042 0.017900
v -0.751789 0.428529 -0.181507
v -0.750473 0.427865 -0.188350
v -0.752545 0.422121 -0.191772
v -0.755934 0.417041 -0.188350
v -0.757250 0.417705 -0.181507
v -0.755177 0.423449 -0.178086
v -0.759617 0.432733 -0.183420
v -0.758302 0.432069 -0.190264
v -0.760393 0.426334 -0.193690
v -0.763800 0.421263 -0.190272
v -0.765115 0.421926 -0.183429
v -0.763024 0.427662 -0.180003
v -0.770034 0.437723 -0.185907
v -0.768718 0.437059 -0.192751
v -0.770189 0.431053 -0.196031
v -0.772976 0.425711 -0.192468
v -0.774292 0.426375 -0.185625
v -0.772821 0.432381 -0.182345
v -0.781698 0.440466 -0.188416
v -0.780382 0.439802 -0.195260
v -0.779274 0.433461 -0.198012
v -0.779482 0.427785 -0.193921
v -0.780797 0.428449 -0.187078
v -0.781906 0.434789 -0.184325
v -0.791020 0.436076 -0.189783
v -0.789704 0.435412 -0.196626
v -0.784987 0.430741 -0.198846
v -0.781586 0.426734 -0.194223
v -0.782901 0.427398 -0.187380
v -0.787618 0.432069 -0.185160
v -0.803813 0.412478 -0.189954
v -0.802497 0.411814 -0.196797
v -0.796615 0.408684 -0.198942
v -0.792048 0.406218 -0.194245
v -0.793364 0.406882 -0.187402
v -0.799246 0.410012 -0.185256
v -0.820024 0.382523 -0.190165
v -0.818708 0.381859 -0.197008
v -0.812842 0.378700 -0.199154
v -0.808291 0.376205 -0.194456
v -0.809607 0.376868 -0.187613
v -0.815474 0.380028 -0.185468
v -0.836368 0.352310 -0.190377
v -0.835052 0.351646 -0.197220
v -0.829169 0.348518 -0.199365
v -0.824602 0.346054 -0.194668
v -0.825918 0.346717 -0.187825
v -0.831801 0.349846 -0.185679
v -0.848875 0.328096 -0.190433
v -0.847560 0.327432 -0.197276
v -0.841096 0.325868 -0.199461
v -0.835949 0.324967 -0.194804
v -0.837264 0.325631 -0.187961
v -0.843728 0.327195 -0.185775
v -0.848195 0.317045 -0.189230
v -0.846879 0.316381 -0.196073
v -0.840760 0.318555 -0.198687
v -0.835957 0.321393 -0.194459
v -0.837273 0.322057 -0.187616
v -0.843392 0.319883 -0.185001
v -0.839829 0.308016 -0.186745
v -0.838513 0.307352 -0.193588
v -0.834129 0.311795 -0.196757
v -0.831061 0.316902 -0.193082
v -0.832377 0.317566 -0.186239
v -0.836761 0.313123 -0.183070
v -0.829103 0.301427 -0.184043
v -0.827787 0.300763 -0.190887
v -0.824184 0.305730 -0.194256
v -0.821896 0.311360 -0.190782
v -0.823212 0.312024 -0.183939
v -0.826816 0.307057 -0.180570
v -0.818611 0.296082 -0.181507
v -0.817295 0.295418 -0.188350
v -0.813906 0.300498 -0.191772
v -0.811834 0.306242 -0.188350
v -0.813149 0.306906 -0.181507
v -0.816538 0.301826 -0.178086
vn -0.2615 0.1409 -0.9549
vn -0.2606 0.1426 -0.9549
vn -0.3607 -0.0461 -0.9315
vn -0.3674 -0.0585 -0.9282
vn -0.8924 0.4512 -0.0000
vn -0.8863 0.4482 0.1167
vn -0.8751 0.4509 0.1758
vn -0.8753 0.4509 0.1750
vn -0.4700 -0.2474 -0.8472
vn -0.4591 -0.2276 -0.8587
vn -0.5635 -0.4150 -0.7143
vn -0.5728 -0.4321 -0.6966
vn -0.5728 -0.4321 0.6966
vn -0.5635 -0.4150 0.7143
vn -0.4591 -0.2276 0.8587
vn -0.4700 -0.2474 0.8472
vn 0.0981 0.8563 0.5071
vn 0.0907 0.8411 0.5332
vn 0.1428 0.9470 0.2876
vn 0.1450 0.9516 0.2709
vn -0.6505 -0.5755 0.4956
vn -0.6470 -0.5692 0.5073
vn -0.8317 0.4504 0.3248
vn -0.8317 0.4504 -0.3248
vn -0.8751 0.4509 -0.1758
vn -0.8753 0.4509 -0.1750
vn -0.6986 -0.6617 0.2723
vn -0.6962 -0.6576 0.2877
vn -0.0602 0.5321 0.8445
vn -0.0694 0.5139 0.8550
vn 0.0146 0.6832 0.7301
vn 0.0254 0.7053 0.7085
vn -0.0602 0.5321 -0.8445
vn -0.0694 0.5139 -0.8550
vn -0.1620 0.3321 -0.9292
vn -0.1572 0.3414 -0.9267
vn 0.0254 0.7053 -0.7085
vn 0.0146 0.6832 -0.7301
vn -0.7193 -0.6947 -0.0000
vn -0.1572 0.3414 0.9267
vn -0.1620 0.3321 0.9292
vn 0.0981 0.8563 -0.5071
vn 0.0907 0.8411 -0.5332
vn -0.6986 -0.6617 -0.2723
vn -0.6962 -0.6576 -0.2877
vn -0.2615 0.1409 0.9549
vn -0.2606 0.1426 0.9549
vn -0.8863 0.4482 -0.1167
vn -0.6505 -0.5755 -0.4956
vn -0.6470 -0.5692 -0.5073
vn -0.3674 -0.0585 0.9282
vn -0.3607 -0.0461 0.9315
vn 0.1604 0.9871 -0.0000
vn 0.1428 0.9470 -0.2876
vn 0.1450 0.9516 -0.2709
vn 0.1142 0.2263 -0.9674
vn 0.0012 0.0023 -1.0000
vn -0.0011 -0.0021 -1.0000
vn 0.1189 0.2356 -0.9646
vn 0.2232 0.4424 -0.8686
vn 0.2336 0.4631 -0.8550
vn 0.3142 0.6228 -0.7166
vn 0.3243 0.6428 -0.6940
vn 0.3854 0.7639 -0.5176
vn 0.3923 0.7776 -0.4914
vn 0.4340 0.8602 -0.2679
vn 0.4362 0.8645 -0.2498
vn 0.4504 0.8928 -0.0000
vn 0.4340 0.8602 0.2679
vn 0.4362 0.8645 0.2498
vn 0.3854 0.7639 0.5176
vn 0.3923 0.7776 0.4914
vn 0.3142 0.6228 0.7166
vn 0.3243 0.6428 0.6940
vn 0.2232 0.4424 0.8686
vn 0.2336 0.4631 0.8550
vn 0.1142 0.2263 0.9674
vn 0.1189 0.2356 0.9646
vn 0.0011 0.0023 1.0000
vn -0.0011 -0.0021 1.0000
vn -0.1135 -0.2249 0.9678
vn -0.1225 -0.2428 0.9623
vn -0.2194 -0.4350 0.8733
vn -0.2317 -0.4593 0.8575
vn -0.3136 -0.6216 0.7179
vn -0.3224 -0.6389 0.6985
vn -0.3882 -0.7694 0.5073
vn -0.3920 -0.7769 0.4927
vn -0.4340 -0.8602 0.2679
vn -0.4362 -0.8645 0.2497
vn -0.4504 -0.8928 -0.0000
vn -0.4340 -0.8602 -0.2679
vn -0.4362 -0.8645 -0.2497
vn -0.3882 -0.7694 -0.5073
vn -0.3920 -0.7769 -0.4927
vn -0.3136 -0.6216 -0.7179
vn -0.3224 -0.6389 -0.6985
vn -0.2194 -0.4350 -0.8733
vn -0.2317 -0.4593 -0.8575
vn -0.1135 -0.2249 -0.9678
vn -0.1225 -0.2428 -0.9623
vn -0.8370 0.4542 -0.3051
vn -0.8319 0.4639 -0.3045
vn -0.8322 0.4633 -0.3046
vn -0.8371 0.4540 -0.3051
vn -0.8294 0.4689 -0.3036
vn -0.8295 0.4688 -0.3036
vn -0.8756 0.4278 -0.2242
vn -0.8668 0.4368 -0.2408
vn -0.9087 0.3886 -0.1524
vn -0.9086 0.3887 -0.1525
vn -0.9137 0.3834 -0.1349
vn -0.9137 0.3834 -0.1350
vn -0.9230 0.3848 -0.0000
vn -0.9137 0.3834 0.1349
vn -0.9137 0.3834 0.1350
vn -0.9087 0.3886 0.1524
vn -0.9086 0.3887 0.1525
vn -0.8756 0.4278 0.2242
vn -0.8668 0.4368 0.2408
vn -0.8294 0.4689 0.3036
vn -0.8295 0.4688 0.3036
vn -0.8319 0.4639 0.3045
vn -0.8322 0.4633 0.3046
vn -0.8370 0.4542 0.3051
vn -0.8371 0.4540 0.3051
vn -0.8416 0.4445 0.3069
vn -0.8414 0.4448 0.3068
vn -0.8482 0.4337 0.3040
vn -0.8477 0.4344 0.3046
vn -0.8523 0.4314 0.2958
vn -0.8523 0.4313 0.2959
vn -0.8535 0.4771 0.2095
vn -0.8538 0.4683 0.2274
vn -0.8495 0.5100 0.1355
vn -0.8495 0.5100 0.1353
vn -0.8560 0.5169 -0.0000
vn -0.8495 0.5100 -0.1355
vn -0.8495 0.5100 -0.1353
vn -0.8535 0.4771 -0.2095
vn -0.8538 0.4683 -0.2274
vn -0.8523 0.4314 -0.2958
vn -0.8523 0.4313 -0.2959
vn -0.8482 0.4337 -0.3040
vn -0.8476 0.4344 -0.3046
vn -0.8416 0.4445 -0.3069
vn -0.8414 0.4448 -0.3068
vn 0.8757 -0.4418 0.1951
vn 0.8248 -0.4161 0.3827
vn 0.6313 -0.3185 0.7071
vn 0.3417 -0.1724 0.9239
vn -0.0000 -0.0000 1.0000
vn -0.3417 0.1724 0.9239
vn -0.6313 0.3185 0.7071
vn -0.8248 0.4161 0.3827
vn -0.8928 0.4504 -0.0000
vn -0.6406 -0.7616 -0.0983
vn -0.6210 -0.7789 -0.0874
vn -0.6834 0.3448 0.6435
vn -0.7645 0.3990 0.5063
vn -0.7645 0.3990 0.5064
vn -0.8248 0.4161 -0.3827
vn -0.8757 0.4418 -0.1951
vn 0.1963 0.9762 0.0924
vn 0.2575 0.9623 -0.0874
vn -0.7234 -0.6883 0.0535
vn -0.4475 -0.8943 -0.0028
vn -0.4487 -0.8937 -0.0016
vn 0.7423 -0.3745 0.5556
vn 0.8756 -0.4418 0.1951
vn -0.8249 0.4161 0.3827
vn -0.8248 0.4162 -0.3827
vn -0.6313 0.3185 -0.7071
vn -0.4960 0.2503 -0.8315
vn 0.4494 0.8933 -0.0005
vn 0.4484 0.8938 -0.0010
vn -0.6406 -0.7616 -0.0982
vn -0.6685 -0.7380 0.0924
vn -0.4504 -0.8928 -0.0017
vn -0.4504 -0.8928 -0.0008
vn 0.1237 0.9909 0.0535
vn 0.4510 0.8925 -0.0011
vn 0.4514 0.8923 -0.0019
vn 0.2319 0.9678 -0.0982
vn -0.8624 0.4514 0.2289
vn -0.8576 0.4505 0.2481
vn -0.0000 -0.0000 -1.0000
vn 0.3417 -0.1724 -0.9239
vn -0.3417 0.1724 -0.9239
vn 0.4960 -0.2502 -0.8315
vn 0.6313 -0.3185 -0.7071
vn 0.8248 -0.4161 -0.3827
vn -0.8248 0.4162 0.3827
vn 0.8928 -0.4504 -0.0000
vn 0.1742 -0.0879 -0.9808
vn -0.8834 0.4534 0.1187
vn -0.4440 -0.8960 -0.0018
vn -0.4436 -0.8962 -0.0012
vn -0.4500 -0.8829 -0.1339
vn -0.4498 -0.8842 -0.1261
vn 0.4530 0.8915 -0.0001
vn 0.4529 0.8916 -0.0003
vn -0.4502 -0.8929 -0.0001
vn -0.4502 -0.8929 -0.0005
vn -0.8227 0.4262 0.3761
vn -0.8649 0.4506 0.2211
vn -0.8613 0.4499 0.2363
vn 0.4469 0.8946 0.0006
vn 0.4468 0.8947 0.0012
vn -0.4608 -0.8783 -0.1278
vn -0.4607 -0.8785 -0.1266
vn -0.8829 0.4527 0.1246
vn 0.4414 0.8886 -0.1249
vn 0.4403 0.8879 -0.1337
vn 0.4302 0.8937 -0.1274
vn 0.4305 0.8939 -0.1254
vn 0.3341 0.8002 -0.4980
vn 0.3355 0.8018 -0.4945
vn 0.1765 0.4741 -0.8626
vn 0.1734 0.4685 -0.8663
vn 0.3593 0.7849 -0.5049
vn 0.3628 0.7903 -0.4938
vn 0.1290 0.4937 -0.8600
vn 0.1300 0.4955 -0.8588
vn -0.4456 -0.7463 -0.4945
vn -0.4451 -0.7442 -0.4980
vn -0.3213 -0.3990 -0.8588
vn -0.3205 -0.3971 -0.8600
vn -0.1159 -0.0870 -0.9894
vn 0.0011 0.1449 -0.9894
vn 0.0016 0.1458 -0.9893
vn -0.1163 -0.0879 -0.9893
vn -0.2765 -0.4237 -0.8626
vn -0.2738 -0.4179 -0.8663
vn -0.0508 0.1716 -0.9839
vn -0.0507 0.1719 -0.9838
vn -0.1684 -0.0614 -0.9838
vn -0.1682 -0.0611 -0.9839
vn -0.4178 -0.7553 -0.5049
vn -0.4200 -0.7614 -0.4938
vn -0.9365 -0.3490 -0.0344
vn -0.2321 0.9692 0.0819
vn -0.9175 -0.3892 0.0819
vn -0.2757 0.9606 -0.0344
vn -0.9077 -0.3224 0.2686
vn -0.9049 -0.3238 0.2763
vn -0.2676 0.9256 0.2678
vn -0.2676 0.9283 0.2581
vn -0.2023 0.8971 0.3928
vn -0.2231 0.9126 0.3427
vn -0.8420 -0.3585 0.4031
vn -0.8682 -0.3449 0.3568
vn -0.9346 -0.3193 0.1570
vn -0.9316 -0.3191 0.1739
vn -0.9339 -0.3184 0.1626
vn -0.9300 -0.3181 0.1842
vn -0.2771 0.9468 0.1633
vn -0.2771 0.9468 0.1636
vn -0.2790 0.9470 0.1590
vn -0.2791 0.9471 0.1586
vn -0.8511 0.0378 -0.5236
vn -0.7368 0.2682 -0.6206
vn -0.8512 0.0378 -0.5235
vn -0.9412 -0.2038 -0.2694
vn -0.9412 -0.2039 -0.2693
vn -0.9519 -0.3061 -0.0115
vn -0.9519 -0.3061 -0.0113
vn -0.6535 0.4333 -0.6206
vn -0.5362 0.6621 -0.5236
vn -0.5362 0.6622 -0.5235
vn -0.3953 0.8781 -0.2694
vn -0.3953 0.8782 -0.2693
vn -0.3121 0.9500 -0.0069
vn -0.3119 0.9501 -0.0059
vn -0.3120 0.9500 -0.0097
vn -0.3119 0.9501 -0.0091
vn -0.9519 -0.3064 -0.0094
vn -0.9518 -0.3065 -0.0088
vn -0.8098 0.4086 0.4210
vn -0.3185 -0.6313 0.7071
vn -0.1166 -0.2311 0.9659
vn 0.4351 0.8624 -0.2588
vn 0.4351 0.8624 0.2588
vn 0.1166 0.2311 -0.9659
vn -0.1166 -0.2311 -0.9659
vn 0.3185 0.6313 0.7071
vn -0.4351 -0.8624 0.2588
vn 0.3185 0.6313 -0.7071
vn -0.4351 -0.8624 -0.2588
vn 0.1166 0.2311 0.9659
vn -0.3185 -0.6313 -0.7071
vn -0.8204 -0.5258 -0.2248
vn -0.8204 -0.5258 0.2248
vn -0.3412 0.4239 -0.8390
vn -0.1658 0.7716 -0.6142
vn -0.7191 -0.3251 -0.6142
vn -0.1658 0.7716 0.6142
vn -0.3412 0.4239 0.8390
vn -0.0646 0.9723 -0.2248
vn -0.5437 0.0225 0.8390
vn -0.5437 0.0225 -0.8390
vn -0.0646 0.9723 0.2248
vn -0.7191 -0.3251 0.6142
vn -0.7286 -0.6830 -0.0517
vn -0.4455 -0.8835 -0.1449
vn -0.5132 -0.8543 -0.0826
vn -0.3901 -0.7732 -0.5000
vn -0.4366 -0.6993 -0.5659
vn -0.2252 -0.4464 -0.8660
vn 0.2252 0.4464 -0.8660
vn 0.3901 0.7732 -0.5000
vn 0.3901 0.7732 0.5000
vn 0.2252 0.4464 0.8660
vn -0.0199 0.1077 0.9940
vn 0.0379 0.1280 0.9911
vn 0.0782 0.0397 0.9961
vn -0.0239 -0.4846 0.8744
vn 0.5687 -0.1178 0.8141
vn -0.4409 -0.1385 0.8868
vn -0.9203 0.0272 0.3902
vn -0.3945 0.3845 0.8346
vn -0.1003 -0.8891 0.4466
vn -0.0595 -0.7583 0.6491
vn 0.5934 -0.7443 0.3064
vn 0.2006 -0.9623 -0.1839
vn -0.7637 -0.5157 0.3883
vn -0.8528 -0.4986 -0.1554
vn -0.2252 -0.4464 0.8660
vn -0.3081 -0.5406 0.7828
vn -0.1976 -0.7540 0.6265
vn -0.2275 -0.7612 -0.6072
vn -0.2668 -0.5296 -0.8052
vn -0.9996 0.0281 -0.0000
vn 0.8301 0.0701 0.5531
vn 0.6011 -0.1885 0.7766
vn 0.6330 -0.6969 0.3370
vn 0.8633 -0.5013 0.0587
vn -0.3438 -0.6814 -0.6461
vn -0.4318 -0.8559 -0.2845
vn -0.9048 -0.4134 -0.1025
vn -0.8827 -0.1743 -0.4365
vn -0.9367 0.0950 0.3370
vn -0.9162 0.3964 0.0588
vn -0.5088 0.3715 0.7766
vn -0.4369 0.7093 0.5532
vn 0.1282 0.2541 0.9587
vn 0.2910 0.5768 0.7632
vn 0.2052 -0.9733 -0.1025
vn 0.3843 -0.8135 -0.4365
vn 0.0656 -0.7589 0.6479
vn -0.1293 -0.8848 0.4477
vn -0.4194 -0.8313 0.3648
vn -0.6348 -0.6297 0.4477
vn -0.6493 -0.3981 0.6479
vn -0.4545 -0.2722 0.8482
vn -0.1643 -0.3257 0.9311
vn 0.0511 -0.5273 0.8482
vn 0.4278 -0.7546 -0.4975
vn -0.3140 -0.6225 -0.7169
vn -0.4226 -0.8339 -0.3551
vn 0.8962 -0.4436 -0.0076
vn 0.3229 0.6400 0.6972
vn 0.8686 0.1190 0.4811
vn 0.1069 0.3135 0.9436
vn -0.4204 0.7692 0.4812
vn -0.8894 0.4570 -0.0074
vn -0.8612 -0.1045 -0.4974
vn 0.5908 -0.3929 0.7047
vn 0.3403 -0.7056 0.6216
vn 0.5701 -0.8215 -0.0000
vn 0.8514 -0.5245 -0.0000
vn -0.0382 -0.0756 -0.9964
vn -0.2147 -0.4256 -0.8791
vn -0.7697 -0.1456 -0.6216
vn -0.6671 0.2417 -0.7047
vn -0.9996 -0.0296 -0.0000
vn -0.9278 0.3732 -0.0000
vn -0.7697 -0.1456 0.6216
vn -0.6671 0.2417 0.7047
vn -0.2147 -0.4256 0.8791
vn -0.0382 -0.0756 0.9964
vn 0.3403 -0.7056 -0.6216
vn 0.5908 -0.3929 -0.7047
vn -0.0553 -0.9985 -0.0000
vn -0.1600 -0.9456 -0.2831
vn -0.4128 -0.8181 -0.4004
vn -0.6655 -0.6906 -0.2831
vn -0.7702 -0.6378 -0.0000
vn -0.6655 -0.6906 0.2831
vn -0.4128 -0.8181 0.4004
vn -0.1600 -0.9456 0.2831
vn 0.6489 -0.2875 -0.7045
vn 0.0157 0.0312 -0.9994
vn 0.2659 -0.6291 -0.7305
vn 0.7061 -0.7081 -0.0000
vn 0.9073 -0.4204 -0.0000
vn 0.0157 0.0312 0.9994
vn 0.6489 -0.2875 0.7045
vn -0.6165 0.3501 0.7052
vn -0.8774 0.4798 -0.0000
vn -0.6194 -0.2004 0.7591
vn -0.6165 0.3501 -0.7052
vn -0.6189 -0.2004 -0.7594
vn -0.0579 -0.1128 -0.9919
vn -0.1662 -0.1737 0.9707
vn 0.1878 -0.9822 -0.0000
vn 0.2780 -0.6211 0.7328
vn 0.3132 0.8095 0.4966
vn 0.2995 0.8210 0.4861
vn -0.1852 0.1010 0.9775
vn -0.1917 0.0879 0.9775
vn 0.5025 0.7140 -0.4875
vn 0.4863 0.7268 -0.4851
vn 0.1843 -0.1018 -0.9776
vn 0.1908 -0.0886 -0.9776
vn -0.3163 -0.8124 -0.4899
vn -0.2983 -0.8178 -0.4921
vn -0.5030 -0.7182 0.4808
vn -0.4872 -0.7225 0.4905
vn 0.2061 0.8687 0.4504
vn -0.1829 0.1238 0.9753
vn 0.3880 0.7769 -0.4958
vn 0.1929 -0.0658 -0.9790
vn -0.2236 -0.8488 -0.4791
vn -0.4141 -0.7527 0.5118
vn -0.1617 0.9219 0.3521
vn -0.1993 0.2025 0.9588
vn 0.0120 0.8343 -0.5512
vn 0.1744 0.0139 -0.9846
vn 0.1579 -0.8725 -0.4624
vn -0.0543 -0.7655 0.6412
vn -0.6757 0.6831 0.2772
vn -0.2526 0.1693 0.9526
vn -0.5017 0.5954 -0.6276
vn 0.1214 -0.0193 -0.9924
vn 0.6693 -0.6423 -0.3735
vn 0.4618 -0.5376 0.7055
vn -0.8390 0.4513 0.3038
vn -0.1853 0.0956 0.9780
vn -0.6520 0.3570 -0.6689
vn 0.1906 -0.0941 -0.9771
vn 0.8440 -0.4435 -0.3017
vn 0.6576 -0.3494 0.6674
vn -0.8381 0.4513 0.3065
vn -0.1880 0.0949 0.9776
vn -0.6501 0.3565 -0.6710
vn 0.1880 -0.0948 -0.9776
vn 0.8381 -0.4513 -0.3065
vn 0.6501 -0.3565 0.6711
vn -0.8428 0.4448 0.3032
vn -0.1900 0.0945 0.9772
vn -0.6559 0.3505 -0.6685
vn 0.1859 -0.0952 -0.9779
vn 0.8394 -0.4500 -0.3047
vn 0.6520 -0.3555 0.6697
vn -0.9368 0.2147 0.2762
vn -0.2693 0.1067 0.9571
vn -0.7614 0.1263 -0.6358
vn 0.1053 -0.0823 -0.9910
vn 0.9044 -0.2407 -0.3523
vn 0.7024 -0.1388 0.6981
vn -0.8876 -0.3185 0.3327
vn -0.2905 0.0487 0.9556
vn -0.7140 -0.4061 -0.5704
vn 0.0830 -0.1397 -0.9867
vn 0.8459 0.2857 -0.4503
vn 0.6308 0.3942 0.6683
vn -0.6384 -0.6380 0.4306
vn -0.2157 0.0685 0.9741
vn -0.4578 -0.7291 -0.5088
vn 0.1600 -0.1210 -0.9797
vn 0.6097 0.6402 -0.4673
vn 0.4177 0.7371 0.5312
vn -0.5164 -0.7122 0.4756
vn -0.1942 0.0847 0.9773
vn -0.3305 -0.8060 -0.4912
vn 0.1817 -0.1050 -0.9777
vn 0.5131 0.7073 -0.4862
vn 0.3234 0.8030 0.5006
vn -0.4870 -0.7247 0.4875
vn -0.1886 0.0939 0.9776
vn -0.2992 -0.8194 -0.4889
vn 0.1874 -0.0958 -0.9776
vn 0.4865 0.7243 -0.4886
vn 0.2984 0.8192 0.4897
vt 0.462769 0.877790
vt 0.462481 0.880877
vt 0.453193 0.878684
vt 0.454043 0.875660
vt 0.777995 0.149953
vt 0.828290 0.190608
vt 0.822101 0.196501
vt 0.814619 0.200594
vt 0.805894 0.202727
vt 0.770959 0.165912
vt 0.773555 0.157196
vt 0.446089 0.871041
vt 0.444607 0.873832
vt 0.437498 0.866550
vt 0.439641 0.864260
vt 0.442631 0.812610
vt 0.440854 0.810021
vt 0.449213 0.803840
vt 0.450250 0.806912
vt 0.498047 0.824599
vt 0.500774 0.822771
vt 0.504273 0.833022
vt 0.501024 0.833918
vt 0.436750 0.819570
vt 0.434209 0.817616
vt 0.797401 0.202727
vt 0.789078 0.200567
vt 0.781909 0.196324
vt 0.776235 0.190331
vt 0.772347 0.182875
vt 0.770642 0.174209
vt 0.817106 0.139768
vt 0.824155 0.144060
vt 0.829807 0.150180
vt 0.833664 0.157865
vt 0.835445 0.166170
vt 0.792124 0.139728
vt 0.800170 0.137679
vt 0.809001 0.137529
vt 0.432976 0.828229
vt 0.429998 0.827050
vt 0.486143 0.809088
vt 0.487624 0.806094
vt 0.495312 0.813397
vt 0.493185 0.815945
vt 0.480525 0.874744
vt 0.481427 0.877813
vt 0.472009 0.880711
vt 0.471741 0.877561
vt 0.488338 0.869442
vt 0.489916 0.872226
vt 0.431905 0.837548
vt 0.428668 0.837355
vt 0.477599 0.804634
vt 0.478429 0.801436
vt 0.494509 0.862036
vt 0.496797 0.864285
vt 0.431836 0.847137
vt 0.428668 0.847960
vt 0.468413 0.802826
vt 0.468642 0.799606
vt 0.835188 0.175147
vt 0.832754 0.183321
vt 0.784146 0.144094
vt 0.434612 0.856429
vt 0.431795 0.858082
vt 0.459106 0.803551
vt 0.458744 0.800320
vt 0.500832 0.843826
vt 0.504204 0.844153
vt 0.502117 0.855036
vt 0.499127 0.853550
vt 0.471182 0.875135
vt 0.463105 0.875388
vt 0.463194 0.874230
vt 0.471052 0.873938
vt 0.479156 0.872525
vt 0.478777 0.871360
vt 0.486416 0.867440
vt 0.485795 0.866386
vt 0.491860 0.860902
vt 0.490955 0.860049
vt 0.496219 0.852502
vt 0.495067 0.851949
vt 0.497959 0.843550
vt 0.496617 0.843422
vt 0.497946 0.834403
vt 0.496702 0.834734
vt 0.495181 0.825249
vt 0.494118 0.825942
vt 0.490862 0.817633
vt 0.490041 0.818595
vt 0.484341 0.811121
vt 0.483746 0.812249
vt 0.476595 0.807032
vt 0.476250 0.808240
vt 0.468344 0.805346
vt 0.468236 0.806548
vt 0.459916 0.806034
vt 0.460043 0.807268
vt 0.451764 0.809173
vt 0.452131 0.810345
vt 0.444818 0.814241
vt 0.445477 0.815231
vt 0.439197 0.821030
vt 0.440180 0.821774
vt 0.435855 0.828992
vt 0.436991 0.829446
vt 0.434704 0.837698
vt 0.436015 0.837760
vt 0.434852 0.846721
vt 0.436062 0.846399
vt 0.437283 0.855267
vt 0.438380 0.854639
vt 0.442091 0.862983
vt 0.442918 0.862107
vt 0.447909 0.869116
vt 0.448457 0.868052
vt 0.455208 0.873424
vt 0.455526 0.872269
vt 0.402162 0.913487
vt 0.408333 0.913487
vt 0.408333 0.914563
vt 0.402162 0.914563
vt 0.408333 0.915640
vt 0.402162 0.915640
vt 0.408333 0.916716
vt 0.402162 0.916716
vt 0.408333 0.917793
vt 0.402162 0.917793
vt 0.408333 0.918869
vt 0.402162 0.918869
vt 0.408333 0.919946
vt 0.402162 0.919946
vt 0.408333 0.921022
vt 0.402162 0.921022
vt 0.408333 0.922099
vt 0.402162 0.922099
vt 0.870686 0.781365
vt 0.870462 0.782523
vt 0.870171 0.782425
vt 0.869875 0.781951
vt 0.870103 0.781278
vt 0.489649 0.899816
vt 0.495153 0.899816
vt 0.494914 0.901622
vt 0.489909 0.901684
vt 0.969183 0.954859
vt 0.970276 0.954954
vt 0.969864 0.956204
vt 0.969271 0.956124
vt 0.118612 0.817391
vt 0.118595 0.818275
vt 0.117313 0.818153
vt 0.117360 0.817334
vt 0.869062 0.780896
vt 0.868167 0.781374
vt 0.867933 0.780598
vt 0.868941 0.780500
vt 0.869586 0.781078
vt 0.868131 0.781619
vt 0.408333 0.922559
vt 0.407717 0.923175
vt 0.402778 0.923175
vt 0.402162 0.922559
vt 0.870145 0.764981
vt 0.870770 0.765252
vt 0.870899 0.766002
vt 0.870344 0.766133
vt 0.869262 0.765080
vt 0.119497 0.789419
vt 0.117759 0.790098
vt 0.117643 0.787435
vt 0.119328 0.788023
vt 0.979343 0.230020
vt 0.973172 0.230020
vt 0.973172 0.228944
vt 0.979343 0.228944
vt 0.871258 0.781398
vt 0.871060 0.782608
vt 0.979343 0.231097
vt 0.973172 0.231097
vt 0.871841 0.781421
vt 0.871684 0.782679
vt 0.979343 0.232173
vt 0.973172 0.232173
vt 0.872433 0.781423
vt 0.872345 0.782733
vt 0.979343 0.233250
vt 0.973172 0.233250
vt 0.873023 0.781497
vt 0.873002 0.782764
vt 0.979343 0.234326
vt 0.973172 0.234326
vt 0.873613 0.781448
vt 0.873679 0.782764
vt 0.979343 0.235403
vt 0.973172 0.235403
vt 0.874201 0.781453
vt 0.874386 0.782723
vt 0.979343 0.236479
vt 0.973172 0.236479
vt 0.874779 0.781338
vt 0.875181 0.782574
vt 0.875309 0.781188
vt 0.876047 0.782146
vt 0.868013 0.779792
vt 0.868982 0.780087
vt 0.875950 0.766556
vt 0.875380 0.766531
vt 0.874885 0.766364
vt 0.874351 0.766248
vt 0.873817 0.766098
vt 0.873252 0.766051
vt 0.872677 0.766020
vt 0.872094 0.766004
vt 0.871507 0.766015
vt 0.869817 0.766265
vt 0.869175 0.765430
vt 0.869533 0.766590
vt 0.868620 0.766064
vt 0.496141 0.900206
vt 0.497344 0.900878
vt 0.497094 0.900794
vt 0.495782 0.901417
vt 0.119525 0.817460
vt 0.119451 0.817820
vt 0.118921 0.818316
vt 0.872203 0.764739
vt 0.871517 0.764721
vt 0.872847 0.764790
vt 0.873466 0.764863
vt 0.874070 0.764955
vt 0.874739 0.765116
vt 0.875415 0.765377
vt 0.876046 0.765788
vt 0.869395 0.766998
vt 0.868350 0.766861
vt 0.117883 0.821391
vt 0.118129 0.820685
vt 0.118919 0.820923
vt 0.118636 0.821718
vt 0.971707 0.959692
vt 0.972212 0.958592
vt 0.973641 0.958950
vt 0.972961 0.960553
vt 0.117670 0.822004
vt 0.118241 0.822435
vt 0.972254 0.957440
vt 0.973712 0.957257
vt 0.971986 0.956334
vt 0.973214 0.955660
vt 0.971256 0.955483
vt 0.972118 0.954379
vt 0.970668 0.953637
vt 0.118208 0.812261
vt 0.118021 0.811560
vt 0.118717 0.811117
vt 0.119101 0.811978
vt 0.969059 0.953480
vt 0.118363 0.813065
vt 0.119331 0.812940
vt 0.968135 0.955155
vt 0.967503 0.953920
vt 0.118492 0.813925
vt 0.119448 0.813866
vt 0.967211 0.955771
vt 0.966206 0.954878
vt 0.118596 0.814787
vt 0.119517 0.814744
vt 0.966665 0.956730
vt 0.965394 0.956287
vt 0.118557 0.815659
vt 0.119557 0.815648
vt 0.966543 0.957828
vt 0.965167 0.957829
vt 0.118603 0.816527
vt 0.119561 0.816578
vt 0.966746 0.958907
vt 0.965451 0.959385
vt 0.967341 0.959853
vt 0.966276 0.960780
vt 0.487412 0.900963
vt 0.488630 0.900243
vt 0.489021 0.901486
vt 0.487667 0.900870
vt 0.110567 0.790088
vt 0.108817 0.789387
vt 0.109000 0.787977
vt 0.110698 0.787401
vt 0.968266 0.960588
vt 0.968070 0.961039
vt 0.966810 0.961208
vt 0.495114 0.912563
vt 0.490195 0.912025
vt 0.118280 0.819919
vt 0.118391 0.819121
vt 0.119454 0.819941
vt 0.119122 0.820143
vt 0.969480 0.960745
vt 0.970792 0.960648
vt 0.971783 0.961850
vt 0.971680 0.962323
vt 0.969436 0.959308
vt 0.968816 0.959219
vt 0.968915 0.958963
vt 0.969424 0.959051
vt 0.116987 0.820467
vt 0.116887 0.821166
vt 0.116543 0.821132
vt 0.116662 0.820413
vt 0.968288 0.958895
vt 0.117162 0.813225
vt 0.117069 0.812437
vt 0.117207 0.818942
vt 0.968682 0.956265
vt 0.117234 0.814039
vt 0.970589 0.958782
vt 0.970928 0.958215
vt 0.117147 0.819724
vt 0.968169 0.956628
vt 0.116824 0.821835
vt 0.970063 0.959175
vt 0.117284 0.814860
vt 0.970949 0.957574
vt 0.967874 0.957182
vt 0.117334 0.815676
vt 0.970797 0.956965
vt 0.967781 0.957792
vt 0.117380 0.816505
vt 0.970376 0.956508
vt 0.967924 0.958395
vt 0.117928 0.810899
vt 0.117062 0.811695
vt 0.116969 0.811034
vt 0.116769 0.819672
vt 0.115783 0.820288
vt 0.115881 0.819562
vt 0.970687 0.957600
vt 0.970625 0.958118
vt 0.970131 0.957971
vt 0.970182 0.957650
vt 0.116850 0.814081
vt 0.116758 0.813261
vt 0.970363 0.958590
vt 0.116865 0.818907
vt 0.968809 0.956516
vt 0.968399 0.956831
vt 0.116516 0.821877
vt 0.969935 0.958918
vt 0.116924 0.814882
vt 0.968141 0.957281
vt 0.116949 0.815685
vt 0.970532 0.957105
vt 0.968061 0.957785
vt 0.116965 0.816511
vt 0.970217 0.956698
vt 0.968178 0.958286
vt 0.116972 0.817332
vt 0.969783 0.956458
vt 0.968482 0.958695
vt 0.116712 0.812452
vt 0.116697 0.811628
vt 0.116933 0.818134
vt 0.969293 0.956395
vt 0.563323 0.980094
vt 0.564123 0.980425
vt 0.564736 0.981038
vt 0.565067 0.981838
vt 0.565067 0.982704
vt 0.564736 0.983504
vt 0.564123 0.984117
vt 0.563323 0.984448
vt 0.562457 0.984448
vt 0.561656 0.984117
vt 0.561044 0.983504
vt 0.560713 0.982704
vt 0.560713 0.981838
vt 0.561044 0.981038
vt 0.561656 0.980425
vt 0.562457 0.980094
vt 0.984970 0.622566
vt 0.984639 0.623366
vt 0.984026 0.623979
vt 0.983226 0.624310
vt 0.982360 0.624310
vt 0.981560 0.623979
vt 0.980947 0.623366
vt 0.980616 0.622566
vt 0.980616 0.621700
vt 0.980947 0.620899
vt 0.981560 0.620287
vt 0.982360 0.619955
vt 0.983226 0.619955
vt 0.984026 0.620287
vt 0.984639 0.620899
vt 0.984970 0.621700
vt 0.968777 0.957163
vt 0.968625 0.957451
vt 0.969700 0.958436
vt 0.969961 0.958249
vt 0.115985 0.815709
vt 0.115950 0.814928
vt 0.970079 0.957342
vt 0.968571 0.957778
vt 0.116001 0.816510
vt 0.969898 0.957087
vt 0.968641 0.958083
vt 0.116011 0.817309
vt 0.969634 0.956925
vt 0.968821 0.958335
vt 0.115727 0.812520
vt 0.115682 0.811672
vt 0.115995 0.818088
vt 0.969325 0.956878
vt 0.969094 0.958494
vt 0.115795 0.813343
vt 0.115948 0.818831
vt 0.969020 0.956966
vt 0.115682 0.821006
vt 0.969404 0.958529
vt 0.115881 0.814147
vt 0.495103 0.923843
vt 0.494798 0.924878
vt 0.494103 0.925554
vt 0.493088 0.925809
vt 0.492608 0.925816
vt 0.491606 0.925575
vt 0.490894 0.924919
vt 0.490578 0.923882
vt 0.869272 0.782126
vt 0.968871 0.962129
vt 0.973172 0.228483
vt 0.973788 0.227867
vt 0.978727 0.227867
vt 0.979343 0.228483
vt 0.871174 0.764777
vt 0.119306 0.819001
vt 0.118052 0.775842
vt 0.117445 0.775762
vt 0.117303 0.766555
vt 0.118073 0.766430
vt 0.110183 0.774956
vt 0.110834 0.775019
vt 0.489304 0.911882
vt 0.488000 0.911751
vt 0.116748 0.787277
vt 0.111597 0.787248
vt 0.111720 0.775033
vt 0.116571 0.775623
vt 0.497303 0.912320
vt 0.496016 0.912550
vt 0.489699 0.924062
vt 0.489280 0.924165
vt 0.111988 0.766633
vt 0.112312 0.765647
vt 0.113004 0.765012
vt 0.114010 0.764791
vt 0.114488 0.764789
vt 0.115484 0.765057
vt 0.116163 0.765710
vt 0.116448 0.766718
vt 0.110391 0.766309
vt 0.111151 0.766447
vt 0.495973 0.924004
vt 0.496395 0.924094
vt 0.495854 0.925570
vt 0.495502 0.925324
vt 0.112135 0.763603
vt 0.112601 0.764323
vt 0.111644 0.765200
vt 0.110947 0.764794
vt 0.494730 0.926618
vt 0.494528 0.926247
vt 0.490202 0.925378
vt 0.489857 0.925632
vt 0.491197 0.926276
vt 0.491004 0.926647
vt 0.114612 0.763961
vt 0.113921 0.763959
vt 0.113830 0.763025
vt 0.114752 0.763070
vt 0.116393 0.763685
vt 0.115910 0.764381
vt 0.493250 0.927069
vt 0.493201 0.926645
vt 0.492523 0.926654
vt 0.492475 0.927064
vt 0.116842 0.765284
vt 0.117549 0.764896
vt 0.869661 0.782549
vt 0.870627 0.764568
vt 0.119724 0.818422
vt 0.967487 0.962323
vt 0.116854 0.790523
vt 0.111481 0.790523
vt 0.963279 0.098407
vt 0.965904 0.098407
vt 0.965382 0.100489
vt 0.963732 0.100400
vt 0.961386 0.102536
vt 0.962314 0.101217
vt 0.963758 0.102819
vt 0.963487 0.103229
vt 0.968093 0.107731
vt 0.966585 0.106017
vt 0.967440 0.104536
vt 0.969904 0.105292
vt 0.962436 0.108728
vt 0.960247 0.106956
vt 0.961966 0.105656
vt 0.963353 0.106584
vt 0.969848 0.102198
vt 0.967568 0.102863
vt 0.960740 0.099495
vt 0.965450 0.109200
vt 0.965019 0.106691
vt 0.959319 0.101930
vt 0.968322 0.099738
vt 0.966777 0.101384
vt 0.959269 0.104536
vt 0.961221 0.104175
vt 0.964092 0.104453
vt 0.964594 0.104489
vt 0.341323 0.776658
vt 0.343650 0.779193
vt 0.342061 0.779929
vt 0.341328 0.776664
vt 0.963454 0.103724
vt 0.965347 0.103341
vt 0.965119 0.102894
vt 0.965047 0.104260
vt 0.964701 0.102623
vt 0.963674 0.104176
vt 0.965319 0.103840
vt 0.964203 0.102597
vt 0.341309 0.776678
vt 0.341316 0.776680
vt 0.338018 0.777435
vt 0.338012 0.775664
vt 0.987365 0.667784
vt 0.987000 0.667181
vt 0.987603 0.667008
vt 0.987780 0.667340
vt 0.341311 0.776654
vt 0.341306 0.776657
vt 0.343932 0.774249
vt 0.344695 0.775901
vt 0.341326 0.776671
vt 0.340314 0.779929
vt 0.341304 0.776674
vt 0.338912 0.774094
vt 0.341317 0.776656
vt 0.344690 0.777717
vt 0.341302 0.776668
vt 0.340513 0.773166
vt 0.341323 0.776677
vt 0.338890 0.778934
vt 0.341302 0.776662
vt 0.342345 0.773328
vt 0.989263 0.667757
vt 0.988816 0.667321
vt 0.988999 0.666991
vt 0.989582 0.667137
vt 0.987586 0.666632
vt 0.987769 0.666306
vt 0.988083 0.666106
vt 0.988455 0.666103
vt 0.988785 0.666279
vt 0.988980 0.666607
vt 0.988493 0.667521
vt 0.988106 0.667535
vt 0.987960 0.668110
vt 0.988611 0.665494
vt 0.987912 0.665527
vt 0.989575 0.666458
vt 0.987322 0.665882
vt 0.988644 0.668116
vt 0.989233 0.665852
vt 0.987000 0.666489
vt 0.117732 0.841374
vt 0.118619 0.841374
vt 0.119782 0.841374
vt 0.119782 0.842247
vt 0.117732 0.842247
vt 0.119782 0.843119
vt 0.117732 0.843119
vt 0.119782 0.843991
vt 0.117732 0.843991
vt 0.119782 0.844864
vt 0.117732 0.844864
vt 0.119782 0.845736
vt 0.117732 0.845736
vt 0.119782 0.846609
vt 0.117732 0.846609
vt 0.119782 0.847481
vt 0.117732 0.847481
vt 0.119782 0.848353
vt 0.117732 0.848353
vt 0.119782 0.849226
vt 0.118635 0.849226
vt 0.117732 0.849226
vt 0.982154 0.716669
vt 0.981840 0.717776
vt 0.981329 0.716680
vt 0.980859 0.471502
vt 0.981615 0.471066
vt 0.982487 0.471066
vt 0.983243 0.471502
vt 0.983679 0.472258
vt 0.983679 0.473130
vt 0.983243 0.473886
vt 0.982487 0.474322
vt 0.981615 0.474322
vt 0.980859 0.473886
vt 0.980423 0.473130
vt 0.980423 0.472258
vt 0.979382 0.716699
vt 0.979909 0.716137
vt 0.980159 0.716685
vt 0.981798 0.715548
vt 0.982083 0.716107
vt 0.981570 0.716135
vt 0.981305 0.715607
vt 0.979380 0.715583
vt 0.979332 0.714538
vt 0.980147 0.715592
vt 0.980292 0.547153
vt 0.980728 0.546398
vt 0.981484 0.545962
vt 0.982356 0.545962
vt 0.983112 0.546398
vt 0.983548 0.547153
vt 0.983548 0.548026
vt 0.983112 0.548781
vt 0.982356 0.549217
vt 0.981484 0.549217
vt 0.980728 0.548781
vt 0.980292 0.548026
vt 0.115682 0.850098
vt 0.117439 0.850098
vt 0.117523 0.850539
vt 0.117732 0.850971
vt 0.116703 0.850971
vt 0.115682 0.850971
vt 0.115682 0.849226
vt 0.115682 0.848353
vt 0.115682 0.847481
vt 0.115682 0.846609
vt 0.115682 0.845736
vt 0.115682 0.844864
vt 0.115682 0.843991
vt 0.115682 0.843119
vt 0.115682 0.842247
vt 0.116687 0.842247
vt 0.987234 0.646536
vt 0.988424 0.645859
vt 0.988420 0.646364
vt 0.785542 0.982538
vt 0.785208 0.982380
vt 0.785175 0.981759
vt 0.785542 0.981585
vt 0.783928 0.981060
vt 0.784098 0.981361
vt 0.783707 0.981813
vt 0.783389 0.981717
vt 0.783710 0.982407
vt 0.783429 0.982532
vt 0.784151 0.982809
vt 0.784008 0.983114
vt 0.784766 0.982815
vt 0.784877 0.983150
vt 0.784709 0.981335
vt 0.784812 0.980984
vt 0.784747 0.981938
vt 0.784550 0.981770
vt 0.784293 0.981775
vt 0.784125 0.981967
vt 0.784125 0.982222
vt 0.784312 0.982393
vt 0.784570 0.982394
vt 0.784763 0.982206
vt 0.981045 0.715869
vt 0.980723 0.715633
vt 0.980728 0.715262
vt 0.211852 0.648281
vt 0.211543 0.635490
vt 0.212202 0.635476
vt 0.212389 0.648297
vt 0.980745 0.716650
vt 0.981068 0.716425
vt 0.980749 0.717025
vt 0.214718 0.648282
vt 0.214842 0.635460
vt 0.215502 0.635466
vt 0.215345 0.648437
vt 0.214182 0.648253
vt 0.214182 0.635458
vt 0.213645 0.648282
vt 0.213522 0.635460
vt 0.980400 0.715844
vt 0.981173 0.716146
vt 0.988817 0.496033
vt 0.988703 0.495719
vt 0.989143 0.495288
vt 0.989498 0.495446
vt 0.988859 0.493898
vt 0.988738 0.494228
vt 0.988128 0.494211
vt 0.987983 0.493898
vt 0.987695 0.494630
vt 0.987379 0.494510
vt 0.987664 0.495236
vt 0.987364 0.495349
vt 0.988092 0.495669
vt 0.987934 0.496007
vt 0.989168 0.494673
vt 0.989496 0.494523
vt 0.988721 0.495119
vt 0.988738 0.494861
vt 0.988564 0.494665
vt 0.988296 0.494648
vt 0.988106 0.494836
vt 0.988101 0.495094
vt 0.988273 0.495275
vt 0.988525 0.495284
vt 0.236533 0.648045
vt 0.236420 0.635467
vt 0.237080 0.635462
vt 0.237155 0.648071
vt 0.988188 0.644766
vt 0.987608 0.644283
vt 0.988432 0.644030
vt 0.988434 0.644711
vt 0.239644 0.648071
vt 0.239720 0.635462
vt 0.240380 0.635467
vt 0.240267 0.648045
vt 0.239022 0.648038
vt 0.239060 0.635459
vt 0.988427 0.645315
vt 0.989182 0.645776
vt 0.237777 0.648038
vt 0.237740 0.635459
vt 0.238400 0.635458
vt 0.238400 0.647965
vt 0.988078 0.644998
vt 0.988190 0.645215
vt 0.987669 0.645766
vt 0.987388 0.645038
vt 0.241039 0.635474
vt 0.240890 0.647980
vt 0.987000 0.645057
vt 0.989474 0.645044
vt 0.989865 0.645086
vt 0.989609 0.646555
vt 0.987003 0.643527
vt 0.988432 0.643515
vt 0.989257 0.644283
vt 0.989865 0.643525
vt 0.981792 0.714522
vt 0.980745 0.714494
vt 0.980747 0.717815
vt 0.235910 0.647980
vt 0.235760 0.635474
vt 0.988665 0.645218
vt 0.988788 0.644998
vt 0.988672 0.644764
vt 0.213019 0.648437
vt 0.212862 0.635466
vt 0.979332 0.717760
vt 0.216512 0.648281
vt 0.215974 0.648297
vt 0.216161 0.635476
vt 0.216821 0.635490
vt 0.980322 0.716128
vt 0.980418 0.716427
vt 0.274632 0.923234
vt 0.274644 0.922139
vt 0.275454 0.922108
vt 0.275518 0.923216
vt 0.273742 0.923177
vt 0.273846 0.922098
vt 0.272875 0.923073
vt 0.273047 0.921985
vt 0.272018 0.922943
vt 0.272212 0.921829
vt 0.276389 0.923164
vt 0.276296 0.922034
vt 0.277161 0.921956
vt 0.277258 0.923090
vt 0.274640 0.920915
vt 0.275351 0.920856
vt 0.273975 0.920887
vt 0.273282 0.920758
vt 0.272474 0.920548
vt 0.276170 0.920736
vt 0.277035 0.920654
vt 0.274612 0.919917
vt 0.275218 0.919894
vt 0.274112 0.919898
vt 0.273515 0.919829
vt 0.272732 0.919661
vt 0.276062 0.919800
vt 0.276959 0.919780
vt 0.274639 0.919195
vt 0.275235 0.919288
vt 0.274109 0.919172
vt 0.273532 0.919239
vt 0.272759 0.919368
vt 0.276052 0.919486
vt 0.276952 0.919498
vt 0.274773 0.916650
vt 0.275544 0.916680
vt 0.273986 0.916656
vt 0.273219 0.916697
vt 0.272431 0.916749
vt 0.276312 0.916717
vt 0.277125 0.916750
vt 0.274763 0.912843
vt 0.275557 0.912841
vt 0.273968 0.912844
vt 0.273173 0.912845
vt 0.272375 0.912848
vt 0.276353 0.912839
vt 0.277153 0.912839
vt 0.274754 0.909001
vt 0.275529 0.908975
vt 0.273967 0.908998
vt 0.273195 0.908970
vt 0.272399 0.908931
vt 0.276305 0.908942
vt 0.277117 0.908912
vt 0.274647 0.906352
vt 0.275266 0.906256
vt 0.274075 0.906365
vt 0.273456 0.906298
vt 0.272662 0.906174
vt 0.276073 0.906086
vt 0.276960 0.906064
vt 0.274588 0.905533
vt 0.275213 0.905544
vt 0.274073 0.905547
vt 0.273468 0.905592
vt 0.272655 0.905702
vt 0.276073 0.905603
vt 0.276970 0.905631
vt 0.274639 0.904513
vt 0.275334 0.904573
vt 0.273982 0.904524
vt 0.273284 0.904630
vt 0.272457 0.904805
vt 0.276147 0.904688
vt 0.277036 0.904765
vt 0.274659 0.903202
vt 0.275452 0.903243
vt 0.273875 0.903229
vt 0.273082 0.903312
vt 0.272238 0.903434
vt 0.276285 0.903319
vt 0.277150 0.903390
vt 0.274674 0.901788
vt 0.275540 0.901833
vt 0.273790 0.901802
vt 0.272919 0.901894
vt 0.272055 0.902007
vt 0.276397 0.901901
vt 0.277258 0.901966
s 1
f 25/1/1 2/2/2 24/3/3 72/4/4
f 37/5/5 61/6/5 59/7/6 57/8/6 55/9/7 41/10/8 39/11/6
f 70/12/9 23/13/10 22/14/11 68/15/12
f 56/16/13 16/17/14 15/18/15 54/19/16
f 42/20/17 9/21/18 8/22/19 40/23/20
f 72/4/4 24/3/3 23/13/10 70/12/9
f 58/24/21 17/25/22 16/17/14 56/16/13
f 41/10/8 55/9/7 53/26/23 51/27/23 49/28/23 47/29/23 45/30/23 43/31/23
f 27/32/24 26/33/24 71/34/24 69/35/24 67/36/25 33/37/26 31/38/24 29/39/24
f 60/40/27 18/41/28 17/25/22 58/24/21
f 46/42/29 11/43/30 10/44/31 44/45/32
f 30/46/33 3/47/34 1/48/35 28/49/36
f 32/50/37 4/51/38 3/47/34 30/46/33
f 62/52/39 19/53/39 18/41/28 60/40/27
f 48/54/40 12/55/41 11/43/30 46/42/29
f 34/56/42 5/57/43 4/51/38 32/50/37
f 64/58/44 20/59/45 19/53/39 62/52/39
f 50/60/46 13/61/47 12/55/41 48/54/40
f 33/37/26 67/36/25 65/62/48 63/63/48 61/6/5 37/5/5 35/64/48
f 66/65/49 21/66/50 20/59/45 64/58/44
f 52/67/51 14/68/52 13/61/47 50/60/46
f 38/69/53 7/70/53 6/71/54 36/72/55
f 68/15/12 22/14/11 21/66/50 66/65/49
f 54/19/16 15/18/15 14/68/52 52/67/51
f 40/23/20 8/22/19 7/70/53 38/69/53
f 36/72/55 6/71/54 5/57/43 34/56/42
f 44/45/32 10/44/31 9/21/18 42/20/17
f 73/73/56 74/74/57 26/75/58 27/76/59
f 75/77/60 73/73/56 27/76/59 29/78/61
f 76/79/62 75/77/60 29/78/61 31/80/63
f 77/81/64 76/79/62 31/80/63 33/82/65
f 78/83/66 77/81/64 33/82/65 35/84/67
f 79/85/68 78/83/66 35/84/67 37/86/68
f 80/87/69 79/85/68 37/86/68 39/88/70
f 81/89/71 80/87/69 39/88/70 41/90/72
f 82/91/73 81/89/71 41/90/72 43/92/74
f 83/93/75 82/91/73 43/92/74 45/94/76
f 84/95/77 83/93/75 45/94/76 47/96/78
f 85/97/79 84/95/77 47/96/78 49/98/80
f 86/99/81 85/97/79 49/98/80 51/100/82
f 87/101/83 86/99/81 51/100/82 53/102/84
f 88/103/85 87/101/83 53/102/84 55/104/86
f 89/105/87 88/103/85 55/104/86 57/106/88
f 90/107/89 89/105/87 57/106/88 59/108/90
f 91/109/91 90/107/89 59/108/90 61/110/91
f 92/111/92 91/109/91 61/110/91 63/112/93
f 93/113/94 92/111/92 63/112/93 65/114/95
f 94/115/96 93/113/94 65/114/95 67/116/97
f 95/117/98 94/115/96 67/116/97 69/118/99
f 96/119/100 95/117/98 69/118/99 71/120/101
f 74/74/57 96/119/100 71/120/101 26/75/58
f 28/49/36 1/48/35 2/2/2 25/1/1
f 25/1/102 72/4/103 96/119/104 74/74/105
f 72/4/103 70/12/106 95/117/107 96/119/104
f 70/12/106 68/15/108 94/115/109 95/117/107
f 68/15/108 66/65/110 93/113/111 94/115/109
f 66/65/110 64/58/112 92/111/113 93/113/111
f 64/58/112 62/52/114 91/109/114 92/111/113
f 62/52/114 60/40/115 90/107/116 91/109/114
f 60/40/115 58/24/117 89/105/118 90/107/116
f 58/24/117 56/16/119 88/103/120 89/105/118
f 56/16/119 54/19/121 87/101/122 88/103/120
f 54/19/121 52/67/123 86/99/124 87/101/122
f 52/67/123 50/60/125 85/97/126 86/99/124
f 50/60/125 48/54/127 84/95/128 85/97/126
f 48/54/127 46/42/129 83/93/130 84/95/128
f 46/42/129 44/45/131 82/91/132 83/93/130
f 44/45/131 42/20/133 81/89/134 82/91/132
f 42/20/133 40/23/135 80/87/136 81/89/134
f 40/23/135 38/69/137 79/85/137 80/87/136
f 38/69/137 36/72/138 78/83/139 79/85/137
f 36/72/138 34/56/140 77/81/141 78/83/139
f 34/56/140 32/50/142 76/79/143 77/81/141
f 32/50/142 30/46/144 75/77/145 76/79/143
f 30/46/144 28/49/146 73/73/147 75/77/145
f 28/49/146 25/1/102 74/74/105 73/73/147
f 132/121/148 188/122/148 190/123/149 133/124/149
f 133/124/149 190/123/149 192/125/150 135/126/150
f 135/126/150 192/125/150 194/127/151 137/128/151
f 137/128/151 194/127/151 196/129/152 139/130/152
f 139/130/152 196/129/152 198/131/153 141/132/153
f 141/132/153 198/131/153 200/133/154 143/134/154
f 143/134/154 200/133/154 202/135/155 145/136/155
f 145/136/155 202/135/155 204/137/156 147/138/156
f 163/139/91 147/140/91 329/141/157 328/142/158 164/143/91
f 334/144/159 331/145/159 343/146/160 344/147/161
f 109/148/150 107/149/149 219/150/149 221/151/150
f 120/152/156 122/153/162 234/154/162 232/155/156
f 166/156/91 151/157/91 129/158/91 153/159/91
f 165/160/91 149/161/91 151/157/91 166/156/91
f 147/138/156 204/137/156 340/162/163 339/163/163 326/164/163 329/165/163
f 330/166/164 333/167/165 177/168/68 178/169/68 150/170/68
f 149/171/91 327/172/166 349/173/167 305/174/168
f 201/175/155 146/176/155 148/177/156 203/178/156
f 162/179/91 145/180/91 147/140/91 163/139/91
f 199/181/154 144/182/154 146/176/155 201/175/155
f 161/183/91 143/184/91 145/180/91 162/179/91
f 197/185/153 142/186/153 144/182/154 199/181/154
f 160/187/91 141/188/91 143/184/91 161/183/91
f 195/189/152 140/190/152 142/186/153 197/185/153
f 159/191/91 139/192/91 141/188/91 160/187/91
f 193/193/151 138/194/151 140/190/152 195/189/152
f 158/195/91 137/196/91 139/192/91 159/191/91
f 191/197/150 136/198/150 138/194/151 193/193/151
f 157/199/91 135/200/91 137/196/91 158/195/91
f 189/201/169 134/202/169 136/198/150 191/197/150
f 156/203/91 133/204/91 135/200/91 157/199/91
f 155/205/91 132/206/91 133/204/91 156/203/91
f 153/159/91 129/158/91 130/207/91 154/208/91
f 168/209/170 155/205/170 156/203/149 169/210/149
f 169/210/149 156/203/149 157/199/150 170/211/150
f 170/211/150 157/199/150 158/195/151 171/212/151
f 171/212/151 158/195/151 159/191/152 172/213/152
f 172/213/152 159/191/152 160/187/153 173/214/153
f 173/214/153 160/187/153 161/183/154 174/215/154
f 174/215/154 161/183/154 162/179/171 175/216/171
f 175/216/171 162/179/171 163/139/156 176/217/156
f 176/217/156 163/139/156 164/143/172 177/168/172
f 177/168/172 164/143/172 165/160/173 178/169/173
f 178/169/173 165/160/173 166/156/174 179/218/174
f 152/219/68 179/218/68 180/220/68 128/221/68
f 150/170/68 178/169/68 179/218/68 152/219/68
f 330/222/164 150/223/68 304/224/175 342/225/176
f 122/153/91 120/152/91 203/226/91 337/227/177 336/228/158
f 146/229/68 175/216/68 176/217/68 148/230/68
f 144/231/68 174/215/68 175/216/68 146/229/68
f 142/232/68 173/214/68 174/215/68 144/231/68
f 140/233/68 172/213/68 173/214/68 142/232/68
f 138/234/68 171/212/68 172/213/68 140/233/68
f 136/235/68 170/211/68 171/212/68 138/234/68
f 134/236/68 169/210/68 170/211/68 136/235/68
f 128/221/68 180/220/68 167/237/68 131/238/68
f 99/239/91 97/240/91 181/241/91 182/242/91
f 98/243/68 100/244/68 183/245/68 184/246/68
f 101/247/91 99/239/91 182/242/91 185/248/91
f 100/244/68 102/249/68 186/250/68 183/245/68
f 102/249/68 103/251/68 187/252/68 186/250/68
f 103/251/68 105/253/68 188/254/68 187/252/68
f 105/253/68 107/149/68 190/255/68 188/254/68
f 108/256/91 106/257/91 189/258/91 191/259/91
f 107/149/68 109/148/68 192/260/68 190/255/68
f 110/261/91 108/256/91 191/259/91 193/262/91
f 109/148/68 111/263/68 194/264/68 192/260/68
f 112/265/91 110/261/91 193/262/91 195/266/91
f 111/263/68 113/267/68 196/268/68 194/264/68
f 114/269/91 112/265/91 195/266/91 197/270/91
f 113/267/68 115/271/68 198/272/68 196/268/68
f 116/273/91 114/269/91 197/270/91 199/274/91
f 115/271/68 117/275/68 200/276/68 198/272/68
f 118/277/91 116/273/91 199/274/91 201/278/91
f 117/275/68 119/279/68 202/280/68 200/276/68
f 120/152/91 118/277/91 201/278/91 203/226/91
f 119/279/68 121/281/68 204/282/68 202/280/68
f 205/283/91 335/284/178 345/285/179 302/286/180
f 338/287/181 206/288/68 303/289/182 346/290/183
f 121/281/68 123/291/68 341/292/165 340/293/184 204/282/68
f 344/147/161 343/146/160 351/294/185 352/295/186
f 126/296/91 124/297/91 205/298/91 207/299/91
f 125/300/68 127/301/68 208/302/68 206/303/68
f 97/240/91 126/296/91 207/299/91 181/241/91
f 127/301/68 98/243/68 184/246/68 208/302/68
f 237/304/91 235/305/91 265/306/91 267/307/91
f 209/308/68 210/309/68 241/310/68 240/311/68
f 123/291/172 121/281/156 233/312/156 235/305/172
f 108/256/150 110/261/151 222/313/151 220/314/150
f 122/153/162 124/297/173 236/315/173 234/154/162
f 111/263/151 109/148/150 221/151/150 223/316/151
f 97/240/187 99/239/188 210/309/188 209/308/187
f 125/300/173 123/291/172 235/305/172 237/304/173
f 110/261/151 112/265/152 224/317/152 222/313/151
f 100/244/188 98/243/187 212/318/187 211/319/188
f 124/297/173 126/296/189 238/320/189 236/315/173
f 113/267/152 111/263/151 223/316/151 225/321/152
f 99/239/188 101/247/190 213/322/190 210/309/188
f 127/301/189 125/300/173 237/304/173 239/323/189
f 112/265/152 114/269/153 226/324/153 224/317/152
f 102/249/191 100/244/188 211/319/188 214/325/191
f 126/296/189 97/240/187 209/308/187 238/320/189
f 115/271/153 113/267/152 225/321/152 227/326/153
f 98/243/187 127/301/189 239/323/189 212/318/187
f 114/269/153 116/273/154 228/327/154 226/324/153
f 103/251/192 102/249/191 214/325/191 215/328/192
f 117/275/154 115/271/153 227/326/153 229/329/154
f 116/273/154 118/277/193 230/330/193 228/327/154
f 105/253/194 103/251/192 215/328/192 217/331/194
f 119/279/193 117/275/154 229/329/154 231/332/193
f 104/333/148 106/257/149 218/334/149 216/335/148
f 118/277/193 120/152/156 232/155/156 230/330/193
f 107/149/149 105/253/194 217/331/194 219/150/149
f 121/281/156 119/279/193 231/332/193 233/312/156
f 106/257/149 108/256/150 220/314/150 218/334/149
f 268/336/189 240/311/187 270/337/187 300/338/189
f 245/339/191 242/340/188 272/341/188 275/342/191
f 222/313/68 224/317/68 254/343/68 252/344/68
f 211/319/91 212/318/91 243/345/91 242/340/91
f 236/315/68 238/320/68 268/336/68 266/346/68
f 225/321/91 223/316/91 253/347/91 255/348/91
f 210/309/68 213/322/68 244/349/68 241/310/68
f 239/323/91 237/304/91 267/307/91 269/350/91
f 224/317/68 226/324/68 256/351/68 254/343/68
f 214/325/91 211/319/91 242/340/91 245/339/91
f 238/320/68 209/308/68 240/311/68 268/336/68
f 227/326/91 225/321/91 255/348/91 257/352/91
f 212/318/91 239/323/91 269/350/91 243/345/91
f 226/324/68 228/327/68 258/353/68 256/351/68
f 215/328/91 214/325/91 245/339/91 246/354/91
f 229/329/91 227/326/91 257/352/91 259/355/91
f 228/327/68 230/330/68 260/356/68 258/353/68
f 217/331/91 215/328/91 246/354/91 247/357/91
f 231/332/91 229/329/91 259/355/91 261/358/91
f 230/330/68 232/155/68 262/359/68 260/356/68
f 219/150/91 217/331/91 247/357/91 249/360/91
f 233/312/91 231/332/91 261/358/91 263/361/91
f 218/334/68 220/314/68 250/362/68 248/363/68
f 232/155/68 234/154/68 264/364/68 262/359/68
f 221/151/91 219/150/91 249/360/91 251/365/91
f 235/305/91 233/312/91 263/361/91 265/306/91
f 220/314/68 222/313/68 252/344/68 250/362/68
f 234/154/68 236/315/68 266/346/68 264/364/68
f 223/316/91 221/151/91 251/365/91 253/347/91
f 272/366/68 273/367/68 301/368/68 299/369/68 297/370/68 295/371/68 293/372/68 291/373/68 289/374/68 287/375/68 285/376/68 283/377/68 281/378/68 279/379/68 277/380/68 275/381/68
f 270/382/91 271/383/91 274/384/91 276/385/91 278/386/91 280/387/91 282/388/91 284/389/91 286/390/91 288/391/91 290/392/91 292/393/91 294/394/91 296/395/91 298/396/91 300/397/91
f 257/352/153 255/348/152 287/398/152 289/399/153
f 243/345/187 269/350/189 301/400/189 273/401/187
f 256/351/153 258/353/154 290/402/154 288/403/153
f 246/354/192 245/339/191 275/342/191 277/404/192
f 259/355/154 257/352/153 289/399/153 291/405/154
f 258/353/154 260/356/155 292/406/155 290/402/154
f 247/357/194 246/354/192 277/404/192 279/407/194
f 261/358/155 259/355/154 291/405/154 293/408/155
f 260/356/155 262/359/156 294/409/156 292/406/155
f 249/360/149 247/357/194 279/407/194 281/410/149
f 263/361/156 261/358/155 293/408/155 295/411/156
f 248/363/169 250/362/150 282/412/150 280/413/169
f 262/359/156 264/364/162 296/414/162 294/409/156
f 251/365/150 249/360/149 281/410/149 283/415/150
f 265/306/162 263/361/156 295/411/156 297/416/162
f 250/362/150 252/344/151 284/417/151 282/412/150
f 264/364/162 266/346/173 298/418/173 296/414/162
f 253/347/151 251/365/150 283/415/150 285/419/151
f 240/311/187 241/310/195 271/420/195 270/337/187
f 267/307/173 265/306/162 297/416/162 299/421/173
f 252/344/151 254/343/152 286/422/152 284/417/151
f 242/340/188 243/345/187 273/401/187 272/341/188
f 266/346/173 268/336/189 300/338/189 298/418/173
f 255/348/152 253/347/151 285/419/151 287/398/152
f 269/350/189 267/307/173 299/421/173 301/400/189
f 254/343/152 256/351/153 288/403/153 286/422/152
f 352/295/186 351/294/185 358/423/196 362/424/196 364/425/196 360/426/196 366/427/196 370/428/196 372/429/196 368/430/196
f 164/143/91 328/142/158 327/431/166 149/161/91 165/160/91
f 123/291/68 125/300/68 206/303/68 338/432/181 341/292/165
f 203/178/156 148/177/156 332/433/163 331/434/163 334/435/163 337/436/163
f 148/230/68 176/217/68 177/168/68 333/167/165 332/437/184
f 124/297/91 122/153/91 336/228/158 335/438/178 205/298/91
f 309/439/197 357/440/198 385/441/199 322/442/200
f 346/290/183 303/289/182 307/443/201 354/444/202
f 302/286/180 345/285/179 353/445/203 306/446/204
f 305/174/168 349/173/167 357/440/198 309/439/197
f 348/447/205 347/448/205 355/449/206 356/450/207
f 342/225/176 304/224/175 308/451/208 350/452/209
f 306/446/204 353/445/203 369/453/210 310/454/211
f 356/450/207 355/449/206 374/455/212 378/456/212 380/457/212 376/458/212 382/459/212 386/460/212 388/461/212 384/462/212
f 354/444/202 307/443/201 315/463/213 375/464/214
f 359/465/215 319/466/216 321/467/217 363/468/218
f 316/469/219 381/470/220 379/471/221 317/472/222
f 363/468/218 321/467/217 320/473/223 365/474/224
f 373/475/225 312/476/226 310/454/211 369/453/210
f 317/472/222 379/471/221 375/464/214 315/463/213
f 371/477/227 313/478/228 312/476/226 373/475/225
f 383/479/229 377/480/230 314/481/231 323/482/232
f 383/479/229 323/482/232 325/483/233 387/484/234
f 314/481/231 377/480/230 381/470/220 316/469/219
f 365/474/224 320/473/223 318/485/235 361/486/236
f 367/487/237 311/488/238 313/478/228 371/477/227
f 367/487/237 361/486/236 318/485/235 311/488/238
f 389/489/239 324/490/240 322/442/200 385/441/199
f 387/484/234 325/483/233 324/490/240 389/489/239
f 350/452/209 308/451/208 319/466/216 359/465/215
f 326/491/241 327/431/166 328/142/158 329/141/157
f 330/166/164 331/492/242 332/437/184 333/167/165
f 334/493/243 335/438/178 336/228/158 337/227/177
f 338/432/181 339/494/244 340/293/184 341/292/165
f 326/495/241 348/447/245 349/173/246 327/172/166
f 338/287/181 346/290/247 347/448/248 339/496/244
f 330/222/164 342/225/249 343/146/250 331/145/242
f 345/285/251 335/284/178 334/144/243 344/147/252
f 348/447/245 356/450/253 357/440/254 349/173/246
f 344/147/252 352/295/255 353/445/256 345/285/251
f 351/294/257 343/146/250 342/225/249 350/452/258
f 346/290/247 354/444/259 355/449/260 347/448/248
f 370/428/261 366/427/262 367/487/262 371/477/263
f 372/429/264 370/428/261 371/477/263 373/475/265
f 368/430/266 372/429/264 373/475/265 369/453/267
f 376/458/268 380/457/269 381/470/270 377/480/268
f 380/457/269 378/456/271 379/471/272 381/470/270
f 378/456/271 374/455/273 375/464/274 379/471/272
f 362/424/271 358/423/275 359/465/276 363/468/272
f 364/425/269 362/424/271 363/468/272 365/474/270
f 360/426/268 364/425/269 365/474/270 361/486/268
f 386/460/261 382/459/262 383/479/262 387/484/263
f 388/461/264 386/460/261 387/484/263 389/489/265
f 384/462/277 388/461/264 389/489/265 385/441/278
f 369/453/267 353/445/256 352/295/255 368/430/266
f 350/452/258 359/465/276 358/423/275 351/294/257
f 361/486/268 367/487/262 366/427/262 360/426/268
f 374/455/273 355/449/260 354/444/259 375/464/274
f 382/459/262 376/458/268 377/480/268 383/479/262
f 385/441/278 357/440/254 356/450/253 384/462/277
f 326/495/279 339/496/279 347/448/205 348/447/205
f 400/497/280 399/498/281 411/499/281 412/500/280
f 402/501/156 413/502/156 425/503/156 414/504/156
f 395/505/282 407/506/282 408/507/283 396/508/283
f 393/509/284 392/510/285 404/511/285 405/512/284
f 397/513/286 396/508/283 408/507/283 409/514/286
f 401/515/287 400/497/280 412/500/280 413/502/287
f 394/516/288 393/509/284 405/512/284 406/517/288
f 390/518/289 401/515/287 413/502/287 402/501/289
f 398/519/290 397/513/286 409/514/286 410/520/290
f 391/521/291 390/518/289 402/501/289 403/522/291
f 395/505/282 394/516/288 406/517/288 407/506/282
f 399/498/281 398/519/290 410/520/290 411/499/281
f 405/512/156 417/523/156 418/524/156 406/517/156
f 419/525/282 431/526/282 432/527/283 420/528/283
f 403/522/156 402/501/156 414/504/156 415/529/156
f 409/514/156 421/530/156 422/531/156 410/520/156
f 407/506/156 406/517/156 418/524/156 419/532/156
f 411/499/156 410/520/156 422/531/156 423/533/156
f 404/511/156 403/522/156 415/529/156 416/534/156
f 408/507/156 407/506/156 419/532/156 420/535/156
f 412/500/156 411/499/156 423/533/156 424/536/156
f 405/512/156 404/511/156 416/534/156 417/523/156
f 409/514/156 408/507/156 420/535/156 421/530/156
f 413/502/156 412/500/156 424/536/156 425/503/156
f 424/537/280 423/538/281 435/539/281 436/540/280
f 426/541/292 437/542/293 449/543/293 438/544/292
f 417/545/284 416/546/285 428/547/285 429/548/284
f 421/549/286 420/528/283 432/527/283 433/550/286
f 425/551/287 424/537/280 436/540/280 437/552/287
f 418/553/288 417/545/284 429/548/284 430/554/288
f 414/555/289 425/551/287 437/552/287 426/556/289
f 422/557/290 421/549/286 433/550/286 434/558/290
f 415/559/291 414/555/289 426/556/289 427/560/291
f 419/525/282 418/553/288 430/554/288 431/526/282
f 423/538/281 422/557/290 434/558/290 435/539/281
f 416/546/285 415/559/291 427/560/291 428/547/285
f 429/561/294 441/562/294 442/563/295 430/564/295
f 438/544/156 449/543/156 448/565/156 447/566/156 446/567/156 445/568/156 444/569/156 443/570/156 442/563/156 441/562/156 440/571/156 439/572/156
f 427/573/296 426/541/292 438/544/292 439/572/296
f 433/574/297 445/568/297 446/567/298 434/575/298
f 431/576/299 430/564/295 442/563/295 443/570/299
f 435/577/300 434/575/298 446/567/298 447/566/300
f 428/578/301 427/573/296 439/572/296 440/571/301
f 432/579/302 431/576/299 443/570/299 444/569/302
f 436/580/303 435/577/300 447/566/300 448/565/303
f 429/561/294 428/578/301 440/571/301 441/562/294
f 433/574/297 432/579/302 444/569/302 445/568/297
f 437/542/293 436/580/303 448/565/303 449/543/293
f 490/581/304 552/582/305 451/583/306 453/584/307 492/585/308
f 492/585/308 453/584/307 455/586/309 495/587/309
f 495/587/309 455/586/309 457/588/187 496/589/187
f 496/589/187 457/588/187 461/590/310 499/591/310
f 499/591/310 461/590/310 464/592/311 501/593/311
f 501/593/311 464/592/311 468/594/68 503/595/68
f 503/595/68 468/594/68 472/596/312 504/597/312
f 504/597/312 472/596/312 476/598/313 506/599/313
f 506/599/313 476/598/313 481/600/314 553/601/315 507/602/316
f 508/603/317 507/604/316 534/605/318
f 468/606/156 464/607/156 461/608/156 457/609/156 455/610/156 453/611/156 451/612/156 488/613/156 484/614/156 481/615/156 476/616/156 472/617/156
f 484/618/319 537/619/320 536/620/321
f 509/621/322 554/622/323 538/623/324 539/624/325
f 488/625/326 451/626/306 540/627/327
f 486/628/194 450/629/194 452/630/194 454/631/194 456/632/194 458/633/194 462/634/194 467/635/194 470/636/194 474/637/194 479/638/194 483/639/194
f 483/640/328 508/641/317 554/642/323 509/643/322 551/644/329 486/645/330
f 479/646/152 507/602/316 508/641/317 483/640/328
f 474/647/313 506/599/313 507/602/316 479/646/152
f 470/648/312 504/597/312 506/599/313 474/647/313
f 467/649/68 503/595/68 504/597/312 470/648/312
f 462/650/311 501/593/311 503/595/68 467/649/68
f 458/651/310 499/591/310 501/593/311 462/650/311
f 456/652/187 496/589/187 499/591/310 458/651/310
f 454/653/309 495/587/309 496/589/187 456/652/187
f 452/654/331 550/655/332 492/585/308 495/587/309 454/653/309
f 492/656/308 546/657/333 490/658/304
f 494/659/334 489/660/335 460/661/336 491/662/337
f 497/663/338 469/664/339 473/665/340 498/666/341
f 498/666/341 473/665/340 477/667/342 500/668/343
f 500/668/343 477/667/342 480/669/344 502/670/345
f 502/670/345 480/669/344 485/671/346 505/672/347
f 505/672/347 485/671/346 489/660/335 494/659/334
f 491/662/337 460/661/336 465/673/348 493/674/349
f 493/674/349 465/673/348 469/664/339 497/663/338
f 465/673/348 460/661/336 459/675/350 463/676/351
f 469/664/339 465/673/348 463/676/351 466/677/352
f 473/665/340 469/664/339 466/677/352 471/678/353
f 477/667/342 473/665/340 471/678/353 475/679/354
f 480/669/344 477/667/342 475/679/354 478/680/355
f 485/671/346 480/669/344 478/680/355 482/681/356
f 489/660/335 485/671/346 482/681/356 487/682/357
f 460/661/336 489/660/335 487/682/357 459/675/350
f 466/677/352 463/676/351 459/675/350 487/682/357 482/681/356 478/680/355 475/679/354 471/678/353
f 568/683/358 567/684/359 541/685/360 539/624/325
f 569/686/361 491/687/337 493/688/349 568/689/358
f 565/690/362 570/691/363 534/605/318 535/692/364
f 564/693/365 502/694/345 505/695/347 565/696/362
f 563/697/366 500/698/343 502/694/345 564/693/365
f 566/699/367 498/700/341 500/698/343 563/697/366
f 566/701/367 540/627/327 541/685/360 567/684/359
f 538/623/324 534/605/318 570/691/363 569/702/361
f 528/703/368 525/704/369 511/705/370 526/706/371
f 529/707/372 515/708/373 517/709/374 530/710/375
f 530/710/375 517/709/374 519/711/376 531/712/377
f 531/712/377 519/711/376 521/713/378 532/714/379
f 532/714/379 521/713/378 523/715/380 533/716/381
f 533/716/381 523/715/380 525/704/369 528/703/368
f 526/706/371 511/705/370 513/717/382 527/718/383
f 527/718/383 513/717/382 515/708/373 529/707/372
f 513/717/382 511/705/370 510/719/384 512/720/385
f 515/708/373 513/717/382 512/720/385 514/721/386
f 517/709/374 515/708/373 514/721/386 516/722/387
f 519/711/376 517/709/374 516/722/387 518/723/388
f 521/713/378 519/711/376 518/723/388 520/724/389
f 523/715/380 521/713/378 520/724/389 522/725/390
f 525/704/369 523/715/380 522/725/390 524/726/391
f 511/705/370 525/704/369 524/726/391 510/719/384
f 522/725/390 520/724/389 518/723/388 516/722/387 514/721/386 512/720/385 510/719/384 524/726/391
f 558/727/392 527/728/383 529/729/372 559/730/393
f 558/731/392 548/732/394 545/733/395 555/734/396
f 562/735/397 533/736/381 528/737/368 560/738/398
f 561/739/399 532/740/379 533/736/381 562/735/397
f 546/657/333 557/741/400 543/742/401
f 556/743/402 530/744/375 531/745/377 557/746/400
f 559/747/393 556/748/402 547/749/403 549/750/404
f 528/737/368 526/751/371 555/752/396 560/738/398
f 549/750/404 550/753/332 548/732/394
f 542/754/405 551/755/329 543/742/401
f 547/749/403 492/656/308 550/753/332
f 543/742/401 509/756/322 546/657/333
f 548/732/394 452/757/331 450/758/406
f 544/759/407 486/760/330 551/755/329 542/754/405
f 539/624/325 490/761/304 509/621/322
f 541/685/360 552/762/305 539/624/325
f 540/627/327 552/762/305 541/685/360
f 537/619/320 488/625/326 540/627/327
f 537/619/320 484/618/319 488/625/326
f 535/692/364 553/763/315 536/620/321
f 534/605/318 507/604/316 553/763/315 535/692/364
f 538/623/324 554/622/323 508/603/317 534/605/318
f 529/729/372 530/744/375 556/743/402 559/730/393
f 547/749/403 556/748/402 557/741/400
f 527/728/383 558/727/392 555/764/396 526/765/371
f 548/732/394 558/731/392 559/747/393 549/750/404
f 543/742/401 561/766/399 562/767/397 542/754/405
f 542/754/405 562/767/397 560/768/398 544/759/407
f 561/739/399 557/746/400 531/745/377 532/740/379
f 560/768/398 555/734/396 545/733/395 544/759/407
f 486/760/330 544/759/407 450/758/406
f 547/749/403 546/657/333 492/656/308
f 546/657/333 509/756/322 490/658/304
f 450/758/406 544/759/407 545/733/395
f 450/758/406 545/733/395 548/732/394
f 543/742/401 551/755/329 509/756/322
f 498/700/341 566/699/367 567/769/359 497/770/338
f 550/753/332 549/750/404 547/749/403
f 548/732/394 550/753/332 452/757/331
f 543/742/401 557/741/400 561/766/399
f 557/741/400 546/657/333 547/749/403
f 536/620/321 553/763/315 481/771/314 484/618/319
f 552/762/305 540/627/327 451/626/306
f 539/624/325 552/762/305 490/761/304
f 569/772/361 570/773/363 494/774/334 491/775/337
f 540/627/327 566/701/367 563/776/366 537/619/320
f 537/619/320 563/776/366 564/777/365 536/620/321
f 536/620/321 564/777/365 565/690/362 535/692/364
f 505/695/347 494/774/334 570/773/363 565/696/362
f 538/623/324 569/702/361 568/683/358 539/624/325
f 493/688/349 497/770/338 567/769/359 568/689/358
f 571/778/408 577/779/409 582/780/410 576/781/411
f 572/782/412 578/783/413 577/779/409 571/778/408
f 573/784/414 579/785/415 578/783/413 572/782/412
f 574/786/416 580/787/417 579/785/415 573/784/414
f 575/788/418 581/789/419 580/790/417 574/791/416
f 576/781/411 582/780/410 581/789/419 575/788/418
f 577/779/409 583/792/420 588/793/421 582/780/410
f 578/783/413 584/794/422 583/792/420 577/779/409
f 579/785/415 585/795/423 584/794/422 578/783/413
f 580/787/417 586/796/424 585/795/423 579/785/415
f 581/789/419 587/797/425 586/798/424 580/790/417
f 582/780/410 588/793/421 587/797/425 581/789/419
f 583/792/420 589/799/426 594/800/427 588/793/421
f 584/794/422 590/801/428 589/799/426 583/792/420
f 585/795/423 591/802/429 590/801/428 584/794/422
f 586/796/424 592/803/430 591/802/429 585/795/423
f 587/797/425 593/804/431 592/805/430 586/798/424
f 588/793/421 594/800/427 593/804/431 587/797/425
f 589/799/426 595/806/432 600/807/433 594/800/427
f 590/801/428 596/808/434 595/806/432 589/799/426
f 591/802/429 597/809/435 596/808/434 590/801/428
f 592/803/430 598/810/436 597/809/435 591/802/429
f 593/804/431 599/811/437 598/812/436 592/805/430
f 594/800/427 600/807/433 599/811/437 593/804/431
f 595/806/432 601/813/438 606/814/439 600/807/433
f 596/808/434 602/815/440 601/813/438 595/806/432
f 597/809/435 603/816/441 602/815/440 596/808/434
f 598/810/436 604/817/442 603/816/441 597/809/435
f 599/811/437 605/818/443 604/819/442 598/812/436
f 600/807/433 606/814/439 605/818/443 599/811/437
f 601/813/438 607/820/444 612/821/445 606/814/439
f 602/815/440 608/822/446 607/820/444 601/813/438
f 603/816/441 609/823/447 608/822/446 602/815/440
f 604/817/442 610/824/448 609/823/447 603/816/441
f 605/818/443 611/825/449 610/826/448 604/819/442
f 606/814/439 612/821/445 611/825/449 605/818/443
f 607/820/444 613/827/450 618/828/451 612/821/445
f 608/822/446 614/829/452 613/827/450 607/820/444
f 609/823/447 615/830/453 614/829/452 608/822/446
f 610/824/448 616/831/454 615/830/453 609/823/447
f 611/825/449 617/832/455 616/833/454 610/826/448
f 612/821/445 618/828/451 617/832/455 611/825/449
f 613/827/450 619/834/456 624/835/457 618/828/451
f 614/829/452 620/836/458 619/834/456 613/827/450
f 615/830/453 621/837/459 620/836/458 614/829/452
f 616/831/454 622/838/460 621/837/459 615/830/453
f 617/832/455 623/839/461 622/840/460 616/833/454
f 618/828/451 624/835/457 623/839/461 617/832/455
f 619/834/456 625/841/462 630/842/463 624/835/457
f 620/836/458 626/843/464 625/841/462 619/834/456
f 621/837/459 627/844/465 626/843/464 620/836/458
f 622/838/460 628/845/466 627/844/465 621/837/459
f 623/839/461 629/846/467 628/847/466 622/840/460
f 624/835/457 630/842/463 629/846/467 623/839/461
f 625/841/462 631/848/468 636/849/469 630/842/463
f 626/843/464 632/850/470 631/848/468 625/841/462
f 627/844/465 633/851/471 632/850/470 626/843/464
f 628/845/466 634/852/472 633/851/471 627/844/465
f 629/846/467 635/853/473 634/854/472 628/847/466
f 630/842/463 636/849/469 635/853/473 629/846/467
f 631/848/468 637/855/474 642/856/475 636/849/469
f 632/850/470 638/857/476 637/855/474 631/848/468
f 633/851/471 639/858/477 638/857/476 632/850/470
f 634/852/472 640/859/478 639/858/477 633/851/471
f 635/853/473 641/860/479 640/861/478 634/854/472
f 636/849/469 642/856/475 641/860/479 635/853/473
f 637/855/474 643/862/480 648/863/481 642/856/475
f 638/857/476 644/864/482 643/862/480 637/855/474
f 639/858/477 645/865/483 644/864/482 638/857/476
f 640/859/478 646/866/484 645/865/483 639/858/477
f 641/860/479 647/867/485 646/868/484 640/861/478
f 642/856/475 648/863/481 647/867/485 641/860/479
f 391/521/291 403/522/291 404/511/285 392/510/285
