# Blender 4.1.1
# www.blender.org
o SpaceCapsule_1.875
v 0.000000 -0.688945 -0.625000
v 0.000000 0.663509 -0.625000
v 0.161762 -0.688945 -0.603704
v 0.161762 0.663509 -0.603704
v 0.312500 -0.688945 -0.541266
v 0.312500 0.663509 -0.541266
v 0.441942 -0.688945 -0.441942
v 0.441942 0.663509 -0.441942
v 0.541266 -0.688945 -0.312500
v 0.541266 0.663509 -0.312500
v 0.603704 -0.688945 -0.161762
v 0.603704 0.663509 -0.161762
v 0.625000 -0.688945 0.000000
v 0.625000 0.663509 0.000000
v 0.603704 -0.688945 0.161762
v 0.603704 0.663509 0.161762
v 0.541266 -0.688945 0.312500
v 0.541266 0.663509 0.312500
v 0.441942 -0.688945 0.441942
v 0.441942 0.663509 0.441942
v 0.312500 -0.688945 0.541266
v 0.312500 0.663509 0.541266
v 0.161762 -0.688945 0.603704
v 0.161762 0.663509 0.603704
v 0.000000 -0.688945 0.625000
v 0.000000 0.663509 0.625000
v -0.161762 -0.688945 0.603704
v -0.161762 0.663509 0.603704
v -0.312500 -0.688945 0.541266
v -0.312500 0.663509 0.541266
v -0.441942 -0.688945 0.441942
v -0.441942 0.663509 0.441942
v -0.541266 -0.688945 0.312500
v -0.541266 0.663509 0.312500
v -0.603704 -0.688945 0.161762
v -0.603704 0.663509 0.161762
v -0.625000 -0.688945 0.000000
v -0.625000 0.663509 0.000000
v -0.603704 -0.688945 -0.161762
v -0.603704 0.663509 -0.161762
v -0.541266 -0.688945 -0.312500
v -0.541266 0.663509 -0.312500
v -0.441942 -0.688945 -0.441942
v -0.441942 0.663509 -0.441942
v -0.312500 -0.688945 -0.541266
v -0.312500 0.663509 -0.541266
v -0.161762 -0.688945 -0.603704
v -0.161762 0.663509 -0.603704
v -0.467820 0.047817 -0.810287
v -0.661597 0.047817 -0.661597
v -0.810287 0.047817 -0.467820
v -0.903758 0.047817 -0.242161
v -0.935639 0.047817 0.000000
v -0.903758 0.047817 0.242161
v -0.810287 0.047817 0.467820
v -0.661597 0.047817 0.661597
v -0.467820 0.047817 0.810287
v -0.242161 0.047817 0.903758
v 0.000000 0.047817 0.935639
v 0.242161 0.047817 0.903758
v 0.467820 0.047817 0.810287
v 0.661597 0.047817 0.661597
v 0.810287 0.047817 0.467820
v 0.903758 0.047817 0.242161
v 0.935639 0.047817 0.000000
v 0.903758 0.047817 -0.242161
v 0.810287 0.047817 -0.467820
v 0.661597 0.047817 -0.661597
v 0.467820 0.047817 -0.810287
v 0.242161 0.047817 -0.903758
v 0.000000 0.047817 -0.935639
v -0.242161 0.047817 -0.903758
v 0.000000 0.047817 -0.993667
v 0.000000 -0.073252 -0.993667
v 0.257180 -0.073252 -0.959808
v 0.257180 0.047817 -0.959808
v 0.496833 -0.073252 -0.860541
v 0.496833 0.047817 -0.860541
v 0.702628 -0.073252 -0.702628
v 0.702628 0.047817 -0.702628
v 0.860541 -0.073252 -0.496833
v 0.860541 0.047817 -0.496833
v 0.959808 -0.073252 -0.257180
v 0.959808 0.047817 -0.257180
v 0.993667 -0.073252 0.000000
v 0.993667 0.047817 0.000000
v 0.959808 -0.073252 0.257180
v 0.959808 0.047817 0.257180
v 0.860541 -0.073252 0.496833
v 0.860541 0.047817 0.496833
v 0.702628 -0.073252 0.702628
v 0.702628 0.047817 0.702628
v 0.496833 -0.073252 0.860541
v 0.496833 0.047817 0.860541
v 0.257180 -0.073252 0.959808
v 0.257180 0.047817 0.959808
v 0.000000 -0.073252 0.993667
v 0.000000 0.047817 0.993667
v -0.257180 -0.073252 0.959808
v -0.257180 0.047817 0.959808
v -0.496833 -0.073252 0.860541
v -0.496833 0.047817 0.860541
v -0.702628 -0.073252 0.702628
v -0.702628 0.047817 0.702628
v -0.860541 -0.073252 0.496833
v -0.860541 0.047817 0.496833
v -0.959808 -0.073252 0.257180
v -0.959808 0.047817 0.257180
v -0.993667 -0.073252 0.000000
v -0.993667 0.047817 0.000000
v -0.959808 -0.073252 -0.257180
v -0.959808 0.047817 -0.257180
v -0.860541 -0.073252 -0.496833
v -0.860541 0.047817 -0.496833
v -0.702628 -0.073252 -0.702628
v -0.702628 0.047817 -0.702628
v -0.496833 -0.073252 -0.860541
v -0.496833 0.047817 -0.860541
v -0.257180 -0.073252 -0.959808
v -0.257180 0.047817 -0.959808
v 0.000000 -0.073252 -0.935639
v 0.242161 -0.073252 -0.903758
v -0.242161 -0.073252 -0.903758
v 0.467820 -0.073252 -0.810287
v 0.661597 -0.073252 -0.661597
v 0.810287 -0.073252 -0.467820
v 0.903758 -0.073252 -0.242161
v 0.935639 -0.073252 0.000000
v 0.903758 -0.073252 0.242161
v 0.810287 -0.073252 0.467820
v 0.661597 -0.073252 0.661597
v 0.467820 -0.073252 0.810287
v 0.242161 -0.073252 0.903758
v 0.000000 -0.073252 0.935639
v -0.242161 -0.073252 0.903758
v -0.467820 -0.073252 0.810287
v -0.661597 -0.073252 0.661597
v -0.810287 -0.073252 0.467820
v -0.903758 -0.073252 0.242161
v -0.935639 -0.073252 0.000000
v -0.903758 -0.073252 -0.242161
v -0.810287 -0.073252 -0.467820
v -0.661597 -0.073252 -0.661597
v -0.467820 -0.073252 -0.810287
v 0.161762 0.711541 -0.603704
v -0.000000 0.711541 -0.625000
v 0.312500 0.711541 -0.541266
v 0.441942 0.711541 -0.441942
v 0.541266 0.711541 -0.312500
v 0.603704 0.711541 -0.161762
v 0.625000 0.711541 0.000000
v 0.603704 0.711541 0.161762
v 0.541266 0.711541 0.312500
v 0.441942 0.711541 0.441942
v 0.312500 0.711541 0.541266
v 0.161762 0.711541 0.603704
v -0.000000 0.711541 0.625000
v -0.161762 0.711541 0.603704
v -0.312500 0.711541 0.541266
v -0.441942 0.711541 0.441942
v -0.541266 0.711541 0.312500
v -0.603704 0.711541 0.161762
v -0.625000 0.711541 0.000000
v -0.603704 0.711541 -0.161762
v -0.541266 0.711541 -0.312500
v -0.441942 0.711541 -0.441942
v -0.312500 0.711541 -0.541266
v -0.161762 0.711541 -0.603704
v 0.139534 0.751260 -0.520748
v -0.000000 0.751260 -0.539118
v 0.269559 0.751260 -0.466890
v 0.381214 0.751260 -0.381214
v 0.466890 0.751260 -0.269559
v 0.520748 0.751260 -0.139534
v 0.539118 0.751260 0.000000
v 0.520748 0.751260 0.139534
v 0.466890 0.751260 0.269559
v 0.381214 0.751260 0.381214
v 0.269559 0.751260 0.466890
v 0.139534 0.751260 0.520748
v -0.000000 0.751260 0.539118
v -0.139534 0.751260 0.520748
v -0.269559 0.751260 0.466890
v -0.381214 0.751260 0.381214
v -0.466890 0.751260 0.269559
v -0.520748 0.751260 0.139534
v -0.539118 0.751260 0.000000
v -0.520748 0.751260 -0.139534
v -0.466890 0.751260 -0.269559
v -0.381214 0.751260 -0.381214
v -0.269559 0.751260 -0.466890
v -0.139534 0.751260 -0.520748
v 0.014725 0.868084 -0.054956
v 0.047455 0.863783 -0.177105
v 0.080945 0.851175 -0.302092
v 0.104144 0.823209 -0.388672
v 0.124241 0.788397 -0.463673
v -0.000000 0.868084 -0.056895
v -0.000000 0.788397 -0.480030
v -0.000000 0.823209 -0.402383
v -0.000000 0.851175 -0.312749
v -0.000000 0.863783 -0.183352
v 0.028447 0.868084 -0.049272
v 0.091676 0.863783 -0.158788
v 0.156374 0.851175 -0.270848
v 0.201192 0.823209 -0.348474
v 0.240015 0.788397 -0.415718
v 0.040231 0.868084 -0.040231
v 0.129650 0.863783 -0.129650
v 0.221147 0.851175 -0.221147
v 0.284528 0.823209 -0.284528
v 0.339432 0.788397 -0.339432
v 0.049272 0.868084 -0.028447
v 0.158788 0.863783 -0.091676
v 0.270848 0.851175 -0.156374
v 0.348474 0.823209 -0.201192
v 0.415718 0.788397 -0.240015
v 0.054956 0.868084 -0.014725
v 0.177105 0.863783 -0.047455
v 0.302092 0.851175 -0.080945
v 0.388672 0.823209 -0.104144
v 0.463673 0.788397 -0.124241
v 0.056895 0.868084 0.000000
v 0.183352 0.863783 0.000000
v 0.312749 0.851175 0.000000
v 0.402383 0.823209 0.000000
v 0.480030 0.788397 0.000000
v 0.054956 0.868084 0.014725
v 0.177105 0.863783 0.047455
v 0.302092 0.851175 0.080945
v 0.388672 0.823209 0.104144
v 0.463673 0.788397 0.124241
v 0.049272 0.868084 0.028447
v 0.158788 0.863783 0.091676
v 0.270848 0.851175 0.156374
v 0.348474 0.823209 0.201192
v 0.415718 0.788397 0.240015
v 0.040231 0.868084 0.040231
v 0.129650 0.863783 0.129650
v 0.221147 0.851175 0.221147
v 0.284528 0.823209 0.284528
v 0.339432 0.788397 0.339432
v 0.028447 0.868084 0.049272
v 0.091676 0.863783 0.158788
v 0.156374 0.851175 0.270848
v 0.201192 0.823209 0.348474
v 0.240015 0.788397 0.415718
v 0.014725 0.868084 0.054956
v 0.047455 0.863783 0.177105
v 0.080945 0.851175 0.302092
v 0.104144 0.823209 0.388672
v 0.124241 0.788397 0.463673
v -0.000000 0.868084 0.056895
v -0.000000 0.863783 0.183352
v -0.000000 0.851175 0.312749
v -0.000000 0.823209 0.402383
v -0.000000 0.788397 0.480030
v -0.014725 0.868084 0.054956
v -0.047455 0.863783 0.177105
v -0.080945 0.851175 0.302092
v -0.104144 0.823209 0.388672
v -0.124241 0.788397 0.463673
v -0.028448 0.868084 0.049272
v -0.091676 0.863783 0.158788
v -0.156375 0.851175 0.270848
v -0.201192 0.823209 0.348474
v -0.240015 0.788397 0.415718
v -0.040231 0.868084 0.040231
v -0.129650 0.863783 0.129650
v -0.221147 0.851175 0.221147
v -0.284528 0.823209 0.284528
v -0.339432 0.788397 0.339432
v -0.049272 0.868084 0.028447
v -0.158788 0.863783 0.091676
v -0.270848 0.851175 0.156374
v -0.348474 0.823209 0.201192
v -0.415718 0.788397 0.240015
v -0.054956 0.868084 0.014725
v -0.177105 0.863783 0.047455
v -0.302092 0.851175 0.080945
v -0.388672 0.823209 0.104144
v -0.463673 0.788397 0.124241
v -0.056895 0.868084 0.000000
v -0.183352 0.863783 0.000000
v -0.312749 0.851175 0.000000
v -0.402383 0.823209 0.000000
v -0.480030 0.788397 0.000000
v -0.054956 0.868084 -0.014725
v -0.177105 0.863783 -0.047455
v -0.302092 0.851175 -0.080945
v -0.388672 0.823209 -0.104144
v -0.463673 0.788397 -0.124241
v -0.049272 0.868084 -0.028447
v -0.158788 0.863783 -0.091676
v -0.270848 0.851175 -0.156374
v -0.348474 0.823209 -0.201192
v -0.415718 0.788397 -0.240015
v -0.040231 0.868084 -0.040231
v -0.129650 0.863783 -0.129650
v -0.221147 0.851175 -0.221147
v -0.284528 0.823209 -0.284528
v -0.339432 0.788397 -0.339432
v -0.028448 0.868084 -0.049272
v -0.091676 0.863783 -0.158788
v -0.156375 0.851175 -0.270848
v -0.201192 0.823209 -0.348474
v -0.240015 0.788397 -0.415718
v -0.014725 0.868084 -0.054956
v -0.047455 0.863783 -0.177105
v -0.080945 0.851175 -0.302092
v -0.104144 0.823209 -0.388672
v -0.124241 0.788397 -0.463673
v -0.257180 -0.050997 -0.959808
v -0.257180 0.025561 -0.959808
v 0.000000 0.025561 -0.993667
v 0.000000 -0.050997 -0.993667
v -0.496833 -0.050997 -0.860541
v -0.496833 0.025561 -0.860541
v -0.702628 -0.050997 -0.702628
v -0.702628 0.025561 -0.702628
v -0.860541 -0.050997 -0.496833
v -0.860541 0.025561 -0.496833
v -0.959808 -0.050997 -0.257180
v -0.959808 0.025561 -0.257180
v -0.993667 -0.050997 0.000000
v -0.993667 0.025561 0.000000
v -0.959808 -0.050997 0.257180
v -0.959808 0.025561 0.257180
v -0.860541 -0.050997 0.496833
v -0.860541 0.025561 0.496833
v -0.702628 -0.050997 0.702628
v -0.702628 0.025561 0.702628
v -0.496833 -0.050997 0.860541
v -0.496833 0.025561 0.860541
v -0.257180 -0.050997 0.959808
v -0.257180 0.025561 0.959808
v 0.000000 -0.050997 0.993667
v 0.000000 0.025561 0.993667
v 0.257180 -0.050997 0.959808
v 0.257180 0.025561 0.959808
v 0.496833 -0.050997 0.860541
v 0.496833 0.025561 0.860541
v 0.702628 -0.050997 0.702628
v 0.702628 0.025561 0.702628
v 0.860541 -0.050997 0.496833
v 0.860541 0.025561 0.496833
v 0.959808 -0.050997 0.257180
v 0.959808 0.025561 0.257180
v 0.993667 -0.050997 0.000000
v 0.993667 0.025561 0.000000
v 0.959808 -0.050997 -0.257180
v 0.959808 0.025561 -0.257180
v 0.860541 -0.050997 -0.496833
v 0.860541 0.025561 -0.496833
v 0.702628 -0.050997 -0.702628
v 0.702628 0.025561 -0.702628
v 0.496833 -0.050997 -0.860541
v 0.496833 0.025561 -0.860541
v 0.257180 -0.050997 -0.959808
v 0.257180 0.025561 -0.959808
v -0.263826 -0.031248 -0.984610
v -0.263826 0.005813 -0.984610
v 0.000000 0.005813 -1.019344
v 0.000000 -0.031248 -1.019344
v -0.509672 -0.031248 -0.882778
v -0.509672 0.005813 -0.882778
v -0.720785 -0.031248 -0.720785
v -0.720785 0.005813 -0.720785
v -0.882778 -0.031248 -0.509672
v -0.882778 0.005813 -0.509672
v -0.984610 -0.031248 -0.263826
v -0.984610 0.005813 -0.263826
v -1.019344 -0.031248 0.000000
v -1.019344 0.005813 0.000000
v -0.984610 -0.031248 0.263826
v -0.984610 0.005813 0.263826
v -0.882778 -0.031248 0.509672
v -0.882778 0.005813 0.509672
v -0.720785 -0.031248 0.720785
v -0.720785 0.005813 0.720785
v -0.509672 -0.031248 0.882778
v -0.509672 0.005813 0.882778
v -0.263826 -0.031248 0.984610
v -0.263826 0.005813 0.984610
v 0.000000 -0.031248 1.019344
v 0.000000 0.005813 1.019344
v 0.263826 -0.031248 0.984610
v 0.263826 0.005813 0.984610
v 0.509672 -0.031248 0.882778
v 0.509672 0.005813 0.882778
v 0.720785 -0.031248 0.720785
v 0.720785 0.005813 0.720785
v 0.882778 -0.031248 0.509672
v 0.882778 0.005813 0.509672
v 0.984610 -0.031248 0.263826
v 0.984610 0.005813 0.263826
v 1.019344 -0.031248 0.000000
v 1.019344 0.005813 0.000000
v 0.984610 -0.031248 -0.263826
v 0.984610 0.005813 -0.263826
v 0.882778 -0.031248 -0.509672
v 0.882778 0.005813 -0.509672
v 0.720785 -0.031248 -0.720785
v 0.720785 0.005813 -0.720785
v 0.509672 -0.031248 -0.882778
v 0.509672 0.005813 -0.882778
v 0.263826 -0.031248 -0.984610
v 0.263826 0.005813 -0.984610
v 0.000000 -0.742573 -0.625000
v 0.161762 -0.742573 -0.603704
v 0.312500 -0.742573 -0.541266
v 0.441942 -0.742573 -0.441942
v 0.541266 -0.742573 -0.312500
v 0.603704 -0.742573 -0.161762
v 0.625000 -0.742573 0.000000
v 0.603704 -0.742573 0.161762
v 0.541266 -0.742573 0.312500
v 0.441942 -0.742573 0.441942
v 0.312500 -0.742573 0.541266
v 0.161762 -0.742573 0.603704
v 0.000000 -0.742573 0.625000
v -0.161762 -0.742573 0.603704
v -0.312500 -0.742573 0.541266
v -0.441942 -0.742573 0.441942
v -0.541266 -0.742573 0.312500
v -0.603704 -0.742573 0.161762
v -0.625000 -0.742573 0.000000
v -0.603704 -0.742573 -0.161762
v -0.541266 -0.742573 -0.312500
v -0.441942 -0.742573 -0.441942
v -0.312500 -0.742573 -0.541266
v -0.161762 -0.742573 -0.603704
v 0.064318 0.858215 -0.240040
v -0.000000 0.858215 -0.248508
v 0.124254 0.858215 -0.215214
v 0.175721 0.858215 -0.175722
v 0.215214 0.858215 -0.124254
v 0.240040 0.858215 -0.064319
v 0.248508 0.858215 0.000000
v 0.240040 0.858215 0.064319
v 0.215214 0.858215 0.124254
v 0.175722 0.858215 0.175721
v 0.124254 0.858215 0.215214
v 0.064318 0.858215 0.240040
v -0.000000 0.858215 0.248508
v -0.064318 0.858215 0.240040
v -0.124254 0.858215 0.215214
v -0.175721 0.858215 0.175722
v -0.215214 0.858215 0.124254
v -0.240040 0.858215 0.064319
v -0.248508 0.858215 0.000000
v -0.240040 0.858215 -0.064319
v -0.215214 0.858215 -0.124254
v -0.175722 0.858215 -0.175721
v -0.124254 0.858215 -0.215214
v -0.064318 0.858215 -0.240040
vn -0.0000 -1.0000 -0.0000
vn 1.0000 -0.0000 -0.0000
vn 0.9659 -0.0000 -0.2588
vn -0.0000 1.0000 -0.0000
vn 0.5000 -0.0000 -0.8660
vn 0.7071 -0.0000 -0.7071
vn -0.4464 0.4505 -0.7732
vn -0.2311 0.4505 -0.8624
vn -0.6313 0.4505 -0.6313
vn -0.7732 0.4505 -0.4464
vn -0.8624 0.4505 -0.2311
vn -0.8928 0.4505 -0.0000
vn -0.8624 0.4505 0.2311
vn -0.7732 0.4505 0.4464
vn -0.6313 0.4505 0.6313
vn -0.4464 0.4505 0.7732
vn -0.2311 0.4505 0.8624
vn -0.0000 0.4505 0.8928
vn 0.2311 0.4505 0.8624
vn 0.4464 0.4505 0.7732
vn 0.6313 0.4505 0.6313
vn 0.7732 0.4505 0.4464
vn 0.8624 0.4505 0.2311
vn 0.8928 0.4505 -0.0000
vn 0.8624 0.4505 -0.2311
vn 0.7732 0.4505 -0.4464
vn 0.6313 0.4505 -0.6313
vn 0.4464 0.4505 -0.7732
vn 0.2311 0.4505 -0.8624
vn -0.0000 0.4505 -0.8928
vn -0.2588 -0.0000 -0.9659
vn -0.0000 -0.0000 -1.0000
vn -0.5000 -0.0000 -0.8660
vn -0.7071 -0.0000 -0.7071
vn -0.8660 -0.0000 -0.5000
vn -0.9659 -0.0000 -0.2588
vn -1.0000 -0.0000 -0.0000
vn -0.9659 -0.0000 0.2588
vn -0.8660 -0.0000 0.5000
vn -0.7071 -0.0000 0.7071
vn -0.5000 -0.0000 0.8660
vn -0.2588 -0.0000 0.9659
vn -0.0000 -0.0000 1.0000
vn 0.2588 -0.0000 0.9659
vn 0.5000 -0.0000 0.8660
vn 0.7071 -0.0000 0.7071
vn 0.8660 -0.0000 0.5000
vn 0.9659 -0.0000 0.2588
vn 0.8660 -0.0000 -0.5000
vn 0.2588 -0.0000 -0.9659
vn 0.2311 -0.4505 -0.8624
vn 0.4464 -0.4505 -0.7732
vn -0.0000 -0.4505 -0.8928
vn -0.4464 -0.4505 -0.7732
vn -0.2311 -0.4505 -0.8624
vn -0.6313 -0.4505 -0.6313
vn -0.7732 -0.4505 -0.4464
vn -0.8624 -0.4505 -0.2311
vn -0.8928 -0.4505 -0.0000
vn -0.8624 -0.4505 0.2311
vn -0.7732 -0.4505 0.4464
vn -0.6313 -0.4505 0.6313
vn -0.4464 -0.4505 0.7732
vn -0.2311 -0.4505 0.8624
vn -0.0000 -0.4505 0.8928
vn 0.2311 -0.4505 0.8624
vn 0.4464 -0.4505 0.7732
vn 0.6313 -0.4505 0.6313
vn 0.7732 -0.4505 0.4464
vn 0.8624 -0.4505 0.2311
vn 0.8928 -0.4505 -0.0000
vn 0.8624 -0.4505 -0.2311
vn 0.7732 -0.4505 -0.4464
vn 0.6313 -0.4505 -0.6313
vn 0.4055 0.9076 -0.1086
vn 0.3635 0.9076 -0.2099
vn 0.2381 0.8793 0.4124
vn 0.1233 0.8793 0.4600
vn 0.1377 0.8467 0.5140
vn 0.2661 0.8467 0.4608
vn -0.3635 0.9076 -0.2099
vn -0.4055 0.9076 -0.1086
vn -0.1086 0.9076 0.4055
vn -0.0000 0.9076 0.4198
vn 0.4198 0.9076 -0.0000
vn -0.2968 0.9076 -0.2968
vn -0.2099 0.9076 0.3635
vn 0.4055 0.9076 0.1086
vn -0.2099 0.9076 -0.3635
vn -0.2968 0.9076 0.2968
vn 0.3635 0.9076 0.2099
vn -0.1086 0.9076 -0.4055
vn 0.1086 0.9076 -0.4055
vn -0.0000 0.9076 -0.4198
vn -0.3635 0.9076 0.2099
vn 0.2968 0.9076 0.2968
vn 0.2099 0.9076 -0.3635
vn -0.4055 0.9076 0.1086
vn 0.2099 0.9076 0.3635
vn 0.2968 0.9076 -0.2968
vn -0.4198 0.9076 -0.0000
vn 0.1086 0.9076 0.4055
vn 0.2381 0.8793 -0.4124
vn 0.3368 0.8793 -0.3368
vn 0.3763 0.8467 -0.3763
vn 0.2661 0.8467 -0.4608
vn 0.4124 0.8793 -0.2381
vn 0.4608 0.8467 -0.2661
vn -0.4763 0.8793 -0.0000
vn -0.4600 0.8793 -0.1233
vn -0.5140 0.8467 -0.1377
vn -0.5321 0.8467 -0.0000
vn -0.0000 0.8793 0.4763
vn -0.0000 0.8467 0.5321
vn 0.4600 0.8793 -0.1233
vn 0.5140 0.8467 -0.1377
vn -0.4124 0.8793 -0.2381
vn -0.4608 0.8467 -0.2661
vn -0.1233 0.8793 0.4600
vn -0.1377 0.8467 0.5140
vn 0.4763 0.8793 -0.0000
vn 0.5321 0.8467 -0.0000
vn -0.3368 0.8793 -0.3368
vn -0.3763 0.8467 -0.3763
vn -0.2381 0.8793 0.4124
vn -0.2661 0.8467 0.4608
vn 0.4600 0.8793 0.1233
vn 0.5140 0.8467 0.1377
vn -0.2381 0.8793 -0.4124
vn -0.2661 0.8467 -0.4608
vn -0.3368 0.8793 0.3368
vn -0.3763 0.8467 0.3763
vn 0.4124 0.8793 0.2381
vn 0.4608 0.8467 0.2661
vn -0.1233 0.8793 -0.4600
vn -0.1377 0.8467 -0.5140
vn -0.4124 0.8793 0.2381
vn -0.4608 0.8467 0.2661
vn 0.3368 0.8793 0.3368
vn 0.3763 0.8467 0.3763
vn -0.0000 0.8793 -0.4763
vn -0.0000 0.8467 -0.5321
vn -0.4600 0.8793 0.1233
vn -0.5140 0.8467 0.1377
vn 0.1233 0.8793 -0.4600
vn 0.1377 0.8467 -0.5140
vn 0.0048 0.9998 -0.0178
vn -0.0000 0.9998 -0.0184
vn -0.0048 0.9998 -0.0178
vn -0.0092 0.9998 -0.0159
vn -0.0130 0.9998 -0.0130
vn -0.0159 0.9998 -0.0092
vn -0.0178 0.9998 -0.0048
vn -0.0184 0.9998 -0.0000
vn -0.0178 0.9998 0.0048
vn -0.0159 0.9998 0.0092
vn -0.0130 0.9998 0.0130
vn -0.0092 0.9998 0.0159
vn -0.0048 0.9998 0.0178
vn -0.0000 0.9998 0.0184
vn 0.0048 0.9998 0.0178
vn 0.0092 0.9998 0.0159
vn 0.0130 0.9998 0.0130
vn 0.0159 0.9998 0.0092
vn 0.0178 0.9998 0.0048
vn 0.0184 0.9998 -0.0000
vn 0.0178 0.9998 -0.0048
vn 0.0159 0.9998 -0.0092
vn 0.0130 0.9998 -0.0130
vn 0.0092 0.9998 -0.0159
vn -0.0000 0.9336 -0.3584
vn 0.0928 0.9336 -0.3462
vn -0.0000 0.9773 -0.2120
vn 0.0549 0.9773 -0.2048
vn 0.0254 0.9952 -0.0947
vn -0.0000 0.9952 -0.0980
vn -0.0000 0.9981 -0.0617
vn 0.0160 0.9981 -0.0596
vn 0.1792 0.9336 -0.3104
vn 0.1060 0.9773 -0.1836
vn 0.0490 0.9952 -0.0849
vn 0.0309 0.9981 -0.0534
vn 0.2534 0.9336 -0.2534
vn 0.1499 0.9773 -0.1499
vn 0.0693 0.9952 -0.0693
vn 0.0436 0.9981 -0.0436
vn 0.3104 0.9336 -0.1792
vn 0.1836 0.9773 -0.1060
vn 0.0849 0.9952 -0.0490
vn 0.0534 0.9981 -0.0309
vn 0.3462 0.9336 -0.0928
vn 0.2048 0.9773 -0.0549
vn 0.0947 0.9952 -0.0254
vn 0.0596 0.9981 -0.0160
vn 0.3584 0.9336 -0.0000
vn 0.2120 0.9773 -0.0000
vn 0.0980 0.9952 -0.0000
vn 0.0617 0.9981 -0.0000
vn 0.3462 0.9336 0.0928
vn 0.2048 0.9773 0.0549
vn 0.0947 0.9952 0.0254
vn 0.0596 0.9981 0.0160
vn 0.3104 0.9336 0.1792
vn 0.1836 0.9773 0.1060
vn 0.0849 0.9952 0.0490
vn 0.0534 0.9981 0.0309
vn 0.2534 0.9336 0.2534
vn 0.1499 0.9773 0.1499
vn 0.0693 0.9952 0.0693
vn 0.0436 0.9981 0.0436
vn 0.1792 0.9336 0.3104
vn 0.1060 0.9773 0.1836
vn 0.0490 0.9952 0.0849
vn 0.0309 0.9981 0.0534
vn 0.0928 0.9336 0.3462
vn 0.0549 0.9773 0.2048
vn 0.0254 0.9952 0.0947
vn 0.0160 0.9981 0.0596
vn -0.0000 0.9336 0.3584
vn -0.0000 0.9773 0.2120
vn -0.0000 0.9952 0.0980
vn -0.0000 0.9981 0.0617
vn -0.0928 0.9336 0.3462
vn -0.0549 0.9773 0.2048
vn -0.0254 0.9952 0.0947
vn -0.0160 0.9981 0.0596
vn -0.1792 0.9336 0.3104
vn -0.1060 0.9773 0.1836
vn -0.0490 0.9952 0.0849
vn -0.0309 0.9981 0.0534
vn -0.2534 0.9336 0.2534
vn -0.1499 0.9773 0.1499
vn -0.0693 0.9952 0.0693
vn -0.0436 0.9981 0.0436
vn -0.3104 0.9336 0.1792
vn -0.1836 0.9773 0.1060
vn -0.0849 0.9952 0.0490
vn -0.0534 0.9981 0.0309
vn -0.3462 0.9336 0.0928
vn -0.2048 0.9773 0.0549
vn -0.0947 0.9952 0.0254
vn -0.0596 0.9981 0.0160
vn -0.3584 0.9336 -0.0000
vn -0.2120 0.9773 -0.0000
vn -0.0980 0.9952 -0.0000
vn -0.0617 0.9981 -0.0000
vn -0.3462 0.9336 -0.0928
vn -0.2048 0.9773 -0.0549
vn -0.0947 0.9952 -0.0254
vn -0.0596 0.9981 -0.0160
vn -0.3104 0.9336 -0.1792
vn -0.1836 0.9773 -0.1060
vn -0.0849 0.9952 -0.0490
vn -0.0534 0.9981 -0.0309
vn -0.2534 0.9336 -0.2534
vn -0.1499 0.9773 -0.1499
vn -0.0693 0.9952 -0.0693
vn -0.0436 0.9981 -0.0436
vn -0.1792 0.9336 -0.3104
vn -0.1060 0.9773 -0.1836
vn -0.0490 0.9952 -0.0849
vn -0.0309 0.9981 -0.0534
vn -0.0928 0.9336 -0.3462
vn -0.0549 0.9773 -0.2048
vn -0.0254 0.9952 -0.0947
vn -0.0160 0.9981 -0.0596
vn -0.0000 -0.4279 -0.9038
vn 0.2339 -0.4279 -0.8730
vn 0.1578 -0.7927 -0.5889
vn -0.0000 -0.7927 -0.6096
vn 0.4519 -0.4279 -0.7828
vn 0.3048 -0.7927 -0.5280
vn 0.6391 -0.4279 -0.6391
vn 0.4311 -0.7927 -0.4311
vn 0.7828 -0.4279 -0.4519
vn 0.5280 -0.7927 -0.3048
vn 0.8730 -0.4279 -0.2339
vn 0.5889 -0.7927 -0.1578
vn 0.9038 -0.4279 -0.0000
vn 0.6096 -0.7927 -0.0000
vn 0.8730 -0.4279 0.2339
vn 0.5889 -0.7927 0.1578
vn 0.7828 -0.4279 0.4519
vn 0.5280 -0.7927 0.3048
vn 0.6391 -0.4279 0.6391
vn 0.4311 -0.7927 0.4311
vn 0.4519 -0.4279 0.7828
vn 0.3048 -0.7927 0.5280
vn 0.2339 -0.4279 0.8730
vn 0.1578 -0.7927 0.5889
vn -0.0000 -0.4279 0.9038
vn -0.0000 -0.7927 0.6096
vn -0.2339 -0.4279 0.8730
vn -0.1578 -0.7927 0.5889
vn -0.4519 -0.4279 0.7828
vn -0.3048 -0.7927 0.5280
vn -0.6391 -0.4279 0.6391
vn -0.4311 -0.7927 0.4311
vn -0.7828 -0.4279 0.4519
vn -0.5280 -0.7927 0.3048
vn -0.8730 -0.4279 0.2339
vn -0.5889 -0.7927 0.1578
vn -0.9038 -0.4279 -0.0000
vn -0.6096 -0.7927 -0.0000
vn -0.8730 -0.4279 -0.2339
vn -0.5889 -0.7927 -0.1578
vn -0.7828 -0.4279 -0.4519
vn -0.5280 -0.7927 -0.3048
vn -0.6391 -0.4279 -0.6391
vn -0.4311 -0.7927 -0.4311
vn -0.4519 -0.4279 -0.7828
vn -0.3048 -0.7927 -0.5280
vn -0.2339 -0.4279 -0.8730
vn -0.1578 -0.7927 -0.5889
vn -0.1578 0.7927 -0.5889
vn -0.0000 0.7927 -0.6096
vn -0.0000 0.4279 -0.9038
vn -0.2339 0.4279 -0.8730
vn -0.3048 0.7927 -0.5280
vn -0.4519 0.4279 -0.7828
vn -0.4311 0.7927 -0.4311
vn -0.6391 0.4279 -0.6391
vn -0.5280 0.7927 -0.3048
vn -0.7828 0.4279 -0.4519
vn -0.5889 0.7927 -0.1578
vn -0.8730 0.4279 -0.2339
vn -0.6096 0.7927 -0.0000
vn -0.9038 0.4279 -0.0000
vn -0.5889 0.7927 0.1578
vn -0.8730 0.4279 0.2339
vn -0.5280 0.7927 0.3048
vn -0.7828 0.4279 0.4519
vn -0.4311 0.7927 0.4311
vn -0.6391 0.4279 0.6391
vn -0.3048 0.7927 0.5280
vn -0.4519 0.4279 0.7828
vn -0.1578 0.7927 0.5889
vn -0.2339 0.4279 0.8730
vn -0.0000 0.7927 0.6096
vn -0.0000 0.4279 0.9038
vn 0.1578 0.7927 0.5889
vn 0.2339 0.4279 0.8730
vn 0.3048 0.7927 0.5280
vn 0.4519 0.4279 0.7828
vn 0.4311 0.7927 0.4311
vn 0.6391 0.4279 0.6391
vn 0.5280 0.7927 0.3048
vn 0.7828 0.4279 0.4519
vn 0.5889 0.7927 0.1578
vn 0.8730 0.4279 0.2339
vn 0.6096 0.7927 -0.0000
vn 0.9038 0.4279 -0.0000
vn 0.5889 0.7927 -0.1578
vn 0.8730 0.4279 -0.2339
vn 0.5280 0.7927 -0.3048
vn 0.7828 0.4279 -0.4519
vn 0.4311 0.7927 -0.4311
vn 0.6391 0.4279 -0.6391
vn 0.3048 0.7927 -0.5280
vn 0.4519 0.4279 -0.7828
vn 0.1578 0.7927 -0.5889
vn 0.2339 0.4279 -0.8730
vt 0.627220 0.691007
vt 0.623619 0.686315
vt 0.646516 0.673096
vt 0.648779 0.678560
vt 0.697721 0.672117
vt 0.698493 0.666253
vt 0.724031 0.673096
vt 0.721768 0.678560
vt 0.746928 0.686315
vt 0.743327 0.691007
vt 0.765623 0.705010
vt 0.760931 0.708611
vt 0.778842 0.727907
vt 0.773378 0.730170
vt 0.785685 0.753445
vt 0.779821 0.754217
vt 0.785685 0.779884
vt 0.779821 0.779112
vt 0.778842 0.805422
vt 0.773378 0.803159
vt 0.765623 0.828319
vt 0.760931 0.824718
vt 0.746928 0.847014
vt 0.743327 0.842322
vt 0.724031 0.860233
vt 0.721768 0.854769
vt 0.698493 0.867076
vt 0.697721 0.861213
vt 0.672054 0.867076
vt 0.672826 0.861213
vt 0.646516 0.860233
vt 0.648779 0.854769
vt 0.623619 0.847014
vt 0.627220 0.842322
vt 0.604924 0.828319
vt 0.609616 0.824718
vt 0.591705 0.805422
vt 0.597169 0.803159
vt 0.584862 0.779884
vt 0.590726 0.779112
vt 0.584862 0.753445
vt 0.590726 0.754217
vt 0.591705 0.727907
vt 0.597169 0.730170
vt 0.604924 0.705010
vt 0.609616 0.708611
vt 0.250655 0.796860
vt 0.233591 0.804300
vt 0.231953 0.799292
vt 0.248464 0.791837
vt 0.672054 0.647314
vt 0.672826 0.641450
vt 0.697721 0.641450
vt 0.698493 0.647314
vt 0.672054 0.666253
vt 0.672826 0.672117
vt 0.724376 0.342062
vt 0.724376 0.358692
vt 0.718910 0.358692
vt 0.718910 0.342062
vt 0.468683 0.122511
vt 0.406036 0.154383
vt 0.397637 0.140031
vt 0.456109 0.101025
vt 0.478647 0.145325
vt 0.412692 0.169623
vt 0.485865 0.169150
vt 0.417514 0.185538
vt 0.490236 0.193658
vt 0.420433 0.201909
vt 0.491700 0.218510
vt 0.421411 0.218510
vt 0.490236 0.243362
vt 0.420433 0.235111
vt 0.485865 0.267870
vt 0.417514 0.251483
vt 0.478647 0.291696
vt 0.412692 0.267398
vt 0.468683 0.314510
vt 0.406036 0.282637
vt 0.456109 0.335996
vt 0.397637 0.296990
vt 0.441100 0.355858
vt 0.387611 0.310257
vt 0.423863 0.373820
vt 0.376097 0.322256
vt 0.404637 0.389635
vt 0.363254 0.332820
vt 0.383687 0.403084
vt 0.349260 0.341804
vt 0.361304 0.413980
vt 0.334308 0.349083
vt 0.337796 0.422174
vt 0.318604 0.354556
vt 0.313488 0.427551
vt 0.302367 0.358148
vt 0.337796 0.014847
vt 0.318604 0.082465
vt 0.302367 0.078873
vt 0.313488 0.009470
vt 0.361304 0.023040
vt 0.334308 0.087938
vt 0.383687 0.033937
vt 0.349260 0.095217
vt 0.404637 0.047385
vt 0.363254 0.104200
vt 0.423863 0.063200
vt 0.376097 0.114764
vt 0.441100 0.081163
vt 0.387611 0.126763
vt 0.192603 0.458931
vt 0.192603 0.485370
vt 0.190335 0.485370
vt 0.190335 0.458931
vt 0.192603 0.432492
vt 0.190335 0.432492
vt 0.192603 0.406053
vt 0.190335 0.406053
vt 0.192603 0.379614
vt 0.190335 0.379614
vt 0.192603 0.353175
vt 0.190335 0.353175
vt 0.192603 0.326736
vt 0.190335 0.326736
vt 0.192603 0.300297
vt 0.190335 0.300297
vt 0.192603 0.273859
vt 0.190335 0.273859
vt 0.192603 0.247420
vt 0.190335 0.247420
vt 0.192603 0.220981
vt 0.190335 0.220981
vt 0.192603 0.194542
vt 0.190335 0.194542
vt 0.192603 0.168103
vt 0.190335 0.168103
vt 0.192603 0.141664
vt 0.190335 0.141664
vt 0.192603 0.115225
vt 0.190335 0.115225
vt 0.192603 0.088786
vt 0.190335 0.088786
vt 0.192603 0.062347
vt 0.190335 0.062347
vt 0.192603 0.035908
vt 0.190335 0.035908
vt 0.192603 0.009470
vt 0.190335 0.009470
vt 0.192603 0.617564
vt 0.192603 0.644003
vt 0.190335 0.644003
vt 0.190335 0.617564
vt 0.192603 0.591125
vt 0.190335 0.591125
vt 0.192603 0.564687
vt 0.190335 0.564687
vt 0.192603 0.538248
vt 0.190335 0.538248
vt 0.192603 0.511809
vt 0.190335 0.511809
vt 0.721768 0.635007
vt 0.724031 0.640471
vt 0.743327 0.622559
vt 0.746928 0.627251
vt 0.760931 0.604956
vt 0.765623 0.608556
vt 0.773378 0.583396
vt 0.778842 0.585659
vt 0.779822 0.559349
vt 0.785685 0.560121
vt 0.779822 0.534454
vt 0.785685 0.533683
vt 0.773378 0.510408
vt 0.778842 0.508144
vt 0.760931 0.488848
vt 0.765623 0.485248
vt 0.743327 0.471245
vt 0.746928 0.466553
vt 0.721768 0.458797
vt 0.724031 0.453333
vt 0.697721 0.452354
vt 0.698493 0.446490
vt 0.672826 0.452354
vt 0.672054 0.446490
vt 0.648779 0.458797
vt 0.646516 0.453333
vt 0.627220 0.471245
vt 0.623619 0.466553
vt 0.609616 0.488848
vt 0.604924 0.485248
vt 0.597169 0.510408
vt 0.591705 0.508144
vt 0.590726 0.534455
vt 0.584862 0.533683
vt 0.590726 0.559349
vt 0.584862 0.560121
vt 0.597169 0.583396
vt 0.591705 0.585659
vt 0.609616 0.604956
vt 0.604924 0.608556
vt 0.627220 0.622559
vt 0.623619 0.627251
vt 0.648779 0.635007
vt 0.646516 0.640471
vt 0.584368 0.322256
vt 0.632135 0.373820
vt 0.612908 0.389635
vt 0.571525 0.332821
vt 0.595882 0.310257
vt 0.649371 0.355858
vt 0.614307 0.282637
vt 0.676954 0.314510
vt 0.664380 0.335996
vt 0.605908 0.296990
vt 0.620964 0.267398
vt 0.686919 0.291696
vt 0.625785 0.251483
vt 0.694136 0.267871
vt 0.628705 0.235111
vt 0.698507 0.243362
vt 0.629683 0.218510
vt 0.699971 0.218510
vt 0.628705 0.201910
vt 0.698507 0.193659
vt 0.625785 0.185538
vt 0.694136 0.169150
vt 0.620964 0.169623
vt 0.686919 0.145325
vt 0.614307 0.154383
vt 0.676954 0.122511
vt 0.605908 0.140031
vt 0.664380 0.101025
vt 0.595882 0.126763
vt 0.649371 0.081163
vt 0.584368 0.114764
vt 0.632135 0.063200
vt 0.571525 0.104200
vt 0.612908 0.047385
vt 0.557531 0.095217
vt 0.591959 0.033937
vt 0.542579 0.087938
vt 0.569575 0.023040
vt 0.526876 0.082465
vt 0.546067 0.014847
vt 0.510639 0.078873
vt 0.521760 0.009470
vt 0.526876 0.354556
vt 0.546067 0.422174
vt 0.521760 0.427551
vt 0.510639 0.358148
vt 0.542579 0.349083
vt 0.569575 0.413980
vt 0.557531 0.341804
vt 0.591959 0.403084
vt 0.215306 0.802657
vt 0.214456 0.792938
vt 0.228725 0.789822
vt 0.274171 0.710960
vt 0.278850 0.728686
vt 0.273571 0.729437
vt 0.269257 0.712995
vt 0.200240 0.667462
vt 0.218632 0.667462
vt 0.217937 0.672754
vt 0.200931 0.672750
vt 0.138900 0.727142
vt 0.143973 0.709493
vt 0.148858 0.711588
vt 0.144158 0.727869
vt 0.215789 0.807925
vt 0.197565 0.807393
vt 0.198388 0.802161
vt 0.279114 0.747075
vt 0.274473 0.765023
vt 0.269453 0.763053
vt 0.273798 0.746466
vt 0.236408 0.672444
vt 0.252256 0.681850
vt 0.248987 0.686066
vt 0.234335 0.677369
vt 0.153437 0.693799
vt 0.166574 0.681095
vt 0.169788 0.685319
vt 0.157607 0.697077
vt 0.151857 0.779186
vt 0.143115 0.763137
vt 0.148038 0.761196
vt 0.156124 0.776041
vt 0.180043 0.802072
vt 0.164458 0.792463
vt 0.167778 0.788324
vt 0.182197 0.797221
vt 0.265463 0.781353
vt 0.252763 0.795722
vt 0.260961 0.778187
vt 0.265126 0.694984
vt 0.260891 0.698212
vt 0.182444 0.671986
vt 0.184468 0.676895
vt 0.138775 0.745423
vt 0.144036 0.744778
vt 0.256794 0.731649
vt 0.253624 0.719438
vt 0.260186 0.716776
vt 0.263875 0.730729
vt 0.165324 0.703103
vt 0.157896 0.715430
vt 0.253086 0.704199
vt 0.242966 0.693878
vt 0.242124 0.783016
vt 0.153942 0.729302
vt 0.230531 0.686483
vt 0.252835 0.772272
vt 0.153685 0.743674
vt 0.216566 0.682603
vt 0.260165 0.759408
vt 0.157118 0.757585
vt 0.163986 0.770208
vt 0.173899 0.780654
vt 0.202121 0.682457
vt 0.263880 0.745238
vt 0.186166 0.788223
vt 0.188162 0.686060
vt 0.199996 0.792390
vt 0.175617 0.693101
vt 0.189069 0.781752
vt 0.201145 0.785406
vt 0.213796 0.785810
vt 0.179858 0.698779
vt 0.170841 0.707487
vt 0.247388 0.708483
vt 0.226258 0.783027
vt 0.164410 0.718265
vt 0.238589 0.699451
vt 0.237704 0.776937
vt 0.160916 0.730338
vt 0.227722 0.693049
vt 0.247045 0.767829
vt 0.160720 0.742880
vt 0.215576 0.689618
vt 0.253467 0.756646
vt 0.163680 0.755040
vt 0.202979 0.689520
vt 0.256804 0.744322
vt 0.169723 0.766027
vt 0.190791 0.692609
vt 0.178359 0.775148
vt 0.205164 0.741826
vt 0.204158 0.740781
vt 0.203456 0.739511
vt 0.203107 0.738103
vt 0.203132 0.736654
vt 0.203532 0.735260
vt 0.204279 0.734018
vt 0.205322 0.733011
vt 0.206589 0.732305
vt 0.207996 0.731952
vt 0.209447 0.731974
vt 0.210843 0.732371
vt 0.212090 0.733116
vt 0.213101 0.734158
vt 0.213809 0.735427
vt 0.214165 0.736837
vt 0.214140 0.738291
vt 0.213740 0.739690
vt 0.212991 0.740938
vt 0.211944 0.741950
vt 0.210670 0.742654
vt 0.209258 0.743005
vt 0.207804 0.742978
vt 0.206408 0.742576
vt 0.176556 0.761038
vt 0.183686 0.768557
vt 0.183983 0.755606
vt 0.189477 0.761381
vt 0.193441 0.756464
vt 0.189065 0.751884
vt 0.194210 0.748109
vt 0.197445 0.751485
vt 0.192533 0.774001
vt 0.196292 0.765556
vt 0.198860 0.759769
vt 0.201445 0.753914
vt 0.202512 0.777001
vt 0.203975 0.767842
vt 0.204962 0.761566
vt 0.205946 0.755228
vt 0.212962 0.777294
vt 0.212008 0.768039
vt 0.211333 0.761716
vt 0.210639 0.755329
vt 0.223215 0.774924
vt 0.219856 0.766170
vt 0.217545 0.760208
vt 0.215205 0.754206
vt 0.232522 0.769850
vt 0.226943 0.762264
vt 0.223151 0.757117
vt 0.219324 0.751930
vt 0.240182 0.762468
vt 0.232780 0.756645
vt 0.227765 0.752669
vt 0.222713 0.748661
vt 0.245515 0.753316
vt 0.236913 0.749685
vt 0.231044 0.747167
vt 0.225130 0.744622
vt 0.248313 0.743185
vt 0.239087 0.741910
vt 0.232776 0.741014
vt 0.226412 0.740096
vt 0.248340 0.732725
vt 0.239140 0.733869
vt 0.232843 0.734636
vt 0.226472 0.735398
vt 0.245739 0.722634
vt 0.237152 0.726103
vt 0.231266 0.728470
vt 0.225317 0.730852
vt 0.240596 0.713590
vt 0.233208 0.719139
vt 0.228149 0.722932
vt 0.223025 0.726765
vt 0.233339 0.706138
vt 0.227628 0.713411
vt 0.223716 0.718387
vt 0.219759 0.723412
vt 0.224380 0.700862
vt 0.220748 0.709348
vt 0.218260 0.715150
vt 0.215739 0.721020
vt 0.214376 0.698029
vt 0.213063 0.707171
vt 0.212159 0.713428
vt 0.211241 0.719748
vt 0.203993 0.697938
vt 0.205085 0.707087
vt 0.205825 0.713346
vt 0.206569 0.719682
vt 0.193939 0.700473
vt 0.197355 0.709033
vt 0.199689 0.714897
vt 0.202043 0.720824
vt 0.184915 0.705556
vt 0.190411 0.712931
vt 0.194167 0.717980
vt 0.197967 0.723095
vt 0.177468 0.712746
vt 0.184693 0.718460
vt 0.189626 0.722377
vt 0.194616 0.726339
vt 0.172169 0.721636
vt 0.180600 0.725285
vt 0.186373 0.727797
vt 0.192215 0.730338
vt 0.169297 0.731577
vt 0.178395 0.732932
vt 0.184624 0.733872
vt 0.190926 0.734821
vt 0.169102 0.741922
vt 0.178241 0.740892
vt 0.184503 0.740194
vt 0.190838 0.739487
vt 0.171558 0.751974
vt 0.180136 0.748630
vt 0.186015 0.746338
vt 0.191957 0.744018
vt 0.171396 0.485370
vt 0.171396 0.511809
vt 0.169128 0.511809
vt 0.169128 0.485370
vt 0.146217 0.173181
vt 0.146222 0.147315
vt 0.149402 0.147323
vt 0.149441 0.173181
vt 0.171396 0.538248
vt 0.169128 0.538248
vt 0.146242 0.121094
vt 0.149553 0.121107
vt 0.171396 0.564687
vt 0.169128 0.564687
vt 0.146324 0.094161
vt 0.149726 0.094179
vt 0.171396 0.591126
vt 0.169128 0.591126
vt 0.146399 0.066498
vt 0.149941 0.066510
vt 0.171396 0.617565
vt 0.169128 0.617565
vt 0.146465 0.038455
vt 0.149942 0.038471
vt 0.171396 0.644003
vt 0.169128 0.644003
vt 0.146642 0.009492
vt 0.150188 0.009892
vt 0.171396 0.009470
vt 0.171396 0.035908
vt 0.169128 0.035909
vt 0.169128 0.009470
vt 0.146559 0.648523
vt 0.146459 0.621653
vt 0.149681 0.621644
vt 0.149944 0.648147
vt 0.171396 0.062347
vt 0.169128 0.062347
vt 0.146455 0.595409
vt 0.149813 0.595410
vt 0.171396 0.088786
vt 0.169128 0.088786
vt 0.146447 0.568832
vt 0.149739 0.568825
vt 0.171396 0.115225
vt 0.169128 0.115225
vt 0.146378 0.542602
vt 0.149604 0.542590
vt 0.171396 0.141664
vt 0.169128 0.141664
vt 0.146291 0.517062
vt 0.149453 0.517053
vt 0.171396 0.168103
vt 0.169128 0.168103
vt 0.146235 0.491871
vt 0.149374 0.491868
vt 0.171396 0.194542
vt 0.169128 0.194542
vt 0.146208 0.466682
vt 0.149304 0.466686
vt 0.171396 0.220981
vt 0.169128 0.220981
vt 0.146194 0.441147
vt 0.149419 0.441155
vt 0.171396 0.247420
vt 0.169128 0.247420
vt 0.146241 0.414919
vt 0.149554 0.414932
vt 0.171396 0.273859
vt 0.169128 0.273859
vt 0.146279 0.387981
vt 0.149728 0.387987
vt 0.171396 0.300298
vt 0.169128 0.300298
vt 0.146298 0.360684
vt 0.149701 0.360687
vt 0.171396 0.326737
vt 0.169128 0.326737
vt 0.146292 0.333389
vt 0.149672 0.333388
vt 0.171396 0.353175
vt 0.169128 0.353175
vt 0.146290 0.306443
vt 0.149581 0.306448
vt 0.171396 0.379614
vt 0.169128 0.379614
vt 0.146307 0.279499
vt 0.149756 0.279505
vt 0.171396 0.406053
vt 0.169128 0.406053
vt 0.146334 0.252208
vt 0.149714 0.252205
vt 0.171396 0.432492
vt 0.169128 0.432492
vt 0.146297 0.225274
vt 0.149610 0.225265
vt 0.171396 0.458931
vt 0.169128 0.458931
vt 0.146242 0.199048
vt 0.149488 0.199042
vt 0.139323 0.199060
vt 0.139284 0.173201
vt 0.142508 0.173202
vt 0.142503 0.199068
vt 0.139171 0.225278
vt 0.142483 0.225291
vt 0.138997 0.252216
vt 0.142445 0.252222
vt 0.139038 0.279516
vt 0.142417 0.279515
vt 0.139128 0.306455
vt 0.142419 0.306460
vt 0.138953 0.333400
vt 0.142402 0.333406
vt 0.138980 0.360699
vt 0.142383 0.360701
vt 0.139009 0.387999
vt 0.142389 0.387997
vt 0.139113 0.414944
vt 0.142426 0.414935
vt 0.139255 0.441180
vt 0.142481 0.441168
vt 0.139405 0.466716
vt 0.142567 0.466706
vt 0.139484 0.491900
vt 0.142623 0.491897
vt 0.139553 0.517083
vt 0.142650 0.517087
vt 0.139438 0.542616
vt 0.142664 0.542624
vt 0.139302 0.568849
vt 0.142660 0.568851
vt 0.139376 0.595435
vt 0.142667 0.595428
vt 0.139503 0.621667
vt 0.142724 0.621675
vt 0.139275 0.648152
vt 0.142659 0.648523
vt 0.138926 0.038469
vt 0.138775 0.009857
vt 0.142432 0.009470
vt 0.142458 0.038465
vt 0.138932 0.066507
vt 0.142404 0.066509
vt 0.139004 0.094178
vt 0.142407 0.094173
vt 0.139116 0.121119
vt 0.142428 0.121111
vt 0.139237 0.147341
vt 0.142484 0.147335
vt 0.724376 0.026099
vt 0.724376 0.042729
vt 0.718910 0.042729
vt 0.718910 0.026099
vt 0.724376 0.308803
vt 0.724376 0.325433
vt 0.718910 0.325433
vt 0.718910 0.308803
vt 0.724376 0.109247
vt 0.724376 0.125877
vt 0.718910 0.125877
vt 0.718910 0.109247
vt 0.724376 0.192396
vt 0.724376 0.209025
vt 0.718910 0.209025
vt 0.718910 0.192396
vt 0.724376 0.275544
vt 0.724376 0.292173
vt 0.718910 0.292173
vt 0.718910 0.275544
vt 0.724376 0.391951
vt 0.724376 0.408581
vt 0.718910 0.408581
vt 0.718910 0.391951
vt 0.724376 0.075988
vt 0.724376 0.092618
vt 0.718910 0.092618
vt 0.718910 0.075988
vt 0.724376 0.159136
vt 0.724376 0.175766
vt 0.718910 0.175766
vt 0.718910 0.159136
vt 0.724376 0.242284
vt 0.724376 0.258914
vt 0.718910 0.258914
vt 0.718910 0.242284
vt 0.724376 0.375322
vt 0.718910 0.375322
vt 0.724376 0.059358
vt 0.718910 0.059358
vt 0.724376 0.142507
vt 0.718910 0.142507
vt 0.724376 0.225655
vt 0.718910 0.225655
vt 0.724376 0.009470
vt 0.718910 0.009470
s 1
f 123/1/1 119/2/1 74/3/1 121/4/1
f 124/5/1 77/6/1 79/7/1 125/8/1
f 125/8/1 79/7/1 81/9/1 126/10/1
f 126/10/1 81/9/1 83/11/1 127/12/1
f 127/12/1 83/11/1 85/13/1 128/14/1
f 128/14/1 85/13/1 87/15/1 129/16/1
f 129/16/1 87/15/1 89/17/1 130/18/1
f 130/18/1 89/17/1 91/19/1 131/20/1
f 131/20/1 91/19/1 93/21/1 132/22/1
f 132/22/1 93/21/1 95/23/1 133/24/1
f 133/24/1 95/23/1 97/25/1 134/26/1
f 134/26/1 97/25/1 99/27/1 135/28/1
f 135/28/1 99/27/1 101/29/1 136/30/1
f 136/30/1 101/29/1 103/31/1 137/32/1
f 137/32/1 103/31/1 105/33/1 138/34/1
f 138/34/1 105/33/1 107/35/1 139/36/1
f 139/36/1 107/35/1 109/37/1 140/38/1
f 140/38/1 109/37/1 111/39/1 141/40/1
f 141/40/1 111/39/1 113/41/1 142/42/1
f 142/42/1 113/41/1 115/43/1 143/44/1
f 143/44/1 115/43/1 117/45/1 144/46/1
f 144/46/1 117/45/1 119/2/1 123/1/1
f 14/47/2 12/48/3 150/49/3 151/50/2
f 120/51/4 72/52/4 71/53/4 73/54/4
f 121/4/1 74/3/1 75/55/1 122/56/1
f 5/57/5 7/58/6 412/59/6 411/60/5
f 122/56/1 75/55/1 77/6/1 124/5/1
f 49/61/7 46/62/7 48/63/8 72/64/8
f 50/65/9 44/66/9 46/62/7 49/61/7
f 51/67/10 42/68/10 44/66/9 50/65/9
f 52/69/11 40/70/11 42/68/10 51/67/10
f 53/71/12 38/72/12 40/70/11 52/69/11
f 54/73/13 36/74/13 38/72/12 53/71/12
f 55/75/14 34/76/14 36/74/13 54/73/13
f 56/77/15 32/78/15 34/76/14 55/75/14
f 57/79/16 30/80/16 32/78/15 56/77/15
f 58/81/17 28/82/17 30/80/16 57/79/16
f 59/83/18 26/84/18 28/82/17 58/81/17
f 60/85/19 24/86/19 26/84/18 59/83/18
f 61/87/20 22/88/20 24/86/19 60/85/19
f 62/89/21 20/90/21 22/88/20 61/87/20
f 63/91/22 18/92/22 20/90/21 62/89/21
f 64/93/23 16/94/23 18/92/22 63/91/22
f 65/95/24 14/96/24 16/94/23 64/93/23
f 66/97/25 12/98/25 14/99/24 65/100/24
f 67/101/26 10/102/26 12/98/25 66/97/25
f 68/103/27 8/104/27 10/102/26 67/101/26
f 69/105/28 6/106/28 8/104/27 68/103/27
f 70/107/29 4/108/29 6/106/28 69/105/28
f 71/109/30 2/110/30 4/108/29 70/107/29
f 313/111/31 316/112/32 74/113/32 119/114/31
f 317/115/33 313/111/31 119/114/31 117/116/33
f 319/117/34 317/115/33 117/116/33 115/118/34
f 321/119/35 319/117/34 115/118/34 113/120/35
f 323/121/36 321/119/35 113/120/35 111/122/36
f 325/123/37 323/121/36 111/122/36 109/124/37
f 327/125/38 325/123/37 109/124/37 107/126/38
f 329/127/39 327/125/38 107/126/38 105/128/39
f 331/129/40 329/127/39 105/128/39 103/130/40
f 333/131/41 331/129/40 103/130/40 101/132/41
f 335/133/42 333/131/41 101/132/41 99/134/42
f 337/135/43 335/133/42 99/134/42 97/136/43
f 339/137/44 337/135/43 97/136/43 95/138/44
f 341/139/45 339/137/44 95/138/44 93/140/45
f 343/141/46 341/139/45 93/140/45 91/142/46
f 345/143/47 343/141/46 91/142/46 89/144/47
f 347/145/48 345/143/47 89/144/47 87/146/48
f 349/147/2 347/145/48 87/146/48 85/148/2
f 351/149/3 349/150/2 85/151/2 83/152/3
f 353/153/49 351/149/3 83/152/3 81/154/49
f 355/155/6 353/153/49 81/154/49 79/156/6
f 357/157/5 355/155/6 79/156/6 77/158/5
f 359/159/50 357/157/5 77/158/5 75/160/50
f 316/112/32 359/159/50 75/160/50 74/113/32
f 72/64/8 48/63/8 2/110/30 71/109/30
f 73/54/4 71/53/4 70/161/4 76/162/4
f 76/162/4 70/161/4 69/163/4 78/164/4
f 78/164/4 69/163/4 68/165/4 80/166/4
f 80/166/4 68/165/4 67/167/4 82/168/4
f 82/168/4 67/167/4 66/169/4 84/170/4
f 84/170/4 66/169/4 65/171/4 86/172/4
f 86/172/4 65/171/4 64/173/4 88/174/4
f 88/174/4 64/173/4 63/175/4 90/176/4
f 90/176/4 63/175/4 62/177/4 92/178/4
f 92/178/4 62/177/4 61/179/4 94/180/4
f 94/180/4 61/179/4 60/181/4 96/182/4
f 96/182/4 60/181/4 59/183/4 98/184/4
f 98/184/4 59/183/4 58/185/4 100/186/4
f 100/186/4 58/185/4 57/187/4 102/188/4
f 102/188/4 57/187/4 56/189/4 104/190/4
f 104/190/4 56/189/4 55/191/4 106/192/4
f 106/192/4 55/191/4 54/193/4 108/194/4
f 108/194/4 54/193/4 53/195/4 110/196/4
f 110/196/4 53/195/4 52/197/4 112/198/4
f 112/198/4 52/197/4 51/199/4 114/200/4
f 114/200/4 51/199/4 50/201/4 116/202/4
f 116/202/4 50/201/4 49/203/4 118/204/4
f 118/204/4 49/203/4 72/52/4 120/51/4
f 3/205/51 122/206/51 124/207/52 5/208/52
f 1/209/53 121/210/53 122/206/51 3/205/51
f 45/211/54 144/212/54 123/213/55 47/214/55
f 43/215/56 143/216/56 144/212/54 45/211/54
f 41/217/57 142/218/57 143/216/56 43/215/56
f 39/219/58 141/220/58 142/218/57 41/217/57
f 37/221/59 140/222/59 141/220/58 39/219/58
f 35/223/60 139/224/60 140/222/59 37/221/59
f 33/225/61 138/226/61 139/224/60 35/223/60
f 31/227/62 137/228/62 138/226/61 33/225/61
f 29/229/63 136/230/63 137/228/62 31/227/62
f 27/231/64 135/232/64 136/230/63 29/229/63
f 25/233/65 134/234/65 135/232/64 27/231/64
f 23/235/66 133/236/66 134/234/65 25/233/65
f 21/237/67 132/238/67 133/236/66 23/235/66
f 19/239/68 131/240/68 132/238/67 21/237/67
f 17/241/69 130/242/69 131/240/68 19/239/68
f 15/243/70 129/244/70 130/242/69 17/241/69
f 13/245/71 128/246/71 129/244/70 15/243/70
f 11/247/72 127/248/72 128/249/71 13/250/71
f 9/251/73 126/252/73 127/248/72 11/247/72
f 7/253/74 125/254/74 126/252/73 9/251/73
f 5/208/52 124/207/52 125/254/74 7/253/74
f 47/214/55 123/213/55 121/210/53 1/209/53
f 150/49/75 149/255/76 173/256/76 174/257/75
f 24/258/44 22/259/45 155/260/45 156/261/44
f 34/262/39 32/263/40 160/264/40 161/265/39
f 44/266/34 42/267/35 165/268/35 166/269/34
f 10/270/49 8/271/6 148/272/6 149/255/49
f 20/273/46 18/274/47 153/275/47 154/276/46
f 30/277/41 28/278/42 158/279/42 159/280/41
f 40/281/36 38/282/37 163/283/37 164/284/36
f 2/285/32 48/286/31 168/287/31 146/288/32
f 6/289/5 4/290/50 145/291/50 147/292/5
f 16/293/48 14/294/2 151/50/2 152/295/48
f 26/296/43 24/258/44 156/261/44 157/297/43
f 36/298/38 34/262/39 161/265/39 162/299/38
f 46/300/33 44/266/34 166/269/34 167/301/33
f 12/48/3 10/270/49 149/255/49 150/49/3
f 22/259/45 20/273/46 154/276/46 155/260/45
f 32/263/40 30/277/41 159/280/41 160/264/40
f 42/267/35 40/281/36 164/284/36 165/268/35
f 8/271/6 6/289/5 147/292/5 148/272/6
f 18/274/47 16/293/48 152/295/48 153/275/47
f 4/290/50 2/285/32 146/288/32 145/291/50
f 28/278/42 26/296/43 157/297/43 158/279/42
f 38/282/37 36/298/38 162/299/38 163/283/37
f 48/286/31 46/300/33 167/301/33 168/287/31
f 247/302/77 252/303/78 180/304/79 179/305/80
f 165/268/81 164/284/82 188/306/82 189/307/81
f 158/279/83 157/297/84 181/308/84 182/309/83
f 151/50/85 150/49/75 174/257/75 175/310/85
f 166/269/86 165/268/81 189/307/81 190/311/86
f 159/280/87 158/279/83 182/309/83 183/312/87
f 152/295/88 151/50/85 175/310/85 176/313/88
f 167/301/89 166/269/86 190/311/86 191/314/89
f 160/264/90 159/280/87 183/312/87 184/315/90
f 153/275/91 152/295/88 176/313/88 177/316/91
f 168/287/92 167/301/89 191/314/89 192/317/92
f 145/291/93 146/288/94 170/318/94 169/319/93
f 161/265/95 160/264/90 184/315/90 185/320/95
f 154/276/96 153/275/91 177/316/91 178/321/96
f 146/288/94 168/287/92 192/317/92 170/318/94
f 147/292/97 145/291/93 169/319/93 171/322/97
f 162/299/98 161/265/95 185/320/95 186/323/98
f 155/260/99 154/276/96 178/321/96 179/305/99
f 148/272/100 147/292/97 171/322/97 172/324/100
f 163/283/101 162/299/98 186/323/98 187/325/101
f 156/261/102 155/260/99 179/305/99 180/304/102
f 149/255/76 148/272/100 172/324/100 173/256/76
f 164/284/82 163/283/101 187/325/101 188/306/82
f 157/297/84 156/261/102 180/304/102 181/308/84
f 207/326/103 212/327/104 172/324/105 171/322/106
f 212/327/104 217/328/107 173/256/108 172/324/105
f 287/329/109 292/330/110 188/306/111 187/325/112
f 252/303/78 257/331/113 181/308/114 180/304/79
f 217/328/107 222/332/115 174/257/116 173/256/108
f 292/330/110 297/333/117 189/307/118 188/306/111
f 257/331/113 262/334/119 182/309/120 181/308/114
f 222/332/115 227/335/121 175/310/122 174/257/116
f 297/333/117 302/336/123 190/311/124 189/307/118
f 262/334/119 267/337/125 183/312/126 182/309/120
f 227/335/121 232/338/127 176/313/128 175/310/122
f 302/336/123 307/339/129 191/314/130 190/311/124
f 267/337/125 272/340/131 184/315/132 183/312/126
f 232/338/127 237/341/133 177/316/134 176/313/128
f 307/339/129 312/342/135 192/317/136 191/314/130
f 272/340/131 277/343/137 185/320/138 184/315/132
f 237/341/133 242/344/139 178/321/140 177/316/134
f 312/342/135 199/345/141 170/318/142 192/317/136
f 277/343/137 282/346/143 186/323/144 185/320/138
f 242/344/139 247/302/77 179/305/80 178/321/140
f 197/347/145 207/326/103 171/322/106 169/319/146
f 193/348/147 198/349/148 308/350/149 303/351/150 298/352/151 293/353/152 288/354/153 283/355/154 278/356/155 273/357/156 268/358/157 263/359/158 258/360/159 253/361/160 248/362/161 243/363/162 238/364/163 233/365/164 228/366/165 223/367/166 218/368/167 213/369/168 208/370/169 203/371/170
f 282/346/143 287/329/109 187/325/112 186/323/144
f 197/347/145 199/345/141 200/372/171 196/373/172
f 196/373/172 200/372/171 201/374/173 195/375/174
f 433/376/175 434/377/176 202/378/177 194/379/178
f 194/379/178 202/378/177 198/349/148 193/348/147
f 207/326/103 197/347/145 196/373/172 206/380/179
f 206/380/179 196/373/172 195/375/174 205/381/180
f 435/382/181 433/376/175 194/379/178 204/383/182
f 204/383/182 194/379/178 193/348/147 203/371/170
f 212/327/104 207/326/103 206/380/179 211/384/183
f 211/384/183 206/380/179 205/381/180 210/385/184
f 436/386/185 435/382/181 204/383/182 209/387/186
f 209/387/186 204/383/182 203/371/170 208/370/169
f 217/328/107 212/327/104 211/384/183 216/388/187
f 216/388/187 211/384/183 210/385/184 215/389/188
f 437/390/189 436/386/185 209/387/186 214/391/190
f 214/391/190 209/387/186 208/370/169 213/369/168
f 222/332/115 217/328/107 216/388/187 221/392/191
f 221/392/191 216/388/187 215/389/188 220/393/192
f 438/394/193 437/390/189 214/391/190 219/395/194
f 219/395/194 214/391/190 213/369/168 218/368/167
f 227/335/121 222/332/115 221/392/191 226/396/195
f 226/396/195 221/392/191 220/393/192 225/397/196
f 439/398/197 438/394/193 219/395/194 224/399/198
f 224/399/198 219/395/194 218/368/167 223/367/166
f 232/338/127 227/335/121 226/396/195 231/400/199
f 231/400/199 226/396/195 225/397/196 230/401/200
f 440/402/201 439/398/197 224/399/198 229/403/202
f 229/403/202 224/399/198 223/367/166 228/366/165
f 237/341/133 232/338/127 231/400/199 236/404/203
f 236/404/203 231/400/199 230/401/200 235/405/204
f 441/406/205 440/402/201 229/403/202 234/407/206
f 234/407/206 229/403/202 228/366/165 233/365/164
f 242/344/139 237/341/133 236/404/203 241/408/207
f 241/408/207 236/404/203 235/405/204 240/409/208
f 442/410/209 441/406/205 234/407/206 239/411/210
f 239/411/210 234/407/206 233/365/164 238/364/163
f 247/302/77 242/344/139 241/408/207 246/412/211
f 246/412/211 241/408/207 240/409/208 245/413/212
f 443/414/213 442/410/209 239/411/210 244/415/214
f 244/415/214 239/411/210 238/364/163 243/363/162
f 252/303/78 247/302/77 246/412/211 251/416/215
f 251/416/215 246/412/211 245/413/212 250/417/216
f 444/418/217 443/414/213 244/415/214 249/419/218
f 249/419/218 244/415/214 243/363/162 248/362/161
f 257/331/113 252/303/78 251/416/215 256/420/219
f 256/420/219 251/416/215 250/417/216 255/421/220
f 445/422/221 444/418/217 249/419/218 254/423/222
f 254/423/222 249/419/218 248/362/161 253/361/160
f 262/334/119 257/331/113 256/420/219 261/424/223
f 261/424/223 256/420/219 255/421/220 260/425/224
f 446/426/225 445/422/221 254/423/222 259/427/226
f 259/427/226 254/423/222 253/361/160 258/360/159
f 267/337/125 262/334/119 261/424/223 266/428/227
f 266/428/227 261/424/223 260/425/224 265/429/228
f 447/430/229 446/426/225 259/427/226 264/431/230
f 264/431/230 259/427/226 258/360/159 263/359/158
f 272/340/131 267/337/125 266/428/227 271/432/231
f 271/432/231 266/428/227 265/429/228 270/433/232
f 448/434/233 447/430/229 264/431/230 269/435/234
f 269/435/234 264/431/230 263/359/158 268/358/157
f 277/343/137 272/340/131 271/432/231 276/436/235
f 276/436/235 271/432/231 270/433/232 275/437/236
f 449/438/237 448/434/233 269/435/234 274/439/238
f 274/439/238 269/435/234 268/358/157 273/357/156
f 282/346/143 277/343/137 276/436/235 281/440/239
f 281/440/239 276/436/235 275/437/236 280/441/240
f 450/442/241 449/438/237 274/439/238 279/443/242
f 279/443/242 274/439/238 273/357/156 278/356/155
f 287/329/109 282/346/143 281/440/239 286/444/243
f 286/444/243 281/440/239 280/441/240 285/445/244
f 451/446/245 450/442/241 279/443/242 284/447/246
f 284/447/246 279/443/242 278/356/155 283/355/154
f 292/330/110 287/329/109 286/444/243 291/448/247
f 291/448/247 286/444/243 285/445/244 290/449/248
f 452/450/249 451/446/245 284/447/246 289/451/250
f 289/451/250 284/447/246 283/355/154 288/354/153
f 297/333/117 292/330/110 291/448/247 296/452/251
f 296/452/251 291/448/247 290/449/248 295/453/252
f 453/454/253 452/450/249 289/451/250 294/455/254
f 294/455/254 289/451/250 288/354/153 293/353/152
f 302/336/123 297/333/117 296/452/251 301/456/255
f 301/456/255 296/452/251 295/453/252 300/457/256
f 454/458/257 453/454/253 294/455/254 299/459/258
f 299/459/258 294/455/254 293/353/152 298/352/151
f 307/339/129 302/336/123 301/456/255 306/460/259
f 306/460/259 301/456/255 300/457/256 305/461/260
f 455/462/261 454/458/257 299/459/258 304/463/262
f 304/463/262 299/459/258 298/352/151 303/351/150
f 312/342/135 307/339/129 306/460/259 311/464/263
f 311/464/263 306/460/259 305/461/260 310/465/264
f 456/466/265 455/462/261 304/463/262 309/467/266
f 309/467/266 304/463/262 303/351/150 308/350/149
f 199/345/141 312/342/135 311/464/263 200/372/171
f 200/372/171 311/464/263 310/465/264 201/374/173
f 434/377/176 456/466/265 309/467/266 202/378/177
f 202/378/177 309/467/266 308/350/149 198/349/148
f 73/468/32 76/469/50 360/470/50 315/471/32
f 364/472/267 407/473/268 359/474/269 316/475/270
f 76/469/50 78/476/5 358/477/5 360/470/50
f 407/473/268 405/478/271 357/479/272 359/474/269
f 78/476/5 80/480/6 356/481/6 358/477/5
f 405/478/271 403/482/273 355/483/274 357/479/272
f 80/480/6 82/484/49 354/485/49 356/481/6
f 403/482/273 401/486/275 353/487/276 355/483/274
f 82/484/49 84/488/3 352/489/3 354/485/49
f 401/486/275 399/490/277 351/491/278 353/487/276
f 84/488/3 86/492/2 350/493/2 352/489/3
f 399/490/277 397/494/279 349/495/280 351/491/278
f 86/496/2 88/497/48 348/498/48 350/499/2
f 397/500/279 395/501/281 347/502/282 349/503/280
f 88/497/48 90/504/47 346/505/47 348/498/48
f 395/501/281 393/506/283 345/507/284 347/502/282
f 90/504/47 92/508/46 344/509/46 346/505/47
f 393/506/283 391/510/285 343/511/286 345/507/284
f 92/508/46 94/512/45 342/513/45 344/509/46
f 391/510/285 389/514/287 341/515/288 343/511/286
f 94/512/45 96/516/44 340/517/44 342/513/45
f 389/514/287 387/518/289 339/519/290 341/515/288
f 96/516/44 98/520/43 338/521/43 340/517/44
f 387/518/289 385/522/291 337/523/292 339/519/290
f 98/520/43 100/524/42 336/525/42 338/521/43
f 385/522/291 383/526/293 335/527/294 337/523/292
f 100/524/42 102/528/41 334/529/41 336/525/42
f 383/526/293 381/530/295 333/531/296 335/527/294
f 102/528/41 104/532/40 332/533/40 334/529/41
f 381/530/295 379/534/297 331/535/298 333/531/296
f 104/532/40 106/536/39 330/537/39 332/533/40
f 379/534/297 377/538/299 329/539/300 331/535/298
f 106/536/39 108/540/38 328/541/38 330/537/39
f 377/538/299 375/542/301 327/543/302 329/539/300
f 108/540/38 110/544/37 326/545/37 328/541/38
f 375/542/301 373/546/303 325/547/304 327/543/302
f 110/544/37 112/548/36 324/549/36 326/545/37
f 373/546/303 371/550/305 323/551/306 325/547/304
f 112/548/36 114/552/35 322/553/35 324/549/36
f 371/550/305 369/554/307 321/555/308 323/551/306
f 114/552/35 116/556/34 320/557/34 322/553/35
f 369/554/307 367/558/309 319/559/310 321/555/308
f 116/556/34 118/560/33 318/561/33 320/557/34
f 367/558/309 365/562/311 317/563/312 319/559/310
f 118/560/33 120/564/31 314/565/31 318/561/33
f 365/562/311 361/566/313 313/567/314 317/563/312
f 120/564/31 73/468/32 315/471/32 314/565/31
f 361/566/313 364/472/267 316/475/270 313/567/314
f 314/568/315 315/569/316 363/570/317 362/571/318
f 362/571/318 363/570/317 364/472/267 361/566/313
f 318/572/319 314/568/315 362/571/318 366/573/320
f 366/573/320 362/571/318 361/566/313 365/562/311
f 320/574/321 318/572/319 366/573/320 368/575/322
f 368/575/322 366/573/320 365/562/311 367/558/309
f 322/576/323 320/574/321 368/575/322 370/577/324
f 370/577/324 368/575/322 367/558/309 369/554/307
f 324/578/325 322/576/323 370/577/324 372/579/326
f 372/579/326 370/577/324 369/554/307 371/550/305
f 326/580/327 324/578/325 372/579/326 374/581/328
f 374/581/328 372/579/326 371/550/305 373/546/303
f 328/582/329 326/580/327 374/581/328 376/583/330
f 376/583/330 374/581/328 373/546/303 375/542/301
f 330/584/331 328/582/329 376/583/330 378/585/332
f 378/585/332 376/583/330 375/542/301 377/538/299
f 332/586/333 330/584/331 378/585/332 380/587/334
f 380/587/334 378/585/332 377/538/299 379/534/297
f 334/588/335 332/586/333 380/587/334 382/589/336
f 382/589/336 380/587/334 379/534/297 381/530/295
f 336/590/337 334/588/335 382/589/336 384/591/338
f 384/591/338 382/589/336 381/530/295 383/526/293
f 338/592/339 336/590/337 384/591/338 386/593/340
f 386/593/340 384/591/338 383/526/293 385/522/291
f 340/594/341 338/592/339 386/593/340 388/595/342
f 388/595/342 386/593/340 385/522/291 387/518/289
f 342/596/343 340/594/341 388/595/342 390/597/344
f 390/597/344 388/595/342 387/518/289 389/514/287
f 344/598/345 342/596/343 390/597/344 392/599/346
f 392/599/346 390/597/344 389/514/287 391/510/285
f 346/600/347 344/598/345 392/599/346 394/601/348
f 394/601/348 392/599/346 391/510/285 393/506/283
f 348/602/349 346/600/347 394/601/348 396/603/350
f 396/603/350 394/601/348 393/506/283 395/501/281
f 350/604/351 348/602/349 396/603/350 398/605/352
f 398/605/352 396/603/350 395/501/281 397/500/279
f 352/606/353 350/607/351 398/608/352 400/609/354
f 400/609/354 398/608/352 397/494/279 399/490/277
f 354/610/355 352/606/353 400/609/354 402/611/356
f 402/611/356 400/609/354 399/490/277 401/486/275
f 356/612/357 354/610/355 402/611/356 404/613/358
f 404/613/358 402/611/356 401/486/275 403/482/273
f 358/614/359 356/612/357 404/613/358 406/615/360
f 406/615/360 404/613/358 403/482/273 405/478/271
f 360/616/361 358/614/359 406/615/360 408/617/362
f 408/617/362 406/615/360 405/478/271 407/473/268
f 315/569/316 360/616/361 408/617/362 363/570/317
f 363/570/317 408/617/362 407/473/268 364/472/267
f 169/319/146 170/318/142 199/345/141 197/347/145
f 15/618/48 17/619/47 417/620/47 416/621/48
f 1/622/32 3/623/50 410/624/50 409/625/32
f 25/626/43 27/627/42 422/628/42 421/629/43
f 35/630/38 37/631/37 427/632/37 426/633/38
f 45/634/33 47/635/31 432/636/31 431/637/33
f 11/638/3 13/639/2 415/640/2 414/641/3
f 21/642/45 23/643/44 420/644/44 419/645/45
f 31/646/40 33/647/39 425/648/39 424/649/40
f 41/650/35 43/651/34 430/652/34 429/653/35
f 7/58/6 9/654/49 413/655/49 412/59/6
f 17/619/47 19/656/46 418/657/46 417/620/47
f 27/627/42 29/658/41 423/659/41 422/628/42
f 37/631/37 39/660/36 428/661/36 427/632/37
f 47/635/31 1/622/32 409/625/32 432/636/31
f 3/623/50 5/57/5 411/60/5 410/624/50
f 13/662/2 15/618/48 416/621/48 415/663/2
f 23/643/44 25/626/43 421/629/43 420/644/44
f 33/647/39 35/630/38 426/633/38 425/648/39
f 43/651/34 45/634/33 431/637/33 430/652/34
f 9/654/49 11/638/3 414/641/3 413/655/49
f 19/656/46 21/642/45 419/645/45 418/657/46
f 29/658/41 31/646/40 424/649/40 423/659/41
f 39/660/36 41/650/35 429/653/35 428/661/36
f 201/374/173 310/465/264 456/466/265 434/377/176
f 310/465/264 305/461/260 455/462/261 456/466/265
f 305/461/260 300/457/256 454/458/257 455/462/261
f 300/457/256 295/453/252 453/454/253 454/458/257
f 295/453/252 290/449/248 452/450/249 453/454/253
f 290/449/248 285/445/244 451/446/245 452/450/249
f 285/445/244 280/441/240 450/442/241 451/446/245
f 280/441/240 275/437/236 449/438/237 450/442/241
f 275/437/236 270/433/232 448/434/233 449/438/237
f 270/433/232 265/429/228 447/430/229 448/434/233
f 265/429/228 260/425/224 446/426/225 447/430/229
f 260/425/224 255/421/220 445/422/221 446/426/225
f 255/421/220 250/417/216 444/418/217 445/422/221
f 250/417/216 245/413/212 443/414/213 444/418/217
f 245/413/212 240/409/208 442/410/209 443/414/213
f 240/409/208 235/405/204 441/406/205 442/410/209
f 235/405/204 230/401/200 440/402/201 441/406/205
f 230/401/200 225/397/196 439/398/197 440/402/201
f 225/397/196 220/393/192 438/394/193 439/398/197
f 220/393/192 215/389/188 437/390/189 438/394/193
f 215/389/188 210/385/184 436/386/185 437/390/189
f 210/385/184 205/381/180 435/382/181 436/386/185
f 205/381/180 195/375/174 433/376/175 435/382/181
f 195/375/174 201/374/173 434/377/176 433/376/175
