# Blender 4.1.1
# www.blender.org
o SpaceCapsule_Valves
v 0.990987 -0.246778 -0.131484
v 0.998224 -0.246674 -0.131381
v 0.990987 -0.236284 -0.121066
v 0.990987 -0.231624 -0.141689
v 0.998224 -0.231568 -0.141554
v 0.990987 -0.225784 -0.127733
v 0.990987 -0.213719 -0.145318
v 0.990987 -0.213664 -0.130190
v 0.990987 -0.195788 -0.141819
v 0.990987 -0.201526 -0.127821
v 0.990987 -0.180561 -0.131724
v 0.990987 -0.190978 -0.121231
v 0.990987 -0.170356 -0.116571
v 0.998224 -0.170490 -0.116514
v 0.990987 -0.184311 -0.110731
v 0.990987 -0.166727 -0.098665
v 0.990987 -0.181855 -0.098610
v 0.990987 -0.170226 -0.080734
v 0.998224 -0.170361 -0.080790
v 0.990987 -0.184223 -0.086473
v 1.002212 -0.175428 -0.114448
v 0.990987 -0.180320 -0.065507
v 0.995345 -0.191163 -0.076271
v 0.990987 -0.190814 -0.075925
v 0.990987 -0.195474 -0.055302
v 0.990987 -0.201314 -0.069257
v 0.990987 -0.213379 -0.051673
v 1.002212 -0.184435 -0.127822
v 0.990987 -0.213434 -0.066801
v 0.990987 -0.231310 -0.055172
v 0.990987 -0.225572 -0.069169
v 0.990987 -0.246537 -0.065267
v 0.998224 -0.246435 -0.065370
v 0.990987 -0.236120 -0.075760
v 0.990987 -0.256742 -0.080420
v 1.002212 -0.197874 -0.136731
v 0.990987 -0.242787 -0.086260
v 0.990987 -0.260372 -0.098325
v 0.998224 -0.260226 -0.098326
v 0.990987 -0.245244 -0.098380
v 0.990987 -0.256873 -0.116256
v 0.990987 -0.242875 -0.110518
v 1.002212 -0.213699 -0.139820
v 1.002212 -0.229502 -0.136617
v 0.998224 -0.213719 -0.145172
v 1.002212 -0.242876 -0.127610
v 0.998224 -0.180664 -0.131621
v 0.998224 -0.180424 -0.065610
v 1.002212 -0.251785 -0.114171
v 0.995345 -0.225515 -0.069309
v 0.995345 -0.235773 -0.076109
v 0.995345 -0.245093 -0.098381
v 0.995345 -0.191325 -0.120881
v 0.995345 -0.242736 -0.110461
v 0.995345 -0.184450 -0.110673
v 0.995345 -0.184362 -0.086530
v 0.995345 -0.201372 -0.069396
v 0.998224 -0.231255 -0.055307
v 1.002212 -0.254873 -0.098345
v 0.998224 -0.256608 -0.080476
v 0.998224 -0.256738 -0.116201
v 1.002212 -0.251670 -0.082543
v 1.002212 -0.242664 -0.069169
v 1.002212 -0.229225 -0.060259
v 0.998224 -0.195843 -0.141684
v 1.002212 -0.213399 -0.057171
v 1.002212 -0.197596 -0.060374
v 0.998224 -0.166872 -0.098665
v 1.002212 -0.184222 -0.069381
v 1.002212 -0.175313 -0.082820
v 0.998224 -0.195530 -0.055437
v 1.002212 -0.172225 -0.098645
v 0.998224 -0.213380 -0.051819
v 0.995345 -0.213435 -0.066951
v 0.995345 -0.235935 -0.120719
v 0.995345 -0.225726 -0.127595
v 0.995345 -0.213664 -0.130039
v 0.995345 -0.242648 -0.086318
v 0.995345 -0.201583 -0.127682
v 0.995345 -0.182005 -0.098610
v 0.991491 -0.242292 -0.078173
v 0.991491 -0.233662 -0.069606
v 0.991491 -0.193436 -0.127385
v 0.991491 -0.184806 -0.118817
v 0.994980 -0.242292 -0.078173
v 0.994980 -0.233662 -0.069606
v 0.994980 -0.193436 -0.127385
v 0.994980 -0.184806 -0.118817
v 0.984517 -0.213179 -0.103976
v 0.996739 -0.213102 -0.105125
v 0.984517 -0.216789 -0.102932
v 0.996739 -0.217467 -0.103861
v 0.984517 -0.218882 -0.099812
v 0.996739 -0.220000 -0.100087
v 0.984517 -0.218481 -0.096075
v 0.996739 -0.219514 -0.095568
v 0.984517 -0.215771 -0.093472
v 0.996739 -0.216237 -0.092419
v 0.984517 -0.212022 -0.093218
v 0.996739 -0.211702 -0.092113
v 0.984517 -0.208988 -0.095435
v 0.996739 -0.208032 -0.094793
v 0.984517 -0.208087 -0.099083
v 0.996739 -0.206943 -0.099206
v 0.984517 -0.209743 -0.102456
v 0.996739 -0.208945 -0.103286
v 0.984517 -0.212981 -0.106909
v 0.984517 -0.218522 -0.105306
v 0.984517 -0.221736 -0.100516
v 0.984517 -0.221119 -0.094781
v 0.984517 -0.216961 -0.090784
v 0.984517 -0.211205 -0.090395
v 0.984517 -0.206547 -0.093797
v 0.984517 -0.205165 -0.099397
v 0.984517 -0.207706 -0.104575
v 0.949641 -0.213179 -0.103976
v 0.949641 -0.216789 -0.102932
v 0.949641 -0.218882 -0.099812
v 0.949641 -0.218481 -0.096075
v 0.949641 -0.215771 -0.093472
v 0.949641 -0.212022 -0.093218
v 0.949641 -0.208988 -0.095435
v 0.949641 -0.208087 -0.099083
v 0.949641 -0.209743 -0.102456
v 0.996739 -0.212981 -0.106909
v 0.996739 -0.218522 -0.105306
v 0.996739 -0.221736 -0.100516
v 0.996739 -0.221119 -0.094781
v 0.996739 -0.216961 -0.090784
v 0.996739 -0.211205 -0.090395
v 0.996739 -0.206547 -0.093797
v 0.996739 -0.205165 -0.099397
v 0.996739 -0.207706 -0.104575
v 0.999731 -0.213316 -0.101944
v 0.998628 -0.213149 -0.104423
v 0.999731 -0.215588 -0.101287
v 0.998628 -0.217053 -0.103294
v 0.999731 -0.216905 -0.099324
v 0.998628 -0.219317 -0.099919
v 0.999731 -0.216652 -0.096973
v 0.998628 -0.218883 -0.095878
v 0.999731 -0.214948 -0.095334
v 0.998628 -0.215953 -0.093062
v 0.999731 -0.212588 -0.095175
v 0.998628 -0.211898 -0.092788
v 0.999731 -0.210679 -0.096569
v 0.998628 -0.208616 -0.095185
v 0.999731 -0.210112 -0.098865
v 0.998628 -0.207642 -0.099131
v 0.999731 -0.211154 -0.100988
v 0.998628 -0.209432 -0.102779
v 0.994366 -0.233724 -0.042253
v 1.001603 -0.233661 -0.042122
v 0.994366 -0.227353 -0.028910
v 0.994366 -0.216019 -0.046758
v 1.001603 -0.216011 -0.046612
v 0.994366 -0.215221 -0.031651
v 0.994366 -0.197937 -0.044143
v 0.994366 -0.202981 -0.029881
v 0.994366 -0.182233 -0.034809
v 0.994366 -0.192351 -0.023562
v 0.994366 -0.171296 -0.020175
v 0.994366 -0.184639 -0.013804
v 0.994366 -0.166791 -0.002469
v 1.001603 -0.166937 -0.002462
v 0.994366 -0.181898 -0.001672
v 0.994366 -0.169406 0.015612
v 0.994366 -0.183668 0.010568
v 0.994366 -0.178740 0.031317
v 1.001603 -0.178849 0.031219
v 0.994366 -0.189987 0.021198
v 1.005591 -0.172282 -0.002180
v 0.994366 -0.193374 0.042253
v 0.998724 -0.199957 0.028466
v 0.994366 -0.199745 0.028910
v 0.994366 -0.211080 0.046758
v 0.994366 -0.211878 0.031651
v 0.994366 -0.229161 0.044144
v 1.005591 -0.176257 -0.017806
v 0.994366 -0.224117 0.029881
v 0.994366 -0.244866 0.034809
v 0.994366 -0.234748 0.023562
v 0.994366 -0.255803 0.020175
v 1.001603 -0.255671 0.020112
v 0.994366 -0.242459 0.013804
v 0.994366 -0.260307 0.002469
v 1.005591 -0.185910 -0.030721
v 0.994366 -0.245200 0.001672
v 0.994366 -0.257693 -0.015612
v 1.001603 -0.257555 -0.015563
v 0.994366 -0.243430 -0.010568
v 0.994366 -0.248358 -0.031317
v 0.994366 -0.237112 -0.021198
v 1.005591 -0.199770 -0.038960
v 1.005591 -0.215729 -0.041267
v 1.001603 -0.197986 -0.044006
v 1.005591 -0.231355 -0.037292
v 1.001603 -0.171427 -0.020112
v 1.001603 -0.193437 0.042122
v 1.005591 -0.244270 -0.027639
v 0.998724 -0.234647 0.023450
v 0.998724 -0.242015 0.013592
v 0.998724 -0.243288 -0.010518
v 0.998724 -0.185083 -0.013592
v 0.998724 -0.237000 -0.021098
v 0.998724 -0.182049 -0.001664
v 0.998724 -0.190099 0.021098
v 0.998724 -0.211885 0.031500
v 1.001603 -0.244768 0.034700
v 1.005591 -0.252509 -0.013779
v 1.001603 -0.260161 0.002462
v 1.001603 -0.248249 -0.031219
v 1.005591 -0.254816 0.002179
v 1.005591 -0.250841 0.017806
v 1.005591 -0.241188 0.030721
v 1.001603 -0.182330 -0.034700
v 1.005591 -0.227328 0.038960
v 1.005591 -0.211370 0.041267
v 1.001603 -0.169543 0.015563
v 1.005591 -0.195743 0.037292
v 1.005591 -0.182828 0.027639
v 1.001603 -0.211087 0.046612
v 1.005591 -0.174589 0.013779
v 1.001603 -0.229112 0.044006
v 0.998724 -0.224067 0.029739
v 0.998724 -0.227141 -0.028466
v 0.998724 -0.215213 -0.031500
v 0.998724 -0.203031 -0.029739
v 0.998724 -0.245050 0.001664
v 0.998724 -0.192451 -0.023450
v 0.998724 -0.183810 0.010518
v 0.994870 -0.247458 0.009452
v 0.994870 -0.242218 0.020426
v 0.994870 -0.184880 -0.020426
v 0.994870 -0.179641 -0.009452
v 0.998359 -0.247458 0.009452
v 0.998359 -0.242218 0.020426
v 0.998359 -0.184880 -0.020426
v 0.998359 -0.179641 -0.009452
v 0.987896 -0.211354 -0.005036
v 1.000118 -0.210895 -0.006091
v 0.987896 -0.215105 -0.005268
v 1.000118 -0.215431 -0.006372
v 0.987896 -0.218127 -0.003036
v 1.000118 -0.219087 -0.003672
v 0.987896 -0.219008 0.000617
v 1.000118 -0.220151 0.000747
v 0.987896 -0.217334 0.003982
v 1.000118 -0.218127 0.004816
v 0.987896 -0.213889 0.005483
v 1.000118 -0.213960 0.006632
v 0.987896 -0.210285 0.004418
v 1.000118 -0.209601 0.005344
v 0.987896 -0.208209 0.001287
v 1.000118 -0.207090 0.001557
v 0.987896 -0.208631 -0.002447
v 1.000118 -0.207600 -0.002960
v 0.987896 -0.210180 -0.007730
v 0.987896 -0.215937 -0.008087
v 0.987896 -0.220577 -0.004660
v 0.987896 -0.221928 0.000948
v 0.987896 -0.219359 0.006112
v 0.987896 -0.214071 0.008416
v 0.987896 -0.208539 0.006783
v 0.987896 -0.205351 0.001975
v 0.987896 -0.205999 -0.003756
v 0.953020 -0.211354 -0.005036
v 0.953020 -0.215105 -0.005268
v 0.953020 -0.218127 -0.003036
v 0.953020 -0.219008 0.000617
v 0.953020 -0.217334 0.003982
v 0.953020 -0.213889 0.005483
v 0.953020 -0.210285 0.004418
v 0.953020 -0.208209 0.001287
v 0.953020 -0.208631 -0.002447
v 1.000118 -0.210180 -0.007730
v 1.000118 -0.215937 -0.008087
v 1.000118 -0.220577 -0.004660
v 1.000118 -0.221928 0.000948
v 1.000118 -0.219359 0.006112
v 1.000118 -0.214071 0.008416
v 1.000118 -0.208539 0.006783
v 1.000118 -0.205351 0.001975
v 1.000118 -0.205999 -0.003756
v 1.003110 -0.212168 -0.003169
v 1.002007 -0.211176 -0.005447
v 1.003110 -0.214528 -0.003315
v 1.002007 -0.215232 -0.005698
v 1.003110 -0.216430 -0.001910
v 1.002007 -0.218501 -0.003283
v 1.003110 -0.216984 0.000389
v 1.002007 -0.219453 0.000668
v 1.003110 -0.215931 0.002505
v 1.002007 -0.217642 0.004306
v 1.003110 -0.213763 0.003450
v 1.002007 -0.213917 0.005930
v 1.003110 -0.211495 0.002780
v 1.002007 -0.210019 0.004779
v 1.003110 -0.210189 0.000810
v 1.002007 -0.207773 0.001392
v 1.003110 -0.210454 -0.001540
v 1.002007 -0.208230 -0.002647
v 0.990987 -0.257568 0.114003
v 0.998224 -0.257431 0.113953
v 0.990987 -0.243667 0.108963
v 0.990987 -0.260325 0.095942
v 0.998224 -0.260179 0.095949
v 0.990987 -0.245212 0.096621
v 0.990987 -0.255960 0.078202
v 0.990987 -0.242258 0.084613
v 0.990987 -0.245139 0.063482
v 0.990987 -0.234932 0.074649
v 0.990987 -0.229508 0.054024
v 0.990987 -0.224468 0.067925
v 0.990987 -0.211448 0.051268
v 0.998224 -0.211455 0.051414
v 0.990987 -0.212127 0.066381
v 0.990987 -0.193708 0.055632
v 0.990987 -0.200118 0.069335
v 0.990987 -0.178988 0.066454
v 0.998224 -0.179096 0.066552
v 0.990987 -0.190154 0.076660
v 1.002212 -0.211695 0.056761
v 0.990987 -0.169530 0.082084
v 0.995345 -0.183894 0.087292
v 0.990987 -0.183431 0.087124
v 0.990987 -0.166773 0.100145
v 0.990987 -0.181886 0.099466
v 0.990987 -0.171138 0.117885
v 1.002212 -0.227634 0.059194
v 0.990987 -0.184841 0.111474
v 0.990987 -0.181959 0.132605
v 0.990987 -0.192166 0.121438
v 0.990987 -0.197590 0.142063
v 0.998224 -0.197640 0.141926
v 0.990987 -0.202630 0.128162
v 0.990987 -0.215650 0.144819
v 1.002212 -0.241429 0.067541
v 0.990987 -0.214971 0.129706
v 0.990987 -0.233390 0.140455
v 0.998224 -0.233329 0.140322
v 0.990987 -0.226980 0.126752
v 0.990987 -0.248110 0.129633
v 0.990987 -0.236944 0.119427
v 1.002212 -0.250980 0.080532
v 1.002212 -0.254832 0.096189
v 0.998224 -0.255828 0.078264
v 1.002212 -0.252399 0.112129
v 0.998224 -0.229458 0.054162
v 0.998224 -0.169667 0.082134
v 1.002212 -0.244052 0.125924
v 0.995345 -0.192267 0.121327
v 0.995345 -0.202798 0.127699
v 0.995345 -0.226916 0.126616
v 0.995345 -0.224301 0.068388
v 0.995345 -0.236833 0.119325
v 0.995345 -0.212134 0.066531
v 0.995345 -0.190265 0.076762
v 0.995345 -0.182037 0.099459
v 0.998224 -0.182058 0.132497
v 1.002212 -0.231060 0.135474
v 0.998224 -0.215644 0.144673
v 0.998224 -0.248002 0.129535
v 1.002212 -0.215403 0.139326
v 1.002212 -0.199464 0.136894
v 1.002212 -0.185669 0.128546
v 0.998224 -0.245040 0.063590
v 1.002212 -0.176118 0.115555
v 1.002212 -0.172266 0.099898
v 0.998224 -0.193769 0.055765
v 1.002212 -0.174699 0.083958
v 1.002212 -0.183047 0.070163
v 0.998224 -0.166919 0.100138
v 1.002212 -0.196038 0.060613
v 0.998224 -0.171270 0.117823
v 0.995345 -0.184977 0.111411
v 0.995345 -0.243205 0.108795
v 0.995345 -0.245062 0.096628
v 0.995345 -0.242121 0.084676
v 0.995345 -0.214965 0.129556
v 0.995345 -0.234831 0.074760
v 0.995345 -0.200182 0.069471
v 0.991491 -0.207448 0.132712
v 0.991491 -0.196015 0.128567
v 0.991491 -0.231083 0.067520
v 0.991491 -0.219651 0.063375
v 0.994980 -0.207448 0.132712
v 0.994980 -0.196015 0.128567
v 0.994980 -0.231083 0.067520
v 0.994980 -0.219651 0.063375
v 0.984517 -0.218347 0.095368
v 0.996739 -0.219352 0.094808
v 0.984517 -0.218944 0.099078
v 0.996739 -0.220075 0.099295
v 0.984517 -0.217017 0.102304
v 0.996739 -0.217743 0.103197
v 0.984517 -0.213467 0.103536
v 0.996739 -0.213450 0.104687
v 0.984517 -0.209955 0.102198
v 0.996739 -0.209203 0.103069
v 0.984517 -0.208126 0.098916
v 0.996739 -0.206989 0.099099
v 0.984517 -0.208833 0.095226
v 0.996739 -0.207845 0.094636
v 0.984517 -0.211748 0.092854
v 0.996739 -0.211370 0.091767
v 0.984517 -0.215505 0.092910
v 0.996739 -0.215915 0.091835
v 0.984517 -0.220914 0.093937
v 0.984517 -0.221831 0.099632
v 0.984517 -0.218872 0.104584
v 0.984517 -0.213423 0.106475
v 0.984517 -0.208033 0.104422
v 0.984517 -0.205224 0.099383
v 0.984517 -0.206310 0.093718
v 0.984517 -0.210784 0.090077
v 0.984517 -0.216552 0.090164
v 0.949641 -0.218347 0.095368
v 0.949641 -0.218944 0.099078
v 0.949641 -0.217017 0.102304
v 0.949641 -0.213467 0.103536
v 0.949641 -0.209955 0.102198
v 0.949641 -0.208126 0.098916
v 0.949641 -0.208833 0.095226
v 0.949641 -0.211748 0.092854
v 0.949641 -0.215505 0.092910
v 0.996739 -0.220914 0.093937
v 0.996739 -0.221831 0.099632
v 0.996739 -0.218872 0.104584
v 0.996739 -0.213423 0.106475
v 0.996739 -0.208033 0.104422
v 0.996739 -0.205224 0.099383
v 0.996739 -0.206310 0.093718
v 0.996739 -0.210784 0.090077
v 0.996739 -0.216552 0.090164
v 0.999731 -0.216568 0.096360
v 0.998628 -0.218738 0.095150
v 0.999731 -0.216944 0.098695
v 0.998628 -0.219384 0.099163
v 0.999731 -0.215731 0.100724
v 0.998628 -0.217300 0.102651
v 0.999731 -0.213497 0.101500
v 0.998628 -0.213460 0.103984
v 0.999731 -0.211288 0.100658
v 0.998628 -0.209663 0.102537
v 0.999731 -0.210136 0.098593
v 0.998628 -0.207683 0.098988
v 0.999731 -0.210582 0.096271
v 0.998628 -0.208449 0.094996
v 0.999731 -0.212416 0.094778
v 0.998628 -0.211601 0.092431
v 0.999731 -0.214780 0.094813
v 0.998628 -0.215664 0.092492
vn 0.0202 0.9223 -0.3860
vn 0.0202 0.9998 -0.0036
vn -0.0736 -0.7026 0.7077
vn -0.0539 -0.9238 0.3790
vn -0.0539 -0.9238 0.3791
vn -1.0000 -0.0000 -0.0000
vn 0.0202 -0.7044 0.7095
vn 0.0202 -0.9223 0.3860
vn 0.8184 -0.2180 0.5317
vn 0.8184 0.0021 0.5746
vn -0.0539 0.9265 0.3723
vn -0.0736 0.7077 0.7026
vn -0.0539 0.9265 0.3724
vn 0.0202 0.7044 -0.7095
vn -0.0539 0.3791 0.9238
vn -0.0345 0.0036 0.9994
vn 0.8019 -0.0022 -0.5975
vn 0.8019 -0.2306 -0.5511
vn -0.0539 -0.3723 0.9265
vn -0.0539 -0.3724 0.9265
vn 0.0202 -0.9251 -0.3792
vn 0.0202 -0.7095 -0.7044
vn 0.0202 0.0036 0.9998
vn 0.0202 -0.3792 0.9251
vn -0.0345 -0.9994 0.0036
vn 0.0202 0.9251 0.3792
vn -0.0539 -0.9265 -0.3723
vn -0.0539 -0.9265 -0.3724
vn 0.0202 0.7095 0.7044
vn 0.0202 0.3860 0.9223
vn -0.0539 -0.3791 -0.9238
vn -0.0736 -0.7077 -0.7026
vn 0.0202 -0.9998 0.0036
vn -0.0539 0.3723 -0.9265
vn -0.0539 0.3724 -0.9265
vn -0.0345 -0.0036 -0.9994
vn 0.8184 -0.5301 0.2218
vn 0.8184 -0.5746 0.0021
vn -0.0736 0.7026 -0.7077
vn -0.0345 0.9994 -0.0036
vn -0.0539 0.9238 -0.3791
vn -0.0539 0.9238 -0.3790
vn 0.8184 0.5746 -0.0021
vn 0.8184 0.5301 -0.2218
vn 0.8019 0.5974 -0.0022
vn 0.8019 0.5511 -0.2306
vn 0.0202 -0.0036 -0.9998
vn 0.0202 0.3792 -0.9251
vn 0.0202 0.3793 -0.9251
vn 0.8019 -0.5528 -0.2266
vn 0.8019 -0.5974 0.0022
vn 0.8184 0.5317 0.2180
vn 0.8184 0.4078 0.4049
vn 0.8184 0.2218 0.5301
vn 0.8019 0.2266 -0.5528
vn 0.8184 -0.4048 0.4078
vn 0.0202 -0.3860 -0.9223
vn 0.8019 0.4209 -0.4240
vn 1.0000 -0.0000 -0.0000
vn -0.0000 -0.7097 -0.7045
vn -0.0000 0.7097 0.7045
vn 0.8019 -0.5511 0.2306
vn 0.8184 0.4048 -0.4078
vn 0.8184 0.2180 -0.5317
vn 0.8019 -0.4209 0.4240
vn 0.8019 -0.2266 0.5528
vn 0.8019 0.0022 0.5974
vn 0.8019 0.2306 0.5511
vn 0.8184 -0.4078 -0.4048
vn 0.8184 -0.5317 -0.2180
vn 0.8019 0.4240 0.4209
vn 0.8019 0.5528 0.2266
vn 0.8184 -0.2218 -0.5301
vn 0.8184 -0.0021 -0.5746
vn 0.8019 -0.4240 -0.4209
vn -0.0000 0.0674 -0.9977
vn -0.0000 -0.5897 -0.8076
vn -0.0000 -0.9709 -0.2396
vn -0.0000 -0.8977 0.4405
vn -0.0000 -0.4045 0.9145
vn -0.0000 0.2779 0.9606
vn -0.0000 0.8304 0.5572
vn -0.0000 0.9943 -0.1069
vn -0.0000 0.6929 -0.7210
vn -0.0000 -0.4046 0.9145
vn -0.0000 0.2780 0.9606
vn 1.0000 -0.0000 0.0001
vn 0.3487 -0.5527 -0.7569
vn 0.3487 0.0631 -0.9351
vn 0.6452 0.0515 -0.7623
vn 0.6452 -0.4506 -0.6170
vn 0.3487 -0.9099 -0.2246
vn 0.6452 -0.7418 -0.1831
vn 0.6452 0.5294 -0.5509
vn 0.9681 0.1736 -0.1806
vn 0.9681 0.0169 -0.2499
vn 0.9681 -0.1477 -0.2023
vn 0.9681 0.2491 -0.0268
vn 0.9681 0.2080 0.1396
vn 0.9681 0.0696 0.2406
vn 0.9681 -0.1013 0.2291
vn 0.9681 -0.2249 0.1104
vn 0.9681 -0.2432 -0.0600
vn 0.3487 -0.8414 0.4129
vn 0.6452 -0.6859 0.3366
vn 0.3487 -0.3792 0.8571
vn 0.6452 -0.3091 0.6987
vn 0.3487 0.2605 0.9003
vn 0.6452 0.2123 0.7339
vn 0.3487 0.7782 0.5222
vn 0.6452 0.6344 0.4257
vn 0.3487 0.9318 -0.1002
vn 0.6452 0.7596 -0.0817
vn 0.3487 0.6494 -0.6757
vn 0.0202 0.9984 -0.0527
vn 0.0202 0.9426 0.3334
vn -0.0736 -0.9000 0.4297
vn -0.0539 -0.9975 0.0457
vn -0.0539 -0.9975 0.0458
vn 0.0202 -0.9022 0.4308
vn 0.0202 -0.9984 0.0527
vn 0.8184 -0.3843 0.4272
vn 0.8184 -0.1916 0.5418
vn -0.0539 0.7470 0.6627
vn -0.0736 0.4297 0.9000
vn -0.0539 0.7469 0.6627
vn 0.0202 0.9022 -0.4308
vn -0.0539 0.0457 0.9975
vn -0.0345 -0.3332 0.9422
vn -0.0539 0.0458 0.9975
vn 0.8019 0.1992 -0.5633
vn 0.8019 -0.0315 -0.5966
vn -0.0539 -0.6627 0.7470
vn -0.0539 -0.6627 0.7469
vn 0.0202 -0.7433 -0.6687
vn 0.0202 -0.4308 -0.9022
vn 0.0202 -0.3334 0.9426
vn 0.0202 -0.6687 0.7433
vn -0.0345 -0.9422 -0.3332
vn 0.0202 0.7433 0.6687
vn -0.0539 -0.7470 -0.6627
vn -0.0539 -0.7469 -0.6627
vn 0.0202 0.4308 0.9022
vn 0.0202 0.0527 0.9984
vn -0.0539 -0.0457 -0.9975
vn -0.0539 -0.0458 -0.9975
vn -0.0736 -0.4297 -0.9000
vn 0.0202 -0.9426 -0.3334
vn -0.0539 0.6627 -0.7470
vn -0.0539 0.6627 -0.7469
vn -0.0345 0.3332 -0.9422
vn 0.8184 -0.5738 0.0303
vn 0.8184 -0.5418 -0.1916
vn -0.0736 0.9000 -0.4297
vn -0.0345 0.9422 0.3332
vn -0.0539 0.9975 -0.0458
vn -0.0539 0.9975 -0.0457
vn 0.8184 0.5418 0.1916
vn 0.8184 0.5738 -0.0303
vn 0.8019 0.5633 0.1992
vn 0.8019 0.5966 -0.0315
vn 0.0202 0.3334 -0.9426
vn 0.0202 0.6687 -0.7433
vn 0.8019 -0.4442 -0.3996
vn 0.8019 -0.5633 -0.1992
vn 0.8184 0.4272 0.3843
vn 0.8184 0.2476 0.5186
vn 0.8184 0.0303 0.5738
vn 0.8019 0.3996 -0.4442
vn 0.8184 -0.5186 0.2476
vn 0.0202 -0.0527 -0.9984
vn 0.8019 0.5391 -0.2574
vn -0.0000 -0.4309 -0.9024
vn -0.0000 0.4309 0.9024
vn 0.8019 -0.5966 0.0315
vn 0.8184 0.5186 -0.2476
vn 0.8184 0.3843 -0.4272
vn 0.8019 -0.5392 0.2574
vn 0.8019 -0.3996 0.4442
vn 0.8019 -0.1992 0.5633
vn 0.8019 0.0315 0.5966
vn 0.8184 -0.2476 -0.5186
vn 0.8184 -0.4272 -0.3843
vn 0.8019 0.2574 0.5391
vn 0.8019 0.4442 0.3996
vn 0.8184 -0.0303 -0.5738
vn 0.8184 0.1916 -0.5417
vn 0.8019 -0.2574 -0.5392
vn -0.0000 0.3995 -0.9167
vn -0.0000 -0.2832 -0.9591
vn -0.0000 -0.8334 -0.5526
vn -0.0000 -0.9937 0.1124
vn -0.0000 -0.6890 0.7248
vn -0.0000 -0.0619 0.9981
vn -0.0000 0.5941 0.8044
vn -0.0000 0.9722 0.2343
vn -0.0000 0.8953 -0.4455
vn -0.0000 0.5942 0.8044
vn 0.3487 -0.2654 -0.8988
vn 0.3487 0.3744 -0.8592
vn 0.6452 0.3052 -0.7004
vn 0.6452 -0.2164 -0.7327
vn 0.3487 -0.7811 -0.5179
vn 0.6452 -0.6368 -0.4222
vn 0.6452 0.6840 -0.3403
vn 0.9681 0.2243 -0.1116
vn 0.9681 0.1001 -0.2296
vn 0.9681 -0.0709 -0.2402
vn 0.9681 0.2435 0.0587
vn 0.9681 0.1488 0.2015
vn 0.9681 -0.0155 0.2500
vn 0.9681 -0.1726 0.1816
vn 0.9681 -0.2489 0.0282
vn 0.9681 -0.2088 -0.1384
vn 0.3487 -0.9313 0.1053
vn 0.6452 -0.7592 0.0859
vn 0.3487 -0.6457 0.6793
vn 0.6452 -0.5264 0.5538
vn 0.3487 -0.0580 0.9354
vn 0.6452 -0.0473 0.7626
vn 0.3487 0.5569 0.7539
vn 0.6452 0.4539 0.6145
vn 0.3487 0.9111 0.2195
vn 0.6452 0.7428 0.1790
vn 0.3487 0.8391 -0.4175
vn 0.0202 0.0449 -0.9988
vn 0.0202 0.4237 -0.9056
vn -0.0736 0.3399 0.9376
vn -0.0539 -0.0518 0.9972
vn -0.0539 -0.0517 0.9972
vn 0.0202 0.3408 0.9399
vn 0.0202 -0.0449 0.9988
vn 0.8184 0.3877 0.4242
vn 0.8184 0.5205 0.2435
vn -0.0539 0.7323 -0.6788
vn -0.0736 0.9376 -0.3399
vn -0.0539 0.7324 -0.6788
vn 0.0202 -0.3408 -0.9399
vn -0.0539 0.9972 0.0518
vn -0.0345 0.9052 0.4235
vn -0.0539 0.9972 0.0517
vn 0.8019 -0.5412 -0.2532
vn 0.8019 -0.5968 -0.0268
vn -0.0539 0.6788 0.7323
vn -0.0539 0.6788 0.7324
vn 0.0202 -0.7380 0.6745
vn 0.0202 -0.9399 0.3408
vn 0.0202 0.9056 0.4237
vn 0.0202 0.6745 0.7380
vn -0.0345 -0.4235 0.9052
vn 0.0202 0.7380 -0.6745
vn -0.0539 -0.7323 0.6788
vn -0.0539 -0.7324 0.6788
vn 0.0202 0.9399 -0.3408
vn 0.0202 0.9988 0.0449
vn -0.0539 -0.9972 -0.0518
vn -0.0539 -0.9972 -0.0517
vn -0.0736 -0.9376 0.3399
vn 0.0202 -0.4237 0.9056
vn -0.0539 -0.6788 -0.7323
vn -0.0539 -0.6788 -0.7324
vn -0.0345 -0.9052 -0.4235
vn 0.8184 -0.0258 0.5741
vn 0.8184 -0.2435 0.5205
vn -0.0736 -0.3399 -0.9376
vn -0.0345 0.4235 -0.9052
vn -0.0539 0.0517 -0.9972
vn -0.0539 0.0518 -0.9972
vn 0.8184 0.2435 -0.5205
vn 0.8184 0.0258 -0.5741
vn 0.8019 0.2532 -0.5412
vn 0.8019 0.0268 -0.5968
vn 0.0202 -0.9056 -0.4237
vn 0.0202 -0.6745 -0.7380
vn 0.8019 -0.4410 0.4031
vn 0.8019 -0.2532 0.5412
vn 0.8184 0.4242 -0.3877
vn 0.8184 0.5402 -0.1959
vn 0.8184 0.5741 0.0258
vn 0.8019 -0.4031 -0.4410
vn 0.8184 0.1959 0.5402
vn 0.0202 -0.9988 -0.0449
vn 0.8019 -0.2036 -0.5617
vn -0.0000 -0.9401 0.3408
vn -0.0000 0.9401 -0.3408
vn 0.8019 -0.0268 0.5968
vn 0.8184 -0.1959 -0.5402
vn 0.8184 -0.3877 -0.4241
vn 0.8019 0.2036 0.5617
vn 0.8019 0.4031 0.4410
vn 0.8019 0.5412 0.2532
vn 0.8019 0.5969 0.0268
vn 0.8184 -0.5402 0.1959
vn 0.8184 -0.4242 0.3877
vn 0.8019 0.5617 -0.2036
vn 0.8019 0.4410 -0.4031
vn 0.8184 -0.5741 -0.0258
vn 0.8184 -0.5205 -0.2435
vn 0.8019 -0.5617 0.2036
vn -0.0000 -0.8734 -0.4870
vn -0.0000 -0.9821 0.1884
vn -0.0000 -0.6313 0.7756
vn -0.0000 0.0150 0.9999
vn -0.0000 0.6542 0.7563
vn -0.0000 0.9873 0.1589
vn -0.0000 0.8584 -0.5129
vn -0.0000 0.3279 -0.9447
vn -0.0000 -0.3560 -0.9345
vn 0.3487 -0.9204 0.1765
vn 0.3487 -0.8186 -0.4564
vn 0.6452 -0.6673 -0.3721
vn 0.6452 -0.7504 0.1439
vn 0.3487 -0.5916 0.7269
vn 0.6452 -0.4823 0.5926
vn 0.6452 -0.2720 -0.7140
vn 0.9681 -0.0892 -0.2341
vn 0.9681 -0.2188 -0.1220
vn 0.9681 -0.2460 0.0472
vn 0.9681 0.0821 -0.2367
vn 0.9681 0.2150 -0.1285
vn 0.9681 0.2473 0.0398
vn 0.9681 0.1639 0.1895
vn 0.9681 0.0038 0.2505
vn 0.9681 -0.1581 0.1943
vn 0.3487 0.0140 0.9371
vn 0.6452 0.0114 0.7639
vn 0.3487 0.6131 0.7089
vn 0.6452 0.4998 0.5779
vn 0.3487 0.9253 0.1489
vn 0.6452 0.7543 0.1214
vn 0.3487 0.8046 -0.4807
vn 0.6452 0.6559 -0.3919
vn 0.3487 0.3073 -0.8854
vn 0.6452 0.2505 -0.7218
vn 0.3487 -0.3337 -0.8758
vt 0.903596 0.427003
vt 0.901169 0.427087
vt 0.901344 0.426139
vt 0.903372 0.426116
vt 0.959552 0.849310
vt 0.958324 0.849327
vt 0.958233 0.848861
vt 0.959640 0.848863
vt 0.961938 0.847948
vt 0.963444 0.849479
vt 0.961952 0.850444
vt 0.960972 0.849383
vt 0.898851 0.416306
vt 0.900975 0.415242
vt 0.901197 0.416156
vt 0.899411 0.417001
vt 0.437345 0.965123
vt 0.437355 0.963797
vt 0.438649 0.963537
vt 0.438646 0.965373
vt 0.961723 0.854364
vt 0.962151 0.853184
vt 0.962616 0.853251
vt 0.962163 0.854634
vt 0.959974 0.847172
vt 0.962142 0.857150
vt 0.960165 0.857966
vt 0.959821 0.856262
vt 0.961147 0.855689
vt 0.905736 0.426004
vt 0.905192 0.425290
vt 0.962057 0.851906
vt 0.961561 0.850704
vt 0.962570 0.851783
vt 0.957882 0.847158
vt 0.963656 0.855550
vt 0.437962 0.961842
vt 0.438606 0.961418
vt 0.439414 0.963389
vt 0.960684 0.849799
vt 0.955906 0.847965
vt 0.956903 0.849418
vt 0.905425 0.416036
vt 0.907165 0.417651
vt 0.906393 0.418190
vt 0.904965 0.416792
vt 0.896709 0.420207
vt 0.897367 0.418066
vt 0.898134 0.418469
vt 0.897554 0.420330
vt 0.957183 0.849829
vt 0.954375 0.849528
vt 0.955873 0.850483
vt 0.964272 0.851406
vt 0.964348 0.853517
vt 0.898981 0.426126
vt 0.899501 0.425402
vt 0.956318 0.850765
vt 0.953611 0.851579
vt 0.955362 0.851880
vt 0.897422 0.424456
vt 0.896693 0.422392
vt 0.897484 0.422259
vt 0.898154 0.424022
vt 0.955903 0.853245
vt 0.955389 0.853365
vt 0.955830 0.851959
vt 0.953661 0.853748
vt 0.903307 0.415242
vt 0.903162 0.416070
vt 0.957321 0.855308
vt 0.957033 0.855741
vt 0.956014 0.854694
vt 0.956396 0.854430
vt 0.954546 0.855720
vt 0.435895 0.967280
vt 0.436644 0.968372
vt 0.434952 0.969083
vt 0.434677 0.967787
vt 0.956091 0.857204
vt 0.958068 0.857966
vt 0.958391 0.856267
vt 0.958478 0.855815
vt 0.960869 0.855284
vt 0.959726 0.855789
vt 0.433394 0.961117
vt 0.432174 0.961620
vt 0.431424 0.960527
vt 0.433124 0.959817
vt 0.437074 0.969017
vt 0.435105 0.969840
vt 0.908116 0.422096
vt 0.907314 0.424276
vt 0.906546 0.423827
vt 0.907247 0.421967
vt 0.434973 0.959816
vt 0.432976 0.959052
vt 0.435128 0.959055
vt 0.434706 0.961126
vt 0.436672 0.960540
vt 0.435925 0.961633
vt 0.436864 0.962568
vt 0.439407 0.965529
vt 0.437942 0.967070
vt 0.436833 0.966345
vt 0.908051 0.419823
vt 0.907225 0.420002
vt 0.438585 0.967504
vt 0.943705 0.493898
vt 0.945050 0.493898
vt 0.945050 0.501568
vt 0.943705 0.501568
vt 0.946781 0.501568
vt 0.945436 0.501568
vt 0.945436 0.493898
vt 0.946781 0.493898
vt 0.947167 0.501568
vt 0.947167 0.493898
vt 0.430991 0.959878
vt 0.431241 0.962557
vt 0.430735 0.963786
vt 0.429429 0.963537
vt 0.430129 0.961836
vt 0.429476 0.961404
vt 0.428668 0.963389
vt 0.429423 0.965373
vt 0.428668 0.965520
vt 0.430116 0.967067
vt 0.429466 0.967491
vt 0.432150 0.967274
vt 0.433360 0.967784
vt 0.433113 0.969086
vt 0.431409 0.968376
vt 0.430971 0.969026
vt 0.432965 0.969851
vt 0.431214 0.966338
vt 0.430722 0.965111
vt 0.437111 0.959893
vt 0.525115 0.979811
vt 0.524510 0.979803
vt 0.524598 0.978625
vt 0.525120 0.978665
vt 0.523875 0.979752
vt 0.524060 0.978536
vt 0.523212 0.979645
vt 0.523470 0.978333
vt 0.528402 0.979290
vt 0.527886 0.979442
vt 0.527571 0.978413
vt 0.528080 0.978198
vt 0.527337 0.979575
vt 0.527069 0.978533
vt 0.526796 0.979669
vt 0.526600 0.978604
vt 0.526253 0.979739
vt 0.526132 0.978653
vt 0.525694 0.979787
vt 0.525632 0.978674
vt 0.525114 0.978335
vt 0.525608 0.978353
vt 0.527468 0.978102
vt 0.527018 0.978230
vt 0.526780 0.974036
vt 0.527172 0.974012
vt 0.524619 0.978291
vt 0.524135 0.978201
vt 0.523695 0.978051
vt 0.527893 0.977976
vt 0.526565 0.978338
vt 0.526095 0.978346
vt 0.525197 0.974050
vt 0.525595 0.974058
vt 0.524400 0.974011
vt 0.524798 0.974034
vt 0.526387 0.974051
vt 0.523962 0.973982
vt 0.525992 0.974059
vt 0.527563 0.973982
vt 0.724834 0.989493
vt 0.724635 0.988953
vt 0.724809 0.988806
vt 0.725053 0.989496
vt 0.724128 0.988658
vt 0.724162 0.988445
vt 0.723565 0.988782
vt 0.723457 0.988592
vt 0.723200 0.989219
vt 0.722992 0.989142
vt 0.723203 0.989810
vt 0.722992 0.989892
vt 0.723607 0.990236
vt 0.723505 0.990436
vt 0.724164 0.990307
vt 0.724206 0.990509
vt 0.724640 0.990023
vt 0.724801 0.990161
vt 0.724447 0.989105
vt 0.724086 0.988914
vt 0.723680 0.988975
vt 0.724597 0.989486
vt 0.724332 0.989487
vt 0.724245 0.989277
vt 0.724045 0.989170
vt 0.724263 0.989702
vt 0.724072 0.989823
vt 0.723846 0.989791
vt 0.723692 0.989622
vt 0.723682 0.989394
vt 0.723823 0.989213
vt 0.723427 0.989304
vt 0.723446 0.989713
vt 0.723713 0.990023
vt 0.724120 0.990091
vt 0.724465 0.989871
vt 0.266881 0.647219
vt 0.264454 0.647303
vt 0.264629 0.646355
vt 0.266657 0.646332
vt 0.959534 0.924032
vt 0.958306 0.924040
vt 0.958216 0.923571
vt 0.959625 0.923586
vt 0.961924 0.922691
vt 0.963419 0.924226
vt 0.961924 0.925179
vt 0.960952 0.924115
vt 0.262136 0.636522
vt 0.264260 0.635458
vt 0.264482 0.636372
vt 0.262696 0.637217
vt 0.968096 0.191155
vt 0.968109 0.189831
vt 0.969405 0.189573
vt 0.969396 0.191408
vt 0.961677 0.929096
vt 0.962109 0.927919
vt 0.962574 0.927988
vt 0.962116 0.929367
vt 0.959972 0.921906
vt 0.962097 0.931868
vt 0.960124 0.932689
vt 0.959764 0.930977
vt 0.961096 0.930424
vt 0.269021 0.646220
vt 0.268477 0.645506
vt 0.962022 0.926641
vt 0.961532 0.925437
vt 0.962534 0.926521
vt 0.957897 0.921874
vt 0.963602 0.930282
vt 0.968714 0.187880
vt 0.969366 0.187452
vt 0.970167 0.189430
vt 0.960661 0.924528
vt 0.955919 0.922650
vt 0.956890 0.924132
vt 0.268711 0.636252
vt 0.270451 0.637867
vt 0.269678 0.638406
vt 0.268250 0.637008
vt 0.259995 0.640423
vt 0.260653 0.638282
vt 0.261419 0.638685
vt 0.260839 0.640546
vt 0.957165 0.924540
vt 0.954356 0.924207
vt 0.955850 0.925182
vt 0.964235 0.926153
vt 0.964300 0.928260
vt 0.262266 0.646342
vt 0.262786 0.645618
vt 0.956293 0.925468
vt 0.953571 0.926261
vt 0.955325 0.926576
vt 0.260707 0.644672
vt 0.259979 0.642608
vt 0.260769 0.642475
vt 0.261439 0.644238
vt 0.955858 0.927947
vt 0.955342 0.928064
vt 0.955794 0.926660
vt 0.953608 0.928438
vt 0.266592 0.635458
vt 0.266448 0.636286
vt 0.957268 0.930019
vt 0.956977 0.930452
vt 0.955962 0.929398
vt 0.956345 0.929136
vt 0.954484 0.930420
vt 0.966640 0.193308
vt 0.967387 0.194404
vt 0.965686 0.195109
vt 0.965416 0.193811
vt 0.956027 0.931917
vt 0.958010 0.932689
vt 0.958336 0.930982
vt 0.958424 0.930530
vt 0.960819 0.930015
vt 0.959673 0.930507
vt 0.964152 0.187158
vt 0.962930 0.187667
vt 0.962177 0.186568
vt 0.963880 0.185856
vt 0.967815 0.195053
vt 0.965835 0.195872
vt 0.271401 0.642312
vt 0.270600 0.644492
vt 0.269831 0.644043
vt 0.270533 0.642183
vt 0.965730 0.185851
vt 0.963730 0.185091
vt 0.965884 0.185090
vt 0.965467 0.187160
vt 0.967431 0.186572
vt 0.966683 0.187665
vt 0.967618 0.188603
vt 0.970156 0.191566
vt 0.968689 0.193105
vt 0.967581 0.192376
vt 0.271336 0.640039
vt 0.270511 0.640218
vt 0.969332 0.193540
vt 0.963310 0.283099
vt 0.961965 0.283099
vt 0.961965 0.275429
vt 0.963310 0.275429
vt 0.960234 0.275429
vt 0.961579 0.275429
vt 0.961579 0.283099
vt 0.960234 0.283099
vt 0.959848 0.275429
vt 0.959848 0.283099
vt 0.961745 0.185918
vt 0.961988 0.188608
vt 0.961468 0.189828
vt 0.960168 0.189576
vt 0.960877 0.187877
vt 0.960225 0.187442
vt 0.959408 0.189426
vt 0.960161 0.191407
vt 0.959407 0.191554
vt 0.960854 0.193095
vt 0.960207 0.193519
vt 0.962879 0.193298
vt 0.964094 0.193806
vt 0.963844 0.195112
vt 0.962143 0.194399
vt 0.961706 0.195048
vt 0.963692 0.195872
vt 0.961950 0.192367
vt 0.961454 0.191146
vt 0.967865 0.185926
vt 0.489307 0.982165
vt 0.488705 0.982156
vt 0.488795 0.980982
vt 0.489316 0.981024
vt 0.488072 0.982104
vt 0.488259 0.980893
vt 0.487412 0.981997
vt 0.487671 0.980690
vt 0.492624 0.981657
vt 0.492067 0.981821
vt 0.491769 0.980779
vt 0.492267 0.980559
vt 0.491519 0.981943
vt 0.491263 0.980900
vt 0.490979 0.982032
vt 0.490793 0.980969
vt 0.490440 0.982097
vt 0.490325 0.981015
vt 0.489884 0.982143
vt 0.489827 0.981034
vt 0.489310 0.980694
vt 0.489804 0.980713
vt 0.491663 0.980470
vt 0.491213 0.980597
vt 0.490976 0.976404
vt 0.491367 0.976381
vt 0.488817 0.980649
vt 0.488334 0.980559
vt 0.487896 0.980409
vt 0.492082 0.980344
vt 0.490759 0.980702
vt 0.490290 0.980709
vt 0.489396 0.976419
vt 0.489793 0.976426
vt 0.488601 0.976379
vt 0.488999 0.976402
vt 0.490583 0.976420
vt 0.488164 0.976350
vt 0.490189 0.976427
vt 0.491798 0.976350
vt 0.989506 0.981770
vt 0.989009 0.981487
vt 0.989047 0.981262
vt 0.989673 0.981633
vt 0.988433 0.981590
vt 0.988315 0.981402
vt 0.988078 0.982045
vt 0.987878 0.981977
vt 0.988085 0.982614
vt 0.987878 0.982689
vt 0.988467 0.983063
vt 0.988358 0.983260
vt 0.989054 0.983131
vt 0.989099 0.983349
vt 0.989535 0.982822
vt 0.989704 0.982955
vt 0.989698 0.982291
vt 0.989910 0.982290
vt 0.988963 0.981723
vt 0.988564 0.981811
vt 0.988291 0.982119
vt 0.989323 0.981918
vt 0.989122 0.982090
vt 0.988920 0.981986
vt 0.988698 0.982033
vt 0.989208 0.982299
vt 0.989138 0.982517
vt 0.988942 0.982633
vt 0.988717 0.982604
vt 0.988563 0.982437
vt 0.988555 0.982209
vt 0.988312 0.982532
vt 0.988590 0.982832
vt 0.988995 0.982894
vt 0.989347 0.982684
vt 0.989480 0.982298
vt 0.933945 0.427014
vt 0.931517 0.427084
vt 0.931699 0.426137
vt 0.933726 0.426127
vt 0.965212 0.070878
vt 0.963971 0.070886
vt 0.963880 0.070410
vt 0.965304 0.070425
vt 0.967637 0.069508
vt 0.969158 0.071063
vt 0.967667 0.072036
vt 0.966652 0.070959
vt 0.929264 0.416298
vt 0.931362 0.415242
vt 0.931580 0.416150
vt 0.929807 0.416978
vt 0.966608 0.012055
vt 0.965393 0.011537
vt 0.965658 0.010252
vt 0.967340 0.010959
vt 0.967422 0.075864
vt 0.967877 0.074708
vt 0.968330 0.074781
vt 0.967855 0.076142
vt 0.965653 0.068710
vt 0.967812 0.078656
vt 0.965832 0.079468
vt 0.965491 0.077758
vt 0.966827 0.077188
vt 0.936092 0.426026
vt 0.935551 0.425309
vt 0.967817 0.073466
vt 0.967250 0.072321
vt 0.968287 0.073357
vt 0.963528 0.068681
vt 0.969331 0.077071
vt 0.963831 0.010229
vt 0.963687 0.009470
vt 0.965816 0.009492
vt 0.966355 0.071382
vt 0.961509 0.069507
vt 0.962511 0.070957
vt 0.935810 0.416040
vt 0.937552 0.417663
vt 0.936775 0.418202
vt 0.935347 0.416796
vt 0.927072 0.420102
vt 0.927836 0.417998
vt 0.928544 0.418406
vt 0.927954 0.420260
vt 0.962815 0.071393
vt 0.960009 0.071102
vt 0.961509 0.072054
vt 0.969971 0.072983
vt 0.970035 0.075061
vt 0.929335 0.426108
vt 0.929861 0.425386
vt 0.961927 0.072311
vt 0.959269 0.073120
vt 0.961001 0.073408
vt 0.927783 0.424426
vt 0.927055 0.422345
vt 0.927860 0.422214
vt 0.928521 0.423994
vt 0.961537 0.074756
vt 0.961029 0.074877
vt 0.961460 0.073484
vt 0.959319 0.075263
vt 0.933689 0.415242
vt 0.933543 0.416069
vt 0.962973 0.076801
vt 0.962686 0.077237
vt 0.961660 0.076196
vt 0.962039 0.075930
vt 0.960200 0.077224
vt 0.968022 0.014235
vt 0.969332 0.013969
vt 0.969334 0.015820
vt 0.968027 0.015559
vt 0.961747 0.078706
vt 0.963729 0.079468
vt 0.964053 0.077763
vt 0.964139 0.077309
vt 0.966552 0.076780
vt 0.965397 0.077282
vt 0.961408 0.014186
vt 0.961401 0.015512
vt 0.960097 0.015783
vt 0.960102 0.013937
vt 0.970098 0.013821
vt 0.970098 0.015978
vt 0.938492 0.422123
vt 0.937681 0.424304
vt 0.936913 0.423851
vt 0.937623 0.421990
vt 0.960806 0.012227
vt 0.959332 0.013784
vt 0.960160 0.011793
vt 0.961922 0.012963
vt 0.962123 0.010925
vt 0.962861 0.012034
vt 0.964073 0.011531
vt 0.967776 0.010320
vt 0.968631 0.012263
vt 0.967529 0.013002
vt 0.938434 0.419843
vt 0.937606 0.420021
vt 0.969280 0.011836
vt 0.560713 0.953484
vt 0.562058 0.953484
vt 0.562058 0.961155
vt 0.560713 0.961155
vt 0.563789 0.961155
vt 0.562443 0.961155
vt 0.562443 0.953484
vt 0.563789 0.953484
vt 0.564175 0.961155
vt 0.564175 0.953484
vt 0.959336 0.015935
vt 0.961904 0.016739
vt 0.962836 0.017682
vt 0.962107 0.018788
vt 0.960808 0.017485
vt 0.960157 0.017920
vt 0.961678 0.019435
vt 0.963800 0.019491
vt 0.963651 0.020249
vt 0.965623 0.019497
vt 0.965772 0.020252
vt 0.966594 0.017706
vt 0.967526 0.016775
vt 0.968620 0.017525
vt 0.967312 0.018810
vt 0.967739 0.019453
vt 0.969260 0.017958
vt 0.965373 0.018211
vt 0.964053 0.018198
vt 0.961691 0.010270
vt 0.981197 0.695555
vt 0.980605 0.695537
vt 0.980714 0.694381
vt 0.981237 0.694429
vt 0.979982 0.695479
vt 0.980180 0.694286
vt 0.979332 0.695368
vt 0.979597 0.694081
vt 0.984525 0.695080
vt 0.984001 0.695229
vt 0.983693 0.694183
vt 0.984208 0.693970
vt 0.983443 0.695358
vt 0.983186 0.694299
vt 0.982889 0.695448
vt 0.982715 0.694363
vt 0.982332 0.695508
vt 0.982250 0.694401
vt 0.981766 0.695543
vt 0.981754 0.694430
vt 0.981231 0.694095
vt 0.981726 0.694108
vt 0.983591 0.693869
vt 0.983139 0.693994
vt 0.982908 0.689792
vt 0.983302 0.689769
vt 0.980738 0.694048
vt 0.980256 0.693955
vt 0.979821 0.693804
vt 0.984020 0.693745
vt 0.982684 0.694096
vt 0.982213 0.694097
vt 0.981324 0.689808
vt 0.981722 0.689816
vt 0.980528 0.689769
vt 0.980926 0.689792
vt 0.982514 0.689808
vt 0.980090 0.689740
vt 0.982118 0.689817
vt 0.983694 0.689740
vt 0.703646 0.988957
vt 0.703147 0.988671
vt 0.703185 0.988446
vt 0.703815 0.988819
vt 0.702569 0.988774
vt 0.702452 0.988586
vt 0.702215 0.989229
vt 0.702016 0.989161
vt 0.702222 0.989795
vt 0.702016 0.989868
vt 0.702597 0.990241
vt 0.702488 0.990435
vt 0.703171 0.990309
vt 0.703216 0.990530
vt 0.703669 0.990028
vt 0.703833 0.990160
vt 0.703837 0.989486
vt 0.704052 0.989486
vt 0.703100 0.988908
vt 0.702700 0.988996
vt 0.702428 0.989302
vt 0.703461 0.989105
vt 0.703257 0.989277
vt 0.703056 0.989171
vt 0.702834 0.989217
vt 0.703342 0.989487
vt 0.703269 0.989704
vt 0.703074 0.989821
vt 0.702850 0.989790
vt 0.702698 0.989621
vt 0.702691 0.989393
vt 0.702447 0.989715
vt 0.702721 0.990015
vt 0.703127 0.990087
vt 0.703473 0.989869
vt 0.703615 0.989488
s 1
f 13/1/1 16/2/2 68/3/2 14/4/1
f 53/5/3 55/6/4 15/7/5 12/8/3
f 9/9/6 7/10/6 8/11/6 10/12/6
f 32/13/7 35/14/8 60/15/8 33/16/7
f 79/17/9 77/18/10 43/19/10 36/20/9
f 54/21/11 75/22/12 3/23/12 42/24/13
f 11/25/6 9/9/6 10/12/6 12/8/6
f 38/26/6 35/27/6 37/28/6 40/29/6
f 11/30/14 13/1/1 14/4/1 47/31/14
f 76/32/15 77/33/16 8/11/16 6/34/15
f 13/35/6 11/25/6 12/8/6 15/7/6
f 41/36/6 38/26/6 40/29/6 42/24/6
f 43/19/17 44/37/18 5/38/18 45/39/17
f 79/40/19 10/12/20 8/11/16 77/33/16
f 16/41/6 13/35/6 15/7/6 17/42/6
f 41/43/21 1/44/22 2/45/22 61/46/21
f 27/47/23 30/48/24 58/49/24 73/50/23
f 55/6/4 80/51/25 17/42/25 15/7/5
f 18/52/6 16/41/6 17/42/6 20/53/6
f 4/54/6 1/55/6 3/23/6 6/34/6
f 16/2/2 18/56/26 19/57/26 68/3/2
f 56/58/27 20/53/28 17/42/25 80/51/25
f 22/59/6 18/52/6 20/53/6 24/60/6
f 22/61/29 25/62/30 71/63/30 48/64/29
f 57/65/31 26/66/31 24/60/32 23/67/32
f 25/68/6 22/59/6 24/60/6 26/66/6
f 38/69/33 41/43/21 61/46/21 39/70/33
f 50/71/34 31/72/35 29/73/36 74/74/36
f 27/75/6 25/68/6 26/66/6 29/73/6
f 25/62/30 27/47/23 73/50/23 71/63/30
f 74/74/36 29/73/36 26/66/31 57/65/31
f 55/76/37 21/77/37 72/78/38 80/79/38
f 30/80/6 27/75/6 29/73/6 31/72/6
f 79/40/19 53/5/3 12/8/3 10/12/20
f 7/10/6 4/54/6 6/34/6 8/11/6
f 32/81/6 30/80/6 31/72/6 34/82/6
f 30/48/24 32/13/7 33/16/7 58/49/24
f 50/71/34 51/83/39 34/82/39 31/72/35
f 35/14/8 38/69/33 39/70/33 60/15/8
f 52/84/40 40/29/40 37/28/41 78/85/42
f 35/27/6 32/81/6 34/82/6 37/28/6
f 52/86/43 78/87/44 62/88/44 59/89/43
f 72/78/45 21/77/46 14/90/46 68/91/45
f 52/84/40 54/21/11 42/24/13 40/29/40
f 7/92/47 9/93/48 65/94/49 45/95/47
f 75/22/12 76/32/15 6/34/15 3/23/12
f 1/55/6 41/36/6 42/24/6 3/23/6
f 51/83/39 78/85/42 37/28/41 34/82/39
f 49/96/50 59/89/51 39/97/51 61/98/50
f 54/99/52 49/96/52 46/100/53 75/101/53
f 52/86/43 59/89/43 49/96/52 54/99/52
f 44/37/54 76/102/54 75/101/53 46/100/53
f 43/19/10 77/18/10 76/102/54 44/37/54
f 36/20/55 43/19/17 45/39/17 65/103/55
f 79/17/9 36/20/9 28/104/56 53/105/56
f 4/106/57 7/92/47 45/95/47 5/107/57
f 21/77/46 28/104/58 47/108/58 14/90/46
f 18/56/26 22/61/29 48/64/29 19/57/26
s 0
f 81/109/6 82/110/6 84/111/6 83/112/6
f 87/113/59 88/114/59 86/115/59 85/116/59
f 83/117/60 87/113/60 85/116/60 81/118/60
f 88/114/61 84/111/61 82/110/61 86/115/61
s 1
f 59/89/51 62/88/62 60/119/62 39/97/51
f 51/120/63 50/121/64 64/122/64 63/123/63
f 62/88/62 63/123/65 33/124/65 60/119/62
f 63/123/65 64/122/66 58/125/66 33/124/65
f 64/122/66 66/126/67 73/127/67 58/125/66
f 66/126/67 67/128/68 71/129/68 73/127/67
f 23/130/69 56/131/70 70/132/70 69/133/69
f 67/128/68 69/133/71 48/134/71 71/129/68
f 69/133/71 70/132/72 19/135/72 48/134/71
f 56/131/70 80/79/38 72/78/38 70/132/70
f 53/105/56 28/104/56 21/77/37 55/76/37
f 19/135/72 70/132/72 72/78/45 68/91/45
f 57/136/73 23/130/69 69/133/69 67/128/73
f 74/137/74 57/136/73 67/128/73 66/126/74
f 50/121/64 74/137/74 66/126/74 64/122/64
f 47/108/58 28/104/58 36/20/55 65/103/55
f 9/93/48 11/30/14 47/31/14 65/94/49
f 44/37/18 46/100/75 2/138/75 5/38/18
f 2/138/75 46/100/75 49/96/50 61/98/50
f 23/67/32 24/60/32 20/53/28 56/58/27
f 78/87/44 51/120/63 63/123/63 62/88/44
f 125/139/76 126/140/77 108/141/77 107/142/76
f 126/140/77 127/143/78 109/144/78 108/141/77
f 127/143/78 128/145/79 110/146/79 109/144/78
f 128/147/79 129/148/80 111/149/80 110/150/79
f 129/148/80 130/151/81 112/152/81 111/149/80
f 130/151/81 131/153/82 113/154/82 112/152/81
f 131/153/82 132/155/83 114/156/83 113/154/82
f 132/155/83 133/157/84 115/158/84 114/156/83
f 89/159/6 105/160/6 115/158/6 107/142/6
f 97/161/85 99/162/86 121/163/86 120/164/85
f 91/165/6 89/159/6 107/142/6 108/141/6
f 93/166/6 91/165/6 108/141/6 109/144/6
f 95/167/6 93/166/6 109/144/6 110/146/6
f 97/161/6 95/168/6 110/150/6 111/149/6
f 99/162/6 97/161/6 111/149/6 112/152/6
f 101/169/6 99/162/6 112/152/6 113/154/6
f 103/170/6 101/169/6 113/154/6 114/156/6
f 105/160/6 103/170/6 114/156/6 115/158/6
f 89/159/76 116/171/76 124/172/84 105/160/84
f 91/165/77 93/166/78 118/173/78 117/174/77
f 99/162/86 101/169/82 122/175/82 121/163/86
f 93/166/78 95/167/79 119/176/79 118/173/78
f 101/169/82 103/170/83 123/177/83 122/175/82
f 95/168/79 97/161/85 120/164/85 119/178/79
f 103/170/83 105/160/84 124/172/84 123/177/83
f 89/159/76 91/165/77 117/174/77 116/171/76
f 106/179/59 90/180/59 125/181/59 133/182/59
f 90/180/59 92/183/87 126/184/87 125/181/59
f 92/183/87 94/185/59 127/186/59 126/184/87
f 94/185/59 96/187/59 128/188/59 127/186/59
f 96/187/59 98/189/59 129/190/59 128/188/59
f 98/189/59 100/191/59 130/192/59 129/190/59
f 100/191/59 102/193/59 131/194/59 130/192/59
f 102/193/59 104/195/59 132/196/59 131/194/59
f 104/195/59 106/179/59 133/182/59 132/196/59
f 92/183/88 90/180/89 135/197/90 137/198/91
f 94/185/92 92/183/88 137/198/91 139/199/93
f 151/200/94 150/201/95 134/202/96 135/197/90
f 136/203/97 134/202/96 150/201/95 148/204/98 146/205/99 144/206/100 142/207/101 140/208/102 138/209/103
f 135/197/90 134/202/96 136/203/97 137/198/91
f 137/198/91 136/203/97 138/209/103 139/199/93
f 96/187/104 94/185/92 139/199/93 141/210/105
f 139/199/93 138/209/103 140/208/102 141/210/105
f 98/189/106 96/187/104 141/210/105 143/211/107
f 141/210/105 140/208/102 142/207/101 143/211/107
f 100/191/108 98/189/106 143/211/107 145/212/109
f 143/211/107 142/207/101 144/206/100 145/212/109
f 102/193/110 100/191/108 145/212/109 147/213/111
f 145/212/109 144/206/100 146/205/99 147/213/111
f 104/195/112 102/193/110 147/213/111 149/214/113
f 147/213/111 146/205/99 148/204/98 149/214/113
f 106/179/114 104/195/112 149/214/113 151/200/94
f 149/214/113 148/204/98 150/201/95 151/200/94
f 90/180/89 106/179/114 151/200/94 135/197/90
f 115/158/84 133/157/84 125/139/76 107/142/76
f 1/44/22 4/106/57 5/107/57 2/45/22
f 164/215/115 167/216/116 219/217/116 165/218/115
f 204/219/117 206/220/118 166/221/119 163/222/117
f 160/223/6 158/224/6 159/225/6 161/226/6
f 183/227/120 186/228/121 211/229/121 184/230/120
f 230/231/122 228/232/123 194/233/123 187/234/122
f 205/235/124 226/236/125 154/237/125 193/238/126
f 162/239/6 160/223/6 161/226/6 163/222/6
f 189/240/6 186/241/6 188/242/6 191/243/6
f 162/244/127 164/215/115 165/218/115 198/245/127
f 227/246/128 228/247/129 159/225/129 157/248/130
f 164/249/6 162/239/6 163/222/6 166/221/6
f 192/250/6 189/240/6 191/243/6 193/238/6
f 194/233/131 195/251/132 156/252/132 196/253/131
f 230/254/133 161/226/134 159/225/129 228/247/129
f 167/255/6 164/249/6 166/221/6 168/256/6
f 192/257/135 152/258/136 153/259/136 212/260/135
f 178/261/137 181/262/138 209/263/138 224/264/137
f 206/220/118 231/265/139 168/256/139 166/221/119
f 169/266/6 167/255/6 168/256/6 171/267/6
f 155/268/6 152/269/6 154/237/6 157/248/6
f 167/216/116 169/270/140 170/271/140 219/217/116
f 207/272/141 171/267/142 168/256/139 231/265/139
f 173/273/6 169/266/6 171/267/6 175/274/6
f 173/275/143 176/276/144 222/277/144 199/278/143
f 208/279/145 177/280/146 175/274/147 174/281/147
f 176/282/6 173/273/6 175/274/6 177/280/6
f 189/283/148 192/257/135 212/260/135 190/284/148
f 201/285/149 182/286/150 180/287/151 225/288/151
f 178/289/6 176/282/6 177/280/6 180/287/6
f 176/276/144 178/261/137 224/264/137 222/277/144
f 225/288/151 180/287/151 177/280/146 208/279/145
f 206/290/152 172/291/152 223/292/153 231/293/153
f 181/294/6 178/289/6 180/287/6 182/286/6
f 230/254/133 204/219/117 163/222/117 161/226/134
f 158/224/6 155/268/6 157/248/6 159/225/6
f 183/295/6 181/294/6 182/286/6 185/296/6
f 181/262/138 183/227/120 184/230/120 209/263/138
f 201/285/149 202/297/154 185/296/154 182/286/150
f 186/228/121 189/283/148 190/284/148 211/229/121
f 203/298/155 191/243/155 188/242/156 229/299/157
f 186/241/6 183/295/6 185/296/6 188/242/6
f 203/300/158 229/301/159 213/302/159 210/303/158
f 223/292/160 172/291/161 165/304/161 219/305/160
f 203/298/155 205/235/124 193/238/126 191/243/155
f 158/306/162 160/307/163 216/308/163 196/309/162
f 226/236/125 227/246/128 157/248/130 154/237/125
f 152/269/6 192/250/6 193/238/6 154/237/6
f 202/297/154 229/299/157 188/242/156 185/296/154
f 200/310/164 210/303/165 190/311/165 212/312/164
f 205/313/166 200/310/166 197/314/167 226/315/167
f 203/300/158 210/303/158 200/310/166 205/313/166
f 195/251/168 227/316/168 226/315/167 197/314/167
f 194/233/123 228/232/123 227/316/168 195/251/168
f 187/234/169 194/233/131 196/253/131 216/317/169
f 230/231/122 187/234/122 179/318/170 204/319/170
f 155/320/171 158/306/162 196/309/162 156/321/171
f 172/291/161 179/318/172 198/322/172 165/304/161
f 169/270/140 173/275/143 199/278/143 170/271/140
s 0
f 232/323/6 233/324/6 235/325/6 234/326/6
f 238/327/59 239/328/59 237/329/59 236/330/59
f 234/331/173 238/327/173 236/330/173 232/332/173
f 239/328/174 235/325/174 233/324/174 237/329/174
s 1
f 210/303/165 213/302/175 211/333/175 190/311/165
f 202/334/176 201/335/177 215/336/177 214/337/176
f 213/302/175 214/337/178 184/338/178 211/333/175
f 214/337/178 215/336/179 209/339/179 184/338/178
f 215/336/179 217/340/180 224/341/180 209/339/179
f 217/340/180 218/342/181 222/343/181 224/341/180
f 174/344/182 207/345/183 221/346/183 220/347/182
f 218/342/181 220/347/184 199/348/184 222/343/181
f 220/347/184 221/346/185 170/349/185 199/348/184
f 207/345/183 231/293/153 223/292/153 221/346/183
f 204/319/170 179/318/170 172/291/152 206/290/152
f 170/349/185 221/346/185 223/292/160 219/305/160
f 208/350/186 174/344/182 220/347/182 218/342/186
f 225/351/187 208/350/186 218/342/186 217/340/187
f 201/335/177 225/351/187 217/340/187 215/336/177
f 198/322/172 179/318/172 187/234/169 216/317/169
f 160/307/163 162/244/127 198/245/127 216/308/163
f 195/251/132 197/314/188 153/352/188 156/252/132
f 153/352/188 197/314/188 200/310/164 212/312/164
f 174/281/147 175/274/147 171/267/142 207/272/141
f 229/301/159 202/334/176 214/337/176 213/302/159
f 276/353/189 277/354/190 259/355/190 258/356/189
f 277/354/190 278/357/191 260/358/191 259/355/190
f 278/357/191 279/359/192 261/360/192 260/358/191
f 279/361/192 280/362/193 262/363/193 261/364/192
f 280/362/193 281/365/194 263/366/194 262/363/193
f 281/365/194 282/367/195 264/368/195 263/366/194
f 282/367/195 283/369/196 265/370/196 264/368/195
f 283/369/196 284/371/197 266/372/197 265/370/196
f 240/373/6 256/374/6 266/372/6 258/356/6
f 248/375/193 250/376/194 272/377/194 271/378/193
f 242/379/6 240/373/6 258/356/6 259/355/6
f 244/380/6 242/379/6 259/355/6 260/358/6
f 246/381/6 244/380/6 260/358/6 261/360/6
f 248/375/6 246/382/6 261/364/6 262/363/6
f 250/376/6 248/375/6 262/363/6 263/366/6
f 252/383/6 250/376/6 263/366/6 264/368/6
f 254/384/6 252/383/6 264/368/6 265/370/6
f 256/374/6 254/384/6 265/370/6 266/372/6
f 240/373/189 267/385/189 275/386/197 256/374/197
f 242/379/190 244/380/191 269/387/191 268/388/190
f 250/376/194 252/383/198 273/389/198 272/377/194
f 244/380/191 246/381/192 270/390/192 269/387/191
f 252/383/198 254/384/196 274/391/196 273/389/198
f 246/382/192 248/375/193 271/378/193 270/392/192
f 254/384/196 256/374/197 275/386/197 274/391/196
f 240/373/189 242/379/190 268/388/190 267/385/189
f 257/393/59 241/394/59 276/395/59 284/396/59
f 241/394/59 243/397/59 277/398/59 276/395/59
f 243/397/59 245/399/59 278/400/59 277/398/59
f 245/399/59 247/401/59 279/402/59 278/400/59
f 247/401/59 249/403/59 280/404/59 279/402/59
f 249/403/59 251/405/59 281/406/59 280/404/59
f 251/405/59 253/407/59 282/408/59 281/406/59
f 253/407/59 255/409/59 283/410/59 282/408/59
f 255/409/59 257/393/59 284/396/59 283/410/59
f 243/397/199 241/394/200 286/411/201 288/412/202
f 245/399/203 243/397/199 288/412/202 290/413/204
f 302/414/205 301/415/206 285/416/207 286/411/201
f 287/417/208 285/416/207 301/415/206 299/418/209 297/419/210 295/420/211 293/421/212 291/422/213 289/423/214
f 286/411/201 285/416/207 287/417/208 288/412/202
f 288/412/202 287/417/208 289/423/214 290/413/204
f 247/401/215 245/399/203 290/413/204 292/424/216
f 290/413/204 289/423/214 291/422/213 292/424/216
f 249/403/217 247/401/215 292/424/216 294/425/218
f 292/424/216 291/422/213 293/421/212 294/425/218
f 251/405/219 249/403/217 294/425/218 296/426/220
f 294/425/218 293/421/212 295/420/211 296/426/220
f 253/407/221 251/405/219 296/426/220 298/427/222
f 296/426/220 295/420/211 297/419/210 298/427/222
f 255/409/223 253/407/221 298/427/222 300/428/224
f 298/427/222 297/419/210 299/418/209 300/428/224
f 257/393/225 255/409/223 300/428/224 302/414/205
f 300/428/224 299/418/209 301/415/206 302/414/205
f 241/394/200 257/393/225 302/414/205 286/411/201
f 266/372/197 284/371/197 276/353/189 258/356/189
f 152/258/136 155/320/171 156/321/171 153/259/136
f 315/429/226 318/430/227 370/431/227 316/432/226
f 355/433/228 357/434/229 317/435/230 314/436/228
f 311/437/6 309/438/6 310/439/6 312/440/6
f 334/441/231 337/442/232 362/443/232 335/444/231
f 381/445/233 379/446/234 345/447/234 338/448/233
f 356/449/235 377/450/236 305/451/236 344/452/237
f 313/453/6 311/437/6 312/440/6 314/436/6
f 340/454/6 337/455/6 339/456/6 342/457/6
f 313/458/238 315/429/226 316/432/226 349/459/238
f 378/460/239 379/461/240 310/439/240 308/462/241
f 315/463/6 313/453/6 314/436/6 317/435/6
f 343/464/6 340/454/6 342/457/6 344/452/6
f 345/447/242 346/465/243 307/466/243 347/467/242
f 381/468/244 312/440/245 310/439/240 379/461/240
f 318/469/6 315/463/6 317/435/6 319/470/6
f 343/471/246 303/472/247 304/473/247 363/474/246
f 329/475/248 332/476/249 360/477/249 375/478/248
f 357/434/229 382/479/250 319/470/250 317/435/230
f 320/480/6 318/469/6 319/470/6 322/481/6
f 306/482/6 303/483/6 305/451/6 308/462/6
f 318/430/227 320/484/251 321/485/251 370/431/227
f 358/486/252 322/481/253 319/470/250 382/479/250
f 324/487/6 320/480/6 322/481/6 326/488/6
f 324/489/254 327/490/255 373/491/255 350/492/254
f 359/493/256 328/494/257 326/488/258 325/495/258
f 327/496/6 324/487/6 326/488/6 328/494/6
f 340/497/259 343/471/246 363/474/246 341/498/259
f 352/499/260 333/500/261 331/501/262 376/502/262
f 329/503/6 327/496/6 328/494/6 331/501/6
f 327/490/255 329/475/248 375/478/248 373/491/255
f 376/502/262 331/501/262 328/494/257 359/493/256
f 357/504/263 323/505/263 374/506/264 382/507/264
f 332/508/6 329/503/6 331/501/6 333/500/6
f 381/468/244 355/433/228 314/436/228 312/440/245
f 309/438/6 306/482/6 308/462/6 310/439/6
f 334/509/6 332/508/6 333/500/6 336/510/6
f 332/476/249 334/441/231 335/444/231 360/477/249
f 352/499/260 353/511/265 336/510/265 333/500/261
f 337/442/232 340/497/259 341/498/259 362/443/232
f 354/512/266 342/457/266 339/456/267 380/513/268
f 337/455/6 334/509/6 336/510/6 339/456/6
f 354/514/269 380/515/270 364/516/270 361/517/269
f 374/506/271 323/505/272 316/518/272 370/519/271
f 354/512/266 356/449/235 344/452/237 342/457/266
f 309/520/273 311/521/274 367/522/274 347/523/273
f 377/450/236 378/460/239 308/462/241 305/451/236
f 303/483/6 343/464/6 344/452/6 305/451/6
f 353/511/265 380/513/268 339/456/267 336/510/265
f 351/524/275 361/517/276 341/525/276 363/526/275
f 356/527/277 351/524/277 348/528/278 377/529/278
f 354/514/269 361/517/269 351/524/277 356/527/277
f 346/465/279 378/530/279 377/529/278 348/528/278
f 345/447/234 379/446/234 378/530/279 346/465/279
f 338/448/280 345/447/242 347/467/242 367/531/280
f 381/445/233 338/448/233 330/532/281 355/533/281
f 306/534/282 309/520/273 347/523/273 307/535/282
f 323/505/272 330/532/283 349/536/283 316/518/272
f 320/484/251 324/489/254 350/492/254 321/485/251
s 0
f 383/537/6 384/538/6 386/539/6 385/540/6
f 389/541/59 390/542/59 388/543/59 387/544/59
f 385/545/284 389/541/284 387/544/284 383/546/284
f 390/542/285 386/539/285 384/538/285 388/543/285
s 1
f 361/517/276 364/516/286 362/547/286 341/525/276
f 353/548/287 352/549/288 366/550/288 365/551/287
f 364/516/286 365/551/289 335/552/289 362/547/286
f 365/551/289 366/550/290 360/553/290 335/552/289
f 366/550/290 368/554/291 375/555/291 360/553/290
f 368/554/291 369/556/292 373/557/292 375/555/291
f 325/558/293 358/559/294 372/560/294 371/561/293
f 369/556/292 371/561/295 350/562/295 373/557/292
f 371/561/295 372/560/296 321/563/296 350/562/295
f 358/559/294 382/507/264 374/506/264 372/560/294
f 355/533/281 330/532/281 323/505/263 357/504/263
f 321/563/296 372/560/296 374/506/271 370/519/271
f 359/564/297 325/558/293 371/561/293 369/556/297
f 376/565/298 359/564/297 369/556/297 368/554/298
f 352/549/288 376/565/298 368/554/298 366/550/288
f 349/536/283 330/532/283 338/448/280 367/531/280
f 311/521/274 313/458/238 349/459/238 367/522/274
f 346/465/243 348/528/299 304/566/299 307/466/243
f 304/566/299 348/528/299 351/524/275 363/526/275
f 325/495/258 326/488/258 322/481/253 358/486/252
f 380/515/270 353/548/287 365/551/287 364/516/270
f 427/567/300 428/568/301 410/569/301 409/570/300
f 428/568/301 429/571/302 411/572/302 410/569/301
f 429/571/302 430/573/303 412/574/303 411/572/302
f 430/575/303 431/576/304 413/577/304 412/578/303
f 431/576/304 432/579/305 414/580/305 413/577/304
f 432/579/305 433/581/306 415/582/306 414/580/305
f 433/581/306 434/583/307 416/584/307 415/582/306
f 434/583/307 435/585/308 417/586/308 416/584/307
f 391/587/6 407/588/6 417/586/6 409/570/6
f 399/589/304 401/590/305 423/591/305 422/592/304
f 393/593/6 391/587/6 409/570/6 410/569/6
f 395/594/6 393/593/6 410/569/6 411/572/6
f 397/595/6 395/594/6 411/572/6 412/574/6
f 399/589/6 397/596/6 412/578/6 413/577/6
f 401/590/6 399/589/6 413/577/6 414/580/6
f 403/597/6 401/590/6 414/580/6 415/582/6
f 405/598/6 403/597/6 415/582/6 416/584/6
f 407/588/6 405/598/6 416/584/6 417/586/6
f 391/587/300 418/599/300 426/600/308 407/588/308
f 393/593/301 395/594/302 420/601/302 419/602/301
f 401/590/305 403/597/306 424/603/306 423/591/305
f 395/594/302 397/595/303 421/604/303 420/601/302
f 403/597/306 405/598/307 425/605/307 424/603/306
f 397/596/303 399/589/304 422/592/304 421/606/303
f 405/598/307 407/588/308 426/600/308 425/605/307
f 391/587/300 393/593/301 419/602/301 418/599/300
f 408/607/59 392/608/59 427/609/59 435/610/59
f 392/608/59 394/611/59 428/612/59 427/609/59
f 394/611/59 396/613/59 429/614/59 428/612/59
f 396/613/59 398/615/59 430/616/59 429/614/59
f 398/615/59 400/617/59 431/618/59 430/616/59
f 400/617/59 402/619/59 432/620/59 431/618/59
f 402/619/59 404/621/59 433/622/59 432/620/59
f 404/621/59 406/623/59 434/624/59 433/622/59
f 406/623/59 408/607/59 435/610/59 434/624/59
f 394/611/309 392/608/310 437/625/311 439/626/312
f 396/613/313 394/611/309 439/626/312 441/627/314
f 453/628/315 452/629/316 436/630/317 437/625/311
f 438/631/318 436/630/317 452/629/316 450/632/319 448/633/320 446/634/321 444/635/322 442/636/323 440/637/324
f 437/625/311 436/630/317 438/631/318 439/626/312
f 439/626/312 438/631/318 440/637/324 441/627/314
f 398/615/325 396/613/313 441/627/314 443/638/326
f 441/627/314 440/637/324 442/636/323 443/638/326
f 400/617/327 398/615/325 443/638/326 445/639/328
f 443/638/326 442/636/323 444/635/322 445/639/328
f 402/619/329 400/617/327 445/639/328 447/640/330
f 445/639/328 444/635/322 446/634/321 447/640/330
f 404/621/331 402/619/329 447/640/330 449/641/332
f 447/640/330 446/634/321 448/633/320 449/641/332
f 406/623/333 404/621/331 449/641/332 451/642/334
f 449/641/332 448/633/320 450/632/319 451/642/334
f 408/607/335 406/623/333 451/642/334 453/628/315
f 451/642/334 450/632/319 452/629/316 453/628/315
f 392/608/310 408/607/335 453/628/315 437/625/311
f 417/586/308 435/585/308 427/567/300 409/570/300
f 303/472/247 306/534/282 307/535/282 304/473/247
