# Blender 4.1.1
# www.blender.org
mtllib 1.25m_Smokebox_Collider.mtl
o Cylinder
v 0.000000 -0.024909 -0.625000
v 0.000000 0.062798 -0.412574
v 0.161762 -0.024909 -0.603704
v 0.106782 0.062798 -0.398516
v 0.312500 -0.024909 -0.541266
v 0.206287 0.062798 -0.357300
v 0.441942 -0.024909 -0.441942
v 0.291734 0.062798 -0.291734
v 0.541266 -0.024909 -0.312500
v 0.357300 0.062798 -0.206287
v 0.603704 -0.024909 -0.161762
v 0.398516 0.062798 -0.106782
v 0.625000 -0.024909 0.000000
v 0.412574 0.062798 0.000000
v 0.603704 -0.024909 0.161762
v 0.398516 0.062798 0.106782
v 0.541266 -0.024909 0.312500
v 0.357300 0.062798 0.206287
v 0.441942 -0.024909 0.441942
v 0.291734 0.062798 0.291734
v 0.312500 -0.024909 0.541266
v 0.206287 0.062798 0.357300
v 0.161762 -0.024909 0.603704
v 0.106782 0.062798 0.398516
v 0.000000 -0.024909 0.625000
v 0.000000 0.062798 0.412574
v -0.161762 -0.024909 0.603704
v -0.106782 0.062798 0.398516
v -0.312500 -0.024909 0.541266
v -0.206287 0.062798 0.357300
v -0.441942 -0.024909 0.441942
v -0.291734 0.062798 0.291734
v -0.541266 -0.024909 0.312500
v -0.357300 0.062798 0.206287
v -0.603704 -0.024909 0.161762
v -0.398516 0.062798 0.106782
v -0.625000 -0.024909 0.000000
v -0.412574 0.062798 0.000000
v -0.603704 -0.024909 -0.161762
v -0.398516 0.062798 -0.106782
v -0.541266 -0.024909 -0.312500
v -0.357300 0.062798 -0.206287
v -0.441942 -0.024909 -0.441942
v -0.291734 0.062798 -0.291734
v -0.312500 -0.024909 -0.541266
v -0.206287 0.062798 -0.357300
v -0.161762 -0.024909 -0.603704
v -0.106782 0.062798 -0.398516
v 0.016184 0.139209 -0.060400
v 0.000000 0.139209 -0.062530
v 0.031265 0.139209 -0.054153
v 0.044216 0.139209 -0.044216
v 0.054153 0.139209 -0.031265
v 0.060400 0.139209 -0.016184
v 0.062530 0.139209 0.000000
v 0.060400 0.139209 0.016184
v 0.054153 0.139209 0.031265
v 0.044216 0.139209 0.044216
v 0.031265 0.139209 0.054153
v 0.016184 0.139209 0.060400
v 0.000000 0.139209 0.062530
v -0.016184 0.139209 0.060400
v -0.031265 0.139209 0.054153
v -0.044216 0.139209 0.044216
v -0.054153 0.139209 0.031265
v -0.060400 0.139209 0.016184
v -0.062530 0.139209 0.000000
v -0.060400 0.139209 -0.016184
v -0.054153 0.139209 -0.031265
v -0.044216 0.139209 -0.044216
v -0.031265 0.139209 -0.054153
v -0.016184 0.139209 -0.060400
v -0.000000 -0.058172 -0.625000
v 0.161762 -0.058172 -0.603704
v 0.312500 -0.058172 -0.541266
v 0.441942 -0.058172 -0.441942
v 0.541266 -0.058172 -0.312500
v 0.603704 -0.058172 -0.161762
v 0.625000 -0.058172 0.000000
v 0.603704 -0.058172 0.161762
v 0.541266 -0.058172 0.312500
v 0.441942 -0.058172 0.441942
v 0.312500 -0.058172 0.541266
v 0.161762 -0.058172 0.603704
v -0.000000 -0.058172 0.625000
v -0.161762 -0.058172 0.603704
v -0.312500 -0.058172 0.541266
v -0.441942 -0.058172 0.441942
v -0.541266 -0.058172 0.312500
v -0.603704 -0.058172 0.161762
v -0.625000 -0.058172 0.000000
v -0.603704 -0.058172 -0.161762
v -0.541266 -0.058172 -0.312500
v -0.441942 -0.058172 -0.441942
v -0.312500 -0.058172 -0.541266
v -0.161762 -0.058172 -0.603704
vn 0.0502 0.9231 -0.3812
vn 0.1471 0.9232 -0.3552
vn 0.2340 0.9232 -0.3050
vn 0.3050 0.9231 -0.2340
vn 0.3552 0.9232 -0.1471
vn 0.3812 0.9231 -0.0502
vn 0.3812 0.9232 0.0502
vn 0.3552 0.9232 0.1471
vn 0.3050 0.9231 0.2340
vn 0.2340 0.9232 0.3050
vn 0.1471 0.9232 0.3552
vn 0.0502 0.9231 0.3812
vn -0.0502 0.9231 0.3812
vn -0.1471 0.9232 0.3552
vn -0.2340 0.9232 0.3050
vn -0.3050 0.9231 0.2340
vn -0.3552 0.9232 0.1471
vn -0.3812 0.9231 0.0502
vn -0.3812 0.9232 -0.0502
vn -0.3552 0.9232 -0.1471
vn -0.3050 0.9231 -0.2340
vn -0.2340 0.9232 -0.3050
vn -0.1987 0.9766 -0.0823
vn -0.1471 0.9232 -0.3552
vn -0.0502 0.9231 -0.3812
vn 0.7934 -0.0000 0.6088
vn -0.0000 1.0000 -0.0000
vn 0.1309 0.9766 -0.1706
vn 0.1987 0.9766 0.0823
vn 0.0281 0.9766 -0.2132
vn -0.0281 0.9766 0.2132
vn -0.2132 0.9766 0.0281
vn -0.0823 0.9766 -0.1987
vn 0.2132 0.9766 -0.0281
vn 0.0823 0.9766 0.1987
vn -0.1706 0.9766 0.1309
vn -0.1706 0.9766 -0.1309
vn 0.1706 0.9766 -0.1309
vn 0.1706 0.9766 0.1309
vn -0.0823 0.9766 0.1987
vn -0.2132 0.9766 -0.0281
vn -0.0281 0.9766 -0.2132
vn 0.0823 0.9766 -0.1987
vn 0.2132 0.9766 0.0281
vn 0.0281 0.9766 0.2132
vn -0.1987 0.9766 0.0823
vn -0.1309 0.9766 -0.1706
vn 0.1987 0.9766 -0.0823
vn 0.1309 0.9766 0.1706
vn -0.1309 0.9766 0.1706
vn -0.0000 -1.0000 -0.0000
vn -0.3827 -0.0000 0.9239
vn -0.9914 -0.0000 -0.1305
vn -0.1305 -0.0000 -0.9914
vn 0.3827 -0.0000 -0.9239
vn 0.9914 -0.0000 0.1305
vn 0.1305 -0.0000 0.9914
vn -0.9239 -0.0000 0.3827
vn -0.6088 -0.0000 -0.7934
vn 0.9239 -0.0000 -0.3827
vn 0.6088 -0.0000 0.7934
vn -0.6088 -0.0000 0.7934
vn -0.9239 -0.0000 -0.3827
vn 0.6088 -0.0000 -0.7934
vn 0.9239 -0.0000 0.3827
vn 0.1305 -0.0000 -0.9914
vn -0.1305 -0.0000 0.9914
vn -0.9914 -0.0000 0.1305
vn -0.3827 -0.0000 -0.9239
vn 0.9914 -0.0000 -0.1305
vn 0.3827 -0.0000 0.9239
vn -0.7934 -0.0000 0.6088
vn -0.7934 -0.0000 -0.6088
vn 0.7934 -0.0000 -0.6088
vt 1.000000 0.500000
vt 1.000000 1.000000
vt 0.958333 1.000000
vt 0.958333 0.500000
vt 0.916667 1.000000
vt 0.916667 0.500000
vt 0.875000 1.000000
vt 0.875000 0.500000
vt 0.833333 1.000000
vt 0.833333 0.500000
vt 0.791667 1.000000
vt 0.791667 0.500000
vt 0.750000 1.000000
vt 0.750000 0.500000
vt 0.708333 1.000000
vt 0.708333 0.500000
vt 0.666667 1.000000
vt 0.666667 0.500000
vt 0.625000 1.000000
vt 0.625000 0.500000
vt 0.583333 1.000000
vt 0.583333 0.500000
vt 0.541666 1.000000
vt 0.541666 0.500000
vt 0.500000 1.000000
vt 0.500000 0.500000
vt 0.458333 1.000000
vt 0.458333 0.500000
vt 0.416666 1.000000
vt 0.416666 0.500000
vt 0.375000 1.000000
vt 0.375000 0.500000
vt 0.333333 1.000000
vt 0.333333 0.500000
vt 0.291667 1.000000
vt 0.291667 0.500000
vt 0.250000 1.000000
vt 0.250000 0.500000
vt 0.208333 1.000000
vt 0.208333 0.500000
vt 0.166666 1.000000
vt 0.166666 0.500000
vt 0.125000 1.000000
vt 0.125000 0.500000
vt 0.083333 1.000000
vt 0.083333 0.500000
vt 0.041666 1.000000
vt 0.041666 0.500000
vt -0.000000 1.000000
vt -0.000000 0.500000
vt 0.312117 0.481822
vt 0.250000 0.490000
vt 0.187883 0.481822
vt 0.130000 0.457846
vt 0.080294 0.419706
vt 0.042154 0.370000
vt 0.018178 0.312117
vt 0.010000 0.250000
vt 0.018178 0.187883
vt 0.042154 0.130000
vt 0.080294 0.080294
vt 0.130000 0.042154
vt 0.187883 0.018178
vt 0.250000 0.010000
vt 0.312117 0.018178
vt 0.370000 0.042154
vt 0.419706 0.080294
vt 0.457846 0.130000
vt 0.481822 0.187883
vt 0.490000 0.250000
vt 0.481822 0.312117
vt 0.457846 0.370000
vt 0.419706 0.419706
vt 0.370000 0.457846
vt 0.750000 0.490000
vt 0.812117 0.481822
vt 0.870000 0.457846
vt 0.919706 0.419706
vt 0.957846 0.370000
vt 0.981822 0.312117
vt 0.990000 0.250000
vt 0.981822 0.187883
vt 0.957846 0.130000
vt 0.919706 0.080294
vt 0.870000 0.042154
vt 0.812117 0.018178
vt 0.750000 0.010000
vt 0.687883 0.018178
vt 0.630000 0.042154
vt 0.580294 0.080294
vt 0.542154 0.130000
vt 0.518178 0.187883
vt 0.510000 0.250000
vt 0.518178 0.312117
vt 0.542154 0.370000
vt 0.580294 0.419706
vt 0.630000 0.457846
vt 0.687883 0.481822
s 0
f 1/1/1 2/2/1 4/3/1 3/4/1
f 3/4/2 4/3/2 6/5/2 5/6/2
f 5/6/3 6/5/3 8/7/3 7/8/3
f 7/8/4 8/7/4 10/9/4 9/10/4
f 9/10/5 10/9/5 12/11/5 11/12/5
f 11/12/6 12/11/6 14/13/6 13/14/6
f 13/14/7 14/13/7 16/15/7 15/16/7
f 15/16/8 16/15/8 18/17/8 17/18/8
f 17/18/9 18/17/9 20/19/9 19/20/9
f 19/20/10 20/19/10 22/21/10 21/22/10
f 21/22/11 22/21/11 24/23/11 23/24/11
f 23/24/12 24/23/12 26/25/12 25/26/12
f 25/26/13 26/25/13 28/27/13 27/28/13
f 27/28/14 28/27/14 30/29/14 29/30/14
f 29/30/15 30/29/15 32/31/15 31/32/15
f 31/32/16 32/31/16 34/33/16 33/34/16
f 33/34/17 34/33/17 36/35/17 35/36/17
f 35/36/18 36/35/18 38/37/18 37/38/18
f 37/38/19 38/37/19 40/39/19 39/40/19
f 39/40/20 40/39/20 42/41/20 41/42/20
f 41/42/21 42/41/21 44/43/21 43/44/21
f 43/44/22 44/43/22 46/45/22 45/46/22
f 42/41/23 40/39/23 68/39/23 69/41/23
f 45/46/24 46/45/24 48/47/24 47/48/24
f 47/48/25 48/47/25 2/49/25 1/50/25
f 17/18/26 19/20/26 82/20/26 81/18/26
f 49/51/27 50/52/27 72/53/27 71/54/27 70/55/27 69/56/27 68/57/27 67/58/27 66/59/27 65/60/27 64/61/27 63/62/27 62/63/27 61/64/27 60/65/27 59/66/27 58/67/27 57/68/27 56/69/27 55/70/27 54/71/27 53/72/27 52/73/27 51/74/27
f 8/7/28 6/5/28 51/5/28 52/7/28
f 18/17/29 16/15/29 56/15/29 57/17/29
f 4/3/30 2/2/30 50/2/30 49/3/30
f 28/27/31 26/25/31 61/25/31 62/27/31
f 38/37/32 36/35/32 66/35/32 67/37/32
f 48/47/33 46/45/33 71/45/33 72/47/33
f 14/13/34 12/11/34 54/11/34 55/13/34
f 24/23/35 22/21/35 59/21/35 60/23/35
f 34/33/36 32/31/36 64/31/36 65/33/36
f 44/43/37 42/41/37 69/41/37 70/43/37
f 10/9/38 8/7/38 52/7/38 53/9/38
f 20/19/39 18/17/39 57/17/39 58/19/39
f 30/29/40 28/27/40 62/27/40 63/29/40
f 40/39/41 38/37/41 67/37/41 68/39/41
f 2/49/42 48/47/42 72/47/42 50/49/42
f 6/5/43 4/3/43 49/3/43 51/5/43
f 16/15/44 14/13/44 55/13/44 56/15/44
f 26/25/45 24/23/45 60/23/45 61/25/45
f 36/35/46 34/33/46 65/33/46 66/35/46
f 46/45/47 44/43/47 70/43/47 71/45/47
f 12/11/48 10/9/48 53/9/48 54/11/48
f 22/21/49 20/19/49 58/19/49 59/21/49
f 32/31/50 30/29/50 63/29/50 64/31/50
f 73/75/51 74/76/51 75/77/51 76/78/51 77/79/51 78/80/51 79/81/51 80/82/51 81/83/51 82/84/51 83/85/51 84/86/51 85/87/51 86/88/51 87/89/51 88/90/51 89/91/51 90/92/51 91/93/51 92/94/51 93/95/51 94/96/51 95/97/51 96/98/51
f 27/28/52 29/30/52 87/30/52 86/28/52
f 37/38/53 39/40/53 92/40/53 91/38/53
f 47/48/54 1/50/54 73/50/54 96/48/54
f 3/4/55 5/6/55 75/6/55 74/4/55
f 13/14/56 15/16/56 80/16/56 79/14/56
f 23/24/57 25/26/57 85/26/57 84/24/57
f 33/34/58 35/36/58 90/36/58 89/34/58
f 43/44/59 45/46/59 95/46/59 94/44/59
f 9/10/60 11/12/60 78/12/60 77/10/60
f 19/20/61 21/22/61 83/22/61 82/20/61
f 29/30/62 31/32/62 88/32/62 87/30/62
f 39/40/63 41/42/63 93/42/63 92/40/63
f 5/6/64 7/8/64 76/8/64 75/6/64
f 15/16/65 17/18/65 81/18/65 80/16/65
f 1/1/66 3/4/66 74/4/66 73/1/66
f 25/26/67 27/28/67 86/28/67 85/26/67
f 35/36/68 37/38/68 91/38/68 90/36/68
f 45/46/69 47/48/69 96/48/69 95/46/69
f 11/12/70 13/14/70 79/14/70 78/12/70
f 21/22/71 23/24/71 84/24/71 83/22/71
f 31/32/72 33/34/72 89/34/72 88/32/72
f 41/42/73 43/44/73 94/44/73 93/42/73
f 7/8/74 9/10/74 77/10/74 76/8/74
