# Blender 4.1.1
# www.blender.org
mtllib 1.25m_Smokebox_Handrail.mtl
o SmokeboxDoorHandle
v -0.304535 0.105783 0.285647
v 0.298752 0.105783 0.285646
v -0.304535 0.114886 0.284247
v 0.298752 0.114886 0.284247
v -0.304535 0.120332 0.276820
v 0.298752 0.120332 0.276820
v -0.304535 0.118932 0.267718
v 0.298752 0.118932 0.267718
v -0.304535 0.111506 0.262271
v 0.298752 0.111506 0.262271
v -0.304535 0.102403 0.263671
v 0.298752 0.102403 0.263671
v -0.304535 0.096957 0.271097
v 0.298752 0.096957 0.271097
v -0.304535 0.098357 0.280200
v 0.298752 0.098357 0.280200
v -0.293037 0.068277 0.263669
v -0.293760 0.066822 0.269612
v -0.298335 0.065522 0.274923
v -0.305137 0.065015 0.276996
v -0.312209 0.065557 0.274782
v -0.317110 0.067167 0.268208
v -0.316359 0.069127 0.260199
v -0.310677 0.070584 0.254249
v -0.302749 0.070798 0.253371
v -0.295770 0.069879 0.257129
v -0.288224 0.068847 0.261340
v -0.288646 0.066753 0.269894
v -0.292034 0.065292 0.275859
v -0.298904 0.064096 0.280747
v -0.310695 0.063990 0.281178
v -0.319786 0.065738 0.274039
v -0.322283 0.067613 0.266381
v -0.320983 0.069614 0.258206
v -0.314407 0.071426 0.250806
v -0.303426 0.072074 0.248159
v -0.293188 0.070929 0.252836
v -0.297932 0.092773 0.270467
v -0.299570 0.091823 0.274428
v -0.303892 0.091271 0.276715
v -0.308702 0.091373 0.275961
v -0.312436 0.092676 0.271283
v -0.310968 0.094047 0.265342
v -0.306738 0.094674 0.262815
v -0.302513 0.094600 0.263117
v -0.298654 0.093895 0.266283
v -0.295881 0.099032 0.273108
v -0.300497 0.097540 0.279209
v -0.308503 0.097361 0.279930
v -0.314126 0.098822 0.273968
v -0.313877 0.100144 0.268582
v -0.310865 0.101229 0.264136
v -0.303958 0.101678 0.262306
v -0.297742 0.100833 0.265756
v -0.298059 0.120558 0.278389
v -0.294949 0.113893 0.282489
v -0.293371 0.106551 0.281872
v -0.294949 0.099754 0.279028
v -0.300921 0.094776 0.276169
v -0.301251 0.112804 0.286937
v -0.300649 0.105293 0.287008
v -0.301251 0.098665 0.283476
v -0.304709 0.119257 0.283700
v -0.309042 0.112804 0.286937
v -0.309645 0.105293 0.287008
v -0.309042 0.098665 0.283476
v -0.309548 0.094758 0.276413
v -0.311964 0.120360 0.279199
v -0.315345 0.113893 0.282489
v -0.316923 0.106551 0.281872
v -0.315345 0.099754 0.279028
v -0.317753 0.115655 0.275292
v -0.319703 0.108585 0.273562
v -0.317753 0.101516 0.271831
v -0.311984 0.096687 0.268362
v -0.309548 0.122413 0.270711
v -0.315345 0.117417 0.268095
v -0.316923 0.110620 0.265251
v -0.315345 0.103278 0.264634
v -0.305147 0.122724 0.277023
v -0.309042 0.118505 0.263647
v -0.309645 0.111877 0.260115
v -0.309042 0.104367 0.260186
v -0.307396 0.097987 0.263841
v -0.305147 0.094447 0.270100
v -0.301251 0.118505 0.263647
v -0.300649 0.111877 0.260115
v -0.301251 0.104367 0.260186
v -0.300921 0.122395 0.270954
v -0.294949 0.117417 0.268095
v -0.293371 0.110620 0.265251
v -0.294949 0.103278 0.264634
v -0.300921 0.097542 0.264870
v -0.292541 0.115655 0.275292
v -0.290591 0.108585 0.273562
v -0.292541 0.101516 0.271831
v -0.297869 0.096341 0.270564
v 0.317737 0.068277 0.263669
v 0.317013 0.066823 0.269612
v 0.312439 0.065522 0.274923
v 0.305636 0.065015 0.276996
v 0.298564 0.065557 0.274782
v 0.293664 0.067167 0.268208
v 0.294415 0.069127 0.260199
v 0.300097 0.070584 0.254249
v 0.308025 0.070798 0.253371
v 0.315004 0.069879 0.257129
v 0.322549 0.068847 0.261340
v 0.322127 0.066753 0.269894
v 0.318740 0.065292 0.275859
v 0.311870 0.064096 0.280747
v 0.300079 0.063990 0.281178
v 0.290987 0.065738 0.274039
v 0.288491 0.067613 0.266381
v 0.289790 0.069614 0.258206
v 0.296367 0.071426 0.250806
v 0.307348 0.072074 0.248160
v 0.317586 0.070929 0.252836
v 0.312842 0.092773 0.270467
v 0.311204 0.091823 0.274428
v 0.306882 0.091271 0.276715
v 0.302071 0.091373 0.275961
v 0.298337 0.092676 0.271283
v 0.299805 0.094047 0.265342
v 0.304035 0.094674 0.262815
v 0.308260 0.094600 0.263117
v 0.312120 0.093895 0.266283
v 0.314893 0.099032 0.273108
v 0.310277 0.097540 0.279209
v 0.302271 0.097361 0.279930
v 0.296648 0.098822 0.273968
v 0.296897 0.100144 0.268582
v 0.299908 0.101229 0.264136
v 0.306815 0.101679 0.262306
v 0.313032 0.100833 0.265756
v 0.312715 0.120558 0.278389
v 0.315825 0.113893 0.282489
v 0.317403 0.106551 0.281872
v 0.315825 0.099754 0.279028
v 0.309853 0.094776 0.276169
v 0.309522 0.112804 0.286937
v 0.310125 0.105293 0.287008
v 0.309522 0.098665 0.283476
v 0.306065 0.119258 0.283700
v 0.301731 0.112804 0.286937
v 0.301129 0.105293 0.287008
v 0.301731 0.098665 0.283476
v 0.301226 0.094758 0.276413
v 0.298810 0.120360 0.279199
v 0.295428 0.113893 0.282489
v 0.293851 0.106551 0.281872
v 0.295428 0.099754 0.279028
v 0.293021 0.115655 0.275292
v 0.291071 0.108585 0.273562
v 0.293021 0.101516 0.271831
v 0.298789 0.096688 0.268362
v 0.301226 0.122413 0.270711
v 0.295428 0.117417 0.268095
v 0.293851 0.110620 0.265251
v 0.295428 0.103278 0.264634
v 0.305627 0.122724 0.277023
v 0.301731 0.118505 0.263647
v 0.301129 0.111877 0.260115
v 0.301731 0.104367 0.260186
v 0.303378 0.097987 0.263841
v 0.305627 0.094447 0.270100
v 0.309522 0.118505 0.263647
v 0.310125 0.111877 0.260115
v 0.309522 0.104367 0.260186
v 0.309853 0.122395 0.270954
v 0.315825 0.117417 0.268095
v 0.317403 0.110620 0.265251
v 0.315825 0.103278 0.264634
v 0.309853 0.097542 0.264870
v 0.318233 0.115655 0.275292
v 0.320183 0.108585 0.273562
v 0.318233 0.101516 0.271831
v 0.312905 0.096341 0.270564
v -0.291807 0.064322 0.275272
v -0.292260 0.064054 0.275781
v -0.300167 0.060468 0.280203
v -0.297899 0.061370 0.279454
v -0.312841 0.056916 0.278273
v -0.307421 0.058189 0.280107
v -0.320701 0.056436 0.269999
v -0.316243 0.056528 0.275432
v -0.321272 0.056687 0.268227
v -0.322283 0.057949 0.261725
v -0.322018 0.058430 0.260096
v -0.320575 0.060072 0.255233
v -0.311414 0.064766 0.247899
v -0.315619 0.062977 0.249766
v -0.302323 0.067748 0.247405
v -0.302739 0.067648 0.247366
v -0.305704 0.066782 0.247060
v -0.288286 0.068648 0.261155
v -0.288220 0.068632 0.261323
v -0.317712 0.061783 0.251939
v -0.288641 0.066657 0.269811
v -0.288453 0.067648 0.265985
v -0.294350 0.068960 0.251677
v -0.292975 0.069131 0.252606
v 0.317092 0.056286 0.275292
v 0.320847 0.056286 0.270401
v 0.314630 0.056605 0.277193
v 0.309599 0.057574 0.279770
v 0.299131 0.060866 0.279895
v 0.302515 0.059673 0.280381
v 0.290913 0.064980 0.273709
v 0.291382 0.064713 0.274194
v 0.289822 0.068876 0.257976
v 0.289718 0.068831 0.258339
v 0.295986 0.068770 0.250479
v 0.297672 0.068521 0.249538
v 0.308961 0.065743 0.247055
v 0.305140 0.066946 0.247094
v 0.319987 0.060622 0.253715
v 0.322742 0.058100 0.260481
v 0.290099 0.068876 0.257615
v 0.321620 0.056382 0.268997
v 0.322662 0.057733 0.262093
v 0.288576 0.067648 0.265798
v 0.313446 0.063917 0.248708
v 0.318698 0.061538 0.251636
v 0.302162 0.067648 0.248093
v -0.203119 0.127458 0.263671
v -0.103439 0.141126 0.263671
v -0.002891 0.143809 0.263671
v 0.097657 0.141126 0.263671
v 0.197228 0.127474 0.263671
v -0.202360 0.122064 0.271097
v -0.103439 0.135680 0.271097
v -0.002891 0.138362 0.271097
v 0.097657 0.135680 0.271097
v 0.196376 0.122095 0.271097
v -0.202555 0.123451 0.280200
v -0.103439 0.137080 0.280200
v -0.002891 0.139762 0.280200
v 0.097657 0.137080 0.280200
v 0.196595 0.123477 0.280200
v -0.203589 0.130805 0.285647
v -0.103439 0.144506 0.285646
v -0.002891 0.147188 0.285646
v 0.097657 0.144506 0.285646
v 0.197757 0.130812 0.285647
v -0.204856 0.139819 0.284247
v -0.103439 0.153608 0.284247
v -0.002891 0.156291 0.284247
v 0.097657 0.153608 0.284247
v 0.199181 0.139803 0.284247
v -0.205614 0.145212 0.276820
v -0.103439 0.159055 0.276820
v -0.002891 0.161737 0.276820
v 0.097657 0.159055 0.276820
v 0.200033 0.145182 0.276820
v -0.205419 0.143826 0.267718
v -0.103439 0.157655 0.267718
v -0.002891 0.160337 0.267718
v 0.097657 0.157655 0.267718
v 0.199814 0.143800 0.267718
v -0.204385 0.136472 0.262271
v -0.103439 0.150229 0.262271
v -0.002891 0.152911 0.262271
v 0.097657 0.150229 0.262271
v 0.198652 0.136465 0.262271
vn -0.0423 -0.2228 0.9739
vn -0.0711 -0.2886 0.9548
vn 0.1167 0.4658 0.8771
vn 0.1007 0.5212 0.8475
vn 0.2361 0.9396 0.2479
vn 0.1838 0.9549 0.2333
vn 0.2051 0.8170 -0.5389
vn 0.1627 0.8445 -0.5103
vn 0.0449 0.1786 -0.9829
vn 0.0481 0.2472 -0.9678
vn -0.1357 -0.5504 -0.8238
vn -0.0960 -0.5025 -0.8592
vn -0.2329 -0.9470 -0.2211
vn -0.1827 -0.9536 -0.2393
vn -0.2087 -0.8482 0.4868
vn -0.1605 -0.8378 0.5219
vn 0.7527 -0.1442 0.6424
vn 0.6633 -0.1673 0.7295
vn 0.8379 -0.1379 0.5281
vn 0.5045 -0.2112 0.8372
vn 0.3414 -0.1913 0.9203
vn 0.1485 -0.1970 0.9691
vn -0.3179 -0.1933 0.9282
vn -0.5166 -0.1864 0.8357
vn -0.0838 -0.2264 0.9704
vn -0.6827 -0.1546 0.7142
vn -0.8287 -0.1064 0.5494
vn -0.8942 -0.1014 0.4361
vn -0.9968 0.0024 0.0794
vn -0.9998 0.0093 -0.0193
vn -0.9696 -0.0492 0.2397
vn -0.9074 0.1199 -0.4027
vn -0.8872 0.1096 -0.4482
vn -0.9808 0.0594 -0.1859
vn -0.3430 0.2420 -0.9076
vn -0.6654 0.1787 -0.7248
vn -0.5361 0.2288 -0.8126
vn 0.1057 0.2686 -0.9574
vn 0.2446 0.2243 -0.9433
vn 0.0478 0.1834 -0.9819
vn -0.1615 0.2669 -0.9501
vn 0.9735 0.0717 -0.2171
vn 0.9885 0.0296 -0.1486
vn 0.8889 0.1302 -0.4392
vn 0.0001 0.9713 0.2378
vn -0.0000 0.9713 0.2378
vn -0.0000 0.9713 0.2379
vn -0.0002 0.9713 0.2378
vn -0.0001 0.9713 0.2378
vn -0.0001 0.9713 0.2377
vn -0.0000 0.9713 0.2377
vn 0.0001 0.9714 0.2376
vn 0.0001 0.9713 0.2377
vn 0.7527 -0.1852 0.6317
vn 0.8968 0.1041 0.4300
vn 0.9947 -0.0672 0.0772
vn -0.9767 -0.1072 0.1861
vn -0.9064 0.2489 -0.3414
vn -0.9375 0.1357 0.3205
vn 0.5361 0.0238 0.8438
vn 0.9772 0.1983 -0.0760
vn 0.8712 0.0596 -0.4872
vn 0.1675 -0.2578 0.9516
vn -0.8040 0.0638 -0.5912
vn -0.4503 0.3401 -0.8255
vn -0.0038 -0.0021 1.0000
vn -0.5276 -0.2290 0.8180
vn -0.5653 0.0367 0.8241
vn 0.1957 0.3564 -0.9136
vn -0.2328 0.1536 -0.9603
vn 0.9517 -0.2836 0.1173
vn -0.9080 -0.3335 0.2535
vn -0.9191 -0.1907 -0.3449
vn 0.7711 -0.1032 -0.6283
vn -0.5718 -0.0575 -0.8184
vn 0.4772 -0.4274 0.7679
vn -0.3543 -0.4579 0.8153
vn 0.1245 -0.0083 -0.9922
vn 0.3771 0.1444 -0.9148
vn 0.5313 -0.8229 -0.2015
vn 0.7137 -0.5863 0.3832
vn 0.2827 -0.9354 0.2123
vn 0.8760 0.4713 0.1024
vn 0.8090 -0.1398 0.5709
vn 1.0000 -0.0000 -0.0000
vn -0.0010 -0.9716 -0.2365
vn 0.8778 -0.4653 -0.1139
vn 0.4994 0.8008 0.3306
vn 0.6990 0.3488 0.6243
vn 0.2827 0.2711 0.9201
vn 0.3090 -0.2262 0.9238
vn -0.0020 0.9713 0.2378
vn 0.0324 0.7103 0.7031
vn 0.2575 -0.6728 0.6935
vn -0.3057 -0.9297 0.2056
vn -0.2556 -0.6684 0.6985
vn -0.2818 0.2767 0.9187
vn -0.3090 -0.2262 0.9238
vn -0.7174 -0.5886 0.3726
vn -0.4796 0.7890 0.3841
vn -0.7013 0.3434 0.6247
vn -0.8090 -0.1398 0.5709
vn -0.4950 -0.8011 -0.3365
vn -1.0000 -0.0000 -0.0000
vn -0.8724 -0.4776 -0.1039
vn -0.8721 0.4783 0.1028
vn -0.7072 -0.3408 -0.6195
vn -0.3069 0.9298 -0.2031
vn -0.7174 0.5886 -0.3726
vn -0.8090 0.1398 -0.5709
vn -0.3090 0.2262 -0.9238
vn -0.2712 -0.2668 -0.9248
vn -0.2556 0.6684 -0.6985
vn -0.1642 -0.7027 -0.6923
vn 0.2575 0.6728 -0.6935
vn 0.2661 -0.2656 -0.9266
vn 0.3019 -0.7345 -0.6077
vn 0.3090 0.2262 -0.9238
vn 0.2981 0.9330 -0.2016
vn 0.7133 0.5928 -0.3739
vn 0.8090 0.1398 -0.5709
vn 0.7137 -0.3430 -0.6107
vn -0.7646 0.1767 -0.6198
vn 0.9421 -0.0636 0.3293
vn 0.9753 -0.0323 0.2186
vn 0.9985 0.0137 0.0527
vn 0.6580 0.2240 -0.7190
vn 0.6752 0.2205 -0.7039
vn 0.4302 0.2557 -0.8657
vn -0.0001 0.9713 0.2379
vn -0.0001 0.9714 0.2376
vn 0.7451 0.2984 -0.5965
vn 0.8471 -0.1162 0.5186
vn 0.7517 -0.1364 0.6452
vn 0.6898 -0.1705 0.7037
vn 0.2158 -0.2178 0.9519
vn 0.5365 -0.1921 0.8217
vn -0.4504 -0.2188 0.8656
vn -0.0310 -0.1983 0.9797
vn -0.8754 -0.1175 0.4689
vn -0.6646 -0.1448 0.7330
vn -0.9050 0.1243 -0.4067
vn -0.8653 0.1271 -0.4848
vn -0.9795 0.0580 -0.1930
vn -0.5317 0.2325 -0.8144
vn -0.3057 0.2621 -0.9153
vn -0.6165 0.1825 -0.7659
vn 0.1207 0.2590 -0.9583
vn 0.3336 0.2199 -0.9167
vn -0.1068 0.2462 -0.9633
vn 0.9776 0.0583 -0.2023
vn 0.9938 0.0111 -0.1103
vn 0.8946 0.1203 -0.4304
vn 0.0001 0.9713 0.2379
vn 0.3772 0.1444 -0.9148
vn 0.8760 0.4712 0.1024
vn 0.2980 0.9330 -0.2016
vn -0.7569 0.1854 -0.6267
vn 0.9539 -0.0524 0.2956
vn 0.9623 -0.0475 0.2677
vn 0.9961 -0.0158 0.0866
vn -0.9527 -0.0372 0.3015
vn -0.9878 0.0677 -0.1405
vn 0.6731 0.2085 -0.7096
vn 0.7426 0.1962 -0.6404
vn 0.4627 0.2308 -0.8560
vn -0.2403 0.2956 -0.9246
vn 0.2089 -0.8483 0.4866
vn 0.1607 -0.8378 0.5218
vn 0.0421 -0.2229 0.9739
vn 0.0712 -0.2888 0.9547
vn 0.0699 -0.8486 0.5244
vn 0.0174 -0.2246 0.9743
vn -0.0000 -0.8532 0.5216
vn -0.0000 -0.2317 0.9728
vn -0.0699 -0.8486 0.5244
vn -0.0174 -0.2246 0.9743
vn 0.2331 -0.9470 -0.2209
vn 0.1830 -0.9536 -0.2392
vn 0.0801 -0.9673 -0.2408
vn -0.0000 -0.9709 -0.2393
vn -0.0801 -0.9673 -0.2408
vn 0.1358 -0.5506 -0.8236
vn 0.0960 -0.5026 -0.8592
vn 0.0410 -0.5074 -0.8607
vn -0.0000 -0.5139 -0.8579
vn -0.0410 -0.5074 -0.8607
vn -0.0449 0.1787 -0.9829
vn -0.0483 0.2472 -0.9677
vn -0.0212 0.2495 -0.9681
vn -0.0000 0.2439 -0.9698
vn 0.0212 0.2495 -0.9681
vn -0.2050 0.8172 -0.5387
vn -0.1625 0.8446 -0.5102
vn -0.0688 0.8558 -0.5127
vn -0.0000 0.8567 -0.5158
vn 0.0688 0.8558 -0.5127
vn -0.2359 0.9397 0.2478
vn -0.1835 0.9550 0.2332
vn -0.0775 0.9690 0.2347
vn -0.0000 0.9717 0.2363
vn 0.0775 0.9690 0.2347
vn -0.1167 0.4661 0.8770
vn -0.1008 0.5213 0.8474
vn -0.0432 0.5267 0.8490
vn -0.0000 0.5234 0.8521
vn 0.0432 0.5267 0.8489
vt 0.241557 0.564212
vt 0.241450 0.527909
vt 0.244588 0.528665
vt 0.244733 0.564308
vt 0.247785 0.529112
vt 0.247888 0.564363
vt 0.251011 0.528985
vt 0.251038 0.564342
vt 0.254178 0.528352
vt 0.254200 0.564253
vt 0.257314 0.527582
vt 0.257387 0.564146
vt 0.260509 0.527119
vt 0.260603 0.564079
vt 0.235128 0.564125
vt 0.235057 0.527184
vt 0.238282 0.527294
vt 0.238352 0.564135
vt 0.888219 0.931416
vt 0.887822 0.931273
vt 0.888052 0.931086
vt 0.886245 0.933097
vt 0.887017 0.933725
vt 0.885787 0.933954
vt 0.886845 0.937171
vt 0.884660 0.938445
vt 0.884923 0.936366
vt 0.884675 0.940067
vt 0.887864 0.940619
vt 0.885109 0.942507
vt 0.889132 0.942887
vt 0.886513 0.945444
vt 0.885414 0.943266
vt 0.890840 0.945150
vt 0.888312 0.947664
vt 0.886961 0.946086
vt 0.892824 0.950598
vt 0.890913 0.949699
vt 0.893381 0.947623
vt 0.897322 0.949695
vt 0.896890 0.951566
vt 0.896712 0.951525
vt 0.895416 0.951293
vt 0.892551 0.929478
vt 0.892540 0.929410
vt 0.892615 0.929408
vt 0.892098 0.931028
vt 0.890295 0.931597
vt 0.889927 0.930055
vt 0.888856 0.933329
vt 0.888389 0.935611
vt 0.890139 0.941150
vt 0.892218 0.943895
vt 0.894890 0.946348
vt 0.895787 0.933154
vt 0.895303 0.930456
vt 0.897341 0.932964
vt 0.894212 0.931449
vt 0.735122 0.938994
vt 0.726071 0.936045
vt 0.735409 0.937427
vt 0.735387 0.944907
vt 0.726958 0.949512
vt 0.725981 0.946721
vt 0.725468 0.938510
vt 0.726819 0.934030
vt 0.735915 0.935961
vt 0.734984 0.940801
vt 0.735962 0.947068
vt 0.728216 0.952184
vt 0.725161 0.941070
vt 0.735013 0.942651
vt 0.725364 0.943766
vt 0.729661 0.954566
vt 0.736515 0.948626
vt 0.737249 0.938032
vt 0.737440 0.944323
vt 0.737817 0.945714
vt 0.737883 0.936227
vt 0.738231 0.947190
vt 0.737053 0.939943
vt 0.737185 0.942068
vt 0.738588 0.949197
vt 0.736541 0.934387
vt 0.738588 0.934493
vt 0.963556 0.512792
vt 0.961129 0.513859
vt 0.961817 0.511861
vt 0.959313 0.518052
vt 0.959869 0.515072
vt 0.961528 0.517259
vt 0.963291 0.510118
vt 0.962859 0.515213
vt 0.956636 0.517604
vt 0.958383 0.515957
vt 0.957259 0.514318
vt 0.958597 0.513355
vt 0.953523 0.517610
vt 0.955210 0.515153
vt 0.959899 0.512432
vt 0.960827 0.509539
vt 0.958981 0.510730
vt 0.955914 0.512745
vt 0.957379 0.511567
vt 0.958425 0.508429
vt 0.951839 0.513932
vt 0.954014 0.511113
vt 0.955933 0.509218
vt 0.962870 0.506827
vt 0.953642 0.505241
vt 0.958627 0.505056
vt 0.950882 0.509269
vt 0.953649 0.828427
vt 0.953549 0.832745
vt 0.951373 0.830831
vt 0.956785 0.827507
vt 0.959978 0.830339
vt 0.957438 0.830238
vt 0.955404 0.831277
vt 0.960193 0.827071
vt 0.962478 0.829173
vt 0.956843 0.833477
vt 0.955071 0.834710
vt 0.958543 0.832289
vt 0.952869 0.836246
vt 0.950882 0.834230
vt 0.966035 0.508359
vt 0.960115 0.834024
vt 0.956396 0.836810
vt 0.954070 0.838819
vt 0.958405 0.835589
vt 0.962478 0.832227
vt 0.966035 0.511850
vt 0.962457 0.835649
vt 0.960470 0.838265
vt 0.957457 0.839545
vt 0.965586 0.516192
vt 0.959855 0.520914
vt 0.963443 0.519581
vt 0.955666 0.520711
vt 0.889800 0.948842
vt 0.889927 0.930017
vt 0.891117 0.929774
vt 0.895502 0.929988
vt 0.895999 0.930283
vt 0.898134 0.931899
vt 0.888823 0.938186
vt 0.898134 0.947506
vt 0.727869 0.931753
vt 0.729245 0.929408
vt 0.737108 0.933203
vt 0.841445 0.949389
vt 0.840381 0.946322
vt 0.842755 0.947834
vt 0.842046 0.944400
vt 0.844270 0.945041
vt 0.843364 0.946868
vt 0.843933 0.940918
vt 0.845260 0.940842
vt 0.845009 0.942391
vt 0.844219 0.936193
vt 0.844554 0.936034
vt 0.844671 0.936430
vt 0.839394 0.930699
vt 0.839472 0.930368
vt 0.839662 0.930475
vt 0.835278 0.930482
vt 0.834370 0.929473
vt 0.835330 0.929408
vt 0.831409 0.950240
vt 0.832164 0.951948
vt 0.831044 0.951800
vt 0.836832 0.948856
vt 0.838516 0.951392
vt 0.836311 0.951974
vt 0.836499 0.947338
vt 0.838255 0.946136
vt 0.838873 0.947594
vt 0.839994 0.944242
vt 0.841434 0.941891
vt 0.841468 0.935146
vt 0.838621 0.932752
vt 0.842509 0.932848
vt 0.835121 0.932570
vt 0.832042 0.948784
vt 0.834413 0.949786
vt 0.834406 0.948377
vt 0.787899 0.939183
vt 0.779379 0.935558
vt 0.788300 0.937717
vt 0.787973 0.944952
vt 0.779080 0.949047
vt 0.778334 0.946108
vt 0.778578 0.937898
vt 0.780284 0.933670
vt 0.788919 0.936358
vt 0.787655 0.940893
vt 0.788558 0.947269
vt 0.780133 0.951920
vt 0.778061 0.940364
vt 0.787617 0.942688
vt 0.777988 0.943074
vt 0.781393 0.954528
vt 0.789077 0.949056
vt 0.789963 0.938477
vt 0.790045 0.944235
vt 0.790603 0.945707
vt 0.790777 0.936822
vt 0.791186 0.947386
vt 0.789592 0.940212
vt 0.789604 0.942102
vt 0.791644 0.949875
vt 0.789673 0.934901
vt 0.791644 0.935215
vt 0.950882 0.566495
vt 0.954352 0.565610
vt 0.952930 0.567870
vt 0.958487 0.560315
vt 0.956660 0.564482
vt 0.955064 0.561048
vt 0.950961 0.569788
vt 0.952303 0.563418
vt 0.950882 0.881869
vt 0.950882 0.878945
vt 0.953202 0.880337
vt 0.959536 0.566813
vt 0.957346 0.567158
vt 0.950882 0.624067
vt 0.953285 0.626024
vt 0.950969 0.628019
vt 0.955369 0.567681
vt 0.959535 0.563856
vt 0.962323 0.567782
vt 0.953614 0.570504
vt 0.955760 0.569731
vt 0.959737 0.569247
vt 0.957700 0.569542
vt 0.955614 0.571959
vt 0.963141 0.571318
vt 0.960208 0.571658
vt 0.957901 0.572092
vt 0.954871 0.628703
vt 0.951647 0.572866
vt 0.958073 0.575476
vt 0.954704 0.574601
vt 0.961282 0.574363
vt 0.962501 0.627549
vt 0.961734 0.622757
vt 0.964542 0.624171
vt 0.958778 0.628703
vt 0.955704 0.625496
vt 0.958148 0.625760
vt 0.960155 0.624590
vt 0.958512 0.622636
vt 0.959874 0.621302
vt 0.957083 0.623796
vt 0.961320 0.619551
vt 0.963907 0.620288
vt 0.962792 0.616873
vt 0.955710 0.622319
vt 0.958415 0.619752
vt 0.959886 0.617712
vt 0.956981 0.620988
vt 0.953864 0.623675
vt 0.953818 0.621099
vt 0.955187 0.619169
vt 0.957113 0.617790
vt 0.959653 0.615037
vt 0.952500 0.616537
vt 0.955970 0.614876
vt 0.950975 0.620220
vt 0.839230 0.930281
vt 0.840972 0.949823
vt 0.839108 0.951065
vt 0.842325 0.932658
vt 0.835478 0.952136
vt 0.833597 0.952104
vt 0.831167 0.932446
vt 0.831044 0.930102
vt 0.832357 0.929895
vt 0.842194 0.938874
vt 0.832345 0.934342
vt 0.781509 0.931556
vt 0.783056 0.929408
vt 0.790338 0.933807
vt 0.963141 0.564173
vt 0.238283 0.741226
vt 0.238369 0.704435
vt 0.241574 0.704314
vt 0.241453 0.740612
vt 0.238431 0.669443
vt 0.241630 0.669233
vt 0.238355 0.634248
vt 0.241570 0.634248
vt 0.238420 0.599057
vt 0.241619 0.599266
vt 0.235057 0.741335
vt 0.235145 0.704453
vt 0.235207 0.669483
vt 0.235131 0.634249
vt 0.235197 0.599017
vt 0.257321 0.740950
vt 0.257405 0.704402
vt 0.260622 0.704501
vt 0.260519 0.741420
vt 0.257437 0.669343
vt 0.260651 0.669505
vt 0.257541 0.634245
vt 0.260763 0.634244
vt 0.257423 0.599151
vt 0.260635 0.598989
vt 0.254184 0.740174
vt 0.254218 0.704239
vt 0.254258 0.669082
vt 0.254334 0.634246
vt 0.254244 0.599413
vt 0.251016 0.739540
vt 0.251057 0.704106
vt 0.251102 0.668872
vt 0.251142 0.634246
vt 0.251089 0.599624
vt 0.247790 0.739412
vt 0.247905 0.704076
vt 0.247951 0.668830
vt 0.247957 0.634247
vt 0.247938 0.599667
vt 0.244592 0.739858
vt 0.244749 0.704163
vt 0.244798 0.668979
vt 0.244770 0.634247
vt 0.244786 0.599519
s 1
usemtl Material_SmokeboxDoor
f 245/1/1 2/2/2 4/3/3 250/4/4
f 250/4/4 4/3/3 6/5/5 255/6/6
f 255/6/6 6/5/5 8/7/7 260/8/8
f 260/8/8 8/7/7 10/9/9 265/10/10
f 265/10/10 10/9/9 12/11/11 230/12/12
f 230/12/12 12/11/11 14/13/13 235/14/14
f 235/15/14 14/16/13 16/17/15 240/18/16
f 240/18/16 16/17/15 2/2/2 245/1/1
f 29/19/17 180/20/18 179/21/19
f 182/22/20 30/23/21 181/24/22
f 31/25/23 183/26/24 184/27/25
f 186/28/26 32/29/27 185/30/28
f 33/31/29 188/32/30 187/33/31
f 34/34/32 190/35/33 189/36/34
f 191/37/35 192/38/36 35/39/37
f 36/40/38 193/41/39 194/42/40 195/43/41
f 27/44/42 197/45/43 196/46/44
f 27/44/45 17/47/46 18/48/45
f 29/19/45 28/49/45 18/48/45
f 29/19/45 18/48/45 19/50/46
f 29/19/45 19/50/46 30/23/47
f 30/23/47 19/50/46 20/51/47
f 30/23/47 20/51/47 31/25/47
f 22/52/48 23/53/49 33/31/48
f 23/53/49 24/54/50 34/34/49
f 25/55/51 37/56/52 36/57/51
f 17/47/46 27/44/45 26/58/53
f 39/59/54 18/60/55 38/61/56
f 42/62/57 23/63/58 22/64/59
f 39/59/54 19/65/60 18/60/55
f 38/61/56 17/66/61 46/67/62
f 19/65/60 39/59/54 40/68/63
f 43/69/64 24/70/65 23/63/58
f 20/71/66 40/68/63 41/72/67
f 20/71/66 41/72/67 21/73/68
f 25/74/69 24/70/65 44/75/70
f 38/61/56 47/76/71 39/59/54
f 42/62/57 50/77/72 51/78/73
f 46/67/62 54/79/74 47/76/71
f 43/69/64 51/78/73 52/80/75
f 39/59/54 48/81/76 40/68/63
f 40/68/63 49/82/77 41/72/67
f 44/75/70 52/80/75 53/83/78
f 41/72/67 50/77/72 42/62/57
f 45/84/79 53/85/78 54/79/74
f 97/86/80 58/87/81 59/88/82
f 94/89/83 57/90/84 95/91/85
f 85/92/86 97/86/80 59/88/82
f 95/91/85 58/87/81 96/93/87
f 55/94/88 56/95/89 94/89/83
f 57/90/84 60/96/90 61/97/91
f 55/94/88 80/98/92 63/99/93
f 57/90/84 62/100/94 58/87/81
f 56/95/89 63/99/93 60/96/90
f 85/92/86 59/88/82 67/101/95
f 61/97/91 66/102/96 62/100/94
f 63/99/93 64/103/97 60/96/90
f 62/100/94 67/101/95 59/88/82
f 61/97/91 64/103/97 65/104/98
f 65/104/98 71/105/99 66/102/96
f 64/103/97 68/106/100 69/107/101
f 65/104/98 69/107/101 70/108/102
f 63/99/93 80/98/92 68/106/100
f 85/92/86 67/101/95 75/109/103
f 71/105/99 73/110/104 74/111/105
f 68/106/100 72/112/106 69/107/101
f 67/101/95 74/111/105 75/109/103
f 69/107/101 73/110/104 70/108/102
f 73/113/104 79/114/107 74/115/105
f 72/116/106 76/117/108 77/118/109
f 72/116/106 78/119/110 73/113/104
f 68/120/100 80/121/92 76/117/108
f 79/114/107 82/122/111 83/123/112
f 76/117/108 81/124/113 77/118/109
f 79/114/107 84/125/114 75/126/103
f 77/118/109 82/122/111 78/119/110
f 85/92/86 75/109/103 84/127/114
f 76/117/108 86/128/115 81/124/113
f 84/125/114 88/129/116 93/130/117
f 81/124/113 87/131/118 82/122/111
f 76/117/108 80/121/92 89/132/119
f 85/92/86 84/127/114 93/133/117
f 82/122/111 88/129/116 83/123/112
f 87/131/118 90/134/120 91/135/121
f 87/131/118 92/136/122 88/129/116
f 89/132/119 90/134/120 86/128/115
f 92/137/122 97/86/80 93/133/117
f 90/138/120 95/91/85 91/139/121
f 89/140/119 80/98/92 55/94/88
f 85/92/86 93/133/117 97/86/80
f 91/139/121 96/93/87 92/137/122
f 90/138/120 55/94/88 94/89/83
f 34/34/32 35/39/37 192/38/36 198/141/123 190/35/33
f 28/49/124 29/19/17 179/21/19 199/142/125
f 180/20/18 29/19/17 30/23/21 182/22/20
f 181/24/22 30/23/21 31/25/23 184/27/25
f 27/44/42 28/49/124 199/142/125 200/143/126 197/45/43
f 183/26/24 31/25/23 32/29/27 186/28/26
f 187/33/31 185/30/28 32/29/27 33/31/29
f 189/36/34 188/32/30 33/31/29 34/34/32
f 36/57/38 37/56/127 202/144/128 201/145/129 193/146/39
f 35/39/37 36/40/38 195/43/41 191/37/35
f 37/56/127 27/44/42 196/46/44 202/144/128
f 42/62/57 22/64/59 21/73/68 41/72/67
f 28/49/45 27/44/45 18/48/45
f 31/25/47 20/51/47 21/147/130
f 31/25/47 21/147/130 32/29/130
f 21/147/130 22/52/48 32/29/130
f 32/29/130 22/52/48 33/31/48
f 23/53/49 34/34/49 33/31/48
f 24/54/50 35/39/131 34/34/49
f 24/54/50 36/40/51 35/39/131
f 25/148/51 36/40/51 24/54/50
f 26/58/53 37/56/52 25/55/51
f 27/44/45 37/56/52 26/58/53
f 26/149/132 25/150/69 45/84/79
f 38/61/56 18/60/55 17/66/61
f 26/149/132 45/84/79 46/67/62
f 46/67/62 17/66/61 26/149/132
f 42/62/57 43/69/64 23/63/58
f 19/65/60 40/68/63 20/71/66
f 24/70/65 43/69/64 44/75/70
f 25/150/69 44/151/70 45/84/79
f 39/59/54 47/76/71 48/81/76
f 43/69/64 42/62/57 51/78/73
f 38/61/56 46/67/62 47/76/71
f 40/68/63 48/81/76 49/82/77
f 44/75/70 43/69/64 52/80/75
f 45/84/79 44/151/70 53/85/78
f 41/72/67 49/82/77 50/77/72
f 46/67/62 45/84/79 54/79/74
f 97/86/80 96/93/87 58/87/81
f 94/89/83 56/95/89 57/90/84
f 95/91/85 57/90/84 58/87/81
f 57/90/84 56/95/89 60/96/90
f 57/90/84 61/97/91 62/100/94
f 56/95/89 55/94/88 63/99/93
f 58/87/81 62/100/94 59/88/82
f 61/97/91 65/104/98 66/102/96
f 62/100/94 66/102/96 67/101/95
f 61/97/91 60/96/90 64/103/97
f 65/104/98 70/108/102 71/105/99
f 64/103/97 63/99/93 68/106/100
f 66/102/96 71/105/99 67/101/95
f 65/104/98 64/103/97 69/107/101
f 71/105/99 70/108/102 73/110/104
f 67/101/95 71/105/99 74/111/105
f 69/107/101 72/112/106 73/110/104
f 73/113/104 78/119/110 79/114/107
f 72/116/106 68/120/100 76/117/108
f 74/115/105 79/114/107 75/126/103
f 72/116/106 77/118/109 78/119/110
f 79/114/107 78/119/110 82/122/111
f 79/114/107 83/123/112 84/125/114
f 77/118/109 81/124/113 82/122/111
f 76/117/108 89/132/119 86/128/115
f 84/125/114 83/123/112 88/129/116
f 81/124/113 86/128/115 87/131/118
f 82/122/111 87/131/118 88/129/116
f 93/130/117 88/129/116 92/136/122
f 87/131/118 86/128/115 90/134/120
f 87/131/118 91/135/121 92/136/122
f 92/137/122 96/93/87 97/86/80
f 90/138/120 94/89/83 95/91/85
f 91/139/121 95/91/85 96/93/87
f 90/138/120 89/140/119 55/94/88
f 204/152/133 110/153/134 203/154/135
f 111/155/21 206/156/136 205/157/137
f 112/158/23 207/159/138 208/160/139
f 113/161/27 209/162/140 210/163/141
f 115/164/142 211/165/143 212/166/144
f 116/167/145 214/168/146 213/169/147
f 117/170/148 215/171/149 216/172/150
f 108/173/151 218/174/152 217/175/153
f 108/173/45 98/176/46 99/177/45
f 110/153/154 109/178/45 99/177/45
f 110/153/154 99/177/45 100/179/47
f 110/153/154 100/179/47 111/155/47
f 111/155/47 100/179/47 101/180/47
f 111/155/47 101/180/47 112/158/47
f 103/181/48 104/182/49 114/183/48
f 104/182/49 105/184/50 115/164/49
f 106/185/51 118/186/52 117/170/51
f 98/176/46 108/173/45 107/187/53
f 120/188/54 99/189/55 119/190/56
f 123/191/57 104/192/58 103/193/59
f 120/188/54 100/194/60 99/189/55
f 119/190/56 98/195/61 127/196/62
f 100/194/60 120/188/54 121/197/63
f 124/198/64 105/199/65 104/192/58
f 101/200/66 121/197/63 122/201/67
f 101/200/66 122/201/67 102/202/68
f 106/203/69 105/199/65 125/204/70
f 119/190/56 128/205/71 120/188/54
f 123/191/57 131/206/72 132/207/73
f 127/196/62 135/208/74 128/205/71
f 124/198/64 132/207/73 133/209/75
f 120/188/54 129/210/76 121/197/63
f 121/197/63 130/211/77 122/201/67
f 125/204/70 133/209/75 134/212/78
f 122/201/67 131/206/72 123/191/57
f 126/213/155 134/214/78 135/208/74
f 178/215/80 139/216/81 140/217/82
f 175/218/156 138/219/84 176/220/85
f 166/221/86 178/215/80 140/217/82
f 176/220/85 139/216/81 177/222/87
f 136/223/88 137/224/89 175/225/156
f 138/219/84 141/226/90 142/227/91
f 136/228/88 161/229/92 144/230/93
f 138/219/84 143/231/94 139/216/81
f 137/232/89 144/233/93 141/226/90
f 166/221/86 140/217/82 148/234/95
f 142/227/91 147/235/96 143/231/94
f 144/233/93 145/236/97 141/226/90
f 143/231/94 148/234/95 140/217/82
f 142/227/91 145/236/97 146/237/98
f 146/237/98 152/238/99 147/235/96
f 145/236/97 149/239/100 150/240/101
f 146/237/98 150/240/101 151/241/102
f 144/230/93 161/229/92 149/242/100
f 166/221/86 148/234/95 156/243/103
f 152/238/99 154/244/104 155/245/105
f 149/239/100 153/246/106 150/240/101
f 148/234/95 155/245/105 156/243/103
f 150/240/101 154/244/104 151/241/102
f 154/247/104 160/248/107 155/249/105
f 153/250/106 157/251/108 158/252/109
f 153/250/106 159/253/110 154/247/104
f 149/242/100 161/229/92 157/251/108
f 160/248/107 163/254/111 164/255/112
f 157/251/108 162/256/113 158/252/109
f 160/248/107 165/257/114 156/258/103
f 158/252/109 163/254/111 159/253/110
f 166/259/86 156/258/103 165/257/114
f 157/251/108 167/260/115 162/256/113
f 165/257/114 169/261/116 174/262/117
f 162/256/113 168/263/118 163/254/111
f 157/251/108 161/229/92 170/264/157
f 166/259/86 165/257/114 174/262/117
f 163/254/111 169/261/116 164/255/112
f 168/263/118 171/265/120 172/266/121
f 168/263/118 173/267/122 169/261/116
f 170/264/157 171/265/120 167/260/115
f 173/267/122 178/268/80 174/262/117
f 171/265/120 176/269/85 172/266/121
f 170/264/157 161/229/92 136/228/88
f 166/259/86 174/262/117 178/268/80
f 172/266/121 177/270/87 173/267/122
f 171/265/120 136/228/88 175/271/156
f 115/164/142 116/167/145 213/169/147 219/272/158 211/165/143
f 220/273/159 109/178/160 110/153/134 204/152/133
f 203/154/135 110/153/134 111/155/21 205/157/137
f 206/156/136 111/155/21 112/158/23 208/160/139
f 218/174/152 108/173/151 109/178/160 220/273/159 221/274/161
f 207/159/138 112/158/23 113/161/27 210/163/141
f 113/161/27 114/183/162 209/162/140
f 114/183/163 115/164/142 212/166/144 222/275/163
f 117/170/148 118/186/164 224/276/165 223/277/166 215/171/149
f 116/167/145 117/278/148 216/279/150 225/280/167 214/168/146
f 224/276/165 118/186/164 108/173/151 217/175/153
f 123/191/57 103/193/59 102/202/68 122/201/67
f 109/178/45 108/173/45 99/177/45
f 112/158/47 101/180/47 102/281/130
f 112/158/47 102/281/130 113/161/130
f 102/281/130 103/181/48 113/161/130
f 113/161/130 103/181/48 114/183/48
f 104/182/49 115/164/49 114/183/48
f 105/184/50 116/167/131 115/164/49
f 105/184/50 117/278/51 116/167/131
f 106/282/51 117/278/51 105/184/50
f 107/187/53 118/186/52 106/185/51
f 108/173/45 118/186/52 107/187/53
f 107/283/132 106/284/69 126/213/155
f 119/190/56 99/189/55 98/195/61
f 107/283/132 126/213/155 127/196/62
f 127/196/62 98/195/61 107/283/132
f 123/191/57 124/198/64 104/192/58
f 100/194/60 121/197/63 101/200/66
f 105/199/65 124/198/64 125/204/70
f 106/284/69 125/285/70 126/213/155
f 120/188/54 128/205/71 129/210/76
f 124/198/64 123/191/57 132/207/73
f 119/190/56 127/196/62 128/205/71
f 121/197/63 129/210/76 130/211/77
f 125/204/70 124/198/64 133/209/75
f 126/213/155 125/285/70 134/214/78
f 122/201/67 130/211/77 131/206/72
f 127/196/62 126/213/155 135/208/74
f 178/215/80 177/222/87 139/216/81
f 175/218/156 137/232/89 138/219/84
f 176/220/85 138/219/84 139/216/81
f 138/219/84 137/232/89 141/226/90
f 138/219/84 142/227/91 143/231/94
f 137/232/89 136/286/88 144/233/93
f 139/216/81 143/231/94 140/217/82
f 142/227/91 146/237/98 147/235/96
f 143/231/94 147/235/96 148/234/95
f 142/227/91 141/226/90 145/236/97
f 146/237/98 151/241/102 152/238/99
f 145/236/97 144/233/93 149/239/100
f 147/235/96 152/238/99 148/234/95
f 146/237/98 145/236/97 150/240/101
f 152/238/99 151/241/102 154/244/104
f 148/234/95 152/238/99 155/245/105
f 150/240/101 153/246/106 154/244/104
f 154/247/104 159/253/110 160/248/107
f 153/250/106 149/242/100 157/251/108
f 155/249/105 160/248/107 156/258/103
f 153/250/106 158/252/109 159/253/110
f 160/248/107 159/253/110 163/254/111
f 160/248/107 164/255/112 165/257/114
f 158/252/109 162/256/113 163/254/111
f 157/251/108 170/264/157 167/260/115
f 165/257/114 164/255/112 169/261/116
f 162/256/113 167/260/115 168/263/118
f 163/254/111 168/263/118 169/261/116
f 174/262/117 169/261/116 173/267/122
f 168/263/118 167/260/115 171/265/120
f 168/263/118 172/266/121 173/267/122
f 173/267/122 177/270/87 178/268/80
f 171/265/120 175/271/156 176/269/85
f 172/266/121 176/269/85 177/270/87
f 171/265/120 170/264/157 136/228/88
f 15/287/168 236/288/169 241/289/170 1/290/171
f 236/288/169 237/291/172 242/292/173 241/289/170
f 237/291/172 238/293/174 243/294/175 242/292/173
f 238/293/174 239/295/176 244/296/177 243/294/175
f 239/295/176 240/18/16 245/1/1 244/296/177
f 13/297/178 231/298/179 236/288/169 15/287/168
f 231/298/179 232/299/180 237/291/172 236/288/169
f 232/299/180 233/300/181 238/293/174 237/291/172
f 233/300/181 234/301/182 239/295/176 238/293/174
f 234/301/182 235/15/14 240/18/16 239/295/176
f 11/302/183 226/303/184 231/304/179 13/305/178
f 226/303/184 227/306/185 232/307/180 231/304/179
f 227/306/185 228/308/186 233/309/181 232/307/180
f 228/308/186 229/310/187 234/311/182 233/309/181
f 229/310/187 230/12/12 235/14/14 234/311/182
f 9/312/188 261/313/189 226/303/184 11/302/183
f 261/313/189 262/314/190 227/306/185 226/303/184
f 262/314/190 263/315/191 228/308/186 227/306/185
f 263/315/191 264/316/192 229/310/187 228/308/186
f 264/316/192 265/10/10 230/12/12 229/310/187
f 7/317/193 256/318/194 261/313/189 9/312/188
f 256/318/194 257/319/195 262/314/190 261/313/189
f 257/319/195 258/320/196 263/315/191 262/314/190
f 258/320/196 259/321/197 264/316/192 263/315/191
f 259/321/197 260/8/8 265/10/10 264/316/192
f 5/322/198 251/323/199 256/318/194 7/317/193
f 251/323/199 252/324/200 257/319/195 256/318/194
f 252/324/200 253/325/201 258/320/196 257/319/195
f 253/325/201 254/326/202 259/321/197 258/320/196
f 254/326/202 255/6/6 260/8/8 259/321/197
f 3/327/203 246/328/204 251/323/199 5/322/198
f 246/328/204 247/329/205 252/324/200 251/323/199
f 247/329/205 248/330/206 253/325/201 252/324/200
f 248/330/206 249/331/207 254/326/202 253/325/201
f 249/331/207 250/4/4 255/6/6 254/326/202
f 1/290/171 241/289/170 246/328/204 3/327/203
f 241/289/170 242/292/173 247/329/205 246/328/204
f 242/292/173 243/294/175 248/330/206 247/329/205
f 243/294/175 244/296/177 249/331/207 248/330/206
f 244/296/177 245/1/1 250/4/4 249/331/207
