# Blender 4.1.1
# www.blender.org
mtllib 1.25m_Smokebox_Hinge.mtl
o SmokeboxDoorBracket
v -0.035215 0.131891 0.151398
v -0.033444 0.127294 0.146291
v -0.002113 0.127012 0.167847
v -0.008632 0.131680 0.169370
v -0.014320 0.127905 0.152006
v -0.018833 0.132430 0.156184
v -0.031254 0.120144 0.215167
v -0.033346 0.125811 0.209678
v -0.017297 0.127434 0.204078
v -0.012530 0.122051 0.208576
v -0.007958 0.129486 0.190401
v -0.001345 0.124502 0.192191
v -0.538403 -0.000055 0.212551
v -0.537113 -0.005361 0.217814
v -0.537132 -0.005286 0.148591
v -0.538403 -0.000055 0.153937
v -0.504961 -0.001612 0.147299
v -0.506080 0.003069 0.152506
v -0.504211 -0.003011 0.210784
v -0.502774 -0.008855 0.216155
v -0.490185 0.008221 0.153090
v -0.422937 0.046349 0.149988
v -0.424260 0.050954 0.155433
v -0.459088 0.032446 0.154619
v -0.457761 0.027825 0.149243
v -0.422391 0.044874 0.213712
v -0.420735 0.039143 0.218818
v -0.486650 -0.003623 0.216701
v -0.488316 0.002141 0.211368
v -0.455556 0.020612 0.218082
v -0.457218 0.026365 0.212898
v -0.149084 0.120298 0.153841
v -0.147763 0.115698 0.148532
v -0.084392 0.123905 0.147457
v -0.085714 0.128526 0.152667
v -0.083844 0.122445 0.210947
v -0.082204 0.116746 0.216318
v -0.145570 0.108527 0.217380
v -0.147215 0.114218 0.212121
v -0.332786 0.081594 0.155695
v -0.331319 0.076493 0.150210
v -0.269476 0.092504 0.149921
v -0.270922 0.097535 0.155374
v -0.269053 0.091455 0.213654
v -0.267413 0.085780 0.218767
v -0.329276 0.069835 0.219057
v -0.330916 0.075514 0.213975
v -0.208667 0.098356 0.218250
v -0.210308 0.104036 0.213082
v -0.212178 0.110117 0.154803
v -0.210861 0.105533 0.149412
v -0.377584 0.054977 0.219057
v -0.379230 0.060673 0.213976
v -0.381099 0.066753 0.155697
v -0.379783 0.062172 0.150231
v -0.035215 0.131891 -0.151412
v -0.033444 0.127294 -0.146304
v -0.002113 0.127012 -0.167860
v -0.008632 0.131680 -0.169383
v -0.014320 0.127905 -0.152020
v -0.018833 0.132430 -0.156197
v -0.031254 0.120144 -0.215181
v -0.033346 0.125811 -0.209692
v -0.017297 0.127434 -0.204091
v -0.012530 0.122051 -0.208590
v -0.007958 0.129486 -0.190415
v -0.001345 0.124502 -0.192204
v -0.538403 -0.000055 -0.212564
v -0.537114 -0.005361 -0.217827
v -0.537132 -0.005286 -0.148605
v -0.538403 -0.000055 -0.153950
v -0.504961 -0.001612 -0.147313
v -0.506080 0.003069 -0.152519
v -0.504211 -0.003011 -0.210797
v -0.502774 -0.008855 -0.216168
v -0.490185 0.008221 -0.153103
v -0.422937 0.046349 -0.150002
v -0.424260 0.050954 -0.155447
v -0.459088 0.032446 -0.154633
v -0.457761 0.027825 -0.149257
v -0.422391 0.044874 -0.213726
v -0.420735 0.039143 -0.218831
v -0.486650 -0.003623 -0.216714
v -0.488316 0.002141 -0.211382
v -0.455556 0.020612 -0.218096
v -0.457218 0.026365 -0.212912
v -0.149084 0.120298 -0.153855
v -0.147763 0.115698 -0.148546
v -0.084392 0.123905 -0.147471
v -0.085714 0.128526 -0.152680
v -0.083844 0.122445 -0.210960
v -0.082204 0.116746 -0.216332
v -0.145570 0.108527 -0.217394
v -0.147215 0.114218 -0.212134
v -0.332786 0.081594 -0.155709
v -0.331320 0.076493 -0.150223
v -0.269476 0.092504 -0.149934
v -0.270922 0.097535 -0.155388
v -0.269053 0.091455 -0.213667
v -0.267413 0.085780 -0.218780
v -0.329276 0.069835 -0.219070
v -0.330916 0.075514 -0.213989
v -0.208667 0.098356 -0.218263
v -0.210308 0.104036 -0.213096
v -0.212178 0.110117 -0.154816
v -0.210383 0.103881 -0.149386
v -0.377584 0.054977 -0.219071
v -0.379230 0.060673 -0.213990
v -0.381099 0.066753 -0.155710
v -0.379783 0.062172 -0.150244
v -0.080188 0.109686 0.216460
v -0.144086 0.103353 0.217372
v -0.418867 0.032631 0.218614
v -0.376475 0.051113 0.218917
v -0.266488 0.082556 0.218669
v -0.328307 0.066458 0.218935
v -0.533828 -0.018877 0.217704
v -0.527292 -0.018033 0.217711
v -0.501395 -0.014612 0.216267
v -0.422234 0.043918 0.149905
v -0.457531 0.027031 0.149227
v -0.503720 -0.006648 0.147359
v -0.499735 -0.006648 0.147497
v -0.498078 0.000616 0.147532
v -0.379377 0.060768 0.150177
v -0.210383 0.103881 0.149373
v -0.147301 0.114104 0.148519
v -0.083492 0.120781 0.147492
v -0.000388 0.120984 0.168138
v 0.000725 0.117243 0.192575
v -0.207506 0.094307 0.218171
v -0.028931 0.112204 0.215526
v -0.486150 -0.006648 0.216726
v -0.470870 -0.000599 0.217184
v -0.453161 0.012266 0.217948
v -0.470929 -0.006648 0.217039
v -0.461880 0.024616 0.149058
v -0.010186 0.113905 0.208997
v -0.486512 -0.012714 0.216729
v -0.012886 0.122953 0.152210
v -0.515099 -0.006648 0.147712
v -0.515095 -0.012714 0.147722
v -0.534700 -0.015288 0.148510
v -0.032297 0.123398 0.146419
v -0.489546 0.005998 0.150565
v -0.080188 0.109686 -0.216474
v -0.144086 0.103353 -0.217386
v -0.376476 0.051113 -0.218931
v -0.418867 0.032631 -0.218627
v -0.266488 0.082556 -0.218683
v -0.328307 0.066458 -0.218948
v -0.501395 -0.014612 -0.216280
v -0.533828 -0.018877 -0.217717
v -0.457531 0.027031 -0.149240
v -0.422234 0.043918 -0.149918
v -0.498078 0.000616 -0.147545
v -0.499735 -0.006648 -0.147511
v -0.503720 -0.006648 -0.147372
v -0.379377 0.060768 -0.150190
v -0.147301 0.114104 -0.148533
v -0.083492 0.120781 -0.147505
v -0.000388 0.120984 -0.168151
v 0.000725 0.117243 -0.192589
v -0.207506 0.094307 -0.218184
v -0.028931 0.112204 -0.215540
v -0.453161 0.012266 -0.217962
v -0.470870 -0.000599 -0.217197
v -0.470929 -0.006648 -0.217053
v -0.485782 -0.006648 -0.216752
v -0.010187 0.113905 -0.209011
v -0.486512 -0.012714 -0.216742
v -0.012886 0.122953 -0.152223
v -0.515099 -0.006648 -0.147726
v -0.515095 -0.012714 -0.147735
v -0.534700 -0.015288 -0.148523
v -0.032297 0.123398 -0.146432
v -0.489546 0.005998 -0.150579
v -0.534783 0.022219 -0.224633
v -0.534783 0.022219 0.224619
v -0.519827 0.016024 -0.224633
v -0.519827 0.016024 0.224619
v -0.513633 0.001069 -0.224633
v -0.513633 0.001069 0.224619
v -0.519827 -0.013887 -0.224633
v -0.519827 -0.013887 0.224619
v -0.534783 -0.020082 -0.224633
v -0.534783 -0.020082 0.224619
v -0.549738 -0.013887 -0.224633
v -0.549738 -0.013887 0.224619
v -0.555933 0.001069 -0.224633
v -0.555933 0.001069 0.224619
v -0.549738 0.016024 -0.224633
v -0.549738 0.016024 0.224619
v -0.534783 0.022219 -0.138636
v -0.534783 0.022219 0.138623
v -0.519827 0.016024 0.138623
v -0.519827 0.016024 -0.138636
v -0.513633 0.001069 0.138623
v -0.513633 0.001069 -0.138636
v -0.519827 -0.013887 0.138623
v -0.519827 -0.013887 -0.138636
v -0.534783 -0.020082 0.138623
v -0.534783 -0.020082 -0.138636
v -0.549738 -0.013887 0.138623
v -0.549738 -0.013887 -0.138636
v -0.555933 0.001069 0.138623
v -0.555933 0.001069 -0.138636
v -0.549738 0.016024 0.138623
v -0.549738 0.016024 -0.138636
v -0.534783 0.017510 -0.138636
v -0.523157 0.012695 -0.138636
v -0.518341 0.001069 -0.138636
v -0.523157 -0.010557 -0.138636
v -0.534783 -0.015373 -0.138636
v -0.546409 -0.010557 -0.138636
v -0.551224 0.001069 -0.138636
v -0.546409 0.012695 -0.138636
v -0.534783 0.017510 0.138623
v -0.523157 0.012695 0.138623
v -0.518341 0.001069 0.138623
v -0.523157 -0.010557 0.138623
v -0.534783 -0.015373 0.138623
v -0.546409 -0.010557 0.138623
v -0.551224 0.001069 0.138623
v -0.546409 0.012695 0.138623
vn -0.0186 0.3819 0.9240
vn -0.0379 0.3603 0.9321
vn 0.0139 0.0058 0.9999
vn 0.0162 0.0283 0.9995
vn -0.1821 0.9774 0.1078
vn -0.2274 0.9678 0.1083
vn 0.0081 -0.0322 0.9994
vn -0.1100 0.3184 0.9415
vn -0.1550 0.3156 0.9361
vn -0.0009 -0.0276 0.9996
vn 0.0125 -0.0250 0.9996
vn -0.0720 0.3333 0.9401
vn -0.0894 0.3246 0.9416
vn 0.0112 -0.0315 0.9994
vn 0.0728 0.3277 0.9420
vn 0.0836 0.4549 0.8866
vn 0.0442 0.0261 0.9987
vn -0.2254 0.3838 -0.8955
vn -0.1720 0.4076 -0.8968
vn -0.0010 0.0330 -0.9995
vn 0.0149 0.0297 -0.9994
vn -0.4064 0.9073 0.1077
vn -0.5436 0.8329 0.1043
vn -0.0869 0.3668 -0.9262
vn -0.1502 0.5520 -0.8202
vn 0.0348 -0.0032 -0.9994
vn -0.2698 0.9568 0.1085
vn -0.1344 0.4092 -0.9025
vn -0.1967 0.6964 -0.6902
vn -0.0088 0.0347 -0.9994
vn -0.0948 0.9898 0.1063
vn -0.1414 0.9841 0.1072
vn -0.0879 0.4115 -0.9072
vn -0.0730 0.4069 -0.9105
vn -0.0155 0.0003 -0.9999
vn -0.0145 0.0156 -0.9998
vn -0.0565 0.4002 -0.9147
vn -0.0181 -0.0204 -0.9996
vn 0.9314 0.2551 -0.2595
vn 0.7979 0.5436 -0.2603
vn 0.7872 0.5449 0.2888
vn 0.9048 0.2758 0.3244
vn -0.0635 0.9924 0.1056
vn 0.0135 -0.0125 0.9998
vn -0.0540 0.3468 0.9364
vn 0.1887 0.0955 0.9774
vn 0.1217 0.4044 0.9065
vn -0.1719 0.7029 -0.6902
vn -0.0256 -0.0214 0.9994
vn -0.0178 -0.0227 0.9996
vn -0.2286 0.2984 0.9267
vn -0.1766 0.2770 0.9445
vn -0.0308 -0.0043 0.9995
vn -0.4677 0.8774 0.1065
vn -0.4710 0.8757 0.1065
vn -0.0851 0.6631 -0.7437
vn -0.0379 0.3603 -0.9321
vn -0.0540 0.3468 -0.9364
vn -0.1139 0.6508 -0.7507
vn -0.4335 0.5976 -0.6744
vn 0.4829 0.4803 0.7322
vn 0.5845 0.2073 0.7845
vn -0.3172 0.9421 0.1085
vn -0.1368 0.3256 0.9356
vn -0.0339 0.0059 0.9994
vn 0.6121 0.1447 -0.7774
vn 0.4852 0.4765 -0.7332
vn -0.3102 0.9445 0.1085
vn -0.0000 0.9986 0.0519
vn 0.0408 0.7498 -0.6604
vn 0.3199 0.7969 -0.5125
vn 0.0936 0.4031 -0.9103
vn -0.0806 0.4151 -0.9062
vn -0.0752 0.3558 -0.9315
vn -0.0390 -0.0035 -0.9992
vn 0.1604 0.0158 -0.9869
vn -0.1980 0.7007 -0.6855
vn -0.1733 0.7067 -0.6859
vn 0.5503 0.8206 -0.1543
vn 0.3169 0.7580 0.5700
vn 0.0645 0.7037 0.7076
vn 0.5396 0.8045 0.2481
vn -0.1044 0.7130 -0.6934
vn 0.1012 0.6995 0.7075
vn -0.3779 0.5581 0.7387
vn -0.2733 0.5958 0.7552
vn -0.2965 0.6920 -0.6582
vn -0.3890 0.6494 -0.6535
vn -0.3485 0.5783 0.7376
vn -0.3421 0.6629 -0.6660
vn -0.3087 0.6750 -0.6701
vn -0.2293 0.6260 0.7453
vn -0.2049 0.7067 -0.6772
vn -0.1185 0.7355 -0.6671
vn -0.1464 0.7267 -0.6712
vn -0.1456 0.6389 0.7554
vn -0.1139 0.6508 0.7507
vn -0.1755 0.6282 0.7580
vn -0.0851 0.6631 0.7437
vn -0.0528 0.6769 0.7342
vn -0.0880 0.7344 -0.6730
vn -0.2094 0.6167 0.7588
vn -0.2337 0.7066 -0.6679
vn -0.0186 0.3819 -0.9240
vn 0.0162 0.0283 -0.9995
vn 0.0139 0.0058 -0.9999
vn -0.1821 0.9774 -0.1078
vn -0.2274 0.9678 -0.1083
vn -0.1550 0.3156 -0.9361
vn -0.1100 0.3184 -0.9415
vn 0.0081 -0.0322 -0.9994
vn -0.0009 -0.0276 -0.9996
vn -0.0894 0.3246 -0.9416
vn -0.0720 0.3333 -0.9401
vn 0.0125 -0.0250 -0.9996
vn 0.0112 -0.0315 -0.9994
vn 0.0462 0.0113 -0.9989
vn 0.0847 0.4496 -0.8892
vn 0.0743 0.3193 -0.9448
vn -0.1720 0.4076 0.8968
vn -0.2882 0.4625 0.8385
vn -0.2641 0.3774 0.8876
vn -0.0010 0.0330 0.9995
vn -0.4064 0.9073 -0.1077
vn -0.5436 0.8329 -0.1043
vn -0.0869 0.3668 0.9262
vn 0.0348 -0.0032 0.9994
vn -0.1502 0.5520 0.8202
vn -0.2698 0.9568 -0.1085
vn -0.1967 0.6964 0.6902
vn -0.1344 0.4092 0.9025
vn -0.0088 0.0347 0.9994
vn -0.0948 0.9898 -0.1063
vn -0.1414 0.9841 -0.1072
vn -0.0727 0.3897 0.9181
vn -0.1348 0.6690 0.7310
vn -0.0149 -0.0032 0.9999
vn -0.0181 -0.0204 0.9996
vn -0.0565 0.4002 0.9147
vn -0.3810 0.6367 0.6704
vn -0.3316 0.6461 0.6874
vn -0.3008 0.6623 0.6862
vn 0.9048 0.2758 -0.3244
vn 0.7872 0.5449 -0.2888
vn 0.7979 0.5436 0.2603
vn 0.9314 0.2551 0.2595
vn -0.0635 0.9924 -0.1056
vn 0.0135 -0.0125 -0.9998
vn 0.1217 0.4044 -0.9065
vn 0.1887 0.0955 -0.9774
vn -0.1767 0.2775 -0.9443
vn -0.2286 0.2984 -0.9267
vn -0.0178 -0.0226 -0.9996
vn -0.0256 -0.0213 -0.9994
vn -0.0305 -0.0051 -0.9995
vn -0.4710 0.8757 -0.1065
vn -0.4677 0.8774 -0.1065
vn 0.5845 0.2073 -0.7845
vn 0.4829 0.4803 -0.7322
vn -0.3172 0.9421 -0.1085
vn -0.1368 0.3256 -0.9356
vn -0.0339 0.0058 -0.9994
vn 0.4852 0.4765 0.7332
vn 0.6121 0.1447 0.7774
vn -0.3102 0.9445 -0.1085
vn -0.0000 0.9986 -0.0519
vn 0.3199 0.7969 0.5125
vn 0.0408 0.7498 0.6604
vn 0.0936 0.4031 0.9103
vn -0.0390 -0.0035 0.9992
vn -0.0752 0.3558 0.9315
vn -0.0806 0.4152 0.9062
vn 0.1604 0.0158 0.9869
vn -0.1624 0.6812 0.7138
vn -0.1634 0.6820 0.7128
vn -0.1980 0.7007 0.6855
vn 0.5503 0.8206 0.1543
vn 0.0645 0.7037 -0.7076
vn 0.3169 0.7580 -0.5700
vn 0.5396 0.8045 -0.2481
vn -0.1044 0.7130 0.6934
vn 0.1012 0.6995 -0.7075
vn -0.2733 0.5958 -0.7552
vn -0.3779 0.5581 -0.7387
vn -0.2965 0.6920 0.6582
vn -0.3485 0.5783 -0.7376
vn -0.2293 0.6260 -0.7453
vn -0.2049 0.7067 0.6772
vn -0.1190 0.7053 0.6988
vn -0.1361 0.6723 0.7276
vn -0.1456 0.6389 -0.7554
vn -0.1755 0.6282 -0.7580
vn -0.0528 0.6769 -0.7342
vn -0.0880 0.7344 0.6730
vn -0.2094 0.6167 -0.7588
vn -0.2337 0.7066 0.6679
vn -0.0000 1.0000 -0.0000
vn 0.7071 0.7071 -0.0000
vn 1.0000 -0.0000 -0.0000
vn 0.7071 -0.7071 -0.0000
vn -0.0000 -1.0000 -0.0000
vn -0.7071 -0.7071 -0.0000
vn -1.0000 -0.0000 -0.0000
vn -0.0000 -0.0000 1.0000
vn -0.7071 0.7071 -0.0000
vn -0.0000 -0.0000 -1.0000
vt 0.403591 0.698943
vt 0.403778 0.676454
vt 0.405670 0.676724
vt 0.406152 0.699452
vt 0.401131 0.653525
vt 0.380271 0.653486
vt 0.380232 0.631996
vt 0.401255 0.632042
vt 0.405752 0.590654
vt 0.404275 0.590717
vt 0.404281 0.573936
vt 0.406748 0.573575
vt 0.405270 0.632215
vt 0.404061 0.632150
vt 0.404177 0.609074
vt 0.405452 0.609087
vt 0.404760 0.539850
vt 0.404556 0.527698
vt 0.409132 0.529273
vt 0.408629 0.531510
vt 0.406707 0.540133
vt 0.377873 0.559306
vt 0.377717 0.573825
vt 0.376800 0.573689
vt 0.377576 0.559212
vt 0.401458 0.574218
vt 0.380332 0.574112
vt 0.380428 0.559861
vt 0.401540 0.560072
vt 0.377788 0.539590
vt 0.378003 0.542066
vt 0.375708 0.541002
vt 0.375966 0.539713
vt 0.380232 0.608997
vt 0.401359 0.609052
vt 0.377624 0.590638
vt 0.377472 0.609010
vt 0.377089 0.590614
vt 0.380448 0.698536
vt 0.380338 0.676146
vt 0.400989 0.676180
vt 0.400796 0.698566
vt 0.377711 0.653677
vt 0.377827 0.676416
vt 0.377245 0.676499
vt 0.377099 0.653739
vt 0.377985 0.698897
vt 0.376853 0.699119
vt 0.386676 0.729442
vt 0.386805 0.727192
vt 0.395208 0.727045
vt 0.396315 0.729500
vt 0.387210 0.724506
vt 0.382699 0.721360
vt 0.380653 0.715953
vt 0.400521 0.715923
vt 0.398551 0.721236
vt 0.394173 0.724476
vt 0.405422 0.653873
vt 0.403923 0.653721
vt 0.405874 0.717921
vt 0.403179 0.716729
vt 0.377515 0.632105
vt 0.407186 0.550688
vt 0.407293 0.558675
vt 0.404278 0.559546
vt 0.404703 0.545518
vt 0.405636 0.545213
vt 0.408872 0.549391
vt 0.380562 0.545568
vt 0.401879 0.545821
vt 0.309688 0.676336
vt 0.306902 0.676649
vt 0.306438 0.653908
vt 0.309229 0.653674
vt 0.377888 0.557287
vt 0.400640 0.723037
vt 0.402856 0.725072
vt 0.380259 0.590731
vt 0.401432 0.590799
vt 0.407376 0.544597
vt 0.379996 0.724862
vt 0.381044 0.723333
vt 0.380374 0.539492
vt 0.401830 0.539626
vt 0.380737 0.527666
vt 0.401998 0.527119
vt 0.378304 0.716775
vt 0.378029 0.527943
vt 0.376513 0.535738
vt 0.374351 0.535456
vt 0.374351 0.528342
vt 0.376988 0.717440
vt 0.379361 0.545368
vt 0.307419 0.699142
vt 0.304865 0.699689
vt 0.305013 0.676947
vt 0.308830 0.632182
vt 0.329852 0.631881
vt 0.330086 0.653357
vt 0.305204 0.574052
vt 0.305353 0.590856
vt 0.303873 0.590806
vt 0.302730 0.573709
vt 0.305638 0.609233
vt 0.306023 0.632324
vt 0.304814 0.632405
vt 0.304362 0.609259
vt 0.300163 0.529254
vt 0.304751 0.527698
vt 0.304543 0.539883
vt 0.302589 0.540168
vt 0.331763 0.573740
vt 0.331497 0.559280
vt 0.331695 0.559064
vt 0.332679 0.573596
vt 0.308032 0.574314
vt 0.307857 0.560149
vt 0.328967 0.559825
vt 0.329155 0.574048
vt 0.331522 0.539591
vt 0.333338 0.539713
vt 0.333595 0.540997
vt 0.331310 0.542057
vt 0.308458 0.609179
vt 0.329584 0.608895
vt 0.332342 0.608878
vt 0.332002 0.590529
vt 0.332536 0.590500
vt 0.310209 0.698723
vt 0.330337 0.676007
vt 0.330555 0.698392
vt 0.332852 0.676242
vt 0.333094 0.653569
vt 0.333436 0.676315
vt 0.334157 0.698923
vt 0.333022 0.698717
vt 0.328769 0.545550
vt 0.329967 0.545347
vt 0.315162 0.729591
vt 0.316230 0.727119
vt 0.324632 0.727137
vt 0.324795 0.729384
vt 0.330611 0.715809
vt 0.328648 0.721245
vt 0.324186 0.724459
vt 0.317223 0.724534
vt 0.312796 0.721362
vt 0.310745 0.716078
vt 0.304940 0.654080
vt 0.308099 0.716925
vt 0.305422 0.718158
vt 0.304613 0.545581
vt 0.305112 0.559639
vt 0.302086 0.558783
vt 0.302154 0.550777
vt 0.300496 0.549488
vt 0.303617 0.545386
vt 0.307450 0.545875
vt 0.308551 0.725264
vt 0.310735 0.723195
vt 0.308200 0.590912
vt 0.329371 0.590646
vt 0.301906 0.544649
vt 0.330332 0.723192
vt 0.331403 0.724705
vt 0.307484 0.539655
vt 0.328943 0.539496
vt 0.307315 0.527119
vt 0.328578 0.527695
vt 0.332972 0.716595
vt 0.331280 0.527972
vt 0.334950 0.528370
vt 0.334950 0.535467
vt 0.332793 0.535749
vt 0.334298 0.717240
vt 0.332569 0.631957
vt 0.393807 0.903543
vt 0.393987 0.929416
vt 0.389111 0.929479
vt 0.389033 0.903545
vt 0.384217 0.929542
vt 0.384243 0.903528
vt 0.379298 0.929600
vt 0.379404 0.903482
vt 0.374351 0.929652
vt 0.374389 0.903387
vt 0.413083 0.903273
vt 0.413450 0.929153
vt 0.408578 0.929223
vt 0.408120 0.903406
vt 0.403714 0.929288
vt 0.403324 0.903478
vt 0.964381 0.778126
vt 0.964381 0.783717
vt 0.960427 0.787671
vt 0.954836 0.787671
vt 0.950882 0.783717
vt 0.950882 0.778126
vt 0.954836 0.774172
vt 0.960427 0.774172
vt 0.398852 0.929353
vt 0.398565 0.903525
vt 0.964381 0.725227
vt 0.964381 0.730819
vt 0.960427 0.734772
vt 0.954836 0.734772
vt 0.950882 0.730819
vt 0.950882 0.725227
vt 0.954836 0.721274
vt 0.960427 0.721274
vt 0.398699 0.769058
vt 0.398773 0.794979
vt 0.394010 0.794991
vt 0.393824 0.769117
vt 0.398551 0.902081
vt 0.393778 0.902097
vt 0.403591 0.769001
vt 0.403547 0.795000
vt 0.403312 0.902037
vt 0.408507 0.768947
vt 0.408371 0.795045
vt 0.408031 0.901976
vt 0.413451 0.768900
vt 0.413385 0.795150
vt 0.412604 0.901885
vt 0.379226 0.769295
vt 0.379654 0.795133
vt 0.374689 0.795257
vt 0.374351 0.769359
vt 0.379514 0.902034
vt 0.374908 0.901950
vt 0.384094 0.769234
vt 0.384466 0.795062
vt 0.384245 0.902079
vt 0.388958 0.769175
vt 0.389241 0.795017
vt 0.389009 0.902097
vt 0.393992 0.796436
vt 0.389228 0.796461
vt 0.384477 0.796502
vt 0.379768 0.796564
vt 0.375187 0.796651
vt 0.412883 0.796583
vt 0.408285 0.796493
vt 0.403545 0.796449
vt 0.398770 0.796427
s 1
usemtl Material_SmokeboxDoor
f 37/1/1 38/2/2 112/3/3 111/4/4
f 49/5/5 50/6/5 43/7/6 44/8/6
f 114/9/7 52/10/8 27/11/9 113/12/10
f 115/13/11 45/14/12 46/15/13 116/16/14
f 20/17/15 14/18/16 117/19/17 118/20/17 119/21/17
f 25/22/18 22/23/19 120/24/20 121/25/21
f 26/26/22 23/27/22 24/28/23 31/29/23
f 17/30/24 124/31/25 123/32/26 122/33/26
f 46/15/13 52/10/8 114/9/7 116/16/14
f 44/8/6 43/7/6 40/34/27 47/35/27
f 55/36/28 41/37/29 125/38/30
f 35/39/31 32/40/32 39/41/32 36/42/31
f 51/43/33 33/44/34 127/45/35 126/46/36
f 33/44/34 34/47/37 128/48/38 127/45/35
f 129/49/39 3/50/40 12/51/41 130/52/42
f 4/53/43 6/54/43 1/55/43 35/39/31 36/42/31 8/56/43 9/57/43 11/58/43
f 131/59/44 48/60/45 45/14/12 115/13/11
f 132/61/46 7/62/47 37/1/1 111/4/4
f 42/63/48 51/43/33 126/46/36
f 134/64/49 135/65/50 30/66/51 28/67/52 133/68/53 136/69/49
f 31/29/23 24/28/23 21/70/54 29/71/55
f 113/12/10 27/11/9 30/66/51 135/65/50
f 94/72/56 93/73/57 103/74/58 104/75/59
f 121/25/21 137/76/60 25/22/18
f 22/23/19 55/36/28 125/38/30 120/24/20
f 12/51/41 10/77/61 138/78/62 130/52/42
f 54/79/63 53/80/63 47/35/27 40/34/27
f 28/67/52 20/17/64 119/21/65 139/81/65 133/68/53
f 140/82/66 5/83/67 3/50/40 129/49/39
f 29/71/55 21/70/54 18/84/68 19/85/68
f 112/3/3 38/2/2 48/60/45 131/59/44
f 10/77/61 7/62/47 132/61/46 138/78/62
f 19/85/69 18/84/69 16/86/69 13/87/69
f 1/55/70 6/54/71 5/83/67 2/88/72
f 15/89/73 17/30/74 122/33/75 141/90/75 142/91/75 143/92/75
f 34/47/37 2/88/72 144/93/76 128/48/38
f 50/6/5 49/5/5 39/41/32 32/40/32
f 41/37/29 40/34/77 43/7/78 42/63/48
f 6/54/71 4/53/79 3/50/40 5/83/67
f 10/77/61 9/57/80 8/56/81 7/62/47
f 4/53/79 11/58/82 12/51/41 3/50/40
f 12/51/41 11/58/82 9/57/80 10/77/61
f 2/88/72 5/83/67 140/82/66 144/93/76
f 18/84/83 17/30/74 15/89/73 16/86/83
f 13/87/84 14/18/16 20/17/15 19/85/84
f 31/29/85 30/66/51 27/11/9 26/26/86
f 23/27/87 22/23/19 25/22/18 24/28/88
f 29/71/89 28/67/52 30/66/51 31/29/85
f 21/70/90 24/28/88 25/22/18 137/76/60 145/94/91
f 19/85/92 20/17/64 28/67/52 29/71/89
f 124/31/25 17/30/24 18/84/93 21/70/90 145/94/91
f 32/40/94 33/44/34 51/43/33 50/6/95
f 44/8/96 45/14/12 48/60/45 49/5/97
f 51/43/33 42/63/48 43/7/78 50/6/95
f 47/35/98 46/15/13 45/14/12 44/8/96
f 39/41/99 38/2/2 37/1/1 36/42/100
f 34/47/37 33/44/34 32/40/94 35/39/101
f 52/10/8 46/15/13 47/35/98 53/80/102
f 40/34/77 41/37/29 55/36/28 54/79/103
f 26/26/86 27/11/9 52/10/8 53/80/102
f 55/36/28 22/23/19 23/27/87 54/79/103
f 54/79/63 23/27/22 26/26/22 53/80/63
f 2/88/72 34/47/37 35/39/101 1/55/70
f 36/42/100 37/1/1 7/62/47 8/56/81
f 93/73/57 92/95/104 146/96/105 147/97/106
f 104/75/107 99/98/108 98/99/108 105/100/107
f 82/101/109 107/102/110 148/103/111 149/104/112
f 101/105/113 100/106/114 150/107/115 151/108/116
f 153/109/117 69/110/118 75/111/119 152/112/117
f 77/113/120 80/114/121 154/115/122 155/116/123
f 81/117/124 86/118/125 79/119/125 78/120/124
f 72/121/126 158/122/127 157/123/127 156/124/128
f 148/103/111 107/102/110 101/105/113 151/108/116
f 99/98/108 102/125/129 95/126/129 98/99/108
f 96/127/130 110/128/131 159/129/132
f 91/130/133 94/72/134 87/131/134 90/132/133
f 88/133/135 106/134/136 160/135/137
f 161/136/138 89/137/139 88/133/135 160/135/137
f 80/114/121 79/119/140 76/138/141 177/139/142 154/115/122
f 163/140/143 67/141/144 58/142/145 162/143/146
f 56/144/147 61/145/147 59/146/147 66/147/147 64/148/147 63/149/147 91/130/133 90/132/133
f 100/106/114 103/74/58 164/150/148 150/107/115
f 92/95/104 62/151/149 165/152/150 146/96/105
f 83/153/151 85/154/152 166/155/153 167/156/154 168/157/154 169/158/155
f 86/118/125 84/159/156 76/138/157 79/119/125
f 85/154/152 82/101/109 149/104/112 166/155/153
f 110/128/131 77/113/120 155/116/123 159/129/132
f 170/160/158 65/161/159 67/141/144 163/140/143
f 108/162/160 109/163/160 95/126/129 102/125/129
f 75/111/161 83/153/151 169/158/155 171/164/162 152/112/162
f 162/143/146 58/142/145 60/165/163 172/166/164
f 84/159/156 74/167/165 73/168/165 76/138/157
f 103/74/58 93/73/57 147/97/106 164/150/148
f 62/151/149 65/161/159 170/160/158 165/152/150
f 74/167/166 68/169/166 71/170/166 73/168/166
f 60/165/163 61/145/167 56/144/168 57/171/169
f 158/122/170 72/121/171 70/172/172 175/173/170 174/174/170 173/175/170
f 176/176/173 57/171/169 89/137/139 161/136/138
f 104/75/107 105/100/107 87/131/134 94/72/134
f 97/177/174 98/99/175 95/126/176 96/127/130
f 58/142/145 59/146/177 61/145/167 60/165/163
f 63/149/178 64/148/179 65/161/159 62/151/149
f 66/147/180 59/146/177 58/142/145 67/141/144
f 64/148/179 66/147/180 67/141/144 65/161/159
f 60/165/163 57/171/169 176/176/173 172/166/164
f 71/170/181 70/172/172 72/121/171 73/168/181
f 74/167/182 75/111/119 69/110/118 68/169/182
f 81/117/183 82/101/109 85/154/152 86/118/184
f 79/119/140 80/114/121 77/113/120 78/120/185
f 86/118/184 85/154/152 83/153/151 84/159/186
f 84/159/186 83/153/151 75/111/161 74/167/187
f 76/138/141 73/168/188 72/121/126 156/124/128 177/139/142
f 106/134/136 88/133/135 87/131/189 105/100/190
f 103/74/58 100/106/114 99/98/191 104/75/59
f 98/99/175 97/177/174 106/134/136 105/100/190
f 100/106/114 101/105/113 102/125/192 99/98/191
f 92/95/104 93/73/57 94/72/56 91/130/193
f 87/131/189 88/133/135 89/137/139 90/132/194
f 102/125/192 101/105/113 107/102/110 108/162/195
f 110/128/131 96/127/130 95/126/176 109/163/196
f 107/102/110 82/101/109 81/117/183 108/162/195
f 78/120/185 77/113/120 110/128/131 109/163/196
f 108/162/160 81/117/124 78/120/124 109/163/160
f 90/132/194 89/137/139 57/171/169 56/144/168
f 62/151/149 92/95/104 91/130/193 63/149/178
f 48/60/45 38/2/2 39/41/99 49/5/97
f 195/178/197 179/179/197 181/180/198 196/181/198
f 196/181/198 181/180/198 183/182/199 198/183/199
f 198/183/199 183/182/199 185/184/200 200/185/200
f 200/185/200 185/184/200 187/186/201 202/187/201
f 202/188/201 187/189/201 189/190/202 204/191/202
f 204/191/202 189/190/202 191/192/203 206/193/203
f 181/194/204 179/195/204 193/196/204 191/197/204 189/198/204 187/199/204 185/200/204 183/201/204
f 206/193/203 191/192/203 193/202/205 208/203/205
f 208/203/205 193/202/205 179/179/197 195/178/197
f 178/204/206 180/205/206 182/206/206 184/207/206 186/208/206 188/209/206 190/210/206 192/211/206
f 192/212/205 209/213/205 194/214/197 178/215/197
f 225/216/206 208/203/206 195/178/206 218/217/206
f 190/218/203 207/219/203 209/213/205 192/212/205
f 224/220/206 206/193/206 208/203/206 225/216/206
f 188/221/202 205/222/202 207/219/203 190/218/203
f 223/223/206 204/191/206 206/193/206 224/220/206
f 186/224/201 203/225/201 205/222/202 188/221/202
f 222/226/206 202/188/206 204/191/206 223/223/206
f 184/227/200 201/228/200 203/229/201 186/230/201
f 221/231/206 200/185/206 202/187/206 222/232/206
f 182/233/199 199/234/199 201/228/200 184/227/200
f 220/235/206 198/183/206 200/185/206 221/231/206
f 180/236/198 197/237/198 199/234/199 182/233/199
f 219/238/206 196/181/206 198/183/206 220/235/206
f 178/215/197 194/214/197 197/237/198 180/236/198
f 218/217/206 195/178/206 196/181/206 219/238/206
f 194/214/204 210/239/204 211/240/204 197/237/204
f 197/237/204 211/240/204 212/241/204 199/234/204
f 199/234/204 212/241/204 213/242/204 201/228/204
f 201/228/204 213/242/204 214/243/204 203/229/204
f 203/225/204 214/244/204 215/245/204 205/222/204
f 205/222/204 215/245/204 216/246/204 207/219/204
f 207/219/204 216/246/204 217/247/204 209/213/204
f 209/213/204 217/247/204 210/239/204 194/214/204
f 210/239/197 218/217/197 219/238/198 211/240/198
f 211/240/198 219/238/198 220/235/199 212/241/199
f 212/241/199 220/235/199 221/231/200 213/242/200
f 213/242/200 221/231/200 222/232/201 214/243/201
f 214/244/201 222/226/201 223/223/202 215/245/202
f 215/245/202 223/223/202 224/220/203 216/246/203
f 216/246/203 224/220/203 225/216/205 217/247/205
f 217/247/205 225/216/205 218/217/197 210/239/197
