# Blender 4.1.1
# www.blender.org
mtllib 1.25m_Smokebox_Dart.mtl
o SmokeboxDart
v 0.015384 0.132494 -0.057459
v -0.000010 0.132494 -0.059485
v 0.029729 0.132494 -0.051517
v 0.042048 0.132494 -0.042064
v 0.051500 0.132494 -0.029746
v 0.057442 0.132494 -0.015401
v 0.059469 0.132494 -0.000007
v 0.057442 0.132494 0.015387
v 0.051500 0.132494 0.029733
v 0.042048 0.132494 0.042051
v 0.029729 0.132494 0.051503
v 0.015384 0.132494 0.057445
v -0.000010 0.132494 0.059472
v -0.015404 0.132494 0.057445
v -0.029749 0.132494 0.051503
v -0.042068 0.132494 0.042051
v -0.051520 0.132494 0.029733
v -0.057462 0.132494 0.015387
v -0.059489 0.132494 -0.000007
v -0.057462 0.132494 -0.015401
v -0.051520 0.132494 -0.029746
v -0.042068 0.132494 -0.042064
v -0.029749 0.132494 -0.051517
v -0.015404 0.132494 -0.057459
v 0.015384 0.139249 -0.057459
v -0.000010 0.139249 -0.059485
v 0.029729 0.139249 -0.051517
v 0.042048 0.139249 -0.042064
v 0.051500 0.139249 -0.029746
v 0.057442 0.139249 -0.015401
v 0.059469 0.139249 -0.000007
v 0.057442 0.139249 0.015387
v 0.051500 0.139249 0.029733
v 0.042048 0.139249 0.042051
v 0.029729 0.139249 0.051503
v 0.015384 0.139249 0.057445
v -0.000010 0.139249 0.059472
v -0.015404 0.139249 0.057445
v -0.029749 0.139249 0.051503
v -0.042068 0.139249 0.042051
v -0.051520 0.139249 0.029733
v -0.057462 0.139249 0.015387
v -0.059489 0.139249 -0.000007
v -0.057462 0.139249 -0.015401
v -0.051520 0.139249 -0.029746
v -0.042068 0.139249 -0.042064
v -0.029749 0.139249 -0.051517
v -0.015404 0.139249 -0.057459
v 0.004400 0.139249 -0.016466
v -0.000010 0.139249 -0.017047
v 0.008510 0.139249 -0.014764
v 0.012039 0.139249 -0.012056
v 0.014747 0.139249 -0.008527
v 0.016449 0.139249 -0.004417
v 0.017030 0.139249 -0.000007
v 0.016449 0.139249 0.004404
v 0.014747 0.139249 0.008513
v 0.012039 0.139249 0.012042
v 0.008510 0.139249 0.014750
v 0.004400 0.139249 0.016453
v -0.000010 0.139249 0.017033
v -0.004420 0.139249 0.016453
v -0.008530 0.139249 0.014750
v -0.012059 0.139249 0.012042
v -0.014767 0.139249 0.008513
v -0.016469 0.139249 0.004404
v -0.017050 0.139249 -0.000007
v -0.016469 0.139249 -0.004417
v -0.014767 0.139249 -0.008527
v -0.012059 0.139249 -0.012056
v -0.008530 0.139249 -0.014764
v -0.004420 0.139249 -0.016466
v 0.004400 0.212499 -0.016466
v -0.000010 0.212499 -0.017047
v 0.008510 0.212499 -0.014764
v 0.012039 0.212499 -0.012056
v 0.014747 0.212499 -0.008527
v 0.016449 0.212499 -0.004417
v 0.017030 0.212499 -0.000007
v 0.016449 0.212499 0.004404
v 0.014747 0.212499 0.008513
v 0.012039 0.212499 0.012042
v 0.008510 0.212499 0.014750
v 0.004400 0.212499 0.016453
v -0.000010 0.212499 0.017033
v -0.004420 0.212499 0.016453
v -0.008530 0.212499 0.014750
v -0.012059 0.212499 0.012042
v -0.014767 0.212499 0.008513
v -0.016469 0.212499 0.004404
v -0.017050 0.212499 -0.000007
v -0.016469 0.212499 -0.004417
v -0.014767 0.212499 -0.008527
v -0.012059 0.212499 -0.012056
v -0.008530 0.212499 -0.014764
v -0.004420 0.212499 -0.016466
v 0.003241 0.220347 -0.012141
v -0.000010 0.220347 -0.012569
v 0.006271 0.220347 -0.010886
v 0.008873 0.220347 -0.008889
v 0.010869 0.220347 -0.006288
v 0.012124 0.220347 -0.003258
v 0.012552 0.220347 -0.000007
v 0.012124 0.220347 0.003245
v 0.010869 0.220347 0.006274
v 0.008873 0.220347 0.008876
v 0.006271 0.220347 0.010872
v 0.003241 0.220347 0.012127
v -0.000010 0.220347 0.012555
v -0.003261 0.220347 0.012127
v -0.006291 0.220347 0.010872
v -0.008893 0.220347 0.008876
v -0.010889 0.220347 0.006274
v -0.012144 0.220347 0.003245
v -0.012572 0.220347 -0.000007
v -0.012144 0.220347 -0.003258
v -0.010889 0.220347 -0.006288
v -0.008893 0.220347 -0.008889
v -0.006291 0.220347 -0.010886
v -0.003261 0.220347 -0.012141
v -0.000010 0.145283 -0.026111
v -0.000010 0.208787 -0.026111
v 0.013042 0.145283 -0.022614
v 0.013042 0.208787 -0.022614
v 0.022597 0.145283 -0.013059
v 0.022597 0.208787 -0.013059
v 0.026094 0.145283 -0.000007
v 0.026094 0.208787 -0.000007
v 0.022597 0.145283 0.013046
v -0.172167 0.184610 -0.172164
v -0.168589 0.178288 -0.168586
v 0.022597 0.208787 0.013046
v 0.013042 0.145283 0.022600
v -0.169029 0.186449 -0.175303
v 0.013042 0.208787 0.022600
v -0.162290 0.181978 -0.174886
v -0.167729 0.190887 -0.176603
v -0.000010 0.145283 0.026098
v -0.000010 0.208787 0.026098
v -0.159681 0.190887 -0.177495
v -0.013062 0.145283 0.022600
v -0.169029 0.195326 -0.175303
v -0.013062 0.208787 0.022600
v -0.162290 0.199796 -0.174886
v -0.022617 0.145283 0.013046
v -0.172167 0.197164 -0.172164
v -0.022617 0.208787 0.013046
v -0.168589 0.203486 -0.168586
v -0.175306 0.195326 -0.169026
v -0.026115 0.145283 -0.000007
v -0.174889 0.199796 -0.162287
v -0.026115 0.208787 -0.000007
v -0.176606 0.190887 -0.167726
v -0.022617 0.145283 -0.013059
v -0.022617 0.208787 -0.013059
v -0.177498 0.190887 -0.159677
v -0.013062 0.145283 -0.022614
v -0.175306 0.186449 -0.169026
v -0.013062 0.208787 -0.022614
v -0.174889 0.181978 -0.162287
v -0.000010 0.177035 -0.026111
v -0.165606 0.177532 -0.165603
v 0.013042 0.177035 -0.022614
v -0.158929 0.181444 -0.172280
v -0.172284 0.181444 -0.158925
v 0.022597 0.177035 -0.013059
v 0.026094 0.177035 -0.000007
v -0.156163 0.190887 -0.175046
v -0.158929 0.200330 -0.172280
v 0.022597 0.177035 0.013046
v -0.165606 0.204242 -0.165603
v 0.013042 0.177035 0.022600
v -0.172284 0.200330 -0.158925
v -0.000010 0.177035 0.026098
v -0.013062 0.177035 0.022600
v -0.175050 0.190887 -0.156160
v -0.022617 0.177035 0.013046
v -0.026115 0.177035 -0.000007
v -0.022617 0.172501 -0.013059
v -0.013062 0.177035 -0.022614
v -0.000010 0.154608 -0.243474
v -0.000010 0.148286 -0.238414
v 0.004428 0.156446 -0.243474
v 0.008899 0.151976 -0.238414
v 0.006267 0.160885 -0.243474
v 0.012589 0.160885 -0.238414
v 0.004428 0.165323 -0.243474
v 0.008899 0.169794 -0.238414
v -0.000010 0.167162 -0.243474
v -0.000010 0.173484 -0.238414
v -0.004448 0.165323 -0.243474
v -0.008919 0.169794 -0.238414
v -0.006287 0.160885 -0.243474
v -0.012609 0.160885 -0.238414
v -0.004448 0.156446 -0.243474
v -0.008919 0.151976 -0.238414
v -0.000010 0.147530 -0.234195
v 0.009433 0.151442 -0.234195
v -0.009453 0.151442 -0.234195
v 0.013345 0.160885 -0.234195
v 0.009433 0.170328 -0.234195
v -0.000010 0.174240 -0.234195
v -0.009453 0.170328 -0.234195
v -0.013365 0.160885 -0.234195
v -0.025972 0.182198 -0.015273
v -0.027241 0.190907 -0.010538
v -0.025972 0.199617 -0.015273
v -0.020954 0.202756 -0.020950
v -0.020954 0.179059 -0.020950
v -0.015277 0.182198 -0.025968
v -0.015277 0.199617 -0.025968
v -0.010542 0.190907 -0.027237
v -0.011827 0.160885 -0.026826
v -0.008375 0.169250 -0.027751
v -0.008375 0.152520 -0.027751
v -0.000010 0.149024 -0.029992
v -0.000010 0.172746 -0.029992
v 0.008355 0.169250 -0.027751
v 0.008355 0.152520 -0.027751
v 0.011807 0.160885 -0.026826
v 0.013042 0.160858 -0.022614
v -0.013062 0.161104 -0.022614
v -0.000010 0.190774 -0.026111
v -0.026115 0.191023 -0.000007
v -0.017792 0.173796 -0.017884
v -0.000010 0.148277 -0.040482
v 0.008894 0.169789 -0.039361
v -0.000010 0.173493 -0.040482
v 0.008894 0.151981 -0.039361
v 0.012576 0.160885 -0.038899
v -0.008914 0.151981 -0.039361
v -0.008914 0.169789 -0.039361
v -0.012596 0.160885 -0.038899
v -0.025478 0.202847 -0.025474
v -0.030598 0.199660 -0.019736
v -0.031958 0.190906 -0.015122
v -0.019740 0.199660 -0.030594
v -0.015125 0.190906 -0.031955
v -0.019740 0.182152 -0.030594
v -0.025478 0.178965 -0.025474
v -0.030598 0.182152 -0.019736
vn 0.9659 -0.0000 -0.2588
vn 0.8660 -0.0000 -0.5000
vn -0.0000 1.0000 -0.0000
vn -0.8660 -0.0000 -0.5000
vn -0.9659 -0.0000 -0.2588
vn -0.2588 -0.0000 0.9659
vn -0.0000 -0.0000 1.0000
vn 1.0000 -0.0000 -0.0000
vn -0.7071 -0.0000 -0.7071
vn -0.5000 -0.0000 0.8660
vn 0.9659 -0.0000 0.2588
vn -0.5000 -0.0000 -0.8660
vn -0.7071 -0.0000 0.7071
vn 0.8660 -0.0000 0.5000
vn -0.2588 -0.0000 -0.9659
vn 0.2588 -0.0000 -0.9659
vn -0.0000 -0.0000 -1.0000
vn -0.8660 -0.0000 0.5000
vn 0.7071 -0.0000 0.7071
vn 0.5000 -0.0000 -0.8660
vn -0.9659 -0.0000 0.2588
vn 0.5000 -0.0000 0.8660
vn 0.7071 -0.0000 -0.7071
vn -1.0000 -0.0000 -0.0000
vn 0.2588 -0.0000 0.9659
vn 0.6142 0.4956 0.6142
vn 0.7522 0.4956 0.4343
vn -0.0000 0.4956 -0.8686
vn -0.2248 0.4956 -0.8390
vn 0.4343 0.4956 -0.7522
vn 0.2248 0.4956 -0.8390
vn -0.8390 0.4956 0.2248
vn -0.7522 0.4956 0.4343
vn 0.4343 0.4956 0.7522
vn 0.6142 0.4956 -0.6142
vn -0.8686 0.4956 -0.0000
vn 0.2248 0.4956 0.8390
vn 0.7522 0.4956 -0.4343
vn -0.8390 0.4956 -0.2248
vn -0.0000 0.4956 0.8686
vn 0.8390 0.4956 -0.2248
vn -0.7522 0.4956 -0.4343
vn -0.2248 0.4956 0.8390
vn 0.8686 0.4956 -0.0000
vn -0.6142 0.4956 -0.6142
vn -0.4343 0.4956 0.7522
vn 0.8390 0.4956 0.2248
vn -0.4343 0.4956 -0.7522
vn -0.6142 0.4956 0.6142
vn 0.0517 0.3428 -0.9380
vn 0.1449 -0.0002 -0.9894
vn 0.0826 0.0734 -0.9939
vn 0.5659 0.0748 -0.8210
vn -0.9940 0.0663 0.0872
vn -0.9911 0.0238 0.1313
vn -0.9961 -0.0520 0.0706
vn -0.8744 -0.1969 -0.4435
vn -0.8141 -0.5608 0.1510
vn -0.8868 0.3312 -0.3222
vn -0.3903 0.8339 -0.3902
vn -0.8346 0.5254 0.1656
vn -0.4466 -0.3109 -0.8390
vn -0.6491 -0.2885 -0.7038
vn -0.3064 -0.8650 -0.3973
vn 0.1839 -0.6125 -0.7688
vn -0.3883 0.4496 -0.8044
vn 0.1554 0.5368 -0.8293
vn -0.0000 -1.0000 -0.0000
vn -0.7828 0.0315 -0.6214
vn -0.6265 -0.1632 -0.7622
vn 0.6072 -0.1397 -0.7821
vn 0.8052 -0.0004 -0.5930
vn -0.0000 0.9051 -0.4252
vn -0.5531 -0.7095 0.4365
vn -0.7766 -0.6216 0.1025
vn -0.3371 -0.8791 -0.3371
vn -0.0587 -0.9965 -0.0587
vn 0.6461 -0.0000 -0.7632
vn 0.2846 -0.0000 -0.9587
vn 0.1025 0.6216 -0.7766
vn 0.4365 0.7095 -0.5532
vn -0.3371 0.8791 -0.3371
vn -0.0588 0.9965 -0.0588
vn -0.7766 0.6216 0.1025
vn -0.5532 0.7095 0.4365
vn -0.9587 -0.0000 0.2846
vn -0.7632 -0.0000 0.6461
vn 0.1025 -0.6216 -0.7766
vn 0.4365 -0.7095 -0.5531
vn -0.6479 -0.4004 -0.6479
vn -0.4477 -0.2831 -0.8482
vn -0.3648 -0.0000 -0.9311
vn -0.4477 0.2831 -0.8482
vn -0.6479 0.4004 -0.6479
vn -0.8482 0.2831 -0.4477
vn -0.9311 -0.0000 -0.3648
vn -0.8482 -0.2831 -0.4477
vn 0.4975 -0.7219 -0.4811
vn 0.7169 -0.0000 -0.6972
vn 0.3551 0.0017 -0.9348
vn 0.0076 -0.9999 0.0076
vn -0.6972 -0.0000 0.7169
vn -0.4811 -0.7219 0.4975
vn -0.9436 0.0458 0.3280
vn -0.4812 0.7218 0.4974
vn 0.0074 0.9999 0.0074
vn 0.4974 0.7218 -0.4812
vn -0.7047 -0.7044 -0.0847
vn -0.6216 -0.6216 -0.4767
vn -0.0000 -0.8791 -0.4767
vn -0.0000 -0.9964 -0.0847
vn 0.9964 -0.0000 -0.0847
vn 0.8791 -0.0000 -0.4767
vn 0.6216 0.6216 -0.4767
vn 0.7047 0.7044 -0.0847
vn -0.0000 0.8791 -0.4767
vn -0.0000 0.9964 -0.0847
vn -0.6216 0.6216 -0.4767
vn -0.7047 0.7044 -0.0847
vn -0.8791 -0.0000 -0.4767
vn -0.9964 -0.0000 -0.0847
vn 0.6216 -0.6216 -0.4767
vn 0.7047 -0.7044 -0.0847
vn -0.0000 -0.4004 -0.9163
vn 0.2831 -0.2831 -0.9163
vn 0.4004 -0.0000 -0.9163
vn 0.2831 0.2831 -0.9163
vn -0.0000 0.4004 -0.9163
vn -0.2831 0.2831 -0.9163
vn -0.4004 -0.0000 -0.9163
vn -0.2831 -0.2831 -0.9163
vn 0.7045 -0.7088 0.0356
vn 0.9994 -0.0000 0.0350
vn 0.7304 -0.5208 -0.4419
vn -0.0000 -0.9494 -0.3142
vn -0.0000 -0.9994 0.0333
vn -0.9994 -0.0000 0.0350
vn -0.7045 -0.7088 0.0356
vn -0.7052 0.7082 0.0349
vn -0.0000 0.9994 0.0332
vn -0.7591 0.4627 -0.4579
vn 0.7052 0.7082 0.0349
vn 0.7594 0.4623 -0.4577
vn 0.9919 0.0009 -0.1268
vn -0.9707 0.0701 -0.2300
vn -0.0000 -0.6101 -0.7923
vn -0.7328 -0.5279 -0.4293
vt 0.569022 0.942684
vt 0.570507 0.948288
vt 0.568173 0.948595
vt 0.566830 0.943590
vt 0.550913 0.931739
vt 0.555926 0.932978
vt 0.550696 0.946107
vt 0.549260 0.945744
vt 0.540330 0.971954
vt 0.535241 0.969176
vt 0.536643 0.967263
vt 0.541185 0.969760
vt 0.530923 0.938111
vt 0.534950 0.934015
vt 0.536392 0.935855
vt 0.532789 0.939522
vt 0.566121 0.937594
vt 0.564215 0.939088
vt 0.545937 0.973330
vt 0.546199 0.970998
vt 0.528075 0.943106
vt 0.530243 0.943992
vt 0.561868 0.933562
vt 0.560466 0.935475
vt 0.551695 0.973223
vt 0.551350 0.970907
vt 0.526600 0.948673
vt 0.528927 0.948974
vt 0.556781 0.930785
vt 0.557223 0.971648
vt 0.556299 0.969500
vt 0.566187 0.964619
vt 0.562162 0.968716
vt 0.560719 0.966877
vt 0.564321 0.963209
vt 0.526600 0.954447
vt 0.528934 0.954140
vt 0.551175 0.929408
vt 0.569032 0.959625
vt 0.566865 0.958739
vt 0.528085 0.960052
vt 0.530277 0.959146
vt 0.545419 0.929512
vt 0.545762 0.931828
vt 0.570507 0.954060
vt 0.568180 0.953758
vt 0.530989 0.965143
vt 0.532895 0.963648
vt 0.539890 0.931085
vt 0.540814 0.933233
vt 0.609907 0.959280
vt 0.609907 0.957786
vt 0.634502 0.957786
vt 0.634502 0.959280
vt 0.550759 0.956568
vt 0.552038 0.955811
vt 0.553079 0.954751
vt 0.553812 0.953459
vt 0.542937 0.952190
vt 0.543329 0.953610
vt 0.547779 0.945763
vt 0.554186 0.952023
vt 0.544078 0.954878
vt 0.546349 0.946166
vt 0.554175 0.950542
vt 0.545130 0.955908
vt 0.545071 0.946923
vt 0.553781 0.949118
vt 0.546415 0.956627
vt 0.544030 0.947984
vt 0.553031 0.947851
vt 0.547848 0.956990
vt 0.543298 0.949278
vt 0.551980 0.946826
vt 0.549329 0.956971
vt 0.542926 0.950712
vt 0.958391 0.668103
vt 0.960174 0.668442
vt 0.959090 0.671469
vt 0.958131 0.671273
vt 0.609907 0.948825
vt 0.609907 0.947331
vt 0.634502 0.947331
vt 0.634502 0.948825
vt 0.609907 0.938369
vt 0.609907 0.936876
vt 0.634502 0.936876
vt 0.634502 0.938369
vt 0.609907 0.960774
vt 0.634502 0.960774
vt 0.609907 0.950318
vt 0.634502 0.950318
vt 0.609907 0.939863
vt 0.634502 0.939863
vt 0.609907 0.962267
vt 0.634502 0.962267
vt 0.609907 0.951812
vt 0.634502 0.951812
vt 0.609907 0.941357
vt 0.634502 0.941357
vt 0.609907 0.963761
vt 0.634502 0.963761
vt 0.609907 0.930901
vt 0.609907 0.929408
vt 0.634502 0.929408
vt 0.634502 0.930901
vt 0.609907 0.953306
vt 0.634502 0.953306
vt 0.609907 0.942850
vt 0.634502 0.942850
vt 0.609907 0.965254
vt 0.634502 0.965254
vt 0.609907 0.932395
vt 0.634502 0.932395
vt 0.609907 0.954799
vt 0.634502 0.954799
vt 0.609907 0.944344
vt 0.634502 0.944344
vt 0.609907 0.933889
vt 0.634502 0.933888
vt 0.609907 0.956293
vt 0.634502 0.956293
vt 0.609907 0.945837
vt 0.634502 0.945837
vt 0.609907 0.935382
vt 0.634502 0.935382
vt 0.960782 0.677130
vt 0.960114 0.677841
vt 0.959290 0.678363
vt 0.958362 0.678663
vt 0.957385 0.678708
vt 0.956428 0.678504
vt 0.955564 0.678041
vt 0.954847 0.677381
vt 0.954340 0.676550
vt 0.954056 0.675615
vt 0.954045 0.674641
vt 0.954266 0.673693
vt 0.954729 0.672837
vt 0.955394 0.672122
vt 0.956217 0.671595
vt 0.957150 0.671307
vt 0.959963 0.671907
vt 0.960675 0.672577
vt 0.961195 0.673405
vt 0.961452 0.674346
vt 0.961474 0.675323
vt 0.961247 0.676275
vt 0.962087 0.680285
vt 0.960584 0.681228
vt 0.964177 0.677441
vt 0.963310 0.678998
vt 0.951355 0.677856
vt 0.950882 0.676084
vt 0.956599 0.668199
vt 0.964630 0.675704
vt 0.952261 0.679496
vt 0.954901 0.668736
vt 0.964630 0.673889
vt 0.953689 0.680709
vt 0.953405 0.669690
vt 0.964184 0.672102
vt 0.955331 0.681525
vt 0.952192 0.670984
vt 0.963252 0.670470
vt 0.957104 0.681874
vt 0.951337 0.672543
vt 0.961836 0.669233
vt 0.958890 0.681770
vt 0.950896 0.674277
vt 0.459194 0.720609
vt 0.454581 0.720609
vt 0.448532 0.720609
vt 0.448532 0.716071
vt 0.459194 0.716071
vt 0.448533 0.711534
vt 0.459194 0.711534
vt 0.448533 0.706997
vt 0.459194 0.706997
vt 0.448533 0.702460
vt 0.459194 0.702460
vt 0.448533 0.697923
vt 0.459194 0.697923
vt 0.448533 0.693386
vt 0.459194 0.693386
vt 0.448533 0.688849
vt 0.459194 0.688849
vt 0.448533 0.684312
vt 0.459194 0.684312
vt 0.448533 0.679774
vt 0.454497 0.679774
vt 0.459194 0.679774
vt 0.109889 0.944958
vt 0.111986 0.939364
vt 0.114312 0.945328
vt 0.036633 0.947789
vt 0.036633 0.952326
vt 0.034364 0.956255
vt 0.030435 0.958524
vt 0.025898 0.958524
vt 0.021969 0.956255
vt 0.019700 0.952326
vt 0.019700 0.947789
vt 0.021969 0.943859
vt 0.025898 0.941591
vt 0.030435 0.941591
vt 0.034364 0.943859
vt 0.124316 0.945444
vt 0.121539 0.948266
vt 0.120421 0.945521
vt 0.111796 0.951155
vt 0.110292 0.948258
vt 0.113141 0.948137
vt 0.114342 0.950885
vt 0.124534 0.951228
vt 0.124271 0.956694
vt 0.120418 0.950983
vt 0.249721 0.952578
vt 0.251989 0.956507
vt 0.251989 0.961044
vt 0.249721 0.964973
vt 0.245792 0.967242
vt 0.241254 0.967242
vt 0.237325 0.964973
vt 0.235057 0.961044
vt 0.235057 0.956507
vt 0.237325 0.952578
vt 0.241254 0.950309
vt 0.245792 0.950309
vt 0.469855 0.675237
vt 0.460716 0.675237
vt 0.460281 0.672946
vt 0.459194 0.670700
vt 0.464543 0.670700
vt 0.469855 0.670700
vt 0.469855 0.679774
vt 0.469855 0.684312
vt 0.469855 0.688849
vt 0.469855 0.693386
vt 0.469855 0.697923
vt 0.469855 0.702460
vt 0.469855 0.706997
vt 0.469855 0.711534
vt 0.469855 0.716071
vt 0.464626 0.716071
vt 0.178938 0.939364
vt 0.171237 0.943652
vt 0.171134 0.940791
vt 0.464096 0.956185
vt 0.462567 0.956659
vt 0.460519 0.953983
vt 0.461299 0.952401
vt 0.453311 0.955434
vt 0.454706 0.956146
vt 0.454380 0.959439
vt 0.452851 0.959883
vt 0.456463 0.962083
vt 0.455662 0.963654
vt 0.459831 0.962118
vt 0.460367 0.963627
vt 0.462291 0.959935
vt 0.463674 0.960628
vt 0.457144 0.953899
vt 0.456596 0.952401
vt 0.459287 0.956397
vt 0.457960 0.956362
vt 0.456989 0.957285
vt 0.456830 0.958615
vt 0.457658 0.959654
vt 0.458978 0.959681
vt 0.460017 0.958797
vt 0.460105 0.957437
vt 0.115451 0.949708
vt 0.117366 0.950873
vt 0.117346 0.952740
vt 0.478694 0.769710
vt 0.480305 0.836232
vt 0.476873 0.836306
vt 0.475901 0.769624
vt 0.117403 0.945472
vt 0.115437 0.946570
vt 0.117471 0.943578
vt 0.463787 0.769702
vt 0.463146 0.836388
vt 0.459714 0.836356
vt 0.460530 0.768900
vt 0.466578 0.769856
vt 0.466578 0.836398
vt 0.469368 0.769702
vt 0.470010 0.836388
vt 0.119290 0.949763
vt 0.114783 0.948136
vt 0.385556 0.972808
vt 0.384031 0.973309
vt 0.381932 0.970653
vt 0.382690 0.969052
vt 0.374695 0.972174
vt 0.376084 0.972860
vt 0.375862 0.976138
vt 0.374351 0.976619
vt 0.378027 0.978704
vt 0.377253 0.980300
vt 0.381387 0.978810
vt 0.381936 0.980300
vt 0.383807 0.976593
vt 0.385199 0.977265
vt 0.378534 0.970636
vt 0.377969 0.969130
vt 0.380747 0.973087
vt 0.379409 0.973083
vt 0.378377 0.973975
vt 0.378305 0.975332
vt 0.379180 0.976321
vt 0.380498 0.976394
vt 0.381516 0.975494
vt 0.381577 0.974133
vt 0.323599 0.769122
vt 0.324187 0.834539
vt 0.320755 0.834565
vt 0.320363 0.768991
vt 0.172720 0.949749
vt 0.174896 0.951671
vt 0.171317 0.952794
vt 0.171270 0.950341
vt 0.307419 0.768991
vt 0.307027 0.834565
vt 0.303595 0.834539
vt 0.304183 0.769122
vt 0.310654 0.769161
vt 0.310459 0.834580
vt 0.171289 0.945891
vt 0.167620 0.944952
vt 0.317129 0.769161
vt 0.317323 0.834580
vt 0.313891 0.834585
vt 0.313891 0.769542
vt 0.173472 0.948151
vt 0.172898 0.946509
vt 0.175287 0.944596
vt 0.176532 0.948318
vt 0.300163 0.834503
vt 0.300941 0.769465
vt 0.178718 0.948570
vt 0.166096 0.948248
vt 0.163934 0.947965
vt 0.165110 0.940978
vt 0.177530 0.955379
vt 0.171526 0.955462
vt 0.167428 0.951911
vt 0.163934 0.956758
vt 0.111933 0.956529
vt 0.117236 0.956865
vt 0.117690 0.939440
vt 0.326841 0.769465
vt 0.327619 0.834503
vt 0.169758 0.946627
vt 0.169120 0.948240
vt 0.169774 0.949826
vt 0.472625 0.768900
vt 0.473442 0.836356
vt 0.124534 0.940092
vt 0.454461 0.769710
vt 0.457255 0.769624
vt 0.456282 0.836306
vt 0.452851 0.836232
vt 0.119939 0.948232
vt 0.119306 0.946688
s 1
usemtl Material_SmokeboxDoor
f 6/1/1 5/2/2 29/3/2 30/4/1
f 34/5/3 33/6/3 57/7/3 58/8/3
f 21/9/4 20/10/5 44/11/5 45/12/4
f 14/13/6 13/14/7 37/15/7 38/16/6
f 7/17/8 6/1/1 30/4/1 31/18/8
f 22/19/9 21/9/4 45/12/4 46/20/9
f 15/21/10 14/13/6 38/16/6 39/22/10
f 8/23/11 7/17/8 31/18/8 32/24/11
f 23/25/12 22/19/9 46/20/9 47/26/12
f 16/27/13 15/21/10 39/22/10 40/28/13
f 9/29/14 8/23/11 32/24/11 33/6/14
f 24/30/15 23/25/12 47/26/12 48/31/15
f 1/32/16 2/33/17 26/34/17 25/35/16
f 17/36/18 16/27/13 40/28/13 41/37/18
f 10/38/19 9/29/14 33/6/14 34/5/19
f 2/33/17 24/30/15 48/31/15 26/34/17
f 3/39/20 1/32/16 25/35/16 27/40/20
f 18/41/21 17/36/18 41/37/18 42/42/21
f 11/43/22 10/38/19 34/5/19 35/44/22
f 4/45/23 3/39/20 27/40/20 28/46/23
f 19/47/24 18/41/21 42/42/21 43/48/24
f 12/49/25 11/43/22 35/44/22 36/50/25
f 5/2/2 4/45/23 28/46/23 29/3/2
f 20/10/5 19/47/24 43/48/24 44/11/5
f 13/14/7 12/49/25 36/50/25 37/15/7
f 69/51/4 68/52/5 92/53/5 93/54/4
f 26/34/3 48/31/3 72/55/3 50/56/3
f 27/40/3 25/35/3 49/57/3 51/58/3
f 42/42/3 41/37/3 65/59/3 66/60/3
f 35/44/3 34/5/3 58/8/3 59/61/3
f 28/46/3 27/40/3 51/58/3 52/62/3
f 43/48/3 42/42/3 66/60/3 67/63/3
f 36/50/3 35/44/3 59/61/3 60/64/3
f 29/3/3 28/46/3 52/62/3 53/65/3
f 44/11/3 43/48/3 67/63/3 68/66/3
f 37/15/3 36/50/3 60/64/3 61/67/3
f 30/4/3 29/3/3 53/65/3 54/68/3
f 45/12/3 44/11/3 68/66/3 69/69/3
f 38/16/3 37/15/3 61/67/3 62/70/3
f 31/18/3 30/4/3 54/68/3 55/71/3
f 46/20/3 45/12/3 69/69/3 70/72/3
f 39/22/3 38/16/3 62/70/3 63/73/3
f 32/24/3 31/18/3 55/71/3 56/74/3
f 47/26/3 46/20/3 70/72/3 71/75/3
f 40/28/3 39/22/3 63/73/3 64/76/3
f 33/6/3 32/24/3 56/74/3 57/7/3
f 48/31/3 47/26/3 71/75/3 72/55/3
f 25/35/3 26/34/3 50/56/3 49/57/3
f 41/37/3 40/28/3 64/76/3 65/59/3
f 82/77/26 81/78/27 105/79/27 106/80/26
f 62/81/6 61/82/7 85/83/7 86/84/6
f 55/85/8 54/86/1 78/87/1 79/88/8
f 70/89/9 69/51/4 93/54/4 94/90/9
f 63/91/10 62/81/6 86/84/6 87/92/10
f 56/93/11 55/85/8 79/88/8 80/94/11
f 71/95/12 70/89/9 94/90/9 95/96/12
f 64/97/13 63/91/10 87/92/10 88/98/13
f 57/99/14 56/93/11 80/94/11 81/100/14
f 72/101/15 71/95/12 95/96/12 96/102/15
f 49/103/16 50/104/17 74/105/17 73/106/16
f 65/107/18 64/97/13 88/98/13 89/108/18
f 58/109/19 57/99/14 81/100/14 82/110/19
f 50/111/17 72/101/15 96/102/15 74/112/17
f 51/113/20 49/103/16 73/106/16 75/114/20
f 66/115/21 65/107/18 89/108/18 90/116/21
f 59/117/22 58/109/19 82/110/19 83/118/22
f 52/119/23 51/113/20 75/114/20 76/120/23
f 67/121/24 66/115/21 90/116/21 91/122/24
f 60/123/25 59/117/22 83/118/22 84/124/25
f 53/125/2 52/119/23 76/120/23 77/126/2
f 68/52/5 67/121/24 91/122/24 92/53/5
f 61/82/7 60/123/25 84/124/25 85/83/7
f 54/86/1 53/125/2 77/126/2 78/87/1
f 97/127/3 98/128/3 120/129/3 119/130/3 118/131/3 117/132/3 116/133/3 115/134/3 114/135/3 113/136/3 112/137/3 111/138/3 110/139/3 109/140/3 108/141/3 107/142/3 106/80/3 105/79/3 104/143/3 103/144/3 102/145/3 101/146/3 100/147/3 99/148/3
f 74/149/28 96/150/29 120/129/29 98/128/28
f 75/151/30 73/152/31 97/127/31 99/148/30
f 90/153/32 89/154/33 113/136/33 114/135/32
f 83/155/34 82/77/26 106/80/26 107/142/34
f 76/156/35 75/151/30 99/148/30 100/147/35
f 91/157/36 90/153/32 114/135/32 115/134/36
f 84/158/37 83/155/34 107/142/34 108/141/37
f 77/159/38 76/156/35 100/147/35 101/146/38
f 92/160/39 91/157/36 115/134/36 116/133/39
f 85/161/40 84/158/37 108/141/37 109/140/40
f 78/162/41 77/159/38 101/146/38 102/145/41
f 93/163/42 92/160/39 116/133/39 117/132/42
f 86/164/43 85/161/40 109/140/40 110/139/43
f 79/165/44 78/162/41 102/145/41 103/144/44
f 94/166/45 93/163/42 117/132/42 118/131/45
f 87/167/46 86/164/43 110/139/43 111/138/46
f 80/168/47 79/165/44 103/144/44 104/143/47
f 95/169/48 94/166/45 118/131/45 119/130/48
f 88/170/49 87/167/46 111/138/46 112/137/49
f 81/78/27 80/168/47 104/143/47 105/79/27
f 96/150/29 95/169/48 119/130/48 120/129/29
f 73/152/31 74/149/28 98/128/28 97/127/31
f 89/154/33 88/170/49 112/137/49 113/136/33
f 161/171/50 223/172/51 122/173/52 124/174/20 163/175/53
f 163/175/53 124/174/20 126/176/2 166/177/2
f 166/177/2 126/176/2 128/178/8 167/179/8
f 167/179/8 128/178/8 132/180/14 170/181/14
f 170/181/14 132/180/14 135/182/22 172/183/22
f 172/183/22 135/182/22 139/184/7 174/185/7
f 174/185/7 139/184/7 143/186/10 175/187/10
f 175/187/10 143/186/10 147/188/18 177/189/18
f 177/189/18 147/188/18 152/190/54 224/191/55 178/192/56
f 179/193/57 178/194/56 205/195/58
f 139/196/3 135/197/3 132/198/3 128/199/3 126/200/3 124/201/3 122/202/3 159/203/3 155/204/3 152/205/3 147/206/3 143/207/3
f 155/208/59 208/209/60 207/210/61
f 180/211/62 225/212/63 209/213/64 210/214/65
f 159/215/66 122/216/52 211/217/67
f 157/218/68 121/219/68 123/220/68 125/221/68 127/222/68 129/223/68 133/224/68 138/225/68 141/226/68 145/227/68 150/228/68 154/229/68
f 154/230/4 179/231/57 225/232/63 180/233/62 222/234/69 157/235/70
f 150/236/24 178/192/56 179/231/57 154/230/4
f 145/237/18 177/189/18 178/192/56 150/236/24
f 141/238/10 175/187/10 177/189/18 145/237/18
f 138/239/7 174/185/7 175/187/10 141/238/10
f 133/240/22 172/183/22 174/185/7 138/239/7
f 129/241/14 170/181/14 172/183/22 133/240/22
f 127/242/8 167/179/8 170/181/14 129/241/14
f 125/243/2 166/177/2 167/179/8 127/242/8
f 123/244/71 221/245/72 163/175/53 166/177/2 125/243/2
f 163/246/53 217/247/73 161/248/50
f 165/249/74 160/250/75 131/251/76 162/252/77
f 168/253/78 140/254/79 144/255/80 169/256/81
f 169/256/81 144/255/80 148/257/82 171/258/83
f 171/258/83 148/257/82 151/259/84 173/260/85
f 173/260/85 151/259/84 156/261/86 176/262/87
f 176/262/87 156/261/86 160/250/75 165/249/74
f 162/252/77 131/251/76 136/263/88 164/264/89
f 164/264/89 136/263/88 140/254/79 168/253/78
f 136/263/88 131/251/76 130/265/90 134/266/91
f 140/254/79 136/263/88 134/266/91 137/267/92
f 144/255/80 140/254/79 137/267/92 142/268/93
f 148/257/82 144/255/80 142/268/93 146/269/94
f 151/259/84 148/257/82 146/269/94 149/270/95
f 156/261/86 151/259/84 149/270/95 153/271/96
f 160/250/75 156/261/86 153/271/96 158/272/97
f 131/251/76 160/250/75 158/272/97 130/265/90
f 137/267/92 134/266/91 130/265/90 158/272/97 153/271/96 149/270/95 146/269/94 142/268/93
f 239/273/98 238/274/99 212/275/100 210/214/65
f 240/276/101 162/277/77 164/278/89 239/279/98
f 236/280/102 241/281/103 205/195/58 206/282/104
f 235/283/105 173/284/85 176/285/87 236/286/102
f 234/287/106 171/288/83 173/284/85 235/283/105
f 237/289/107 169/290/81 171/288/83 234/287/106
f 237/291/107 211/217/67 212/275/100 238/274/99
f 209/213/64 205/195/58 241/281/103 240/292/101
f 199/293/108 196/294/109 182/295/110 197/296/111
f 200/297/112 186/298/113 188/299/114 201/300/115
f 201/300/115 188/299/114 190/301/116 202/302/117
f 202/302/117 190/301/116 192/303/118 203/304/119
f 203/304/119 192/303/118 194/305/120 204/306/121
f 204/306/121 194/305/120 196/294/109 199/293/108
f 197/296/111 182/295/110 184/307/122 198/308/123
f 198/308/123 184/307/122 186/298/113 200/297/112
f 184/307/122 182/295/110 181/309/124 183/310/125
f 186/298/113 184/307/122 183/310/125 185/311/126
f 188/299/114 186/298/113 185/311/126 187/312/127
f 190/301/116 188/299/114 187/312/127 189/313/128
f 192/303/118 190/301/116 189/313/128 191/314/129
f 194/305/120 192/303/118 191/314/129 193/315/130
f 196/294/109 194/305/120 193/315/130 195/316/131
f 182/295/110 196/294/109 195/316/131 181/309/124
f 193/315/130 191/314/129 189/313/128 187/312/127 185/311/126 183/310/125 181/309/124 195/316/131
f 229/317/132 198/318/123 200/319/112 230/320/133
f 229/321/132 219/322/134 216/323/135 226/324/136
f 233/325/137 204/326/121 199/327/108 231/328/138
f 232/329/139 203/330/119 204/326/121 233/325/137
f 217/247/73 228/331/140 214/332/141
f 227/333/142 201/334/115 202/335/117 228/336/140
f 230/337/133 227/338/142 218/339/143 220/340/144
f 199/327/108 197/341/111 226/342/136 231/328/138
f 220/340/144 221/343/72 219/322/134
f 213/344/145 222/345/69 214/332/141
f 218/339/143 163/246/53 221/343/72
f 214/332/141 180/346/62 217/247/73
f 219/322/134 123/347/71 121/348/146
f 215/349/147 157/350/70 222/345/69 213/344/145
f 210/214/65 161/351/50 180/211/62
f 212/275/100 223/352/51 210/214/65
f 211/217/67 223/352/51 212/275/100
f 208/209/60 159/215/66 211/217/67
f 208/209/60 155/208/59 159/215/66
f 206/282/104 224/353/55 207/210/61
f 205/195/58 178/194/56 224/353/55 206/282/104
f 209/213/64 225/212/63 179/193/57 205/195/58
f 200/319/112 201/334/115 227/333/142 230/320/133
f 218/339/143 227/338/142 228/331/140
f 198/318/123 229/317/132 226/354/136 197/355/111
f 219/322/134 229/321/132 230/337/133 220/340/144
f 214/332/141 232/356/139 233/357/137 213/344/145
f 213/344/145 233/357/137 231/358/138 215/349/147
f 232/329/139 228/336/140 202/335/117 203/330/119
f 231/358/138 226/324/136 216/323/135 215/349/147
f 157/350/70 215/349/147 121/348/146
f 218/339/143 217/247/73 163/246/53
f 217/247/73 180/346/62 161/248/50
f 121/348/146 215/349/147 216/323/135
f 121/348/146 216/323/135 219/322/134
f 214/332/141 222/345/69 180/346/62
f 169/290/81 237/289/107 238/359/99 168/360/78
f 221/343/72 220/340/144 218/339/143
f 219/322/134 221/343/72 123/347/71
f 214/332/141 228/331/140 232/356/139
f 228/331/140 217/247/73 218/339/143
f 207/210/61 224/353/55 152/361/54 155/208/59
f 223/352/51 211/217/67 122/216/52
f 210/214/65 223/352/51 161/351/50
f 240/362/101 241/363/103 165/364/74 162/365/77
f 211/217/67 237/291/107 234/366/106 208/209/60
f 208/209/60 234/366/106 235/367/105 207/210/61
f 207/210/61 235/367/105 236/280/102 206/282/104
f 176/285/87 165/364/74 241/363/103 236/286/102
f 209/213/64 240/292/101 239/273/98 210/214/65
f 164/278/89 168/360/78 238/359/99 239/279/98
