# Blender 4.1.1
# www.blender.org
o SpaceCapsule_1.25m_CommonEndcap
v 0.000000 0.000000 -0.526094
v 0.136163 0.000000 -0.508167
v 0.263047 0.000000 -0.455610
v 0.372004 0.000000 -0.372004
v 0.455610 0.000000 -0.263047
v 0.508167 0.000000 -0.136163
v 0.526094 0.000000 0.000000
v 0.508167 0.000000 0.136163
v 0.455610 0.000000 0.263047
v 0.372004 0.000000 0.372004
v 0.263047 0.000000 0.455610
v 0.136163 0.000000 0.508167
v 0.000000 0.000000 0.526094
v -0.136163 0.000000 0.508167
v -0.263047 0.000000 0.455610
v -0.372004 0.000000 0.372004
v -0.455610 0.000000 0.263047
v -0.508167 0.000000 0.136163
v -0.526094 0.000000 0.000000
v -0.508167 0.000000 -0.136163
v -0.455610 0.000000 -0.263047
v -0.372004 0.000000 -0.372004
v -0.263047 0.000000 -0.455610
v -0.136163 0.000000 -0.508167
v 0.000000 0.000000 -0.625000
v 0.161762 0.000000 -0.603704
v 0.312500 0.000000 -0.541266
v 0.441942 0.000000 -0.441942
v 0.541266 0.000000 -0.312500
v 0.603704 0.000000 -0.161762
v 0.625000 0.000000 0.000000
v 0.603704 0.000000 0.161762
v 0.541266 0.000000 0.312500
v 0.441942 0.000000 0.441942
v 0.312500 0.000000 0.541266
v 0.161762 0.000000 0.603704
v 0.000000 0.000000 0.625000
v -0.161762 0.000000 0.603704
v -0.312500 0.000000 0.541266
v -0.441942 0.000000 0.441942
v -0.541266 0.000000 0.312500
v -0.603704 0.000000 0.161762
v -0.625000 0.000000 0.000000
v -0.603704 0.000000 -0.161762
v -0.541266 0.000000 -0.312500
v -0.441942 0.000000 -0.441942
v -0.312500 0.000000 -0.541266
v -0.161762 0.000000 -0.603704
v -0.000000 0.104770 -0.526094
v 0.136163 0.104770 -0.508167
v 0.263047 0.104770 -0.455610
v 0.372004 0.104770 -0.372004
v 0.455610 0.104770 -0.263047
v 0.508167 0.104770 -0.136163
v 0.526094 0.104770 0.000000
v 0.508167 0.104770 0.136163
v 0.455610 0.104770 0.263047
v 0.372004 0.104770 0.372004
v 0.263047 0.104770 0.455610
v 0.136163 0.104770 0.508167
v -0.000000 0.104770 0.526094
v -0.136163 0.104770 0.508167
v -0.263047 0.104770 0.455610
v -0.372004 0.104770 0.372004
v -0.455610 0.104770 0.263047
v -0.508167 0.104770 0.136163
v -0.526094 0.104770 0.000000
v -0.508167 0.104770 -0.136163
v -0.455610 0.104770 -0.263047
v -0.372004 0.104770 -0.372004
v -0.263047 0.104770 -0.455610
v -0.136163 0.104770 -0.508167
v 0.117337 0.105012 -0.437895
v 0.392610 0.105012 -0.226671
v 0.437899 0.105012 -0.117334
v 0.453346 0.105012 0.000000
v 0.320565 0.105012 0.320562
v 0.226675 0.105012 0.392606
v -0.117330 0.105012 0.437895
v -0.392603 0.105012 0.226671
v -0.392603 0.105012 -0.226671
v -0.117330 0.105012 -0.437895
v -0.000000 0.051159 -0.192801
v 0.049901 0.051159 -0.186232
v 0.096401 0.051159 -0.166971
v 0.136331 0.051159 -0.136331
v 0.166971 0.051159 -0.096401
v 0.186232 0.051159 -0.049901
v 0.192801 0.051159 0.000000
v 0.186232 0.051159 0.049901
v 0.166971 0.051159 0.096401
v 0.136331 0.051159 0.136331
v 0.096401 0.051159 0.166971
v 0.049901 0.051159 0.186232
v -0.000000 0.051159 0.192801
v -0.049901 0.051159 0.186232
v -0.096401 0.051159 0.166971
v -0.136331 0.051159 0.136331
v -0.166971 0.051159 0.096401
v -0.186232 0.051159 0.049901
v -0.192801 0.051159 0.000000
v -0.186232 0.051159 -0.049901
v -0.166971 0.051159 -0.096401
v -0.136331 0.051159 -0.136331
v -0.096401 0.051159 -0.166971
v -0.049901 0.051159 -0.186232
v 0.000003 0.096274 -0.448340
v 0.116042 0.096274 -0.433063
v 0.224173 0.096274 -0.388273
v 0.317027 0.096274 -0.317024
v 0.388277 0.096274 -0.224170
v 0.433066 0.096274 -0.116039
v 0.448343 0.096274 0.000000
v 0.433066 0.096274 0.116039
v 0.388277 0.096274 0.224170
v 0.317027 0.096274 0.317024
v 0.224173 0.096274 0.388273
v 0.116042 0.096274 0.433063
v 0.000003 0.096274 0.448340
v -0.116035 0.096274 0.433063
v -0.224166 0.096274 0.388273
v -0.317020 0.096274 0.317024
v -0.388270 0.096274 0.224170
v -0.433059 0.096274 0.116039
v -0.448336 0.096274 0.000000
v -0.433059 0.096274 -0.116039
v -0.388270 0.096274 -0.224170
v -0.317020 0.096274 -0.317024
v -0.224166 0.096274 -0.388273
v -0.116035 0.096274 -0.433063
v -0.000000 0.062419 -0.319205
v 0.082616 0.062419 -0.308329
v 0.159603 0.062419 -0.276440
v 0.225712 0.062419 -0.225712
v 0.276440 0.062419 -0.159603
v 0.308329 0.062419 -0.082616
v 0.319205 0.062419 0.000000
v 0.308329 0.062419 0.082616
v 0.276440 0.062419 0.159603
v 0.225712 0.062419 0.225712
v 0.159603 0.062419 0.276440
v 0.082616 0.062419 0.308329
v -0.000000 0.062419 0.319205
v -0.082616 0.062419 0.308329
v -0.159603 0.062419 0.276440
v -0.225712 0.062419 0.225712
v -0.276440 0.062419 0.159603
v -0.308329 0.062419 0.082616
v -0.319205 0.062419 0.000000
v -0.308329 0.062419 -0.082616
v -0.276440 0.062419 -0.159603
v -0.225712 0.062419 -0.225712
v -0.159603 0.062419 -0.276440
v -0.082616 0.062419 -0.308329
v 0.000003 0.105012 -0.453686
v 0.226847 0.105012 -0.392904
v 0.320808 0.105012 -0.320805
v 0.438231 0.105012 0.117423
v 0.392907 0.105012 0.226843
v 0.117426 0.105012 0.438227
v 0.000003 0.105012 0.453686
v -0.226840 0.105012 0.392904
v -0.320801 0.105012 0.320805
v -0.438224 0.105012 0.117423
v -0.453683 0.105012 0.000000
v -0.438224 0.105012 -0.117423
v -0.320801 0.105012 -0.320805
v -0.226840 0.105012 -0.392904
v 0.154000 0.018666 0.000000
v 0.144500 0.035120 0.000000
v 0.125500 0.035120 0.000000
v 0.116000 0.018666 0.000000
v 0.125500 0.002211 0.000000
v 0.144500 0.002211 0.000000
v 0.133368 0.018666 -0.077000
v 0.125141 0.035120 -0.072250
v 0.108686 0.035120 -0.062750
v 0.100459 0.018666 -0.058000
v 0.108686 0.002211 -0.062750
v 0.125141 0.002211 -0.072250
v 0.077000 0.018666 -0.133368
v 0.072250 0.035120 -0.125141
v 0.062750 0.035120 -0.108686
v 0.058000 0.018666 -0.100459
v 0.062750 0.002211 -0.108686
v 0.072250 0.002211 -0.125141
v 0.000000 0.018666 -0.154000
v 0.000000 0.035120 -0.144500
v 0.000000 0.035120 -0.125500
v 0.000000 0.018666 -0.116000
v 0.000000 0.002211 -0.125500
v 0.000000 0.002211 -0.144500
v -0.077000 0.018666 -0.133368
v -0.072250 0.035120 -0.125141
v -0.062750 0.035120 -0.108686
v -0.058000 0.018666 -0.100459
v -0.062750 0.002211 -0.108686
v -0.072250 0.002211 -0.125141
v -0.133368 0.018666 -0.077000
v -0.125141 0.035120 -0.072250
v -0.108686 0.035120 -0.062750
v -0.100459 0.018666 -0.058000
v -0.108686 0.002211 -0.062750
v -0.125141 0.002211 -0.072250
v -0.154000 0.018666 -0.000000
v -0.144500 0.035120 -0.000000
v -0.125500 0.035120 -0.000000
v -0.116000 0.018666 -0.000000
v -0.125500 0.002211 -0.000000
v -0.144500 0.002211 -0.000000
v -0.133368 0.018666 0.077000
v -0.125141 0.035120 0.072250
v -0.108686 0.035120 0.062750
v -0.100459 0.018666 0.058000
v -0.108686 0.002211 0.062750
v -0.125141 0.002211 0.072250
v -0.077000 0.018666 0.133368
v -0.072250 0.035120 0.125141
v -0.062750 0.035120 0.108686
v -0.058000 0.018666 0.100459
v -0.062750 0.002211 0.108686
v -0.072250 0.002211 0.125141
v 0.000000 0.018666 0.154000
v 0.000000 0.035120 0.144500
v 0.000000 0.035120 0.125500
v 0.000000 0.018666 0.116000
v 0.000000 0.002211 0.125500
v 0.000000 0.002211 0.144500
v 0.077000 0.018666 0.133368
v 0.072250 0.035120 0.125141
v 0.062750 0.035120 0.108686
v 0.058000 0.018666 0.100459
v 0.062750 0.002211 0.108686
v 0.072250 0.002211 0.125141
v 0.133368 0.018666 0.077000
v 0.125141 0.035120 0.072250
v 0.108686 0.035120 0.062750
v 0.100459 0.018666 0.058000
v 0.108686 0.002211 0.062750
v 0.125141 0.002211 0.072250
v 0.000000 0.007490 -0.019710
v 0.000000 0.059659 -0.017024
v 0.017070 0.007490 -0.009855
v 0.014743 0.059659 -0.008512
v 0.017070 0.007490 0.009855
v 0.014743 0.059659 0.008512
v 0.000000 0.007490 0.019710
v 0.000000 0.059659 0.017024
v -0.017070 0.007490 0.009855
v -0.014743 0.059659 0.008512
v -0.017070 0.007490 -0.009855
v -0.014743 0.059659 -0.008512
v 0.000000 0.029553 -0.019710
v 0.017070 0.029553 -0.009855
v 0.017070 0.029553 0.009855
v 0.000000 0.029553 0.019710
v -0.017070 0.029553 0.009855
v -0.017070 0.029553 -0.009855
v -0.016059 0.007986 -0.013478
v -0.016059 0.029056 -0.013478
v -0.003643 0.029056 -0.020647
v -0.003643 0.007986 -0.020647
v -0.019702 0.007986 0.007169
v -0.019702 0.029056 0.007169
v -0.019702 0.029056 -0.007169
v -0.019702 0.007986 -0.007169
v -0.003643 0.007986 0.020647
v -0.003643 0.029056 0.020647
v -0.016059 0.029056 0.013478
v -0.016059 0.007986 0.013478
v 0.016059 0.007986 0.013478
v 0.016059 0.029056 0.013478
v 0.003643 0.029056 0.020647
v 0.003643 0.007986 0.020647
v 0.019702 0.007986 -0.007169
v 0.019702 0.029056 -0.007169
v 0.019702 0.029056 0.007169
v 0.019702 0.007986 0.007169
v 0.003643 0.007986 -0.020647
v 0.003643 0.029056 -0.020647
v 0.016059 0.029056 -0.013478
v 0.016059 0.007986 -0.013478
v -0.084138 0.029056 -0.102720
v -0.084138 0.007986 -0.102720
v -0.046889 0.007986 -0.124225
v -0.046889 0.029056 -0.124225
v -0.128184 0.029056 0.021506
v -0.128184 0.007986 0.021506
v -0.128184 0.007986 -0.021506
v -0.128184 0.029056 -0.021506
v -0.048169 0.029056 0.126442
v -0.048169 0.007986 0.126442
v -0.085417 0.007986 0.104936
v -0.085417 0.029056 0.104936
v 0.085301 0.029056 0.104735
v 0.085301 0.007986 0.104735
v 0.048053 0.007986 0.126241
v 0.048053 0.029056 0.126241
v 0.132926 0.029056 -0.021506
v 0.132926 0.007986 -0.021506
v 0.132926 0.007986 0.021506
v 0.132926 0.029056 0.021506
v 0.047402 0.007986 -0.125114
v 0.047402 0.029056 -0.125114
v 0.084651 0.007986 -0.103608
v 0.084651 0.029056 -0.103608
v -0.060100 0.028186 -0.083985
v -0.060100 0.008857 -0.083985
v -0.043219 0.008857 -0.093731
v -0.043219 0.028186 -0.093731
v 0.042715 0.008857 -0.094335
v 0.059596 0.008857 -0.084589
v 0.059596 0.028186 -0.084589
v 0.042715 0.028186 -0.094335
v 0.103332 0.028186 0.009627
v 0.103332 0.028186 -0.009866
v 0.103332 0.008857 0.009627
v 0.103332 0.008857 -0.009866
v 0.043158 0.028186 0.094863
v 0.060039 0.028186 0.085116
v 0.043158 0.008857 0.094863
v 0.060039 0.008857 0.085116
v -0.060970 0.008857 0.085253
v -0.060970 0.028186 0.085253
v -0.044089 0.028186 0.094999
v -0.044089 0.008857 0.094999
v -0.100961 0.028186 0.009627
v -0.100961 0.008857 0.009627
v -0.100961 0.008857 -0.009866
v -0.100961 0.028186 -0.009866
v 0.101540 0.096274 -0.378943
v 0.000002 0.096274 -0.392311
v 0.196158 0.096274 -0.339751
v 0.277408 0.096274 -0.277405
v 0.339753 0.096274 -0.196155
v 0.378945 0.096274 -0.101537
v 0.392313 0.096274 0.000000
v 0.378945 0.096274 0.101537
v 0.339753 0.096274 0.196155
v 0.277408 0.096274 0.277405
v 0.196158 0.096274 0.339751
v 0.101540 0.096274 0.378943
v 0.000002 0.096274 0.392311
v -0.101535 0.096274 0.378943
v -0.196153 0.096274 0.339751
v -0.277403 0.096274 0.277405
v -0.339749 0.096274 0.196155
v -0.378941 0.096274 0.101537
v -0.392308 0.096274 0.000000
v -0.378941 0.096274 -0.101537
v -0.339749 0.096274 -0.196155
v -0.277403 0.096274 -0.277405
v -0.196153 0.096274 -0.339751
v -0.101535 0.096274 -0.378943
v 0.456923 0.105376 -0.028751
v 0.456923 0.105376 0.028751
v 0.390897 0.095523 0.000607
v 0.419041 0.095523 0.028751
v 0.394668 0.095523 0.014679
v 0.404969 0.095523 0.024980
v 0.419041 0.095523 -0.028751
v 0.404969 0.095523 -0.024980
v 0.394668 0.095523 -0.014679
v 0.483204 0.105376 0.028751
v 0.511348 0.105376 0.000607
v 0.497276 0.105376 0.024980
v 0.507577 0.105376 0.014679
v 0.483204 0.105376 -0.028751
v 0.507577 0.105376 -0.014679
v 0.497276 0.105376 -0.024980
v 0.450131 0.095523 0.028751
v 0.450131 0.095523 -0.028751
v 0.460287 0.078222 -0.028751
v 0.460287 0.078222 0.028751
v 0.419041 0.078222 0.028751
v 0.390897 0.078222 0.000607
v 0.404969 0.078222 0.024980
v 0.394668 0.078222 0.014679
v 0.419041 0.078222 -0.028751
v 0.394668 0.078222 -0.014679
v 0.404969 0.078222 -0.024980
v 0.511348 0.078222 0.000607
v 0.483204 0.078222 0.028751
v 0.507577 0.078222 0.014679
v 0.497276 0.078222 0.024980
v 0.483204 0.078222 -0.028751
v 0.497276 0.078222 -0.024980
v 0.507577 0.078222 -0.014679
v 0.483204 0.061540 -0.021020
v 0.483204 0.079320 -0.021020
v 0.501407 0.061540 -0.010510
v 0.501407 0.079320 -0.010510
v 0.501407 0.061540 0.010510
v 0.501407 0.079320 0.010510
v 0.483204 0.061540 0.021020
v 0.483204 0.079320 0.021020
v 0.465000 0.061540 0.010510
v 0.465000 0.079320 0.010510
v 0.465000 0.061540 -0.010510
v 0.465000 0.079320 -0.010510
v 0.028751 0.105376 0.456923
v -0.028751 0.105376 0.456923
v -0.000607 0.095523 0.390897
v -0.028751 0.095523 0.419041
v -0.014679 0.095523 0.394668
v -0.024980 0.095523 0.404969
v 0.028751 0.095523 0.419041
v 0.024980 0.095523 0.404969
v 0.014679 0.095523 0.394668
v -0.028751 0.105376 0.483204
v -0.000607 0.105376 0.511348
v -0.024980 0.105376 0.497276
v -0.014679 0.105376 0.507577
v 0.028751 0.105376 0.483204
v 0.014679 0.105376 0.507577
v 0.024980 0.105376 0.497276
v -0.028751 0.095523 0.450131
v 0.028751 0.095523 0.450131
v 0.028751 0.078222 0.460287
v -0.028751 0.078222 0.460287
v -0.028751 0.078222 0.419041
v -0.000607 0.078222 0.390897
v -0.024980 0.078222 0.404969
v -0.014679 0.078222 0.394668
v 0.028751 0.078222 0.419041
v 0.014679 0.078222 0.394668
v 0.024980 0.078222 0.404969
v -0.000607 0.078222 0.511348
v -0.028751 0.078222 0.483204
v -0.014679 0.078222 0.507577
v -0.024980 0.078222 0.497276
v 0.028751 0.078222 0.483204
v 0.024980 0.078222 0.497276
v 0.014679 0.078222 0.507577
v 0.021020 0.061540 0.483204
v 0.021020 0.079320 0.483204
v 0.010510 0.061540 0.501407
v 0.010510 0.079320 0.501407
v -0.010510 0.061540 0.501407
v -0.010510 0.079320 0.501407
v -0.021020 0.061540 0.483204
v -0.021020 0.079320 0.483204
v -0.010510 0.061540 0.465000
v -0.010510 0.079320 0.465000
v 0.010510 0.061540 0.465000
v 0.010510 0.079320 0.465000
v -0.028751 0.105376 -0.456923
v 0.028751 0.105376 -0.456923
v 0.000607 0.095523 -0.390897
v 0.028751 0.095523 -0.419041
v 0.014679 0.095523 -0.394668
v 0.024980 0.095523 -0.404969
v -0.028751 0.095523 -0.419041
v -0.024980 0.095523 -0.404969
v -0.014679 0.095523 -0.394668
v 0.028751 0.105376 -0.483204
v 0.000607 0.105376 -0.511348
v 0.024980 0.105376 -0.497276
v 0.014679 0.105376 -0.507577
v -0.028751 0.105376 -0.483204
v -0.014679 0.105376 -0.507577
v -0.024980 0.105376 -0.497276
v 0.028751 0.095523 -0.450131
v -0.028751 0.095523 -0.450131
v -0.028751 0.078222 -0.460287
v 0.028751 0.078222 -0.460287
v 0.028751 0.078222 -0.419041
v 0.000607 0.078222 -0.390897
v 0.024980 0.078222 -0.404969
v 0.014679 0.078222 -0.394668
v -0.028751 0.078222 -0.419041
v -0.014679 0.078222 -0.394668
v -0.024980 0.078222 -0.404969
v 0.000607 0.078222 -0.511348
v 0.028751 0.078222 -0.483204
v 0.014679 0.078222 -0.507577
v 0.024980 0.078222 -0.497276
v -0.028751 0.078222 -0.483204
v -0.024980 0.078222 -0.497276
v -0.014679 0.078222 -0.507577
v -0.021020 0.061540 -0.483204
v -0.021020 0.079320 -0.483204
v -0.010510 0.061540 -0.501407
v -0.010510 0.079320 -0.501407
v 0.010510 0.061540 -0.501407
v 0.010510 0.079320 -0.501407
v 0.021020 0.061540 -0.483204
v 0.021020 0.079320 -0.483204
v 0.010510 0.061540 -0.465000
v 0.010510 0.079320 -0.465000
v -0.010510 0.061540 -0.465000
v -0.010510 0.079320 -0.465000
v 0.343423 0.105376 0.302763
v 0.302763 0.105376 0.343423
v 0.275977 0.095523 0.276835
v 0.275977 0.095523 0.316637
v 0.268693 0.095523 0.289452
v 0.268693 0.095523 0.304020
v 0.316637 0.095523 0.275977
v 0.304020 0.095523 0.268693
v 0.289452 0.095523 0.268693
v 0.321347 0.105376 0.362007
v 0.361149 0.105376 0.362007
v 0.333963 0.105376 0.369291
v 0.348532 0.105376 0.369291
v 0.362007 0.105376 0.321347
v 0.369291 0.105376 0.348532
v 0.369291 0.105376 0.333963
v 0.297961 0.095523 0.338620
v 0.338621 0.095523 0.297961
v 0.345802 0.078222 0.305142
v 0.305142 0.078222 0.345802
v 0.275977 0.078222 0.316637
v 0.275977 0.078222 0.276835
v 0.268693 0.078222 0.304020
v 0.268693 0.078222 0.289452
v 0.316637 0.078222 0.275977
v 0.289452 0.078222 0.268693
v 0.304020 0.078222 0.268693
v 0.361149 0.078222 0.362007
v 0.321347 0.078222 0.362007
v 0.348532 0.078222 0.369291
v 0.333963 0.078222 0.369291
v 0.362007 0.078222 0.321347
v 0.369291 0.078222 0.333963
v 0.369291 0.078222 0.348532
v 0.356540 0.061540 0.326813
v 0.356540 0.079320 0.326813
v 0.361980 0.061540 0.347117
v 0.361980 0.079320 0.347117
v 0.347117 0.061540 0.361980
v 0.347117 0.079320 0.361980
v 0.326813 0.061540 0.356540
v 0.326813 0.079320 0.356540
v 0.321373 0.061540 0.336236
v 0.321373 0.079320 0.336236
v 0.336236 0.061540 0.321373
v 0.336236 0.079320 0.321373
v 0.302763 0.105376 -0.343423
v 0.343423 0.105376 -0.302763
v 0.276835 0.095523 -0.275977
v 0.316637 0.095523 -0.275977
v 0.289452 0.095523 -0.268693
v 0.304020 0.095523 -0.268693
v 0.275977 0.095523 -0.316637
v 0.268693 0.095523 -0.304020
v 0.268693 0.095523 -0.289452
v 0.362007 0.105376 -0.321347
v 0.362007 0.105376 -0.361149
v 0.369291 0.105376 -0.333963
v 0.369291 0.105376 -0.348532
v 0.321347 0.105376 -0.362007
v 0.348532 0.105376 -0.369291
v 0.333963 0.105376 -0.369291
v 0.338620 0.095523 -0.297961
v 0.297961 0.095523 -0.338621
v 0.305142 0.078222 -0.345802
v 0.345802 0.078222 -0.305142
v 0.316637 0.078222 -0.275977
v 0.276835 0.078222 -0.275977
v 0.304020 0.078222 -0.268693
v 0.289452 0.078222 -0.268693
v 0.275977 0.078222 -0.316637
v 0.268693 0.078222 -0.289452
v 0.268693 0.078222 -0.304020
v 0.362007 0.078222 -0.361149
v 0.362007 0.078222 -0.321347
v 0.369291 0.078222 -0.348532
v 0.369291 0.078222 -0.333963
v 0.321347 0.078222 -0.362007
v 0.333963 0.078222 -0.369291
v 0.348532 0.078222 -0.369291
v 0.326813 0.061540 -0.356540
v 0.326813 0.079320 -0.356540
v 0.347117 0.061540 -0.361980
v 0.347117 0.079320 -0.361980
v 0.361980 0.061540 -0.347117
v 0.361980 0.079320 -0.347117
v 0.356540 0.061540 -0.326813
v 0.356540 0.079320 -0.326813
v 0.336236 0.061540 -0.321373
v 0.336236 0.079320 -0.321373
v 0.321373 0.061540 -0.336236
v 0.321373 0.079320 -0.336236
v -0.302763 0.105376 0.343423
v -0.343423 0.105376 0.302763
v -0.276835 0.095523 0.275977
v -0.316637 0.095523 0.275977
v -0.289452 0.095523 0.268693
v -0.304020 0.095523 0.268693
v -0.275977 0.095523 0.316637
v -0.268692 0.095523 0.304020
v -0.268693 0.095523 0.289452
v -0.362007 0.105376 0.321347
v -0.362007 0.105376 0.361149
v -0.369291 0.105376 0.333963
v -0.369291 0.105376 0.348532
v -0.321347 0.105376 0.362007
v -0.348532 0.105376 0.369291
v -0.333963 0.105376 0.369291
v -0.338620 0.095523 0.297961
v -0.297960 0.095523 0.338621
v -0.305142 0.078222 0.345802
v -0.345802 0.078222 0.305142
v -0.316637 0.078222 0.275977
v -0.276835 0.078222 0.275977
v -0.304020 0.078222 0.268693
v -0.289452 0.078222 0.268693
v -0.275977 0.078222 0.316637
v -0.268693 0.078222 0.289452
v -0.268692 0.078222 0.304020
v -0.362007 0.078222 0.361149
v -0.362007 0.078222 0.321347
v -0.369291 0.078222 0.348532
v -0.369291 0.078222 0.333963
v -0.321347 0.078222 0.362007
v -0.333963 0.078222 0.369291
v -0.348532 0.078222 0.369291
v -0.326813 0.061540 0.356540
v -0.326813 0.079320 0.356540
v -0.347117 0.061540 0.361980
v -0.347117 0.079320 0.361980
v -0.361980 0.061540 0.347117
v -0.361980 0.079320 0.347117
v -0.356540 0.061540 0.326813
v -0.356540 0.079320 0.326813
v -0.336236 0.061540 0.321373
v -0.336236 0.079320 0.321373
v -0.321373 0.061540 0.336236
v -0.321373 0.079320 0.336236
v -0.343423 0.105376 -0.302763
v -0.302763 0.105376 -0.343423
v -0.275977 0.095523 -0.276835
v -0.275977 0.095523 -0.316637
v -0.268693 0.095523 -0.289451
v -0.268693 0.095523 -0.304020
v -0.316637 0.095523 -0.275977
v -0.304020 0.095523 -0.268692
v -0.289452 0.095523 -0.268692
v -0.321347 0.105376 -0.362007
v -0.361149 0.105376 -0.362007
v -0.333963 0.105376 -0.369291
v -0.348532 0.105376 -0.369291
v -0.362007 0.105376 -0.321347
v -0.369291 0.105376 -0.348532
v -0.369291 0.105376 -0.333963
v -0.297961 0.095523 -0.338620
v -0.338621 0.095523 -0.297960
v -0.345802 0.078222 -0.305142
v -0.305142 0.078222 -0.345802
v -0.275977 0.078222 -0.316637
v -0.275977 0.078222 -0.276835
v -0.268693 0.078222 -0.304020
v -0.268693 0.078222 -0.289451
v -0.316637 0.078222 -0.275977
v -0.289452 0.078222 -0.268692
v -0.304020 0.078222 -0.268692
v -0.361149 0.078222 -0.362007
v -0.321347 0.078222 -0.362007
v -0.348532 0.078222 -0.369291
v -0.333963 0.078222 -0.369291
v -0.362007 0.078222 -0.321347
v -0.369291 0.078222 -0.333963
v -0.369291 0.078222 -0.348532
v -0.356540 0.061540 -0.326813
v -0.356540 0.079320 -0.326813
v -0.361980 0.061540 -0.347117
v -0.361980 0.079320 -0.347117
v -0.347117 0.061540 -0.361980
v -0.347117 0.079320 -0.361980
v -0.326813 0.061540 -0.356540
v -0.326813 0.079320 -0.356540
v -0.321373 0.061540 -0.336236
v -0.321373 0.079320 -0.336236
v -0.336236 0.061540 -0.321373
v -0.336236 0.079320 -0.321373
v -0.476632 0.079451 -0.157652
v -0.476632 0.110927 -0.157652
v -0.448724 0.079451 -0.148062
v -0.448724 0.110927 -0.148062
v -0.443076 0.079451 -0.119099
v -0.443076 0.110927 -0.119099
v -0.465334 0.079451 -0.099725
v -0.465334 0.110927 -0.099725
v -0.493241 0.079451 -0.109315
v -0.493241 0.110927 -0.109315
v -0.498890 0.079451 -0.138278
v -0.498890 0.110927 -0.138278
v -0.465334 0.079451 0.157652
v -0.465334 0.110927 0.157652
v -0.443076 0.079451 0.138278
v -0.443076 0.110927 0.138278
v -0.448724 0.079451 0.109315
v -0.448724 0.110927 0.109315
v -0.476632 0.079451 0.099725
v -0.476632 0.110927 0.099725
v -0.498890 0.079451 0.119099
v -0.498890 0.110927 0.119099
v -0.493241 0.079451 0.148062
v -0.493241 0.110927 0.148062
vn 0.2588 -0.0000 -0.9659
vn 0.5000 -0.0000 -0.8660
vn -0.0000 -1.0000 -0.0000
vn -1.0000 -0.0000 -0.0000
vn -0.9659 -0.0000 -0.2588
vn 0.7071 -0.0000 0.7071
vn 0.5000 -0.0000 0.8660
vn 0.7071 -0.0000 -0.7071
vn -0.8660 -0.0000 -0.5000
vn 0.2588 -0.0000 0.9659
vn -0.0000 -0.0000 1.0000
vn -0.2588 -0.0000 0.9659
vn 0.8660 -0.0000 -0.5000
vn -0.7071 -0.0000 -0.7071
vn -0.5000 -0.0000 0.8660
vn 0.9659 -0.0000 -0.2588
vn -0.5000 -0.0000 -0.8660
vn -0.7071 -0.0000 0.7071
vn 1.0000 -0.0000 -0.0000
vn -0.2588 -0.0000 -0.9659
vn -0.8660 -0.0000 0.5000
vn 0.9659 -0.0000 0.2588
vn -0.0000 -0.0000 -1.0000
vn -0.9659 -0.0000 0.2588
vn 0.8660 -0.0000 0.5000
vn -0.0009 -1.0000 0.0032
vn -0.0000 -1.0000 0.0033
vn -0.0017 -1.0000 0.0029
vn -0.0024 -1.0000 0.0024
vn -0.0029 -1.0000 0.0017
vn -0.0032 -1.0000 0.0009
vn -0.0033 -1.0000 -0.0000
vn -0.0032 -1.0000 -0.0009
vn -0.0029 -1.0000 -0.0017
vn -0.0024 -1.0000 -0.0024
vn -0.0017 -1.0000 -0.0029
vn -0.0009 -1.0000 -0.0032
vn -0.0000 -1.0000 -0.0033
vn 0.0009 -1.0000 -0.0032
vn 0.0017 -1.0000 -0.0029
vn 0.0024 -1.0000 -0.0024
vn 0.0029 -1.0000 -0.0017
vn 0.0032 -1.0000 -0.0009
vn 0.0034 -1.0000 -0.0000
vn 0.0032 -1.0000 0.0009
vn 0.0029 -1.0000 0.0017
vn 0.0024 -1.0000 0.0024
vn 0.0017 -1.0000 0.0029
vn 0.0009 -1.0000 0.0032
vn -0.0000 -0.9988 -0.0481
vn 0.0124 -0.9988 -0.0465
vn 0.0240 -0.9988 -0.0417
vn 0.0340 -0.9988 -0.0340
vn 0.0417 -0.9988 -0.0240
vn 0.0465 -0.9988 -0.0124
vn 0.0481 -0.9988 -0.0000
vn 0.0465 -0.9988 0.0124
vn 0.0417 -0.9988 0.0240
vn 0.0340 -0.9988 0.0340
vn 0.0240 -0.9988 0.0417
vn 0.0124 -0.9988 0.0465
vn -0.0000 -0.9988 0.0481
vn -0.0124 -0.9988 0.0465
vn -0.0240 -0.9988 0.0417
vn -0.0340 -0.9988 0.0340
vn -0.0417 -0.9988 0.0240
vn -0.0465 -0.9988 0.0124
vn -0.0481 -0.9988 -0.0000
vn -0.0465 -0.9988 -0.0124
vn -0.0417 -0.9988 -0.0240
vn -0.0340 -0.9988 -0.0340
vn -0.0240 -0.9988 -0.0417
vn -0.0124 -0.9988 -0.0465
vn -0.0000 -0.9624 -0.2715
vn 0.0703 -0.9624 -0.2623
vn 0.1358 -0.9624 -0.2352
vn 0.1920 -0.9624 -0.1920
vn 0.2352 -0.9624 -0.1358
vn 0.2623 -0.9624 -0.0703
vn 0.2715 -0.9624 -0.0000
vn 0.2623 -0.9624 0.0703
vn 0.2352 -0.9624 0.1358
vn 0.1920 -0.9624 0.1920
vn 0.1358 -0.9624 0.2352
vn 0.0703 -0.9624 0.2623
vn -0.0000 -0.9624 0.2715
vn -0.0703 -0.9624 0.2623
vn -0.1358 -0.9624 0.2352
vn -0.1920 -0.9624 0.1920
vn -0.2352 -0.9624 0.1358
vn -0.2623 -0.9624 0.0703
vn -0.2716 -0.9624 -0.0000
vn -0.2623 -0.9624 -0.0703
vn -0.2352 -0.9624 -0.1358
vn -0.1920 -0.9624 -0.1920
vn -0.1358 -0.9624 -0.2352
vn -0.0703 -0.9624 -0.2623
vn -0.0000 -0.5096 -0.8604
vn -0.2227 -0.5095 -0.8312
vn -0.4274 -0.5158 -0.7425
vn -0.4275 -0.5158 -0.7425
vn -0.6066 -0.5158 -0.6050
vn -0.6065 -0.5158 -0.6051
vn -0.7452 -0.5095 -0.4302
vn -0.8272 -0.5158 -0.2228
vn -0.8273 -0.5158 -0.2227
vn -0.8530 -0.5219 -0.0000
vn -0.8272 -0.5158 0.2228
vn -0.8273 -0.5158 0.2227
vn -0.7452 -0.5095 0.4302
vn -0.6066 -0.5158 0.6050
vn -0.6065 -0.5158 0.6051
vn -0.4274 -0.5158 0.7425
vn -0.4275 -0.5158 0.7425
vn -0.2227 -0.5095 0.8312
vn -0.0011 -0.5158 0.8567
vn -0.0010 -0.5158 0.8567
vn 0.2228 -0.5158 0.8272
vn 0.2228 -0.5158 0.8273
vn 0.4330 -0.5032 0.7478
vn 0.4330 -0.5032 0.7479
vn 0.6103 -0.5032 0.6118
vn 0.7414 -0.5158 0.4293
vn 0.8278 -0.5158 0.2207
vn 0.8642 -0.5032 -0.0011
vn 0.8642 -0.5032 -0.0010
vn 0.8383 -0.4969 -0.2246
vn 0.7490 -0.5032 -0.4311
vn 0.7489 -0.5032 -0.4312
vn 0.6066 -0.5158 -0.6050
vn 0.6065 -0.5158 -0.6051
vn 0.4274 -0.5158 -0.7425
vn 0.4275 -0.5158 -0.7425
vn 0.2227 -0.5095 -0.8312
vn 0.4827 0.8303 -0.2787
vn 0.5573 0.8303 -0.0000
vn -0.3745 0.9016 0.2162
vn -0.4325 0.9016 -0.0000
vn -0.3745 -0.9016 0.2162
vn -0.4325 -0.9016 -0.0000
vn 0.4827 -0.8303 -0.2787
vn 0.5573 -0.8303 -0.0000
vn 0.2787 0.8303 -0.4827
vn -0.2162 0.9016 0.3745
vn -0.2162 -0.9016 0.3745
vn 0.2787 -0.8303 -0.4827
vn -0.0000 0.8303 -0.5573
vn -0.0000 0.9016 0.4325
vn -0.0000 -0.9016 0.4325
vn -0.0000 -0.8303 -0.5573
vn -0.2787 0.8303 -0.4827
vn 0.2162 0.9016 0.3745
vn 0.2162 -0.9016 0.3745
vn -0.2787 -0.8303 -0.4827
vn -0.4827 0.8303 -0.2787
vn 0.3745 0.9016 0.2162
vn 0.3745 -0.9016 0.2162
vn -0.4827 -0.8303 -0.2787
vn -0.5573 0.8303 -0.0000
vn 0.4325 0.9016 -0.0000
vn 0.4325 -0.9016 -0.0000
vn -0.5573 -0.8303 -0.0000
vn -0.4827 0.8303 0.2787
vn 0.3745 0.9016 -0.2162
vn 0.3745 -0.9016 -0.2162
vn -0.4827 -0.8303 0.2787
vn -0.2787 0.8303 0.4827
vn 0.2162 0.9016 -0.3745
vn 0.2162 -0.9016 -0.3745
vn -0.2787 -0.8303 0.4827
vn -0.0000 0.8303 0.5573
vn -0.0000 0.9016 -0.4325
vn -0.0000 -0.9016 -0.4325
vn -0.0000 -0.8303 0.5573
vn 0.2787 0.8303 0.4827
vn -0.2162 0.9016 -0.3745
vn -0.2162 -0.9016 -0.3745
vn 0.2787 -0.8303 0.4827
vn 0.4827 0.8303 0.2787
vn -0.3745 0.9016 -0.2162
vn -0.3745 -0.9016 -0.2162
vn 0.4827 -0.8303 0.2787
vn -0.0000 0.0889 -0.9960
vn 0.8626 0.0889 -0.4980
vn 0.8626 0.0889 0.4980
vn -0.0000 0.0889 0.9960
vn -0.8626 0.0889 0.4980
vn -0.8626 0.0889 -0.4980
vn -0.9489 -0.0000 0.3156
vn -0.6392 -0.7416 0.2036
vn -0.7845 -0.6111 0.1054
vn -0.9880 -0.0000 0.1541
vn -0.7472 -0.0000 -0.6646
vn -0.4955 -0.7415 -0.4524
vn -0.4832 -0.6109 -0.6271
vn -0.6271 -0.0000 -0.7789
vn 0.4872 -0.7462 0.4537
vn -0.6397 -0.7417 -0.2015
vn -0.7858 -0.6099 -0.1024
vn 0.4697 -0.6015 0.6462
vn -0.7725 -0.4521 -0.4460
vn -0.9923 -0.0000 0.1237
vn -0.6309 -0.7759 -0.0046
vn -0.0000 -0.4521 -0.8920
vn 0.3105 -0.7747 -0.5509
vn 0.6005 -0.0000 -0.7996
vn -0.7725 -0.4521 0.4460
vn -0.3910 -0.0000 0.9204
vn -0.3210 -0.7751 0.5442
vn -0.3200 -0.7756 -0.5441
vn -0.3897 -0.0000 -0.9209
vn -0.0000 -0.4521 0.8920
vn 0.5998 -0.0000 0.8002
vn 0.3103 -0.7744 0.5514
vn -0.6307 -0.7760 0.0043
vn -0.9923 -0.0000 -0.1241
vn 0.7725 -0.4521 0.4460
vn 0.9928 -0.0000 -0.1201
vn 0.6324 -0.7746 0.0066
vn -0.3114 -0.7758 0.5488
vn -0.6032 -0.0000 0.7976
vn 0.7725 -0.4521 -0.4460
vn 0.3901 -0.0000 -0.9208
vn 0.3202 -0.7755 -0.5442
vn 0.3211 -0.7750 0.5443
vn 0.3913 -0.0000 0.9202
vn -0.6038 -0.0000 -0.7971
vn -0.3116 -0.7761 -0.5483
vn 0.6326 -0.7744 -0.0070
vn 0.9928 -0.0000 0.1195
vn -0.2050 -0.0000 0.9788
vn -0.1455 -0.7438 0.6524
vn -0.3114 -0.6068 0.7313
vn -0.3725 -0.0000 0.9280
vn 0.7409 -0.0000 0.6717
vn 0.6046 -0.0000 0.7965
vn -0.4902 -0.7433 0.4551
vn -0.7421 -0.0000 0.6703
vn -0.6147 -0.0000 0.7887
vn -0.4753 -0.6059 0.6380
vn 0.1558 -0.7470 0.6464
vn 0.2201 -0.0000 0.9755
vn 0.3999 -0.0000 0.9166
vn 0.3368 -0.5972 0.7280
vn 0.6369 -0.7466 -0.1922
vn 0.7964 -0.5996 -0.0787
vn 0.6365 -0.7459 0.1964
vn 0.9515 -0.0000 0.3075
vn 0.9917 -0.0000 0.1287
vn 0.7934 -0.6026 0.0863
vn 0.1546 -0.7457 -0.6481
vn 0.3307 -0.5997 -0.7287
vn 0.4908 -0.7448 -0.4522
vn 0.7442 -0.0000 -0.6680
vn 0.6134 -0.0000 -0.7898
vn 0.4752 -0.6051 -0.6388
vn -0.1444 -0.7426 -0.6540
vn -0.2030 -0.0000 -0.9792
vn -0.3660 -0.0000 -0.9306
vn -0.3057 -0.6091 -0.7318
vn -0.9497 -0.0000 -0.3130
vn -0.9886 -0.0000 -0.1505
vn 0.9533 -0.0000 -0.3022
vn 0.9928 -0.0000 -0.1195
vn 0.2179 -0.0000 -0.9760
vn 0.3931 -0.0000 -0.9195
vn -0.1088 -0.9074 -0.4059
vn -0.0000 -0.9074 -0.4202
vn -0.2101 -0.9074 -0.3639
vn -0.2971 -0.9074 -0.2971
vn -0.3639 -0.9074 -0.2101
vn -0.4059 -0.9074 -0.1088
vn -0.4202 -0.9074 -0.0000
vn -0.4059 -0.9074 0.1088
vn -0.3639 -0.9074 0.2101
vn -0.2971 -0.9074 0.2971
vn -0.2101 -0.9074 0.3639
vn -0.1088 -0.9074 0.4059
vn -0.0000 -0.9074 0.4202
vn 0.1088 -0.9074 0.4059
vn 0.2101 -0.9074 0.3639
vn 0.2971 -0.9074 0.2971
vn 0.3639 -0.9074 0.2101
vn 0.4059 -0.9074 0.1088
vn 0.4202 -0.9074 -0.0000
vn 0.4059 -0.9074 -0.1088
vn 0.3639 -0.9074 -0.2101
vn 0.2971 -0.9074 -0.2971
vn 0.2101 -0.9074 -0.3639
vn 0.1088 -0.9074 -0.4059
vn -0.1305 -0.0000 0.9914
vn 0.1305 -0.0000 -0.9914
vn 1.0000 -0.0000 0.0100
vn 0.1305 -0.0000 0.9914
vn 0.8710 -0.0000 -0.4913
vn -0.8710 -0.0000 -0.4913
vn -1.0000 -0.0000 0.0100
vn -0.1305 -0.0000 -0.9914
vn -0.8234 0.5675 -0.0000
vn -0.9914 -0.0000 -0.1305
vn 0.9914 -0.0000 0.1305
vn -0.0100 -0.0000 1.0000
vn -0.9914 -0.0000 0.1305
vn 0.4913 -0.0000 0.8710
vn 0.4913 -0.0000 -0.8710
vn -0.0100 -0.0000 -1.0000
vn 0.9914 -0.0000 -0.1305
vn -0.0000 0.5675 -0.8234
vn 0.0100 -0.0000 -1.0000
vn -0.4913 -0.0000 -0.8710
vn -0.4913 -0.0000 0.8710
vn 0.0100 -0.0000 1.0000
vn -0.0000 0.5675 0.8234
vn -0.7934 -0.0000 0.6088
vn 0.7934 -0.0000 -0.6088
vn 0.7000 -0.0000 0.7141
vn -0.6088 -0.0000 0.7934
vn 0.9633 -0.0000 0.2684
vn -0.2684 -0.0000 -0.9633
vn -0.7141 -0.0000 -0.7000
vn 0.6088 -0.0000 -0.7934
vn -0.5822 0.5675 -0.5822
vn 0.6088 -0.0000 0.7934
vn -0.6088 -0.0000 -0.7934
vn 0.7141 -0.0000 -0.7000
vn 0.7934 -0.0000 0.6088
vn 0.2684 -0.0000 -0.9633
vn -0.9633 -0.0000 0.2684
vn -0.7000 -0.0000 0.7141
vn -0.7934 -0.0000 -0.6088
vn -0.5822 0.5675 0.5822
vn -0.7141 -0.0000 0.7000
vn -0.2684 -0.0000 0.9633
vn 0.9633 -0.0000 -0.2684
vn 0.7000 -0.0000 -0.7141
vn 0.5822 0.5675 -0.5822
vn -0.7000 -0.0000 -0.7141
vn -0.9633 -0.0000 -0.2684
vn 0.2684 -0.0000 0.9633
vn 0.7141 -0.0000 0.7000
vn 0.5822 0.5675 0.5822
vn 0.3250 -0.0000 -0.9457
vn 0.9815 -0.0000 -0.1914
vn 0.6565 -0.0000 0.7543
vn -0.3250 -0.0000 0.9457
vn -0.9815 -0.0000 0.1914
vn -0.6565 -0.0000 -0.7543
vt 0.478309 0.782337
vt 0.385337 0.783119
vt 0.393124 0.718353
vt 0.469174 0.717571
vt 0.383113 0.075650
vt 0.292945 0.099706
vt 0.268250 0.037996
vt 0.375247 0.009543
vt 0.476363 0.075476
vt 0.485915 0.009680
vt 0.566366 0.099858
vt 0.592748 0.038850
vt 0.646790 0.146617
vt 0.688051 0.094667
vt 0.712285 0.212597
vt 0.765472 0.173180
vt 0.758365 0.293129
vt 0.819777 0.268754
vt 0.782372 0.382419
vt 0.847811 0.374600
vt 0.782608 0.474816
vt 0.847811 0.484087
vt 0.758789 0.564148
vt 0.819529 0.589900
vt 0.713123 0.644608
vt 0.765298 0.685056
vt 0.648115 0.710715
vt 0.688193 0.763366
vt 0.568114 0.757842
vt 0.593160 0.819188
vt 0.486609 0.848211
vt 0.376372 0.848893
vt 0.295215 0.759801
vt 0.269462 0.821042
vt 0.214193 0.713488
vt 0.173361 0.766073
vt 0.147732 0.648102
vt 0.094706 0.688385
vt 0.100387 0.567628
vt 0.038616 0.592753
vt 0.075854 0.477294
vt 0.009552 0.485401
vt 0.075674 0.383658
vt 0.009543 0.374261
vt 0.099516 0.293248
vt 0.038232 0.267036
vt 0.146346 0.212364
vt 0.094045 0.171104
vt 0.212389 0.146491
vt 0.172555 0.093182
vt 0.718159 0.391220
vt 0.698241 0.318161
vt 0.198295 0.252042
vt 0.159868 0.317844
vt 0.319482 0.699529
vt 0.718579 0.466788
vt 0.252449 0.198421
vt 0.391828 0.140625
vt 0.318076 0.159707
vt 0.253647 0.661107
vt 0.698508 0.539583
vt 0.468107 0.139985
vt 0.199212 0.607713
vt 0.661240 0.605661
vt 0.541429 0.160135
vt 0.160422 0.542139
vt 0.607947 0.659596
vt 0.607087 0.198222
vt 0.140739 0.468411
vt 0.542709 0.698218
vt 0.660739 0.252110
vt 0.140905 0.391908
vt 0.397020 0.180251
vt 0.333665 0.197372
vt 0.462810 0.180440
vt 0.526028 0.197444
vt 0.582524 0.230278
vt 0.628945 0.276618
vt 0.661745 0.333307
vt 0.678505 0.396382
vt 0.678351 0.461529
vt 0.661823 0.524487
vt 0.629352 0.581294
vt 0.583367 0.627737
vt 0.527003 0.660654
vt 0.463730 0.678157
vt 0.398241 0.678423
vt 0.334972 0.661788
vt 0.277742 0.629324
vt 0.231184 0.583052
vt 0.198293 0.526308
vt 0.180769 0.462896
vt 0.180550 0.396989
vt 0.197651 0.333366
vt 0.230356 0.276536
vt 0.276743 0.230047
vt 0.390310 0.334044
vt 0.416335 0.327062
vt 0.443279 0.327055
vt 0.469299 0.334023
vt 0.492620 0.347470
vt 0.511672 0.366504
vt 0.525146 0.389833
vt 0.532113 0.415843
vt 0.532176 0.442745
vt 0.525269 0.468731
vt 0.511890 0.492059
vt 0.492925 0.511122
vt 0.469664 0.524640
vt 0.443690 0.531674
vt 0.416772 0.531744
vt 0.390756 0.524843
vt 0.367386 0.511421
vt 0.348275 0.492405
vt 0.334733 0.469089
vt 0.327681 0.443056
vt 0.327614 0.416071
vt 0.334528 0.389987
vt 0.347966 0.366616
vt 0.366987 0.347520
vt 0.401703 0.216500
vt 0.347513 0.231020
vt 0.335792 0.202510
vt 0.397757 0.185922
vt 0.457879 0.216544
vt 0.462056 0.186068
vt 0.511985 0.231012
vt 0.523894 0.202573
vt 0.560376 0.259055
vt 0.579135 0.234707
vt 0.599972 0.298716
vt 0.624419 0.280094
vt 0.627936 0.347236
vt 0.656594 0.335418
vt 0.642458 0.401185
vt 0.672914 0.397100
vt 0.642492 0.456958
vt 0.672881 0.460818
vt 0.628245 0.510872
vt 0.656677 0.522390
vt 0.600399 0.559381
vt 0.624835 0.577862
vt 0.561083 0.599097
vt 0.579980 0.623367
vt 0.512795 0.627235
vt 0.524798 0.655442
vt 0.458713 0.642038
vt 0.462954 0.672511
vt 0.402737 0.642334
vt 0.398935 0.672928
vt 0.348593 0.628044
vt 0.337104 0.656534
vt 0.299795 0.600191
vt 0.281196 0.624776
vt 0.259940 0.560723
vt 0.235578 0.579656
vt 0.231699 0.512269
vt 0.203533 0.524101
vt 0.216994 0.458029
vt 0.186421 0.462112
vt 0.216853 0.401780
vt 0.186234 0.397729
vt 0.231336 0.347422
vt 0.202904 0.335540
vt 0.259260 0.298769
vt 0.234776 0.279925
vt 0.298923 0.259084
vt 0.280217 0.234580
vt 0.364188 0.271383
vt 0.407354 0.259789
vt 0.452064 0.259769
vt 0.495189 0.271312
vt 0.533819 0.293633
vt 0.565438 0.325176
vt 0.587847 0.363815
vt 0.599332 0.406914
vt 0.599359 0.451436
vt 0.587934 0.494448
vt 0.565749 0.533091
vt 0.534353 0.564703
vt 0.495837 0.587128
vt 0.452771 0.598844
vt 0.408160 0.599018
vt 0.365006 0.587615
vt 0.326213 0.565384
vt 0.294519 0.533922
vt 0.272165 0.495314
vt 0.260369 0.452207
vt 0.260213 0.407447
vt 0.271684 0.364173
vt 0.293950 0.325408
vt 0.325502 0.293765
vt 0.912946 0.423667
vt 0.913549 0.385248
vt 0.923586 0.385515
vt 0.922588 0.423826
vt 0.934606 0.385874
vt 0.932542 0.424014
vt 0.870584 0.422696
vt 0.870738 0.384529
vt 0.882694 0.384570
vt 0.881455 0.423088
vt 0.893482 0.384671
vt 0.892879 0.423161
vt 0.903804 0.385112
vt 0.902652 0.423461
vt 0.914142 0.346005
vt 0.924580 0.346182
vt 0.935308 0.346635
vt 0.870448 0.345047
vt 0.882108 0.345252
vt 0.893503 0.345533
vt 0.904040 0.345916
vt 0.914876 0.306430
vt 0.925179 0.306590
vt 0.935538 0.306865
vt 0.870340 0.305252
vt 0.881999 0.305596
vt 0.893856 0.305749
vt 0.904574 0.306286
vt 0.915888 0.266235
vt 0.926405 0.266519
vt 0.937516 0.266698
vt 0.871251 0.265493
vt 0.882619 0.265614
vt 0.894439 0.265479
vt 0.905351 0.266075
vt 0.917139 0.224910
vt 0.927578 0.225044
vt 0.939510 0.225224
vt 0.870790 0.224622
vt 0.883526 0.224525
vt 0.895047 0.224483
vt 0.906119 0.224855
vt 0.916404 0.183010
vt 0.927483 0.182811
vt 0.938910 0.182905
vt 0.870275 0.182599
vt 0.882561 0.182714
vt 0.894582 0.182863
vt 0.905709 0.183102
vt 0.915670 0.141404
vt 0.926425 0.141130
vt 0.937749 0.141210
vt 0.869998 0.141080
vt 0.882122 0.141165
vt 0.894122 0.141314
vt 0.905264 0.141527
vt 0.915184 0.099870
vt 0.925911 0.099740
vt 0.937233 0.099971
vt 0.869376 0.100290
vt 0.881025 0.099928
vt 0.893223 0.099905
vt 0.904452 0.100030
vt 0.915172 0.057564
vt 0.925899 0.057609
vt 0.937197 0.058184
vt 0.867119 0.058440
vt 0.879935 0.058085
vt 0.892585 0.057745
vt 0.904185 0.057765
vt 0.915604 0.009543
vt 0.928253 0.011770
vt 0.940019 0.015778
vt 0.866897 0.016005
vt 0.878545 0.017313
vt 0.890100 0.015166
vt 0.902444 0.011242
vt 0.912295 0.507570
vt 0.912187 0.462677
vt 0.922359 0.462501
vt 0.924526 0.505864
vt 0.933065 0.462320
vt 0.935985 0.502118
vt 0.866897 0.501295
vt 0.867822 0.461165
vt 0.879633 0.461825
vt 0.878570 0.500044
vt 0.891392 0.462188
vt 0.889372 0.501983
vt 0.902337 0.462450
vt 0.900133 0.505642
vt 0.659602 0.890888
vt 0.641808 0.892474
vt 0.640470 0.882502
vt 0.658053 0.879342
vt 0.638252 0.872688
vt 0.655485 0.867980
vt 0.655485 0.937072
vt 0.638252 0.932364
vt 0.640470 0.922550
vt 0.658053 0.925710
vt 0.641808 0.912578
vt 0.659602 0.914164
vt 0.642255 0.902526
vt 0.660120 0.902526
vt 0.699383 0.969451
vt 0.689295 0.975276
vt 0.679206 0.969451
vt 0.679206 0.957802
vt 0.689295 0.951977
vt 0.699383 0.957802
vt 0.305967 0.886517
vt 0.295482 0.885061
vt 0.300875 0.868674
vt 0.310440 0.871637
vt 0.367846 0.886215
vt 0.357499 0.884613
vt 0.362382 0.868031
vt 0.372683 0.870993
vt 0.468513 0.924323
vt 0.479877 0.924565
vt 0.485471 0.941329
vt 0.463533 0.941308
vt 0.531700 0.940888
vt 0.520551 0.936346
vt 0.521428 0.934747
vt 0.533047 0.939109
vt 0.557376 0.934973
vt 0.544622 0.940548
vt 0.543159 0.938611
vt 0.556139 0.932924
vt 0.593423 0.939408
vt 0.582344 0.934858
vt 0.583221 0.933270
vt 0.594813 0.937657
vt 0.619166 0.933865
vt 0.606362 0.939427
vt 0.604935 0.937461
vt 0.617930 0.931808
vt 0.347116 0.942409
vt 0.336021 0.937970
vt 0.336882 0.936377
vt 0.348480 0.940650
vt 0.372683 0.936601
vt 0.359995 0.942272
vt 0.358552 0.940332
vt 0.371431 0.934565
vt 0.284601 0.942490
vt 0.273466 0.937898
vt 0.274351 0.936301
vt 0.285994 0.940733
vt 0.310395 0.936901
vt 0.297571 0.942490
vt 0.296139 0.940522
vt 0.309154 0.934841
vt 0.419530 0.867980
vt 0.430677 0.872845
vt 0.429750 0.874438
vt 0.418130 0.869742
vt 0.393512 0.873364
vt 0.406490 0.868030
vt 0.407921 0.870016
vt 0.394713 0.875457
vt 0.481444 0.867980
vt 0.492442 0.872794
vt 0.491527 0.874365
vt 0.480054 0.869717
vt 0.455711 0.873201
vt 0.468555 0.867980
vt 0.469962 0.869948
vt 0.456890 0.875274
vt 0.396149 0.923437
vt 0.406657 0.924902
vt 0.401716 0.941834
vt 0.391770 0.939002
vt 0.458140 0.922504
vt 0.452973 0.938139
vt 0.531822 0.884234
vt 0.520674 0.886702
vt 0.515322 0.871374
vt 0.526016 0.867980
vt 0.593029 0.884246
vt 0.581846 0.886537
vt 0.576971 0.871114
vt 0.588004 0.867980
vt 0.543118 0.884311
vt 0.548052 0.867980
vt 0.346175 0.885348
vt 0.335003 0.887752
vt 0.329527 0.871317
vt 0.340540 0.867980
vt 0.604347 0.883736
vt 0.609823 0.868651
vt 0.284221 0.885555
vt 0.273028 0.887715
vt 0.267990 0.870996
vt 0.279086 0.867980
vt 0.417850 0.925074
vt 0.429176 0.923240
vt 0.433887 0.938704
vt 0.423738 0.941834
vt 0.491074 0.922364
vt 0.496235 0.938137
vt 0.553657 0.885701
vt 0.557885 0.870838
vt 0.614803 0.885327
vt 0.619166 0.871771
vt 0.144482 0.913334
vt 0.154636 0.922113
vt 0.144639 0.944022
vt 0.135105 0.935900
vt 0.099992 0.903883
vt 0.095692 0.895956
vt 0.107056 0.877713
vt 0.120139 0.892336
vt 0.113460 0.902782
vt 0.153508 0.877574
vt 0.142104 0.888859
vt 0.136830 0.886364
vt 0.143548 0.870739
vt 0.145996 0.900683
vt 0.162755 0.898084
vt 0.162349 0.918229
vt 0.135435 0.952190
vt 0.129945 0.941822
vt 0.130404 0.867980
vt 0.130497 0.885114
vt 0.124712 0.887025
vt 0.117902 0.870562
vt 0.159876 0.887336
vt 0.145293 0.893743
vt 0.096598 0.936255
vt 0.106554 0.933448
vt 0.110043 0.939255
vt 0.101784 0.946248
vt 0.123452 0.944270
vt 0.123761 0.955577
vt 0.112094 0.953460
vt 0.116532 0.942911
vt 0.095692 0.925703
vt 0.106547 0.925802
vt 0.966179 0.255813
vt 0.959106 0.255813
vt 0.959106 0.221828
vt 0.966179 0.221828
vt 0.978934 0.918543
vt 0.990457 0.926365
vt 0.972001 0.936436
vt 0.972532 0.922553
vt 0.953046 0.926548
vt 0.965383 0.920126
vt 0.953046 0.905155
vt 0.964697 0.912878
vt 0.971549 0.894463
vt 0.970889 0.908451
vt 0.990314 0.904843
vt 0.977933 0.911332
vt 0.200114 0.910222
vt 0.189960 0.901443
vt 0.199957 0.879534
vt 0.209491 0.887656
vt 0.244604 0.919673
vt 0.248904 0.927600
vt 0.237540 0.945843
vt 0.224457 0.931220
vt 0.231136 0.920774
vt 0.191089 0.945982
vt 0.202492 0.934697
vt 0.207767 0.937192
vt 0.201048 0.952817
vt 0.198601 0.922873
vt 0.181841 0.925472
vt 0.182247 0.905327
vt 0.209161 0.871366
vt 0.214651 0.881734
vt 0.214193 0.955576
vt 0.214099 0.938442
vt 0.219884 0.936531
vt 0.226694 0.952994
vt 0.184721 0.936220
vt 0.199303 0.929813
vt 0.247998 0.887301
vt 0.238043 0.890108
vt 0.234553 0.884301
vt 0.242813 0.877308
vt 0.221145 0.879286
vt 0.220835 0.867980
vt 0.232503 0.870097
vt 0.228064 0.880645
vt 0.248904 0.897853
vt 0.238050 0.897754
vt 0.966179 0.043528
vt 0.959106 0.043528
vt 0.959106 0.009543
vt 0.966179 0.009543
vt 0.978934 0.796423
vt 0.990457 0.804245
vt 0.972001 0.814316
vt 0.972532 0.800433
vt 0.953046 0.804428
vt 0.965383 0.798006
vt 0.953046 0.783035
vt 0.964697 0.790758
vt 0.971549 0.772342
vt 0.970889 0.786331
vt 0.990314 0.782723
vt 0.977933 0.789212
vt 0.915687 0.892060
vt 0.925841 0.900839
vt 0.915844 0.922748
vt 0.906310 0.914626
vt 0.871197 0.882609
vt 0.866897 0.874682
vt 0.878261 0.856439
vt 0.891344 0.871063
vt 0.884665 0.881509
vt 0.924712 0.856300
vt 0.913309 0.867586
vt 0.908034 0.865091
vt 0.914753 0.849465
vt 0.917201 0.879409
vt 0.933960 0.876811
vt 0.933554 0.896955
vt 0.906640 0.930916
vt 0.901150 0.920549
vt 0.901608 0.846706
vt 0.901702 0.863840
vt 0.895917 0.865752
vt 0.889107 0.849289
vt 0.931081 0.866063
vt 0.916498 0.872469
vt 0.867803 0.914982
vt 0.877758 0.912175
vt 0.881248 0.917982
vt 0.872989 0.924975
vt 0.894656 0.922997
vt 0.894966 0.934303
vt 0.883299 0.932186
vt 0.887737 0.921638
vt 0.866897 0.904429
vt 0.877752 0.904529
vt 0.966179 0.202742
vt 0.959105 0.202742
vt 0.959105 0.168757
vt 0.966179 0.168757
vt 0.964569 0.851295
vt 0.953046 0.843474
vt 0.971502 0.833403
vt 0.970971 0.847286
vt 0.990457 0.843291
vt 0.978119 0.849713
vt 0.990457 0.864683
vt 0.978806 0.856961
vt 0.971954 0.875376
vt 0.972614 0.861387
vt 0.953189 0.864996
vt 0.965570 0.858507
vt 0.915687 0.572010
vt 0.925841 0.580789
vt 0.915844 0.602698
vt 0.906310 0.594576
vt 0.871197 0.562559
vt 0.866897 0.554632
vt 0.878261 0.536389
vt 0.891344 0.551013
vt 0.884665 0.561459
vt 0.924712 0.536250
vt 0.913309 0.547536
vt 0.908034 0.545041
vt 0.914753 0.529415
vt 0.917201 0.559359
vt 0.933960 0.556761
vt 0.933554 0.576905
vt 0.906640 0.610866
vt 0.901150 0.600499
vt 0.901608 0.526656
vt 0.901702 0.543790
vt 0.895917 0.545702
vt 0.889107 0.529239
vt 0.931081 0.546013
vt 0.916498 0.552419
vt 0.867803 0.594932
vt 0.877758 0.592125
vt 0.881248 0.597932
vt 0.872989 0.604925
vt 0.894656 0.602947
vt 0.894966 0.614253
vt 0.883299 0.612136
vt 0.887737 0.601588
vt 0.866897 0.584379
vt 0.877752 0.584479
vt 0.966179 0.149671
vt 0.959106 0.149671
vt 0.959106 0.115686
vt 0.966179 0.115686
vt 0.964510 0.544584
vt 0.953046 0.536649
vt 0.971778 0.526656
vt 0.970829 0.540572
vt 0.990378 0.537395
vt 0.977775 0.543355
vt 0.989667 0.558614
vt 0.978090 0.550834
vt 0.971066 0.569353
vt 0.972206 0.555457
vt 0.953046 0.558127
vt 0.965573 0.551991
vt 0.058333 0.913334
vt 0.068487 0.922113
vt 0.058490 0.944022
vt 0.048956 0.935900
vt 0.013843 0.903883
vt 0.009543 0.895956
vt 0.020907 0.877713
vt 0.033990 0.892336
vt 0.027311 0.902782
vt 0.067358 0.877574
vt 0.055955 0.888859
vt 0.050681 0.886364
vt 0.057399 0.870739
vt 0.059847 0.900683
vt 0.076606 0.898085
vt 0.076200 0.918229
vt 0.049286 0.952190
vt 0.043796 0.941822
vt 0.044254 0.867980
vt 0.044348 0.885114
vt 0.038563 0.887025
vt 0.031753 0.870562
vt 0.073727 0.887336
vt 0.059144 0.893743
vt 0.010449 0.936255
vt 0.020404 0.933448
vt 0.023894 0.939255
vt 0.015635 0.946248
vt 0.037302 0.944271
vt 0.037612 0.955577
vt 0.025945 0.953460
vt 0.030383 0.942912
vt 0.009543 0.925703
vt 0.020398 0.925802
vt 0.847811 0.955036
vt 0.840738 0.955036
vt 0.840738 0.921051
vt 0.847811 0.921051
vt 0.978119 0.727593
vt 0.990457 0.721171
vt 0.990457 0.742563
vt 0.978806 0.734840
vt 0.971954 0.753256
vt 0.972614 0.739267
vt 0.953189 0.742876
vt 0.965570 0.736387
vt 0.953046 0.721353
vt 0.964569 0.729175
vt 0.971502 0.711282
vt 0.970971 0.725166
vt 0.885170 0.675582
vt 0.875016 0.666803
vt 0.885013 0.644894
vt 0.894547 0.653016
vt 0.929660 0.685033
vt 0.933960 0.692960
vt 0.922596 0.711203
vt 0.909513 0.696580
vt 0.916192 0.686134
vt 0.876145 0.711342
vt 0.887548 0.700057
vt 0.892822 0.702551
vt 0.886104 0.718177
vt 0.883656 0.688233
vt 0.866897 0.690831
vt 0.867303 0.670687
vt 0.894217 0.636726
vt 0.899707 0.647094
vt 0.899248 0.720936
vt 0.899155 0.703802
vt 0.904940 0.701891
vt 0.911750 0.718354
vt 0.869776 0.701580
vt 0.884359 0.695173
vt 0.933054 0.652661
vt 0.923099 0.655468
vt 0.919609 0.649661
vt 0.927868 0.642667
vt 0.906201 0.644645
vt 0.905891 0.633339
vt 0.917558 0.635456
vt 0.913120 0.646004
vt 0.933960 0.663213
vt 0.923105 0.663114
vt 0.840738 0.867980
vt 0.847811 0.867980
vt 0.847811 0.901965
vt 0.840738 0.901965
vt 0.978915 0.613208
vt 0.990378 0.621143
vt 0.971647 0.631136
vt 0.972596 0.617220
vt 0.953046 0.620397
vt 0.965650 0.614436
vt 0.953758 0.599178
vt 0.965335 0.606958
vt 0.972358 0.588439
vt 0.971218 0.602334
vt 0.990378 0.599665
vt 0.977852 0.605801
vt 0.915687 0.785377
vt 0.925841 0.794156
vt 0.915844 0.816065
vt 0.906310 0.807943
vt 0.871197 0.775926
vt 0.866897 0.767999
vt 0.878261 0.749756
vt 0.891344 0.764379
vt 0.884665 0.774825
vt 0.924712 0.749617
vt 0.913309 0.760902
vt 0.908035 0.758408
vt 0.914753 0.742782
vt 0.917201 0.772726
vt 0.933960 0.770128
vt 0.933554 0.790272
vt 0.906640 0.824233
vt 0.901150 0.813865
vt 0.901608 0.740023
vt 0.901702 0.757157
vt 0.895917 0.759068
vt 0.889107 0.742605
vt 0.931081 0.759379
vt 0.916498 0.765786
vt 0.867803 0.808298
vt 0.877758 0.805491
vt 0.881248 0.811298
vt 0.872988 0.818292
vt 0.894656 0.816314
vt 0.894966 0.827620
vt 0.883299 0.825503
vt 0.887737 0.814955
vt 0.866897 0.797746
vt 0.877752 0.797845
vt 0.959106 0.062614
vt 0.966179 0.062614
vt 0.966179 0.096599
vt 0.959106 0.096599
vt 0.964569 0.668115
vt 0.953046 0.660293
vt 0.971502 0.650222
vt 0.970971 0.664106
vt 0.990457 0.660110
vt 0.978120 0.666533
vt 0.990457 0.681503
vt 0.978806 0.673780
vt 0.971954 0.692196
vt 0.972614 0.678207
vt 0.953189 0.681816
vt 0.965570 0.675326
vt 0.791256 0.903920
vt 0.811442 0.917380
vt 0.783137 0.932891
vt 0.784419 0.908606
vt 0.754867 0.916570
vt 0.776617 0.905818
vt 0.755587 0.884301
vt 0.775977 0.897554
vt 0.783856 0.867980
vt 0.782293 0.892191
vt 0.811442 0.884737
vt 0.789770 0.895769
vt 0.700956 0.895053
vt 0.700316 0.903317
vt 0.679926 0.916570
vt 0.679206 0.884301
vt 0.706632 0.908679
vt 0.708195 0.932891
vt 0.714109 0.905101
vt 0.735781 0.916134
vt 0.715595 0.896951
vt 0.735781 0.883491
vt 0.708757 0.892265
vt 0.707475 0.867980
s 1
f 14/1/1 15/2/2 63/3/2 62/4/1
f 2/5/3 1/6/3 25/7/3 26/8/3
f 3/9/3 2/5/3 26/8/3 27/10/3
f 4/11/3 3/9/3 27/10/3 28/12/3
f 5/13/3 4/11/3 28/12/3 29/14/3
f 6/15/3 5/13/3 29/14/3 30/16/3
f 7/17/3 6/15/3 30/16/3 31/18/3
f 8/19/3 7/17/3 31/18/3 32/20/3
f 9/21/3 8/19/3 32/20/3 33/22/3
f 10/23/3 9/21/3 33/22/3 34/24/3
f 11/25/3 10/23/3 34/24/3 35/26/3
f 12/27/3 11/25/3 35/26/3 36/28/3
f 13/29/3 12/27/3 36/28/3 37/30/3
f 14/1/3 13/29/3 37/30/3 38/31/3
f 15/2/3 14/1/3 38/31/3 39/32/3
f 16/33/3 15/2/3 39/32/3 40/34/3
f 17/35/3 16/33/3 40/34/3 41/36/3
f 18/37/3 17/35/3 41/36/3 42/38/3
f 19/39/3 18/37/3 42/38/3 43/40/3
f 20/41/3 19/39/3 43/40/3 44/42/3
f 21/43/3 20/41/3 44/42/3 45/44/3
f 22/45/3 21/43/3 45/44/3 46/46/3
f 23/47/3 22/45/3 46/46/3 47/48/3
f 24/49/3 23/47/3 47/48/3 48/50/3
f 1/6/3 24/49/3 48/50/3 25/7/3
f 7/17/4 8/19/5 56/51/5 55/52/4
f 22/45/6 23/47/7 71/53/7 70/54/6
f 15/2/2 16/33/8 64/55/8 63/3/2
f 8/19/5 9/21/9 57/56/9 56/51/5
f 23/47/7 24/49/10 72/57/10 71/53/7
f 1/6/11 2/5/12 50/58/12 49/59/11
f 16/33/8 17/35/13 65/60/13 64/55/8
f 9/21/9 10/23/14 58/61/14 57/56/9
f 24/49/10 1/6/11 49/59/11 72/57/10
f 2/5/12 3/9/15 51/62/15 50/58/12
f 17/35/13 18/37/16 66/63/16 65/60/13
f 10/23/14 11/25/17 59/64/17 58/61/14
f 3/9/15 4/11/18 52/65/18 51/62/15
f 18/37/16 19/39/19 67/66/19 66/63/16
f 11/25/17 12/27/20 60/67/20 59/64/17
f 4/11/18 5/13/21 53/68/21 52/65/18
f 19/39/19 20/41/22 68/69/22 67/66/19
f 12/27/20 13/29/23 61/70/23 60/67/20
f 5/13/21 6/15/24 54/71/24 53/68/21
f 20/41/22 21/43/25 69/72/25 68/69/22
f 13/29/23 14/1/1 62/4/1 61/70/23
f 6/15/24 7/17/4 55/52/4 54/71/24
f 21/43/25 22/45/6 70/54/6 69/72/25
f 73/73/26 155/74/27 49/59/27 50/58/26
f 156/75/28 73/73/26 50/58/26 51/62/28
f 157/76/29 156/75/28 51/62/28 52/65/29
f 74/77/30 157/76/29 52/65/29 53/68/30
f 75/78/31 74/77/30 53/68/30 54/71/31
f 76/79/32 75/78/31 54/71/31 55/52/32
f 158/80/33 76/79/32 55/52/32 56/51/33
f 159/81/34 158/80/33 56/51/33 57/56/34
f 77/82/35 159/81/34 57/56/34 58/61/35
f 78/83/36 77/82/35 58/61/35 59/64/36
f 160/84/37 78/83/36 59/64/36 60/67/37
f 161/85/38 160/84/37 60/67/37 61/70/38
f 79/86/39 161/85/38 61/70/38 62/4/39
f 162/87/40 79/86/39 62/4/39 63/3/40
f 163/88/41 162/87/40 63/3/40 64/55/41
f 80/89/42 163/88/41 64/55/41 65/60/42
f 164/90/43 80/89/42 65/60/42 66/63/43
f 165/91/44 164/90/43 66/63/43 67/66/44
f 166/92/45 165/91/44 67/66/44 68/69/45
f 81/93/46 166/92/45 68/69/45 69/72/46
f 167/94/47 81/93/46 69/72/46 70/54/47
f 168/95/48 167/94/47 70/54/47 71/53/48
f 82/96/49 168/95/48 71/53/48 72/57/49
f 155/74/27 82/96/49 72/57/49 49/59/27
f 83/97/50 84/98/51 85/99/52 86/100/53 87/101/54 88/102/55 89/103/56 90/104/57 91/105/58 92/106/59 93/107/60 94/108/61 95/109/62 96/110/63 97/111/64 98/112/65 99/113/66 100/114/67 101/115/68 102/116/69 103/117/70 104/118/71 105/119/72 106/120/73
f 331/121/3 332/122/3 107/123/3 108/124/3
f 333/125/3 331/121/3 108/124/3 109/126/3
f 334/127/3 333/125/3 109/126/3 110/128/3
f 335/129/3 334/127/3 110/128/3 111/130/3
f 336/131/3 335/129/3 111/130/3 112/132/3
f 337/133/3 336/131/3 112/132/3 113/134/3
f 338/135/3 337/133/3 113/134/3 114/136/3
f 339/137/3 338/135/3 114/136/3 115/138/3
f 340/139/3 339/137/3 115/138/3 116/140/3
f 341/141/3 340/139/3 116/140/3 117/142/3
f 342/143/3 341/141/3 117/142/3 118/144/3
f 343/145/3 342/143/3 118/144/3 119/146/3
f 344/147/3 343/145/3 119/146/3 120/148/3
f 345/149/3 344/147/3 120/148/3 121/150/3
f 346/151/3 345/149/3 121/150/3 122/152/3
f 347/153/3 346/151/3 122/152/3 123/154/3
f 348/155/3 347/153/3 123/154/3 124/156/3
f 349/157/3 348/155/3 124/156/3 125/158/3
f 350/159/3 349/157/3 125/158/3 126/160/3
f 351/161/3 350/159/3 126/160/3 127/162/3
f 352/163/3 351/161/3 127/162/3 128/164/3
f 353/165/3 352/163/3 128/164/3 129/166/3
f 354/167/3 353/165/3 129/166/3 130/168/3
f 332/122/3 354/167/3 130/168/3 107/123/3
f 84/98/51 83/97/50 131/169/74 132/170/75
f 85/99/52 84/98/51 132/170/75 133/171/76
f 86/100/53 85/99/52 133/171/76 134/172/77
f 87/101/54 86/100/53 134/172/77 135/173/78
f 88/102/55 87/101/54 135/173/78 136/174/79
f 89/103/56 88/102/55 136/174/79 137/175/80
f 90/104/57 89/103/56 137/175/80 138/176/81
f 91/105/58 90/104/57 138/176/81 139/177/82
f 92/106/59 91/105/58 139/177/82 140/178/83
f 93/107/60 92/106/59 140/178/83 141/179/84
f 94/108/61 93/107/60 141/179/84 142/180/85
f 95/109/62 94/108/61 142/180/85 143/181/86
f 96/110/63 95/109/62 143/181/86 144/182/87
f 97/111/64 96/110/63 144/182/87 145/183/88
f 98/112/65 97/111/64 145/183/88 146/184/89
f 99/113/66 98/112/65 146/184/89 147/185/90
f 100/114/67 99/113/66 147/185/90 148/186/91
f 101/115/68 100/114/67 148/186/91 149/187/92
f 102/116/69 101/115/68 149/187/92 150/188/93
f 103/117/70 102/116/69 150/188/93 151/189/94
f 104/118/71 103/117/70 151/189/94 152/190/95
f 105/119/72 104/118/71 152/190/95 153/191/96
f 106/120/73 105/119/72 153/191/96 154/192/97
f 83/97/50 106/120/73 154/192/97 131/169/74
f 107/123/98 130/168/99 82/96/99 155/74/98
f 130/168/99 129/166/100 168/95/101 82/96/99
f 129/166/100 128/164/102 167/94/103 168/95/101
f 128/164/102 127/162/104 81/93/104 167/94/103
f 127/162/104 126/160/105 166/92/106 81/93/104
f 126/160/105 125/158/107 165/91/107 166/92/106
f 125/158/107 124/156/108 164/90/109 165/91/107
f 124/156/108 123/154/110 80/89/110 164/90/109
f 123/154/110 122/152/111 163/88/112 80/89/110
f 122/152/111 121/150/113 162/87/114 163/88/112
f 121/150/113 120/148/115 79/86/115 162/87/114
f 120/148/115 119/146/116 161/85/117 79/86/115
f 119/146/116 118/144/118 160/84/119 161/85/117
f 118/144/118 117/142/120 78/83/121 160/84/119
f 117/142/120 116/140/122 77/82/122 78/83/121
f 116/140/122 115/138/123 159/81/123 77/82/122
f 115/138/123 114/136/124 158/80/124 159/81/123
f 114/136/124 113/134/125 76/79/126 158/80/124
f 113/134/125 112/132/127 75/78/127 76/79/126
f 112/132/127 111/130/128 74/77/129 75/78/127
f 111/130/128 110/128/130 157/76/131 74/77/129
f 110/128/130 109/126/132 156/75/133 157/76/131
f 109/126/132 108/124/134 73/73/134 156/75/133
f 108/124/134 107/123/98 155/74/98 73/73/134
f 169/193/19 175/194/13 176/195/135 170/196/136
f 170/196/136 176/195/135 177/197/137 171/198/138
f 171/199/138 177/200/137 178/201/21 172/202/4
f 172/202/4 178/201/21 179/203/139 173/204/140
f 173/204/140 179/203/139 180/205/141 174/206/142
f 174/206/142 180/205/141 175/194/13 169/193/19
f 175/194/13 181/207/2 182/208/143 176/195/135
f 176/195/135 182/208/143 183/209/144 177/197/137
f 177/200/137 183/210/144 184/211/15 178/201/21
f 178/201/21 184/211/15 185/212/145 179/203/139
f 179/203/139 185/212/145 186/213/146 180/205/141
f 180/205/141 186/213/146 181/207/2 175/194/13
f 181/207/2 187/214/23 188/215/147 182/208/143
f 182/208/143 188/215/147 189/216/148 183/209/144
f 183/210/144 189/217/148 190/218/11 184/211/15
f 184/211/15 190/218/11 191/219/149 185/212/145
f 185/212/145 191/219/149 192/220/150 186/213/146
f 186/213/146 192/220/150 187/214/23 181/207/2
f 187/214/23 193/221/17 194/222/151 188/215/147
f 188/215/147 194/222/151 195/223/152 189/216/148
f 189/217/148 195/224/152 196/225/7 190/218/11
f 190/218/11 196/225/7 197/226/153 191/219/149
f 191/219/149 197/226/153 198/227/154 192/220/150
f 192/220/150 198/227/154 193/221/17 187/214/23
f 193/221/17 199/228/9 200/229/155 194/222/151
f 194/222/151 200/229/155 201/230/156 195/223/152
f 195/224/152 201/231/156 202/232/25 196/225/7
f 196/225/7 202/232/25 203/233/157 197/226/153
f 197/226/153 203/233/157 204/234/158 198/227/154
f 198/227/154 204/234/158 199/228/9 193/221/17
f 199/228/9 205/235/4 206/236/159 200/229/155
f 200/229/155 206/236/159 207/237/160 201/230/156
f 201/231/156 207/238/160 208/239/19 202/232/25
f 202/232/25 208/239/19 209/240/161 203/233/157
f 203/233/157 209/240/161 210/241/162 204/234/158
f 204/234/158 210/241/162 205/235/4 199/228/9
f 205/235/4 211/242/21 212/243/163 206/236/159
f 206/236/159 212/243/163 213/244/164 207/237/160
f 207/238/160 213/245/164 214/246/13 208/239/19
f 208/239/19 214/246/13 215/247/165 209/240/161
f 209/240/161 215/247/165 216/248/166 210/241/162
f 210/241/162 216/248/166 211/242/21 205/235/4
f 211/242/21 217/249/15 218/250/167 212/243/163
f 212/243/163 218/250/167 219/251/168 213/244/164
f 213/245/164 219/252/168 220/253/2 214/246/13
f 214/246/13 220/253/2 221/254/169 215/247/165
f 215/247/165 221/254/169 222/255/170 216/248/166
f 216/248/166 222/255/170 217/249/15 211/242/21
f 217/249/15 223/256/11 224/257/171 218/250/167
f 218/250/167 224/257/171 225/258/172 219/251/168
f 219/252/168 225/259/172 226/260/23 220/253/2
f 220/253/2 226/260/23 227/261/173 221/254/169
f 221/254/169 227/261/173 228/262/174 222/255/170
f 222/255/170 228/262/174 223/256/11 217/249/15
f 223/256/11 229/263/7 230/264/175 224/257/171
f 224/257/171 230/264/175 231/265/176 225/258/172
f 225/259/172 231/266/176 232/267/17 226/260/23
f 226/260/23 232/267/17 233/268/177 227/261/173
f 227/261/173 233/268/177 234/269/178 228/262/174
f 228/262/174 234/269/178 229/263/7 223/256/11
f 229/270/7 235/271/25 236/272/179 230/273/175
f 230/273/175 236/272/179 237/274/180 231/275/176
f 231/276/176 237/277/180 238/278/9 232/279/17
f 232/279/17 238/278/9 239/280/181 233/281/177
f 233/281/177 239/280/181 240/282/182 234/283/178
f 234/283/178 240/282/182 235/271/25 229/270/7
f 235/271/25 169/193/19 170/196/136 236/272/179
f 236/272/179 170/196/136 171/198/138 237/274/180
f 237/277/180 171/199/138 172/202/4 238/278/9
f 238/278/9 172/202/4 173/204/140 239/280/181
f 239/280/181 173/204/140 174/206/142 240/282/182
f 240/282/182 174/206/142 169/193/19 235/271/25
f 253/284/183 242/285/183 244/286/184 254/287/184
f 254/287/184 244/286/184 246/288/185 255/289/185
f 255/290/185 246/291/185 248/292/186 256/293/186
f 256/293/186 248/292/186 250/294/187 257/295/187
f 257/295/187 250/294/187 252/296/188 258/297/188
f 258/297/188 252/296/188 242/285/183 253/284/183
f 241/298/3 243/299/3 245/300/3 247/301/3 249/302/3 251/303/3
f 319/304/189 321/305/190 297/306/191 298/307/192
f 324/308/193 323/309/194 293/310/195 294/311/196
f 312/312/197 311/313/198 303/314/199 305/315/200
f 251/316/201 258/317/9 260/318/202 259/319/203
f 253/320/23 241/321/204 262/322/205 261/323/206
f 241/321/204 251/316/201 259/319/203 262/322/205
f 249/324/207 257/325/21 264/326/208 263/327/209
f 258/328/9 251/329/201 266/330/210 265/331/211
f 251/329/201 249/324/207 263/327/209 266/330/210
f 247/332/212 256/333/11 268/334/213 267/335/214
f 257/336/21 249/337/207 270/338/215 269/339/216
f 249/337/207 247/332/212 267/335/214 270/338/215
f 245/340/217 255/341/25 272/342/218 271/343/219
f 256/344/11 247/345/212 274/346/220 273/347/221
f 247/345/212 245/340/217 271/343/219 274/346/220
f 243/348/222 254/349/13 276/350/223 275/351/224
f 255/352/25 245/353/217 278/354/225 277/355/226
f 245/353/217 243/348/222 275/351/224 278/354/225
f 241/356/204 253/357/23 280/358/227 279/359/228
f 254/360/13 243/361/222 282/362/229 281/363/230
f 243/361/222 241/356/204 279/359/228 282/362/229
f 315/364/231 317/365/232 301/366/233 302/367/234
f 313/368/235 312/312/197 305/315/200 306/369/236
f 308/370/237 307/371/238 283/372/239 284/373/240
f 328/374/241 327/375/242 287/376/243 288/377/244
f 309/378/245 308/370/237 284/373/240 285/379/246
f 326/380/247 325/381/248 291/382/249 292/383/250
f 329/384/251 328/374/241 288/377/244 289/385/252
f 322/386/253 320/387/254 295/388/255 296/389/256
f 323/309/194 326/380/247 292/383/250 293/310/195
f 318/390/257 316/391/258 299/392/259 300/393/260
f 321/305/190 322/386/253 296/389/256 297/306/191
f 311/313/198 314/394/261 304/395/262 303/314/199
f 310/396/263 309/378/245 285/379/246 286/397/264
f 317/365/232 318/390/257 300/393/260 301/366/233
f 330/398/265 329/384/251 289/385/252 290/399/266
f 261/323/206 262/322/205 309/378/245 310/396/263
f 262/322/205 259/319/203 308/370/237 309/378/245
f 259/319/203 260/318/202 307/371/238 308/370/237
f 279/359/228 280/358/227 314/394/261 311/313/198
f 281/363/230 282/362/229 312/312/197 313/368/235
f 282/362/229 279/359/228 311/313/198 312/312/197
f 278/354/225 275/351/224 318/390/257 317/365/232
f 275/351/224 276/350/223 316/391/258 318/390/257
f 277/355/226 278/354/225 317/365/232 315/364/231
f 274/346/220 271/343/219 322/386/253 321/305/190
f 271/343/219 272/342/218 320/387/254 322/386/253
f 273/347/221 274/346/220 321/305/190 319/304/189
f 270/338/215 267/335/214 326/380/247 323/309/194
f 267/335/214 268/334/213 325/381/248 326/380/247
f 269/339/216 270/338/215 323/309/194 324/308/193
f 265/331/211 266/330/210 329/384/251 330/398/265
f 266/330/210 263/327/209 328/374/241 329/384/251
f 263/327/209 264/326/208 327/375/242 328/374/241
f 131/169/74 154/192/97 354/167/267 332/122/268
f 154/192/97 153/191/96 353/165/269 354/167/267
f 153/191/96 152/190/95 352/163/270 353/165/269
f 152/190/95 151/189/94 351/161/271 352/163/270
f 151/189/94 150/188/93 350/159/272 351/161/271
f 150/188/93 149/187/92 349/157/273 350/159/272
f 149/187/92 148/186/91 348/155/274 349/157/273
f 148/186/91 147/185/90 347/153/275 348/155/274
f 147/185/90 146/184/89 346/151/276 347/153/275
f 146/184/89 145/183/88 345/149/277 346/151/276
f 145/183/88 144/182/87 344/147/278 345/149/277
f 144/182/87 143/181/86 343/145/279 344/147/278
f 143/181/86 142/180/85 342/143/280 343/145/279
f 142/180/85 141/179/84 341/141/281 342/143/280
f 141/179/84 140/178/83 340/139/282 341/141/281
f 140/178/83 139/177/82 339/137/283 340/139/282
f 139/177/82 138/176/81 338/135/284 339/137/283
f 138/176/81 137/175/80 337/133/285 338/135/284
f 137/175/80 136/174/79 336/131/286 337/133/285
f 136/174/79 135/173/78 335/129/287 336/131/286
f 135/173/78 134/172/77 334/127/288 335/129/287
f 134/172/77 133/171/76 333/125/289 334/127/288
f 133/171/76 132/170/75 331/121/290 333/125/289
f 132/170/75 131/169/74 332/122/268 331/121/290
f 374/400/11 371/401/11 358/402/291 375/403/291
f 372/404/23 355/405/23 368/406/292 386/407/292 373/408/23
f 367/409/25 384/410/25 382/411/293 365/412/293
f 371/401/11 374/400/11 383/413/294 364/414/294 356/415/11
f 375/403/291 358/402/291 360/416/15 377/417/15
f 369/418/295 388/419/295 387/420/2 370/421/2
f 366/422/7 385/423/7 384/410/25 367/409/25
f 370/421/2 387/420/2 386/407/292 368/406/292
f 364/414/294 383/413/294 385/423/7 366/422/7
f 362/424/17 381/425/17 380/426/296 363/427/296
f 365/412/293 382/411/293 388/419/295 369/418/295
f 378/428/21 359/429/21 357/430/297 376/431/297
f 363/427/296 380/426/296 376/431/297 357/430/297
f 361/432/298 379/433/298 381/425/17 362/424/17
f 377/417/15 360/416/15 359/429/21 378/428/21
f 379/433/298 361/432/298 372/404/23 373/408/23
f 355/434/299 372/435/299 371/436/299 356/437/299
f 381/425/3 379/433/3 373/408/3 374/400/3 375/403/3 377/417/3 378/428/3 376/431/3 380/426/3
f 388/419/3 382/411/3 384/410/3 385/423/3 383/413/3 374/400/3 373/408/3 386/407/3 387/420/3
s 0
f 389/438/2 390/439/2 392/440/2 391/441/2
f 391/441/19 392/440/19 394/442/19 393/443/19
f 393/443/7 394/442/7 396/444/7 395/445/7
f 395/445/15 396/444/15 398/446/15 397/447/15
f 397/447/4 398/446/4 400/448/4 399/449/4
f 399/449/17 400/448/17 390/439/17 389/438/17
f 389/438/3 391/441/3 393/443/3 395/445/3 397/447/3 399/449/3
s 1
f 420/450/4 417/451/4 404/452/300 421/453/300
f 418/454/19 401/455/19 414/456/301 432/457/301 419/458/19
f 413/459/15 430/460/15 428/461/302 411/462/302
f 417/451/4 420/450/4 429/463/303 410/464/303 402/465/4
f 421/453/300 404/452/300 406/466/9 423/467/9
f 415/468/304 434/469/304 433/470/25 416/471/25
f 412/472/21 431/473/21 430/460/15 413/459/15
f 416/471/25 433/470/25 432/457/301 414/456/301
f 410/464/303 429/463/303 431/473/21 412/472/21
f 408/474/13 427/475/13 426/476/305 409/477/305
f 411/462/302 428/461/302 434/469/304 415/468/304
f 424/478/17 405/479/17 403/480/306 422/481/306
f 409/477/305 426/476/305 422/481/306 403/480/306
f 407/482/307 425/483/307 427/475/13 408/474/13
f 423/467/9 406/466/9 405/479/17 424/478/17
f 425/483/307 407/482/307 418/454/19 419/458/19
f 401/484/308 418/485/308 417/486/308 402/487/308
f 427/475/3 425/483/3 419/458/3 420/450/3 421/453/3 423/467/3 424/478/3 422/481/3 426/476/3
f 434/469/3 428/461/3 430/460/3 431/473/3 429/463/3 420/450/3 419/458/3 432/457/3 433/470/3
s 0
f 435/488/25 436/489/25 438/490/25 437/491/25
f 437/491/11 438/490/11 440/492/11 439/493/11
f 439/493/21 440/492/21 442/494/21 441/495/21
f 441/495/9 442/494/9 444/496/9 443/497/9
f 443/497/23 444/496/23 446/498/23 445/499/23
f 445/499/13 446/498/13 436/489/13 435/488/13
f 435/488/3 437/491/3 439/493/3 441/495/3 443/497/3 445/499/3
s 1
f 466/500/19 463/501/19 450/502/301 467/503/301
f 464/504/4 447/505/4 460/506/300 478/507/300 465/508/4
f 459/509/2 476/510/2 474/511/309 457/512/309
f 463/501/19 466/500/19 475/513/307 456/514/307 448/515/19
f 467/503/301 450/502/301 452/516/25 469/517/25
f 461/518/310 480/519/310 479/520/9 462/521/9
f 458/522/13 477/523/13 476/510/2 459/509/2
f 462/521/9 479/520/9 478/507/300 460/506/300
f 456/514/307 475/513/307 477/523/13 458/522/13
f 454/524/21 473/525/21 472/526/311 455/527/311
f 457/512/309 474/511/309 480/519/310 461/518/310
f 470/528/7 451/529/7 449/530/312 468/531/312
f 455/527/311 472/526/311 468/531/312 449/530/312
f 453/532/303 471/533/303 473/525/21 454/524/21
f 469/517/25 452/516/25 451/529/7 470/528/7
f 471/533/303 453/532/303 464/504/4 465/508/4
f 447/534/313 464/535/313 463/536/313 448/537/313
f 473/525/3 471/533/3 465/508/3 466/500/3 467/503/3 469/517/3 470/528/3 468/531/3 472/526/3
f 480/519/3 474/511/3 476/510/3 477/523/3 475/513/3 466/500/3 465/508/3 478/507/3 479/520/3
s 0
f 481/538/9 482/539/9 484/540/9 483/541/9
f 483/541/23 484/540/23 486/542/23 485/543/23
f 485/543/13 486/542/13 488/544/13 487/545/13
f 487/545/25 488/544/25 490/546/25 489/547/25
f 489/547/11 490/546/11 492/548/11 491/549/11
f 491/549/21 492/548/21 482/539/21 481/538/21
f 481/538/3 483/541/3 485/543/3 487/545/3 489/547/3 491/549/3
s 1
f 512/550/18 509/551/18 496/552/314 513/553/314
f 510/554/8 493/555/8 506/556/315 524/557/315 511/558/8
f 505/559/10 522/560/10 520/561/316 503/562/316
f 509/551/18 512/550/18 521/563/317 502/564/317 494/565/18
f 513/553/314 496/552/314 498/566/24 515/567/24
f 507/568/318 526/569/318 525/570/16 508/571/16
f 504/572/12 523/573/12 522/560/10 505/559/10
f 508/571/16 525/570/16 524/557/315 506/556/315
f 502/564/317 521/563/317 523/573/12 504/572/12
f 500/574/1 519/575/1 518/576/319 501/577/319
f 503/562/316 520/561/316 526/569/318 507/568/318
f 516/578/5 497/579/5 495/580/320 514/581/320
f 501/577/319 518/576/319 514/581/320 495/580/320
f 499/582/321 517/583/321 519/575/1 500/574/1
f 515/567/24 498/566/24 497/579/5 516/578/5
f 517/583/321 499/582/321 510/554/8 511/558/8
f 493/584/322 510/585/322 509/586/322 494/587/322
f 519/575/3 517/583/3 511/558/3 512/550/3 513/553/3 515/567/3 516/578/3 514/581/3 518/576/3
f 526/569/3 520/561/3 522/560/3 523/573/3 521/563/3 512/550/3 511/558/3 524/557/3 525/570/3
s 0
f 527/588/16 528/589/16 530/590/16 529/591/16
f 529/591/6 530/590/6 532/592/6 531/593/6
f 531/593/12 532/592/12 534/594/12 533/595/12
f 533/595/24 534/594/24 536/596/24 535/597/24
f 535/597/14 536/596/14 538/598/14 537/599/14
f 537/599/1 538/598/1 528/589/1 527/588/1
f 527/588/3 529/591/3 531/593/3 533/595/3 535/597/3 537/599/3
s 1
f 558/600/6 555/601/6 542/602/323 559/603/323
f 556/604/14 539/605/14 552/606/324 570/607/324 557/608/14
f 551/609/16 568/610/16 566/611/325 549/612/325
f 555/601/6 558/600/6 567/613/326 548/614/326 540/615/6
f 559/603/323 542/602/323 544/616/10 561/617/10
f 553/618/327 572/619/327 571/620/20 554/621/20
f 550/622/22 569/623/22 568/610/16 551/609/16
f 554/621/20 571/620/20 570/607/324 552/606/324
f 548/614/326 567/613/326 569/623/22 550/622/22
f 546/624/5 565/625/5 564/626/328 547/627/328
f 549/612/325 566/611/325 572/619/327 553/618/327
f 562/628/12 543/629/12 541/630/329 560/631/329
f 547/627/328 564/626/328 560/631/329 541/630/329
f 545/632/330 563/633/330 565/625/5 546/624/5
f 561/617/10 544/616/10 543/629/12 562/628/12
f 563/633/330 545/632/330 556/604/14 557/608/14
f 539/634/331 556/635/331 555/636/331 540/637/331
f 565/625/3 563/633/3 557/608/3 558/600/3 559/603/3 561/617/3 562/628/3 560/631/3 564/626/3
f 572/619/3 566/611/3 568/610/3 569/623/3 567/613/3 558/600/3 557/608/3 570/607/3 571/620/3
s 0
f 573/638/20 574/639/20 576/640/20 575/641/20
f 575/641/8 576/640/8 578/642/8 577/643/8
f 577/643/22 578/642/22 580/644/22 579/645/22
f 579/645/10 580/644/10 582/646/10 581/647/10
f 581/647/18 582/646/18 584/648/18 583/649/18
f 583/649/5 584/648/5 574/639/5 573/638/5
f 573/638/3 575/641/3 577/643/3 579/645/3 581/647/3 583/649/3
s 1
f 604/650/14 601/651/14 588/652/324 605/653/324
f 602/654/6 585/655/6 598/656/323 616/657/323 603/658/6
f 597/659/24 614/660/24 612/661/332 595/662/332
f 601/651/14 604/650/14 613/663/330 594/664/330 586/665/14
f 605/653/324 588/652/324 590/666/20 607/667/20
f 599/668/333 618/669/333 617/670/10 600/671/10
f 596/672/5 615/673/5 614/660/24 597/659/24
f 600/671/10 617/670/10 616/657/323 598/656/323
f 594/664/330 613/663/330 615/673/5 596/672/5
f 592/674/22 611/675/22 610/676/334 593/677/334
f 595/662/332 612/661/332 618/669/333 599/668/333
f 608/678/1 589/679/1 587/680/335 606/681/335
f 593/677/334 610/676/334 606/681/335 587/680/335
f 591/682/326 609/683/326 611/675/22 592/674/22
f 607/667/20 590/666/20 589/679/1 608/678/1
f 609/683/326 591/682/326 602/654/6 603/658/6
f 585/684/336 602/685/336 601/686/336 586/687/336
f 611/675/3 609/683/3 603/658/3 604/650/3 605/653/3 607/667/3 608/678/3 606/681/3 610/676/3
f 618/669/3 612/661/3 614/660/3 615/673/3 613/663/3 604/650/3 603/658/3 616/657/3 617/670/3
s 0
f 619/688/10 620/689/10 622/690/10 621/691/10
f 621/691/18 622/690/18 624/692/18 623/693/18
f 623/693/5 624/692/5 626/694/5 625/695/5
f 625/695/20 626/694/20 628/696/20 627/697/20
f 627/697/8 628/696/8 630/698/8 629/699/8
f 629/699/22 630/698/22 620/689/22 619/688/22
f 619/688/3 621/691/3 623/693/3 625/695/3 627/697/3 629/699/3
s 1
f 650/700/8 647/701/8 634/702/315 651/703/315
f 648/704/18 631/705/18 644/706/314 662/707/314 649/708/18
f 643/709/20 660/710/20 658/711/337 641/712/337
f 647/701/8 650/700/8 659/713/321 640/714/321 632/715/8
f 651/703/315 634/702/315 636/716/16 653/717/16
f 645/718/338 664/719/338 663/720/24 646/721/24
f 642/722/1 661/723/1 660/710/20 643/709/20
f 646/721/24 663/720/24 662/707/314 644/706/314
f 640/714/321 659/713/321 661/723/1 642/722/1
f 638/724/12 657/725/12 656/726/339 639/727/339
f 641/712/337 658/711/337 664/719/338 645/718/338
f 654/728/22 635/729/22 633/730/340 652/731/340
f 639/727/339 656/726/339 652/731/340 633/730/340
f 637/732/317 655/733/317 657/725/12 638/724/12
f 653/717/16 636/716/16 635/729/22 654/728/22
f 655/733/317 637/732/317 648/704/18 649/708/18
f 631/734/341 648/735/341 647/736/341 632/737/341
f 657/725/3 655/733/3 649/708/3 650/700/3 651/703/3 653/717/3 654/728/3 652/731/3 656/726/3
f 664/719/3 658/711/3 660/710/3 661/723/3 659/713/3 650/700/3 649/708/3 662/707/3 663/720/3
s 0
f 665/738/24 666/739/24 668/740/24 667/741/24
f 667/741/14 668/740/14 670/742/14 669/743/14
f 669/743/1 670/742/1 672/744/1 671/745/1
f 671/745/16 672/744/16 674/746/16 673/747/16
f 673/747/6 674/746/6 676/748/6 675/749/6
f 675/749/12 676/748/12 666/739/12 665/738/12
f 665/738/3 667/741/3 669/743/3 671/745/3 673/747/3 675/749/3
f 677/750/342 678/751/342 680/752/342 679/753/342
f 679/753/343 680/752/343 682/754/343 681/755/343
f 681/755/344 682/754/344 684/756/344 683/757/344
f 683/757/345 684/756/345 686/758/345 685/759/345
f 685/759/346 686/758/346 688/760/346 687/761/346
f 687/761/347 688/760/347 678/751/347 677/750/347
f 677/750/3 679/753/3 681/755/3 683/757/3 685/759/3 687/761/3
f 689/762/344 691/763/344 692/764/344 690/765/344
f 691/763/343 693/766/343 694/767/343 692/764/343
f 693/766/342 695/768/342 696/769/342 694/767/342
f 695/768/347 697/770/347 698/771/347 696/769/347
f 697/770/346 699/772/346 700/773/346 698/771/346
f 699/772/345 689/762/345 690/765/345 700/773/345
f 689/762/3 699/772/3 697/770/3 695/768/3 693/766/3 691/763/3
