# Blender 4.1.1
# www.blender.org
o Headlight_Visor
v 0.127645 0.221088 -0.448551
v 0.066074 0.246591 -0.448551
v 0.000000 0.255290 -0.448551
v -0.066074 0.246591 -0.448551
v -0.127645 0.221088 -0.448551
v 0.255290 0.009768 -0.320895
v 0.252101 -0.024224 -0.190469
v 0.253266 -0.015376 -0.257982
v 0.246591 0.066074 -0.385900
v 0.221088 0.127645 -0.425544
v 0.180517 0.180517 -0.444057
v -0.180517 0.180517 -0.444057
v -0.221088 0.127645 -0.425544
v -0.246591 0.066074 -0.385900
v -0.253899 0.010564 -0.320895
v -0.252101 -0.024224 -0.190469
v -0.253266 -0.015376 -0.257982
v -0.180517 0.180517 -0.190469
v 0.000000 0.255290 -0.190469
v -0.246591 0.066074 -0.190469
v -0.255290 -0.000000 -0.190469
v -0.066074 0.246591 -0.190469
v -0.221088 0.127645 -0.190469
v -0.127645 0.221088 -0.190469
v 0.127645 0.221088 -0.190469
v 0.180517 0.180517 -0.190469
v 0.246591 0.066074 -0.190469
v 0.066074 0.246591 -0.190469
v 0.221088 0.127645 -0.190469
v 0.255290 -0.000000 -0.190469
v 0.123560 0.214013 -0.448551
v 0.063960 0.238700 -0.448551
v 0.000000 0.247121 -0.448551
v -0.063960 0.238700 -0.448551
v -0.123560 0.214013 -0.448551
v 0.247125 0.009498 -0.320895
v 0.244002 -0.023157 -0.190469
v 0.245166 -0.014310 -0.257982
v 0.238724 0.063875 -0.385900
v 0.214034 0.123524 -0.425544
v 0.174749 0.174733 -0.444057
v -0.174749 0.174733 -0.444057
v -0.214034 0.123524 -0.425544
v -0.238724 0.063875 -0.385900
v -0.245800 0.009498 -0.320895
v -0.244002 -0.023157 -0.190469
v -0.245166 -0.014310 -0.257982
v -0.174741 0.174741 -0.190469
v 0.000000 0.247121 -0.190469
v -0.238700 0.063960 -0.190469
v -0.247121 -0.000000 -0.190469
v -0.063960 0.238700 -0.190469
v -0.214013 0.123560 -0.190469
v -0.123560 0.214013 -0.190469
v 0.123560 0.214013 -0.190469
v 0.174741 0.174741 -0.190469
v 0.238700 0.063960 -0.190469
v 0.063960 0.238700 -0.190469
v 0.214013 0.123560 -0.190469
v 0.247121 -0.000000 -0.190469
vn 0.9938 -0.1108 -0.0046
vn 0.9933 0.1156 0.0033
vn 0.9999 0.0102 -0.0004
vn 0.8470 0.5317 -0.0000
vn 0.8660 0.5000 -0.0000
vn 0.9643 0.2649 0.0022
vn 0.9462 0.3236 0.0011
vn 0.6963 0.7177 -0.0000
vn 0.7071 0.7071 -0.0000
vn 0.4975 0.8675 -0.0000
vn 0.5000 0.8660 -0.0000
vn -0.6963 0.7177 -0.0000
vn -0.7071 0.7071 -0.0000
vn -0.5000 0.8660 -0.0000
vn -0.4975 0.8675 -0.0000
vn -0.2588 0.9659 -0.0000
vn -0.0000 1.0000 -0.0000
vn -0.9999 0.0157 -0.0052
vn -0.9659 0.2588 -0.0000
vn -0.9470 0.3211 -0.0000
vn -0.9943 0.1067 -0.0011
vn -0.9961 -0.0882 -0.0098
vn -0.8660 0.5000 -0.0000
vn -0.8470 0.5317 -0.0000
vn 0.2588 0.9659 -0.0000
vn -0.9935 0.1137 0.0047
vn -1.0000 -0.0089 0.0004
vn -0.9932 -0.1168 -0.0033
vn -0.8464 -0.5325 -0.0000
vn -0.9458 -0.3248 -0.0010
vn -0.9643 -0.2649 -0.0021
vn -0.8661 -0.4999 -0.0000
vn -0.6960 -0.7181 -0.0000
vn -0.7071 -0.7071 -0.0000
vn -0.4974 -0.8675 -0.0000
vn -0.5000 -0.8660 -0.0000
vn 0.6960 -0.7181 -0.0000
vn 0.4974 -0.8675 -0.0000
vn 0.5000 -0.8660 -0.0000
vn 0.7071 -0.7071 -0.0000
vn 0.2588 -0.9659 -0.0000
vn -0.0000 -1.0000 -0.0000
vn 0.9999 -0.0138 0.0050
vn 0.9943 -0.1071 0.0011
vn 0.9468 -0.3218 0.0001
vn 0.9660 -0.2584 0.0001
vn 0.9957 0.0920 0.0093
vn 0.8661 -0.4999 -0.0000
vn 0.8464 -0.5325 -0.0000
vn -0.2588 -0.9659 -0.0000
vn -0.0000 -0.0000 -1.0000
vn 0.0272 -0.0208 -0.9994
vn 0.0271 -0.0208 -0.9994
vn -0.0272 -0.0208 -0.9994
vn -0.0271 -0.0208 -0.9994
vn -0.0884 -0.9646 -0.2485
vn -0.1294 -0.9829 -0.1310
vn -0.0879 -0.9643 -0.2499
vn 0.1858 -0.3494 -0.9184
vn 0.1607 -0.6233 -0.7653
vn 0.1614 -0.6211 -0.7669
vn 0.1858 -0.3490 -0.9185
vn 0.1108 -0.1290 -0.9854
vn 0.1107 -0.1289 -0.9855
vn -0.0791 -0.8509 -0.5193
vn -0.1798 -0.6211 -0.7628
vn -0.1799 -0.6202 -0.7635
vn -0.0763 -0.8544 -0.5140
vn 0.0662 -0.9659 -0.2502
vn 0.0646 -0.9653 -0.2531
vn 0.1294 -0.9829 -0.1310
vn -0.1108 -0.1290 -0.9854
vn -0.1107 -0.1289 -0.9855
vn -0.1858 -0.3494 -0.9184
vn -0.1858 -0.3490 -0.9185
vn 0.0345 -0.8562 -0.5156
vn 0.0365 -0.8540 -0.5190
vn -0.0000 -0.0000 1.0000
vt 0.676450 0.583367
vt 0.665496 0.581922
vt 0.655287 0.577834
vt 0.676449 0.579403
vt 0.638309 0.557778
vt 0.676448 0.557779
vt 0.676448 0.568591
vt 0.644741 0.568590
vt 0.635306 0.546966
vt 0.676448 0.546966
vt 0.634577 0.536153
vt 0.676448 0.536154
vt 0.635307 0.482092
vt 0.676449 0.482093
vt 0.676449 0.492905
vt 0.634578 0.492904
vt 0.676449 0.503717
vt 0.676449 0.514530
vt 0.634578 0.514529
vt 0.634578 0.503717
vt 0.676450 0.449656
vt 0.676449 0.460468
vt 0.644743 0.460468
vt 0.655289 0.451384
vt 0.676441 0.445692
vt 0.665491 0.447162
vt 0.676449 0.471281
vt 0.638311 0.471280
vt 0.676448 0.525342
vt 0.634577 0.525341
vt 0.655378 0.372405
vt 0.655379 0.368614
vt 0.676540 0.367089
vt 0.666331 0.370960
vt 0.693518 0.347689
vt 0.687086 0.358162
vt 0.655380 0.358148
vt 0.655380 0.347682
vt 0.696522 0.337218
vt 0.655380 0.337216
vt 0.697251 0.326750
vt 0.655380 0.326750
vt 0.696522 0.274417
vt 0.697251 0.284885
vt 0.655380 0.284885
vt 0.655380 0.274418
vt 0.655380 0.295351
vt 0.697251 0.295351
vt 0.697251 0.305817
vt 0.655380 0.305817
vt 0.655380 0.243020
vt 0.676540 0.244575
vt 0.687086 0.253472
vt 0.655380 0.253486
vt 0.655388 0.239229
vt 0.666338 0.240699
vt 0.655380 0.263952
vt 0.693518 0.263945
vt 0.655380 0.316283
vt 0.697251 0.316283
vt 0.082140 0.909536
vt 0.078011 0.919529
vt 0.076863 0.918867
vt 0.080859 0.909194
vt 0.083541 0.898815
vt 0.082216 0.898816
vt 0.082120 0.888096
vt 0.080840 0.888440
vt 0.077974 0.878111
vt 0.076826 0.878775
vt 0.026572 0.944922
vt 0.015585 0.946084
vt 0.015445 0.944766
vt 0.026433 0.943604
vt 0.062565 0.935022
vt 0.051095 0.940189
vt 0.050677 0.938931
vt 0.061884 0.933885
vt 0.071424 0.928134
vt 0.070485 0.927200
vt 0.037457 0.854370
vt 0.051020 0.857500
vt 0.050604 0.858758
vt 0.037158 0.855661
vt 0.026572 0.852519
vt 0.026399 0.853833
vt 0.015619 0.851072
vt 0.015446 0.852386
vt 0.071371 0.869518
vt 0.070433 0.870454
vt 0.062500 0.862646
vt 0.061820 0.863784
vt 0.037486 0.943576
vt 0.037269 0.942269
vt 0.939785 0.792304
vt 0.938374 0.803024
vt 0.937094 0.802681
vt 0.938460 0.792304
vt 0.909087 0.832311
vt 0.898368 0.833722
vt 0.898368 0.832397
vt 0.908744 0.831031
vt 0.934236 0.813013
vt 0.933089 0.812350
vt 0.894437 0.833205
vt 0.894610 0.831891
vt 0.927654 0.821591
vt 0.926717 0.820654
vt 0.919076 0.828173
vt 0.918414 0.827025
vt 0.909087 0.752298
vt 0.919076 0.756435
vt 0.918414 0.757583
vt 0.908744 0.753578
vt 0.927654 0.763017
vt 0.926717 0.763954
vt 0.934236 0.771595
vt 0.933089 0.772258
vt 0.894437 0.751404
vt 0.898368 0.750886
vt 0.898368 0.752212
vt 0.894610 0.752718
vt 0.938374 0.781584
vt 0.937094 0.781927
s 1
f 7/1/1 8/2/1 6/3/2 30/4/3
f 10/5/4 29/6/5 27/7/6 9/8/7
f 11/9/8 26/10/9 29/6/5 10/5/4
f 1/11/10 25/12/11 26/10/9 11/9/8
f 12/13/12 18/14/13 24/15/14 5/16/15
f 22/17/16 19/18/17 3/19/17 4/20/16
f 21/21/18 20/22/19 14/23/20 15/24/21
f 24/15/14 22/17/16 4/20/16 5/16/15
f 16/25/22 21/21/18 15/24/21 17/26/22
f 23/27/23 18/14/13 12/13/12 13/28/24
f 20/22/19 23/27/23 13/28/24 14/23/20
f 28/29/25 25/12/11 1/11/10 2/30/25
f 27/7/6 30/4/3 6/3/2 9/8/7
f 19/18/17 28/29/25 2/30/25 3/19/17
f 37/31/26 60/32/27 36/33/28 38/34/26
f 40/35/29 39/36/30 57/37/31 59/38/32
f 41/39/33 40/35/29 59/38/32 56/40/34
f 31/41/35 41/39/33 56/40/34 55/42/36
f 42/43/37 35/44/38 54/45/39 48/46/40
f 52/47/41 34/48/41 33/49/42 49/50/42
f 51/51/43 45/52/44 44/53/45 50/54/46
f 54/45/39 35/44/38 34/48/41 52/47/41
f 46/55/47 47/56/47 45/52/44 51/51/43
f 53/57/48 43/58/49 42/43/37 48/46/40
f 50/54/46 44/53/45 43/58/49 53/57/48
f 58/59/50 32/60/50 31/41/35 55/42/36
f 57/37/31 39/36/30 36/33/28 60/32/27
f 49/50/42 33/49/42 32/60/50 58/59/50
f 2/61/51 1/62/52 31/63/53 32/64/51
f 3/65/51 2/61/51 32/64/51 33/66/51
f 4/67/51 3/65/51 33/66/51 34/68/51
f 5/69/54 4/67/51 34/68/51 35/70/55
f 8/71/56 7/72/57 37/73/57 38/74/58
f 10/75/59 9/76/60 39/77/61 40/78/62
f 11/79/63 10/75/59 40/78/62 41/80/64
f 1/62/52 11/79/63 41/80/64 31/63/53
f 15/81/65 14/82/66 44/83/67 45/84/68
f 17/85/69 15/81/65 45/84/68 47/86/70
f 16/87/71 17/85/69 47/86/70 46/88/71
f 12/89/72 5/69/54 35/70/55 42/90/73
f 13/91/74 12/89/72 42/90/73 43/92/75
f 14/82/66 13/91/74 43/92/75 44/83/67
f 6/93/76 8/71/56 38/74/58 36/94/77
f 19/95/78 22/96/78 52/97/78 49/98/78
f 20/99/78 21/100/78 51/101/78 50/102/78
f 22/96/78 24/103/78 54/104/78 52/97/78
f 21/100/78 16/105/78 46/106/78 51/101/78
f 24/103/78 18/107/78 48/108/78 54/104/78
f 18/107/78 23/109/78 53/110/78 48/108/78
f 23/109/78 20/99/78 50/102/78 53/110/78
f 27/111/78 29/112/78 59/113/78 57/114/78
f 29/112/78 26/115/78 56/116/78 59/113/78
f 26/115/78 25/117/78 55/118/78 56/116/78
f 7/119/78 30/120/78 60/121/78 37/122/78
f 25/117/78 28/123/78 58/124/78 55/118/78
f 30/120/78 27/111/78 57/114/78 60/121/78
f 28/123/78 19/95/78 49/98/78 58/124/78
f 9/76/60 6/93/76 36/94/77 39/77/61
