# Blender 4.1.1
# www.blender.org
o Headlight_Electric.001
v 0.000000 0.178337 -0.160924
v 0.006602 0.024638 0.050735
v 0.013203 0.049273 0.037498
v 0.019801 0.073900 0.015436
v 0.026397 0.098516 -0.015436
v 0.032989 0.123117 -0.055129
v 0.039576 0.147700 -0.103626
v 0.046157 0.172260 -0.160924
v 0.000000 0.000000 0.055146
v 0.012754 0.022090 0.050735
v 0.025505 0.044177 0.037498
v 0.038253 0.066257 0.015436
v 0.050996 0.088327 -0.015436
v 0.063730 0.110384 -0.055129
v 0.076455 0.132424 -0.103626
v 0.089168 0.154444 -0.160924
v 0.018036 0.018036 0.050735
v 0.036070 0.036070 0.037498
v 0.054098 0.054098 0.015436
v 0.072119 0.072119 -0.015436
v 0.090128 0.090128 -0.055129
v 0.108124 0.108124 -0.103626
v 0.126103 0.126103 -0.160924
v 0.022090 0.012754 0.050735
v 0.044177 0.025505 0.037498
v 0.066257 0.038253 0.015436
v 0.088327 0.050996 -0.015436
v 0.110384 0.063730 -0.055129
v 0.132424 0.076455 -0.103626
v 0.154444 0.089168 -0.160924
v 0.024638 0.006602 0.050735
v 0.049273 0.013203 0.037498
v 0.073900 0.019801 0.015436
v 0.098516 0.026397 -0.015436
v 0.123117 0.032989 -0.055129
v 0.147700 0.039576 -0.103626
v 0.172260 0.046157 -0.160924
v 0.025507 0.000000 0.050735
v 0.051011 0.000000 0.037498
v 0.076507 -0.000000 0.015436
v 0.101991 -0.000000 -0.015436
v 0.127460 -0.000000 -0.055129
v 0.152910 -0.000000 -0.103626
v 0.178337 -0.000000 -0.160924
v 0.024638 -0.006602 0.050735
v 0.049273 -0.013203 0.037498
v 0.073900 -0.019801 0.015436
v 0.098516 -0.026397 -0.015436
v 0.123117 -0.032989 -0.055129
v 0.147700 -0.039576 -0.103626
v 0.172260 -0.046157 -0.160924
v 0.022090 -0.012754 0.050735
v 0.044177 -0.025505 0.037498
v 0.066257 -0.038253 0.015436
v 0.088327 -0.050996 -0.015436
v 0.110384 -0.063730 -0.055129
v 0.132424 -0.076455 -0.103626
v 0.154444 -0.089168 -0.160924
v 0.018036 -0.018036 0.050735
v 0.036070 -0.036070 0.037498
v 0.054098 -0.054098 0.015436
v 0.072119 -0.072119 -0.015436
v 0.090128 -0.090128 -0.055129
v 0.108124 -0.108124 -0.103626
v 0.126103 -0.126103 -0.160924
v 0.012754 -0.022090 0.050735
v 0.025505 -0.044177 0.037498
v 0.038253 -0.066257 0.015436
v 0.050996 -0.088327 -0.015436
v 0.063730 -0.110384 -0.055129
v 0.076455 -0.132424 -0.103626
v 0.089168 -0.154444 -0.160924
v 0.006602 -0.024638 0.050735
v 0.013203 -0.049273 0.037498
v 0.019801 -0.073900 0.015436
v 0.026397 -0.098516 -0.015436
v 0.032989 -0.123117 -0.055129
v 0.039576 -0.147700 -0.103626
v 0.046157 -0.172260 -0.160924
v -0.000000 -0.025507 0.050735
v 0.000000 -0.051011 0.037498
v -0.000000 -0.076507 0.015436
v 0.000000 -0.101991 -0.015436
v 0.000000 -0.127460 -0.055129
v 0.000000 -0.152910 -0.103626
v -0.000000 -0.178337 -0.160924
v -0.006602 -0.024638 0.050735
v -0.013203 -0.049273 0.037498
v -0.019801 -0.073900 0.015436
v -0.026397 -0.098516 -0.015436
v -0.032989 -0.123117 -0.055129
v -0.039576 -0.147700 -0.103626
v -0.046157 -0.172260 -0.160924
v -0.012754 -0.022090 0.050735
v -0.025505 -0.044177 0.037498
v -0.038253 -0.066257 0.015436
v -0.050996 -0.088327 -0.015436
v -0.063730 -0.110384 -0.055129
v -0.076455 -0.132424 -0.103626
v -0.089168 -0.154444 -0.160924
v -0.018036 -0.018036 0.050735
v -0.036070 -0.036070 0.037498
v -0.054098 -0.054098 0.015436
v -0.072119 -0.072119 -0.015436
v -0.090128 -0.090128 -0.055129
v -0.108124 -0.108124 -0.103626
v -0.126103 -0.126103 -0.160924
v -0.022090 -0.012754 0.050735
v -0.044177 -0.025505 0.037498
v -0.066257 -0.038253 0.015436
v -0.088327 -0.050996 -0.015436
v -0.110384 -0.063730 -0.055129
v -0.132424 -0.076455 -0.103626
v -0.154444 -0.089168 -0.160924
v -0.024638 -0.006602 0.050735
v -0.049273 -0.013203 0.037498
v -0.073900 -0.019801 0.015436
v -0.098516 -0.026397 -0.015436
v -0.123117 -0.032989 -0.055129
v -0.147700 -0.039576 -0.103626
v -0.172260 -0.046157 -0.160924
v -0.025507 0.000000 0.050735
v -0.051011 0.000000 0.037498
v -0.076507 0.000000 0.015436
v -0.101991 -0.000000 -0.015436
v -0.127460 -0.000000 -0.055129
v -0.152910 -0.000000 -0.103626
v -0.178336 0.000000 -0.160924
v -0.024638 0.006602 0.050735
v -0.049273 0.013203 0.037498
v -0.073900 0.019801 0.015436
v -0.098516 0.026397 -0.015436
v -0.123117 0.032989 -0.055129
v -0.147700 0.039576 -0.103626
v -0.172260 0.046157 -0.160924
v -0.022090 0.012754 0.050735
v -0.044177 0.025505 0.037498
v -0.066257 0.038253 0.015436
v -0.088327 0.050996 -0.015436
v -0.110384 0.063730 -0.055129
v -0.132424 0.076455 -0.103626
v -0.154444 0.089168 -0.160924
v -0.018036 0.018036 0.050735
v -0.036070 0.036070 0.037498
v -0.054098 0.054098 0.015436
v -0.072119 0.072119 -0.015436
v -0.090128 0.090128 -0.055129
v -0.108124 0.108124 -0.103626
v -0.126103 0.126103 -0.160924
v -0.012754 0.022090 0.050735
v -0.025505 0.044177 0.037498
v -0.038253 0.066257 0.015436
v -0.050996 0.088327 -0.015436
v -0.063730 0.110384 -0.055129
v -0.076455 0.132424 -0.103626
v -0.089168 0.154444 -0.160924
v -0.006602 0.024638 0.050735
v -0.013203 0.049273 0.037498
v -0.019801 0.073900 0.015436
v -0.026397 0.098516 -0.015436
v -0.032989 0.123117 -0.055129
v -0.039576 0.147700 -0.103626
v -0.046157 0.172260 -0.160924
v 0.000000 0.025507 0.050735
v -0.000000 0.051011 0.037498
v 0.000000 0.076507 0.015436
v -0.000000 0.101991 -0.015436
v -0.000000 0.127460 -0.055129
v -0.000000 0.152910 -0.103626
v 0.000000 -0.033617 -0.027342
v 0.000000 -0.033617 0.006456
v 0.009705 -0.016809 -0.041550
v 0.016809 -0.029114 -0.027342
v 0.019409 -0.033617 -0.009951
v 0.016809 -0.029114 0.006456
v 0.011132 -0.019282 0.044436
v 0.016809 -0.009704 -0.041550
v 0.029114 -0.016809 -0.027342
v 0.033618 -0.019409 -0.009951
v 0.029114 -0.016809 0.006456
v 0.019282 -0.011132 0.044436
v 0.019409 0.000000 -0.041550
v 0.033618 0.000000 -0.027342
v 0.038818 0.000000 -0.009951
v 0.033618 0.000000 0.006456
v 0.022265 0.000000 0.044436
v 0.016809 0.009705 -0.041550
v 0.029114 0.016809 -0.027342
v 0.033618 0.019409 -0.009951
v 0.029114 0.016809 0.006456
v 0.019282 0.011132 0.044436
v 0.009705 0.016809 -0.041550
v 0.016809 0.029114 -0.027342
v 0.019409 0.033618 -0.009951
v 0.016809 0.029114 0.006456
v 0.011132 0.019282 0.044436
v 0.000000 0.019409 -0.041550
v -0.000000 0.033618 -0.027342
v 0.000000 0.038818 -0.009951
v -0.000000 0.033618 0.006456
v 0.000000 0.022265 0.044436
v 0.000000 0.000000 -0.046751
v -0.009705 0.016809 -0.041550
v -0.016809 0.029114 -0.027342
v -0.019409 0.033618 -0.009951
v -0.016809 0.029114 0.006456
v -0.011132 0.019282 0.044436
v -0.016809 0.009705 -0.041550
v -0.029114 0.016809 -0.027342
v -0.033618 0.019409 -0.009951
v -0.029114 0.016809 0.006456
v -0.019282 0.011132 0.044436
v -0.019409 0.000000 -0.041550
v -0.033618 0.000000 -0.027342
v -0.038818 0.000000 -0.009951
v -0.033618 0.000000 0.006456
v -0.022265 0.000000 0.044436
v -0.016809 -0.009704 -0.041550
v -0.029114 -0.016809 -0.027342
v -0.033618 -0.019409 -0.009951
v -0.029114 -0.016809 0.006456
v -0.019282 -0.011132 0.044436
v -0.009705 -0.016809 -0.041550
v -0.016809 -0.029114 -0.027342
v -0.019409 -0.033617 -0.009951
v -0.016809 -0.029114 0.006456
v -0.011132 -0.019282 0.044436
v 0.000000 -0.019409 -0.041550
v 0.000000 -0.038818 -0.009951
v 0.000000 -0.022265 0.044436
v 0.011990 -0.020768 0.025446
v 0.020768 -0.011990 0.025446
v 0.023980 0.000000 0.025446
v 0.020768 0.011990 0.025446
v 0.011990 0.020768 0.025446
v -0.000000 0.023980 0.025446
v -0.011990 0.020768 0.025446
v -0.020768 0.011990 0.025446
v -0.023980 0.000000 0.025446
v -0.020768 -0.011990 0.025446
v -0.011990 -0.020768 0.025446
v 0.000000 -0.023980 0.025446
vn -0.0000 -0.3307 -0.9438
vn -0.0856 -0.3194 -0.9438
vn -0.0000 -0.0000 -1.0000
vn -0.0000 -0.5680 -0.8230
vn -0.1470 -0.5486 -0.8230
vn -0.0000 -0.7186 -0.6954
vn -0.1860 -0.6942 -0.6954
vn -0.0000 -0.8096 -0.5870
vn -0.2095 -0.7820 -0.5870
vn -0.0000 -0.8653 -0.5013
vn -0.2240 -0.8358 -0.5013
vn -0.0000 -0.9008 -0.4343
vn -0.2331 -0.8701 -0.4343
vn -0.0000 -0.9140 -0.4056
vn -0.2366 -0.8829 -0.4056
vn -0.1653 -0.2864 -0.9438
vn -0.2840 -0.4919 -0.8230
vn -0.3593 -0.6224 -0.6954
vn -0.4048 -0.7011 -0.5870
vn -0.4326 -0.7494 -0.5013
vn -0.4504 -0.7801 -0.4343
vn -0.4570 -0.7916 -0.4056
vn -0.5082 -0.5082 -0.6954
vn -0.4016 -0.4016 -0.8230
vn -0.5725 -0.5725 -0.5870
vn -0.6119 -0.6119 -0.5013
vn -0.6369 -0.6369 -0.4343
vn -0.6463 -0.6463 -0.4056
vn -0.2338 -0.2338 -0.9438
vn -0.2864 -0.1653 -0.9438
vn -0.4919 -0.2840 -0.8230
vn -0.6224 -0.3593 -0.6954
vn -0.7011 -0.4048 -0.5870
vn -0.7494 -0.4326 -0.5013
vn -0.7801 -0.4504 -0.4343
vn -0.7916 -0.4570 -0.4056
vn -0.3194 -0.0856 -0.9438
vn -0.5486 -0.1470 -0.8230
vn -0.6942 -0.1860 -0.6954
vn -0.7820 -0.2095 -0.5870
vn -0.8358 -0.2240 -0.5013
vn -0.8701 -0.2331 -0.4343
vn -0.8829 -0.2366 -0.4056
vn -0.3307 -0.0000 -0.9438
vn -0.5680 -0.0000 -0.8230
vn -0.7186 -0.0000 -0.6954
vn -0.8096 -0.0000 -0.5870
vn -0.8653 -0.0000 -0.5013
vn -0.9008 -0.0000 -0.4343
vn -0.9140 -0.0000 -0.4056
vn -0.3194 0.0856 -0.9438
vn -0.5486 0.1470 -0.8230
vn -0.6942 0.1860 -0.6954
vn -0.7820 0.2095 -0.5870
vn -0.8358 0.2240 -0.5013
vn -0.8701 0.2331 -0.4343
vn -0.8829 0.2366 -0.4056
vn -0.2864 0.1653 -0.9438
vn -0.4919 0.2840 -0.8230
vn -0.6224 0.3593 -0.6954
vn -0.7011 0.4048 -0.5870
vn -0.7494 0.4326 -0.5013
vn -0.7801 0.4504 -0.4343
vn -0.7916 0.4570 -0.4056
vn -0.2338 0.2338 -0.9438
vn -0.4016 0.4016 -0.8230
vn -0.5082 0.5082 -0.6954
vn -0.5725 0.5725 -0.5870
vn -0.6119 0.6119 -0.5013
vn -0.6369 0.6369 -0.4343
vn -0.6463 0.6463 -0.4056
vn -0.1653 0.2864 -0.9438
vn -0.2840 0.4919 -0.8230
vn -0.3593 0.6224 -0.6954
vn -0.4048 0.7011 -0.5870
vn -0.4326 0.7494 -0.5013
vn -0.4504 0.7801 -0.4343
vn -0.4570 0.7916 -0.4056
vn -0.0856 0.3194 -0.9438
vn -0.1470 0.5486 -0.8230
vn -0.1860 0.6942 -0.6954
vn -0.2095 0.7820 -0.5870
vn -0.2240 0.8358 -0.5013
vn -0.2331 0.8701 -0.4343
vn -0.2366 0.8829 -0.4056
vn -0.0000 0.3307 -0.9438
vn -0.0000 0.5680 -0.8230
vn -0.0000 0.7186 -0.6954
vn -0.0000 0.8096 -0.5870
vn -0.0000 0.8653 -0.5013
vn -0.0000 0.9008 -0.4343
vn -0.0000 0.9140 -0.4056
vn 0.0856 0.3194 -0.9438
vn 0.1470 0.5486 -0.8230
vn 0.1860 0.6942 -0.6954
vn 0.2095 0.7820 -0.5870
vn 0.2240 0.8358 -0.5013
vn 0.2331 0.8701 -0.4343
vn 0.2366 0.8829 -0.4056
vn 0.1653 0.2864 -0.9438
vn 0.2840 0.4919 -0.8230
vn 0.3593 0.6224 -0.6954
vn 0.4048 0.7011 -0.5870
vn 0.4326 0.7494 -0.5013
vn 0.4504 0.7801 -0.4343
vn 0.4570 0.7916 -0.4056
vn 0.2338 0.2338 -0.9438
vn 0.4016 0.4016 -0.8230
vn 0.5082 0.5082 -0.6954
vn 0.5725 0.5725 -0.5870
vn 0.6119 0.6119 -0.5013
vn 0.6369 0.6369 -0.4343
vn 0.6463 0.6463 -0.4056
vn 0.2864 0.1653 -0.9438
vn 0.4919 0.2840 -0.8230
vn 0.6224 0.3593 -0.6954
vn 0.7011 0.4048 -0.5870
vn 0.7494 0.4326 -0.5013
vn 0.7801 0.4504 -0.4343
vn 0.7916 0.4570 -0.4056
vn 0.3194 0.0856 -0.9438
vn 0.5486 0.1470 -0.8230
vn 0.6942 0.1860 -0.6954
vn 0.7820 0.2095 -0.5870
vn 0.8358 0.2240 -0.5013
vn 0.8701 0.2331 -0.4343
vn 0.8829 0.2366 -0.4056
vn 0.3307 -0.0000 -0.9438
vn 0.5680 -0.0000 -0.8230
vn 0.7186 -0.0000 -0.6954
vn 0.8096 -0.0000 -0.5870
vn 0.8653 -0.0000 -0.5013
vn 0.9008 -0.0000 -0.4343
vn 0.9140 -0.0000 -0.4056
vn 0.3194 -0.0856 -0.9438
vn 0.5486 -0.1470 -0.8230
vn 0.6942 -0.1860 -0.6954
vn 0.7820 -0.2095 -0.5870
vn 0.8358 -0.2240 -0.5013
vn 0.8701 -0.2331 -0.4343
vn 0.8829 -0.2366 -0.4056
vn 0.2864 -0.1653 -0.9438
vn 0.4919 -0.2840 -0.8230
vn 0.6224 -0.3593 -0.6954
vn 0.7011 -0.4048 -0.5870
vn 0.7494 -0.4326 -0.5013
vn 0.7801 -0.4504 -0.4343
vn 0.7916 -0.4570 -0.4056
vn 0.2338 -0.2338 -0.9438
vn 0.4016 -0.4016 -0.8230
vn 0.5082 -0.5082 -0.6954
vn 0.5725 -0.5725 -0.5870
vn 0.6119 -0.6119 -0.5013
vn 0.6369 -0.6369 -0.4343
vn 0.6463 -0.6463 -0.4056
vn 0.1653 -0.2864 -0.9438
vn 0.2840 -0.4919 -0.8230
vn 0.3593 -0.6224 -0.6954
vn 0.4048 -0.7011 -0.5870
vn 0.4326 -0.7494 -0.5013
vn 0.4504 -0.7801 -0.4343
vn 0.4570 -0.7916 -0.4056
vn 0.0856 -0.3194 -0.9438
vn 0.1470 -0.5486 -0.8230
vn 0.1860 -0.6942 -0.6954
vn 0.2095 -0.7820 -0.5870
vn 0.2240 -0.8358 -0.5013
vn 0.2331 -0.8701 -0.4343
vn 0.2366 -0.8829 -0.4056
vn -0.0000 -0.9274 0.3740
vn -0.0000 -1.0000 0.0078
vn 0.5000 -0.8660 0.0078
vn 0.4637 -0.8032 0.3740
vn -0.0000 -0.8687 -0.4954
vn -0.0000 -0.5309 -0.8474
vn 0.2655 -0.4598 -0.8474
vn 0.4343 -0.7523 -0.4954
vn -0.0000 -0.9586 0.2848
vn 0.4793 -0.8302 0.2848
vn 0.8032 -0.4637 0.3740
vn 0.8302 -0.4793 0.2848
vn 0.7523 -0.4343 -0.4954
vn 0.8660 -0.5000 0.0078
vn 0.4598 -0.2655 -0.8474
vn 0.9274 -0.0000 0.3740
vn 0.9586 -0.0000 0.2848
vn 0.8687 -0.0000 -0.4954
vn 1.0000 -0.0000 0.0078
vn 0.5309 -0.0000 -0.8474
vn 0.8032 0.4637 0.3740
vn 0.8302 0.4793 0.2848
vn 0.7523 0.4343 -0.4954
vn 0.8660 0.5000 0.0078
vn 0.4598 0.2655 -0.8474
vn 0.4637 0.8032 0.3740
vn 0.4793 0.8302 0.2848
vn 0.4343 0.7523 -0.4954
vn 0.5000 0.8660 0.0078
vn 0.2655 0.4598 -0.8474
vn -0.0000 0.8687 -0.4954
vn -0.0000 1.0000 0.0078
vn -0.0000 0.5309 -0.8474
vn -0.0000 0.9274 0.3740
vn -0.0000 0.9586 0.2848
vn -0.2655 0.4598 -0.8474
vn -0.5000 0.8660 0.0078
vn -0.4637 0.8032 0.3740
vn -0.4343 0.7523 -0.4954
vn -0.4793 0.8302 0.2848
vn -0.8660 0.5000 0.0078
vn -0.8032 0.4637 0.3740
vn -0.4598 0.2655 -0.8474
vn -0.7523 0.4343 -0.4954
vn -0.8302 0.4793 0.2848
vn -1.0000 -0.0000 0.0078
vn -0.9274 -0.0000 0.3740
vn -0.5309 -0.0000 -0.8474
vn -0.8687 -0.0000 -0.4954
vn -0.9586 -0.0000 0.2848
vn -0.8660 -0.5000 0.0078
vn -0.8032 -0.4637 0.3740
vn -0.4598 -0.2655 -0.8474
vn -0.7523 -0.4343 -0.4954
vn -0.8302 -0.4793 0.2848
vn -0.5000 -0.8660 0.0078
vn -0.4637 -0.8032 0.3740
vn -0.2655 -0.4598 -0.8474
vn -0.4343 -0.7523 -0.4954
vn -0.4793 -0.8302 0.2848
vn -0.4980 -0.8625 0.0900
vn -0.0000 -0.9959 0.0900
vn -0.8625 -0.4980 0.0900
vn -0.9959 -0.0000 0.0900
vn -0.8625 0.4980 0.0900
vn -0.4980 0.8625 0.0900
vn -0.0000 0.9959 0.0900
vn 0.4980 0.8625 0.0900
vn 0.8625 0.4980 0.0900
vn 0.9959 -0.0000 0.0900
vn 0.8625 -0.4980 0.0900
vn 0.4980 -0.8625 0.0900
vt 0.326164 0.848892
vt 0.325988 0.849573
vt 0.323492 0.848537
vt 0.329230 0.849279
vt 0.328867 0.850744
vt 0.333214 0.849763
vt 0.332610 0.852255
vt 0.338704 0.850402
vt 0.337755 0.854301
vt 0.346427 0.851310
vt 0.344902 0.857124
vt 0.357368 0.852454
vt 0.355207 0.861053
vt 0.372353 0.854063
vt 0.369636 0.866400
vt 0.325634 0.850182
vt 0.328105 0.852051
vt 0.331323 0.854481
vt 0.335764 0.857792
vt 0.341969 0.862348
vt 0.350945 0.868879
vt 0.363730 0.877866
vt 0.329542 0.856347
vt 0.327054 0.853138
vt 0.332935 0.860618
vt 0.337854 0.866803
vt 0.344706 0.875284
vt 0.354881 0.887545
vt 0.325140 0.850686
vt 0.324527 0.851039
vt 0.325747 0.853918
vt 0.327307 0.857645
vt 0.329528 0.862718
vt 0.332597 0.869881
vt 0.337056 0.879847
vt 0.343619 0.894702
vt 0.323844 0.851221
vt 0.324275 0.854300
vt 0.324811 0.858330
vt 0.325646 0.863865
vt 0.326760 0.871504
vt 0.328507 0.882439
vt 0.330736 0.898235
vt 0.323137 0.851220
vt 0.322753 0.854317
vt 0.322222 0.858333
vt 0.321589 0.863871
vt 0.320703 0.871605
vt 0.319543 0.882657
vt 0.317615 0.898309
vt 0.322454 0.851035
vt 0.321273 0.853936
vt 0.319730 0.857665
vt 0.317682 0.862837
vt 0.314817 0.870107
vt 0.310780 0.880544
vt 0.305048 0.895087
vt 0.321837 0.850686
vt 0.319960 0.853161
vt 0.317492 0.856378
vt 0.314186 0.860829
vt 0.309521 0.867116
vt 0.303003 0.876024
vt 0.293317 0.888974
vt 0.321338 0.850183
vt 0.318873 0.852097
vt 0.315666 0.854555
vt 0.311351 0.857986
vt 0.305160 0.862849
vt 0.296498 0.869795
vt 0.283785 0.879574
vt 0.320986 0.849567
vt 0.318095 0.850782
vt 0.314378 0.852328
vt 0.309252 0.854546
vt 0.302114 0.857578
vt 0.291886 0.862035
vt 0.277109 0.868083
vt 0.320806 0.848882
vt 0.317710 0.849303
vt 0.313712 0.849845
vt 0.308223 0.850643
vt 0.300511 0.851734
vt 0.289474 0.853348
vt 0.273685 0.855297
vt 0.320810 0.848175
vt 0.317720 0.847781
vt 0.313712 0.847272
vt 0.308242 0.846632
vt 0.300506 0.845679
vt 0.289406 0.844324
vt 0.273743 0.842082
vt 0.320996 0.847493
vt 0.318124 0.846319
vt 0.314376 0.844778
vt 0.309192 0.842717
vt 0.301967 0.839791
vt 0.291787 0.835651
vt 0.277245 0.829431
vt 0.321352 0.846882
vt 0.318867 0.844995
vt 0.315669 0.842550
vt 0.311227 0.839236
vt 0.305012 0.834547
vt 0.296205 0.827898
vt 0.283845 0.818164
vt 0.321854 0.846385
vt 0.319950 0.843931
vt 0.317485 0.840730
vt 0.314075 0.836424
vt 0.309296 0.830288
vt 0.302493 0.821544
vt 0.293130 0.809010
vt 0.322467 0.846035
vt 0.321258 0.843155
vt 0.319710 0.839446
vt 0.317504 0.834340
vt 0.314477 0.827175
vt 0.310242 0.817141
vt 0.304409 0.802624
vt 0.323150 0.845855
vt 0.322729 0.842772
vt 0.322186 0.838779
vt 0.321384 0.833332
vt 0.320323 0.825602
vt 0.318772 0.814798
vt 0.316877 0.799331
vt 0.323855 0.845859
vt 0.324244 0.842783
vt 0.324758 0.838774
vt 0.325400 0.833250
vt 0.326350 0.825631
vt 0.327623 0.814748
vt 0.329758 0.799331
vt 0.324535 0.846044
vt 0.325716 0.843157
vt 0.327236 0.839443
vt 0.329279 0.834304
vt 0.332149 0.827153
vt 0.336181 0.816972
vt 0.342210 0.802633
vt 0.325144 0.846399
vt 0.327027 0.843924
vt 0.329450 0.840721
vt 0.332742 0.836304
vt 0.337350 0.830127
vt 0.343887 0.821324
vt 0.353399 0.809045
vt 0.325639 0.846900
vt 0.328094 0.844999
vt 0.331259 0.842527
vt 0.335568 0.839118
vt 0.341587 0.834342
vt 0.350229 0.827513
vt 0.362528 0.818157
vt 0.325988 0.847511
vt 0.328847 0.846312
vt 0.332541 0.844738
vt 0.337564 0.842557
vt 0.344766 0.839456
vt 0.354680 0.835166
vt 0.368917 0.829264
vt 0.326166 0.848190
vt 0.329234 0.847771
vt 0.333212 0.847207
vt 0.338704 0.846390
vt 0.346337 0.845288
vt 0.357121 0.843622
vt 0.372235 0.841513
vt 0.412278 0.944629
vt 0.411504 0.944820
vt 0.411168 0.944265
vt 0.411793 0.943659
vt 0.411003 0.944948
vt 0.410631 0.945046
vt 0.410532 0.944890
vt 0.410822 0.944607
vt 0.415817 0.943405
vt 0.414276 0.940751
vt 0.410295 0.945150
vt 0.410869 0.943053
vt 0.411603 0.939082
vt 0.410473 0.944423
vt 0.410615 0.943956
vt 0.410368 0.944805
vt 0.409748 0.943113
vt 0.408403 0.938968
vt 0.410083 0.944432
vt 0.409966 0.943935
vt 0.410185 0.944815
vt 0.408727 0.943606
vt 0.405955 0.941043
vt 0.409754 0.944638
vt 0.409417 0.944279
vt 0.410032 0.944914
vt 0.408219 0.944611
vt 0.404129 0.943650
vt 0.409572 0.944979
vt 0.409092 0.944836
vt 0.409951 0.945075
vt 0.409586 0.945368
vt 0.409093 0.945486
vt 0.409963 0.945252
vt 0.408213 0.945709
vt 0.404612 0.946796
vt 0.410052 0.945406
vt 0.409424 0.946043
vt 0.408775 0.946666
vt 0.409791 0.945699
vt 0.406061 0.949633
vt 0.409993 0.946358
vt 0.409764 0.947205
vt 0.410209 0.945494
vt 0.410133 0.945878
vt 0.408720 0.951372
vt 0.410641 0.946345
vt 0.410880 0.947192
vt 0.410392 0.945490
vt 0.410519 0.945862
vt 0.411852 0.951026
vt 0.411186 0.946012
vt 0.411813 0.946609
vt 0.410549 0.945395
vt 0.410842 0.945655
vt 0.414447 0.949391
vt 0.411492 0.945464
vt 0.412302 0.945686
vt 0.410640 0.945233
vt 0.411017 0.945321
vt 0.415687 0.946511
vt 0.425052 0.948661
vt 0.425534 0.940854
vt 0.421404 0.955284
vt 0.415456 0.961082
vt 0.406494 0.961203
vt 0.399283 0.956700
vt 0.395480 0.949663
vt 0.395480 0.941890
vt 0.398245 0.934181
vt 0.405629 0.930271
vt 0.413887 0.929200
vt 0.422054 0.932873
s 1
f 164/1/1 2/2/2 9/3/3
f 165/4/4 3/5/5 2/2/2 164/1/1
f 166/6/6 4/7/7 3/5/5 165/4/4
f 167/8/8 5/9/9 4/7/7 166/6/6
f 168/10/10 6/11/11 5/9/9 167/8/8
f 169/12/12 7/13/13 6/11/11 168/10/10
f 1/14/14 8/15/15 7/13/13 169/12/12
f 2/2/2 10/16/16 9/3/3
f 3/5/5 11/17/17 10/16/16 2/2/2
f 4/7/7 12/18/18 11/17/17 3/5/5
f 5/9/9 13/19/19 12/18/18 4/7/7
f 6/11/11 14/20/20 13/19/19 5/9/9
f 7/13/13 15/21/21 14/20/20 6/11/11
f 8/15/15 16/22/22 15/21/21 7/13/13
f 12/18/18 19/23/23 18/24/24 11/17/17
f 13/19/19 20/25/25 19/23/23 12/18/18
f 14/20/20 21/26/26 20/25/25 13/19/19
f 15/21/21 22/27/27 21/26/26 14/20/20
f 16/22/22 23/28/28 22/27/27 15/21/21
f 10/16/16 17/29/29 9/3/3
f 11/17/17 18/24/24 17/29/29 10/16/16
f 17/29/29 24/30/30 9/3/3
f 18/24/24 25/31/31 24/30/30 17/29/29
f 19/23/23 26/32/32 25/31/31 18/24/24
f 20/25/25 27/33/33 26/32/32 19/23/23
f 21/26/26 28/34/34 27/33/33 20/25/25
f 22/27/27 29/35/35 28/34/34 21/26/26
f 23/28/28 30/36/36 29/35/35 22/27/27
f 24/30/30 31/37/37 9/3/3
f 25/31/31 32/38/38 31/37/37 24/30/30
f 26/32/32 33/39/39 32/38/38 25/31/31
f 27/33/33 34/40/40 33/39/39 26/32/32
f 28/34/34 35/41/41 34/40/40 27/33/33
f 29/35/35 36/42/42 35/41/41 28/34/34
f 30/36/36 37/43/43 36/42/42 29/35/35
f 31/37/37 38/44/44 9/3/3
f 32/38/38 39/45/45 38/44/44 31/37/37
f 33/39/39 40/46/46 39/45/45 32/38/38
f 34/40/40 41/47/47 40/46/46 33/39/39
f 35/41/41 42/48/48 41/47/47 34/40/40
f 36/42/42 43/49/49 42/48/48 35/41/41
f 37/43/43 44/50/50 43/49/49 36/42/42
f 38/44/44 45/51/51 9/3/3
f 39/45/45 46/52/52 45/51/51 38/44/44
f 40/46/46 47/53/53 46/52/52 39/45/45
f 41/47/47 48/54/54 47/53/53 40/46/46
f 42/48/48 49/55/55 48/54/54 41/47/47
f 43/49/49 50/56/56 49/55/55 42/48/48
f 44/50/50 51/57/57 50/56/56 43/49/49
f 45/51/51 52/58/58 9/3/3
f 46/52/52 53/59/59 52/58/58 45/51/51
f 47/53/53 54/60/60 53/59/59 46/52/52
f 48/54/54 55/61/61 54/60/60 47/53/53
f 49/55/55 56/62/62 55/61/61 48/54/54
f 50/56/56 57/63/63 56/62/62 49/55/55
f 51/57/57 58/64/64 57/63/63 50/56/56
f 52/58/58 59/65/65 9/3/3
f 53/59/59 60/66/66 59/65/65 52/58/58
f 54/60/60 61/67/67 60/66/66 53/59/59
f 55/61/61 62/68/68 61/67/67 54/60/60
f 56/62/62 63/69/69 62/68/68 55/61/61
f 57/63/63 64/70/70 63/69/69 56/62/62
f 58/64/64 65/71/71 64/70/70 57/63/63
f 59/65/65 66/72/72 9/3/3
f 60/66/66 67/73/73 66/72/72 59/65/65
f 61/67/67 68/74/74 67/73/73 60/66/66
f 62/68/68 69/75/75 68/74/74 61/67/67
f 63/69/69 70/76/76 69/75/75 62/68/68
f 64/70/70 71/77/77 70/76/76 63/69/69
f 65/71/71 72/78/78 71/77/77 64/70/70
f 66/72/72 73/79/79 9/3/3
f 67/73/73 74/80/80 73/79/79 66/72/72
f 68/74/74 75/81/81 74/80/80 67/73/73
f 69/75/75 76/82/82 75/81/81 68/74/74
f 70/76/76 77/83/83 76/82/82 69/75/75
f 71/77/77 78/84/84 77/83/83 70/76/76
f 72/78/78 79/85/85 78/84/84 71/77/77
f 73/79/79 80/86/86 9/3/3
f 74/80/80 81/87/87 80/86/86 73/79/79
f 75/81/81 82/88/88 81/87/87 74/80/80
f 76/82/82 83/89/89 82/88/88 75/81/81
f 77/83/83 84/90/90 83/89/89 76/82/82
f 78/84/84 85/91/91 84/90/90 77/83/83
f 79/85/85 86/92/92 85/91/91 78/84/84
f 80/86/86 87/93/93 9/3/3
f 81/87/87 88/94/94 87/93/93 80/86/86
f 82/88/88 89/95/95 88/94/94 81/87/87
f 83/89/89 90/96/96 89/95/95 82/88/88
f 84/90/90 91/97/97 90/96/96 83/89/89
f 85/91/91 92/98/98 91/97/97 84/90/90
f 86/92/92 93/99/99 92/98/98 85/91/91
f 87/93/93 94/100/100 9/3/3
f 88/94/94 95/101/101 94/100/100 87/93/93
f 89/95/95 96/102/102 95/101/101 88/94/94
f 90/96/96 97/103/103 96/102/102 89/95/95
f 91/97/97 98/104/104 97/103/103 90/96/96
f 92/98/98 99/105/105 98/104/104 91/97/97
f 93/99/99 100/106/106 99/105/105 92/98/98
f 94/100/100 101/107/107 9/3/3
f 95/101/101 102/108/108 101/107/107 94/100/100
f 96/102/102 103/109/109 102/108/108 95/101/101
f 97/103/103 104/110/110 103/109/109 96/102/102
f 98/104/104 105/111/111 104/110/110 97/103/103
f 99/105/105 106/112/112 105/111/111 98/104/104
f 100/106/106 107/113/113 106/112/112 99/105/105
f 101/107/107 108/114/114 9/3/3
f 102/108/108 109/115/115 108/114/114 101/107/107
f 103/109/109 110/116/116 109/115/115 102/108/108
f 104/110/110 111/117/117 110/116/116 103/109/109
f 105/111/111 112/118/118 111/117/117 104/110/110
f 106/112/112 113/119/119 112/118/118 105/111/111
f 107/113/113 114/120/120 113/119/119 106/112/112
f 108/114/114 115/121/121 9/3/3
f 109/115/115 116/122/122 115/121/121 108/114/114
f 110/116/116 117/123/123 116/122/122 109/115/115
f 111/117/117 118/124/124 117/123/123 110/116/116
f 112/118/118 119/125/125 118/124/124 111/117/117
f 113/119/119 120/126/126 119/125/125 112/118/118
f 114/120/120 121/127/127 120/126/126 113/119/119
f 115/121/121 122/128/128 9/3/3
f 116/122/122 123/129/129 122/128/128 115/121/121
f 117/123/123 124/130/130 123/129/129 116/122/122
f 118/124/124 125/131/131 124/130/130 117/123/123
f 119/125/125 126/132/132 125/131/131 118/124/124
f 120/126/126 127/133/133 126/132/132 119/125/125
f 121/127/127 128/134/134 127/133/133 120/126/126
f 122/128/128 129/135/135 9/3/3
f 123/129/129 130/136/136 129/135/135 122/128/128
f 124/130/130 131/137/137 130/136/136 123/129/129
f 125/131/131 132/138/138 131/137/137 124/130/130
f 126/132/132 133/139/139 132/138/138 125/131/131
f 127/133/133 134/140/140 133/139/139 126/132/132
f 128/134/134 135/141/141 134/140/140 127/133/133
f 129/135/135 136/142/142 9/3/3
f 130/136/136 137/143/143 136/142/142 129/135/135
f 131/137/137 138/144/144 137/143/143 130/136/136
f 132/138/138 139/145/145 138/144/144 131/137/137
f 133/139/139 140/146/146 139/145/145 132/138/138
f 134/140/140 141/147/147 140/146/146 133/139/139
f 135/141/141 142/148/148 141/147/147 134/140/140
f 136/142/142 143/149/149 9/3/3
f 137/143/143 144/150/150 143/149/149 136/142/142
f 138/144/144 145/151/151 144/150/150 137/143/143
f 139/145/145 146/152/152 145/151/151 138/144/144
f 140/146/146 147/153/153 146/152/152 139/145/145
f 141/147/147 148/154/154 147/153/153 140/146/146
f 142/148/148 149/155/155 148/154/154 141/147/147
f 143/149/149 150/156/156 9/3/3
f 144/150/150 151/157/157 150/156/156 143/149/149
f 145/151/151 152/158/158 151/157/157 144/150/150
f 146/152/152 153/159/159 152/158/158 145/151/151
f 147/153/153 154/160/160 153/159/159 146/152/152
f 148/154/154 155/161/161 154/160/160 147/153/153
f 149/155/155 156/162/162 155/161/161 148/154/154
f 150/156/156 157/163/163 9/3/3
f 151/157/157 158/164/164 157/163/163 150/156/156
f 152/158/158 159/165/165 158/164/164 151/157/157
f 153/159/159 160/166/166 159/165/165 152/158/158
f 154/160/160 161/167/167 160/166/166 153/159/159
f 155/161/161 162/168/168 161/167/167 154/160/160
f 156/162/162 163/169/169 162/168/168 155/161/161
f 157/163/163 164/1/1 9/3/3
f 158/164/164 165/4/4 164/1/1 157/163/163
f 159/165/165 166/6/6 165/4/4 158/164/164
f 160/166/166 167/8/8 166/6/6 159/165/165
f 161/167/167 168/10/10 167/8/8 160/166/166
f 162/168/168 169/12/12 168/10/10 161/167/167
f 163/169/169 1/14/14 169/12/12 162/168/168
f 171/170/170 229/171/171 174/172/172 175/173/173
f 170/174/174 228/175/175 172/176/176 173/177/177
f 242/178/178 171/170/170 175/173/173 231/179/179
f 229/171/171 170/174/174 173/177/177 174/172/172
f 228/175/175 202/180/3 172/176/176
f 231/179/179 175/173/173 180/181/180 232/182/181
f 174/172/172 173/177/177 178/183/182 179/184/183
f 172/176/176 202/180/3 177/185/184
f 175/173/173 174/172/172 179/184/183 180/181/180
f 173/177/177 172/176/176 177/185/184 178/183/182
f 232/182/181 180/181/180 185/186/185 233/187/186
f 179/184/183 178/183/182 183/188/187 184/189/188
f 177/185/184 202/180/3 182/190/189
f 180/181/180 179/184/183 184/189/188 185/186/185
f 178/183/182 177/185/184 182/190/189 183/188/187
f 233/187/186 185/186/185 190/191/190 234/192/191
f 184/189/188 183/188/187 188/193/192 189/194/193
f 182/190/189 202/180/3 187/195/194
f 185/186/185 184/189/188 189/194/193 190/191/190
f 183/188/187 182/190/189 187/195/194 188/193/192
f 234/192/191 190/191/190 195/196/195 235/197/196
f 189/194/193 188/193/192 193/198/197 194/199/198
f 187/195/194 202/180/3 192/200/199
f 190/191/190 189/194/193 194/199/198 195/196/195
f 188/193/192 187/195/194 192/200/199 193/198/197
f 194/199/198 193/198/197 198/201/200 199/202/201
f 192/200/199 202/180/3 197/203/202
f 195/196/195 194/199/198 199/202/201 200/204/203
f 193/198/197 192/200/199 197/203/202 198/201/200
f 235/197/196 195/196/195 200/204/203 236/205/204
f 197/203/202 202/180/3 203/206/205
f 200/204/203 199/202/201 205/207/206 206/208/207
f 198/201/200 197/203/202 203/206/205 204/209/208
f 236/205/204 200/204/203 206/208/207 237/210/209
f 199/202/201 198/201/200 204/209/208 205/207/206
f 206/208/207 205/207/206 210/211/210 211/212/211
f 204/209/208 203/206/205 208/213/212 209/214/213
f 237/210/209 206/208/207 211/212/211 238/215/214
f 205/207/206 204/209/208 209/214/213 210/211/210
f 203/206/205 202/180/3 208/213/212
f 211/212/211 210/211/210 215/216/215 216/217/216
f 209/214/213 208/213/212 213/218/217 214/219/218
f 238/215/214 211/212/211 216/217/216 239/220/219
f 210/211/210 209/214/213 214/219/218 215/216/215
f 208/213/212 202/180/3 213/218/217
f 216/217/216 215/216/215 220/221/220 221/222/221
f 214/219/218 213/218/217 218/223/222 219/224/223
f 239/220/219 216/217/216 221/222/221 240/225/224
f 215/216/215 214/219/218 219/224/223 220/221/220
f 213/218/217 202/180/3 218/223/222
f 221/222/221 220/221/220 225/226/225 226/227/226
f 219/224/223 218/223/222 223/228/227 224/229/228
f 240/225/224 221/222/221 226/227/226 241/230/229
f 220/221/220 219/224/223 224/229/228 225/226/225
f 218/223/222 202/180/3 223/228/227
f 224/229/228 223/228/227 228/175/175 170/174/174
f 241/230/229 226/227/226 171/170/170 242/178/178
f 225/226/225 224/229/228 170/174/174 229/171/171
f 223/228/227 202/180/3 228/175/175
f 226/227/226 225/226/225 229/171/171 171/170/170
f 227/231/230 241/230/229 242/178/178 230/232/231
f 222/233/232 240/225/224 241/230/229 227/231/230
f 217/234/233 239/220/219 240/225/224 222/233/232
f 212/235/234 238/215/214 239/220/219 217/234/233
f 207/236/235 237/210/209 238/215/214 212/235/234
f 201/237/236 236/205/204 237/210/209 207/236/235
f 196/238/237 235/197/196 236/205/204 201/237/236
f 191/239/238 234/192/191 235/197/196 196/238/237
f 186/240/239 233/187/186 234/192/191 191/239/238
f 181/241/240 232/182/181 233/187/186 186/240/239
f 176/242/241 231/179/179 232/182/181 181/241/240
f 230/232/231 242/178/178 231/179/179 176/242/241
