# Blender 4.1.1
# www.blender.org
o Headlight_Electric_Bracketry
v -0.209744 -0.265773 -0.043895
v -0.209744 -0.265773 -0.088794
v -0.147360 -0.253999 -0.043895
v -0.147360 -0.084201 -0.008643
v -0.147360 -0.253999 -0.088794
v -0.147360 -0.084201 -0.088794
v -0.209744 -0.226585 -0.043895
v -0.209744 -0.226585 -0.088794
v -0.147360 -0.219754 -0.088794
v -0.147360 -0.219754 -0.043895
v -0.176866 -0.253999 -0.088794
v -0.176866 -0.084201 -0.088794
v -0.176866 -0.253999 -0.043895
v -0.176866 -0.084201 -0.008643
v -0.176866 -0.219754 -0.043895
v -0.176866 -0.219754 -0.088794
v -0.209744 -0.265773 0.231274
v -0.209744 -0.265773 0.186375
v -0.147360 -0.253999 0.231274
v -0.147360 -0.084201 0.231274
v -0.147360 -0.253999 0.186375
v -0.147360 -0.084201 0.151122
v -0.209744 -0.226585 0.231274
v -0.209744 -0.226585 0.186375
v -0.147360 -0.219754 0.186375
v -0.147360 -0.219754 0.231274
v -0.176866 -0.253999 0.186375
v -0.176866 -0.084201 0.151122
v -0.176866 -0.253999 0.231274
v -0.176866 -0.084201 0.231274
v -0.176866 -0.219754 0.231274
v -0.176866 -0.219754 0.186375
v -0.176866 -0.106679 0.071240
v -0.147360 -0.106679 0.071240
v -0.176866 -0.185189 -0.030284
v -0.176866 -0.116940 0.029181
v -0.176866 -0.108563 0.054993
v -0.176866 -0.108563 0.087486
v -0.176866 -0.116940 0.113299
v -0.176866 -0.185189 0.172763
v -0.147360 -0.185189 -0.030284
v -0.147360 -0.108563 0.054993
v -0.147360 -0.116940 0.029181
v -0.147360 -0.116940 0.113299
v -0.147360 -0.108563 0.087486
v -0.147360 -0.185189 0.172763
v -0.176866 -0.164659 -0.018339
v -0.176866 -0.134466 0.006715
v -0.176866 -0.134466 0.135765
v -0.176866 -0.164659 0.160819
v -0.147360 -0.134466 0.006715
v -0.147360 -0.164659 -0.018339
v -0.147360 -0.164659 0.160819
v -0.147360 -0.134466 0.135765
v 0.209744 -0.265773 -0.043895
v 0.209744 -0.265773 -0.088794
v 0.147360 -0.253999 -0.043895
v 0.147360 -0.084201 -0.008643
v 0.147360 -0.253999 -0.088794
v 0.147360 -0.084201 -0.088794
v 0.209744 -0.226585 -0.043895
v 0.209744 -0.226585 -0.088794
v 0.147360 -0.219754 -0.088794
v 0.147360 -0.219754 -0.043895
v 0.176866 -0.253999 -0.088794
v 0.176866 -0.084201 -0.088794
v 0.176866 -0.253999 -0.043895
v 0.176866 -0.084201 -0.008643
v 0.176866 -0.219754 -0.043895
v 0.176866 -0.219754 -0.088794
v 0.209744 -0.265773 0.231274
v 0.209744 -0.265773 0.186375
v 0.147360 -0.253999 0.231274
v 0.147360 -0.084201 0.231274
v 0.147360 -0.253999 0.186375
v 0.147360 -0.084201 0.151122
v 0.209744 -0.226585 0.231274
v 0.209744 -0.226585 0.186375
v 0.147360 -0.219754 0.186375
v 0.147360 -0.219754 0.231274
v 0.176866 -0.253999 0.186375
v 0.176866 -0.084201 0.151122
v 0.176866 -0.253999 0.231274
v 0.176866 -0.084201 0.231274
v 0.176866 -0.219754 0.231274
v 0.176866 -0.219754 0.186375
v 0.176866 -0.106679 0.071240
v 0.147360 -0.106679 0.071240
v 0.176866 -0.185189 -0.030284
v 0.176866 -0.116940 0.029181
v 0.176866 -0.108563 0.054993
v 0.176866 -0.108563 0.087486
v 0.176866 -0.116940 0.113299
v 0.176866 -0.185189 0.172763
v 0.147360 -0.185189 -0.030284
v 0.147360 -0.108563 0.054993
v 0.147360 -0.116940 0.029181
v 0.147360 -0.116940 0.113299
v 0.147360 -0.108563 0.087486
v 0.147360 -0.185189 0.172763
v 0.176866 -0.164659 -0.018339
v 0.176866 -0.134466 0.006715
v 0.176866 -0.134466 0.135765
v 0.176866 -0.164659 0.160819
v 0.147360 -0.134466 0.006715
v 0.147360 -0.164659 -0.018339
v 0.147360 -0.164659 0.160819
v 0.147360 -0.134466 0.135765
vn -0.0000 -0.0000 -1.0000
vn 1.0000 -0.0000 -0.0000
vn -1.0000 -0.0000 -0.0000
vn 0.1711 -0.9853 -0.0000
vn -0.0000 -1.0000 -0.0000
vn -0.0000 -0.0000 1.0000
vn -0.0000 -0.1298 0.9915
vn -0.0000 -0.1865 0.9825
vn 0.3371 -0.9415 -0.0000
vn -0.2034 0.9791 -0.0000
vn -0.0000 -0.4359 -0.9000
vn -0.0000 -0.1865 -0.9825
vn -0.0000 -0.1298 -0.9915
vn -0.0000 -0.9771 0.2130
vn -0.0000 -0.9771 -0.2130
vn -0.0000 -0.5727 -0.8198
vn -0.0000 -0.7177 0.6964
vn -0.0000 -0.8832 0.4690
vn -0.0000 -0.8832 -0.4690
vn -0.0000 -0.7177 -0.6964
vn -0.0000 -0.4359 0.9000
vn -0.0000 -0.5727 0.8198
vn -0.1711 -0.9853 -0.0000
vn -0.3371 -0.9415 -0.0000
vn 0.2034 0.9791 -0.0000
vt 0.830776 0.161269
vt 0.830776 0.192682
vt 0.823938 0.192682
vt 0.823938 0.161269
vt 0.857556 0.820907
vt 0.857703 0.851674
vt 0.839575 0.851929
vt 0.847489 0.820657
vt 0.863547 0.783958
vt 0.854378 0.782816
vt 0.840265 0.752412
vt 0.862649 0.750886
vt 0.858298 0.807028
vt 0.857784 0.813360
vt 0.847708 0.812746
vt 0.848052 0.805709
vt 0.890843 0.241957
vt 0.890843 0.249893
vt 0.883224 0.248310
vt 0.883224 0.239229
vt 0.830776 0.153333
vt 0.823938 0.153333
vt 0.849547 0.797538
vt 0.851482 0.788679
vt 0.861495 0.791571
vt 0.859503 0.799580
vt 0.838395 0.150605
vt 0.838395 0.159686
vt 0.897680 0.241957
vt 0.897680 0.249893
vt 0.897680 0.321058
vt 0.897680 0.329667
vt 0.890843 0.329667
vt 0.890843 0.321058
vt 0.794320 0.821339
vt 0.802848 0.852438
vt 0.784327 0.852668
vt 0.783982 0.821384
vt 0.795836 0.782462
vt 0.785486 0.781721
vt 0.787337 0.750886
vt 0.805483 0.751949
vt 0.794250 0.806775
vt 0.794270 0.813498
vt 0.783961 0.813465
vt 0.784008 0.806632
vt 0.876905 0.153333
vt 0.876905 0.161269
vt 0.869286 0.159686
vt 0.869286 0.150605
vt 0.890843 0.337603
vt 0.897680 0.337603
vt 0.784216 0.798540
vt 0.784862 0.789407
vt 0.795247 0.790224
vt 0.794329 0.798927
vt 0.883224 0.340331
vt 0.883224 0.331250
vt 0.883743 0.153333
vt 0.883743 0.161269
vt 0.883743 0.192682
vt 0.876905 0.192682
vt 0.897680 0.285990
vt 0.897680 0.289780
vt 0.890843 0.289780
vt 0.890843 0.285990
vt 0.849934 0.776055
vt 0.845717 0.771188
vt 0.838500 0.763367
vt 0.833069 0.759362
vt 0.827202 0.757599
vt 0.823589 0.757235
vt 0.819824 0.757616
vt 0.813825 0.759446
vt 0.808485 0.763345
vt 0.802366 0.770070
vt 0.799374 0.774670
vt 0.797557 0.829249
vt 0.800370 0.833941
vt 0.806231 0.840814
vt 0.811458 0.844782
vt 0.817427 0.846632
vt 0.821172 0.847017
vt 0.824903 0.846534
vt 0.830820 0.844531
vt 0.835951 0.840434
vt 0.841678 0.833416
vt 0.844401 0.828654
vt 0.897680 0.293570
vt 0.890843 0.293570
vt 0.890843 0.315554
vt 0.897680 0.315554
vt 0.897680 0.273098
vt 0.897680 0.279701
vt 0.890843 0.279701
vt 0.890843 0.273098
vt 0.897680 0.299859
vt 0.890843 0.299859
vt 0.897680 0.306462
vt 0.890843 0.306462
vt 0.897680 0.258502
vt 0.890843 0.258502
vt 0.890843 0.264006
vt 0.897680 0.264006
vt 0.890843 0.381887
vt 0.897680 0.381887
vt 0.897680 0.413300
vt 0.890843 0.413300
vt 0.089618 0.749039
vt 0.079213 0.749039
vt 0.071043 0.717626
vt 0.089618 0.717626
vt 0.089618 0.788768
vt 0.089618 0.820181
vt 0.071043 0.820181
vt 0.079213 0.788768
vt 0.089618 0.763812
vt 0.079213 0.763812
vt 0.079213 0.756975
vt 0.089618 0.756975
vt 0.879505 0.018174
vt 0.887124 0.015445
vt 0.887124 0.024527
vt 0.879505 0.026110
vt 0.890843 0.373951
vt 0.897680 0.373951
vt 0.079213 0.771905
vt 0.089618 0.771905
vt 0.089618 0.780986
vt 0.079213 0.780986
vt 0.883224 0.371222
vt 0.883224 0.380304
vt 0.872667 0.018174
vt 0.872667 0.026110
vt 0.079213 0.763812
vt 0.089618 0.763812
vt 0.872667 0.097275
vt 0.879505 0.097275
vt 0.879505 0.105884
vt 0.872667 0.105884
vt 0.025850 0.749039
vt 0.015446 0.749039
vt 0.015446 0.717626
vt 0.034020 0.717626
vt 0.025850 0.788768
vt 0.034020 0.820181
vt 0.015446 0.820181
vt 0.015446 0.788768
vt 0.025850 0.763812
vt 0.015446 0.763812
vt 0.015446 0.756975
vt 0.025850 0.756975
vt 0.744121 0.912350
vt 0.751741 0.909622
vt 0.751741 0.918703
vt 0.744121 0.920286
vt 0.879505 0.113820
vt 0.872667 0.113820
vt 0.015446 0.771905
vt 0.025850 0.771905
vt 0.025850 0.780986
vt 0.015446 0.780986
vt 0.887124 0.116548
vt 0.887124 0.107467
vt 0.737284 0.912350
vt 0.737284 0.920286
vt 0.744121 0.951699
vt 0.737284 0.951699
vt 0.872667 0.062207
vt 0.879505 0.062207
vt 0.879505 0.065997
vt 0.872667 0.065997
vt 0.029005 0.796778
vt 0.031773 0.801536
vt 0.037579 0.808533
vt 0.042785 0.812594
vt 0.048767 0.814535
vt 0.052532 0.814972
vt 0.056296 0.814535
vt 0.062278 0.812594
vt 0.067484 0.808533
vt 0.073290 0.801536
vt 0.076058 0.796778
vt 0.076058 0.741029
vt 0.073290 0.736271
vt 0.067484 0.729274
vt 0.062278 0.725213
vt 0.056296 0.723271
vt 0.052532 0.722835
vt 0.048767 0.723271
vt 0.042785 0.725213
vt 0.037579 0.729274
vt 0.031773 0.736271
vt 0.029005 0.741029
vt 0.879505 0.069787
vt 0.872667 0.069787
vt 0.872667 0.091771
vt 0.879505 0.091771
vt 0.872667 0.049315
vt 0.879505 0.049315
vt 0.879505 0.055918
vt 0.872667 0.055918
vt 0.872667 0.076076
vt 0.879505 0.076076
vt 0.879505 0.082679
vt 0.872667 0.082679
vt 0.879505 0.034719
vt 0.872667 0.034719
vt 0.872667 0.040223
vt 0.879505 0.040223
s 1
f 16/1/1 12/2/1 6/3/1 9/4/1
f 9/5/2 6/6/2 4/7/2 10/8/2
f 16/9/3 15/10/3 14/11/3 12/12/3
f 11/13/4 5/14/5 3/15/5 13/16/4
f 13/17/6 15/18/7 7/19/6 1/20/6
f 5/14/2 9/5/2 10/8/2 3/15/2
f 11/21/1 16/1/1 9/4/1 5/22/1
f 1/23/3 7/24/3 8/25/3 2/26/3
f 2/27/1 8/28/1 16/1/1 11/21/1
f 3/29/6 10/30/8 15/18/7 13/17/6
f 2/26/9 11/13/4 13/16/4 1/23/9
f 16/9/10 8/25/10 7/24/10 15/10/10
f 46/31/11 25/32/12 32/33/13 40/34/11
f 25/35/2 22/36/2 20/37/2 26/38/2
f 32/39/3 31/40/3 30/41/3 28/42/3
f 27/43/4 21/44/5 19/45/5 29/46/4
f 29/47/6 31/48/6 23/49/6 17/50/6
f 21/44/2 25/35/2 26/38/2 19/45/2
f 27/51/1 32/33/13 25/32/12 21/52/1
f 17/53/3 23/54/3 24/55/3 18/56/3
f 18/57/1 24/58/1 32/33/13 27/51/1
f 19/59/6 26/60/6 31/48/6 29/47/6
f 18/56/9 27/43/4 29/46/4 17/53/9
f 26/60/6 20/61/6 30/62/6 31/48/6
f 32/39/10 24/55/10 23/54/10 31/40/10
f 42/63/14 34/64/5 33/65/5 37/66/14
f 15/10/3 35/67/3 47/68/3 48/69/3 36/70/3 37/71/3 33/72/3 38/73/3 39/74/3 49/75/3 50/76/3 40/77/3 32/39/3 28/42/3 14/11/3
f 22/36/2 25/35/2 46/78/2 53/79/2 54/80/2 44/81/2 45/82/2 34/83/2 42/84/2 43/85/2 51/86/2 52/87/2 41/88/2 10/8/2 4/7/2
f 34/64/5 45/89/15 38/90/15 33/65/5
f 46/31/11 40/34/11 50/91/16 53/92/16
f 51/93/17 43/94/18 36/95/18 48/96/17
f 42/63/14 37/66/14 36/95/18 43/94/18
f 44/97/19 39/98/19 38/90/15 45/89/15
f 44/97/19 54/99/20 49/100/20 39/98/19
f 10/30/8 41/101/21 35/102/21 15/18/7
f 51/93/17 48/96/17 47/103/22 52/104/22
f 49/100/20 54/99/20 53/92/16 50/91/16
f 52/104/22 47/103/22 35/102/21 41/101/21
f 70/105/1 63/106/1 60/107/1 66/108/1
f 63/109/3 64/110/3 58/111/3 60/112/3
f 70/113/2 66/114/2 68/115/2 69/116/2
f 65/117/23 67/118/23 57/119/5 59/120/5
f 67/121/6 55/122/6 61/123/6 69/124/7
f 59/120/3 57/119/3 64/110/3 63/109/3
f 65/125/1 59/126/1 63/106/1 70/105/1
f 55/127/2 56/128/2 62/129/2 61/130/2
f 56/131/1 65/125/1 70/105/1 62/132/1
f 57/133/6 67/121/6 69/124/7 64/134/8
f 56/128/24 55/127/24 67/135/23 65/136/23
f 70/113/25 69/116/25 61/130/25 62/129/25
f 100/137/11 94/138/11 86/139/13 79/140/12
f 79/141/3 80/142/3 74/143/3 76/144/3
f 86/145/2 82/146/2 84/147/2 85/148/2
f 81/149/23 83/150/23 73/151/5 75/152/5
f 83/153/6 71/154/6 77/155/6 85/156/6
f 75/152/3 73/151/3 80/142/3 79/141/3
f 81/157/1 75/158/1 79/140/12 86/139/13
f 71/159/2 72/160/2 78/161/2 77/162/2
f 72/163/1 81/157/1 86/139/13 78/164/1
f 73/165/6 83/153/6 85/156/6 80/166/6
f 72/160/24 71/159/24 83/150/23 81/149/23
f 80/166/6 85/156/6 84/167/6 74/168/6
f 86/145/25 85/148/25 77/162/25 78/161/25
f 96/169/14 91/170/14 87/171/5 88/172/5
f 69/116/2 68/115/2 82/146/2 86/145/2 94/173/2 104/174/2 103/175/2 93/176/2 92/177/2 87/178/2 91/179/2 90/180/2 102/181/2 101/182/2 89/183/2
f 76/144/3 58/111/3 64/110/3 95/184/3 106/185/3 105/186/3 97/187/3 96/188/3 88/189/3 99/190/3 98/191/3 108/192/3 107/193/3 100/194/3 79/141/3
f 88/172/5 87/171/5 92/195/15 99/196/15
f 100/137/11 107/197/16 104/198/16 94/138/11
f 105/199/17 102/200/17 90/201/18 97/202/18
f 96/169/14 97/202/18 90/201/18 91/170/14
f 98/203/19 99/196/15 92/195/15 93/204/19
f 98/203/19 93/204/19 103/205/20 108/206/20
f 64/134/8 69/124/7 89/207/21 95/208/21
f 105/199/17 106/209/22 101/210/22 102/200/17
f 103/205/20 104/198/16 107/197/16 108/206/20
f 106/209/22 95/208/21 89/207/21 101/210/22
