# Blender 4.1.1
# www.blender.org
o Headlight_Reflector
v 0.000000 0.202916 -0.183104
v 0.007512 0.028034 0.057728
v 0.015022 0.056064 0.042667
v 0.022531 0.084085 0.017563
v 0.030036 0.112094 -0.017563
v 0.037536 0.140086 -0.062727
v 0.045031 0.168057 -0.117909
v 0.052519 0.196002 -0.183104
v 0.000000 0.000000 0.062747
v 0.014512 0.025135 0.057728
v 0.029021 0.050266 0.042667
v 0.043526 0.075389 0.017563
v 0.058024 0.100501 -0.017563
v 0.072514 0.125598 -0.062727
v 0.086993 0.150676 -0.117909
v 0.101458 0.175731 -0.183104
v 0.020522 0.020522 0.057728
v 0.041042 0.041042 0.042667
v 0.061555 0.061555 0.017563
v 0.082059 0.082059 -0.017563
v 0.102550 0.102550 -0.062727
v 0.123026 0.123026 -0.117909
v 0.143484 0.143484 -0.183104
v 0.025135 0.014512 0.057728
v 0.050266 0.029021 0.042667
v 0.075389 0.043526 0.017563
v 0.100501 0.058024 -0.017563
v 0.125598 0.072514 -0.062727
v 0.150676 0.086993 -0.117909
v 0.175731 0.101458 -0.183104
v 0.028034 0.007512 0.057728
v 0.056064 0.015022 0.042667
v 0.084085 0.022531 0.017563
v 0.112094 0.030036 -0.017563
v 0.140086 0.037536 -0.062727
v 0.168057 0.045031 -0.117909
v 0.196002 0.052519 -0.183104
v 0.029023 0.000000 0.057728
v 0.058042 0.000000 0.042667
v 0.087052 -0.000000 0.017563
v 0.116048 -0.000000 -0.017563
v 0.145028 -0.000000 -0.062727
v 0.173985 -0.000000 -0.117909
v 0.202916 -0.000000 -0.183104
v 0.028034 -0.007512 0.057728
v 0.056064 -0.015022 0.042667
v 0.084085 -0.022531 0.017563
v 0.112094 -0.030036 -0.017563
v 0.140086 -0.037536 -0.062727
v 0.168057 -0.045031 -0.117909
v 0.196002 -0.052519 -0.183104
v 0.025135 -0.014512 0.057728
v 0.050266 -0.029021 0.042667
v 0.075389 -0.043526 0.017563
v 0.100501 -0.058024 -0.017563
v 0.125598 -0.072514 -0.062727
v 0.150676 -0.086993 -0.117909
v 0.175731 -0.101458 -0.183104
v 0.020522 -0.020522 0.057728
v 0.041042 -0.041042 0.042667
v 0.061555 -0.061555 0.017563
v 0.082059 -0.082059 -0.017563
v 0.102550 -0.102550 -0.062727
v 0.123026 -0.123026 -0.117909
v 0.143484 -0.143484 -0.183104
v 0.014512 -0.025135 0.057728
v 0.029021 -0.050266 0.042667
v 0.043526 -0.075389 0.017563
v 0.058024 -0.100501 -0.017563
v 0.072514 -0.125598 -0.062727
v 0.086993 -0.150676 -0.117909
v 0.101458 -0.175731 -0.183104
v 0.007512 -0.028034 0.057728
v 0.015022 -0.056064 0.042667
v 0.022531 -0.084085 0.017563
v 0.030036 -0.112094 -0.017563
v 0.037536 -0.140086 -0.062727
v 0.045031 -0.168057 -0.117909
v 0.052519 -0.196002 -0.183104
v -0.000000 -0.029023 0.057728
v 0.000000 -0.058042 0.042667
v -0.000000 -0.087052 0.017563
v 0.000000 -0.116048 -0.017563
v 0.000000 -0.145028 -0.062727
v 0.000000 -0.173985 -0.117909
v -0.000000 -0.202916 -0.183104
v -0.007512 -0.028034 0.057728
v -0.015022 -0.056064 0.042667
v -0.022531 -0.084085 0.017563
v -0.030036 -0.112094 -0.017563
v -0.037536 -0.140086 -0.062727
v -0.045031 -0.168057 -0.117909
v -0.052519 -0.196002 -0.183104
v -0.014512 -0.025135 0.057728
v -0.029021 -0.050266 0.042667
v -0.043526 -0.075389 0.017563
v -0.058024 -0.100501 -0.017563
v -0.072514 -0.125598 -0.062727
v -0.086993 -0.150676 -0.117909
v -0.101458 -0.175731 -0.183104
v -0.020522 -0.020522 0.057728
v -0.041042 -0.041042 0.042667
v -0.061555 -0.061555 0.017563
v -0.082059 -0.082059 -0.017563
v -0.102550 -0.102550 -0.062727
v -0.123026 -0.123026 -0.117909
v -0.143484 -0.143484 -0.183104
v -0.025135 -0.014511 0.057728
v -0.050266 -0.029021 0.042667
v -0.075389 -0.043526 0.017563
v -0.100501 -0.058024 -0.017563
v -0.125598 -0.072514 -0.062727
v -0.150676 -0.086993 -0.117909
v -0.175731 -0.101458 -0.183104
v -0.028034 -0.007512 0.057728
v -0.056064 -0.015022 0.042667
v -0.084085 -0.022531 0.017563
v -0.112094 -0.030036 -0.017563
v -0.140086 -0.037536 -0.062727
v -0.168057 -0.045031 -0.117909
v -0.196002 -0.052519 -0.183104
v -0.029023 0.000000 0.057728
v -0.058042 0.000000 0.042667
v -0.087052 0.000000 0.017563
v -0.116048 -0.000000 -0.017563
v -0.145028 -0.000000 -0.062727
v -0.173985 -0.000000 -0.117909
v -0.202916 0.000000 -0.183104
v -0.028034 0.007512 0.057728
v -0.056064 0.015022 0.042667
v -0.084085 0.022531 0.017563
v -0.112094 0.030036 -0.017563
v -0.140086 0.037536 -0.062727
v -0.168057 0.045031 -0.117909
v -0.196002 0.052519 -0.183104
v -0.025135 0.014512 0.057728
v -0.050266 0.029021 0.042667
v -0.075389 0.043526 0.017563
v -0.100501 0.058024 -0.017563
v -0.125598 0.072514 -0.062727
v -0.150676 0.086993 -0.117909
v -0.175731 0.101458 -0.183104
v -0.020522 0.020522 0.057728
v -0.041042 0.041042 0.042667
v -0.061555 0.061555 0.017563
v -0.082059 0.082059 -0.017563
v -0.102550 0.102550 -0.062727
v -0.123026 0.123026 -0.117909
v -0.143483 0.143484 -0.183104
v -0.014511 0.025135 0.057728
v -0.029021 0.050266 0.042667
v -0.043526 0.075389 0.017563
v -0.058024 0.100501 -0.017563
v -0.072514 0.125598 -0.062727
v -0.086993 0.150676 -0.117909
v -0.101458 0.175731 -0.183104
v -0.007512 0.028034 0.057728
v -0.015022 0.056064 0.042667
v -0.022531 0.084085 0.017563
v -0.030036 0.112094 -0.017563
v -0.037536 0.140086 -0.062727
v -0.045031 0.168057 -0.117909
v -0.052519 0.196002 -0.183104
v 0.000000 0.029023 0.057728
v -0.000000 0.058042 0.042667
v 0.000000 0.087052 0.017563
v -0.000000 0.116048 -0.017563
v -0.000000 0.145028 -0.062727
v -0.000000 0.173985 -0.117909
v 0.000000 -0.055840 -0.023753
v 0.013961 -0.055840 -0.019216
v 0.022590 -0.055840 -0.007340
v 0.022590 -0.055840 0.007340
v 0.013961 -0.055840 0.019216
v 0.000000 -0.055840 0.023753
v -0.013961 -0.055840 0.019216
v -0.022590 -0.055840 0.007340
v -0.022590 -0.055840 -0.007340
v -0.013961 -0.055840 -0.019216
v 0.015472 -0.046965 -0.021296
v 0.000000 -0.046965 -0.026323
v 0.025035 -0.046965 -0.008134
v 0.025035 -0.046965 0.008134
v 0.015472 -0.046965 0.021296
v 0.000000 -0.046965 0.026323
v -0.015472 -0.046965 0.021296
v -0.025035 -0.046965 0.008134
v -0.025035 -0.046965 -0.008134
v -0.015472 -0.046965 -0.021296
v 0.016924 -0.021139 -0.023295
v 0.000000 -0.021139 -0.028794
v 0.027384 -0.021139 -0.008898
v 0.027384 -0.021139 0.008898
v 0.016924 -0.021139 0.023295
v 0.000000 -0.021139 0.028794
v -0.016924 -0.021139 0.023295
v -0.027384 -0.021139 0.008898
v -0.027384 -0.021139 -0.008898
v -0.016924 -0.021139 -0.023295
v 0.014463 0.027891 -0.019907
v 0.000000 0.027891 -0.024607
v 0.023402 0.027891 -0.007604
v 0.023402 0.027891 0.007604
v 0.014463 0.027891 0.019907
v 0.000000 0.027891 0.024607
v -0.014463 0.027891 0.019907
v -0.023402 0.027891 0.007604
v -0.023402 0.027891 -0.007604
v -0.014463 0.027891 -0.019907
v 0.010793 0.075977 -0.014856
v 0.000000 0.075977 -0.018363
v 0.017464 0.075977 -0.005674
v 0.017464 0.075977 0.005674
v 0.010793 0.075977 0.014856
v 0.000000 0.075977 0.018363
v -0.010793 0.075977 0.014856
v -0.017464 0.075977 0.005674
v -0.017464 0.075977 -0.005674
v -0.010793 0.075977 -0.014856
v 0.011517 0.136711 -0.015852
v -0.000000 0.136711 -0.019595
v 0.018636 0.136711 -0.006055
v 0.018636 0.136711 0.006055
v 0.011517 0.136711 0.015852
v -0.000000 0.136711 0.019595
v -0.011517 0.136711 0.015852
v -0.018636 0.136711 0.006055
v -0.018636 0.136711 -0.006055
v -0.011517 0.136711 -0.015852
vn -0.0000 -0.3307 -0.9438
vn -0.0856 -0.3194 -0.9438
vn -0.0000 -0.0000 -1.0000
vn -0.0000 -0.5680 -0.8230
vn -0.1470 -0.5486 -0.8230
vn -0.0000 -0.7186 -0.6954
vn -0.1860 -0.6942 -0.6954
vn -0.0000 -0.8096 -0.5870
vn -0.2095 -0.7820 -0.5870
vn -0.0000 -0.8653 -0.5013
vn -0.2240 -0.8358 -0.5013
vn -0.0000 -0.9008 -0.4343
vn -0.2331 -0.8701 -0.4343
vn -0.0000 -0.9140 -0.4056
vn -0.2366 -0.8829 -0.4056
vn -0.1653 -0.2864 -0.9438
vn -0.2840 -0.4919 -0.8230
vn -0.3593 -0.6224 -0.6954
vn -0.4048 -0.7011 -0.5870
vn -0.4326 -0.7494 -0.5013
vn -0.4504 -0.7801 -0.4343
vn -0.4570 -0.7916 -0.4056
vn -0.5082 -0.5082 -0.6954
vn -0.4016 -0.4016 -0.8230
vn -0.5725 -0.5725 -0.5870
vn -0.6119 -0.6119 -0.5013
vn -0.6369 -0.6369 -0.4343
vn -0.6463 -0.6463 -0.4056
vn -0.2338 -0.2338 -0.9438
vn -0.2864 -0.1653 -0.9438
vn -0.4919 -0.2840 -0.8230
vn -0.6224 -0.3593 -0.6954
vn -0.7011 -0.4048 -0.5870
vn -0.7494 -0.4326 -0.5013
vn -0.7801 -0.4504 -0.4343
vn -0.7916 -0.4570 -0.4056
vn -0.3194 -0.0856 -0.9438
vn -0.5486 -0.1470 -0.8230
vn -0.6942 -0.1860 -0.6954
vn -0.7820 -0.2095 -0.5870
vn -0.8358 -0.2240 -0.5013
vn -0.8701 -0.2331 -0.4343
vn -0.8829 -0.2366 -0.4056
vn -0.3307 -0.0000 -0.9438
vn -0.5680 -0.0000 -0.8230
vn -0.7186 -0.0000 -0.6954
vn -0.8096 -0.0000 -0.5870
vn -0.8653 -0.0000 -0.5013
vn -0.9008 -0.0000 -0.4343
vn -0.9140 -0.0000 -0.4056
vn -0.3194 0.0856 -0.9438
vn -0.5486 0.1470 -0.8230
vn -0.6942 0.1860 -0.6954
vn -0.7820 0.2095 -0.5870
vn -0.8358 0.2240 -0.5013
vn -0.8701 0.2331 -0.4343
vn -0.8829 0.2366 -0.4056
vn -0.2864 0.1653 -0.9438
vn -0.4919 0.2840 -0.8230
vn -0.6224 0.3593 -0.6954
vn -0.7011 0.4048 -0.5870
vn -0.7494 0.4326 -0.5013
vn -0.7801 0.4504 -0.4343
vn -0.7916 0.4570 -0.4056
vn -0.2338 0.2338 -0.9438
vn -0.4016 0.4016 -0.8230
vn -0.5082 0.5082 -0.6954
vn -0.5725 0.5725 -0.5870
vn -0.6119 0.6119 -0.5013
vn -0.6369 0.6369 -0.4343
vn -0.6463 0.6463 -0.4056
vn -0.1653 0.2864 -0.9438
vn -0.2840 0.4919 -0.8230
vn -0.3593 0.6224 -0.6954
vn -0.4048 0.7011 -0.5870
vn -0.4326 0.7494 -0.5013
vn -0.4504 0.7801 -0.4343
vn -0.4570 0.7916 -0.4056
vn -0.0856 0.3194 -0.9438
vn -0.1470 0.5486 -0.8230
vn -0.1860 0.6942 -0.6954
vn -0.2095 0.7820 -0.5870
vn -0.2240 0.8358 -0.5013
vn -0.2331 0.8701 -0.4343
vn -0.2366 0.8829 -0.4056
vn -0.0000 0.3307 -0.9438
vn -0.0000 0.5680 -0.8230
vn -0.0000 0.7186 -0.6954
vn -0.0000 0.8096 -0.5870
vn -0.0000 0.8653 -0.5013
vn -0.0000 0.9008 -0.4343
vn -0.0000 0.9140 -0.4056
vn 0.0856 0.3194 -0.9438
vn 0.1470 0.5486 -0.8230
vn 0.1860 0.6942 -0.6954
vn 0.2095 0.7820 -0.5870
vn 0.2240 0.8358 -0.5013
vn 0.2331 0.8701 -0.4343
vn 0.2366 0.8829 -0.4056
vn 0.1653 0.2864 -0.9438
vn 0.2840 0.4919 -0.8230
vn 0.3593 0.6224 -0.6954
vn 0.4048 0.7011 -0.5870
vn 0.4326 0.7494 -0.5013
vn 0.4504 0.7801 -0.4343
vn 0.4570 0.7916 -0.4056
vn 0.2338 0.2338 -0.9438
vn 0.4016 0.4016 -0.8230
vn 0.5082 0.5082 -0.6954
vn 0.5725 0.5725 -0.5870
vn 0.6119 0.6119 -0.5013
vn 0.6369 0.6369 -0.4343
vn 0.6463 0.6463 -0.4056
vn 0.2864 0.1653 -0.9438
vn 0.4919 0.2840 -0.8230
vn 0.6224 0.3593 -0.6954
vn 0.7011 0.4048 -0.5870
vn 0.7494 0.4326 -0.5013
vn 0.7801 0.4504 -0.4343
vn 0.7916 0.4570 -0.4056
vn 0.3194 0.0856 -0.9438
vn 0.5486 0.1470 -0.8230
vn 0.6942 0.1860 -0.6954
vn 0.7820 0.2095 -0.5870
vn 0.8358 0.2240 -0.5013
vn 0.8701 0.2331 -0.4343
vn 0.8829 0.2366 -0.4056
vn 0.3307 -0.0000 -0.9438
vn 0.5680 -0.0000 -0.8230
vn 0.7186 -0.0000 -0.6954
vn 0.8096 -0.0000 -0.5870
vn 0.8653 -0.0000 -0.5013
vn 0.9008 -0.0000 -0.4343
vn 0.9140 -0.0000 -0.4056
vn 0.3194 -0.0856 -0.9438
vn 0.5486 -0.1470 -0.8230
vn 0.6942 -0.1860 -0.6954
vn 0.7820 -0.2095 -0.5870
vn 0.8358 -0.2240 -0.5013
vn 0.8701 -0.2331 -0.4343
vn 0.8829 -0.2366 -0.4056
vn 0.2864 -0.1653 -0.9438
vn 0.4919 -0.2840 -0.8230
vn 0.6224 -0.3593 -0.6954
vn 0.7011 -0.4048 -0.5870
vn 0.7494 -0.4326 -0.5013
vn 0.7801 -0.4504 -0.4343
vn 0.7916 -0.4570 -0.4056
vn 0.2338 -0.2338 -0.9438
vn 0.4016 -0.4016 -0.8230
vn 0.5082 -0.5082 -0.6954
vn 0.5725 -0.5725 -0.5870
vn 0.6119 -0.6119 -0.5013
vn 0.6369 -0.6369 -0.4343
vn 0.6463 -0.6463 -0.4056
vn 0.1653 -0.2864 -0.9438
vn 0.2840 -0.4919 -0.8230
vn 0.3593 -0.6224 -0.6954
vn 0.4048 -0.7011 -0.5870
vn 0.4326 -0.7494 -0.5013
vn 0.4504 -0.7801 -0.4343
vn 0.4570 -0.7916 -0.4056
vn 0.0856 -0.3194 -0.9438
vn 0.1470 -0.5486 -0.8230
vn 0.1860 -0.6942 -0.6954
vn 0.2095 -0.7820 -0.5870
vn 0.2240 -0.8358 -0.5013
vn 0.2331 -0.8701 -0.4343
vn 0.2366 -0.8829 -0.4056
vn -0.0000 -0.2782 0.9605
vn 0.5646 -0.2782 0.7771
vn 0.5777 -0.1842 0.7952
vn -0.0000 -0.1842 0.9829
vn 0.9348 -0.1842 -0.3037
vn 0.5777 -0.1842 -0.7952
vn 0.5878 -0.0050 -0.8090
vn 0.9510 -0.0050 -0.3090
vn 0.9135 -0.2782 -0.2968
vn 0.5646 -0.2782 -0.7771
vn -0.5646 -0.2782 -0.7771
vn -0.9135 -0.2782 -0.2968
vn -0.9348 -0.1842 -0.3037
vn -0.5777 -0.1842 -0.7952
vn -0.5646 -0.2782 0.7771
vn -0.5777 -0.1842 0.7952
vn 0.9135 -0.2782 0.2968
vn 0.9348 -0.1842 0.3037
vn -0.0000 -0.2782 -0.9605
vn -0.0000 -0.1842 -0.9829
vn -0.9135 -0.2782 0.2968
vn -0.9348 -0.1842 0.3037
vn -0.5878 -0.0050 -0.8090
vn -0.9510 -0.0050 -0.3090
vn -0.9456 0.1065 -0.3073
vn -0.5844 0.1065 -0.8044
vn -0.0000 -0.0050 1.0000
vn -0.5878 -0.0050 0.8090
vn 0.9510 -0.0050 0.3090
vn -0.0000 -0.0050 -1.0000
vn -0.9510 -0.0050 0.3090
vn 0.5878 -0.0050 0.8090
vn -0.5844 0.1065 0.8044
vn -0.0000 0.1065 0.9943
vn -0.0000 0.0552 0.9985
vn -0.5869 0.0552 0.8078
vn 0.9456 0.1065 -0.3073
vn 0.9456 0.1065 0.3073
vn -0.0000 0.1065 -0.9943
vn -0.9456 0.1065 0.3073
vn 0.5844 0.1065 0.8044
vn 0.5844 0.1065 -0.8044
vn 0.9496 0.0552 0.3085
vn 0.9496 0.0552 -0.3085
vn 0.9509 -0.0203 -0.3090
vn 0.9509 -0.0203 0.3090
vn -0.5869 0.0552 -0.8078
vn -0.0000 0.0552 -0.9985
vn -0.9496 0.0552 0.3085
vn 0.5869 0.0552 0.8078
vn 0.5869 0.0552 -0.8078
vn -0.9496 0.0552 -0.3085
vn -0.5877 -0.0203 -0.8089
vn -0.0000 -0.0203 -0.9998
vn -0.5877 -0.0203 0.8089
vn -0.9509 -0.0203 0.3090
vn 0.5877 -0.0203 0.8089
vn 0.5877 -0.0203 -0.8089
vn -0.9509 -0.0203 -0.3090
vn -0.0000 -0.0203 0.9998
vt 0.510321 0.851510
vt 0.510141 0.852187
vt 0.507662 0.851143
vt 0.513374 0.851920
vt 0.513003 0.853381
vt 0.517341 0.852423
vt 0.516730 0.854905
vt 0.522787 0.853078
vt 0.521814 0.856936
vt 0.530539 0.854038
vt 0.528984 0.859861
vt 0.541419 0.855258
vt 0.539193 0.863821
vt 0.556400 0.856967
vt 0.553611 0.869274
vt 0.509791 0.852798
vt 0.512235 0.854681
vt 0.515443 0.857129
vt 0.519879 0.860438
vt 0.525997 0.865064
vt 0.534851 0.871548
vt 0.547647 0.880735
vt 0.513624 0.858936
vt 0.511176 0.855763
vt 0.517028 0.863243
vt 0.521791 0.869367
vt 0.528609 0.877845
vt 0.538659 0.890509
vt 0.509287 0.853291
vt 0.508674 0.853636
vt 0.509855 0.856510
vt 0.511407 0.860214
vt 0.513595 0.865320
vt 0.516584 0.872388
vt 0.521006 0.882479
vt 0.527114 0.897207
vt 0.507994 0.853819
vt 0.508389 0.856890
vt 0.508934 0.860864
vt 0.509705 0.866344
vt 0.510785 0.873997
vt 0.512416 0.884901
vt 0.514391 0.900595
vt 0.507290 0.853811
vt 0.506880 0.856880
vt 0.506384 0.860844
vt 0.505689 0.866334
vt 0.504752 0.874032
vt 0.503488 0.884974
vt 0.501312 0.900567
vt 0.506612 0.853622
vt 0.505425 0.856479
vt 0.503896 0.860221
vt 0.501842 0.865261
vt 0.498903 0.872497
vt 0.494858 0.882717
vt 0.488731 0.897167
vt 0.506007 0.853264
vt 0.504128 0.855712
vt 0.501670 0.858920
vt 0.498339 0.863339
vt 0.493695 0.869464
vt 0.487127 0.878299
vt 0.477490 0.890647
vt 0.505514 0.852763
vt 0.503050 0.854653
vt 0.499866 0.857091
vt 0.495520 0.860487
vt 0.489431 0.865238
vt 0.480816 0.872050
vt 0.468332 0.881470
vt 0.505168 0.852151
vt 0.502312 0.853335
vt 0.498595 0.854868
vt 0.493542 0.857018
vt 0.486406 0.860041
vt 0.476334 0.864384
vt 0.461858 0.870250
vt 0.504992 0.851470
vt 0.501908 0.851875
vt 0.497946 0.852396
vt 0.492548 0.853176
vt 0.484816 0.854224
vt 0.473989 0.855820
vt 0.458507 0.857745
vt 0.505000 0.850768
vt 0.501924 0.850358
vt 0.497947 0.849844
vt 0.492481 0.849201
vt 0.484826 0.848200
vt 0.473945 0.846949
vt 0.458507 0.844815
vt 0.505189 0.850092
vt 0.502329 0.848899
vt 0.498612 0.847373
vt 0.493458 0.845310
vt 0.486385 0.842417
vt 0.476188 0.838389
vt 0.461834 0.832350
vt 0.505547 0.849489
vt 0.503097 0.847596
vt 0.499901 0.845162
vt 0.495486 0.841845
vt 0.489345 0.837219
vt 0.480553 0.830703
vt 0.468243 0.821169
vt 0.506043 0.848992
vt 0.504173 0.846539
vt 0.501719 0.843360
vt 0.498324 0.839023
vt 0.493563 0.832961
vt 0.486755 0.824396
vt 0.477315 0.812004
vt 0.506654 0.848648
vt 0.505482 0.845803
vt 0.503942 0.842090
vt 0.501786 0.837031
vt 0.498744 0.829939
vt 0.494383 0.819900
vt 0.488459 0.805477
vt 0.507335 0.848474
vt 0.506934 0.845399
vt 0.506413 0.841443
vt 0.505639 0.836004
vt 0.504535 0.828359
vt 0.502922 0.817529
vt 0.500935 0.802049
vt 0.508036 0.848481
vt 0.508444 0.845416
vt 0.508958 0.841453
vt 0.509617 0.836014
vt 0.510541 0.828331
vt 0.511792 0.817452
vt 0.513893 0.801979
vt 0.508711 0.848669
vt 0.509894 0.845820
vt 0.511416 0.842119
vt 0.513438 0.837060
vt 0.516364 0.829855
vt 0.520383 0.819681
vt 0.526432 0.805293
vt 0.509313 0.849025
vt 0.511188 0.846585
vt 0.513628 0.843398
vt 0.516925 0.838980
vt 0.521557 0.832871
vt 0.528097 0.824066
vt 0.537661 0.811765
vt 0.509804 0.849525
vt 0.512264 0.847641
vt 0.515426 0.845207
vt 0.519715 0.841817
vt 0.525818 0.837079
vt 0.534405 0.830283
vt 0.546786 0.820926
vt 0.510147 0.850134
vt 0.513008 0.848958
vt 0.516699 0.847413
vt 0.521780 0.845229
vt 0.528770 0.842263
vt 0.538906 0.837914
vt 0.553163 0.832111
vt 0.510329 0.850810
vt 0.513386 0.850417
vt 0.517351 0.849876
vt 0.522806 0.849095
vt 0.530501 0.847995
vt 0.541215 0.846442
vt 0.556377 0.844424
vt 0.336871 0.929200
vt 0.339536 0.929502
vt 0.339399 0.931168
vt 0.336538 0.930855
vt 0.344930 0.931335
vt 0.347649 0.931347
vt 0.347658 0.935472
vt 0.344925 0.935493
vt 0.344949 0.929703
vt 0.347653 0.929728
vt 0.353057 0.929684
vt 0.355803 0.929720
vt 0.355802 0.931359
vt 0.353058 0.931358
vt 0.361213 0.929573
vt 0.363975 0.929245
vt 0.364310 0.930978
vt 0.361344 0.931250
vt 0.342244 0.929645
vt 0.342188 0.931288
vt 0.350336 0.929746
vt 0.350345 0.931340
vt 0.358505 0.929722
vt 0.358547 0.931337
vt 0.353055 0.935473
vt 0.355791 0.935538
vt 0.355424 0.943436
vt 0.352875 0.943323
vt 0.364589 0.935789
vt 0.361485 0.935675
vt 0.342138 0.935509
vt 0.350351 0.935427
vt 0.358564 0.935607
vt 0.339237 0.935532
vt 0.336123 0.935558
vt 0.360598 0.943932
vt 0.363222 0.944369
vt 0.361244 0.952851
vt 0.359135 0.952636
vt 0.345232 0.943403
vt 0.342649 0.943598
vt 0.350331 0.943283
vt 0.357996 0.943640
vt 0.340024 0.943881
vt 0.347786 0.943315
vt 0.337324 0.944307
vt 0.343634 0.952490
vt 0.345846 0.952380
vt 0.345955 0.963844
vt 0.343779 0.963861
vt 0.352553 0.952298
vt 0.350311 0.952295
vt 0.356984 0.952451
vt 0.341474 0.952675
vt 0.348069 0.952303
vt 0.354781 0.952350
vt 0.339381 0.952905
vt 0.352489 0.963831
vt 0.350309 0.963822
vt 0.359034 0.963886
vt 0.356854 0.963871
vt 0.341608 0.963881
vt 0.348131 0.963823
vt 0.354671 0.963849
vt 0.339442 0.963898
vt 0.361211 0.963898
s 1
f 164/1/1 2/2/2 9/3/3
f 165/4/4 3/5/5 2/2/2 164/1/1
f 166/6/6 4/7/7 3/5/5 165/4/4
f 167/8/8 5/9/9 4/7/7 166/6/6
f 168/10/10 6/11/11 5/9/9 167/8/8
f 169/12/12 7/13/13 6/11/11 168/10/10
f 1/14/14 8/15/15 7/13/13 169/12/12
f 2/2/2 10/16/16 9/3/3
f 3/5/5 11/17/17 10/16/16 2/2/2
f 4/7/7 12/18/18 11/17/17 3/5/5
f 5/9/9 13/19/19 12/18/18 4/7/7
f 6/11/11 14/20/20 13/19/19 5/9/9
f 7/13/13 15/21/21 14/20/20 6/11/11
f 8/15/15 16/22/22 15/21/21 7/13/13
f 12/18/18 19/23/23 18/24/24 11/17/17
f 13/19/19 20/25/25 19/23/23 12/18/18
f 14/20/20 21/26/26 20/25/25 13/19/19
f 15/21/21 22/27/27 21/26/26 14/20/20
f 16/22/22 23/28/28 22/27/27 15/21/21
f 10/16/16 17/29/29 9/3/3
f 11/17/17 18/24/24 17/29/29 10/16/16
f 17/29/29 24/30/30 9/3/3
f 18/24/24 25/31/31 24/30/30 17/29/29
f 19/23/23 26/32/32 25/31/31 18/24/24
f 20/25/25 27/33/33 26/32/32 19/23/23
f 21/26/26 28/34/34 27/33/33 20/25/25
f 22/27/27 29/35/35 28/34/34 21/26/26
f 23/28/28 30/36/36 29/35/35 22/27/27
f 24/30/30 31/37/37 9/3/3
f 25/31/31 32/38/38 31/37/37 24/30/30
f 26/32/32 33/39/39 32/38/38 25/31/31
f 27/33/33 34/40/40 33/39/39 26/32/32
f 28/34/34 35/41/41 34/40/40 27/33/33
f 29/35/35 36/42/42 35/41/41 28/34/34
f 30/36/36 37/43/43 36/42/42 29/35/35
f 31/37/37 38/44/44 9/3/3
f 32/38/38 39/45/45 38/44/44 31/37/37
f 33/39/39 40/46/46 39/45/45 32/38/38
f 34/40/40 41/47/47 40/46/46 33/39/39
f 35/41/41 42/48/48 41/47/47 34/40/40
f 36/42/42 43/49/49 42/48/48 35/41/41
f 37/43/43 44/50/50 43/49/49 36/42/42
f 38/44/44 45/51/51 9/3/3
f 39/45/45 46/52/52 45/51/51 38/44/44
f 40/46/46 47/53/53 46/52/52 39/45/45
f 41/47/47 48/54/54 47/53/53 40/46/46
f 42/48/48 49/55/55 48/54/54 41/47/47
f 43/49/49 50/56/56 49/55/55 42/48/48
f 44/50/50 51/57/57 50/56/56 43/49/49
f 45/51/51 52/58/58 9/3/3
f 46/52/52 53/59/59 52/58/58 45/51/51
f 47/53/53 54/60/60 53/59/59 46/52/52
f 48/54/54 55/61/61 54/60/60 47/53/53
f 49/55/55 56/62/62 55/61/61 48/54/54
f 50/56/56 57/63/63 56/62/62 49/55/55
f 51/57/57 58/64/64 57/63/63 50/56/56
f 52/58/58 59/65/65 9/3/3
f 53/59/59 60/66/66 59/65/65 52/58/58
f 54/60/60 61/67/67 60/66/66 53/59/59
f 55/61/61 62/68/68 61/67/67 54/60/60
f 56/62/62 63/69/69 62/68/68 55/61/61
f 57/63/63 64/70/70 63/69/69 56/62/62
f 58/64/64 65/71/71 64/70/70 57/63/63
f 59/65/65 66/72/72 9/3/3
f 60/66/66 67/73/73 66/72/72 59/65/65
f 61/67/67 68/74/74 67/73/73 60/66/66
f 62/68/68 69/75/75 68/74/74 61/67/67
f 63/69/69 70/76/76 69/75/75 62/68/68
f 64/70/70 71/77/77 70/76/76 63/69/69
f 65/71/71 72/78/78 71/77/77 64/70/70
f 66/72/72 73/79/79 9/3/3
f 67/73/73 74/80/80 73/79/79 66/72/72
f 68/74/74 75/81/81 74/80/80 67/73/73
f 69/75/75 76/82/82 75/81/81 68/74/74
f 70/76/76 77/83/83 76/82/82 69/75/75
f 71/77/77 78/84/84 77/83/83 70/76/76
f 72/78/78 79/85/85 78/84/84 71/77/77
f 73/79/79 80/86/86 9/3/3
f 74/80/80 81/87/87 80/86/86 73/79/79
f 75/81/81 82/88/88 81/87/87 74/80/80
f 76/82/82 83/89/89 82/88/88 75/81/81
f 77/83/83 84/90/90 83/89/89 76/82/82
f 78/84/84 85/91/91 84/90/90 77/83/83
f 79/85/85 86/92/92 85/91/91 78/84/84
f 80/86/86 87/93/93 9/3/3
f 81/87/87 88/94/94 87/93/93 80/86/86
f 82/88/88 89/95/95 88/94/94 81/87/87
f 83/89/89 90/96/96 89/95/95 82/88/88
f 84/90/90 91/97/97 90/96/96 83/89/89
f 85/91/91 92/98/98 91/97/97 84/90/90
f 86/92/92 93/99/99 92/98/98 85/91/91
f 87/93/93 94/100/100 9/3/3
f 88/94/94 95/101/101 94/100/100 87/93/93
f 89/95/95 96/102/102 95/101/101 88/94/94
f 90/96/96 97/103/103 96/102/102 89/95/95
f 91/97/97 98/104/104 97/103/103 90/96/96
f 92/98/98 99/105/105 98/104/104 91/97/97
f 93/99/99 100/106/106 99/105/105 92/98/98
f 94/100/100 101/107/107 9/3/3
f 95/101/101 102/108/108 101/107/107 94/100/100
f 96/102/102 103/109/109 102/108/108 95/101/101
f 97/103/103 104/110/110 103/109/109 96/102/102
f 98/104/104 105/111/111 104/110/110 97/103/103
f 99/105/105 106/112/112 105/111/111 98/104/104
f 100/106/106 107/113/113 106/112/112 99/105/105
f 101/107/107 108/114/114 9/3/3
f 102/108/108 109/115/115 108/114/114 101/107/107
f 103/109/109 110/116/116 109/115/115 102/108/108
f 104/110/110 111/117/117 110/116/116 103/109/109
f 105/111/111 112/118/118 111/117/117 104/110/110
f 106/112/112 113/119/119 112/118/118 105/111/111
f 107/113/113 114/120/120 113/119/119 106/112/112
f 108/114/114 115/121/121 9/3/3
f 109/115/115 116/122/122 115/121/121 108/114/114
f 110/116/116 117/123/123 116/122/122 109/115/115
f 111/117/117 118/124/124 117/123/123 110/116/116
f 112/118/118 119/125/125 118/124/124 111/117/117
f 113/119/119 120/126/126 119/125/125 112/118/118
f 114/120/120 121/127/127 120/126/126 113/119/119
f 115/121/121 122/128/128 9/3/3
f 116/122/122 123/129/129 122/128/128 115/121/121
f 117/123/123 124/130/130 123/129/129 116/122/122
f 118/124/124 125/131/131 124/130/130 117/123/123
f 119/125/125 126/132/132 125/131/131 118/124/124
f 120/126/126 127/133/133 126/132/132 119/125/125
f 121/127/127 128/134/134 127/133/133 120/126/126
f 122/128/128 129/135/135 9/3/3
f 123/129/129 130/136/136 129/135/135 122/128/128
f 124/130/130 131/137/137 130/136/136 123/129/129
f 125/131/131 132/138/138 131/137/137 124/130/130
f 126/132/132 133/139/139 132/138/138 125/131/131
f 127/133/133 134/140/140 133/139/139 126/132/132
f 128/134/134 135/141/141 134/140/140 127/133/133
f 129/135/135 136/142/142 9/3/3
f 130/136/136 137/143/143 136/142/142 129/135/135
f 131/137/137 138/144/144 137/143/143 130/136/136
f 132/138/138 139/145/145 138/144/144 131/137/137
f 133/139/139 140/146/146 139/145/145 132/138/138
f 134/140/140 141/147/147 140/146/146 133/139/139
f 135/141/141 142/148/148 141/147/147 134/140/140
f 136/142/142 143/149/149 9/3/3
f 137/143/143 144/150/150 143/149/149 136/142/142
f 138/144/144 145/151/151 144/150/150 137/143/143
f 139/145/145 146/152/152 145/151/151 138/144/144
f 140/146/146 147/153/153 146/152/152 139/145/145
f 141/147/147 148/154/154 147/153/153 140/146/146
f 142/148/148 149/155/155 148/154/154 141/147/147
f 143/149/149 150/156/156 9/3/3
f 144/150/150 151/157/157 150/156/156 143/149/149
f 145/151/151 152/158/158 151/157/157 144/150/150
f 146/152/152 153/159/159 152/158/158 145/151/151
f 147/153/153 154/160/160 153/159/159 146/152/152
f 148/154/154 155/161/161 154/160/160 147/153/153
f 149/155/155 156/162/162 155/161/161 148/154/154
f 150/156/156 157/163/163 9/3/3
f 151/157/157 158/164/164 157/163/163 150/156/156
f 152/158/158 159/165/165 158/164/164 151/157/157
f 153/159/159 160/166/166 159/165/165 152/158/158
f 154/160/160 161/167/167 160/166/166 153/159/159
f 155/161/161 162/168/168 161/167/167 154/160/160
f 156/162/162 163/169/169 162/168/168 155/161/161
f 157/163/163 164/1/1 9/3/3
f 158/164/164 165/4/4 164/1/1 157/163/163
f 159/165/165 166/6/6 165/4/4 158/164/164
f 160/166/166 167/8/8 166/6/6 159/165/165
f 161/167/167 168/10/10 167/8/8 160/166/166
f 162/168/168 169/12/12 168/10/10 161/167/167
f 163/169/169 1/14/14 169/12/12 162/168/168
f 175/170/170 174/171/171 184/172/172 185/173/173
f 182/174/174 180/175/175 190/176/176 192/177/177
f 172/178/178 171/179/179 180/175/175 182/174/174
f 179/180/180 178/181/181 188/182/182 189/183/183
f 176/184/184 175/185/170 185/186/173 186/187/185
f 173/188/186 172/178/178 182/174/174 183/189/187
f 170/190/188 179/180/180 189/183/183 181/191/189
f 177/192/190 176/184/184 186/187/185 187/193/191
f 174/171/171 173/188/186 183/189/187 184/172/172
f 171/179/179 170/190/188 181/191/189 180/175/175
f 178/181/181 177/192/190 187/193/191 188/182/182
f 199/194/192 198/195/193 208/196/194 209/197/195
f 189/183/183 188/182/182 198/195/193 199/194/192
f 186/187/185 185/186/173 195/198/196 196/199/197
f 183/189/187 182/174/174 192/177/177 193/200/198
f 181/191/189 189/183/183 199/194/192 191/201/199
f 187/193/191 186/187/185 196/199/197 197/202/200
f 184/172/172 183/189/187 193/200/198 194/203/201
f 180/175/175 181/191/189 191/201/199 190/176/176
f 188/182/182 187/193/191 197/202/200 198/195/193
f 185/173/173 184/172/172 194/203/201 195/204/196
f 206/205/202 205/206/203 215/207/204 216/208/205
f 196/199/197 195/198/196 205/206/203 206/205/202
f 193/200/198 192/177/177 202/209/206 203/210/207
f 191/201/199 199/194/192 209/197/195 201/211/208
f 197/202/200 196/199/197 206/205/202 207/212/209
f 194/203/201 193/200/198 203/210/207 204/213/210
f 190/176/176 191/201/199 201/211/208 200/214/211
f 198/195/193 197/202/200 207/212/209 208/196/194
f 195/204/196 194/203/201 204/213/210 205/215/203
f 192/177/177 190/176/176 200/214/211 202/209/206
f 213/216/212 212/217/213 222/218/214 223/219/215
f 203/210/207 202/209/206 212/217/213 213/216/212
f 201/211/208 209/197/195 219/220/216 211/221/217
f 207/212/209 206/205/202 216/208/205 217/222/218
f 204/213/210 203/210/207 213/216/212 214/223/219
f 200/214/211 201/211/208 211/221/217 210/224/220
f 208/196/194 207/212/209 217/222/218 218/225/221
f 205/215/203 204/213/210 214/223/219 215/226/204
f 202/209/206 200/214/211 210/224/220 212/217/213
f 209/197/195 208/196/194 218/225/221 219/220/216
f 211/221/217 219/220/216 229/227/222 221/228/223
f 217/222/218 216/208/205 226/229/224 227/230/225
f 214/223/219 213/216/212 223/219/215 224/231/226
f 210/224/220 211/221/217 221/228/223 220/232/227
f 218/225/221 217/222/218 227/230/225 228/233/228
f 215/226/204 214/223/219 224/231/226 225/234/229
f 212/217/213 210/224/220 220/232/227 222/218/214
f 219/220/216 218/225/221 228/233/228 229/227/222
f 216/208/205 215/207/204 225/235/229 226/229/224
