# Blender 4.1.1
# www.blender.org
o Headlight_OilLamp_Ring
v 0.000000 0.202916 -0.183104
v 0.052519 0.196002 -0.183104
v 0.101458 0.175731 -0.183104
v 0.143484 0.143484 -0.183104
v 0.175731 0.101458 -0.183104
v 0.196002 0.052519 -0.183104
v 0.202916 -0.000000 -0.183104
v 0.196002 -0.052519 -0.183104
v 0.175731 -0.101458 -0.183104
v 0.143484 -0.143484 -0.183104
v 0.101458 -0.175731 -0.183104
v 0.052519 -0.196002 -0.183104
v -0.000000 -0.202916 -0.183104
v -0.052519 -0.196002 -0.183104
v -0.101458 -0.175731 -0.183104
v -0.143484 -0.143484 -0.183104
v -0.175731 -0.101458 -0.183104
v -0.196002 -0.052519 -0.183104
v -0.202916 0.000000 -0.183104
v -0.196002 0.052519 -0.183104
v -0.175731 0.101458 -0.183104
v -0.143483 0.143484 -0.183104
v -0.101458 0.175731 -0.183104
v -0.052519 0.196002 -0.183104
v -0.000000 0.227221 -0.183104
v 0.058809 0.219479 -0.183104
v 0.113610 0.196779 -0.183104
v 0.160669 0.160669 -0.183104
v 0.196779 0.113610 -0.183104
v 0.219479 0.058809 -0.183104
v 0.227221 -0.000000 -0.183104
v 0.219479 -0.058809 -0.183104
v 0.196779 -0.113610 -0.183104
v 0.160669 -0.160669 -0.183104
v 0.113610 -0.196779 -0.183104
v 0.058809 -0.219479 -0.183104
v -0.000000 -0.227221 -0.183104
v -0.058809 -0.219479 -0.183104
v -0.113610 -0.196779 -0.183104
v -0.160669 -0.160669 -0.183104
v -0.196779 -0.113610 -0.183104
v -0.219479 -0.058809 -0.183104
v -0.227221 0.000000 -0.183104
v -0.219478 0.058809 -0.183104
v -0.196779 0.113610 -0.183104
v -0.160669 0.160669 -0.183104
v -0.113610 0.196779 -0.183104
v -0.058809 0.219478 -0.183104
v -0.000000 0.227221 -0.221950
v 0.058809 0.219479 -0.221950
v 0.113610 0.196779 -0.221950
v 0.160669 0.160669 -0.221950
v 0.196779 0.113610 -0.221950
v 0.219479 0.058809 -0.221950
v 0.227221 -0.000000 -0.221950
v 0.219479 -0.058809 -0.221950
v 0.196779 -0.113610 -0.221950
v 0.160669 -0.160669 -0.221950
v 0.113610 -0.196779 -0.221950
v 0.058809 -0.219479 -0.221950
v -0.000000 -0.227221 -0.221950
v -0.058809 -0.219479 -0.221950
v -0.113610 -0.196779 -0.221950
v -0.160669 -0.160669 -0.221950
v -0.196779 -0.113610 -0.221950
v -0.219479 -0.058809 -0.221950
v -0.227221 0.000000 -0.221950
v -0.219478 0.058809 -0.221950
v -0.196779 0.113610 -0.221950
v -0.160669 0.160669 -0.221950
v -0.113610 0.196779 -0.221950
v -0.058809 0.219478 -0.221950
v -0.000000 0.253786 -0.117909
v 0.065685 0.245139 -0.117909
v 0.126893 0.219785 -0.117909
v 0.179454 0.179454 -0.117909
v 0.219785 0.126893 -0.117909
v 0.245139 0.065685 -0.117909
v 0.253786 -0.000000 -0.117909
v 0.245139 -0.065685 -0.117909
v 0.219785 -0.126893 -0.117909
v 0.179454 -0.179454 -0.117909
v 0.126893 -0.219785 -0.117909
v 0.065685 -0.245139 -0.117909
v -0.000000 -0.253786 -0.117909
v -0.065685 -0.245139 -0.117909
v -0.126893 -0.219785 -0.117909
v -0.179454 -0.179454 -0.117909
v -0.219785 -0.126893 -0.117909
v -0.245139 -0.065685 -0.117909
v -0.253786 0.000000 -0.117909
v -0.245139 0.065685 -0.117909
v -0.219785 0.126893 -0.117909
v -0.179454 0.179454 -0.117909
v -0.126893 0.219785 -0.117909
v -0.065685 0.245138 -0.117909
v -0.000000 0.240662 -0.221950
v -0.000000 0.253786 -0.207826
v 0.065685 0.245139 -0.207826
v 0.062288 0.232462 -0.221950
v 0.126893 0.219785 -0.207826
v 0.120331 0.208419 -0.221950
v 0.179454 0.179454 -0.207826
v 0.170174 0.170174 -0.221950
v 0.219785 0.126893 -0.207826
v 0.208419 0.120331 -0.221950
v 0.245139 0.065685 -0.207826
v 0.232462 0.062288 -0.221950
v 0.253786 -0.000000 -0.207826
v 0.240662 -0.000000 -0.221950
v 0.245139 -0.065685 -0.207826
v 0.232462 -0.062288 -0.221950
v 0.219785 -0.126893 -0.207826
v 0.208419 -0.120331 -0.221950
v 0.179454 -0.179454 -0.207826
v 0.170174 -0.170174 -0.221950
v 0.126893 -0.219785 -0.207826
v 0.120331 -0.208419 -0.221950
v 0.065685 -0.245139 -0.207826
v 0.062288 -0.232462 -0.221950
v -0.000000 -0.253786 -0.207826
v -0.000000 -0.240662 -0.221950
v -0.065685 -0.245139 -0.207826
v -0.062288 -0.232462 -0.221950
v -0.126893 -0.219785 -0.207826
v -0.120331 -0.208419 -0.221950
v -0.179454 -0.179454 -0.207826
v -0.170174 -0.170174 -0.221950
v -0.219785 -0.126893 -0.207826
v -0.208419 -0.120331 -0.221950
v -0.245139 -0.065685 -0.207826
v -0.232462 -0.062288 -0.221950
v -0.253786 0.000000 -0.207826
v -0.240662 0.000000 -0.221950
v -0.245139 0.065685 -0.207826
v -0.232461 0.062288 -0.221950
v -0.219785 0.126893 -0.207826
v -0.208419 0.120331 -0.221950
v -0.179454 0.179454 -0.207826
v -0.170174 0.170174 -0.221950
v -0.126893 0.219785 -0.207826
v -0.120331 0.208419 -0.221950
v -0.065685 0.245138 -0.207826
v -0.062288 0.232461 -0.221950
v 0.000000 -0.153258 -0.026250
v 0.000000 -0.055840 -0.023753
v 0.015429 -0.153258 -0.021237
v 0.013961 -0.055840 -0.019216
v 0.024965 -0.153258 -0.008112
v 0.022590 -0.055840 -0.007340
v 0.024965 -0.153258 0.008112
v 0.022590 -0.055840 0.007340
v 0.015429 -0.153258 0.021237
v 0.013961 -0.055840 0.019216
v 0.000000 -0.153258 0.026250
v 0.000000 -0.055840 0.023753
v -0.015429 -0.153258 0.021237
v -0.013961 -0.055840 0.019216
v -0.024965 -0.153258 0.008112
v -0.022590 -0.055840 0.007340
v -0.024965 -0.153258 -0.008112
v -0.022590 -0.055840 -0.007340
v -0.015429 -0.153258 -0.021237
v -0.013961 -0.055840 -0.019216
v 0.000000 -0.083097 -0.029298
v 0.017221 -0.083097 -0.023702
v 0.027864 -0.083097 -0.009054
v 0.027864 -0.083097 0.009054
v 0.017221 -0.083097 0.023702
v 0.000000 -0.083097 0.029298
v -0.017221 -0.083097 0.023702
v -0.027864 -0.083097 0.009054
v -0.027864 -0.083097 -0.009054
v -0.017221 -0.083097 -0.023702
v 0.015429 -0.081679 -0.021237
v 0.024965 -0.081679 -0.008112
v 0.024965 -0.081679 0.008112
v 0.015429 -0.081679 0.021237
v 0.000000 -0.081679 0.026250
v -0.015429 -0.081679 0.021237
v -0.024965 -0.081679 0.008112
v -0.024965 -0.081679 -0.008112
v -0.015429 -0.081679 -0.021237
v 0.000000 -0.081679 -0.026250
v 0.017221 -0.055840 -0.023702
v 0.000000 -0.055840 -0.029298
v 0.027864 -0.055840 -0.009054
v 0.027864 -0.055840 0.009054
v 0.017221 -0.055840 0.023702
v 0.000000 -0.055840 0.029298
v -0.017221 -0.055840 0.023702
v -0.027864 -0.055840 0.009054
v -0.027864 -0.055840 -0.009054
v -0.017221 -0.055840 -0.023702
vn -0.0000 -0.0000 -1.0000
vn 0.2588 0.9659 -0.0000
vn -0.0000 1.0000 -0.0000
vn -1.0000 -0.0000 -0.0000
vn -0.9659 -0.2588 -0.0000
vn 0.7071 -0.7071 -0.0000
vn 0.8660 -0.5000 -0.0000
vn 0.5000 0.8660 -0.0000
vn -0.9659 0.2588 -0.0000
vn 0.5000 -0.8660 -0.0000
vn 0.7071 0.7071 -0.0000
vn -0.8660 0.5000 -0.0000
vn 0.2588 -0.9659 -0.0000
vn -0.2588 -0.9659 -0.0000
vn -0.0000 -1.0000 -0.0000
vn 0.8660 0.5000 -0.0000
vn -0.7071 0.7071 -0.0000
vn -0.5000 -0.8660 -0.0000
vn 0.9659 0.2588 -0.0000
vn -0.5000 0.8660 -0.0000
vn -0.7071 -0.7071 -0.0000
vn 1.0000 -0.0000 -0.0000
vn -0.2588 0.9659 -0.0000
vn -0.8660 -0.5000 -0.0000
vn 0.9659 -0.2588 -0.0000
vn -0.0000 -0.4268 -0.9044
vn -0.1105 -0.4122 -0.9044
vn 0.4122 0.1105 -0.9044
vn 0.4268 -0.0000 -0.9044
vn -0.3696 0.2134 -0.9044
vn -0.3018 0.3018 -0.9044
vn -0.2134 -0.3696 -0.9044
vn 0.4122 -0.1105 -0.9044
vn -0.2134 0.3696 -0.9044
vn -0.3018 -0.3018 -0.9044
vn 0.3696 -0.2134 -0.9044
vn -0.1105 0.4122 -0.9044
vn -0.0000 0.4268 -0.9044
vn 0.1105 0.4122 -0.9044
vn -0.3696 -0.2134 -0.9044
vn 0.3018 -0.3018 -0.9044
vn 0.2134 0.3696 -0.9044
vn -0.4122 -0.1105 -0.9044
vn 0.2134 -0.3696 -0.9044
vn 0.3018 0.3018 -0.9044
vn -0.4268 -0.0000 -0.9044
vn 0.1105 -0.4122 -0.9044
vn 0.3696 0.2134 -0.9044
vn -0.4122 0.1105 -0.9044
vn -0.0000 0.7325 -0.6807
vn 0.1896 0.7076 -0.6807
vn 0.3663 0.6344 -0.6807
vn 0.5180 0.5180 -0.6807
vn 0.6344 0.3663 -0.6807
vn 0.7076 0.1896 -0.6807
vn 0.7325 -0.0000 -0.6807
vn 0.7076 -0.1896 -0.6807
vn 0.6344 -0.3663 -0.6807
vn 0.5180 -0.5180 -0.6807
vn 0.3663 -0.6344 -0.6807
vn 0.1896 -0.7076 -0.6807
vn -0.0000 -0.7325 -0.6807
vn -0.1896 -0.7076 -0.6807
vn -0.3663 -0.6344 -0.6807
vn -0.5180 -0.5180 -0.6807
vn -0.6344 -0.3663 -0.6807
vn -0.7076 -0.1896 -0.6807
vn -0.7325 -0.0000 -0.6807
vn -0.7076 0.1896 -0.6807
vn -0.6344 0.3663 -0.6807
vn -0.5180 0.5180 -0.6807
vn -0.3663 0.6344 -0.6807
vn -0.1896 0.7076 -0.6807
vn 0.5878 -0.0000 -0.8090
vn 0.9511 -0.0000 -0.3090
vn 0.9511 -0.0000 0.3090
vn 0.5878 -0.0000 0.8090
vn -0.0000 -0.0000 1.0000
vn -0.5878 -0.0000 0.8090
vn -0.9511 -0.0000 0.3090
vn -0.9511 -0.0000 -0.3090
vn -0.5878 -0.0000 -0.8090
vn 0.2479 -0.9067 0.3412
vn -0.0000 -0.9067 0.4218
vn 0.4011 -0.9067 0.1303
vn 0.4011 -0.9067 -0.1303
vn 0.2479 -0.9067 -0.3412
vn -0.0000 -0.9067 -0.4218
vn -0.2479 -0.9067 -0.3412
vn -0.4011 -0.9067 -0.1303
vn -0.4011 -0.9067 0.1303
vn -0.2479 -0.9067 0.3412
vt 0.538461 0.732302
vt 0.544018 0.727120
vt 0.546756 0.729353
vt 0.540529 0.735159
vt 0.509670 0.735047
vt 0.516858 0.737231
vt 0.516300 0.740681
vt 0.508239 0.738199
vt 0.492699 0.711560
vt 0.494532 0.718854
vt 0.491310 0.720125
vt 0.489192 0.711925
vt 0.504597 0.685025
vt 0.499067 0.690248
vt 0.496274 0.688014
vt 0.502518 0.682189
vt 0.548889 0.698420
vt 0.545314 0.691723
vt 0.548171 0.689649
vt 0.552150 0.697191
vt 0.548071 0.720650
vt 0.551320 0.722143
vt 0.526268 0.679903
vt 0.518643 0.679650
vt 0.518287 0.676180
vt 0.526842 0.676368
vt 0.524405 0.737511
vt 0.524756 0.741002
vt 0.498111 0.725529
vt 0.495267 0.727596
vt 0.495144 0.696708
vt 0.491962 0.695324
vt 0.540102 0.686157
vt 0.542334 0.683395
vt 0.550342 0.713398
vt 0.553793 0.713986
vt 0.531775 0.735844
vt 0.533026 0.739134
vt 0.503285 0.731035
vt 0.501031 0.733781
vt 0.492957 0.703987
vt 0.489447 0.703409
vt 0.511277 0.681412
vt 0.510003 0.678139
vt 0.533606 0.682124
vt 0.535048 0.678880
vt 0.550602 0.705820
vt 0.554157 0.705476
vt 0.515299 0.746691
vt 0.505702 0.743815
vt 0.560312 0.704868
vt 0.559942 0.715006
vt 0.491632 0.684258
vt 0.498915 0.677260
vt 0.497171 0.738518
vt 0.556891 0.724670
vt 0.507780 0.672401
vt 0.490268 0.731231
vt 0.551490 0.733253
vt 0.517614 0.669997
vt 0.527794 0.670289
vt 0.537578 0.673237
vt 0.485442 0.722394
vt 0.544109 0.740179
vt 0.546283 0.678569
vt 0.483228 0.712547
vt 0.535186 0.744923
vt 0.553190 0.686041
vt 0.483403 0.702457
vt 0.525341 0.747095
vt 0.557923 0.694997
vt 0.486201 0.692767
vt 0.549929 0.674115
vt 0.539889 0.668050
vt 0.548278 0.649551
vt 0.562314 0.659303
vt 0.557734 0.682793
vt 0.574154 0.671427
vt 0.477827 0.701602
vt 0.477587 0.713126
vt 0.458508 0.715351
vt 0.458852 0.698787
vt 0.525840 0.752778
vt 0.537151 0.750165
vt 0.543186 0.768158
vt 0.527372 0.771088
vt 0.563257 0.692937
vt 0.581320 0.686683
vt 0.481077 0.690480
vt 0.463518 0.682850
vt 0.514357 0.752189
vt 0.511052 0.770973
vt 0.565992 0.704298
vt 0.584297 0.702552
vt 0.487241 0.680682
vt 0.472182 0.668742
vt 0.503395 0.748969
vt 0.495802 0.765537
vt 0.565497 0.715938
vt 0.584297 0.718688
vt 0.495574 0.672714
vt 0.484065 0.657348
vt 0.493631 0.742858
vt 0.482053 0.757416
vt 0.562080 0.727086
vt 0.580117 0.734863
vt 0.505724 0.667136
vt 0.498473 0.649266
vt 0.485760 0.734501
vt 0.470616 0.745829
vt 0.555805 0.736879
vt 0.571485 0.749993
vt 0.517018 0.664391
vt 0.514577 0.645036
vt 0.480149 0.724408
vt 0.462496 0.731465
vt 0.547398 0.744799
vt 0.558242 0.761147
vt 0.528714 0.664597
vt 0.531495 0.645010
vt 0.514915 0.748896
vt 0.504765 0.745866
vt 0.562578 0.704657
vt 0.562132 0.715385
vt 0.489879 0.682810
vt 0.497587 0.675428
vt 0.495740 0.740247
vt 0.558990 0.725646
vt 0.506971 0.670287
vt 0.488485 0.732524
vt 0.553224 0.734702
vt 0.517379 0.667785
vt 0.528169 0.667984
vt 0.538522 0.671162
vt 0.483297 0.723207
vt 0.545418 0.742027
vt 0.547744 0.676805
vt 0.480960 0.712763
vt 0.535951 0.746993
vt 0.554993 0.684763
vt 0.481169 0.702099
vt 0.525545 0.749389
vt 0.560089 0.694174
vt 0.484156 0.691840
vt 0.774233 0.184026
vt 0.770116 0.183876
vt 0.770230 0.181068
vt 0.774342 0.181157
vt 0.770175 0.178195
vt 0.774367 0.178276
vt 0.770038 0.175294
vt 0.774351 0.175379
vt 0.769744 0.172239
vt 0.774381 0.172209
vt 0.768909 0.168812
vt 0.774768 0.168613
vt 0.773870 0.198674
vt 0.768722 0.198166
vt 0.769533 0.195066
vt 0.773757 0.195625
vt 0.769778 0.192278
vt 0.773869 0.192740
vt 0.769914 0.189393
vt 0.774013 0.189844
vt 0.770043 0.186567
vt 0.774128 0.186902
vt 0.774738 0.186923
vt 0.774733 0.184044
vt 0.774572 0.189864
vt 0.774419 0.192758
vt 0.774278 0.195619
vt 0.774469 0.198469
vt 0.775033 0.172242
vt 0.775460 0.168918
vt 0.774929 0.175378
vt 0.774866 0.178274
vt 0.774946 0.181171
vt 0.787713 0.184521
vt 0.787877 0.181749
vt 0.788059 0.178968
vt 0.788290 0.176152
vt 0.788559 0.173308
vt 0.788872 0.170455
vt 0.787374 0.198439
vt 0.787367 0.195515
vt 0.787393 0.192787
vt 0.787467 0.190043
vt 0.787577 0.187284
vt 0.769173 0.183833
vt 0.769250 0.181040
vt 0.769186 0.178210
vt 0.769025 0.175352
vt 0.768691 0.172419
vt 0.767849 0.169464
vt 0.767849 0.197576
vt 0.768620 0.194897
vt 0.768812 0.192206
vt 0.768853 0.189334
vt 0.769163 0.186521
s 1
f 10/1/1 9/2/1 33/3/1 34/4/1
f 14/5/1 13/6/1 37/7/1 38/8/1
f 18/9/1 17/10/1 41/11/1 42/12/1
f 22/13/1 21/14/1 45/15/1 46/16/1
f 5/17/1 4/18/1 28/19/1 29/20/1
f 9/2/1 8/21/1 32/22/1 33/3/1
f 1/23/1 24/24/1 48/25/1 25/26/1
f 13/6/1 12/27/1 36/28/1 37/7/1
f 17/10/1 16/29/1 40/30/1 41/11/1
f 21/14/1 20/31/1 44/32/1 45/15/1
f 4/18/1 3/33/1 27/34/1 28/19/1
f 8/21/1 7/35/1 31/36/1 32/22/1
f 12/27/1 11/37/1 35/38/1 36/28/1
f 16/29/1 15/39/1 39/40/1 40/30/1
f 20/31/1 19/41/1 43/42/1 44/32/1
f 24/24/1 23/43/1 47/44/1 48/25/1
f 3/33/1 2/45/1 26/46/1 27/34/1
f 7/35/1 6/47/1 30/48/1 31/36/1
f 11/37/1 10/1/1 34/4/1 35/38/1
f 15/39/1 14/5/1 38/8/1 39/40/1
f 19/41/1 18/9/1 42/12/1 43/42/1
f 2/45/1 1/23/1 25/26/1 26/46/1
f 23/43/1 22/13/1 46/16/1 47/44/1
f 6/47/1 5/17/1 29/20/1 30/48/1
f 38/8/2 37/7/3 61/49/3 62/50/2
f 31/36/4 30/48/5 54/51/5 55/52/4
f 46/16/6 45/15/7 69/53/7 70/54/6
f 39/40/8 38/8/2 62/50/2 63/55/8
f 32/22/9 31/36/4 55/52/4 56/56/9
f 47/44/10 46/16/6 70/54/6 71/57/10
f 40/30/11 39/40/8 63/55/8 64/58/11
f 33/3/12 32/22/9 56/56/9 57/59/12
f 48/25/13 47/44/10 71/57/10 72/60/13
f 26/46/14 25/26/15 49/61/15 50/62/14
f 41/11/16 40/30/11 64/58/11 65/63/16
f 34/4/17 33/3/12 57/59/12 58/64/17
f 25/26/15 48/25/13 72/60/13 49/61/15
f 27/34/18 26/46/14 50/62/14 51/65/18
f 42/12/19 41/11/16 65/63/16 66/66/19
f 35/38/20 34/4/17 58/64/17 59/67/20
f 28/19/21 27/34/18 51/65/18 52/68/21
f 43/42/22 42/12/19 66/66/19 67/69/22
f 36/28/23 35/38/20 59/67/20 60/70/23
f 29/20/24 28/19/21 52/68/21 53/71/24
f 44/32/25 43/42/22 67/69/22 68/72/25
f 37/7/3 36/28/23 60/70/23 61/49/3
f 30/48/5 29/20/24 53/71/24 54/51/5
f 45/15/7 44/32/25 68/72/25 69/53/7
f 101/73/8 99/74/2 74/75/2 75/76/8
f 103/77/11 101/73/8 75/76/8 76/78/11
f 133/79/4 131/80/5 90/81/5 91/82/4
f 119/83/13 117/84/10 83/85/10 84/86/13
f 105/87/16 103/77/11 76/78/11 77/88/16
f 135/89/9 133/79/4 91/82/4 92/90/9
f 121/91/15 119/83/13 84/86/13 85/92/15
f 107/93/19 105/87/16 77/88/16 78/94/19
f 137/95/12 135/89/9 92/90/9 93/96/12
f 123/97/14 121/91/15 85/92/15 86/98/14
f 109/99/22 107/93/19 78/94/19 79/100/22
f 139/101/17 137/95/12 93/96/12 94/102/17
f 125/103/18 123/97/14 86/98/14 87/104/18
f 111/105/25 109/99/22 79/100/22 80/106/25
f 141/107/20 139/101/17 94/102/17 95/108/20
f 127/109/21 125/103/18 87/104/18 88/110/21
f 113/111/7 111/105/25 80/106/25 81/112/7
f 143/113/23 141/107/20 95/108/20 96/114/23
f 129/115/24 127/109/21 88/110/21 89/116/24
f 115/117/6 113/111/7 81/112/7 82/118/6
f 98/119/3 143/113/23 96/114/23 73/120/3
f 131/80/5 129/115/24 89/116/24 90/81/5
f 117/84/10 115/117/6 82/118/6 83/85/10
f 62/50/1 61/49/1 122/121/26 124/122/27
f 55/52/1 54/51/1 108/123/28 110/124/29
f 70/54/1 69/53/1 138/125/30 140/126/31
f 63/55/1 62/50/1 124/122/27 126/127/32
f 56/56/1 55/52/1 110/124/29 112/128/33
f 71/57/1 70/54/1 140/126/31 142/129/34
f 64/58/1 63/55/1 126/127/32 128/130/35
f 57/59/1 56/56/1 112/128/33 114/131/36
f 72/60/1 71/57/1 142/129/34 144/132/37
f 50/62/1 49/61/1 97/133/38 100/134/39
f 65/63/1 64/58/1 128/130/35 130/135/40
f 58/64/1 57/59/1 114/131/36 116/136/41
f 49/61/1 72/60/1 144/132/37 97/133/38
f 51/65/1 50/62/1 100/134/39 102/137/42
f 66/66/1 65/63/1 130/135/40 132/138/43
f 59/67/1 58/64/1 116/136/41 118/139/44
f 52/68/1 51/65/1 102/137/42 104/140/45
f 67/69/1 66/66/1 132/138/43 134/141/46
f 60/70/1 59/67/1 118/139/44 120/142/47
f 53/71/1 52/68/1 104/140/45 106/143/48
f 68/72/1 67/69/1 134/141/46 136/144/49
f 61/49/1 60/70/1 120/142/47 122/121/26
f 54/51/1 53/71/1 106/143/48 108/123/28
f 69/53/1 68/72/1 136/144/49 138/125/30
f 100/134/39 97/133/38 98/119/50 99/74/51
f 102/137/42 100/134/39 99/74/51 101/73/52
f 104/140/45 102/137/42 101/73/52 103/77/53
f 106/143/48 104/140/45 103/77/53 105/87/54
f 108/123/28 106/143/48 105/87/54 107/93/55
f 110/124/29 108/123/28 107/93/55 109/99/56
f 112/128/33 110/124/29 109/99/56 111/105/57
f 114/131/36 112/128/33 111/105/57 113/111/58
f 116/136/41 114/131/36 113/111/58 115/117/59
f 118/139/44 116/136/41 115/117/59 117/84/60
f 120/142/47 118/139/44 117/84/60 119/83/61
f 122/121/26 120/142/47 119/83/61 121/91/62
f 124/122/27 122/121/26 121/91/62 123/97/63
f 126/127/32 124/122/27 123/97/63 125/103/64
f 128/130/35 126/127/32 125/103/64 127/109/65
f 130/135/40 128/130/35 127/109/65 129/115/66
f 132/138/43 130/135/40 129/115/66 131/80/67
f 134/141/46 132/138/43 131/80/67 133/79/68
f 136/144/49 134/141/46 133/79/68 135/89/69
f 138/125/30 136/144/49 135/89/69 137/95/70
f 140/126/31 138/125/30 137/95/70 139/101/71
f 142/129/34 140/126/31 139/101/71 141/107/72
f 144/132/37 142/129/34 141/107/72 143/113/73
f 97/133/38 144/132/37 143/113/73 98/119/50
f 99/74/2 98/119/3 73/120/3 74/75/2
f 165/145/1 186/146/1 185/147/74 166/148/74
f 166/148/74 185/147/74 187/149/75 167/150/75
f 167/150/75 187/149/75 188/151/76 168/152/76
f 168/152/76 188/151/76 189/153/77 169/154/77
f 169/154/77 189/153/77 190/155/78 170/156/78
f 170/157/78 190/158/78 191/159/79 171/160/79
f 171/160/79 191/159/79 192/161/80 172/162/80
f 172/162/80 192/161/80 193/163/81 173/164/81
f 173/164/81 193/163/81 194/165/82 174/166/82
f 174/166/82 194/165/82 186/146/1 165/145/1
f 183/167/83 174/166/83 165/145/84 184/168/84
f 182/169/85 173/164/85 174/166/83 183/167/83
f 181/170/86 172/162/86 173/164/85 182/169/85
f 180/171/87 171/160/87 172/162/86 181/170/86
f 179/172/88 170/157/88 171/160/87 180/171/87
f 178/173/89 169/154/89 170/156/88 179/174/88
f 177/175/90 168/152/90 169/154/89 178/173/89
f 176/176/91 167/150/91 168/152/90 177/175/90
f 175/177/92 166/148/92 167/150/91 176/176/91
f 184/168/84 165/145/84 166/148/92 175/177/92
f 145/178/1 184/168/1 175/177/74 147/179/74
f 147/179/74 175/177/74 176/176/75 149/180/75
f 149/180/75 176/176/75 177/175/76 151/181/76
f 151/181/76 177/175/76 178/173/77 153/182/77
f 153/182/77 178/173/77 179/174/78 155/183/78
f 155/184/78 179/172/78 180/171/79 157/185/79
f 157/185/79 180/171/79 181/170/80 159/186/80
f 159/186/80 181/170/80 182/169/81 161/187/81
f 161/187/81 182/169/81 183/167/82 163/188/82
f 163/188/82 183/167/82 184/168/1 145/178/1
f 146/189/3 148/190/3 185/147/3 186/146/3
f 148/190/3 150/191/3 187/149/3 185/147/3
f 150/191/3 152/192/3 188/151/3 187/149/3
f 152/192/3 154/193/3 189/153/3 188/151/3
f 154/193/3 156/194/3 190/155/3 189/153/3
f 156/195/3 158/196/3 191/159/3 190/158/3
f 158/196/3 160/197/3 192/161/3 191/159/3
f 160/197/3 162/198/3 193/163/3 192/161/3
f 162/198/3 164/199/3 194/165/3 193/163/3
f 164/199/3 146/189/3 186/146/3 194/165/3
