# Blender 4.1.1
# www.blender.org
o Headlight_OilLamp
v 0.000000 0.202916 -0.183104
v 0.007512 0.028034 0.057728
v 0.015022 0.056064 0.042667
v 0.022531 0.084085 0.017563
v 0.030036 0.112094 -0.017563
v 0.037536 0.140086 -0.062727
v 0.045031 0.168057 -0.117909
v 0.052519 0.196002 -0.183104
v 0.000000 0.000000 0.062747
v 0.014512 0.025135 0.057728
v 0.029021 0.050266 0.042667
v 0.043526 0.075389 0.017563
v 0.058024 0.100501 -0.017563
v 0.072514 0.125598 -0.062727
v 0.086993 0.150676 -0.117909
v 0.101458 0.175731 -0.183104
v 0.020522 0.020522 0.057728
v 0.041042 0.041042 0.042667
v 0.061555 0.061555 0.017563
v 0.082059 0.082059 -0.017563
v 0.102550 0.102550 -0.062727
v 0.123026 0.123026 -0.117909
v 0.143484 0.143484 -0.183104
v 0.025135 0.014512 0.057728
v 0.050266 0.029021 0.042667
v 0.075389 0.043526 0.017563
v 0.100501 0.058024 -0.017563
v 0.125598 0.072514 -0.062727
v 0.150676 0.086993 -0.117909
v 0.175731 0.101458 -0.183104
v 0.028034 0.007512 0.057728
v 0.056064 0.015022 0.042667
v 0.084085 0.022531 0.017563
v 0.112094 0.030036 -0.017563
v 0.140086 0.037536 -0.062727
v 0.168057 0.045031 -0.117909
v 0.196002 0.052519 -0.183104
v 0.029023 0.000000 0.057728
v 0.058042 0.000000 0.042667
v 0.087052 -0.000000 0.017563
v 0.116048 -0.000000 -0.017563
v 0.145028 -0.000000 -0.062727
v 0.173985 -0.000000 -0.117909
v 0.202916 -0.000000 -0.183104
v 0.028034 -0.007512 0.057728
v 0.056064 -0.015022 0.042667
v 0.084085 -0.022531 0.017563
v 0.112094 -0.030036 -0.017563
v 0.140086 -0.037536 -0.062727
v 0.168057 -0.045031 -0.117909
v 0.196002 -0.052519 -0.183104
v 0.025135 -0.014512 0.057728
v 0.050266 -0.029021 0.042667
v 0.075389 -0.043526 0.017563
v 0.100501 -0.058024 -0.017563
v 0.125598 -0.072514 -0.062727
v 0.150676 -0.086993 -0.117909
v 0.175731 -0.101458 -0.183104
v 0.020522 -0.020522 0.057728
v 0.041042 -0.041042 0.042667
v 0.061555 -0.061555 0.017563
v 0.082059 -0.082059 -0.017563
v 0.102550 -0.102550 -0.062727
v 0.123026 -0.123026 -0.117909
v 0.143484 -0.143484 -0.183104
v 0.014512 -0.025135 0.057728
v 0.029021 -0.050266 0.042667
v 0.043526 -0.075389 0.017563
v 0.058024 -0.100501 -0.017563
v 0.072514 -0.125598 -0.062727
v 0.086993 -0.150676 -0.117909
v 0.101458 -0.175731 -0.183104
v 0.007512 -0.028034 0.057728
v 0.015022 -0.056064 0.042667
v 0.022531 -0.084085 0.017563
v 0.030036 -0.112094 -0.017563
v 0.037536 -0.140086 -0.062727
v 0.045031 -0.168057 -0.117909
v 0.052519 -0.196002 -0.183104
v -0.000000 -0.029023 0.057728
v 0.000000 -0.058042 0.042667
v -0.000000 -0.087052 0.017563
v 0.000000 -0.116048 -0.017563
v 0.000000 -0.145028 -0.062727
v 0.000000 -0.173985 -0.117909
v -0.000000 -0.202916 -0.183104
v -0.007512 -0.028034 0.057728
v -0.015022 -0.056064 0.042667
v -0.022531 -0.084085 0.017563
v -0.030036 -0.112094 -0.017563
v -0.037536 -0.140086 -0.062727
v -0.045031 -0.168057 -0.117909
v -0.052519 -0.196002 -0.183104
v -0.014512 -0.025135 0.057728
v -0.029021 -0.050266 0.042667
v -0.043526 -0.075389 0.017563
v -0.058024 -0.100501 -0.017563
v -0.072514 -0.125598 -0.062727
v -0.086993 -0.150676 -0.117909
v -0.101458 -0.175731 -0.183104
v -0.020522 -0.020522 0.057728
v -0.041042 -0.041042 0.042667
v -0.061555 -0.061555 0.017563
v -0.082059 -0.082059 -0.017563
v -0.102550 -0.102550 -0.062727
v -0.123026 -0.123026 -0.117909
v -0.143484 -0.143484 -0.183104
v -0.025135 -0.014511 0.057728
v -0.050266 -0.029021 0.042667
v -0.075389 -0.043526 0.017563
v -0.100501 -0.058024 -0.017563
v -0.125598 -0.072514 -0.062727
v -0.150676 -0.086993 -0.117909
v -0.175731 -0.101458 -0.183104
v -0.028034 -0.007512 0.057728
v -0.056064 -0.015022 0.042667
v -0.084085 -0.022531 0.017563
v -0.112094 -0.030036 -0.017563
v -0.140086 -0.037536 -0.062727
v -0.168057 -0.045031 -0.117909
v -0.196002 -0.052519 -0.183104
v -0.029023 0.000000 0.057728
v -0.058042 0.000000 0.042667
v -0.087052 0.000000 0.017563
v -0.116048 -0.000000 -0.017563
v -0.145028 -0.000000 -0.062727
v -0.173985 -0.000000 -0.117909
v -0.202916 0.000000 -0.183104
v -0.028034 0.007512 0.057728
v -0.056064 0.015022 0.042667
v -0.084085 0.022531 0.017563
v -0.112094 0.030036 -0.017563
v -0.140086 0.037536 -0.062727
v -0.168057 0.045031 -0.117909
v -0.196002 0.052519 -0.183104
v -0.025135 0.014512 0.057728
v -0.050266 0.029021 0.042667
v -0.075389 0.043526 0.017563
v -0.100501 0.058024 -0.017563
v -0.125598 0.072514 -0.062727
v -0.150676 0.086993 -0.117909
v -0.175731 0.101458 -0.183104
v -0.020522 0.020522 0.057728
v -0.041042 0.041042 0.042667
v -0.061555 0.061555 0.017563
v -0.082059 0.082059 -0.017563
v -0.102550 0.102550 -0.062727
v -0.123026 0.123026 -0.117909
v -0.143483 0.143484 -0.183104
v -0.014511 0.025135 0.057728
v -0.029021 0.050266 0.042667
v -0.043526 0.075389 0.017563
v -0.058024 0.100501 -0.017563
v -0.072514 0.125598 -0.062727
v -0.086993 0.150676 -0.117909
v -0.101458 0.175731 -0.183104
v -0.007512 0.028034 0.057728
v -0.015022 0.056064 0.042667
v -0.022531 0.084085 0.017563
v -0.030036 0.112094 -0.017563
v -0.037536 0.140086 -0.062727
v -0.045031 0.168057 -0.117909
v -0.052519 0.196002 -0.183104
v 0.000000 0.029023 0.057728
v -0.000000 0.058042 0.042667
v 0.000000 0.087052 0.017563
v -0.000000 0.116048 -0.017563
v -0.000000 0.145028 -0.062727
v -0.000000 0.173985 -0.117909
v -0.000000 0.227221 -0.183104
v 0.058809 0.219479 -0.183104
v 0.113610 0.196779 -0.183104
v 0.160669 0.160669 -0.183104
v 0.196779 0.113610 -0.183104
v 0.219479 0.058809 -0.183104
v 0.227221 -0.000000 -0.183104
v 0.219479 -0.058809 -0.183104
v 0.196779 -0.113610 -0.183104
v 0.160669 -0.160669 -0.183104
v 0.113610 -0.196779 -0.183104
v 0.058809 -0.219479 -0.183104
v -0.000000 -0.227221 -0.183104
v -0.058809 -0.219479 -0.183104
v -0.113610 -0.196779 -0.183104
v -0.160669 -0.160669 -0.183104
v -0.196779 -0.113610 -0.183104
v -0.219479 -0.058809 -0.183104
v -0.227221 0.000000 -0.183104
v -0.219478 0.058809 -0.183104
v -0.196779 0.113610 -0.183104
v -0.160669 0.160669 -0.183104
v -0.113610 0.196779 -0.183104
v -0.058809 0.219478 -0.183104
v -0.000000 0.227221 -0.221950
v 0.058809 0.219479 -0.221950
v 0.113610 0.196779 -0.221950
v 0.160669 0.160669 -0.221950
v 0.196779 0.113610 -0.221950
v 0.219479 0.058809 -0.221950
v 0.227221 -0.000000 -0.221950
v 0.219479 -0.058809 -0.221950
v 0.196779 -0.113610 -0.221950
v 0.160669 -0.160669 -0.221950
v 0.113610 -0.196779 -0.221950
v 0.058809 -0.219479 -0.221950
v -0.000000 -0.227221 -0.221950
v -0.058809 -0.219479 -0.221950
v -0.113610 -0.196779 -0.221950
v -0.160669 -0.160669 -0.221950
v -0.196779 -0.113610 -0.221950
v -0.219479 -0.058809 -0.221950
v -0.227221 0.000000 -0.221950
v -0.219478 0.058809 -0.221950
v -0.196779 0.113610 -0.221950
v -0.160669 0.160669 -0.221950
v -0.113610 0.196779 -0.221950
v -0.058809 0.219478 -0.221950
v -0.000000 0.253786 -0.117909
v 0.065685 0.245139 -0.117909
v 0.126893 0.219785 -0.117909
v 0.179454 0.179454 -0.117909
v 0.219785 0.126893 -0.117909
v 0.245139 0.065685 -0.117909
v 0.253786 -0.000000 -0.117909
v 0.245139 -0.065685 -0.117909
v 0.219785 -0.126893 -0.117909
v 0.179454 -0.179454 -0.117909
v 0.126893 -0.219785 -0.117909
v 0.065685 -0.245139 -0.117909
v -0.000000 -0.253786 -0.117909
v -0.065685 -0.245139 -0.117909
v -0.126893 -0.219785 -0.117909
v -0.179454 -0.179454 -0.117909
v -0.219785 -0.126893 -0.117909
v -0.245139 -0.065685 -0.117909
v -0.253786 0.000000 -0.117909
v -0.245139 0.065685 -0.117909
v -0.219785 0.126893 -0.117909
v -0.179454 0.179454 -0.117909
v -0.126893 0.219785 -0.117909
v -0.065685 0.245138 -0.117909
v -0.000000 0.240662 -0.221950
v -0.000000 0.253786 -0.207826
v 0.065685 0.245139 -0.207826
v 0.062288 0.232462 -0.221950
v 0.126893 0.219785 -0.207826
v 0.120331 0.208419 -0.221950
v 0.179454 0.179454 -0.207826
v 0.170174 0.170174 -0.221950
v 0.219785 0.126893 -0.207826
v 0.208419 0.120331 -0.221950
v 0.245139 0.065685 -0.207826
v 0.232462 0.062288 -0.221950
v 0.253786 -0.000000 -0.207826
v 0.240662 -0.000000 -0.221950
v 0.245139 -0.065685 -0.207826
v 0.232462 -0.062288 -0.221950
v 0.219785 -0.126893 -0.207826
v 0.208419 -0.120331 -0.221950
v 0.179454 -0.179454 -0.207826
v 0.170174 -0.170174 -0.221950
v 0.126893 -0.219785 -0.207826
v 0.120331 -0.208419 -0.221950
v 0.065685 -0.245139 -0.207826
v 0.062288 -0.232462 -0.221950
v -0.000000 -0.253786 -0.207826
v -0.000000 -0.240662 -0.221950
v -0.065685 -0.245139 -0.207826
v -0.062288 -0.232462 -0.221950
v -0.126893 -0.219785 -0.207826
v -0.120331 -0.208419 -0.221950
v -0.179454 -0.179454 -0.207826
v -0.170174 -0.170174 -0.221950
v -0.219785 -0.126893 -0.207826
v -0.208419 -0.120331 -0.221950
v -0.245139 -0.065685 -0.207826
v -0.232462 -0.062288 -0.221950
v -0.253786 0.000000 -0.207826
v -0.240662 0.000000 -0.221950
v -0.245139 0.065685 -0.207826
v -0.232461 0.062288 -0.221950
v -0.219785 0.126893 -0.207826
v -0.208419 0.120331 -0.221950
v -0.179454 0.179454 -0.207826
v -0.170174 0.170174 -0.221950
v -0.126893 0.219785 -0.207826
v -0.120331 0.208419 -0.221950
v -0.065685 0.245138 -0.207826
v -0.062288 0.232461 -0.221950
v 0.000000 -0.153258 -0.026250
v 0.000000 -0.055840 -0.023753
v 0.015429 -0.153258 -0.021237
v 0.013961 -0.055840 -0.019216
v 0.024965 -0.153258 -0.008112
v 0.022590 -0.055840 -0.007340
v 0.024965 -0.153258 0.008112
v 0.022590 -0.055840 0.007340
v 0.015429 -0.153258 0.021237
v 0.013961 -0.055840 0.019216
v 0.000000 -0.153258 0.026250
v 0.000000 -0.055840 0.023753
v -0.015429 -0.153258 0.021237
v -0.013961 -0.055840 0.019216
v -0.024965 -0.153258 0.008112
v -0.022590 -0.055840 0.007340
v -0.024965 -0.153258 -0.008112
v -0.022590 -0.055840 -0.007340
v -0.015429 -0.153258 -0.021237
v -0.013961 -0.055840 -0.019216
v 0.000000 -0.083097 -0.029298
v 0.017221 -0.083097 -0.023702
v 0.027864 -0.083097 -0.009054
v 0.027864 -0.083097 0.009054
v 0.017221 -0.083097 0.023702
v 0.000000 -0.083097 0.029298
v -0.017221 -0.083097 0.023702
v -0.027864 -0.083097 0.009054
v -0.027864 -0.083097 -0.009054
v -0.017221 -0.083097 -0.023702
v 0.015429 -0.081679 -0.021237
v 0.024965 -0.081679 -0.008112
v 0.024965 -0.081679 0.008112
v 0.015429 -0.081679 0.021237
v 0.000000 -0.081679 0.026250
v -0.015429 -0.081679 0.021237
v -0.024965 -0.081679 0.008112
v -0.024965 -0.081679 -0.008112
v -0.015429 -0.081679 -0.021237
v 0.000000 -0.081679 -0.026250
v 0.017221 -0.055840 -0.023702
v 0.000000 -0.055840 -0.029298
v 0.027864 -0.055840 -0.009054
v 0.027864 -0.055840 0.009054
v 0.017221 -0.055840 0.023702
v 0.000000 -0.055840 0.029298
v -0.017221 -0.055840 0.023702
v -0.027864 -0.055840 0.009054
v -0.027864 -0.055840 -0.009054
v -0.017221 -0.055840 -0.023702
v 0.015472 -0.046965 -0.021296
v 0.000000 -0.046965 -0.026323
v 0.025035 -0.046965 -0.008134
v 0.025035 -0.046965 0.008134
v 0.015472 -0.046965 0.021296
v 0.000000 -0.046965 0.026323
v -0.015472 -0.046965 0.021296
v -0.025035 -0.046965 0.008134
v -0.025035 -0.046965 -0.008134
v -0.015472 -0.046965 -0.021296
v 0.016924 -0.021139 -0.023295
v 0.000000 -0.021139 -0.028794
v 0.027384 -0.021139 -0.008898
v 0.027384 -0.021139 0.008898
v 0.016924 -0.021139 0.023295
v 0.000000 -0.021139 0.028794
v -0.016924 -0.021139 0.023295
v -0.027384 -0.021139 0.008898
v -0.027384 -0.021139 -0.008898
v -0.016924 -0.021139 -0.023295
v 0.014463 0.027891 -0.019907
v 0.000000 0.027891 -0.024607
v 0.023402 0.027891 -0.007604
v 0.023402 0.027891 0.007604
v 0.014463 0.027891 0.019907
v 0.000000 0.027891 0.024607
v -0.014463 0.027891 0.019907
v -0.023402 0.027891 0.007604
v -0.023402 0.027891 -0.007604
v -0.014463 0.027891 -0.019907
v 0.010793 0.075977 -0.014856
v 0.000000 0.075977 -0.018363
v 0.017464 0.075977 -0.005674
v 0.017464 0.075977 0.005674
v 0.010793 0.075977 0.014856
v 0.000000 0.075977 0.018363
v -0.010793 0.075977 0.014856
v -0.017464 0.075977 0.005674
v -0.017464 0.075977 -0.005674
v -0.010793 0.075977 -0.014856
v 0.011517 0.136711 -0.015852
v -0.000000 0.136711 -0.019595
v 0.018636 0.136711 -0.006055
v 0.018636 0.136711 0.006055
v 0.011517 0.136711 0.015852
v -0.000000 0.136711 0.019595
v -0.011517 0.136711 0.015852
v -0.018636 0.136711 0.006055
v -0.018636 0.136711 -0.006055
v -0.011517 0.136711 -0.015852
vn -0.0000 -0.3307 -0.9438
vn -0.0856 -0.3194 -0.9438
vn -0.0000 -0.0000 -1.0000
vn -0.0000 -0.5680 -0.8230
vn -0.1470 -0.5486 -0.8230
vn -0.0000 -0.7186 -0.6954
vn -0.1860 -0.6942 -0.6954
vn -0.0000 -0.8096 -0.5870
vn -0.2095 -0.7820 -0.5870
vn -0.0000 -0.8653 -0.5013
vn -0.2240 -0.8358 -0.5013
vn -0.0000 -0.9008 -0.4343
vn -0.2331 -0.8701 -0.4343
vn -0.0000 -0.9140 -0.4056
vn -0.2366 -0.8829 -0.4056
vn -0.1653 -0.2864 -0.9438
vn -0.2840 -0.4919 -0.8230
vn -0.3593 -0.6224 -0.6954
vn -0.4048 -0.7011 -0.5870
vn -0.4326 -0.7494 -0.5013
vn -0.4504 -0.7801 -0.4343
vn -0.4570 -0.7916 -0.4056
vn -0.5082 -0.5082 -0.6954
vn -0.4016 -0.4016 -0.8230
vn -0.5725 -0.5725 -0.5870
vn -0.6119 -0.6119 -0.5013
vn -0.6369 -0.6369 -0.4343
vn -0.6463 -0.6463 -0.4056
vn -0.2338 -0.2338 -0.9438
vn -0.2864 -0.1653 -0.9438
vn -0.4919 -0.2840 -0.8230
vn -0.6224 -0.3593 -0.6954
vn -0.7011 -0.4048 -0.5870
vn -0.7494 -0.4326 -0.5013
vn -0.7801 -0.4504 -0.4343
vn -0.7916 -0.4570 -0.4056
vn -0.3194 -0.0856 -0.9438
vn -0.5486 -0.1470 -0.8230
vn -0.6942 -0.1860 -0.6954
vn -0.7820 -0.2095 -0.5870
vn -0.8358 -0.2240 -0.5013
vn -0.8701 -0.2331 -0.4343
vn -0.8829 -0.2366 -0.4056
vn -0.3307 -0.0000 -0.9438
vn -0.5680 -0.0000 -0.8230
vn -0.7186 -0.0000 -0.6954
vn -0.8096 -0.0000 -0.5870
vn -0.8653 -0.0000 -0.5013
vn -0.9008 -0.0000 -0.4343
vn -0.9140 -0.0000 -0.4056
vn -0.3194 0.0856 -0.9438
vn -0.5486 0.1470 -0.8230
vn -0.6942 0.1860 -0.6954
vn -0.7820 0.2095 -0.5870
vn -0.8358 0.2240 -0.5013
vn -0.8701 0.2331 -0.4343
vn -0.8829 0.2366 -0.4056
vn -0.2864 0.1653 -0.9438
vn -0.4919 0.2840 -0.8230
vn -0.6224 0.3593 -0.6954
vn -0.7011 0.4048 -0.5870
vn -0.7494 0.4326 -0.5013
vn -0.7801 0.4504 -0.4343
vn -0.7916 0.4570 -0.4056
vn -0.2338 0.2338 -0.9438
vn -0.4016 0.4016 -0.8230
vn -0.5082 0.5082 -0.6954
vn -0.5725 0.5725 -0.5870
vn -0.6119 0.6119 -0.5013
vn -0.6369 0.6369 -0.4343
vn -0.6463 0.6463 -0.4056
vn -0.1653 0.2864 -0.9438
vn -0.2840 0.4919 -0.8230
vn -0.3593 0.6224 -0.6954
vn -0.4048 0.7011 -0.5870
vn -0.4326 0.7494 -0.5013
vn -0.4504 0.7801 -0.4343
vn -0.4570 0.7916 -0.4056
vn -0.0856 0.3194 -0.9438
vn -0.1470 0.5486 -0.8230
vn -0.1860 0.6942 -0.6954
vn -0.2095 0.7820 -0.5870
vn -0.2240 0.8358 -0.5013
vn -0.2331 0.8701 -0.4343
vn -0.2366 0.8829 -0.4056
vn -0.0000 0.3307 -0.9438
vn -0.0000 0.5680 -0.8230
vn -0.0000 0.7186 -0.6954
vn -0.0000 0.8096 -0.5870
vn -0.0000 0.8653 -0.5013
vn -0.0000 0.9008 -0.4343
vn -0.0000 0.9140 -0.4056
vn 0.0856 0.3194 -0.9438
vn 0.1470 0.5486 -0.8230
vn 0.1860 0.6942 -0.6954
vn 0.2095 0.7820 -0.5870
vn 0.2240 0.8358 -0.5013
vn 0.2331 0.8701 -0.4343
vn 0.2366 0.8829 -0.4056
vn 0.1653 0.2864 -0.9438
vn 0.2840 0.4919 -0.8230
vn 0.3593 0.6224 -0.6954
vn 0.4048 0.7011 -0.5870
vn 0.4326 0.7494 -0.5013
vn 0.4504 0.7801 -0.4343
vn 0.4570 0.7916 -0.4056
vn 0.2338 0.2338 -0.9438
vn 0.4016 0.4016 -0.8230
vn 0.5082 0.5082 -0.6954
vn 0.5725 0.5725 -0.5870
vn 0.6119 0.6119 -0.5013
vn 0.6369 0.6369 -0.4343
vn 0.6463 0.6463 -0.4056
vn 0.2864 0.1653 -0.9438
vn 0.4919 0.2840 -0.8230
vn 0.6224 0.3593 -0.6954
vn 0.7011 0.4048 -0.5870
vn 0.7494 0.4326 -0.5013
vn 0.7801 0.4504 -0.4343
vn 0.7916 0.4570 -0.4056
vn 0.3194 0.0856 -0.9438
vn 0.5486 0.1470 -0.8230
vn 0.6942 0.1860 -0.6954
vn 0.7820 0.2095 -0.5870
vn 0.8358 0.2240 -0.5013
vn 0.8701 0.2331 -0.4343
vn 0.8829 0.2366 -0.4056
vn 0.3307 -0.0000 -0.9438
vn 0.5680 -0.0000 -0.8230
vn 0.7186 -0.0000 -0.6954
vn 0.8096 -0.0000 -0.5870
vn 0.8653 -0.0000 -0.5013
vn 0.9008 -0.0000 -0.4343
vn 0.9140 -0.0000 -0.4056
vn 0.3194 -0.0856 -0.9438
vn 0.5486 -0.1470 -0.8230
vn 0.6942 -0.1860 -0.6954
vn 0.7820 -0.2095 -0.5870
vn 0.8358 -0.2240 -0.5013
vn 0.8701 -0.2331 -0.4343
vn 0.8829 -0.2366 -0.4056
vn 0.2864 -0.1653 -0.9438
vn 0.4919 -0.2840 -0.8230
vn 0.6224 -0.3593 -0.6954
vn 0.7011 -0.4048 -0.5870
vn 0.7494 -0.4326 -0.5013
vn 0.7801 -0.4504 -0.4343
vn 0.7916 -0.4570 -0.4056
vn 0.2338 -0.2338 -0.9438
vn 0.4016 -0.4016 -0.8230
vn 0.5082 -0.5082 -0.6954
vn 0.5725 -0.5725 -0.5870
vn 0.6119 -0.6119 -0.5013
vn 0.6369 -0.6369 -0.4343
vn 0.6463 -0.6463 -0.4056
vn 0.1653 -0.2864 -0.9438
vn 0.2840 -0.4919 -0.8230
vn 0.3593 -0.6224 -0.6954
vn 0.4048 -0.7011 -0.5870
vn 0.4326 -0.7494 -0.5013
vn 0.4504 -0.7801 -0.4343
vn 0.4570 -0.7916 -0.4056
vn 0.0856 -0.3194 -0.9438
vn 0.1470 -0.5486 -0.8230
vn 0.1860 -0.6942 -0.6954
vn 0.2095 -0.7820 -0.5870
vn 0.2240 -0.8358 -0.5013
vn 0.2331 -0.8701 -0.4343
vn 0.2366 -0.8829 -0.4056
vn 0.2588 0.9659 -0.0000
vn -0.0000 1.0000 -0.0000
vn -1.0000 -0.0000 -0.0000
vn -0.9659 -0.2588 -0.0000
vn 0.7071 -0.7071 -0.0000
vn 0.8660 -0.5000 -0.0000
vn 0.5000 0.8660 -0.0000
vn -0.9659 0.2588 -0.0000
vn 0.5000 -0.8660 -0.0000
vn 0.7071 0.7071 -0.0000
vn -0.8660 0.5000 -0.0000
vn 0.2588 -0.9659 -0.0000
vn -0.2588 -0.9659 -0.0000
vn -0.0000 -1.0000 -0.0000
vn 0.8660 0.5000 -0.0000
vn -0.7071 0.7071 -0.0000
vn -0.5000 -0.8660 -0.0000
vn 0.9659 0.2588 -0.0000
vn -0.5000 0.8660 -0.0000
vn -0.7071 -0.7071 -0.0000
vn 1.0000 -0.0000 -0.0000
vn -0.2588 0.9659 -0.0000
vn -0.8660 -0.5000 -0.0000
vn 0.9659 -0.2588 -0.0000
vn -0.0000 -0.4268 -0.9044
vn -0.1105 -0.4122 -0.9044
vn 0.4122 0.1105 -0.9044
vn 0.4268 -0.0000 -0.9044
vn -0.3696 0.2134 -0.9044
vn -0.3018 0.3018 -0.9044
vn -0.2134 -0.3696 -0.9044
vn 0.4122 -0.1105 -0.9044
vn -0.2134 0.3696 -0.9044
vn -0.3018 -0.3018 -0.9044
vn 0.3696 -0.2134 -0.9044
vn -0.1105 0.4122 -0.9044
vn -0.0000 0.4268 -0.9044
vn 0.1105 0.4122 -0.9044
vn -0.3696 -0.2134 -0.9044
vn 0.3018 -0.3018 -0.9044
vn 0.2134 0.3696 -0.9044
vn -0.4122 -0.1105 -0.9044
vn 0.2134 -0.3696 -0.9044
vn 0.3018 0.3018 -0.9044
vn -0.4268 -0.0000 -0.9044
vn 0.1105 -0.4122 -0.9044
vn 0.3696 0.2134 -0.9044
vn -0.4122 0.1105 -0.9044
vn -0.0000 0.7325 -0.6807
vn 0.1896 0.7076 -0.6807
vn 0.3663 0.6344 -0.6807
vn 0.5180 0.5180 -0.6807
vn 0.6344 0.3663 -0.6807
vn 0.7076 0.1896 -0.6807
vn 0.7325 -0.0000 -0.6807
vn 0.7076 -0.1896 -0.6807
vn 0.6344 -0.3663 -0.6807
vn 0.5180 -0.5180 -0.6807
vn 0.3663 -0.6344 -0.6807
vn 0.1896 -0.7076 -0.6807
vn -0.0000 -0.7325 -0.6807
vn -0.1896 -0.7076 -0.6807
vn -0.3663 -0.6344 -0.6807
vn -0.5180 -0.5180 -0.6807
vn -0.6344 -0.3663 -0.6807
vn -0.7076 -0.1896 -0.6807
vn -0.7325 -0.0000 -0.6807
vn -0.7076 0.1896 -0.6807
vn -0.6344 0.3663 -0.6807
vn -0.5180 0.5180 -0.6807
vn -0.3663 0.6344 -0.6807
vn -0.1896 0.7076 -0.6807
vn 0.5878 -0.0000 -0.8090
vn 0.9511 -0.0000 -0.3090
vn 0.9511 -0.0000 0.3090
vn 0.5878 -0.0000 0.8090
vn -0.0000 -0.0000 1.0000
vn -0.5878 -0.0000 0.8090
vn -0.9511 -0.0000 0.3090
vn -0.9511 -0.0000 -0.3090
vn -0.0000 -0.2782 0.9605
vn 0.5646 -0.2782 0.7771
vn 0.5777 -0.1842 0.7952
vn -0.0000 -0.1842 0.9829
vn -0.5878 -0.0000 -0.8090
vn 0.2479 -0.9067 0.3412
vn -0.0000 -0.9067 0.4218
vn 0.4011 -0.9067 0.1303
vn 0.4011 -0.9067 -0.1303
vn 0.2479 -0.9067 -0.3412
vn -0.0000 -0.9067 -0.4218
vn -0.2479 -0.9067 -0.3412
vn -0.4011 -0.9067 -0.1303
vn -0.4011 -0.9067 0.1303
vn -0.2479 -0.9067 0.3412
vn 0.9348 -0.1842 -0.3037
vn 0.5777 -0.1842 -0.7952
vn 0.5878 -0.0050 -0.8090
vn 0.9510 -0.0050 -0.3090
vn 0.9135 -0.2782 -0.2968
vn 0.5646 -0.2782 -0.7771
vn -0.5646 -0.2782 -0.7771
vn -0.9135 -0.2782 -0.2968
vn -0.9348 -0.1842 -0.3037
vn -0.5777 -0.1842 -0.7952
vn -0.5646 -0.2782 0.7771
vn -0.5777 -0.1842 0.7952
vn 0.9135 -0.2782 0.2968
vn 0.9348 -0.1842 0.3037
vn -0.0000 -0.2782 -0.9605
vn -0.0000 -0.1842 -0.9829
vn -0.9135 -0.2782 0.2968
vn -0.9348 -0.1842 0.3037
vn -0.5878 -0.0050 -0.8090
vn -0.9510 -0.0050 -0.3090
vn -0.9456 0.1065 -0.3073
vn -0.5844 0.1065 -0.8044
vn -0.0000 -0.0050 1.0000
vn -0.5878 -0.0050 0.8090
vn 0.9510 -0.0050 0.3090
vn -0.0000 -0.0050 -1.0000
vn -0.9510 -0.0050 0.3090
vn 0.5878 -0.0050 0.8090
vn -0.5844 0.1065 0.8044
vn -0.0000 0.1065 0.9943
vn -0.0000 0.0552 0.9985
vn -0.5869 0.0552 0.8078
vn 0.9456 0.1065 -0.3073
vn 0.9456 0.1065 0.3073
vn -0.0000 0.1065 -0.9943
vn -0.9456 0.1065 0.3073
vn 0.5844 0.1065 0.8044
vn 0.5844 0.1065 -0.8044
vn 0.9496 0.0552 0.3085
vn 0.9496 0.0552 -0.3085
vn 0.9509 -0.0203 -0.3090
vn 0.9509 -0.0203 0.3090
vn -0.5869 0.0552 -0.8078
vn -0.0000 0.0552 -0.9985
vn -0.9496 0.0552 0.3085
vn 0.5869 0.0552 0.8078
vn 0.5869 0.0552 -0.8078
vn -0.9496 0.0552 -0.3085
vn -0.5877 -0.0203 -0.8089
vn -0.0000 -0.0203 -0.9998
vn -0.5877 -0.0203 0.8089
vn -0.9509 -0.0203 0.3090
vn 0.5877 -0.0203 0.8089
vn 0.5877 -0.0203 -0.8089
vn -0.9509 -0.0203 -0.3090
vn -0.0000 -0.0203 0.9998
vt 0.510321 0.851510
vt 0.510141 0.852187
vt 0.507662 0.851143
vt 0.513374 0.851920
vt 0.513003 0.853381
vt 0.517341 0.852423
vt 0.516730 0.854905
vt 0.522787 0.853078
vt 0.521814 0.856936
vt 0.530539 0.854038
vt 0.528984 0.859861
vt 0.541419 0.855258
vt 0.539193 0.863821
vt 0.556400 0.856967
vt 0.553611 0.869274
vt 0.509791 0.852798
vt 0.512235 0.854681
vt 0.515443 0.857129
vt 0.519879 0.860438
vt 0.525997 0.865064
vt 0.534851 0.871548
vt 0.547647 0.880735
vt 0.513624 0.858936
vt 0.511176 0.855763
vt 0.517028 0.863243
vt 0.521791 0.869367
vt 0.528609 0.877845
vt 0.538659 0.890509
vt 0.509287 0.853291
vt 0.508674 0.853636
vt 0.509855 0.856510
vt 0.511407 0.860214
vt 0.513595 0.865320
vt 0.516584 0.872388
vt 0.521006 0.882479
vt 0.527114 0.897207
vt 0.507994 0.853819
vt 0.508389 0.856890
vt 0.508934 0.860864
vt 0.509705 0.866344
vt 0.510785 0.873997
vt 0.512416 0.884901
vt 0.514391 0.900595
vt 0.507290 0.853811
vt 0.506880 0.856880
vt 0.506384 0.860844
vt 0.505689 0.866334
vt 0.504752 0.874032
vt 0.503488 0.884974
vt 0.501312 0.900567
vt 0.506612 0.853622
vt 0.505425 0.856479
vt 0.503896 0.860221
vt 0.501842 0.865261
vt 0.498903 0.872497
vt 0.494858 0.882717
vt 0.488731 0.897167
vt 0.506007 0.853264
vt 0.504128 0.855712
vt 0.501670 0.858920
vt 0.498339 0.863339
vt 0.493695 0.869464
vt 0.487127 0.878299
vt 0.477490 0.890647
vt 0.505514 0.852763
vt 0.503050 0.854653
vt 0.499866 0.857091
vt 0.495520 0.860487
vt 0.489431 0.865238
vt 0.480816 0.872050
vt 0.468332 0.881470
vt 0.505168 0.852151
vt 0.502312 0.853335
vt 0.498595 0.854868
vt 0.493542 0.857018
vt 0.486406 0.860041
vt 0.476334 0.864384
vt 0.461858 0.870250
vt 0.504992 0.851470
vt 0.501908 0.851875
vt 0.497946 0.852396
vt 0.492548 0.853176
vt 0.484816 0.854224
vt 0.473989 0.855820
vt 0.458507 0.857745
vt 0.505000 0.850768
vt 0.501924 0.850358
vt 0.497947 0.849844
vt 0.492481 0.849201
vt 0.484826 0.848200
vt 0.473945 0.846949
vt 0.458507 0.844815
vt 0.505189 0.850092
vt 0.502329 0.848899
vt 0.498612 0.847373
vt 0.493458 0.845310
vt 0.486385 0.842417
vt 0.476188 0.838389
vt 0.461834 0.832350
vt 0.505547 0.849489
vt 0.503097 0.847596
vt 0.499901 0.845162
vt 0.495486 0.841845
vt 0.489345 0.837219
vt 0.480553 0.830703
vt 0.468243 0.821169
vt 0.506043 0.848992
vt 0.504173 0.846539
vt 0.501719 0.843360
vt 0.498324 0.839023
vt 0.493563 0.832961
vt 0.486755 0.824396
vt 0.477315 0.812004
vt 0.506654 0.848648
vt 0.505482 0.845803
vt 0.503942 0.842090
vt 0.501786 0.837031
vt 0.498744 0.829939
vt 0.494383 0.819900
vt 0.488459 0.805477
vt 0.507335 0.848474
vt 0.506934 0.845399
vt 0.506413 0.841443
vt 0.505639 0.836004
vt 0.504535 0.828359
vt 0.502922 0.817529
vt 0.500935 0.802049
vt 0.508036 0.848481
vt 0.508444 0.845416
vt 0.508958 0.841453
vt 0.509617 0.836014
vt 0.510541 0.828331
vt 0.511792 0.817452
vt 0.513893 0.801979
vt 0.508711 0.848669
vt 0.509894 0.845820
vt 0.511416 0.842119
vt 0.513438 0.837060
vt 0.516364 0.829855
vt 0.520383 0.819681
vt 0.526432 0.805293
vt 0.509313 0.849025
vt 0.511188 0.846585
vt 0.513628 0.843398
vt 0.516925 0.838980
vt 0.521557 0.832871
vt 0.528097 0.824066
vt 0.537661 0.811765
vt 0.509804 0.849525
vt 0.512264 0.847641
vt 0.515426 0.845207
vt 0.519715 0.841817
vt 0.525818 0.837079
vt 0.534405 0.830283
vt 0.546786 0.820926
vt 0.510147 0.850134
vt 0.513008 0.848958
vt 0.516699 0.847413
vt 0.521780 0.845229
vt 0.528770 0.842263
vt 0.538906 0.837914
vt 0.553163 0.832111
vt 0.510329 0.850810
vt 0.513386 0.850417
vt 0.517351 0.849876
vt 0.522806 0.849095
vt 0.530501 0.847995
vt 0.541215 0.846442
vt 0.556377 0.844424
vt 0.538461 0.732302
vt 0.544018 0.727120
vt 0.546756 0.729353
vt 0.540529 0.735159
vt 0.509670 0.735047
vt 0.516858 0.737231
vt 0.516300 0.740681
vt 0.508239 0.738199
vt 0.492699 0.711560
vt 0.494532 0.718854
vt 0.491310 0.720125
vt 0.489192 0.711925
vt 0.504597 0.685025
vt 0.499067 0.690248
vt 0.496274 0.688014
vt 0.502518 0.682189
vt 0.548889 0.698420
vt 0.545314 0.691723
vt 0.548171 0.689649
vt 0.552150 0.697191
vt 0.548071 0.720650
vt 0.551320 0.722143
vt 0.526268 0.679903
vt 0.518643 0.679650
vt 0.518287 0.676180
vt 0.526842 0.676368
vt 0.524405 0.737511
vt 0.524756 0.741002
vt 0.498111 0.725529
vt 0.495267 0.727596
vt 0.495144 0.696708
vt 0.491962 0.695324
vt 0.540102 0.686157
vt 0.542334 0.683395
vt 0.550342 0.713398
vt 0.553793 0.713986
vt 0.531775 0.735844
vt 0.533026 0.739134
vt 0.503285 0.731035
vt 0.501031 0.733781
vt 0.492957 0.703987
vt 0.489447 0.703409
vt 0.511277 0.681412
vt 0.510003 0.678139
vt 0.533606 0.682124
vt 0.535048 0.678880
vt 0.550602 0.705820
vt 0.554157 0.705476
vt 0.515299 0.746691
vt 0.505702 0.743815
vt 0.560312 0.704868
vt 0.559942 0.715006
vt 0.491632 0.684258
vt 0.498915 0.677260
vt 0.497171 0.738518
vt 0.556891 0.724670
vt 0.507780 0.672401
vt 0.490268 0.731231
vt 0.551490 0.733253
vt 0.517614 0.669997
vt 0.527794 0.670289
vt 0.537578 0.673237
vt 0.485442 0.722394
vt 0.544109 0.740179
vt 0.546283 0.678569
vt 0.483228 0.712547
vt 0.535186 0.744923
vt 0.553190 0.686041
vt 0.483403 0.702457
vt 0.525341 0.747095
vt 0.557923 0.694997
vt 0.486201 0.692767
vt 0.549929 0.674115
vt 0.539889 0.668050
vt 0.548278 0.649551
vt 0.562314 0.659303
vt 0.557734 0.682793
vt 0.574154 0.671427
vt 0.477827 0.701602
vt 0.477587 0.713126
vt 0.458508 0.715351
vt 0.458852 0.698787
vt 0.525840 0.752778
vt 0.537151 0.750165
vt 0.543186 0.768158
vt 0.527372 0.771088
vt 0.563257 0.692937
vt 0.581320 0.686683
vt 0.481077 0.690480
vt 0.463518 0.682850
vt 0.514357 0.752189
vt 0.511052 0.770973
vt 0.565992 0.704298
vt 0.584297 0.702552
vt 0.487241 0.680682
vt 0.472182 0.668742
vt 0.503395 0.748969
vt 0.495802 0.765537
vt 0.565497 0.715938
vt 0.584297 0.718688
vt 0.495574 0.672714
vt 0.484065 0.657348
vt 0.493631 0.742858
vt 0.482053 0.757416
vt 0.562080 0.727086
vt 0.580117 0.734863
vt 0.505724 0.667136
vt 0.498473 0.649266
vt 0.485760 0.734501
vt 0.470616 0.745829
vt 0.555805 0.736879
vt 0.571485 0.749993
vt 0.517018 0.664391
vt 0.514577 0.645036
vt 0.480149 0.724408
vt 0.462496 0.731465
vt 0.547398 0.744799
vt 0.558242 0.761147
vt 0.528714 0.664597
vt 0.531495 0.645010
vt 0.514915 0.748896
vt 0.504765 0.745866
vt 0.562578 0.704657
vt 0.562132 0.715385
vt 0.489879 0.682810
vt 0.497587 0.675428
vt 0.495740 0.740247
vt 0.558990 0.725646
vt 0.506971 0.670287
vt 0.488485 0.732524
vt 0.553224 0.734702
vt 0.517379 0.667785
vt 0.528169 0.667984
vt 0.538522 0.671162
vt 0.483297 0.723207
vt 0.545418 0.742027
vt 0.547744 0.676805
vt 0.480960 0.712763
vt 0.535951 0.746993
vt 0.554993 0.684763
vt 0.481169 0.702099
vt 0.525545 0.749389
vt 0.560089 0.694174
vt 0.484156 0.691840
vt 0.774233 0.184026
vt 0.770116 0.183876
vt 0.770230 0.181068
vt 0.774342 0.181157
vt 0.770175 0.178195
vt 0.774367 0.178276
vt 0.770038 0.175294
vt 0.774351 0.175379
vt 0.769744 0.172239
vt 0.774381 0.172209
vt 0.768909 0.168812
vt 0.774768 0.168613
vt 0.773870 0.198674
vt 0.768722 0.198166
vt 0.769533 0.195066
vt 0.773757 0.195625
vt 0.769778 0.192278
vt 0.773869 0.192740
vt 0.769914 0.189393
vt 0.774013 0.189844
vt 0.336871 0.929200
vt 0.339536 0.929502
vt 0.339399 0.931168
vt 0.336538 0.930855
vt 0.770043 0.186567
vt 0.774128 0.186902
vt 0.774738 0.186923
vt 0.774733 0.184044
vt 0.774572 0.189864
vt 0.774419 0.192758
vt 0.774278 0.195619
vt 0.774469 0.198469
vt 0.775033 0.172242
vt 0.775460 0.168918
vt 0.774929 0.175378
vt 0.774866 0.178274
vt 0.774946 0.181171
vt 0.787713 0.184521
vt 0.787877 0.181749
vt 0.788059 0.178968
vt 0.788290 0.176152
vt 0.788559 0.173308
vt 0.788872 0.170455
vt 0.787374 0.198439
vt 0.787367 0.195515
vt 0.787393 0.192787
vt 0.787467 0.190043
vt 0.787577 0.187284
vt 0.769173 0.183833
vt 0.769250 0.181040
vt 0.769186 0.178210
vt 0.769025 0.175352
vt 0.768691 0.172419
vt 0.767849 0.169464
vt 0.767849 0.197576
vt 0.768620 0.194897
vt 0.768812 0.192206
vt 0.768853 0.189334
vt 0.769163 0.186521
vt 0.344930 0.931335
vt 0.347649 0.931347
vt 0.347658 0.935472
vt 0.344925 0.935493
vt 0.344949 0.929703
vt 0.347653 0.929728
vt 0.353057 0.929684
vt 0.355803 0.929720
vt 0.355802 0.931359
vt 0.353058 0.931358
vt 0.361213 0.929573
vt 0.363975 0.929245
vt 0.364310 0.930978
vt 0.361344 0.931250
vt 0.342244 0.929645
vt 0.342188 0.931288
vt 0.350336 0.929746
vt 0.350345 0.931340
vt 0.358505 0.929722
vt 0.358547 0.931337
vt 0.353055 0.935473
vt 0.355791 0.935538
vt 0.355424 0.943436
vt 0.352875 0.943323
vt 0.364589 0.935789
vt 0.361485 0.935675
vt 0.342138 0.935509
vt 0.350351 0.935427
vt 0.358564 0.935607
vt 0.339237 0.935532
vt 0.336123 0.935558
vt 0.360598 0.943932
vt 0.363222 0.944369
vt 0.361244 0.952851
vt 0.359135 0.952636
vt 0.345232 0.943403
vt 0.342649 0.943598
vt 0.350331 0.943283
vt 0.357996 0.943640
vt 0.340024 0.943881
vt 0.347786 0.943315
vt 0.337324 0.944307
vt 0.343634 0.952490
vt 0.345846 0.952380
vt 0.345955 0.963844
vt 0.343779 0.963861
vt 0.352553 0.952298
vt 0.350311 0.952295
vt 0.356984 0.952451
vt 0.341474 0.952675
vt 0.348069 0.952303
vt 0.354781 0.952350
vt 0.339381 0.952905
vt 0.352489 0.963831
vt 0.350309 0.963822
vt 0.359034 0.963886
vt 0.356854 0.963871
vt 0.341608 0.963881
vt 0.348131 0.963823
vt 0.354671 0.963849
vt 0.339442 0.963898
vt 0.361211 0.963898
s 1
f 164/1/1 2/2/2 9/3/3
f 165/4/4 3/5/5 2/2/2 164/1/1
f 166/6/6 4/7/7 3/5/5 165/4/4
f 167/8/8 5/9/9 4/7/7 166/6/6
f 168/10/10 6/11/11 5/9/9 167/8/8
f 169/12/12 7/13/13 6/11/11 168/10/10
f 1/14/14 8/15/15 7/13/13 169/12/12
f 2/2/2 10/16/16 9/3/3
f 3/5/5 11/17/17 10/16/16 2/2/2
f 4/7/7 12/18/18 11/17/17 3/5/5
f 5/9/9 13/19/19 12/18/18 4/7/7
f 6/11/11 14/20/20 13/19/19 5/9/9
f 7/13/13 15/21/21 14/20/20 6/11/11
f 8/15/15 16/22/22 15/21/21 7/13/13
f 12/18/18 19/23/23 18/24/24 11/17/17
f 13/19/19 20/25/25 19/23/23 12/18/18
f 14/20/20 21/26/26 20/25/25 13/19/19
f 15/21/21 22/27/27 21/26/26 14/20/20
f 16/22/22 23/28/28 22/27/27 15/21/21
f 10/16/16 17/29/29 9/3/3
f 11/17/17 18/24/24 17/29/29 10/16/16
f 17/29/29 24/30/30 9/3/3
f 18/24/24 25/31/31 24/30/30 17/29/29
f 19/23/23 26/32/32 25/31/31 18/24/24
f 20/25/25 27/33/33 26/32/32 19/23/23
f 21/26/26 28/34/34 27/33/33 20/25/25
f 22/27/27 29/35/35 28/34/34 21/26/26
f 23/28/28 30/36/36 29/35/35 22/27/27
f 24/30/30 31/37/37 9/3/3
f 25/31/31 32/38/38 31/37/37 24/30/30
f 26/32/32 33/39/39 32/38/38 25/31/31
f 27/33/33 34/40/40 33/39/39 26/32/32
f 28/34/34 35/41/41 34/40/40 27/33/33
f 29/35/35 36/42/42 35/41/41 28/34/34
f 30/36/36 37/43/43 36/42/42 29/35/35
f 31/37/37 38/44/44 9/3/3
f 32/38/38 39/45/45 38/44/44 31/37/37
f 33/39/39 40/46/46 39/45/45 32/38/38
f 34/40/40 41/47/47 40/46/46 33/39/39
f 35/41/41 42/48/48 41/47/47 34/40/40
f 36/42/42 43/49/49 42/48/48 35/41/41
f 37/43/43 44/50/50 43/49/49 36/42/42
f 38/44/44 45/51/51 9/3/3
f 39/45/45 46/52/52 45/51/51 38/44/44
f 40/46/46 47/53/53 46/52/52 39/45/45
f 41/47/47 48/54/54 47/53/53 40/46/46
f 42/48/48 49/55/55 48/54/54 41/47/47
f 43/49/49 50/56/56 49/55/55 42/48/48
f 44/50/50 51/57/57 50/56/56 43/49/49
f 45/51/51 52/58/58 9/3/3
f 46/52/52 53/59/59 52/58/58 45/51/51
f 47/53/53 54/60/60 53/59/59 46/52/52
f 48/54/54 55/61/61 54/60/60 47/53/53
f 49/55/55 56/62/62 55/61/61 48/54/54
f 50/56/56 57/63/63 56/62/62 49/55/55
f 51/57/57 58/64/64 57/63/63 50/56/56
f 52/58/58 59/65/65 9/3/3
f 53/59/59 60/66/66 59/65/65 52/58/58
f 54/60/60 61/67/67 60/66/66 53/59/59
f 55/61/61 62/68/68 61/67/67 54/60/60
f 56/62/62 63/69/69 62/68/68 55/61/61
f 57/63/63 64/70/70 63/69/69 56/62/62
f 58/64/64 65/71/71 64/70/70 57/63/63
f 59/65/65 66/72/72 9/3/3
f 60/66/66 67/73/73 66/72/72 59/65/65
f 61/67/67 68/74/74 67/73/73 60/66/66
f 62/68/68 69/75/75 68/74/74 61/67/67
f 63/69/69 70/76/76 69/75/75 62/68/68
f 64/70/70 71/77/77 70/76/76 63/69/69
f 65/71/71 72/78/78 71/77/77 64/70/70
f 66/72/72 73/79/79 9/3/3
f 67/73/73 74/80/80 73/79/79 66/72/72
f 68/74/74 75/81/81 74/80/80 67/73/73
f 69/75/75 76/82/82 75/81/81 68/74/74
f 70/76/76 77/83/83 76/82/82 69/75/75
f 71/77/77 78/84/84 77/83/83 70/76/76
f 72/78/78 79/85/85 78/84/84 71/77/77
f 73/79/79 80/86/86 9/3/3
f 74/80/80 81/87/87 80/86/86 73/79/79
f 75/81/81 82/88/88 81/87/87 74/80/80
f 76/82/82 83/89/89 82/88/88 75/81/81
f 77/83/83 84/90/90 83/89/89 76/82/82
f 78/84/84 85/91/91 84/90/90 77/83/83
f 79/85/85 86/92/92 85/91/91 78/84/84
f 80/86/86 87/93/93 9/3/3
f 81/87/87 88/94/94 87/93/93 80/86/86
f 82/88/88 89/95/95 88/94/94 81/87/87
f 83/89/89 90/96/96 89/95/95 82/88/88
f 84/90/90 91/97/97 90/96/96 83/89/89
f 85/91/91 92/98/98 91/97/97 84/90/90
f 86/92/92 93/99/99 92/98/98 85/91/91
f 87/93/93 94/100/100 9/3/3
f 88/94/94 95/101/101 94/100/100 87/93/93
f 89/95/95 96/102/102 95/101/101 88/94/94
f 90/96/96 97/103/103 96/102/102 89/95/95
f 91/97/97 98/104/104 97/103/103 90/96/96
f 92/98/98 99/105/105 98/104/104 91/97/97
f 93/99/99 100/106/106 99/105/105 92/98/98
f 94/100/100 101/107/107 9/3/3
f 95/101/101 102/108/108 101/107/107 94/100/100
f 96/102/102 103/109/109 102/108/108 95/101/101
f 97/103/103 104/110/110 103/109/109 96/102/102
f 98/104/104 105/111/111 104/110/110 97/103/103
f 99/105/105 106/112/112 105/111/111 98/104/104
f 100/106/106 107/113/113 106/112/112 99/105/105
f 101/107/107 108/114/114 9/3/3
f 102/108/108 109/115/115 108/114/114 101/107/107
f 103/109/109 110/116/116 109/115/115 102/108/108
f 104/110/110 111/117/117 110/116/116 103/109/109
f 105/111/111 112/118/118 111/117/117 104/110/110
f 106/112/112 113/119/119 112/118/118 105/111/111
f 107/113/113 114/120/120 113/119/119 106/112/112
f 108/114/114 115/121/121 9/3/3
f 109/115/115 116/122/122 115/121/121 108/114/114
f 110/116/116 117/123/123 116/122/122 109/115/115
f 111/117/117 118/124/124 117/123/123 110/116/116
f 112/118/118 119/125/125 118/124/124 111/117/117
f 113/119/119 120/126/126 119/125/125 112/118/118
f 114/120/120 121/127/127 120/126/126 113/119/119
f 115/121/121 122/128/128 9/3/3
f 116/122/122 123/129/129 122/128/128 115/121/121
f 117/123/123 124/130/130 123/129/129 116/122/122
f 118/124/124 125/131/131 124/130/130 117/123/123
f 119/125/125 126/132/132 125/131/131 118/124/124
f 120/126/126 127/133/133 126/132/132 119/125/125
f 121/127/127 128/134/134 127/133/133 120/126/126
f 122/128/128 129/135/135 9/3/3
f 123/129/129 130/136/136 129/135/135 122/128/128
f 124/130/130 131/137/137 130/136/136 123/129/129
f 125/131/131 132/138/138 131/137/137 124/130/130
f 126/132/132 133/139/139 132/138/138 125/131/131
f 127/133/133 134/140/140 133/139/139 126/132/132
f 128/134/134 135/141/141 134/140/140 127/133/133
f 129/135/135 136/142/142 9/3/3
f 130/136/136 137/143/143 136/142/142 129/135/135
f 131/137/137 138/144/144 137/143/143 130/136/136
f 132/138/138 139/145/145 138/144/144 131/137/137
f 133/139/139 140/146/146 139/145/145 132/138/138
f 134/140/140 141/147/147 140/146/146 133/139/139
f 135/141/141 142/148/148 141/147/147 134/140/140
f 136/142/142 143/149/149 9/3/3
f 137/143/143 144/150/150 143/149/149 136/142/142
f 138/144/144 145/151/151 144/150/150 137/143/143
f 139/145/145 146/152/152 145/151/151 138/144/144
f 140/146/146 147/153/153 146/152/152 139/145/145
f 141/147/147 148/154/154 147/153/153 140/146/146
f 142/148/148 149/155/155 148/154/154 141/147/147
f 143/149/149 150/156/156 9/3/3
f 144/150/150 151/157/157 150/156/156 143/149/149
f 145/151/151 152/158/158 151/157/157 144/150/150
f 146/152/152 153/159/159 152/158/158 145/151/151
f 147/153/153 154/160/160 153/159/159 146/152/152
f 148/154/154 155/161/161 154/160/160 147/153/153
f 149/155/155 156/162/162 155/161/161 148/154/154
f 150/156/156 157/163/163 9/3/3
f 151/157/157 158/164/164 157/163/163 150/156/156
f 152/158/158 159/165/165 158/164/164 151/157/157
f 153/159/159 160/166/166 159/165/165 152/158/158
f 154/160/160 161/167/167 160/166/166 153/159/159
f 155/161/161 162/168/168 161/167/167 154/160/160
f 156/162/162 163/169/169 162/168/168 155/161/161
f 157/163/163 164/1/1 9/3/3
f 158/164/164 165/4/4 164/1/1 157/163/163
f 159/165/165 166/6/6 165/4/4 158/164/164
f 160/166/166 167/8/8 166/6/6 159/165/165
f 161/167/167 168/10/10 167/8/8 160/166/166
f 162/168/168 169/12/12 168/10/10 161/167/167
f 163/169/169 1/14/14 169/12/12 162/168/168
f 65/170/3 58/171/3 178/172/3 179/173/3
f 93/174/3 86/175/3 182/176/3 183/177/3
f 121/178/3 114/179/3 186/180/3 187/181/3
f 149/182/3 142/183/3 190/184/3 191/185/3
f 30/186/3 23/187/3 173/188/3 174/189/3
f 58/171/3 51/190/3 177/191/3 178/172/3
f 1/192/3 163/193/3 193/194/3 170/195/3
f 86/175/3 79/196/3 181/197/3 182/176/3
f 114/179/3 107/198/3 185/199/3 186/180/3
f 142/183/3 135/200/3 189/201/3 190/184/3
f 23/187/3 16/202/3 172/203/3 173/188/3
f 51/190/3 44/204/3 176/205/3 177/191/3
f 79/196/3 72/206/3 180/207/3 181/197/3
f 107/198/3 100/208/3 184/209/3 185/199/3
f 135/200/3 128/210/3 188/211/3 189/201/3
f 163/193/3 156/212/3 192/213/3 193/194/3
f 16/202/3 8/214/3 171/215/3 172/203/3
f 44/204/3 37/216/3 175/217/3 176/205/3
f 72/206/3 65/170/3 179/173/3 180/207/3
f 100/208/3 93/174/3 183/177/3 184/209/3
f 128/210/3 121/178/3 187/181/3 188/211/3
f 8/214/3 1/192/3 170/195/3 171/215/3
f 156/212/3 149/182/3 191/185/3 192/213/3
f 37/216/3 30/186/3 174/189/3 175/217/3
f 183/177/170 182/176/171 206/218/171 207/219/170
f 176/205/172 175/217/173 199/220/173 200/221/172
f 191/185/174 190/184/175 214/222/175 215/223/174
f 184/209/176 183/177/170 207/219/170 208/224/176
f 177/191/177 176/205/172 200/221/172 201/225/177
f 192/213/178 191/185/174 215/223/174 216/226/178
f 185/199/179 184/209/176 208/224/176 209/227/179
f 178/172/180 177/191/177 201/225/177 202/228/180
f 193/194/181 192/213/178 216/226/178 217/229/181
f 171/215/182 170/195/183 194/230/183 195/231/182
f 186/180/184 185/199/179 209/227/179 210/232/184
f 179/173/185 178/172/180 202/228/180 203/233/185
f 170/195/183 193/194/181 217/229/181 194/230/183
f 172/203/186 171/215/182 195/231/182 196/234/186
f 187/181/187 186/180/184 210/232/184 211/235/187
f 180/207/188 179/173/185 203/233/185 204/236/188
f 173/188/189 172/203/186 196/234/186 197/237/189
f 188/211/190 187/181/187 211/235/187 212/238/190
f 181/197/191 180/207/188 204/236/188 205/239/191
f 174/189/192 173/188/189 197/237/189 198/240/192
f 189/201/193 188/211/190 212/238/190 213/241/193
f 182/176/171 181/197/191 205/239/191 206/218/171
f 175/217/173 174/189/192 198/240/192 199/220/173
f 190/184/175 189/201/193 213/241/193 214/222/175
f 246/242/176 244/243/170 219/244/170 220/245/176
f 248/246/179 246/242/176 220/245/176 221/247/179
f 278/248/172 276/249/173 235/250/173 236/251/172
f 264/252/181 262/253/178 228/254/178 229/255/181
f 250/256/184 248/246/179 221/247/179 222/257/184
f 280/258/177 278/248/172 236/251/172 237/259/177
f 266/260/183 264/252/181 229/255/181 230/261/183
f 252/262/187 250/256/184 222/257/184 223/263/187
f 282/264/180 280/258/177 237/259/177 238/265/180
f 268/266/182 266/260/183 230/261/183 231/267/182
f 254/268/190 252/262/187 223/263/187 224/269/190
f 284/270/185 282/264/180 238/265/180 239/271/185
f 270/272/186 268/266/182 231/267/182 232/273/186
f 256/274/193 254/268/190 224/269/190 225/275/193
f 286/276/188 284/270/185 239/271/185 240/277/188
f 272/278/189 270/272/186 232/273/186 233/279/189
f 258/280/175 256/274/193 225/275/193 226/281/175
f 288/282/191 286/276/188 240/277/188 241/283/191
f 274/284/192 272/278/189 233/279/189 234/285/192
f 260/286/174 258/280/175 226/281/175 227/287/174
f 243/288/171 288/282/191 241/283/191 218/289/171
f 276/249/173 274/284/192 234/285/192 235/250/173
f 262/253/178 260/286/174 227/287/174 228/254/178
f 207/219/3 206/218/3 267/290/194 269/291/195
f 200/221/3 199/220/3 253/292/196 255/293/197
f 215/223/3 214/222/3 283/294/198 285/295/199
f 208/224/3 207/219/3 269/291/195 271/296/200
f 201/225/3 200/221/3 255/293/197 257/297/201
f 216/226/3 215/223/3 285/295/199 287/298/202
f 209/227/3 208/224/3 271/296/200 273/299/203
f 202/228/3 201/225/3 257/297/201 259/300/204
f 217/229/3 216/226/3 287/298/202 289/301/205
f 195/231/3 194/230/3 242/302/206 245/303/207
f 210/232/3 209/227/3 273/299/203 275/304/208
f 203/233/3 202/228/3 259/300/204 261/305/209
f 194/230/3 217/229/3 289/301/205 242/302/206
f 196/234/3 195/231/3 245/303/207 247/306/210
f 211/235/3 210/232/3 275/304/208 277/307/211
f 204/236/3 203/233/3 261/305/209 263/308/212
f 197/237/3 196/234/3 247/306/210 249/309/213
f 212/238/3 211/235/3 277/307/211 279/310/214
f 205/239/3 204/236/3 263/308/212 265/311/215
f 198/240/3 197/237/3 249/309/213 251/312/216
f 213/241/3 212/238/3 279/310/214 281/313/217
f 206/218/3 205/239/3 265/311/215 267/290/194
f 199/220/3 198/240/3 251/312/216 253/292/196
f 214/222/3 213/241/3 281/313/217 283/294/198
f 245/303/207 242/302/206 243/288/218 244/243/219
f 247/306/210 245/303/207 244/243/219 246/242/220
f 249/309/213 247/306/210 246/242/220 248/246/221
f 251/312/216 249/309/213 248/246/221 250/256/222
f 253/292/196 251/312/216 250/256/222 252/262/223
f 255/293/197 253/292/196 252/262/223 254/268/224
f 257/297/201 255/293/197 254/268/224 256/274/225
f 259/300/204 257/297/201 256/274/225 258/280/226
f 261/305/209 259/300/204 258/280/226 260/286/227
f 263/308/212 261/305/209 260/286/227 262/253/228
f 265/311/215 263/308/212 262/253/228 264/252/229
f 267/290/194 265/311/215 264/252/229 266/260/230
f 269/291/195 267/290/194 266/260/230 268/266/231
f 271/296/200 269/291/195 268/266/231 270/272/232
f 273/299/203 271/296/200 270/272/232 272/278/233
f 275/304/208 273/299/203 272/278/233 274/284/234
f 277/307/211 275/304/208 274/284/234 276/249/235
f 279/310/214 277/307/211 276/249/235 278/248/236
f 281/313/217 279/310/214 278/248/236 280/258/237
f 283/294/198 281/313/217 280/258/237 282/264/238
f 285/295/199 283/294/198 282/264/238 284/270/239
f 287/298/202 285/295/199 284/270/239 286/276/240
f 289/301/205 287/298/202 286/276/240 288/282/241
f 242/302/206 289/301/205 288/282/241 243/288/218
f 244/243/170 243/288/171 218/289/171 219/244/170
f 310/314/3 331/315/3 330/316/242 311/317/242
f 311/317/242 330/316/242 332/318/243 312/319/243
f 312/319/243 332/318/243 333/320/244 313/321/244
f 313/321/244 333/320/244 334/322/245 314/323/245
f 314/323/245 334/322/245 335/324/246 315/325/246
f 315/326/246 335/327/246 336/328/247 316/329/247
f 316/329/247 336/328/247 337/330/248 317/331/248
f 317/331/248 337/330/248 338/332/249 318/333/249
f 301/334/250 299/335/251 344/336/252 345/337/253
f 318/333/249 338/332/249 339/338/254 319/339/254
f 319/339/254 339/338/254 331/315/3 310/314/3
f 328/340/255 319/339/255 310/314/256 329/341/256
f 327/342/257 318/333/257 319/339/255 328/340/255
f 326/343/258 317/331/258 318/333/257 327/342/257
f 325/344/259 316/329/259 317/331/258 326/343/258
f 324/345/260 315/326/260 316/329/259 325/344/259
f 323/346/261 314/323/261 315/325/260 324/347/260
f 322/348/262 313/321/262 314/323/261 323/346/261
f 321/349/263 312/319/263 313/321/262 322/348/262
f 320/350/264 311/317/264 312/319/263 321/349/263
f 329/341/256 310/314/256 311/317/264 320/350/264
f 290/351/3 329/341/3 320/350/242 292/352/242
f 292/352/242 320/350/242 321/349/243 294/353/243
f 294/353/243 321/349/243 322/348/244 296/354/244
f 296/354/244 322/348/244 323/346/245 298/355/245
f 298/355/245 323/346/245 324/347/246 300/356/246
f 300/357/246 324/345/246 325/344/247 302/358/247
f 302/358/247 325/344/247 326/343/248 304/359/248
f 304/359/248 326/343/248 327/342/249 306/360/249
f 306/360/249 327/342/249 328/340/254 308/361/254
f 308/361/254 328/340/254 329/341/3 290/351/3
f 291/362/171 293/363/171 330/316/171 331/315/171
f 293/363/171 295/364/171 332/318/171 330/316/171
f 295/364/171 297/365/171 333/320/171 332/318/171
f 297/365/171 299/366/171 334/322/171 333/320/171
f 299/366/171 301/367/171 335/324/171 334/322/171
f 301/368/171 303/369/171 336/328/171 335/327/171
f 303/369/171 305/370/171 337/330/171 336/328/171
f 305/370/171 307/371/171 338/332/171 337/330/171
f 307/371/171 309/372/171 339/338/171 338/332/171
f 309/372/171 291/362/171 331/315/171 339/338/171
f 342/373/265 340/374/266 350/375/267 352/376/268
f 295/377/269 293/378/270 340/374/266 342/373/265
f 309/379/271 307/380/272 348/381/273 349/382/274
f 303/383/275 301/384/250 345/385/253 346/386/276
f 297/387/277 295/377/269 342/373/265 343/388/278
f 291/389/279 309/379/271 349/382/274 341/390/280
f 305/391/281 303/383/275 346/386/276 347/392/282
f 299/335/251 297/387/277 343/388/278 344/336/252
f 293/378/270 291/389/279 341/390/280 340/374/266
f 307/380/272 305/391/281 347/392/282 348/381/273
f 359/393/283 358/394/284 368/395/285 369/396/286
f 349/382/274 348/381/273 358/394/284 359/393/283
f 346/386/276 345/385/253 355/397/287 356/398/288
f 343/388/278 342/373/265 352/376/268 353/399/289
f 341/390/280 349/382/274 359/393/283 351/400/290
f 347/392/282 346/386/276 356/398/288 357/401/291
f 344/336/252 343/388/278 353/399/289 354/402/292
f 340/374/266 341/390/280 351/400/290 350/375/267
f 348/381/273 347/392/282 357/401/291 358/394/284
f 345/337/253 344/336/252 354/402/292 355/403/287
f 366/404/293 365/405/294 375/406/295 376/407/296
f 356/398/288 355/397/287 365/405/294 366/404/293
f 353/399/289 352/376/268 362/408/297 363/409/298
f 351/400/290 359/393/283 369/396/286 361/410/299
f 357/401/291 356/398/288 366/404/293 367/411/300
f 354/402/292 353/399/289 363/409/298 364/412/301
f 350/375/267 351/400/290 361/410/299 360/413/302
f 358/394/284 357/401/291 367/411/300 368/395/285
f 355/403/287 354/402/292 364/412/301 365/414/294
f 352/376/268 350/375/267 360/413/302 362/408/297
f 373/415/303 372/416/304 382/417/305 383/418/306
f 363/409/298 362/408/297 372/416/304 373/415/303
f 361/410/299 369/396/286 379/419/307 371/420/308
f 367/411/300 366/404/293 376/407/296 377/421/309
f 364/412/301 363/409/298 373/415/303 374/422/310
f 360/413/302 361/410/299 371/420/308 370/423/311
f 368/395/285 367/411/300 377/421/309 378/424/312
f 365/414/294 364/412/301 374/422/310 375/425/295
f 362/408/297 360/413/302 370/423/311 372/416/304
f 369/396/286 368/395/285 378/424/312 379/419/307
f 371/420/308 379/419/307 389/426/313 381/427/314
f 377/421/309 376/407/296 386/428/315 387/429/316
f 374/422/310 373/415/303 383/418/306 384/430/317
f 370/423/311 371/420/308 381/427/314 380/431/318
f 378/424/312 377/421/309 387/429/316 388/432/319
f 375/425/295 374/422/310 384/430/317 385/433/320
f 372/416/304 370/423/311 380/431/318 382/417/305
f 379/419/307 378/424/312 388/432/319 389/426/313
f 376/407/296 375/406/295 385/434/320 386/428/315
