# Blender 4.1.1
# www.blender.org
o Headlight_Box
v -0.292664 -0.230563 0.142460
v -0.292664 0.226872 0.142460
v -0.292664 -0.230563 -0.142460
v -0.292664 0.226872 -0.142460
v 0.292664 -0.230563 0.142460
v 0.292664 0.226872 0.142460
v 0.292664 -0.230563 -0.142460
v 0.292664 0.226872 -0.142460
v -0.248593 -0.309380 -0.188611
v -0.248593 -0.309380 0.188611
v 0.248593 -0.309380 -0.188611
v 0.248593 -0.309380 0.188611
v -0.268053 -0.309380 -0.203375
v -0.268053 -0.309380 0.203375
v 0.268053 -0.309380 -0.203375
v 0.268053 -0.309380 0.203375
v -0.268053 -0.331281 -0.203375
v -0.268053 -0.331281 0.203375
v 0.268053 -0.331281 -0.203375
v 0.268053 -0.331281 0.203375
v -0.265620 -0.286239 -0.201530
v -0.265620 -0.286239 0.201530
v -0.265620 0.282548 0.201530
v -0.265620 0.282548 -0.201530
v 0.265620 0.282548 -0.201530
v 0.265620 -0.286239 -0.201530
v 0.265620 -0.286239 0.201530
v 0.265620 0.282548 0.201530
v -0.265620 -0.270580 -0.184916
v -0.265620 -0.270580 0.184916
v -0.265620 0.266888 0.184916
v -0.265620 0.266888 -0.184916
v 0.265620 0.266888 -0.184916
v 0.265620 -0.270580 -0.184916
v 0.265620 -0.270580 0.184916
v 0.265620 0.266888 0.184916
v -0.137647 0.449517 0.104434
v -0.137647 0.449517 -0.104434
v 0.137647 0.449517 -0.104434
v 0.137647 0.449517 0.104434
v -0.134750 0.368087 0.102237
v -0.115152 0.379258 0.087367
v -0.115152 0.379258 -0.087367
v -0.134750 0.368087 -0.102237
v 0.115152 0.379258 -0.087367
v 0.134750 0.368087 -0.102237
v 0.115152 0.379258 0.087367
v 0.134750 0.368087 0.102237
v -0.099807 0.392361 0.075725
v -0.093401 0.409952 0.070865
v -0.093401 0.409952 -0.070865
v -0.099807 0.392361 -0.075725
v 0.093401 0.409952 -0.070865
v 0.099807 0.392361 -0.075725
v 0.093401 0.409952 0.070865
v 0.099807 0.392361 0.075725
v -0.095960 0.422215 0.072806
v -0.108794 0.437103 0.082543
v -0.108794 0.437103 -0.082543
v -0.095960 0.422215 -0.072806
v 0.108794 0.437103 -0.082543
v 0.095960 0.422215 -0.072806
v 0.108794 0.437103 0.082543
v 0.095960 0.422215 0.072806
v -0.249549 0.306834 0.189336
v -0.231553 0.324871 0.175682
v -0.231553 0.324871 -0.175682
v -0.249549 0.306834 -0.189336
v 0.231553 0.324871 -0.175682
v 0.249549 0.306834 -0.189336
v 0.231553 0.324871 0.175682
v 0.249549 0.306834 0.189336
v -0.214209 0.336644 0.162523
v -0.190316 0.348628 0.144395
v -0.190316 0.348628 -0.144395
v -0.214209 0.336644 -0.162523
v 0.190316 0.348628 -0.144395
v 0.214209 0.336644 -0.162523
v 0.190316 0.348628 0.144395
v 0.214209 0.336644 0.162523
v -0.253786 0.000000 -0.201530
v -0.245139 -0.065685 -0.201530
v -0.245139 0.065685 -0.201530
v -0.219785 -0.126893 -0.201530
v -0.219785 0.126893 -0.201530
v -0.179454 -0.179454 -0.201530
v -0.179454 0.179454 -0.201530
v -0.126893 0.219785 -0.201530
v -0.065685 0.245139 -0.201530
v -0.000000 0.253786 -0.201530
v 0.065685 0.245139 -0.201530
v 0.179454 0.179454 -0.201530
v 0.126893 0.219785 -0.201530
v -0.126893 -0.219785 -0.201530
v -0.000000 -0.253786 -0.201530
v -0.065685 -0.245139 -0.201530
v 0.065685 -0.245139 -0.201530
v 0.126893 -0.219785 -0.201530
v 0.219785 -0.126893 -0.201530
v 0.253786 -0.000000 -0.201530
v 0.245139 -0.065685 -0.201530
v 0.245139 0.065685 -0.201530
v 0.219785 0.126893 -0.201530
v 0.179454 -0.179454 -0.201530
v -0.137647 0.458048 0.104434
v -0.137647 0.458048 -0.104434
v 0.137647 0.458048 0.104434
v 0.137647 0.458048 -0.104434
v 0.000000 0.440119 -0.065255
v 0.024972 0.440119 -0.060287
v 0.046142 0.440119 -0.046142
v 0.060287 0.440119 -0.024972
v 0.065255 0.440119 0.000000
v 0.060287 0.440119 0.024972
v 0.046142 0.440119 0.046142
v 0.024972 0.440119 0.060287
v 0.000000 0.440119 0.065255
v -0.024972 0.440119 0.060287
v -0.046142 0.440119 0.046142
v -0.060287 0.440119 0.024972
v -0.065255 0.440119 0.000000
v -0.060287 0.440119 -0.024972
v -0.046142 0.440119 -0.046142
v -0.024972 0.440119 -0.060287
v 0.000000 0.554659 -0.035236
v 0.000000 0.526203 -0.065255
v 0.013484 0.554659 -0.032554
v 0.024972 0.526203 -0.060287
v 0.024915 0.554659 -0.024915
v 0.046142 0.526203 -0.046142
v 0.032554 0.554659 -0.013484
v 0.060287 0.526203 -0.024972
v 0.035236 0.554659 0.000000
v 0.065255 0.526203 0.000000
v 0.032554 0.554659 0.013484
v 0.060287 0.526203 0.024972
v 0.024915 0.554659 0.024915
v 0.046142 0.526203 0.046142
v 0.013484 0.554659 0.032554
v 0.024972 0.526203 0.060287
v 0.000000 0.554659 0.035236
v 0.000000 0.526203 0.065255
v -0.013484 0.554659 0.032554
v -0.024972 0.526203 0.060287
v -0.024915 0.554659 0.024915
v -0.046142 0.526203 0.046142
v -0.032554 0.554659 0.013484
v -0.060287 0.526203 0.024972
v -0.035236 0.554659 0.000000
v -0.065255 0.526203 0.000000
v -0.032554 0.554659 -0.013484
v -0.060287 0.526203 -0.024972
v -0.024915 0.554659 -0.024915
v -0.046142 0.526203 -0.046142
v -0.013484 0.554659 -0.032554
v -0.024972 0.526203 -0.060287
v 0.107660 0.455002 -0.081365
v -0.107660 0.455002 -0.081365
v 0.139016 0.522467 -0.075171
v -0.139016 0.522467 -0.075171
v 0.158203 0.559660 -0.057533
v -0.158203 0.559660 -0.057533
v 0.168064 0.576729 -0.031137
v -0.168064 0.576729 -0.031137
v 0.171527 0.581420 0.000000
v -0.171527 0.581421 0.000000
v 0.168064 0.576729 0.031137
v -0.168064 0.576729 0.031137
v 0.158203 0.559660 0.057533
v -0.158203 0.559660 0.057533
v 0.139016 0.522467 0.075171
v -0.139016 0.522467 0.075171
v 0.107660 0.455002 0.081365
v -0.107660 0.455002 0.081365
v 0.105430 0.456702 -0.076228
v -0.105430 0.456702 -0.076228
v 0.136136 0.519907 -0.070425
v -0.136136 0.519907 -0.070425
v 0.154925 0.554753 -0.053901
v -0.154925 0.554753 -0.053901
v 0.164582 0.570743 -0.029171
v -0.164582 0.570743 -0.029171
v 0.167973 0.575139 0.000000
v -0.167973 0.575139 0.000000
v 0.164582 0.570743 0.029171
v -0.164582 0.570743 0.029171
v 0.154925 0.554753 0.053901
v -0.154925 0.554753 0.053901
v 0.136136 0.519907 0.070425
v -0.136136 0.519907 0.070425
v 0.105430 0.456702 0.076228
v -0.105430 0.456702 0.076228
vn -1.0000 -0.0000 -0.0000
vn -0.0000 -0.0000 -1.0000
vn 1.0000 -0.0000 -0.0000
vn -0.0000 -0.0000 1.0000
vn -0.8055 -0.5927 -0.0000
vn -0.0000 0.6429 0.7659
vn -0.0000 0.7680 0.6404
vn -0.0000 1.0000 -0.0000
vn 0.8055 -0.5927 -0.0000
vn -0.0000 -0.4874 0.8732
vn -0.0000 -0.4874 -0.8732
vn -0.0000 -1.0000 -0.0000
vn -0.8285 -0.5599 -0.0000
vn -0.8434 -0.0000 0.5373
vn -0.8285 0.5599 -0.0000
vn -0.8434 -0.0000 -0.5373
vn 0.8434 -0.0000 -0.5373
vn 0.8285 -0.5599 -0.0000
vn 0.8285 0.5599 -0.0000
vn 0.8434 -0.0000 0.5373
vn -0.4131 0.9107 -0.0000
vn -0.3830 0.9237 -0.0000
vn -0.0000 0.6429 -0.7659
vn -0.0000 0.7680 -0.6404
vn 0.8340 0.5518 -0.0000
vn 0.7929 0.6093 -0.0000
vn 0.6625 0.7491 -0.0000
vn 0.5271 0.8498 -0.0000
vn -0.0000 0.7669 -0.6418
vn -0.0000 0.5376 -0.8432
vn -0.8340 0.5518 -0.0000
vn -0.7929 0.6093 -0.0000
vn -0.0000 0.4487 0.8937
vn -0.0000 0.4968 0.8679
vn -0.0000 0.4487 -0.8937
vn -0.0000 0.4968 -0.8679
vn -0.9968 0.0797 -0.0000
vn -0.8754 -0.4834 -0.0000
vn 0.5478 0.8366 -0.0000
vn 0.7860 0.6183 -0.0000
vn -0.0000 0.7669 0.6418
vn -0.0000 0.5376 0.8432
vn -0.5296 -0.8483 -0.0000
vn -0.3952 -0.9186 -0.0000
vn -0.0000 0.8525 0.5228
vn -0.0000 0.8858 0.4640
vn -0.0000 0.8525 -0.5228
vn -0.0000 0.8858 -0.4640
vn 0.4131 0.9107 -0.0000
vn 0.3830 0.9237 -0.0000
vn -0.0000 -0.7974 -0.6034
vn -0.0000 -0.8699 -0.4933
vn -0.0000 0.0641 0.9979
vn -0.0000 -0.4058 0.9139
vn -0.0000 0.0641 -0.9979
vn -0.0000 -0.4058 -0.9139
vn 0.9968 0.0797 -0.0000
vn 0.8754 -0.4834 -0.0000
vn 0.5296 -0.8483 -0.0000
vn 0.3952 -0.9186 -0.0000
vn -0.0000 -0.7974 0.6034
vn -0.0000 -0.8699 0.4933
vn -0.5478 0.8366 -0.0000
vn -0.7860 0.6183 -0.0000
vn -0.6625 0.7491 -0.0000
vn -0.5271 0.8498 -0.0000
vn -0.3827 -0.0000 -0.9239
vn 0.7071 -0.0000 -0.7071
vn 0.9239 -0.0000 -0.3827
vn 0.9239 -0.0000 0.3827
vn 0.7071 -0.0000 0.7071
vn 0.3827 -0.0000 0.9239
vn -0.3827 -0.0000 0.9239
vn -0.7071 -0.0000 0.7071
vn -0.9239 -0.0000 0.3827
vn -0.9239 -0.0000 -0.3827
vn -0.7071 -0.0000 -0.7071
vn 0.3827 -0.0000 -0.9239
vn 0.2633 0.7257 -0.6356
vn -0.0000 0.7257 -0.6880
vn 0.4865 0.7257 -0.4865
vn 0.6356 0.7257 -0.2633
vn 0.6880 0.7257 -0.0000
vn 0.6356 0.7257 0.2633
vn 0.4865 0.7257 0.4865
vn 0.2633 0.7257 0.6356
vn -0.0000 0.7257 0.6880
vn -0.2633 0.7257 0.6356
vn -0.4865 0.7257 0.4865
vn -0.6356 0.7257 0.2633
vn -0.6880 0.7257 -0.0000
vn -0.6356 0.7257 -0.2633
vn -0.4865 0.7257 -0.4865
vn -0.2633 0.7257 -0.6356
vn -0.0000 0.0914 -0.9958
vn -0.0000 0.3110 -0.9504
vn -0.0000 0.7101 -0.7041
vn -0.0000 0.9455 -0.3255
vn -0.0000 0.9455 0.3255
vn -0.0000 0.7101 0.7041
vn -0.0000 0.3110 0.9504
vn -0.0000 0.0914 0.9958
vn -0.0000 -0.0914 0.9958
vn -0.0000 -0.3128 0.9498
vn -0.0000 -0.7122 0.7020
vn -0.0000 -0.9460 0.3242
vn -0.0000 -0.9460 -0.3242
vn -0.0000 -0.7122 -0.7020
vn -0.0000 -0.3128 -0.9498
vn -0.0000 -0.0914 -0.9958
vn 0.8504 -0.5221 -0.0654
vn 0.8478 -0.5210 -0.0989
vn 0.8587 -0.5124 0.0039
vn 0.8599 -0.5104 0.0071
vn 0.8658 -0.5003 -0.0000
vn 0.8587 -0.5124 -0.0039
vn 0.8599 -0.5104 -0.0071
vn 0.8478 -0.5210 0.0989
vn 0.8504 -0.5221 0.0654
vn 0.8335 -0.4637 0.3004
vn 0.8390 -0.4873 0.2419
vn 0.8188 -0.4244 0.3865
vn 0.8390 -0.4873 -0.2419
vn 0.8335 -0.4637 -0.3004
vn 0.8188 -0.4244 -0.3865
vn -0.8390 -0.4873 0.2419
vn -0.8335 -0.4637 0.3004
vn -0.8478 -0.5210 0.0989
vn -0.8504 -0.5221 0.0654
vn -0.8188 -0.4244 0.3865
vn -0.8587 -0.5124 -0.0039
vn -0.8599 -0.5104 -0.0071
vn -0.8658 -0.5003 -0.0000
vn -0.8587 -0.5124 0.0039
vn -0.8599 -0.5104 0.0071
vn -0.8478 -0.5210 -0.0989
vn -0.8504 -0.5221 -0.0654
vn -0.8335 -0.4637 -0.3004
vn -0.8390 -0.4873 -0.2419
vn -0.8188 -0.4244 -0.3865
vt 0.217267 0.571666
vt 0.216970 0.672481
vt 0.154036 0.671838
vt 0.154329 0.571118
vt 0.634577 0.620169
vt 0.753070 0.620169
vt 0.693824 0.627408
vt 0.753070 0.747037
vt 0.634577 0.747037
vt 0.693824 0.740622
vt 0.093555 0.571547
vt 0.093185 0.672290
vt 0.030229 0.672159
vt 0.030599 0.571415
vt 0.392177 0.641572
vt 0.392177 0.768440
vt 0.273685 0.768440
vt 0.273685 0.641572
vt 0.232118 0.557085
vt 0.139230 0.556976
vt 0.142215 0.550358
vt 0.229148 0.550461
vt 0.284792 0.163539
vt 0.284792 0.060244
vt 0.288730 0.064112
vt 0.288730 0.159671
vt 0.367304 0.604770
vt 0.273685 0.602237
vt 0.278847 0.600195
vt 0.360086 0.600541
vt 0.108339 0.556971
vt 0.015446 0.557254
vt 0.018403 0.550624
vt 0.105341 0.550358
vt 0.277482 0.635661
vt 0.388380 0.635661
vt 0.638375 0.614258
vt 0.749272 0.614258
vt 0.285866 0.594575
vt 0.353072 0.594957
vt 0.273685 0.448193
vt 0.367304 0.450726
vt 0.362141 0.452768
vt 0.280902 0.452422
vt 0.355122 0.458388
vt 0.287916 0.458006
vt 0.228317 0.560677
vt 0.142924 0.560479
vt 0.228385 0.683143
vt 0.232117 0.686726
vt 0.142994 0.682799
vt 0.139230 0.686313
vt 0.104608 0.682896
vt 0.104574 0.560513
vt 0.108339 0.686451
vt 0.019176 0.560809
vt 0.019211 0.683192
vt 0.015446 0.686735
vt 0.385818 0.185521
vt 0.321403 0.185521
vt 0.330806 0.172389
vt 0.376414 0.172389
vt 0.422428 0.060244
vt 0.422428 0.163539
vt 0.418490 0.159671
vt 0.418490 0.064112
vt 0.308659 0.015446
vt 0.398561 0.015445
vt 0.395842 0.021941
vt 0.311379 0.021941
vt 0.314424 0.027625
vt 0.392796 0.027625
vt 0.389861 0.032300
vt 0.317359 0.032300
vt 0.399138 0.086207
vt 0.399138 0.137576
vt 0.395228 0.134153
vt 0.395228 0.089630
vt 0.398561 0.208338
vt 0.308659 0.208338
vt 0.311379 0.201842
vt 0.395842 0.201842
vt 0.273685 0.171138
vt 0.273685 0.052645
vt 0.279746 0.056230
vt 0.279746 0.167553
vt 0.433536 0.052645
vt 0.433536 0.171138
vt 0.427474 0.167553
vt 0.427474 0.056230
vt 0.369417 0.158681
vt 0.337804 0.158681
vt 0.337371 0.155887
vt 0.369850 0.155887
vt 0.334123 0.056426
vt 0.373097 0.056426
vt 0.370501 0.060927
vt 0.336720 0.060927
vt 0.308082 0.137576
vt 0.308082 0.086207
vt 0.311992 0.089630
vt 0.311992 0.134153
vt 0.372021 0.151503
vt 0.335199 0.151503
vt 0.330316 0.144497
vt 0.376904 0.144497
vt 0.293577 0.154341
vt 0.293577 0.069442
vt 0.303934 0.081836
vt 0.303934 0.141948
vt 0.413643 0.069442
vt 0.413643 0.154341
vt 0.403286 0.141948
vt 0.403286 0.081836
vt 0.321403 0.038262
vt 0.385818 0.038262
vt 0.376414 0.051394
vt 0.330806 0.051394
vt 0.384420 0.087625
vt 0.384420 0.136158
vt 0.378807 0.142594
vt 0.378807 0.081190
vt 0.316063 0.132725
vt 0.316063 0.091058
vt 0.318832 0.090488
vt 0.318832 0.133295
vt 0.391158 0.091058
vt 0.391158 0.132725
vt 0.388388 0.133295
vt 0.388388 0.090488
vt 0.337804 0.065102
vt 0.369417 0.065102
vt 0.369850 0.067896
vt 0.337371 0.067896
vt 0.330316 0.142594
vt 0.376904 0.142594
vt 0.335199 0.072281
vt 0.372021 0.072281
vt 0.376904 0.079287
vt 0.330316 0.079287
vt 0.322800 0.136158
vt 0.322800 0.087625
vt 0.328413 0.081190
vt 0.328413 0.142594
vt 0.334123 0.167357
vt 0.373097 0.167357
vt 0.370501 0.162857
vt 0.336720 0.162857
vt 0.314425 0.196159
vt 0.392796 0.196159
vt 0.389861 0.191483
vt 0.317359 0.191483
vt 0.376904 0.081190
vt 0.330316 0.081190
vt 0.403244 0.839084
vt 0.422445 0.839084
vt 0.422445 0.844763
vt 0.403244 0.844763
vt 0.403244 0.856122
vt 0.422445 0.856122
vt 0.422445 0.861801
vt 0.403244 0.861801
vt 0.422445 0.867480
vt 0.403244 0.867480
vt 0.422445 0.873159
vt 0.403244 0.873159
vt 0.422445 0.878838
vt 0.403244 0.878838
vt 0.422445 0.884517
vt 0.403244 0.884517
vt 0.422445 0.890196
vt 0.403244 0.890196
vt 0.403244 0.799331
vt 0.422445 0.799331
vt 0.422445 0.805010
vt 0.403244 0.805010
vt 0.422445 0.810689
vt 0.403244 0.810689
vt 0.422445 0.816368
vt 0.403244 0.816368
vt 0.422445 0.822047
vt 0.403244 0.822047
vt 0.422445 0.827726
vt 0.403244 0.827726
vt 0.422445 0.833405
vt 0.403244 0.833405
vt 0.422445 0.850443
vt 0.403244 0.850443
vt 0.488295 0.956760
vt 0.483715 0.961345
vt 0.478619 0.953706
vt 0.480623 0.951725
vt 0.490734 0.950834
vt 0.481715 0.949093
vt 0.490742 0.944466
vt 0.481777 0.946247
vt 0.488351 0.938525
vt 0.480698 0.943604
vt 0.483772 0.933932
vt 0.478728 0.941593
vt 0.477841 0.931486
vt 0.476108 0.940491
vt 0.471472 0.931486
vt 0.473267 0.940440
vt 0.465535 0.933891
vt 0.470631 0.941531
vt 0.460954 0.938476
vt 0.468627 0.943511
vt 0.458516 0.944403
vt 0.467534 0.946143
vt 0.458508 0.950771
vt 0.467472 0.948990
vt 0.460899 0.956712
vt 0.468552 0.951633
vt 0.465477 0.961305
vt 0.470522 0.953644
vt 0.471409 0.963750
vt 0.473142 0.954746
vt 0.477778 0.963750
vt 0.475983 0.954796
vt 0.846234 0.960214
vt 0.798207 0.960214
vt 0.791213 0.945103
vt 0.853228 0.945103
vt 0.786933 0.935921
vt 0.857507 0.935921
vt 0.784734 0.928910
vt 0.859707 0.928910
vt 0.783961 0.921886
vt 0.860479 0.921886
vt 0.784733 0.914863
vt 0.859707 0.914863
vt 0.786933 0.907851
vt 0.857507 0.907851
vt 0.791213 0.898670
vt 0.853228 0.898670
vt 0.798207 0.883559
vt 0.846234 0.883559
vt 0.634577 0.923572
vt 0.648734 0.916723
vt 0.648734 0.977453
vt 0.634577 0.970604
vt 0.657336 0.912532
vt 0.657336 0.981644
vt 0.663905 0.910378
vt 0.663905 0.983798
vt 0.670485 0.909622
vt 0.670485 0.984554
vt 0.677065 0.910378
vt 0.677065 0.983798
vt 0.683634 0.912532
vt 0.683634 0.981644
vt 0.692236 0.916723
vt 0.692236 0.977453
vt 0.706393 0.923572
vt 0.706393 0.970604
vt 0.299546 0.960702
vt 0.298230 0.959892
vt 0.302396 0.954375
vt 0.303941 0.954813
vt 0.303622 0.947866
vt 0.305232 0.947866
vt 0.302396 0.941357
vt 0.303941 0.940920
vt 0.298230 0.935841
vt 0.299546 0.935030
vt 0.289410 0.932130
vt 0.290234 0.931043
vt 0.273768 0.930503
vt 0.273685 0.929200
vt 0.290234 0.964689
vt 0.289410 0.963603
vt 0.273685 0.966532
vt 0.273768 0.965230
vt 0.721960 0.204102
vt 0.721137 0.203015
vt 0.729956 0.199304
vt 0.731272 0.200115
vt 0.705411 0.205945
vt 0.705494 0.204642
vt 0.734122 0.193788
vt 0.735667 0.194225
vt 0.735349 0.187279
vt 0.736958 0.187279
vt 0.734122 0.180770
vt 0.735667 0.180332
vt 0.729956 0.175253
vt 0.731272 0.174442
vt 0.721137 0.171542
vt 0.721960 0.170456
vt 0.705494 0.169915
vt 0.705411 0.168613
vt 0.644801 0.712318
vt 0.653797 0.724042
vt 0.733851 0.724042
vt 0.742847 0.712318
vt 0.748502 0.698666
vt 0.639146 0.698666
vt 0.637217 0.684015
vt 0.750431 0.684015
vt 0.639146 0.669364
vt 0.748502 0.669364
vt 0.742847 0.655711
vt 0.644801 0.655711
vt 0.653797 0.643988
vt 0.733851 0.643988
vt 0.722127 0.634992
vt 0.665520 0.634992
vt 0.679173 0.629337
vt 0.708475 0.629337
vt 0.665520 0.733038
vt 0.679173 0.738693
vt 0.722127 0.733038
vt 0.708475 0.738693
s 1
f 1/1/1 2/2/1 4/3/1 3/4/1
f 26/5/2 21/6/2 95/7/2
f 24/8/2 25/9/2 90/10/2
f 7/11/3 8/12/3 6/13/3 5/14/3
f 27/15/4 28/16/4 23/17/4 22/18/4
f 22/19/5 21/20/5 9/21/5 10/22/5
f 66/23/6 71/24/6 80/25/7 73/26/7
f 11/27/8 12/28/8 16/29/8 15/30/8
f 26/31/9 27/32/9 12/33/9 11/34/9
f 27/15/10 22/18/10 10/35/10 12/36/10
f 21/6/11 26/5/11 11/37/11 9/38/11
f 15/30/3 16/29/3 20/39/3 19/40/3
f 10/41/8 9/42/8 13/43/8 14/44/8
f 12/28/8 10/41/8 14/44/8 16/29/8
f 9/42/8 11/27/8 15/30/8 13/43/8
f 17/45/12 19/40/12 20/39/12 18/46/12
f 14/44/1 13/43/1 17/45/1 18/46/1
f 16/29/4 14/44/4 18/46/4 20/39/4
f 13/43/2 15/30/2 19/40/2 17/45/2
f 30/47/1 29/48/1 21/20/1 22/19/1
f 31/49/1 30/47/1 22/19/1 23/50/1
f 32/51/1 31/49/1 23/50/1 24/52/1
f 29/48/1 32/51/1 24/52/1 21/20/1
f 33/53/3 34/54/3 26/31/3 25/55/3
f 34/54/3 35/56/3 27/32/3 26/31/3
f 36/57/3 33/53/3 25/55/3 28/58/3
f 35/56/3 36/57/3 28/58/3 27/32/3
f 1/1/13 3/4/13 29/48/13 30/47/13
f 2/2/14 1/1/14 30/47/14 31/49/14
f 4/3/15 2/2/15 31/49/15 32/51/15
f 3/4/16 4/3/16 32/51/16 29/48/16
f 8/12/17 7/11/17 34/54/17 33/53/17
f 7/11/18 5/14/18 35/56/18 34/54/18
f 6/13/19 8/12/19 33/53/19 36/57/19
f 5/14/20 6/13/20 36/57/20 35/56/20
f 75/59/21 74/60/21 41/61/22 44/62/22
f 69/63/23 67/64/23 76/65/24 78/66/24
f 28/67/25 25/68/25 70/69/26 72/70/26
f 71/71/27 69/72/27 78/73/28 80/74/28
f 45/75/29 43/76/29 52/77/30 54/78/30
f 24/79/31 23/80/31 65/81/32 68/82/32
f 23/83/33 28/84/33 72/85/34 65/86/34
f 25/87/35 24/88/35 68/89/36 70/90/36
f 51/91/37 50/92/37 57/93/38 60/94/38
f 47/95/39 45/96/39 54/97/40 56/98/40
f 42/99/41 47/100/41 56/101/42 49/102/42
f 59/103/43 58/104/43 37/105/44 38/106/44
f 74/107/45 79/108/45 48/109/46 41/110/46
f 77/111/47 75/112/47 44/113/48 46/114/48
f 79/115/49 77/116/49 46/117/50 48/118/50
f 61/119/51 59/120/51 38/121/52 39/122/52
f 50/123/53 55/124/53 64/125/54 57/126/54
f 53/127/55 51/128/55 60/129/56 62/130/56
f 55/131/57 53/132/57 62/133/58 64/134/58
f 38/106/1 37/105/1 105/135/1 106/136/1
f 63/137/59 61/138/59 39/139/60 40/140/60
f 58/141/61 63/142/61 40/143/62 37/144/62
f 42/145/63 43/146/63 44/62/22 41/61/22
f 43/76/29 45/75/29 46/114/48 44/113/48
f 45/96/39 47/95/39 48/118/50 46/117/50
f 47/100/41 42/99/41 41/110/46 48/109/46
f 50/92/37 51/91/37 52/147/64 49/148/64
f 51/128/55 53/127/55 54/78/30 52/77/30
f 53/132/57 55/131/57 56/98/40 54/97/40
f 55/124/53 50/123/53 49/102/42 56/101/42
f 58/104/43 59/103/43 60/94/38 57/93/38
f 59/120/51 61/119/51 62/130/56 60/129/56
f 61/138/59 63/137/59 64/134/58 62/133/58
f 63/142/61 58/141/61 57/126/54 64/125/54
f 43/146/63 42/145/63 49/148/64 52/147/64
f 66/149/65 67/150/65 68/82/32 65/81/32
f 67/64/23 69/63/23 70/90/36 68/89/36
f 69/72/27 71/71/27 72/70/26 70/69/26
f 71/24/6 66/23/6 65/86/34 72/85/34
f 74/60/21 75/59/21 76/151/66 73/152/66
f 75/112/47 77/111/47 78/66/24 76/65/24
f 77/116/49 79/115/49 80/74/28 78/73/28
f 79/108/45 74/107/45 73/26/7 80/25/7
f 67/150/65 66/149/65 73/152/66 76/151/66
f 108/153/8 106/136/8 105/135/8 107/154/8
f 39/122/2 38/121/2 106/136/2 108/153/2
f 37/144/4 40/143/4 107/154/4 105/135/4
f 40/140/3 39/139/3 108/153/3 107/154/3
f 124/155/67 156/156/67 126/157/2 109/158/2
f 111/159/68 130/160/68 132/161/69 112/162/69
f 112/162/69 132/161/69 134/163/3 113/164/3
f 113/164/3 134/163/3 136/165/70 114/166/70
f 114/166/70 136/165/70 138/167/71 115/168/71
f 115/168/71 138/167/71 140/169/72 116/170/72
f 116/170/72 140/169/72 142/171/4 117/172/4
f 117/173/4 142/174/4 144/175/73 118/176/73
f 118/176/73 144/175/73 146/177/74 119/178/74
f 119/178/74 146/177/74 148/179/75 120/180/75
f 120/180/75 148/179/75 150/181/1 121/182/1
f 121/182/1 150/181/1 152/183/76 122/184/76
f 122/184/76 152/183/76 154/185/77 123/186/77
f 123/186/77 154/185/77 156/156/67 124/155/67
f 109/158/2 126/157/2 128/187/78 110/188/78
f 110/188/78 128/187/78 130/160/68 111/159/68
f 128/189/79 126/190/80 125/191/80 127/192/79
f 130/193/81 128/189/79 127/192/79 129/194/81
f 132/195/82 130/193/81 129/194/81 131/196/82
f 134/197/83 132/195/82 131/196/82 133/198/83
f 136/199/84 134/197/83 133/198/83 135/200/84
f 138/201/85 136/199/84 135/200/84 137/202/85
f 140/203/86 138/201/85 137/202/85 139/204/86
f 142/205/87 140/203/86 139/204/86 141/206/87
f 144/207/88 142/205/87 141/206/87 143/208/88
f 146/209/89 144/207/88 143/208/88 145/210/89
f 148/211/90 146/209/89 145/210/89 147/212/90
f 150/213/91 148/211/90 147/212/90 149/214/91
f 152/215/92 150/213/91 149/214/91 151/216/92
f 154/217/93 152/215/92 151/216/92 153/218/93
f 156/219/94 154/217/93 153/218/93 155/220/94
f 126/190/80 156/219/94 155/220/94 125/191/80
f 127/192/8 125/191/8 155/220/8 153/218/8 151/216/8 149/214/8 147/212/8 145/210/8 143/208/8 141/206/8 139/204/8 137/202/8 135/200/8 133/198/8 131/196/8 129/194/8
f 157/221/95 158/222/95 160/223/96 159/224/96
f 159/224/96 160/223/96 162/225/97 161/226/97
f 161/226/97 162/225/97 164/227/98 163/228/98
f 163/228/98 164/227/98 166/229/8 165/230/8
f 165/230/8 166/229/8 168/231/99 167/232/99
f 167/232/99 168/231/99 170/233/100 169/234/100
f 169/234/100 170/233/100 172/235/101 171/236/101
f 171/236/101 172/235/101 174/237/102 173/238/102
f 175/239/103 177/240/104 178/241/104 176/242/103
f 177/240/104 179/243/105 180/244/105 178/241/104
f 179/243/105 181/245/106 182/246/106 180/244/105
f 181/245/106 183/247/12 184/248/12 182/246/106
f 183/247/12 185/249/107 186/250/107 184/248/12
f 185/249/107 187/251/108 188/252/108 186/250/107
f 187/251/108 189/253/109 190/254/109 188/252/108
f 189/253/109 191/255/110 192/256/110 190/254/109
f 169/257/111 187/258/112 185/259/113 167/260/114
f 167/260/114 185/259/113 183/261/115 165/262/115
f 165/262/115 183/261/115 181/263/116 163/264/117
f 163/264/117 181/263/116 179/265/118 161/266/119
f 161/266/119 179/265/118 177/267/120 159/268/121
f 159/268/121 177/267/120 175/269/122 157/270/122
f 171/271/123 189/272/124 187/258/112 169/257/111
f 173/273/125 191/274/125 189/272/124 171/271/123
f 160/275/126 178/276/127 180/277/128 162/278/129
f 158/279/130 176/280/130 178/276/127 160/275/126
f 162/278/129 180/277/128 182/281/131 164/282/132
f 164/282/132 182/281/131 184/283/133 166/284/133
f 166/284/133 184/283/133 186/285/134 168/286/135
f 168/286/135 186/285/134 188/287/136 170/288/137
f 170/288/137 188/287/136 190/289/138 172/290/139
f 172/290/139 190/289/138 192/291/140 174/292/140
f 103/293/2 92/294/2 25/9/2
f 24/8/2 87/295/2 85/296/2
f 24/8/2 85/296/2 83/297/2
f 102/298/2 103/293/2 25/9/2
f 100/299/2 102/298/2 25/9/2
f 24/8/2 83/297/2 81/300/2
f 21/6/2 24/8/2 81/300/2
f 100/299/2 25/9/2 26/5/2
f 101/301/2 100/299/2 26/5/2
f 21/6/2 81/300/2 82/302/2
f 21/6/2 82/302/2 84/303/2
f 99/304/2 101/301/2 26/5/2
f 104/305/2 99/304/2 26/5/2
f 21/6/2 84/303/2 86/306/2
f 21/6/2 86/306/2 94/307/2
f 98/308/2 104/305/2 26/5/2
f 97/309/2 98/308/2 26/5/2
f 21/6/2 94/307/2 96/310/2
f 95/7/2 97/309/2 26/5/2
f 21/6/2 96/310/2 95/7/2
f 25/9/2 92/294/2 93/311/2
f 25/9/2 93/311/2 91/312/2
f 88/313/2 87/295/2 24/8/2
f 89/314/2 88/313/2 24/8/2
f 25/9/2 91/312/2 90/10/2
f 90/10/2 89/314/2 24/8/2
