# Blender 4.1.1
# www.blender.org
o Headlight_Visor_Small
v 0.110825 0.191955 -0.381947
v 0.057367 0.214098 -0.381947
v 0.000000 0.221650 -0.381947
v -0.057367 0.214098 -0.381947
v -0.110825 0.191955 -0.381947
v 0.221650 0.008481 -0.271112
v 0.218882 -0.021032 -0.157872
v 0.219893 -0.013350 -0.216489
v 0.214098 0.057367 -0.327551
v 0.191955 0.110825 -0.361972
v 0.156731 0.156731 -0.378045
v -0.156731 0.156731 -0.378045
v -0.191955 0.110825 -0.361972
v -0.214098 0.057367 -0.327551
v -0.220443 0.009172 -0.271112
v -0.218882 -0.021032 -0.157872
v -0.219893 -0.013350 -0.216489
v -0.156731 0.156731 -0.157872
v 0.000000 0.221650 -0.157872
v -0.214098 0.057367 -0.157872
v -0.221650 0.000000 -0.157872
v -0.057367 0.214098 -0.157872
v -0.191955 0.110825 -0.157872
v -0.110825 0.191955 -0.157872
v 0.110825 0.191955 -0.157872
v 0.156731 0.156731 -0.157872
v 0.214098 0.057367 -0.157872
v 0.057367 0.214098 -0.157872
v 0.191955 0.110825 -0.157872
v 0.221650 0.000000 -0.157872
v 0.107279 0.185812 -0.381947
v 0.055532 0.207247 -0.381947
v 0.000000 0.214558 -0.381947
v -0.055532 0.207247 -0.381947
v -0.107279 0.185812 -0.381947
v 0.214562 0.008246 -0.271112
v 0.211849 -0.020106 -0.157872
v 0.212861 -0.012424 -0.216489
v 0.207267 0.055458 -0.327551
v 0.185831 0.107247 -0.361972
v 0.151722 0.151708 -0.378045
v -0.151722 0.151708 -0.378045
v -0.185831 0.107247 -0.361972
v -0.207267 0.055458 -0.327551
v -0.213411 0.008246 -0.271112
v -0.211849 -0.020106 -0.157872
v -0.212861 -0.012424 -0.216489
v -0.151715 0.151715 -0.157872
v 0.000000 0.214558 -0.157872
v -0.207247 0.055532 -0.157872
v -0.214558 0.000000 -0.157872
v -0.055532 0.207247 -0.157872
v -0.185812 0.107279 -0.157872
v -0.107279 0.185812 -0.157872
v 0.107279 0.185812 -0.157872
v 0.151715 0.151715 -0.157872
v 0.207247 0.055532 -0.157872
v 0.055532 0.207247 -0.157872
v 0.185812 0.107279 -0.157872
v 0.214558 0.000000 -0.157872
vn 0.9938 -0.1108 -0.0046
vn 0.9933 0.1156 0.0033
vn 0.9999 0.0102 -0.0004
vn 0.8470 0.5317 -0.0000
vn 0.8660 0.5000 -0.0000
vn 0.9643 0.2649 0.0022
vn 0.9462 0.3236 0.0011
vn 0.6963 0.7177 -0.0000
vn 0.7071 0.7071 -0.0000
vn 0.4975 0.8675 -0.0000
vn 0.5000 0.8660 -0.0000
vn -0.6963 0.7177 -0.0000
vn -0.7071 0.7071 -0.0000
vn -0.5000 0.8660 -0.0000
vn -0.4975 0.8675 -0.0000
vn -0.2588 0.9659 -0.0000
vn -0.0000 1.0000 -0.0000
vn -0.9999 0.0157 -0.0052
vn -0.9659 0.2588 -0.0000
vn -0.9470 0.3211 -0.0000
vn -0.9943 0.1067 -0.0011
vn -0.9961 -0.0882 -0.0098
vn -0.8660 0.5000 -0.0000
vn -0.8470 0.5317 -0.0000
vn 0.2588 0.9659 -0.0000
vn -0.9935 0.1137 0.0047
vn -1.0000 -0.0089 0.0004
vn -0.9932 -0.1168 -0.0033
vn -0.8464 -0.5325 -0.0000
vn -0.9458 -0.3248 -0.0010
vn -0.9643 -0.2649 -0.0021
vn -0.8661 -0.4999 -0.0000
vn -0.6960 -0.7181 -0.0000
vn -0.7071 -0.7071 -0.0000
vn -0.4974 -0.8675 -0.0000
vn -0.5000 -0.8660 -0.0000
vn 0.6960 -0.7181 -0.0000
vn 0.4974 -0.8675 -0.0000
vn 0.5000 -0.8660 -0.0000
vn 0.7071 -0.7071 -0.0000
vn 0.2588 -0.9659 -0.0000
vn -0.0000 -1.0000 -0.0000
vn 0.9999 -0.0138 0.0050
vn 0.9943 -0.1071 0.0011
vn 0.9468 -0.3218 0.0001
vn 0.9660 -0.2584 0.0001
vn 0.9957 0.0920 0.0093
vn 0.8661 -0.4999 -0.0000
vn 0.8464 -0.5325 -0.0000
vn -0.2588 -0.9659 -0.0000
vn -0.0000 -0.0000 -1.0000
vn 0.0272 -0.0208 -0.9994
vn 0.0271 -0.0208 -0.9994
vn -0.0272 -0.0208 -0.9994
vn -0.0271 -0.0208 -0.9994
vn -0.0884 -0.9646 -0.2485
vn -0.1294 -0.9829 -0.1310
vn -0.0879 -0.9643 -0.2499
vn 0.1858 -0.3494 -0.9184
vn 0.1607 -0.6233 -0.7653
vn 0.1614 -0.6211 -0.7669
vn 0.1858 -0.3490 -0.9185
vn 0.1108 -0.1290 -0.9854
vn 0.1107 -0.1289 -0.9855
vn -0.0791 -0.8509 -0.5193
vn -0.1798 -0.6211 -0.7628
vn -0.1799 -0.6202 -0.7635
vn -0.0763 -0.8544 -0.5140
vn 0.0662 -0.9659 -0.2502
vn 0.0646 -0.9653 -0.2531
vn 0.1294 -0.9829 -0.1310
vn -0.1108 -0.1290 -0.9854
vn -0.1107 -0.1289 -0.9855
vn -0.1858 -0.3494 -0.9184
vn -0.1858 -0.3490 -0.9185
vn 0.0345 -0.8562 -0.5156
vn 0.0365 -0.8540 -0.5190
vt 0.373729 0.239229
vt 0.387825 0.241088
vt 0.400964 0.246350
vt 0.373730 0.244330
vt 0.422813 0.272161
vt 0.373731 0.272160
vt 0.373731 0.258245
vt 0.414536 0.258246
vt 0.426678 0.286075
vt 0.373731 0.286075
vt 0.427617 0.299990
vt 0.373731 0.299989
vt 0.426677 0.369565
vt 0.373729 0.369564
vt 0.373730 0.355649
vt 0.427616 0.355650
vt 0.373730 0.341734
vt 0.373730 0.327819
vt 0.427616 0.327820
vt 0.427616 0.341735
vt 0.373729 0.411308
vt 0.373729 0.397393
vt 0.414534 0.397394
vt 0.400961 0.409084
vt 0.373739 0.416410
vt 0.387832 0.414518
vt 0.373729 0.383479
vt 0.422811 0.383479
vt 0.373730 0.313904
vt 0.427616 0.313905
vt 0.175273 0.482854
vt 0.175274 0.477975
vt 0.202508 0.476012
vt 0.189370 0.480994
vt 0.224358 0.451044
vt 0.216081 0.464523
vt 0.175276 0.464505
vt 0.175276 0.451036
vt 0.228223 0.437568
vt 0.175276 0.437566
vt 0.229162 0.424097
vt 0.175276 0.424097
vt 0.228223 0.356746
vt 0.229162 0.370218
vt 0.175276 0.370218
vt 0.175276 0.356749
vt 0.175276 0.383688
vt 0.229162 0.383688
vt 0.229162 0.397157
vt 0.175276 0.397157
vt 0.175276 0.316340
vt 0.202508 0.318342
vt 0.216081 0.329791
vt 0.175276 0.329809
vt 0.175286 0.311461
vt 0.189378 0.313353
vt 0.175276 0.343279
vt 0.224358 0.343270
vt 0.175276 0.410627
vt 0.229162 0.410627
vt 0.791244 0.090686
vt 0.785930 0.103546
vt 0.784452 0.102695
vt 0.789596 0.090246
vt 0.793047 0.076888
vt 0.791342 0.076890
vt 0.791219 0.063094
vt 0.789571 0.063537
vt 0.785882 0.050243
vt 0.784405 0.051098
vt 0.719731 0.136227
vt 0.705590 0.137722
vt 0.705411 0.136025
vt 0.719551 0.134530
vt 0.766052 0.123486
vt 0.751290 0.130135
vt 0.750752 0.128516
vt 0.765175 0.122023
vt 0.777454 0.114621
vt 0.776244 0.113418
vt 0.733739 0.019689
vt 0.751193 0.023718
vt 0.750658 0.025338
vt 0.733355 0.021351
vt 0.719731 0.017308
vt 0.719508 0.018999
vt 0.705635 0.015446
vt 0.705411 0.017137
vt 0.777385 0.039184
vt 0.776178 0.040389
vt 0.765968 0.030340
vt 0.765093 0.031805
vt 0.733777 0.134494
vt 0.733497 0.132812
s 1
f 7/1/1 8/2/1 6/3/2 30/4/3
f 10/5/4 29/6/5 27/7/6 9/8/7
f 11/9/8 26/10/9 29/6/5 10/5/4
f 1/11/10 25/12/11 26/10/9 11/9/8
f 12/13/12 18/14/13 24/15/14 5/16/15
f 22/17/16 19/18/17 3/19/17 4/20/16
f 21/21/18 20/22/19 14/23/20 15/24/21
f 24/15/14 22/17/16 4/20/16 5/16/15
f 16/25/22 21/21/18 15/24/21 17/26/22
f 23/27/23 18/14/13 12/13/12 13/28/24
f 20/22/19 23/27/23 13/28/24 14/23/20
f 28/29/25 25/12/11 1/11/10 2/30/25
f 27/7/6 30/4/3 6/3/2 9/8/7
f 19/18/17 28/29/25 2/30/25 3/19/17
f 37/31/26 60/32/27 36/33/28 38/34/26
f 40/35/29 39/36/30 57/37/31 59/38/32
f 41/39/33 40/35/29 59/38/32 56/40/34
f 31/41/35 41/39/33 56/40/34 55/42/36
f 42/43/37 35/44/38 54/45/39 48/46/40
f 52/47/41 34/48/41 33/49/42 49/50/42
f 51/51/43 45/52/44 44/53/45 50/54/46
f 54/45/39 35/44/38 34/48/41 52/47/41
f 46/55/47 47/56/47 45/52/44 51/51/43
f 53/57/48 43/58/49 42/43/37 48/46/40
f 50/54/46 44/53/45 43/58/49 53/57/48
f 58/59/50 32/60/50 31/41/35 55/42/36
f 57/37/31 39/36/30 36/33/28 60/32/27
f 49/50/42 33/49/42 32/60/50 58/59/50
f 2/61/51 1/62/52 31/63/53 32/64/51
f 3/65/51 2/61/51 32/64/51 33/66/51
f 4/67/51 3/65/51 33/66/51 34/68/51
f 5/69/54 4/67/51 34/68/51 35/70/55
f 8/71/56 7/72/57 37/73/57 38/74/58
f 10/75/59 9/76/60 39/77/61 40/78/62
f 11/79/63 10/75/59 40/78/62 41/80/64
f 1/62/52 11/79/63 41/80/64 31/63/53
f 15/81/65 14/82/66 44/83/67 45/84/68
f 17/85/69 15/81/65 45/84/68 47/86/70
f 16/87/71 17/85/69 47/86/70 46/88/71
f 12/89/72 5/69/54 35/70/55 42/90/73
f 13/91/74 12/89/72 42/90/73 43/92/75
f 14/82/66 13/91/74 43/92/75 44/83/67
f 6/93/76 8/71/56 38/74/58 36/94/77
f 9/76/60 6/93/76 36/94/77 39/77/61
