# Blender 4.1.1
# www.blender.org
o Headlight_Electric
v 0.000000 0.178337 -0.160924
v 0.046157 0.172260 -0.160924
v 0.089168 0.154444 -0.160924
v 0.126103 0.126103 -0.160924
v 0.154444 0.089168 -0.160924
v 0.172260 0.046157 -0.160924
v 0.178337 -0.000000 -0.160924
v 0.172260 -0.046157 -0.160924
v 0.154444 -0.089168 -0.160924
v 0.126103 -0.126103 -0.160924
v 0.089168 -0.154444 -0.160924
v 0.046157 -0.172260 -0.160924
v -0.000000 -0.178337 -0.160924
v -0.046157 -0.172260 -0.160924
v -0.089168 -0.154444 -0.160924
v -0.126103 -0.126103 -0.160924
v -0.154444 -0.089168 -0.160924
v -0.172260 -0.046157 -0.160924
v -0.178336 0.000000 -0.160924
v -0.172260 0.046157 -0.160924
v -0.154444 0.089168 -0.160924
v -0.126103 0.126103 -0.160924
v -0.089168 0.154444 -0.160924
v -0.046157 0.172260 -0.160924
v -0.000000 0.199697 -0.160924
v 0.051685 0.192892 -0.160924
v 0.099849 0.172943 -0.160924
v 0.141207 0.141207 -0.160924
v 0.172943 0.099848 -0.160924
v 0.192892 0.051685 -0.160924
v 0.199697 -0.000000 -0.160924
v 0.192892 -0.051685 -0.160924
v 0.172943 -0.099849 -0.160924
v 0.141207 -0.141207 -0.160924
v 0.099848 -0.172943 -0.160924
v 0.051685 -0.192892 -0.160924
v -0.000000 -0.199697 -0.160924
v -0.051685 -0.192892 -0.160924
v -0.099848 -0.172943 -0.160924
v -0.141207 -0.141207 -0.160924
v -0.172943 -0.099848 -0.160924
v -0.192892 -0.051685 -0.160924
v -0.199697 0.000000 -0.160924
v -0.192892 0.051685 -0.160924
v -0.172943 0.099848 -0.160924
v -0.141207 0.141207 -0.160924
v -0.099848 0.172943 -0.160924
v -0.051685 0.192892 -0.160924
v -0.000000 0.199697 -0.195064
v 0.051685 0.192892 -0.195064
v 0.099849 0.172943 -0.195064
v 0.141207 0.141207 -0.195064
v 0.172943 0.099848 -0.195064
v 0.192892 0.051685 -0.195064
v 0.199697 -0.000000 -0.195064
v 0.192892 -0.051685 -0.195064
v 0.172943 -0.099849 -0.195064
v 0.141207 -0.141207 -0.195064
v 0.099848 -0.172943 -0.195064
v 0.051685 -0.192892 -0.195064
v -0.000000 -0.199697 -0.195064
v -0.051685 -0.192892 -0.195064
v -0.099848 -0.172943 -0.195064
v -0.141207 -0.141207 -0.195064
v -0.172943 -0.099848 -0.195064
v -0.192892 -0.051685 -0.195064
v -0.199697 0.000000 -0.195064
v -0.192892 0.051685 -0.195064
v -0.172943 0.099848 -0.195064
v -0.141207 0.141207 -0.195064
v -0.099848 0.172943 -0.195064
v -0.051685 0.192892 -0.195064
v -0.000000 0.223044 -0.157547
v 0.057728 0.215444 -0.157547
v 0.111522 0.193162 -0.157547
v 0.157716 0.157716 -0.157547
v 0.193162 0.111522 -0.157547
v 0.215444 0.057728 -0.157547
v 0.223044 -0.000000 -0.157547
v 0.215444 -0.057728 -0.157547
v 0.193162 -0.111522 -0.157547
v 0.157716 -0.157716 -0.157547
v 0.111522 -0.193162 -0.157547
v 0.057728 -0.215444 -0.157547
v -0.000000 -0.223044 -0.157547
v -0.057728 -0.215444 -0.157547
v -0.111522 -0.193162 -0.157547
v -0.157716 -0.157716 -0.157547
v -0.193162 -0.111522 -0.157547
v -0.215444 -0.057728 -0.157547
v -0.223044 0.000000 -0.157547
v -0.215444 0.057728 -0.157547
v -0.193162 0.111522 -0.157547
v -0.157716 0.157716 -0.157547
v -0.111522 0.193162 -0.157547
v -0.057728 0.215444 -0.157547
v -0.000000 0.223044 -0.195064
v 0.057728 0.215444 -0.195064
v 0.111522 0.193162 -0.195064
v 0.157716 0.157716 -0.195064
v 0.193162 0.111522 -0.195064
v 0.215444 0.057728 -0.195064
v 0.223044 -0.000000 -0.195064
v 0.215444 -0.057728 -0.195064
v 0.193162 -0.111522 -0.195064
v 0.157716 -0.157716 -0.195064
v 0.111522 -0.193162 -0.195064
v 0.057728 -0.215444 -0.195064
v -0.000000 -0.223044 -0.195064
v -0.057728 -0.215444 -0.195064
v -0.111522 -0.193162 -0.195064
v -0.157716 -0.157716 -0.195064
v -0.193162 -0.111522 -0.195064
v -0.215444 -0.057728 -0.195064
v -0.223044 0.000000 -0.195064
v -0.215444 0.057728 -0.195064
v -0.193162 0.111522 -0.195064
v -0.157716 0.157716 -0.195064
v -0.111522 0.193162 -0.195064
v -0.057728 0.215444 -0.195064
v -0.000000 0.212101 -0.157547
v 0.054896 0.204874 -0.157547
v 0.106051 0.183685 -0.157547
v 0.149978 0.149978 -0.157547
v 0.183685 0.106051 -0.157547
v 0.204874 0.054896 -0.157547
v 0.212101 -0.000000 -0.157547
v 0.204874 -0.054896 -0.157547
v 0.183685 -0.106051 -0.157547
v 0.149978 -0.149978 -0.157547
v 0.106051 -0.183685 -0.157547
v 0.054896 -0.204874 -0.157547
v -0.000000 -0.212101 -0.157547
v -0.054896 -0.204874 -0.157547
v -0.106051 -0.183685 -0.157547
v -0.149978 -0.149978 -0.157547
v -0.183685 -0.106051 -0.157547
v -0.204874 -0.054896 -0.157547
v -0.212101 0.000000 -0.157547
v -0.204874 0.054896 -0.157547
v -0.183685 0.106051 -0.157547
v -0.149978 0.149978 -0.157547
v -0.106051 0.183685 -0.157547
v -0.054896 0.204874 -0.157547
v 0.000000 0.057061 0.035218
v 0.014768 0.055116 0.035218
v 0.028530 0.049416 0.035218
v 0.040348 0.040348 0.035218
v 0.049416 0.028530 0.035218
v 0.055116 0.014768 0.035218
v 0.057061 0.000000 0.035218
v 0.055116 -0.014768 0.035218
v 0.049416 -0.028530 0.035218
v 0.040348 -0.040348 0.035218
v 0.028530 -0.049416 0.035218
v 0.014768 -0.055116 0.035218
v 0.000000 -0.057061 0.035218
v -0.014768 -0.055116 0.035218
v -0.028530 -0.049416 0.035218
v -0.040348 -0.040348 0.035218
v -0.049416 -0.028530 0.035218
v -0.055116 -0.014768 0.035218
v -0.057061 0.000000 0.035218
v -0.055116 0.014768 0.035218
v -0.049416 0.028530 0.035218
v -0.040348 0.040348 0.035218
v -0.028530 0.049416 0.035218
v -0.014768 0.055116 0.035218
v -0.149978 -0.149978 -0.084305
v -0.106051 -0.183685 -0.084304
v 0.183685 -0.106051 -0.084304
v 0.204874 -0.054896 -0.084305
v -0.054896 0.204874 -0.084305
v -0.106051 0.183685 -0.084305
v 0.054896 0.204874 -0.084305
v -0.000000 0.212101 -0.084305
v -0.183685 -0.106051 -0.084305
v 0.149978 -0.149978 -0.084305
v 0.106051 0.183685 -0.084305
v -0.204874 -0.054896 -0.084305
v 0.106051 -0.183685 -0.084305
v 0.149978 0.149978 -0.084305
v -0.212101 0.000000 -0.084305
v 0.054896 -0.204874 -0.084305
v 0.183685 0.106051 -0.084305
v -0.204874 0.054896 -0.084305
v -0.000000 -0.212101 -0.084305
v 0.204874 0.054896 -0.084305
v -0.183685 0.106051 -0.084305
v -0.054896 -0.204874 -0.084305
v 0.212101 -0.000000 -0.084305
v -0.149978 0.149978 -0.084305
v -0.227881 -0.067151 0.209182
v -0.227881 0.067151 0.209182
v -0.227881 -0.067151 -0.068717
v -0.227881 0.067151 -0.068717
v 0.227881 -0.067151 0.209182
v 0.227881 0.067151 0.209182
v 0.227881 -0.067151 -0.068717
v 0.227881 0.067151 -0.068717
v -0.227881 -0.093594 0.235625
v -0.227881 -0.093594 -0.095160
v 0.227881 -0.093594 0.235625
v 0.227881 -0.093594 -0.095160
v -0.212516 -0.067151 0.209182
v -0.212516 0.067151 0.209182
v -0.212516 -0.067151 -0.068717
v -0.212516 0.067151 -0.068717
v 0.212516 0.067151 0.209182
v 0.212516 0.067151 -0.068717
v 0.212516 -0.067151 0.209182
v 0.212516 -0.067151 -0.068717
v -0.227881 0.083046 0.225077
v -0.227881 0.083046 0.235625
v -0.227881 0.083046 -0.084612
v -0.227881 0.083046 -0.095160
v 0.227881 0.083046 0.225077
v 0.227881 0.083046 0.235625
v 0.227881 0.083046 -0.084612
v 0.227881 0.083046 -0.095160
v -0.217333 0.093594 0.235625
v -0.217333 0.093594 -0.095160
v 0.217333 0.093594 -0.095160
v 0.217333 0.093594 0.235625
v -0.188845 0.093594 -0.095160
v 0.188845 0.093594 -0.095160
v -0.188845 -0.093594 -0.095160
v 0.212101 -0.000000 -0.095160
v 0.204874 -0.054896 -0.095160
v 0.204874 0.054896 -0.095160
v 0.188845 -0.093594 -0.095160
v -0.212101 0.000000 -0.095160
v -0.204874 -0.054896 -0.095160
v -0.204874 0.054896 -0.095160
v -0.188845 0.093594 -0.084305
v -0.093594 0.093594 -0.022832
v -0.162109 0.093594 -0.065098
v -0.054036 0.093594 -0.004107
v -0.025078 0.093594 0.004509
v 0.000000 0.093594 0.007055
v 0.025078 0.093594 0.004509
v 0.054036 0.093594 -0.004107
v 0.093594 0.093594 -0.022832
v 0.162109 0.093594 -0.065098
v 0.188845 0.093594 -0.084305
v -0.162109 -0.093594 -0.065098
v -0.188845 -0.093594 -0.084305
v -0.093594 -0.093594 -0.022832
v -0.054036 -0.093594 -0.004107
v -0.025078 -0.093594 0.004509
v 0.000000 -0.093594 0.007055
v 0.025078 -0.093594 0.004509
v 0.054036 -0.093594 -0.004107
v 0.093594 -0.093594 -0.022832
v 0.162109 -0.093594 -0.065098
v 0.188845 -0.093594 -0.084305
v 0.207061 0.068662 0.124779
v 0.207061 0.068662 0.006285
v 0.225458 0.068662 0.124779
v 0.225458 0.068662 0.006285
v 0.234657 0.084594 0.124779
v 0.234657 0.084594 0.006285
v 0.225458 0.100526 0.124779
v 0.225458 0.100526 0.006285
v 0.207061 0.100526 0.124779
v 0.207061 0.100526 0.006285
v 0.197863 0.084594 0.124779
v 0.197863 0.084594 0.006285
v -0.225458 0.068662 0.124779
v -0.225458 0.068662 0.006285
v -0.234657 0.084594 0.124779
v -0.234657 0.084594 0.006285
v -0.225458 0.100526 0.124779
v -0.225458 0.100526 0.006285
v -0.207061 0.100526 0.124779
v -0.207061 0.100526 0.006285
v -0.197863 0.084594 0.124779
v -0.197863 0.084594 0.006285
v -0.207061 0.068662 0.124779
v -0.207061 0.068662 0.006285
v 0.014174 -0.062284 0.150922
v 0.006174 -0.070284 0.150916
v 0.014174 -0.078284 0.150910
v 0.022174 -0.070284 0.150916
v 0.014174 -0.069780 0.169484
v 0.006174 -0.075260 0.163655
v 0.014174 -0.080739 0.157827
v 0.022174 -0.075260 0.163655
v 0.014174 -0.086604 0.175496
v 0.006174 -0.087319 0.167528
v 0.014174 -0.088034 0.159560
v 0.022174 -0.087319 0.167528
v 0.014174 -0.104076 0.173332
v 0.006174 -0.102197 0.165556
v 0.014174 -0.100317 0.157780
v 0.022174 -0.102197 0.165556
v 0.014174 -0.117879 0.168443
v 0.006174 -0.115630 0.160766
v 0.014174 -0.113381 0.153088
v 0.022174 -0.115630 0.160766
v 0.014174 -0.139541 0.163289
v 0.006174 -0.139279 0.155294
v 0.014174 -0.139017 0.147298
v 0.022174 -0.139279 0.155294
v 0.014174 -0.159691 0.166575
v 0.006174 -0.162509 0.159088
v 0.014174 -0.165328 0.151601
v 0.022174 -0.162509 0.159088
v 0.014174 -0.176154 0.176789
v 0.006174 -0.181828 0.171149
v 0.014174 -0.187501 0.165509
v 0.022174 -0.181828 0.171149
v 0.014174 -0.186181 0.193101
v 0.006174 -0.193740 0.190480
v 0.014174 -0.201298 0.187859
v 0.022174 -0.193740 0.190480
v 0.014174 -0.187123 0.201588
v 0.006174 -0.195099 0.202205
v 0.014174 -0.203075 0.202821
v 0.022174 -0.195099 0.202205
v 0.014174 -0.184863 0.209584
v 0.006174 -0.192143 0.212902
v 0.014174 -0.199422 0.216220
v 0.022174 -0.192143 0.212902
v 0.014174 -0.179606 0.217420
v 0.006174 -0.185742 0.222553
v 0.014174 -0.191878 0.227686
v 0.022174 -0.185742 0.222553
v 0.014174 -0.171831 0.224841
v 0.006174 -0.176768 0.231136
v 0.014174 -0.181705 0.237431
v 0.022174 -0.176768 0.231136
v 0.014174 -0.161554 0.231386
v 0.006174 -0.165159 0.238527
v 0.014174 -0.168765 0.245669
v 0.022174 -0.165159 0.238527
v 0.014174 -0.149833 0.235888
v 0.006174 -0.152149 0.243546
v 0.014174 -0.154464 0.251203
v 0.022174 -0.152149 0.243546
v 0.014174 -0.136553 0.238833
v 0.006174 -0.137905 0.246718
v 0.014174 -0.139258 0.254603
v 0.022174 -0.137905 0.246718
v 0.014174 -0.121393 0.240664
v 0.006174 -0.122600 0.248572
v 0.014174 -0.123807 0.256481
v 0.022174 -0.122600 0.248572
v 0.014174 -0.075026 0.249256
v 0.006174 -0.077312 0.256922
v 0.014174 -0.079598 0.264589
v 0.022174 -0.077312 0.256922
v 0.014174 -0.045995 0.261396
v 0.006174 -0.049461 0.268607
v 0.014174 -0.052926 0.275817
v 0.022174 -0.049461 0.268607
v 0.014174 -0.029124 0.270710
v 0.006174 -0.031690 0.278288
v 0.014174 -0.034257 0.285865
v 0.022174 -0.031690 0.278288
v 0.014174 -0.018348 0.272812
v 0.006174 -0.016644 0.280629
v 0.014174 -0.014941 0.288446
v 0.022174 -0.016644 0.280629
v 0.014174 -0.013000 0.269075
v 0.006174 -0.006798 0.274128
v 0.014174 -0.000596 0.279182
v 0.022174 -0.006798 0.274128
v 0.014174 -0.009603 0.259776
v 0.006174 -0.001847 0.261736
v 0.014174 0.005909 0.263696
v 0.022174 -0.001847 0.261736
v 0.014174 -0.008093 0.246174
v 0.006174 -0.000110 0.246690
v 0.014174 0.007874 0.247207
v 0.022174 -0.000110 0.246690
v 0.014174 -0.007904 0.232228
v 0.006174 0.000096 0.232228
v 0.014174 0.008096 0.232228
v 0.022174 0.000096 0.232228
v -0.014731 0.005690 0.231165
v -0.022731 -0.002310 0.231165
v -0.014731 -0.010310 0.231165
v -0.006731 -0.002310 0.231165
v -0.014731 0.002629 0.244843
v -0.022731 -0.004724 0.241691
v -0.014731 -0.012077 0.238539
v -0.006731 -0.004724 0.241691
v -0.014731 -0.004930 0.256391
v -0.022731 -0.011010 0.251192
v -0.014731 -0.017090 0.245993
v -0.006731 -0.011010 0.251192
v -0.014731 -0.014931 0.265564
v -0.022731 -0.019738 0.259169
v -0.014731 -0.024545 0.252774
v -0.006731 -0.019738 0.259169
v -0.014731 -0.026601 0.272589
v -0.022731 -0.029476 0.265123
v -0.014731 -0.032352 0.257658
v -0.006731 -0.029476 0.265123
v -0.014731 -0.068938 0.280416
v -0.022731 -0.068270 0.272444
v -0.014731 -0.067603 0.264472
v -0.006731 -0.068270 0.272444
v -0.014731 -0.108059 0.266114
v -0.022731 -0.103847 0.259312
v -0.014731 -0.099635 0.252511
v -0.006731 -0.103847 0.259312
v -0.014731 -0.140018 0.236127
v -0.022731 -0.133744 0.231164
v -0.014731 -0.127469 0.226201
v -0.006731 -0.133744 0.231164
v -0.014731 -0.162277 0.197683
v -0.022731 -0.155498 0.193435
v -0.014731 -0.148719 0.189186
v -0.006731 -0.155498 0.193435
v -0.014731 -0.177790 0.174514
v -0.022731 -0.172298 0.168696
v -0.014731 -0.166806 0.162879
v -0.006731 -0.172298 0.168696
v -0.014731 -0.206226 0.157610
v -0.022731 -0.203236 0.150190
v -0.014731 -0.200246 0.142770
v -0.006731 -0.203236 0.150190
v -0.014731 -0.254571 0.146512
v -0.022731 -0.253452 0.138591
v -0.014731 -0.252332 0.130669
v -0.006731 -0.253452 0.138591
v -0.014731 -0.328084 0.142574
v -0.022731 -0.328084 0.134574
v -0.014731 -0.328084 0.126574
v -0.006731 -0.328084 0.134574
vn -0.0000 -0.0000 -1.0000
vn 0.2588 0.9659 -0.0000
vn -0.0000 1.0000 -0.0000
vn -1.0000 -0.0000 -0.0000
vn -0.9659 -0.2588 -0.0000
vn 0.7071 -0.7071 -0.0000
vn 0.8660 -0.5000 -0.0000
vn 0.5000 0.8660 -0.0000
vn -0.9659 0.2588 -0.0000
vn 0.5000 -0.8660 -0.0000
vn 0.7071 0.7071 -0.0000
vn -0.8660 0.5000 -0.0000
vn 0.2588 -0.9659 -0.0000
vn -0.2588 -0.9659 -0.0000
vn -0.0000 -1.0000 -0.0000
vn 0.8660 0.5000 -0.0000
vn -0.7071 0.7071 -0.0000
vn -0.5000 -0.8660 -0.0000
vn 0.9659 0.2588 -0.0000
vn -0.5000 0.8660 -0.0000
vn -0.7071 -0.7071 -0.0000
vn 1.0000 -0.0000 -0.0000
vn -0.2588 0.9659 -0.0000
vn -0.8660 -0.5000 -0.0000
vn 0.9659 -0.2588 -0.0000
vn -0.0000 -0.0000 1.0000
vn -0.4317 -0.4317 0.7920
vn -0.3053 -0.5287 0.7920
vn 0.5287 -0.3053 0.7920
vn 0.5897 -0.1580 0.7920
vn -0.1580 0.5897 0.7920
vn -0.3053 0.5287 0.7920
vn 0.1580 0.5897 0.7920
vn -0.0000 0.6105 0.7920
vn -0.5287 -0.3053 0.7920
vn 0.4317 -0.4317 0.7920
vn 0.3053 0.5287 0.7920
vn -0.5897 -0.1580 0.7920
vn 0.3053 -0.5287 0.7920
vn 0.4317 0.4317 0.7920
vn -0.6105 -0.0000 0.7920
vn 0.1580 -0.5897 0.7920
vn 0.5287 0.3053 0.7920
vn -0.5897 0.1580 0.7920
vn -0.0000 -0.6105 0.7920
vn 0.5897 0.1580 0.7920
vn -0.5287 0.3053 0.7920
vn -0.1580 -0.5897 0.7920
vn 0.6105 -0.0000 0.7920
vn -0.4317 0.4317 0.7920
vn -0.0000 0.9290 0.3702
vn -0.0000 0.6895 0.7243
vn 0.9810 0.1384 0.1361
vn 0.9841 0.1618 0.0730
vn -0.9841 0.1618 0.0730
vn -0.9810 0.1384 0.1361
vn -0.0000 -0.9354 -0.3537
vn -0.0000 -0.6772 -0.7358
vn -0.0000 0.1013 0.9949
vn 0.9951 0.0232 0.0956
vn -0.9951 0.0232 0.0956
vn -0.0000 -0.0709 -0.9975
vn -0.0000 -0.2321 0.9727
vn 0.9989 -0.0081 0.0466
vn -0.9989 -0.0081 0.0466
vn -0.0000 0.2382 -0.9712
vn -0.0000 -0.2820 0.9594
vn 0.9997 0.0064 -0.0251
vn -0.9997 0.0064 -0.0251
vn -0.0000 0.2803 -0.9599
vn -0.0000 -0.0341 0.9994
vn 0.9962 0.0013 -0.0868
vn -0.9962 0.0013 -0.0868
vn -0.0000 0.0311 -0.9995
vn -0.0000 0.3517 0.9361
vn 0.9961 -0.0318 -0.0826
vn -0.9961 -0.0318 -0.0826
vn -0.0000 -0.3529 -0.9357
vn -0.0000 0.7089 0.7053
vn 0.9947 -0.0730 -0.0720
vn -0.9947 -0.0730 -0.0720
vn -0.0000 -0.7095 -0.7047
vn -0.0000 0.9452 0.3264
vn 0.9952 -0.0918 -0.0330
vn -0.9952 -0.0918 -0.0330
vn -0.0000 -0.9445 -0.3286
vn -0.0000 0.9968 -0.0795
vn 0.9963 -0.0860 0.0046
vn -0.9963 -0.0860 0.0046
vn -0.0000 -0.9972 0.0753
vn -0.0000 0.9089 -0.4170
vn 0.9975 -0.0653 0.0273
vn -0.9975 -0.0653 0.0273
vn -0.0000 -0.9108 0.4130
vn -0.0000 0.7661 -0.6428
vn 0.9988 -0.0390 0.0309
vn -0.9988 -0.0390 0.0309
vn -0.0000 -0.7678 0.6407
vn -0.0000 0.6169 -0.7870
vn 0.9990 -0.0273 0.0345
vn -0.9990 -0.0273 0.0345
vn -0.0000 -0.6173 0.7868
vn -0.0000 0.4504 -0.8928
vn 0.9990 -0.0204 0.0397
vn -0.9990 -0.0204 0.0397
vn -0.0000 -0.4509 0.8926
vn -0.0000 0.2889 -0.9574
vn 0.9994 -0.0102 0.0319
vn -0.9994 -0.0102 0.0319
vn -0.0000 -0.2899 0.9571
vn -0.0000 0.1687 -0.9857
vn 0.9998 -0.0041 0.0218
vn -0.9998 -0.0041 0.0218
vn -0.0000 -0.1693 0.9856
vn -0.0000 0.1510 -0.9885
vn 0.9999 0.0022 -0.0137
vn -0.9999 0.0022 -0.0137
vn -0.0000 -0.1507 0.9886
vn -0.0000 0.2857 -0.9583
vn 0.9988 0.0137 -0.0462
vn -0.9988 0.0137 -0.0462
vn -0.0000 -0.2858 0.9583
vn -0.0000 0.4342 -0.9008
vn 0.9997 0.0109 -0.0202
vn -0.9997 0.0109 -0.0202
vn -0.0000 -0.4323 0.9017
vn -0.0000 0.3298 -0.9441
vn 0.9970 -0.0165 0.0751
vn -0.9970 -0.0165 0.0751
vn -0.0000 -0.3136 0.9496
vn -0.0000 -0.2102 -0.9777
vn 0.9867 0.0379 0.1580
vn -0.9867 0.0379 0.1580
vn -0.0000 0.2163 0.9763
vn -0.0000 -0.7829 -0.6221
vn 0.9909 0.0980 0.0921
vn -0.9909 0.0980 0.0921
vn -0.0000 0.7701 0.6379
vn -0.0000 -0.9714 -0.2376
vn 0.9982 0.0556 0.0209
vn -0.9982 0.0556 0.0209
vn -0.0000 0.9681 0.2507
vn -0.0000 -0.9980 -0.0633
vn 0.9997 0.0225 0.0026
vn -0.9997 0.0225 0.0026
vn -0.0000 0.9978 0.0656
vn -0.0000 -0.9999 -0.0139
vn 1.0000 0.0064 0.0004
vn -1.0000 0.0064 0.0004
vn -0.0000 0.9999 0.0145
vn -0.0000 0.9754 0.2206
vn -0.0000 0.9202 0.3914
vn 0.9968 0.0751 0.0286
vn 0.9947 0.1008 0.0195
vn -0.9947 0.1008 0.0195
vn -0.9968 0.0751 0.0286
vn -0.0000 -0.9738 -0.2274
vn -0.0000 -0.9176 -0.3976
vn -0.0000 0.7612 0.6485
vn 0.9985 0.0432 0.0343
vn -0.9985 0.0432 0.0343
vn -0.0000 -0.7585 -0.6516
vn -0.0000 0.5998 0.8002
vn 0.9991 0.0245 0.0352
vn -0.9991 0.0245 0.0352
vn -0.0000 -0.6023 -0.7982
vn -0.0000 0.3565 0.9343
vn 0.9967 0.0263 0.0770
vn -0.9967 0.0263 0.0770
vn -0.0000 -0.3624 -0.9320
vn -0.0000 -0.0837 0.9965
vn 0.9929 -0.0101 0.1189
vn -0.9929 -0.0101 0.1189
vn -0.0000 0.0834 -0.9965
vn -0.0000 -0.5251 0.8511
vn 0.9960 -0.0461 0.0770
vn -0.9960 -0.0461 0.0770
vn -0.0000 0.5273 -0.8497
vn -0.0000 -0.7836 0.6213
vn 0.9979 -0.0508 0.0414
vn -0.9979 -0.0508 0.0414
vn -0.0000 0.7847 -0.6199
vn -0.0000 -0.8480 0.5301
vn 0.9999 0.0134 -0.0097
vn -0.9999 0.0134 -0.0097
vn -0.0000 0.8468 -0.5319
vn -0.0000 -0.6871 0.7266
vn 0.9953 0.0657 -0.0709
vn -0.9953 0.0657 -0.0709
vn -0.0000 0.6858 -0.7278
vn -0.0000 -0.3731 0.9278
vn 0.9976 0.0270 -0.0645
vn -0.9976 0.0270 -0.0645
vn -0.0000 0.3748 -0.9271
vn -0.0000 -0.1396 0.9902
vn 0.9992 0.0058 -0.0385
vn -0.9992 0.0058 -0.0385
vn -0.0000 0.1404 -0.9901
vn -0.0000 -0.0536 0.9986
vn 0.9997 0.0014 -0.0242
vn -0.9997 0.0014 -0.0242
vn -0.0000 0.0539 -0.9985
vt 0.650899 0.823853
vt 0.650868 0.832703
vt 0.646803 0.833241
vt 0.646818 0.823334
vt 0.671711 0.796865
vt 0.663981 0.801311
vt 0.661445 0.798044
vt 0.670105 0.793033
vt 0.705713 0.801612
vt 0.697987 0.797116
vt 0.699578 0.793362
vt 0.708340 0.798264
vt 0.718450 0.833031
vt 0.718519 0.824286
vt 0.722606 0.823759
vt 0.722424 0.833582
vt 0.671356 0.859712
vt 0.679998 0.862073
vt 0.679469 0.866211
vt 0.669761 0.863558
vt 0.653092 0.841269
vt 0.649247 0.842819
vt 0.705368 0.855357
vt 0.711669 0.849087
vt 0.714893 0.851574
vt 0.707911 0.858668
vt 0.657668 0.807595
vt 0.654374 0.805100
vt 0.689346 0.794683
vt 0.689908 0.790548
vt 0.716284 0.815794
vt 0.720028 0.814251
vt 0.688967 0.862100
vt 0.689529 0.866223
vt 0.657385 0.848942
vt 0.654115 0.851423
vt 0.653223 0.815288
vt 0.649411 0.813733
vt 0.680371 0.794604
vt 0.679825 0.790475
vt 0.711940 0.808034
vt 0.715250 0.805544
vt 0.716122 0.841484
vt 0.719909 0.843071
vt 0.697624 0.859806
vt 0.699236 0.863644
vt 0.663660 0.855184
vt 0.661176 0.858426
vt 0.657029 0.792344
vt 0.667292 0.786296
vt 0.656551 0.864306
vt 0.648550 0.855570
vt 0.729417 0.822971
vt 0.729428 0.834518
vt 0.678869 0.783255
vt 0.642702 0.845502
vt 0.726419 0.845728
vt 0.690908 0.783231
vt 0.639761 0.834176
vt 0.720651 0.855945
vt 0.712314 0.864319
vt 0.702056 0.870370
vt 0.702562 0.786388
vt 0.639673 0.822412
vt 0.690502 0.873418
vt 0.712697 0.792788
vt 0.642776 0.811019
vt 0.678515 0.873465
vt 0.721029 0.801223
vt 0.648605 0.800710
vt 0.666918 0.870336
vt 0.726895 0.811522
vt 0.241997 0.130803
vt 0.242548 0.141699
vt 0.235594 0.141946
vt 0.234895 0.131295
vt 0.240996 0.119557
vt 0.233746 0.120416
vt 0.230433 0.218549
vt 0.226441 0.229295
vt 0.219560 0.226481
vt 0.223692 0.216142
vt 0.205328 0.026371
vt 0.212603 0.037795
vt 0.205258 0.042128
vt 0.198159 0.031272
vt 0.239263 0.108034
vt 0.231796 0.109375
vt 0.233931 0.207959
vt 0.226993 0.205847
vt 0.197304 0.015446
vt 0.190264 0.020616
vt 0.236846 0.096187
vt 0.229207 0.098136
vt 0.236891 0.197234
vt 0.229921 0.195547
vt 0.201899 0.271384
vt 0.194182 0.280570
vt 0.188263 0.275598
vt 0.195730 0.266612
vt 0.233409 0.084325
vt 0.225981 0.086818
vt 0.239434 0.186300
vt 0.232360 0.184985
vt 0.209178 0.261520
vt 0.202669 0.257197
vt 0.229256 0.072736
vt 0.221904 0.075565
vt 0.241321 0.175049
vt 0.234195 0.174197
vt 0.215808 0.251039
vt 0.209015 0.247136
vt 0.224579 0.061063
vt 0.217151 0.064305
vt 0.242321 0.163828
vt 0.235153 0.163398
vt 0.221624 0.240199
vt 0.214732 0.236836
vt 0.219010 0.049376
vt 0.211584 0.053170
vt 0.242794 0.152670
vt 0.235769 0.152646
vt 0.665287 0.781483
vt 0.678159 0.777928
vt 0.644326 0.858591
vt 0.638018 0.847415
vt 0.734401 0.835181
vt 0.731232 0.847683
vt 0.691677 0.777935
vt 0.634577 0.834867
vt 0.724746 0.859045
vt 0.704726 0.781545
vt 0.634577 0.821748
vt 0.715565 0.868494
vt 0.704065 0.875175
vt 0.691216 0.878727
vt 0.716054 0.788703
vt 0.637894 0.809015
vt 0.677768 0.878731
vt 0.725247 0.798126
vt 0.644494 0.797571
vt 0.664808 0.875212
vt 0.731744 0.809691
vt 0.653781 0.788144
vt 0.653233 0.868369
vt 0.734533 0.822475
vt 0.223832 0.087507
vt 0.219744 0.076404
vt 0.230326 0.184575
vt 0.232059 0.173914
vt 0.200816 0.255932
vt 0.206987 0.245933
vt 0.215016 0.065276
vt 0.233179 0.163251
vt 0.233645 0.152603
vt 0.233638 0.142018
vt 0.212765 0.235834
vt 0.209464 0.054295
vt 0.232838 0.131468
vt 0.217585 0.225630
vt 0.203165 0.043402
vt 0.231661 0.120702
vt 0.221721 0.215429
vt 0.196082 0.032712
vt 0.229662 0.109803
vt 0.225120 0.205275
vt 0.188397 0.022435
vt 0.227059 0.098684
vt 0.227927 0.195032
vt 0.186817 0.274022
vt 0.194014 0.265271
vt 0.142411 0.885636
vt 0.148602 0.874860
vt 0.178155 0.897516
vt 0.176804 0.899870
vt 0.215167 0.865793
vt 0.224033 0.874553
vt 0.194661 0.897538
vt 0.192751 0.895613
vt 0.192608 0.950942
vt 0.180162 0.950942
vt 0.185076 0.914060
vt 0.187780 0.914022
vt 0.215323 0.941528
vt 0.204612 0.947715
vt 0.190390 0.913350
vt 0.192741 0.912017
vt 0.139230 0.897641
vt 0.176098 0.902474
vt 0.204354 0.859648
vt 0.190404 0.894243
vt 0.224084 0.932800
vt 0.194655 0.910115
vt 0.139246 0.909983
vt 0.176099 0.905180
vt 0.192346 0.856521
vt 0.187780 0.893524
vt 0.230334 0.922044
vt 0.195998 0.907786
vt 0.142421 0.921903
vt 0.176812 0.907792
vt 0.179972 0.856605
vt 0.185056 0.893505
vt 0.233599 0.909961
vt 0.196680 0.905195
vt 0.148584 0.932645
vt 0.178179 0.910123
vt 0.168029 0.859858
vt 0.182436 0.894251
vt 0.233600 0.897417
vt 0.196692 0.902500
vt 0.157346 0.941460
vt 0.180109 0.912011
vt 0.157336 0.866094
vt 0.180075 0.895583
vt 0.230328 0.885338
vt 0.196004 0.899888
vt 0.168130 0.947720
vt 0.182463 0.913330
vt 0.216840 0.182106
vt 0.218359 0.172150
vt 0.209534 0.092550
vt 0.205546 0.082279
vt 0.182056 0.256323
vt 0.188361 0.247449
vt 0.214850 0.191710
vt 0.212972 0.102813
vt 0.175273 0.265050
vt 0.212138 0.201025
vt 0.215746 0.112894
vt 0.182576 0.042016
vt 0.175273 0.032095
vt 0.208736 0.210268
vt 0.217784 0.122947
vt 0.189246 0.051902
vt 0.204585 0.219534
vt 0.219260 0.132774
vt 0.195314 0.061964
vt 0.199719 0.228894
vt 0.219926 0.142463
vt 0.219482 0.162227
vt 0.219930 0.152327
vt 0.200773 0.072169
vt 0.194305 0.238289
vt 0.280304 0.379431
vt 0.337324 0.378554
vt 0.334287 0.382236
vt 0.284230 0.382163
vt 0.274366 0.282070
vt 0.273685 0.241641
vt 0.279396 0.246519
vt 0.279311 0.279091
vt 0.276242 0.282010
vt 0.336745 0.411334
vt 0.332790 0.408597
vt 0.336326 0.278176
vt 0.339718 0.281468
vt 0.616644 0.343296
vt 0.624487 0.343296
vt 0.624487 0.378785
vt 0.622367 0.380904
vt 0.616644 0.380904
vt 0.619864 0.373129
vt 0.621316 0.362100
vt 0.619864 0.351070
vt 0.540761 0.380904
vt 0.535038 0.380904
vt 0.532918 0.378785
vt 0.532918 0.343296
vt 0.540761 0.343296
vt 0.537541 0.351070
vt 0.536089 0.362100
vt 0.537541 0.373129
vt 0.276641 0.290643
vt 0.274434 0.290660
vt 0.274390 0.284866
vt 0.341660 0.284362
vt 0.342322 0.372758
vt 0.275053 0.373262
vt 0.275009 0.367468
vt 0.277217 0.367452
vt 0.281082 0.361985
vt 0.289573 0.347987
vt 0.293321 0.339914
vt 0.295029 0.334012
vt 0.295508 0.328908
vt 0.294952 0.323812
vt 0.293156 0.317936
vt 0.289288 0.309920
vt 0.280588 0.296051
vt 0.535038 0.239229
vt 0.622368 0.239229
vt 0.624487 0.241348
vt 0.624487 0.276837
vt 0.532919 0.276837
vt 0.532919 0.241348
vt 0.336653 0.245119
vt 0.342838 0.239229
vt 0.342341 0.375575
vt 0.342806 0.417012
vt 0.340446 0.375624
vt 0.276968 0.376148
vt 0.275029 0.376079
vt 0.279502 0.412217
vt 0.273685 0.417302
vt 0.333622 0.248848
vt 0.332319 0.275447
vt 0.282278 0.275425
vt 0.283380 0.249215
vt 0.282567 0.408520
vt 0.341676 0.281525
vt 0.540761 0.341115
vt 0.616644 0.341115
vt 0.611272 0.337256
vt 0.597507 0.328764
vt 0.589559 0.325002
vt 0.583741 0.323271
vt 0.578703 0.322759
vt 0.573664 0.323271
vt 0.567846 0.325002
vt 0.559898 0.328764
vt 0.546133 0.337256
vt 0.538838 0.205901
vt 0.538838 0.182094
vt 0.542534 0.182094
vt 0.542534 0.205901
vt 0.546230 0.182094
vt 0.546230 0.205901
vt 0.549927 0.182094
vt 0.549927 0.205901
vt 0.636591 0.183942
vt 0.636591 0.187638
vt 0.633390 0.189486
vt 0.630189 0.187638
vt 0.630189 0.183942
vt 0.633390 0.182094
vt 0.553623 0.182094
vt 0.553623 0.205901
vt 0.427617 0.591940
vt 0.427617 0.595636
vt 0.424416 0.597484
vt 0.421215 0.595636
vt 0.421215 0.591940
vt 0.424416 0.590092
vt 0.599298 0.205901
vt 0.595602 0.205901
vt 0.595602 0.182094
vt 0.599298 0.182094
vt 0.591906 0.205901
vt 0.591906 0.182094
vt 0.588210 0.205901
vt 0.588210 0.182094
vt 0.584514 0.205901
vt 0.584514 0.182094
vt 0.658579 0.410689
vt 0.655378 0.408841
vt 0.655378 0.405145
vt 0.658579 0.403296
vt 0.661780 0.405145
vt 0.661780 0.408841
vt 0.667482 0.183942
vt 0.670683 0.182094
vt 0.673884 0.183942
vt 0.673884 0.187638
vt 0.670683 0.189486
vt 0.667482 0.187638
vt 0.598184 0.801979
vt 0.599903 0.806272
vt 0.597144 0.806728
vt 0.596039 0.803525
vt 0.591155 0.803525
vt 0.590050 0.806728
vt 0.587291 0.806272
vt 0.589011 0.801979
vt 0.593597 0.804741
vt 0.593597 0.807162
vt 0.599741 0.810411
vt 0.596993 0.810063
vt 0.590201 0.810063
vt 0.587454 0.810411
vt 0.593597 0.809731
vt 0.599052 0.814259
vt 0.596481 0.813819
vt 0.590713 0.813819
vt 0.588142 0.814259
vt 0.593597 0.813535
vt 0.598465 0.817350
vt 0.596022 0.817059
vt 0.591172 0.817059
vt 0.588730 0.817350
vt 0.593597 0.816945
vt 0.598135 0.822147
vt 0.595754 0.822079
vt 0.591440 0.822079
vt 0.589059 0.822147
vt 0.593597 0.822077
vt 0.598292 0.826782
vt 0.595810 0.826794
vt 0.591384 0.826794
vt 0.588902 0.826782
vt 0.593597 0.826815
vt 0.598462 0.831532
vt 0.595858 0.831466
vt 0.591336 0.831466
vt 0.588733 0.831532
vt 0.593597 0.831449
vt 0.598017 0.836208
vt 0.595584 0.835962
vt 0.591610 0.835962
vt 0.589177 0.836208
vt 0.593597 0.835845
vt 0.597804 0.838209
vt 0.595458 0.838133
vt 0.591736 0.838133
vt 0.589390 0.838209
vt 0.593597 0.838086
vt 0.597720 0.840075
vt 0.595444 0.840111
vt 0.591750 0.840111
vt 0.589474 0.840075
vt 0.593597 0.840114
vt 0.597715 0.842108
vt 0.595491 0.842169
vt 0.591703 0.842169
vt 0.589479 0.842108
vt 0.593597 0.842190
vt 0.597717 0.844333
vt 0.595531 0.844394
vt 0.591664 0.844394
vt 0.589477 0.844333
vt 0.593597 0.844426
vt 0.597830 0.846845
vt 0.595599 0.846907
vt 0.591595 0.846907
vt 0.589364 0.846845
vt 0.593597 0.846926
vt 0.597866 0.849436
vt 0.595649 0.849504
vt 0.591545 0.849504
vt 0.589328 0.849436
vt 0.593597 0.849525
vt 0.597947 0.852173
vt 0.595721 0.852274
vt 0.591473 0.852274
vt 0.589248 0.852173
vt 0.593597 0.852312
vt 0.598126 0.855211
vt 0.595851 0.855289
vt 0.591343 0.855289
vt 0.589068 0.855211
vt 0.593597 0.855331
vt 0.598323 0.864794
vt 0.596000 0.864773
vt 0.591194 0.864773
vt 0.588871 0.864794
vt 0.593597 0.864762
vt 0.598042 0.871107
vt 0.595799 0.870911
vt 0.591395 0.870911
vt 0.589152 0.871107
vt 0.593597 0.870798
vt 0.597504 0.874915
vt 0.595375 0.874579
vt 0.591819 0.874579
vt 0.589690 0.874915
vt 0.593597 0.874466
vt 0.597215 0.877219
vt 0.595132 0.876988
vt 0.592062 0.876988
vt 0.589980 0.877219
vt 0.593597 0.876934
vt 0.597121 0.878572
vt 0.595083 0.878744
vt 0.592111 0.878744
vt 0.590073 0.878572
vt 0.593597 0.878776
vt 0.597312 0.880542
vt 0.595289 0.880784
vt 0.591906 0.880784
vt 0.589882 0.880542
vt 0.593597 0.880875
vt 0.597545 0.883121
vt 0.595504 0.883309
vt 0.591690 0.883309
vt 0.589649 0.883121
vt 0.593597 0.883389
vt 0.597771 0.885689
vt 0.595690 0.885893
vt 0.591504 0.885893
vt 0.589423 0.885689
vt 0.593597 0.886020
vt 0.912236 0.695014
vt 0.912236 0.692129
vt 0.914441 0.691962
vt 0.914874 0.694364
vt 0.909599 0.694364
vt 0.910032 0.691962
vt 0.907101 0.693328
vt 0.907542 0.691593
vt 0.916931 0.691593
vt 0.917372 0.693328
vt 0.912236 0.689705
vt 0.914323 0.689656
vt 0.910150 0.689656
vt 0.907744 0.689540
vt 0.916729 0.689540
vt 0.912236 0.687385
vt 0.914283 0.687366
vt 0.910190 0.687366
vt 0.907861 0.687306
vt 0.916612 0.687306
vt 0.912236 0.685106
vt 0.914283 0.685186
vt 0.910189 0.685186
vt 0.907873 0.685285
vt 0.916599 0.685285
vt 0.912236 0.677549
vt 0.914449 0.677548
vt 0.910023 0.677548
vt 0.907698 0.677549
vt 0.916775 0.677549
vt 0.912236 0.670218
vt 0.914366 0.670203
vt 0.910107 0.670203
vt 0.907858 0.670200
vt 0.916615 0.670200
vt 0.912236 0.662449
vt 0.914318 0.662445
vt 0.910155 0.662445
vt 0.907952 0.662472
vt 0.916521 0.662472
vt 0.912236 0.653887
vt 0.914514 0.653938
vt 0.909959 0.653938
vt 0.907665 0.654046
vt 0.916808 0.654046
vt 0.912236 0.647511
vt 0.914849 0.647534
vt 0.909624 0.647534
vt 0.907215 0.647572
vt 0.917258 0.647572
vt 0.912236 0.639664
vt 0.914647 0.639601
vt 0.909826 0.639601
vt 0.907482 0.639522
vt 0.916991 0.639522
vt 0.912236 0.628979
vt 0.914467 0.628954
vt 0.910006 0.628954
vt 0.907767 0.628913
vt 0.916706 0.628913
vt 0.912236 0.614454
vt 0.914351 0.614365
vt 0.910122 0.614365
vt 0.907935 0.614258
vt 0.916538 0.614258
s 1
f 10/1/1 9/2/1 33/3/1 34/4/1
f 14/5/1 13/6/1 37/7/1 38/8/1
f 18/9/1 17/10/1 41/11/1 42/12/1
f 22/13/1 21/14/1 45/15/1 46/16/1
f 5/17/1 4/18/1 28/19/1 29/20/1
f 9/2/1 8/21/1 32/22/1 33/3/1
f 1/23/1 24/24/1 48/25/1 25/26/1
f 13/6/1 12/27/1 36/28/1 37/7/1
f 17/10/1 16/29/1 40/30/1 41/11/1
f 21/14/1 20/31/1 44/32/1 45/15/1
f 4/18/1 3/33/1 27/34/1 28/19/1
f 8/21/1 7/35/1 31/36/1 32/22/1
f 12/27/1 11/37/1 35/38/1 36/28/1
f 16/29/1 15/39/1 39/40/1 40/30/1
f 20/31/1 19/41/1 43/42/1 44/32/1
f 24/24/1 23/43/1 47/44/1 48/25/1
f 3/33/1 2/45/1 26/46/1 27/34/1
f 7/35/1 6/47/1 30/48/1 31/36/1
f 11/37/1 10/1/1 34/4/1 35/38/1
f 15/39/1 14/5/1 38/8/1 39/40/1
f 19/41/1 18/9/1 42/12/1 43/42/1
f 2/45/1 1/23/1 25/26/1 26/46/1
f 23/43/1 22/13/1 46/16/1 47/44/1
f 6/47/1 5/17/1 29/20/1 30/48/1
f 38/8/2 37/7/3 61/49/3 62/50/2
f 31/36/4 30/48/5 54/51/5 55/52/4
f 46/16/6 45/15/7 69/53/7 70/54/6
f 39/40/8 38/8/2 62/50/2 63/55/8
f 32/22/9 31/36/4 55/52/4 56/56/9
f 47/44/10 46/16/6 70/54/6 71/57/10
f 40/30/11 39/40/8 63/55/8 64/58/11
f 33/3/12 32/22/9 56/56/9 57/59/12
f 48/25/13 47/44/10 71/57/10 72/60/13
f 26/46/14 25/26/15 49/61/15 50/62/14
f 41/11/16 40/30/11 64/58/11 65/63/16
f 34/4/17 33/3/12 57/59/12 58/64/17
f 25/26/15 48/25/13 72/60/13 49/61/15
f 27/34/18 26/46/14 50/62/14 51/65/18
f 42/12/19 41/11/16 65/63/16 66/66/19
f 35/38/20 34/4/17 58/64/17 59/67/20
f 28/19/21 27/34/18 51/65/18 52/68/21
f 43/42/22 42/12/19 66/66/19 67/69/22
f 36/28/23 35/38/20 59/67/20 60/70/23
f 29/20/24 28/19/21 52/68/21 53/71/24
f 44/32/25 43/42/22 67/69/22 68/72/25
f 37/7/3 36/28/23 60/70/23 61/49/3
f 30/48/5 29/20/24 53/71/24 54/51/5
f 45/15/7 44/32/25 68/72/25 69/53/7
f 99/73/8 98/74/2 74/75/2 75/76/8
f 100/77/11 99/73/8 75/76/8 76/78/11
f 115/79/4 114/80/5 90/81/5 91/82/4
f 108/83/13 107/84/10 83/85/10 84/86/13
f 101/87/16 100/77/11 76/78/11 77/88/16
f 116/89/9 115/79/4 91/82/4 92/90/9
f 109/91/15 108/83/13 84/86/13 85/92/15
f 102/93/19 101/87/16 77/88/16 78/94/19
f 117/95/12 116/89/9 92/90/9 93/96/12
f 110/97/14 109/98/15 85/99/15 86/100/14
f 103/101/22 102/93/19 78/94/19 79/102/22
f 118/103/17 117/95/12 93/96/12 94/104/17
f 111/105/18 110/97/14 86/100/14 87/106/18
f 104/107/25 103/101/22 79/102/22 80/108/25
f 119/109/20 118/103/17 94/104/17 95/110/20
f 112/111/21 111/105/18 87/106/18 88/112/21
f 105/113/7 104/107/25 80/108/25 81/114/7
f 120/115/23 119/109/20 95/110/20 96/116/23
f 113/117/24 112/111/21 88/112/21 89/118/24
f 106/119/6 105/113/7 81/114/7 82/120/6
f 97/121/3 120/115/23 96/116/23 73/122/3
f 114/80/5 113/117/24 89/118/24 90/81/5
f 107/84/10 106/119/6 82/120/6 83/85/10
f 110/123/1 111/124/1 63/55/1 62/50/1
f 103/125/1 104/126/1 56/56/1 55/52/1
f 118/127/1 119/128/1 71/57/1 70/54/1
f 111/124/1 112/129/1 64/58/1 63/55/1
f 104/126/1 105/130/1 57/59/1 56/56/1
f 119/128/1 120/131/1 72/60/1 71/57/1
f 112/129/1 113/132/1 65/63/1 64/58/1
f 105/130/1 106/133/1 58/64/1 57/59/1
f 120/131/1 97/134/1 49/61/1 72/60/1
f 98/135/1 99/136/1 51/65/1 50/62/1
f 113/132/1 114/137/1 66/66/1 65/63/1
f 106/133/1 107/138/1 59/67/1 58/64/1
f 99/136/1 100/139/1 52/68/1 51/65/1
f 114/137/1 115/140/1 67/69/1 66/66/1
f 107/138/1 108/141/1 60/70/1 59/67/1
f 100/139/1 101/142/1 53/71/1 52/68/1
f 115/140/1 116/143/1 68/72/1 67/69/1
f 108/141/1 109/144/1 61/49/1 60/70/1
f 101/142/1 102/145/1 54/51/1 53/71/1
f 116/143/1 117/146/1 69/53/1 68/72/1
f 109/144/1 110/123/1 62/50/1 61/49/1
f 102/145/1 103/125/1 55/52/1 54/51/1
f 117/146/1 118/127/1 70/54/1 69/53/1
f 98/74/2 97/121/3 73/122/3 74/75/2
f 80/108/26 79/102/26 127/147/26 128/148/26
f 95/110/26 94/104/26 142/149/26 143/150/26
f 88/112/26 87/106/26 135/151/26 136/152/26
f 81/114/26 80/108/26 128/148/26 129/153/26
f 96/116/26 95/110/26 143/150/26 144/154/26
f 74/75/26 73/122/26 121/155/26 122/156/26
f 89/118/26 88/112/26 136/152/26 137/157/26
f 82/120/26 81/114/26 129/153/26 130/158/26
f 73/122/26 96/116/26 144/154/26 121/155/26
f 75/76/26 74/75/26 122/156/26 123/159/26
f 90/81/26 89/118/26 137/157/26 138/160/26
f 83/85/26 82/120/26 130/158/26 131/161/26
f 76/78/26 75/76/26 123/159/26 124/162/26
f 91/82/26 90/81/26 138/160/26 139/163/26
f 84/86/26 83/85/26 131/161/26 132/164/26
f 77/88/26 76/78/26 124/162/26 125/165/26
f 92/90/26 91/82/26 139/163/26 140/166/26
f 85/92/26 84/86/26 132/164/26 133/167/26
f 78/94/26 77/88/26 125/165/26 126/168/26
f 93/96/26 92/90/26 140/166/26 141/169/26
f 86/100/26 85/99/26 133/170/26 134/171/26
f 79/102/26 78/94/26 126/168/26 127/147/26
f 94/104/26 93/96/26 141/169/26 142/149/26
f 87/106/26 86/100/26 134/171/26 135/151/26
f 169/172/27 170/173/28 159/174/28 160/175/27
f 171/176/29 172/177/30 152/178/30 153/179/29
f 173/180/31 174/181/32 167/182/32 168/183/31
f 175/184/33 176/185/34 145/186/34 146/187/33
f 177/188/35 169/172/27 160/175/27 161/189/35
f 178/190/36 171/176/29 153/179/29 154/191/36
f 176/185/34 173/180/31 168/183/31 145/186/34
f 179/192/37 175/184/33 146/187/33 147/193/37
f 180/194/38 177/188/35 161/189/35 162/195/38
f 181/196/39 178/190/36 154/191/36 155/197/39
f 182/198/40 179/192/37 147/193/37 148/199/40
f 183/200/41 180/194/38 162/195/38 163/201/41
f 184/202/42 181/196/39 155/197/39 156/203/42
f 185/204/43 182/198/40 148/199/40 149/205/43
f 186/206/44 183/200/41 163/201/41 164/207/44
f 187/208/45 184/202/42 156/203/42 157/209/45
f 188/210/46 185/204/43 149/205/43 150/211/46
f 189/212/47 186/206/44 164/207/44 165/213/47
f 190/214/48 187/208/45 157/209/45 158/215/48
f 191/216/49 188/210/46 150/211/46 151/217/49
f 192/218/50 189/212/47 165/213/47 166/219/50
f 170/173/28 190/214/48 158/215/48 159/174/28
f 172/177/30 191/216/49 151/217/49 152/178/30
f 174/181/32 192/218/50 166/219/50 167/182/32
f 143/150/20 142/149/17 192/220/17 174/221/20
f 128/148/25 127/147/22 191/222/22 172/223/25
f 135/151/18 134/171/14 190/224/14 170/225/18
f 142/149/17 141/169/12 189/226/12 192/220/17
f 127/147/22 126/168/19 188/227/19 191/222/22
f 134/171/14 133/170/15 187/228/15 190/224/14
f 141/169/12 140/166/9 186/229/9 189/226/12
f 126/168/19 125/165/16 185/230/16 188/227/19
f 133/167/15 132/164/13 184/231/13 187/232/15
f 140/166/9 139/163/4 183/233/4 186/229/9
f 125/165/16 124/162/11 182/234/11 185/230/16
f 132/164/13 131/161/10 181/235/10 184/231/13
f 139/163/4 138/160/5 180/236/5 183/233/4
f 124/162/11 123/159/8 179/237/8 182/234/11
f 131/161/10 130/158/6 178/238/6 181/235/10
f 138/160/5 137/157/24 177/239/24 180/236/5
f 123/159/8 122/156/2 175/240/2 179/237/8
f 121/155/3 144/154/23 173/241/23 176/242/3
f 130/158/6 129/153/7 171/243/7 178/238/6
f 137/157/24 136/152/21 169/244/21 177/239/24
f 122/156/2 121/155/3 176/242/3 175/240/2
f 144/154/23 143/150/20 174/221/20 173/241/23
f 129/153/7 128/148/25 172/223/25 171/243/7
f 136/152/21 135/151/18 170/225/18 169/244/21
f 97/134/1 98/135/1 50/62/1 49/61/1
s 0
f 200/245/15 198/246/15 209/247/15 210/248/15
f 216/249/4 202/250/4 195/251/4 196/252/4 215/253/4
f 198/246/1 197/254/1 211/255/1 209/247/1
f 196/252/4 194/256/4 213/257/4 215/253/4
f 227/258/1 202/259/1 216/260/1 222/261/1 225/262/1 234/263/1 232/264/1 233/265/1
f 226/266/1 223/267/1 220/268/1 204/269/1 231/270/1 229/271/1 228/272/1 230/273/1
f 235/274/3 225/275/3 222/276/3 221/277/3 224/278/3 223/279/3 226/280/3 245/281/3 244/282/3 243/283/3 242/284/3 241/285/3 240/286/3 239/287/3 238/288/3 236/289/3 237/290/3
f 224/291/26 221/292/26 214/293/26 201/294/26 203/295/26 218/296/26
f 193/297/4 195/251/4 202/250/4 201/298/4
f 218/299/22 203/300/22 197/254/22 198/246/22 217/301/22
f 198/246/22 200/245/22 219/302/22 217/301/22
f 220/303/22 219/302/22 200/245/22 199/304/22 204/305/22
f 199/304/22 197/254/22 203/300/22 204/305/22
f 205/306/4 206/307/4 208/308/4 207/309/4
f 212/310/22 210/248/22 209/247/22 211/255/22
f 195/251/3 193/297/3 205/306/3 207/309/3
f 197/254/3 199/304/3 212/310/3 211/255/3
f 196/252/26 195/251/26 207/309/26 208/308/26
f 194/256/15 196/252/15 208/308/15 206/307/15
f 193/297/1 194/256/1 206/307/1 205/306/1
f 199/304/26 200/245/26 210/248/26 212/310/26
f 221/277/17 222/276/17 216/249/17 215/253/17 213/257/17 214/311/17
f 217/301/11 224/278/11 218/299/11
f 223/279/11 219/302/11 220/303/11
f 217/301/11 219/302/11 223/279/11 224/278/11
f 214/311/4 213/257/4 194/256/4 193/297/4 201/298/4
f 256/312/15 231/270/15 204/269/15 203/295/15 201/294/15 202/259/15 227/258/15 247/313/15 246/314/15 248/315/15 249/316/15 250/317/15 251/318/15 252/319/15 253/320/15 254/321/15 255/322/15
s 1
f 259/323/7 260/324/7 262/325/22 261/326/22
f 261/326/22 262/325/22 264/327/8 263/328/8
f 263/328/8 264/327/8 266/329/20 265/330/20
f 260/331/1 258/332/1 268/333/1 266/334/1 264/335/1 262/336/1
f 265/330/20 266/329/20 268/337/12 267/338/12
f 257/339/26 259/340/26 261/341/26 263/342/26 265/343/26 267/344/26
f 269/345/24 271/346/4 272/347/4 270/348/24
f 271/346/4 273/349/20 274/350/20 272/347/4
f 273/349/20 275/351/8 276/352/8 274/350/20
f 275/351/8 277/353/16 278/354/16 276/352/8
f 272/355/1 274/356/1 276/357/1 278/358/1 280/359/1 270/360/1
f 269/361/26 279/362/26 277/363/26 275/364/26 273/365/26 271/366/26
f 281/367/51 285/368/52 288/369/53 284/370/54
f 282/371/55 286/372/56 285/373/52 281/374/51
f 283/375/57 287/376/58 286/372/56 282/371/55
f 284/370/54 288/369/53 287/376/58 283/375/57
f 285/368/52 289/377/59 292/378/60 288/369/53
f 286/372/56 290/379/61 289/380/59 285/373/52
f 287/376/58 291/381/62 290/379/61 286/372/56
f 288/369/53 292/378/60 291/381/62 287/376/58
f 289/377/59 293/382/63 296/383/64 292/378/60
f 290/379/61 294/384/65 293/385/63 289/380/59
f 291/381/62 295/386/66 294/384/65 290/379/61
f 292/378/60 296/383/64 295/386/66 291/381/62
f 293/382/63 297/387/67 300/388/68 296/383/64
f 294/384/65 298/389/69 297/390/67 293/385/63
f 295/386/66 299/391/70 298/389/69 294/384/65
f 296/383/64 300/388/68 299/391/70 295/386/66
f 297/387/67 301/392/71 304/393/72 300/388/68
f 298/389/69 302/394/73 301/395/71 297/390/67
f 299/391/70 303/396/74 302/394/73 298/389/69
f 300/388/68 304/393/72 303/396/74 299/391/70
f 301/392/71 305/397/75 308/398/76 304/393/72
f 302/394/73 306/399/77 305/400/75 301/395/71
f 303/396/74 307/401/78 306/399/77 302/394/73
f 304/393/72 308/398/76 307/401/78 303/396/74
f 305/397/75 309/402/79 312/403/80 308/398/76
f 306/399/77 310/404/81 309/405/79 305/400/75
f 307/401/78 311/406/82 310/404/81 306/399/77
f 308/398/76 312/403/80 311/406/82 307/401/78
f 309/402/79 313/407/83 316/408/84 312/403/80
f 310/404/81 314/409/85 313/410/83 309/405/79
f 311/406/82 315/411/86 314/409/85 310/404/81
f 312/403/80 316/408/84 315/411/86 311/406/82
f 313/407/83 317/412/87 320/413/88 316/408/84
f 314/409/85 318/414/89 317/415/87 313/410/83
f 315/411/86 319/416/90 318/414/89 314/409/85
f 316/408/84 320/413/88 319/416/90 315/411/86
f 317/412/87 321/417/91 324/418/92 320/413/88
f 318/414/89 322/419/93 321/420/91 317/415/87
f 319/416/90 323/421/94 322/419/93 318/414/89
f 320/413/88 324/418/92 323/421/94 319/416/90
f 321/417/91 325/422/95 328/423/96 324/418/92
f 322/419/93 326/424/97 325/425/95 321/420/91
f 323/421/94 327/426/98 326/424/97 322/419/93
f 324/418/92 328/423/96 327/426/98 323/421/94
f 325/422/95 329/427/99 332/428/100 328/423/96
f 326/424/97 330/429/101 329/430/99 325/425/95
f 327/426/98 331/431/102 330/429/101 326/424/97
f 328/423/96 332/428/100 331/431/102 327/426/98
f 329/427/99 333/432/103 336/433/104 332/428/100
f 330/429/101 334/434/105 333/435/103 329/430/99
f 331/431/102 335/436/106 334/434/105 330/429/101
f 332/428/100 336/433/104 335/436/106 331/431/102
f 333/432/103 337/437/107 340/438/108 336/433/104
f 334/434/105 338/439/109 337/440/107 333/435/103
f 335/436/106 339/441/110 338/439/109 334/434/105
f 336/433/104 340/438/108 339/441/110 335/436/106
f 337/437/107 341/442/111 344/443/112 340/438/108
f 338/439/109 342/444/113 341/445/111 337/440/107
f 339/441/110 343/446/114 342/444/113 338/439/109
f 340/438/108 344/443/112 343/446/114 339/441/110
f 341/442/111 345/447/115 348/448/116 344/443/112
f 342/444/113 346/449/117 345/450/115 341/445/111
f 343/446/114 347/451/118 346/449/117 342/444/113
f 344/443/112 348/448/116 347/451/118 343/446/114
f 345/447/115 349/452/119 352/453/120 348/448/116
f 346/449/117 350/454/121 349/455/119 345/450/115
f 347/451/118 351/456/122 350/454/121 346/449/117
f 348/448/116 352/453/120 351/456/122 347/451/118
f 349/452/119 353/457/123 356/458/124 352/453/120
f 350/454/121 354/459/125 353/460/123 349/455/119
f 351/456/122 355/461/126 354/459/125 350/454/121
f 352/453/120 356/458/124 355/461/126 351/456/122
f 353/457/123 357/462/127 360/463/128 356/458/124
f 354/459/125 358/464/129 357/465/127 353/460/123
f 355/461/126 359/466/130 358/464/129 354/459/125
f 356/458/124 360/463/128 359/466/130 355/461/126
f 357/462/127 361/467/131 364/468/132 360/463/128
f 358/464/129 362/469/133 361/470/131 357/465/127
f 359/466/130 363/471/134 362/469/133 358/464/129
f 360/463/128 364/468/132 363/471/134 359/466/130
f 361/467/131 365/472/135 368/473/136 364/468/132
f 362/469/133 366/474/137 365/475/135 361/470/131
f 363/471/134 367/476/138 366/474/137 362/469/133
f 364/468/132 368/473/136 367/476/138 363/471/134
f 365/472/135 369/477/139 372/478/140 368/473/136
f 366/474/137 370/479/141 369/480/139 365/475/135
f 367/476/138 371/481/142 370/479/141 366/474/137
f 368/473/136 372/478/140 371/481/142 367/476/138
f 369/477/139 373/482/143 376/483/144 372/478/140
f 370/479/141 374/484/145 373/485/143 369/480/139
f 371/481/142 375/486/146 374/484/145 370/479/141
f 372/478/140 376/483/144 375/486/146 371/481/142
f 373/482/143 377/487/147 380/488/148 376/483/144
f 374/484/145 378/489/149 377/490/147 373/485/143
f 375/486/146 379/491/150 378/489/149 374/484/145
f 376/483/144 380/488/148 379/491/150 375/486/146
f 381/492/151 385/493/152 388/494/153 384/495/154
f 382/496/155 386/497/156 385/493/152 381/492/151
f 383/498/157 387/499/158 386/497/156 382/496/155
f 384/495/154 388/494/153 387/500/158 383/501/157
f 385/493/152 389/502/159 392/503/160 388/494/153
f 386/497/156 390/504/161 389/502/159 385/493/152
f 387/499/158 391/505/162 390/504/161 386/497/156
f 388/494/153 392/503/160 391/506/162 387/500/158
f 389/502/159 393/507/163 396/508/164 392/503/160
f 390/504/161 394/509/165 393/507/163 389/502/159
f 391/505/162 395/510/166 394/509/165 390/504/161
f 392/503/160 396/508/164 395/511/166 391/506/162
f 393/507/163 397/512/167 400/513/168 396/508/164
f 394/509/165 398/514/169 397/512/167 393/507/163
f 395/510/166 399/515/170 398/514/169 394/509/165
f 396/508/164 400/513/168 399/516/170 395/511/166
f 397/512/167 401/517/171 404/518/172 400/513/168
f 398/514/169 402/519/173 401/517/171 397/512/167
f 399/515/170 403/520/174 402/519/173 398/514/169
f 400/513/168 404/518/172 403/521/174 399/516/170
f 401/517/171 405/522/175 408/523/176 404/518/172
f 402/519/173 406/524/177 405/522/175 401/517/171
f 403/520/174 407/525/178 406/524/177 402/519/173
f 404/518/172 408/523/176 407/526/178 403/521/174
f 405/522/175 409/527/179 412/528/180 408/523/176
f 406/524/177 410/529/181 409/527/179 405/522/175
f 407/525/178 411/530/182 410/529/181 406/524/177
f 408/523/176 412/528/180 411/531/182 407/526/178
f 409/527/179 413/532/183 416/533/184 412/528/180
f 410/529/181 414/534/185 413/532/183 409/527/179
f 411/530/182 415/535/186 414/534/185 410/529/181
f 412/528/180 416/533/184 415/536/186 411/531/182
f 413/532/183 417/537/187 420/538/188 416/533/184
f 414/534/185 418/539/189 417/537/187 413/532/183
f 415/535/186 419/540/190 418/539/189 414/534/185
f 416/533/184 420/538/188 419/541/190 415/536/186
f 417/537/187 421/542/191 424/543/192 420/538/188
f 418/539/189 422/544/193 421/542/191 417/537/187
f 419/540/190 423/545/194 422/544/193 418/539/189
f 420/538/188 424/543/192 423/546/194 419/541/190
f 421/542/191 425/547/195 428/548/196 424/543/192
f 422/544/193 426/549/197 425/547/195 421/542/191
f 423/545/194 427/550/198 426/549/197 422/544/193
f 424/543/192 428/548/196 427/551/198 423/546/194
f 425/547/195 429/552/199 432/553/200 428/548/196
f 426/549/197 430/554/201 429/552/199 425/547/195
f 427/550/198 431/555/202 430/554/201 426/549/197
f 428/548/196 432/553/200 431/556/202 427/551/198
