# Blender 4.1.1
# www.blender.org
o Headlight_Oil_Round
v 0.000000 -0.245811 -0.179395
v 0.063621 -0.237436 -0.179395
v 0.122906 -0.212879 -0.179395
v 0.195412 -0.195412 0.179395
v 0.173815 -0.173815 -0.179395
v 0.239330 -0.138177 0.179395
v 0.212879 -0.122906 -0.179395
v 0.266937 -0.071526 0.179395
v 0.237436 -0.063621 -0.179395
v 0.276354 -0.000000 0.179395
v 0.245811 0.000000 -0.179395
v 0.266937 0.071526 0.179395
v 0.237436 0.063621 -0.179395
v 0.239330 0.138177 0.179395
v 0.212879 0.122906 -0.179395
v 0.195412 0.195412 0.179395
v 0.173815 0.173815 -0.179395
v 0.138177 0.239330 0.179395
v 0.122906 0.212879 -0.179395
v 0.071526 0.266937 0.179395
v 0.063621 0.237436 -0.179395
v 0.000000 0.276354 0.179395
v 0.000000 0.245811 -0.179395
v -0.071526 0.266937 0.179395
v -0.063621 0.237436 -0.179395
v -0.138177 0.239330 0.179395
v -0.122906 0.212879 -0.179395
v -0.195412 0.195412 0.179395
v -0.173815 0.173815 -0.179395
v -0.239330 0.138177 0.179395
v -0.212879 0.122906 -0.179395
v -0.266937 0.071526 0.179395
v -0.237436 0.063621 -0.179395
v -0.276354 -0.000000 0.179395
v -0.245811 0.000000 -0.179395
v -0.266937 -0.071526 0.179395
v -0.237436 -0.063621 -0.179395
v -0.239330 -0.138177 0.179395
v -0.212879 -0.122906 -0.179395
v -0.195412 -0.195412 0.179395
v -0.173815 -0.173815 -0.179395
v -0.122906 -0.212879 -0.179395
v -0.063621 -0.237436 -0.179395
v 0.080881 -0.301852 -0.179396
v 0.000000 -0.312500 -0.179396
v 0.156250 -0.270633 -0.179395
v 0.220971 -0.220971 -0.179395
v 0.270633 -0.156250 -0.179395
v 0.301852 -0.080881 -0.179395
v 0.312500 0.000000 -0.179395
v 0.301852 0.080881 -0.179395
v 0.270633 0.156250 -0.179395
v 0.220971 0.220971 -0.179395
v 0.156250 0.270633 -0.179395
v 0.080881 0.301852 -0.179395
v 0.000000 0.312500 -0.179395
v -0.080881 0.301852 -0.179395
v -0.156250 0.270633 -0.179395
v -0.220971 0.220971 -0.179395
v -0.270633 0.156250 -0.179395
v -0.301852 0.080881 -0.179395
v -0.312500 0.000000 -0.179395
v -0.301852 -0.080881 -0.179395
v -0.270633 -0.156250 -0.179395
v -0.220971 -0.220971 -0.179395
v -0.080881 -0.301852 -0.179396
v 0.211229 -0.211229 -0.193493
v 0.149361 -0.258701 -0.193493
v 0.000000 -0.298723 -0.193493
v 0.077315 -0.288544 -0.193493
v 0.251208 -0.448581 -0.179396
v -0.251208 -0.448581 -0.179396
v 0.251208 -0.448581 0.179395
v -0.251208 -0.448581 0.179395
v 0.251208 -0.357067 0.179395
v -0.251208 -0.357067 0.179395
v 0.251208 -0.357067 -0.179396
v 0.168972 -0.322644 -0.179396
v 0.203729 -0.345304 -0.179396
v -0.144085 -0.234796 0.179395
v -0.168972 -0.322644 0.179395
v -0.203729 -0.345304 0.179395
v -0.251208 -0.357067 -0.179396
v -0.156250 -0.270633 -0.179395
v -0.203729 -0.345304 -0.179396
v -0.168972 -0.322644 -0.179396
v 0.144085 -0.234796 0.179395
v 0.203729 -0.345304 0.179395
v 0.168972 -0.322644 0.179395
v 0.258701 -0.149361 -0.193493
v 0.288544 -0.077315 -0.193493
v 0.298723 0.000000 -0.193493
v 0.288544 0.077315 -0.193493
v 0.258701 0.149361 -0.193493
v 0.211229 0.211229 -0.193493
v 0.149361 0.258701 -0.193493
v 0.077315 0.288544 -0.193493
v 0.000000 0.298723 -0.193493
v -0.077315 0.288544 -0.193493
v -0.149361 0.258701 -0.193493
v -0.211229 0.211229 -0.193493
v -0.258701 0.149361 -0.193493
v -0.288544 0.077315 -0.193493
v -0.298723 0.000000 -0.193493
v -0.288544 -0.077315 -0.193493
v -0.258701 -0.149361 -0.193493
v -0.211229 -0.211229 -0.193493
v -0.149361 -0.258701 -0.193493
v -0.077315 -0.288544 -0.193493
v 0.060816 -0.226968 -0.193493
v 0.000000 -0.234974 -0.193493
v 0.117487 -0.203494 -0.193493
v 0.166152 -0.166152 -0.193493
v 0.203494 -0.117487 -0.193493
v 0.226968 -0.060816 -0.193493
v 0.234974 0.000000 -0.193493
v 0.226968 0.060816 -0.193493
v 0.203494 0.117487 -0.193493
v 0.166152 0.166152 -0.193493
v 0.117487 0.203494 -0.193493
v 0.060816 0.226968 -0.193493
v 0.000000 0.234974 -0.193493
v -0.060816 0.226968 -0.193493
v -0.117487 0.203494 -0.193493
v -0.166152 0.166152 -0.193493
v -0.203494 0.117487 -0.193493
v -0.226968 0.060816 -0.193493
v -0.234974 0.000000 -0.193493
v -0.226968 -0.060816 -0.193493
v -0.203494 -0.117487 -0.193493
v -0.166152 -0.166152 -0.193493
v -0.117487 -0.203494 -0.193493
v -0.060816 -0.226968 -0.193493
v 0.109299 0.391252 -0.129565
v 0.109299 0.391252 0.129565
v 0.056577 0.391252 0.129565
v 0.056577 0.391252 -0.129565
v 0.000000 0.391252 0.129565
v 0.000000 0.391252 -0.129565
v -0.056577 0.391252 0.129565
v -0.056577 0.391252 -0.129565
v -0.109299 0.391252 0.129565
v -0.109299 0.391252 -0.129565
v 0.121936 0.397597 -0.139566
v 0.121936 0.397597 0.139566
v -0.121936 0.397597 0.139566
v -0.121936 0.397597 -0.139566
v -0.121936 0.416170 -0.139566
v 0.121936 0.416170 -0.139566
v 0.121936 0.416170 0.139566
v -0.121936 0.416170 0.139566
v 0.000000 0.396637 -0.065255
v 0.024972 0.396637 -0.060287
v 0.046142 0.396637 -0.046142
v 0.060287 0.396637 -0.024972
v 0.065255 0.396637 -0.000000
v 0.060287 0.396637 0.024972
v 0.046142 0.396637 0.046142
v 0.024972 0.396637 0.060287
v 0.000000 0.396637 0.065255
v -0.024972 0.396637 0.060287
v -0.046142 0.396637 0.046142
v -0.060287 0.396637 0.024972
v -0.065255 0.396637 -0.000000
v -0.060287 0.396637 -0.024972
v -0.046142 0.396637 -0.046142
v -0.024972 0.396637 -0.060287
v 0.000000 0.511177 -0.035236
v 0.000000 0.482721 -0.065255
v 0.013484 0.511177 -0.032554
v 0.024972 0.482721 -0.060287
v 0.024915 0.511177 -0.024915
v 0.046142 0.482721 -0.046142
v 0.032554 0.511177 -0.013484
v 0.060287 0.482721 -0.024972
v 0.035236 0.511177 -0.000000
v 0.065255 0.482721 -0.000000
v 0.032554 0.511177 0.013484
v 0.060287 0.482721 0.024972
v 0.024915 0.511177 0.024915
v 0.046142 0.482721 0.046142
v 0.013484 0.511177 0.032554
v 0.024972 0.482721 0.060287
v 0.000000 0.511177 0.035236
v 0.000000 0.482721 0.065255
v -0.013484 0.511177 0.032554
v -0.024972 0.482721 0.060287
v -0.024915 0.511177 0.024915
v -0.046142 0.482721 0.046142
v -0.032554 0.511177 0.013484
v -0.060287 0.482721 0.024972
v -0.035236 0.511177 -0.000000
v -0.065255 0.482721 -0.000000
v -0.032554 0.511177 -0.013484
v -0.060287 0.482721 -0.024972
v -0.024915 0.511177 -0.024915
v -0.046142 0.482721 -0.046142
v -0.013484 0.511177 -0.032554
v -0.024972 0.482721 -0.060287
v 0.103883 0.411520 -0.081365
v -0.103883 0.411520 -0.081365
v 0.103883 0.504636 -0.075171
v -0.103883 0.504636 -0.075171
v 0.103883 0.522686 -0.057533
v -0.103883 0.522686 -0.057533
v 0.103883 0.533247 -0.031137
v -0.103883 0.533247 -0.031137
v 0.103883 0.535224 -0.000000
v -0.103883 0.535224 -0.000000
v 0.103883 0.533247 0.031137
v -0.103883 0.533247 0.031137
v 0.103883 0.522686 0.057533
v -0.103883 0.522686 0.057533
v 0.103883 0.504636 0.075171
v -0.103883 0.504636 0.075171
v 0.103883 0.411520 0.081365
v -0.103883 0.411520 0.081365
v 0.103883 0.413220 -0.076228
v -0.103883 0.413220 -0.076228
v 0.103883 0.502076 -0.070425
v -0.103883 0.502076 -0.070425
v 0.103883 0.517778 -0.053901
v -0.103883 0.517778 -0.053901
v 0.103883 0.527261 -0.029171
v -0.103883 0.527261 -0.029171
v 0.103883 0.528942 -0.000000
v -0.103883 0.528942 -0.000000
v 0.103883 0.527261 0.029171
v -0.103883 0.527261 0.029171
v 0.103883 0.517778 0.053901
v -0.103883 0.517778 0.053901
v 0.103883 0.502076 0.070425
v -0.103883 0.502076 0.070425
v 0.103883 0.413220 0.076228
v -0.103883 0.413220 0.076228
v 0.220971 -0.220971 0.179395
v 0.270633 -0.156250 0.179395
v 0.301852 -0.080881 0.179395
v 0.312500 -0.000000 0.179395
v 0.301852 0.080881 0.179395
v 0.270633 0.156250 0.179395
v 0.220971 0.220971 0.179395
v 0.156250 0.270633 0.179395
v 0.080881 0.301852 0.179396
v 0.000000 0.312500 0.179396
v -0.080881 0.301852 0.179396
v -0.156250 0.270633 0.179395
v -0.220971 0.220971 0.179395
v -0.270633 0.156250 0.179395
v -0.301852 0.080881 0.179395
v -0.312500 -0.000000 0.179395
v -0.301852 -0.080881 0.179395
v -0.270633 -0.156250 0.179395
v -0.220971 -0.220971 0.179395
v 0.156250 -0.270633 0.179395
v -0.156250 -0.270633 0.179395
v 0.195412 -0.195412 0.199655
v 0.239330 -0.138177 0.199655
v 0.266937 -0.071526 0.199655
v 0.276354 -0.000000 0.199655
v 0.266937 0.071526 0.199655
v 0.239330 0.138177 0.199655
v 0.195412 0.195412 0.199655
v 0.138177 0.239330 0.199655
v 0.071526 0.266937 0.199655
v -0.000000 0.276354 0.199655
v -0.071526 0.266937 0.199655
v -0.138177 0.239330 0.199655
v -0.195412 0.195412 0.199655
v -0.239330 0.138177 0.199655
v -0.266937 0.071526 0.199655
v -0.276354 -0.000000 0.199655
v -0.266937 -0.071526 0.199655
v -0.239330 -0.138177 0.199655
v -0.195412 -0.195412 0.199655
v 0.144085 -0.234796 0.199655
v -0.144085 -0.234796 0.199655
vn 0.6088 -0.7934 -0.0000
vn 0.7071 -0.7071 -0.0000
vn 0.8660 -0.5000 -0.0000
vn 0.9659 -0.2588 -0.0000
vn 1.0000 -0.0000 -0.0000
vn 0.9659 0.2588 -0.0000
vn 0.8660 0.5000 -0.0000
vn 0.7071 0.7071 -0.0000
vn 0.0854 0.4779 -0.8743
vn -0.0000 0.5141 -0.8577
vn 0.0703 0.4899 -0.8689
vn -0.9319 0.3627 -0.0000
vn -0.0000 0.5141 0.8577
vn 0.0854 0.4779 0.8743
vn 0.0703 0.4899 0.8689
vn -0.0854 0.4779 -0.8743
vn -0.1113 0.4566 -0.8827
vn -0.0703 0.4899 -0.8689
vn -0.7071 0.7071 -0.0000
vn -0.8660 0.5000 -0.0000
vn -0.9659 0.2588 -0.0000
vn -1.0000 -0.0000 -0.0000
vn -0.9659 -0.2588 -0.0000
vn -0.8660 -0.5000 -0.0000
vn -0.7071 -0.7071 -0.0000
vn -0.6088 -0.7934 -0.0000
vn 0.1851 0.6908 -0.6989
vn 0.3576 0.6194 -0.6989
vn 0.3576 -0.6194 -0.6989
vn 0.1851 -0.6908 -0.6989
vn -0.0000 0.7928 0.6095
vn -0.2052 0.7658 0.6095
vn 0.2052 -0.7658 0.6095
vn 0.3964 -0.6866 0.6095
vn -0.0000 -0.7152 -0.6989
vn -0.1851 -0.6908 -0.6989
vn -0.5057 0.5057 -0.6989
vn -0.3576 0.6194 -0.6989
vn 0.7152 -0.0000 -0.6989
vn 0.6908 -0.1851 -0.6989
vn -0.0000 -0.7928 0.6095
vn -0.2052 -0.7658 0.6095
vn -0.6908 -0.1851 -0.6989
vn -0.7152 -0.0000 -0.6989
vn 0.5057 0.5057 -0.6989
vn -0.3964 -0.6866 0.6095
vn 0.2052 0.7658 0.6095
vn -0.3576 -0.6194 -0.6989
vn -0.1851 0.6908 -0.6989
vn 0.6194 -0.3576 -0.6989
vn -0.5606 -0.5606 0.6095
vn 0.3964 0.6866 0.6095
vn -0.6866 -0.3964 0.6095
vn -0.6908 0.1851 -0.6989
vn 0.6194 0.3576 -0.6989
vn 0.5606 0.5606 0.6095
vn -0.7658 -0.2052 0.6095
vn -0.0000 -0.0000 -1.0000
vn -0.0000 -0.0000 1.0000
vn -0.0000 -1.0000 -0.0000
vn 0.2405 0.9707 -0.0000
vn 0.3989 0.9170 -0.0000
vn 0.8159 0.5782 -0.0000
vn 0.9714 0.2376 -0.0000
vn -0.2405 0.9707 -0.0000
vn -0.3989 0.9170 -0.0000
vn -0.8159 0.5782 -0.0000
vn -0.9714 0.2376 -0.0000
vn -0.6194 -0.3576 -0.6989
vn 0.5606 -0.5606 0.6095
vn -0.3964 0.6866 0.6095
vn 0.6866 -0.3964 0.6095
vn 0.6908 0.1851 -0.6989
vn -0.6194 0.3576 -0.6989
vn -0.5606 0.5606 0.6095
vn 0.7658 -0.2052 0.6095
vn -0.6866 0.3964 0.6095
vn 0.5057 -0.5057 -0.6989
vn -0.0000 0.7152 -0.6989
vn -0.5057 -0.5057 -0.6989
vn 0.7928 -0.0000 0.6095
vn -0.7658 0.2052 0.6095
vn 0.7658 0.2052 0.6095
vn -0.7928 -0.0000 0.6095
vn 0.6866 0.3964 0.6095
vn -0.4487 -0.8937 -0.0000
vn -0.0000 -0.8444 -0.5357
vn 0.9319 0.3627 -0.0000
vn -0.6088 0.7934 -0.0000
vn -0.0854 0.4779 0.8743
vn -0.0703 0.4899 0.8689
vn 0.6088 0.7934 -0.0000
vn 0.1113 0.4566 0.8827
vn 0.1113 0.4566 -0.8827
vn -0.1113 0.4566 0.8827
vn 0.4487 -0.8937 -0.0000
vn -0.0000 -0.8444 0.5357
vn -0.0000 1.0000 -0.0000
vn -0.3827 -0.0000 -0.9239
vn 0.7071 -0.0000 -0.7071
vn 0.9239 -0.0000 -0.3827
vn 0.9239 -0.0000 0.3827
vn 0.7071 -0.0000 0.7071
vn 0.3827 -0.0000 0.9239
vn -0.3827 -0.0000 0.9239
vn -0.7071 -0.0000 0.7071
vn -0.9239 -0.0000 0.3827
vn -0.9239 -0.0000 -0.3827
vn -0.7071 -0.0000 -0.7071
vn 0.3827 -0.0000 -0.9239
vn 0.2633 0.7257 -0.6356
vn -0.0000 0.7257 -0.6880
vn 0.4865 0.7257 -0.4865
vn 0.6356 0.7257 -0.2633
vn 0.6880 0.7257 -0.0000
vn 0.6356 0.7257 0.2633
vn 0.4865 0.7257 0.4865
vn 0.2633 0.7257 0.6356
vn -0.0000 0.7257 0.6880
vn -0.2633 0.7257 0.6356
vn -0.4865 0.7257 0.4865
vn -0.6356 0.7257 0.2633
vn -0.6880 0.7257 -0.0000
vn -0.6356 0.7257 -0.2633
vn -0.4865 0.7257 -0.4865
vn -0.2633 0.7257 -0.6356
vn -0.0000 0.0664 -0.9978
vn -0.0000 0.4079 -0.9130
vn -0.0000 0.8316 -0.5553
vn -0.0000 0.9755 -0.2202
vn -0.0000 0.9755 0.2202
vn -0.0000 0.8316 0.5553
vn -0.0000 0.4079 0.9130
vn -0.0000 0.0664 0.9978
vn -0.0000 -0.0652 0.9979
vn -0.0000 -0.4242 0.9056
vn -0.0000 -0.8456 0.5338
vn -0.0000 -0.9776 0.2103
vn -0.0000 -0.9776 -0.2103
vn -0.0000 -0.8456 -0.5338
vn -0.0000 -0.4242 -0.9056
vn -0.0000 -0.0652 -0.9979
vn -0.3214 -0.9469 -0.0000
vn 0.3214 -0.9469 -0.0000
vn 0.5000 0.8660 -0.0000
vn 0.2588 0.9659 -0.0000
vn -0.2588 0.9659 -0.0000
vn -0.5000 0.8660 -0.0000
vt 0.041345 0.066069
vt 0.118483 0.066069
vt 0.118483 0.083608
vt 0.041345 0.083608
vt 0.118483 0.101147
vt 0.041345 0.101147
vt 0.118483 0.118686
vt 0.041345 0.118686
vt 0.118483 0.136224
vt 0.041345 0.136224
vt 0.118483 0.153763
vt 0.041345 0.153763
vt 0.118483 0.171302
vt 0.041345 0.171302
vt 0.118483 0.188841
vt 0.041345 0.188841
vt 0.138455 0.250044
vt 0.136488 0.267456
vt 0.116459 0.267456
vt 0.116459 0.255291
vt 0.107769 0.300705
vt 0.118483 0.328533
vt 0.041345 0.328533
vt 0.052058 0.300705
vt 0.023339 0.267456
vt 0.021373 0.250044
vt 0.043369 0.255291
vt 0.043369 0.267456
vt 0.138455 0.284869
vt 0.144382 0.301365
vt 0.116458 0.290956
vt 0.116459 0.279622
vt 0.041345 0.346072
vt 0.118483 0.346072
vt 0.118483 0.363611
vt 0.041345 0.363611
vt 0.118483 0.381149
vt 0.041345 0.381149
vt 0.118483 0.398688
vt 0.041345 0.398688
vt 0.118483 0.416227
vt 0.041345 0.416227
vt 0.118483 0.433766
vt 0.041345 0.433766
vt 0.118483 0.451305
vt 0.041345 0.451305
vt 0.118483 0.468844
vt 0.041345 0.468844
vt 0.483489 0.585381
vt 0.473545 0.571434
vt 0.477644 0.569239
vt 0.486873 0.582112
vt 0.669939 0.109313
vt 0.661050 0.124782
vt 0.657612 0.122184
vt 0.665953 0.107687
vt 0.543463 0.109583
vt 0.538838 0.092310
vt 0.543072 0.091751
vt 0.547491 0.107909
vt 0.803634 0.466381
vt 0.810690 0.478764
vt 0.807093 0.480241
vt 0.800472 0.468803
vt 0.711162 0.521057
vt 0.707423 0.507351
vt 0.711314 0.506801
vt 0.714760 0.519539
vt 0.538838 0.074503
vt 0.543352 0.057212
vt 0.547356 0.058840
vt 0.543111 0.075040
vt 0.661012 0.041588
vt 0.669880 0.057089
vt 0.665936 0.058717
vt 0.657562 0.044238
vt 0.597845 0.151122
vt 0.580640 0.146588
vt 0.582262 0.142606
vt 0.598401 0.146886
vt 0.718229 0.533247
vt 0.721283 0.530907
vt 0.728155 0.543237
vt 0.730549 0.540161
vt 0.597618 0.015496
vt 0.615485 0.015445
vt 0.614951 0.019735
vt 0.598205 0.019764
vt 0.648509 0.137492
vt 0.645857 0.134090
vt 0.740411 0.550352
vt 0.741931 0.546743
vt 0.793505 0.456310
vt 0.791137 0.459438
vt 0.552313 0.041648
vt 0.555773 0.044306
vt 0.674485 0.074259
vt 0.670228 0.074838
vt 0.565166 0.137687
vt 0.567768 0.134248
vt 0.754141 0.554031
vt 0.754663 0.550133
vt 0.781226 0.449281
vt 0.779765 0.452882
vt 0.768437 0.553983
vt 0.767893 0.550045
vt 0.632845 0.019988
vt 0.631182 0.024022
vt 0.633031 0.146472
vt 0.631351 0.142486
vt 0.767676 0.445708
vt 0.767184 0.449515
vt 0.782083 0.550134
vt 0.780568 0.546573
vt 0.556662 0.076794
vt 0.556676 0.089954
vt 0.584478 0.465078
vt 0.574420 0.467569
vt 0.567058 0.472369
vt 0.564363 0.483387
vt 0.498167 0.483387
vt 0.495472 0.472369
vt 0.488110 0.467569
vt 0.478052 0.465078
vt 0.478052 0.445692
vt 0.584478 0.445692
vt 0.785022 0.347242
vt 0.765347 0.347242
vt 0.765347 0.239229
vt 0.785022 0.239229
vt 0.787551 0.249436
vt 0.792422 0.256909
vt 0.803604 0.259644
vt 0.796892 0.275847
vt 0.794603 0.293235
vt 0.796892 0.310624
vt 0.803604 0.326827
vt 0.792422 0.329562
vt 0.787551 0.337035
vt 0.041345 0.499792
vt 0.118483 0.499792
vt 0.118483 0.519467
vt 0.041345 0.519467
vt 0.118483 0.035121
vt 0.041345 0.035121
vt 0.041345 0.015445
vt 0.118483 0.015446
vt 0.139230 0.825630
vt 0.139230 0.717617
vt 0.216365 0.717617
vt 0.216365 0.825630
vt 0.118483 0.045637
vt 0.041345 0.045637
vt 0.118483 0.054557
vt 0.041345 0.054557
vt 0.041345 0.489276
vt 0.118483 0.489276
vt 0.041345 0.480356
vt 0.118483 0.480356
vt 0.560114 0.102669
vt 0.566719 0.114092
vt 0.555860 0.122470
vt 0.576058 0.123386
vt 0.587466 0.129950
vt 0.600173 0.133328
vt 0.613344 0.133304
vt 0.615143 0.146880
vt 0.626078 0.129856
vt 0.637478 0.123247
vt 0.646764 0.113910
vt 0.653323 0.102520
vt 0.656713 0.089817
vt 0.670252 0.091540
vt 0.656705 0.076674
vt 0.653301 0.063985
vt 0.646703 0.052581
vt 0.637375 0.043271
vt 0.645710 0.032394
vt 0.625948 0.036689
vt 0.613200 0.033288
vt 0.600048 0.033298
vt 0.587349 0.036711
vt 0.582068 0.024119
vt 0.575969 0.043294
vt 0.567603 0.032447
vt 0.566659 0.052616
vt 0.560055 0.064059
vt 0.580405 0.020155
vt 0.707341 0.493086
vt 0.711260 0.493561
vt 0.814355 0.492505
vt 0.810417 0.493019
vt 0.710962 0.479212
vt 0.714659 0.480709
vt 0.615717 0.151203
vt 0.648317 0.028993
vt 0.814355 0.506727
vt 0.810496 0.506269
vt 0.718006 0.466855
vt 0.721115 0.469175
vt 0.811019 0.520491
vt 0.807343 0.519047
vt 0.552447 0.125123
vt 0.674520 0.092079
vt 0.565007 0.029057
vt 0.727810 0.456648
vt 0.730255 0.459747
vt 0.804094 0.532802
vt 0.800997 0.530500
vt 0.740006 0.449517
vt 0.741515 0.453065
vt 0.794302 0.542980
vt 0.791861 0.539877
vt 0.753577 0.445692
vt 0.754114 0.449591
vt 0.049908 0.297665
vt 0.109919 0.297665
vt 0.113913 0.293672
vt 0.113913 0.241241
vt 0.116458 0.243957
vt 0.045915 0.293672
vt 0.045915 0.241241
vt 0.049908 0.241241
vt 0.049908 0.293672
vt 0.107769 0.234208
vt 0.052058 0.234208
vt 0.041345 0.206380
vt 0.118483 0.206380
vt 0.021373 0.284869
vt 0.043369 0.279622
vt 0.015445 0.233547
vt 0.043370 0.243957
vt 0.144382 0.233547
vt 0.015445 0.301365
vt 0.043370 0.290956
vt 0.109920 0.237248
vt 0.049908 0.237248
vt 0.109919 0.293672
vt 0.109920 0.241241
vt 0.912481 0.494957
vt 0.893974 0.494957
vt 0.893974 0.489483
vt 0.912481 0.489483
vt 0.912481 0.478535
vt 0.893974 0.478535
vt 0.893974 0.473061
vt 0.912481 0.473061
vt 0.893974 0.467588
vt 0.912481 0.467588
vt 0.893974 0.462114
vt 0.912481 0.462114
vt 0.893974 0.456640
vt 0.912481 0.456640
vt 0.893974 0.451166
vt 0.912481 0.451166
vt 0.893974 0.445692
vt 0.912481 0.445692
vt 0.912481 0.533273
vt 0.893974 0.533273
vt 0.893974 0.527800
vt 0.912481 0.527800
vt 0.893974 0.522326
vt 0.912481 0.522326
vt 0.893974 0.516852
vt 0.912481 0.516852
vt 0.893974 0.511378
vt 0.912481 0.511378
vt 0.893974 0.505904
vt 0.912481 0.505904
vt 0.893974 0.500430
vt 0.912481 0.500430
vt 0.893974 0.484009
vt 0.912481 0.484009
vt 0.523951 0.955826
vt 0.521633 0.950105
vt 0.530268 0.948388
vt 0.531310 0.950937
vt 0.528318 0.960203
vt 0.533252 0.952887
vt 0.534013 0.962612
vt 0.535785 0.953958
vt 0.540190 0.962615
vt 0.538534 0.953971
vt 0.545891 0.960301
vt 0.541048 0.952901
vt 0.550333 0.955902
vt 0.542937 0.950951
vt 0.552704 0.950144
vt 0.543985 0.948425
vt 0.552723 0.943902
vt 0.543959 0.945687
vt 0.550284 0.938098
vt 0.542963 0.943144
vt 0.545828 0.933754
vt 0.541053 0.941184
vt 0.540118 0.931487
vt 0.538549 0.940116
vt 0.534060 0.931547
vt 0.535813 0.940104
vt 0.528438 0.933851
vt 0.533301 0.941189
vt 0.524019 0.938208
vt 0.531419 0.943153
vt 0.521633 0.943961
vt 0.530316 0.945647
vt 0.939105 0.941230
vt 0.894437 0.941230
vt 0.894437 0.921167
vt 0.939105 0.921167
vt 0.894437 0.915741
vt 0.939105 0.915741
vt 0.894437 0.909629
vt 0.939105 0.909629
vt 0.894437 0.902921
vt 0.939105 0.902921
vt 0.894437 0.896214
vt 0.939105 0.896214
vt 0.894437 0.890102
vt 0.939105 0.890102
vt 0.894437 0.884676
vt 0.939105 0.884676
vt 0.894437 0.864613
vt 0.939105 0.864613
vt 0.962682 0.015445
vt 0.962682 0.034589
vt 0.918015 0.034589
vt 0.918015 0.015446
vt 0.962682 0.039490
vt 0.918015 0.039490
vt 0.962682 0.045184
vt 0.918015 0.045184
vt 0.962682 0.051466
vt 0.918015 0.051466
vt 0.962682 0.057748
vt 0.918015 0.057748
vt 0.962682 0.063442
vt 0.918015 0.063442
vt 0.962682 0.068342
vt 0.918015 0.068342
vt 0.962682 0.087486
vt 0.918015 0.087486
vt 0.846732 0.407995
vt 0.845677 0.407214
vt 0.847716 0.401897
vt 0.849003 0.402320
vt 0.848077 0.395626
vt 0.849428 0.395626
vt 0.847716 0.389354
vt 0.849003 0.388931
vt 0.845677 0.384037
vt 0.846732 0.383257
vt 0.842301 0.380485
vt 0.842852 0.379465
vt 0.823198 0.379238
vt 0.822833 0.378133
vt 0.842852 0.411786
vt 0.842301 0.410766
vt 0.822833 0.413118
vt 0.823198 0.412014
vt 0.785366 0.411786
vt 0.784815 0.410766
vt 0.788191 0.407214
vt 0.789246 0.407995
vt 0.765347 0.413118
vt 0.765713 0.412014
vt 0.790230 0.401897
vt 0.791517 0.402320
vt 0.790591 0.395626
vt 0.791942 0.395626
vt 0.790230 0.389354
vt 0.791517 0.388931
vt 0.788191 0.384037
vt 0.789246 0.383257
vt 0.784815 0.380485
vt 0.785366 0.379465
vt 0.765713 0.379237
vt 0.765347 0.378133
vt 0.584991 0.509456
vt 0.574283 0.497975
vt 0.578955 0.492223
vt 0.591404 0.504821
vt 0.592363 0.523653
vt 0.599968 0.521029
vt 0.595596 0.539690
vt 0.603686 0.539204
vt 0.594179 0.556311
vt 0.602426 0.558110
vt 0.588252 0.572229
vt 0.595711 0.576330
vt 0.578047 0.586163
vt 0.584164 0.592110
vt 0.564150 0.597011
vt 0.568537 0.604524
vt 0.547754 0.603358
vt 0.549917 0.611880
vt 0.530477 0.605549
vt 0.530369 0.614119
vt 0.513080 0.602992
vt 0.510708 0.611428
vt 0.497015 0.596147
vt 0.492509 0.603481
vt 0.477384 0.591159
vt 0.466080 0.575424
vt 0.467849 0.555465
vt 0.459559 0.557166
vt 0.466687 0.538757
vt 0.458508 0.538112
vt 0.470201 0.522582
vt 0.462698 0.519646
vt 0.478056 0.508883
vt 0.472024 0.504206
vt 0.488475 0.498041
vt 0.483964 0.492414
vt 0.562080 0.490802
vt 0.500403 0.491045
vt 0.560970 0.495124
vt 0.571594 0.501407
vt 0.581483 0.511959
vt 0.588199 0.525130
vt 0.591080 0.539965
vt 0.589703 0.555324
vt 0.584127 0.570020
vt 0.574611 0.582833
vt 0.561662 0.592657
vt 0.546618 0.598937
vt 0.530513 0.600748
vt 0.514330 0.598387
vt 0.499408 0.592053
vt 0.472328 0.554482
vt 0.471246 0.539060
vt 0.474501 0.524156
vt 0.481299 0.511268
vt 0.491009 0.501202
vt 0.501620 0.495103
s 1
f 255/1/1 46/2/1 47/3/2 236/4/2
f 236/4/2 47/3/2 48/5/3 237/6/3
f 237/6/3 48/5/3 49/7/4 238/8/4
f 238/8/4 49/7/4 50/9/5 239/10/5
f 239/10/5 50/9/5 51/11/6 240/12/6
f 240/12/6 51/11/6 52/13/7 241/14/7
f 241/14/7 52/13/7 53/15/8 242/16/8
f 55/17/9 56/18/10 139/19/10 137/20/11
f 143/21/12 58/22/12 247/23/12 142/24/12
f 245/25/13 244/26/14 136/27/15 138/28/13
f 57/29/16 58/30/17 143/31/17 141/32/18
f 248/33/19 59/34/19 60/35/20 249/36/20
f 249/36/20 60/35/20 61/37/21 250/38/21
f 250/38/21 61/37/21 62/39/22 251/40/22
f 251/40/22 62/39/22 63/41/23 252/42/23
f 252/42/23 63/41/23 64/43/24 253/44/24
f 253/44/24 64/43/24 65/45/25 254/46/25
f 254/46/25 65/45/25 84/47/26 256/48/26
f 28/49/19 30/50/20 270/51/20 269/52/19
f 55/53/27 54/54/28 96/55/28 97/56/27
f 46/57/29 44/58/30 70/59/30 68/60/29
f 1/61/31 2/62/32 110/63/32 111/64/31
f 25/65/33 27/66/34 124/67/34 123/68/33
f 45/69/35 66/70/36 109/71/36 69/72/35
f 59/73/37 58/74/38 100/75/38 101/76/37
f 50/77/39 49/78/40 91/79/40 92/80/39
f 23/81/41 25/65/33 123/68/33 122/82/41
f 21/83/42 23/81/41 122/82/41 121/84/42
f 63/85/43 62/86/44 104/87/44 105/88/43
f 54/54/28 53/89/45 95/90/45 96/55/28
f 19/91/46 21/83/42 121/84/42 120/92/46
f 43/93/47 1/61/31 111/64/31 133/94/47
f 44/58/30 45/69/35 69/72/35 70/59/30
f 66/70/36 84/95/48 108/96/48 109/71/36
f 58/74/38 57/97/49 99/98/49 100/75/38
f 49/78/40 48/99/50 90/100/50 91/79/40
f 17/101/51 19/91/46 120/92/46 119/102/51
f 42/103/52 43/93/47 133/94/47 132/104/52
f 15/105/53 17/101/51 119/102/51 118/106/53
f 62/86/44 61/107/54 103/108/54 104/87/44
f 53/89/45 52/109/55 94/110/55 95/90/45
f 41/111/56 42/103/52 132/104/52 131/112/56
f 13/113/57 15/105/53 118/106/53 117/114/57
f 111/115/58 110/116/58 70/59/58 69/72/58
f 75/117/59 88/118/59 89/119/59 255/120/59 256/121/59 81/122/59 82/123/59 76/124/59 74/125/59 73/126/59
f 77/127/58 71/128/58 72/129/58 83/130/58 85/131/58 86/132/58 84/133/58 66/134/58 45/135/58 44/136/58 46/137/58 78/138/58 79/139/58
f 76/140/22 83/141/22 72/142/22 74/143/22
f 77/144/5 75/145/5 73/146/5 71/147/5
f 72/148/60 71/149/60 73/150/60 74/151/60
f 75/145/61 77/144/61 79/152/62 88/153/62
f 88/153/62 79/152/62 78/154/63 89/155/63
f 89/155/63 78/154/63 46/2/64 255/1/64
f 83/141/65 76/140/65 82/156/66 85/157/66
f 85/157/66 82/156/66 81/158/67 86/159/67
f 86/159/67 81/158/67 256/48/68 84/47/68
f 110/116/58 112/160/58 68/60/58 70/59/58
f 112/160/58 113/161/58 67/162/58 68/60/58
f 113/161/58 114/163/58 90/100/58 67/162/58
f 114/163/58 115/164/58 91/79/58 90/100/58
f 115/164/58 116/165/58 92/80/58 91/79/58
f 116/165/58 117/166/58 93/167/58 92/80/58
f 117/166/58 118/168/58 94/110/58 93/167/58
f 118/168/58 119/169/58 95/90/58 94/110/58
f 119/169/58 120/170/58 96/55/58 95/90/58
f 120/170/58 121/171/58 97/56/58 96/55/58
f 121/171/58 122/172/58 98/173/58 97/56/58
f 122/172/58 123/174/58 99/98/58 98/173/58
f 123/174/58 124/175/58 100/75/58 99/98/58
f 124/175/58 125/176/58 101/76/58 100/75/58
f 125/176/58 126/177/58 102/178/58 101/76/58
f 126/177/58 127/179/58 103/108/58 102/178/58
f 127/179/58 128/180/58 104/87/58 103/108/58
f 128/180/58 129/181/58 105/88/58 104/87/58
f 129/181/58 130/182/58 106/183/58 105/88/58
f 130/182/58 131/184/58 107/185/58 106/183/58
f 131/184/58 132/186/58 108/96/58 107/185/58
f 132/186/58 133/187/58 109/71/58 108/96/58
f 133/187/58 111/115/58 69/72/58 109/71/58
f 64/188/69 63/85/43 105/88/43 106/183/69
f 27/66/34 29/189/70 125/190/70 124/67/34
f 2/62/32 3/191/71 112/192/71 110/63/32
f 29/189/70 31/193/72 126/194/72 125/190/70
f 51/195/73 50/77/39 92/80/39 93/167/73
f 60/196/74 59/73/37 101/76/37 102/178/74
f 3/191/71 5/197/75 113/198/75 112/192/71
f 31/193/72 33/199/76 127/200/76 126/194/72
f 5/197/75 7/201/77 114/202/77 113/198/75
f 47/203/78 46/57/29 68/60/29 67/162/78
f 56/204/79 55/53/27 97/56/27 98/173/79
f 65/205/80 64/188/69 106/183/69 107/185/80
f 33/199/76 35/206/81 128/207/81 127/200/76
f 7/201/77 9/208/82 115/209/82 114/202/77
f 35/206/81 37/210/83 129/211/83 128/207/81
f 52/109/55 51/195/73 93/167/73 94/110/55
f 61/107/54 60/196/74 102/178/74 103/108/54
f 9/208/82 11/212/84 116/213/84 115/209/82
f 37/210/83 39/214/85 130/215/85 129/211/83
f 11/212/84 13/113/57 117/114/57 116/213/84
f 48/99/50 47/203/78 67/162/78 90/100/50
f 57/97/49 56/204/79 98/173/79 99/98/49
f 84/95/48 65/205/80 107/185/80 108/96/48
f 39/214/85 41/111/56 131/112/56 130/215/85
f 143/21/86 142/24/86 146/216/86 147/217/86
f 141/32/87 143/31/87 147/218/87 144/219/87 134/220/87 137/20/87 139/19/87
f 146/221/59 145/222/59 150/223/59 151/224/59
f 134/225/88 135/226/88 243/227/88 54/228/88
f 247/23/89 58/22/89 59/34/19 248/33/19
f 246/229/90 245/25/13 138/28/13 140/230/91
f 53/15/8 54/228/92 243/227/92 242/16/8
f 56/18/10 57/29/16 141/32/18 139/19/10
f 244/26/14 243/231/93 135/232/93 136/27/15
f 54/233/94 55/17/9 137/20/11 134/220/94
f 247/234/95 246/229/90 140/230/91 142/235/95
f 135/226/96 134/225/96 144/236/96 145/237/96
f 135/232/97 145/222/97 146/221/97 142/235/97 140/230/97 138/28/97 136/27/97
f 148/238/98 151/224/98 150/223/98 149/239/98
f 147/217/22 146/216/22 151/224/22 148/238/22
f 145/237/5 144/236/5 149/239/5 150/223/5
f 144/219/58 147/218/58 148/238/58 149/239/58
f 167/240/99 199/241/99 169/242/58 152/243/58
f 154/244/100 173/245/100 175/246/101 155/247/101
f 155/247/101 175/246/101 177/248/5 156/249/5
f 156/249/5 177/248/5 179/250/102 157/251/102
f 157/251/102 179/250/102 181/252/103 158/253/103
f 158/253/103 181/252/103 183/254/104 159/255/104
f 159/255/104 183/254/104 185/256/59 160/257/59
f 160/258/59 185/259/59 187/260/105 161/261/105
f 161/261/105 187/260/105 189/262/106 162/263/106
f 162/263/106 189/262/106 191/264/107 163/265/107
f 163/265/107 191/264/107 193/266/22 164/267/22
f 164/267/22 193/266/22 195/268/108 165/269/108
f 165/269/108 195/268/108 197/270/109 166/271/109
f 166/271/109 197/270/109 199/241/99 167/240/99
f 152/243/58 169/242/58 171/272/110 153/273/110
f 153/273/110 171/272/110 173/245/100 154/244/100
f 171/274/111 169/275/112 168/276/112 170/277/111
f 173/278/113 171/274/111 170/277/111 172/279/113
f 175/280/114 173/278/113 172/279/113 174/281/114
f 177/282/115 175/280/114 174/281/114 176/283/115
f 179/284/116 177/282/115 176/283/115 178/285/116
f 181/286/117 179/284/116 178/285/116 180/287/117
f 183/288/118 181/286/117 180/287/117 182/289/118
f 185/290/119 183/288/118 182/289/118 184/291/119
f 187/292/120 185/290/119 184/291/119 186/293/120
f 189/294/121 187/292/120 186/293/120 188/295/121
f 191/296/122 189/294/121 188/295/121 190/297/122
f 193/298/123 191/296/122 190/297/122 192/299/123
f 195/300/124 193/298/123 192/299/123 194/301/124
f 197/302/125 195/300/124 194/301/124 196/303/125
f 199/304/126 197/302/125 196/303/125 198/305/126
f 169/275/112 199/304/126 198/305/126 168/276/112
f 170/277/98 168/276/98 198/305/98 196/303/98 194/301/98 192/299/98 190/297/98 188/295/98 186/293/98 184/291/98 182/289/98 180/287/98 178/285/98 176/283/98 174/281/98 172/279/98
f 200/306/127 201/307/127 203/308/128 202/309/128
f 202/309/128 203/308/128 205/310/129 204/311/129
f 204/311/129 205/310/129 207/312/130 206/313/130
f 206/313/130 207/312/130 209/314/98 208/315/98
f 208/315/98 209/314/98 211/316/131 210/317/131
f 210/317/131 211/316/131 213/318/132 212/319/132
f 212/319/132 213/318/132 215/320/133 214/321/133
f 214/321/133 215/320/133 217/322/134 216/323/134
f 218/324/135 220/325/136 221/326/136 219/327/135
f 220/325/136 222/328/137 223/329/137 221/326/136
f 222/328/137 224/330/138 225/331/138 223/329/137
f 224/330/138 226/332/60 227/333/60 225/331/138
f 226/332/60 228/334/139 229/335/139 227/333/60
f 228/334/139 230/336/140 231/337/140 229/335/139
f 230/336/140 232/338/141 233/339/141 231/337/140
f 232/338/141 234/340/142 235/341/142 233/339/141
f 212/342/5 230/343/5 228/344/5 210/345/5
f 210/345/5 228/344/5 226/346/5 208/347/5
f 208/347/5 226/346/5 224/348/5 206/349/5
f 206/349/5 224/348/5 222/350/5 204/351/5
f 204/351/5 222/350/5 220/352/5 202/353/5
f 202/353/5 220/352/5 218/354/5 200/355/5
f 214/356/5 232/357/5 230/343/5 212/342/5
f 216/358/5 234/359/5 232/357/5 214/356/5
f 203/360/22 221/361/22 223/362/22 205/363/22
f 201/364/22 219/365/22 221/361/22 203/360/22
f 205/363/22 223/362/22 225/366/22 207/367/22
f 207/367/22 225/366/22 227/368/22 209/369/22
f 209/369/22 227/368/22 229/370/22 211/371/22
f 211/371/22 229/370/22 231/372/22 213/373/22
f 213/373/22 231/372/22 233/374/22 215/375/22
f 215/375/22 233/374/22 235/376/22 217/377/22
f 6/378/59 4/379/59 236/380/59 237/381/59
f 8/382/59 6/378/59 237/381/59 238/383/59
f 10/384/59 8/382/59 238/383/59 239/385/59
f 12/386/59 10/384/59 239/385/59 240/387/59
f 14/388/59 12/386/59 240/387/59 241/389/59
f 16/390/59 14/388/59 241/389/59 242/391/59
f 18/392/59 16/390/59 242/391/59 243/393/59
f 20/394/59 18/392/59 243/393/59 244/395/59
f 22/396/59 20/394/59 244/395/59 245/397/59
f 24/398/59 22/396/59 245/397/59 246/399/59
f 26/400/59 24/398/59 246/399/59 247/401/59
f 28/49/59 26/400/59 247/401/59 248/402/59
f 30/50/59 28/49/59 248/402/59 249/403/59
f 32/404/59 30/50/59 249/403/59 250/405/59
f 34/406/59 32/404/59 250/405/59 251/407/59
f 36/408/59 34/406/59 251/407/59 252/409/59
f 38/410/59 36/408/59 252/409/59 253/411/59
f 40/412/59 38/410/59 253/411/59 254/413/59
f 4/379/59 87/414/59 255/120/59 236/380/59
f 80/415/59 40/412/59 254/413/59 256/121/59
f 87/414/59 80/415/59 256/121/59 255/120/59
f 276/416/59 257/417/59 258/418/59 259/419/59 260/420/59 261/421/59 262/422/59 263/423/59 264/424/59 265/425/59 266/426/59 267/427/59 268/428/59 269/52/59 270/51/59 271/429/59 272/430/59 273/431/59 274/432/59 275/433/59 277/434/59
f 14/388/7 16/390/8 263/423/8 262/422/7
f 80/415/143 87/414/144 276/416/144 277/434/143
f 30/50/20 32/404/21 271/429/21 270/51/20
f 16/390/8 18/392/145 264/424/145 263/423/8
f 32/404/21 34/406/22 272/430/22 271/429/21
f 18/392/145 20/394/146 265/425/146 264/424/145
f 4/379/2 6/378/3 258/418/3 257/417/2
f 34/406/22 36/408/23 273/431/23 272/430/22
f 20/394/146 22/396/98 266/426/98 265/425/146
f 6/378/3 8/382/4 259/419/4 258/418/3
f 36/408/23 38/410/24 274/432/24 273/431/23
f 22/396/98 24/398/147 267/427/147 266/426/98
f 8/382/4 10/384/5 260/420/5 259/419/4
f 38/410/24 40/412/25 275/433/25 274/432/24
f 24/398/147 26/400/148 268/428/148 267/427/147
f 10/384/5 12/386/6 261/421/6 260/420/5
f 87/414/144 4/379/2 257/417/2 276/416/144
f 26/400/148 28/49/19 269/52/19 268/428/148
f 12/386/6 14/388/7 262/422/7 261/421/6
f 40/412/25 80/415/143 277/434/143 275/433/25
