# Blender 4.1.1
# www.blender.org
o Headlight_Box_Bracketry
v -0.244881 -0.325102 -0.170710
v -0.244881 -0.325102 -0.188710
v -0.244881 -0.354705 -0.162264
v -0.244881 -0.363047 -0.178215
v -0.244881 -0.382223 -0.139375
v -0.244881 -0.395330 -0.151711
v -0.244881 -0.406120 -0.106519
v -0.244881 -0.421500 -0.115870
v -0.244881 -0.424668 -0.069325
v -0.244881 -0.441300 -0.076209
v -0.244881 -0.436582 -0.033613
v -0.244881 -0.454025 -0.038056
v -0.244881 -0.443109 0.003025
v -0.244881 -0.460873 0.000122
v -0.244881 -0.452696 0.053320
v -0.244881 -0.470446 0.050329
v -0.244881 -0.460891 0.107942
v -0.244881 -0.478365 0.103620
v -0.244881 -0.466486 0.154627
v -0.244881 -0.484474 0.153984
v -0.244881 -0.465672 0.260248
v -0.244881 -0.483672 0.260248
v -0.244881 -0.359653 -0.095871
v -0.244881 -0.354446 -0.086751
v -0.244881 -0.370124 -0.091008
v -0.244881 -0.355976 -0.085387
v -0.244881 -0.373251 -0.081774
v -0.244881 -0.356480 -0.083018
v -0.244881 -0.372609 -0.075289
v -0.244881 -0.355993 -0.078962
v -0.244881 -0.371144 -0.070562
v -0.244881 -0.364064 -0.063469
v -0.244881 -0.354528 -0.059237
v -0.244881 -0.352757 -0.077150
v -0.244881 -0.339839 -0.063678
v -0.244881 -0.350814 -0.077946
v -0.244881 -0.331527 -0.076301
v -0.244881 -0.348641 -0.081881
v -0.244881 -0.330447 -0.092070
v -0.244881 -0.348203 -0.089114
v -0.244881 -0.337066 -0.108009
v -0.244881 -0.351853 -0.097745
v -0.244881 -0.347272 -0.117624
v -0.244881 -0.356858 -0.102389
v -0.244881 -0.359539 -0.122434
v -0.244881 -0.363257 -0.104822
v -0.244881 -0.372467 -0.123069
v -0.244881 -0.370933 -0.105135
v -0.244881 -0.385132 -0.120301
v -0.244881 -0.379294 -0.103275
v -0.244881 -0.397548 -0.114271
v -0.244881 -0.386812 -0.099823
v -0.244881 -0.408037 -0.102802
v -0.244881 -0.392997 -0.092913
v -0.244881 -0.415505 -0.086560
v -0.244881 -0.398576 -0.080444
v -0.244881 -0.420424 -0.068615
v -0.244881 -0.402817 -0.064877
v -0.244881 -0.423090 -0.051134
v -0.244881 -0.405158 -0.049572
v -0.244881 -0.423346 -0.035942
v -0.244881 -0.405492 -0.038233
v -0.244881 -0.416090 -0.010430
v -0.244881 -0.399642 -0.017743
v -0.244881 -0.401791 0.012558
v -0.244881 -0.387108 0.002147
v -0.244881 -0.384895 0.033717
v -0.244881 -0.370726 0.022617
v -0.244881 -0.369137 0.054200
v -0.244881 -0.354043 0.044392
v -0.244881 -0.357755 0.075097
v -0.244881 -0.341104 0.068260
v -0.244881 -0.347861 0.109302
v -0.244881 -0.330134 0.106184
v -0.244881 -0.345983 0.136739
v -0.244881 -0.328043 0.138198
v -0.244881 -0.350674 0.157155
v -0.244881 -0.334235 0.164487
v -0.244881 -0.360462 0.171203
v -0.244881 -0.348141 0.184325
v -0.244881 -0.375007 0.179960
v -0.244881 -0.368054 0.196563
v -0.244881 -0.388930 0.183418
v -0.244881 -0.386699 0.201279
v -0.244881 -0.402897 0.183468
v -0.244881 -0.405253 0.201313
v -0.244881 -0.416483 0.179780
v -0.244881 -0.423482 0.196363
v -0.244881 -0.429723 0.171941
v -0.244881 -0.440695 0.186211
v -0.244881 -0.438450 0.159636
v -0.244881 -0.452773 0.170538
v -0.244881 -0.444546 0.148792
v -0.244881 -0.461595 0.154567
v -0.244881 -0.446187 0.137446
v -0.244881 -0.464183 0.137056
v -0.244881 -0.443946 0.125838
v -0.244881 -0.460915 0.119836
v -0.244881 -0.438029 0.114801
v -0.244881 -0.452535 0.104144
v -0.244881 -0.431363 0.106317
v -0.244881 -0.442238 0.091973
v -0.244881 -0.424207 0.100711
v -0.244881 -0.430007 0.083672
v -0.244881 -0.416541 0.099494
v -0.244881 -0.415846 0.081508
v -0.244881 -0.409635 0.101119
v -0.244881 -0.402253 0.084702
v -0.244881 -0.403398 0.105553
v -0.244881 -0.390634 0.092861
v -0.244881 -0.398188 0.113056
v -0.244881 -0.381944 0.105303
v -0.244881 -0.395198 0.123163
v -0.244881 -0.377258 0.121699
v -0.244881 -0.396058 0.130965
v -0.244881 -0.379191 0.137252
v -0.244881 -0.399515 0.136176
v -0.244881 -0.387731 0.149782
v -0.244881 -0.405460 0.139006
v -0.244881 -0.401723 0.156614
v -0.244881 -0.414670 0.138546
v -0.244881 -0.411572 0.157128
v -0.244881 -0.423952 0.152387
v -0.244881 -0.415964 0.136580
v -0.244881 -0.429423 0.146224
v -0.244881 -0.416998 0.133146
v -0.244881 -0.431671 0.138603
v -0.244881 -0.417309 0.129358
v -0.244881 -0.431009 0.128138
v -0.244881 -0.417032 0.121412
v -0.244881 -0.425392 0.117847
v -0.216055 -0.325102 -0.170710
v -0.216055 -0.325102 -0.188710
v -0.216055 -0.354705 -0.162264
v -0.216055 -0.363047 -0.178215
v -0.216055 -0.382223 -0.139375
v -0.216055 -0.395330 -0.151711
v -0.216055 -0.406120 -0.106519
v -0.216055 -0.421500 -0.115870
v -0.216055 -0.424668 -0.069325
v -0.216055 -0.441300 -0.076209
v -0.216055 -0.436582 -0.033613
v -0.216055 -0.454025 -0.038056
v -0.216055 -0.443109 0.003025
v -0.216055 -0.460873 0.000122
v -0.216055 -0.452696 0.053320
v -0.216055 -0.470446 0.050329
v -0.216055 -0.460891 0.107942
v -0.216055 -0.478365 0.103620
v -0.216055 -0.466486 0.154627
v -0.216055 -0.484474 0.153984
v -0.216055 -0.465672 0.260248
v -0.216055 -0.483672 0.260248
v -0.216055 -0.359653 -0.095871
v -0.216055 -0.354446 -0.086751
v -0.216055 -0.370124 -0.091008
v -0.216055 -0.355976 -0.085387
v -0.216055 -0.373251 -0.081774
v -0.216055 -0.356480 -0.083018
v -0.216055 -0.372609 -0.075289
v -0.216055 -0.355993 -0.078962
v -0.216055 -0.371144 -0.070562
v -0.216055 -0.364064 -0.063469
v -0.216055 -0.354528 -0.059237
v -0.216055 -0.352757 -0.077150
v -0.216055 -0.339839 -0.063678
v -0.216055 -0.350814 -0.077946
v -0.216055 -0.331527 -0.076301
v -0.216055 -0.348641 -0.081881
v -0.216055 -0.330447 -0.092070
v -0.216055 -0.348203 -0.089114
v -0.216055 -0.337066 -0.108009
v -0.216055 -0.351853 -0.097745
v -0.216055 -0.347272 -0.117624
v -0.216055 -0.356858 -0.102389
v -0.216055 -0.359539 -0.122434
v -0.216055 -0.363257 -0.104822
v -0.216055 -0.372467 -0.123069
v -0.216055 -0.370933 -0.105135
v -0.216055 -0.385132 -0.120301
v -0.216055 -0.379294 -0.103275
v -0.216055 -0.397548 -0.114271
v -0.216055 -0.386812 -0.099823
v -0.216055 -0.408037 -0.102802
v -0.216055 -0.392997 -0.092913
v -0.216055 -0.415505 -0.086560
v -0.216055 -0.398576 -0.080444
v -0.216055 -0.420424 -0.068615
v -0.216055 -0.402817 -0.064877
v -0.216055 -0.423090 -0.051134
v -0.216055 -0.405158 -0.049572
v -0.216055 -0.423346 -0.035942
v -0.216055 -0.405492 -0.038233
v -0.216055 -0.416090 -0.010430
v -0.216055 -0.399642 -0.017743
v -0.216055 -0.401791 0.012558
v -0.216055 -0.387108 0.002147
v -0.216055 -0.384895 0.033717
v -0.216055 -0.370726 0.022617
v -0.216055 -0.369137 0.054200
v -0.216055 -0.354043 0.044392
v -0.216055 -0.357755 0.075097
v -0.216055 -0.341104 0.068260
v -0.216055 -0.347861 0.109302
v -0.216055 -0.330134 0.106184
v -0.216055 -0.345983 0.136739
v -0.216055 -0.328043 0.138198
v -0.216055 -0.350674 0.157155
v -0.216055 -0.334235 0.164487
v -0.216055 -0.360462 0.171203
v -0.216055 -0.348141 0.184325
v -0.216055 -0.375007 0.179960
v -0.216055 -0.368054 0.196563
v -0.216055 -0.388930 0.183418
v -0.216055 -0.386699 0.201279
v -0.216055 -0.402897 0.183468
v -0.216055 -0.405253 0.201313
v -0.216055 -0.416483 0.179780
v -0.216055 -0.423482 0.196363
v -0.216055 -0.429723 0.171941
v -0.216055 -0.440695 0.186211
v -0.216055 -0.438450 0.159636
v -0.216055 -0.452773 0.170538
v -0.216055 -0.444546 0.148792
v -0.216055 -0.461595 0.154567
v -0.216055 -0.446187 0.137446
v -0.216055 -0.464183 0.137056
v -0.216055 -0.443946 0.125838
v -0.216055 -0.460915 0.119836
v -0.216055 -0.438029 0.114801
v -0.216055 -0.452535 0.104144
v -0.216055 -0.431363 0.106317
v -0.216055 -0.442238 0.091973
v -0.216055 -0.424207 0.100711
v -0.216055 -0.430007 0.083672
v -0.216055 -0.416541 0.099494
v -0.216055 -0.415846 0.081508
v -0.216055 -0.409635 0.101119
v -0.216055 -0.402253 0.084702
v -0.216055 -0.403398 0.105553
v -0.216055 -0.390634 0.092861
v -0.216055 -0.398188 0.113056
v -0.216055 -0.381944 0.105303
v -0.216055 -0.395198 0.123163
v -0.216055 -0.377258 0.121699
v -0.216055 -0.396058 0.130965
v -0.216055 -0.379191 0.137252
v -0.216055 -0.399515 0.136176
v -0.216055 -0.387731 0.149782
v -0.216055 -0.405460 0.139006
v -0.216055 -0.401723 0.156614
v -0.216055 -0.414670 0.138546
v -0.216055 -0.411572 0.157128
v -0.216055 -0.423952 0.152387
v -0.216055 -0.415964 0.136580
v -0.216055 -0.429423 0.146224
v -0.216055 -0.416998 0.133146
v -0.216055 -0.431671 0.138603
v -0.216055 -0.417309 0.129358
v -0.216055 -0.431009 0.128138
v -0.216055 -0.417032 0.121412
v -0.216055 -0.425392 0.117847
v 0.244881 -0.325102 -0.170710
v 0.244881 -0.325102 -0.188710
v 0.244881 -0.354705 -0.162264
v 0.244881 -0.363047 -0.178215
v 0.244881 -0.382223 -0.139375
v 0.244881 -0.395330 -0.151711
v 0.244881 -0.406120 -0.106519
v 0.244881 -0.421500 -0.115870
v 0.244881 -0.424668 -0.069325
v 0.244881 -0.441300 -0.076209
v 0.244881 -0.436582 -0.033613
v 0.244881 -0.454025 -0.038056
v 0.244881 -0.443109 0.003025
v 0.244881 -0.460873 0.000122
v 0.244881 -0.452696 0.053320
v 0.244881 -0.470446 0.050329
v 0.244881 -0.460891 0.107942
v 0.244881 -0.478365 0.103620
v 0.244881 -0.466486 0.154627
v 0.244881 -0.484474 0.153984
v 0.244881 -0.465672 0.260248
v 0.244881 -0.483672 0.260248
v 0.244881 -0.359653 -0.095871
v 0.244881 -0.354446 -0.086751
v 0.244881 -0.370124 -0.091008
v 0.244881 -0.355976 -0.085387
v 0.244881 -0.373251 -0.081774
v 0.244881 -0.356480 -0.083018
v 0.244881 -0.372609 -0.075289
v 0.244881 -0.355993 -0.078962
v 0.244881 -0.371144 -0.070562
v 0.244881 -0.364064 -0.063469
v 0.244881 -0.354528 -0.059237
v 0.244881 -0.352757 -0.077150
v 0.244881 -0.339839 -0.063678
v 0.244881 -0.350814 -0.077946
v 0.244881 -0.331527 -0.076301
v 0.244881 -0.348641 -0.081881
v 0.244881 -0.330447 -0.092070
v 0.244881 -0.348203 -0.089114
v 0.244881 -0.337066 -0.108009
v 0.244881 -0.351853 -0.097745
v 0.244881 -0.347272 -0.117624
v 0.244881 -0.356858 -0.102389
v 0.244881 -0.359539 -0.122434
v 0.244881 -0.363257 -0.104822
v 0.244881 -0.372467 -0.123069
v 0.244881 -0.370933 -0.105135
v 0.244881 -0.385132 -0.120301
v 0.244881 -0.379294 -0.103275
v 0.244881 -0.397548 -0.114271
v 0.244881 -0.386812 -0.099823
v 0.244881 -0.408037 -0.102802
v 0.244881 -0.392997 -0.092913
v 0.244881 -0.415505 -0.086560
v 0.244881 -0.398576 -0.080444
v 0.244881 -0.420424 -0.068615
v 0.244881 -0.402817 -0.064877
v 0.244881 -0.423090 -0.051134
v 0.244881 -0.405158 -0.049572
v 0.244881 -0.423346 -0.035942
v 0.244881 -0.405492 -0.038233
v 0.244881 -0.416090 -0.010430
v 0.244881 -0.399642 -0.017743
v 0.244881 -0.401791 0.012558
v 0.244881 -0.387108 0.002147
v 0.244881 -0.384895 0.033717
v 0.244881 -0.370726 0.022617
v 0.244881 -0.369137 0.054200
v 0.244881 -0.354043 0.044392
v 0.244881 -0.357755 0.075097
v 0.244881 -0.341104 0.068260
v 0.244881 -0.347861 0.109302
v 0.244881 -0.330134 0.106184
v 0.244881 -0.345983 0.136739
v 0.244881 -0.328043 0.138198
v 0.244881 -0.350674 0.157155
v 0.244881 -0.334235 0.164487
v 0.244881 -0.360462 0.171203
v 0.244881 -0.348141 0.184325
v 0.244881 -0.375007 0.179960
v 0.244881 -0.368054 0.196563
v 0.244881 -0.388930 0.183418
v 0.244881 -0.386699 0.201279
v 0.244881 -0.402897 0.183468
v 0.244881 -0.405253 0.201313
v 0.244881 -0.416483 0.179780
v 0.244881 -0.423482 0.196363
v 0.244881 -0.429723 0.171941
v 0.244881 -0.440695 0.186211
v 0.244881 -0.438450 0.159636
v 0.244881 -0.452773 0.170538
v 0.244881 -0.444546 0.148792
v 0.244881 -0.461595 0.154567
v 0.244881 -0.446187 0.137446
v 0.244881 -0.464183 0.137056
v 0.244881 -0.443946 0.125838
v 0.244881 -0.460915 0.119836
v 0.244881 -0.438029 0.114801
v 0.244881 -0.452535 0.104144
v 0.244881 -0.431363 0.106317
v 0.244881 -0.442238 0.091973
v 0.244881 -0.424207 0.100711
v 0.244881 -0.430007 0.083672
v 0.244881 -0.416541 0.099494
v 0.244881 -0.415846 0.081508
v 0.244881 -0.409635 0.101119
v 0.244881 -0.402253 0.084702
v 0.244881 -0.403398 0.105553
v 0.244881 -0.390634 0.092861
v 0.244881 -0.398188 0.113056
v 0.244881 -0.381944 0.105303
v 0.244881 -0.395198 0.123163
v 0.244881 -0.377258 0.121699
v 0.244881 -0.396058 0.130965
v 0.244881 -0.379191 0.137252
v 0.244881 -0.399515 0.136176
v 0.244881 -0.387731 0.149782
v 0.244881 -0.405460 0.139006
v 0.244881 -0.401723 0.156614
v 0.244881 -0.414670 0.138546
v 0.244881 -0.411572 0.157128
v 0.244881 -0.423952 0.152387
v 0.244881 -0.415964 0.136580
v 0.244881 -0.429423 0.146224
v 0.244881 -0.416998 0.133146
v 0.244881 -0.431671 0.138603
v 0.244881 -0.417309 0.129358
v 0.244881 -0.431009 0.128138
v 0.244881 -0.417032 0.121412
v 0.244881 -0.425392 0.117847
v 0.216055 -0.325102 -0.170710
v 0.216055 -0.325102 -0.188710
v 0.216055 -0.354705 -0.162264
v 0.216055 -0.363047 -0.178215
v 0.216055 -0.382223 -0.139375
v 0.216055 -0.395330 -0.151711
v 0.216055 -0.406120 -0.106519
v 0.216055 -0.421500 -0.115870
v 0.216055 -0.424668 -0.069325
v 0.216055 -0.441300 -0.076209
v 0.216055 -0.436582 -0.033613
v 0.216055 -0.454025 -0.038056
v 0.216055 -0.443109 0.003025
v 0.216055 -0.460873 0.000122
v 0.216055 -0.452696 0.053320
v 0.216055 -0.470446 0.050329
v 0.216055 -0.460891 0.107942
v 0.216055 -0.478365 0.103620
v 0.216055 -0.466486 0.154627
v 0.216055 -0.484474 0.153984
v 0.216055 -0.465672 0.260248
v 0.216055 -0.483672 0.260248
v 0.216055 -0.359653 -0.095871
v 0.216055 -0.354446 -0.086751
v 0.216055 -0.370124 -0.091008
v 0.216055 -0.355976 -0.085387
v 0.216055 -0.373251 -0.081774
v 0.216055 -0.356480 -0.083018
v 0.216055 -0.372609 -0.075289
v 0.216055 -0.355993 -0.078962
v 0.216055 -0.371144 -0.070562
v 0.216055 -0.364064 -0.063469
v 0.216055 -0.354528 -0.059237
v 0.216055 -0.352757 -0.077150
v 0.216055 -0.339839 -0.063678
v 0.216055 -0.350814 -0.077946
v 0.216055 -0.331527 -0.076301
v 0.216055 -0.348641 -0.081881
v 0.216055 -0.330447 -0.092070
v 0.216055 -0.348203 -0.089114
v 0.216055 -0.337066 -0.108009
v 0.216055 -0.351853 -0.097745
v 0.216055 -0.347272 -0.117624
v 0.216055 -0.356858 -0.102389
v 0.216055 -0.359539 -0.122434
v 0.216055 -0.363257 -0.104822
v 0.216055 -0.372467 -0.123069
v 0.216055 -0.370933 -0.105135
v 0.216055 -0.385132 -0.120301
v 0.216055 -0.379294 -0.103275
v 0.216055 -0.397548 -0.114271
v 0.216055 -0.386812 -0.099823
v 0.216055 -0.408037 -0.102802
v 0.216055 -0.392997 -0.092913
v 0.216055 -0.415505 -0.086560
v 0.216055 -0.398576 -0.080444
v 0.216055 -0.420424 -0.068615
v 0.216055 -0.402817 -0.064877
v 0.216055 -0.423090 -0.051134
v 0.216055 -0.405158 -0.049572
v 0.216055 -0.423346 -0.035942
v 0.216055 -0.405492 -0.038233
v 0.216055 -0.416090 -0.010430
v 0.216055 -0.399642 -0.017743
v 0.216055 -0.401791 0.012558
v 0.216055 -0.387108 0.002147
v 0.216055 -0.384895 0.033717
v 0.216055 -0.370726 0.022617
v 0.216055 -0.369137 0.054200
v 0.216055 -0.354043 0.044392
v 0.216055 -0.357755 0.075097
v 0.216055 -0.341104 0.068260
v 0.216055 -0.347861 0.109302
v 0.216055 -0.330134 0.106184
v 0.216055 -0.345983 0.136739
v 0.216055 -0.328043 0.138198
v 0.216055 -0.350674 0.157155
v 0.216055 -0.334235 0.164487
v 0.216055 -0.360462 0.171203
v 0.216055 -0.348141 0.184325
v 0.216055 -0.375007 0.179960
v 0.216055 -0.368054 0.196563
v 0.216055 -0.388930 0.183418
v 0.216055 -0.386699 0.201279
v 0.216055 -0.402897 0.183468
v 0.216055 -0.405253 0.201313
v 0.216055 -0.416483 0.179780
v 0.216055 -0.423482 0.196363
v 0.216055 -0.429723 0.171941
v 0.216055 -0.440695 0.186211
v 0.216055 -0.438450 0.159636
v 0.216055 -0.452773 0.170538
v 0.216055 -0.444546 0.148792
v 0.216055 -0.461595 0.154567
v 0.216055 -0.446187 0.137446
v 0.216055 -0.464183 0.137056
v 0.216055 -0.443946 0.125838
v 0.216055 -0.460915 0.119836
v 0.216055 -0.438029 0.114801
v 0.216055 -0.452535 0.104144
v 0.216055 -0.431363 0.106317
v 0.216055 -0.442238 0.091973
v 0.216055 -0.424207 0.100711
v 0.216055 -0.430007 0.083672
v 0.216055 -0.416541 0.099494
v 0.216055 -0.415846 0.081508
v 0.216055 -0.409635 0.101119
v 0.216055 -0.402253 0.084702
v 0.216055 -0.403398 0.105553
v 0.216055 -0.390634 0.092861
v 0.216055 -0.398188 0.113056
v 0.216055 -0.381944 0.105303
v 0.216055 -0.395198 0.123163
v 0.216055 -0.377258 0.121699
v 0.216055 -0.396058 0.130965
v 0.216055 -0.379191 0.137252
v 0.216055 -0.399515 0.136176
v 0.216055 -0.387731 0.149782
v 0.216055 -0.405460 0.139006
v 0.216055 -0.401723 0.156614
v 0.216055 -0.414670 0.138546
v 0.216055 -0.411572 0.157128
v 0.216055 -0.423952 0.152387
v 0.216055 -0.415964 0.136580
v 0.216055 -0.429423 0.146224
v 0.216055 -0.416998 0.133146
v 0.216055 -0.431671 0.138603
v 0.216055 -0.417309 0.129358
v 0.216055 -0.431009 0.128138
v 0.216055 -0.417032 0.121412
v 0.216055 -0.425392 0.117847
vn -1.0000 -0.0000 -0.0000
vn 1.0000 -0.0000 -0.0000
vn -0.0000 0.9984 0.0558
vn -0.0000 1.0000 -0.0077
vn -0.0000 0.8228 -0.5683
vn -0.0000 0.9868 -0.1619
vn -0.0000 0.9467 -0.3220
vn -0.0000 0.8448 -0.5350
vn -0.0000 0.6544 0.7561
vn -0.0000 0.2505 0.9681
vn -0.0000 -0.1562 0.9877
vn -0.0000 0.5351 -0.8448
vn -0.0000 0.4670 0.8843
vn -0.0000 0.2744 0.9616
vn -0.0000 0.9997 0.0236
vn -0.0000 -0.5690 0.8224
vn -0.0000 -0.8745 0.4851
vn -0.0000 0.2098 -0.9777
vn -0.0000 0.6653 0.7465
vn -0.0000 0.8647 0.5023
vn -0.0000 0.7297 0.6838
vn -0.0000 0.9423 0.3348
vn -0.0000 -0.9937 0.1116
vn -0.0000 0.9990 0.0450
vn -0.0000 -0.9607 -0.2777
vn -0.0000 -0.0829 -0.9966
vn -0.0000 0.8310 -0.5563
vn -0.0000 0.8548 0.5190
vn -0.0000 0.8370 0.5472
vn -0.0000 -0.8778 -0.4791
vn -0.0000 -0.3275 -0.9449
vn -0.0000 0.9240 0.3823
vn -0.0000 0.7066 0.7076
vn -0.0000 0.4887 -0.8724
vn -0.0000 -0.5981 -0.8014
vn -0.0000 -0.3790 -0.9254
vn -0.0000 0.9691 0.2466
vn -0.0000 0.3995 0.9167
vn -0.0000 -0.8754 -0.4834
vn -0.0000 -0.9604 -0.2788
vn -0.0000 -0.8332 -0.5530
vn -0.0000 -0.9856 0.1690
vn -0.0000 0.9834 0.1813
vn -0.0000 -0.0368 0.9993
vn -0.0000 -0.8188 0.5741
vn -0.0000 -0.9396 -0.3422
vn -0.0000 -0.5275 0.8495
vn -0.0000 0.9858 0.1678
vn -0.0000 -0.4119 0.9112
vn -0.0000 -0.2007 0.9797
vn -0.0000 -0.9781 -0.2079
vn -0.0000 0.0890 0.9960
vn -0.0000 0.9910 0.1337
vn -0.0000 -0.7110 0.7032
vn -0.0000 0.3190 0.9478
vn -0.0000 -0.9965 -0.0840
vn -0.0000 0.5937 0.8047
vn -0.0000 -0.9016 0.4325
vn -0.0000 0.8390 0.5442
vn -0.0000 -0.9915 0.1298
vn -0.0000 0.9416 0.3367
vn -0.0000 -0.9984 -0.0566
vn -0.0000 -1.0000 0.0076
vn -0.0000 -0.9960 0.0888
vn -0.0000 0.9783 0.2074
vn -0.0000 -0.9144 0.4048
vn -0.0000 0.9959 0.0905
vn -0.0000 -0.9401 -0.3408
vn -0.0000 0.9923 -0.1240
vn -0.0000 -0.8167 0.5771
vn -0.0000 0.9130 -0.4080
vn -0.0000 -0.6554 -0.7553
vn -0.0000 0.8147 -0.5799
vn -0.0000 -0.7870 0.6169
vn -0.0000 0.7873 -0.6165
vn -0.0000 -0.1960 -0.9806
vn -0.0000 0.8391 -0.5440
vn -0.0000 -0.8380 0.5457
vn -0.0000 0.9252 -0.3794
vn -0.0000 0.4963 -0.8681
vn -0.0000 0.9850 -0.1725
vn -0.0000 -0.9249 0.3803
vn -0.0000 0.9966 0.0830
vn -0.0000 0.9125 0.4090
vn -0.0000 -0.0000 1.0000
vn -0.0000 -0.9847 0.1741
vn -0.0000 0.6855 0.7281
vn -0.0000 0.8684 -0.4958
vn -0.0000 0.9059 -0.4235
vn -0.0000 0.3889 0.9213
vn -0.0000 -0.7443 -0.6678
vn -0.0000 -0.4212 -0.9070
vn -0.0000 -0.9969 -0.0787
vn -0.0000 0.1245 0.9922
vn -0.0000 0.9825 -0.1861
vn -0.0000 -0.1313 0.9913
vn -0.0000 -0.9935 -0.1137
vn -0.0000 -0.9142 -0.4052
vn -0.0000 -0.3885 0.9214
vn -0.0000 0.9997 -0.0235
vn -0.0000 -0.6621 0.7494
vn -0.0000 -0.9801 0.1983
vn -0.0000 -0.6832 -0.7302
vn -0.0000 -0.8361 0.5485
vn -0.0000 0.9994 0.0349
vn -0.0000 -0.9474 0.3200
vn -0.0000 -0.8564 0.5163
vn -0.0000 0.3922 -0.9199
vn -0.0000 -0.3827 -0.9239
vn -0.0000 -0.9998 -0.0204
vn -0.0000 -0.2666 -0.9638
vn -0.0000 -0.4606 -0.8876
vn -0.0000 -0.9431 -0.3326
vn -0.0000 -0.5663 0.8242
vn -0.0000 -0.7269 -0.6868
vn -0.0000 -0.1232 -0.9924
vn -0.0000 -0.8274 -0.5616
vn -0.0000 -0.8542 -0.5200
vn -0.0000 -0.6687 -0.7435
vn -0.0000 -0.0620 0.9981
vn -0.0000 -0.9240 -0.3825
vn -0.0000 0.1304 -0.9915
vn -0.0000 -0.3653 -0.9309
vn -0.0000 -0.9690 -0.2471
vn -0.0000 0.0396 -0.9992
vn -0.0000 0.5980 0.8015
vn -0.0000 -0.9833 -0.1819
vn -0.0000 0.3892 -0.9211
vn -0.0000 0.4091 -0.9125
vn -0.0000 -0.9859 -0.1672
vn -0.0000 0.7080 -0.7062
vn -0.0000 0.9475 0.3197
vn -0.0000 -0.9910 -0.1337
vn -0.0000 0.6774 -0.7356
vn -0.0000 0.9030 -0.4296
vn -0.0000 0.9970 -0.0773
vn -0.0000 0.9356 0.3532
vt 0.835718 0.239229
vt 0.842907 0.243992
vt 0.840086 0.246747
vt 0.834495 0.242977
vt 0.847830 0.251704
vt 0.844262 0.253383
vt 0.850845 0.260946
vt 0.847007 0.261849
vt 0.852274 0.270550
vt 0.848343 0.270854
vt 0.852333 0.279360
vt 0.848398 0.279101
vt 0.851165 0.287776
vt 0.847269 0.287174
vt 0.849748 0.298882
vt 0.845849 0.298299
vt 0.847778 0.310518
vt 0.843845 0.310231
vt 0.845629 0.321421
vt 0.841839 0.320333
vt 0.851949 0.527885
vt 0.855739 0.526797
vt 0.863083 0.548738
vt 0.859335 0.549960
vt 0.944577 0.348966
vt 0.946112 0.347252
vt 0.948130 0.348775
vt 0.944842 0.349328
vt 0.948375 0.350897
vt 0.944841 0.349859
vt 0.947939 0.352256
vt 0.944550 0.350705
vt 0.947408 0.353201
vt 0.945566 0.354394
vt 0.943329 0.354862
vt 0.943774 0.350944
vt 0.940387 0.353235
vt 0.943394 0.350684
vt 0.939188 0.350149
vt 0.943110 0.349741
vt 0.939682 0.346722
vt 0.943349 0.348172
vt 0.941833 0.343613
vt 0.944528 0.346492
vt 0.944461 0.342024
vt 0.945813 0.345727
vt 0.947310 0.341558
vt 0.947296 0.345501
vt 0.950108 0.342017
vt 0.948954 0.345787
vt 0.952693 0.343192
vt 0.950659 0.346570
vt 0.955074 0.345055
vt 0.952110 0.347655
vt 0.956793 0.347994
vt 0.953117 0.349420
vt 0.957645 0.351816
vt 0.953738 0.352347
vt 0.957873 0.355886
vt 0.953930 0.355876
vt 0.957639 0.359752
vt 0.953727 0.359261
vt 0.956995 0.363017
vt 0.953277 0.361705
vt 0.954267 0.368147
vt 0.951081 0.365824
vt 0.950147 0.372413
vt 0.947481 0.369507
vt 0.945555 0.376167
vt 0.943031 0.373137
vt 0.941237 0.379828
vt 0.938456 0.377033
vt 0.937838 0.383780
vt 0.934587 0.381549
vt 0.934145 0.390650
vt 0.930492 0.389166
vt 0.932481 0.396440
vt 0.928571 0.395926
vt 0.932546 0.401028
vt 0.928688 0.401842
vt 0.933995 0.404487
vt 0.930753 0.406730
vt 0.936708 0.407031
vt 0.934455 0.410267
vt 0.939530 0.408413
vt 0.938231 0.412135
vt 0.942519 0.409066
vt 0.942202 0.412996
vt 0.945598 0.408901
vt 0.946334 0.412775
vt 0.948795 0.407832
vt 0.950488 0.411393
vt 0.951230 0.405598
vt 0.953796 0.408592
vt 0.953035 0.403556
vt 0.956420 0.405578
vt 0.953908 0.401202
vt 0.957780 0.401946
vt 0.953962 0.398613
vt 0.957873 0.398108
vt 0.953203 0.395977
vt 0.956800 0.394362
vt 0.952166 0.393853
vt 0.955155 0.391281
vt 0.950891 0.392323
vt 0.952917 0.388941
vt 0.949305 0.391710
vt 0.949984 0.387826
vt 0.947752 0.391740
vt 0.946926 0.387884
vt 0.946212 0.392403
vt 0.944062 0.389097
vt 0.944751 0.393770
vt 0.941629 0.391362
vt 0.943645 0.395797
vt 0.939871 0.394658
vt 0.943470 0.397507
vt 0.939569 0.398077
vt 0.943971 0.398782
vt 0.940821 0.401154
vt 0.945114 0.399662
vt 0.943503 0.403261
vt 0.947108 0.399987
vt 0.945589 0.403824
vt 0.948459 0.403378
vt 0.947475 0.399626
vt 0.949914 0.402310
vt 0.947855 0.398938
vt 0.950746 0.400782
vt 0.948096 0.398141
vt 0.951086 0.398510
vt 0.948402 0.396426
vt 0.950356 0.396047
vt 0.861861 0.445692
vt 0.863083 0.449441
vt 0.857492 0.453211
vt 0.854671 0.450456
vt 0.853316 0.459847
vt 0.849749 0.458168
vt 0.850571 0.468312
vt 0.846733 0.467410
vt 0.849235 0.477318
vt 0.845304 0.477014
vt 0.849180 0.485564
vt 0.845246 0.485824
vt 0.850310 0.493638
vt 0.846413 0.494240
vt 0.851729 0.504763
vt 0.847830 0.505346
vt 0.853733 0.516695
vt 0.849801 0.516982
vt 0.783961 0.696858
vt 0.790276 0.696858
vt 0.790276 0.719995
vt 0.783961 0.719995
vt 0.934020 0.182408
vt 0.934285 0.182045
vt 0.937574 0.182598
vt 0.935555 0.184121
vt 0.934284 0.181515
vt 0.937819 0.180476
vt 0.933993 0.180668
vt 0.937383 0.179117
vt 0.936852 0.178172
vt 0.935009 0.176979
vt 0.933217 0.180429
vt 0.932772 0.176511
vt 0.932837 0.180689
vt 0.929830 0.178138
vt 0.932553 0.181632
vt 0.928631 0.181224
vt 0.932792 0.183201
vt 0.929125 0.184651
vt 0.933971 0.184881
vt 0.931277 0.187760
vt 0.935257 0.185646
vt 0.933905 0.189350
vt 0.936739 0.185872
vt 0.936753 0.189815
vt 0.938397 0.185586
vt 0.939551 0.189356
vt 0.940102 0.184803
vt 0.942136 0.188181
vt 0.941554 0.183718
vt 0.944518 0.186318
vt 0.942560 0.181953
vt 0.946236 0.183379
vt 0.943181 0.179026
vt 0.947088 0.179557
vt 0.943373 0.175497
vt 0.947316 0.175488
vt 0.943170 0.172112
vt 0.947082 0.171621
vt 0.942720 0.169668
vt 0.946438 0.168356
vt 0.940524 0.165549
vt 0.943710 0.163226
vt 0.936925 0.161866
vt 0.939590 0.158961
vt 0.932474 0.158236
vt 0.934998 0.155207
vt 0.927899 0.154340
vt 0.930681 0.151545
vt 0.924030 0.149824
vt 0.927281 0.147593
vt 0.919936 0.142207
vt 0.923589 0.140723
vt 0.918015 0.135447
vt 0.921924 0.134934
vt 0.918131 0.129532
vt 0.921989 0.130346
vt 0.920196 0.124643
vt 0.923439 0.126887
vt 0.923898 0.121106
vt 0.926151 0.124342
vt 0.927674 0.119238
vt 0.928974 0.122961
vt 0.931646 0.118377
vt 0.931962 0.122307
vt 0.935778 0.118598
vt 0.935042 0.122472
vt 0.939931 0.119981
vt 0.938238 0.123541
vt 0.943239 0.122781
vt 0.940673 0.125775
vt 0.945863 0.125796
vt 0.942478 0.127817
vt 0.947223 0.129427
vt 0.943351 0.130171
vt 0.947316 0.133265
vt 0.943406 0.132760
vt 0.946243 0.137011
vt 0.942646 0.135397
vt 0.944598 0.140092
vt 0.941609 0.137520
vt 0.942361 0.142432
vt 0.940334 0.139050
vt 0.939427 0.143547
vt 0.938749 0.139663
vt 0.936369 0.143489
vt 0.937195 0.139633
vt 0.933506 0.142276
vt 0.935655 0.138971
vt 0.931072 0.140011
vt 0.934194 0.137604
vt 0.929314 0.136716
vt 0.933089 0.135576
vt 0.929012 0.133296
vt 0.932914 0.133866
vt 0.930265 0.130219
vt 0.933414 0.132591
vt 0.932947 0.128112
vt 0.934557 0.131711
vt 0.935033 0.127549
vt 0.936551 0.131386
vt 0.937902 0.127995
vt 0.939357 0.129063
vt 0.936918 0.131748
vt 0.940189 0.130591
vt 0.937298 0.132435
vt 0.940529 0.132863
vt 0.937539 0.133232
vt 0.939800 0.135326
vt 0.937845 0.134947
vt 0.495713 0.267101
vt 0.495713 0.263320
vt 0.502027 0.263320
vt 0.502027 0.267101
vt 0.495713 0.373468
vt 0.495713 0.370743
vt 0.502027 0.370743
vt 0.502027 0.373468
vt 0.458508 0.258106
vt 0.458508 0.254695
vt 0.464822 0.254695
vt 0.464822 0.258106
vt 0.458508 0.252534
vt 0.464822 0.252534
vt 0.495713 0.270172
vt 0.502027 0.270172
vt 0.790276 0.621001
vt 0.783961 0.621001
vt 0.783961 0.614258
vt 0.790276 0.614258
vt 0.495713 0.375979
vt 0.502027 0.375979
vt 0.458508 0.249631
vt 0.464822 0.249631
vt 0.458508 0.247825
vt 0.464822 0.247825
vt 0.495713 0.273058
vt 0.502027 0.273058
vt 0.458508 0.414801
vt 0.458508 0.414352
vt 0.464822 0.414352
vt 0.464822 0.414801
vt 0.790276 0.628842
vt 0.783961 0.628842
vt 0.495713 0.378569
vt 0.502027 0.378569
vt 0.458508 0.246085
vt 0.464822 0.246085
vt 0.458508 0.413822
vt 0.464822 0.413822
vt 0.458508 0.243788
vt 0.464822 0.243788
vt 0.495713 0.275894
vt 0.502027 0.275894
vt 0.458508 0.412927
vt 0.464822 0.412927
vt 0.790276 0.637741
vt 0.783961 0.637741
vt 0.495713 0.381312
vt 0.502027 0.381312
vt 0.458508 0.241220
vt 0.464822 0.241220
vt 0.495713 0.278733
vt 0.502027 0.278733
vt 0.790276 0.646845
vt 0.783961 0.646845
vt 0.495713 0.383675
vt 0.502027 0.383675
vt 0.458508 0.412115
vt 0.464822 0.412115
vt 0.495713 0.281757
vt 0.502027 0.281757
vt 0.458508 0.411655
vt 0.464822 0.411655
vt 0.790276 0.655092
vt 0.783961 0.655092
vt 0.495713 0.385667
vt 0.502027 0.385667
vt 0.458508 0.410670
vt 0.464822 0.410670
vt 0.495713 0.285161
vt 0.502027 0.285161
vt 0.458508 0.409083
vt 0.464822 0.409083
vt 0.790276 0.663244
vt 0.783961 0.663244
vt 0.495713 0.387367
vt 0.502027 0.387367
vt 0.458508 0.407030
vt 0.464822 0.407030
vt 0.495713 0.289077
vt 0.502027 0.289077
vt 0.458508 0.405534
vt 0.464822 0.405534
vt 0.790276 0.674459
vt 0.783961 0.674459
vt 0.495713 0.388921
vt 0.502027 0.388921
vt 0.458508 0.404035
vt 0.464822 0.404035
vt 0.495713 0.293153
vt 0.502027 0.293153
vt 0.458508 0.402352
vt 0.464822 0.402352
vt 0.790276 0.686558
vt 0.783961 0.686558
vt 0.495713 0.390597
vt 0.502027 0.390597
vt 0.458508 0.400475
vt 0.464822 0.400475
vt 0.495713 0.297027
vt 0.502027 0.297027
vt 0.458508 0.398663
vt 0.464822 0.398663
vt 0.495713 0.392598
vt 0.502027 0.392598
vt 0.458508 0.396632
vt 0.464822 0.396632
vt 0.495713 0.300355
vt 0.502027 0.300355
vt 0.458508 0.393640
vt 0.464822 0.393640
vt 0.421302 0.535923
vt 0.427616 0.535923
vt 0.427616 0.559201
vt 0.421302 0.559201
vt 0.495713 0.394907
vt 0.502027 0.394907
vt 0.458508 0.390105
vt 0.464822 0.390105
vt 0.495713 0.306165
vt 0.502027 0.306165
vt 0.458508 0.386714
vt 0.464822 0.386714
vt 0.838243 0.343497
vt 0.834495 0.342274
vt 0.495713 0.396626
vt 0.502027 0.396626
vt 0.458508 0.384229
vt 0.464822 0.384229
vt 0.495713 0.312095
vt 0.502027 0.312095
vt 0.458508 0.379561
vt 0.464822 0.379561
vt 0.495713 0.397996
vt 0.502027 0.397996
vt 0.458508 0.374411
vt 0.464822 0.374411
vt 0.495713 0.318027
vt 0.502027 0.318027
vt 0.458508 0.368668
vt 0.464822 0.368668
vt 0.495713 0.399438
vt 0.502027 0.399438
vt 0.458508 0.362659
vt 0.464822 0.362659
vt 0.495713 0.323688
vt 0.502027 0.323687
vt 0.458508 0.356712
vt 0.464822 0.356712
vt 0.495713 0.401458
vt 0.502027 0.401458
vt 0.458508 0.348064
vt 0.464822 0.348064
vt 0.495713 0.328900
vt 0.502027 0.328900
vt 0.458508 0.341037
vt 0.464822 0.341037
vt 0.458508 0.335121
vt 0.464822 0.335121
vt 0.423674 0.634690
vt 0.423674 0.628375
vt 0.427617 0.628375
vt 0.427617 0.634690
vt 0.495713 0.336700
vt 0.502027 0.336700
vt 0.458508 0.329814
vt 0.464822 0.329814
vt 0.495713 0.241529
vt 0.495713 0.239229
vt 0.502027 0.239229
vt 0.502027 0.241529
vt 0.495713 0.401974
vt 0.502027 0.401974
vt 0.458508 0.324694
vt 0.464822 0.324694
vt 0.495713 0.244058
vt 0.502027 0.244058
vt 0.495713 0.342724
vt 0.502027 0.342724
vt 0.458508 0.320481
vt 0.464822 0.320481
vt 0.495713 0.402760
vt 0.502027 0.402760
vt 0.458508 0.316417
vt 0.464822 0.316417
vt 0.495713 0.246194
vt 0.502027 0.246194
vt 0.495713 0.347313
vt 0.502027 0.347313
vt 0.458508 0.312279
vt 0.464822 0.312279
vt 0.495713 0.403592
vt 0.502027 0.403592
vt 0.458508 0.307902
vt 0.464822 0.307902
vt 0.495713 0.247621
vt 0.502027 0.247621
vt 0.495713 0.351063
vt 0.502027 0.351063
vt 0.458508 0.303567
vt 0.464822 0.303567
vt 0.495713 0.405334
vt 0.502027 0.405334
vt 0.458508 0.299571
vt 0.464822 0.299571
vt 0.495713 0.248705
vt 0.502027 0.248705
vt 0.458508 0.239229
vt 0.464822 0.239229
vt 0.495713 0.354782
vt 0.502027 0.354782
vt 0.458508 0.295693
vt 0.464822 0.295693
vt 0.421302 0.447301
vt 0.427616 0.447301
vt 0.427616 0.455925
vt 0.421302 0.455925
vt 0.458508 0.291854
vt 0.464822 0.291854
vt 0.495713 0.250900
vt 0.502027 0.250900
vt 0.427616 0.465074
vt 0.421302 0.465074
vt 0.495713 0.357925
vt 0.502027 0.357925
vt 0.458508 0.287957
vt 0.464822 0.287957
vt 0.427616 0.474795
vt 0.421302 0.474795
vt 0.458508 0.284465
vt 0.464822 0.284465
vt 0.495713 0.253186
vt 0.502027 0.253186
vt 0.427616 0.484506
vt 0.421302 0.484506
vt 0.495713 0.360984
vt 0.502027 0.360984
vt 0.458508 0.281227
vt 0.464822 0.281227
vt 0.427616 0.493316
vt 0.421302 0.493316
vt 0.458508 0.278089
vt 0.464822 0.278089
vt 0.495713 0.256547
vt 0.502027 0.256547
vt 0.427616 0.501812
vt 0.421302 0.501812
vt 0.495713 0.364068
vt 0.502027 0.364068
vt 0.458508 0.275030
vt 0.464822 0.275030
vt 0.427616 0.513008
vt 0.421302 0.513008
vt 0.458508 0.271920
vt 0.464822 0.271920
vt 0.495713 0.259858
vt 0.502027 0.259858
vt 0.427616 0.524810
vt 0.421302 0.524810
vt 0.495713 0.367438
vt 0.502027 0.367438
vt 0.458508 0.268596
vt 0.464822 0.268596
vt 0.458508 0.264860
vt 0.464822 0.264860
vt 0.458508 0.261427
vt 0.464822 0.261427
vt 0.874987 0.614258
vt 0.876210 0.618006
vt 0.870618 0.621776
vt 0.867798 0.619021
vt 0.866443 0.628412
vt 0.862875 0.626733
vt 0.863698 0.636878
vt 0.859860 0.635975
vt 0.862362 0.645883
vt 0.858430 0.645580
vt 0.862306 0.654130
vt 0.858372 0.654390
vt 0.863436 0.662203
vt 0.859539 0.662805
vt 0.864856 0.673328
vt 0.860956 0.673911
vt 0.866859 0.685260
vt 0.862927 0.685547
vt 0.868865 0.695363
vt 0.865076 0.696451
vt 0.830642 0.037521
vt 0.838027 0.015445
vt 0.841776 0.016668
vt 0.834432 0.038609
vt 0.944577 0.303259
vt 0.944842 0.302897
vt 0.948130 0.303450
vt 0.946112 0.304973
vt 0.944841 0.302366
vt 0.948375 0.301328
vt 0.944550 0.301520
vt 0.947939 0.299969
vt 0.947408 0.299024
vt 0.945566 0.297831
vt 0.943774 0.301281
vt 0.943329 0.297363
vt 0.943394 0.301541
vt 0.940387 0.298990
vt 0.943110 0.302483
vt 0.939188 0.302076
vt 0.943349 0.304053
vt 0.939682 0.305503
vt 0.944528 0.305733
vt 0.941833 0.308612
vt 0.945813 0.306497
vt 0.944461 0.310201
vt 0.947296 0.306724
vt 0.947310 0.310667
vt 0.948954 0.306438
vt 0.950108 0.310208
vt 0.950659 0.305655
vt 0.952693 0.309032
vt 0.952110 0.304569
vt 0.955074 0.307170
vt 0.953117 0.302805
vt 0.956793 0.304231
vt 0.953738 0.299878
vt 0.957645 0.300409
vt 0.953930 0.296349
vt 0.957873 0.296339
vt 0.953727 0.292963
vt 0.957639 0.292473
vt 0.953277 0.290520
vt 0.956995 0.289207
vt 0.951081 0.286400
vt 0.954267 0.284078
vt 0.947481 0.282718
vt 0.950147 0.279812
vt 0.943031 0.279088
vt 0.945555 0.276058
vt 0.938456 0.275192
vt 0.941237 0.272397
vt 0.934587 0.270676
vt 0.937838 0.268445
vt 0.930492 0.263058
vt 0.934145 0.261575
vt 0.928571 0.256298
vt 0.932481 0.255785
vt 0.928688 0.250383
vt 0.932546 0.251197
vt 0.930753 0.245495
vt 0.933995 0.247738
vt 0.934455 0.241958
vt 0.936708 0.245193
vt 0.938231 0.240090
vt 0.939530 0.243812
vt 0.942203 0.239229
vt 0.942519 0.243159
vt 0.946334 0.239450
vt 0.945599 0.243323
vt 0.950488 0.240832
vt 0.948795 0.244393
vt 0.953796 0.243633
vt 0.951230 0.246627
vt 0.956420 0.246647
vt 0.953035 0.248669
vt 0.957780 0.250278
vt 0.953908 0.251023
vt 0.957873 0.254117
vt 0.953962 0.253612
vt 0.956800 0.257863
vt 0.953203 0.256248
vt 0.955155 0.260943
vt 0.952166 0.258372
vt 0.952917 0.263284
vt 0.950891 0.259902
vt 0.949984 0.264399
vt 0.949305 0.260515
vt 0.946926 0.264340
vt 0.947752 0.260485
vt 0.944062 0.263128
vt 0.946212 0.259822
vt 0.941629 0.260863
vt 0.944751 0.258455
vt 0.939871 0.257567
vt 0.943645 0.256428
vt 0.939569 0.254147
vt 0.943470 0.254718
vt 0.940821 0.251071
vt 0.943971 0.253443
vt 0.943503 0.248964
vt 0.945114 0.252563
vt 0.945589 0.248401
vt 0.947108 0.252238
vt 0.948459 0.248846
vt 0.949914 0.249914
vt 0.947475 0.252599
vt 0.950746 0.251443
vt 0.947855 0.253287
vt 0.951086 0.253715
vt 0.948096 0.254084
vt 0.950356 0.256177
vt 0.948402 0.255799
vt 0.840553 0.119714
vt 0.833364 0.114950
vt 0.836185 0.112195
vt 0.841776 0.115965
vt 0.828441 0.107238
vt 0.832009 0.105559
vt 0.825426 0.097996
vt 0.829264 0.097094
vt 0.823997 0.088392
vt 0.827928 0.088088
vt 0.823938 0.079582
vt 0.827873 0.079842
vt 0.825106 0.071166
vt 0.829002 0.071768
vt 0.826522 0.060060
vt 0.830422 0.060643
vt 0.828493 0.048424
vt 0.832426 0.048711
vt 0.827481 0.696858
vt 0.827481 0.719995
vt 0.821167 0.719995
vt 0.821167 0.696858
vt 0.959378 0.453100
vt 0.960913 0.451386
vt 0.962931 0.452910
vt 0.959643 0.453462
vt 0.963176 0.455031
vt 0.959642 0.453993
vt 0.962740 0.456390
vt 0.959351 0.454839
vt 0.962209 0.457335
vt 0.960367 0.458529
vt 0.958130 0.458996
vt 0.958575 0.455078
vt 0.955188 0.457369
vt 0.958195 0.454818
vt 0.953989 0.454283
vt 0.957911 0.453876
vt 0.954483 0.450856
vt 0.958150 0.452307
vt 0.956634 0.447747
vt 0.959329 0.450626
vt 0.959262 0.446158
vt 0.960614 0.449862
vt 0.962111 0.445692
vt 0.962097 0.449635
vt 0.964909 0.446151
vt 0.963755 0.449921
vt 0.967494 0.447327
vt 0.965460 0.450705
vt 0.969875 0.449189
vt 0.966911 0.451790
vt 0.971594 0.452128
vt 0.967918 0.453554
vt 0.972446 0.455950
vt 0.968539 0.456481
vt 0.972674 0.460020
vt 0.968731 0.460010
vt 0.972440 0.463886
vt 0.968528 0.463396
vt 0.971796 0.467152
vt 0.968078 0.465839
vt 0.969068 0.472282
vt 0.965882 0.469959
vt 0.964948 0.476547
vt 0.962282 0.473641
vt 0.960356 0.480301
vt 0.957832 0.477271
vt 0.956038 0.483962
vt 0.953257 0.481167
vt 0.952639 0.487914
vt 0.949388 0.485684
vt 0.948946 0.494784
vt 0.945293 0.493301
vt 0.947282 0.500574
vt 0.943372 0.500061
vt 0.947347 0.505162
vt 0.943489 0.505976
vt 0.948796 0.508621
vt 0.945554 0.510864
vt 0.951509 0.511166
vt 0.949256 0.514401
vt 0.954331 0.512547
vt 0.953031 0.516270
vt 0.957320 0.513200
vt 0.957003 0.517130
vt 0.960399 0.513036
vt 0.961135 0.516909
vt 0.963596 0.511966
vt 0.965289 0.515527
vt 0.966031 0.509732
vt 0.968597 0.512726
vt 0.967835 0.507691
vt 0.971221 0.509712
vt 0.968709 0.505336
vt 0.972581 0.506081
vt 0.968763 0.502747
vt 0.972674 0.502242
vt 0.968004 0.500111
vt 0.971601 0.498496
vt 0.966967 0.497987
vt 0.969956 0.495416
vt 0.965692 0.496458
vt 0.967718 0.493075
vt 0.964106 0.495844
vt 0.964785 0.491960
vt 0.962552 0.495874
vt 0.961727 0.492019
vt 0.961013 0.496537
vt 0.958863 0.493231
vt 0.959552 0.497904
vt 0.956429 0.495496
vt 0.958446 0.499931
vt 0.954672 0.498792
vt 0.958271 0.501641
vt 0.954370 0.502212
vt 0.958772 0.502916
vt 0.955622 0.505288
vt 0.959915 0.503796
vt 0.958304 0.507395
vt 0.961909 0.504122
vt 0.960390 0.507958
vt 0.963260 0.507513
vt 0.962276 0.503760
vt 0.964715 0.506445
vt 0.962656 0.503072
vt 0.965547 0.504916
vt 0.962897 0.502275
vt 0.965887 0.502644
vt 0.963203 0.500561
vt 0.965157 0.500182
vt 0.501633 0.153679
vt 0.507947 0.153679
vt 0.507947 0.157459
vt 0.501633 0.157459
vt 0.501633 0.047312
vt 0.507947 0.047312
vt 0.507947 0.050037
vt 0.501633 0.050037
vt 0.464427 0.172141
vt 0.470741 0.172141
vt 0.470741 0.175552
vt 0.464427 0.175552
vt 0.470741 0.177712
vt 0.464427 0.177712
vt 0.501633 0.150607
vt 0.507947 0.150607
vt 0.821167 0.621001
vt 0.821167 0.614258
vt 0.827481 0.614258
vt 0.827481 0.621001
vt 0.501633 0.044800
vt 0.507947 0.044800
vt 0.470742 0.180616
vt 0.464427 0.180616
vt 0.470742 0.182421
vt 0.464427 0.182421
vt 0.501633 0.147721
vt 0.507947 0.147721
vt 0.464427 0.015445
vt 0.470741 0.015445
vt 0.470741 0.015894
vt 0.464427 0.015894
vt 0.821167 0.628842
vt 0.827481 0.628842
vt 0.501633 0.042211
vt 0.507947 0.042211
vt 0.470742 0.184162
vt 0.464427 0.184162
vt 0.470741 0.016425
vt 0.464427 0.016425
vt 0.470742 0.186459
vt 0.464427 0.186459
vt 0.501633 0.144886
vt 0.507947 0.144886
vt 0.470741 0.017320
vt 0.464427 0.017320
vt 0.821167 0.637741
vt 0.827481 0.637741
vt 0.501633 0.039467
vt 0.507947 0.039467
vt 0.470742 0.189027
vt 0.464427 0.189027
vt 0.501633 0.142046
vt 0.507947 0.142046
vt 0.821167 0.646845
vt 0.827481 0.646845
vt 0.501633 0.037104
vt 0.507947 0.037104
vt 0.470741 0.018132
vt 0.464427 0.018132
vt 0.501633 0.139022
vt 0.507947 0.139022
vt 0.470741 0.018592
vt 0.464427 0.018592
vt 0.821167 0.655092
vt 0.827481 0.655092
vt 0.501633 0.035113
vt 0.507947 0.035113
vt 0.470741 0.019577
vt 0.464427 0.019577
vt 0.501633 0.135618
vt 0.507947 0.135618
vt 0.470741 0.021164
vt 0.464427 0.021164
vt 0.821167 0.663244
vt 0.827481 0.663244
vt 0.501633 0.033412
vt 0.507947 0.033412
vt 0.470741 0.023217
vt 0.464427 0.023217
vt 0.501633 0.131702
vt 0.507947 0.131702
vt 0.470741 0.024713
vt 0.464427 0.024713
vt 0.821167 0.674459
vt 0.827481 0.674459
vt 0.501633 0.031858
vt 0.507947 0.031858
vt 0.470741 0.026212
vt 0.464427 0.026212
vt 0.501633 0.127626
vt 0.507947 0.127626
vt 0.470741 0.027895
vt 0.464427 0.027895
vt 0.821167 0.686558
vt 0.827481 0.686558
vt 0.501633 0.030182
vt 0.507947 0.030182
vt 0.470741 0.029771
vt 0.464427 0.029771
vt 0.501633 0.123753
vt 0.507947 0.123753
vt 0.470741 0.031584
vt 0.464427 0.031584
vt 0.501633 0.028181
vt 0.507947 0.028181
vt 0.470741 0.033615
vt 0.464427 0.033615
vt 0.501633 0.120424
vt 0.507947 0.120424
vt 0.470741 0.036607
vt 0.464427 0.036607
vt 0.734456 0.327851
vt 0.734456 0.351129
vt 0.728142 0.351129
vt 0.728142 0.327851
vt 0.501633 0.025872
vt 0.507947 0.025872
vt 0.470741 0.040141
vt 0.464427 0.040141
vt 0.501633 0.114614
vt 0.507947 0.114614
vt 0.470741 0.043533
vt 0.464427 0.043533
vt 0.876210 0.717303
vt 0.872461 0.718526
vt 0.501633 0.024153
vt 0.507947 0.024153
vt 0.470741 0.046018
vt 0.464427 0.046018
vt 0.501633 0.108684
vt 0.507947 0.108684
vt 0.470741 0.050686
vt 0.464427 0.050686
vt 0.501633 0.022783
vt 0.507947 0.022783
vt 0.470741 0.055835
vt 0.464427 0.055835
vt 0.501633 0.102753
vt 0.507947 0.102753
vt 0.470741 0.061578
vt 0.464427 0.061578
vt 0.501633 0.021341
vt 0.507947 0.021341
vt 0.470741 0.067587
vt 0.464427 0.067587
vt 0.501633 0.097092
vt 0.507947 0.097092
vt 0.470741 0.073534
vt 0.464427 0.073534
vt 0.501633 0.019321
vt 0.507947 0.019321
vt 0.470741 0.082182
vt 0.464427 0.082182
vt 0.501633 0.091879
vt 0.507947 0.091879
vt 0.470741 0.089210
vt 0.464427 0.089210
vt 0.470741 0.095126
vt 0.464427 0.095126
vt 0.423674 0.665581
vt 0.427616 0.665581
vt 0.427616 0.671895
vt 0.423674 0.671895
vt 0.501633 0.084079
vt 0.507947 0.084079
vt 0.470741 0.100433
vt 0.464427 0.100433
vt 0.501633 0.179250
vt 0.507947 0.179250
vt 0.507947 0.181551
vt 0.501633 0.181551
vt 0.501633 0.018805
vt 0.507947 0.018805
vt 0.470741 0.105553
vt 0.464427 0.105553
vt 0.501633 0.176721
vt 0.507947 0.176721
vt 0.501633 0.078055
vt 0.507947 0.078055
vt 0.470741 0.109766
vt 0.464427 0.109766
vt 0.501633 0.018020
vt 0.507947 0.018020
vt 0.470741 0.113830
vt 0.464427 0.113830
vt 0.501633 0.174586
vt 0.507947 0.174586
vt 0.501633 0.073467
vt 0.507947 0.073467
vt 0.470741 0.117968
vt 0.464427 0.117968
vt 0.501633 0.017187
vt 0.507947 0.017187
vt 0.470741 0.122345
vt 0.464427 0.122345
vt 0.501633 0.173158
vt 0.507947 0.173158
vt 0.501633 0.069716
vt 0.507947 0.069716
vt 0.470741 0.126680
vt 0.464427 0.126680
vt 0.501633 0.015445
vt 0.507947 0.015445
vt 0.470741 0.130676
vt 0.464427 0.130676
vt 0.501633 0.172074
vt 0.507947 0.172074
vt 0.470742 0.191018
vt 0.464427 0.191018
vt 0.501633 0.065997
vt 0.507947 0.065997
vt 0.470741 0.134554
vt 0.464427 0.134554
vt 0.734456 0.239229
vt 0.734456 0.247853
vt 0.728142 0.247853
vt 0.728142 0.239229
vt 0.470741 0.138393
vt 0.464427 0.138393
vt 0.501633 0.169879
vt 0.507947 0.169879
vt 0.734456 0.257002
vt 0.728142 0.257002
vt 0.501633 0.062855
vt 0.507947 0.062855
vt 0.470741 0.142290
vt 0.464427 0.142290
vt 0.734456 0.266723
vt 0.728142 0.266723
vt 0.470741 0.145782
vt 0.464427 0.145782
vt 0.501633 0.167594
vt 0.507947 0.167594
vt 0.734456 0.276434
vt 0.728142 0.276434
vt 0.501633 0.059795
vt 0.507947 0.059795
vt 0.470741 0.149020
vt 0.464427 0.149020
vt 0.734456 0.285243
vt 0.728142 0.285243
vt 0.470741 0.152158
vt 0.464427 0.152158
vt 0.501633 0.164232
vt 0.507947 0.164232
vt 0.734456 0.293740
vt 0.728142 0.293740
vt 0.501633 0.056711
vt 0.507947 0.056711
vt 0.470741 0.155217
vt 0.464427 0.155217
vt 0.734456 0.304936
vt 0.728142 0.304936
vt 0.470741 0.158327
vt 0.464427 0.158327
vt 0.501633 0.160922
vt 0.507947 0.160922
vt 0.734456 0.316738
vt 0.728142 0.316738
vt 0.501633 0.053341
vt 0.507947 0.053341
vt 0.470741 0.161651
vt 0.464427 0.161651
vt 0.470741 0.165386
vt 0.464427 0.165386
vt 0.470741 0.168820
vt 0.464427 0.168820
s 1
f 2/1/1 4/2/1 3/3/1 1/4/1
f 4/2/1 6/5/1 5/6/1 3/3/1
f 6/5/1 8/7/1 7/8/1 5/6/1
f 8/7/1 10/9/1 9/10/1 7/8/1
f 10/9/1 12/11/1 11/12/1 9/10/1
f 12/11/1 14/13/1 13/14/1 11/12/1
f 14/13/1 16/15/1 15/16/1 13/14/1
f 16/15/1 18/17/1 17/18/1 15/16/1
f 18/17/1 20/19/1 19/20/1 17/18/1
f 151/21/2 150/22/2 152/23/2 153/24/2
f 24/25/1 23/26/1 25/27/1 26/28/1
f 26/28/1 25/27/1 27/29/1 28/30/1
f 28/30/1 27/29/1 29/31/1 30/32/1
f 30/32/1 29/31/1 31/33/1
f 30/32/1 31/33/1 32/34/1
f 30/32/1 32/34/1 33/35/1 34/36/1
f 34/36/1 33/35/1 35/37/1 36/38/1
f 36/38/1 35/37/1 37/39/1 38/40/1
f 38/40/1 37/39/1 39/41/1 40/42/1
f 40/42/1 39/41/1 41/43/1 42/44/1
f 42/44/1 41/43/1 43/45/1 44/46/1
f 44/46/1 43/45/1 45/47/1 46/48/1
f 46/48/1 45/47/1 47/49/1 48/50/1
f 48/50/1 47/49/1 49/51/1 50/52/1
f 50/52/1 49/51/1 51/53/1 52/54/1
f 52/54/1 51/53/1 53/55/1 54/56/1
f 54/56/1 53/55/1 55/57/1 56/58/1
f 56/58/1 55/57/1 57/59/1 58/60/1
f 58/60/1 57/59/1 59/61/1 60/62/1
f 60/62/1 59/61/1 61/63/1 62/64/1
f 62/64/1 61/63/1 63/65/1 64/66/1
f 64/66/1 63/65/1 65/67/1 66/68/1
f 66/68/1 65/67/1 67/69/1 68/70/1
f 68/70/1 67/69/1 69/71/1 70/72/1
f 70/72/1 69/71/1 71/73/1 72/74/1
f 72/74/1 71/73/1 73/75/1 74/76/1
f 74/76/1 73/75/1 75/77/1 76/78/1
f 76/78/1 75/77/1 77/79/1 78/80/1
f 78/80/1 77/79/1 79/81/1 80/82/1
f 80/82/1 79/81/1 81/83/1 82/84/1
f 82/84/1 81/83/1 83/85/1 84/86/1
f 84/86/1 83/85/1 85/87/1 86/88/1
f 86/88/1 85/87/1 87/89/1 88/90/1
f 88/90/1 87/89/1 89/91/1 90/92/1
f 90/92/1 89/91/1 91/93/1 92/94/1
f 92/94/1 91/93/1 93/95/1 94/96/1
f 94/96/1 93/95/1 95/97/1 96/98/1
f 96/98/1 95/97/1 97/99/1 98/100/1
f 98/100/1 97/99/1 99/101/1 100/102/1
f 100/102/1 99/101/1 101/103/1 102/104/1
f 102/104/1 101/103/1 103/105/1 104/106/1
f 104/106/1 103/105/1 105/107/1 106/108/1
f 106/108/1 105/107/1 107/109/1 108/110/1
f 108/110/1 107/109/1 109/111/1 110/112/1
f 110/112/1 109/111/1 111/113/1 112/114/1
f 112/114/1 111/113/1 113/115/1 114/116/1
f 114/116/1 113/115/1 115/117/1 116/118/1
f 116/118/1 115/117/1 117/119/1 118/120/1
f 118/120/1 117/119/1 119/121/1 120/122/1
f 120/122/1 119/121/1 121/123/1 122/124/1
f 122/124/1 121/123/1 123/125/1
f 123/125/1 121/123/1 124/126/1 125/127/1
f 125/127/1 124/126/1 126/128/1 127/129/1
f 127/129/1 126/128/1 128/130/1 129/131/1
f 129/131/1 128/130/1 130/132/1 131/133/1
f 133/134/2 132/135/2 134/136/2 135/137/2
f 135/137/2 134/136/2 136/138/2 137/139/2
f 137/139/2 136/138/2 138/140/2 139/141/2
f 139/141/2 138/140/2 140/142/2 141/143/2
f 141/143/2 140/142/2 142/144/2 143/145/2
f 143/145/2 142/144/2 144/146/2 145/147/2
f 145/147/2 144/146/2 146/148/2 147/149/2
f 147/149/2 146/148/2 148/150/2 149/151/2
f 149/151/2 148/150/2 150/22/2 151/21/2
f 150/152/3 19/153/3 21/154/4 152/155/4
f 155/156/2 157/157/2 156/158/2 154/159/2
f 157/157/2 159/160/2 158/161/2 156/158/2
f 159/160/2 161/162/2 160/163/2 158/161/2
f 161/162/2 162/164/2 160/163/2
f 161/162/2 163/165/2 162/164/2
f 161/162/2 165/166/2 164/167/2 163/165/2
f 165/166/2 167/168/2 166/169/2 164/167/2
f 167/168/2 169/170/2 168/171/2 166/169/2
f 169/170/2 171/172/2 170/173/2 168/171/2
f 171/172/2 173/174/2 172/175/2 170/173/2
f 173/174/2 175/176/2 174/177/2 172/175/2
f 175/176/2 177/178/2 176/179/2 174/177/2
f 177/178/2 179/180/2 178/181/2 176/179/2
f 179/180/2 181/182/2 180/183/2 178/181/2
f 181/182/2 183/184/2 182/185/2 180/183/2
f 183/184/2 185/186/2 184/187/2 182/185/2
f 185/186/2 187/188/2 186/189/2 184/187/2
f 187/188/2 189/190/2 188/191/2 186/189/2
f 189/190/2 191/192/2 190/193/2 188/191/2
f 191/192/2 193/194/2 192/195/2 190/193/2
f 193/194/2 195/196/2 194/197/2 192/195/2
f 195/196/2 197/198/2 196/199/2 194/197/2
f 197/198/2 199/200/2 198/201/2 196/199/2
f 199/200/2 201/202/2 200/203/2 198/201/2
f 201/202/2 203/204/2 202/205/2 200/203/2
f 203/204/2 205/206/2 204/207/2 202/205/2
f 205/206/2 207/208/2 206/209/2 204/207/2
f 207/208/2 209/210/2 208/211/2 206/209/2
f 209/210/2 211/212/2 210/213/2 208/211/2
f 211/212/2 213/214/2 212/215/2 210/213/2
f 213/214/2 215/216/2 214/217/2 212/215/2
f 215/216/2 217/218/2 216/219/2 214/217/2
f 217/218/2 219/220/2 218/221/2 216/219/2
f 219/220/2 221/222/2 220/223/2 218/221/2
f 221/222/2 223/224/2 222/225/2 220/223/2
f 223/224/2 225/226/2 224/227/2 222/225/2
f 225/226/2 227/228/2 226/229/2 224/227/2
f 227/228/2 229/230/2 228/231/2 226/229/2
f 229/230/2 231/232/2 230/233/2 228/231/2
f 231/232/2 233/234/2 232/235/2 230/233/2
f 233/234/2 235/236/2 234/237/2 232/235/2
f 235/236/2 237/238/2 236/239/2 234/237/2
f 237/238/2 239/240/2 238/241/2 236/239/2
f 239/240/2 241/242/2 240/243/2 238/241/2
f 241/242/2 243/244/2 242/245/2 240/243/2
f 243/244/2 245/246/2 244/247/2 242/245/2
f 245/246/2 247/248/2 246/249/2 244/247/2
f 247/248/2 249/250/2 248/251/2 246/249/2
f 249/250/2 251/252/2 250/253/2 248/251/2
f 251/252/2 253/254/2 252/255/2 250/253/2
f 253/254/2 254/256/2 252/255/2
f 254/256/2 256/257/2 255/258/2 252/255/2
f 256/257/2 258/259/2 257/260/2 255/258/2
f 258/259/2 260/261/2 259/262/2 257/260/2
f 260/261/2 262/263/2 261/264/2 259/262/2
f 41/265/5 39/266/6 170/267/6 172/268/5
f 93/269/7 91/270/8 222/271/8 224/272/7
f 118/273/9 120/274/10 251/275/10 249/276/9
f 120/274/10 122/277/11 253/278/11 251/275/10
f 43/279/12 41/265/5 172/268/5 174/280/12
f 3/281/13 134/282/13 132/283/14 1/284/14
f 95/285/15 93/269/7 224/272/7 226/286/15
f 122/277/11 123/287/16 254/288/16 253/278/11
f 123/287/16 125/289/17 256/290/17 254/288/16
f 45/291/18 43/279/12 174/280/12 176/292/18
f 24/293/19 26/294/20 157/295/20 155/296/19
f 5/297/21 136/298/21 134/282/13 3/281/13
f 97/299/22 95/285/15 226/286/15 228/300/22
f 125/289/17 127/301/23 258/302/23 256/290/17
f 26/294/20 28/303/24 159/304/24 157/295/20
f 127/301/23 129/305/25 260/306/25 258/302/23
f 47/307/26 45/291/18 176/292/18 178/308/26
f 28/303/24 30/309/27 161/310/27 159/304/24
f 7/311/28 138/312/28 136/298/21 5/297/21
f 99/313/29 97/299/22 228/300/22 230/314/29
f 129/305/25 131/315/30 262/316/30 260/306/25
f 49/317/31 47/307/26 178/308/26 180/318/31
f 9/319/32 140/320/32 138/312/28 7/311/28
f 101/321/33 99/313/29 230/314/29 232/322/33
f 30/309/27 34/323/34 165/324/34 161/310/27
f 51/325/35 49/317/31 180/318/31 182/326/35
f 34/323/36 36/327/36 167/328/36 165/324/36
f 11/329/37 142/330/37 140/320/32 9/319/32
f 103/331/38 101/321/33 232/322/33 234/332/38
f 36/327/39 38/333/40 169/334/40 167/328/39
f 53/335/41 51/325/35 182/326/35 184/336/41
f 38/333/40 40/337/42 171/338/42 169/334/40
f 13/339/43 144/340/43 142/330/37 11/329/37
f 105/341/44 103/331/38 234/332/38 236/342/44
f 40/337/42 42/343/45 173/344/45 171/338/42
f 55/345/46 53/335/41 184/336/41 186/346/46
f 42/343/45 44/347/47 175/348/47 173/344/45
f 15/349/48 146/350/48 144/340/43 13/339/43
f 107/351/49 105/341/44 236/342/44 238/352/49
f 44/347/47 46/353/50 177/354/50 175/348/47
f 57/355/51 55/345/46 186/346/46 188/356/51
f 46/353/50 48/357/52 179/358/52 177/354/50
f 17/359/53 148/360/53 146/350/48 15/349/48
f 109/361/54 107/351/49 238/352/49 240/362/54
f 48/357/52 50/363/55 181/364/55 179/358/52
f 59/365/56 57/355/51 188/356/51 190/366/56
f 50/363/55 52/367/57 183/368/57 181/364/55
f 19/153/3 150/152/3 148/360/53 17/359/53
f 111/369/58 109/361/54 240/362/54 242/370/58
f 52/367/57 54/371/59 185/372/59 183/368/57
f 61/373/60 59/365/56 190/366/56 192/374/60
f 54/371/59 56/375/61 187/376/61 185/372/59
f 20/377/62 151/378/62 153/379/63 22/380/63
f 113/381/64 111/369/58 242/370/58 244/382/64
f 56/375/61 58/383/65 189/384/65 187/376/61
f 63/385/66 61/373/60 192/374/60 194/386/66
f 58/383/65 60/387/67 191/388/67 189/384/65
f 19/20/1 20/19/1 22/389/1 21/390/1
f 115/391/68 113/381/64 244/382/64 246/392/68
f 60/387/67 62/393/69 193/394/69 191/388/67
f 65/395/70 63/385/66 194/386/66 196/396/70
f 62/393/69 64/397/71 195/398/71 193/394/69
f 117/399/72 115/391/68 246/392/68 248/400/72
f 64/397/71 66/401/73 197/402/73 195/398/71
f 67/403/74 65/395/70 196/396/70 198/404/74
f 66/401/73 68/405/75 199/406/75 197/402/73
f 119/407/76 117/399/72 248/400/72 250/408/76
f 68/405/75 70/409/77 201/410/77 199/406/75
f 69/411/78 67/403/74 198/404/74 200/412/78
f 70/409/77 72/413/79 203/414/79 201/410/77
f 121/415/80 119/407/76 250/408/76 252/416/80
f 72/413/79 74/417/81 205/418/81 203/414/79
f 71/419/82 69/411/78 200/412/78 202/420/82
f 74/417/81 76/421/83 207/422/83 205/418/81
f 76/421/83 78/423/84 209/424/84 207/422/83
f 22/425/85 153/426/85 152/427/85 21/428/85
f 73/429/86 71/419/82 202/420/82 204/430/86
f 78/423/84 80/431/87 211/432/87 209/424/84
f 23/433/88 24/434/88 155/435/88 154/436/88
f 124/437/89 121/415/80 252/416/80 255/438/89
f 80/431/87 82/439/90 213/440/90 211/432/87
f 25/441/91 23/433/92 154/436/92 156/442/91
f 75/443/93 73/429/86 204/430/86 206/444/93
f 82/439/90 84/445/94 215/446/94 213/440/90
f 126/447/95 124/437/89 255/438/89 257/448/95
f 84/445/94 86/449/96 217/450/96 215/446/94
f 27/451/97 25/441/91 156/442/91 158/452/97
f 77/453/98 75/443/93 206/444/93 208/454/98
f 86/449/96 88/455/99 219/456/99 217/450/96
f 128/457/100 126/447/95 257/448/95 259/458/100
f 88/455/99 90/459/101 221/460/101 219/456/99
f 29/461/102 27/451/97 158/452/97 160/462/102
f 79/463/103 77/453/98 208/454/98 210/464/103
f 90/459/101 92/465/104 223/466/104 221/460/101
f 130/467/105 128/457/100 259/458/100 261/468/105
f 92/465/104 94/469/106 225/470/106 223/466/104
f 31/471/107 29/461/102 160/462/102 162/472/107
f 131/315/108 130/473/108 261/474/108 262/316/108
f 81/475/109 79/463/103 210/464/103 212/476/109
f 94/469/106 96/477/110 227/478/110 225/470/106
f 2/479/111 133/480/111 135/481/112 4/482/112
f 96/477/110 98/483/113 229/484/113 227/478/110
f 32/485/114 31/471/107 162/472/107 163/486/114
f 4/482/112 135/481/112 137/487/115 6/488/115
f 83/489/116 81/475/109 212/476/109 214/490/116
f 98/483/113 100/491/117 231/492/117 229/484/113
f 6/488/115 137/487/115 139/493/118 8/494/118
f 100/491/117 102/495/119 233/496/119 231/492/117
f 33/497/120 32/485/114 163/486/114 164/498/120
f 8/494/118 139/493/118 141/499/121 10/500/121
f 85/501/122 83/489/116 214/490/116 216/502/122
f 102/495/119 104/503/123 235/504/123 233/496/119
f 10/500/121 141/499/121 143/505/124 12/506/124
f 104/503/123 106/507/125 237/508/125 235/504/123
f 35/509/126 33/497/120 164/498/120 166/510/126
f 12/506/124 143/505/124 145/511/127 14/512/127
f 87/513/128 85/501/122 216/502/122 218/514/128
f 106/507/125 108/515/129 239/516/129 237/508/125
f 14/512/127 145/511/127 147/517/130 16/518/130
f 108/515/129 110/519/131 241/520/131 239/516/129
f 37/521/132 35/509/126 166/510/126 168/522/132
f 16/518/130 147/517/130 149/523/133 18/524/133
f 89/525/134 87/513/128 218/514/128 220/526/134
f 110/519/131 112/527/135 243/528/135 241/520/131
f 18/524/133 149/523/133 151/378/62 20/377/62
f 112/527/135 114/529/136 245/530/136 243/528/135
f 39/266/6 37/521/132 168/522/132 170/267/6
f 91/270/8 89/525/134 220/526/134 222/271/8
f 114/529/136 116/531/137 247/532/137 245/530/136
f 116/531/137 118/273/9 249/276/9 247/532/137
f 264/533/2 263/534/2 265/535/2 266/536/2
f 266/536/2 265/535/2 267/537/2 268/538/2
f 268/538/2 267/537/2 269/539/2 270/540/2
f 270/540/2 269/539/2 271/541/2 272/542/2
f 272/542/2 271/541/2 273/543/2 274/544/2
f 274/544/2 273/543/2 275/545/2 276/546/2
f 276/546/2 275/545/2 277/547/2 278/548/2
f 278/548/2 277/547/2 279/549/2 280/550/2
f 280/550/2 279/549/2 281/551/2 282/552/2
f 413/553/1 415/554/1 414/555/1 412/556/1
f 286/557/2 288/558/2 287/559/2 285/560/2
f 288/558/2 290/561/2 289/562/2 287/559/2
f 290/561/2 292/563/2 291/564/2 289/562/2
f 292/563/2 293/565/2 291/564/2
f 292/563/2 294/566/2 293/565/2
f 292/563/2 296/567/2 295/568/2 294/566/2
f 296/567/2 298/569/2 297/570/2 295/568/2
f 298/569/2 300/571/2 299/572/2 297/570/2
f 300/571/2 302/573/2 301/574/2 299/572/2
f 302/573/2 304/575/2 303/576/2 301/574/2
f 304/575/2 306/577/2 305/578/2 303/576/2
f 306/577/2 308/579/2 307/580/2 305/578/2
f 308/579/2 310/581/2 309/582/2 307/580/2
f 310/581/2 312/583/2 311/584/2 309/582/2
f 312/583/2 314/585/2 313/586/2 311/584/2
f 314/585/2 316/587/2 315/588/2 313/586/2
f 316/587/2 318/589/2 317/590/2 315/588/2
f 318/589/2 320/591/2 319/592/2 317/590/2
f 320/591/2 322/593/2 321/594/2 319/592/2
f 322/593/2 324/595/2 323/596/2 321/594/2
f 324/595/2 326/597/2 325/598/2 323/596/2
f 326/597/2 328/599/2 327/600/2 325/598/2
f 328/599/2 330/601/2 329/602/2 327/600/2
f 330/601/2 332/603/2 331/604/2 329/602/2
f 332/603/2 334/605/2 333/606/2 331/604/2
f 334/605/2 336/607/2 335/608/2 333/606/2
f 336/607/2 338/609/2 337/610/2 335/608/2
f 338/609/2 340/611/2 339/612/2 337/610/2
f 340/611/2 342/613/2 341/614/2 339/612/2
f 342/613/2 344/615/2 343/616/2 341/614/2
f 344/615/2 346/617/2 345/618/2 343/616/2
f 346/617/2 348/619/2 347/620/2 345/618/2
f 348/619/2 350/621/2 349/622/2 347/620/2
f 350/621/2 352/623/2 351/624/2 349/622/2
f 352/623/2 354/625/2 353/626/2 351/624/2
f 354/625/2 356/627/2 355/628/2 353/626/2
f 356/627/2 358/629/2 357/630/2 355/628/2
f 358/629/2 360/631/2 359/632/2 357/630/2
f 360/631/2 362/633/2 361/634/2 359/632/2
f 362/633/2 364/635/2 363/636/2 361/634/2
f 364/635/2 366/637/2 365/638/2 363/636/2
f 366/637/2 368/639/2 367/640/2 365/638/2
f 368/639/2 370/641/2 369/642/2 367/640/2
f 370/641/2 372/643/2 371/644/2 369/642/2
f 372/643/2 374/645/2 373/646/2 371/644/2
f 374/645/2 376/647/2 375/648/2 373/646/2
f 376/647/2 378/649/2 377/650/2 375/648/2
f 378/649/2 380/651/2 379/652/2 377/650/2
f 380/651/2 382/653/2 381/654/2 379/652/2
f 382/653/2 384/655/2 383/656/2 381/654/2
f 384/655/2 385/657/2 383/656/2
f 385/657/2 387/658/2 386/659/2 383/656/2
f 387/658/2 389/660/2 388/661/2 386/659/2
f 389/660/2 391/662/2 390/663/2 388/661/2
f 391/662/2 393/664/2 392/665/2 390/663/2
f 395/666/1 397/667/1 396/668/1 394/669/1
f 397/667/1 399/670/1 398/671/1 396/668/1
f 399/670/1 401/672/1 400/673/1 398/671/1
f 401/672/1 403/674/1 402/675/1 400/673/1
f 403/674/1 405/676/1 404/677/1 402/675/1
f 405/676/1 407/678/1 406/679/1 404/677/1
f 407/678/1 409/680/1 408/681/1 406/679/1
f 409/680/1 411/682/1 410/683/1 408/681/1
f 411/682/1 413/553/1 412/556/1 410/683/1
f 412/684/3 414/685/4 283/686/4 281/687/3
f 417/688/1 416/689/1 418/690/1 419/691/1
f 419/691/1 418/690/1 420/692/1 421/693/1
f 421/693/1 420/692/1 422/694/1 423/695/1
f 423/695/1 422/694/1 424/696/1
f 423/695/1 424/696/1 425/697/1
f 423/695/1 425/697/1 426/698/1 427/699/1
f 427/699/1 426/698/1 428/700/1 429/701/1
f 429/701/1 428/700/1 430/702/1 431/703/1
f 431/703/1 430/702/1 432/704/1 433/705/1
f 433/705/1 432/704/1 434/706/1 435/707/1
f 435/707/1 434/706/1 436/708/1 437/709/1
f 437/709/1 436/708/1 438/710/1 439/711/1
f 439/711/1 438/710/1 440/712/1 441/713/1
f 441/713/1 440/712/1 442/714/1 443/715/1
f 443/715/1 442/714/1 444/716/1 445/717/1
f 445/717/1 444/716/1 446/718/1 447/719/1
f 447/719/1 446/718/1 448/720/1 449/721/1
f 449/721/1 448/720/1 450/722/1 451/723/1
f 451/723/1 450/722/1 452/724/1 453/725/1
f 453/725/1 452/724/1 454/726/1 455/727/1
f 455/727/1 454/726/1 456/728/1 457/729/1
f 457/729/1 456/728/1 458/730/1 459/731/1
f 459/731/1 458/730/1 460/732/1 461/733/1
f 461/733/1 460/732/1 462/734/1 463/735/1
f 463/735/1 462/734/1 464/736/1 465/737/1
f 465/737/1 464/736/1 466/738/1 467/739/1
f 467/739/1 466/738/1 468/740/1 469/741/1
f 469/741/1 468/740/1 470/742/1 471/743/1
f 471/743/1 470/742/1 472/744/1 473/745/1
f 473/745/1 472/744/1 474/746/1 475/747/1
f 475/747/1 474/746/1 476/748/1 477/749/1
f 477/749/1 476/748/1 478/750/1 479/751/1
f 479/751/1 478/750/1 480/752/1 481/753/1
f 481/753/1 480/752/1 482/754/1 483/755/1
f 483/755/1 482/754/1 484/756/1 485/757/1
f 485/757/1 484/756/1 486/758/1 487/759/1
f 487/759/1 486/758/1 488/760/1 489/761/1
f 489/761/1 488/760/1 490/762/1 491/763/1
f 491/763/1 490/762/1 492/764/1 493/765/1
f 493/765/1 492/764/1 494/766/1 495/767/1
f 495/767/1 494/766/1 496/768/1 497/769/1
f 497/769/1 496/768/1 498/770/1 499/771/1
f 499/771/1 498/770/1 500/772/1 501/773/1
f 501/773/1 500/772/1 502/774/1 503/775/1
f 503/775/1 502/774/1 504/776/1 505/777/1
f 505/777/1 504/776/1 506/778/1 507/779/1
f 507/779/1 506/778/1 508/780/1 509/781/1
f 509/781/1 508/780/1 510/782/1 511/783/1
f 511/783/1 510/782/1 512/784/1 513/785/1
f 513/785/1 512/784/1 514/786/1 515/787/1
f 515/787/1 514/786/1 516/788/1
f 516/788/1 514/786/1 517/789/1 518/790/1
f 518/790/1 517/789/1 519/791/1 520/792/1
f 520/792/1 519/791/1 521/793/1 522/794/1
f 522/794/1 521/793/1 523/795/1 524/796/1
f 303/797/5 434/798/5 432/799/6 301/800/6
f 355/801/7 486/802/7 484/803/8 353/804/8
f 380/805/9 511/806/9 513/807/10 382/808/10
f 382/808/10 513/807/10 515/809/11 384/810/11
f 305/811/12 436/812/12 434/798/5 303/797/5
f 265/813/13 263/814/14 394/815/14 396/816/13
f 357/817/15 488/818/15 486/802/7 355/801/7
f 384/810/11 515/809/11 516/819/16 385/820/16
f 385/820/16 516/819/16 518/821/17 387/822/17
f 307/823/18 438/824/18 436/812/12 305/811/12
f 286/825/19 417/826/19 419/827/20 288/828/20
f 267/829/21 265/813/13 396/816/13 398/830/21
f 359/831/22 490/832/22 488/818/15 357/817/15
f 387/822/17 518/821/17 520/833/23 389/834/23
f 288/828/20 419/827/20 421/835/24 290/836/24
f 389/834/23 520/833/23 522/837/25 391/838/25
f 309/839/26 440/840/26 438/824/18 307/823/18
f 290/836/24 421/835/24 423/841/27 292/842/27
f 269/843/28 267/829/21 398/830/21 400/844/28
f 361/845/29 492/846/29 490/832/22 359/831/22
f 391/838/25 522/837/25 524/847/30 393/848/30
f 311/849/31 442/850/31 440/840/26 309/839/26
f 271/851/32 269/843/28 400/844/28 402/852/32
f 363/853/33 494/854/33 492/846/29 361/845/29
f 292/842/27 423/841/27 427/855/34 296/856/34
f 313/857/35 444/858/35 442/850/31 311/849/31
f 296/856/36 427/855/36 429/859/36 298/860/36
f 273/861/37 271/851/32 402/852/32 404/862/37
f 365/863/38 496/864/38 494/854/33 363/853/33
f 298/860/39 429/859/39 431/865/40 300/866/40
f 315/867/41 446/868/41 444/858/35 313/857/35
f 300/866/40 431/865/40 433/869/42 302/870/42
f 275/871/43 273/861/37 404/862/37 406/872/43
f 367/873/44 498/874/44 496/864/38 365/863/38
f 302/870/42 433/869/42 435/875/45 304/876/45
f 317/877/46 448/878/46 446/868/41 315/867/41
f 304/876/45 435/875/45 437/879/47 306/880/47
f 277/881/48 275/871/43 406/872/43 408/882/48
f 369/883/49 500/884/49 498/874/44 367/873/44
f 306/880/47 437/879/47 439/885/50 308/886/50
f 319/887/51 450/888/51 448/878/46 317/877/46
f 308/886/50 439/885/50 441/889/52 310/890/52
f 279/891/53 277/881/48 408/882/48 410/892/53
f 371/893/54 502/894/54 500/884/49 369/883/49
f 310/890/52 441/889/52 443/895/55 312/896/55
f 321/897/56 452/898/56 450/888/51 319/887/51
f 312/896/55 443/895/55 445/899/57 314/900/57
f 281/687/3 279/891/53 410/892/53 412/684/3
f 373/901/58 504/902/58 502/894/54 371/893/54
f 314/900/57 445/899/57 447/903/59 316/904/59
f 323/905/60 454/906/60 452/898/56 321/897/56
f 316/904/59 447/903/59 449/907/61 318/908/61
f 282/909/62 284/910/63 415/911/63 413/912/62
f 375/913/64 506/914/64 504/902/58 373/901/58
f 318/908/61 449/907/61 451/915/65 320/916/65
f 325/917/66 456/918/66 454/906/60 323/905/60
f 320/916/65 451/915/65 453/919/67 322/920/67
f 281/551/2 283/921/2 284/922/2 282/552/2
f 377/923/68 508/924/68 506/914/64 375/913/64
f 322/920/67 453/919/67 455/925/69 324/926/69
f 327/927/70 458/928/70 456/918/66 325/917/66
f 324/926/69 455/925/69 457/929/71 326/930/71
f 379/931/72 510/932/72 508/924/68 377/923/68
f 326/930/71 457/929/71 459/933/73 328/934/73
f 329/935/74 460/936/74 458/928/70 327/927/70
f 328/934/73 459/933/73 461/937/75 330/938/75
f 381/939/76 512/940/76 510/932/72 379/931/72
f 330/938/75 461/937/75 463/941/77 332/942/77
f 331/943/78 462/944/78 460/936/74 329/935/74
f 332/942/77 463/941/77 465/945/79 334/946/79
f 383/947/80 514/948/80 512/940/76 381/939/76
f 334/946/79 465/945/79 467/949/81 336/950/81
f 333/951/82 464/952/82 462/944/78 331/943/78
f 336/950/81 467/949/81 469/953/83 338/954/83
f 338/954/83 469/953/83 471/955/84 340/956/84
f 284/957/85 283/958/85 414/959/85 415/960/85
f 335/961/86 466/962/86 464/952/82 333/951/82
f 340/956/84 471/955/84 473/963/87 342/964/87
f 285/965/88 416/966/88 417/967/88 286/968/88
f 386/969/89 517/970/89 514/948/80 383/947/80
f 342/964/87 473/963/87 475/971/90 344/972/90
f 287/973/91 418/974/91 416/966/92 285/965/92
f 337/975/93 468/976/93 466/962/86 335/961/86
f 344/972/90 475/971/90 477/977/94 346/978/94
f 388/979/95 519/980/95 517/970/89 386/969/89
f 346/978/94 477/977/94 479/981/96 348/982/96
f 289/983/97 420/984/97 418/974/91 287/973/91
f 339/985/98 470/986/98 468/976/93 337/975/93
f 348/982/96 479/981/96 481/987/99 350/988/99
f 390/989/100 521/990/100 519/980/95 388/979/95
f 350/988/99 481/987/99 483/991/101 352/992/101
f 291/993/102 422/994/102 420/984/97 289/983/97
f 341/995/103 472/996/103 470/986/98 339/985/98
f 352/992/101 483/991/101 485/997/104 354/998/104
f 392/999/105 523/1000/105 521/990/100 390/989/100
f 354/998/104 485/997/104 487/1001/106 356/1002/106
f 293/1003/107 424/1004/107 422/994/102 291/993/102
f 393/848/108 524/847/108 523/1005/108 392/1006/108
f 343/1007/109 474/1008/109 472/996/103 341/995/103
f 356/1002/106 487/1001/106 489/1009/110 358/1010/110
f 264/1011/111 266/1012/112 397/1013/112 395/1014/111
f 358/1010/110 489/1009/110 491/1015/113 360/1016/113
f 294/1017/114 425/1018/114 424/1004/107 293/1003/107
f 266/1012/112 268/1019/115 399/1020/115 397/1013/112
f 345/1021/116 476/1022/116 474/1008/109 343/1007/109
f 360/1016/113 491/1015/113 493/1023/117 362/1024/117
f 268/1019/115 270/1025/118 401/1026/118 399/1020/115
f 362/1024/117 493/1023/117 495/1027/119 364/1028/119
f 295/1029/120 426/1030/120 425/1018/114 294/1017/114
f 270/1025/118 272/1031/121 403/1032/121 401/1026/118
f 347/1033/122 478/1034/122 476/1022/116 345/1021/116
f 364/1028/119 495/1027/119 497/1035/123 366/1036/123
f 272/1031/121 274/1037/124 405/1038/124 403/1032/121
f 366/1036/123 497/1035/123 499/1039/125 368/1040/125
f 297/1041/126 428/1042/126 426/1030/120 295/1029/120
f 274/1037/124 276/1043/127 407/1044/127 405/1038/124
f 349/1045/128 480/1046/128 478/1034/122 347/1033/122
f 368/1040/125 499/1039/125 501/1047/129 370/1048/129
f 276/1043/127 278/1049/130 409/1050/130 407/1044/127
f 370/1048/129 501/1047/129 503/1051/131 372/1052/131
f 299/1053/132 430/1054/132 428/1042/126 297/1041/126
f 278/1049/130 280/1055/133 411/1056/133 409/1050/130
f 351/1057/134 482/1058/134 480/1046/128 349/1045/128
f 372/1052/131 503/1051/131 505/1059/135 374/1060/135
f 280/1055/133 282/909/62 413/912/62 411/1056/133
f 374/1060/135 505/1059/135 507/1061/136 376/1062/136
f 301/800/6 432/799/6 430/1054/132 299/1053/132
f 353/804/8 484/803/8 482/1058/134 351/1057/134
f 376/1062/136 507/1061/136 509/1063/137 378/1064/137
f 378/1064/137 509/1063/137 511/806/9 380/805/9
