# Blender 4.1.1
# www.blender.org
mtllib 1.25m_Boiler_1m.mtl
o 1.25m_Boiler_Jacket
v 0.000000 -0.500000 -0.625000
v 0.161762 -0.500000 -0.603704
v 0.312500 -0.500000 -0.541266
v 0.441942 -0.500000 -0.441942
v 0.541266 -0.500000 -0.312500
v 0.603704 -0.500000 -0.161762
v 0.625000 -0.500000 0.000000
v 0.603704 -0.500000 0.161762
v 0.541266 -0.500000 0.312500
v 0.441942 -0.500000 0.441942
v 0.312500 -0.500000 0.541266
v 0.161762 -0.500000 0.603704
v 0.000000 -0.500000 0.625000
v -0.161762 -0.500000 0.603704
v -0.312500 -0.500000 0.541266
v -0.441942 -0.500000 0.441942
v -0.541266 -0.500000 0.312500
v -0.603704 -0.500000 0.161762
v -0.625000 -0.500000 0.000000
v -0.603704 -0.500000 -0.161762
v -0.541266 -0.500000 -0.312500
v -0.441942 -0.500000 -0.441942
v -0.312500 -0.500000 -0.541266
v -0.161762 -0.500000 -0.603704
v -0.161762 0.450000 -0.603704
v -0.312500 0.450000 -0.541266
v -0.441942 0.450000 -0.441942
v -0.541266 0.450000 -0.312500
v -0.603704 0.450000 -0.161762
v -0.625000 0.450000 0.000000
v -0.603704 0.450000 0.161762
v -0.541266 0.450000 0.312500
v -0.441942 0.450000 0.441942
v -0.312500 0.450000 0.541266
v -0.161762 0.450000 0.603704
v 0.000000 0.450000 0.625000
v 0.161762 0.450000 0.603704
v 0.312500 0.450000 0.541266
v 0.441942 0.450000 0.441942
v 0.541266 0.450000 0.312500
v 0.603704 0.450000 0.161762
v 0.625000 0.450000 0.000000
v 0.603704 0.450000 -0.161762
v 0.541266 0.450000 -0.312500
v 0.441942 0.450000 -0.441942
v 0.312500 0.450000 -0.541266
v 0.161762 0.450000 -0.603704
v 0.000000 0.450000 -0.625000
v 0.161762 -0.450000 -0.603704
v 0.312500 -0.450000 -0.541266
v 0.441942 -0.450000 -0.441942
v 0.541266 -0.450000 -0.312500
v 0.603704 -0.450000 -0.161762
v 0.625000 -0.450000 -0.000000
v 0.603704 -0.450000 0.161762
v 0.541266 -0.450000 0.312500
v 0.441942 -0.450000 0.441942
v 0.312500 -0.450000 0.541266
v 0.161762 -0.450000 0.603704
v 0.000000 -0.450000 0.625000
v -0.161762 -0.450000 0.603704
v -0.312500 -0.450000 0.541266
v -0.441942 -0.450000 0.441942
v -0.541266 -0.450000 0.312500
v -0.603704 -0.450000 0.161762
v -0.625000 -0.450000 -0.000000
v -0.603704 -0.450000 -0.161762
v -0.541266 -0.450000 -0.312500
v -0.441942 -0.450000 -0.441942
v -0.312500 -0.450000 -0.541266
v -0.161762 -0.450000 -0.603704
v 0.000000 -0.450000 -0.625000
v -0.161762 0.500000 -0.603704
v 0.000000 0.500000 -0.625000
v -0.312500 0.500000 -0.541266
v -0.441942 0.500000 -0.441942
v -0.541266 0.500000 -0.312500
v -0.603704 0.500000 -0.161762
v -0.625000 0.500000 -0.000000
v -0.603704 0.500000 0.161762
v -0.541266 0.500000 0.312500
v -0.441942 0.500000 0.441942
v -0.312500 0.500000 0.541266
v -0.161762 0.500000 0.603704
v 0.000000 0.500000 0.625000
v 0.161762 0.500000 0.603704
v 0.312500 0.500000 0.541266
v 0.441942 0.500000 0.441942
v 0.541266 0.500000 0.312500
v 0.603704 0.500000 0.161762
v 0.625000 0.500000 -0.000000
v 0.603704 0.500000 -0.161762
v 0.541266 0.500000 -0.312500
v 0.441942 0.500000 -0.441942
v 0.312500 0.500000 -0.541266
v 0.161762 0.500000 -0.603704
v 0.000000 0.440000 -0.620434
v 0.160580 0.440000 -0.599293
v 0.310217 0.440000 -0.537312
v 0.438713 0.440000 -0.438713
v 0.537312 0.440000 -0.310217
v 0.599293 0.440000 -0.160580
v 0.620434 0.440000 0.000000
v 0.599293 0.440000 0.160580
v 0.537312 0.440000 0.310217
v 0.438713 0.440000 0.438713
v 0.310217 0.440000 0.537312
v 0.160580 0.440000 0.599293
v 0.000000 0.440000 0.620434
v -0.160580 0.440000 0.599293
v -0.310217 0.440000 0.537312
v -0.438713 0.440000 0.438713
v -0.537312 0.440000 0.310217
v -0.599293 0.440000 0.160580
v -0.620434 0.440000 0.000000
v -0.599293 0.440000 -0.160580
v -0.537312 0.440000 -0.310217
v -0.438713 0.440000 -0.438713
v -0.310217 0.440000 -0.537312
v -0.160580 0.440000 -0.599293
v 0.160580 -0.440000 -0.599293
v 0.310217 -0.440000 -0.537312
v 0.438713 -0.440000 -0.438713
v 0.537312 -0.440000 -0.310217
v 0.599293 -0.440000 -0.160580
v 0.620434 -0.440000 -0.000000
v 0.599293 -0.440000 0.160580
v 0.537312 -0.440000 0.310217
v 0.438713 -0.440000 0.438713
v 0.310217 -0.440000 0.537312
v 0.160580 -0.440000 0.599293
v 0.000000 -0.440000 0.620434
v -0.160580 -0.440000 0.599293
v -0.310217 -0.440000 0.537312
v -0.438713 -0.440000 0.438713
v -0.537312 -0.440000 0.310217
v -0.599293 -0.440000 0.160580
v -0.620434 -0.440000 -0.000000
v -0.599293 -0.440000 -0.160580
v -0.537312 -0.440000 -0.310217
v -0.438713 -0.440000 -0.438713
v -0.310217 -0.440000 -0.537312
v -0.160580 -0.440000 -0.599293
v 0.000000 -0.440000 -0.620434
v 0.000000 -0.463722 -0.231741
v 0.000000 0.463722 -0.231741
v 0.036108 -0.463722 -0.222066
v 0.036108 0.463722 -0.222066
v 0.062540 -0.463722 -0.195633
v 0.062540 0.463722 -0.195633
v 0.072216 -0.463722 -0.159525
v 0.072216 0.463722 -0.159525
v 0.062540 -0.463722 -0.123417
v 0.062540 0.463722 -0.123417
v 0.036108 -0.463722 -0.096985
v 0.036108 0.463722 -0.096985
v 0.000000 -0.463722 -0.087310
v 0.000000 0.463722 -0.087310
v -0.036108 -0.463722 -0.096985
v -0.036108 0.463722 -0.096985
v -0.062540 -0.463722 -0.123417
v -0.062540 0.463722 -0.123417
v -0.072216 -0.463722 -0.159525
v -0.072216 0.463722 -0.159525
v -0.062540 -0.463722 -0.195633
v -0.062540 0.463722 -0.195633
v -0.036108 -0.463722 -0.222066
v -0.036108 0.463722 -0.222066
v 0.493563 -0.463722 -0.060810
v 0.493563 0.463722 -0.060810
v 0.529671 -0.463722 -0.051135
v 0.529671 0.463722 -0.051135
v 0.556103 -0.463722 -0.024703
v 0.556103 0.463722 -0.024703
v 0.565778 -0.463722 0.011405
v 0.565778 0.463722 0.011405
v 0.556103 -0.463722 0.047513
v 0.556103 0.463722 0.047513
v 0.529671 -0.463722 0.073946
v 0.529671 0.463722 0.073946
v 0.493563 -0.463722 0.083621
v 0.493563 0.463722 0.083621
v 0.457455 -0.463722 0.073946
v 0.457455 0.463722 0.073946
v 0.431022 -0.463722 0.047513
v 0.431022 0.463722 0.047513
v 0.421347 -0.463722 0.011405
v 0.421347 0.463722 0.011405
v 0.431022 -0.463722 -0.024703
v 0.431022 0.463722 -0.024703
v 0.457455 -0.463722 -0.051135
v 0.457455 0.463722 -0.051135
v 0.092175 -0.463722 -0.060810
v 0.092175 0.463722 -0.060810
v 0.128283 -0.463722 -0.051135
v 0.128283 0.463722 -0.051135
v 0.154716 -0.463722 -0.024703
v 0.154716 0.463722 -0.024703
v 0.164391 -0.463722 0.011405
v 0.164391 0.463722 0.011405
v 0.154716 -0.463722 0.047513
v 0.154716 0.463722 0.047513
v 0.128283 -0.463722 0.073946
v 0.128283 0.463722 0.073946
v 0.092175 -0.463722 0.083621
v 0.092175 0.463722 0.083621
v 0.056067 -0.463722 0.073946
v 0.056067 0.463722 0.073946
v 0.029635 -0.463722 0.047513
v 0.029635 0.463722 0.047513
v 0.019960 -0.463722 0.011405
v 0.019960 0.463722 0.011405
v 0.029635 -0.463722 -0.024703
v 0.029635 0.463722 -0.024703
v 0.056067 -0.463722 -0.051135
v 0.056067 0.463722 -0.051135
v 0.092175 -0.463722 -0.400003
v 0.092175 0.463722 -0.400003
v 0.128283 -0.463722 -0.390328
v 0.128283 0.463722 -0.390328
v 0.154716 -0.463722 -0.363895
v 0.154716 0.463722 -0.363895
v 0.164391 -0.463722 -0.327788
v 0.164391 0.463722 -0.327788
v 0.154716 -0.463722 -0.291680
v 0.154716 0.463722 -0.291680
v 0.128283 -0.463722 -0.265247
v 0.128283 0.463722 -0.265247
v 0.092175 -0.463722 -0.255572
v 0.092175 0.463722 -0.255572
v 0.056067 -0.463722 -0.265247
v 0.056067 0.463722 -0.265247
v 0.029635 -0.463722 -0.291680
v 0.029635 0.463722 -0.291680
v 0.019960 -0.463722 -0.327788
v 0.019960 0.463722 -0.327788
v 0.029635 -0.463722 -0.363895
v 0.029635 0.463722 -0.363895
v 0.056067 -0.463722 -0.390328
v 0.056067 0.463722 -0.390328
v 0.290224 -0.463722 -0.400003
v 0.290224 0.463722 -0.400003
v 0.326332 -0.463722 -0.390328
v 0.326332 0.463722 -0.390328
v 0.352764 -0.463722 -0.363895
v 0.352764 0.463722 -0.363895
v 0.362439 -0.463722 -0.327788
v 0.362439 0.463722 -0.327788
v 0.352764 -0.463722 -0.291680
v 0.352764 0.463722 -0.291680
v 0.326332 -0.463722 -0.265247
v 0.326332 0.463722 -0.265247
v 0.290224 -0.463722 -0.255572
v 0.290224 0.463722 -0.255572
v 0.254116 -0.463722 -0.265247
v 0.254116 0.463722 -0.265247
v 0.227683 -0.463722 -0.291680
v 0.227683 0.463722 -0.291680
v 0.218008 -0.463722 -0.327788
v 0.218008 0.463722 -0.327788
v 0.227683 -0.463722 -0.363895
v 0.227683 0.463722 -0.363895
v 0.254116 -0.463722 -0.390328
v 0.254116 0.463722 -0.390328
v 0.198049 -0.463722 -0.231741
v 0.198049 0.463722 -0.231741
v 0.234157 -0.463722 -0.222066
v 0.234157 0.463722 -0.222066
v 0.260589 -0.463722 -0.195633
v 0.260589 0.463722 -0.195633
v 0.270264 -0.463722 -0.159525
v 0.270264 0.463722 -0.159525
v 0.260589 -0.463722 -0.123417
v 0.260589 0.463722 -0.123417
v 0.234157 -0.463722 -0.096985
v 0.234157 0.463722 -0.096985
v 0.198049 -0.463722 -0.087310
v 0.198049 0.463722 -0.087310
v 0.161941 -0.463722 -0.096985
v 0.161941 0.463722 -0.096985
v 0.135508 -0.463722 -0.123417
v 0.135508 0.463722 -0.123417
v 0.125833 -0.463722 -0.159525
v 0.125833 0.463722 -0.159525
v 0.135508 -0.463722 -0.195633
v 0.135508 0.463722 -0.195633
v 0.161941 -0.463722 -0.222066
v 0.161941 0.463722 -0.222066
v 0.290224 -0.463722 -0.060810
v 0.290224 0.463722 -0.060810
v 0.326332 -0.463722 -0.051135
v 0.326332 0.463722 -0.051135
v 0.352764 -0.463722 -0.024703
v 0.352764 0.463722 -0.024703
v 0.362439 -0.463722 0.011405
v 0.362439 0.463722 0.011405
v 0.352764 -0.463722 0.047513
v 0.352764 0.463722 0.047513
v 0.326332 -0.463722 0.073946
v 0.326332 0.463722 0.073946
v 0.290224 -0.463722 0.083621
v 0.290224 0.463722 0.083621
v 0.254116 -0.463722 0.073946
v 0.254116 0.463722 0.073946
v 0.227683 -0.463722 0.047513
v 0.227683 0.463722 0.047513
v 0.218008 -0.463722 0.011405
v 0.218008 0.463722 0.011405
v 0.227683 -0.463722 -0.024703
v 0.227683 0.463722 -0.024703
v 0.254116 -0.463722 -0.051135
v 0.254116 0.463722 -0.051135
v 0.401388 -0.463722 -0.231741
v 0.401388 0.463722 -0.231741
v 0.437495 -0.463722 -0.222066
v 0.437495 0.463722 -0.222066
v 0.463928 -0.463722 -0.195633
v 0.463928 0.463722 -0.195633
v 0.473603 -0.463722 -0.159525
v 0.473603 0.463722 -0.159525
v 0.463928 -0.463722 -0.123417
v 0.463928 0.463722 -0.123417
v 0.437495 -0.463722 -0.096985
v 0.437495 0.463722 -0.096985
v 0.401388 -0.463722 -0.087310
v 0.401388 0.463722 -0.087310
v 0.365280 -0.463722 -0.096985
v 0.365280 0.463722 -0.096985
v 0.338847 -0.463722 -0.123417
v 0.338847 0.463722 -0.123417
v 0.329172 -0.463722 -0.159525
v 0.329172 0.463722 -0.159525
v 0.338847 -0.463722 -0.195633
v 0.338847 0.463722 -0.195633
v 0.365280 -0.463722 -0.222066
v 0.365280 0.463722 -0.222066
v -0.493563 -0.463722 -0.060810
v -0.493563 0.463722 -0.060810
v -0.529671 -0.463722 -0.051135
v -0.529671 0.463722 -0.051135
v -0.556103 -0.463722 -0.024703
v -0.556103 0.463722 -0.024703
v -0.565778 -0.463722 0.011405
v -0.565778 0.463722 0.011405
v -0.556103 -0.463722 0.047513
v -0.556103 0.463722 0.047513
v -0.529671 -0.463722 0.073946
v -0.529671 0.463722 0.073946
v -0.493563 -0.463722 0.083621
v -0.493563 0.463722 0.083621
v -0.457455 -0.463722 0.073946
v -0.457455 0.463722 0.073946
v -0.431022 -0.463722 0.047513
v -0.431022 0.463722 0.047513
v -0.421347 -0.463722 0.011405
v -0.421347 0.463722 0.011405
v -0.431022 -0.463722 -0.024703
v -0.431022 0.463722 -0.024703
v -0.457455 -0.463722 -0.051135
v -0.457455 0.463722 -0.051135
v -0.092175 -0.463722 -0.060810
v -0.092175 0.463722 -0.060810
v -0.128283 -0.463722 -0.051135
v -0.128283 0.463722 -0.051135
v -0.154716 -0.463722 -0.024703
v -0.154716 0.463722 -0.024703
v -0.164391 -0.463722 0.011405
v -0.164391 0.463722 0.011405
v -0.154716 -0.463722 0.047513
v -0.154716 0.463722 0.047513
v -0.128283 -0.463722 0.073946
v -0.128283 0.463722 0.073946
v -0.092175 -0.463722 0.083621
v -0.092175 0.463722 0.083621
v -0.056067 -0.463722 0.073946
v -0.056067 0.463722 0.073946
v -0.029635 -0.463722 0.047513
v -0.029635 0.463722 0.047513
v -0.019960 -0.463722 0.011405
v -0.019960 0.463722 0.011405
v -0.029635 -0.463722 -0.024703
v -0.029635 0.463722 -0.024703
v -0.056067 -0.463722 -0.051135
v -0.056067 0.463722 -0.051135
v -0.092175 -0.463722 -0.400003
v -0.092175 0.463722 -0.400003
v -0.128283 -0.463722 -0.390328
v -0.128283 0.463722 -0.390328
v -0.154716 -0.463722 -0.363895
v -0.154716 0.463722 -0.363895
v -0.164391 -0.463722 -0.327788
v -0.164391 0.463722 -0.327788
v -0.154716 -0.463722 -0.291680
v -0.154716 0.463722 -0.291680
v -0.128283 -0.463722 -0.265247
v -0.128283 0.463722 -0.265247
v -0.092175 -0.463722 -0.255572
v -0.092175 0.463722 -0.255572
v -0.056067 -0.463722 -0.265247
v -0.056067 0.463722 -0.265247
v -0.029635 -0.463722 -0.291680
v -0.029635 0.463722 -0.291680
v -0.019960 -0.463722 -0.327788
v -0.019960 0.463722 -0.327788
v -0.029635 -0.463722 -0.363895
v -0.029635 0.463722 -0.363895
v -0.056067 -0.463722 -0.390328
v -0.056067 0.463722 -0.390328
v -0.290224 -0.463722 -0.400003
v -0.290224 0.463722 -0.400003
v -0.326332 -0.463722 -0.390328
v -0.326332 0.463722 -0.390328
v -0.352765 -0.463722 -0.363895
v -0.352765 0.463722 -0.363895
v -0.362440 -0.463722 -0.327788
v -0.362440 0.463722 -0.327788
v -0.352765 -0.463722 -0.291680
v -0.352765 0.463722 -0.291680
v -0.326332 -0.463722 -0.265247
v -0.326332 0.463722 -0.265247
v -0.290224 -0.463722 -0.255572
v -0.290224 0.463722 -0.255572
v -0.254116 -0.463722 -0.265247
v -0.254116 0.463722 -0.265247
v -0.227684 -0.463722 -0.291680
v -0.227684 0.463722 -0.291680
v -0.218009 -0.463722 -0.327788
v -0.218009 0.463722 -0.327788
v -0.227684 -0.463722 -0.363895
v -0.227684 0.463722 -0.363895
v -0.254116 -0.463722 -0.390328
v -0.254116 0.463722 -0.390328
v -0.198049 -0.463722 -0.231741
v -0.198049 0.463722 -0.231741
v -0.234157 -0.463722 -0.222066
v -0.234157 0.463722 -0.222066
v -0.260589 -0.463722 -0.195633
v -0.260589 0.463722 -0.195633
v -0.270264 -0.463722 -0.159525
v -0.270264 0.463722 -0.159525
v -0.260589 -0.463722 -0.123417
v -0.260589 0.463722 -0.123417
v -0.234157 -0.463722 -0.096985
v -0.234157 0.463722 -0.096985
v -0.198049 -0.463722 -0.087310
v -0.198049 0.463722 -0.087310
v -0.161941 -0.463722 -0.096985
v -0.161941 0.463722 -0.096985
v -0.135508 -0.463722 -0.123417
v -0.135508 0.463722 -0.123417
v -0.125833 -0.463722 -0.159525
v -0.125833 0.463722 -0.159525
v -0.135508 -0.463722 -0.195633
v -0.135508 0.463722 -0.195633
v -0.161941 -0.463722 -0.222066
v -0.161941 0.463722 -0.222066
v -0.290224 -0.463722 -0.060810
v -0.290224 0.463722 -0.060810
v -0.326332 -0.463722 -0.051135
v -0.326332 0.463722 -0.051135
v -0.352765 -0.463722 -0.024703
v -0.352765 0.463722 -0.024703
v -0.362440 -0.463722 0.011405
v -0.362440 0.463722 0.011405
v -0.352765 -0.463722 0.047513
v -0.352765 0.463722 0.047513
v -0.326332 -0.463722 0.073946
v -0.326332 0.463722 0.073946
v -0.290224 -0.463722 0.083621
v -0.290224 0.463722 0.083621
v -0.254116 -0.463722 0.073946
v -0.254116 0.463722 0.073946
v -0.227684 -0.463722 0.047513
v -0.227684 0.463722 0.047513
v -0.218009 -0.463722 0.011405
v -0.218009 0.463722 0.011405
v -0.227684 -0.463722 -0.024703
v -0.227684 0.463722 -0.024703
v -0.254116 -0.463722 -0.051135
v -0.254116 0.463722 -0.051135
v -0.401388 -0.463722 -0.231741
v -0.401388 0.463722 -0.231741
v -0.437496 -0.463722 -0.222066
v -0.437496 0.463722 -0.222066
v -0.463928 -0.463722 -0.195633
v -0.463928 0.463722 -0.195633
v -0.473603 -0.463722 -0.159525
v -0.473603 0.463722 -0.159525
v -0.463928 -0.463722 -0.123417
v -0.463928 0.463722 -0.123417
v -0.437496 -0.463722 -0.096985
v -0.437496 0.463722 -0.096985
v -0.401388 -0.463722 -0.087310
v -0.401388 0.463722 -0.087310
v -0.365280 -0.463722 -0.096985
v -0.365280 0.463722 -0.096985
v -0.338847 -0.463722 -0.123417
v -0.338847 0.463722 -0.123417
v -0.329172 -0.463722 -0.159525
v -0.329172 0.463722 -0.159525
v -0.338847 -0.463722 -0.195633
v -0.338847 0.463722 -0.195633
v -0.365280 -0.463722 -0.222066
v -0.365280 0.463722 -0.222066
v -0.103891 0.483765 0.371615
v -0.089972 0.483765 0.319670
v 0.089972 0.483765 0.423561
v 0.051946 0.483765 0.461588
v -0.089972 0.483765 0.423561
v -0.051946 0.483765 0.461588
v 0.103891 0.483765 0.371615
v 0.089972 0.483765 0.319670
v 0.051946 0.483765 0.281643
v -0.051946 0.483765 0.281643
v -0.000000 0.483765 0.475506
v -0.000000 0.483765 0.267724
v -0.103891 -0.483765 0.371615
v -0.089972 -0.483765 0.319670
v 0.089972 -0.483765 0.423561
v 0.051946 -0.483765 0.461588
v -0.089972 -0.483765 0.423561
v -0.051946 -0.483765 0.461588
v 0.103891 -0.483765 0.371615
v 0.089972 -0.483765 0.319670
v 0.051946 -0.483765 0.281643
v -0.051946 -0.483765 0.281643
v -0.000000 -0.483765 0.475507
v -0.000000 -0.483765 0.267724
vn -0.0000 -0.4154 -0.9097
vn 0.2354 -0.4154 -0.8787
vn -0.2354 0.4154 -0.8787
vn -0.0000 0.4154 -0.9097
vn -0.4548 0.4154 -0.7878
vn -0.6432 0.4154 -0.6432
vn -0.7878 0.4154 -0.4548
vn -0.8787 0.4154 -0.2354
vn -0.9097 0.4154 -0.0000
vn -0.8787 0.4154 0.2354
vn -0.7878 0.4154 0.4548
vn -0.6432 0.4154 0.6432
vn -0.4548 0.4154 0.7878
vn -0.2354 0.4154 0.8787
vn -0.0000 0.4154 0.9097
vn 0.2354 0.4154 0.8787
vn 0.4548 0.4154 0.7878
vn 0.6432 0.4154 0.6432
vn 0.7878 0.4154 0.4548
vn 0.8787 0.4154 0.2354
vn 0.9097 0.4154 -0.0000
vn 0.8787 0.4154 -0.2354
vn 0.7878 0.4154 -0.4548
vn 0.6432 0.4154 -0.6432
vn 0.4548 0.4154 -0.7878
vn 0.2354 0.4154 -0.8787
vn -0.2588 -0.0000 -0.9659
vn -0.0000 -0.0000 -1.0000
vn -0.5000 -0.0000 -0.8660
vn -0.7071 -0.0000 -0.7071
vn -0.8660 -0.0000 -0.5000
vn -0.9659 -0.0000 -0.2588
vn -1.0000 -0.0000 -0.0000
vn -0.9659 -0.0000 0.2588
vn -0.8660 -0.0000 0.5000
vn -0.7071 -0.0000 0.7071
vn -0.5000 -0.0000 0.8660
vn -0.2588 -0.0000 0.9659
vn -0.0000 -0.0000 1.0000
vn 0.2588 -0.0000 0.9659
vn 0.5000 -0.0000 0.8660
vn 0.7071 -0.0000 0.7071
vn 0.8660 -0.0000 0.5000
vn 0.9659 -0.0000 0.2588
vn 1.0000 -0.0000 -0.0000
vn 0.9659 -0.0000 -0.2588
vn 0.8660 -0.0000 -0.5000
vn 0.7071 -0.0000 -0.7071
vn 0.5000 -0.0000 -0.8660
vn 0.2588 -0.0000 -0.9659
vn 0.4548 -0.4154 -0.7878
vn 0.6432 -0.4154 -0.6432
vn 0.7878 -0.4154 -0.4548
vn 0.8787 -0.4154 -0.2354
vn 0.9097 -0.4154 -0.0000
vn 0.8787 -0.4154 0.2354
vn 0.7878 -0.4154 0.4548
vn 0.6432 -0.4154 0.6432
vn 0.4548 -0.4154 0.7878
vn 0.2354 -0.4154 0.8787
vn -0.0000 -0.4154 0.9097
vn -0.2354 -0.4154 0.8787
vn -0.4548 -0.4154 0.7878
vn -0.6432 -0.4154 0.6432
vn -0.7878 -0.4154 0.4548
vn -0.8787 -0.4154 0.2354
vn -0.9097 -0.4154 -0.0000
vn -0.8787 -0.4154 -0.2354
vn -0.7878 -0.4154 -0.4548
vn -0.6432 -0.4154 -0.6432
vn -0.4548 -0.4154 -0.7878
vn -0.2354 -0.4154 -0.8787
vt 0.841106 0.312328
vt 0.839421 0.312328
vt 0.839421 0.287442
vt 0.841106 0.287442
vt 0.976667 0.337212
vt 0.976668 0.312328
vt 0.978352 0.312328
vt 0.978352 0.337212
vt 0.976666 0.362096
vt 0.978351 0.362096
vt 0.976664 0.386976
vt 0.978349 0.386976
vt 0.976662 0.411860
vt 0.978346 0.411860
vt 0.976658 0.436738
vt 0.978343 0.436738
vt 0.976653 0.461617
vt 0.978338 0.461618
vt 0.976649 0.486495
vt 0.978333 0.486495
vt 0.976644 0.511370
vt 0.978329 0.511370
vt 0.976641 0.536244
vt 0.978325 0.536244
vt 0.976637 0.561119
vt 0.978322 0.561118
vt 0.976632 0.585995
vt 0.978319 0.585998
vt 0.976622 0.610776
vt 0.978307 0.610865
vt 0.976632 0.038556
vt 0.976622 0.013677
vt 0.978307 0.013588
vt 0.978319 0.038552
vt 0.976637 0.063442
vt 0.978322 0.063443
vt 0.976641 0.088320
vt 0.978325 0.088319
vt 0.976644 0.113201
vt 0.978329 0.113201
vt 0.976649 0.138085
vt 0.978333 0.138084
vt 0.976653 0.162970
vt 0.978338 0.162968
vt 0.976658 0.187858
vt 0.978343 0.187858
vt 0.976662 0.212749
vt 0.978346 0.212748
vt 0.976664 0.237641
vt 0.978349 0.237640
vt 0.976666 0.262535
vt 0.978351 0.262535
vt 0.976667 0.287439
vt 0.978352 0.287439
vt 0.831775 0.337209
vt 0.831776 0.312328
vt 0.839421 0.337209
vt 0.831775 0.362090
vt 0.839421 0.362090
vt 0.831774 0.386967
vt 0.839420 0.386967
vt 0.831773 0.411848
vt 0.839419 0.411848
vt 0.831772 0.436723
vt 0.839418 0.436723
vt 0.831771 0.461599
vt 0.839416 0.461600
vt 0.831769 0.486477
vt 0.839414 0.486478
vt 0.831767 0.511352
vt 0.839412 0.511352
vt 0.831764 0.536225
vt 0.839409 0.536226
vt 0.831759 0.561098
vt 0.839405 0.561101
vt 0.831744 0.585981
vt 0.839403 0.585981
vt 0.831739 0.610846
vt 0.839408 0.610848
vt 0.831744 0.038570
vt 0.831739 0.013608
vt 0.839408 0.013606
vt 0.839403 0.038570
vt 0.831759 0.063463
vt 0.839405 0.063461
vt 0.831764 0.088339
vt 0.839409 0.088338
vt 0.831767 0.113220
vt 0.839412 0.113219
vt 0.831769 0.138103
vt 0.839414 0.138102
vt 0.831771 0.162988
vt 0.839416 0.162987
vt 0.831772 0.187874
vt 0.839418 0.187873
vt 0.831773 0.212761
vt 0.839419 0.212761
vt 0.831774 0.237650
vt 0.839420 0.237650
vt 0.831775 0.262541
vt 0.839421 0.262541
vt 0.831775 0.287442
vt 0.985999 0.337213
vt 0.985999 0.312328
vt 0.985998 0.362097
vt 0.985996 0.386977
vt 0.985993 0.411861
vt 0.985990 0.436740
vt 0.985984 0.461621
vt 0.985978 0.486497
vt 0.985974 0.511371
vt 0.985970 0.536245
vt 0.985969 0.561118
vt 0.985977 0.586001
vt 0.985976 0.610866
vt 0.985977 0.038550
vt 0.985976 0.013588
vt 0.985969 0.063443
vt 0.985970 0.088319
vt 0.985974 0.113200
vt 0.985978 0.138082
vt 0.985984 0.162965
vt 0.985990 0.187856
vt 0.985993 0.212748
vt 0.985996 0.237640
vt 0.985998 0.262534
vt 0.985999 0.287439
vt 0.841105 0.262541
vt 0.841105 0.237649
vt 0.841104 0.212761
vt 0.841102 0.187873
vt 0.841101 0.162987
vt 0.841098 0.138102
vt 0.841096 0.113219
vt 0.841094 0.088337
vt 0.841091 0.063459
vt 0.841089 0.038573
vt 0.841093 0.013695
vt 0.841089 0.585978
vt 0.841093 0.610759
vt 0.841091 0.561102
vt 0.841094 0.536227
vt 0.841096 0.511352
vt 0.841098 0.486477
vt 0.841101 0.461600
vt 0.841102 0.436723
vt 0.841104 0.411848
vt 0.841105 0.386967
vt 0.841105 0.362090
vt 0.841106 0.337209
vt 0.067932 0.617988
vt 0.077106 0.617988
vt 0.077106 0.990575
vt 0.067932 0.990575
vt 0.086281 0.617988
vt 0.086281 0.990575
vt 0.095455 0.617988
vt 0.095455 0.990575
vt 0.104630 0.617988
vt 0.104630 0.990575
vt 0.113804 0.617988
vt 0.113804 0.990575
vt 0.122979 0.617988
vt 0.122979 0.990575
vt 0.012884 0.617988
vt 0.022059 0.617988
vt 0.022059 0.990575
vt 0.012884 0.990575
vt 0.031233 0.617988
vt 0.031233 0.990575
vt 0.040408 0.617988
vt 0.040408 0.990575
vt 0.049582 0.617988
vt 0.049582 0.990575
vt 0.058757 0.617988
vt 0.058757 0.990575
vt 0.067932 0.617988
vt 0.077106 0.617988
vt 0.077106 0.990575
vt 0.067932 0.990575
vt 0.086281 0.617988
vt 0.086281 0.990575
vt 0.095455 0.617988
vt 0.095455 0.990575
vt 0.104630 0.617988
vt 0.104630 0.990575
vt 0.113804 0.617988
vt 0.113804 0.990575
vt 0.122979 0.617988
vt 0.122979 0.990575
vt 0.012884 0.617988
vt 0.022059 0.617988
vt 0.022059 0.990575
vt 0.012884 0.990575
vt 0.031233 0.617988
vt 0.031233 0.990575
vt 0.040408 0.617988
vt 0.040408 0.990575
vt 0.049582 0.617988
vt 0.049582 0.990575
vt 0.058757 0.617988
vt 0.058757 0.990575
vt 0.067932 0.617988
vt 0.077106 0.617988
vt 0.086281 0.617988
vt 0.095455 0.617988
vt 0.104630 0.617988
vt 0.113804 0.990575
vt 0.122979 0.617988
vt 0.122979 0.990575
vt 0.012884 0.617988
vt 0.022059 0.617988
vt 0.022059 0.990575
vt 0.031233 0.617988
vt 0.031233 0.990575
vt 0.040408 0.617988
vt 0.049582 0.617988
vt 0.049582 0.990575
vt 0.058757 0.617988
vt 0.077106 0.617988
vt 0.077106 0.990575
vt 0.067932 0.990575
vt 0.086281 0.990575
vt 0.095455 0.617988
vt 0.095455 0.990575
vt 0.104630 0.990575
vt 0.113805 0.617988
vt 0.113805 0.990575
vt 0.122979 0.990575
vt 0.022059 0.990575
vt 0.031233 0.990575
vt 0.040408 0.990575
vt 0.049582 0.990575
vt 0.058757 0.990575
vt 0.122979 0.617988
vt 0.022059 0.617988
vt 0.040408 0.617988
vt 0.040408 0.990575
vt 0.067932 0.990575
vt 0.086281 0.990575
vt 0.104630 0.617988
vt 0.104630 0.990575
vt 0.067932 0.617988
vt 0.077106 0.617988
vt 0.086281 0.617988
vt 0.095455 0.617988
vt 0.095455 0.990575
vt 0.104630 0.617988
vt 0.113805 0.617988
vt 0.113804 0.990575
vt 0.122979 0.617988
vt 0.122979 0.990575
vt 0.012884 0.617988
vt 0.022059 0.617988
vt 0.031233 0.617988
vt 0.040408 0.617988
vt 0.049582 0.617988
vt 0.058757 0.617988
vt 0.067932 0.617988
vt 0.067932 0.990575
vt 0.086281 0.990575
vt 0.104630 0.990575
vt 0.113804 0.990575
vt 0.122979 0.617988
vt 0.122979 0.990575
vt 0.022059 0.990575
vt 0.012884 0.990575
vt 0.031233 0.617988
vt 0.031233 0.990575
vt 0.040408 0.617988
vt 0.040408 0.990575
vt 0.049582 0.617988
vt 0.049583 0.990575
vt 0.058757 0.617988
vt 0.104630 0.990575
vt 0.067932 0.990575
vt 0.058757 0.990575
vt 0.049582 0.990575
vt 0.122979 0.617988
vt 0.113804 0.617988
vt 0.104630 0.990575
vt 0.104630 0.617988
vt 0.095455 0.990575
vt 0.095455 0.617988
vt 0.086281 0.990575
vt 0.086281 0.617988
vt 0.077106 0.990575
vt 0.077106 0.617988
vt 0.067932 0.617988
vt 0.067932 0.990575
vt 0.049583 0.990575
vt 0.049583 0.617988
vt 0.031233 0.617988
vt 0.012884 0.990575
vt 0.012884 0.617988
vt 0.122979 0.617988
vt 0.122979 0.990575
vt 0.104630 0.990575
vt 0.104630 0.617988
vt 0.086281 0.990575
vt 0.086281 0.617988
vt 0.067932 0.617988
vt 0.058757 0.990575
vt 0.058757 0.617988
vt 0.049582 0.617988
vt 0.040408 0.617988
vt 0.031233 0.617988
vt 0.022059 0.617988
vt 0.012884 0.617988
vt 0.122979 0.617988
vt 0.122979 0.990575
vt 0.113804 0.990575
vt 0.113804 0.617988
vt 0.104630 0.990575
vt 0.104630 0.617988
vt 0.095455 0.990575
vt 0.095455 0.617988
vt 0.077106 0.990575
vt 0.077106 0.617988
vt 0.113805 0.990575
vt 0.095455 0.990575
vt 0.031233 0.990575
vt 0.031233 0.617988
vt 0.022059 0.990575
vt 0.022059 0.617988
vt 0.113804 0.990575
vt 0.127828 0.620421
vt 0.140648 0.620421
vt 0.140648 0.989828
vt 0.127828 0.989828
vt 0.204745 0.620421
vt 0.217565 0.620421
vt 0.217565 0.989828
vt 0.204745 0.989828
vt 0.153467 0.620421
vt 0.166287 0.620421
vt 0.166287 0.989828
vt 0.153467 0.989828
vt 0.243204 0.620421
vt 0.256024 0.620421
vt 0.256024 0.989828
vt 0.243204 0.989828
vt 0.179106 0.620421
vt 0.179106 0.989828
vt 0.268843 0.620421
vt 0.268843 0.989828
vt 0.230385 0.620421
vt 0.230384 0.989828
vt 0.191926 0.620421
vt 0.191926 0.989828
vt 0.281663 0.620421
vt 0.281663 0.989828
s 1
usemtl 1.25m_Boiler
f 97/1/1 48/2/1 47/3/2 98/4/2
f 143/5/3 144/6/4 72/7/4 71/8/3
f 142/9/5 143/5/3 71/8/3 70/10/5
f 141/11/6 142/9/5 70/10/5 69/12/6
f 140/13/7 141/11/6 69/12/6 68/14/7
f 139/15/8 140/13/7 68/14/7 67/16/8
f 138/17/9 139/15/8 67/16/8 66/18/9
f 137/19/10 138/17/9 66/18/9 65/20/10
f 136/21/11 137/19/10 65/20/10 64/22/11
f 135/23/12 136/21/11 64/22/11 63/24/12
f 134/25/13 135/23/12 63/24/12 62/26/13
f 133/27/14 134/25/13 62/26/13 61/28/14
f 132/29/15 133/27/14 61/28/14 60/30/15
f 131/31/16 132/32/15 60/33/15 59/34/16
f 130/35/17 131/31/16 59/34/16 58/36/17
f 129/37/18 130/35/17 58/36/17 57/38/18
f 128/39/19 129/37/18 57/38/18 56/40/19
f 127/41/20 128/39/19 56/40/19 55/42/20
f 126/43/21 127/41/20 55/42/20 54/44/21
f 125/45/22 126/43/21 54/44/21 53/46/22
f 124/47/23 125/45/22 53/46/22 52/48/23
f 123/49/24 124/47/23 52/48/23 51/50/24
f 122/51/25 123/49/24 51/50/24 50/52/25
f 121/53/26 122/51/25 50/52/25 49/54/26
f 73/55/27 74/56/28 48/2/28 25/57/27
f 75/58/29 73/55/27 25/57/27 26/59/29
f 76/60/30 75/58/29 26/59/29 27/61/30
f 77/62/31 76/60/30 27/61/30 28/63/31
f 78/64/32 77/62/31 28/63/31 29/65/32
f 79/66/33 78/64/32 29/65/32 30/67/33
f 80/68/34 79/66/33 30/67/33 31/69/34
f 81/70/35 80/68/34 31/69/34 32/71/35
f 82/72/36 81/70/35 32/71/35 33/73/36
f 83/74/37 82/72/36 33/73/36 34/75/37
f 84/76/38 83/74/37 34/75/37 35/77/38
f 85/78/39 84/76/38 35/77/38 36/79/39
f 86/80/40 85/81/39 36/82/39 37/83/40
f 87/84/41 86/80/40 37/83/40 38/85/41
f 88/86/42 87/84/41 38/85/41 39/87/42
f 89/88/43 88/86/42 39/87/42 40/89/43
f 90/90/44 89/88/43 40/89/43 41/91/44
f 91/92/45 90/90/44 41/91/44 42/93/45
f 92/94/46 91/92/45 42/93/45 43/95/46
f 93/96/47 92/94/46 43/95/46 44/97/47
f 94/98/48 93/96/47 44/97/47 45/99/48
f 95/100/49 94/98/48 45/99/48 46/101/49
f 96/102/50 95/100/49 46/101/49 47/3/50
f 24/103/27 71/8/27 72/7/28 1/104/28
f 23/105/29 70/10/29 71/8/27 24/103/27
f 22/106/30 69/12/30 70/10/29 23/105/29
f 21/107/31 68/14/31 69/12/30 22/106/30
f 20/108/32 67/16/32 68/14/31 21/107/31
f 19/109/33 66/18/33 67/16/32 20/108/32
f 18/110/34 65/20/34 66/18/33 19/109/33
f 17/111/35 64/22/35 65/20/34 18/110/34
f 16/112/36 63/24/36 64/22/35 17/111/35
f 15/113/37 62/26/37 63/24/36 16/112/36
f 14/114/38 61/28/38 62/26/37 15/113/37
f 13/115/39 60/30/39 61/28/38 14/114/38
f 12/116/40 59/34/40 60/33/39 13/117/39
f 11/118/41 58/36/41 59/34/40 12/116/40
f 10/119/42 57/38/42 58/36/41 11/118/41
f 9/120/43 56/40/43 57/38/42 10/119/42
f 8/121/44 55/42/44 56/40/43 9/120/43
f 7/122/45 54/44/45 55/42/44 8/121/44
f 6/123/46 53/46/46 54/44/45 7/122/45
f 5/124/47 52/48/47 53/46/46 6/123/46
f 4/125/48 51/50/48 52/48/47 5/124/47
f 3/126/49 50/52/49 51/50/48 4/125/48
f 2/127/50 49/54/50 50/52/49 3/126/49
f 1/104/28 72/7/28 49/54/50 2/127/50
f 48/2/28 74/56/28 96/102/50 47/3/50
f 47/3/2 46/101/51 99/128/51 98/4/2
f 46/101/51 45/99/52 100/129/52 99/128/51
f 45/99/52 44/97/53 101/130/53 100/129/52
f 44/97/53 43/95/54 102/131/54 101/130/53
f 43/95/54 42/93/55 103/132/55 102/131/54
f 42/93/55 41/91/56 104/133/56 103/132/55
f 41/91/56 40/89/57 105/134/57 104/133/56
f 40/89/57 39/87/58 106/135/58 105/134/57
f 39/87/58 38/85/59 107/136/59 106/135/58
f 38/85/59 37/83/60 108/137/60 107/136/59
f 37/83/60 36/82/61 109/138/61 108/137/60
f 36/79/61 35/77/62 110/139/62 109/140/61
f 35/77/62 34/75/63 111/141/63 110/139/62
f 34/75/63 33/73/64 112/142/64 111/141/63
f 33/73/64 32/71/65 113/143/65 112/142/64
f 32/71/65 31/69/66 114/144/66 113/143/65
f 31/69/66 30/67/67 115/145/67 114/144/66
f 30/67/67 29/65/68 116/146/68 115/145/67
f 29/65/68 28/63/69 117/147/69 116/146/68
f 28/63/69 27/61/70 118/148/70 117/147/69
f 27/61/70 26/59/71 119/149/71 118/148/70
f 26/59/71 25/57/72 120/150/72 119/149/71
f 25/57/72 48/2/1 97/1/1 120/150/72
f 144/6/28 97/1/28 98/4/50 121/53/50
f 72/7/4 144/6/4 121/53/26 49/54/26
f 98/4/50 99/128/49 122/51/49 121/53/50
f 99/128/49 100/129/48 123/49/48 122/51/49
f 100/129/48 101/130/47 124/47/47 123/49/48
f 101/130/47 102/131/46 125/45/46 124/47/47
f 102/131/46 103/132/45 126/43/45 125/45/46
f 103/132/45 104/133/44 127/41/44 126/43/45
f 104/133/44 105/134/43 128/39/43 127/41/44
f 105/134/43 106/135/42 129/37/42 128/39/43
f 106/135/42 107/136/41 130/35/41 129/37/42
f 107/136/41 108/137/40 131/31/40 130/35/41
f 108/137/40 109/138/39 132/32/39 131/31/40
f 109/140/39 110/139/38 133/27/38 132/29/39
f 110/139/38 111/141/37 134/25/37 133/27/38
f 111/141/37 112/142/36 135/23/36 134/25/37
f 112/142/36 113/143/35 136/21/35 135/23/36
f 113/143/35 114/144/34 137/19/34 136/21/35
f 114/144/34 115/145/33 138/17/33 137/19/34
f 115/145/33 116/146/32 139/15/32 138/17/33
f 116/146/32 117/147/31 140/13/31 139/15/32
f 117/147/31 118/148/30 141/11/30 140/13/31
f 118/148/30 119/149/29 142/9/29 141/11/30
f 119/149/29 120/150/27 143/5/27 142/9/29
f 120/150/27 97/1/28 144/6/28 143/5/27
f 145/151/39 147/152/37 148/153/37 146/154/39
f 147/152/37 149/155/35 150/156/35 148/153/37
f 149/155/35 151/157/33 152/158/33 150/156/35
f 151/157/33 153/159/31 154/160/31 152/158/33
f 153/159/31 155/161/29 156/162/29 154/160/31
f 155/161/29 157/163/28 158/164/28 156/162/29
f 157/165/28 159/166/49 160/167/49 158/168/28
f 159/166/49 161/169/47 162/170/47 160/167/49
f 161/169/47 163/171/45 164/172/45 162/170/47
f 163/171/45 165/173/43 166/174/43 164/172/45
f 165/173/43 167/175/41 168/176/41 166/174/43
f 167/175/41 145/151/39 146/154/39 168/176/41
f 169/177/39 171/178/37 172/179/37 170/180/39
f 171/178/37 173/181/35 174/182/35 172/179/37
f 173/181/35 175/183/33 176/184/33 174/182/35
f 175/183/33 177/185/31 178/186/31 176/184/33
f 177/185/31 179/187/29 180/188/29 178/186/31
f 179/187/29 181/189/28 182/190/28 180/188/29
f 181/191/28 183/192/49 184/193/49 182/194/28
f 183/192/49 185/195/47 186/196/47 184/193/49
f 185/195/47 187/197/45 188/198/45 186/196/47
f 187/197/45 189/199/43 190/200/43 188/198/45
f 189/199/43 191/201/41 192/202/41 190/200/43
f 191/201/41 169/177/39 170/180/39 192/202/41
f 193/203/39 195/204/37 196/179/37 194/180/39
f 195/204/37 197/205/35 198/182/35 196/179/37
f 197/205/35 199/206/33 200/184/33 198/182/35
f 199/206/33 201/207/31 202/186/31 200/184/33
f 201/207/31 203/187/29 204/208/29 202/186/31
f 203/187/29 205/209/28 206/210/28 204/208/29
f 205/211/28 207/212/49 208/213/49 206/194/28
f 207/212/49 209/214/47 210/215/47 208/213/49
f 209/214/47 211/216/45 212/198/45 210/215/47
f 211/216/45 213/217/43 214/218/43 212/198/45
f 213/217/43 215/219/41 216/202/41 214/218/43
f 215/219/41 193/203/39 194/180/39 216/202/41
f 217/177/39 219/220/37 220/221/37 218/222/39
f 219/220/37 221/181/35 222/223/35 220/221/37
f 221/181/35 223/224/33 224/225/33 222/223/35
f 223/224/33 225/185/31 226/226/31 224/225/33
f 225/185/31 227/227/29 228/228/29 226/226/31
f 227/227/29 229/189/28 230/229/28 228/228/29
f 229/211/28 231/192/49 232/230/49 230/168/28
f 231/192/49 233/214/47 234/231/47 232/230/49
f 233/214/47 235/197/45 236/232/45 234/231/47
f 235/197/45 237/199/43 238/233/43 236/232/45
f 237/199/43 239/201/41 240/234/41 238/233/43
f 239/201/41 217/177/39 218/222/39 240/234/41
f 241/203/39 243/204/37 244/179/37 242/180/39
f 243/204/37 245/205/35 246/182/35 244/179/37
f 245/205/35 247/206/33 248/184/33 246/182/35
f 247/206/33 249/207/31 250/186/31 248/184/33
f 249/207/31 251/187/29 252/208/29 250/186/31
f 251/187/29 253/235/28 254/190/28 252/208/29
f 253/211/28 255/236/49 256/193/49 254/194/28
f 255/236/49 257/214/47 258/215/47 256/193/49
f 257/214/47 259/237/45 260/238/45 258/215/47
f 259/237/45 261/217/43 262/218/43 260/238/45
f 261/217/43 263/219/41 264/202/41 262/218/43
f 263/219/41 241/203/39 242/180/39 264/202/41
f 265/177/39 267/204/37 268/179/37 266/239/39
f 267/204/37 269/181/35 270/240/35 268/179/37
f 269/181/35 271/206/33 272/184/33 270/240/35
f 271/206/33 273/241/31 274/242/31 272/184/33
f 273/241/31 275/187/29 276/208/29 274/242/31
f 275/187/29 277/235/28 278/190/28 276/208/29
f 277/211/28 279/236/49 280/193/49 278/194/28
f 279/236/49 281/214/47 282/215/47 280/193/49
f 281/214/47 283/237/45 284/238/45 282/215/47
f 283/237/45 285/199/43 286/200/43 284/238/45
f 285/199/43 287/219/41 288/202/41 286/200/43
f 287/219/41 265/177/39 266/239/39 288/202/41
f 289/243/39 291/244/37 292/153/37 290/222/39
f 291/244/37 293/245/35 294/223/35 292/153/37
f 293/245/35 295/246/33 296/247/33 294/223/35
f 295/246/33 297/248/31 298/226/31 296/247/33
f 297/248/31 299/249/29 300/250/29 298/226/31
f 299/249/29 301/251/28 302/252/28 300/250/29
f 301/253/28 303/254/49 304/230/49 302/168/28
f 303/254/49 305/255/47 306/231/47 304/230/49
f 305/255/47 307/256/45 308/232/45 306/231/47
f 307/256/45 309/257/43 310/233/43 308/232/45
f 309/257/43 311/258/41 312/176/41 310/233/43
f 311/258/41 289/243/39 290/222/39 312/176/41
f 313/259/39 315/204/37 316/221/37 314/260/39
f 315/204/37 317/205/35 318/261/35 316/221/37
f 317/205/35 319/206/33 320/225/33 318/261/35
f 319/206/33 321/207/31 322/262/31 320/225/33
f 321/207/31 323/187/29 324/263/29 322/262/31
f 323/187/29 325/264/28 326/265/28 324/263/29
f 325/211/28 327/236/49 328/266/49 326/267/28
f 327/236/49 329/268/47 330/269/47 328/266/49
f 329/268/47 331/270/45 332/271/45 330/269/47
f 331/270/45 333/272/43 334/273/43 332/271/45
f 333/272/43 335/274/41 336/234/41 334/273/43
f 335/274/41 313/259/39 314/260/39 336/234/41
f 337/177/39 338/222/39 340/176/41 339/219/41
f 339/219/41 340/176/41 342/233/43 341/199/43
f 341/199/43 342/233/43 344/232/45 343/197/45
f 343/197/45 344/232/45 346/231/47 345/214/47
f 345/214/47 346/231/47 348/230/49 347/192/49
f 347/192/49 348/230/49 350/168/28 349/211/28
f 349/235/28 350/252/28 352/250/29 351/187/29
f 351/187/29 352/250/29 354/275/31 353/241/31
f 353/241/31 354/275/31 356/247/33 355/206/33
f 355/206/33 356/247/33 358/223/35 357/181/35
f 357/181/35 358/223/35 360/153/37 359/204/37
f 359/204/37 360/153/37 338/222/39 337/177/39
f 361/259/39 362/276/39 364/277/41 363/274/41
f 363/274/41 364/277/41 366/278/43 365/272/43
f 365/272/43 366/278/43 368/198/45 367/216/45
f 367/216/45 368/198/45 370/215/47 369/214/47
f 369/214/47 370/215/47 372/193/49 371/236/49
f 371/236/49 372/193/49 374/194/28 373/211/28
f 373/279/28 374/210/28 376/208/29 375/280/29
f 375/280/29 376/208/29 378/281/31 377/282/31
f 377/282/31 378/281/31 380/283/33 379/284/33
f 379/284/33 380/283/33 382/285/35 381/286/35
f 381/286/35 382/285/35 384/287/37 383/288/37
f 383/288/37 384/287/37 362/276/39 361/259/39
f 385/289/39 386/290/39 388/234/41 387/201/41
f 387/201/41 388/234/41 390/291/43 389/292/43
f 389/292/43 390/291/43 392/232/45 391/197/45
f 391/197/45 392/232/45 394/269/47 393/293/47
f 393/293/47 394/269/47 396/230/49 395/192/49
f 395/192/49 396/230/49 398/294/28 397/295/28
f 397/296/28 398/297/28 400/228/29 399/227/29
f 399/227/29 400/228/29 402/298/31 401/299/31
f 401/299/31 402/298/31 404/225/33 403/224/33
f 403/224/33 404/225/33 406/300/35 405/301/35
f 405/301/35 406/300/35 408/221/37 407/220/37
f 407/220/37 408/221/37 386/290/39 385/289/39
f 409/302/39 410/239/39 412/303/41 411/304/41
f 411/304/41 412/303/41 414/200/43 413/305/43
f 413/305/43 414/200/43 416/198/45 415/306/45
f 415/306/45 416/198/45 418/215/47 417/307/47
f 417/307/47 418/215/47 420/193/49 419/308/49
f 419/308/49 420/193/49 422/194/28 421/309/28
f 421/310/28 422/311/28 424/312/29 423/313/29
f 423/313/29 424/312/29 426/314/31 425/315/31
f 425/315/31 426/314/31 428/316/33 427/317/33
f 427/317/33 428/316/33 430/240/35 429/181/35
f 429/181/35 430/240/35 432/318/37 431/319/37
f 431/319/37 432/318/37 410/239/39 409/302/39
f 433/177/39 434/239/39 436/202/41 435/219/41
f 435/219/41 436/202/41 438/200/43 437/199/43
f 437/199/43 438/200/43 440/198/45 439/216/45
f 439/216/45 440/198/45 442/215/47 441/214/47
f 441/214/47 442/215/47 444/193/49 443/236/49
f 443/236/49 444/193/49 446/194/28 445/211/28
f 445/189/28 446/311/28 448/320/29 447/227/29
f 447/227/29 448/320/29 450/314/31 449/185/31
f 449/185/31 450/314/31 452/321/33 451/224/33
f 451/224/33 452/321/33 454/240/35 453/181/35
f 453/181/35 454/240/35 456/179/37 455/204/37
f 455/204/37 456/179/37 434/239/39 433/177/39
f 457/177/39 458/239/39 460/303/41 459/304/41
f 459/304/41 460/303/41 462/200/43 461/199/43
f 461/199/43 462/200/43 464/198/45 463/216/45
f 463/216/45 464/198/45 466/322/47 465/323/47
f 465/323/47 466/322/47 468/324/49 467/325/49
f 467/325/49 468/324/49 470/194/28 469/211/28
f 469/279/28 470/210/28 472/326/29 471/280/29
f 471/280/29 472/326/29 474/281/31 473/282/31
f 473/282/31 474/281/31 476/283/33 475/284/33
f 475/284/33 476/283/33 478/285/35 477/181/35
f 477/181/35 478/285/35 480/318/37 479/178/37
f 479/178/37 480/318/37 458/239/39 457/177/39
f 481/177/39 482/222/39 484/176/41 483/219/41
f 483/219/41 484/176/41 486/233/43 485/199/43
f 485/199/43 486/233/43 488/232/45 487/197/45
f 487/197/45 488/232/45 490/231/47 489/214/47
f 489/214/47 490/231/47 492/230/49 491/192/49
f 491/192/49 492/230/49 494/168/28 493/211/28
f 493/235/28 494/252/28 496/250/29 495/187/29
f 495/187/29 496/250/29 498/226/31 497/185/31
f 497/185/31 498/226/31 500/247/33 499/206/33
f 499/206/33 500/247/33 502/223/35 501/181/35
f 501/181/35 502/223/35 504/153/37 503/204/37
f 503/204/37 504/153/37 482/222/39 481/177/39
f 515/327/28 508/328/29 520/329/29 527/330/28
f 516/331/39 514/332/41 526/333/41 528/334/39
f 507/335/31 511/336/33 523/337/33 519/338/31
f 505/339/45 509/340/47 521/341/47 517/342/45
f 511/336/33 512/343/35 524/344/35 523/337/33
f 509/340/47 510/345/49 522/346/49 521/341/47
f 514/332/41 506/347/43 518/348/43 526/333/41
f 512/343/35 513/349/37 525/350/37 524/344/35
f 510/345/49 515/351/28 527/352/28 522/346/49
f 513/349/37 516/331/39 528/334/39 525/350/37
f 506/347/43 505/339/45 517/342/45 518/348/43
f 508/328/29 507/335/31 519/338/31 520/329/29
