# Blender 4.1.1
# www.blender.org
mtllib 1.25m_Boiler_Endcap.mtl
o 1.25m_Boiler_Endcap.004
v 0.000000 0.000000 -0.625000
v 0.161762 0.000000 -0.603704
v 0.312500 0.000000 -0.541266
v 0.441942 0.000000 -0.441942
v 0.541266 0.000000 -0.312500
v 0.603704 0.000000 -0.161762
v 0.625000 0.000000 0.000000
v 0.603704 0.000000 0.161762
v 0.541266 0.000000 0.312500
v 0.441942 0.000000 0.441942
v 0.312500 0.000000 0.541266
v 0.161762 0.000000 0.603704
v 0.000000 0.000000 0.625000
v -0.161762 0.000000 0.603704
v -0.312500 0.000000 0.541266
v -0.441942 0.000000 0.441942
v -0.541266 0.000000 0.312500
v -0.603704 0.000000 0.161762
v -0.625000 0.000000 0.000000
v -0.603704 0.000000 -0.161762
v -0.541266 0.000000 -0.312500
v -0.441942 0.000000 -0.441942
v -0.312500 0.000000 -0.541266
v -0.161762 0.000000 -0.603704
v 0.152240 0.000000 -0.568168
v 0.000000 0.000000 -0.588211
v 0.294106 0.000000 -0.509406
v 0.415928 0.000000 -0.415928
v 0.509406 0.000000 -0.294106
v 0.568168 0.000000 -0.152240
v 0.588211 0.000000 0.000000
v 0.568168 0.000000 0.152240
v 0.509406 0.000000 0.294106
v 0.415928 0.000000 0.415928
v 0.294106 0.000000 0.509406
v 0.152240 0.000000 0.568168
v 0.000000 0.000000 0.588211
v -0.152240 0.000000 0.568168
v -0.294106 0.000000 0.509406
v -0.415928 0.000000 0.415928
v -0.509406 0.000000 0.294106
v -0.568168 0.000000 0.152240
v -0.588211 0.000000 0.000000
v -0.568168 0.000000 -0.152240
v -0.509406 0.000000 -0.294106
v -0.415928 0.000000 -0.415928
v -0.294106 0.000000 -0.509406
v -0.152240 0.000000 -0.568168
v 0.152240 -0.036278 -0.568168
v -0.000000 -0.036278 -0.588211
v 0.294106 -0.036278 -0.509406
v 0.415928 -0.036278 -0.415928
v 0.509406 -0.036278 -0.294106
v 0.568168 -0.036278 -0.152240
v 0.588211 -0.036278 0.000000
v 0.568168 -0.036278 0.152240
v 0.509406 -0.036278 0.294106
v 0.415928 -0.036278 0.415928
v 0.294106 -0.036278 0.509406
v 0.152240 -0.036278 0.568168
v -0.000000 -0.036278 0.588211
v -0.152240 -0.036278 0.568168
v -0.294106 -0.036278 0.509406
v -0.415928 -0.036278 0.415928
v -0.509406 -0.036278 0.294106
v -0.568168 -0.036278 0.152240
v -0.588211 -0.036278 0.000000
v -0.568168 -0.036278 -0.152240
v -0.509406 -0.036278 -0.294106
v -0.415928 -0.036278 -0.415928
v -0.294106 -0.036278 -0.509406
v -0.152240 -0.036278 -0.568168
v -0.135508 -0.036278 0.371615
v -0.117353 -0.036278 0.303861
v -0.117353 -0.036278 0.439369
v 0.000000 -0.036278 0.507123
v 0.117353 -0.036278 0.439369
v 0.067754 -0.036278 0.488969
v -0.067754 -0.036278 0.488969
v 0.000000 -0.036278 0.236107
v -0.067754 -0.036278 0.254262
v 0.135508 -0.036278 0.371615
v 0.117353 -0.036278 0.303861
v 0.067754 -0.036278 0.254262
v -0.103891 -0.016235 0.371615
v -0.089972 -0.016235 0.319670
v 0.089972 -0.016235 0.423561
v 0.051946 -0.016235 0.461588
v -0.089972 -0.016235 0.423561
v -0.051946 -0.016235 0.461588
v 0.103891 -0.016235 0.371615
v 0.089972 -0.016235 0.319670
v 0.051946 -0.016235 0.281643
v -0.051946 -0.016235 0.281643
v -0.000000 -0.016235 0.475506
v -0.000000 -0.016235 0.267724
v -0.135508 -0.016235 0.371615
v -0.117353 -0.016235 0.303861
v 0.117353 -0.016235 0.439369
v 0.067754 -0.016235 0.488969
v -0.117353 -0.016235 0.439369
v -0.067754 -0.016235 0.488969
v 0.135508 -0.016235 0.371615
v 0.117353 -0.016235 0.303861
v 0.067754 -0.016235 0.254262
v -0.067754 -0.016235 0.254262
v -0.000000 -0.016235 0.507123
v -0.000000 -0.016235 0.236107
v -0.565778 -0.036278 0.011405
v -0.556103 -0.036278 0.047513
v -0.529671 -0.036278 0.073946
v -0.556103 -0.036278 -0.024703
v 0.529671 -0.036278 -0.051135
v 0.565778 -0.036278 0.011405
v 0.556103 -0.036278 0.047513
v 0.556103 -0.036278 -0.024703
v 0.056067 -0.036278 -0.390328
v 0.128283 -0.036278 -0.390328
v 0.092175 -0.036278 -0.400003
v 0.164391 -0.036278 -0.327788
v 0.218008 -0.036278 -0.327788
v 0.154716 -0.036278 -0.291680
v 0.198049 -0.036278 -0.231741
v 0.154716 -0.036278 -0.363895
v 0.234157 -0.036278 -0.222066
v 0.254116 -0.036278 -0.265247
v 0.270264 -0.036278 -0.159525
v 0.326332 -0.036278 -0.265247
v 0.290224 -0.036278 -0.400003
v 0.260589 -0.036278 -0.195633
v 0.290224 -0.036278 -0.255572
v 0.254116 -0.036278 -0.390328
v 0.227683 -0.036278 -0.291680
v 0.227683 -0.036278 -0.363895
v 0.329172 -0.036278 -0.159525
v 0.352764 -0.036278 -0.363895
v 0.338847 -0.036278 -0.123417
v 0.365280 -0.036278 -0.096985
v 0.401388 -0.036278 -0.087310
v 0.365280 -0.036278 -0.222066
v 0.338847 -0.036278 -0.195633
v 0.352764 -0.036278 -0.291680
v 0.401388 -0.036278 -0.231741
v 0.362439 -0.036278 -0.327788
v 0.431022 -0.036278 -0.024703
v 0.456976 -0.036278 -0.050656
v 0.457455 -0.036278 -0.051135
v 0.437495 -0.036278 -0.096985
v 0.437975 -0.036278 -0.097464
v 0.437495 -0.036278 -0.222066
v 0.473603 -0.036278 -0.159525
v 0.529671 -0.036278 0.073946
v 0.493563 -0.036278 -0.060810
v 0.463928 -0.036278 -0.123417
v 0.463928 -0.036278 -0.195633
v 0.326332 -0.036278 -0.390328
v -0.529671 -0.036278 -0.051135
v -0.493563 -0.036278 -0.060810
v -0.473603 -0.036278 -0.159525
v -0.457455 -0.036278 -0.051135
v -0.437496 -0.036278 -0.096985
v -0.463928 -0.036278 -0.123417
v -0.493563 -0.036278 0.083621
v -0.463928 -0.036278 -0.195633
v -0.437496 -0.036278 -0.222066
v -0.431022 -0.036278 0.047513
v -0.421347 -0.036278 0.011405
v -0.401388 -0.036278 -0.087310
v -0.431022 -0.036278 -0.024703
v -0.365280 -0.036278 -0.222066
v -0.362440 -0.036278 0.011405
v -0.362440 -0.036278 -0.327788
v -0.401388 -0.036278 -0.231741
v -0.457455 -0.036278 0.073946
v -0.338847 -0.036278 -0.123417
v -0.326332 -0.036278 0.073946
v -0.326332 -0.036278 -0.265247
v -0.326332 -0.036278 -0.051135
v -0.329172 -0.036278 -0.159525
v -0.338847 -0.036278 -0.195633
v -0.326332 -0.036278 -0.390328
v -0.270264 -0.036278 -0.159525
v -0.260589 -0.036278 -0.195633
v -0.290224 -0.036278 -0.060810
v -0.290224 -0.036278 -0.255572
v -0.254116 -0.036278 -0.265247
v -0.218009 -0.036278 -0.327788
v -0.227684 -0.036278 -0.363895
v -0.227684 -0.036278 -0.291680
v -0.254116 -0.036278 -0.390328
v -0.290224 -0.036278 -0.400003
v -0.352765 -0.036278 -0.363895
v -0.352765 -0.036278 0.047513
v -0.352765 -0.036278 -0.024703
v -0.365280 -0.036278 -0.096985
v -0.352765 -0.036278 -0.291680
v -0.290224 -0.036278 0.083621
v -0.234157 -0.036278 -0.096985
v -0.254116 -0.036278 -0.051135
v -0.260589 -0.036278 -0.123417
v -0.218009 -0.036278 0.011405
v -0.227684 -0.036278 0.047513
v -0.164391 -0.036278 0.011405
v -0.198049 -0.036278 -0.087310
v -0.227684 -0.036278 -0.024703
v -0.198049 -0.036278 -0.231741
v -0.164391 -0.036278 -0.327788
v -0.234157 -0.036278 -0.222066
v -0.254116 -0.036278 0.073946
v -0.154716 -0.036278 -0.363895
v -0.161941 -0.036278 -0.096985
v -0.125833 -0.036278 -0.159525
v -0.092175 -0.036278 0.083621
v -0.128283 -0.036278 0.073946
v -0.128283 -0.036278 -0.265247
v -0.154716 -0.036278 0.047513
v -0.128283 -0.036278 -0.051135
v -0.135508 -0.036278 -0.123417
v -0.135508 -0.036278 -0.195633
v -0.161941 -0.036278 -0.222066
v -0.154716 -0.036278 -0.291680
v -0.154716 -0.036278 -0.024703
v -0.128283 -0.036278 -0.390328
v -0.092175 -0.036278 -0.060810
v -0.056067 -0.036278 0.073946
v -0.056067 -0.036278 -0.051135
v -0.092175 -0.036278 -0.400003
v -0.062540 -0.036278 -0.123417
v -0.072216 -0.036278 -0.159525
v -0.062540 -0.036278 -0.195633
v -0.092175 -0.036278 -0.255572
v -0.056067 -0.036278 -0.390328
v -0.036108 -0.036278 -0.096985
v -0.019960 -0.036278 -0.327788
v -0.019960 -0.036278 0.011405
v -0.029635 -0.036278 0.047513
v -0.029635 -0.036278 -0.024703
v -0.029635 -0.036278 -0.291680
v -0.036108 -0.036278 -0.222066
v -0.056067 -0.036278 -0.265247
v -0.029635 -0.036278 -0.363895
v 0.029635 -0.036278 -0.291680
v 0.029635 -0.036278 0.047513
v 0.019960 -0.036278 0.011405
v 0.000000 -0.036278 -0.087310
v 0.029635 -0.036278 -0.024703
v 0.000000 -0.036278 -0.231741
v 0.019960 -0.036278 -0.327788
v 0.056067 -0.036278 -0.051135
v 0.036108 -0.036278 -0.096985
v 0.036108 -0.036278 -0.222066
v 0.056067 -0.036278 -0.265247
v 0.072216 -0.036278 -0.159525
v 0.062540 -0.036278 -0.195633
v 0.062540 -0.036278 -0.123417
v 0.056067 -0.036278 0.073946
v 0.029635 -0.036278 -0.363895
v 0.128283 -0.036278 0.073946
v 0.092175 -0.036278 -0.060810
v 0.135508 -0.036278 -0.123417
v 0.125833 -0.036278 -0.159525
v 0.092175 -0.036278 -0.255572
v 0.135508 -0.036278 -0.195633
v 0.128283 -0.036278 -0.265247
v 0.218008 -0.036278 0.011405
v 0.164391 -0.036278 0.011405
v 0.154716 -0.036278 0.047513
v 0.227683 -0.036278 0.047513
v 0.154716 -0.036278 -0.024703
v 0.198049 -0.036278 -0.087310
v 0.161941 -0.036278 -0.222066
v 0.128283 -0.036278 -0.051135
v 0.161941 -0.036278 -0.096985
v 0.254116 -0.036278 0.073946
v 0.254116 -0.036278 -0.051135
v 0.234157 -0.036278 -0.096985
v -0.011234 -0.016235 0.504113
v 0.290224 -0.036278 -0.060810
v 0.326332 -0.036278 -0.051135
v 0.290224 -0.036278 0.083621
v 0.260589 -0.036278 -0.123417
v 0.421347 -0.036278 0.011405
v 0.362439 -0.036278 0.011405
v 0.352764 -0.036278 0.047513
v 0.352764 -0.036278 -0.024703
v 0.493563 -0.036278 0.083621
v 0.457455 -0.036278 0.073946
v 0.431022 -0.036278 0.047513
v 0.326332 -0.036278 0.073946
v 0.227683 -0.036278 -0.024703
v 0.092175 -0.036278 0.083621
vn -0.9659 -0.0000 -0.2588
vn -1.0000 -0.0000 -0.0000
vn -0.0000 1.0000 -0.0000
vn 0.5000 -0.0000 0.8660
vn 0.7071 -0.0000 0.7071
vn 0.7071 -0.0000 -0.7071
vn 0.5000 -0.0000 -0.8660
vn -0.8660 -0.0000 -0.5000
vn 0.2588 -0.0000 0.9659
vn -0.2588 -0.0000 0.9659
vn -0.0000 -0.0000 1.0000
vn 0.8660 -0.0000 -0.5000
vn -0.7071 -0.0000 -0.7071
vn -0.5000 -0.0000 0.8660
vn 0.9659 -0.0000 -0.2588
vn -0.5000 -0.0000 -0.8660
vn -0.7071 -0.0000 0.7071
vn 1.0000 -0.0000 -0.0000
vn -0.2588 -0.0000 -0.9659
vn -0.8660 -0.0000 0.5000
vn 0.9659 -0.0000 0.2588
vn -0.0000 -0.0000 -1.0000
vn -0.9659 -0.0000 0.2588
vn 0.8660 -0.0000 0.5000
vn 0.2588 -0.0000 -0.9659
vt 0.538272 0.729622
vt 0.542221 0.759616
vt 0.537885 0.759616
vt 0.534084 0.730744
vt 0.426331 0.875507
vt 0.456325 0.871558
vt 0.458201 0.878559
vt 0.426331 0.882755
vt 0.484276 0.859981
vt 0.487900 0.866258
vt 0.508278 0.841564
vt 0.513403 0.846689
vt 0.526695 0.817562
vt 0.532972 0.821186
vt 0.538272 0.789611
vt 0.545273 0.791487
vt 0.549469 0.759616
vt 0.545273 0.727746
vt 0.526695 0.701671
vt 0.532972 0.698047
vt 0.508278 0.677670
vt 0.513403 0.672544
vt 0.484276 0.659253
vt 0.487900 0.652975
vt 0.456325 0.647675
vt 0.458201 0.640674
vt 0.426331 0.643726
vt 0.426331 0.636478
vt 0.396336 0.647675
vt 0.394460 0.640674
vt 0.368386 0.659253
vt 0.364761 0.652975
vt 0.344384 0.677670
vt 0.339259 0.672544
vt 0.325967 0.701671
vt 0.319690 0.698047
vt 0.314389 0.729622
vt 0.307388 0.727746
vt 0.310440 0.759616
vt 0.303192 0.759616
vt 0.314389 0.789611
vt 0.307388 0.791487
vt 0.325967 0.817562
vt 0.319690 0.821186
vt 0.344384 0.841564
vt 0.339259 0.846689
vt 0.368386 0.859981
vt 0.364761 0.866258
vt 0.396336 0.871558
vt 0.394460 0.878559
vt 0.512996 0.769223
vt 0.513087 0.769314
vt 0.509393 0.778101
vt 0.509302 0.778010
vt 0.430116 0.757454
vt 0.422545 0.757454
vt 0.420711 0.750606
vt 0.436964 0.745593
vt 0.415698 0.745593
vt 0.426331 0.714839
vt 0.420711 0.814934
vt 0.426331 0.803566
vt 0.431951 0.814934
vt 0.438192 0.796718
vt 0.452030 0.796718
vt 0.443812 0.808086
vt 0.371290 0.771149
vt 0.376910 0.783023
vt 0.362068 0.783023
vt 0.426331 0.648062
vt 0.426331 0.663440
vt 0.413481 0.666883
vt 0.347450 0.838497
vt 0.370554 0.856226
vt 0.370554 0.663008
vt 0.347450 0.680736
vt 0.522940 0.703839
vt 0.397458 0.867370
vt 0.426331 0.871171
vt 0.455203 0.867370
vt 0.329722 0.703839
vt 0.505212 0.680736
vt 0.482108 0.856226
vt 0.318577 0.730744
vt 0.482108 0.663008
vt 0.505212 0.838497
vt 0.314776 0.759616
vt 0.455203 0.651863
vt 0.522940 0.815394
vt 0.318577 0.788489
vt 0.534084 0.788489
vt 0.329722 0.815394
vt 0.397458 0.651863
vt 0.400632 0.689140
vt 0.404075 0.676290
vt 0.407068 0.678018
vt 0.404088 0.689140
vt 0.439180 0.666883
vt 0.448587 0.676290
vt 0.445594 0.678018
vt 0.437452 0.669876
vt 0.413481 0.711396
vt 0.415209 0.708403
vt 0.426331 0.711383
vt 0.404075 0.701989
vt 0.407068 0.700261
vt 0.415209 0.669876
vt 0.452030 0.689140
vt 0.448587 0.701989
vt 0.445594 0.700261
vt 0.448574 0.689140
vt 0.426331 0.666897
vt 0.439180 0.711396
vt 0.437452 0.708403
vt 0.424487 0.667391
vt 0.409277 0.689140
vt 0.411562 0.697666
vt 0.441099 0.680613
vt 0.434857 0.674371
vt 0.417804 0.674371
vt 0.411562 0.680613
vt 0.443384 0.689140
vt 0.434857 0.703908
vt 0.441099 0.697666
vt 0.417804 0.703908
vt 0.426331 0.672086
vt 0.426331 0.706193
vt 0.371290 0.808086
vt 0.362068 0.796718
vt 0.376910 0.796718
vt 0.469511 0.764301
vt 0.463891 0.776175
vt 0.455673 0.764301
vt 0.508074 0.764301
vt 0.502454 0.776175
vt 0.493233 0.764301
vt 0.359429 0.764301
vt 0.350207 0.776175
vt 0.344587 0.764301
vt 0.388771 0.776175
vt 0.383150 0.764301
vt 0.396989 0.764301
vt 0.420711 0.764301
vt 0.431951 0.764301
vt 0.426331 0.776175
vt 0.400632 0.783023
vt 0.408850 0.771149
vt 0.414470 0.783023
vt 0.400632 0.796718
vt 0.414470 0.796718
vt 0.408850 0.808086
vt 0.383150 0.814934
vt 0.388771 0.803566
vt 0.396989 0.814934
vt 0.450660 0.833642
vt 0.474524 0.833642
vt 0.463891 0.803566
vt 0.469511 0.814934
vt 0.455673 0.814934
vt 0.490593 0.796718
vt 0.481372 0.808086
vt 0.475752 0.796718
vt 0.490593 0.783023
vt 0.475752 0.783023
vt 0.481372 0.771149
vt 0.452030 0.783023
vt 0.438192 0.783023
vt 0.443812 0.771149
vt 0.359429 0.814934
vt 0.357594 0.821782
vt 0.350207 0.803566
vt 0.431951 0.828629
vt 0.436964 0.833642
vt 0.415698 0.833642
vt 0.383150 0.828629
vt 0.384985 0.821782
vt 0.396989 0.828629
vt 0.359429 0.828629
vt 0.364442 0.833642
vt 0.488220 0.833642
vt 0.493233 0.828630
vt 0.514315 0.796718
vt 0.516150 0.789871
vt 0.493233 0.814934
vt 0.488311 0.810012
vt 0.495606 0.801731
vt 0.325879 0.769314
vt 0.332726 0.771149
vt 0.338347 0.796718
vt 0.320866 0.750606
vt 0.533631 0.757454
vt 0.531796 0.750606
vt 0.526783 0.769314
vt 0.519935 0.771149
vt 0.481372 0.743758
vt 0.474524 0.745593
vt 0.359429 0.750606
vt 0.344587 0.750606
vt 0.364442 0.745593
vt 0.519935 0.743758
vt 0.431951 0.750606
vt 0.408850 0.743758
vt 0.402002 0.745593
vt 0.443812 0.743758
vt 0.450660 0.745593
vt 0.430116 0.821782
vt 0.422545 0.821782
vt 0.415698 0.809921
vt 0.419483 0.801731
vt 0.433179 0.801731
vt 0.436964 0.809921
vt 0.440026 0.789871
vt 0.450195 0.789871
vt 0.457043 0.801731
vt 0.450660 0.809921
vt 0.357055 0.778010
vt 0.364442 0.769314
vt 0.378138 0.769314
vt 0.381923 0.778010
vt 0.375075 0.789871
vt 0.363903 0.789871
vt 0.381923 0.801731
vt 0.378138 0.809921
vt 0.364442 0.809921
vt 0.357055 0.801731
vt 0.457508 0.757454
vt 0.467676 0.757454
vt 0.474433 0.769223
vt 0.470739 0.778010
vt 0.457043 0.778010
vt 0.450660 0.769314
vt 0.495067 0.757454
vt 0.506239 0.757454
vt 0.495606 0.778010
vt 0.488220 0.769314
vt 0.346422 0.757454
vt 0.357594 0.757454
vt 0.343360 0.778010
vt 0.339574 0.769314
vt 0.402002 0.769314
vt 0.395619 0.778010
vt 0.384985 0.757454
vt 0.395154 0.757454
vt 0.419483 0.778010
vt 0.415698 0.769314
vt 0.436964 0.769314
vt 0.433179 0.778010
vt 0.412635 0.789871
vt 0.402466 0.789871
vt 0.402002 0.809921
vt 0.395619 0.801731
vt 0.395154 0.821782
vt 0.455673 0.828629
vt 0.457508 0.821782
vt 0.469511 0.828629
vt 0.467676 0.821782
vt 0.443812 0.835477
vt 0.481372 0.835477
vt 0.470739 0.801731
vt 0.474524 0.809921
vt 0.477587 0.789871
vt 0.488758 0.789870
vt 0.495515 0.801641
vt 0.488220 0.809921
vt 0.470829 0.778101
vt 0.474524 0.769314
vt 0.343360 0.801731
vt 0.408850 0.835477
vt 0.420711 0.828629
vt 0.402002 0.833642
vt 0.378138 0.833642
vt 0.371290 0.835477
vt 0.514315 0.783023
vt 0.509302 0.801731
vt 0.502454 0.803566
vt 0.495068 0.821782
vt 0.338347 0.783023
vt 0.320866 0.764301
vt 0.319031 0.757454
vt 0.336512 0.789871
vt 0.325879 0.745593
vt 0.526783 0.745593
vt 0.531796 0.764301
vt 0.455673 0.750606
vt 0.513087 0.745593
vt 0.469511 0.750606
vt 0.488220 0.745593
vt 0.508074 0.750606
vt 0.493233 0.750606
vt 0.396989 0.750606
vt 0.378138 0.745593
vt 0.383150 0.750606
vt 0.332726 0.743758
vt 0.339574 0.745593
vt 0.371290 0.743758
s 1
usemtl 1.25m_Boiler
f 32/1/1 31/2/2 55/3/2 56/4/1
f 26/5/3 25/6/3 2/7/3 1/8/3
f 25/6/3 27/9/3 3/10/3 2/7/3
f 27/9/3 28/11/3 4/12/3 3/10/3
f 28/11/3 29/13/3 5/14/3 4/12/3
f 29/13/3 30/15/3 6/16/3 5/14/3
f 30/15/3 31/2/3 7/17/3 6/16/3
f 31/2/3 32/1/3 8/18/3 7/17/3
f 32/1/3 33/19/3 9/20/3 8/18/3
f 33/19/3 34/21/3 10/22/3 9/20/3
f 34/21/3 35/23/3 11/24/3 10/22/3
f 35/23/3 36/25/3 12/26/3 11/24/3
f 36/25/3 37/27/3 13/28/3 12/26/3
f 37/27/3 38/29/3 14/30/3 13/28/3
f 38/29/3 39/31/3 15/32/3 14/30/3
f 39/31/3 40/33/3 16/34/3 15/32/3
f 40/33/3 41/35/3 17/36/3 16/34/3
f 41/35/3 42/37/3 18/38/3 17/36/3
f 42/37/3 43/39/3 19/40/3 18/38/3
f 43/39/3 44/41/3 20/42/3 19/40/3
f 44/41/3 45/43/3 21/44/3 20/42/3
f 45/43/3 46/45/3 22/46/3 21/44/3
f 46/45/3 47/47/3 23/48/3 22/46/3
f 47/47/3 48/49/3 24/50/3 23/48/3
f 48/49/3 26/5/3 1/8/3 24/50/3
f 146/51/3 147/52/3 149/53/3 148/54/3
f 244/55/3 235/56/3 236/57/3
f 256/58/3 225/59/3 80/60/3
f 238/61/3 247/62/3 242/63/3
f 254/64/3 263/65/3 262/66/3
f 184/67/3 200/68/3 175/69/3
f 61/70/3 76/71/3 79/72/3
f 47/47/4 46/45/5 70/73/5 71/74/4
f 40/33/6 39/31/7 63/75/7 64/76/6
f 33/19/8 32/1/1 56/4/1 57/77/8
f 48/49/9 47/47/4 71/74/4 72/78/9
f 25/6/10 26/5/11 50/79/11 49/80/10
f 41/35/12 40/33/6 64/76/6 65/81/12
f 34/21/13 33/19/8 57/77/8 58/82/13
f 26/5/11 48/49/9 72/78/9 50/79/11
f 27/9/14 25/6/10 49/80/10 51/83/14
f 42/37/15 41/35/12 65/81/12 66/84/15
f 35/23/16 34/21/13 58/82/13 59/85/16
f 28/11/17 27/9/14 51/83/14 52/86/17
f 43/39/18 42/37/15 66/84/15 67/87/18
f 36/25/19 35/23/16 59/85/16 60/88/19
f 29/13/20 28/11/17 52/86/17 53/89/20
f 44/41/21 43/39/18 67/87/18 68/90/21
f 37/27/22 36/25/19 60/88/19 61/70/22
f 30/15/23 29/13/20 53/89/20 54/91/23
f 45/43/24 44/41/21 68/90/21 69/92/24
f 38/29/25 37/27/22 61/70/22 62/93/25
f 31/2/2 30/15/23 54/91/23 55/3/2
f 46/45/5 45/43/24 69/92/24 70/73/5
f 39/31/7 38/29/25 62/93/25 63/75/7
f 73/94/2 75/95/20 101/96/20 97/97/2
f 78/98/4 77/99/24 99/100/24 100/101/4
f 80/60/19 81/102/16 106/103/16 108/104/19
f 74/105/8 73/94/2 97/97/2 98/106/8
f 75/95/20 79/72/14 102/107/14 101/96/20
f 82/108/18 83/109/12 104/110/12 103/111/18
f 76/71/9 78/98/4 100/101/4 107/112/9
f 77/99/24 82/108/18 103/111/18 99/100/24
f 84/113/7 80/60/25 108/104/25 105/114/7
f 81/102/16 74/105/8 98/106/8 106/103/16
f 79/72/14 76/71/10 277/115/10 102/107/14
f 83/109/12 84/113/7 105/114/7 104/110/12
f 85/116/3 86/117/3 98/106/3 97/97/3
f 87/118/3 88/119/3 100/101/3 99/100/3
f 90/120/3 89/121/3 101/96/3 102/107/3
f 91/122/3 87/118/3 99/100/3 103/111/3
f 93/123/3 92/124/3 104/110/3 105/114/3
f 86/117/3 94/125/3 106/103/3 98/106/3
f 88/119/3 95/126/3 107/112/3 100/101/3
f 95/126/3 90/120/3 102/107/3 277/115/3 107/112/3
f 94/125/3 96/127/3 108/104/3 106/103/3
f 92/124/3 91/122/3 103/111/3 104/110/3
f 96/127/3 93/123/3 105/114/3 108/104/3
f 89/121/3 85/116/3 97/97/3 101/96/3
f 185/128/3 180/129/3 183/130/3
f 290/131/3 270/132/3 269/133/3
f 145/134/3 139/135/3 285/136/3
f 194/137/3 168/138/3 169/139/3
f 204/140/3 205/141/3 222/142/3
f 237/143/3 246/144/3 245/145/3
f 218/146/3 224/147/3 228/148/3
f 219/149/3 230/150/3 231/151/3
f 189/152/3 206/153/3 221/154/3
f 49/80/3 118/155/3 132/156/3
f 123/157/3 133/158/3 122/159/3
f 141/160/3 131/161/3 130/162/3
f 137/163/3 281/164/3 278/165/3
f 260/166/3 255/167/3 259/168/3
f 196/169/3 172/170/3 173/171/3
f 257/172/3 117/173/3 232/174/3
f 188/175/3 187/176/3 210/177/3
f 70/73/3 192/178/3 181/179/3
f 156/180/3 136/181/3 52/86/3
f 155/182/3 151/183/3 54/91/3
f 142/184/3 128/185/3 140/186/3
f 68/90/3 157/187/3 158/188/3
f 164/189/3 69/92/3 68/90/3
f 67/87/3 66/84/3 110/190/3
f 55/3/3 114/191/3 115/192/3
f 113/193/3 54/91/3 153/194/3
f 280/195/3 274/196/3 83/109/3
f 193/197/3 166/198/3 176/199/3
f 57/77/3 56/4/3 286/200/3
f 64/76/3 63/75/3 73/94/3
f 277/115/10 76/71/10 107/112/10
f 78/98/3 60/88/3 77/99/3
f 244/55/3 236/57/3 243/201/3
f 236/57/3 225/59/3 243/201/3
f 213/202/3 214/203/3 81/102/3
f 256/58/3 243/201/3 225/59/3
f 225/59/3 213/202/3 80/60/3
f 213/202/3 81/102/3 80/60/3
f 80/60/3 84/113/3 291/204/3
f 84/113/3 258/205/3 291/204/3
f 291/204/3 256/58/3 80/60/3
f 242/63/3 248/206/3 238/61/3
f 248/206/3 234/207/3 238/61/3
f 238/61/3 240/208/3 247/62/3
f 240/208/3 239/209/3 247/62/3
f 251/210/3 252/211/3 247/62/3
f 252/211/3 242/63/3 247/62/3
f 262/66/3 252/211/3 251/210/3
f 254/64/3 253/212/3 261/213/3
f 262/66/3 251/210/3 254/64/3
f 271/214/3 264/215/3 263/65/3
f 264/215/3 262/66/3 263/65/3
f 254/64/3 261/213/3 263/65/3
f 175/69/3 195/216/3 178/217/3
f 184/67/3 199/218/3 198/219/3
f 175/69/3 178/217/3 184/67/3
f 182/220/3 179/221/3 175/69/3
f 184/67/3 198/219/3 200/68/3
f 200/68/3 182/220/3 175/69/3
f 79/72/3 75/95/3 62/93/3
f 75/95/3 63/75/3 62/93/3
f 62/93/3 61/70/3 79/72/3
f 183/130/3 208/222/3 185/128/3
f 208/222/3 186/223/3 185/128/3
f 185/128/3 177/224/3 180/129/3
f 177/224/3 170/225/3 180/129/3
f 179/221/3 182/220/3 180/129/3
f 182/220/3 183/130/3 180/129/3
f 269/133/3 266/226/3 290/131/3
f 266/226/3 265/227/3 290/131/3
f 290/131/3 275/228/3 270/132/3
f 275/228/3 276/229/3 270/132/3
f 273/230/3 272/231/3 269/133/3
f 270/132/3 273/230/3 269/133/3
f 285/136/3 283/232/3 282/233/3
f 145/134/3 146/51/3 139/135/3
f 146/51/3 148/54/3 139/135/3
f 285/136/3 282/233/3 145/134/3
f 138/234/3 279/235/3 285/136/3
f 139/135/3 138/234/3 285/136/3
f 169/139/3 167/236/3 194/137/3
f 167/236/3 171/237/3 194/137/3
f 194/137/3 178/217/3 195/216/3
f 161/238/3 160/239/3 168/138/3
f 160/239/3 169/139/3 168/138/3
f 194/137/3 195/216/3 168/138/3
f 222/142/3 217/240/3 211/241/3
f 204/140/3 198/219/3 199/218/3
f 222/142/3 211/241/3 204/140/3
f 201/242/3 203/243/3 222/142/3
f 204/140/3 199/218/3 205/141/3
f 205/141/3 201/242/3 222/142/3
f 245/145/3 233/244/3 226/245/3
f 237/143/3 235/56/3 244/55/3
f 245/145/3 226/245/3 237/143/3
f 249/246/3 250/247/3 245/145/3
f 237/143/3 244/55/3 246/144/3
f 246/144/3 249/246/3 245/145/3
f 228/148/3 229/248/3 218/146/3
f 229/248/3 212/249/3 218/146/3
f 218/146/3 211/241/3 217/240/3
f 226/245/3 233/244/3 224/147/3
f 233/244/3 228/148/3 224/147/3
f 218/146/3 217/240/3 224/147/3
f 231/151/3 215/250/3 219/149/3
f 215/250/3 220/251/3 219/149/3
f 219/149/3 212/249/3 230/150/3
f 212/249/3 229/248/3 230/150/3
f 239/209/3 240/208/3 231/151/3
f 230/150/3 239/209/3 231/151/3
f 221/154/3 207/252/3 187/176/3
f 189/152/3 186/223/3 206/153/3
f 186/223/3 208/222/3 206/153/3
f 221/154/3 187/176/3 189/152/3
f 220/251/3 215/250/3 221/154/3
f 206/153/3 220/251/3 221/154/3
f 124/253/3 120/254/3 134/255/3
f 120/254/3 121/256/3 134/255/3
f 49/80/3 119/257/3 118/155/3
f 118/155/3 124/253/3 132/156/3
f 124/253/3 134/255/3 132/156/3
f 132/156/3 129/258/3 51/83/3
f 51/83/3 49/80/3 132/156/3
f 122/159/3 264/215/3 271/214/3
f 123/157/3 125/259/3 126/260/3
f 122/159/3 271/214/3 123/157/3
f 121/256/3 120/254/3 133/158/3
f 120/254/3 122/159/3 133/158/3
f 123/157/3 126/260/3 133/158/3
f 130/162/3 127/261/3 135/262/3
f 141/160/3 140/263/3 128/264/3
f 130/162/3 135/262/3 141/160/3
f 126/260/3 125/259/3 131/161/3
f 125/259/3 130/162/3 131/161/3
f 141/160/3 128/264/3 131/161/3
f 278/165/3 279/235/3 137/163/3
f 279/235/3 138/234/3 137/163/3
f 137/163/3 135/262/3 127/261/3
f 276/265/3 275/266/3 278/165/3
f 137/163/3 127/261/3 281/164/3
f 281/164/3 276/265/3 278/165/3
f 259/168/3 272/231/3 260/166/3
f 272/231/3 273/230/3 260/166/3
f 260/166/3 261/213/3 253/212/3
f 250/247/3 249/246/3 259/168/3
f 260/166/3 253/212/3 255/167/3
f 255/167/3 250/247/3 259/168/3
f 172/170/3 192/178/3 70/73/3
f 70/73/3 69/92/3 172/170/3
f 69/92/3 165/267/3 173/171/3
f 173/171/3 170/225/3 196/169/3
f 170/225/3 177/224/3 196/169/3
f 69/92/3 173/171/3 172/170/3
f 117/173/3 119/257/3 50/79/3
f 119/257/3 49/80/3 50/79/3
f 50/79/3 72/78/3 227/268/3
f 117/173/3 50/79/3 232/174/3
f 227/268/3 232/174/3 50/79/3
f 241/269/3 234/207/3 257/172/3
f 234/207/3 248/206/3 257/172/3
f 232/174/3 241/269/3 257/172/3
f 223/270/3 227/268/3 72/78/3
f 72/78/3 71/74/3 190/271/3
f 71/74/3 191/272/3 190/271/3
f 210/177/3 223/270/3 188/175/3
f 223/270/3 72/78/3 190/271/3
f 188/175/3 223/270/3 190/271/3
f 187/176/3 207/252/3 210/177/3
f 181/179/3 191/272/3 71/74/3
f 71/74/3 70/73/3 181/179/3
f 52/86/3 51/83/3 156/180/3
f 51/83/3 129/258/3 156/180/3
f 151/183/3 154/273/3 54/91/3
f 54/91/3 53/89/3 155/182/3
f 53/89/3 150/274/3 155/182/3
f 143/275/3 150/274/3 53/89/3
f 53/89/3 52/86/3 144/276/3
f 52/86/3 136/181/3 144/276/3
f 140/186/3 143/275/3 142/184/3
f 143/275/3 53/89/3 144/276/3
f 142/184/3 143/275/3 144/276/3
f 161/238/3 162/277/3 158/188/3
f 162/277/3 68/90/3 158/188/3
f 68/90/3 67/87/3 112/278/3
f 67/87/3 109/279/3 112/278/3
f 160/239/3 161/238/3 158/188/3
f 68/90/3 112/278/3 157/187/3
f 164/189/3 165/267/3 69/92/3
f 68/90/3 162/277/3 159/280/3
f 159/280/3 164/189/3 68/90/3
f 110/190/3 109/279/3 67/87/3
f 66/84/3 111/281/3 110/190/3
f 115/192/3 152/282/3 56/4/3
f 56/4/3 55/3/3 115/192/3
f 116/283/3 114/191/3 55/3/3
f 55/3/3 54/91/3 116/283/3
f 54/91/3 154/273/3 153/194/3
f 116/283/3 54/91/3 113/193/3
f 154/273/3 149/53/3 153/194/3
f 149/53/3 147/52/3 153/194/3
f 267/284/3 258/205/3 274/196/3
f 258/205/3 84/113/3 83/109/3
f 83/109/3 82/108/3 280/195/3
f 82/108/3 286/200/3 287/285/3
f 258/205/3 83/109/3 274/196/3
f 265/227/3 266/226/3 268/286/3
f 266/226/3 267/284/3 268/286/3
f 82/108/3 287/285/3 289/287/3
f 280/195/3 82/108/3 289/287/3
f 288/288/3 282/233/3 283/232/3
f 287/285/3 288/288/3 289/287/3
f 268/286/3 267/284/3 274/196/3
f 288/288/3 283/232/3 284/289/3
f 288/288/3 284/289/3 289/287/3
f 74/105/3 81/102/3 214/203/3
f 216/290/3 203/243/3 201/242/3
f 74/105/3 214/203/3 209/291/3
f 214/203/3 216/290/3 202/292/3
f 163/293/3 73/94/3 174/294/3
f 73/94/3 74/105/3 197/295/3
f 174/294/3 73/94/3 176/199/3
f 176/199/3 73/94/3 197/295/3
f 214/203/3 202/292/3 209/291/3
f 216/290/3 201/242/3 202/292/3
f 166/198/3 174/294/3 176/199/3
f 171/237/3 167/236/3 193/197/3
f 167/236/3 166/198/3 193/197/3
f 74/105/3 209/291/3 197/295/3
f 152/282/3 286/200/3 56/4/3
f 286/200/3 82/108/3 57/77/3
f 82/108/3 77/99/3 59/85/3
f 59/85/3 58/82/3 82/108/3
f 58/82/3 57/77/3 82/108/3
f 75/95/3 73/94/3 63/75/3
f 73/94/3 163/293/3 65/81/3
f 64/76/3 73/94/3 65/81/3
f 163/293/3 111/281/3 66/84/3
f 66/84/3 65/81/3 163/293/3
f 78/98/3 76/71/3 61/70/3
f 61/70/3 60/88/3 78/98/3
f 60/88/3 59/85/3 77/99/3
