# Blender 4.1.1
# www.blender.org
mtllib 1.25m_Boiler_3m.mtl
o 1.25m_Boiler_Jacket.002
v 0.000000 -1.500000 -0.625000
v 0.000000 1.500000 -0.625000
v 0.161762 -1.500000 -0.603704
v 0.161762 1.500000 -0.603704
v 0.312500 -1.500000 -0.541266
v 0.312500 1.500000 -0.541266
v 0.441942 -1.500000 -0.441942
v 0.441942 1.500000 -0.441942
v 0.541266 -1.500000 -0.312500
v 0.541266 1.500000 -0.312500
v 0.603704 -1.500000 -0.161762
v 0.603704 1.500000 -0.161762
v 0.625000 -1.500000 0.000000
v 0.625000 1.500000 0.000000
v 0.603704 -1.500000 0.161762
v 0.603704 1.500000 0.161762
v 0.541266 -1.500000 0.312500
v 0.541266 1.500000 0.312500
v 0.441942 -1.500000 0.441942
v 0.441942 1.500000 0.441942
v 0.312500 -1.500000 0.541266
v 0.312500 1.500000 0.541266
v 0.161762 -1.500000 0.603704
v 0.161762 1.500000 0.603704
v 0.000000 -1.500000 0.625000
v 0.000000 1.500000 0.625000
v -0.161762 -1.500000 0.603704
v -0.161762 1.500000 0.603704
v -0.312500 -1.500000 0.541266
v -0.312500 1.500000 0.541266
v -0.441942 -1.500000 0.441942
v -0.441942 1.500000 0.441942
v -0.541266 -1.500000 0.312500
v -0.541266 1.500000 0.312500
v -0.603704 -1.500000 0.161762
v -0.603704 1.500000 0.161762
v -0.625000 -1.500000 0.000000
v -0.625000 1.500000 0.000000
v -0.603704 -1.500000 -0.161762
v -0.603704 1.500000 -0.161762
v -0.541266 -1.500000 -0.312500
v -0.541266 1.500000 -0.312500
v -0.441942 -1.500000 -0.441942
v -0.441942 1.500000 -0.441942
v -0.312500 -1.500000 -0.541266
v -0.312500 1.500000 -0.541266
v -0.161762 -1.500000 -0.603704
v -0.161762 1.500000 -0.603704
v 0.000000 1.450000 -0.625000
v 0.161762 1.450000 -0.603704
v 0.312500 1.450000 -0.541266
v 0.441942 1.450000 -0.441942
v 0.541266 1.450000 -0.312500
v 0.603704 1.450000 -0.161762
v 0.625000 1.450000 0.000000
v 0.603704 1.450000 0.161762
v 0.541266 1.450000 0.312500
v 0.441942 1.450000 0.441942
v 0.312500 1.450000 0.541266
v 0.161762 1.450000 0.603704
v 0.000000 1.450000 0.625000
v -0.161762 1.450000 0.603704
v -0.312500 1.450000 0.541266
v -0.441942 1.450000 0.441942
v -0.541266 1.450000 0.312500
v -0.603704 1.450000 0.161762
v -0.625000 1.450000 0.000000
v -0.603704 1.450000 -0.161762
v -0.541266 1.450000 -0.312500
v -0.441942 1.450000 -0.441942
v -0.312500 1.450000 -0.541266
v -0.161762 1.450000 -0.603704
v -0.161762 -0.525000 -0.603704
v -0.312500 -0.525000 -0.541266
v -0.441942 -0.525000 -0.441942
v -0.541266 -0.525000 -0.312500
v -0.603704 -0.525000 -0.161762
v -0.625000 -0.525000 0.000000
v -0.603704 -0.525000 0.161762
v -0.541266 -0.525000 0.312500
v -0.441942 -0.525000 0.441942
v -0.312500 -0.525000 0.541266
v -0.161762 -0.525000 0.603704
v 0.000000 -0.525000 0.625000
v 0.161762 -0.525000 0.603704
v 0.312500 -0.525000 0.541266
v 0.441942 -0.525000 0.441942
v 0.541266 -0.525000 0.312500
v 0.603704 -0.525000 0.161762
v 0.625000 -0.525000 0.000000
v 0.603704 -0.525000 -0.161762
v 0.541266 -0.525000 -0.312500
v 0.441942 -0.525000 -0.441942
v 0.312500 -0.525000 -0.541266
v 0.161762 -0.525000 -0.603704
v 0.000000 -0.525000 -0.625000
v 0.161762 -1.450000 -0.603704
v 0.312500 -1.450000 -0.541266
v 0.441942 -1.450000 -0.441942
v 0.541266 -1.450000 -0.312500
v 0.603704 -1.450000 -0.161762
v 0.625000 -1.450000 -0.000000
v 0.603704 -1.450000 0.161762
v 0.541266 -1.450000 0.312500
v 0.441942 -1.450000 0.441942
v 0.312500 -1.450000 0.541266
v 0.161762 -1.450000 0.603704
v 0.000000 -1.450000 0.625000
v -0.161762 -1.450000 0.603704
v -0.312500 -1.450000 0.541266
v -0.441942 -1.450000 0.441942
v -0.541266 -1.450000 0.312500
v -0.603704 -1.450000 0.161762
v -0.625000 -1.450000 -0.000000
v -0.603704 -1.450000 -0.161762
v -0.541266 -1.450000 -0.312500
v -0.441942 -1.450000 -0.441942
v -0.312500 -1.450000 -0.541266
v -0.161762 -1.450000 -0.603704
v 0.000000 -1.450000 -0.625000
v -0.161762 -0.475000 -0.603704
v 0.000000 -0.475000 -0.625000
v -0.312500 -0.475000 -0.541266
v -0.441942 -0.475000 -0.441942
v -0.541266 -0.475000 -0.312500
v -0.603704 -0.475000 -0.161762
v -0.625000 -0.475000 -0.000000
v -0.603704 -0.475000 0.161762
v -0.541266 -0.475000 0.312500
v -0.441942 -0.475000 0.441942
v -0.312500 -0.475000 0.541266
v -0.161762 -0.475000 0.603704
v 0.000000 -0.475000 0.625000
v 0.161762 -0.475000 0.603704
v 0.312500 -0.475000 0.541266
v 0.441942 -0.475000 0.441942
v 0.541266 -0.475000 0.312500
v 0.603704 -0.475000 0.161762
v 0.625000 -0.475000 -0.000000
v 0.603704 -0.475000 -0.161762
v 0.541266 -0.475000 -0.312500
v 0.441942 -0.475000 -0.441942
v 0.312500 -0.475000 -0.541266
v 0.161762 -0.475000 -0.603704
v 0.000000 1.440000 -0.620434
v -0.160580 1.440000 -0.599293
v -0.310217 1.440000 -0.537312
v -0.438713 1.440000 -0.438713
v -0.537312 1.440000 -0.310217
v -0.599293 1.440000 -0.160580
v -0.620434 1.440000 0.000000
v -0.599293 1.440000 0.160580
v -0.537312 1.440000 0.310217
v -0.438713 1.440000 0.438713
v -0.310217 1.440000 0.537312
v -0.160580 1.440000 0.599293
v 0.000000 1.440000 0.620434
v 0.160580 1.440000 0.599293
v 0.310217 1.440000 0.537312
v 0.438713 1.440000 0.438713
v 0.537312 1.440000 0.310217
v 0.599293 1.440000 0.160580
v 0.620434 1.440000 0.000000
v 0.599293 1.440000 -0.160580
v 0.537312 1.440000 -0.310217
v 0.438713 1.440000 -0.438713
v 0.310217 1.440000 -0.537312
v 0.160580 1.440000 -0.599293
v -0.160580 -0.465000 -0.599293
v -0.310217 -0.465000 -0.537312
v -0.438713 -0.465000 -0.438713
v -0.537312 -0.465000 -0.310217
v -0.599293 -0.465000 -0.160580
v -0.620434 -0.465000 -0.000000
v -0.599293 -0.465000 0.160580
v -0.537312 -0.465000 0.310217
v -0.438713 -0.465000 0.438713
v -0.310217 -0.465000 0.537312
v -0.160580 -0.465000 0.599293
v 0.000000 -0.465000 0.620434
v 0.160580 -0.465000 0.599293
v 0.310217 -0.465000 0.537312
v 0.438713 -0.465000 0.438713
v 0.537312 -0.465000 0.310217
v 0.599293 -0.465000 0.160580
v 0.620434 -0.465000 -0.000000
v 0.599293 -0.465000 -0.160580
v 0.537312 -0.465000 -0.310217
v 0.438713 -0.465000 -0.438713
v 0.310217 -0.465000 -0.537312
v 0.160580 -0.465000 -0.599293
v 0.000000 -0.465000 -0.620434
v 0.000000 -0.535000 -0.620434
v 0.160580 -0.535000 -0.599293
v 0.310217 -0.535000 -0.537312
v 0.438713 -0.535000 -0.438713
v 0.537312 -0.535000 -0.310217
v 0.599293 -0.535000 -0.160580
v 0.620434 -0.535000 0.000000
v 0.599293 -0.535000 0.160580
v 0.537312 -0.535000 0.310217
v 0.438713 -0.535000 0.438713
v 0.310217 -0.535000 0.537312
v 0.160580 -0.535000 0.599293
v 0.000000 -0.535000 0.620434
v -0.160580 -0.535000 0.599293
v -0.310217 -0.535000 0.537312
v -0.438713 -0.535000 0.438713
v -0.537312 -0.535000 0.310217
v -0.599293 -0.535000 0.160580
v -0.620434 -0.535000 0.000000
v -0.599293 -0.535000 -0.160580
v -0.537312 -0.535000 -0.310217
v -0.438713 -0.535000 -0.438713
v -0.310217 -0.535000 -0.537312
v -0.160580 -0.535000 -0.599293
v 0.160580 -1.440000 -0.599293
v 0.310217 -1.440000 -0.537312
v 0.438713 -1.440000 -0.438713
v 0.537312 -1.440000 -0.310217
v 0.599293 -1.440000 -0.160580
v 0.620434 -1.440000 -0.000000
v 0.599293 -1.440000 0.160580
v 0.537312 -1.440000 0.310217
v 0.438713 -1.440000 0.438713
v 0.310217 -1.440000 0.537312
v 0.160580 -1.440000 0.599293
v 0.000000 -1.440000 0.620434
v -0.160580 -1.440000 0.599293
v -0.310217 -1.440000 0.537312
v -0.438713 -1.440000 0.438713
v -0.537312 -1.440000 0.310217
v -0.599293 -1.440000 0.160580
v -0.620434 -1.440000 -0.000000
v -0.599293 -1.440000 -0.160580
v -0.537312 -1.440000 -0.310217
v -0.438713 -1.440000 -0.438713
v -0.310217 -1.440000 -0.537312
v -0.160580 -1.440000 -0.599293
v 0.000000 -1.440000 -0.620434
v 0.000000 0.462500 -0.627468
v -0.162401 0.462500 -0.606088
v -0.313734 0.462500 -0.543403
v -0.443687 0.462500 -0.443687
v -0.543403 0.462500 -0.313734
v -0.606088 0.462500 -0.162401
v -0.627468 0.462500 0.000000
v -0.606088 0.462500 0.162401
v -0.543403 0.462500 0.313734
v -0.443687 0.462500 0.443687
v -0.313734 0.462500 0.543403
v -0.162401 0.462500 0.606088
v 0.000000 0.462500 0.627468
v 0.162401 0.462500 0.606088
v 0.313734 0.462500 0.543403
v 0.443687 0.462500 0.443687
v 0.543403 0.462500 0.313734
v 0.606088 0.462500 0.162401
v 0.627468 0.462500 0.000000
v 0.606088 0.462500 -0.162401
v 0.543403 0.462500 -0.313734
v 0.443687 0.462500 -0.443687
v 0.313734 0.462500 -0.543403
v 0.162401 0.462500 -0.606088
v 0.000000 0.512500 -0.627468
v -0.162401 0.512500 -0.606088
v -0.313734 0.512500 -0.543403
v -0.443687 0.512500 -0.443687
v -0.543403 0.512500 -0.313734
v -0.606088 0.512500 -0.162401
v -0.627468 0.512500 0.000000
v -0.606088 0.512500 0.162401
v -0.543403 0.512500 0.313734
v -0.443687 0.512500 0.443687
v -0.313734 0.512500 0.543403
v -0.162401 0.512500 0.606088
v 0.000000 0.512500 0.627468
v 0.162401 0.512500 0.606088
v 0.313734 0.512500 0.543403
v 0.443687 0.512500 0.443687
v 0.543403 0.512500 0.313734
v 0.606088 0.512500 0.162401
v 0.627468 0.512500 0.000000
v 0.606088 0.512500 -0.162401
v 0.543403 0.512500 -0.313734
v 0.443687 0.512500 -0.443687
v 0.313734 0.512500 -0.543403
v 0.162401 0.512500 -0.606088
v 0.000000 0.522500 -0.620434
v -0.160580 0.522500 -0.599293
v -0.310217 0.522500 -0.537312
v -0.438713 0.522500 -0.438713
v -0.537312 0.522500 -0.310217
v -0.599293 0.522500 -0.160580
v -0.620434 0.522500 0.000000
v -0.599293 0.522500 0.160580
v -0.537312 0.522500 0.310217
v -0.438713 0.522500 0.438713
v -0.310217 0.522500 0.537312
v -0.160580 0.522500 0.599293
v 0.000000 0.522500 0.620434
v 0.160580 0.522500 0.599293
v 0.310217 0.522500 0.537312
v 0.438713 0.522500 0.438713
v 0.537312 0.522500 0.310217
v 0.599293 0.522500 0.160580
v 0.620434 0.522500 0.000000
v 0.599293 0.522500 -0.160580
v 0.537312 0.522500 -0.310217
v 0.438713 0.522500 -0.438713
v 0.310217 0.522500 -0.537312
v 0.160580 0.522500 -0.599293
v -0.160580 0.452500 -0.599293
v -0.310217 0.452500 -0.537312
v -0.438713 0.452500 -0.438713
v -0.537312 0.452500 -0.310217
v -0.599293 0.452500 -0.160580
v -0.620434 0.452500 0.000000
v -0.599293 0.452500 0.160580
v -0.537312 0.452500 0.310217
v -0.438713 0.452500 0.438713
v -0.310217 0.452500 0.537312
v -0.160580 0.452500 0.599293
v 0.000000 0.452500 0.620434
v 0.160580 0.452500 0.599293
v 0.310217 0.452500 0.537312
v 0.438713 0.452500 0.438713
v 0.537312 0.452500 0.310217
v 0.599293 0.452500 0.160580
v 0.620434 0.452500 0.000000
v 0.599293 0.452500 -0.160580
v 0.537312 0.452500 -0.310217
v 0.438713 0.452500 -0.438713
v 0.310217 0.452500 -0.537312
v 0.160580 0.452500 -0.599293
v 0.000000 0.452500 -0.620434
v 0.000000 -1.463722 -0.231741
v 0.000000 1.463722 -0.231741
v 0.036108 -1.463722 -0.222066
v 0.036108 1.463722 -0.222066
v 0.062540 -1.463722 -0.195633
v 0.062540 1.463722 -0.195633
v 0.072216 -1.463722 -0.159525
v 0.072216 1.463722 -0.159525
v 0.062540 -1.463722 -0.123417
v 0.062540 1.463722 -0.123417
v 0.036108 -1.463722 -0.096985
v 0.036108 1.463722 -0.096985
v 0.000000 -1.463722 -0.087310
v 0.000000 1.463722 -0.087310
v -0.036108 -1.463722 -0.096985
v -0.036108 1.463722 -0.096985
v -0.062540 -1.463722 -0.123417
v -0.062540 1.463722 -0.123417
v -0.072216 -1.463722 -0.159525
v -0.072216 1.463722 -0.159525
v -0.062540 -1.463722 -0.195633
v -0.062540 1.463722 -0.195633
v -0.036108 -1.463722 -0.222066
v -0.036108 1.463722 -0.222066
v 0.493563 -1.463722 -0.060810
v 0.493563 1.463722 -0.060810
v 0.529671 -1.463722 -0.051135
v 0.529671 1.463722 -0.051135
v 0.556103 -1.463722 -0.024703
v 0.556103 1.463722 -0.024703
v 0.565778 -1.463722 0.011405
v 0.565778 1.463722 0.011405
v 0.556103 -1.463722 0.047513
v 0.556103 1.463722 0.047513
v 0.529671 -1.463722 0.073946
v 0.529671 1.463722 0.073946
v 0.493563 -1.463722 0.083621
v 0.493563 1.463722 0.083621
v 0.457455 -1.463722 0.073946
v 0.457455 1.463722 0.073946
v 0.431022 -1.463722 0.047513
v 0.431022 1.463722 0.047513
v 0.421347 -1.463722 0.011405
v 0.421347 1.463722 0.011405
v 0.431022 -1.463722 -0.024703
v 0.431022 1.463722 -0.024703
v 0.457455 -1.463722 -0.051135
v 0.457455 1.463722 -0.051135
v 0.092175 -1.463722 -0.060810
v 0.092175 1.463722 -0.060810
v 0.128283 -1.463722 -0.051135
v 0.128283 1.463722 -0.051135
v 0.154716 -1.463722 -0.024703
v 0.154716 1.463722 -0.024703
v 0.164391 -1.463722 0.011405
v 0.164391 1.463722 0.011405
v 0.154716 -1.463722 0.047513
v 0.154716 1.463722 0.047513
v 0.128283 -1.463722 0.073946
v 0.128283 1.463722 0.073946
v 0.092175 -1.463722 0.083621
v 0.092175 1.463722 0.083621
v 0.056067 -1.463722 0.073946
v 0.056067 1.463722 0.073946
v 0.029635 -1.463722 0.047513
v 0.029635 1.463722 0.047513
v 0.019960 -1.463722 0.011405
v 0.019960 1.463722 0.011405
v 0.029635 -1.463722 -0.024703
v 0.029635 1.463722 -0.024703
v 0.056067 -1.463722 -0.051135
v 0.056067 1.463722 -0.051135
v 0.092175 -1.463722 -0.400003
v 0.092175 1.463722 -0.400003
v 0.128283 -1.463722 -0.390328
v 0.128283 1.463722 -0.390328
v 0.154716 -1.463722 -0.363895
v 0.154716 1.463722 -0.363895
v 0.164391 -1.463722 -0.327788
v 0.164391 1.463722 -0.327788
v 0.154716 -1.463722 -0.291680
v 0.154716 1.463722 -0.291680
v 0.128283 -1.463722 -0.265247
v 0.128283 1.463722 -0.265247
v 0.092175 -1.463722 -0.255572
v 0.092175 1.463722 -0.255572
v 0.056067 -1.463722 -0.265247
v 0.056067 1.463722 -0.265247
v 0.029635 -1.463722 -0.291680
v 0.029635 1.463722 -0.291680
v 0.019960 -1.463722 -0.327788
v 0.019960 1.463722 -0.327788
v 0.029635 -1.463722 -0.363895
v 0.029635 1.463722 -0.363895
v 0.056067 -1.463722 -0.390328
v 0.056067 1.463722 -0.390328
v 0.290224 -1.463722 -0.400003
v 0.290224 1.463722 -0.400003
v 0.326332 -1.463722 -0.390328
v 0.326332 1.463722 -0.390328
v 0.352764 -1.463722 -0.363895
v 0.352764 1.463722 -0.363895
v 0.362439 -1.463722 -0.327788
v 0.362439 1.463722 -0.327788
v 0.352764 -1.463722 -0.291680
v 0.352764 1.463722 -0.291680
v 0.326332 -1.463722 -0.265247
v 0.326332 1.463722 -0.265247
v 0.290224 -1.463722 -0.255572
v 0.290224 1.463722 -0.255572
v 0.254116 -1.463722 -0.265247
v 0.254116 1.463722 -0.265247
v 0.227683 -1.463722 -0.291680
v 0.227683 1.463722 -0.291680
v 0.218008 -1.463722 -0.327788
v 0.218008 1.463722 -0.327788
v 0.227683 -1.463722 -0.363895
v 0.227683 1.463722 -0.363895
v 0.254116 -1.463722 -0.390328
v 0.254116 1.463722 -0.390328
v 0.198049 -1.463722 -0.231741
v 0.198049 1.463722 -0.231741
v 0.234157 -1.463722 -0.222066
v 0.234157 1.463722 -0.222066
v 0.260589 -1.463722 -0.195633
v 0.260589 1.463722 -0.195633
v 0.270264 -1.463722 -0.159525
v 0.270264 1.463722 -0.159525
v 0.260589 -1.463722 -0.123417
v 0.260589 1.463722 -0.123417
v 0.234157 -1.463722 -0.096985
v 0.234157 1.463722 -0.096985
v 0.198049 -1.463722 -0.087310
v 0.198049 1.463722 -0.087310
v 0.161941 -1.463722 -0.096985
v 0.161941 1.463722 -0.096985
v 0.135508 -1.463722 -0.123417
v 0.135508 1.463722 -0.123417
v 0.125833 -1.463722 -0.159525
v 0.125833 1.463722 -0.159525
v 0.135508 -1.463722 -0.195633
v 0.135508 1.463722 -0.195633
v 0.161941 -1.463722 -0.222066
v 0.161941 1.463722 -0.222066
v 0.290224 -1.463722 -0.060810
v 0.290224 1.463722 -0.060810
v 0.326332 -1.463722 -0.051135
v 0.326332 1.463722 -0.051135
v 0.352764 -1.463722 -0.024703
v 0.352764 1.463722 -0.024703
v 0.362439 -1.463722 0.011405
v 0.362439 1.463722 0.011405
v 0.352764 -1.463722 0.047513
v 0.352764 1.463722 0.047513
v 0.326332 -1.463722 0.073946
v 0.326332 1.463722 0.073946
v 0.290224 -1.463722 0.083621
v 0.290224 1.463722 0.083621
v 0.254116 -1.463722 0.073946
v 0.254116 1.463722 0.073946
v 0.227683 -1.463722 0.047513
v 0.227683 1.463722 0.047513
v 0.218008 -1.463722 0.011405
v 0.218008 1.463722 0.011405
v 0.227683 -1.463722 -0.024703
v 0.227683 1.463722 -0.024703
v 0.254116 -1.463722 -0.051135
v 0.254116 1.463722 -0.051135
v 0.401388 -1.463722 -0.231741
v 0.401388 1.463722 -0.231741
v 0.437495 -1.463722 -0.222066
v 0.437495 1.463722 -0.222066
v 0.463928 -1.463722 -0.195633
v 0.463928 1.463722 -0.195633
v 0.473603 -1.463722 -0.159525
v 0.473603 1.463722 -0.159525
v 0.463928 -1.463722 -0.123417
v 0.463928 1.463722 -0.123417
v 0.437495 -1.463722 -0.096985
v 0.437495 1.463722 -0.096985
v 0.401388 -1.463722 -0.087310
v 0.401388 1.463722 -0.087310
v 0.365280 -1.463722 -0.096985
v 0.365280 1.463722 -0.096985
v 0.338847 -1.463722 -0.123417
v 0.338847 1.463722 -0.123417
v 0.329172 -1.463722 -0.159525
v 0.329172 1.463722 -0.159525
v 0.338847 -1.463722 -0.195633
v 0.338847 1.463722 -0.195633
v 0.365280 -1.463722 -0.222066
v 0.365280 1.463722 -0.222066
v -0.493563 -1.463722 -0.060810
v -0.493563 1.463722 -0.060810
v -0.529671 -1.463722 -0.051135
v -0.529671 1.463722 -0.051135
v -0.556103 -1.463722 -0.024703
v -0.556103 1.463722 -0.024703
v -0.565778 -1.463722 0.011405
v -0.565778 1.463722 0.011405
v -0.556103 -1.463722 0.047513
v -0.556103 1.463722 0.047513
v -0.529671 -1.463722 0.073946
v -0.529671 1.463722 0.073946
v -0.493563 -1.463722 0.083621
v -0.493563 1.463722 0.083621
v -0.457455 -1.463722 0.073946
v -0.457455 1.463722 0.073946
v -0.431022 -1.463722 0.047513
v -0.431022 1.463722 0.047513
v -0.421347 -1.463722 0.011405
v -0.421347 1.463722 0.011405
v -0.431022 -1.463722 -0.024703
v -0.431022 1.463722 -0.024703
v -0.457455 -1.463722 -0.051135
v -0.457455 1.463722 -0.051135
v -0.092175 -1.463722 -0.060810
v -0.092175 1.463722 -0.060810
v -0.128283 -1.463722 -0.051135
v -0.128283 1.463722 -0.051135
v -0.154716 -1.463722 -0.024703
v -0.154716 1.463722 -0.024703
v -0.164391 -1.463722 0.011405
v -0.164391 1.463722 0.011405
v -0.154716 -1.463722 0.047513
v -0.154716 1.463722 0.047513
v -0.128283 -1.463722 0.073946
v -0.128283 1.463722 0.073946
v -0.092175 -1.463722 0.083621
v -0.092175 1.463722 0.083621
v -0.056067 -1.463722 0.073946
v -0.056067 1.463722 0.073946
v -0.029635 -1.463722 0.047513
v -0.029635 1.463722 0.047513
v -0.019960 -1.463722 0.011405
v -0.019960 1.463722 0.011405
v -0.029635 -1.463722 -0.024703
v -0.029635 1.463722 -0.024703
v -0.056067 -1.463722 -0.051135
v -0.056067 1.463722 -0.051135
v -0.092175 -1.463722 -0.400003
v -0.092175 1.463722 -0.400003
v -0.128283 -1.463722 -0.390328
v -0.128283 1.463722 -0.390328
v -0.154716 -1.463722 -0.363895
v -0.154716 1.463722 -0.363895
v -0.164391 -1.463722 -0.327788
v -0.164391 1.463722 -0.327788
v -0.154716 -1.463722 -0.291680
v -0.154716 1.463722 -0.291680
v -0.128283 -1.463722 -0.265247
v -0.128283 1.463722 -0.265247
v -0.092175 -1.463722 -0.255572
v -0.092175 1.463722 -0.255572
v -0.056067 -1.463722 -0.265247
v -0.056067 1.463722 -0.265247
v -0.029635 -1.463722 -0.291680
v -0.029635 1.463722 -0.291680
v -0.019960 -1.463722 -0.327788
v -0.019960 1.463722 -0.327788
v -0.029635 -1.463722 -0.363895
v -0.029635 1.463722 -0.363895
v -0.056067 -1.463722 -0.390328
v -0.056067 1.463722 -0.390328
v -0.290224 -1.463722 -0.400003
v -0.290224 1.463722 -0.400003
v -0.326332 -1.463722 -0.390328
v -0.326332 1.463722 -0.390328
v -0.352765 -1.463722 -0.363895
v -0.352765 1.463722 -0.363895
v -0.362440 -1.463722 -0.327788
v -0.362440 1.463722 -0.327788
v -0.352765 -1.463722 -0.291680
v -0.352765 1.463722 -0.291680
v -0.326332 -1.463722 -0.265247
v -0.326332 1.463722 -0.265247
v -0.290224 -1.463722 -0.255572
v -0.290224 1.463722 -0.255572
v -0.254116 -1.463722 -0.265247
v -0.254116 1.463722 -0.265247
v -0.227684 -1.463722 -0.291680
v -0.227684 1.463722 -0.291680
v -0.218009 -1.463722 -0.327788
v -0.218009 1.463722 -0.327788
v -0.227684 -1.463722 -0.363895
v -0.227684 1.463722 -0.363895
v -0.254116 -1.463722 -0.390328
v -0.254116 1.463722 -0.390328
v -0.198049 -1.463722 -0.231741
v -0.198049 1.463722 -0.231741
v -0.234157 -1.463722 -0.222066
v -0.234157 1.463722 -0.222066
v -0.260589 -1.463722 -0.195633
v -0.260589 1.463722 -0.195633
v -0.270264 -1.463722 -0.159525
v -0.270264 1.463722 -0.159525
v -0.260589 -1.463722 -0.123417
v -0.260589 1.463722 -0.123417
v -0.234157 -1.463722 -0.096985
v -0.234157 1.463722 -0.096985
v -0.198049 -1.463722 -0.087310
v -0.198049 1.463722 -0.087310
v -0.161941 -1.463722 -0.096985
v -0.161941 1.463722 -0.096985
v -0.135508 -1.463722 -0.123417
v -0.135508 1.463722 -0.123417
v -0.125833 -1.463722 -0.159525
v -0.125833 1.463722 -0.159525
v -0.135508 -1.463722 -0.195633
v -0.135508 1.463722 -0.195633
v -0.161941 -1.463722 -0.222066
v -0.161941 1.463722 -0.222066
v -0.290224 -1.463722 -0.060810
v -0.290224 1.463722 -0.060810
v -0.326332 -1.463722 -0.051135
v -0.326332 1.463722 -0.051135
v -0.352765 -1.463722 -0.024703
v -0.352765 1.463722 -0.024703
v -0.362440 -1.463722 0.011405
v -0.362440 1.463722 0.011405
v -0.352765 -1.463722 0.047513
v -0.352765 1.463722 0.047513
v -0.326332 -1.463722 0.073946
v -0.326332 1.463722 0.073946
v -0.290224 -1.463722 0.083621
v -0.290224 1.463722 0.083621
v -0.254116 -1.463722 0.073946
v -0.254116 1.463722 0.073946
v -0.227684 -1.463722 0.047513
v -0.227684 1.463722 0.047513
v -0.218009 -1.463722 0.011405
v -0.218009 1.463722 0.011405
v -0.227684 -1.463722 -0.024703
v -0.227684 1.463722 -0.024703
v -0.254116 -1.463722 -0.051135
v -0.254116 1.463722 -0.051135
v -0.401388 -1.463722 -0.231741
v -0.401388 1.463722 -0.231741
v -0.437496 -1.463722 -0.222066
v -0.437496 1.463722 -0.222066
v -0.463928 -1.463722 -0.195633
v -0.463928 1.463722 -0.195633
v -0.473603 -1.463722 -0.159525
v -0.473603 1.463722 -0.159525
v -0.463928 -1.463722 -0.123417
v -0.463928 1.463722 -0.123417
v -0.437496 -1.463722 -0.096985
v -0.437496 1.463722 -0.096985
v -0.401388 -1.463722 -0.087310
v -0.401388 1.463722 -0.087310
v -0.365280 -1.463722 -0.096985
v -0.365280 1.463722 -0.096985
v -0.338847 -1.463722 -0.123417
v -0.338847 1.463722 -0.123417
v -0.329172 -1.463722 -0.159525
v -0.329172 1.463722 -0.159525
v -0.338847 -1.463722 -0.195633
v -0.338847 1.463722 -0.195633
v -0.365280 -1.463722 -0.222066
v -0.365280 1.463722 -0.222066
v -0.103891 1.483765 0.371615
v -0.089972 1.483765 0.319670
v 0.089972 1.483765 0.423561
v 0.051946 1.483765 0.461588
v -0.089972 1.483765 0.423561
v -0.051946 1.483765 0.461588
v 0.103891 1.483765 0.371615
v 0.089972 1.483765 0.319670
v 0.051946 1.483765 0.281643
v -0.051946 1.483765 0.281643
v -0.000000 1.483765 0.475506
v -0.000000 1.483765 0.267724
v -0.103891 -1.483765 0.371615
v -0.089972 -1.483765 0.319670
v 0.089972 -1.483765 0.423561
v 0.051946 -1.483765 0.461588
v -0.089972 -1.483765 0.423561
v -0.051946 -1.483765 0.461588
v 0.103891 -1.483765 0.371615
v 0.089972 -1.483765 0.319670
v 0.051946 -1.483765 0.281643
v -0.051946 -1.483765 0.281643
v -0.000000 -1.483765 0.475507
v -0.000000 -1.483765 0.267724
vn -0.0000 -0.0000 -1.0000
vn 0.2588 -0.0000 -0.9659
vn 0.5000 -0.0000 -0.8660
vn 0.7071 -0.0000 -0.7071
vn 0.8660 -0.0000 -0.5000
vn 0.9659 -0.0000 -0.2588
vn 1.0000 -0.0000 -0.0000
vn 0.9659 -0.0000 0.2588
vn 0.8660 -0.0000 0.5000
vn 0.7071 -0.0000 0.7071
vn 0.5000 -0.0000 0.8660
vn 0.2588 -0.0000 0.9659
vn -0.0000 -0.0000 1.0000
vn -0.2588 -0.0000 0.9659
vn -0.5000 -0.0000 0.8660
vn -0.7071 -0.0000 0.7071
vn -0.8660 -0.0000 0.5000
vn -0.9659 -0.0000 0.2588
vn -1.0000 -0.0000 -0.0000
vn -0.9659 -0.0000 -0.2588
vn -0.8660 -0.0000 -0.5000
vn -0.7071 -0.0000 -0.7071
vn -0.5000 -0.0000 -0.8660
vn -0.2588 -0.0000 -0.9659
vn -0.0000 -0.4154 -0.9097
vn 0.2354 -0.4154 -0.8787
vn -0.2354 0.4154 -0.8787
vn -0.0000 0.4154 -0.9097
vn -0.4548 0.4154 -0.7878
vn -0.6432 0.4154 -0.6432
vn -0.7878 0.4154 -0.4548
vn -0.8787 0.4154 -0.2354
vn -0.9097 0.4154 -0.0000
vn -0.8787 0.4154 0.2354
vn -0.7878 0.4154 0.4548
vn -0.6432 0.4154 0.6432
vn -0.4548 0.4154 0.7878
vn -0.2354 0.4154 0.8787
vn -0.0000 0.4154 0.9097
vn 0.2354 0.4154 0.8787
vn 0.4548 0.4154 0.7878
vn 0.6432 0.4154 0.6432
vn 0.7878 0.4154 0.4548
vn 0.8787 0.4154 0.2354
vn 0.9097 0.4154 -0.0000
vn 0.8787 0.4154 -0.2354
vn 0.7878 0.4154 -0.4548
vn 0.6432 0.4154 -0.6432
vn 0.4548 0.4154 -0.7878
vn 0.2354 0.4154 -0.8787
vn -0.2354 -0.4154 -0.8787
vn -0.4548 -0.4154 -0.7878
vn -0.6432 -0.4154 -0.6432
vn -0.7878 -0.4154 -0.4548
vn -0.8787 -0.4154 -0.2354
vn -0.9097 -0.4154 -0.0000
vn -0.8787 -0.4154 0.2354
vn -0.7878 -0.4154 0.4548
vn -0.6432 -0.4154 0.6432
vn -0.4548 -0.4154 0.7878
vn -0.2354 -0.4154 0.8787
vn -0.0000 -0.4154 0.9097
vn 0.2354 -0.4154 0.8787
vn 0.4548 -0.4154 0.7878
vn 0.6432 -0.4154 0.6432
vn 0.7878 -0.4154 0.4548
vn 0.8787 -0.4154 0.2354
vn 0.9097 -0.4154 -0.0000
vn 0.8787 -0.4154 -0.2354
vn 0.7878 -0.4154 -0.4548
vn 0.6432 -0.4154 -0.6432
vn 0.4548 -0.4154 -0.7878
vn -0.0000 -0.5753 -0.8179
vn 0.2117 -0.5753 -0.7900
vn -0.2117 0.5753 -0.7900
vn -0.0000 0.5753 -0.8179
vn -0.4090 0.5753 -0.7083
vn -0.5784 0.5753 -0.5784
vn -0.7083 0.5753 -0.4090
vn -0.7900 0.5753 -0.2117
vn -0.8179 0.5753 -0.0000
vn -0.7900 0.5753 0.2117
vn -0.7083 0.5753 0.4090
vn -0.5784 0.5753 0.5784
vn -0.4090 0.5753 0.7083
vn -0.2117 0.5753 0.7900
vn -0.0000 0.5753 0.8179
vn 0.2117 0.5753 0.7900
vn 0.4090 0.5753 0.7083
vn 0.5784 0.5753 0.5784
vn 0.7083 0.5753 0.4090
vn 0.7900 0.5753 0.2117
vn 0.8179 0.5753 -0.0000
vn 0.7900 0.5753 -0.2117
vn 0.7083 0.5753 -0.4090
vn 0.5784 0.5753 -0.5784
vn 0.4090 0.5753 -0.7083
vn 0.2117 0.5753 -0.7900
vn 0.4090 -0.5753 -0.7083
vn 0.5784 -0.5753 -0.5784
vn 0.7083 -0.5753 -0.4090
vn 0.7900 -0.5753 -0.2117
vn 0.8179 -0.5753 -0.0000
vn 0.7900 -0.5753 0.2117
vn 0.7083 -0.5753 0.4090
vn 0.5784 -0.5753 0.5784
vn 0.4090 -0.5753 0.7083
vn 0.2117 -0.5753 0.7900
vn -0.0000 -0.5753 0.8179
vn -0.2117 -0.5753 0.7900
vn -0.4090 -0.5753 0.7083
vn -0.5784 -0.5753 0.5784
vn -0.7083 -0.5753 0.4090
vn -0.7900 -0.5753 0.2117
vn -0.8179 -0.5753 -0.0000
vn -0.7900 -0.5753 -0.2117
vn -0.7083 -0.5753 -0.4090
vn -0.5784 -0.5753 -0.5784
vn -0.4090 -0.5753 -0.7083
vn -0.2117 -0.5753 -0.7900
vt 0.021311 0.312344
vt 0.013687 0.312347
vt 0.013677 0.287469
vt 0.021301 0.287465
vt 0.013666 0.262589
vt 0.021290 0.262586
vt 0.013654 0.237708
vt 0.021279 0.237705
vt 0.013642 0.212826
vt 0.021268 0.212822
vt 0.013630 0.187942
vt 0.021256 0.187938
vt 0.013617 0.163057
vt 0.021243 0.163053
vt 0.013604 0.138169
vt 0.021231 0.138165
vt 0.013591 0.113281
vt 0.021218 0.113276
vt 0.013576 0.088390
vt 0.021205 0.088386
vt 0.013558 0.063494
vt 0.021191 0.063491
vt 0.013547 0.038593
vt 0.021188 0.038593
vt 0.013540 0.013625
vt 0.021192 0.013622
vt 0.021372 0.610908
vt 0.013726 0.610907
vt 0.013728 0.585958
vt 0.021363 0.585956
vt 0.013739 0.561077
vt 0.021363 0.561078
vt 0.013741 0.536208
vt 0.021362 0.536208
vt 0.013739 0.511338
vt 0.021361 0.511337
vt 0.013736 0.486466
vt 0.021358 0.486465
vt 0.013731 0.461594
vt 0.021354 0.461593
vt 0.013726 0.436722
vt 0.021349 0.436720
vt 0.013720 0.411849
vt 0.021343 0.411847
vt 0.013713 0.386975
vt 0.021336 0.386972
vt 0.013705 0.362100
vt 0.021328 0.362097
vt 0.013697 0.337224
vt 0.021320 0.337221
vt 0.327186 0.312303
vt 0.325505 0.312303
vt 0.325507 0.287421
vt 0.327187 0.287421
vt 0.466217 0.337212
vt 0.466227 0.312329
vt 0.467907 0.312330
vt 0.467897 0.337212
vt 0.466209 0.362092
vt 0.467888 0.362093
vt 0.466200 0.386971
vt 0.467880 0.386972
vt 0.466192 0.411850
vt 0.467872 0.411850
vt 0.466185 0.436727
vt 0.467865 0.436727
vt 0.466179 0.461603
vt 0.467858 0.461603
vt 0.466173 0.486478
vt 0.467852 0.486478
vt 0.466167 0.511353
vt 0.467847 0.511353
vt 0.466163 0.536227
vt 0.467842 0.536227
vt 0.466159 0.561102
vt 0.467839 0.561101
vt 0.466154 0.585979
vt 0.467836 0.585982
vt 0.466144 0.610848
vt 0.467824 0.610936
vt 0.466251 0.038576
vt 0.466247 0.013695
vt 0.467927 0.013607
vt 0.467934 0.038573
vt 0.466251 0.063464
vt 0.467932 0.063465
vt 0.466249 0.088351
vt 0.467929 0.088351
vt 0.466247 0.113236
vt 0.467927 0.113236
vt 0.466246 0.138122
vt 0.467926 0.138122
vt 0.466245 0.163008
vt 0.467925 0.163008
vt 0.466244 0.187895
vt 0.467924 0.187895
vt 0.466243 0.212781
vt 0.467923 0.212781
vt 0.466241 0.237669
vt 0.467922 0.237668
vt 0.466240 0.262556
vt 0.467921 0.262556
vt 0.466236 0.287444
vt 0.467919 0.287446
vt 0.317879 0.337184
vt 0.317880 0.312303
vt 0.325504 0.337185
vt 0.317877 0.362065
vt 0.325502 0.362065
vt 0.317875 0.386944
vt 0.325500 0.386945
vt 0.317873 0.411823
vt 0.325497 0.411824
vt 0.317871 0.436701
vt 0.325495 0.436702
vt 0.317869 0.461579
vt 0.325493 0.461580
vt 0.317867 0.486456
vt 0.325490 0.486456
vt 0.317865 0.511332
vt 0.325488 0.511333
vt 0.317863 0.536208
vt 0.325486 0.536208
vt 0.317860 0.561083
vt 0.325485 0.561083
vt 0.317853 0.585960
vt 0.325487 0.585961
vt 0.317844 0.610917
vt 0.325491 0.610918
vt 0.317880 0.038562
vt 0.317874 0.013591
vt 0.325527 0.013592
vt 0.325518 0.038562
vt 0.317883 0.063452
vt 0.325512 0.063453
vt 0.317883 0.088339
vt 0.325511 0.088340
vt 0.317883 0.113226
vt 0.325510 0.113226
vt 0.317883 0.138113
vt 0.325510 0.138113
vt 0.317883 0.162999
vt 0.325509 0.162999
vt 0.317883 0.187884
vt 0.325509 0.187884
vt 0.317883 0.212769
vt 0.325509 0.212770
vt 0.317883 0.237654
vt 0.325508 0.237654
vt 0.317882 0.262538
vt 0.325508 0.262538
vt 0.317881 0.287420
vt 0.022991 0.312343
vt 0.022981 0.287465
vt 0.475522 0.337215
vt 0.475533 0.312334
vt 0.475513 0.362095
vt 0.475504 0.386974
vt 0.475496 0.411852
vt 0.475488 0.436729
vt 0.475482 0.461605
vt 0.475475 0.486480
vt 0.475470 0.511355
vt 0.475465 0.536228
vt 0.475464 0.561101
vt 0.475471 0.585984
vt 0.475470 0.610937
vt 0.475573 0.038572
vt 0.475578 0.013608
vt 0.475560 0.063468
vt 0.475555 0.088352
vt 0.475554 0.113237
vt 0.475553 0.138122
vt 0.475552 0.163008
vt 0.475551 0.187895
vt 0.475550 0.212782
vt 0.475549 0.237669
vt 0.475548 0.262556
vt 0.475548 0.287449
vt 0.316201 0.287421
vt 0.316202 0.262538
vt 0.316202 0.237654
vt 0.316202 0.212770
vt 0.316202 0.187885
vt 0.316202 0.162999
vt 0.316202 0.138113
vt 0.316202 0.113226
vt 0.316202 0.088339
vt 0.316202 0.063452
vt 0.316198 0.038564
vt 0.316193 0.013681
vt 0.316165 0.610827
vt 0.316173 0.585958
vt 0.316179 0.561083
vt 0.316182 0.536208
vt 0.316185 0.511332
vt 0.316187 0.486456
vt 0.316189 0.461579
vt 0.316191 0.436701
vt 0.316193 0.411823
vt 0.316195 0.386944
vt 0.316197 0.362065
vt 0.316198 0.337184
vt 0.316200 0.312303
vt 0.023000 0.337221
vt 0.023008 0.362097
vt 0.023016 0.386972
vt 0.023022 0.411846
vt 0.023028 0.436720
vt 0.023033 0.461593
vt 0.023037 0.486465
vt 0.023040 0.511336
vt 0.023042 0.536208
vt 0.023043 0.561079
vt 0.023045 0.585953
vt 0.023051 0.610819
vt 0.022872 0.013711
vt 0.022871 0.038596
vt 0.022875 0.063491
vt 0.022886 0.088384
vt 0.022899 0.113275
vt 0.022911 0.138164
vt 0.022924 0.163052
vt 0.022936 0.187937
vt 0.022948 0.212821
vt 0.022959 0.237704
vt 0.022970 0.262585
vt 0.163930 0.312308
vt 0.163926 0.287427
vt 0.175252 0.337187
vt 0.175249 0.312307
vt 0.175255 0.362066
vt 0.175258 0.386945
vt 0.175260 0.411822
vt 0.175261 0.436700
vt 0.175263 0.461576
vt 0.175264 0.486452
vt 0.175264 0.511328
vt 0.175265 0.536203
vt 0.175267 0.561078
vt 0.175273 0.585954
vt 0.175282 0.610821
vt 0.175217 0.038562
vt 0.175226 0.013679
vt 0.175213 0.063453
vt 0.175214 0.088343
vt 0.175217 0.113231
vt 0.175221 0.138119
vt 0.175225 0.163006
vt 0.175229 0.187892
vt 0.175234 0.212777
vt 0.175238 0.237661
vt 0.175242 0.262544
vt 0.175246 0.287426
vt 0.327188 0.262538
vt 0.327189 0.237654
vt 0.327189 0.212769
vt 0.327190 0.187884
vt 0.327190 0.162999
vt 0.327190 0.138113
vt 0.327191 0.113226
vt 0.327192 0.088339
vt 0.327194 0.063452
vt 0.327200 0.038564
vt 0.327208 0.013682
vt 0.327168 0.585959
vt 0.327171 0.610829
vt 0.327166 0.561084
vt 0.327166 0.536208
vt 0.327168 0.511333
vt 0.327170 0.486456
vt 0.327173 0.461579
vt 0.327175 0.436702
vt 0.327177 0.411824
vt 0.327180 0.386945
vt 0.327182 0.362065
vt 0.327184 0.337185
vt 0.165788 0.287427
vt 0.165784 0.262545
vt 0.173379 0.262544
vt 0.173383 0.287426
vt 0.165780 0.237663
vt 0.173375 0.237661
vt 0.165775 0.212779
vt 0.173371 0.212778
vt 0.165770 0.187894
vt 0.173367 0.187893
vt 0.165766 0.163008
vt 0.173362 0.163007
vt 0.165761 0.138121
vt 0.173358 0.138120
vt 0.165757 0.113233
vt 0.173354 0.113232
vt 0.165752 0.088344
vt 0.173350 0.088343
vt 0.165747 0.063455
vt 0.173348 0.063454
vt 0.165737 0.038559
vt 0.173352 0.038558
vt 0.165723 0.013540
vt 0.173361 0.013540
vt 0.165789 0.610958
vt 0.165800 0.585957
vt 0.173410 0.585957
vt 0.173420 0.610958
vt 0.165808 0.561078
vt 0.173403 0.561078
vt 0.165809 0.536203
vt 0.173403 0.536203
vt 0.165809 0.511329
vt 0.173402 0.511328
vt 0.165808 0.486453
vt 0.173402 0.486453
vt 0.165807 0.461577
vt 0.173401 0.461577
vt 0.165806 0.436701
vt 0.173399 0.436700
vt 0.165804 0.411824
vt 0.173398 0.411823
vt 0.165802 0.386946
vt 0.173396 0.386945
vt 0.165799 0.362067
vt 0.173393 0.362066
vt 0.165796 0.337188
vt 0.173390 0.337187
vt 0.165792 0.312308
vt 0.173387 0.312307
vt 0.163934 0.337189
vt 0.163937 0.362068
vt 0.163939 0.386946
vt 0.163942 0.411824
vt 0.163944 0.436701
vt 0.163945 0.461577
vt 0.163946 0.486453
vt 0.163947 0.511329
vt 0.163946 0.536204
vt 0.163944 0.561078
vt 0.163937 0.585953
vt 0.163927 0.610820
vt 0.163872 0.038563
vt 0.163858 0.013678
vt 0.163882 0.063455
vt 0.163888 0.088345
vt 0.163893 0.113234
vt 0.163898 0.138122
vt 0.163903 0.163009
vt 0.163908 0.187895
vt 0.163912 0.212779
vt 0.163917 0.237663
vt 0.163922 0.262546
vt 0.067932 0.617988
vt 0.077106 0.617988
vt 0.077106 0.990575
vt 0.067932 0.990575
vt 0.086281 0.617988
vt 0.086281 0.990575
vt 0.095455 0.617988
vt 0.095455 0.990575
vt 0.104630 0.617988
vt 0.104630 0.990575
vt 0.113804 0.617988
vt 0.113804 0.990575
vt 0.122979 0.617988
vt 0.122979 0.990575
vt 0.012884 0.617988
vt 0.022059 0.617988
vt 0.022059 0.990575
vt 0.012884 0.990575
vt 0.031233 0.617988
vt 0.031233 0.990575
vt 0.040408 0.617988
vt 0.040408 0.990575
vt 0.049582 0.617988
vt 0.049582 0.990575
vt 0.058757 0.617988
vt 0.058757 0.990575
vt 0.067932 0.617988
vt 0.077106 0.617988
vt 0.077106 0.990575
vt 0.067932 0.990575
vt 0.086281 0.617988
vt 0.086281 0.990575
vt 0.095455 0.617988
vt 0.095455 0.990575
vt 0.104630 0.617988
vt 0.104630 0.990575
vt 0.113804 0.617988
vt 0.113804 0.990575
vt 0.122979 0.617988
vt 0.122979 0.990575
vt 0.012884 0.617988
vt 0.022059 0.617988
vt 0.022059 0.990575
vt 0.012884 0.990575
vt 0.031233 0.617988
vt 0.031233 0.990575
vt 0.040408 0.617988
vt 0.040408 0.990575
vt 0.049582 0.617988
vt 0.049582 0.990575
vt 0.058757 0.617988
vt 0.058757 0.990575
vt 0.067932 0.617988
vt 0.077106 0.617988
vt 0.086281 0.617988
vt 0.095455 0.617988
vt 0.104630 0.617988
vt 0.113804 0.990575
vt 0.122979 0.617988
vt 0.122979 0.990575
vt 0.012884 0.617988
vt 0.022059 0.617988
vt 0.022059 0.990575
vt 0.031233 0.617988
vt 0.031233 0.990575
vt 0.040408 0.617988
vt 0.049582 0.617988
vt 0.049582 0.990575
vt 0.058757 0.617988
vt 0.077106 0.617988
vt 0.077106 0.990575
vt 0.067932 0.990575
vt 0.086281 0.990575
vt 0.095455 0.617988
vt 0.095455 0.990575
vt 0.104630 0.990575
vt 0.113805 0.617988
vt 0.113805 0.990575
vt 0.122979 0.990575
vt 0.022059 0.990575
vt 0.031233 0.990575
vt 0.040408 0.990575
vt 0.049582 0.990575
vt 0.058757 0.990575
vt 0.122979 0.617988
vt 0.022059 0.617988
vt 0.040408 0.617988
vt 0.040408 0.990575
vt 0.067932 0.990575
vt 0.086281 0.990575
vt 0.104630 0.617988
vt 0.104630 0.990575
vt 0.067932 0.617988
vt 0.077106 0.617988
vt 0.086281 0.617988
vt 0.095455 0.617988
vt 0.095455 0.990575
vt 0.104630 0.617988
vt 0.113805 0.617988
vt 0.113804 0.990575
vt 0.122979 0.617988
vt 0.122979 0.990575
vt 0.012884 0.617988
vt 0.022059 0.617988
vt 0.031233 0.617988
vt 0.040408 0.617988
vt 0.049582 0.617988
vt 0.058757 0.617988
vt 0.067932 0.617988
vt 0.067932 0.990575
vt 0.086281 0.990575
vt 0.104630 0.990575
vt 0.113804 0.990575
vt 0.122979 0.617988
vt 0.122979 0.990575
vt 0.022059 0.990575
vt 0.012884 0.990575
vt 0.031233 0.617988
vt 0.031233 0.990575
vt 0.040408 0.617988
vt 0.040408 0.990575
vt 0.049582 0.617988
vt 0.049583 0.990575
vt 0.058757 0.617988
vt 0.104630 0.990575
vt 0.067932 0.990575
vt 0.058757 0.990575
vt 0.049582 0.990575
vt 0.122979 0.617988
vt 0.113804 0.617988
vt 0.104630 0.990575
vt 0.104630 0.617988
vt 0.095455 0.990575
vt 0.095455 0.617988
vt 0.086281 0.990575
vt 0.086281 0.617988
vt 0.077106 0.990575
vt 0.077106 0.617988
vt 0.067932 0.617988
vt 0.067932 0.990575
vt 0.049583 0.990575
vt 0.049583 0.617988
vt 0.031233 0.617988
vt 0.012884 0.990575
vt 0.012884 0.617988
vt 0.122979 0.617988
vt 0.122979 0.990575
vt 0.104630 0.990575
vt 0.104630 0.617988
vt 0.086281 0.990575
vt 0.086281 0.617988
vt 0.067932 0.617988
vt 0.058757 0.990575
vt 0.058757 0.617988
vt 0.049582 0.617988
vt 0.040408 0.617988
vt 0.031233 0.617988
vt 0.022059 0.617988
vt 0.012884 0.617988
vt 0.122979 0.617988
vt 0.122979 0.990575
vt 0.113804 0.990575
vt 0.113804 0.617988
vt 0.104630 0.990575
vt 0.104630 0.617988
vt 0.095455 0.990575
vt 0.095455 0.617988
vt 0.077106 0.990575
vt 0.077106 0.617988
vt 0.113805 0.990575
vt 0.095455 0.990575
vt 0.031233 0.990575
vt 0.031233 0.617988
vt 0.022059 0.990575
vt 0.022059 0.617988
vt 0.113804 0.990575
vt 0.127828 0.620421
vt 0.140648 0.620421
vt 0.140648 0.989828
vt 0.127828 0.989828
vt 0.204745 0.620421
vt 0.217565 0.620421
vt 0.217565 0.989828
vt 0.204745 0.989828
vt 0.153467 0.620421
vt 0.166287 0.620421
vt 0.166287 0.989828
vt 0.153467 0.989828
vt 0.243204 0.620421
vt 0.256024 0.620421
vt 0.256024 0.989828
vt 0.243204 0.989828
vt 0.179106 0.620421
vt 0.179106 0.989828
vt 0.268843 0.620421
vt 0.268843 0.989828
vt 0.230385 0.620421
vt 0.230384 0.989828
vt 0.191926 0.620421
vt 0.191926 0.989828
vt 0.281663 0.620421
vt 0.281663 0.989828
s 1
usemtl 1.25m_Boiler
f 49/1/1 2/2/1 4/3/2 50/4/2
f 50/4/2 4/3/2 6/5/3 51/6/3
f 51/6/3 6/5/3 8/7/4 52/8/4
f 52/8/4 8/7/4 10/9/5 53/10/5
f 53/10/5 10/9/5 12/11/6 54/12/6
f 54/12/6 12/11/6 14/13/7 55/14/7
f 55/14/7 14/13/7 16/15/8 56/16/8
f 56/16/8 16/15/8 18/17/9 57/18/9
f 57/18/9 18/17/9 20/19/10 58/20/10
f 58/20/10 20/19/10 22/21/11 59/22/11
f 59/22/11 22/21/11 24/23/12 60/24/12
f 60/24/12 24/23/12 26/25/13 61/26/13
f 61/27/13 26/28/13 28/29/14 62/30/14
f 62/30/14 28/29/14 30/31/15 63/32/15
f 63/32/15 30/31/15 32/33/16 64/34/16
f 64/34/16 32/33/16 34/35/17 65/36/17
f 65/36/17 34/35/17 36/37/18 66/38/18
f 66/38/18 36/37/18 38/39/19 67/40/19
f 67/40/19 38/39/19 40/41/20 68/42/20
f 68/42/20 40/41/20 42/43/21 69/44/21
f 69/44/21 42/43/21 44/45/22 70/46/22
f 70/46/22 44/45/22 46/47/23 71/48/23
f 71/48/23 46/47/23 48/49/24 72/50/24
f 72/50/24 48/49/24 2/2/1 49/1/1
f 193/51/25 96/52/25 95/53/26 194/54/26
f 239/55/27 240/56/28 120/57/28 119/58/27
f 238/59/29 239/55/27 119/58/27 118/60/29
f 237/61/30 238/59/29 118/60/29 117/62/30
f 236/63/31 237/61/30 117/62/30 116/64/31
f 235/65/32 236/63/31 116/64/31 115/66/32
f 234/67/33 235/65/32 115/66/32 114/68/33
f 233/69/34 234/67/33 114/68/33 113/70/34
f 232/71/35 233/69/34 113/70/34 112/72/35
f 231/73/36 232/71/35 112/72/35 111/74/36
f 230/75/37 231/73/36 111/74/36 110/76/37
f 229/77/38 230/75/37 110/76/37 109/78/38
f 228/79/39 229/77/38 109/78/38 108/80/39
f 227/81/40 228/82/39 108/83/39 107/84/40
f 226/85/41 227/81/40 107/84/40 106/86/41
f 225/87/42 226/85/41 106/86/41 105/88/42
f 224/89/43 225/87/42 105/88/42 104/90/43
f 223/91/44 224/89/43 104/90/43 103/92/44
f 222/93/45 223/91/44 103/92/44 102/94/45
f 221/95/46 222/93/45 102/94/45 101/96/46
f 220/97/47 221/95/46 101/96/46 100/98/47
f 219/99/48 220/97/47 100/98/47 99/100/48
f 218/101/49 219/99/48 99/100/48 98/102/49
f 217/103/50 218/101/49 98/102/49 97/104/50
f 121/105/24 122/106/1 96/52/1 73/107/24
f 123/108/23 121/105/24 73/107/24 74/109/23
f 124/110/22 123/108/23 74/109/23 75/111/22
f 125/112/21 124/110/22 75/111/22 76/113/21
f 126/114/20 125/112/21 76/113/21 77/115/20
f 127/116/19 126/114/20 77/115/20 78/117/19
f 128/118/18 127/116/19 78/117/19 79/119/18
f 129/120/17 128/118/18 79/119/18 80/121/17
f 130/122/16 129/120/17 80/121/17 81/123/16
f 131/124/15 130/122/16 81/123/16 82/125/15
f 132/126/14 131/124/15 82/125/15 83/127/14
f 133/128/13 132/126/14 83/127/14 84/129/13
f 134/130/12 133/131/13 84/132/13 85/133/12
f 135/134/11 134/130/12 85/133/12 86/135/11
f 136/136/10 135/134/11 86/135/11 87/137/10
f 137/138/9 136/136/10 87/137/10 88/139/9
f 138/140/8 137/138/9 88/139/9 89/141/8
f 139/142/7 138/140/8 89/141/8 90/143/7
f 140/144/6 139/142/7 90/143/7 91/145/6
f 141/146/5 140/144/6 91/145/6 92/147/5
f 142/148/4 141/146/5 92/147/5 93/149/4
f 143/150/3 142/148/4 93/149/4 94/151/3
f 144/152/2 143/150/3 94/151/3 95/53/2
f 145/153/25 49/1/25 50/4/26 168/154/26
f 47/155/24 119/58/24 120/57/1 1/156/1
f 45/157/23 118/60/23 119/58/24 47/155/24
f 43/158/22 117/62/22 118/60/23 45/157/23
f 41/159/21 116/64/21 117/62/22 43/158/22
f 39/160/20 115/66/20 116/64/21 41/159/21
f 37/161/19 114/68/19 115/66/20 39/160/20
f 35/162/18 113/70/18 114/68/19 37/161/19
f 33/163/17 112/72/17 113/70/18 35/162/18
f 31/164/16 111/74/16 112/72/17 33/163/17
f 29/165/15 110/76/15 111/74/16 31/164/16
f 27/166/14 109/78/14 110/76/15 29/165/15
f 25/167/13 108/80/13 109/78/14 27/166/14
f 23/168/12 107/84/12 108/83/13 25/169/13
f 21/170/11 106/86/11 107/84/12 23/168/12
f 19/171/10 105/88/10 106/86/11 21/170/11
f 17/172/9 104/90/9 105/88/10 19/171/10
f 15/173/8 103/92/8 104/90/9 17/172/9
f 13/174/7 102/94/7 103/92/8 15/173/8
f 11/175/6 101/96/6 102/94/7 13/174/7
f 9/176/5 100/98/5 101/96/6 11/175/6
f 7/177/4 99/100/4 100/98/5 9/176/5
f 5/178/3 98/102/3 99/100/4 7/177/4
f 3/179/2 97/104/2 98/102/3 5/178/3
f 1/156/1 120/57/1 97/104/2 3/179/2
f 96/52/1 122/106/1 144/152/2 95/53/2
f 191/180/50 190/181/49 143/150/49 144/152/50
f 190/181/49 189/182/48 142/148/48 143/150/49
f 189/182/48 188/183/47 141/146/47 142/148/48
f 188/183/47 187/184/46 140/144/46 141/146/47
f 187/184/46 186/185/45 139/142/45 140/144/46
f 186/185/45 185/186/44 138/140/44 139/142/45
f 185/186/44 184/187/43 137/138/43 138/140/44
f 184/187/43 183/188/42 136/136/42 137/138/43
f 183/188/42 182/189/41 135/134/41 136/136/42
f 182/189/41 181/190/40 134/130/40 135/134/41
f 181/190/40 180/191/39 133/131/39 134/130/40
f 180/192/39 179/193/38 132/126/38 133/128/39
f 179/193/38 178/194/37 131/124/37 132/126/38
f 178/194/37 177/195/36 130/122/36 131/124/37
f 177/195/36 176/196/35 129/120/35 130/122/36
f 176/196/35 175/197/34 128/118/34 129/120/35
f 175/197/34 174/198/33 127/116/33 128/118/34
f 174/198/33 173/199/32 126/114/32 127/116/33
f 173/199/32 172/200/31 125/112/31 126/114/32
f 172/200/31 171/201/30 124/110/30 125/112/31
f 171/201/30 170/202/29 123/108/29 124/110/30
f 170/202/29 169/203/27 121/105/27 123/108/29
f 169/203/27 192/204/28 122/106/28 121/105/27
f 72/50/51 49/1/25 145/153/25 146/205/51
f 71/48/52 72/50/51 146/205/51 147/206/52
f 70/46/53 71/48/52 147/206/52 148/207/53
f 69/44/54 70/46/53 148/207/53 149/208/54
f 68/42/55 69/44/54 149/208/54 150/209/55
f 67/40/56 68/42/55 150/209/55 151/210/56
f 66/38/57 67/40/56 151/210/56 152/211/57
f 65/36/58 66/38/57 152/211/57 153/212/58
f 64/34/59 65/36/58 153/212/58 154/213/59
f 63/32/60 64/34/59 154/213/59 155/214/60
f 62/30/61 63/32/60 155/214/60 156/215/61
f 61/27/62 62/30/61 156/215/61 157/216/62
f 60/24/63 61/26/62 157/217/62 158/218/63
f 59/22/64 60/24/63 158/218/63 159/219/64
f 58/20/65 59/22/64 159/219/64 160/220/65
f 57/18/66 58/20/65 160/220/65 161/221/66
f 56/16/67 57/18/66 161/221/66 162/222/67
f 55/14/68 56/16/67 162/222/67 163/223/68
f 54/12/69 55/14/68 163/223/68 164/224/69
f 53/10/70 54/12/69 164/224/69 165/225/70
f 52/8/71 53/10/70 165/225/70 166/226/71
f 51/6/72 52/8/71 166/226/71 167/227/72
f 50/4/26 51/6/72 167/227/72 168/154/26
f 289/228/1 145/153/1 168/154/2 312/229/2
f 122/106/28 192/204/28 191/180/50 144/152/50
f 313/230/24 336/231/1 192/204/1 169/203/24
f 314/232/23 313/230/24 169/203/24 170/202/23
f 315/233/22 314/232/23 170/202/23 171/201/22
f 316/234/21 315/233/22 171/201/22 172/200/21
f 317/235/20 316/234/21 172/200/21 173/199/20
f 318/236/19 317/235/20 173/199/20 174/198/19
f 319/237/18 318/236/19 174/198/19 175/197/18
f 320/238/17 319/237/18 175/197/18 176/196/17
f 321/239/16 320/238/17 176/196/17 177/195/16
f 322/240/15 321/239/16 177/195/16 178/194/15
f 323/241/14 322/240/15 178/194/15 179/193/14
f 324/242/13 323/241/14 179/193/14 180/192/13
f 325/243/12 324/244/13 180/191/13 181/190/12
f 326/245/11 325/243/12 181/190/12 182/189/11
f 327/246/10 326/245/11 182/189/11 183/188/10
f 328/247/9 327/246/10 183/188/10 184/187/9
f 329/248/8 328/247/9 184/187/9 185/186/8
f 330/249/7 329/248/8 185/186/8 186/185/7
f 331/250/6 330/249/7 186/185/7 187/184/6
f 332/251/5 331/250/6 187/184/6 188/183/5
f 333/252/4 332/251/5 188/183/5 189/182/4
f 334/253/3 333/252/4 189/182/4 190/181/3
f 335/254/2 334/253/3 190/181/3 191/180/2
f 95/53/26 94/151/72 195/255/72 194/54/26
f 94/151/72 93/149/71 196/256/71 195/255/72
f 93/149/71 92/147/70 197/257/70 196/256/71
f 92/147/70 91/145/69 198/258/69 197/257/70
f 91/145/69 90/143/68 199/259/68 198/258/69
f 90/143/68 89/141/67 200/260/67 199/259/68
f 89/141/67 88/139/66 201/261/66 200/260/67
f 88/139/66 87/137/65 202/262/65 201/261/66
f 87/137/65 86/135/64 203/263/64 202/262/65
f 86/135/64 85/133/63 204/264/63 203/263/64
f 85/133/63 84/132/62 205/265/62 204/264/63
f 84/129/62 83/127/61 206/266/61 205/267/62
f 83/127/61 82/125/60 207/268/60 206/266/61
f 82/125/60 81/123/59 208/269/59 207/268/60
f 81/123/59 80/121/58 209/270/58 208/269/59
f 80/121/58 79/119/57 210/271/57 209/270/58
f 79/119/57 78/117/56 211/272/56 210/271/57
f 78/117/56 77/115/55 212/273/55 211/272/56
f 77/115/55 76/113/54 213/274/54 212/273/55
f 76/113/54 75/111/53 214/275/53 213/274/54
f 75/111/53 74/109/52 215/276/52 214/275/53
f 74/109/52 73/107/51 216/277/51 215/276/52
f 73/107/51 96/52/25 193/51/25 216/277/51
f 240/56/1 193/51/1 194/54/2 217/103/2
f 120/57/28 240/56/28 217/103/50 97/104/50
f 194/54/2 195/255/3 218/101/3 217/103/2
f 195/255/3 196/256/4 219/99/4 218/101/3
f 196/256/4 197/257/5 220/97/5 219/99/4
f 197/257/5 198/258/6 221/95/6 220/97/5
f 198/258/6 199/259/7 222/93/7 221/95/6
f 199/259/7 200/260/8 223/91/8 222/93/7
f 200/260/8 201/261/9 224/89/9 223/91/8
f 201/261/9 202/262/10 225/87/10 224/89/9
f 202/262/10 203/263/11 226/85/11 225/87/10
f 203/263/11 204/264/12 227/81/12 226/85/11
f 204/264/12 205/265/13 228/82/13 227/81/12
f 205/267/13 206/266/14 229/77/14 228/79/13
f 206/266/14 207/268/15 230/75/15 229/77/14
f 207/268/15 208/269/16 231/73/16 230/75/15
f 208/269/16 209/270/17 232/71/17 231/73/16
f 209/270/17 210/271/18 233/69/18 232/71/17
f 210/271/18 211/272/19 234/67/19 233/69/18
f 211/272/19 212/273/20 235/65/20 234/67/19
f 212/273/20 213/274/21 236/63/21 235/65/20
f 213/274/21 214/275/22 237/61/22 236/63/21
f 214/275/22 215/276/23 238/59/23 237/61/22
f 215/276/23 216/277/24 239/55/24 238/59/23
f 216/277/24 193/51/1 240/56/1 239/55/24
f 288/278/2 287/279/3 263/280/3 264/281/2
f 287/279/3 286/282/4 262/283/4 263/280/3
f 286/282/4 285/284/5 261/285/5 262/283/4
f 285/284/5 284/286/6 260/287/6 261/285/5
f 284/286/6 283/288/7 259/289/7 260/287/6
f 283/288/7 282/290/8 258/291/8 259/289/7
f 282/290/8 281/292/9 257/293/9 258/291/8
f 281/292/9 280/294/10 256/295/10 257/293/9
f 280/294/10 279/296/11 255/297/11 256/295/10
f 279/296/11 278/298/12 254/299/12 255/297/11
f 278/298/12 277/300/13 253/301/13 254/299/12
f 277/302/13 276/303/14 252/304/14 253/305/13
f 276/303/14 275/306/15 251/307/15 252/304/14
f 275/306/15 274/308/16 250/309/16 251/307/15
f 274/308/16 273/310/17 249/311/17 250/309/16
f 273/310/17 272/312/18 248/313/18 249/311/17
f 272/312/18 271/314/19 247/315/19 248/313/18
f 271/314/19 270/316/20 246/317/20 247/315/19
f 270/316/20 269/318/21 245/319/21 246/317/20
f 269/318/21 268/320/22 244/321/22 245/319/21
f 268/320/22 267/322/23 243/323/23 244/321/22
f 267/322/23 266/324/24 242/325/24 243/323/23
f 266/324/24 265/326/1 241/327/1 242/325/24
f 336/231/73 241/327/73 264/281/74 335/254/74
f 290/328/75 289/228/76 265/326/76 266/324/75
f 291/329/77 290/328/75 266/324/75 267/322/77
f 292/330/78 291/329/77 267/322/77 268/320/78
f 293/331/79 292/330/78 268/320/78 269/318/79
f 294/332/80 293/331/79 269/318/79 270/316/80
f 295/333/81 294/332/80 270/316/80 271/314/81
f 296/334/82 295/333/81 271/314/81 272/312/82
f 297/335/83 296/334/82 272/312/82 273/310/83
f 298/336/84 297/335/83 273/310/83 274/308/84
f 299/337/85 298/336/84 274/308/84 275/306/85
f 300/338/86 299/337/85 275/306/85 276/303/86
f 301/339/87 300/338/86 276/303/86 277/302/87
f 302/340/88 301/341/87 277/300/87 278/298/88
f 303/342/89 302/340/88 278/298/88 279/296/89
f 304/343/90 303/342/89 279/296/89 280/294/90
f 305/344/91 304/343/90 280/294/90 281/292/91
f 306/345/92 305/344/91 281/292/91 282/290/92
f 307/346/93 306/345/92 282/290/92 283/288/93
f 308/347/94 307/346/93 283/288/93 284/286/94
f 309/348/95 308/347/94 284/286/94 285/284/95
f 310/349/96 309/348/95 285/284/95 286/282/96
f 311/350/97 310/349/96 286/282/96 287/279/97
f 312/229/98 311/350/97 287/279/97 288/278/98
f 241/327/1 265/326/1 288/278/2 264/281/2
f 168/154/2 167/227/3 311/350/3 312/229/2
f 167/227/3 166/226/4 310/349/4 311/350/3
f 166/226/4 165/225/5 309/348/5 310/349/4
f 165/225/5 164/224/6 308/347/6 309/348/5
f 164/224/6 163/223/7 307/346/7 308/347/6
f 163/223/7 162/222/8 306/345/8 307/346/7
f 162/222/8 161/221/9 305/344/9 306/345/8
f 161/221/9 160/220/10 304/343/10 305/344/9
f 160/220/10 159/219/11 303/342/11 304/343/10
f 159/219/11 158/218/12 302/340/12 303/342/11
f 158/218/12 157/217/13 301/341/13 302/340/12
f 157/216/13 156/215/14 300/338/14 301/339/13
f 156/215/14 155/214/15 299/337/15 300/338/14
f 155/214/15 154/213/16 298/336/16 299/337/15
f 154/213/16 153/212/17 297/335/17 298/336/16
f 153/212/17 152/211/18 296/334/18 297/335/17
f 152/211/18 151/210/19 295/333/19 296/334/18
f 151/210/19 150/209/20 294/332/20 295/333/19
f 150/209/20 149/208/21 293/331/21 294/332/20
f 149/208/21 148/207/22 292/330/22 293/331/21
f 148/207/22 147/206/23 291/329/23 292/330/22
f 147/206/23 146/205/24 290/328/24 291/329/23
f 146/205/24 145/153/1 289/228/1 290/328/24
f 265/326/76 289/228/76 312/229/98 288/278/98
f 192/204/1 336/231/1 335/254/2 191/180/2
f 264/281/74 263/280/99 334/253/99 335/254/74
f 263/280/99 262/283/100 333/252/100 334/253/99
f 262/283/100 261/285/101 332/251/101 333/252/100
f 261/285/101 260/287/102 331/250/102 332/251/101
f 260/287/102 259/289/103 330/249/103 331/250/102
f 259/289/103 258/291/104 329/248/104 330/249/103
f 258/291/104 257/293/105 328/247/105 329/248/104
f 257/293/105 256/295/106 327/246/106 328/247/105
f 256/295/106 255/297/107 326/245/107 327/246/106
f 255/297/107 254/299/108 325/243/108 326/245/107
f 254/299/108 253/301/109 324/244/109 325/243/108
f 253/305/109 252/304/110 323/241/110 324/242/109
f 252/304/110 251/307/111 322/240/111 323/241/110
f 251/307/111 250/309/112 321/239/112 322/240/111
f 250/309/112 249/311/113 320/238/113 321/239/112
f 249/311/113 248/313/114 319/237/114 320/238/113
f 248/313/114 247/315/115 318/236/115 319/237/114
f 247/315/115 246/317/116 317/235/116 318/236/115
f 246/317/116 245/319/117 316/234/117 317/235/116
f 245/319/117 244/321/118 315/233/118 316/234/117
f 244/321/118 243/323/119 314/232/119 315/233/118
f 243/323/119 242/325/120 313/230/120 314/232/119
f 242/325/120 241/327/73 336/231/73 313/230/120
f 337/351/13 339/352/15 340/353/15 338/354/13
f 339/352/15 341/355/17 342/356/17 340/353/15
f 341/355/17 343/357/19 344/358/19 342/356/17
f 343/357/19 345/359/21 346/360/21 344/358/19
f 345/359/21 347/361/23 348/362/23 346/360/21
f 347/361/23 349/363/1 350/364/1 348/362/23
f 349/365/1 351/366/3 352/367/3 350/368/1
f 351/366/3 353/369/5 354/370/5 352/367/3
f 353/369/5 355/371/7 356/372/7 354/370/5
f 355/371/7 357/373/9 358/374/9 356/372/7
f 357/373/9 359/375/11 360/376/11 358/374/9
f 359/375/11 337/351/13 338/354/13 360/376/11
f 361/377/13 363/378/15 364/379/15 362/380/13
f 363/378/15 365/381/17 366/382/17 364/379/15
f 365/381/17 367/383/19 368/384/19 366/382/17
f 367/383/19 369/385/21 370/386/21 368/384/19
f 369/385/21 371/387/23 372/388/23 370/386/21
f 371/387/23 373/389/1 374/390/1 372/388/23
f 373/391/1 375/392/3 376/393/3 374/394/1
f 375/392/3 377/395/5 378/396/5 376/393/3
f 377/395/5 379/397/7 380/398/7 378/396/5
f 379/397/7 381/399/9 382/400/9 380/398/7
f 381/399/9 383/401/11 384/402/11 382/400/9
f 383/401/11 361/377/13 362/380/13 384/402/11
f 385/403/13 387/404/15 388/379/15 386/380/13
f 387/404/15 389/405/17 390/382/17 388/379/15
f 389/405/17 391/406/19 392/384/19 390/382/17
f 391/406/19 393/407/21 394/386/21 392/384/19
f 393/407/21 395/387/23 396/408/23 394/386/21
f 395/387/23 397/409/1 398/410/1 396/408/23
f 397/411/1 399/412/3 400/413/3 398/394/1
f 399/412/3 401/414/5 402/415/5 400/413/3
f 401/414/5 403/416/7 404/398/7 402/415/5
f 403/416/7 405/417/9 406/418/9 404/398/7
f 405/417/9 407/419/11 408/402/11 406/418/9
f 407/419/11 385/403/13 386/380/13 408/402/11
f 409/377/13 411/420/15 412/421/15 410/422/13
f 411/420/15 413/381/17 414/423/17 412/421/15
f 413/381/17 415/424/19 416/425/19 414/423/17
f 415/424/19 417/385/21 418/426/21 416/425/19
f 417/385/21 419/427/23 420/428/23 418/426/21
f 419/427/23 421/389/1 422/429/1 420/428/23
f 421/411/1 423/392/3 424/430/3 422/368/1
f 423/392/3 425/414/5 426/431/5 424/430/3
f 425/414/5 427/397/7 428/432/7 426/431/5
f 427/397/7 429/399/9 430/433/9 428/432/7
f 429/399/9 431/401/11 432/434/11 430/433/9
f 431/401/11 409/377/13 410/422/13 432/434/11
f 433/403/13 435/404/15 436/379/15 434/380/13
f 435/404/15 437/405/17 438/382/17 436/379/15
f 437/405/17 439/406/19 440/384/19 438/382/17
f 439/406/19 441/407/21 442/386/21 440/384/19
f 441/407/21 443/387/23 444/408/23 442/386/21
f 443/387/23 445/435/1 446/390/1 444/408/23
f 445/411/1 447/436/3 448/393/3 446/394/1
f 447/436/3 449/414/5 450/415/5 448/393/3
f 449/414/5 451/437/7 452/438/7 450/415/5
f 451/437/7 453/417/9 454/418/9 452/438/7
f 453/417/9 455/419/11 456/402/11 454/418/9
f 455/419/11 433/403/13 434/380/13 456/402/11
f 457/377/13 459/404/15 460/379/15 458/439/13
f 459/404/15 461/381/17 462/440/17 460/379/15
f 461/381/17 463/406/19 464/384/19 462/440/17
f 463/406/19 465/441/21 466/442/21 464/384/19
f 465/441/21 467/387/23 468/408/23 466/442/21
f 467/387/23 469/435/1 470/390/1 468/408/23
f 469/411/1 471/436/3 472/393/3 470/394/1
f 471/436/3 473/414/5 474/415/5 472/393/3
f 473/414/5 475/437/7 476/438/7 474/415/5
f 475/437/7 477/399/9 478/400/9 476/438/7
f 477/399/9 479/419/11 480/402/11 478/400/9
f 479/419/11 457/377/13 458/439/13 480/402/11
f 481/443/13 483/444/15 484/353/15 482/422/13
f 483/444/15 485/445/17 486/423/17 484/353/15
f 485/445/17 487/446/19 488/447/19 486/423/17
f 487/446/19 489/448/21 490/426/21 488/447/19
f 489/448/21 491/449/23 492/450/23 490/426/21
f 491/449/23 493/451/1 494/452/1 492/450/23
f 493/453/1 495/454/3 496/430/3 494/368/1
f 495/454/3 497/455/5 498/431/5 496/430/3
f 497/455/5 499/456/7 500/432/7 498/431/5
f 499/456/7 501/457/9 502/433/9 500/432/7
f 501/457/9 503/458/11 504/376/11 502/433/9
f 503/458/11 481/443/13 482/422/13 504/376/11
f 505/459/13 507/404/15 508/421/15 506/460/13
f 507/404/15 509/405/17 510/461/17 508/421/15
f 509/405/17 511/406/19 512/425/19 510/461/17
f 511/406/19 513/407/21 514/462/21 512/425/19
f 513/407/21 515/387/23 516/463/23 514/462/21
f 515/387/23 517/464/1 518/465/1 516/463/23
f 517/411/1 519/436/3 520/466/3 518/467/1
f 519/436/3 521/468/5 522/469/5 520/466/3
f 521/468/5 523/470/7 524/471/7 522/469/5
f 523/470/7 525/472/9 526/473/9 524/471/7
f 525/472/9 527/474/11 528/434/11 526/473/9
f 527/474/11 505/459/13 506/460/13 528/434/11
f 529/377/13 530/422/13 532/376/11 531/419/11
f 531/419/11 532/376/11 534/433/9 533/399/9
f 533/399/9 534/433/9 536/432/7 535/397/7
f 535/397/7 536/432/7 538/431/5 537/414/5
f 537/414/5 538/431/5 540/430/3 539/392/3
f 539/392/3 540/430/3 542/368/1 541/411/1
f 541/435/1 542/452/1 544/450/23 543/387/23
f 543/387/23 544/450/23 546/475/21 545/441/21
f 545/441/21 546/475/21 548/447/19 547/406/19
f 547/406/19 548/447/19 550/423/17 549/381/17
f 549/381/17 550/423/17 552/353/15 551/404/15
f 551/404/15 552/353/15 530/422/13 529/377/13
f 553/459/13 554/476/13 556/477/11 555/474/11
f 555/474/11 556/477/11 558/478/9 557/472/9
f 557/472/9 558/478/9 560/398/7 559/416/7
f 559/416/7 560/398/7 562/415/5 561/414/5
f 561/414/5 562/415/5 564/393/3 563/436/3
f 563/436/3 564/393/3 566/394/1 565/411/1
f 565/479/1 566/410/1 568/408/23 567/480/23
f 567/480/23 568/408/23 570/481/21 569/482/21
f 569/482/21 570/481/21 572/483/19 571/484/19
f 571/484/19 572/483/19 574/485/17 573/486/17
f 573/486/17 574/485/17 576/487/15 575/488/15
f 575/488/15 576/487/15 554/476/13 553/459/13
f 577/489/13 578/490/13 580/434/11 579/401/11
f 579/401/11 580/434/11 582/491/9 581/492/9
f 581/492/9 582/491/9 584/432/7 583/397/7
f 583/397/7 584/432/7 586/469/5 585/493/5
f 585/493/5 586/469/5 588/430/3 587/392/3
f 587/392/3 588/430/3 590/494/1 589/495/1
f 589/496/1 590/497/1 592/428/23 591/427/23
f 591/427/23 592/428/23 594/498/21 593/499/21
f 593/499/21 594/498/21 596/425/19 595/424/19
f 595/424/19 596/425/19 598/500/17 597/501/17
f 597/501/17 598/500/17 600/421/15 599/420/15
f 599/420/15 600/421/15 578/490/13 577/489/13
f 601/502/13 602/439/13 604/503/11 603/504/11
f 603/504/11 604/503/11 606/400/9 605/505/9
f 605/505/9 606/400/9 608/398/7 607/506/7
f 607/506/7 608/398/7 610/415/5 609/507/5
f 609/507/5 610/415/5 612/393/3 611/508/3
f 611/508/3 612/393/3 614/394/1 613/509/1
f 613/510/1 614/511/1 616/512/23 615/513/23
f 615/513/23 616/512/23 618/514/21 617/515/21
f 617/515/21 618/514/21 620/516/19 619/517/19
f 619/517/19 620/516/19 622/440/17 621/381/17
f 621/381/17 622/440/17 624/518/15 623/519/15
f 623/519/15 624/518/15 602/439/13 601/502/13
f 625/377/13 626/439/13 628/402/11 627/419/11
f 627/419/11 628/402/11 630/400/9 629/399/9
f 629/399/9 630/400/9 632/398/7 631/416/7
f 631/416/7 632/398/7 634/415/5 633/414/5
f 633/414/5 634/415/5 636/393/3 635/436/3
f 635/436/3 636/393/3 638/394/1 637/411/1
f 637/389/1 638/511/1 640/520/23 639/427/23
f 639/427/23 640/520/23 642/514/21 641/385/21
f 641/385/21 642/514/21 644/521/19 643/424/19
f 643/424/19 644/521/19 646/440/17 645/381/17
f 645/381/17 646/440/17 648/379/15 647/404/15
f 647/404/15 648/379/15 626/439/13 625/377/13
f 649/377/13 650/439/13 652/503/11 651/504/11
f 651/504/11 652/503/11 654/400/9 653/399/9
f 653/399/9 654/400/9 656/398/7 655/416/7
f 655/416/7 656/398/7 658/522/5 657/523/5
f 657/523/5 658/522/5 660/524/3 659/525/3
f 659/525/3 660/524/3 662/394/1 661/411/1
f 661/479/1 662/410/1 664/526/23 663/480/23
f 663/480/23 664/526/23 666/481/21 665/482/21
f 665/482/21 666/481/21 668/483/19 667/484/19
f 667/484/19 668/483/19 670/485/17 669/381/17
f 669/381/17 670/485/17 672/518/15 671/378/15
f 671/378/15 672/518/15 650/439/13 649/377/13
f 673/377/13 674/422/13 676/376/11 675/419/11
f 675/419/11 676/376/11 678/433/9 677/399/9
f 677/399/9 678/433/9 680/432/7 679/397/7
f 679/397/7 680/432/7 682/431/5 681/414/5
f 681/414/5 682/431/5 684/430/3 683/392/3
f 683/392/3 684/430/3 686/368/1 685/411/1
f 685/435/1 686/452/1 688/450/23 687/387/23
f 687/387/23 688/450/23 690/426/21 689/385/21
f 689/385/21 690/426/21 692/447/19 691/406/19
f 691/406/19 692/447/19 694/423/17 693/381/17
f 693/381/17 694/423/17 696/353/15 695/404/15
f 695/404/15 696/353/15 674/422/13 673/377/13
f 707/527/1 700/528/23 712/529/23 719/530/1
f 708/531/13 706/532/11 718/533/11 720/534/13
f 699/535/21 703/536/19 715/537/19 711/538/21
f 697/539/7 701/540/5 713/541/5 709/542/7
f 703/536/19 704/543/17 716/544/17 715/537/19
f 701/540/5 702/545/3 714/546/3 713/541/5
f 706/532/11 698/547/9 710/548/9 718/533/11
f 704/543/17 705/549/15 717/550/15 716/544/17
f 702/545/3 707/551/1 719/552/1 714/546/3
f 705/549/15 708/531/13 720/534/13 717/550/15
f 698/547/9 697/539/7 709/542/7 710/548/9
f 700/528/23 699/535/21 711/538/21 712/529/23
