# Blender 4.1.1
# www.blender.org
mtllib 1.25m_Boiler_2m.mtl
o 1.25m_Boiler_Jacket.001
v 0.000000 -1.000000 -0.625000
v 0.000000 1.000000 -0.625000
v 0.161762 -1.000000 -0.603704
v 0.161762 1.000000 -0.603704
v 0.312500 -1.000000 -0.541266
v 0.312500 1.000000 -0.541266
v 0.441942 -1.000000 -0.441942
v 0.441942 1.000000 -0.441942
v 0.541266 -1.000000 -0.312500
v 0.541266 1.000000 -0.312500
v 0.603704 -1.000000 -0.161762
v 0.603704 1.000000 -0.161762
v 0.625000 -1.000000 0.000000
v 0.625000 1.000000 0.000000
v 0.603704 -1.000000 0.161762
v 0.603704 1.000000 0.161762
v 0.541266 -1.000000 0.312500
v 0.541266 1.000000 0.312500
v 0.441942 -1.000000 0.441942
v 0.441942 1.000000 0.441942
v 0.312500 -1.000000 0.541266
v 0.312500 1.000000 0.541266
v 0.161762 -1.000000 0.603704
v 0.161762 1.000000 0.603704
v 0.000000 -1.000000 0.625000
v 0.000000 1.000000 0.625000
v -0.161762 -1.000000 0.603704
v -0.161762 1.000000 0.603704
v -0.312500 -1.000000 0.541266
v -0.312500 1.000000 0.541266
v -0.441942 -1.000000 0.441942
v -0.441942 1.000000 0.441942
v -0.541266 -1.000000 0.312500
v -0.541266 1.000000 0.312500
v -0.603704 -1.000000 0.161762
v -0.603704 1.000000 0.161762
v -0.625000 -1.000000 0.000000
v -0.625000 1.000000 0.000000
v -0.603704 -1.000000 -0.161762
v -0.603704 1.000000 -0.161762
v -0.541266 -1.000000 -0.312500
v -0.541266 1.000000 -0.312500
v -0.441942 -1.000000 -0.441942
v -0.441942 1.000000 -0.441942
v -0.312500 -1.000000 -0.541266
v -0.312500 1.000000 -0.541266
v -0.161762 -1.000000 -0.603704
v -0.161762 1.000000 -0.603704
v 0.000000 0.950000 -0.625000
v 0.161762 0.950000 -0.603704
v 0.312500 0.950000 -0.541266
v 0.441942 0.950000 -0.441942
v 0.541266 0.950000 -0.312500
v 0.603704 0.950000 -0.161762
v 0.625000 0.950000 0.000000
v 0.603704 0.950000 0.161762
v 0.541266 0.950000 0.312500
v 0.441942 0.950000 0.441942
v 0.312500 0.950000 0.541266
v 0.161762 0.950000 0.603704
v 0.000000 0.950000 0.625000
v -0.161762 0.950000 0.603704
v -0.312500 0.950000 0.541266
v -0.441942 0.950000 0.441942
v -0.541266 0.950000 0.312500
v -0.603704 0.950000 0.161762
v -0.625000 0.950000 0.000000
v -0.603704 0.950000 -0.161762
v -0.541266 0.950000 -0.312500
v -0.441942 0.950000 -0.441942
v -0.312500 0.950000 -0.541266
v -0.161762 0.950000 -0.603704
v -0.161762 -0.025000 -0.603704
v -0.312500 -0.025000 -0.541266
v -0.441942 -0.025000 -0.441942
v -0.541266 -0.025000 -0.312500
v -0.603704 -0.025000 -0.161762
v -0.625000 -0.025000 0.000000
v -0.603704 -0.025000 0.161762
v -0.541266 -0.025000 0.312500
v -0.441942 -0.025000 0.441942
v -0.312500 -0.025000 0.541266
v -0.161762 -0.025000 0.603704
v 0.000000 -0.025000 0.625000
v 0.161762 -0.025000 0.603704
v 0.312500 -0.025000 0.541266
v 0.441942 -0.025000 0.441942
v 0.541266 -0.025000 0.312500
v 0.603704 -0.025000 0.161762
v 0.625000 -0.025000 0.000000
v 0.603704 -0.025000 -0.161762
v 0.541266 -0.025000 -0.312500
v 0.441942 -0.025000 -0.441942
v 0.312500 -0.025000 -0.541266
v 0.161762 -0.025000 -0.603704
v 0.000000 -0.025000 -0.625000
v 0.161762 -0.950000 -0.603704
v 0.312500 -0.950000 -0.541266
v 0.441942 -0.950000 -0.441942
v 0.541266 -0.950000 -0.312500
v 0.603704 -0.950000 -0.161762
v 0.625000 -0.950000 -0.000000
v 0.603704 -0.950000 0.161762
v 0.541266 -0.950000 0.312500
v 0.441942 -0.950000 0.441942
v 0.312500 -0.950000 0.541266
v 0.161762 -0.950000 0.603704
v 0.000000 -0.950000 0.625000
v -0.161762 -0.950000 0.603704
v -0.312500 -0.950000 0.541266
v -0.441942 -0.950000 0.441942
v -0.541266 -0.950000 0.312500
v -0.603704 -0.950000 0.161762
v -0.625000 -0.950000 -0.000000
v -0.603704 -0.950000 -0.161762
v -0.541266 -0.950000 -0.312500
v -0.441942 -0.950000 -0.441942
v -0.312500 -0.950000 -0.541266
v -0.161762 -0.950000 -0.603704
v 0.000000 -0.950000 -0.625000
v -0.161762 0.025000 -0.603704
v 0.000000 0.025000 -0.625000
v -0.312500 0.025000 -0.541266
v -0.441942 0.025000 -0.441942
v -0.541266 0.025000 -0.312500
v -0.603704 0.025000 -0.161762
v -0.625000 0.025000 -0.000000
v -0.603704 0.025000 0.161762
v -0.541266 0.025000 0.312500
v -0.441942 0.025000 0.441942
v -0.312500 0.025000 0.541266
v -0.161762 0.025000 0.603704
v 0.000000 0.025000 0.625000
v 0.161762 0.025000 0.603704
v 0.312500 0.025000 0.541266
v 0.441942 0.025000 0.441942
v 0.541266 0.025000 0.312500
v 0.603704 0.025000 0.161762
v 0.625000 0.025000 -0.000000
v 0.603704 0.025000 -0.161762
v 0.541266 0.025000 -0.312500
v 0.441942 0.025000 -0.441942
v 0.312500 0.025000 -0.541266
v 0.161762 0.025000 -0.603704
v 0.000000 0.940000 -0.620434
v -0.160580 0.940000 -0.599293
v -0.310217 0.940000 -0.537312
v -0.438713 0.940000 -0.438713
v -0.537312 0.940000 -0.310217
v -0.599293 0.940000 -0.160580
v -0.620434 0.940000 0.000000
v -0.599293 0.940000 0.160580
v -0.537312 0.940000 0.310217
v -0.438713 0.940000 0.438713
v -0.310217 0.940000 0.537312
v -0.160580 0.940000 0.599293
v 0.000000 0.940000 0.620434
v 0.160580 0.940000 0.599293
v 0.310217 0.940000 0.537312
v 0.438713 0.940000 0.438713
v 0.537312 0.940000 0.310217
v 0.599293 0.940000 0.160580
v 0.620434 0.940000 0.000000
v 0.599293 0.940000 -0.160580
v 0.537312 0.940000 -0.310217
v 0.438713 0.940000 -0.438713
v 0.310217 0.940000 -0.537312
v 0.160580 0.940000 -0.599293
v -0.160580 0.035000 -0.599293
v -0.310217 0.035000 -0.537312
v -0.438713 0.035000 -0.438713
v -0.537312 0.035000 -0.310217
v -0.599293 0.035000 -0.160580
v -0.620434 0.035000 -0.000000
v -0.599293 0.035000 0.160580
v -0.537312 0.035000 0.310217
v -0.438713 0.035000 0.438713
v -0.310217 0.035000 0.537312
v -0.160580 0.035000 0.599293
v 0.000000 0.035000 0.620434
v 0.160580 0.035000 0.599293
v 0.310217 0.035000 0.537312
v 0.438713 0.035000 0.438713
v 0.537312 0.035000 0.310217
v 0.599293 0.035000 0.160580
v 0.620434 0.035000 -0.000000
v 0.599293 0.035000 -0.160580
v 0.537312 0.035000 -0.310217
v 0.438713 0.035000 -0.438713
v 0.310217 0.035000 -0.537312
v 0.160580 0.035000 -0.599293
v 0.000000 0.035000 -0.620434
v 0.000000 -0.035000 -0.620434
v 0.160580 -0.035000 -0.599293
v 0.310217 -0.035000 -0.537312
v 0.438713 -0.035000 -0.438713
v 0.537312 -0.035000 -0.310217
v 0.599293 -0.035000 -0.160580
v 0.620434 -0.035000 0.000000
v 0.599293 -0.035000 0.160580
v 0.537312 -0.035000 0.310217
v 0.438713 -0.035000 0.438713
v 0.310217 -0.035000 0.537312
v 0.160580 -0.035000 0.599293
v 0.000000 -0.035000 0.620434
v -0.160580 -0.035000 0.599293
v -0.310217 -0.035000 0.537312
v -0.438713 -0.035000 0.438713
v -0.537312 -0.035000 0.310217
v -0.599293 -0.035000 0.160580
v -0.620434 -0.035000 0.000000
v -0.599293 -0.035000 -0.160580
v -0.537312 -0.035000 -0.310217
v -0.438713 -0.035000 -0.438713
v -0.310217 -0.035000 -0.537312
v -0.160580 -0.035000 -0.599293
v 0.160580 -0.940000 -0.599293
v 0.310217 -0.940000 -0.537312
v 0.438713 -0.940000 -0.438713
v 0.537312 -0.940000 -0.310217
v 0.599293 -0.940000 -0.160580
v 0.620434 -0.940000 -0.000000
v 0.599293 -0.940000 0.160580
v 0.537312 -0.940000 0.310217
v 0.438713 -0.940000 0.438713
v 0.310217 -0.940000 0.537312
v 0.160580 -0.940000 0.599293
v 0.000000 -0.940000 0.620434
v -0.160580 -0.940000 0.599293
v -0.310217 -0.940000 0.537312
v -0.438713 -0.940000 0.438713
v -0.537312 -0.940000 0.310217
v -0.599293 -0.940000 0.160580
v -0.620434 -0.940000 -0.000000
v -0.599293 -0.940000 -0.160580
v -0.537312 -0.940000 -0.310217
v -0.438713 -0.940000 -0.438713
v -0.310217 -0.940000 -0.537312
v -0.160580 -0.940000 -0.599293
v 0.000000 -0.940000 -0.620434
v 0.000000 -0.963722 -0.231741
v 0.000000 0.963722 -0.231741
v 0.036108 -0.963722 -0.222066
v 0.036108 0.963722 -0.222066
v 0.062540 -0.963722 -0.195633
v 0.062540 0.963722 -0.195633
v 0.072216 -0.963722 -0.159525
v 0.072216 0.963722 -0.159525
v 0.062540 -0.963722 -0.123417
v 0.062540 0.963722 -0.123417
v 0.036108 -0.963722 -0.096985
v 0.036108 0.963722 -0.096985
v 0.000000 -0.963722 -0.087310
v 0.000000 0.963722 -0.087310
v -0.036108 -0.963722 -0.096985
v -0.036108 0.963722 -0.096985
v -0.062540 -0.963722 -0.123417
v -0.062540 0.963722 -0.123417
v -0.072216 -0.963722 -0.159525
v -0.072216 0.963722 -0.159525
v -0.062540 -0.963722 -0.195633
v -0.062540 0.963722 -0.195633
v -0.036108 -0.963722 -0.222066
v -0.036108 0.963722 -0.222066
v 0.493563 -0.963722 -0.060810
v 0.493563 0.963722 -0.060810
v 0.529671 -0.963722 -0.051135
v 0.529671 0.963722 -0.051135
v 0.556103 -0.963722 -0.024703
v 0.556103 0.963722 -0.024703
v 0.565778 -0.963722 0.011405
v 0.565778 0.963722 0.011405
v 0.556103 -0.963722 0.047513
v 0.556103 0.963722 0.047513
v 0.529671 -0.963722 0.073946
v 0.529671 0.963722 0.073946
v 0.493563 -0.963722 0.083621
v 0.493563 0.963722 0.083621
v 0.457455 -0.963722 0.073946
v 0.457455 0.963722 0.073946
v 0.431022 -0.963722 0.047513
v 0.431022 0.963722 0.047513
v 0.421347 -0.963722 0.011405
v 0.421347 0.963722 0.011405
v 0.431022 -0.963722 -0.024703
v 0.431022 0.963722 -0.024703
v 0.457455 -0.963722 -0.051135
v 0.457455 0.963722 -0.051135
v 0.092175 -0.963722 -0.060810
v 0.092175 0.963722 -0.060810
v 0.128283 -0.963722 -0.051135
v 0.128283 0.963722 -0.051135
v 0.154716 -0.963722 -0.024703
v 0.154716 0.963722 -0.024703
v 0.164391 -0.963722 0.011405
v 0.164391 0.963722 0.011405
v 0.154716 -0.963722 0.047513
v 0.154716 0.963722 0.047513
v 0.128283 -0.963722 0.073946
v 0.128283 0.963722 0.073946
v 0.092175 -0.963722 0.083621
v 0.092175 0.963722 0.083621
v 0.056067 -0.963722 0.073946
v 0.056067 0.963722 0.073946
v 0.029635 -0.963722 0.047513
v 0.029635 0.963722 0.047513
v 0.019960 -0.963722 0.011405
v 0.019960 0.963722 0.011405
v 0.029635 -0.963722 -0.024703
v 0.029635 0.963722 -0.024703
v 0.056067 -0.963722 -0.051135
v 0.056067 0.963722 -0.051135
v 0.092175 -0.963722 -0.400003
v 0.092175 0.963722 -0.400003
v 0.128283 -0.963722 -0.390328
v 0.128283 0.963722 -0.390328
v 0.154716 -0.963722 -0.363895
v 0.154716 0.963722 -0.363895
v 0.164391 -0.963722 -0.327788
v 0.164391 0.963722 -0.327788
v 0.154716 -0.963722 -0.291680
v 0.154716 0.963722 -0.291680
v 0.128283 -0.963722 -0.265247
v 0.128283 0.963722 -0.265247
v 0.092175 -0.963722 -0.255572
v 0.092175 0.963722 -0.255572
v 0.056067 -0.963722 -0.265247
v 0.056067 0.963722 -0.265247
v 0.029635 -0.963722 -0.291680
v 0.029635 0.963722 -0.291680
v 0.019960 -0.963722 -0.327788
v 0.019960 0.963722 -0.327788
v 0.029635 -0.963722 -0.363895
v 0.029635 0.963722 -0.363895
v 0.056067 -0.963722 -0.390328
v 0.056067 0.963722 -0.390328
v 0.290224 -0.963722 -0.400003
v 0.290224 0.963722 -0.400003
v 0.326332 -0.963722 -0.390328
v 0.326332 0.963722 -0.390328
v 0.352764 -0.963722 -0.363895
v 0.352764 0.963722 -0.363895
v 0.362439 -0.963722 -0.327788
v 0.362439 0.963722 -0.327788
v 0.352764 -0.963722 -0.291680
v 0.352764 0.963722 -0.291680
v 0.326332 -0.963722 -0.265247
v 0.326332 0.963722 -0.265247
v 0.290224 -0.963722 -0.255572
v 0.290224 0.963722 -0.255572
v 0.254116 -0.963722 -0.265247
v 0.254116 0.963722 -0.265247
v 0.227683 -0.963722 -0.291680
v 0.227683 0.963722 -0.291680
v 0.218008 -0.963722 -0.327788
v 0.218008 0.963722 -0.327788
v 0.227683 -0.963722 -0.363895
v 0.227683 0.963722 -0.363895
v 0.254116 -0.963722 -0.390328
v 0.254116 0.963722 -0.390328
v 0.198049 -0.963722 -0.231741
v 0.198049 0.963722 -0.231741
v 0.234157 -0.963722 -0.222066
v 0.234157 0.963722 -0.222066
v 0.260589 -0.963722 -0.195633
v 0.260589 0.963722 -0.195633
v 0.270264 -0.963722 -0.159525
v 0.270264 0.963722 -0.159525
v 0.260589 -0.963722 -0.123417
v 0.260589 0.963722 -0.123417
v 0.234157 -0.963722 -0.096985
v 0.234157 0.963722 -0.096985
v 0.198049 -0.963722 -0.087310
v 0.198049 0.963722 -0.087310
v 0.161941 -0.963722 -0.096985
v 0.161941 0.963722 -0.096985
v 0.135508 -0.963722 -0.123417
v 0.135508 0.963722 -0.123417
v 0.125833 -0.963722 -0.159525
v 0.125833 0.963722 -0.159525
v 0.135508 -0.963722 -0.195633
v 0.135508 0.963722 -0.195633
v 0.161941 -0.963722 -0.222066
v 0.161941 0.963722 -0.222066
v 0.290224 -0.963722 -0.060810
v 0.290224 0.963722 -0.060810
v 0.326332 -0.963722 -0.051135
v 0.326332 0.963722 -0.051135
v 0.352764 -0.963722 -0.024703
v 0.352764 0.963722 -0.024703
v 0.362439 -0.963722 0.011405
v 0.362439 0.963722 0.011405
v 0.352764 -0.963722 0.047513
v 0.352764 0.963722 0.047513
v 0.326332 -0.963722 0.073946
v 0.326332 0.963722 0.073946
v 0.290224 -0.963722 0.083621
v 0.290224 0.963722 0.083621
v 0.254116 -0.963722 0.073946
v 0.254116 0.963722 0.073946
v 0.227683 -0.963722 0.047513
v 0.227683 0.963722 0.047513
v 0.218008 -0.963722 0.011405
v 0.218008 0.963722 0.011405
v 0.227683 -0.963722 -0.024703
v 0.227683 0.963722 -0.024703
v 0.254116 -0.963722 -0.051135
v 0.254116 0.963722 -0.051135
v 0.401388 -0.963722 -0.231741
v 0.401388 0.963722 -0.231741
v 0.437495 -0.963722 -0.222066
v 0.437495 0.963722 -0.222066
v 0.463928 -0.963722 -0.195633
v 0.463928 0.963722 -0.195633
v 0.473603 -0.963722 -0.159525
v 0.473603 0.963722 -0.159525
v 0.463928 -0.963722 -0.123417
v 0.463928 0.963722 -0.123417
v 0.437495 -0.963722 -0.096985
v 0.437495 0.963722 -0.096985
v 0.401388 -0.963722 -0.087310
v 0.401388 0.963722 -0.087310
v 0.365280 -0.963722 -0.096985
v 0.365280 0.963722 -0.096985
v 0.338847 -0.963722 -0.123417
v 0.338847 0.963722 -0.123417
v 0.329172 -0.963722 -0.159525
v 0.329172 0.963722 -0.159525
v 0.338847 -0.963722 -0.195633
v 0.338847 0.963722 -0.195633
v 0.365280 -0.963722 -0.222066
v 0.365280 0.963722 -0.222066
v -0.493563 -0.963722 -0.060810
v -0.493563 0.963722 -0.060810
v -0.529671 -0.963722 -0.051135
v -0.529671 0.963722 -0.051135
v -0.556103 -0.963722 -0.024703
v -0.556103 0.963722 -0.024703
v -0.565778 -0.963722 0.011405
v -0.565778 0.963722 0.011405
v -0.556103 -0.963722 0.047513
v -0.556103 0.963722 0.047513
v -0.529671 -0.963722 0.073946
v -0.529671 0.963722 0.073946
v -0.493563 -0.963722 0.083621
v -0.493563 0.963722 0.083621
v -0.457455 -0.963722 0.073946
v -0.457455 0.963722 0.073946
v -0.431022 -0.963722 0.047513
v -0.431022 0.963722 0.047513
v -0.421347 -0.963722 0.011405
v -0.421347 0.963722 0.011405
v -0.431022 -0.963722 -0.024703
v -0.431022 0.963722 -0.024703
v -0.457455 -0.963722 -0.051135
v -0.457455 0.963722 -0.051135
v -0.092175 -0.963722 -0.060810
v -0.092175 0.963722 -0.060810
v -0.128283 -0.963722 -0.051135
v -0.128283 0.963722 -0.051135
v -0.154716 -0.963722 -0.024703
v -0.154716 0.963722 -0.024703
v -0.164391 -0.963722 0.011405
v -0.164391 0.963722 0.011405
v -0.154716 -0.963722 0.047513
v -0.154716 0.963722 0.047513
v -0.128283 -0.963722 0.073946
v -0.128283 0.963722 0.073946
v -0.092175 -0.963722 0.083621
v -0.092175 0.963722 0.083621
v -0.056067 -0.963722 0.073946
v -0.056067 0.963722 0.073946
v -0.029635 -0.963722 0.047513
v -0.029635 0.963722 0.047513
v -0.019960 -0.963722 0.011405
v -0.019960 0.963722 0.011405
v -0.029635 -0.963722 -0.024703
v -0.029635 0.963722 -0.024703
v -0.056067 -0.963722 -0.051135
v -0.056067 0.963722 -0.051135
v -0.092175 -0.963722 -0.400003
v -0.092175 0.963722 -0.400003
v -0.128283 -0.963722 -0.390328
v -0.128283 0.963722 -0.390328
v -0.154716 -0.963722 -0.363895
v -0.154716 0.963722 -0.363895
v -0.164391 -0.963722 -0.327788
v -0.164391 0.963722 -0.327788
v -0.154716 -0.963722 -0.291680
v -0.154716 0.963722 -0.291680
v -0.128283 -0.963722 -0.265247
v -0.128283 0.963722 -0.265247
v -0.092175 -0.963722 -0.255572
v -0.092175 0.963722 -0.255572
v -0.056067 -0.963722 -0.265247
v -0.056067 0.963722 -0.265247
v -0.029635 -0.963722 -0.291680
v -0.029635 0.963722 -0.291680
v -0.019960 -0.963722 -0.327788
v -0.019960 0.963722 -0.327788
v -0.029635 -0.963722 -0.363895
v -0.029635 0.963722 -0.363895
v -0.056067 -0.963722 -0.390328
v -0.056067 0.963722 -0.390328
v -0.290224 -0.963722 -0.400003
v -0.290224 0.963722 -0.400003
v -0.326332 -0.963722 -0.390328
v -0.326332 0.963722 -0.390328
v -0.352765 -0.963722 -0.363895
v -0.352765 0.963722 -0.363895
v -0.362440 -0.963722 -0.327788
v -0.362440 0.963722 -0.327788
v -0.352765 -0.963722 -0.291680
v -0.352765 0.963722 -0.291680
v -0.326332 -0.963722 -0.265247
v -0.326332 0.963722 -0.265247
v -0.290224 -0.963722 -0.255572
v -0.290224 0.963722 -0.255572
v -0.254116 -0.963722 -0.265247
v -0.254116 0.963722 -0.265247
v -0.227684 -0.963722 -0.291680
v -0.227684 0.963722 -0.291680
v -0.218009 -0.963722 -0.327788
v -0.218009 0.963722 -0.327788
v -0.227684 -0.963722 -0.363895
v -0.227684 0.963722 -0.363895
v -0.254116 -0.963722 -0.390328
v -0.254116 0.963722 -0.390328
v -0.198049 -0.963722 -0.231741
v -0.198049 0.963722 -0.231741
v -0.234157 -0.963722 -0.222066
v -0.234157 0.963722 -0.222066
v -0.260589 -0.963722 -0.195633
v -0.260589 0.963722 -0.195633
v -0.270264 -0.963722 -0.159525
v -0.270264 0.963722 -0.159525
v -0.260589 -0.963722 -0.123417
v -0.260589 0.963722 -0.123417
v -0.234157 -0.963722 -0.096985
v -0.234157 0.963722 -0.096985
v -0.198049 -0.963722 -0.087310
v -0.198049 0.963722 -0.087310
v -0.161941 -0.963722 -0.096985
v -0.161941 0.963722 -0.096985
v -0.135508 -0.963722 -0.123417
v -0.135508 0.963722 -0.123417
v -0.125833 -0.963722 -0.159525
v -0.125833 0.963722 -0.159525
v -0.135508 -0.963722 -0.195633
v -0.135508 0.963722 -0.195633
v -0.161941 -0.963722 -0.222066
v -0.161941 0.963722 -0.222066
v -0.290224 -0.963722 -0.060810
v -0.290224 0.963722 -0.060810
v -0.326332 -0.963722 -0.051135
v -0.326332 0.963722 -0.051135
v -0.352765 -0.963722 -0.024703
v -0.352765 0.963722 -0.024703
v -0.362440 -0.963722 0.011405
v -0.362440 0.963722 0.011405
v -0.352765 -0.963722 0.047513
v -0.352765 0.963722 0.047513
v -0.326332 -0.963722 0.073946
v -0.326332 0.963722 0.073946
v -0.290224 -0.963722 0.083621
v -0.290224 0.963722 0.083621
v -0.254116 -0.963722 0.073946
v -0.254116 0.963722 0.073946
v -0.227684 -0.963722 0.047513
v -0.227684 0.963722 0.047513
v -0.218009 -0.963722 0.011405
v -0.218009 0.963722 0.011405
v -0.227684 -0.963722 -0.024703
v -0.227684 0.963722 -0.024703
v -0.254116 -0.963722 -0.051135
v -0.254116 0.963722 -0.051135
v -0.401388 -0.963722 -0.231741
v -0.401388 0.963722 -0.231741
v -0.437496 -0.963722 -0.222066
v -0.437496 0.963722 -0.222066
v -0.463928 -0.963722 -0.195633
v -0.463928 0.963722 -0.195633
v -0.473603 -0.963722 -0.159525
v -0.473603 0.963722 -0.159525
v -0.463928 -0.963722 -0.123417
v -0.463928 0.963722 -0.123417
v -0.437496 -0.963722 -0.096985
v -0.437496 0.963722 -0.096985
v -0.401388 -0.963722 -0.087310
v -0.401388 0.963722 -0.087310
v -0.365280 -0.963722 -0.096985
v -0.365280 0.963722 -0.096985
v -0.338847 -0.963722 -0.123417
v -0.338847 0.963722 -0.123417
v -0.329172 -0.963722 -0.159525
v -0.329172 0.963722 -0.159525
v -0.338847 -0.963722 -0.195633
v -0.338847 0.963722 -0.195633
v -0.365280 -0.963722 -0.222066
v -0.365280 0.963722 -0.222066
v -0.103891 0.983765 0.371615
v -0.089972 0.983765 0.319670
v 0.089972 0.983765 0.423561
v 0.051946 0.983765 0.461588
v -0.089972 0.983765 0.423561
v -0.051946 0.983765 0.461588
v 0.103891 0.983765 0.371615
v 0.089972 0.983765 0.319670
v 0.051946 0.983765 0.281643
v -0.051946 0.983765 0.281643
v -0.000000 0.983765 0.475506
v -0.000000 0.983765 0.267724
v -0.103891 -0.983765 0.371615
v -0.089972 -0.983765 0.319670
v 0.089972 -0.983765 0.423561
v 0.051946 -0.983765 0.461588
v -0.089972 -0.983765 0.423561
v -0.051946 -0.983765 0.461588
v 0.103891 -0.983765 0.371615
v 0.089972 -0.983765 0.319670
v 0.051946 -0.983765 0.281643
v -0.051946 -0.983765 0.281643
v -0.000000 -0.983765 0.475507
v -0.000000 -0.983765 0.267724
vn -0.0000 -0.0000 -1.0000
vn 0.2588 -0.0000 -0.9659
vn 0.5000 -0.0000 -0.8660
vn 0.7071 -0.0000 -0.7071
vn 0.8660 -0.0000 -0.5000
vn 0.9659 -0.0000 -0.2588
vn 1.0000 -0.0000 -0.0000
vn 0.9659 -0.0000 0.2588
vn 0.8660 -0.0000 0.5000
vn 0.7071 -0.0000 0.7071
vn 0.5000 -0.0000 0.8660
vn 0.2588 -0.0000 0.9659
vn -0.0000 -0.0000 1.0000
vn -0.2588 -0.0000 0.9659
vn -0.5000 -0.0000 0.8660
vn -0.7071 -0.0000 0.7071
vn -0.8660 -0.0000 0.5000
vn -0.9659 -0.0000 0.2588
vn -1.0000 -0.0000 -0.0000
vn -0.9659 -0.0000 -0.2588
vn -0.8660 -0.0000 -0.5000
vn -0.7071 -0.0000 -0.7071
vn -0.5000 -0.0000 -0.8660
vn -0.2588 -0.0000 -0.9659
vn -0.0000 -0.4154 -0.9097
vn 0.2354 -0.4154 -0.8787
vn -0.2354 0.4154 -0.8787
vn -0.0000 0.4154 -0.9097
vn -0.4548 0.4154 -0.7878
vn -0.6432 0.4154 -0.6432
vn -0.7878 0.4154 -0.4548
vn -0.8787 0.4154 -0.2354
vn -0.9097 0.4154 -0.0000
vn -0.8787 0.4154 0.2354
vn -0.7878 0.4154 0.4548
vn -0.6432 0.4154 0.6432
vn -0.4548 0.4154 0.7878
vn -0.2354 0.4154 0.8787
vn -0.0000 0.4154 0.9097
vn 0.2354 0.4154 0.8787
vn 0.4548 0.4154 0.7878
vn 0.6432 0.4154 0.6432
vn 0.7878 0.4154 0.4548
vn 0.8787 0.4154 0.2354
vn 0.9097 0.4154 -0.0000
vn 0.8787 0.4154 -0.2354
vn 0.7878 0.4154 -0.4548
vn 0.6432 0.4154 -0.6432
vn 0.4548 0.4154 -0.7878
vn 0.2354 0.4154 -0.8787
vn -0.2354 -0.4154 -0.8787
vn -0.4548 -0.4154 -0.7878
vn -0.6432 -0.4154 -0.6432
vn -0.7878 -0.4154 -0.4548
vn -0.8787 -0.4154 -0.2354
vn -0.9097 -0.4154 -0.0000
vn -0.8787 -0.4154 0.2354
vn -0.7878 -0.4154 0.4548
vn -0.6432 -0.4154 0.6432
vn -0.4548 -0.4154 0.7878
vn -0.2354 -0.4154 0.8787
vn -0.0000 -0.4154 0.9097
vn 0.2354 -0.4154 0.8787
vn 0.4548 -0.4154 0.7878
vn 0.6432 -0.4154 0.6432
vn 0.7878 -0.4154 0.4548
vn 0.8787 -0.4154 0.2354
vn 0.9097 -0.4154 -0.0000
vn 0.8787 -0.4154 -0.2354
vn 0.7878 -0.4154 -0.4548
vn 0.6432 -0.4154 -0.6432
vn 0.4548 -0.4154 -0.7878
vt 0.510593 0.312333
vt 0.502917 0.312334
vt 0.502912 0.287449
vt 0.510588 0.287448
vt 0.502906 0.262556
vt 0.510582 0.262554
vt 0.502900 0.237669
vt 0.510576 0.237667
vt 0.502893 0.212782
vt 0.510570 0.212780
vt 0.502887 0.187895
vt 0.510564 0.187893
vt 0.502880 0.163008
vt 0.510558 0.163007
vt 0.502874 0.138122
vt 0.510552 0.138120
vt 0.502868 0.113237
vt 0.510546 0.113235
vt 0.502861 0.088352
vt 0.510540 0.088349
vt 0.502851 0.063468
vt 0.510533 0.063466
vt 0.502842 0.038572
vt 0.510534 0.038574
vt 0.502839 0.013608
vt 0.510541 0.013607
vt 0.510632 0.610848
vt 0.502933 0.610848
vt 0.502935 0.585984
vt 0.510623 0.585983
vt 0.502946 0.561101
vt 0.510622 0.561102
vt 0.502948 0.536228
vt 0.510623 0.536228
vt 0.502947 0.511355
vt 0.510621 0.511354
vt 0.502945 0.486480
vt 0.510620 0.486479
vt 0.502942 0.461603
vt 0.510617 0.461602
vt 0.502939 0.436727
vt 0.510614 0.436726
vt 0.502936 0.411852
vt 0.510611 0.411851
vt 0.502932 0.386972
vt 0.510607 0.386971
vt 0.502927 0.362095
vt 0.510603 0.362094
vt 0.502923 0.337215
vt 0.510598 0.337214
vt 0.663310 0.312316
vt 0.661618 0.312316
vt 0.661617 0.287430
vt 0.663309 0.287430
vt 0.803277 0.337208
vt 0.803282 0.312325
vt 0.804973 0.312326
vt 0.804968 0.337208
vt 0.803273 0.362089
vt 0.804964 0.362089
vt 0.803269 0.386966
vt 0.804960 0.386966
vt 0.803265 0.411847
vt 0.804957 0.411847
vt 0.803262 0.436722
vt 0.804954 0.436722
vt 0.803260 0.461599
vt 0.804951 0.461599
vt 0.803258 0.486476
vt 0.804949 0.486476
vt 0.803256 0.511351
vt 0.804947 0.511351
vt 0.803255 0.536226
vt 0.804946 0.536225
vt 0.803255 0.561101
vt 0.804947 0.561100
vt 0.803253 0.585978
vt 0.804947 0.585981
vt 0.803247 0.610758
vt 0.804938 0.610847
vt 0.803290 0.038574
vt 0.803285 0.013696
vt 0.804977 0.013607
vt 0.804984 0.038571
vt 0.803291 0.063460
vt 0.804983 0.063461
vt 0.803290 0.088338
vt 0.804982 0.088338
vt 0.803289 0.113220
vt 0.804981 0.113220
vt 0.803289 0.138103
vt 0.804981 0.138103
vt 0.803289 0.162988
vt 0.804981 0.162988
vt 0.803289 0.187874
vt 0.804981 0.187874
vt 0.803289 0.212761
vt 0.804981 0.212761
vt 0.803289 0.237650
vt 0.804981 0.237650
vt 0.803288 0.262541
vt 0.804981 0.262541
vt 0.803287 0.287438
vt 0.804980 0.287440
vt 0.653943 0.337199
vt 0.653942 0.312316
vt 0.661619 0.337199
vt 0.653944 0.362080
vt 0.661620 0.362080
vt 0.653944 0.386958
vt 0.661620 0.386958
vt 0.653945 0.411840
vt 0.661620 0.411840
vt 0.653945 0.436716
vt 0.661621 0.436716
vt 0.653946 0.461594
vt 0.661621 0.461594
vt 0.653946 0.486473
vt 0.661621 0.486473
vt 0.653946 0.511349
vt 0.661621 0.511349
vt 0.653946 0.536225
vt 0.661622 0.536225
vt 0.653946 0.561101
vt 0.661623 0.561101
vt 0.653941 0.585979
vt 0.661627 0.585979
vt 0.653934 0.610848
vt 0.661635 0.610848
vt 0.653921 0.038567
vt 0.653913 0.013598
vt 0.661618 0.013598
vt 0.661610 0.038567
vt 0.653926 0.063456
vt 0.661606 0.063455
vt 0.653928 0.088335
vt 0.661606 0.088334
vt 0.653929 0.113218
vt 0.661607 0.113218
vt 0.653931 0.138102
vt 0.661608 0.138102
vt 0.653932 0.162988
vt 0.661610 0.162987
vt 0.653934 0.187874
vt 0.661612 0.187873
vt 0.653936 0.212760
vt 0.661613 0.212760
vt 0.653938 0.237648
vt 0.661615 0.237647
vt 0.653939 0.262536
vt 0.661616 0.262536
vt 0.653940 0.287430
vt 0.512285 0.312332
vt 0.512279 0.287447
vt 0.812644 0.337209
vt 0.812650 0.312328
vt 0.812640 0.362090
vt 0.812636 0.386967
vt 0.812632 0.411848
vt 0.812629 0.436723
vt 0.812626 0.461599
vt 0.812624 0.486477
vt 0.812622 0.511352
vt 0.812621 0.536225
vt 0.812623 0.561098
vt 0.812635 0.585982
vt 0.812637 0.610846
vt 0.812675 0.038570
vt 0.812678 0.013608
vt 0.812663 0.063463
vt 0.812659 0.088339
vt 0.812658 0.113220
vt 0.812658 0.138103
vt 0.812659 0.162988
vt 0.812659 0.187874
vt 0.812659 0.212761
vt 0.812659 0.237650
vt 0.812659 0.262541
vt 0.812659 0.287442
vt 0.652249 0.287431
vt 0.652247 0.262537
vt 0.652246 0.237648
vt 0.652244 0.212761
vt 0.652242 0.187874
vt 0.652240 0.162988
vt 0.652239 0.138103
vt 0.652237 0.113218
vt 0.652235 0.088335
vt 0.652233 0.063455
vt 0.652228 0.038569
vt 0.652221 0.013688
vt 0.652243 0.610758
vt 0.652249 0.585977
vt 0.652253 0.561102
vt 0.652255 0.536225
vt 0.652255 0.511350
vt 0.652255 0.486473
vt 0.652254 0.461594
vt 0.652254 0.436716
vt 0.652253 0.411840
vt 0.652253 0.386958
vt 0.652252 0.362080
vt 0.652251 0.337199
vt 0.652250 0.312317
vt 0.512290 0.337213
vt 0.512294 0.362094
vt 0.512298 0.386970
vt 0.512302 0.411851
vt 0.512305 0.436725
vt 0.512308 0.461602
vt 0.512311 0.486479
vt 0.512313 0.511354
vt 0.512314 0.536228
vt 0.512314 0.561103
vt 0.512316 0.585980
vt 0.512323 0.610759
vt 0.512233 0.013696
vt 0.512228 0.038577
vt 0.512227 0.063466
vt 0.512232 0.088349
vt 0.512238 0.113234
vt 0.512244 0.138120
vt 0.512250 0.163006
vt 0.512256 0.187892
vt 0.512262 0.212779
vt 0.512268 0.237666
vt 0.512274 0.262554
vt 0.663308 0.262536
vt 0.663306 0.237647
vt 0.663305 0.212760
vt 0.663303 0.187873
vt 0.663302 0.162987
vt 0.663300 0.138102
vt 0.663299 0.113217
vt 0.663299 0.088334
vt 0.663299 0.063455
vt 0.663303 0.038569
vt 0.663310 0.013689
vt 0.663319 0.585977
vt 0.663326 0.610758
vt 0.663315 0.561101
vt 0.663313 0.536225
vt 0.663313 0.511349
vt 0.663312 0.486473
vt 0.663312 0.461594
vt 0.663312 0.436716
vt 0.663312 0.411840
vt 0.663311 0.386958
vt 0.663311 0.362080
vt 0.663310 0.337198
vt 0.067932 0.617988
vt 0.077106 0.617988
vt 0.077106 0.990575
vt 0.067932 0.990575
vt 0.086281 0.617988
vt 0.086281 0.990575
vt 0.095455 0.617988
vt 0.095455 0.990575
vt 0.104630 0.617988
vt 0.104630 0.990575
vt 0.113804 0.617988
vt 0.113804 0.990575
vt 0.122979 0.617988
vt 0.122979 0.990575
vt 0.012884 0.617988
vt 0.022059 0.617988
vt 0.022059 0.990575
vt 0.012884 0.990575
vt 0.031233 0.617988
vt 0.031233 0.990575
vt 0.040408 0.617988
vt 0.040408 0.990575
vt 0.049582 0.617988
vt 0.049582 0.990575
vt 0.058757 0.617988
vt 0.058757 0.990575
vt 0.067932 0.617988
vt 0.077106 0.617988
vt 0.077106 0.990575
vt 0.067932 0.990575
vt 0.086281 0.617988
vt 0.086281 0.990575
vt 0.095455 0.617988
vt 0.095455 0.990575
vt 0.104630 0.617988
vt 0.104630 0.990575
vt 0.113804 0.617988
vt 0.113804 0.990575
vt 0.122979 0.617988
vt 0.122979 0.990575
vt 0.012884 0.617988
vt 0.022059 0.617988
vt 0.022059 0.990575
vt 0.012884 0.990575
vt 0.031233 0.617988
vt 0.031233 0.990575
vt 0.040408 0.617988
vt 0.040408 0.990575
vt 0.049582 0.617988
vt 0.049582 0.990575
vt 0.058757 0.617988
vt 0.058757 0.990575
vt 0.067932 0.617988
vt 0.077106 0.617988
vt 0.086281 0.617988
vt 0.095455 0.617988
vt 0.104630 0.617988
vt 0.113804 0.990575
vt 0.122979 0.617988
vt 0.122979 0.990575
vt 0.012884 0.617988
vt 0.022059 0.617988
vt 0.022059 0.990575
vt 0.031233 0.617988
vt 0.031233 0.990575
vt 0.040408 0.617988
vt 0.049582 0.617988
vt 0.049582 0.990575
vt 0.058757 0.617988
vt 0.077106 0.617988
vt 0.077106 0.990575
vt 0.067932 0.990575
vt 0.086281 0.990575
vt 0.095455 0.617988
vt 0.095455 0.990575
vt 0.104630 0.990575
vt 0.113805 0.617988
vt 0.113805 0.990575
vt 0.122979 0.990575
vt 0.022059 0.990575
vt 0.031233 0.990575
vt 0.040408 0.990575
vt 0.049582 0.990575
vt 0.058757 0.990575
vt 0.122979 0.617988
vt 0.022059 0.617988
vt 0.040408 0.617988
vt 0.040408 0.990575
vt 0.067932 0.990575
vt 0.086281 0.990575
vt 0.104630 0.617988
vt 0.104630 0.990575
vt 0.067932 0.617988
vt 0.077106 0.617988
vt 0.086281 0.617988
vt 0.095455 0.617988
vt 0.095455 0.990575
vt 0.104630 0.617988
vt 0.113805 0.617988
vt 0.113804 0.990575
vt 0.122979 0.617988
vt 0.122979 0.990575
vt 0.012884 0.617988
vt 0.022059 0.617988
vt 0.031233 0.617988
vt 0.040408 0.617988
vt 0.049582 0.617988
vt 0.058757 0.617988
vt 0.067932 0.617988
vt 0.067932 0.990575
vt 0.086281 0.990575
vt 0.104630 0.990575
vt 0.113804 0.990575
vt 0.122979 0.617988
vt 0.122979 0.990575
vt 0.022059 0.990575
vt 0.012884 0.990575
vt 0.031233 0.617988
vt 0.031233 0.990575
vt 0.040408 0.617988
vt 0.040408 0.990575
vt 0.049582 0.617988
vt 0.049583 0.990575
vt 0.058757 0.617988
vt 0.104630 0.990575
vt 0.067932 0.990575
vt 0.058757 0.990575
vt 0.049582 0.990575
vt 0.122979 0.617988
vt 0.113804 0.617988
vt 0.104630 0.990575
vt 0.104630 0.617988
vt 0.095455 0.990575
vt 0.095455 0.617988
vt 0.086281 0.990575
vt 0.086281 0.617988
vt 0.077106 0.990575
vt 0.077106 0.617988
vt 0.067932 0.617988
vt 0.067932 0.990575
vt 0.049583 0.990575
vt 0.049583 0.617988
vt 0.031233 0.617988
vt 0.012884 0.990575
vt 0.012884 0.617988
vt 0.122979 0.617988
vt 0.122979 0.990575
vt 0.104630 0.990575
vt 0.104630 0.617988
vt 0.086281 0.990575
vt 0.086281 0.617988
vt 0.067932 0.617988
vt 0.058757 0.990575
vt 0.058757 0.617988
vt 0.049582 0.617988
vt 0.040408 0.617988
vt 0.031233 0.617988
vt 0.022059 0.617988
vt 0.012884 0.617988
vt 0.122979 0.617988
vt 0.122979 0.990575
vt 0.113804 0.990575
vt 0.113804 0.617988
vt 0.104630 0.990575
vt 0.104630 0.617988
vt 0.095455 0.990575
vt 0.095455 0.617988
vt 0.077106 0.990575
vt 0.077106 0.617988
vt 0.113805 0.990575
vt 0.095455 0.990575
vt 0.031233 0.990575
vt 0.031233 0.617988
vt 0.022059 0.990575
vt 0.022059 0.617988
vt 0.113804 0.990575
vt 0.127828 0.620421
vt 0.140648 0.620421
vt 0.140648 0.989828
vt 0.127828 0.989828
vt 0.204745 0.620421
vt 0.217565 0.620421
vt 0.217565 0.989828
vt 0.204745 0.989828
vt 0.153467 0.620421
vt 0.166287 0.620421
vt 0.166287 0.989828
vt 0.153467 0.989828
vt 0.243204 0.620421
vt 0.256024 0.620421
vt 0.256024 0.989828
vt 0.243204 0.989828
vt 0.179106 0.620421
vt 0.179106 0.989828
vt 0.268843 0.620421
vt 0.268843 0.989828
vt 0.230385 0.620421
vt 0.230384 0.989828
vt 0.191926 0.620421
vt 0.191926 0.989828
vt 0.281663 0.620421
vt 0.281663 0.989828
s 1
usemtl 1.25m_Boiler
f 49/1/1 2/2/1 4/3/2 50/4/2
f 50/4/2 4/3/2 6/5/3 51/6/3
f 51/6/3 6/5/3 8/7/4 52/8/4
f 52/8/4 8/7/4 10/9/5 53/10/5
f 53/10/5 10/9/5 12/11/6 54/12/6
f 54/12/6 12/11/6 14/13/7 55/14/7
f 55/14/7 14/13/7 16/15/8 56/16/8
f 56/16/8 16/15/8 18/17/9 57/18/9
f 57/18/9 18/17/9 20/19/10 58/20/10
f 58/20/10 20/19/10 22/21/11 59/22/11
f 59/22/11 22/21/11 24/23/12 60/24/12
f 60/24/12 24/23/12 26/25/13 61/26/13
f 61/27/13 26/28/13 28/29/14 62/30/14
f 62/30/14 28/29/14 30/31/15 63/32/15
f 63/32/15 30/31/15 32/33/16 64/34/16
f 64/34/16 32/33/16 34/35/17 65/36/17
f 65/36/17 34/35/17 36/37/18 66/38/18
f 66/38/18 36/37/18 38/39/19 67/40/19
f 67/40/19 38/39/19 40/41/20 68/42/20
f 68/42/20 40/41/20 42/43/21 69/44/21
f 69/44/21 42/43/21 44/45/22 70/46/22
f 70/46/22 44/45/22 46/47/23 71/48/23
f 71/48/23 46/47/23 48/49/24 72/50/24
f 72/50/24 48/49/24 2/2/1 49/1/1
f 193/51/25 96/52/25 95/53/26 194/54/26
f 239/55/27 240/56/28 120/57/28 119/58/27
f 238/59/29 239/55/27 119/58/27 118/60/29
f 237/61/30 238/59/29 118/60/29 117/62/30
f 236/63/31 237/61/30 117/62/30 116/64/31
f 235/65/32 236/63/31 116/64/31 115/66/32
f 234/67/33 235/65/32 115/66/32 114/68/33
f 233/69/34 234/67/33 114/68/33 113/70/34
f 232/71/35 233/69/34 113/70/34 112/72/35
f 231/73/36 232/71/35 112/72/35 111/74/36
f 230/75/37 231/73/36 111/74/36 110/76/37
f 229/77/38 230/75/37 110/76/37 109/78/38
f 228/79/39 229/77/38 109/78/38 108/80/39
f 227/81/40 228/82/39 108/83/39 107/84/40
f 226/85/41 227/81/40 107/84/40 106/86/41
f 225/87/42 226/85/41 106/86/41 105/88/42
f 224/89/43 225/87/42 105/88/42 104/90/43
f 223/91/44 224/89/43 104/90/43 103/92/44
f 222/93/45 223/91/44 103/92/44 102/94/45
f 221/95/46 222/93/45 102/94/45 101/96/46
f 220/97/47 221/95/46 101/96/46 100/98/47
f 219/99/48 220/97/47 100/98/47 99/100/48
f 218/101/49 219/99/48 99/100/48 98/102/49
f 217/103/50 218/101/49 98/102/49 97/104/50
f 121/105/24 122/106/1 96/52/1 73/107/24
f 123/108/23 121/105/24 73/107/24 74/109/23
f 124/110/22 123/108/23 74/109/23 75/111/22
f 125/112/21 124/110/22 75/111/22 76/113/21
f 126/114/20 125/112/21 76/113/21 77/115/20
f 127/116/19 126/114/20 77/115/20 78/117/19
f 128/118/18 127/116/19 78/117/19 79/119/18
f 129/120/17 128/118/18 79/119/18 80/121/17
f 130/122/16 129/120/17 80/121/17 81/123/16
f 131/124/15 130/122/16 81/123/16 82/125/15
f 132/126/14 131/124/15 82/125/15 83/127/14
f 133/128/13 132/126/14 83/127/14 84/129/13
f 134/130/12 133/131/13 84/132/13 85/133/12
f 135/134/11 134/130/12 85/133/12 86/135/11
f 136/136/10 135/134/11 86/135/11 87/137/10
f 137/138/9 136/136/10 87/137/10 88/139/9
f 138/140/8 137/138/9 88/139/9 89/141/8
f 139/142/7 138/140/8 89/141/8 90/143/7
f 140/144/6 139/142/7 90/143/7 91/145/6
f 141/146/5 140/144/6 91/145/6 92/147/5
f 142/148/4 141/146/5 92/147/5 93/149/4
f 143/150/3 142/148/4 93/149/4 94/151/3
f 144/152/2 143/150/3 94/151/3 95/53/2
f 145/153/25 49/1/25 50/4/26 168/154/26
f 47/155/24 119/58/24 120/57/1 1/156/1
f 45/157/23 118/60/23 119/58/24 47/155/24
f 43/158/22 117/62/22 118/60/23 45/157/23
f 41/159/21 116/64/21 117/62/22 43/158/22
f 39/160/20 115/66/20 116/64/21 41/159/21
f 37/161/19 114/68/19 115/66/20 39/160/20
f 35/162/18 113/70/18 114/68/19 37/161/19
f 33/163/17 112/72/17 113/70/18 35/162/18
f 31/164/16 111/74/16 112/72/17 33/163/17
f 29/165/15 110/76/15 111/74/16 31/164/16
f 27/166/14 109/78/14 110/76/15 29/165/15
f 25/167/13 108/80/13 109/78/14 27/166/14
f 23/168/12 107/84/12 108/83/13 25/169/13
f 21/170/11 106/86/11 107/84/12 23/168/12
f 19/171/10 105/88/10 106/86/11 21/170/11
f 17/172/9 104/90/9 105/88/10 19/171/10
f 15/173/8 103/92/8 104/90/9 17/172/9
f 13/174/7 102/94/7 103/92/8 15/173/8
f 11/175/6 101/96/6 102/94/7 13/174/7
f 9/176/5 100/98/5 101/96/6 11/175/6
f 7/177/4 99/100/4 100/98/5 9/176/5
f 5/178/3 98/102/3 99/100/4 7/177/4
f 3/179/2 97/104/2 98/102/3 5/178/3
f 1/156/1 120/57/1 97/104/2 3/179/2
f 96/52/1 122/106/1 144/152/2 95/53/2
f 191/180/50 190/181/49 143/150/49 144/152/50
f 190/181/49 189/182/48 142/148/48 143/150/49
f 189/182/48 188/183/47 141/146/47 142/148/48
f 188/183/47 187/184/46 140/144/46 141/146/47
f 187/184/46 186/185/45 139/142/45 140/144/46
f 186/185/45 185/186/44 138/140/44 139/142/45
f 185/186/44 184/187/43 137/138/43 138/140/44
f 184/187/43 183/188/42 136/136/42 137/138/43
f 183/188/42 182/189/41 135/134/41 136/136/42
f 182/189/41 181/190/40 134/130/40 135/134/41
f 181/190/40 180/191/39 133/131/39 134/130/40
f 180/192/39 179/193/38 132/126/38 133/128/39
f 179/193/38 178/194/37 131/124/37 132/126/38
f 178/194/37 177/195/36 130/122/36 131/124/37
f 177/195/36 176/196/35 129/120/35 130/122/36
f 176/196/35 175/197/34 128/118/34 129/120/35
f 175/197/34 174/198/33 127/116/33 128/118/34
f 174/198/33 173/199/32 126/114/32 127/116/33
f 173/199/32 172/200/31 125/112/31 126/114/32
f 172/200/31 171/201/30 124/110/30 125/112/31
f 171/201/30 170/202/29 123/108/29 124/110/30
f 170/202/29 169/203/27 121/105/27 123/108/29
f 169/203/27 192/204/28 122/106/28 121/105/27
f 72/50/51 49/1/25 145/153/25 146/205/51
f 71/48/52 72/50/51 146/205/51 147/206/52
f 70/46/53 71/48/52 147/206/52 148/207/53
f 69/44/54 70/46/53 148/207/53 149/208/54
f 68/42/55 69/44/54 149/208/54 150/209/55
f 67/40/56 68/42/55 150/209/55 151/210/56
f 66/38/57 67/40/56 151/210/56 152/211/57
f 65/36/58 66/38/57 152/211/57 153/212/58
f 64/34/59 65/36/58 153/212/58 154/213/59
f 63/32/60 64/34/59 154/213/59 155/214/60
f 62/30/61 63/32/60 155/214/60 156/215/61
f 61/27/62 62/30/61 156/215/61 157/216/62
f 60/24/63 61/26/62 157/217/62 158/218/63
f 59/22/64 60/24/63 158/218/63 159/219/64
f 58/20/65 59/22/64 159/219/64 160/220/65
f 57/18/66 58/20/65 160/220/65 161/221/66
f 56/16/67 57/18/66 161/221/66 162/222/67
f 55/14/68 56/16/67 162/222/67 163/223/68
f 54/12/69 55/14/68 163/223/68 164/224/69
f 53/10/70 54/12/69 164/224/69 165/225/70
f 52/8/71 53/10/70 165/225/70 166/226/71
f 51/6/72 52/8/71 166/226/71 167/227/72
f 50/4/26 51/6/72 167/227/72 168/154/26
f 192/204/1 145/153/1 168/154/2 191/180/2
f 122/106/28 192/204/28 191/180/50 144/152/50
f 146/205/24 145/153/1 192/204/1 169/203/24
f 147/206/23 146/205/24 169/203/24 170/202/23
f 148/207/22 147/206/23 170/202/23 171/201/22
f 149/208/21 148/207/22 171/201/22 172/200/21
f 150/209/20 149/208/21 172/200/21 173/199/20
f 151/210/19 150/209/20 173/199/20 174/198/19
f 152/211/18 151/210/19 174/198/19 175/197/18
f 153/212/17 152/211/18 175/197/18 176/196/17
f 154/213/16 153/212/17 176/196/17 177/195/16
f 155/214/15 154/213/16 177/195/16 178/194/15
f 156/215/14 155/214/15 178/194/15 179/193/14
f 157/216/13 156/215/14 179/193/14 180/192/13
f 158/218/12 157/217/13 180/191/13 181/190/12
f 159/219/11 158/218/12 181/190/12 182/189/11
f 160/220/10 159/219/11 182/189/11 183/188/10
f 161/221/9 160/220/10 183/188/10 184/187/9
f 162/222/8 161/221/9 184/187/9 185/186/8
f 163/223/7 162/222/8 185/186/8 186/185/7
f 164/224/6 163/223/7 186/185/7 187/184/6
f 165/225/5 164/224/6 187/184/6 188/183/5
f 166/226/4 165/225/5 188/183/5 189/182/4
f 167/227/3 166/226/4 189/182/4 190/181/3
f 168/154/2 167/227/3 190/181/3 191/180/2
f 95/53/26 94/151/72 195/228/72 194/54/26
f 94/151/72 93/149/71 196/229/71 195/228/72
f 93/149/71 92/147/70 197/230/70 196/229/71
f 92/147/70 91/145/69 198/231/69 197/230/70
f 91/145/69 90/143/68 199/232/68 198/231/69
f 90/143/68 89/141/67 200/233/67 199/232/68
f 89/141/67 88/139/66 201/234/66 200/233/67
f 88/139/66 87/137/65 202/235/65 201/234/66
f 87/137/65 86/135/64 203/236/64 202/235/65
f 86/135/64 85/133/63 204/237/63 203/236/64
f 85/133/63 84/132/62 205/238/62 204/237/63
f 84/129/62 83/127/61 206/239/61 205/240/62
f 83/127/61 82/125/60 207/241/60 206/239/61
f 82/125/60 81/123/59 208/242/59 207/241/60
f 81/123/59 80/121/58 209/243/58 208/242/59
f 80/121/58 79/119/57 210/244/57 209/243/58
f 79/119/57 78/117/56 211/245/56 210/244/57
f 78/117/56 77/115/55 212/246/55 211/245/56
f 77/115/55 76/113/54 213/247/54 212/246/55
f 76/113/54 75/111/53 214/248/53 213/247/54
f 75/111/53 74/109/52 215/249/52 214/248/53
f 74/109/52 73/107/51 216/250/51 215/249/52
f 73/107/51 96/52/25 193/51/25 216/250/51
f 240/56/1 193/51/1 194/54/2 217/103/2
f 120/57/28 240/56/28 217/103/50 97/104/50
f 194/54/2 195/228/3 218/101/3 217/103/2
f 195/228/3 196/229/4 219/99/4 218/101/3
f 196/229/4 197/230/5 220/97/5 219/99/4
f 197/230/5 198/231/6 221/95/6 220/97/5
f 198/231/6 199/232/7 222/93/7 221/95/6
f 199/232/7 200/233/8 223/91/8 222/93/7
f 200/233/8 201/234/9 224/89/9 223/91/8
f 201/234/9 202/235/10 225/87/10 224/89/9
f 202/235/10 203/236/11 226/85/11 225/87/10
f 203/236/11 204/237/12 227/81/12 226/85/11
f 204/237/12 205/238/13 228/82/13 227/81/12
f 205/240/13 206/239/14 229/77/14 228/79/13
f 206/239/14 207/241/15 230/75/15 229/77/14
f 207/241/15 208/242/16 231/73/16 230/75/15
f 208/242/16 209/243/17 232/71/17 231/73/16
f 209/243/17 210/244/18 233/69/18 232/71/17
f 210/244/18 211/245/19 234/67/19 233/69/18
f 211/245/19 212/246/20 235/65/20 234/67/19
f 212/246/20 213/247/21 236/63/21 235/65/20
f 213/247/21 214/248/22 237/61/22 236/63/21
f 214/248/22 215/249/23 238/59/23 237/61/22
f 215/249/23 216/250/24 239/55/24 238/59/23
f 216/250/24 193/51/1 240/56/1 239/55/24
f 241/251/13 243/252/15 244/253/15 242/254/13
f 243/252/15 245/255/17 246/256/17 244/253/15
f 245/255/17 247/257/19 248/258/19 246/256/17
f 247/257/19 249/259/21 250/260/21 248/258/19
f 249/259/21 251/261/23 252/262/23 250/260/21
f 251/261/23 253/263/1 254/264/1 252/262/23
f 253/265/1 255/266/3 256/267/3 254/268/1
f 255/266/3 257/269/5 258/270/5 256/267/3
f 257/269/5 259/271/7 260/272/7 258/270/5
f 259/271/7 261/273/9 262/274/9 260/272/7
f 261/273/9 263/275/11 264/276/11 262/274/9
f 263/275/11 241/251/13 242/254/13 264/276/11
f 265/277/13 267/278/15 268/279/15 266/280/13
f 267/278/15 269/281/17 270/282/17 268/279/15
f 269/281/17 271/283/19 272/284/19 270/282/17
f 271/283/19 273/285/21 274/286/21 272/284/19
f 273/285/21 275/287/23 276/288/23 274/286/21
f 275/287/23 277/289/1 278/290/1 276/288/23
f 277/291/1 279/292/3 280/293/3 278/294/1
f 279/292/3 281/295/5 282/296/5 280/293/3
f 281/295/5 283/297/7 284/298/7 282/296/5
f 283/297/7 285/299/9 286/300/9 284/298/7
f 285/299/9 287/301/11 288/302/11 286/300/9
f 287/301/11 265/277/13 266/280/13 288/302/11
f 289/303/13 291/304/15 292/279/15 290/280/13
f 291/304/15 293/305/17 294/282/17 292/279/15
f 293/305/17 295/306/19 296/284/19 294/282/17
f 295/306/19 297/307/21 298/286/21 296/284/19
f 297/307/21 299/287/23 300/308/23 298/286/21
f 299/287/23 301/309/1 302/310/1 300/308/23
f 301/311/1 303/312/3 304/313/3 302/294/1
f 303/312/3 305/314/5 306/315/5 304/313/3
f 305/314/5 307/316/7 308/298/7 306/315/5
f 307/316/7 309/317/9 310/318/9 308/298/7
f 309/317/9 311/319/11 312/302/11 310/318/9
f 311/319/11 289/303/13 290/280/13 312/302/11
f 313/277/13 315/320/15 316/321/15 314/322/13
f 315/320/15 317/281/17 318/323/17 316/321/15
f 317/281/17 319/324/19 320/325/19 318/323/17
f 319/324/19 321/285/21 322/326/21 320/325/19
f 321/285/21 323/327/23 324/328/23 322/326/21
f 323/327/23 325/289/1 326/329/1 324/328/23
f 325/311/1 327/292/3 328/330/3 326/268/1
f 327/292/3 329/314/5 330/331/5 328/330/3
f 329/314/5 331/297/7 332/332/7 330/331/5
f 331/297/7 333/299/9 334/333/9 332/332/7
f 333/299/9 335/301/11 336/334/11 334/333/9
f 335/301/11 313/277/13 314/322/13 336/334/11
f 337/303/13 339/304/15 340/279/15 338/280/13
f 339/304/15 341/305/17 342/282/17 340/279/15
f 341/305/17 343/306/19 344/284/19 342/282/17
f 343/306/19 345/307/21 346/286/21 344/284/19
f 345/307/21 347/287/23 348/308/23 346/286/21
f 347/287/23 349/335/1 350/290/1 348/308/23
f 349/311/1 351/336/3 352/293/3 350/294/1
f 351/336/3 353/314/5 354/315/5 352/293/3
f 353/314/5 355/337/7 356/338/7 354/315/5
f 355/337/7 357/317/9 358/318/9 356/338/7
f 357/317/9 359/319/11 360/302/11 358/318/9
f 359/319/11 337/303/13 338/280/13 360/302/11
f 361/277/13 363/304/15 364/279/15 362/339/13
f 363/304/15 365/281/17 366/340/17 364/279/15
f 365/281/17 367/306/19 368/284/19 366/340/17
f 367/306/19 369/341/21 370/342/21 368/284/19
f 369/341/21 371/287/23 372/308/23 370/342/21
f 371/287/23 373/335/1 374/290/1 372/308/23
f 373/311/1 375/336/3 376/293/3 374/294/1
f 375/336/3 377/314/5 378/315/5 376/293/3
f 377/314/5 379/337/7 380/338/7 378/315/5
f 379/337/7 381/299/9 382/300/9 380/338/7
f 381/299/9 383/319/11 384/302/11 382/300/9
f 383/319/11 361/277/13 362/339/13 384/302/11
f 385/343/13 387/344/15 388/253/15 386/322/13
f 387/344/15 389/345/17 390/323/17 388/253/15
f 389/345/17 391/346/19 392/347/19 390/323/17
f 391/346/19 393/348/21 394/326/21 392/347/19
f 393/348/21 395/349/23 396/350/23 394/326/21
f 395/349/23 397/351/1 398/352/1 396/350/23
f 397/353/1 399/354/3 400/330/3 398/268/1
f 399/354/3 401/355/5 402/331/5 400/330/3
f 401/355/5 403/356/7 404/332/7 402/331/5
f 403/356/7 405/357/9 406/333/9 404/332/7
f 405/357/9 407/358/11 408/276/11 406/333/9
f 407/358/11 385/343/13 386/322/13 408/276/11
f 409/359/13 411/304/15 412/321/15 410/360/13
f 411/304/15 413/305/17 414/361/17 412/321/15
f 413/305/17 415/306/19 416/325/19 414/361/17
f 415/306/19 417/307/21 418/362/21 416/325/19
f 417/307/21 419/287/23 420/363/23 418/362/21
f 419/287/23 421/364/1 422/365/1 420/363/23
f 421/311/1 423/336/3 424/366/3 422/367/1
f 423/336/3 425/368/5 426/369/5 424/366/3
f 425/368/5 427/370/7 428/371/7 426/369/5
f 427/370/7 429/372/9 430/373/9 428/371/7
f 429/372/9 431/374/11 432/334/11 430/373/9
f 431/374/11 409/359/13 410/360/13 432/334/11
f 433/277/13 434/322/13 436/276/11 435/319/11
f 435/319/11 436/276/11 438/333/9 437/299/9
f 437/299/9 438/333/9 440/332/7 439/297/7
f 439/297/7 440/332/7 442/331/5 441/314/5
f 441/314/5 442/331/5 444/330/3 443/292/3
f 443/292/3 444/330/3 446/268/1 445/311/1
f 445/335/1 446/352/1 448/350/23 447/287/23
f 447/287/23 448/350/23 450/375/21 449/341/21
f 449/341/21 450/375/21 452/347/19 451/306/19
f 451/306/19 452/347/19 454/323/17 453/281/17
f 453/281/17 454/323/17 456/253/15 455/304/15
f 455/304/15 456/253/15 434/322/13 433/277/13
f 457/359/13 458/376/13 460/377/11 459/374/11
f 459/374/11 460/377/11 462/378/9 461/372/9
f 461/372/9 462/378/9 464/298/7 463/316/7
f 463/316/7 464/298/7 466/315/5 465/314/5
f 465/314/5 466/315/5 468/293/3 467/336/3
f 467/336/3 468/293/3 470/294/1 469/311/1
f 469/379/1 470/310/1 472/308/23 471/380/23
f 471/380/23 472/308/23 474/381/21 473/382/21
f 473/382/21 474/381/21 476/383/19 475/384/19
f 475/384/19 476/383/19 478/385/17 477/386/17
f 477/386/17 478/385/17 480/387/15 479/388/15
f 479/388/15 480/387/15 458/376/13 457/359/13
f 481/389/13 482/390/13 484/334/11 483/301/11
f 483/301/11 484/334/11 486/391/9 485/392/9
f 485/392/9 486/391/9 488/332/7 487/297/7
f 487/297/7 488/332/7 490/369/5 489/393/5
f 489/393/5 490/369/5 492/330/3 491/292/3
f 491/292/3 492/330/3 494/394/1 493/395/1
f 493/396/1 494/397/1 496/328/23 495/327/23
f 495/327/23 496/328/23 498/398/21 497/399/21
f 497/399/21 498/398/21 500/325/19 499/324/19
f 499/324/19 500/325/19 502/400/17 501/401/17
f 501/401/17 502/400/17 504/321/15 503/320/15
f 503/320/15 504/321/15 482/390/13 481/389/13
f 505/402/13 506/339/13 508/403/11 507/404/11
f 507/404/11 508/403/11 510/300/9 509/405/9
f 509/405/9 510/300/9 512/298/7 511/406/7
f 511/406/7 512/298/7 514/315/5 513/407/5
f 513/407/5 514/315/5 516/293/3 515/408/3
f 515/408/3 516/293/3 518/294/1 517/409/1
f 517/410/1 518/411/1 520/412/23 519/413/23
f 519/413/23 520/412/23 522/414/21 521/415/21
f 521/415/21 522/414/21 524/416/19 523/417/19
f 523/417/19 524/416/19 526/340/17 525/281/17
f 525/281/17 526/340/17 528/418/15 527/419/15
f 527/419/15 528/418/15 506/339/13 505/402/13
f 529/277/13 530/339/13 532/302/11 531/319/11
f 531/319/11 532/302/11 534/300/9 533/299/9
f 533/299/9 534/300/9 536/298/7 535/316/7
f 535/316/7 536/298/7 538/315/5 537/314/5
f 537/314/5 538/315/5 540/293/3 539/336/3
f 539/336/3 540/293/3 542/294/1 541/311/1
f 541/289/1 542/411/1 544/420/23 543/327/23
f 543/327/23 544/420/23 546/414/21 545/285/21
f 545/285/21 546/414/21 548/421/19 547/324/19
f 547/324/19 548/421/19 550/340/17 549/281/17
f 549/281/17 550/340/17 552/279/15 551/304/15
f 551/304/15 552/279/15 530/339/13 529/277/13
f 553/277/13 554/339/13 556/403/11 555/404/11
f 555/404/11 556/403/11 558/300/9 557/299/9
f 557/299/9 558/300/9 560/298/7 559/316/7
f 559/316/7 560/298/7 562/422/5 561/423/5
f 561/423/5 562/422/5 564/424/3 563/425/3
f 563/425/3 564/424/3 566/294/1 565/311/1
f 565/379/1 566/310/1 568/426/23 567/380/23
f 567/380/23 568/426/23 570/381/21 569/382/21
f 569/382/21 570/381/21 572/383/19 571/384/19
f 571/384/19 572/383/19 574/385/17 573/281/17
f 573/281/17 574/385/17 576/418/15 575/278/15
f 575/278/15 576/418/15 554/339/13 553/277/13
f 577/277/13 578/322/13 580/276/11 579/319/11
f 579/319/11 580/276/11 582/333/9 581/299/9
f 581/299/9 582/333/9 584/332/7 583/297/7
f 583/297/7 584/332/7 586/331/5 585/314/5
f 585/314/5 586/331/5 588/330/3 587/292/3
f 587/292/3 588/330/3 590/268/1 589/311/1
f 589/335/1 590/352/1 592/350/23 591/287/23
f 591/287/23 592/350/23 594/326/21 593/285/21
f 593/285/21 594/326/21 596/347/19 595/306/19
f 595/306/19 596/347/19 598/323/17 597/281/17
f 597/281/17 598/323/17 600/253/15 599/304/15
f 599/304/15 600/253/15 578/322/13 577/277/13
f 611/427/1 604/428/23 616/429/23 623/430/1
f 612/431/13 610/432/11 622/433/11 624/434/13
f 603/435/21 607/436/19 619/437/19 615/438/21
f 601/439/7 605/440/5 617/441/5 613/442/7
f 607/436/19 608/443/17 620/444/17 619/437/19
f 605/440/5 606/445/3 618/446/3 617/441/5
f 610/432/11 602/447/9 614/448/9 622/433/11
f 608/443/17 609/449/15 621/450/15 620/444/17
f 606/445/3 611/451/1 623/452/1 618/446/3
f 609/449/15 612/431/13 624/434/13 621/450/15
f 602/447/9 601/439/7 613/442/7 614/448/9
f 604/428/23 603/435/21 615/438/21 616/429/23
