# Blender 4.1.1
# www.blender.org
o DomeRound_Collider
v 0.000000 0.487587 -0.228627
v 0.114313 0.487587 -0.197996
v 0.197996 0.487587 -0.114313
v 0.228627 0.487587 0.000000
v 0.197996 0.487587 0.114313
v 0.114313 0.487587 0.197996
v 0.000000 0.487587 0.228627
v -0.114313 0.487587 0.197996
v -0.197996 0.487587 0.114313
v -0.228627 0.487587 0.000000
v -0.197996 0.487587 -0.114313
v -0.114313 0.487587 -0.197996
v -0.156726 0.100802 -0.271457
v -0.271457 0.100802 -0.156726
v -0.313452 0.100802 0.000000
v -0.271457 0.100802 0.156726
v -0.156726 0.100802 0.271457
v 0.000000 0.100802 0.313452
v 0.156726 0.100802 0.271457
v 0.271457 0.100802 0.156726
v 0.313452 0.100802 0.000000
v 0.271457 0.100802 -0.156726
v 0.156726 0.100802 -0.271457
v 0.000000 0.100802 -0.313452
v 0.000000 -0.000814 -0.313452
v 0.156726 -0.000814 -0.271457
v 0.271457 -0.000814 -0.156726
v 0.313452 -0.000814 0.000000
v 0.271457 -0.000814 0.156726
v 0.156726 -0.000814 0.271457
v 0.000000 -0.000814 0.313452
v -0.156726 -0.000814 0.271457
v -0.271457 -0.000814 0.156726
v -0.313452 -0.000814 0.000000
v -0.271457 -0.000814 -0.156726
v -0.156726 -0.000814 -0.271457
v 0.000000 0.646754 0.000000
v 0.059959 0.613590 -0.103853
v 0.103074 0.538706 -0.178529
v 0.000000 0.538706 -0.206147
v 0.000000 0.613590 -0.119919
v 0.103853 0.613590 -0.059959
v 0.178529 0.538706 -0.103074
v 0.119919 0.613590 0.000000
v 0.206147 0.538706 0.000000
v 0.103853 0.613590 0.059959
v 0.178529 0.538706 0.103074
v 0.059959 0.613590 0.103853
v 0.103074 0.538706 0.178529
v 0.000000 0.613590 0.119919
v 0.000000 0.538706 0.206147
v -0.059959 0.613590 0.103853
v -0.103074 0.538706 0.178529
v -0.103853 0.613590 0.059959
v -0.178529 0.538706 0.103074
v -0.119919 0.613590 0.000000
v -0.206147 0.538706 0.000000
v -0.103853 0.613590 -0.059959
v -0.178529 0.538706 -0.103074
v -0.059959 0.613590 -0.103853
v -0.103074 0.538706 -0.178529
vn -0.6918 0.2072 0.6918
vn -0.9450 0.2072 0.2532
vn -0.9450 0.2072 -0.2532
vn 0.6918 0.2072 -0.6918
vn -0.6918 0.2072 -0.6918
vn 0.9450 0.2072 -0.2532
vn 0.2532 0.2072 -0.9450
vn -0.2532 0.2072 -0.9450
vn 0.9450 0.2072 0.2532
vn 0.6918 0.2072 0.6918
vn 0.2659 0.9614 -0.0712
vn 0.2532 0.2072 0.9450
vn -0.2532 0.2072 0.9450
vn -0.2588 -0.0000 -0.9659
vn -0.1946 0.9614 -0.1946
vn 0.1946 0.9614 -0.1946
vn 0.2659 0.9614 0.0712
vn -0.0000 -1.0000 -0.0000
vn 0.2382 0.3910 -0.8890
vn -0.2659 0.9614 -0.0712
vn -0.8890 0.3910 -0.2382
vn -0.2659 0.9614 0.0712
vn -0.1946 0.9614 0.1946
vn -0.0712 0.9614 0.2659
vn 0.0712 0.9614 0.2659
vn 0.1946 0.9614 0.1946
vn -0.2382 0.3910 0.8890
vn 0.8890 0.3910 0.2382
vn -0.6508 0.3910 -0.6508
vn 0.6508 0.3910 -0.6508
vn -0.6508 0.3910 0.6508
vn 0.6508 0.3910 0.6508
vn -0.2382 0.3910 -0.8890
vn -0.0712 0.9614 -0.2659
vn -0.8890 0.3910 0.2382
vn 0.2382 0.3910 0.8890
vn 0.8890 0.3910 -0.2382
vn 0.1730 0.7436 -0.6458
vn 0.4728 0.7436 -0.4728
vn 0.6458 0.7436 -0.1730
vn 0.6458 0.7436 0.1730
vn 0.4728 0.7436 0.4728
vn 0.1730 0.7436 0.6458
vn -0.1730 0.7436 0.6458
vn -0.4728 0.7436 0.4728
vn -0.6458 0.7436 0.1730
vn -0.6458 0.7436 -0.1730
vn -0.4728 0.7436 -0.4728
vn -0.1730 0.7436 -0.6458
vn 0.0712 0.9614 -0.2659
vn -0.2588 -0.0000 0.9659
vn 0.2588 -0.0000 0.9659
vn 0.7071 -0.0000 0.7071
vn -0.7071 -0.0000 0.7071
vn -0.7071 -0.0000 -0.7071
vn 0.7071 -0.0000 -0.7071
vn 0.9659 -0.0000 -0.2588
vn -0.9659 -0.0000 -0.2588
vn -0.9659 -0.0000 0.2588
vn 0.9659 -0.0000 0.2588
vn 0.2588 -0.0000 -0.9659
vt 0.416667 1.000000
vt 0.333333 1.000000
vt 0.250000 1.000000
vt 0.166667 1.000000
vt 0.916667 1.000000
vt 0.833333 1.000000
vt 0.083333 1.000000
vt 0.750000 1.000000
vt 1.000000 1.000000
vt 0.000000 1.000000
vt 0.666667 1.000000
vt 0.583333 1.000000
vt 0.807109 1.000000
vt 0.500000 1.000000
vt 0.140442 1.000000
vt 0.890442 1.000000
vt 0.723775 1.000000
vt 0.223775 1.000000
vt 0.307109 1.000000
vt 0.390442 1.000000
vt 0.473775 1.000000
vt 0.557109 1.000000
vt 0.640442 1.000000
vt 0.916667 1.000000
vt 0.416667 1.000000
vt 0.057109 1.000000
vt 0.973775 1.000000
s 0
f 8/1/1 9/2/1 16/2/1 17/1/1
f 9/2/2 10/3/2 15/3/2 16/2/2
f 10/3/3 11/4/3 14/4/3 15/3/3
f 2/5/4 3/6/4 22/6/4 23/5/4
f 11/4/5 12/7/5 13/7/5 14/4/5
f 3/6/6 4/8/6 21/8/6 22/6/6
f 1/9/7 2/5/7 23/5/7 24/9/7
f 12/7/8 1/10/8 24/10/8 13/7/8
f 4/8/9 5/11/9 20/11/9 21/8/9
f 5/11/10 6/12/10 19/12/10 20/11/10
f 44/8/11 42/13/11 37/8/11
f 6/12/12 7/14/12 18/14/12 19/12/12
f 7/14/13 8/1/13 17/1/13 18/14/13
f 13/7/14 24/10/14 25/10/14 36/7/14
f 60/7/15 58/15/15 37/7/15
f 42/6/16 38/16/16 37/6/16
f 46/11/17 44/17/17 37/11/17
f 36/7/18 25/10/18 26/5/18 27/6/18 28/8/18 29/11/18 30/12/18 31/14/18 32/1/18 33/2/18 34/3/18 35/4/18
f 2/5/19 1/9/19 40/9/19 39/5/19
f 58/4/20 56/18/20 37/4/20
f 11/4/21 10/3/21 57/3/21 59/4/21
f 56/3/22 54/19/22 37/3/22
f 54/2/23 52/20/23 37/2/23
f 52/1/24 50/21/24 37/1/24
f 50/14/25 48/22/25 37/14/25
f 48/12/26 46/23/26 37/12/26
f 8/1/27 7/14/27 51/14/27 53/1/27
f 5/11/28 4/8/28 45/8/28 47/11/28
f 12/7/29 11/4/29 59/4/29 61/7/29
f 3/6/30 2/5/30 39/24/30 43/6/30
f 9/2/31 8/1/31 53/25/31 55/2/31
f 6/12/32 5/11/32 47/11/32 49/12/32
f 1/10/33 12/7/33 61/7/33 40/10/33
f 41/10/34 60/26/34 37/10/34
f 10/3/35 9/2/35 55/2/35 57/3/35
f 7/14/36 6/12/36 49/12/36 51/14/36
f 4/8/37 3/6/37 43/6/37 45/8/37
f 39/5/38 40/9/38 41/27/38 38/5/38
f 43/6/39 39/24/39 38/16/39 42/6/39
f 45/8/40 43/6/40 42/13/40 44/8/40
f 47/11/41 45/8/41 44/17/41 46/11/41
f 49/12/42 47/11/42 46/23/42 48/12/42
f 51/14/43 49/12/43 48/22/43 50/14/43
f 53/1/44 51/14/44 50/21/44 52/1/44
f 55/2/45 53/25/45 52/20/45 54/2/45
f 57/3/46 55/2/46 54/19/46 56/3/46
f 59/4/47 57/3/47 56/18/47 58/4/47
f 61/7/48 59/4/48 58/15/48 60/7/48
f 40/10/49 61/7/49 60/26/49 41/10/49
f 38/5/50 41/27/50 37/5/50
f 18/14/51 17/1/51 32/1/51 31/14/51
f 19/12/52 18/14/52 31/14/52 30/12/52
f 20/11/53 19/12/53 30/12/53 29/11/53
f 17/1/54 16/2/54 33/2/54 32/1/54
f 14/4/55 13/7/55 36/7/55 35/4/55
f 23/5/56 22/6/56 27/6/56 26/5/56
f 22/6/57 21/8/57 28/8/57 27/6/57
f 15/3/58 14/4/58 35/4/58 34/3/58
f 16/2/59 15/3/59 34/3/59 33/2/59
f 21/8/60 20/11/60 29/11/60 28/8/60
f 24/9/61 23/5/61 26/5/61 25/9/61
