# Blender 4.1.1
# www.blender.org
o DomeFluted
v 0.000000 0.000000 -0.312500
v 0.000000 0.113567 -0.312500
v 0.080881 0.000000 -0.301852
v 0.080881 0.113567 -0.301852
v 0.156250 0.000000 -0.270633
v 0.156250 0.113567 -0.270633
v 0.220971 0.000000 -0.220971
v 0.220971 0.113567 -0.220971
v 0.270633 0.000000 -0.156250
v 0.270633 0.113567 -0.156250
v 0.301852 0.000000 -0.080881
v 0.301852 0.113567 -0.080881
v 0.312500 0.000000 0.000000
v 0.312500 0.113567 0.000000
v 0.301852 0.000000 0.080881
v 0.301852 0.113567 0.080881
v 0.270633 0.000000 0.156250
v 0.270633 0.113567 0.156250
v 0.220971 0.000000 0.220971
v 0.220971 0.113567 0.220971
v 0.156250 0.000000 0.270633
v 0.156250 0.113567 0.270633
v 0.080881 0.000000 0.301852
v 0.080881 0.113567 0.301852
v 0.000000 0.000000 0.312500
v 0.000000 0.113567 0.312500
v -0.080881 0.000000 0.301852
v -0.080881 0.113567 0.301852
v -0.156250 0.000000 0.270633
v -0.156250 0.113567 0.270633
v -0.220971 0.000000 0.220971
v -0.220971 0.113567 0.220971
v -0.270633 0.000000 0.156250
v -0.270633 0.113567 0.156250
v -0.301852 0.000000 0.080881
v -0.301852 0.113567 0.080881
v -0.312500 0.000000 0.000000
v -0.312500 0.113567 0.000000
v -0.301852 0.000000 -0.080881
v -0.301852 0.113567 -0.080881
v -0.270633 0.000000 -0.156250
v -0.270633 0.113567 -0.156250
v -0.220971 0.000000 -0.220971
v -0.220971 0.113567 -0.220971
v -0.156250 0.000000 -0.270633
v -0.156250 0.113567 -0.270633
v -0.080881 0.000000 -0.301852
v -0.080881 0.113567 -0.301852
v -0.070752 0.433994 -0.264049
v -0.136682 0.433994 -0.236740
v -0.193298 0.433994 -0.193298
v -0.236740 0.433994 -0.136682
v -0.264050 0.433994 -0.070752
v -0.273364 0.433994 0.000000
v -0.264050 0.433994 0.070752
v -0.236740 0.433994 0.136682
v -0.193298 0.433994 0.193298
v -0.136682 0.433994 0.236740
v -0.070752 0.433994 0.264050
v 0.000000 0.433994 0.273364
v 0.070752 0.433994 0.264050
v 0.136682 0.433994 0.236740
v 0.193298 0.433994 0.193298
v 0.236740 0.433994 0.136682
v 0.264050 0.433994 0.070752
v 0.273364 0.433994 0.000000
v 0.264050 0.433994 -0.070752
v 0.236740 0.433994 -0.136682
v 0.193298 0.433994 -0.193298
v 0.136682 0.433994 -0.236740
v 0.000000 0.433994 -0.273364
v 0.070752 0.433994 -0.264049
v 0.079438 0.176172 -0.296466
v 0.000000 0.176172 -0.306924
v 0.153462 0.176172 -0.265804
v 0.217028 0.176172 -0.217028
v 0.265804 0.176172 -0.153462
v 0.296466 0.176172 -0.079438
v 0.306924 0.176172 0.000000
v 0.296466 0.176172 0.079438
v 0.265804 0.176172 0.153462
v 0.217028 0.176172 0.217028
v 0.153462 0.176172 0.265804
v 0.079438 0.176172 0.296466
v 0.000000 0.176172 0.306924
v -0.079438 0.176172 0.296466
v -0.153462 0.176172 0.265804
v -0.217028 0.176172 0.217028
v -0.265804 0.176172 0.153462
v -0.296466 0.176172 0.079438
v -0.306924 0.176172 0.000000
v -0.296466 0.176172 -0.079438
v -0.265804 0.176172 -0.153462
v -0.217028 0.176172 -0.217028
v -0.153462 0.176172 -0.265804
v -0.079438 0.176172 -0.296466
v 0.079438 0.198190 -0.296466
v 0.000000 0.198190 -0.306924
v 0.153462 0.198190 -0.265804
v 0.217028 0.198190 -0.217028
v 0.265804 0.198190 -0.153462
v 0.296466 0.198190 -0.079438
v 0.306924 0.198190 0.000000
v 0.296466 0.198190 0.079438
v 0.265804 0.198190 0.153462
v 0.217028 0.198190 0.217028
v 0.153462 0.198190 0.265804
v 0.079438 0.198190 0.296466
v 0.000000 0.198190 0.306924
v -0.079438 0.198190 0.296466
v -0.153462 0.198190 0.265804
v -0.217028 0.198190 0.217028
v -0.265804 0.198190 0.153462
v -0.296466 0.198190 0.079438
v -0.306924 0.198190 0.000000
v -0.296466 0.198190 -0.079438
v -0.265804 0.198190 -0.153462
v -0.217028 0.198190 -0.217028
v -0.153462 0.198190 -0.265804
v -0.079438 0.198190 -0.296466
v 0.070752 0.224072 -0.264049
v 0.000000 0.224072 -0.273364
v 0.136682 0.224072 -0.236740
v 0.193298 0.224072 -0.193298
v 0.236740 0.224072 -0.136682
v 0.264050 0.224072 -0.070752
v 0.273364 0.224072 0.000000
v 0.264050 0.224072 0.070752
v 0.236740 0.224072 0.136682
v 0.193298 0.224072 0.193298
v 0.136682 0.224072 0.236740
v 0.070752 0.224072 0.264050
v 0.000000 0.224072 0.273364
v -0.070752 0.224072 0.264050
v -0.136682 0.224072 0.236740
v -0.193298 0.224072 0.193298
v -0.236740 0.224072 0.136682
v -0.264050 0.224072 0.070752
v -0.273364 0.224072 0.000000
v -0.264050 0.224072 -0.070752
v -0.236740 0.224072 -0.136682
v -0.193298 0.224072 -0.193298
v -0.136682 0.224072 -0.236740
v -0.070752 0.224072 -0.264049
v -0.076954 0.449985 -0.287197
v -0.148664 0.449985 -0.257494
v -0.257494 0.449985 -0.148664
v -0.287197 0.449985 -0.076954
v -0.287197 0.449985 0.076954
v -0.257494 0.449985 0.148664
v -0.148664 0.449985 0.257494
v -0.076954 0.449985 0.287197
v 0.076954 0.449985 0.287197
v 0.148664 0.449985 0.257494
v 0.257494 0.449985 0.148664
v 0.287197 0.449985 0.076954
v 0.287197 0.449985 -0.076954
v 0.257494 0.449985 -0.148664
v 0.297328 0.449985 0.000000
v 0.210243 0.449985 -0.210243
v 0.000000 0.449985 0.297328
v 0.210243 0.449985 0.210243
v -0.297328 0.449985 0.000000
v -0.210243 0.449985 0.210243
v 0.148664 0.449985 -0.257494
v 0.076954 0.449985 -0.287197
v -0.210243 0.449985 -0.210243
v 0.000000 0.449985 -0.297328
v 0.000000 0.463577 -0.297328
v -0.076954 0.463577 -0.287197
v 0.210243 0.463577 -0.210243
v 0.148664 0.463577 -0.257494
v -0.210243 0.463577 -0.210243
v -0.257494 0.463577 -0.148664
v 0.076954 0.463577 -0.287197
v 0.148664 0.463577 0.257494
v 0.210243 0.463577 0.210243
v 0.287197 0.463577 0.076954
v 0.297328 0.463577 0.000000
v 0.076954 0.463577 0.287197
v -0.287197 0.463577 -0.076954
v 0.000000 0.463577 0.297328
v -0.076954 0.463577 0.287197
v 0.287197 0.463577 -0.076954
v 0.257494 0.463577 -0.148664
v -0.257494 0.463577 0.148664
v -0.210243 0.463577 0.210243
v -0.148664 0.463577 -0.257494
v -0.148664 0.463577 0.257494
v -0.297328 0.463577 0.000000
v -0.287197 0.463577 0.076954
v 0.257494 0.463577 0.148664
v 0.000000 0.471717 -0.312538
v -0.080891 0.471717 -0.301888
v 0.220998 0.471717 -0.220998
v 0.156269 0.471717 -0.270666
v -0.220998 0.471717 -0.220998
v -0.270666 0.471717 -0.156269
v 0.080891 0.471717 -0.301888
v 0.156269 0.471717 0.270666
v 0.220998 0.471717 0.220998
v 0.301888 0.471717 0.080891
v 0.312538 0.471717 0.000000
v 0.080891 0.471717 0.301889
v -0.301888 0.471717 -0.080891
v 0.000000 0.471717 0.312538
v -0.080891 0.471717 0.301889
v 0.301888 0.471717 -0.080891
v 0.270666 0.471717 -0.156269
v -0.270666 0.471717 0.156269
v -0.220998 0.471717 0.220998
v -0.156269 0.471717 -0.270666
v -0.156269 0.471717 0.270666
v -0.312538 0.471717 0.000000
v -0.301888 0.471717 0.080891
v 0.270666 0.471717 0.156269
v 0.000000 0.493107 -0.312538
v -0.080891 0.493107 -0.301888
v 0.220998 0.493107 -0.220998
v 0.156269 0.493107 -0.270666
v -0.220998 0.493107 -0.220998
v -0.270666 0.493107 -0.156269
v 0.080891 0.493107 -0.301888
v 0.156269 0.493107 0.270666
v 0.220998 0.493107 0.220998
v 0.301888 0.493107 0.080891
v 0.312538 0.493107 0.000000
v 0.080891 0.493107 0.301889
v -0.301888 0.493107 -0.080891
v 0.000000 0.493107 0.312538
v -0.080891 0.493107 0.301889
v 0.301888 0.493107 -0.080891
v 0.270666 0.493107 -0.156269
v -0.270666 0.493107 0.156269
v -0.220998 0.493107 0.220998
v -0.156269 0.493107 -0.270666
v -0.156269 0.493107 0.270666
v -0.312538 0.493107 0.000000
v -0.301888 0.493107 0.080891
v 0.270666 0.493107 0.156269
v 0.000000 0.506361 -0.253985
v -0.065736 0.506361 -0.245331
v 0.179595 0.506361 -0.179595
v 0.126993 0.506361 -0.219958
v -0.179595 0.506361 -0.179595
v -0.219958 0.506361 -0.126992
v 0.065736 0.506361 -0.245331
v 0.126993 0.506361 0.219958
v 0.179595 0.506361 0.179595
v 0.245331 0.506361 0.065736
v 0.253985 0.506361 0.000000
v 0.065736 0.506361 0.245331
v -0.245331 0.506361 -0.065736
v 0.000000 0.506361 0.253985
v -0.065736 0.506361 0.245331
v 0.245331 0.506361 -0.065736
v 0.219958 0.506361 -0.126992
v -0.219958 0.506361 0.126993
v -0.179595 0.506361 0.179595
v -0.126993 0.506361 -0.219958
v -0.126993 0.506361 0.219958
v -0.253985 0.506361 0.000000
v -0.245331 0.506361 0.065736
v 0.219958 0.506361 0.126993
v -0.018730 0.628488 0.069902
v 0.000000 0.621931 -0.115341
v 0.000000 0.591982 -0.188204
v 0.000000 0.547161 -0.236889
v 0.069902 0.628488 -0.018730
v -0.061311 0.547161 -0.228817
v -0.048711 0.591982 -0.181791
v -0.029853 0.621931 -0.111411
v 0.018730 0.628488 0.069902
v 0.081559 0.621931 -0.081558
v 0.133080 0.591982 -0.133080
v 0.167506 0.547161 -0.167506
v -0.069902 0.628488 -0.018730
v 0.118445 0.547161 -0.205152
v 0.094102 0.591982 -0.162989
v 0.057671 0.621931 -0.099888
v -0.051172 0.628488 0.051172
v -0.081559 0.621931 -0.081558
v -0.133080 0.591982 -0.133080
v -0.167506 0.547161 -0.167506
v -0.062672 0.628488 0.036184
v -0.205152 0.547161 -0.118444
v -0.162989 0.591982 -0.094102
v -0.099888 0.621931 -0.057671
v -0.000000 0.628488 0.072368
v 0.061311 0.547161 -0.228817
v 0.048711 0.591982 -0.181791
v 0.029853 0.621931 -0.111411
v -0.051172 0.628488 -0.051172
v 0.057671 0.621931 0.099889
v 0.094102 0.591982 0.162989
v 0.118445 0.547161 0.205152
v -0.062672 0.628488 -0.036184
v 0.167506 0.547161 0.167506
v 0.133080 0.591982 0.133080
v 0.081559 0.621931 0.081559
v 0.036184 0.628488 0.062672
v 0.111411 0.621931 0.029853
v 0.181791 0.591982 0.048711
v 0.228817 0.547161 0.061312
v 0.051172 0.628488 0.051172
v 0.236889 0.547161 0.000000
v 0.188204 0.591982 0.000000
v 0.115341 0.621931 0.000000
v 0.036184 0.628488 -0.062672
v 0.029853 0.621931 0.111411
v 0.048711 0.591982 0.181791
v 0.061311 0.547161 0.228818
v 0.062672 0.628488 0.036184
v -0.228817 0.547161 -0.061311
v -0.181791 0.591982 -0.048711
v -0.111411 0.621931 -0.029852
v 0.051172 0.628488 -0.051171
v -0.000000 0.621931 0.115341
v -0.000000 0.591982 0.188204
v 0.000000 0.547161 0.236889
v -0.018730 0.628488 -0.069902
v -0.029853 0.621931 0.111411
v -0.048711 0.591982 0.181791
v -0.061311 0.547161 0.228818
v 0.069902 0.628488 0.018730
v 0.111411 0.621931 -0.029852
v 0.181791 0.591982 -0.048711
v 0.228817 0.547161 -0.061311
v 0.072368 0.628488 0.000000
v 0.205152 0.547161 -0.118444
v 0.162989 0.591982 -0.094102
v 0.099888 0.621931 -0.057671
v -0.036184 0.628488 0.062672
v -0.099888 0.621931 0.057671
v -0.162989 0.591982 0.094102
v -0.205152 0.547161 0.118445
v -0.036184 0.628488 -0.062672
v -0.167506 0.547161 0.167506
v -0.133080 0.591982 0.133080
v -0.081559 0.621931 0.081559
v 0.062672 0.628488 -0.036184
v -0.118445 0.547161 -0.205152
v -0.094102 0.591982 -0.162989
v -0.057671 0.621931 -0.099888
v 0.000000 0.628488 -0.072367
v -0.118445 0.547161 0.205152
v -0.094102 0.591982 0.162989
v -0.057671 0.621931 0.099889
v -0.069902 0.628488 0.018730
v -0.115341 0.621931 0.000000
v -0.188204 0.591982 0.000000
v -0.236889 0.547161 0.000000
v -0.072368 0.628488 0.000000
v -0.228817 0.547161 0.061312
v -0.181791 0.591982 0.048711
v -0.111411 0.621931 0.029853
v 0.018730 0.628488 -0.069902
v 0.205152 0.547161 0.118445
v 0.162989 0.591982 0.094102
v 0.099888 0.621931 0.057671
v 0.002065 0.696303 -0.007705
v 0.018730 0.632463 -0.069902
v 0.010397 0.687750 -0.038803
v 0.016497 0.664383 -0.061569
v -0.007977 0.696303 0.000000
v -0.072368 0.632463 0.000000
v -0.040172 0.687750 0.000000
v -0.063741 0.664383 0.000000
v -0.007705 0.696303 0.002065
v -0.069902 0.632463 0.018730
v -0.038803 0.687750 0.010397
v -0.061569 0.664383 0.016497
v 0.000000 0.696303 -0.007977
v 0.000000 0.632463 -0.072367
v 0.000000 0.687750 -0.040172
v 0.000000 0.664383 -0.063741
v 0.006908 0.696303 -0.003988
v 0.062672 0.632463 -0.036184
v 0.034790 0.687750 -0.020086
v 0.055201 0.664383 -0.031870
v -0.003988 0.696303 -0.006908
v -0.036184 0.632463 -0.062672
v -0.020086 0.687750 -0.034790
v -0.031870 0.664383 -0.055201
v -0.003988 0.696303 0.006908
v -0.036184 0.632463 0.062672
v -0.020086 0.687750 0.034790
v -0.031870 0.664383 0.055201
v 0.007977 0.696303 0.000000
v 0.072368 0.632463 0.000000
v 0.040172 0.687750 0.000000
v 0.063741 0.664383 0.000000
v 0.007705 0.696303 0.002065
v 0.069902 0.632463 0.018730
v 0.038803 0.687750 0.010397
v 0.061569 0.664383 0.016497
v -0.002065 0.696303 -0.007705
v -0.018730 0.632463 -0.069902
v -0.010397 0.687750 -0.038803
v -0.016497 0.664383 -0.061569
v 0.005640 0.696303 -0.005640
v 0.051172 0.632463 -0.051171
v 0.028406 0.687750 -0.028406
v 0.045072 0.664383 -0.045071
v 0.006908 0.696303 0.003989
v 0.062672 0.632463 0.036184
v 0.034790 0.687750 0.020086
v 0.055201 0.664383 0.031871
v 0.003988 0.696303 -0.006908
v 0.036184 0.632463 -0.062672
v 0.020086 0.687750 -0.034790
v 0.031870 0.664383 -0.055201
v 0.005640 0.696303 0.005641
v 0.051172 0.632463 0.051172
v 0.028406 0.687750 0.028406
v 0.045072 0.664383 0.045072
v 0.003988 0.696303 0.006908
v 0.036184 0.632463 0.062672
v 0.020086 0.687750 0.034790
v 0.031870 0.664383 0.055201
v -0.006908 0.696303 -0.003988
v -0.062672 0.632463 -0.036184
v -0.034790 0.687750 -0.020086
v -0.055201 0.664383 -0.031870
v -0.005640 0.696303 -0.005640
v -0.051172 0.632463 -0.051172
v -0.028406 0.687750 -0.028406
v -0.045072 0.664383 -0.045071
v -0.000000 0.696303 0.007977
v -0.000000 0.632463 0.072368
v -0.000000 0.687750 0.040172
v -0.000000 0.664383 0.063741
v -0.006908 0.696303 0.003989
v -0.062672 0.632463 0.036184
v -0.034790 0.687750 0.020086
v -0.055201 0.664383 0.031871
v -0.005640 0.696303 0.005641
v -0.051172 0.632463 0.051172
v -0.028406 0.687750 0.028406
v -0.045072 0.664383 0.045072
v -0.007705 0.696303 -0.002064
v -0.069902 0.632463 -0.018730
v -0.038803 0.687750 -0.010397
v -0.061569 0.664383 -0.016497
v 0.002065 0.696303 0.007705
v 0.018730 0.632463 0.069902
v 0.010397 0.687750 0.038803
v 0.016497 0.664383 0.061569
v 0.007705 0.696303 -0.002064
v 0.069902 0.632463 -0.018730
v 0.038803 0.687750 -0.010397
v 0.061569 0.664383 -0.016497
v -0.002065 0.696303 0.007705
v -0.018730 0.632463 0.069902
v -0.010397 0.687750 0.038803
v -0.016497 0.664383 0.061569
v 0.086083 0.155135 -0.321266
v 0.086431 0.134894 -0.322565
v 0.000000 0.134894 -0.333943
v 0.000000 0.155135 -0.332599
v 0.166300 0.155135 -0.288039
v 0.166972 0.134894 -0.289203
v 0.235183 0.155135 -0.235183
v 0.236134 0.134894 -0.236134
v 0.288040 0.155135 -0.166300
v 0.289204 0.134894 -0.166972
v 0.321266 0.155135 -0.086083
v 0.322565 0.134894 -0.086431
v 0.332599 0.155135 0.000000
v 0.333944 0.134894 0.000000
v 0.321266 0.155135 0.086083
v 0.322565 0.134894 0.086431
v 0.288040 0.155135 0.166300
v 0.289204 0.134894 0.166972
v 0.235183 0.155135 0.235183
v 0.236134 0.134894 0.236134
v 0.166300 0.155135 0.288040
v 0.166972 0.134894 0.289204
v 0.086083 0.155135 0.321266
v 0.086431 0.134894 0.322565
v 0.000000 0.155135 0.332599
v 0.000000 0.134894 0.333944
v -0.086083 0.155135 0.321266
v -0.086431 0.134894 0.322565
v -0.166300 0.155135 0.288040
v -0.166972 0.134894 0.289204
v -0.235183 0.155135 0.235183
v -0.236134 0.134894 0.236134
v -0.288040 0.155135 0.166300
v -0.289204 0.134894 0.166972
v -0.321266 0.155135 0.086083
v -0.322565 0.134894 0.086431
v -0.332599 0.155135 0.000000
v -0.333944 0.134894 0.000000
v -0.321266 0.155135 -0.086083
v -0.322565 0.134894 -0.086431
v -0.288040 0.155135 -0.166300
v -0.289204 0.134894 -0.166972
v -0.235183 0.155135 -0.235183
v -0.236134 0.134894 -0.236134
v -0.166300 0.155135 -0.288039
v -0.166972 0.134894 -0.289203
v -0.086083 0.155135 -0.321266
v -0.086431 0.134894 -0.322565
vn -0.0000 -0.0000 -1.0000
vn 0.2588 -0.0000 -0.9659
vn 0.5000 -0.0000 -0.8660
vn 0.7071 -0.0000 -0.7071
vn 0.8660 -0.0000 -0.5000
vn 0.9659 -0.0000 -0.2588
vn 1.0000 -0.0000 -0.0000
vn 0.9659 -0.0000 0.2588
vn 0.8660 -0.0000 0.5000
vn 0.7071 -0.0000 0.7071
vn 0.5000 -0.0000 0.8660
vn 0.2588 -0.0000 0.9659
vn -0.0000 -0.0000 1.0000
vn -0.2588 -0.0000 0.9659
vn -0.5000 -0.0000 0.8660
vn -0.7071 -0.0000 0.7071
vn -0.8660 -0.0000 0.5000
vn -0.9659 -0.0000 0.2588
vn -1.0000 -0.0000 -0.0000
vn -0.9659 -0.0000 -0.2588
vn -0.8660 -0.0000 -0.5000
vn -0.7071 -0.0000 -0.7071
vn -0.5000 -0.0000 -0.8660
vn 0.6333 0.4447 -0.6333
vn 0.4478 0.4447 -0.7757
vn 0.3169 0.7735 -0.5489
vn 0.4482 0.7735 -0.4482
vn -0.2588 -0.0000 -0.9659
vn -0.0000 0.4447 0.8957
vn 0.2318 0.4447 0.8652
vn 0.1640 0.7735 0.6122
vn -0.0000 0.7735 0.6338
vn 0.7757 0.4447 0.4478
vn 0.8652 0.4447 0.2318
vn 0.6122 0.7735 0.1640
vn 0.5489 0.7735 0.3169
vn -0.2318 0.4447 0.8652
vn -0.1640 0.7735 0.6122
vn -0.8957 0.4447 -0.0000
vn -0.8652 0.4447 0.2318
vn -0.6122 0.7735 0.1640
vn -0.6338 0.7735 -0.0000
vn -0.2318 0.4447 -0.8652
vn -0.4478 0.4447 -0.7757
vn -0.3169 0.7735 -0.5489
vn -0.1640 0.7735 -0.6122
vn 0.8957 0.4447 -0.0000
vn 0.8652 0.4447 -0.2318
vn 0.6122 0.7735 -0.1640
vn 0.6338 0.7735 -0.0000
vn 0.4478 0.4447 0.7757
vn 0.6333 0.4447 0.6333
vn 0.4482 0.7735 0.4482
vn 0.3169 0.7735 0.5489
vn 0.7757 0.4447 -0.4478
vn 0.5489 0.7735 -0.3169
vn -0.7757 0.4447 0.4478
vn -0.6333 0.4447 0.6333
vn -0.4482 0.7735 0.4482
vn -0.5489 0.7735 0.3169
vn -0.6333 0.4447 -0.6333
vn -0.7757 0.4447 -0.4478
vn -0.5489 0.7735 -0.3169
vn -0.4482 0.7735 -0.4482
vn 0.2775 -0.8318 -0.4807
vn 0.1437 -0.8318 -0.5361
vn 0.2303 -0.4561 -0.8596
vn 0.4450 -0.4561 -0.7707
vn 0.8137 -0.3422 0.4698
vn 0.6644 -0.3422 0.6644
vn 0.4986 -0.7090 0.4986
vn 0.6107 -0.7090 0.3526
vn -0.4478 0.4447 0.7757
vn -0.3169 0.7735 0.5489
vn -0.8652 0.4447 -0.2318
vn -0.6122 0.7735 -0.1640
vn 0.2432 -0.3422 -0.9076
vn 0.4698 -0.3422 -0.8137
vn 0.3526 -0.7090 -0.6107
vn 0.1825 -0.7090 -0.6811
vn -0.2432 -0.3422 -0.9076
vn -0.0000 -0.3422 -0.9396
vn -0.0000 -0.7090 -0.7052
vn -0.1825 -0.7090 -0.6811
vn -0.8137 -0.3422 0.4698
vn -0.9076 -0.3422 0.2432
vn -0.6811 -0.7090 0.1825
vn -0.6107 -0.7090 0.3526
vn 0.4698 -0.3422 0.8137
vn 0.3526 -0.7090 0.6107
vn 0.6644 -0.3422 -0.6644
vn 0.4986 -0.7090 -0.4986
vn -0.9396 -0.3422 -0.0000
vn -0.7052 -0.7090 -0.0000
vn 0.2432 -0.3422 0.9076
vn 0.1825 -0.7090 0.6811
vn 0.8137 -0.3422 -0.4698
vn 0.6107 -0.7090 -0.3526
vn -0.9076 -0.3422 -0.2432
vn -0.6811 -0.7090 -0.1825
vn -0.0000 -0.3422 0.9396
vn -0.0000 -0.7090 0.7052
vn 0.9076 -0.3422 -0.2432
vn 0.6811 -0.7090 -0.1825
vn -0.8137 -0.3422 -0.4698
vn -0.6107 -0.7090 -0.3526
vn -0.2432 -0.3422 0.9076
vn -0.1825 -0.7090 0.6811
vn 0.9396 -0.3422 -0.0000
vn 0.7052 -0.7090 -0.0000
vn -0.6644 -0.3422 -0.6644
vn -0.4986 -0.7090 -0.4986
vn -0.4698 -0.3422 0.8137
vn -0.3526 -0.7090 0.6107
vn 0.9076 -0.3422 0.2432
vn 0.6811 -0.7090 0.1825
vn -0.4698 -0.3422 -0.8137
vn -0.3526 -0.7090 -0.6107
vn -0.6644 -0.3422 0.6644
vn -0.4986 -0.7090 0.4986
vn -0.0000 0.4447 -0.8957
vn -0.0000 0.7735 -0.6338
vn 0.4318 0.7919 0.4318
vn 0.5289 0.7919 0.3053
vn -0.0000 0.7919 -0.6107
vn -0.1581 0.7919 -0.5899
vn 0.3053 0.7919 -0.5289
vn 0.1581 0.7919 -0.5899
vn -0.5899 0.7919 0.1581
vn -0.5289 0.7919 0.3053
vn 0.3053 0.7919 0.5289
vn 0.4318 0.7919 -0.4318
vn -0.6107 0.7919 -0.0000
vn 0.1581 0.7919 0.5899
vn 0.5289 0.7919 -0.3053
vn -0.5899 0.7919 -0.1581
vn -0.0000 0.7919 0.6107
vn 0.5899 0.7919 -0.1581
vn -0.5289 0.7919 -0.3053
vn -0.1581 0.7919 0.5899
vn 0.6107 0.7919 -0.0000
vn -0.4318 0.7919 -0.4318
vn -0.3053 0.7919 0.5289
vn 0.5899 0.7919 0.1581
vn -0.3053 0.7919 -0.5289
vn -0.4318 0.7919 0.4318
vn 0.2318 0.4447 -0.8652
vn 0.1640 0.7735 -0.6122
vn -0.8596 -0.4561 -0.2303
vn -0.8899 -0.4561 -0.0000
vn 0.5361 -0.8318 -0.1437
vn 0.4807 -0.8318 -0.2775
vn 0.7707 -0.4561 -0.4450
vn 0.8596 -0.4561 -0.2303
vn -0.0000 -0.8318 -0.5551
vn -0.0000 -0.4561 -0.8899
vn -0.3925 -0.8318 0.3925
vn -0.2775 -0.8318 0.4807
vn -0.4450 -0.4561 0.7707
vn -0.6293 -0.4561 0.6293
vn -0.1437 -0.8318 -0.5361
vn -0.2775 -0.8318 -0.4807
vn -0.4450 -0.4561 -0.7707
vn -0.2303 -0.4561 -0.8596
vn 0.5361 -0.8318 0.1437
vn 0.5551 -0.8318 -0.0000
vn 0.8899 -0.4561 -0.0000
vn 0.8596 -0.4561 0.2303
vn -0.4807 -0.8318 -0.2775
vn -0.5361 -0.8318 -0.1437
vn -0.7707 -0.4561 -0.4450
vn -0.1437 -0.8318 0.5361
vn -0.0000 -0.8318 0.5551
vn -0.0000 -0.4561 0.8899
vn -0.2303 -0.4561 0.8596
vn -0.3925 -0.8318 -0.3925
vn -0.6293 -0.4561 -0.6293
vn 0.3925 -0.8318 -0.3925
vn 0.6293 -0.4561 -0.6293
vn -0.5361 -0.8318 0.1437
vn -0.4807 -0.8318 0.2775
vn -0.7707 -0.4561 0.4450
vn -0.8596 -0.4561 0.2303
vn 0.2775 -0.8318 0.4807
vn 0.3925 -0.8318 0.3925
vn 0.6293 -0.4561 0.6293
vn 0.4450 -0.4561 0.7707
vn 0.1437 -0.8318 0.5361
vn 0.2303 -0.4561 0.8596
vn -0.5551 -0.8318 -0.0000
vn 0.4807 -0.8318 0.2775
vn 0.7707 -0.4561 0.4450
vn 0.4719 -0.8817 -0.0000
vn 0.4558 -0.8817 -0.1221
vn 0.8388 -0.4959 -0.2248
vn 0.8684 -0.4959 -0.0000
vn 0.4342 -0.4959 0.7520
vn 0.6140 -0.4959 0.6140
vn 0.5657 0.6000 0.5657
vn 0.4000 0.6000 0.6928
vn -0.0000 -0.8817 0.4719
vn 0.1221 -0.8817 0.4558
vn 0.2248 -0.4959 0.8388
vn -0.0000 -0.4959 0.8684
vn -0.4558 -0.8817 0.1221
vn -0.4087 -0.8817 0.2359
vn -0.7520 -0.4959 0.4342
vn -0.8388 -0.4959 0.2248
vn 0.3337 -0.8817 -0.3337
vn 0.2359 -0.8817 -0.4087
vn 0.4342 -0.4959 -0.7520
vn 0.6140 -0.4959 -0.6140
vn -0.2359 -0.8817 0.4087
vn -0.1221 -0.8817 0.4558
vn -0.2248 -0.4959 0.8388
vn -0.4342 -0.4959 0.7520
vn -0.3337 -0.8817 -0.3337
vn -0.4087 -0.8817 -0.2359
vn -0.7520 -0.4959 -0.4342
vn -0.6140 -0.4959 -0.6140
vn -0.4719 -0.8817 -0.0000
vn -0.8684 -0.4959 -0.0000
vn 0.4087 -0.8817 -0.2359
vn 0.7520 -0.4959 -0.4342
vn 0.1221 -0.8817 -0.4558
vn 0.2248 -0.4959 -0.8388
vn 0.3337 -0.8817 0.3337
vn 0.4087 -0.8817 0.2359
vn 0.7520 -0.4959 0.4342
vn -0.0000 -0.8817 -0.4719
vn -0.0000 -0.4959 -0.8684
vn 0.2359 -0.8817 0.4087
vn -0.2359 -0.8817 -0.4087
vn -0.4342 -0.4959 -0.7520
vn -0.3337 -0.8817 0.3337
vn -0.6140 -0.4959 0.6140
vn 0.4558 -0.8817 0.1221
vn 0.8388 -0.4959 0.2248
vn -0.4558 -0.8817 -0.1221
vn -0.8388 -0.4959 -0.2248
vn -0.1221 -0.8817 -0.4558
vn -0.2248 -0.4959 -0.8388
vn -0.0000 0.6000 0.8000
vn 0.2070 0.6000 0.7727
vn 0.0571 0.9753 0.2132
vn -0.0000 0.9753 0.2208
vn -0.5657 0.6000 -0.5657
vn -0.4000 0.6000 -0.6928
vn -0.5657 0.6000 0.5657
vn -0.6928 0.6000 0.4000
vn 0.8000 0.6000 -0.0000
vn 0.7727 0.6000 0.2070
vn -0.8000 0.6000 -0.0000
vn -0.7727 0.6000 -0.2070
vn -0.2070 0.6000 -0.7727
vn 0.5657 0.6000 -0.5657
vn 0.6928 0.6000 -0.4000
vn -0.4000 0.6000 0.6928
vn -0.6928 0.6000 -0.4000
vn 0.6928 0.6000 0.4000
vn -0.0000 0.6000 -0.8000
vn 0.7727 0.6000 -0.2070
vn -0.7727 0.6000 0.2070
vn 0.4000 0.6000 -0.6928
vn -0.2070 0.6000 0.7727
vn 0.2070 0.6000 -0.7727
vn -0.1383 0.9610 -0.2395
vn -0.1956 0.9610 -0.1956
vn -0.1067 0.9886 -0.1067
vn -0.0754 0.9886 -0.1306
vn -0.1912 0.9753 0.1104
vn -0.2132 0.9753 0.0571
vn 0.1104 0.9753 -0.1912
vn 0.1561 0.9753 -0.1561
vn -0.0571 0.9753 0.2132
vn -0.1104 0.9753 0.1912
vn -0.1912 0.9753 -0.1104
vn -0.1561 0.9753 -0.1561
vn -0.2208 0.9753 -0.0000
vn 0.1912 0.9753 -0.1104
vn 0.2132 0.9753 -0.0571
vn 0.0571 0.9753 -0.2132
vn 0.1912 0.9753 0.1104
vn 0.1561 0.9753 0.1561
vn -0.0000 0.9753 -0.2208
vn 0.1104 0.9753 0.1912
vn -0.1104 0.9753 -0.1912
vn -0.1561 0.9753 0.1561
vn 0.2208 0.9753 -0.0000
vn 0.2132 0.9753 0.0571
vn -0.2132 0.9753 -0.0571
vn -0.0571 0.9753 -0.2132
vn -0.0716 0.9610 0.2671
vn -0.0000 0.9610 0.2766
vn -0.0000 0.9886 0.1508
vn -0.0390 0.9886 0.1457
vn 0.1383 0.9610 0.2395
vn 0.1956 0.9610 0.1956
vn 0.1067 0.9886 0.1067
vn 0.0754 0.9886 0.1306
vn -0.2395 0.9610 -0.1383
vn -0.1306 0.9886 -0.0754
vn -0.1383 0.9610 0.2395
vn -0.0754 0.9886 0.1306
vn 0.2395 0.9610 -0.1383
vn 0.1956 0.9610 -0.1956
vn 0.1067 0.9886 -0.1067
vn 0.1306 0.9886 -0.0754
vn 0.0716 0.9610 -0.2671
vn -0.0000 0.9610 -0.2766
vn -0.0000 0.9886 -0.1508
vn 0.0390 0.9886 -0.1457
vn -0.2766 0.9610 -0.0000
vn -0.2671 0.9610 0.0716
vn -0.1457 0.9886 0.0390
vn -0.1508 0.9886 -0.0000
vn 0.2671 0.9610 -0.0716
vn 0.1457 0.9886 -0.0390
vn 0.1383 0.9610 -0.2395
vn 0.0754 0.9886 -0.1306
vn 0.2395 0.9610 0.1383
vn 0.1306 0.9886 0.0754
vn -0.1956 0.9610 0.1956
vn -0.1067 0.9886 0.1067
vn 0.2566 0.1302 -0.9577
vn 0.4957 0.1302 -0.8587
vn -0.2671 0.9610 -0.0716
vn -0.1457 0.9886 -0.0390
vn -0.0716 0.9610 -0.2671
vn -0.0390 0.9886 -0.1457
vn 0.2671 0.9610 0.0716
vn 0.1457 0.9886 0.0390
vn -0.2395 0.9610 0.1383
vn -0.1306 0.9886 0.0754
vn 0.0716 0.9610 0.2671
vn 0.0390 0.9886 0.1457
vn 0.2766 0.9610 -0.0000
vn 0.1508 0.9886 -0.0000
vn -0.0000 0.3865 -0.9223
vn -0.2387 0.3865 -0.8909
vn -0.2134 0.5661 -0.7962
vn -0.0000 0.5661 -0.8243
vn -0.1417 0.8369 -0.5288
vn -0.0000 0.8369 -0.5474
vn -0.7011 0.1302 -0.7011
vn -0.4957 0.1302 -0.8587
vn 0.6522 0.3865 -0.6522
vn 0.4612 0.3865 -0.7987
vn 0.4122 0.5661 -0.7139
vn 0.5829 0.5661 -0.5829
vn 0.2737 0.8369 -0.4741
vn 0.3871 0.8369 -0.3871
vn -0.0000 0.1302 0.9915
vn -0.2566 0.1302 0.9577
vn -0.6522 0.3865 -0.6522
vn -0.7987 0.3865 -0.4612
vn -0.7139 0.5661 -0.4122
vn -0.5829 0.5661 -0.5829
vn -0.4741 0.8369 -0.2737
vn -0.3871 0.8369 -0.3871
vn 0.9577 0.1302 -0.2566
vn 0.9915 0.1302 -0.0000
vn 0.2387 0.3865 -0.8909
vn 0.2134 0.5661 -0.7962
vn 0.1417 0.8369 -0.5288
vn 0.9577 0.1302 0.2566
vn 0.8587 0.1302 0.4957
vn 0.4612 0.3865 0.7987
vn 0.6522 0.3865 0.6522
vn 0.5829 0.5661 0.5829
vn 0.4122 0.5661 0.7139
vn 0.3871 0.8369 0.3871
vn 0.2737 0.8369 0.4741
vn -0.8587 0.1302 -0.4957
vn 0.8909 0.3865 0.2387
vn 0.9223 0.3865 -0.0000
vn 0.8243 0.5661 -0.0000
vn 0.7962 0.5661 0.2134
vn 0.5474 0.8369 -0.0000
vn 0.5288 0.8369 0.1417
vn 0.7011 0.1302 -0.7011
vn 0.8587 0.1302 -0.4957
vn 0.2387 0.3865 0.8909
vn 0.2134 0.5661 0.7962
vn 0.1417 0.8369 0.5288
vn -0.9577 0.1302 -0.2566
vn -0.8909 0.3865 -0.2387
vn -0.7962 0.5661 -0.2134
vn -0.5288 0.8369 -0.1417
vn 0.4957 0.1302 0.8587
vn 0.2566 0.1302 0.9577
vn -0.0000 0.3865 0.9223
vn -0.0000 0.5661 0.8243
vn -0.0000 0.8369 0.5474
vn 0.7011 0.1302 0.7011
vn -0.2387 0.3865 0.8909
vn -0.2134 0.5661 0.7962
vn -0.1417 0.8369 0.5288
vn -0.9915 0.1302 -0.0000
vn 0.8909 0.3865 -0.2387
vn 0.7987 0.3865 -0.4612
vn 0.7139 0.5661 -0.4122
vn 0.7962 0.5661 -0.2134
vn 0.4741 0.8369 -0.2737
vn 0.5288 0.8369 -0.1417
vn -0.8587 0.1302 0.4957
vn -0.9577 0.1302 0.2566
vn -0.4957 0.1302 0.8587
vn -0.7987 0.3865 0.4612
vn -0.6522 0.3865 0.6522
vn -0.5829 0.5661 0.5829
vn -0.7139 0.5661 0.4122
vn -0.3871 0.8369 0.3871
vn -0.4741 0.8369 0.2737
vn -0.4612 0.3865 -0.7987
vn -0.4122 0.5661 -0.7139
vn -0.2737 0.8369 -0.4741
vn -0.4612 0.3865 0.7987
vn -0.4122 0.5661 0.7139
vn -0.2737 0.8369 0.4741
vn -0.7011 0.1302 0.7011
vn 0.1213 0.9901 -0.0700
vn 0.0990 0.9901 -0.0990
vn 0.0700 0.9901 -0.1213
vn 0.0362 0.9901 -0.1353
vn -0.0000 0.9901 -0.1400
vn -0.0362 0.9901 -0.1353
vn -0.0700 0.9901 -0.1213
vn -0.0990 0.9901 -0.0990
vn -0.1213 0.9901 -0.0700
vn -0.1353 0.9901 -0.0362
vn -0.1400 0.9901 -0.0000
vn -0.1353 0.9901 0.0362
vn -0.1213 0.9901 0.0700
vn -0.0990 0.9901 0.0990
vn -0.0700 0.9901 0.1213
vn -0.0362 0.9901 0.1353
vn -0.0000 0.9901 0.1400
vn 0.0362 0.9901 0.1353
vn 0.0700 0.9901 0.1213
vn 0.0990 0.9901 0.0990
vn 0.1213 0.9901 0.0700
vn 0.1353 0.9901 0.0362
vn 0.1400 0.9901 -0.0000
vn 0.1353 0.9901 -0.0362
vn -0.9223 0.3865 -0.0000
vn -0.8909 0.3865 0.2387
vn -0.7962 0.5661 0.2134
vn -0.8243 0.5661 -0.0000
vn -0.5288 0.8369 0.1417
vn -0.5474 0.8369 -0.0000
vn 0.7987 0.3865 0.4612
vn 0.7139 0.5661 0.4122
vn 0.4741 0.8369 0.2737
vn -0.2566 0.1302 -0.9577
vn -0.0000 0.1302 -0.9915
vn 0.4955 0.8584 -0.1328
vn 0.4443 0.8584 -0.2565
vn 0.8400 0.4936 -0.2251
vn 0.7532 0.4936 -0.4348
vn 0.4443 0.8584 0.2565
vn 0.4955 0.8584 0.1328
vn 0.7532 0.4936 0.4348
vn 0.8400 0.4936 0.2251
vn -0.3628 0.8584 -0.3628
vn -0.4443 0.8584 -0.2565
vn -0.6150 0.4936 -0.6150
vn -0.7532 0.4936 -0.4348
vn -0.0000 0.8584 0.5130
vn 0.1328 0.8584 0.4955
vn -0.0000 0.4936 0.8697
vn 0.2251 0.4936 0.8400
vn 0.3628 0.8584 -0.3628
vn 0.2565 0.8584 -0.4443
vn 0.6150 0.4936 -0.6150
vn 0.4348 0.4936 -0.7532
vn -0.0000 0.8584 -0.5130
vn -0.1328 0.8584 -0.4955
vn -0.0000 0.4936 -0.8697
vn -0.2251 0.4936 -0.8400
vn -0.4443 0.8584 0.2565
vn -0.3628 0.8584 0.3628
vn -0.7532 0.4936 0.4348
vn -0.6150 0.4936 0.6150
vn 0.1328 0.8584 -0.4955
vn 0.2251 0.4936 -0.8400
vn 0.5130 0.8584 -0.0000
vn 0.8697 0.4936 -0.0000
vn 0.2565 0.8584 0.4443
vn 0.3628 0.8584 0.3628
vn 0.4348 0.4936 0.7532
vn 0.6150 0.4936 0.6150
vn -0.2565 0.8584 0.4443
vn -0.1328 0.8584 0.4955
vn -0.4348 0.4936 0.7532
vn -0.2251 0.4936 0.8400
vn -0.4955 0.8584 0.1328
vn -0.8400 0.4936 0.2251
vn -0.5130 0.8584 -0.0000
vn -0.8697 0.4936 -0.0000
vn -0.4955 0.8584 -0.1328
vn -0.8400 0.4936 -0.2251
vn -0.2565 0.8584 -0.4443
vn -0.4348 0.4936 -0.7532
vt 0.167964 0.235860
vt 0.139812 0.237169
vt 0.138698 0.217560
vt 0.166617 0.215429
vt 0.137441 0.198230
vt 0.164804 0.195350
vt 0.135631 0.179151
vt 0.162431 0.175452
vt 0.132890 0.160431
vt 0.159325 0.155865
vt 0.129533 0.142134
vt 0.155624 0.136760
vt 0.126099 0.124048
vt 0.151500 0.117996
vt 0.121729 0.106319
vt 0.146776 0.099478
vt 0.116930 0.088883
vt 0.141512 0.081341
vt 0.111603 0.071770
vt 0.135767 0.063571
vt 0.105718 0.054888
vt 0.129608 0.046138
vt 0.099266 0.038106
vt 0.123178 0.028981
vt 0.092822 0.020951
vt 0.116741 0.011949
vt 0.131121 0.492859
vt 0.100678 0.483942
vt 0.107561 0.462402
vt 0.137527 0.470991
vt 0.113996 0.441416
vt 0.143614 0.449408
vt 0.119682 0.420741
vt 0.149196 0.427873
vt 0.124616 0.400161
vt 0.154132 0.406325
vt 0.128900 0.379544
vt 0.158368 0.384734
vt 0.132337 0.358963
vt 0.161849 0.363161
vt 0.135232 0.338438
vt 0.164634 0.341640
vt 0.137471 0.317895
vt 0.166698 0.320128
vt 0.138925 0.297442
vt 0.167984 0.298741
vt 0.139603 0.277227
vt 0.168569 0.277622
vt 0.124180 0.180490
vt 0.126080 0.199216
vt 0.118667 0.199799
vt 0.117079 0.181268
vt 0.140217 0.257134
vt 0.168629 0.256685
vt 0.081866 0.024692
vt 0.089360 0.041989
vt 0.082780 0.044751
vt 0.075169 0.028517
vt 0.106695 0.091850
vt 0.111287 0.108952
vt 0.104517 0.110612
vt 0.099997 0.093707
vt 0.094961 0.458204
vt 0.086877 0.479942
vt 0.078800 0.475778
vt 0.086992 0.455301
vt 0.120122 0.357042
vt 0.116745 0.377232
vt 0.108588 0.375650
vt 0.112377 0.355790
vt 0.128109 0.257109
vt 0.127861 0.276845
vt 0.120044 0.276598
vt 0.120593 0.257045
vt 0.115265 0.126414
vt 0.118943 0.144087
vt 0.111902 0.145371
vt 0.108537 0.127844
vt 0.095757 0.058492
vt 0.101532 0.075051
vt 0.094939 0.077161
vt 0.089268 0.060883
vt 0.121923 0.162069
vt 0.114557 0.163173
vt 0.112432 0.397371
vt 0.107485 0.417520
vt 0.099534 0.415328
vt 0.104483 0.395515
vt 0.126894 0.296705
vt 0.125369 0.316775
vt 0.117209 0.316001
vt 0.118974 0.296230
vt 0.877492 0.104515
vt 0.877428 0.087632
vt 0.884389 0.086697
vt 0.884381 0.105396
vt 0.110754 0.090648
vt 0.105535 0.073734
vt 0.101703 0.437735
vt 0.093753 0.435188
vt 0.123077 0.336907
vt 0.115130 0.335868
vt 0.131975 0.217953
vt 0.130591 0.198815
vt 0.109679 0.335193
vt 0.111803 0.315482
vt 0.132831 0.257101
vt 0.132773 0.237370
vt 0.117270 0.398473
vt 0.121577 0.378119
vt 0.099722 0.057060
vt 0.128644 0.179975
vt 0.124984 0.357776
vt 0.093336 0.040377
vt 0.126287 0.161450
vt 0.127908 0.337488
vt 0.086138 0.022879
vt 0.123241 0.143299
vt 0.130180 0.317193
vt 0.092254 0.481936
vt 0.099909 0.459909
vt 0.119494 0.125488
vt 0.131692 0.296996
vt 0.106591 0.439186
vt 0.115430 0.107912
vt 0.132628 0.277001
vt 0.112337 0.418792
vt 0.128116 0.237489
vt 0.120217 0.237685
vt 0.090444 0.078633
vt 0.095420 0.095005
vt 0.086125 0.097516
vt 0.081614 0.081482
vt 0.072953 0.473398
vt 0.081422 0.453212
vt 0.107076 0.146207
vt 0.103747 0.128858
vt 0.113573 0.295854
vt 0.088309 0.433450
vt 0.099867 0.111777
vt 0.114678 0.276386
vt 0.094097 0.413852
vt 0.115251 0.257004
vt 0.119784 0.218601
vt 0.114956 0.237795
vt 0.114592 0.218825
vt 0.099052 0.394279
vt 0.113551 0.200157
vt 0.103175 0.374593
vt 0.084858 0.062559
vt 0.112045 0.181813
vt 0.106901 0.354899
vt 0.078451 0.046657
vt 0.109655 0.163883
vt 0.070757 0.030580
vt 0.442974 0.011949
vt 0.442974 0.029219
vt 0.392173 0.029219
vt 0.392173 0.011949
vt 0.104138 0.256844
vt 0.104490 0.237923
vt 0.103751 0.219249
vt 0.103144 0.200759
vt 0.088112 0.391766
vt 0.092185 0.372391
vt 0.076024 0.065961
vt 0.101903 0.182792
vt 0.095846 0.353052
vt 0.069627 0.050612
vt 0.099955 0.165239
vt 0.098641 0.333760
vt 0.062420 0.035750
vt 0.097060 0.147904
vt 0.100808 0.314349
vt 0.062420 0.467534
vt 0.070407 0.448874
vt 0.094267 0.130815
vt 0.102615 0.295023
vt 0.077428 0.429800
vt 0.090158 0.114160
vt 0.103759 0.275936
vt 0.083452 0.410883
vt 0.127370 0.218194
vt 0.442975 0.132837
vt 0.442975 0.150107
vt 0.392173 0.150107
vt 0.392173 0.132837
vt 0.442975 0.288265
vt 0.442975 0.305534
vt 0.392173 0.305534
vt 0.392173 0.288265
vt 0.442975 0.409153
vt 0.442975 0.426422
vt 0.392173 0.426422
vt 0.392173 0.409153
vt 0.442975 0.115567
vt 0.392173 0.115567
vt 0.442975 0.270995
vt 0.392173 0.270995
vt 0.442975 0.391883
vt 0.392173 0.391883
vt 0.442974 0.098298
vt 0.392173 0.098298
vt 0.442975 0.253725
vt 0.392173 0.253725
vt 0.442975 0.374613
vt 0.392173 0.374613
vt 0.442974 0.081028
vt 0.392173 0.081028
vt 0.442975 0.236455
vt 0.392173 0.236455
vt 0.442975 0.201916
vt 0.442975 0.219186
vt 0.392173 0.219186
vt 0.392173 0.201916
vt 0.442975 0.357343
vt 0.392173 0.357343
vt 0.442974 0.063758
vt 0.392173 0.063758
vt 0.442975 0.184646
vt 0.392173 0.184646
vt 0.442975 0.340074
vt 0.392173 0.340074
vt 0.442974 0.046488
vt 0.392173 0.046488
vt 0.442975 0.167376
vt 0.392173 0.167376
vt 0.442975 0.322804
vt 0.392173 0.322804
vt 0.803884 0.025336
vt 0.785866 0.030306
vt 0.784550 0.027210
vt 0.803422 0.021991
vt 0.853103 0.147420
vt 0.864863 0.135466
vt 0.870432 0.139621
vt 0.857418 0.152868
vt 0.872990 0.071309
vt 0.879459 0.068653
vt 0.754095 0.071635
vt 0.749889 0.087992
vt 0.742881 0.087088
vt 0.747652 0.069069
vt 0.864469 0.056717
vt 0.852447 0.044834
vt 0.856632 0.039333
vt 0.870015 0.052475
vt 0.822316 0.160422
vt 0.838574 0.155912
vt 0.841336 0.162281
vt 0.823335 0.167310
vt 0.821685 0.032157
vt 0.804870 0.032223
vt 0.822520 0.025273
vt 0.749819 0.104977
vt 0.754133 0.121276
vt 0.747719 0.123926
vt 0.742889 0.105819
vt 0.837888 0.036441
vt 0.840479 0.029999
vt 0.873197 0.120818
vt 0.879681 0.123465
vt 0.774094 0.045167
vt 0.762356 0.057076
vt 0.756873 0.052933
vt 0.769798 0.039671
vt 0.774511 0.147844
vt 0.789206 0.156265
vt 0.786627 0.162741
vt 0.770301 0.153447
vt 0.762540 0.135899
vt 0.757024 0.140197
vt 0.788604 0.036680
vt 0.805517 0.160567
vt 0.804712 0.167497
vt 0.842659 0.165374
vt 0.859495 0.155518
vt 0.862101 0.158849
vt 0.844422 0.169504
vt 0.822943 0.021938
vt 0.872689 0.050388
vt 0.882581 0.067335
vt 0.739533 0.106265
vt 0.739530 0.086663
vt 0.754337 0.142261
vt 0.744586 0.125221
vt 0.767723 0.037030
vt 0.744538 0.067799
vt 0.887737 0.105820
vt 0.882801 0.124730
vt 0.754192 0.050915
vt 0.804305 0.170852
vt 0.785360 0.165875
vt 0.841751 0.026881
vt 0.873113 0.141647
vt 0.858668 0.036639
vt 0.887737 0.086240
vt 0.768244 0.156152
vt 0.823811 0.170651
vt 0.765566 0.159651
vt 0.783667 0.170061
vt 0.781536 0.175443
vt 0.762066 0.164274
vt 0.750847 0.144924
vt 0.740527 0.126884
vt 0.750739 0.048296
vt 0.765120 0.033708
vt 0.892076 0.106383
vt 0.886833 0.126383
vt 0.735191 0.106828
vt 0.735199 0.086095
vt 0.823504 0.017626
vt 0.843352 0.022963
vt 0.782795 0.023077
vt 0.876571 0.144276
vt 0.892073 0.085661
vt 0.803789 0.175069
vt 0.886626 0.065644
vt 0.861382 0.033046
vt 0.740515 0.066142
vt 0.824412 0.174978
vt 0.802840 0.017653
vt 0.876163 0.047698
vt 0.346488 0.752742
vt 0.357461 0.772352
vt 0.342138 0.778465
vt 0.333242 0.762635
vt 0.845483 0.017643
vt 0.864823 0.028421
vt 0.735214 0.063990
vt 0.746181 0.044878
vt 0.846717 0.174780
vt 0.825228 0.180665
vt 0.780507 0.017793
vt 0.802046 0.011949
vt 0.880710 0.044134
vt 0.746271 0.148456
vt 0.892151 0.128530
vt 0.881135 0.147713
vt 0.729498 0.085375
vt 0.824218 0.011949
vt 0.803131 0.180787
vt 0.891936 0.063388
vt 0.865661 0.163335
vt 0.735202 0.129103
vt 0.761558 0.029234
vt 0.897783 0.107090
vt 0.729483 0.107601
vt 0.897778 0.084868
vt 0.252903 0.808296
vt 0.252924 0.801741
vt 0.262310 0.802969
vt 0.262336 0.807071
vt 0.244770 0.725551
vt 0.266405 0.719598
vt 0.268535 0.735871
vt 0.251044 0.740828
vt 0.266862 0.890459
vt 0.244987 0.884702
vt 0.251341 0.869515
vt 0.269006 0.873985
vt 0.310750 0.725238
vt 0.330541 0.736481
vt 0.320417 0.749552
vt 0.304415 0.740531
vt 0.192526 0.794074
vt 0.198191 0.772317
vt 0.213360 0.778603
vt 0.208909 0.796270
vt 0.225254 0.736807
vt 0.235234 0.749830
vt 0.311149 0.884394
vt 0.289447 0.890459
vt 0.287246 0.874219
vt 0.304782 0.869244
vt 0.225489 0.873239
vt 0.235606 0.860292
vt 0.362974 0.816415
vt 0.357178 0.837914
vt 0.342195 0.831618
vt 0.346721 0.814106
vt 0.209859 0.857358
vt 0.222914 0.847448
vt 0.363181 0.793988
vt 0.346957 0.795974
vt 0.192560 0.816628
vt 0.208799 0.814467
vt 0.288960 0.719593
vt 0.286751 0.736002
vt 0.345973 0.857117
vt 0.330411 0.872941
vt 0.320336 0.860009
vt 0.333028 0.847218
vt 0.209475 0.752784
vt 0.222557 0.762883
vt 0.198627 0.838234
vt 0.213729 0.831947
vt 0.293246 0.785033
vt 0.297899 0.789710
vt 0.290385 0.795473
vt 0.287457 0.792580
vt 0.302868 0.801783
vt 0.302872 0.808357
vt 0.293457 0.807155
vt 0.293501 0.803033
vt 0.254644 0.795414
vt 0.263382 0.799003
vt 0.287524 0.781762
vt 0.283904 0.790520
vt 0.281158 0.829998
vt 0.274609 0.830023
vt 0.275836 0.820616
vt 0.279928 0.820589
vt 0.262560 0.825044
vt 0.257908 0.820384
vt 0.265422 0.814605
vt 0.268339 0.817490
vt 0.262556 0.785078
vt 0.268234 0.781755
vt 0.271889 0.790546
vt 0.268343 0.792585
vt 0.287512 0.828327
vt 0.283878 0.819552
vt 0.268278 0.828303
vt 0.271878 0.819546
vt 0.301131 0.814692
vt 0.292354 0.811097
vt 0.281178 0.780044
vt 0.279940 0.789479
vt 0.268847 0.816828
vt 0.272201 0.818775
vt 0.257905 0.789705
vt 0.265476 0.795483
vt 0.254585 0.814674
vt 0.263375 0.811039
vt 0.297857 0.820400
vt 0.290316 0.814633
vt 0.274591 0.780068
vt 0.275839 0.789468
vt 0.301204 0.795424
vt 0.292406 0.799070
vt 0.293196 0.825019
vt 0.287418 0.817509
vt 0.224304 0.827487
vt 0.231783 0.840599
vt 0.238537 0.821393
vt 0.244081 0.831086
vt 0.263142 0.803078
vt 0.263169 0.806962
vt 0.255837 0.858630
vt 0.270477 0.862726
vt 0.261714 0.844280
vt 0.272364 0.847221
vt 0.289715 0.795983
vt 0.286947 0.793245
vt 0.224228 0.783038
vt 0.220176 0.797701
vt 0.238616 0.788869
vt 0.235694 0.799556
vt 0.283564 0.818783
vt 0.286911 0.816844
vt 0.242598 0.851161
vt 0.252044 0.838871
vt 0.289659 0.814124
vt 0.291585 0.810771
vt 0.335530 0.812622
vt 0.335366 0.797470
vt 0.320142 0.810607
vt 0.320017 0.799510
vt 0.264150 0.799330
vt 0.313326 0.851006
vt 0.324077 0.840384
vt 0.303811 0.838729
vt 0.311722 0.830964
vt 0.275944 0.819786
vt 0.279819 0.819760
vt 0.331677 0.782739
vt 0.317270 0.788774
vt 0.266135 0.795995
vt 0.231596 0.769744
vt 0.244010 0.779153
vt 0.292667 0.803142
vt 0.291627 0.799387
vt 0.324041 0.769633
vt 0.311747 0.779053
vt 0.292629 0.807035
vt 0.313217 0.758985
vt 0.303778 0.771218
vt 0.268852 0.793247
vt 0.285650 0.862517
vt 0.300251 0.858626
vt 0.283478 0.847235
vt 0.294252 0.844410
vt 0.275949 0.790299
vt 0.272207 0.791317
vt 0.283583 0.791297
vt 0.285307 0.747249
vt 0.270102 0.747487
vt 0.283422 0.762804
vt 0.272278 0.762797
vt 0.220431 0.812866
vt 0.235689 0.810651
vt 0.300027 0.751276
vt 0.294097 0.765752
vt 0.279830 0.790307
vt 0.278010 0.805989
vt 0.277763 0.805987
vt 0.277525 0.805921
vt 0.277312 0.805796
vt 0.277139 0.805621
vt 0.277017 0.805405
vt 0.276955 0.805166
vt 0.276957 0.804919
vt 0.277023 0.804680
vt 0.277148 0.804467
vt 0.277324 0.804293
vt 0.277540 0.804171
vt 0.277780 0.804108
vt 0.278027 0.804110
vt 0.278266 0.804177
vt 0.278479 0.804302
vt 0.278653 0.804479
vt 0.278775 0.804694
vt 0.278837 0.804933
vt 0.278835 0.805180
vt 0.278769 0.805418
vt 0.278642 0.805632
vt 0.278466 0.805805
vt 0.278250 0.805926
vt 0.255436 0.751283
vt 0.242417 0.759100
vt 0.261485 0.765629
vt 0.251927 0.771353
vt 0.331431 0.827172
vt 0.317148 0.821282
vt 0.264149 0.810725
vt 0.266088 0.814093
vt 0.279735 0.809576
vt 0.278500 0.809886
vt 0.281380 0.813507
vt 0.279066 0.814186
vt 0.282394 0.806946
vt 0.281768 0.808063
vt 0.286387 0.808591
vt 0.285134 0.810635
vt 0.273042 0.804372
vt 0.273398 0.803145
vt 0.268813 0.803793
vt 0.269471 0.801503
vt 0.281791 0.802108
vt 0.282413 0.803220
vt 0.285130 0.799525
vt 0.286372 0.801559
vt 0.277222 0.809900
vt 0.275996 0.809546
vt 0.276650 0.814148
vt 0.274343 0.813496
vt 0.274005 0.807996
vt 0.273359 0.806894
vt 0.270608 0.810558
vt 0.269456 0.808485
vt 0.277298 0.800219
vt 0.278571 0.800209
vt 0.276759 0.795954
vt 0.279159 0.795975
vt 0.274910 0.808887
vt 0.272279 0.812270
vt 0.280849 0.808955
vt 0.283481 0.812360
vt 0.282722 0.804448
vt 0.282743 0.805719
vt 0.286930 0.803878
vt 0.286972 0.806260
vt 0.279809 0.800532
vt 0.280905 0.801193
vt 0.281453 0.796614
vt 0.283490 0.797825
vt 0.276065 0.800523
vt 0.274430 0.796553
vt 0.274948 0.801140
vt 0.272335 0.797728
vt 0.274025 0.802030
vt 0.270609 0.799399
vt 0.273053 0.805652
vt 0.268772 0.806194
s 1
f 1/1/1 2/2/1 4/3/2 3/4/2
f 3/4/2 4/3/2 6/5/3 5/6/3
f 5/6/3 6/5/3 8/7/4 7/8/4
f 7/8/4 8/7/4 10/9/5 9/10/5
f 9/10/5 10/9/5 12/11/6 11/12/6
f 11/12/6 12/11/6 14/13/7 13/14/7
f 13/14/7 14/13/7 16/15/8 15/16/8
f 15/16/8 16/15/8 18/17/9 17/18/9
f 17/18/9 18/17/9 20/19/10 19/20/10
f 19/20/10 20/19/10 22/21/11 21/22/11
f 21/22/11 22/21/11 24/23/12 23/24/12
f 23/24/12 24/23/12 26/25/13 25/26/13
f 25/27/13 26/28/13 28/29/14 27/30/14
f 27/30/14 28/29/14 30/31/15 29/32/15
f 29/32/15 30/31/15 32/33/16 31/34/16
f 31/34/16 32/33/16 34/35/17 33/36/17
f 33/36/17 34/35/17 36/37/18 35/38/18
f 35/38/18 36/37/18 38/39/19 37/40/19
f 37/40/19 38/39/19 40/41/20 39/42/20
f 39/42/20 40/41/20 42/43/21 41/44/21
f 41/44/21 42/43/21 44/45/22 43/46/22
f 43/46/22 44/45/22 46/47/23 45/48/23
f 463/49/24 461/50/25 75/51/26 76/52/27
f 45/48/23 46/47/23 48/53/28 47/54/28
f 47/54/28 48/53/28 2/2/1 1/1/1
f 481/55/29 479/56/30 84/57/31 85/58/32
f 473/59/33 471/60/34 80/61/35 81/62/36
f 483/63/37 481/64/29 85/65/32 86/66/38
f 493/67/39 491/68/40 90/69/41 91/70/42
f 503/71/43 501/72/44 95/73/45 96/74/46
f 469/75/47 467/76/48 78/77/49 79/78/50
f 477/79/51 475/80/52 82/81/53 83/82/54
f 465/83/55 463/49/24 76/52/27 77/84/56
f 489/85/57 487/86/58 88/87/59 89/88/60
f 499/89/61 497/90/62 93/91/63 94/92/64
f 70/93/65 72/94/66 166/95/67 165/96/68
f 474/97/69 476/98/70 20/19/71 18/17/72
f 485/99/73 483/63/37 86/66/38 87/100/74
f 495/101/75 493/67/39 91/70/42 92/102/76
f 471/60/34 469/75/47 79/78/50 80/61/35
f 479/56/30 477/79/51 83/82/54 84/57/31
f 491/68/40 489/85/57 89/88/60 90/69/41
f 501/72/44 499/89/61 94/92/64 95/73/45
f 467/76/48 465/83/55 77/84/56 78/77/49
f 458/103/77 462/104/78 6/5/79 4/3/80
f 475/80/52 473/59/33 81/62/36 82/81/53
f 487/86/58 485/99/73 87/100/74 88/87/59
f 497/90/62 495/101/75 92/102/76 93/91/63
f 93/91/21 92/102/20 116/105/20 117/106/21
f 504/107/81 459/108/82 2/2/83 48/53/84
f 490/109/85 492/110/86 36/37/87 34/35/88
f 476/98/70 478/111/89 22/21/90 20/19/71
f 462/104/78 464/112/91 8/7/92 6/5/79
f 492/110/86 494/113/93 38/39/94 36/37/87
f 478/111/89 480/114/95 24/23/96 22/21/90
f 464/112/91 466/115/97 10/9/98 8/7/92
f 494/113/93 496/116/99 40/41/100 38/39/94
f 480/114/95 482/117/101 26/25/102 24/23/96
f 466/115/97 468/118/103 12/11/104 10/9/98
f 496/116/99 498/119/105 42/43/106 40/41/100
f 482/120/101 484/121/107 28/29/108 26/28/102
f 468/118/103 470/122/109 14/13/110 12/11/104
f 498/119/105 500/123/111 44/45/112 42/43/106
f 484/121/107 486/124/113 30/31/114 28/29/108
f 470/122/109 472/125/115 16/15/116 14/13/110
f 500/123/111 502/126/117 46/47/118 44/45/112
f 486/124/113 488/127/119 32/33/120 30/31/114
f 472/125/115 474/97/69 18/17/72 16/15/116
f 502/126/117 504/107/81 48/53/84 46/47/118
f 460/128/121 503/71/43 96/74/46 74/129/122
f 488/127/119 490/109/85 34/35/88 32/33/120
f 106/130/123 105/131/124 129/132/124 130/133/123
f 86/66/14 85/65/13 109/134/13 110/135/14
f 79/78/7 78/77/6 102/136/6 103/137/7
f 94/92/22 93/91/21 117/106/21 118/138/22
f 87/100/15 86/66/14 110/135/14 111/139/15
f 80/61/8 79/78/7 103/137/7 104/140/8
f 95/73/23 94/92/22 118/138/22 119/141/23
f 88/87/16 87/100/15 111/139/15 112/142/16
f 81/62/9 80/61/8 104/140/8 105/131/9
f 96/74/28 95/73/23 119/141/23 120/143/28
f 73/144/2 74/129/1 98/145/1 97/146/2
f 89/88/17 88/87/16 112/142/16 113/147/17
f 82/81/10 81/62/9 105/131/9 106/130/10
f 74/129/1 96/74/28 120/143/28 98/145/1
f 75/51/3 73/144/2 97/146/2 99/148/3
f 90/69/18 89/88/17 113/147/17 114/149/18
f 83/82/11 82/81/10 106/130/10 107/150/11
f 76/52/4 75/51/3 99/148/3 100/151/4
f 91/70/19 90/69/18 114/149/18 115/152/19
f 84/57/12 83/82/11 107/150/11 108/153/12
f 77/84/5 76/52/4 100/151/4 101/154/5
f 92/102/20 91/70/19 115/152/19 116/105/20
f 85/58/13 84/57/12 108/153/12 109/155/13
f 78/77/6 77/84/5 101/154/5 102/136/6
f 133/156/13 132/157/12 61/158/12 60/159/13
f 98/145/125 120/143/126 144/160/126 122/161/125
f 99/148/127 97/146/128 121/162/128 123/163/127
f 114/149/129 113/147/130 137/164/130 138/165/129
f 107/150/131 106/130/123 130/133/123 131/166/131
f 100/151/132 99/148/127 123/163/127 124/167/132
f 115/152/133 114/149/129 138/165/129 139/168/133
f 108/153/134 107/150/131 131/166/131 132/169/134
f 101/154/135 100/151/132 124/167/132 125/170/135
f 116/105/136 115/152/133 139/168/133 140/171/136
f 109/155/137 108/153/134 132/169/134 133/172/137
f 102/136/138 101/154/135 125/170/135 126/173/138
f 117/106/139 116/105/136 140/171/136 141/174/139
f 110/135/140 109/134/137 133/175/137 134/176/140
f 103/137/141 102/136/138 126/173/138 127/177/141
f 118/138/142 117/106/139 141/174/139 142/178/142
f 111/139/143 110/135/140 134/176/140 135/179/143
f 104/140/144 103/137/141 127/177/141 128/180/144
f 119/141/145 118/138/142 142/178/142 143/181/145
f 112/142/146 111/139/143 135/179/143 136/182/146
f 105/131/124 104/140/144 128/180/144 129/132/124
f 120/143/126 119/141/145 143/181/145 144/160/126
f 97/146/128 98/145/125 122/161/125 121/162/128
f 113/147/130 112/142/146 136/182/146 137/164/130
f 461/50/25 457/183/147 73/144/148 75/51/26
f 126/184/6 125/185/5 68/186/5 67/187/6
f 141/188/21 140/189/20 53/190/20 52/191/21
f 134/192/14 133/193/13 60/194/13 59/195/14
f 127/196/7 126/184/6 67/187/6 66/197/7
f 142/198/22 141/188/21 52/191/21 51/199/22
f 135/200/15 134/192/14 59/195/14 58/201/15
f 128/202/8 127/196/7 66/197/7 65/203/8
f 143/204/23 142/198/22 51/199/22 50/205/23
f 136/206/16 135/200/15 58/201/15 57/207/16
f 129/208/9 128/202/8 65/203/8 64/209/9
f 144/210/28 143/204/23 50/205/23 49/211/28
f 121/212/2 122/213/1 71/214/1 72/215/2
f 137/216/17 136/206/16 57/207/16 56/217/17
f 130/218/10 129/208/9 64/209/9 63/219/10
f 122/213/1 144/210/28 49/211/28 71/214/1
f 123/220/3 121/212/2 72/215/2 70/221/3
f 138/222/18 137/216/17 56/217/17 55/223/18
f 131/224/11 130/218/10 63/219/10 62/225/11
f 124/226/4 123/220/3 70/221/3 69/227/4
f 139/228/19 138/222/18 55/223/18 54/229/19
f 132/157/12 131/224/11 62/225/11 61/158/12
f 125/185/5 124/226/4 69/227/4 68/186/5
f 140/189/20 139/228/19 54/229/19 53/190/20
f 148/230/149 163/231/150 190/232/19 181/233/20
f 67/234/151 68/235/152 158/236/153 157/237/154
f 72/94/66 71/238/155 168/239/156 166/95/67
f 57/240/157 58/241/158 151/242/159 164/243/160
f 49/244/161 50/245/162 146/246/163 145/247/164
f 65/248/165 66/249/166 159/250/167 156/251/168
f 66/249/166 67/234/151 157/237/154 159/250/167
f 52/252/169 53/253/170 148/230/149 147/254/171
f 59/255/172 60/256/173 161/257/174 152/258/175
f 50/245/162 51/259/176 167/260/177 146/246/163
f 68/235/152 69/261/178 160/262/179 158/236/153
f 55/263/180 56/264/181 150/265/182 149/266/183
f 62/267/184 63/268/185 162/269/186 154/270/187
f 60/256/173 61/271/188 153/272/189 161/257/174
f 51/259/176 52/252/169 147/254/171 167/260/177
f 58/241/158 59/255/172 152/258/175 151/242/159
f 54/273/190 55/263/180 149/266/183 163/231/150
f 53/253/170 54/273/190 163/231/150 148/230/149
f 69/261/178 70/93/65 165/96/68 160/262/179
f 61/271/188 62/267/184 154/270/187 153/272/189
f 56/264/181 57/240/157 164/243/160 150/265/182
f 71/238/155 49/244/161 145/247/164 168/239/156
f 64/274/191 65/248/165 156/251/168 155/275/192
f 63/268/185 64/274/191 155/275/192 162/269/186
f 179/276/193 184/277/194 208/278/195 203/279/196
f 147/254/171 148/230/149 181/233/20 174/280/21
f 168/239/156 145/247/164 170/281/28 169/282/1
f 151/242/159 152/258/175 183/283/14 189/284/15
f 161/257/174 153/272/189 180/285/12 182/286/13
f 163/231/150 149/266/183 191/287/18 190/232/19
f 164/243/160 151/242/159 189/284/15 187/288/16
f 160/262/179 165/96/68 172/289/3 171/290/4
f 149/266/183 150/265/182 186/291/17 191/287/18
f 162/269/186 155/275/192 192/292/9 177/293/10
f 159/250/167 157/237/154 184/277/6 179/276/7
f 167/260/177 147/254/171 174/280/21 173/294/22
f 158/236/153 160/262/179 171/290/4 185/295/5
f 146/246/163 167/260/177 173/294/22 188/296/23
f 165/96/68 166/95/67 175/297/2 172/289/3
f 152/258/175 161/257/174 182/286/13 183/283/14
f 154/270/187 162/269/186 177/293/10 176/298/11
f 166/95/67 168/239/156 169/282/1 175/297/2
f 157/237/154 158/236/153 185/295/5 184/277/6
f 156/251/168 159/250/167 179/276/7 178/299/8
f 150/265/182 164/243/160 187/288/16 186/291/17
f 155/275/192 156/251/168 178/299/8 192/292/9
f 153/272/189 154/270/187 176/298/11 180/285/12
f 145/247/164 146/246/163 188/296/23 170/281/28
f 200/300/197 201/301/198 225/302/199 224/303/200
f 182/286/201 180/285/202 204/304/203 206/305/204
f 191/287/205 186/291/206 210/306/207 215/307/208
f 171/290/209 172/289/210 196/308/211 195/309/212
f 189/284/213 183/283/214 207/310/215 213/311/216
f 183/283/214 182/286/201 206/305/204 207/310/215
f 173/294/217 174/280/218 198/312/219 197/313/220
f 190/232/221 191/287/205 215/307/208 214/314/222
f 184/277/194 185/295/223 209/315/224 208/278/195
f 172/289/210 175/297/225 199/316/226 196/308/211
f 177/293/227 192/292/228 216/317/229 201/301/198
f 175/297/225 169/282/230 193/318/231 199/316/226
f 176/298/232 177/293/227 201/301/198 200/300/197
f 188/296/233 173/294/217 197/313/220 212/319/234
f 186/291/206 187/288/235 211/320/236 210/306/207
f 178/299/237 179/276/193 203/279/196 202/321/238
f 181/233/239 190/232/221 214/314/222 205/322/240
f 170/281/241 188/296/233 212/319/234 194/323/242
f 180/285/202 176/298/232 200/300/197 204/304/203
f 185/295/223 171/290/209 195/309/212 209/315/224
f 187/288/235 189/284/213 213/311/216 211/320/236
f 174/280/218 181/233/239 205/322/240 198/312/219
f 192/292/228 178/299/237 202/321/238 216/317/229
f 169/282/230 170/281/241 194/323/242 193/318/231
f 230/324/243 228/325/244 252/326/245 254/327/246
f 212/319/234 197/313/220 221/328/247 236/329/248
f 210/306/207 211/320/236 235/330/249 234/331/250
f 202/321/238 203/279/196 227/332/251 226/333/252
f 205/322/240 214/314/222 238/334/253 229/335/254
f 194/323/242 212/319/234 236/329/248 218/336/255
f 204/304/203 200/300/197 224/303/200 228/337/244
f 209/315/224 195/309/212 219/338/256 233/339/257
f 211/320/236 213/311/216 237/340/258 235/330/249
f 198/312/219 205/322/240 229/335/254 222/341/259
f 216/317/229 202/321/238 226/333/252 240/342/260
f 193/318/231 194/323/242 218/336/255 217/343/261
f 203/279/196 208/278/195 232/344/262 227/332/251
f 206/305/204 204/304/203 228/337/244 230/345/243
f 215/307/208 210/306/207 234/331/250 239/346/263
f 195/309/212 196/308/211 220/347/264 219/338/256
f 213/311/216 207/310/215 231/348/265 237/340/258
f 207/310/215 206/305/204 230/345/243 231/348/265
f 197/313/220 198/312/219 222/341/259 221/328/247
f 214/314/222 215/307/208 239/346/263 238/334/253
f 208/278/195 209/315/224 233/339/257 232/344/262
f 196/308/211 199/316/226 223/349/266 220/347/264
f 201/301/198 216/317/229 240/342/260 225/302/199
f 199/316/226 193/318/231 217/343/261 223/349/266
f 344/350/267 282/351/268 293/352/269 337/353/270
f 239/354/263 234/355/250 258/356/271 263/357/272
f 219/358/256 220/359/264 244/360/273 243/361/274
f 237/362/258 231/363/265 255/364/275 261/365/276
f 231/363/265 230/324/243 254/327/246 255/364/275
f 221/366/247 222/367/259 246/368/277 245/369/278
f 238/370/253 239/354/263 263/357/272 262/371/279
f 232/372/262 233/373/257 257/374/280 256/375/281
f 220/359/264 223/376/266 247/377/282 244/360/273
f 225/378/199 240/379/260 264/380/283 249/381/284
f 223/376/266 217/382/261 241/383/285 247/377/282
f 224/384/200 225/378/199 249/381/284 248/385/286
f 236/386/248 221/366/247 245/369/278 260/387/287
f 234/355/250 235/388/249 259/389/288 258/356/271
f 226/390/252 227/391/251 251/392/289 250/393/290
f 229/394/254 238/370/253 262/371/279 253/395/291
f 218/396/255 236/386/248 260/387/287 242/397/292
f 228/325/244 224/384/200 248/385/286 252/326/245
f 233/373/257 219/358/256 243/361/274 257/374/280
f 235/388/249 237/362/258 261/365/276 259/389/288
f 222/367/259 229/394/254 253/395/291 246/368/277
f 240/379/260 226/390/252 250/393/290 264/380/283
f 217/382/261 218/396/255 242/397/292 241/383/285
f 227/391/251 232/372/262 256/375/281 251/392/289
f 322/398/293 318/399/294 289/400/295 265/401/296
f 294/402/297 300/403/298 305/404/299 301/405/300
f 282/351/268 288/406/301 297/407/302 293/352/269
f 348/408/303 322/398/293 265/401/296 333/409/304
f 332/410/305 274/411/306 317/412/307 341/413/308
f 292/414/309 266/415/310 345/416/311 357/417/312
f 350/418/313 356/419/314 349/420/315 353/421/316
f 326/422/317 332/410/305 341/413/308 269/423/318
f 274/411/306 280/424/319 309/425/320 317/412/307
f 300/403/298 360/426/321 313/427/322 305/404/299
f 340/428/323 348/408/303 333/409/304 281/429/324
f 309/425/3 357/417/2 362/430/325 410/431/326
f 316/432/327 350/418/313 353/421/316 277/433/328
f 266/415/310 272/434/329 321/435/330 345/416/311
f 360/426/321 302/436/331 325/437/332 313/427/322
f 334/438/333 340/428/323 281/429/324 285/439/334
f 272/434/329 344/350/267 337/353/270 321/435/330
f 356/419/314 334/438/333 285/439/334 349/420/315
f 310/440/335 294/402/297 301/405/300 273/441/336
f 280/424/319 292/414/309 357/417/312 309/425/320
f 302/436/331 308/442/337 329/443/338 325/437/332
f 308/442/337 326/422/317 269/423/318 329/443/338
f 288/406/301 316/432/327 277/433/328 297/407/302
f 241/383/339 242/397/340 270/444/341 268/445/342
f 268/445/342 270/444/341 271/446/343 267/447/344
f 267/447/344 271/446/343 272/434/329 266/415/310
f 337/353/23 293/352/22 426/448/345 382/449/346
f 243/361/347 244/360/348 278/450/349 276/451/350
f 276/451/350 278/450/349 279/452/351 275/453/352
f 275/453/352 279/452/351 280/424/319 274/411/306
f 265/401/14 289/400/13 430/454/353 454/455/354
f 245/369/355 246/368/356 286/456/357 284/457/358
f 284/457/358 286/456/357 287/458/359 283/459/360
f 283/459/360 287/458/359 288/406/301 282/351/268
f 329/443/7 269/423/6 450/460/361 390/461/362
f 244/360/348 247/377/363 290/462/364 278/450/349
f 278/450/349 290/462/364 291/463/365 279/452/351
f 279/452/351 291/463/365 292/414/309 280/424/319
f 313/427/9 325/437/8 394/464/366 406/465/367
f 248/385/368 249/381/369 298/466/370 296/467/371
f 296/467/371 298/466/370 299/468/372 295/469/373
f 295/469/373 299/468/372 300/403/298 294/402/297
f 293/352/22 297/407/21 422/470/374 426/448/345
f 250/393/375 251/392/376 306/471/377 304/472/378
f 304/472/378 306/471/377 307/473/379 303/474/380
f 303/474/380 307/473/379 308/442/337 302/436/331
f 341/413/5 317/412/4 402/475/381 378/476/382
f 252/326/383 248/385/368 296/467/371 312/477/384
f 312/477/384 296/467/371 295/469/373 311/478/385
f 311/478/385 295/469/373 294/402/297 310/440/335
f 297/407/21 277/433/20 442/479/386 422/470/374
f 246/368/356 253/395/387 314/480/388 286/456/357
f 286/456/357 314/480/388 315/481/389 287/458/359
f 287/458/359 315/481/389 316/432/327 288/406/301
f 273/441/12 301/405/11 418/482/390 446/483/391
f 254/327/392 252/326/383 312/477/384 320/484/393
f 320/484/393 312/477/384 311/478/385 319/485/394
f 319/485/394 311/478/385 310/440/335 318/399/294
f 301/405/11 305/404/10 414/486/395 418/482/390
f 255/364/396 254/327/392 320/484/393 324/487/397
f 324/487/397 320/484/393 319/485/394 323/488/398
f 323/488/398 319/485/394 318/399/294 322/398/293
f 277/433/20 353/421/19 366/489/399 442/479/386
f 256/375/400 257/374/401 330/490/402 328/491/403
f 328/491/403 330/490/402 331/492/404 327/493/405
f 327/493/405 331/492/404 332/410/305 326/422/317
f 349/420/18 285/439/17 434/494/406 370/495/407
f 247/377/363 241/383/339 268/445/342 290/462/364
f 290/462/364 268/445/342 267/447/344 291/463/365
f 291/463/365 267/447/344 266/415/310 292/414/309
f 333/409/15 265/401/14 454/455/354 386/496/408
f 258/356/409 259/389/410 338/497/411 336/498/412
f 336/498/412 338/497/411 339/499/413 335/500/414
f 335/500/414 339/499/413 340/428/323 334/438/333
f 242/397/340 260/387/415 342/501/416 270/444/341
f 270/444/341 342/501/416 343/502/417 271/446/343
f 271/446/343 343/502/417 344/350/267 272/434/329
f 317/412/4 309/425/3 410/431/326 402/475/381
f 259/389/410 261/365/418 346/503/419 338/497/411
f 338/497/411 346/503/419 347/504/420 339/499/413
f 339/499/413 347/504/420 348/408/303 340/428/323
f 281/429/16 333/409/15 386/496/408 438/505/421
f 251/392/376 256/375/400 328/491/403 306/471/377
f 306/471/377 328/491/403 327/493/405 307/473/379
f 307/473/379 327/493/405 326/422/317 308/442/337
f 305/404/10 313/427/9 406/465/367 414/486/395
f 261/365/418 255/364/396 324/487/397 346/503/419
f 346/503/419 324/487/397 323/488/398 347/504/420
f 347/504/420 323/488/398 322/398/293 348/408/303
f 377/506/422 401/507/423 409/508/424 361/509/425 373/510/426 397/511/427 381/512/428 425/513/429 421/514/430 441/515/431 365/516/432 369/517/433 433/518/434 437/519/435 385/520/436 453/521/437 429/522/438 445/523/439 417/524/440 413/525/441 405/526/442 393/527/443 389/528/444 449/529/445
f 262/371/446 263/357/447 354/530/448 352/531/449
f 352/531/449 354/530/448 355/532/450 351/533/451
f 351/533/451 355/532/450 356/419/314 350/418/313
f 353/421/19 349/420/18 370/495/407 366/489/399
f 249/381/369 264/380/452 358/534/453 298/466/370
f 298/466/370 358/534/453 359/535/454 299/468/372
f 299/468/372 359/535/454 360/426/321 300/403/298
f 345/416/1 321/435/28 398/536/455 374/537/456
f 260/387/415 245/369/355 284/457/358 342/501/416
f 342/501/416 284/457/358 283/459/360 343/502/417
f 343/502/417 283/459/360 282/351/268 344/350/267
f 325/437/8 329/443/7 390/461/362 394/464/366
f 253/395/387 262/371/446 352/531/449 314/480/388
f 314/480/388 352/531/449 351/533/451 315/481/389
f 315/481/389 351/533/451 350/418/313 316/432/327
f 269/423/6 341/413/5 378/476/382 450/460/361
f 257/374/401 243/361/347 276/451/350 330/490/402
f 330/490/402 276/451/350 275/453/352 331/492/404
f 331/492/404 275/453/352 274/411/306 332/410/305
f 321/435/28 337/353/23 382/449/346 398/536/455
f 264/380/452 250/393/375 304/472/378 358/534/453
f 358/534/453 304/472/378 303/474/380 359/535/454
f 359/535/454 303/474/380 302/436/331 360/426/321
f 285/439/17 281/429/16 438/505/421 434/494/406
f 263/357/447 258/356/409 336/498/412 354/530/448
f 354/530/448 336/498/412 335/500/414 355/532/450
f 355/532/450 335/500/414 334/438/333 356/419/314
f 289/400/13 273/441/12 446/483/391 430/454/353
f 318/399/294 310/440/335 273/441/336 289/400/295
f 377/506/422 449/529/445 451/538/457 379/539/458
f 379/539/458 451/538/457 452/540/459 380/541/460
f 380/541/460 452/540/459 450/460/361 378/476/382
f 393/527/443 405/526/442 407/542/461 395/543/462
f 395/543/462 407/542/461 408/544/463 396/545/464
f 396/545/464 408/544/463 406/465/367 394/464/366
f 421/514/430 425/513/429 427/546/465 423/547/466
f 423/547/466 427/546/465 428/548/467 424/549/468
f 424/549/468 428/548/467 426/448/345 422/470/374
f 445/523/439 429/522/438 431/550/469 447/551/470
f 447/551/470 431/550/469 432/552/471 448/553/472
f 448/553/472 432/552/471 430/454/353 446/483/391
f 409/508/424 401/507/423 403/554/473 411/555/474
f 411/555/474 403/554/473 404/556/475 412/557/476
f 412/557/476 404/556/475 402/475/381 410/431/326
f 397/511/427 373/510/426 375/558/477 399/559/478
f 399/559/478 375/558/477 376/560/479 400/561/480
f 400/561/480 376/560/479 374/537/456 398/536/455
f 437/519/435 433/518/434 435/562/481 439/563/482
f 439/563/482 435/562/481 436/564/483 440/565/484
f 440/565/484 436/564/483 434/494/406 438/505/421
f 373/510/426 361/509/425 363/566/485 375/558/477
f 375/558/477 363/566/485 364/567/486 376/560/479
f 376/560/479 364/567/486 362/430/325 374/537/456
f 389/528/444 393/527/443 395/543/462 391/568/487
f 391/568/487 395/543/462 396/545/464 392/569/488
f 392/569/488 396/545/464 394/464/366 390/461/362
f 413/525/441 417/524/440 419/570/489 415/571/490
f 415/571/490 419/570/489 420/572/491 416/573/492
f 416/573/492 420/572/491 418/482/390 414/486/395
f 361/509/425 409/508/424 411/555/474 363/566/485
f 363/566/485 411/555/474 412/557/476 364/567/486
f 364/567/486 412/557/476 410/431/326 362/430/325
f 453/521/437 385/520/436 387/574/493 455/575/494
f 455/575/494 387/574/493 388/576/495 456/577/496
f 456/577/496 388/576/495 386/496/408 454/455/354
f 433/518/434 369/517/433 371/578/497 435/562/481
f 435/562/481 371/578/497 372/579/498 436/564/483
f 436/564/483 372/579/498 370/495/407 434/494/406
f 405/526/442 413/525/441 415/571/490 407/542/461
f 407/542/461 415/571/490 416/573/492 408/544/463
f 408/544/463 416/573/492 414/486/395 406/465/367
f 369/517/433 365/516/432 367/580/499 371/578/497
f 371/578/497 367/580/499 368/581/500 372/579/498
f 372/579/498 368/581/500 366/489/399 370/495/407
f 429/522/438 453/521/437 455/575/494 431/550/469
f 431/550/469 455/575/494 456/577/496 432/552/471
f 432/552/471 456/577/496 454/455/354 430/454/353
f 441/515/431 421/514/430 423/547/466 443/582/501
f 443/582/501 423/547/466 424/549/468 444/583/502
f 444/583/502 424/549/468 422/470/374 442/479/386
f 417/524/440 445/523/439 447/551/470 419/570/489
f 419/570/489 447/551/470 448/553/472 420/572/491
f 420/572/491 448/553/472 446/483/391 418/482/390
f 365/516/432 441/515/431 443/582/501 367/580/499
f 367/580/499 443/582/501 444/583/502 368/581/500
f 368/581/500 444/583/502 442/479/386 366/489/399
f 425/513/429 381/512/428 383/584/503 427/546/465
f 427/546/465 383/584/503 384/585/504 428/548/467
f 428/548/467 384/585/504 382/449/346 426/448/345
f 401/507/423 377/506/422 379/539/458 403/554/473
f 403/554/473 379/539/458 380/541/460 404/556/475
f 404/556/475 380/541/460 378/476/382 402/475/381
f 385/520/436 437/519/435 439/563/482 387/574/493
f 387/574/493 439/563/482 440/565/484 388/576/495
f 388/576/495 440/565/484 438/505/421 386/496/408
f 381/512/428 397/511/427 399/559/478 383/584/503
f 383/584/503 399/559/478 400/561/480 384/585/504
f 384/585/504 400/561/480 398/536/455 382/449/346
f 449/529/445 389/528/444 391/568/487 451/538/457
f 451/538/457 391/568/487 392/569/488 452/540/459
f 452/540/459 392/569/488 390/461/362 450/460/361
f 357/417/2 345/416/1 374/537/456 362/430/325
f 460/128/121 74/129/122 73/144/148 457/183/147
f 460/128/121 457/183/147 458/103/77 459/108/82
f 457/183/147 461/50/25 462/104/78 458/103/77
f 461/50/25 463/49/24 464/112/91 462/104/78
f 463/49/24 465/83/55 466/115/97 464/112/91
f 465/83/55 467/76/48 468/118/103 466/115/97
f 467/76/48 469/75/47 470/122/109 468/118/103
f 469/75/47 471/60/34 472/125/115 470/122/109
f 471/60/34 473/59/33 474/97/69 472/125/115
f 473/59/33 475/80/52 476/98/70 474/97/69
f 475/80/52 477/79/51 478/111/89 476/98/70
f 477/79/51 479/56/30 480/114/95 478/111/89
f 479/56/30 481/55/29 482/117/101 480/114/95
f 481/64/29 483/63/37 484/121/107 482/120/101
f 483/63/37 485/99/73 486/124/113 484/121/107
f 485/99/73 487/86/58 488/127/119 486/124/113
f 487/86/58 489/85/57 490/109/85 488/127/119
f 489/85/57 491/68/40 492/110/86 490/109/85
f 491/68/40 493/67/39 494/113/93 492/110/86
f 493/67/39 495/101/75 496/116/99 494/113/93
f 495/101/75 497/90/62 498/119/105 496/116/99
f 497/90/62 499/89/61 500/123/111 498/119/105
f 499/89/61 501/72/44 502/126/117 500/123/111
f 501/72/44 503/71/43 504/107/81 502/126/117
f 503/71/43 460/128/121 459/108/82 504/107/81
f 459/108/82 458/103/77 4/3/80 2/2/83
