# Blender 4.1.1
# www.blender.org
o DomeInterior
v 0.000000 0.000000 -0.312500
v 0.080881 0.000000 -0.301852
v 0.156250 0.000000 -0.270633
v 0.220971 0.000000 -0.220971
v 0.270633 0.000000 -0.156250
v 0.301852 0.000000 -0.080881
v 0.312500 0.000000 0.000000
v 0.301852 0.000000 0.080881
v 0.270633 0.000000 0.156250
v 0.220971 0.000000 0.220971
v 0.156250 0.000000 0.270633
v 0.080881 0.000000 0.301852
v 0.000000 0.000000 0.312500
v -0.080881 0.000000 0.301852
v -0.156250 0.000000 0.270633
v -0.220971 0.000000 0.220971
v -0.270633 0.000000 0.156250
v -0.301852 0.000000 0.080881
v -0.312500 0.000000 0.000000
v -0.301852 0.000000 -0.080881
v -0.270633 0.000000 -0.156250
v -0.220971 0.000000 -0.220971
v -0.156250 0.000000 -0.270633
v -0.080881 0.000000 -0.301852
v 0.000000 0.000000 -0.227291
v 0.058827 0.000000 -0.219546
v 0.113645 0.000000 -0.196839
v 0.160719 0.000000 -0.160719
v 0.196840 0.000000 -0.113645
v 0.219546 0.000000 -0.058827
v 0.227291 0.000000 0.000000
v 0.219546 0.000000 0.058827
v 0.196840 0.000000 0.113645
v 0.160719 0.000000 0.160719
v 0.113645 0.000000 0.196840
v 0.058827 0.000000 0.219546
v -0.058827 0.000000 0.219546
v -0.113645 0.000000 0.196840
v -0.160719 0.000000 0.160719
v -0.196839 0.000000 0.113645
v -0.219546 0.000000 0.058827
v -0.227291 0.000000 0.000000
v -0.219546 0.000000 -0.058827
v -0.196839 0.000000 -0.113645
v -0.160719 0.000000 -0.160719
v -0.113645 0.000000 -0.196839
v -0.058827 0.000000 -0.219546
v 0.000000 0.443836 -0.227291
v 0.058827 0.443836 -0.219546
v 0.113645 0.443836 -0.196839
v 0.160719 0.443836 -0.160719
v 0.196840 0.443836 -0.113645
v 0.219546 0.443836 -0.058827
v 0.227291 0.443836 0.000000
v 0.219546 0.443836 0.058827
v 0.196840 0.443836 0.113645
v 0.160719 0.443836 0.160719
v 0.113645 0.443836 0.196840
v 0.058827 0.443836 0.219546
v 0.000000 0.443836 0.227291
v -0.058827 0.443836 0.219546
v -0.113645 0.443836 0.196840
v -0.160719 0.443836 0.160719
v -0.196839 0.443836 0.113645
v -0.219546 0.443836 0.058827
v -0.227291 0.443836 0.000000
v -0.219546 0.443836 -0.058827
v -0.196839 0.443836 -0.113645
v -0.160719 0.443836 -0.160719
v -0.113645 0.443836 -0.196839
v -0.058827 0.443836 -0.219546
v 0.000000 0.528494 -0.199423
v 0.051615 0.528494 -0.192628
v 0.099712 0.528494 -0.172705
v 0.141014 0.528494 -0.141013
v 0.172706 0.528494 -0.099711
v 0.192628 0.528494 -0.051614
v 0.199423 0.528494 0.000000
v 0.192628 0.528494 0.051615
v 0.172706 0.528494 0.099712
v 0.141014 0.528494 0.141014
v 0.099712 0.528494 0.172706
v 0.051615 0.528494 0.192628
v 0.000000 0.528494 0.199423
v -0.051614 0.528494 0.192628
v -0.099712 0.528494 0.172706
v -0.141013 0.528494 0.141014
v -0.172706 0.528494 0.099712
v -0.192628 0.528494 0.051615
v -0.199423 0.528494 0.000000
v -0.192628 0.528494 -0.051614
v -0.172706 0.528494 -0.099711
v -0.141013 0.528494 -0.141013
v -0.099712 0.528494 -0.172705
v -0.051614 0.528494 -0.192628
v 0.000000 0.570488 -0.135298
v 0.035018 0.570488 -0.130687
v 0.067649 0.570488 -0.117171
v 0.095670 0.570488 -0.095670
v 0.117171 0.570488 -0.067649
v 0.130688 0.570488 -0.035017
v 0.135298 0.570488 0.000000
v 0.130688 0.570488 0.035018
v 0.117171 0.570488 0.067649
v 0.095670 0.570488 0.095670
v 0.067649 0.570488 0.117171
v 0.035018 0.570488 0.130688
v 0.000000 0.570488 0.135298
v -0.035018 0.570488 0.130688
v -0.067649 0.570488 0.117171
v -0.095670 0.570488 0.095670
v -0.117171 0.570488 0.067649
v -0.130687 0.570488 0.035018
v -0.135298 0.570488 0.000000
v -0.130687 0.570488 -0.035017
v -0.117171 0.570488 -0.067649
v -0.095670 0.570488 -0.095670
v -0.067649 0.570488 -0.117171
v -0.035018 0.570488 -0.130687
v -0.042426 0.000000 0.209382
v -0.000000 0.000000 0.226956
v 0.042426 0.000000 0.209382
v 0.060000 -0.000000 0.166956
v 0.042426 -0.000000 0.124529
v -0.000000 -0.000000 0.106956
v -0.042426 -0.000000 0.124529
v -0.060000 0.000000 0.166956
v -0.057380 0.338718 0.223204
v -0.000000 0.340352 0.246868
v 0.057380 0.338718 0.223204
v 0.081148 0.334773 0.166072
v 0.057380 0.330828 0.108941
v 0.000000 0.329194 0.085276
v -0.057380 0.330828 0.108941
v -0.081148 0.334773 0.166072
v -0.042426 0.428688 0.187899
v -0.000000 0.438785 0.202283
v 0.042426 0.428688 0.187899
v 0.060000 0.404312 0.153174
v 0.042426 0.379937 0.118450
v 0.000000 0.369840 0.104066
v -0.042426 0.379937 0.118450
v -0.060000 0.404312 0.153174
v 0.060000 0.437946 0.095823
v 0.042426 0.397168 0.084112
v 0.000000 0.380278 0.079261
v -0.042426 0.397168 0.084112
v -0.060000 0.437946 0.095823
v 0.060000 0.442903 0.057107
v 0.042426 0.400477 0.057107
v 0.000000 0.382903 0.057107
v -0.042426 0.400477 0.057107
v -0.060000 0.442903 0.057107
v 0.095528 0.442903 0.017952
v 0.067548 0.375355 0.017952
v 0.000000 0.347376 0.017952
v -0.067548 0.375355 0.017952
v -0.095527 0.442903 0.017952
v 0.104214 0.442903 -0.037289
v 0.073690 0.369213 -0.037289
v 0.000000 0.338690 -0.037289
v -0.073690 0.369213 -0.037289
v -0.104214 0.442903 -0.037289
v 0.082581 0.442903 -0.088957
v 0.058394 0.384510 -0.088957
v 0.000000 0.360322 -0.088957
v -0.058394 0.384510 -0.088957
v -0.082581 0.442903 -0.088957
v -0.028080 0.470983 -0.118001
v 0.000000 0.482614 -0.118001
v 0.028080 0.470983 -0.118001
v 0.039711 0.442903 -0.118001
v 0.028080 0.414823 -0.118001
v 0.000000 0.403192 -0.118001
v -0.028080 0.414823 -0.118001
v -0.039711 0.442903 -0.118001
v -0.000000 0.242888 0.166956
v -0.057380 0.300421 0.223363
v -0.000000 0.301871 0.247040
v 0.057380 0.300421 0.223363
v 0.081148 0.296923 0.166204
v 0.057380 0.293424 0.109044
v -0.000000 0.291974 0.085368
v -0.057380 0.293424 0.109044
v -0.081148 0.296923 0.166204
v -0.042426 0.338718 0.208337
v -0.000000 0.340352 0.225835
v 0.042426 0.338718 0.208337
v 0.060000 0.334773 0.166094
v 0.042426 0.330828 0.123852
v -0.042426 0.330828 0.123852
v -0.000000 0.329194 0.106354
v -0.060000 0.334773 0.166094
v -0.042426 0.300421 0.208455
v -0.000000 0.301871 0.225961
v 0.042426 0.300421 0.208455
v 0.060000 0.296923 0.166192
v 0.042426 0.293424 0.123928
v -0.000000 0.291974 0.106422
v -0.042426 0.293424 0.123928
v -0.060000 0.296923 0.166192
vn 0.5000 -0.0000 -0.8660
vn 0.7071 -0.0000 -0.7071
vn -0.0000 -1.0000 -0.0000
vn 0.8226 -0.3127 -0.4749
vn 0.9175 -0.3127 -0.2458
vn 0.7757 -0.5958 -0.2079
vn 0.6955 -0.5958 -0.4016
vn -0.9659 -0.0000 -0.2588
vn -0.8660 -0.0000 -0.5000
vn 0.5000 -0.0000 0.8660
vn 0.2588 -0.0000 0.9659
vn -0.0000 -0.0000 1.0000
vn -0.2588 -0.0000 0.9659
vn 0.8660 -0.0000 -0.5000
vn -0.7071 -0.0000 -0.7071
vn -0.5000 -0.0000 0.8660
vn 0.9659 -0.0000 -0.2588
vn -0.5000 -0.0000 -0.8660
vn -0.7071 -0.0000 0.7071
vn 1.0000 -0.0000 -0.0000
vn -0.2575 0.0002 -0.9663
vn -0.8660 -0.0000 0.5000
vn 0.9659 -0.0000 0.2588
vn -0.0000 0.0004 -1.0000
vn -0.9659 -0.0000 0.2588
vn 0.8660 -0.0000 0.5000
vn 0.2575 0.0002 -0.9663
vn -1.0000 -0.0000 -0.0000
vn 0.7071 -0.0000 0.7071
vn -0.4016 -0.5958 -0.6955
vn -0.2079 -0.5958 -0.7757
vn -0.0796 -0.9516 -0.2969
vn -0.1537 -0.9516 -0.2662
vn -0.6717 -0.3127 -0.6717
vn -0.4749 -0.3127 -0.8226
vn -0.5679 -0.5958 -0.5679
vn -0.4749 -0.3127 0.8226
vn -0.6717 -0.3127 0.6717
vn -0.5679 -0.5958 0.5679
vn -0.4016 -0.5958 0.6955
vn 0.9499 -0.3127 -0.0000
vn 0.8031 -0.5958 -0.0000
vn -0.2458 -0.3127 -0.9175
vn -0.8226 -0.3127 0.4749
vn -0.6955 -0.5958 0.4016
vn 0.9175 -0.3127 0.2458
vn 0.7757 -0.5958 0.2079
vn -0.0000 -0.3127 -0.9499
vn -0.0000 -0.5958 -0.8031
vn -0.9175 -0.3127 0.2458
vn -0.7757 -0.5958 0.2079
vn 0.8226 -0.3127 0.4749
vn 0.6955 -0.5958 0.4016
vn 0.2458 -0.3127 -0.9175
vn 0.2079 -0.5958 -0.7757
vn -0.9499 -0.3127 -0.0000
vn -0.8031 -0.5958 -0.0000
vn 0.6717 -0.3127 0.6717
vn 0.5679 -0.5958 0.5679
vn 0.4749 -0.3127 -0.8226
vn 0.4016 -0.5958 -0.6955
vn -0.9175 -0.3127 -0.2458
vn -0.7757 -0.5958 -0.2079
vn 0.4749 -0.3127 0.8226
vn 0.4016 -0.5958 0.6955
vn 0.6717 -0.3127 -0.6717
vn 0.5679 -0.5958 -0.5679
vn -0.8226 -0.3127 -0.4749
vn -0.6955 -0.5958 -0.4016
vn 0.2458 -0.3127 0.9175
vn 0.2079 -0.5958 0.7757
vn -0.0000 -0.3127 0.9499
vn -0.2458 -0.3127 0.9175
vn -0.2079 -0.5958 0.7757
vn -0.0000 -0.5958 0.8031
vn -0.0000 -0.9516 0.3074
vn -0.0796 -0.9516 0.2969
vn -0.1537 -0.9516 0.2662
vn -0.2174 -0.9516 0.2174
vn -0.2662 -0.9516 0.1537
vn -0.2969 -0.9516 0.0796
vn -0.3074 -0.9516 -0.0000
vn -0.2969 -0.9516 -0.0796
vn -0.2662 -0.9516 -0.1537
vn -0.2174 -0.9516 -0.2174
vn -0.0000 -0.9516 -0.3074
vn 0.0796 -0.9516 -0.2969
vn 0.1537 -0.9516 -0.2662
vn 0.2174 -0.9516 -0.2174
vn 0.2662 -0.9516 -0.1537
vn 0.2969 -0.9516 -0.0796
vn 0.3074 -0.9516 -0.0000
vn 0.2969 -0.9516 0.0796
vn 0.2662 -0.9516 0.1537
vn 0.2174 -0.9516 0.2174
vn 0.1537 -0.9516 0.2662
vn 0.0796 -0.9516 0.2969
vn -0.7130 0.0029 0.7012
vn -0.6981 0.0030 0.7160
vn -0.9999 0.0002 0.0160
vn -0.9999 0.0001 -0.0141
vn -0.0000 0.0043 1.0000
vn 0.7130 0.0029 0.7012
vn 0.6981 0.0030 0.7160
vn 0.9999 0.0001 -0.0141
vn 0.9999 0.0002 0.0160
vn 0.6989 -0.0020 -0.7152
vn 0.7140 -0.0019 -0.7001
vn -0.0000 -0.0026 -1.0000
vn -0.6989 -0.0020 -0.7152
vn -0.7140 -0.0019 -0.7001
vn -0.6796 0.1622 0.7154
vn -0.6436 0.1700 0.7462
vn -0.9964 -0.0826 0.0170
vn -0.9997 0.0152 0.0191
vn -0.0000 0.2274 0.9738
vn 0.6796 0.1622 0.7154
vn 0.6436 0.1700 0.7462
vn 0.9997 0.0152 0.0191
vn 0.9964 -0.0826 0.0170
vn 0.6937 -0.0762 -0.7162
vn 0.7858 -0.3544 -0.5069
vn -0.0000 -0.0854 -0.9963
vn -0.0000 -0.5727 -0.8198
vn -0.6937 -0.0762 -0.7162
vn -0.7858 -0.3544 -0.5069
vn 0.7224 -0.6620 -0.1997
vn 0.9213 -0.3698 -0.1201
vn -0.0000 -0.9614 -0.2752
vn -0.7224 -0.6620 -0.1997
vn -0.9213 -0.3698 -0.1201
vn 0.6685 -0.6539 0.3545
vn 0.8613 -0.3571 0.3613
vn -0.0000 -0.9413 0.3375
vn -0.6685 -0.6539 0.3545
vn -0.8613 -0.3571 0.3613
vn -0.0000 -0.9136 0.4066
vn 0.6460 -0.6460 0.4066
vn -0.8545 -0.3539 0.3803
vn -0.6460 -0.6460 0.4066
vn 0.8545 -0.3539 0.3803
vn 0.7026 -0.7026 -0.1128
vn 0.9188 -0.3806 -0.1043
vn -0.9188 -0.3806 -0.1043
vn -0.7026 -0.7026 -0.1128
vn -0.0000 -0.9936 -0.1128
vn -0.5651 -0.5651 -0.6010
vn -0.0000 -0.7992 -0.6010
vn 0.5651 -0.5651 -0.6010
vn 0.7587 -0.3143 -0.5706
vn -0.7587 -0.3143 -0.5706
vn -0.0000 -0.3572 -0.9340
vn 0.2526 -0.2526 -0.9340
vn -0.2526 -0.2526 -0.9340
vn 0.2560 -0.1060 -0.9609
vn -0.2560 -0.1060 -0.9609
vn -0.0000 -0.0000 -1.0000
vn 0.6865 -0.2398 0.6865
vn -0.0000 -0.2398 0.9708
vn -0.6865 -0.2398 0.6865
vn -0.9708 -0.2398 -0.0000
vn -0.6865 -0.2398 -0.6865
vn -0.0000 -0.2398 -0.9708
vn 0.6865 -0.2398 -0.6865
vn 0.9708 -0.2398 -0.0000
vn -0.0000 -0.9982 0.0600
vn -0.0247 -0.9991 0.0352
vn -0.0247 -0.9991 0.0351
vn -0.0000 -0.9999 0.0103
vn 0.0247 -0.9991 0.0352
vn 0.0247 -0.9991 0.0351
vn -0.0248 -0.9991 0.0352
vn -0.0248 -0.9991 0.0351
vn 0.0248 -0.9991 0.0352
vn 0.0248 -0.9991 0.0351
vn -0.7063 0.0022 0.7079
vn -0.6968 0.0022 0.7173
vn -0.9998 0.0002 0.0195
vn -1.0000 0.0001 0.0006
vn -0.0000 0.0032 1.0000
vn 0.7063 0.0022 0.7079
vn 0.6968 0.0022 0.7173
vn 1.0000 0.0001 0.0006
vn 0.9998 0.0002 0.0195
vn 0.7069 -0.0014 -0.7073
vn 0.7163 -0.0014 -0.6978
vn -0.0000 -0.0019 -1.0000
vn -0.7069 -0.0014 -0.7073
vn -0.7163 -0.0014 -0.6978
vt 0.466872 0.736641
vt 0.466872 0.722407
vt 0.573348 0.722407
vt 0.573348 0.736641
vt 0.882270 0.651099
vt 0.868035 0.651099
vt 0.865367 0.630832
vt 0.884938 0.630832
vt 0.896019 0.654783
vt 0.903841 0.635898
vt 0.908346 0.661900
vt 0.920790 0.645683
vt 0.918411 0.671966
vt 0.934629 0.659522
vt 0.908346 0.748418
vt 0.918411 0.738353
vt 0.934629 0.750797
vt 0.920790 0.764635
vt 0.925528 0.684293
vt 0.944414 0.676470
vt 0.929212 0.698042
vt 0.949479 0.695374
vt 0.854286 0.654783
vt 0.846463 0.635898
vt 0.929212 0.712276
vt 0.949479 0.714945
vt 0.895988 0.755461
vt 0.903841 0.774421
vt 0.821092 0.712276
vt 0.824776 0.726026
vt 0.805891 0.733848
vt 0.800826 0.714945
vt 0.925528 0.726026
vt 0.944414 0.733848
vt 0.882270 0.759219
vt 0.884938 0.779486
vt 0.854286 0.755535
vt 0.868035 0.759219
vt 0.865367 0.779486
vt 0.846463 0.774421
vt 0.841959 0.748418
vt 0.829515 0.764635
vt 0.841959 0.661900
vt 0.829515 0.645683
vt 0.831894 0.738353
vt 0.815676 0.750797
vt 0.821092 0.698042
vt 0.800826 0.695374
vt 0.824776 0.684293
vt 0.805891 0.676470
vt 0.831894 0.671966
vt 0.815676 0.659522
vt 0.814189 0.829590
vt 0.827113 0.816502
vt 0.841650 0.835776
vt 0.833099 0.843923
vt 0.466872 0.494658
vt 0.466872 0.480424
vt 0.573348 0.480424
vt 0.573348 0.494658
vt 0.466872 0.622767
vt 0.466872 0.608533
vt 0.573348 0.608533
vt 0.573348 0.622767
vt 0.466872 0.594298
vt 0.466872 0.580064
vt 0.573348 0.580064
vt 0.573348 0.594298
vt 0.466872 0.708173
vt 0.573348 0.708173
vt 0.466872 0.466190
vt 0.573348 0.466190
vt 0.466872 0.565830
vt 0.573348 0.565830
vt 0.466872 0.693938
vt 0.573348 0.693938
vt 0.466872 0.451955
vt 0.573348 0.451955
vt 0.466872 0.551595
vt 0.573348 0.551595
vt 0.466872 0.679704
vt 0.573348 0.679704
vt 0.466872 0.437721
vt 0.573348 0.437721
vt 0.466872 0.537361
vt 0.573348 0.537361
vt 0.466872 0.665470
vt 0.573348 0.665470
vt 0.466872 0.423497
vt 0.573348 0.423487
vt 0.466872 0.523127
vt 0.573348 0.523127
vt 0.466872 0.651235
vt 0.573348 0.651235
vt 0.466872 0.765099
vt 0.466872 0.750875
vt 0.573348 0.750875
vt 0.573348 0.765110
vt 0.466872 0.508893
vt 0.573348 0.508893
vt 0.466872 0.637001
vt 0.573348 0.637001
vt 0.840693 0.907460
vt 0.832204 0.899207
vt 0.845586 0.889133
vt 0.850838 0.894502
vt 0.841756 0.935500
vt 0.825892 0.926380
vt 0.850795 0.913659
vt 0.937261 0.880918
vt 0.932778 0.898614
vt 0.910572 0.889711
vt 0.913749 0.878248
vt 0.843305 0.807994
vt 0.851873 0.829731
vt 0.813601 0.913024
vt 0.923637 0.914755
vt 0.904437 0.899877
vt 0.860835 0.803384
vt 0.863410 0.827109
vt 0.804718 0.897467
vt 0.826662 0.888784
vt 0.910125 0.927239
vt 0.896110 0.908450
vt 0.878910 0.804236
vt 0.875192 0.827118
vt 0.800826 0.880073
vt 0.823506 0.877366
vt 0.894384 0.936239
vt 0.885569 0.914086
vt 0.895592 0.809524
vt 0.886623 0.830192
vt 0.800826 0.862521
vt 0.823792 0.865474
vt 0.876817 0.940151
vt 0.874108 0.917303
vt 0.910564 0.818191
vt 0.896725 0.836358
vt 0.805308 0.845303
vt 0.827014 0.854068
vt 0.859129 0.940106
vt 0.862206 0.916984
vt 0.923054 0.830472
vt 0.904979 0.844746
vt 0.932098 0.845685
vt 0.936982 0.862874
vt 0.913796 0.866386
vt 0.910781 0.854965
vt 0.895483 0.861328
vt 0.897330 0.868592
vt 0.897229 0.876093
vt 0.895165 0.883333
vt 0.891317 0.889818
vt 0.885927 0.895060
vt 0.879389 0.898697
vt 0.872073 0.900545
vt 0.864519 0.900412
vt 0.857287 0.898319
vt 0.841933 0.882570
vt 0.840126 0.875308
vt 0.840278 0.867856
vt 0.842365 0.860617
vt 0.846238 0.854117
vt 0.851643 0.848872
vt 0.858215 0.845224
vt 0.865471 0.843424
vt 0.872952 0.843545
vt 0.880140 0.845597
vt 0.886556 0.849402
vt 0.891799 0.854770
vt 0.401750 0.554405
vt 0.392562 0.554392
vt 0.393472 0.539545
vt 0.402553 0.539552
vt 0.401405 0.569296
vt 0.392173 0.569282
vt 0.401750 0.465211
vt 0.392562 0.465224
vt 0.392173 0.450334
vt 0.401405 0.450320
vt 0.402553 0.480064
vt 0.393472 0.480071
vt 0.403356 0.494917
vt 0.394383 0.494918
vt 0.403690 0.509808
vt 0.394761 0.509808
vt 0.403356 0.524700
vt 0.394383 0.524699
vt 0.611496 0.919412
vt 0.608731 0.896495
vt 0.619897 0.899199
vt 0.622655 0.916679
vt 0.600172 0.921353
vt 0.597245 0.896201
vt 0.669240 0.938510
vt 0.684854 0.922782
vt 0.693727 0.929335
vt 0.676672 0.946661
vt 0.662399 0.929857
vt 0.674800 0.918244
vt 0.654986 0.921979
vt 0.663859 0.911032
vt 0.645172 0.916645
vt 0.649542 0.903852
vt 0.633813 0.914911
vt 0.633506 0.900471
vt 0.668101 0.899387
vt 0.680541 0.902996
vt 0.652914 0.894628
vt 0.637776 0.888540
vt 0.625270 0.882739
vt 0.670698 0.891035
vt 0.682816 0.894454
vt 0.655578 0.887453
vt 0.641519 0.880567
vt 0.629673 0.873770
vt 0.662131 0.874216
vt 0.674847 0.878684
vt 0.633070 0.858139
vt 0.649267 0.867553
vt 0.690636 0.883365
vt 0.677555 0.869009
vt 0.693727 0.869899
vt 0.642416 0.845437
vt 0.654931 0.858300
vt 0.665795 0.865220
vt 0.661312 0.851300
vt 0.669018 0.857509
vt 0.678771 0.859684
vt 0.690591 0.857131
vt 0.655645 0.839281
vt 0.672468 0.850331
vt 0.677742 0.850729
vt 0.668861 0.846466
vt 0.683196 0.847570
vt 0.668137 0.840116
vt 0.680004 0.835433
vt 0.684626 0.841008
vt 0.672794 0.834759
vt 0.204527 0.937970
vt 0.211985 0.929862
vt 0.252244 0.974377
vt 0.220800 0.923253
vt 0.230674 0.918367
vt 0.241274 0.915368
vt 0.252244 0.914357
vt 0.194631 0.957551
vt 0.198677 0.947305
vt 0.192526 0.968365
vt 0.415656 0.624479
vt 0.417604 0.629166
vt 0.402723 0.629164
vt 0.404642 0.624478
vt 0.392188 0.618624
vt 0.396856 0.616688
vt 0.392173 0.603724
vt 0.396843 0.605676
vt 0.402683 0.593194
vt 0.404624 0.597882
vt 0.417560 0.593194
vt 0.415637 0.597881
vt 0.428096 0.603732
vt 0.423423 0.605671
vt 0.428113 0.618631
vt 0.423436 0.616681
vt 0.988050 0.281801
vt 0.915979 0.281726
vt 0.916798 0.270744
vt 0.988030 0.270784
vt 0.988051 0.292818
vt 0.915633 0.292736
vt 0.988050 0.215702
vt 0.915979 0.215777
vt 0.915633 0.204766
vt 0.988051 0.204685
vt 0.988030 0.226718
vt 0.916798 0.226759
vt 0.988010 0.237735
vt 0.917618 0.237741
vt 0.988002 0.248751
vt 0.917958 0.248751
vt 0.988010 0.259768
vt 0.917618 0.259762
s 1
f 38/1/1 39/2/2 63/3/2 62/4/1
f 27/5/3 26/6/3 2/7/3 3/8/3
f 28/9/3 27/5/3 3/8/3 4/10/3
f 29/11/3 28/9/3 4/10/3 5/12/3
f 30/13/3 29/11/3 5/12/3 6/14/3
f 36/15/3 35/16/3 11/17/3 12/18/3
f 31/19/3 30/13/3 6/14/3 7/20/3
f 32/21/3 31/19/3 7/20/3 8/22/3
f 26/6/3 25/23/3 1/24/3 2/7/3
f 33/25/3 32/21/3 8/22/3 9/26/3
f 121/27/3 36/15/3 12/18/3 13/28/3
f 43/29/3 42/30/3 19/31/3 20/32/3
f 35/16/3 34/33/3 10/34/3 11/17/3
f 34/33/3 33/25/3 9/26/3 10/34/3
f 37/35/3 121/27/3 13/28/3 14/36/3
f 39/37/3 38/38/3 15/39/3 16/40/3
f 38/38/3 37/35/3 14/36/3 15/39/3
f 40/41/3 39/37/3 16/40/3 17/42/3
f 25/23/3 47/43/3 24/44/3 1/24/3
f 42/30/3 41/45/3 18/46/3 19/31/3
f 44/47/3 43/29/3 20/32/3 21/48/3
f 45/49/3 44/47/3 21/48/3 22/50/3
f 41/45/3 40/41/3 17/42/3 18/46/3
f 46/51/3 45/49/3 22/50/3 23/52/3
f 64/53/4 65/54/5 89/55/6 88/56/7
f 32/57/8 33/58/9 56/59/9 55/60/8
f 46/61/10 47/62/11 71/63/11 70/64/10
f 25/65/12 26/66/13 49/67/13 48/68/12
f 39/2/2 40/69/14 64/70/14 63/3/2
f 33/58/9 34/71/15 57/72/15 56/59/9
f 47/62/11 25/65/12 48/68/12 71/63/11
f 26/66/13 27/73/16 50/74/16 49/67/13
f 40/69/14 41/75/17 65/76/17 64/70/14
f 34/71/15 35/77/18 58/78/18 57/72/15
f 27/73/16 28/79/19 51/80/19 50/74/16
f 41/75/17 42/81/20 66/82/20 65/76/17
f 35/77/18 36/83/21 59/84/21 58/78/18
f 28/79/19 29/85/22 52/86/22 51/80/19
f 42/81/20 43/87/23 67/88/23 66/82/20
f 36/83/21 121/89/24 60/90/24 59/84/21
f 29/85/22 30/91/25 53/92/25 52/86/22
f 43/87/23 44/93/26 68/94/26 67/88/23
f 121/95/24 37/96/27 61/97/27 60/98/24
f 30/91/25 31/99/28 54/100/28 53/92/25
f 44/93/26 45/101/29 69/102/29 68/94/26
f 37/96/27 38/1/1 62/4/1 61/97/27
f 31/99/28 32/57/8 55/60/8 54/100/28
f 45/101/29 46/61/10 70/64/10 69/102/29
f 82/103/30 83/104/31 107/105/32 106/106/33
f 57/107/34 58/108/35 82/103/30 81/109/36
f 50/110/37 51/111/38 75/112/39 74/113/40
f 65/54/5 66/114/41 90/115/42 89/55/6
f 58/108/35 59/116/43 83/104/31 82/103/30
f 51/111/38 52/117/44 76/118/45 75/112/39
f 66/114/41 67/119/46 91/120/47 90/115/42
f 59/116/43 60/121/48 84/122/49 83/104/31
f 52/117/44 53/123/50 77/124/51 76/118/45
f 67/119/46 68/125/52 92/126/53 91/120/47
f 60/121/48 61/127/54 85/128/55 84/122/49
f 53/123/50 54/129/56 78/130/57 77/124/51
f 68/125/52 69/131/58 93/132/59 92/126/53
f 61/127/54 62/133/60 86/134/61 85/128/55
f 54/129/56 55/135/62 79/136/63 78/130/57
f 69/131/58 70/137/64 94/138/65 93/132/59
f 62/133/60 63/139/66 87/140/67 86/134/61
f 55/135/62 56/141/68 80/142/69 79/136/63
f 70/137/64 71/143/70 95/144/71 94/138/65
f 48/145/72 49/146/73 73/147/74 72/148/75
f 63/139/66 64/53/4 88/56/7 87/140/67
f 56/141/68 57/107/34 81/109/36 80/142/69
f 71/143/70 48/145/72 72/148/75 95/144/71
f 49/146/73 50/110/37 74/113/40 73/147/74
f 96/149/76 97/150/77 98/151/78 99/152/79 100/153/80 101/154/81 102/155/82 103/156/83 104/157/84 105/158/85 106/106/33 107/105/32 108/159/86 109/160/87 110/161/88 111/162/89 112/163/90 113/164/91 114/165/92 115/166/93 116/167/94 117/168/95 118/169/96 119/170/97
f 75/112/39 76/118/45 100/153/80 99/152/79
f 90/115/42 91/120/47 115/166/93 114/165/92
f 83/104/31 84/122/49 108/159/86 107/105/32
f 76/118/45 77/124/51 101/154/81 100/153/80
f 91/120/47 92/126/53 116/167/94 115/166/93
f 84/122/49 85/128/55 109/160/87 108/159/86
f 77/124/51 78/130/57 102/155/82 101/154/81
f 92/126/53 93/132/59 117/168/95 116/167/94
f 85/128/55 86/134/61 110/161/88 109/160/87
f 78/130/57 79/136/63 103/156/83 102/155/82
f 93/132/59 94/138/65 118/169/96 117/168/95
f 86/134/61 87/140/67 111/162/89 110/161/88
f 79/136/63 80/142/69 104/157/84 103/156/83
f 94/138/65 95/144/71 119/170/97 118/169/96
f 72/148/75 73/147/74 97/150/77 96/149/76
f 87/140/67 88/56/7 112/163/90 111/162/89
f 80/142/69 81/109/36 105/158/85 104/157/84
f 95/144/71 72/148/75 96/149/76 119/170/97
f 73/147/74 74/113/40 98/151/78 97/150/77
f 88/56/7 89/55/6 113/164/91 112/163/90
f 81/109/36 82/103/30 106/106/33 105/158/85
f 74/113/40 75/112/39 99/152/79 98/151/78
f 89/55/6 90/115/42 114/165/92 113/164/91
f 178/171/98 128/172/99 135/173/100 185/174/101
f 179/175/102 129/176/102 128/172/99 178/171/98
f 180/177/103 130/178/104 129/179/102 179/180/102
f 181/181/105 131/182/106 130/178/104 180/177/103
f 182/183/107 132/184/108 131/182/106 181/181/105
f 183/185/109 133/186/109 132/184/108 182/183/107
f 184/187/110 134/188/111 133/186/109 183/185/109
f 185/174/101 135/173/100 134/188/111 184/187/110
f 186/189/112 136/190/113 143/191/114 193/192/115
f 187/193/116 137/194/116 136/190/113 186/189/112
f 188/195/117 138/196/118 137/197/116 187/198/116
f 189/199/119 139/200/120 138/196/118 188/195/117
f 190/201/121 140/202/122 139/200/120 189/199/119
f 192/203/123 141/204/124 140/202/122 190/201/121
f 191/205/125 142/206/126 141/204/124 192/203/123
f 193/192/115 143/191/114 142/206/126 191/205/125
f 140/202/122 145/207/127 144/208/128 139/200/120
f 141/204/124 146/209/129 145/207/127 140/202/122
f 142/206/126 147/210/130 146/209/129 141/204/124
f 143/191/114 148/211/131 147/210/130 142/206/126
f 145/207/127 150/212/132 149/213/133 144/208/128
f 146/209/129 151/214/134 150/212/132 145/207/127
f 147/210/130 152/215/135 151/214/134 146/209/129
f 148/211/131 153/216/136 152/215/135 147/210/130
f 150/212/132 151/214/134 156/217/137 155/218/138
f 152/215/135 153/216/136 158/219/139 157/220/140
f 149/213/133 150/212/132 155/218/138 154/221/141
f 151/214/134 152/215/135 157/220/140 156/217/137
f 154/221/141 155/218/138 160/222/142 159/223/143
f 157/220/140 158/219/139 163/224/144 162/225/145
f 155/218/138 156/217/137 161/226/146 160/222/142
f 156/217/137 157/220/140 162/225/145 161/226/146
f 161/226/146 162/225/145 167/227/147 166/228/148
f 159/223/143 160/222/142 165/229/149 164/230/150
f 162/225/145 163/224/144 168/231/151 167/227/147
f 160/222/142 161/226/146 166/228/148 165/229/149
f 165/229/149 166/228/148 174/232/152 173/233/153
f 166/228/148 167/227/147 175/234/154 174/232/152
f 164/230/150 165/229/149 173/233/153 172/235/155
f 167/227/147 168/231/151 176/236/156 175/234/154
f 170/237/157 171/238/157 172/235/155 173/233/153 174/232/152 175/234/154 176/236/156 169/239/157
f 126/240/158 125/241/159 177/242/3
f 124/243/160 123/244/161 177/242/3
f 122/245/162 121/246/163 177/242/3
f 120/247/164 127/248/165 177/242/3
f 125/241/159 124/243/160 177/242/3
f 123/244/161 122/245/162 177/242/3
f 127/248/165 126/240/158 177/242/3
f 121/249/163 120/247/164 177/242/3
f 201/250/166 185/251/166 184/252/167 200/253/168
f 200/253/168 184/252/167 183/254/169 199/255/169
f 199/255/169 183/254/169 182/256/170 198/257/171
f 198/257/171 182/256/170 181/258/166 197/259/166
f 197/259/166 181/258/166 180/260/172 196/261/173
f 196/261/173 180/260/172 179/262/169 195/263/169
f 195/263/169 179/262/169 178/264/174 194/265/175
f 194/265/175 178/264/174 185/251/166 201/250/166
f 120/266/176 194/267/177 201/268/178 127/269/179
f 121/270/180 195/271/180 194/267/177 120/266/176
f 122/272/181 196/273/182 195/274/180 121/275/180
f 123/276/183 197/277/184 196/273/182 122/272/181
f 124/278/185 198/279/186 197/277/184 123/276/183
f 125/280/187 199/281/187 198/279/186 124/278/185
f 126/282/188 200/283/189 199/281/187 125/280/187
f 127/269/179 201/268/178 200/283/189 126/282/188
f 47/43/3 46/51/3 23/52/3 24/44/3
