# Blender 4.1.1
# www.blender.org
o DomeFluted_Collider
v 0.000000 0.490507 -0.328685
v 0.164342 0.490507 -0.284649
v 0.284649 0.490507 -0.164342
v 0.328685 0.490507 0.000000
v 0.284649 0.490507 0.164342
v 0.164342 0.490507 0.284649
v 0.000000 0.490507 0.328685
v -0.164342 0.490507 0.284649
v -0.284649 0.490507 0.164342
v -0.328685 0.490507 0.000000
v -0.284649 0.490507 -0.164342
v -0.164342 0.490507 -0.284649
v -0.164342 -0.000915 -0.284649
v -0.284649 -0.000915 -0.164342
v -0.328685 -0.000915 0.000000
v -0.284649 -0.000915 0.164342
v -0.164342 -0.000915 0.284649
v 0.000000 -0.000915 0.328685
v 0.164342 -0.000915 0.284649
v 0.284649 -0.000915 0.164342
v 0.328685 -0.000915 0.000000
v 0.284649 -0.000915 -0.164342
v 0.164342 -0.000915 -0.284649
v 0.000000 -0.000915 -0.328685
v 0.087493 0.611871 -0.151542
v 0.000000 0.611871 -0.174986
v 0.151542 0.611871 -0.087493
v 0.174986 0.611871 0.000000
v 0.151542 0.611871 0.087493
v 0.087493 0.611871 0.151542
v 0.000000 0.611871 0.174986
v -0.087493 0.611871 0.151542
v -0.151542 0.611871 0.087493
v -0.174986 0.611871 0.000000
v -0.151542 0.611871 -0.087493
v -0.087493 0.611871 -0.151542
v 0.000000 0.688424 0.000000
vn -0.7071 -0.0000 0.7071
vn -0.9659 -0.0000 0.2588
vn -0.9659 -0.0000 -0.2588
vn 0.7071 -0.0000 -0.7071
vn -0.7071 -0.0000 -0.7071
vn 0.9659 -0.0000 -0.2588
vn 0.2588 -0.0000 -0.9659
vn -0.2588 -0.0000 -0.9659
vn 0.9659 -0.0000 0.2588
vn 0.7071 -0.0000 0.7071
vn -0.1638 0.7742 -0.6113
vn 0.2588 -0.0000 0.9659
vn -0.2588 -0.0000 0.9659
vn -0.0000 -1.0000 -0.0000
vn -0.3985 0.9109 -0.1068
vn 0.1638 0.7742 -0.6113
vn 0.6113 0.7742 -0.1638
vn -0.4475 0.7742 -0.4475
vn 0.4475 0.7742 -0.4475
vn -0.6113 0.7742 -0.1638
vn -0.6113 0.7742 0.1638
vn -0.4475 0.7742 0.4475
vn -0.1638 0.7742 0.6113
vn 0.1638 0.7742 0.6113
vn 0.4475 0.7742 0.4475
vn 0.6113 0.7742 0.1638
vn -0.1068 0.9109 0.3985
vn 0.3985 0.9109 0.1068
vn -0.2917 0.9109 -0.2917
vn 0.1068 0.9109 -0.3985
vn -0.2917 0.9109 0.2917
vn 0.2917 0.9109 0.2917
vn -0.1068 0.9109 -0.3985
vn 0.2917 0.9109 -0.2917
vn -0.3985 0.9109 0.1068
vn 0.1068 0.9109 0.3985
vn 0.3985 0.9109 -0.1068
vt 0.416667 1.000000
vt 0.333333 1.000000
vt 0.250000 1.000000
vt 0.166667 1.000000
vt 0.916667 1.000000
vt 0.833333 1.000000
vt 0.083333 1.000000
vt 0.750000 1.000000
vt 1.000000 1.000000
vt 0.000000 1.000000
vt 0.666667 1.000000
vt 0.583333 1.000000
vt 0.500000 1.000000
s 0
f 8/1/1 9/2/1 16/2/1 17/1/1
f 9/2/2 10/3/2 15/3/2 16/2/2
f 10/3/3 11/4/3 14/4/3 15/3/3
f 2/5/4 3/6/4 22/6/4 23/5/4
f 11/4/5 12/7/5 13/7/5 14/4/5
f 3/6/6 4/8/6 21/8/6 22/6/6
f 1/9/7 2/5/7 23/5/7 24/9/7
f 12/7/8 1/10/8 24/10/8 13/7/8
f 4/8/9 5/11/9 20/11/9 21/8/9
f 5/11/10 6/12/10 19/12/10 20/11/10
f 1/10/11 12/7/11 36/7/11 26/10/11
f 6/12/12 7/13/12 18/13/12 19/12/12
f 7/13/13 8/1/13 17/1/13 18/13/13
f 13/7/14 24/10/14 23/5/14 22/6/14 21/8/14 20/11/14 19/12/14 18/13/14 17/1/14 16/2/14 15/3/14 14/4/14
f 35/4/15 34/3/15 37/4/15
f 2/5/16 1/9/16 26/9/16 25/5/16
f 4/8/17 3/6/17 27/6/17 28/8/17
f 12/7/18 11/4/18 35/4/18 36/7/18
f 3/6/19 2/5/19 25/5/19 27/6/19
f 11/4/20 10/3/20 34/3/20 35/4/20
f 10/3/21 9/2/21 33/2/21 34/3/21
f 9/2/22 8/1/22 32/1/22 33/2/22
f 8/1/23 7/13/23 31/13/23 32/1/23
f 7/13/24 6/12/24 30/12/24 31/13/24
f 6/12/25 5/11/25 29/11/25 30/12/25
f 5/11/26 4/8/26 28/8/26 29/11/26
f 32/1/27 31/13/27 37/1/27
f 29/11/28 28/8/28 37/11/28
f 36/7/29 35/4/29 37/7/29
f 25/5/30 26/9/30 37/5/30
f 33/2/31 32/1/31 37/2/31
f 30/12/32 29/11/32 37/12/32
f 26/10/33 36/7/33 37/10/33
f 27/6/34 25/5/34 37/6/34
f 34/3/35 33/2/35 37/3/35
f 31/13/36 30/12/36 37/13/36
f 28/8/37 27/6/37 37/8/37
