# Blender 4.1.1
# www.blender.org
o DomeModern
v 0.000000 -0.000000 -0.312500
v 0.000000 0.168449 -0.312500
v 0.080881 -0.000000 -0.301852
v 0.080881 0.168449 -0.301852
v 0.156250 -0.000000 -0.270633
v 0.156250 0.168449 -0.270633
v 0.220971 -0.000000 -0.220971
v 0.220971 0.168449 -0.220971
v 0.270633 -0.000000 -0.156250
v 0.270633 0.168449 -0.156250
v 0.301852 -0.000000 -0.080881
v 0.301852 0.168449 -0.080881
v 0.312500 -0.000000 0.000000
v 0.312500 0.168449 0.000000
v 0.301852 -0.000000 0.080881
v 0.301852 0.168449 0.080881
v 0.270633 -0.000000 0.156250
v 0.270633 0.168449 0.156250
v 0.220971 -0.000000 0.220971
v 0.220971 0.168449 0.220971
v 0.156250 -0.000000 0.270633
v 0.156250 0.168449 0.270633
v 0.080881 -0.000000 0.301852
v 0.080881 0.168449 0.301852
v 0.000000 -0.000000 0.312500
v 0.000000 0.168449 0.312500
v -0.080881 -0.000000 0.301852
v -0.080881 0.168449 0.301852
v -0.156250 -0.000000 0.270633
v -0.156250 0.168449 0.270633
v -0.220971 -0.000000 0.220971
v -0.220971 0.168449 0.220971
v -0.270633 -0.000000 0.156250
v -0.270633 0.168449 0.156250
v -0.301852 -0.000000 0.080881
v -0.301852 0.168449 0.080881
v -0.312500 -0.000000 0.000000
v -0.312500 0.168449 0.000000
v -0.301852 -0.000000 -0.080881
v -0.301852 0.168449 -0.080881
v -0.270633 -0.000000 -0.156250
v -0.270633 0.168449 -0.156250
v -0.220971 -0.000000 -0.220971
v -0.220971 0.168449 -0.220971
v -0.156250 -0.000000 -0.270633
v -0.156250 0.168449 -0.270633
v -0.080881 -0.000000 -0.301852
v -0.080881 0.168449 -0.301852
v 0.072673 0.214180 -0.271220
v -0.000000 0.214180 -0.280788
v 0.140394 0.214180 -0.243170
v 0.198547 0.214180 -0.198547
v 0.243170 0.214180 -0.140394
v 0.271220 0.214180 -0.072673
v 0.280788 0.214180 0.000000
v 0.271220 0.214180 0.072673
v 0.243170 0.214180 0.140394
v 0.198547 0.214180 0.198547
v 0.140394 0.214180 0.243170
v 0.072673 0.214180 0.271220
v -0.000000 0.214180 0.280788
v -0.072673 0.214180 0.271220
v -0.140394 0.214180 0.243170
v -0.198547 0.214180 0.198547
v -0.243170 0.214180 0.140394
v -0.271220 0.214180 0.072673
v -0.280788 0.214180 0.000000
v -0.271220 0.214180 -0.072673
v -0.243170 0.214180 -0.140394
v -0.198547 0.214180 -0.198547
v -0.140394 0.214180 -0.243170
v -0.072673 0.214180 -0.271220
v 0.072673 0.428018 -0.271220
v -0.000000 0.428018 -0.280788
v 0.140394 0.428018 -0.243170
v 0.198547 0.428018 -0.198547
v 0.243170 0.428018 -0.140394
v 0.271220 0.428018 -0.072673
v 0.280788 0.428018 0.000000
v 0.271220 0.428018 0.072673
v 0.243170 0.428018 0.140394
v 0.198547 0.428018 0.198547
v 0.140394 0.428018 0.243170
v 0.072673 0.428018 0.271220
v -0.000000 0.428018 0.280788
v -0.072673 0.428018 0.271220
v -0.140394 0.428018 0.243170
v -0.198547 0.428018 0.198547
v -0.243170 0.428018 0.140394
v -0.271220 0.428018 0.072673
v -0.280788 0.428018 0.000000
v -0.271220 0.428018 -0.072673
v -0.243170 0.428018 -0.140394
v -0.198547 0.428018 -0.198547
v -0.140394 0.428018 -0.243170
v -0.072673 0.428018 -0.271220
v 0.274198 0.435535 0.073471
v 0.200727 0.435535 0.200727
v -0.274198 0.435535 0.073471
v -0.283870 0.435535 0.000000
v 0.023804 0.633238 -0.088836
v 0.073471 0.435281 -0.274198
v 0.043580 0.618170 -0.162641
v 0.060345 0.575258 -0.225210
v 0.071547 0.511036 -0.267017
v -0.000000 0.435281 -0.283870
v -0.000000 0.633238 -0.091970
v -0.000000 0.511036 -0.276437
v -0.000000 0.575258 -0.233155
v -0.000000 0.618170 -0.168379
v 0.045985 0.633238 -0.079648
v 0.141935 0.435281 -0.245839
v 0.084189 0.618170 -0.145820
v 0.116577 0.575258 -0.201918
v 0.138218 0.511036 -0.239401
v 0.065033 0.633238 -0.065033
v 0.200727 0.435281 -0.200727
v 0.119062 0.618170 -0.119062
v 0.164865 0.575258 -0.164865
v 0.195470 0.511036 -0.195470
v 0.079648 0.633238 -0.045985
v 0.245839 0.435281 -0.141935
v 0.145820 0.618170 -0.084189
v 0.201918 0.575258 -0.116577
v 0.239401 0.511036 -0.138218
v 0.088836 0.633238 -0.023804
v 0.274198 0.435281 -0.073471
v 0.162641 0.618170 -0.043580
v 0.225210 0.575258 -0.060345
v 0.267017 0.511036 -0.071547
v 0.091970 0.633238 -0.000000
v 0.283870 0.435281 0.000000
v 0.168379 0.618170 -0.000000
v 0.233155 0.575258 -0.000000
v 0.276437 0.511036 -0.000000
v 0.088836 0.633238 0.023804
v 0.162641 0.618170 0.043580
v 0.225210 0.575258 0.060345
v 0.267017 0.511036 0.071547
v 0.079648 0.633238 0.045985
v 0.245839 0.435281 0.141935
v 0.145820 0.618170 0.084189
v 0.201918 0.575258 0.116577
v 0.239401 0.511036 0.138218
v 0.065033 0.633238 0.065033
v 0.119062 0.618170 0.119062
v 0.164865 0.575258 0.164865
v 0.195470 0.511036 0.195470
v 0.045985 0.633238 0.079648
v 0.141935 0.435281 0.245839
v 0.084189 0.618170 0.145820
v 0.116577 0.575258 0.201918
v 0.138218 0.511036 0.239401
v 0.023804 0.633238 0.088836
v 0.073471 0.435281 0.274198
v 0.043580 0.618170 0.162641
v 0.060345 0.575258 0.225210
v 0.071547 0.511036 0.267017
v -0.000000 0.633238 0.091970
v -0.000000 0.435281 0.283870
v -0.000000 0.618170 0.168379
v -0.000000 0.575258 0.233155
v -0.000000 0.511036 0.276437
v -0.023803 0.633238 0.088836
v -0.073471 0.435281 0.274198
v -0.043580 0.618170 0.162641
v -0.060345 0.575258 0.225210
v -0.071547 0.511036 0.267017
v -0.045985 0.633238 0.079648
v -0.141935 0.435281 0.245839
v -0.084189 0.618170 0.145820
v -0.116577 0.575258 0.201918
v -0.138218 0.511036 0.239401
v -0.065033 0.633238 0.065033
v -0.200727 0.435281 0.200727
v -0.119062 0.618170 0.119062
v -0.164865 0.575258 0.164865
v -0.195470 0.511036 0.195470
v -0.079648 0.633238 0.045985
v -0.245839 0.435281 0.141935
v -0.145820 0.618170 0.084189
v -0.201918 0.575258 0.116577
v -0.239401 0.511036 0.138218
v -0.088836 0.633238 0.023804
v -0.162641 0.618170 0.043580
v -0.225210 0.575258 0.060345
v -0.267017 0.511036 0.071547
v -0.091970 0.633238 0.000000
v -0.168379 0.618170 0.000000
v -0.233155 0.575258 0.000000
v -0.276437 0.511036 0.000000
v -0.088836 0.633238 -0.023804
v -0.274198 0.435281 -0.073471
v -0.162641 0.618170 -0.043580
v -0.225210 0.575258 -0.060345
v -0.267017 0.511036 -0.071547
v -0.079648 0.633238 -0.045985
v -0.245839 0.435281 -0.141935
v -0.145820 0.618170 -0.084189
v -0.201918 0.575258 -0.116577
v -0.239401 0.511036 -0.138218
v -0.065033 0.633238 -0.065033
v -0.200727 0.435281 -0.200727
v -0.119062 0.618170 -0.119062
v -0.164865 0.575258 -0.164865
v -0.195470 0.511036 -0.195470
v -0.045985 0.633238 -0.079648
v -0.141935 0.435281 -0.245839
v -0.084189 0.618170 -0.145820
v -0.116577 0.575258 -0.201918
v -0.138218 0.511036 -0.239401
v -0.023803 0.633238 -0.088836
v -0.073471 0.435281 -0.274198
v -0.043580 0.618170 -0.162641
v -0.060345 0.575258 -0.225210
v -0.071547 0.511036 -0.267017
vn -0.0000 -0.0000 -1.0000
vn 0.2588 -0.0000 -0.9659
vn 0.5000 -0.0000 -0.8660
vn 0.7071 -0.0000 -0.7071
vn 0.8660 -0.0000 -0.5000
vn 0.9659 -0.0000 -0.2588
vn 1.0000 -0.0000 -0.0000
vn 0.9659 -0.0000 0.2588
vn 0.8660 -0.0000 0.5000
vn 0.7071 -0.0000 0.7071
vn 0.5000 -0.0000 0.8660
vn 0.2588 -0.0000 0.9659
vn -0.0000 -0.0000 1.0000
vn -0.2588 -0.0000 0.9659
vn -0.5000 -0.0000 0.8660
vn -0.7071 -0.0000 0.7071
vn -0.8660 -0.0000 0.5000
vn -0.9659 -0.0000 0.2588
vn -1.0000 -0.0000 -0.0000
vn -0.9659 -0.0000 -0.2588
vn -0.8660 -0.0000 -0.5000
vn -0.7071 -0.0000 -0.7071
vn -0.5000 -0.0000 -0.8660
vn 0.8218 0.5698 -0.0000
vn 0.7937 0.5698 -0.2127
vn -0.2588 -0.0000 -0.9659
vn 0.2127 0.5698 0.7937
vn 0.4109 0.5698 0.7117
vn -0.7117 0.5698 0.4109
vn -0.5811 0.5698 0.5811
vn -0.5811 0.5698 -0.5811
vn -0.7117 0.5698 -0.4109
vn 0.7117 0.5698 -0.4109
vn 0.5811 0.5698 -0.5811
vn 0.5811 0.5698 0.5811
vn 0.7117 0.5698 0.4109
vn -0.4109 0.5698 0.7117
vn -0.2127 0.5698 0.7937
vn -0.7937 0.5698 -0.2127
vn -0.8218 0.5698 -0.0000
vn -0.0000 0.5698 -0.8218
vn -0.2127 0.5698 -0.7937
vn 0.4109 0.5698 -0.7117
vn 0.2127 0.5698 -0.7937
vn 0.7937 0.5698 0.2127
vn -0.0000 0.5698 0.8218
vn -0.7937 0.5698 0.2127
vn -0.4109 0.5698 -0.7117
vn -0.7985 -0.3878 0.4604
vn -0.6509 -0.3907 0.6509
vn -0.7985 -0.3878 0.4603
vn 0.6526 -0.3849 0.6526
vn 0.7993 -0.3850 0.4615
vn -0.0000 -0.3907 -0.9205
vn -0.2382 -0.3907 -0.8892
vn 0.4603 -0.3907 -0.7972
vn 0.2382 -0.3907 -0.8892
vn -0.8927 -0.3822 0.2387
vn -0.8928 -0.3822 0.2386
vn 0.4613 -0.3879 0.7980
vn 0.4614 -0.3878 0.7979
vn 0.6509 -0.3907 -0.6509
vn -0.9241 -0.3822 0.0005
vn -0.9241 -0.3822 0.0006
vn 0.2382 -0.3907 0.8892
vn 0.7972 -0.3907 -0.4603
vn -0.8904 -0.3878 -0.2381
vn -0.8905 -0.3878 -0.2380
vn -0.0000 -0.3907 0.9205
vn 0.8892 -0.3907 -0.2382
vn -0.7972 -0.3907 -0.4603
vn -0.2382 -0.3907 0.8892
vn 0.9217 -0.3878 0.0005
vn 0.9217 -0.3878 0.0006
vn -0.6509 -0.3907 -0.6509
vn -0.4603 -0.3907 0.7972
vn 0.8915 -0.3849 0.2389
vn -0.4603 -0.3907 -0.7972
vn 0.0272 0.9944 -0.1016
vn -0.0000 0.9944 -0.1052
vn -0.0272 0.9944 -0.1016
vn -0.0526 0.9944 -0.0911
vn -0.0744 0.9944 -0.0744
vn -0.0911 0.9944 -0.0526
vn -0.1016 0.9944 -0.0272
vn -0.1052 0.9944 -0.0000
vn -0.1016 0.9944 0.0272
vn -0.0911 0.9944 0.0526
vn -0.0744 0.9944 0.0744
vn -0.0526 0.9944 0.0911
vn -0.0272 0.9944 0.1016
vn -0.0000 0.9944 0.1052
vn 0.0272 0.9944 0.1016
vn 0.0526 0.9944 0.0911
vn 0.0744 0.9944 0.0744
vn 0.0911 0.9944 0.0526
vn 0.1016 0.9944 0.0272
vn 0.1052 0.9944 -0.0000
vn 0.1016 0.9944 -0.0272
vn 0.0911 0.9944 -0.0526
vn 0.0744 0.9944 -0.0744
vn 0.0526 0.9944 -0.0911
vn 0.2576 0.0977 -0.9613
vn -0.0000 0.0977 -0.9952
vn -0.0000 0.3323 -0.9432
vn 0.2441 0.3323 -0.9110
vn -0.0000 0.7019 -0.7123
vn 0.1844 0.7019 -0.6880
vn -0.0000 0.9192 -0.3937
vn 0.1019 0.9192 -0.3803
vn 0.4976 0.0977 -0.8619
vn 0.4716 0.3323 -0.8168
vn 0.3561 0.7019 -0.6169
vn 0.1969 0.9192 -0.3410
vn 0.7037 0.0977 -0.7037
vn 0.6669 0.3323 -0.6669
vn 0.5037 0.7019 -0.5037
vn 0.2784 0.9192 -0.2784
vn 0.8619 0.0977 -0.4976
vn 0.8168 0.3323 -0.4716
vn 0.6169 0.7019 -0.3561
vn 0.3410 0.9192 -0.1969
vn 0.9613 0.0977 -0.2576
vn 0.9110 0.3323 -0.2441
vn 0.6880 0.7019 -0.1844
vn 0.3803 0.9192 -0.1019
vn 0.9952 0.0977 -0.0002
vn 0.9432 0.3323 -0.0000
vn 0.7123 0.7019 -0.0000
vn 0.3937 0.9192 -0.0000
vn 0.9613 0.0978 0.2576
vn 0.9110 0.3324 0.2441
vn 0.6880 0.7019 0.1844
vn 0.3803 0.9192 0.1019
vn 0.8619 0.0978 0.4976
vn 0.8168 0.3324 0.4716
vn 0.6169 0.7019 0.3561
vn 0.3410 0.9192 0.1969
vn 0.7037 0.0978 0.7037
vn 0.6669 0.3324 0.6669
vn 0.5037 0.7019 0.5037
vn 0.2784 0.9192 0.2784
vn 0.4974 0.0977 0.8620
vn 0.4715 0.3323 0.8168
vn 0.3561 0.7019 0.6169
vn 0.1969 0.9192 0.3410
vn 0.2576 0.0977 0.9613
vn 0.2441 0.3323 0.9110
vn 0.1844 0.7019 0.6880
vn 0.1019 0.9192 0.3803
vn -0.0000 0.0977 0.9952
vn -0.0000 0.3323 0.9432
vn -0.0000 0.7019 0.7123
vn -0.0000 0.9192 0.3937
vn -0.2576 0.0977 0.9613
vn -0.2441 0.3323 0.9110
vn -0.1844 0.7019 0.6880
vn -0.1019 0.9192 0.3803
vn -0.4976 0.0977 0.8619
vn -0.4716 0.3323 0.8168
vn -0.3561 0.7019 0.6169
vn -0.1969 0.9192 0.3410
vn -0.7037 0.0977 0.7037
vn -0.6669 0.3323 0.6669
vn -0.5037 0.7019 0.5037
vn -0.2784 0.9192 0.2784
vn -0.8618 0.0977 0.4978
vn -0.8168 0.3323 0.4716
vn -0.6169 0.7019 0.3561
vn -0.3410 0.9192 0.1969
vn -0.9612 0.0979 0.2578
vn -0.9110 0.3324 0.2441
vn -0.6880 0.7019 0.1844
vn -0.3803 0.9192 0.1019
vn -0.9952 0.0979 -0.0002
vn -0.9431 0.3324 -0.0000
vn -0.7123 0.7019 -0.0000
vn -0.3937 0.9192 -0.0000
vn -0.9612 0.0977 -0.2578
vn -0.9110 0.3323 -0.2442
vn -0.6880 0.7019 -0.1844
vn -0.3803 0.9192 -0.1019
vn -0.8619 0.0977 -0.4976
vn -0.8168 0.3323 -0.4716
vn -0.6169 0.7019 -0.3561
vn -0.3410 0.9192 -0.1969
vn -0.7037 0.0977 -0.7037
vn -0.6669 0.3323 -0.6669
vn -0.5037 0.7019 -0.5037
vn -0.2784 0.9192 -0.2784
vn -0.4976 0.0977 -0.8619
vn -0.4716 0.3323 -0.8168
vn -0.3561 0.7019 -0.6169
vn -0.1969 0.9192 -0.3410
vn -0.2576 0.0977 -0.9613
vn -0.2441 0.3323 -0.9110
vn -0.1844 0.7019 -0.6880
vn -0.1019 0.9192 -0.3803
vt 0.193102 0.227153
vt 0.232178 0.228866
vt 0.232156 0.247303
vt 0.192526 0.247056
vt 0.232622 0.265833
vt 0.192669 0.267142
vt 0.233916 0.284585
vt 0.193553 0.287474
vt 0.235986 0.303544
vt 0.195225 0.308037
vt 0.238817 0.322688
vt 0.197713 0.328801
vt 0.242389 0.342007
vt 0.201035 0.349729
vt 0.246619 0.361518
vt 0.205203 0.370761
vt 0.251786 0.380912
vt 0.210223 0.391779
vt 0.257374 0.400334
vt 0.216037 0.412745
vt 0.264089 0.419551
vt 0.222666 0.433651
vt 0.271533 0.438806
vt 0.230059 0.454490
vt 0.280470 0.458407
vt 0.238149 0.475321
vt 0.251141 0.011949
vt 0.283588 0.027595
vt 0.275584 0.042839
vt 0.243564 0.027663
vt 0.268612 0.057990
vt 0.236104 0.043809
vt 0.262399 0.073491
vt 0.229070 0.060378
vt 0.256780 0.089411
vt 0.222555 0.077416
vt 0.251712 0.105758
vt 0.216606 0.094921
vt 0.247172 0.122524
vt 0.211256 0.112874
vt 0.243084 0.139693
vt 0.206541 0.131232
vt 0.239782 0.157124
vt 0.202511 0.149903
vt 0.236791 0.174727
vt 0.199138 0.168835
vt 0.234738 0.192557
vt 0.196448 0.188024
vt 0.252531 0.320294
vt 0.256263 0.339075
vt 0.233130 0.210543
vt 0.194429 0.207449
vt 0.368275 0.133290
vt 0.368275 0.150625
vt 0.317706 0.150625
vt 0.317706 0.133290
vt 0.277512 0.414587
vt 0.284980 0.432830
vt 0.273596 0.077620
vt 0.268306 0.093137
vt 0.252128 0.159328
vt 0.249607 0.176539
vt 0.247341 0.283285
vt 0.249562 0.301697
vt 0.265450 0.377112
vt 0.271309 0.395877
vt 0.285997 0.048104
vt 0.279451 0.062576
vt 0.259353 0.125491
vt 0.255662 0.142384
vt 0.246081 0.211298
vt 0.245507 0.229224
vt 0.245132 0.247174
vt 0.245859 0.265089
vt 0.260761 0.358108
vt 0.293808 0.450823
vt 0.263559 0.109093
vt 0.247313 0.193841
vt 0.293808 0.034217
vt 0.614308 0.775506
vt 0.602840 0.754850
vt 0.605152 0.753943
vt 0.616378 0.773984
vt 0.368275 0.289300
vt 0.368275 0.306635
vt 0.317706 0.306635
vt 0.317706 0.289300
vt 0.368275 0.410642
vt 0.368275 0.427976
vt 0.317706 0.427976
vt 0.317706 0.410642
vt 0.368275 0.115956
vt 0.317706 0.115956
vt 0.368275 0.271966
vt 0.317706 0.271966
vt 0.368275 0.393307
vt 0.317706 0.393307
vt 0.368275 0.098621
vt 0.317706 0.098621
vt 0.368275 0.254632
vt 0.317706 0.254632
vt 0.368275 0.375973
vt 0.317706 0.375973
vt 0.368275 0.081287
vt 0.317706 0.081287
vt 0.368275 0.237297
vt 0.317706 0.237297
vt 0.368275 0.202628
vt 0.368275 0.219963
vt 0.317706 0.219963
vt 0.317706 0.202628
vt 0.368275 0.358638
vt 0.317706 0.358638
vt 0.368275 0.063952
vt 0.317706 0.063952
vt 0.368275 0.185294
vt 0.317706 0.185294
vt 0.368275 0.341304
vt 0.317706 0.341304
vt 0.368275 0.046618
vt 0.317706 0.046618
vt 0.368275 0.167959
vt 0.317706 0.167959
vt 0.368275 0.323969
vt 0.317706 0.323969
vt 0.368275 0.029283
vt 0.317706 0.029283
vt 0.368275 0.011949
vt 0.317706 0.011949
vt 0.652801 0.636448
vt 0.676014 0.630833
vt 0.676306 0.633331
vt 0.653810 0.638952
vt 0.770317 0.756572
vt 0.758449 0.776987
vt 0.756451 0.775414
vt 0.767983 0.755574
vt 0.776928 0.710118
vt 0.776857 0.733825
vt 0.774338 0.733464
vt 0.774402 0.710420
vt 0.630956 0.793121
vt 0.632641 0.790969
vt 0.632023 0.648557
vt 0.633590 0.650584
vt 0.771232 0.687152
vt 0.768903 0.688081
vt 0.652098 0.805084
vt 0.653088 0.802620
vt 0.615392 0.665367
vt 0.617400 0.666922
vt 0.759452 0.666411
vt 0.757387 0.667984
vt 0.675127 0.810861
vt 0.675427 0.808352
vt 0.603310 0.685710
vt 0.605654 0.686697
vt 0.742706 0.649678
vt 0.741185 0.651640
vt 0.698447 0.810609
vt 0.698127 0.808134
vt 0.597245 0.708601
vt 0.599757 0.708931
vt 0.722597 0.637773
vt 0.721584 0.640095
vt 0.720907 0.804912
vt 0.719994 0.802628
vt 0.597245 0.732093
vt 0.599747 0.731793
vt 0.699789 0.630943
vt 0.699394 0.633593
vt 0.741337 0.793425
vt 0.739800 0.791359
vt 0.705035 0.723610
vt 0.703765 0.728186
vt 0.701355 0.732275
vt 0.697964 0.735605
vt 0.693824 0.737936
vt 0.689218 0.739116
vt 0.684465 0.739063
vt 0.679887 0.737780
vt 0.675795 0.735361
vt 0.672469 0.731972
vt 0.670131 0.727829
vt 0.668946 0.723221
vt 0.668996 0.718469
vt 0.670274 0.713895
vt 0.672695 0.709802
vt 0.676092 0.706480
vt 0.680238 0.704148
vt 0.684847 0.702969
vt 0.689601 0.703025
vt 0.694176 0.704308
vt 0.698255 0.706731
vt 0.701567 0.710124
vt 0.703897 0.714263
vt 0.705075 0.718864
vt 0.748778 0.747415
vt 0.753122 0.730514
vt 0.732604 0.740391
vt 0.735963 0.727916
vt 0.717919 0.734199
vt 0.720318 0.725762
vt 0.753621 0.712981
vt 0.735967 0.715093
vt 0.720321 0.717006
vt 0.748902 0.696190
vt 0.732945 0.702614
vt 0.718220 0.708511
vt 0.740544 0.680931
vt 0.726483 0.691528
vt 0.713873 0.700911
vt 0.728347 0.668301
vt 0.717588 0.682236
vt 0.707740 0.694703
vt 0.713325 0.659150
vt 0.706515 0.675544
vt 0.700274 0.690179
vt 0.696319 0.654746
vt 0.694056 0.672004
vt 0.691841 0.687760
vt 0.678795 0.654208
vt 0.681078 0.671762
vt 0.683032 0.687612
vt 0.661952 0.658946
vt 0.668453 0.674917
vt 0.674461 0.689749
vt 0.646604 0.667380
vt 0.657242 0.681478
vt 0.666827 0.694158
vt 0.633929 0.679630
vt 0.647841 0.690440
vt 0.660497 0.700278
vt 0.625500 0.694886
vt 0.641401 0.701752
vt 0.656111 0.707902
vt 0.620678 0.711618
vt 0.638013 0.714252
vt 0.653740 0.716332
vt 0.620318 0.729217
vt 0.637999 0.727100
vt 0.653638 0.725099
vt 0.625012 0.746021
vt 0.641038 0.739575
vt 0.655780 0.733615
vt 0.633311 0.761467
vt 0.647535 0.750669
vt 0.660157 0.741222
vt 0.645965 0.773789
vt 0.656521 0.759918
vt 0.666324 0.747424
vt 0.661008 0.782820
vt 0.667646 0.766571
vt 0.673815 0.751935
vt 0.677911 0.787499
vt 0.680101 0.770093
vt 0.682253 0.754332
vt 0.695419 0.787723
vt 0.693042 0.770271
vt 0.691047 0.754457
vt 0.712073 0.782992
vt 0.705596 0.767095
vt 0.699592 0.752314
vt 0.727395 0.774712
vt 0.716752 0.760574
vt 0.707205 0.747922
vt 0.739624 0.762247
vt 0.726104 0.751631
vt 0.713525 0.741808
s 1
f 1/1/1 2/2/1 4/3/2 3/4/2
f 3/4/2 4/3/2 6/5/3 5/6/3
f 5/6/3 6/5/3 8/7/4 7/8/4
f 7/8/4 8/7/4 10/9/5 9/10/5
f 9/10/5 10/9/5 12/11/6 11/12/6
f 11/12/6 12/11/6 14/13/7 13/14/7
f 13/14/7 14/13/7 16/15/8 15/16/8
f 15/16/8 16/15/8 18/17/9 17/18/9
f 17/18/9 18/17/9 20/19/10 19/20/10
f 19/20/10 20/19/10 22/21/11 21/22/11
f 21/22/11 22/21/11 24/23/12 23/24/12
f 23/24/12 24/23/12 26/25/13 25/26/13
f 25/27/13 26/28/13 28/29/14 27/30/14
f 27/30/14 28/29/14 30/31/15 29/32/15
f 29/32/15 30/31/15 32/33/16 31/34/16
f 31/34/16 32/33/16 34/35/17 33/36/17
f 33/36/17 34/35/17 36/37/18 35/38/18
f 35/38/18 36/37/18 38/39/19 37/40/19
f 37/40/19 38/39/19 40/41/20 39/42/20
f 39/42/20 40/41/20 42/43/21 41/44/21
f 41/44/21 42/43/21 44/45/22 43/46/22
f 43/46/22 44/45/22 46/47/23 45/48/23
f 14/13/24 12/11/25 54/49/25 55/50/24
f 45/48/23 46/47/23 48/51/26 47/52/26
f 47/52/26 48/51/26 2/2/1 1/1/1
f 54/53/6 53/54/5 77/55/5 78/56/6
f 24/23/27 22/21/28 59/57/28 60/58/27
f 34/35/29 32/33/30 64/59/30 65/60/29
f 44/45/31 42/43/32 69/61/32 70/62/31
f 10/9/33 8/7/34 52/63/34 53/64/33
f 20/19/35 18/17/36 57/65/36 58/66/35
f 30/31/37 28/29/38 62/67/38 63/68/37
f 40/41/39 38/39/40 67/69/40 68/70/39
f 2/2/41 48/51/42 72/71/42 50/72/41
f 6/5/43 4/3/44 49/73/44 51/74/43
f 16/15/45 14/13/24 55/50/24 56/75/45
f 26/25/46 24/23/27 60/58/27 61/76/46
f 36/37/47 34/35/29 65/60/29 66/77/47
f 46/47/48 44/45/31 70/62/31 71/78/48
f 12/11/25 10/9/33 53/64/33 54/49/25
f 22/21/28 20/19/35 58/66/35 59/57/28
f 32/33/30 30/31/37 63/68/37 64/59/30
f 42/43/32 40/41/39 68/70/39 69/61/32
f 8/7/34 6/5/43 51/74/43 52/63/34
f 18/17/36 16/15/45 56/75/45 57/65/36
f 4/3/44 2/2/41 50/72/41 49/73/44
f 28/29/38 26/28/46 61/79/46 62/67/38
f 38/39/40 36/37/47 66/77/47 67/69/40
f 48/51/42 46/47/48 71/78/48 72/71/42
f 89/80/49 88/81/50 175/82/50 180/83/51
f 69/84/21 68/85/20 92/86/20 93/87/21
f 62/88/14 61/89/13 85/90/13 86/91/14
f 55/92/7 54/53/6 78/56/6 79/93/7
f 70/94/22 69/84/21 93/87/21 94/95/22
f 63/96/15 62/88/14 86/91/14 87/97/15
f 56/98/8 55/92/7 79/93/7 80/99/8
f 71/100/23 70/94/22 94/95/22 95/101/23
f 64/102/16 63/96/15 87/97/15 88/103/16
f 57/104/9 56/98/8 80/99/8 81/105/9
f 72/106/26 71/100/23 95/101/23 96/107/26
f 49/108/2 50/109/1 74/110/1 73/111/2
f 65/112/17 64/102/16 88/103/16 89/113/17
f 58/114/10 57/104/9 81/105/9 82/115/10
f 50/109/1 72/106/26 96/107/26 74/110/1
f 51/116/3 49/108/2 73/111/2 75/117/3
f 66/118/18 65/112/17 89/113/17 90/119/18
f 59/120/11 58/114/10 82/115/10 83/121/11
f 52/122/4 51/116/3 75/117/3 76/123/4
f 67/124/19 66/118/18 90/119/18 91/125/19
f 60/126/12 59/120/11 83/121/11 84/127/12
f 53/54/5 52/122/4 76/123/4 77/55/5
f 68/85/20 67/124/19 91/125/19 92/86/20
f 61/128/13 60/126/12 84/127/12 85/129/13
f 82/130/52 81/131/53 141/132/53 98/133/52
f 74/134/54 96/135/55 213/136/55 106/137/54
f 75/138/56 73/139/57 102/140/57 112/141/56
f 90/142/58 89/80/49 180/83/51 99/143/59
f 83/144/60 82/130/52 98/133/52 150/145/61
f 76/146/62 75/138/56 112/141/56 117/147/62
f 91/148/63 90/142/58 99/143/59 100/149/64
f 84/150/65 83/144/60 150/145/61 155/151/65
f 77/152/66 76/146/62 117/147/62 122/153/66
f 92/154/67 91/148/63 100/149/64 193/155/68
f 85/156/69 84/150/65 155/151/65 160/157/69
f 78/158/70 77/152/66 122/153/66 127/159/70
f 93/160/71 92/154/67 193/155/68 198/161/71
f 86/162/72 85/156/69 160/157/69 165/163/72
f 79/164/73 78/158/70 127/159/70 132/165/74
f 94/166/75 93/160/71 198/161/71 203/167/75
f 87/168/76 86/162/72 165/163/72 170/169/76
f 80/170/77 79/164/73 132/165/74 97/171/77
f 95/172/78 94/166/75 203/167/75 208/173/78
f 88/81/50 87/168/76 170/169/76 175/82/50
f 81/131/53 80/170/77 97/171/77 141/132/53
f 96/135/55 95/172/78 208/173/78 213/136/55
f 73/139/57 74/134/54 106/137/54 102/140/57
f 101/174/79 107/175/80 212/176/81 207/177/82 202/178/83 197/179/84 192/180/85 188/181/86 184/182/87 179/183/88 174/184/89 169/185/90 164/186/91 159/187/92 154/188/93 149/189/94 145/190/95 140/191/96 136/192/97 131/193/98 126/194/99 121/195/100 116/196/101 111/197/102
f 102/140/103 106/137/104 108/198/105 105/199/106
f 105/199/106 108/198/105 109/200/107 104/201/108
f 104/201/108 109/200/107 110/202/109 103/203/110
f 103/203/110 110/202/109 107/175/80 101/174/79
f 112/141/111 102/140/103 105/199/106 115/204/112
f 115/204/112 105/199/106 104/201/108 114/205/113
f 114/205/113 104/201/108 103/203/110 113/206/114
f 113/206/114 103/203/110 101/174/79 111/197/102
f 117/147/115 112/141/111 115/204/112 120/207/116
f 120/207/116 115/204/112 114/205/113 119/208/117
f 119/208/117 114/205/113 113/206/114 118/209/118
f 118/209/118 113/206/114 111/197/102 116/196/101
f 122/153/119 117/147/115 120/207/116 125/210/120
f 125/210/120 120/207/116 119/208/117 124/211/121
f 124/211/121 119/208/117 118/209/118 123/212/122
f 123/212/122 118/209/118 116/196/101 121/195/100
f 127/159/123 122/153/119 125/210/120 130/213/124
f 130/213/124 125/210/120 124/211/121 129/214/125
f 129/214/125 124/211/121 123/212/122 128/215/126
f 128/215/126 123/212/122 121/195/100 126/194/99
f 132/165/127 127/159/123 130/213/124 135/216/128
f 135/216/128 130/213/124 129/214/125 134/217/129
f 134/217/129 129/214/125 128/215/126 133/218/130
f 133/218/130 128/215/126 126/194/99 131/193/98
f 97/171/131 132/165/127 135/216/128 139/219/132
f 139/219/132 135/216/128 134/217/129 138/220/133
f 138/220/133 134/217/129 133/218/130 137/221/134
f 137/221/134 133/218/130 131/193/98 136/192/97
f 141/132/135 97/171/131 139/219/132 144/222/136
f 144/222/136 139/219/132 138/220/133 143/223/137
f 143/223/137 138/220/133 137/221/134 142/224/138
f 142/224/138 137/221/134 136/192/97 140/191/96
f 98/133/139 141/132/135 144/222/136 148/225/140
f 148/225/140 144/222/136 143/223/137 147/226/141
f 147/226/141 143/223/137 142/224/138 146/227/142
f 146/227/142 142/224/138 140/191/96 145/190/95
f 150/145/143 98/133/139 148/225/140 153/228/144
f 153/228/144 148/225/140 147/226/141 152/229/145
f 152/229/145 147/226/141 146/227/142 151/230/146
f 151/230/146 146/227/142 145/190/95 149/189/94
f 155/151/147 150/145/143 153/228/144 158/231/148
f 158/231/148 153/228/144 152/229/145 157/232/149
f 157/232/149 152/229/145 151/230/146 156/233/150
f 156/233/150 151/230/146 149/189/94 154/188/93
f 160/157/151 155/151/147 158/231/148 163/234/152
f 163/234/152 158/231/148 157/232/149 162/235/153
f 162/235/153 157/232/149 156/233/150 161/236/154
f 161/236/154 156/233/150 154/188/93 159/187/92
f 165/163/155 160/157/151 163/234/152 168/237/156
f 168/237/156 163/234/152 162/235/153 167/238/157
f 167/238/157 162/235/153 161/236/154 166/239/158
f 166/239/158 161/236/154 159/187/92 164/186/91
f 170/169/159 165/163/155 168/237/156 173/240/160
f 173/240/160 168/237/156 167/238/157 172/241/161
f 172/241/161 167/238/157 166/239/158 171/242/162
f 171/242/162 166/239/158 164/186/91 169/185/90
f 175/82/163 170/169/159 173/240/160 178/243/164
f 178/243/164 173/240/160 172/241/161 177/244/165
f 177/244/165 172/241/161 171/242/162 176/245/166
f 176/245/166 171/242/162 169/185/90 174/184/89
f 180/83/167 175/82/163 178/243/164 183/246/168
f 183/246/168 178/243/164 177/244/165 182/247/169
f 182/247/169 177/244/165 176/245/166 181/248/170
f 181/248/170 176/245/166 174/184/89 179/183/88
f 99/143/171 180/83/167 183/246/168 187/249/172
f 187/249/172 183/246/168 182/247/169 186/250/173
f 186/250/173 182/247/169 181/248/170 185/251/174
f 185/251/174 181/248/170 179/183/88 184/182/87
f 100/149/175 99/143/171 187/249/172 191/252/176
f 191/252/176 187/249/172 186/250/173 190/253/177
f 190/253/177 186/250/173 185/251/174 189/254/178
f 189/254/178 185/251/174 184/182/87 188/181/86
f 193/155/179 100/149/175 191/252/176 196/255/180
f 196/255/180 191/252/176 190/253/177 195/256/181
f 195/256/181 190/253/177 189/254/178 194/257/182
f 194/257/182 189/254/178 188/181/86 192/180/85
f 198/161/183 193/155/179 196/255/180 201/258/184
f 201/258/184 196/255/180 195/256/181 200/259/185
f 200/259/185 195/256/181 194/257/182 199/260/186
f 199/260/186 194/257/182 192/180/85 197/179/84
f 203/167/187 198/161/183 201/258/184 206/261/188
f 206/261/188 201/258/184 200/259/185 205/262/189
f 205/262/189 200/259/185 199/260/186 204/263/190
f 204/263/190 199/260/186 197/179/84 202/178/83
f 208/173/191 203/167/187 206/261/188 211/264/192
f 211/264/192 206/261/188 205/262/189 210/265/193
f 210/265/193 205/262/189 204/263/190 209/266/194
f 209/266/194 204/263/190 202/178/83 207/177/82
f 213/136/195 208/173/191 211/264/192 216/267/196
f 216/267/196 211/264/192 210/265/193 215/268/197
f 215/268/197 210/265/193 209/266/194 214/269/198
f 214/269/198 209/266/194 207/177/82 212/176/81
f 106/137/104 213/136/195 216/267/196 108/198/105
f 108/198/105 216/267/196 215/268/197 109/200/107
f 109/200/107 215/268/197 214/269/198 110/202/109
f 110/202/109 214/269/198 212/176/81 107/175/80
