# Blender 4.1.1
# www.blender.org
o DomeRound
v -0.000000 0.102412 -0.312500
v 0.080881 0.091764 -0.301852
v 0.156250 0.081841 -0.270633
v 0.220971 0.055846 -0.220971
v 0.270633 0.035275 -0.156250
v 0.301852 0.022344 -0.080881
v 0.312500 0.016134 0.000000
v 0.301852 0.022344 0.080881
v 0.270633 0.035275 0.156250
v 0.220971 0.055845 0.220971
v 0.156250 0.081841 0.270633
v 0.080881 0.091764 0.301852
v -0.000000 0.102412 0.312500
v -0.080881 0.091764 0.301852
v -0.156250 0.081842 0.270633
v -0.220971 0.055846 0.220971
v -0.270633 0.035275 0.156250
v -0.301852 0.022344 0.080881
v -0.312500 0.016134 0.000000
v -0.301852 0.022344 -0.080881
v -0.270633 0.035275 -0.156250
v -0.220971 0.055846 -0.220971
v -0.156250 0.081841 -0.270633
v -0.080881 0.091764 -0.301852
v 0.069547 0.117999 -0.259551
v -0.000000 0.124950 -0.268707
v 0.134354 0.111522 -0.232707
v 0.190005 0.094552 -0.190005
v 0.232707 0.081124 -0.134354
v 0.259551 0.072683 -0.069547
v 0.268707 0.068629 -0.000000
v 0.259551 0.072683 0.069547
v 0.232707 0.081124 0.134354
v 0.190005 0.094552 0.190005
v 0.134354 0.111522 0.232707
v 0.069547 0.117999 0.259551
v -0.000000 0.124950 0.268707
v -0.069547 0.117999 0.259551
v -0.134354 0.111522 0.232707
v -0.190005 0.094552 0.190005
v -0.232707 0.081124 0.134354
v -0.259551 0.072683 0.069547
v -0.268707 0.068629 -0.000000
v -0.259551 0.072683 -0.069547
v -0.232707 0.081124 -0.134354
v -0.190005 0.094552 -0.190005
v -0.134354 0.111521 -0.232707
v -0.069547 0.117999 -0.259551
v 0.063158 0.166142 -0.235709
v -0.000000 0.168915 -0.244024
v 0.122012 0.163558 -0.211331
v 0.172551 0.156789 -0.172551
v 0.211331 0.151433 -0.122012
v 0.235709 0.148066 -0.063158
v 0.244024 0.146449 -0.000000
v 0.235709 0.148066 0.063158
v 0.211331 0.151433 0.122012
v 0.172551 0.156789 0.172551
v 0.122012 0.163558 0.211331
v 0.063158 0.166142 0.235709
v -0.000000 0.168915 0.244024
v -0.063158 0.166142 0.235709
v -0.122012 0.163558 0.211331
v -0.172551 0.156789 0.172551
v -0.211331 0.151433 0.122012
v -0.235709 0.148066 0.063158
v -0.244024 0.146449 -0.000000
v -0.235709 0.148066 -0.063158
v -0.211331 0.151433 -0.122012
v -0.172551 0.156789 -0.172551
v -0.122012 0.163558 -0.211331
v -0.063158 0.166142 -0.235709
v 0.063158 0.220230 -0.235709
v 0.000000 0.220230 -0.244024
v 0.122012 0.220230 -0.211331
v 0.172551 0.220230 -0.172551
v 0.211331 0.220230 -0.122012
v 0.235709 0.220230 -0.063158
v 0.244024 0.220230 -0.000000
v 0.235709 0.220230 0.063158
v 0.211331 0.220230 0.122012
v 0.172551 0.220230 0.172551
v 0.122012 0.220230 0.211331
v 0.063158 0.220230 0.235709
v 0.000000 0.220230 0.244024
v -0.063158 0.220230 0.235709
v -0.122012 0.220230 0.211331
v -0.172551 0.220230 0.172551
v -0.211331 0.220230 0.122012
v -0.235709 0.220230 0.063158
v -0.244024 0.220230 -0.000000
v -0.235709 0.220230 -0.063158
v -0.211331 0.220230 -0.122012
v -0.172551 0.220230 -0.172551
v -0.122012 0.220230 -0.211331
v -0.063158 0.220230 -0.235709
v 0.063158 0.414533 -0.235709
v 0.002934 0.645229 -0.010951
v 0.060210 0.485822 -0.224708
v 0.051656 0.550133 -0.192784
v 0.038333 0.601170 -0.143060
v 0.021544 0.633938 -0.080405
v 0.000000 0.645229 -0.011337
v 0.000000 0.414533 -0.244024
v 0.000000 0.633938 -0.083241
v 0.000000 0.601170 -0.148107
v 0.000000 0.550133 -0.199584
v 0.000000 0.485822 -0.232635
v 0.122012 0.414533 -0.211331
v 0.005668 0.645229 -0.009818
v 0.116318 0.485822 -0.201468
v 0.099792 0.550133 -0.172845
v 0.074053 0.601170 -0.128264
v 0.041621 0.633938 -0.072089
v 0.172551 0.414533 -0.172551
v 0.008016 0.645229 -0.008016
v 0.164498 0.485822 -0.164498
v 0.141128 0.550133 -0.141128
v 0.104727 0.601170 -0.104727
v 0.058860 0.633938 -0.058860
v 0.211331 0.414533 -0.122012
v 0.009818 0.645229 -0.005669
v 0.201468 0.485822 -0.116318
v 0.172845 0.550133 -0.099792
v 0.128264 0.601170 -0.074053
v 0.072089 0.633938 -0.041621
v 0.235709 0.414533 -0.063158
v 0.010951 0.645229 -0.002934
v 0.224708 0.485822 -0.060210
v 0.192784 0.550133 -0.051656
v 0.143060 0.601170 -0.038333
v 0.080405 0.633938 -0.021544
v 0.244024 0.414533 -0.000000
v 0.011337 0.645229 -0.000000
v 0.232635 0.485822 -0.000000
v 0.199584 0.550133 -0.000000
v 0.148107 0.601170 -0.000000
v 0.083241 0.633938 -0.000000
v 0.235709 0.414533 0.063158
v 0.010951 0.645229 0.002934
v 0.224708 0.485822 0.060210
v 0.192784 0.550133 0.051656
v 0.143060 0.601170 0.038333
v 0.080405 0.633938 0.021544
v 0.211331 0.414533 0.122012
v 0.009818 0.645229 0.005668
v 0.201468 0.485822 0.116318
v 0.172845 0.550133 0.099792
v 0.128264 0.601170 0.074053
v 0.072089 0.633938 0.041621
v 0.172551 0.414533 0.172551
v 0.008016 0.645229 0.008016
v 0.164498 0.485822 0.164498
v 0.141128 0.550133 0.141128
v 0.104727 0.601170 0.104727
v 0.058860 0.633938 0.058860
v 0.122012 0.414533 0.211331
v 0.005668 0.645229 0.009818
v 0.116318 0.485822 0.201468
v 0.099792 0.550133 0.172845
v 0.074053 0.601170 0.128264
v 0.041621 0.633938 0.072089
v 0.063158 0.414533 0.235709
v 0.002934 0.645229 0.010951
v 0.060210 0.485822 0.224708
v 0.051656 0.550133 0.192784
v 0.038333 0.601170 0.143060
v 0.021544 0.633938 0.080405
v 0.000000 0.414533 0.244024
v -0.000000 0.645229 0.011337
v 0.000000 0.485822 0.232635
v 0.000000 0.550133 0.199584
v 0.000000 0.601170 0.148107
v -0.000000 0.633938 0.083241
v -0.063158 0.414533 0.235709
v -0.002934 0.645229 0.010951
v -0.060210 0.485822 0.224708
v -0.051656 0.550133 0.192784
v -0.038333 0.601170 0.143060
v -0.021544 0.633938 0.080405
v -0.122012 0.414533 0.211331
v -0.005668 0.645229 0.009818
v -0.116318 0.485822 0.201468
v -0.099792 0.550133 0.172845
v -0.074053 0.601170 0.128264
v -0.041621 0.633938 0.072089
v -0.172551 0.414533 0.172551
v -0.008016 0.645229 0.008016
v -0.164498 0.485822 0.164498
v -0.141128 0.550133 0.141128
v -0.104727 0.601170 0.104727
v -0.058860 0.633938 0.058860
v -0.211331 0.414533 0.122012
v -0.009818 0.645229 0.005669
v -0.201468 0.485822 0.116318
v -0.172845 0.550133 0.099792
v -0.128264 0.601170 0.074053
v -0.072089 0.633938 0.041621
v -0.235709 0.414533 0.063158
v -0.010951 0.645229 0.002934
v -0.224708 0.485822 0.060210
v -0.192784 0.550133 0.051656
v -0.143060 0.601170 0.038333
v -0.080405 0.633938 0.021544
v -0.244024 0.414533 -0.000000
v -0.011337 0.645229 -0.000000
v -0.232635 0.485822 -0.000000
v -0.199584 0.550133 -0.000000
v -0.148107 0.601170 -0.000000
v -0.083241 0.633938 -0.000000
v -0.235709 0.414533 -0.063158
v -0.010951 0.645229 -0.002934
v -0.224708 0.485822 -0.060210
v -0.192784 0.550133 -0.051656
v -0.143060 0.601170 -0.038333
v -0.080405 0.633938 -0.021544
v -0.211331 0.414533 -0.122012
v -0.009818 0.645229 -0.005668
v -0.201468 0.485822 -0.116318
v -0.172845 0.550133 -0.099792
v -0.128264 0.601170 -0.074053
v -0.072089 0.633938 -0.041621
v -0.172551 0.414533 -0.172551
v -0.008016 0.645229 -0.008016
v -0.164498 0.485822 -0.164498
v -0.141128 0.550133 -0.141128
v -0.104727 0.601170 -0.104727
v -0.058860 0.633938 -0.058860
v -0.122012 0.414533 -0.211331
v -0.005669 0.645229 -0.009818
v -0.116318 0.485822 -0.201468
v -0.099792 0.550133 -0.172845
v -0.074053 0.601170 -0.128264
v -0.041621 0.633938 -0.072089
v -0.063158 0.414533 -0.235709
v -0.002934 0.645229 -0.010951
v -0.060210 0.485822 -0.224708
v -0.051656 0.550133 -0.192784
v -0.038333 0.601170 -0.143060
v -0.021544 0.633938 -0.080405
v 0.080881 -0.000000 -0.301852
v -0.000000 -0.000000 -0.312500
v 0.156250 -0.000000 -0.270633
v 0.220971 -0.000000 -0.220971
v 0.270633 -0.000000 -0.156250
v 0.301852 -0.000000 -0.080881
v 0.312500 -0.000000 0.000000
v 0.301852 -0.000000 0.080881
v 0.270633 -0.000000 0.156250
v 0.220971 -0.000000 0.220971
v 0.156250 -0.000000 0.270633
v 0.080881 -0.000000 0.301852
v -0.000000 -0.000000 0.312500
v -0.080881 -0.000000 0.301852
v -0.156250 -0.000000 0.270633
v -0.220971 -0.000000 0.220971
v -0.270633 -0.000000 0.156250
v -0.301852 -0.000000 0.080881
v -0.312500 -0.000000 0.000000
v -0.301852 -0.000000 -0.080881
v -0.270633 -0.000000 -0.156250
v -0.220971 -0.000000 -0.220971
v -0.156250 -0.000000 -0.270633
v -0.080881 -0.000000 -0.301852
vn 0.2487 -0.0000 -0.9686
vn 0.2588 -0.0000 -0.9659
vn -0.0000 -0.0000 -1.0000
vn -0.2554 0.6937 -0.6734
vn -0.2682 0.2401 -0.9330
vn -0.0000 0.2429 -0.9701
vn -0.0000 0.7092 -0.7050
vn 0.4293 0.8074 0.4046
vn 0.4765 0.6414 0.6013
vn 0.2554 0.6937 0.6734
vn 0.2299 0.8535 0.4676
vn 0.5992 0.7349 -0.3176
vn 0.6641 0.5830 -0.4680
vn 0.7732 0.5351 -0.3404
vn 0.6861 0.6867 -0.2404
vn -0.7637 0.6456 -0.0000
vn -0.8674 0.4976 -0.0000
vn -0.8446 0.5059 -0.1752
vn -0.7439 0.6570 -0.1223
vn -0.0000 0.7092 0.7050
vn -0.0000 0.8793 0.4763
vn 0.8446 0.5059 -0.1752
vn 0.7439 0.6570 -0.1223
vn -0.7732 0.5351 -0.3404
vn -0.6861 0.6867 -0.2404
vn -0.2554 0.6937 0.6734
vn -0.2299 0.8535 0.4676
vn 0.8674 0.4976 -0.0000
vn 0.7637 0.6456 -0.0000
vn -0.6641 0.5830 -0.4680
vn -0.5992 0.7349 -0.3176
vn -0.4765 0.6414 0.6013
vn -0.4293 0.8074 0.4046
vn 0.8446 0.5059 0.1752
vn 0.7439 0.6570 0.1223
vn -0.4765 0.6414 -0.6013
vn -0.4293 0.8074 -0.4046
vn -0.6641 0.5830 0.4680
vn -0.5992 0.7349 0.3176
vn 0.7732 0.5351 0.3404
vn 0.6861 0.6867 0.2404
vn -0.2299 0.8535 -0.4676
vn -0.0000 0.8793 -0.4763
vn 0.2554 0.6937 -0.6734
vn 0.2299 0.8535 -0.4676
vn -0.7732 0.5351 0.3404
vn -0.6861 0.6867 0.2404
vn 0.6641 0.5830 0.4680
vn 0.5992 0.7349 0.3176
vn 0.4765 0.6414 -0.6013
vn 0.4293 0.8074 -0.4046
vn -0.8446 0.5059 0.1752
vn -0.7439 0.6570 0.1223
vn -0.0000 0.2429 0.9701
vn -0.0000 -0.0000 1.0000
vn -0.2588 -0.0000 0.9659
vn -0.2682 0.2401 0.9330
vn 0.2682 0.2401 -0.9330
vn 0.5108 0.2150 -0.8324
vn -0.8630 0.1740 0.4743
vn -0.9559 0.1623 0.2447
vn 0.7161 0.1944 0.6704
vn 0.5108 0.2150 0.8324
vn 0.7161 0.1944 -0.6704
vn -0.9872 0.1595 -0.0000
vn 0.2682 0.2401 0.9330
vn 0.8630 0.1740 -0.4743
vn -0.9559 0.1623 -0.2447
vn 0.9559 0.1623 -0.2447
vn -0.8630 0.1740 -0.4743
vn 0.9872 0.1595 -0.0000
vn -0.7161 0.1944 -0.6704
vn -0.5108 0.2150 0.8324
vn 0.9559 0.1623 0.2447
vn -0.5108 0.2150 -0.8324
vn -0.7161 0.1944 0.6704
vn 0.8630 0.1740 0.4743
vn -0.7071 -0.0000 -0.7071
vn -0.7049 0.0786 -0.7049
vn -0.4985 0.0786 -0.8633
vn -0.5000 -0.0000 -0.8660
vn 0.9659 -0.0000 -0.2588
vn 1.0000 -0.0000 -0.0000
vn -0.8660 -0.0000 -0.5000
vn -0.5000 -0.0000 0.8660
vn 0.9659 -0.0000 0.2588
vn -0.7071 -0.0000 0.7071
vn 0.8660 -0.0000 0.5000
vn -0.2588 -0.0000 -0.9659
vn -0.8660 -0.0000 0.5000
vn 0.7071 -0.0000 0.7071
vn 0.5000 -0.0000 -0.8660
vn -0.9659 -0.0000 0.2588
vn 0.5000 -0.0000 0.8660
vn 0.7071 -0.0000 -0.7071
vn -1.0000 -0.0000 -0.0000
vn 0.2588 -0.0000 0.9659
vn 0.8660 -0.0000 -0.5000
vn -0.9659 -0.0000 -0.2588
vn 0.2580 0.0786 -0.9629
vn 0.4985 0.0786 -0.8633
vn -0.4985 0.0786 0.8633
vn -0.7049 0.0786 0.7049
vn 0.9629 0.0786 0.2580
vn 0.8633 0.0786 0.4985
vn -0.2580 0.0786 -0.9629
vn -0.8633 0.0786 0.4985
vn 0.7049 0.0786 0.7049
vn 0.0218 0.9964 -0.0814
vn -0.0000 0.9964 -0.0842
vn -0.0218 0.9964 -0.0814
vn -0.0421 0.9964 -0.0730
vn -0.0596 0.9964 -0.0596
vn -0.0730 0.9964 -0.0421
vn -0.0814 0.9964 -0.0218
vn -0.0842 0.9964 -0.0000
vn -0.0814 0.9964 0.0218
vn -0.0729 0.9964 0.0421
vn -0.0596 0.9964 0.0596
vn -0.0421 0.9964 0.0730
vn -0.0218 0.9964 0.0814
vn -0.0000 0.9964 0.0842
vn 0.0218 0.9964 0.0814
vn 0.0421 0.9964 0.0730
vn 0.0596 0.9964 0.0596
vn 0.0729 0.9964 0.0421
vn 0.0814 0.9964 0.0218
vn 0.0842 0.9964 -0.0000
vn 0.0814 0.9964 -0.0218
vn 0.0729 0.9964 -0.0421
vn 0.0596 0.9964 -0.0596
vn 0.0421 0.9964 -0.0730
vn -0.9629 0.0786 0.2580
vn 0.4985 0.0786 0.8633
vn 0.7049 0.0786 -0.7049
vn -0.0000 0.0786 -0.9969
vn -0.9969 0.0786 -0.0000
vn 0.2580 0.0786 0.9629
vn 0.8633 0.0786 -0.4985
vn -0.9629 0.0786 -0.2580
vn -0.0000 0.0786 0.9969
vn 0.9629 0.0786 -0.2580
vn -0.8633 0.0786 -0.4985
vn -0.2580 0.0786 0.9629
vn 0.9969 0.0786 -0.0000
vn 0.0824 0.9480 -0.3075
vn -0.0000 0.9480 -0.3184
vn 0.1535 0.8052 -0.5729
vn -0.0000 0.8052 -0.5931
vn 0.2099 0.5848 -0.7835
vn -0.0000 0.5848 -0.8112
vn 0.2463 0.3075 -0.9191
vn -0.0000 0.3075 -0.9515
vn 0.1592 0.9480 -0.2757
vn 0.2965 0.8052 -0.5136
vn 0.4056 0.5848 -0.7025
vn 0.4758 0.3075 -0.8241
vn 0.2251 0.9480 -0.2251
vn 0.4194 0.8052 -0.4194
vn 0.5736 0.5848 -0.5736
vn 0.6728 0.3075 -0.6728
vn 0.2757 0.9480 -0.1592
vn 0.5136 0.8052 -0.2965
vn 0.7025 0.5848 -0.4056
vn 0.8241 0.3075 -0.4758
vn 0.3075 0.9480 -0.0824
vn 0.5729 0.8052 -0.1535
vn 0.7835 0.5848 -0.2099
vn 0.9191 0.3075 -0.2463
vn 0.3184 0.9480 -0.0000
vn 0.5931 0.8052 -0.0000
vn 0.8112 0.5848 -0.0000
vn 0.9515 0.3075 -0.0000
vn 0.3075 0.9480 0.0824
vn 0.5729 0.8052 0.1535
vn 0.7835 0.5848 0.2099
vn 0.9191 0.3075 0.2463
vn 0.2757 0.9480 0.1592
vn 0.5136 0.8052 0.2965
vn 0.7025 0.5848 0.4056
vn 0.8241 0.3075 0.4758
vn 0.2251 0.9480 0.2251
vn 0.4194 0.8052 0.4194
vn 0.5736 0.5848 0.5736
vn 0.6728 0.3075 0.6728
vn 0.1592 0.9480 0.2757
vn 0.2965 0.8052 0.5136
vn 0.4056 0.5848 0.7025
vn 0.4758 0.3075 0.8241
vn 0.0824 0.9480 0.3075
vn 0.1535 0.8052 0.5729
vn 0.2099 0.5848 0.7835
vn 0.2463 0.3075 0.9191
vn -0.0000 0.9480 0.3184
vn -0.0000 0.8052 0.5931
vn -0.0000 0.5848 0.8112
vn -0.0000 0.3075 0.9515
vn -0.0824 0.9480 0.3075
vn -0.1535 0.8052 0.5729
vn -0.2100 0.5848 0.7835
vn -0.2463 0.3075 0.9191
vn -0.1592 0.9480 0.2757
vn -0.2965 0.8052 0.5136
vn -0.4056 0.5848 0.7025
vn -0.4758 0.3075 0.8241
vn -0.2251 0.9480 0.2251
vn -0.4194 0.8052 0.4194
vn -0.5736 0.5848 0.5736
vn -0.6728 0.3075 0.6728
vn -0.2757 0.9480 0.1592
vn -0.5136 0.8052 0.2965
vn -0.7025 0.5848 0.4056
vn -0.8241 0.3075 0.4758
vn -0.3075 0.9480 0.0824
vn -0.5729 0.8052 0.1535
vn -0.7835 0.5848 0.2099
vn -0.9191 0.3075 0.2463
vn -0.3184 0.9480 -0.0000
vn -0.5931 0.8052 -0.0000
vn -0.8112 0.5848 -0.0000
vn -0.9515 0.3075 -0.0000
vn -0.3075 0.9480 -0.0824
vn -0.5729 0.8052 -0.1535
vn -0.7835 0.5848 -0.2099
vn -0.9191 0.3075 -0.2463
vn -0.2757 0.9480 -0.1592
vn -0.5136 0.8052 -0.2965
vn -0.7025 0.5848 -0.4056
vn -0.8241 0.3075 -0.4758
vn -0.2251 0.9480 -0.2251
vn -0.4194 0.8052 -0.4194
vn -0.5736 0.5848 -0.5736
vn -0.6728 0.3075 -0.6728
vn -0.1592 0.9480 -0.2757
vn -0.2965 0.8052 -0.5136
vn -0.4056 0.5848 -0.7025
vn -0.4758 0.3075 -0.8241
vn -0.0824 0.9480 -0.3075
vn -0.1535 0.8052 -0.5729
vn -0.2100 0.5848 -0.7835
vn -0.2463 0.3075 -0.9191
vn -0.8577 -0.0000 0.5142
vn -0.6908 -0.0000 0.7231
vn 0.6908 -0.0000 0.7231
vn 0.8577 -0.0000 0.5142
vn -0.2487 -0.0000 -0.9686
vn 0.4833 -0.0000 -0.8754
vn -0.9634 -0.0000 0.2680
vn 0.4833 -0.0000 0.8754
vn 0.6908 -0.0000 -0.7231
vn 0.2487 -0.0000 0.9686
vn 0.8577 -0.0000 -0.5142
vn -0.9634 -0.0000 -0.2680
vn 0.9634 -0.0000 -0.2680
vn -0.8577 -0.0000 -0.5142
vn -0.2487 -0.0000 0.9686
vn -0.6908 -0.0000 -0.7231
vn -0.4833 -0.0000 0.8754
vn 0.9634 -0.0000 0.2680
vn -0.4833 -0.0000 -0.8754
vt 0.078827 0.725819
vt 0.078772 0.704638
vt 0.095410 0.703210
vt 0.100271 0.725859
vt 0.734226 0.559025
vt 0.723820 0.549989
vt 0.731470 0.536851
vt 0.743506 0.542023
vt 0.634667 0.444093
vt 0.642596 0.456318
vt 0.628725 0.469502
vt 0.618042 0.460191
vt 0.761077 0.478999
vt 0.746950 0.485719
vt 0.739055 0.468873
vt 0.751831 0.458093
vt 0.642946 0.601258
vt 0.650325 0.584585
vt 0.667962 0.589441
vt 0.664422 0.606935
vt 0.618978 0.486369
vt 0.606412 0.480638
vt 0.727000 0.455304
vt 0.737415 0.441370
vt 0.686533 0.589283
vt 0.687180 0.606409
vt 0.612622 0.504852
vt 0.598511 0.502889
vt 0.712026 0.445551
vt 0.719464 0.429413
vt 0.704631 0.583561
vt 0.709417 0.598809
vt 0.611819 0.524107
vt 0.597245 0.526195
vt 0.694900 0.440512
vt 0.698684 0.423487
vt 0.720660 0.572499
vt 0.728889 0.584581
vt 0.614469 0.543536
vt 0.599895 0.550307
vt 0.676697 0.440317
vt 0.676410 0.423487
vt 0.745100 0.568042
vt 0.756082 0.547392
vt 0.749347 0.523637
vt 0.763268 0.525263
vt 0.622457 0.560863
vt 0.609302 0.571950
vt 0.658740 0.445628
vt 0.654326 0.430447
vt 0.749784 0.504697
vt 0.764008 0.502422
vt 0.634863 0.574768
vt 0.624273 0.589180
vt 0.631021 0.491837
vt 0.641531 0.496593
vt 0.638036 0.507889
vt 0.626423 0.506462
vt 0.735686 0.522303
vt 0.735641 0.507432
vt 0.636290 0.548900
vt 0.646215 0.559264
vt 0.662922 0.461487
vt 0.650121 0.468753
vt 0.732430 0.493153
vt 0.658285 0.566661
vt 0.638996 0.478805
vt 0.725528 0.480596
vt 0.671839 0.570674
vt 0.715745 0.470465
vt 0.686111 0.571095
vt 0.703976 0.463017
vt 0.700178 0.567614
vt 0.626235 0.521512
vt 0.690810 0.458809
vt 0.712923 0.560195
vt 0.629365 0.536049
vt 0.676840 0.458178
vt 0.705585 0.222400
vt 0.662791 0.222400
vt 0.662791 0.208370
vt 0.705585 0.208370
vt 0.707157 0.481816
vt 0.698040 0.475652
vt 0.685623 0.557419
vt 0.696509 0.555265
vt 0.637967 0.519483
vt 0.687877 0.472177
vt 0.706563 0.550245
vt 0.641080 0.530411
vt 0.677225 0.471539
vt 0.715003 0.542426
vt 0.720981 0.532322
vt 0.724124 0.521092
vt 0.646858 0.540035
vt 0.666542 0.473776
vt 0.724045 0.509538
vt 0.654705 0.547915
vt 0.656409 0.478834
vt 0.720978 0.498743
vt 0.664038 0.553763
vt 0.647732 0.486609
vt 0.715266 0.489360
vt 0.674605 0.556838
vt 0.705585 0.166280
vt 0.662791 0.166280
vt 0.662791 0.152250
vt 0.705585 0.152250
vt 0.705585 0.320610
vt 0.662791 0.320610
vt 0.662791 0.306580
vt 0.705585 0.306580
vt 0.705585 0.082099
vt 0.662791 0.082099
vt 0.662791 0.068069
vt 0.705585 0.068069
vt 0.662791 0.194340
vt 0.705585 0.194340
vt 0.662791 0.292550
vt 0.705585 0.292550
vt 0.662791 0.054039
vt 0.705585 0.054039
vt 0.499347 0.865879
vt 0.498875 0.865765
vt 0.498448 0.865532
vt 0.498096 0.865197
vt 0.497843 0.864782
vt 0.497705 0.864315
vt 0.497693 0.863828
vt 0.497807 0.863355
vt 0.498039 0.862927
vt 0.498375 0.862574
vt 0.498791 0.862320
vt 0.499259 0.862182
vt 0.499747 0.862171
vt 0.500221 0.862287
vt 0.500649 0.862522
vt 0.501001 0.862860
vt 0.501254 0.863276
vt 0.501390 0.863744
vt 0.501401 0.864231
vt 0.501285 0.864703
vt 0.501051 0.865129
vt 0.500715 0.865481
vt 0.500299 0.865732
vt 0.499833 0.865868
vt 0.662791 0.278520
vt 0.705585 0.278520
vt 0.662791 0.040009
vt 0.705585 0.040009
vt 0.662791 0.138219
vt 0.705585 0.138219
vt 0.662791 0.180310
vt 0.705585 0.180310
vt 0.662791 0.264490
vt 0.705585 0.264490
vt 0.662791 0.025979
vt 0.705585 0.025979
vt 0.662791 0.124189
vt 0.705585 0.124189
vt 0.662791 0.250460
vt 0.705585 0.250460
vt 0.662791 0.011949
vt 0.705585 0.011949
vt 0.662791 0.110159
vt 0.705585 0.110159
vt 0.662791 0.236430
vt 0.705585 0.236430
vt 0.705585 0.348670
vt 0.662791 0.348670
vt 0.662791 0.334640
vt 0.705585 0.334640
vt 0.662791 0.096129
vt 0.705585 0.096129
vt 0.498059 0.877725
vt 0.494568 0.876883
vt 0.496667 0.889794
vt 0.490115 0.888232
vt 0.495113 0.903057
vt 0.485160 0.900602
vt 0.493103 0.918545
vt 0.479246 0.914942
vt 0.490469 0.937987
vt 0.471727 0.932879
vt 0.501651 0.877640
vt 0.503436 0.889762
vt 0.505322 0.902797
vt 0.507535 0.918450
vt 0.510072 0.937987
vt 0.505094 0.876629
vt 0.509947 0.887840
vt 0.515224 0.900173
vt 0.521440 0.914515
vt 0.529007 0.932772
vt 0.508187 0.874795
vt 0.515832 0.884430
vt 0.524173 0.894991
vt 0.533761 0.907129
vt 0.545874 0.922837
vt 0.510669 0.872189
vt 0.520508 0.879479
vt 0.531265 0.887470
vt 0.543776 0.896817
vt 0.559700 0.908858
vt 0.512390 0.869036
vt 0.523720 0.873511
vt 0.536141 0.878396
vt 0.550678 0.884138
vt 0.569551 0.891478
vt 0.513236 0.865546
vt 0.525440 0.866934
vt 0.538825 0.868452
vt 0.554333 0.870242
vt 0.573348 0.872194
vt 0.513191 0.861952
vt 0.525399 0.860091
vt 0.538505 0.858189
vt 0.553986 0.855937
vt 0.573012 0.853237
vt 0.512205 0.858483
vt 0.523478 0.853514
vt 0.535885 0.848267
vt 0.550030 0.842260
vt 0.567914 0.834853
vt 0.510347 0.855384
vt 0.519935 0.847675
vt 0.530541 0.839440
vt 0.542843 0.830005
vt 0.558355 0.818268
vt 0.507746 0.852867
vt 0.515014 0.842957
vt 0.523137 0.832261
vt 0.532699 0.819924
vt 0.544804 0.804504
vt 0.504565 0.851145
vt 0.509032 0.839673
vt 0.514119 0.827218
vt 0.520218 0.812736
vt 0.528021 0.794553
vt 0.501055 0.850263
vt 0.502401 0.838048
vt 0.504079 0.824691
vt 0.506194 0.808996
vt 0.509029 0.789210
vt 0.497438 0.850363
vt 0.495576 0.838204
vt 0.493732 0.824915
vt 0.491537 0.809045
vt 0.489057 0.789007
vt 0.493956 0.851354
vt 0.489031 0.840136
vt 0.483615 0.827573
vt 0.477406 0.813118
vt 0.469521 0.794148
vt 0.490868 0.853253
vt 0.483120 0.843606
vt 0.474693 0.833107
vt 0.464977 0.820806
vt 0.451690 0.804430
vt 0.488389 0.855883
vt 0.478434 0.848626
vt 0.467565 0.840679
vt 0.454828 0.831303
vt 0.438109 0.819826
vt 0.486686 0.859058
vt 0.475225 0.854661
vt 0.462704 0.849820
vt 0.447963 0.844135
vt 0.429380 0.837646
vt 0.485822 0.862554
vt 0.473690 0.861280
vt 0.460449 0.859833
vt 0.444620 0.858235
vt 0.425657 0.856594
vt 0.485891 0.866156
vt 0.473748 0.868058
vt 0.460606 0.870042
vt 0.445440 0.872571
vt 0.426103 0.875850
vt 0.486927 0.869610
vt 0.475702 0.874573
vt 0.463365 0.879918
vt 0.449312 0.886143
vt 0.432266 0.893844
vt 0.488816 0.872670
vt 0.479268 0.880352
vt 0.468786 0.888628
vt 0.456711 0.898130
vt 0.441766 0.909828
vt 0.491405 0.875170
vt 0.484182 0.885013
vt 0.476196 0.895675
vt 0.466865 0.907956
vt 0.455148 0.923206
vt 0.137562 0.585116
vt 0.131503 0.591128
vt 0.117432 0.579914
vt 0.124056 0.567964
vt 0.016095 0.591972
vt 0.027194 0.599542
vt 0.019943 0.615618
vt 0.011949 0.613072
vt 0.111161 0.697429
vt 0.119947 0.717089
vt 0.057726 0.720679
vt 0.062377 0.701950
vt 0.146844 0.603271
vt 0.142140 0.605839
vt 0.025915 0.571214
vt 0.038209 0.586394
vt 0.040306 0.706243
vt 0.047035 0.694829
vt 0.152290 0.622286
vt 0.148405 0.623112
vt 0.043127 0.557540
vt 0.052014 0.576892
vt 0.027717 0.689197
vt 0.033798 0.683551
vt 0.155048 0.641868
vt 0.149712 0.641427
vt 0.062741 0.548603
vt 0.067699 0.571273
vt 0.019230 0.671234
vt 0.023910 0.668864
vt 0.153882 0.662201
vt 0.145930 0.659141
vt 0.084315 0.548509
vt 0.084338 0.570020
vt 0.014375 0.652423
vt 0.018221 0.651697
vt 0.148398 0.683293
vt 0.137559 0.675018
vt 0.105866 0.553553
vt 0.101270 0.572852
vt 0.011949 0.633099
vt 0.017231 0.633409
vt 0.137558 0.703752
vt 0.125571 0.687957
s 1
f 2/1/1 241/2/2 242/3/3 1/4/3
f 48/5/4 72/6/5 50/7/6 26/8/7
f 11/9/8 35/10/9 36/11/10 12/12/11
f 4/13/12 28/14/13 29/15/14 5/16/15
f 19/17/16 43/18/17 44/19/18 20/20/19
f 12/12/11 36/11/10 37/21/20 13/22/21
f 5/16/15 29/15/14 30/23/22 6/24/23
f 20/20/19 44/19/18 45/25/24 21/26/25
f 13/22/21 37/21/20 38/27/26 14/28/27
f 6/24/23 30/23/22 31/29/28 7/30/29
f 21/26/25 45/25/24 46/31/30 22/32/31
f 14/28/27 38/27/26 39/33/32 15/34/33
f 7/30/29 31/29/28 32/35/34 8/36/35
f 22/32/31 46/31/30 47/37/36 23/38/37
f 15/34/33 39/33/32 40/39/38 16/40/39
f 8/36/35 32/35/34 33/41/40 9/42/41
f 23/38/37 47/37/36 48/5/4 24/43/42
f 1/44/43 26/8/7 25/45/44 2/46/45
f 16/40/39 40/39/38 41/47/46 17/48/47
f 9/42/41 33/41/40 34/49/48 10/50/49
f 24/43/42 48/5/4 26/8/7 1/44/43
f 2/46/45 25/45/44 27/51/50 3/52/51
f 17/48/47 41/47/46 42/53/52 18/54/53
f 10/50/49 34/49/48 35/10/9 11/9/8
f 3/52/51 27/51/50 28/14/13 4/13/12
f 18/54/53 42/53/52 43/18/17 19/17/16
f 61/55/54 85/56/55 86/57/56 62/58/57
f 25/45/44 49/59/58 51/60/59 27/51/50
f 41/47/46 65/61/60 66/62/61 42/53/52
f 34/49/48 58/63/62 59/64/63 35/10/9
f 27/51/50 51/60/59 52/65/64 28/14/13
f 42/53/52 66/62/61 67/66/65 43/18/17
f 35/10/9 59/64/63 60/67/66 36/11/10
f 28/14/13 52/65/64 53/68/67 29/15/14
f 43/18/17 67/66/65 68/69/68 44/19/18
f 36/11/10 60/67/66 61/55/54 37/21/20
f 29/15/14 53/68/67 54/70/69 30/23/22
f 44/19/18 68/69/68 69/71/70 45/25/24
f 37/21/20 61/55/54 62/58/57 38/27/26
f 30/23/22 54/70/69 55/72/71 31/29/28
f 45/25/24 69/71/70 70/73/72 46/31/30
f 38/27/26 62/58/57 63/74/73 39/33/32
f 31/29/28 55/72/71 56/75/74 32/35/34
f 46/31/30 70/73/72 71/76/75 47/37/36
f 39/33/32 63/74/73 64/77/76 40/39/38
f 32/35/34 56/75/74 57/78/77 33/41/40
f 47/37/36 71/76/75 72/6/5 48/5/4
f 26/8/7 50/7/6 49/59/58 25/45/44
f 40/39/38 64/77/76 65/61/60 41/47/46
f 33/41/40 57/78/77 58/63/62 34/49/48
f 94/79/78 223/80/79 229/81/80 95/82/81
f 54/70/69 78/83/82 79/84/83 55/72/71
f 69/71/70 93/85/84 94/86/78 70/73/72
f 62/58/57 86/57/56 87/87/85 63/74/73
f 55/72/71 79/84/83 80/88/86 56/75/74
f 70/73/72 94/86/78 95/89/81 71/76/75
f 63/74/73 87/87/85 88/90/87 64/77/76
f 56/75/74 80/88/86 81/91/88 57/78/77
f 71/76/75 95/89/81 96/92/89 72/6/5
f 50/7/6 74/93/3 73/94/2 49/59/58
f 64/77/76 88/90/87 89/95/90 65/61/60
f 57/78/77 81/91/88 82/96/91 58/63/62
f 72/6/5 96/92/89 74/93/3 50/7/6
f 49/59/58 73/94/2 75/97/92 51/60/59
f 65/61/60 89/95/90 90/98/93 66/62/61
f 58/63/62 82/96/91 83/99/94 59/64/63
f 51/60/59 75/97/92 76/100/95 52/65/64
f 66/62/61 90/98/93 91/101/96 67/66/65
f 59/64/63 83/99/94 84/102/97 60/67/66
f 52/65/64 76/100/95 77/103/98 53/68/67
f 67/66/65 91/101/96 92/104/99 68/69/68
f 60/67/66 84/102/97 85/56/55 61/55/54
f 53/68/67 77/103/98 78/83/82 54/70/69
f 68/69/68 92/104/99 93/85/84 69/71/70
f 73/105/2 97/106/100 109/107/101 75/108/92
f 87/109/85 181/110/102 187/111/103 88/112/87
f 80/113/86 139/114/104 145/115/105 81/116/88
f 95/82/81 229/81/80 235/117/106 96/118/89
f 88/112/87 187/111/103 193/119/107 89/120/90
f 81/116/88 145/115/105 151/121/108 82/122/91
f 98/123/109 103/124/110 236/125/111 230/126/112 224/127/113 218/128/114 212/129/115 206/130/116 200/131/117 194/132/118 188/133/119 182/134/120 176/135/121 170/136/122 164/137/123 158/138/124 152/139/125 146/140/126 140/141/127 134/142/128 128/143/129 122/144/130 116/145/131 110/146/132
f 89/120/90 193/119/107 199/147/133 90/148/93
f 82/122/91 151/121/108 157/149/134 83/150/94
f 75/108/92 109/107/101 115/151/135 76/152/95
f 96/118/89 235/117/106 104/153/136 74/154/3
f 90/148/93 199/147/133 205/155/137 91/156/96
f 83/150/94 157/149/134 163/157/138 84/158/97
f 76/152/95 115/151/135 121/159/139 77/160/98
f 91/156/96 205/155/137 211/161/140 92/162/99
f 84/158/97 163/157/138 169/163/141 85/164/55
f 77/160/98 121/159/139 127/165/142 78/166/82
f 92/162/99 211/161/140 217/167/143 93/168/84
f 85/169/55 169/170/141 175/171/144 86/172/56
f 78/166/82 127/165/142 133/173/145 79/174/83
f 93/168/84 217/167/143 223/80/79 94/79/78
f 86/172/56 175/171/144 181/110/102 87/109/85
f 79/174/83 133/173/145 139/114/104 80/113/86
f 98/123/109 102/175/146 105/176/147 103/124/110
f 102/175/146 101/177/148 106/178/149 105/176/147
f 101/177/148 100/179/150 107/180/151 106/178/149
f 100/179/150 99/181/152 108/182/153 107/180/151
f 99/181/152 97/183/100 104/184/136 108/182/153
f 110/146/132 114/185/154 102/175/146 98/123/109
f 114/185/154 113/186/155 101/177/148 102/175/146
f 113/186/155 112/187/156 100/179/150 101/177/148
f 112/187/156 111/188/157 99/181/152 100/179/150
f 111/188/157 109/189/101 97/183/100 99/181/152
f 116/145/131 120/190/158 114/185/154 110/146/132
f 120/190/158 119/191/159 113/186/155 114/185/154
f 119/191/159 118/192/160 112/187/156 113/186/155
f 118/192/160 117/193/161 111/188/157 112/187/156
f 117/193/161 115/194/135 109/189/101 111/188/157
f 122/144/130 126/195/162 120/190/158 116/145/131
f 126/195/162 125/196/163 119/191/159 120/190/158
f 125/196/163 124/197/164 118/192/160 119/191/159
f 124/197/164 123/198/165 117/193/161 118/192/160
f 123/198/165 121/199/139 115/194/135 117/193/161
f 128/143/129 132/200/166 126/195/162 122/144/130
f 132/200/166 131/201/167 125/196/163 126/195/162
f 131/201/167 130/202/168 124/197/164 125/196/163
f 130/202/168 129/203/169 123/198/165 124/197/164
f 129/203/169 127/204/142 121/199/139 123/198/165
f 134/142/128 138/205/170 132/200/166 128/143/129
f 138/205/170 137/206/171 131/201/167 132/200/166
f 137/206/171 136/207/172 130/202/168 131/201/167
f 136/207/172 135/208/173 129/203/169 130/202/168
f 135/208/173 133/209/145 127/204/142 129/203/169
f 140/141/127 144/210/174 138/205/170 134/142/128
f 144/210/174 143/211/175 137/206/171 138/205/170
f 143/211/175 142/212/176 136/207/172 137/206/171
f 142/212/176 141/213/177 135/208/173 136/207/172
f 141/213/177 139/214/104 133/209/145 135/208/173
f 146/140/126 150/215/178 144/210/174 140/141/127
f 150/215/178 149/216/179 143/211/175 144/210/174
f 149/216/179 148/217/180 142/212/176 143/211/175
f 148/217/180 147/218/181 141/213/177 142/212/176
f 147/218/181 145/219/105 139/214/104 141/213/177
f 152/139/125 156/220/182 150/215/178 146/140/126
f 156/220/182 155/221/183 149/216/179 150/215/178
f 155/221/183 154/222/184 148/217/180 149/216/179
f 154/222/184 153/223/185 147/218/181 148/217/180
f 153/223/185 151/224/108 145/219/105 147/218/181
f 158/138/124 162/225/186 156/220/182 152/139/125
f 162/225/186 161/226/187 155/221/183 156/220/182
f 161/226/187 160/227/188 154/222/184 155/221/183
f 160/227/188 159/228/189 153/223/185 154/222/184
f 159/228/189 157/229/134 151/224/108 153/223/185
f 164/137/123 168/230/190 162/225/186 158/138/124
f 168/230/190 167/231/191 161/226/187 162/225/186
f 167/231/191 166/232/192 160/227/188 161/226/187
f 166/232/192 165/233/193 159/228/189 160/227/188
f 165/233/193 163/234/138 157/229/134 159/228/189
f 170/136/122 174/235/194 168/230/190 164/137/123
f 174/235/194 173/236/195 167/231/191 168/230/190
f 173/236/195 172/237/196 166/232/192 167/231/191
f 172/237/196 171/238/197 165/233/193 166/232/192
f 171/238/197 169/239/141 163/234/138 165/233/193
f 176/135/121 180/240/198 174/235/194 170/136/122
f 180/240/198 179/241/199 173/236/195 174/235/194
f 179/241/199 178/242/200 172/237/196 173/236/195
f 178/242/200 177/243/201 171/238/197 172/237/196
f 177/243/201 175/244/144 169/239/141 171/238/197
f 182/134/120 186/245/202 180/240/198 176/135/121
f 186/245/202 185/246/203 179/241/199 180/240/198
f 185/246/203 184/247/204 178/242/200 179/241/199
f 184/247/204 183/248/205 177/243/201 178/242/200
f 183/248/205 181/249/102 175/244/144 177/243/201
f 188/133/119 192/250/206 186/245/202 182/134/120
f 192/250/206 191/251/207 185/246/203 186/245/202
f 191/251/207 190/252/208 184/247/204 185/246/203
f 190/252/208 189/253/209 183/248/205 184/247/204
f 189/253/209 187/254/103 181/249/102 183/248/205
f 194/132/118 198/255/210 192/250/206 188/133/119
f 198/255/210 197/256/211 191/251/207 192/250/206
f 197/256/211 196/257/212 190/252/208 191/251/207
f 196/257/212 195/258/213 189/253/209 190/252/208
f 195/258/213 193/259/107 187/254/103 189/253/209
f 200/131/117 204/260/214 198/255/210 194/132/118
f 204/260/214 203/261/215 197/256/211 198/255/210
f 203/261/215 202/262/216 196/257/212 197/256/211
f 202/262/216 201/263/217 195/258/213 196/257/212
f 201/263/217 199/264/133 193/259/107 195/258/213
f 206/130/116 210/265/218 204/260/214 200/131/117
f 210/265/218 209/266/219 203/261/215 204/260/214
f 209/266/219 208/267/220 202/262/216 203/261/215
f 208/267/220 207/268/221 201/263/217 202/262/216
f 207/268/221 205/269/137 199/264/133 201/263/217
f 212/129/115 216/270/222 210/265/218 206/130/116
f 216/270/222 215/271/223 209/266/219 210/265/218
f 215/271/223 214/272/224 208/267/220 209/266/219
f 214/272/224 213/273/225 207/268/221 208/267/220
f 213/273/225 211/274/140 205/269/137 207/268/221
f 218/128/114 222/275/226 216/270/222 212/129/115
f 222/275/226 221/276/227 215/271/223 216/270/222
f 221/276/227 220/277/228 214/272/224 215/271/223
f 220/277/228 219/278/229 213/273/225 214/272/224
f 219/278/229 217/279/143 211/274/140 213/273/225
f 224/127/113 228/280/230 222/275/226 218/128/114
f 228/280/230 227/281/231 221/276/227 222/275/226
f 227/281/231 226/282/232 220/277/228 221/276/227
f 226/282/232 225/283/233 219/278/229 220/277/228
f 225/283/233 223/284/79 217/279/143 219/278/229
f 230/126/112 234/285/234 228/280/230 224/127/113
f 234/285/234 233/286/235 227/281/231 228/280/230
f 233/286/235 232/287/236 226/282/232 227/281/231
f 232/287/236 231/288/237 225/283/233 226/282/232
f 231/288/237 229/289/80 223/284/79 225/283/233
f 236/125/111 240/290/238 234/285/234 230/126/112
f 240/290/238 239/291/239 233/286/235 234/285/234
f 239/291/239 238/292/240 232/287/236 233/286/235
f 238/292/240 237/293/241 231/288/237 232/287/236
f 237/293/241 235/294/106 229/289/80 231/288/237
f 103/124/110 105/176/147 240/290/238 236/125/111
f 105/176/147 106/178/149 239/291/239 240/290/238
f 106/178/149 107/180/151 238/292/240 239/291/239
f 107/180/151 108/182/153 237/293/241 238/292/240
f 108/182/153 104/184/136 235/294/106 237/293/241
f 74/154/3 104/153/136 97/106/100 73/105/2
f 17/295/242 257/296/90 256/297/87 16/298/243
f 10/299/244 250/300/91 249/301/88 9/302/245
f 1/4/3 242/3/3 264/303/89 24/304/246
f 3/305/247 243/306/92 241/2/2 2/1/1
f 18/307/248 258/308/93 257/296/90 17/295/242
f 11/309/249 251/310/94 250/300/91 10/299/244
f 4/311/250 244/312/95 243/306/92 3/305/247
f 19/313/96 259/314/96 258/308/93 18/307/248
f 12/315/251 252/316/97 251/310/94 11/309/249
f 5/317/252 245/318/98 244/312/95 4/311/250
f 20/319/253 260/320/99 259/314/96 19/313/96
f 13/321/55 253/322/55 252/316/97 12/315/251
f 6/323/254 246/324/82 245/318/98 5/317/252
f 21/325/255 261/326/84 260/320/99 20/319/253
f 14/327/256 254/328/56 253/322/55 13/321/55
f 7/329/83 247/330/83 246/324/82 6/323/254
f 22/331/257 262/332/78 261/326/84 21/325/255
f 15/333/258 255/334/85 254/328/56 14/327/256
f 8/335/259 248/336/86 247/330/83 7/329/83
f 23/337/260 263/338/81 262/332/78 22/331/257
f 16/298/243 256/297/87 255/334/85 15/333/258
f 9/302/245 249/301/88 248/336/86 8/335/259
f 24/304/246 264/303/89 263/338/81 23/337/260
