# Blender 4.1.1
# www.blender.org
o DomeFluted_Collider.001
v 0.000000 0.174502 -0.311745
v 0.155873 0.174502 -0.269979
v 0.269979 0.174502 -0.155873
v 0.311745 0.174502 0.000000
v 0.269979 0.174502 0.155873
v 0.155873 0.174502 0.269979
v 0.000000 0.174502 0.311745
v -0.155873 0.174502 0.269979
v -0.269979 0.174502 0.155873
v -0.311745 0.174502 0.000000
v -0.269979 0.174502 -0.155873
v -0.155873 0.174502 -0.269979
v -0.155873 -0.000915 -0.269979
v -0.269979 -0.000915 -0.155873
v -0.311745 -0.000915 0.000000
v -0.269979 -0.000915 0.155873
v -0.155873 -0.000915 0.269979
v 0.000000 -0.000915 0.311745
v 0.155873 -0.000915 0.269979
v 0.269979 -0.000915 0.155873
v 0.311745 -0.000915 0.000000
v 0.269979 -0.000915 -0.155873
v 0.155873 -0.000915 -0.269979
v 0.000000 -0.000915 -0.311745
v 0.083621 0.633436 -0.144836
v 0.140475 0.500582 -0.243310
v 0.000000 0.500582 -0.280950
v 0.000000 0.633436 -0.167242
v 0.144836 0.633436 -0.083621
v 0.243310 0.500582 -0.140475
v 0.167242 0.633436 0.000000
v 0.280950 0.500582 0.000000
v 0.144836 0.633436 0.083621
v 0.243310 0.500582 0.140475
v 0.083621 0.633436 0.144836
v 0.140475 0.500582 0.243310
v 0.000000 0.633436 0.167242
v 0.000000 0.500582 0.280950
v -0.083621 0.633436 0.144836
v -0.140475 0.500582 0.243310
v -0.144836 0.633436 0.083621
v -0.243310 0.500582 0.140475
v -0.167242 0.633436 0.000000
v -0.280950 0.500582 0.000000
v -0.144836 0.633436 -0.083621
v -0.243310 0.500582 -0.140475
v -0.083621 0.633436 -0.144836
v -0.140475 0.500582 -0.243310
vn -0.7071 -0.0000 0.7071
vn -0.9659 -0.0000 0.2588
vn -0.9659 -0.0000 -0.2588
vn 0.7071 -0.0000 -0.7071
vn -0.7071 -0.0000 -0.7071
vn 0.9659 -0.0000 -0.2588
vn 0.2588 -0.0000 -0.9659
vn -0.2588 -0.0000 -0.9659
vn 0.9659 -0.0000 0.2588
vn 0.7071 -0.0000 0.7071
vn 0.2588 -0.0000 0.9659
vn -0.2588 -0.0000 0.9659
vn -0.0000 -1.0000 -0.0000
vn 0.2577 0.0908 -0.9619
vn -0.9619 0.0908 -0.2577
vn -0.0000 1.0000 -0.0000
vn -0.2577 0.0908 0.9619
vn 0.9619 0.0908 0.2577
vn -0.7042 0.0908 -0.7042
vn 0.7042 0.0908 -0.7042
vn -0.7042 0.0908 0.7042
vn 0.7042 0.0908 0.7042
vn -0.2577 0.0908 -0.9619
vn -0.9619 0.0908 0.2577
vn 0.2577 0.0908 0.9619
vn 0.9619 0.0908 -0.2577
vn 0.1995 0.6372 -0.7445
vn 0.5450 0.6372 -0.5450
vn 0.7445 0.6372 -0.1995
vn 0.7445 0.6372 0.1995
vn 0.5450 0.6372 0.5450
vn 0.1995 0.6372 0.7445
vn -0.1995 0.6372 0.7445
vn -0.5450 0.6372 0.5450
vn -0.7445 0.6372 0.1995
vn -0.7445 0.6372 -0.1995
vn -0.5450 0.6372 -0.5450
vn -0.1995 0.6372 -0.7445
vt 0.416667 1.000000
vt 0.333333 1.000000
vt 0.250000 1.000000
vt 0.166667 1.000000
vt 0.916667 1.000000
vt 0.833333 1.000000
vt 0.083333 1.000000
vt 0.750000 1.000000
vt 1.000000 1.000000
vt 0.000000 1.000000
vt 0.666667 1.000000
vt 0.583333 1.000000
vt 0.500000 1.000000
vt 0.916667 1.000000
vt 0.416667 1.000000
vt 0.833333 1.000000
vt 0.333333 1.000000
vt 0.583333 1.000000
vt 0.967422 1.000000
vt 0.884089 1.000000
vt 0.800756 1.000000
vt 0.717422 1.000000
vt 0.634089 1.000000
vt 0.550756 1.000000
vt 0.467423 1.000000
vt 0.384089 1.000000
vt 0.300756 1.000000
vt 0.217423 1.000000
vt 0.134089 1.000000
vt 0.050756 1.000000
s 0
f 8/1/1 9/2/1 16/2/1 17/1/1
f 9/2/2 10/3/2 15/3/2 16/2/2
f 10/3/3 11/4/3 14/4/3 15/3/3
f 2/5/4 3/6/4 22/6/4 23/5/4
f 11/4/5 12/7/5 13/7/5 14/4/5
f 3/6/6 4/8/6 21/8/6 22/6/6
f 1/9/7 2/5/7 23/5/7 24/9/7
f 12/7/8 1/10/8 24/10/8 13/7/8
f 4/8/9 5/11/9 20/11/9 21/8/9
f 5/11/10 6/12/10 19/12/10 20/11/10
f 6/12/11 7/13/11 18/13/11 19/12/11
f 7/13/12 8/1/12 17/1/12 18/13/12
f 13/7/13 24/10/13 23/5/13 22/6/13 21/8/13 20/11/13 19/12/13 18/13/13 17/1/13 16/2/13 15/3/13 14/4/13
f 2/5/14 1/9/14 27/9/14 26/5/14
f 11/4/15 10/3/15 44/3/15 46/4/15
f 29/6/16 25/14/16 28/10/16 47/7/16 45/4/16 43/3/16 41/2/16 39/15/16 37/13/16 35/12/16 33/11/16 31/8/16
f 8/1/17 7/13/17 38/13/17 40/15/17
f 5/11/18 4/8/18 32/8/18 34/11/18
f 12/7/19 11/4/19 46/4/19 48/7/19
f 3/6/20 2/5/20 26/5/20 30/16/20
f 9/2/21 8/1/21 40/1/21 42/17/21
f 6/12/22 5/11/22 34/11/22 36/18/22
f 1/10/23 12/7/23 48/7/23 27/10/23
f 10/3/24 9/2/24 42/2/24 44/3/24
f 7/13/25 6/12/25 36/12/25 38/13/25
f 4/8/26 3/6/26 30/6/26 32/8/26
f 26/5/27 27/9/27 28/19/27 25/14/27
f 30/16/28 26/5/28 25/20/28 29/6/28
f 32/8/29 30/6/29 29/21/29 31/8/29
f 34/11/30 32/8/30 31/22/30 33/11/30
f 36/18/31 34/11/31 33/23/31 35/12/31
f 38/13/32 36/12/32 35/24/32 37/13/32
f 40/15/33 38/13/33 37/25/33 39/15/33
f 42/17/34 40/1/34 39/26/34 41/2/34
f 44/3/35 42/2/35 41/27/35 43/3/35
f 46/4/36 44/3/36 43/28/36 45/4/36
f 48/7/37 46/4/37 45/29/37 47/7/37
f 27/10/38 48/7/38 47/30/38 28/10/38
