# Blender 4.1.1
# www.blender.org
o SmokestackCapped
v 0.000000 0.101486 -0.312500
v 0.080881 0.090838 -0.301852
v 0.156250 0.080915 -0.270633
v 0.220971 0.054919 -0.220971
v 0.270633 0.034348 -0.156250
v 0.301852 0.021417 -0.080881
v 0.312500 0.015208 0.000000
v 0.301852 0.021417 0.080881
v 0.270633 0.034348 0.156250
v 0.220971 0.054919 0.220971
v 0.156250 0.080915 0.270633
v 0.080881 0.090837 0.301852
v 0.000000 0.101486 0.312500
v -0.080881 0.090838 0.301852
v -0.156250 0.080915 0.270633
v -0.220971 0.054919 0.220971
v -0.270633 0.034348 0.156250
v -0.301852 0.021417 0.080881
v -0.312500 0.015208 0.000000
v -0.301852 0.021417 -0.080881
v -0.270633 0.034348 -0.156250
v -0.220971 0.054919 -0.220971
v -0.156250 0.080915 -0.270633
v -0.080881 0.090837 -0.301852
v 0.061987 0.138228 -0.231338
v -0.000000 0.143277 -0.239499
v 0.119750 0.133523 -0.207412
v 0.169351 0.121196 -0.169351
v 0.207412 0.111442 -0.119750
v 0.231338 0.105310 -0.061987
v 0.239499 0.102365 0.000000
v 0.231338 0.105310 0.061987
v 0.207412 0.111442 0.119750
v 0.169351 0.121196 0.169351
v 0.119750 0.133523 0.207412
v 0.061987 0.138228 0.231338
v -0.000000 0.143277 0.239499
v -0.061987 0.138228 0.231338
v -0.119750 0.133523 0.207412
v -0.169351 0.121196 0.169351
v -0.207412 0.111442 0.119750
v -0.231338 0.105310 0.061987
v -0.239499 0.102365 0.000000
v -0.231338 0.105310 -0.061987
v -0.207412 0.111442 -0.119750
v -0.169351 0.121196 -0.169351
v -0.119750 0.133523 -0.207412
v -0.061987 0.138228 -0.231338
v 0.051954 0.189253 -0.193895
v -0.000000 0.191771 -0.200735
v 0.100368 0.186907 -0.173842
v 0.141941 0.180760 -0.141941
v 0.173842 0.175896 -0.100368
v 0.193895 0.172838 -0.051954
v 0.200735 0.171369 0.000000
v 0.193895 0.172838 0.051954
v 0.173842 0.175896 0.100368
v 0.141941 0.180760 0.141941
v 0.100368 0.186907 0.173842
v 0.051954 0.189253 0.193895
v -0.000000 0.191771 0.200735
v -0.051954 0.189253 0.193895
v -0.100368 0.186907 0.173842
v -0.141941 0.180760 0.141941
v -0.173842 0.175896 0.100368
v -0.193895 0.172838 0.051954
v -0.200735 0.171369 0.000000
v -0.193895 0.172838 -0.051954
v -0.173842 0.175896 -0.100368
v -0.141941 0.180760 -0.141941
v -0.100368 0.186907 -0.173842
v -0.051954 0.189253 -0.193895
v 0.051954 0.234088 -0.193895
v -0.000000 0.234088 -0.200735
v 0.100368 0.234088 -0.173842
v 0.141941 0.234088 -0.141941
v 0.173842 0.234088 -0.100368
v 0.193895 0.234088 -0.051954
v 0.200735 0.234088 0.000000
v 0.193895 0.234088 0.051954
v 0.173842 0.234088 0.100368
v 0.141941 0.234088 0.141941
v 0.100368 0.234088 0.173842
v 0.051954 0.234088 0.193895
v -0.000000 0.234088 0.200735
v -0.051954 0.234088 0.193895
v -0.100368 0.234088 0.173842
v -0.141941 0.234088 0.141941
v -0.173842 0.234088 0.100368
v -0.193895 0.234088 0.051954
v -0.200735 0.234088 0.000000
v -0.193895 0.234088 -0.051954
v -0.173842 0.234088 -0.100368
v -0.141941 0.234088 -0.141941
v -0.100368 0.234088 -0.173842
v -0.051954 0.234088 -0.193895
v 0.051954 0.585873 -0.193895
v -0.000000 0.585873 -0.200735
v 0.100368 0.585873 -0.173842
v 0.141941 0.585873 -0.141941
v 0.173842 0.585873 -0.100368
v 0.193895 0.585873 -0.051954
v 0.200735 0.585873 0.000000
v 0.193895 0.585873 0.051954
v 0.173842 0.585873 0.100368
v 0.141941 0.585873 0.141941
v 0.100368 0.585873 0.173842
v 0.051954 0.585873 0.193895
v -0.000000 0.585873 0.200735
v -0.051954 0.585873 0.193895
v -0.100368 0.585873 0.173842
v -0.141941 0.585873 0.141941
v -0.173842 0.585873 0.100368
v -0.193895 0.585873 0.051954
v -0.200735 0.585873 0.000000
v -0.193895 0.585873 -0.051954
v -0.173842 0.585873 -0.100368
v -0.141941 0.585873 -0.141941
v -0.100368 0.585873 -0.173842
v -0.051954 0.585873 -0.193895
v 0.054268 0.585873 -0.202532
v -0.000000 0.585873 -0.209677
v 0.104838 0.585873 -0.181585
v 0.148264 0.585873 -0.148264
v 0.181585 0.585873 -0.104838
v 0.202532 0.585873 -0.054268
v 0.209677 0.585873 0.000000
v 0.202532 0.585873 0.054268
v 0.181585 0.585873 0.104838
v 0.148264 0.585873 0.148264
v 0.104838 0.585873 0.181585
v 0.054268 0.585873 0.202532
v -0.000000 0.585873 0.209677
v -0.054268 0.585873 0.202532
v -0.104838 0.585873 0.181585
v -0.148264 0.585873 0.148264
v -0.181585 0.585873 0.104838
v -0.202532 0.585873 0.054268
v -0.209677 0.585873 0.000000
v -0.202532 0.585873 -0.054268
v -0.181585 0.585873 -0.104838
v -0.148264 0.585873 -0.148264
v -0.104838 0.585873 -0.181585
v -0.054268 0.585873 -0.202532
v 0.057276 0.607453 -0.213757
v -0.000000 0.607453 -0.221298
v 0.110649 0.607453 -0.191649
v 0.156481 0.607453 -0.156481
v 0.191649 0.607453 -0.110649
v 0.213757 0.607453 -0.057276
v 0.221298 0.607453 0.000000
v 0.213757 0.607453 0.057276
v 0.191649 0.607453 0.110649
v 0.156481 0.607453 0.156481
v 0.110649 0.607453 0.191649
v 0.057276 0.607453 0.213757
v -0.000000 0.607453 0.221298
v -0.057276 0.607453 0.213757
v -0.110649 0.607453 0.191649
v -0.156481 0.607453 0.156481
v -0.191649 0.607453 0.110649
v -0.213757 0.607453 0.057276
v -0.221298 0.607453 0.000000
v -0.213757 0.607453 -0.057276
v -0.191649 0.607453 -0.110649
v -0.156481 0.607453 -0.156481
v -0.110649 0.607453 -0.191649
v -0.057276 0.607453 -0.213757
v 0.057276 0.688734 -0.213757
v -0.000000 0.688734 -0.221298
v 0.110649 0.688734 -0.191649
v 0.156481 0.688734 -0.156481
v 0.191649 0.688734 -0.110649
v 0.213757 0.688734 -0.057276
v 0.221298 0.688734 0.000000
v 0.213757 0.688734 0.057276
v 0.191649 0.688734 0.110649
v 0.156481 0.688734 0.156481
v 0.110649 0.688734 0.191649
v 0.057276 0.688734 0.213757
v -0.000000 0.688734 0.221298
v -0.057276 0.688734 0.213757
v -0.110649 0.688734 0.191649
v -0.156481 0.688734 0.156481
v -0.191649 0.688734 0.110649
v -0.213757 0.688734 0.057276
v -0.221298 0.688734 0.000000
v -0.213757 0.688734 -0.057276
v -0.191649 0.688734 -0.110649
v -0.156481 0.688734 -0.156481
v -0.110649 0.688734 -0.191649
v -0.057276 0.688734 -0.213757
v 0.046257 0.708747 -0.172633
v -0.000000 0.708747 -0.178723
v 0.089361 0.708747 -0.154778
v 0.126376 0.708747 -0.126376
v 0.154778 0.708747 -0.089361
v 0.172633 0.708747 -0.046257
v 0.178723 0.708747 0.000000
v 0.172633 0.708747 0.046257
v 0.154778 0.708747 0.089361
v 0.126376 0.708747 0.126376
v 0.089361 0.708747 0.154778
v 0.046257 0.708747 0.172633
v -0.000000 0.708747 0.178723
v -0.046257 0.708747 0.172633
v -0.089361 0.708747 0.154778
v -0.126376 0.708747 0.126376
v -0.154778 0.708747 0.089361
v -0.172633 0.708747 0.046257
v -0.178723 0.708747 0.000000
v -0.172633 0.708747 -0.046257
v -0.154778 0.708747 -0.089361
v -0.126376 0.708747 -0.126376
v -0.089361 0.708747 -0.154778
v -0.046257 0.708747 -0.172633
v 0.062785 0.630066 -0.234316
v 0.062936 0.670137 -0.234880
v 0.071632 0.642421 -0.267334
v 0.071690 0.657088 -0.267549
v 0.121585 0.670136 -0.210592
v 0.121289 0.630065 -0.210079
v 0.138495 0.657087 -0.239880
v 0.138381 0.642420 -0.239684
v 0.171950 0.670135 -0.171950
v 0.171526 0.630064 -0.171526
v 0.195862 0.657086 -0.195862
v 0.195700 0.642419 -0.195700
v 0.210597 0.670134 -0.121588
v 0.210074 0.630063 -0.121287
v 0.239882 0.657086 -0.138496
v 0.239682 0.642419 -0.138381
v 0.234891 0.670134 -0.062939
v 0.234307 0.630063 -0.062782
v 0.267554 0.657085 -0.071691
v 0.267330 0.642419 -0.071631
v 0.243178 0.670133 0.000000
v 0.242572 0.630063 0.000000
v 0.276992 0.657085 0.000000
v 0.276761 0.642419 0.000000
v 0.234891 0.670134 0.062939
v 0.234307 0.630063 0.062782
v 0.267554 0.657085 0.071691
v 0.267330 0.642419 0.071631
v 0.210597 0.670134 0.121588
v 0.210074 0.630063 0.121287
v 0.239882 0.657086 0.138496
v 0.239682 0.642419 0.138381
v 0.171950 0.670135 0.171950
v 0.171526 0.630064 0.171526
v 0.195862 0.657086 0.195862
v 0.195700 0.642419 0.195700
v 0.121585 0.670136 0.210592
v 0.121289 0.630065 0.210079
v 0.138495 0.657087 0.239880
v 0.138381 0.642420 0.239684
v 0.062936 0.670137 0.234880
v 0.062785 0.630066 0.234316
v 0.071690 0.657088 0.267549
v 0.071632 0.642421 0.267334
v -0.062785 0.630066 0.234316
v -0.062936 0.670137 0.234880
v -0.071632 0.642421 0.267334
v -0.071690 0.657088 0.267549
v -0.121585 0.670136 0.210592
v -0.121289 0.630065 0.210079
v -0.138495 0.657087 0.239880
v -0.138381 0.642420 0.239684
v -0.171950 0.670135 0.171950
v -0.171526 0.630064 0.171526
v -0.195862 0.657086 0.195862
v -0.195700 0.642419 0.195700
v -0.210597 0.670134 0.121588
v -0.210074 0.630063 0.121287
v -0.239882 0.657086 0.138496
v -0.239682 0.642419 0.138381
v -0.234891 0.670134 0.062939
v -0.234307 0.630063 0.062782
v -0.267554 0.657085 0.071691
v -0.267331 0.642419 0.071631
v -0.243178 0.670133 0.000000
v -0.242572 0.630063 0.000000
v -0.276992 0.657085 0.000000
v -0.276761 0.642419 0.000000
v -0.234891 0.670134 -0.062939
v -0.234307 0.630063 -0.062782
v -0.267554 0.657085 -0.071691
v -0.267331 0.642419 -0.071631
v -0.210597 0.670134 -0.121588
v -0.210074 0.630063 -0.121287
v -0.239882 0.657086 -0.138496
v -0.239682 0.642419 -0.138381
v -0.171950 0.670135 -0.171950
v -0.171526 0.630064 -0.171526
v -0.195862 0.657086 -0.195862
v -0.195700 0.642419 -0.195700
v -0.121585 0.670136 -0.210592
v -0.121289 0.630065 -0.210079
v -0.138495 0.657087 -0.239880
v -0.138381 0.642420 -0.239684
v -0.062936 0.670137 -0.234880
v -0.062785 0.630066 -0.234316
v -0.071690 0.657088 -0.267549
v -0.071632 0.642421 -0.267334
v -0.000000 0.630945 -0.243038
v -0.000000 0.671020 -0.242710
v -0.000000 0.644011 -0.276939
v -0.000000 0.658680 -0.276813
v -0.000000 0.671020 0.242710
v -0.000000 0.630945 0.243038
v -0.000000 0.658680 0.276814
v -0.000000 0.644011 0.276939
v 0.054268 0.708747 -0.202532
v -0.000000 0.708747 -0.209677
v 0.104838 0.708747 -0.181585
v 0.148264 0.708747 -0.148264
v 0.181585 0.708747 -0.104838
v 0.202532 0.708747 -0.054268
v 0.209677 0.708747 0.000000
v 0.202532 0.708747 0.054268
v 0.181585 0.708747 0.104838
v 0.148264 0.708747 0.148264
v 0.104838 0.708747 0.181585
v 0.054268 0.708747 0.202532
v -0.000000 0.708747 0.209677
v -0.054268 0.708747 0.202532
v -0.104838 0.708747 0.181585
v -0.148264 0.708747 0.148264
v -0.181585 0.708747 0.104838
v -0.202532 0.708747 0.054268
v -0.209677 0.708747 0.000000
v -0.202532 0.708747 -0.054268
v -0.181585 0.708747 -0.104838
v -0.148264 0.708747 -0.148264
v -0.104838 0.708747 -0.181585
v -0.054268 0.708747 -0.202532
v 0.000000 0.087144 0.000000
v 0.080881 0.000000 -0.301852
v 0.000000 0.000000 -0.312500
v 0.156250 0.000000 -0.270633
v 0.220971 0.000000 -0.220971
v 0.270633 0.000000 -0.156250
v 0.301852 0.000000 -0.080881
v 0.312500 0.000000 -0.000000
v 0.301852 0.000000 0.080881
v 0.270633 0.000000 0.156250
v 0.220971 0.000000 0.220971
v 0.156250 0.000000 0.270633
v 0.080881 0.000000 0.301852
v 0.000000 0.000000 0.312500
v -0.080881 0.000000 0.301852
v -0.156250 0.000000 0.270633
v -0.220971 0.000000 0.220971
v -0.270633 0.000000 0.156250
v -0.301852 0.000000 0.080881
v -0.312500 0.000000 -0.000000
v -0.301852 0.000000 -0.080881
v -0.270633 0.000000 -0.156250
v -0.220971 0.000000 -0.220971
v -0.156250 0.000000 -0.270633
v -0.080881 0.000000 -0.301852
vn -0.0000 -0.0000 -1.0000
vn 0.2487 -0.0000 -0.9686
vn 0.2588 -0.0000 -0.9659
vn -0.2396 0.7386 0.6301
vn -0.0000 0.7539 0.6569
vn -0.0000 0.3257 0.9455
vn -0.2656 0.3279 0.9066
vn -0.5981 0.7280 0.3352
vn -0.4303 0.7936 0.4302
vn -0.4467 0.7014 0.5554
vn -0.6243 0.6507 0.4323
vn 0.6855 0.6840 0.2495
vn 0.7432 0.6570 0.1265
vn 0.7939 0.5863 0.1611
vn 0.7268 0.6109 0.3140
vn -0.2304 0.8351 -0.4995
vn -0.4303 0.7936 -0.4302
vn -0.4467 0.7014 -0.5554
vn -0.2396 0.7386 -0.6301
vn 0.2304 0.8351 -0.4995
vn -0.0000 0.8588 -0.5123
vn -0.0000 0.7539 -0.6569
vn 0.2396 0.7386 -0.6301
vn -0.6855 0.6840 0.2495
vn -0.7268 0.6109 0.3140
vn 0.5981 0.7280 0.3352
vn 0.6243 0.6507 0.4323
vn 0.4303 0.7936 -0.4302
vn 0.4467 0.7014 -0.5554
vn -0.7432 0.6570 0.1265
vn -0.7939 0.5863 0.1611
vn 0.4303 0.7936 0.4302
vn 0.4467 0.7014 0.5554
vn 0.5981 0.7280 -0.3352
vn 0.6243 0.6507 -0.4323
vn -0.7629 0.6466 -0.0000
vn -0.8162 0.5778 -0.0000
vn 0.2304 0.8351 0.4995
vn 0.2396 0.7386 0.6301
vn 0.6855 0.6840 -0.2495
vn 0.7268 0.6109 -0.3140
vn -0.7432 0.6570 -0.1265
vn -0.7939 0.5863 -0.1611
vn -0.0000 0.8588 0.5123
vn 0.7432 0.6570 -0.1265
vn 0.7939 0.5863 -0.1611
vn -0.6855 0.6840 -0.2495
vn -0.7268 0.6109 -0.3140
vn -0.2304 0.8351 0.4995
vn 0.7629 0.6466 -0.0000
vn 0.8162 0.5778 -0.0000
vn -0.5981 0.7280 -0.3352
vn -0.6243 0.6507 -0.4323
vn 0.5055 0.3069 -0.8064
vn 0.2656 0.3279 -0.9066
vn 0.5000 -0.0000 -0.8660
vn 0.9351 0.2665 -0.2334
vn 0.9644 0.2645 -0.0000
vn -0.8468 0.2773 -0.4539
vn -0.7066 0.2941 -0.6435
vn -0.5055 0.3069 0.8064
vn 0.9351 0.2665 0.2334
vn -0.5055 0.3069 -0.8064
vn -0.7066 0.2941 0.6435
vn 0.8468 0.2773 0.4539
vn -0.2656 0.3279 -0.9066
vn -0.0000 0.3257 -0.9455
vn -0.8468 0.2773 0.4539
vn 0.7066 0.2941 0.6435
vn -0.9351 0.2665 0.2334
vn 0.5055 0.3069 0.8064
vn 0.7066 0.2941 -0.6435
vn -0.9644 0.2645 -0.0000
vn 0.2656 0.3279 0.9066
vn 0.8468 0.2773 -0.4539
vn -0.9351 0.2665 -0.2334
vn 0.9659 -0.0000 -0.2588
vn 0.8660 -0.0000 -0.5000
vn -0.8660 -0.0000 0.5000
vn -0.9659 -0.0000 0.2588
vn 0.7071 -0.0000 0.7071
vn 0.5000 -0.0000 0.8660
vn 0.7071 -0.0000 -0.7071
vn -1.0000 -0.0000 -0.0000
vn 0.2588 -0.0000 0.9659
vn -0.9659 -0.0000 -0.2588
vn -0.0000 -0.0000 1.0000
vn -0.8660 -0.0000 -0.5000
vn -0.2588 -0.0000 0.9659
vn 1.0000 -0.0000 -0.0000
vn -0.7071 -0.0000 -0.7071
vn -0.5000 -0.0000 0.8660
vn 0.9659 -0.0000 0.2588
vn -0.5000 -0.0000 -0.8660
vn -0.7071 -0.0000 0.7071
vn 0.8660 -0.0000 0.5000
vn -0.2588 -0.0000 -0.9659
vn -0.0000 -1.0000 -0.0000
vn 0.8505 -0.4741 -0.2279
vn 0.7625 -0.4741 -0.4402
vn 0.6993 -0.5899 -0.4037
vn 0.7800 -0.5899 -0.2090
vn 0.2503 0.8656 0.4336
vn 0.3540 0.8657 0.3540
vn 0.5384 0.6483 0.5384
vn 0.3807 0.6482 0.6594
vn -0.7625 -0.4741 -0.4402
vn -0.8505 -0.4741 -0.2279
vn -0.7800 -0.5899 -0.2090
vn -0.6993 -0.5899 -0.4037
vn -0.2279 -0.4741 0.8505
vn -0.0000 -0.4741 0.8805
vn -0.0000 -0.5880 0.8089
vn -0.2085 -0.5890 0.7807
vn 0.8805 -0.4741 -0.0000
vn 0.8075 -0.5899 -0.0000
vn -0.6226 -0.4741 -0.6226
vn -0.5710 -0.5899 -0.5710
vn -0.4402 -0.4741 0.7625
vn -0.4037 -0.5899 0.6993
vn 0.8505 -0.4741 0.2279
vn 0.7800 -0.5899 0.2090
vn -0.4402 -0.4741 -0.7625
vn -0.4037 -0.5899 -0.6993
vn -0.6226 -0.4741 0.6226
vn -0.5710 -0.5899 0.5710
vn 0.7625 -0.4741 0.4402
vn 0.6993 -0.5899 0.4037
vn -0.2279 -0.4741 -0.8505
vn -0.2085 -0.5890 -0.7807
vn 0.2279 -0.4741 -0.8505
vn -0.0000 -0.4741 -0.8805
vn -0.0000 -0.5880 -0.8089
vn 0.2085 -0.5890 -0.7807
vn -0.7625 -0.4741 0.4402
vn -0.6993 -0.5899 0.4037
vn 0.6226 -0.4741 0.6226
vn 0.5710 -0.5899 0.5710
vn 0.4402 -0.4741 -0.7625
vn 0.4037 -0.5899 -0.6993
vn -0.8505 -0.4741 0.2279
vn -0.7800 -0.5899 0.2090
vn 0.4402 -0.4741 0.7625
vn 0.4037 -0.5899 0.6993
vn 0.6226 -0.4741 -0.6226
vn 0.5710 -0.5899 -0.5710
vn -0.8805 -0.4741 -0.0000
vn -0.8075 -0.5899 -0.0000
vn 0.2279 -0.4741 0.8505
vn 0.2085 -0.5890 0.7807
vn -0.0000 0.8699 -0.4933
vn -0.1339 0.8679 -0.4784
vn -0.1978 0.6495 -0.7342
vn -0.0000 0.6511 -0.7590
vn -0.0000 -0.8410 -0.5410
vn 0.1344 -0.8424 -0.5219
vn -0.5006 0.8657 -0.0000
vn -0.4836 0.8657 0.1296
vn -0.7355 0.6483 0.1971
vn -0.7614 0.6483 -0.0000
vn 0.1339 0.8679 0.4784
vn 0.1978 0.6495 0.7342
vn 0.4336 0.8657 -0.2503
vn 0.3540 0.8657 -0.3540
vn 0.5384 0.6483 -0.5384
vn 0.6594 0.6483 -0.3807
vn -0.4836 0.8657 -0.1296
vn -0.7355 0.6483 -0.1971
vn 0.1344 -0.8424 0.5219
vn -0.0000 -0.8410 0.5410
vn 0.4836 0.8657 -0.1296
vn 0.7355 0.6483 -0.1971
vn -0.4336 0.8657 -0.2503
vn -0.6594 0.6483 -0.3807
vn -0.0000 0.8699 0.4933
vn -0.0000 0.6511 0.7590
vn 0.5006 0.8657 -0.0000
vn 0.7614 0.6483 -0.0000
vn -0.3540 0.8657 -0.3540
vn -0.5384 0.6483 -0.5384
vn -0.1339 0.8679 0.4784
vn -0.1978 0.6495 0.7342
vn 0.4836 0.8657 0.1296
vn 0.7355 0.6483 0.1971
vn -0.2503 0.8656 -0.4336
vn -0.3807 0.6482 -0.6594
vn -0.1344 -0.8424 0.5219
vn 0.4336 0.8657 0.2503
vn 0.6594 0.6483 0.3807
vn -0.4336 0.8657 0.2503
vn -0.3540 0.8657 0.3540
vn -0.5384 0.6483 0.5384
vn -0.6594 0.6483 0.3807
vn -0.1344 -0.8424 -0.5219
vn 0.1339 0.8679 -0.4784
vn 0.1978 0.6495 -0.7342
vn 0.4636 -0.8447 0.2677
vn 0.3785 -0.8447 0.3785
vn -0.0000 0.5022 0.8648
vn -0.2238 0.5022 0.8353
vn 0.2677 -0.8447 -0.4636
vn -0.4636 -0.8447 0.2677
vn -0.5171 -0.8446 0.1386
vn 0.2677 -0.8447 0.4636
vn 0.3785 -0.8447 -0.3785
vn -0.5353 -0.8446 -0.0000
vn 0.4636 -0.8447 -0.2677
vn -0.5171 -0.8446 -0.1386
vn -0.2503 0.8656 0.4336
vn -0.3807 0.6482 0.6594
vn 0.5171 -0.8446 -0.1386
vn -0.4636 -0.8447 -0.2677
vn 0.5353 -0.8446 -0.0000
vn -0.3785 -0.8447 -0.3785
vn -0.2677 -0.8447 0.4636
vn 0.5171 -0.8446 0.1386
vn -0.2677 -0.8447 -0.4636
vn -0.3785 -0.8447 0.3785
vn 0.2503 0.8656 -0.4336
vn 0.3807 0.6482 -0.6594
vn 0.4805 0.2763 -0.8323
vn 0.2487 0.2763 -0.9283
vn -0.0000 1.0000 -0.0000
vn 0.8353 0.5022 -0.2238
vn 0.8648 0.5022 -0.0000
vn -0.7489 0.5022 -0.4324
vn -0.6115 0.5022 -0.6115
vn -0.4324 0.5022 0.7489
vn 0.8353 0.5022 0.2238
vn -0.4324 0.5022 -0.7489
vn -0.6115 0.5022 0.6115
vn 0.7489 0.5022 0.4324
vn -0.2238 0.5022 -0.8353
vn -0.0000 0.5022 -0.8648
vn 0.2238 0.5022 -0.8353
vn -0.7489 0.5022 0.4324
vn 0.6115 0.5022 0.6115
vn 0.4324 0.5022 -0.7489
vn -0.8353 0.5022 0.2238
vn 0.4324 0.5022 0.7489
vn 0.6115 0.5022 -0.6115
vn -0.8648 0.5022 -0.0000
vn 0.2238 0.5022 0.8353
vn 0.7489 0.5022 -0.4324
vn -0.8353 0.5022 -0.2238
vn 0.0808 -0.9389 -0.3344
vn 0.1699 -0.9405 -0.2944
vn 0.4999 -0.0154 -0.8659
vn 0.2597 -0.0094 -0.9657
vn 0.2579 -0.0093 -0.9661
vn 0.1800 0.9330 -0.3118
vn 0.1003 0.9345 -0.3416
vn 0.2403 -0.9405 -0.2403
vn 0.7070 -0.0156 -0.7070
vn 0.2546 0.9330 -0.2545
vn 0.2943 -0.9405 -0.1699
vn 0.8659 -0.0157 -0.4999
vn 0.3118 0.9330 -0.1800
vn 0.3283 -0.9405 -0.0880
vn 0.9658 -0.0157 -0.2588
vn 0.3477 0.9330 -0.0932
vn 0.3399 -0.9405 -0.0000
vn 0.9999 -0.0158 -0.0000
vn 0.3600 0.9330 -0.0000
vn 0.3283 -0.9405 0.0880
vn 0.9658 -0.0157 0.2588
vn 0.3477 0.9330 0.0932
vn 0.2943 -0.9405 0.1699
vn 0.8659 -0.0157 0.4999
vn 0.3118 0.9330 0.1800
vn 0.2403 -0.9405 0.2403
vn 0.7070 -0.0156 0.7070
vn 0.2546 0.9330 0.2546
vn 0.1699 -0.9405 0.2944
vn 0.4999 -0.0154 0.8659
vn 0.1800 0.9330 0.3118
vn 0.0808 -0.9389 0.3344
vn 0.2597 -0.0094 0.9657
vn 0.2579 -0.0093 0.9661
vn 0.1003 0.9345 0.3416
vn -0.0808 -0.9389 0.3344
vn -0.1699 -0.9405 0.2944
vn -0.4999 -0.0154 0.8659
vn -0.2597 -0.0094 0.9657
vn -0.2579 -0.0093 0.9661
vn -0.1800 0.9330 0.3118
vn -0.1003 0.9345 0.3416
vn -0.2403 -0.9405 0.2403
vn -0.7070 -0.0156 0.7070
vn -0.2546 0.9330 0.2545
vn -0.2943 -0.9405 0.1699
vn -0.8659 -0.0157 0.4999
vn -0.3118 0.9330 0.1800
vn -0.3283 -0.9405 0.0880
vn -0.9658 -0.0157 0.2588
vn -0.3477 0.9330 0.0932
vn -0.3399 -0.9405 -0.0000
vn -0.9999 -0.0158 -0.0000
vn -0.3600 0.9330 -0.0000
vn -0.3283 -0.9405 -0.0880
vn -0.9658 -0.0157 -0.2588
vn -0.3477 0.9330 -0.0932
vn -0.2943 -0.9405 -0.1699
vn -0.8659 -0.0157 -0.4999
vn -0.3118 0.9330 -0.1800
vn -0.2403 -0.9405 -0.2403
vn -0.7070 -0.0156 -0.7070
vn -0.2546 0.9330 -0.2545
vn -0.1699 -0.9405 -0.2944
vn -0.4999 -0.0154 -0.8659
vn -0.1800 0.9330 -0.3118
vn -0.0808 -0.9389 -0.3344
vn -0.2597 -0.0094 -0.9657
vn -0.2579 -0.0093 -0.9661
vn -0.1003 0.9345 -0.3416
vn -0.0000 -0.9362 -0.3516
vn -0.0000 -0.0033 -1.0000
vn -0.0000 0.9374 -0.3484
vn -0.0000 -0.9362 0.3516
vn -0.0000 -0.0033 1.0000
vn -0.0000 0.9374 0.3484
vn -0.9283 0.2763 -0.2487
vn -0.9611 0.2763 -0.0000
vn 0.4805 0.2763 0.8323
vn 0.6796 0.2763 0.6796
vn 0.6796 0.2763 -0.6796
vn -0.8323 0.2763 -0.4805
vn 0.2487 0.2763 0.9283
vn -0.2487 0.2763 0.9283
vn -0.0000 0.2763 0.9611
vn 0.8323 0.2763 -0.4805
vn -0.6796 0.2763 -0.6796
vn -0.4805 0.2763 0.8323
vn 0.9283 0.2763 -0.2487
vn -0.4805 0.2763 -0.8323
vn -0.6796 0.2763 0.6796
vn 0.9611 0.2763 -0.0000
vn -0.2487 0.2763 -0.9283
vn -0.8323 0.2763 0.4805
vn 0.9283 0.2763 0.2487
vn -0.0000 0.2763 -0.9611
vn -0.9283 0.2763 0.2487
vn 0.8323 0.2763 0.4805
vn -0.6908 -0.0000 0.7231
vn -0.8577 -0.0000 0.5142
vn 0.8577 -0.0000 0.5142
vn 0.6908 -0.0000 0.7231
vn -0.2487 -0.0000 -0.9686
vn 0.4833 -0.0000 -0.8754
vn -0.9634 -0.0000 0.2680
vn 0.4833 -0.0000 0.8754
vn 0.6908 -0.0000 -0.7231
vn 0.2487 -0.0000 0.9686
vn 0.8577 -0.0000 -0.5142
vn -0.9634 -0.0000 -0.2680
vn 0.9634 -0.0000 -0.2680
vn -0.8577 -0.0000 -0.5142
vn -0.2487 -0.0000 0.9686
vn -0.6908 -0.0000 -0.7231
vn -0.4833 -0.0000 0.8754
vn 0.9634 -0.0000 0.2680
vn -0.4833 -0.0000 -0.8754
vt 0.038522 0.268280
vt 0.035734 0.289641
vt 0.011949 0.289641
vt 0.011949 0.268280
vt 0.520857 0.035336
vt 0.528272 0.023072
vt 0.540363 0.029449
vt 0.535592 0.041456
vt 0.485433 0.056537
vt 0.495094 0.041096
vt 0.514426 0.049339
vt 0.507481 0.063909
vt 0.479269 0.339926
vt 0.473048 0.323418
vt 0.498924 0.317905
vt 0.503391 0.333238
vt 0.477298 0.191113
vt 0.475549 0.175182
vt 0.496345 0.174509
vt 0.496997 0.190449
vt 0.477526 0.221999
vt 0.478897 0.206549
vt 0.497612 0.206419
vt 0.497209 0.222388
vt 0.477364 0.072572
vt 0.501754 0.078984
vt 0.487487 0.355725
vt 0.509268 0.348124
vt 0.476016 0.237927
vt 0.496769 0.238309
vt 0.471327 0.089292
vt 0.497458 0.094490
vt 0.497267 0.370914
vt 0.516343 0.362493
vt 0.472290 0.254518
vt 0.495072 0.254451
vt 0.467355 0.106697
vt 0.494537 0.110277
vt 0.506001 0.385889
vt 0.522894 0.376308
vt 0.469372 0.271382
vt 0.494126 0.270447
vt 0.466872 0.124409
vt 0.493271 0.126264
vt 0.516521 0.399589
vt 0.530396 0.388387
vt 0.468124 0.288601
vt 0.494346 0.286394
vt 0.468382 0.141701
vt 0.493263 0.142295
vt 0.503710 0.025890
vt 0.514147 0.011949
vt 0.468858 0.306194
vt 0.495815 0.302265
vt 0.471563 0.158596
vt 0.494428 0.158343
vt 0.515175 0.237678
vt 0.514968 0.222061
vt 0.528230 0.221582
vt 0.529031 0.236858
vt 0.515710 0.284030
vt 0.517469 0.299102
vt 0.514034 0.143735
vt 0.514097 0.159243
vt 0.531069 0.054875
vt 0.519949 0.313995
vt 0.514799 0.174911
vt 0.526083 0.068854
vt 0.523339 0.328665
vt 0.514778 0.190552
vt 0.515001 0.206309
vt 0.521907 0.083332
vt 0.527667 0.342978
vt 0.518679 0.098155
vt 0.532792 0.356789
vt 0.514661 0.253310
vt 0.516368 0.113184
vt 0.537445 0.370057
vt 0.514782 0.268755
vt 0.514782 0.128370
vt 0.542315 0.381922
vt 0.533194 0.281934
vt 0.531559 0.267054
vt 0.626606 0.260237
vt 0.627580 0.273666
vt 0.538197 0.086202
vt 0.536011 0.100747
vt 0.542140 0.339750
vt 0.545169 0.353506
vt 0.530161 0.252024
vt 0.534099 0.115453
vt 0.548514 0.366748
vt 0.532390 0.130279
vt 0.551770 0.379348
vt 0.530907 0.145256
vt 0.549919 0.031940
vt 0.546774 0.044657
vt 0.535054 0.296643
vt 0.529663 0.160361
vt 0.543572 0.058020
vt 0.537121 0.311213
vt 0.528692 0.175576
vt 0.540704 0.071915
vt 0.539468 0.325611
vt 0.528058 0.190879
vt 0.527830 0.206234
vt 0.042276 0.807404
vt 0.038794 0.820073
vt 0.036580 0.819768
vt 0.040165 0.806521
vt 0.627802 0.138177
vt 0.626803 0.151737
vt 0.638893 0.044357
vt 0.637044 0.057610
vt 0.628744 0.287041
vt 0.625998 0.165317
vt 0.635223 0.070913
vt 0.630086 0.300359
vt 0.625398 0.178911
vt 0.633475 0.084272
vt 0.631592 0.313614
vt 0.625018 0.192509
vt 0.624867 0.206104
vt 0.624955 0.219684
vt 0.631836 0.097685
vt 0.633249 0.326800
vt 0.625280 0.233239
vt 0.630332 0.111145
vt 0.635036 0.339916
vt 0.625835 0.246759
vt 0.628982 0.124645
vt 0.636930 0.352963
vt 0.638893 0.365956
vt 0.130444 0.858935
vt 0.137410 0.846971
vt 0.143372 0.849401
vt 0.135600 0.862854
vt 0.081939 0.876703
vt 0.095075 0.876842
vt 0.095360 0.879119
vt 0.081619 0.878925
vt 0.128866 0.796135
vt 0.119619 0.786836
vt 0.121000 0.785046
vt 0.130661 0.794763
vt 0.138768 0.820206
vt 0.135398 0.807512
vt 0.137487 0.806649
vt 0.141012 0.819914
vt 0.048901 0.795999
vt 0.047102 0.794612
vt 0.069274 0.873130
vt 0.068387 0.875235
vt 0.138738 0.833351
vt 0.140967 0.833649
vt 0.058251 0.786718
vt 0.056889 0.784923
vt 0.057852 0.866565
vt 0.056461 0.868359
vt 0.135287 0.846087
vt 0.069736 0.780189
vt 0.068863 0.778073
vt 0.048701 0.857186
vt 0.046921 0.858532
vt 0.128637 0.857539
vt 0.082449 0.776733
vt 0.082153 0.774476
vt 0.042153 0.845800
vt 0.040047 0.846676
vt 0.119234 0.866844
vt 0.120613 0.868648
vt 0.095584 0.776789
vt 0.095886 0.774568
vt 0.038707 0.833145
vt 0.036465 0.833439
vt 0.107803 0.873453
vt 0.108663 0.875536
vt 0.108259 0.780231
vt 0.109139 0.778125
vt 0.806123 0.478479
vt 0.814689 0.463639
vt 0.820777 0.468257
vt 0.813118 0.481376
vt 0.066378 0.772036
vt 0.081348 0.768211
vt 0.041733 0.862457
vt 0.034139 0.849066
vt 0.124591 0.873870
vt 0.096705 0.768231
vt 0.030264 0.834245
vt 0.111066 0.881512
vt 0.111559 0.772222
vt 0.030263 0.818953
vt 0.096138 0.885362
vt 0.124869 0.779965
vt 0.135709 0.790853
vt 0.143374 0.804170
vt 0.034244 0.804099
vt 0.080762 0.885280
vt 0.147352 0.819040
vt 0.041985 0.790728
vt 0.065853 0.881235
vt 0.147346 0.834454
vt 0.052949 0.779816
vt 0.052585 0.873342
vt 0.932282 0.496149
vt 0.932338 0.513189
vt 0.924806 0.512165
vt 0.924990 0.497026
vt 0.142538 0.785628
vt 0.151151 0.800950
vt 0.874920 0.569959
vt 0.857443 0.569767
vt 0.858548 0.562075
vt 0.873990 0.562303
vt 0.801670 0.494904
vt 0.809187 0.495944
vt 0.893279 0.443026
vt 0.908128 0.452076
vt 0.903285 0.458063
vt 0.890143 0.450148
vt 0.891828 0.565592
vt 0.888924 0.558405
vt 0.047395 0.880017
vt 0.034887 0.867634
vt 0.876368 0.438143
vt 0.875251 0.445867
vt 0.906975 0.556891
vt 0.902257 0.550734
vt 0.801687 0.511862
vt 0.808951 0.511010
vt 0.858683 0.438054
vt 0.859687 0.445772
vt 0.919285 0.544598
vt 0.913181 0.539941
vt 0.805594 0.528381
vt 0.812683 0.525620
vt 0.841753 0.442629
vt 0.844754 0.449772
vt 0.927843 0.529643
vt 0.920773 0.526727
vt 0.026372 0.852247
vt 0.826800 0.451408
vt 0.831523 0.457479
vt 0.840612 0.564943
vt 0.825673 0.555917
vt 0.830513 0.549929
vt 0.843732 0.557817
vt 0.130008 0.773302
vt 0.928312 0.479552
vt 0.921223 0.482339
vt 0.097189 0.893762
vt 0.079600 0.893644
vt 0.814924 0.510307
vt 0.818129 0.523478
vt 0.155717 0.817940
vt 0.026456 0.800863
vt 0.035264 0.785562
vt 0.062573 0.888991
vt 0.155740 0.835559
vt 0.047759 0.773014
vt 0.151217 0.852652
vt 0.063177 0.764211
vt 0.813771 0.543369
vt 0.819939 0.538874
vt 0.142362 0.868060
vt 0.080265 0.759810
vt 0.129773 0.880683
vt 0.097828 0.759880
vt 0.021928 0.835312
vt 0.114271 0.889384
vt 0.114798 0.764458
vt 0.021934 0.817836
vt 0.920032 0.464567
vt 0.913857 0.469073
vt 0.349652 0.499659
vt 0.361860 0.499219
vt 0.361860 0.668576
vt 0.874380 0.452016
vt 0.860484 0.451820
vt 0.898652 0.546004
vt 0.908343 0.536207
vt 0.824759 0.535360
vt 0.847092 0.455341
vt 0.915351 0.524457
vt 0.834344 0.545137
vt 0.835122 0.462145
vt 0.918912 0.511320
vt 0.918975 0.497753
vt 0.915679 0.484571
vt 0.846108 0.552350
vt 0.825517 0.471920
vt 0.909057 0.472654
vt 0.859442 0.556071
vt 0.818693 0.483721
vt 0.899552 0.462776
vt 0.873250 0.556167
vt 0.814978 0.496761
vt 0.887774 0.455607
vt 0.886628 0.552805
vt 0.160500 0.797095
vt 0.165751 0.816623
vt 0.931436 0.456214
vt 0.941306 0.474368
vt 0.937505 0.475875
vt 0.928014 0.458673
vt 0.165807 0.836874
vt 0.917113 0.440955
vt 0.914393 0.444247
vt 0.160641 0.856542
vt 0.899136 0.429760
vt 0.897338 0.433710
vt 0.150479 0.874299
vt 0.878422 0.423542
vt 0.877762 0.428011
vt 0.135943 0.888818
vt 0.856687 0.423487
vt 0.857299 0.427809
vt 0.118087 0.898829
vt 0.836148 0.429345
vt 0.837869 0.433288
vt 0.098440 0.903824
vt 0.818057 0.440145
vt 0.820702 0.443478
vt 0.078224 0.903683
vt 0.803444 0.455059
vt 0.806825 0.457588
vt 0.058640 0.898328
vt 0.793186 0.473092
vt 0.797060 0.474664
vt 0.041174 0.888023
vt 0.787906 0.492922
vt 0.791927 0.493493
vt 0.017025 0.856034
vt 0.011949 0.836577
vt 0.802334 0.551680
vt 0.792614 0.533493
vt 0.796409 0.532012
vt 0.805773 0.549237
vt 0.011949 0.816508
vt 0.816639 0.567075
vt 0.819380 0.563761
vt 0.017104 0.796992
vt 0.834840 0.578347
vt 0.836630 0.574255
vt 0.027197 0.779372
vt 0.855519 0.584087
vt 0.856110 0.579813
vt 0.041584 0.764930
vt 0.876665 0.584270
vt 0.876159 0.580132
vt 0.059334 0.754798
vt 0.897123 0.579004
vt 0.895525 0.575005
vt 0.078989 0.749757
vt 0.915757 0.568484
vt 0.913048 0.564954
vt 0.099167 0.749865
vt 0.930660 0.553262
vt 0.927229 0.550705
vt 0.118674 0.755127
vt 0.940886 0.535039
vt 0.936987 0.533469
vt 0.136171 0.765286
vt 0.946159 0.515151
vt 0.942121 0.514584
vt 0.150572 0.779483
vt 0.946126 0.494494
vt 0.941869 0.495001
vt 0.026815 0.873731
vt 0.787906 0.513468
vt 0.792141 0.512976
vt 0.911367 0.498712
vt 0.908503 0.487457
vt 0.902837 0.477299
vt 0.894713 0.468903
vt 0.884644 0.462871
vt 0.873287 0.459737
vt 0.861486 0.459611
vt 0.850092 0.462574
vt 0.839907 0.468382
vt 0.831635 0.476627
vt 0.825772 0.486670
vt 0.822639 0.497816
vt 0.822513 0.509375
vt 0.825333 0.520592
vt 0.831002 0.530728
vt 0.839138 0.539097
vt 0.849210 0.545107
vt 0.860518 0.548308
vt 0.872278 0.548417
vt 0.883686 0.545493
vt 0.893923 0.539716
vt 0.902268 0.531486
vt 0.908173 0.521461
vt 0.911268 0.510292
vt 0.198733 0.623063
vt 0.202439 0.611422
vt 0.259454 0.533687
vt 0.269445 0.526656
vt 0.337506 0.500979
vt 0.195877 0.634941
vt 0.249997 0.541421
vt 0.232874 0.558828
vt 0.241122 0.549815
vt 0.325488 0.503171
vt 0.193884 0.646994
vt 0.225299 0.568412
vt 0.313659 0.506223
vt 0.192765 0.659159
vt 0.218433 0.578517
vt 0.302081 0.510120
vt 0.192526 0.671373
vt 0.212314 0.589091
vt 0.290813 0.514842
vt 0.193169 0.683573
vt 0.206973 0.600078
vt 0.279916 0.520363
vt 0.194689 0.695695
vt 0.841922 0.210214
vt 0.860421 0.220894
vt 0.875526 0.235998
vt 0.886206 0.254498
vt 0.891735 0.275131
vt 0.891735 0.296492
vt 0.886206 0.317125
vt 0.875526 0.335624
vt 0.860421 0.350728
vt 0.841922 0.361409
vt 0.821289 0.366937
vt 0.799928 0.366937
vt 0.779295 0.361409
vt 0.760796 0.350728
vt 0.745692 0.335624
vt 0.735011 0.317125
vt 0.729483 0.296492
vt 0.729483 0.275131
vt 0.735011 0.254498
vt 0.745692 0.235999
vt 0.760796 0.220894
vt 0.779295 0.210214
vt 0.799928 0.204685
vt 0.821289 0.204685
vt 0.026329 0.076032
vt 0.020943 0.097393
vt 0.011949 0.097393
vt 0.011949 0.076032
vt 0.020943 0.439168
vt 0.026329 0.460529
vt 0.011949 0.460529
vt 0.011949 0.439168
vt 0.035734 0.246919
vt 0.011949 0.246919
vt 0.033136 0.311002
vt 0.011949 0.311002
vt 0.017557 0.118754
vt 0.011949 0.118754
vt 0.033136 0.481890
vt 0.011949 0.481890
vt 0.026329 0.332363
vt 0.011949 0.332363
vt 0.015931 0.140115
vt 0.011949 0.140115
vt 0.035734 0.503251
vt 0.011949 0.503251
vt 0.020943 0.353724
vt 0.011949 0.353724
vt 0.017557 0.161475
vt 0.011949 0.161475
vt 0.038522 0.524611
vt 0.011949 0.524611
vt 0.017557 0.375085
vt 0.011949 0.375085
vt 0.020943 0.182836
vt 0.011949 0.182836
vt 0.038522 0.011949
vt 0.035734 0.033310
vt 0.011949 0.033310
vt 0.011949 0.011949
vt 0.015931 0.396446
vt 0.011949 0.396446
vt 0.026329 0.204197
vt 0.011949 0.204197
vt 0.033136 0.054671
vt 0.011949 0.054671
vt 0.017557 0.417807
vt 0.011949 0.417807
vt 0.033136 0.225558
vt 0.011949 0.225558
s 1
f 1/1/1 2/2/2 338/3/3 339/4/1
f 38/5/4 37/6/5 61/7/6 62/8/7
f 16/9/8 15/10/9 39/11/10 40/12/11
f 9/13/12 8/14/13 32/15/14 33/16/15
f 24/17/16 23/18/17 47/19/18 48/20/19
f 2/21/20 1/22/21 26/23/22 25/24/23
f 17/25/24 16/9/8 40/12/11 41/26/25
f 10/27/26 9/13/12 33/16/15 34/28/27
f 1/22/21 24/17/16 48/20/19 26/23/22
f 3/29/28 2/21/20 25/24/23 27/30/29
f 18/31/30 17/25/24 41/26/25 42/32/31
f 11/33/32 10/27/26 34/28/27 35/34/33
f 4/35/34 3/29/28 27/30/29 28/36/35
f 19/37/36 18/31/30 42/32/31 43/38/37
f 12/39/38 11/33/32 35/34/33 36/40/39
f 5/41/40 4/35/34 28/36/35 29/42/41
f 20/43/42 19/37/36 43/38/37 44/44/43
f 13/45/44 12/39/38 36/40/39 37/46/5
f 6/47/45 5/41/40 29/42/41 30/48/46
f 21/49/47 20/43/42 44/44/43 45/50/48
f 14/51/49 13/52/44 37/6/5 38/5/4
f 7/53/50 6/47/45 30/48/46 31/54/51
f 22/55/52 21/49/47 45/50/48 46/56/53
f 15/10/9 14/51/49 38/5/4 39/11/10
f 8/14/13 7/53/50 31/54/51 32/15/14
f 23/18/17 22/55/52 46/56/53 47/19/18
f 51/57/54 49/58/55 73/59/3 75/60/56
f 31/54/51 30/48/46 54/61/57 55/62/58
f 46/56/53 45/50/48 69/63/59 70/64/60
f 39/11/10 38/5/4 62/8/7 63/65/61
f 32/15/14 31/54/51 55/62/58 56/66/62
f 47/19/18 46/56/53 70/64/60 71/67/63
f 40/12/11 39/11/10 63/65/61 64/68/64
f 33/16/15 32/15/14 56/66/62 57/69/65
f 48/20/19 47/19/18 71/67/63 72/70/66
f 25/24/23 26/23/22 50/71/67 49/58/55
f 41/26/25 40/12/11 64/68/64 65/72/68
f 34/28/27 33/16/15 57/69/65 58/73/69
f 26/23/22 48/20/19 72/70/66 50/71/67
f 27/30/29 25/24/23 49/58/55 51/57/54
f 42/32/31 41/26/25 65/72/68 66/74/70
f 35/34/33 34/28/27 58/73/69 59/75/71
f 28/36/35 27/30/29 51/57/54 52/76/72
f 43/38/37 42/32/31 66/74/70 67/77/73
f 36/40/39 35/34/33 59/75/71 60/78/74
f 29/42/41 28/36/35 52/76/72 53/79/75
f 44/44/43 43/38/37 67/77/73 68/80/76
f 37/46/5 36/40/39 60/78/74 61/81/6
f 30/48/46 29/42/41 53/79/75 54/61/57
f 45/50/48 44/44/43 68/80/76 69/63/59
f 78/82/77 77/83/78 101/84/78 102/85/77
f 66/74/70 65/72/68 89/86/79 90/87/80
f 59/75/71 58/73/69 82/88/81 83/89/82
f 52/76/72 51/57/54 75/60/56 76/90/83
f 67/77/73 66/74/70 90/87/80 91/91/84
f 60/78/74 59/75/71 83/89/82 84/92/85
f 53/79/75 52/76/72 76/90/83 77/83/78
f 68/80/76 67/77/73 91/91/84 92/93/86
f 61/81/6 60/78/74 84/92/85 85/94/87
f 54/61/57 53/79/75 77/83/78 78/82/77
f 69/63/59 68/80/76 92/93/86 93/95/88
f 62/8/7 61/7/6 85/96/87 86/97/89
f 55/62/58 54/61/57 78/82/77 79/98/90
f 70/64/60 69/63/59 93/95/88 94/99/91
f 63/65/61 62/8/7 86/97/89 87/100/92
f 56/66/62 55/62/58 79/98/90 80/101/93
f 71/67/63 70/64/60 94/99/91 95/102/94
f 64/68/64 63/65/61 87/100/92 88/103/95
f 57/69/65 56/66/62 80/101/93 81/104/96
f 72/70/66 71/67/63 95/102/94 96/105/97
f 49/58/55 50/71/67 74/106/1 73/59/3
f 65/72/68 64/68/64 88/103/95 89/86/79
f 58/73/69 57/69/65 81/104/96 82/88/81
f 50/71/67 72/70/66 96/105/97 74/106/1
f 113/107/98 112/108/98 136/109/98 137/110/98
f 93/95/88 92/93/86 116/111/86 117/112/88
f 86/97/89 85/96/87 109/113/87 110/114/89
f 79/98/90 78/82/77 102/85/77 103/115/90
f 94/99/91 93/95/88 117/112/88 118/116/91
f 87/100/92 86/97/89 110/114/89 111/117/92
f 80/101/93 79/98/90 103/115/90 104/118/93
f 95/102/94 94/99/91 118/116/91 119/119/94
f 88/103/95 87/100/92 111/117/92 112/120/95
f 81/104/96 80/101/93 104/118/93 105/121/96
f 96/105/97 95/102/94 119/119/94 120/122/97
f 73/59/3 74/106/1 98/123/1 97/124/3
f 89/86/79 88/103/95 112/120/95 113/125/79
f 82/88/81 81/104/96 105/121/96 106/126/81
f 74/106/1 96/105/97 120/122/97 98/123/1
f 75/60/56 73/59/3 97/124/3 99/127/56
f 90/87/80 89/86/79 113/125/79 114/128/80
f 83/89/82 82/88/81 106/126/81 107/129/82
f 76/90/83 75/60/56 99/127/56 100/130/83
f 91/91/84 90/87/80 114/128/80 115/131/84
f 84/92/85 83/89/82 107/129/82 108/132/85
f 77/83/78 76/90/83 100/130/83 101/84/78
f 92/93/86 91/91/84 115/131/84 116/111/86
f 85/94/87 84/92/85 108/132/85 109/133/87
f 126/134/99 125/135/100 149/136/101 150/137/102
f 106/138/98 105/139/98 129/140/98 130/141/98
f 98/142/98 120/143/98 144/144/98 122/145/98
f 99/146/98 97/147/98 121/148/98 123/149/98
f 114/150/98 113/107/98 137/110/98 138/151/98
f 107/152/98 106/138/98 130/141/98 131/153/98
f 100/154/98 99/146/98 123/149/98 124/155/98
f 115/156/98 114/150/98 138/151/98 139/157/98
f 108/158/98 107/152/98 131/153/98 132/159/98
f 101/160/98 100/154/98 124/155/98 125/135/98
f 116/161/98 115/156/98 139/157/98 140/162/98
f 109/163/98 108/158/98 132/159/98 133/164/98
f 102/165/98 101/160/98 125/135/98 126/134/98
f 117/166/98 116/161/98 140/162/98 141/167/98
f 110/168/98 109/163/98 133/164/98 134/169/98
f 103/170/98 102/165/98 126/134/98 127/171/98
f 118/172/98 117/166/98 141/167/98 142/173/98
f 111/174/98 110/168/98 134/169/98 135/175/98
f 104/176/98 103/170/98 127/171/98 128/177/98
f 119/178/98 118/172/98 142/173/98 143/179/98
f 112/108/98 111/174/98 135/175/98 136/109/98
f 105/139/98 104/176/98 128/177/98 129/140/98
f 120/143/98 119/178/98 143/179/98 144/144/98
f 97/147/98 98/142/98 122/145/98 121/148/98
f 253/180/103 249/181/104 178/182/105 179/183/106
f 141/167/107 140/162/108 164/184/109 165/185/110
f 134/169/111 133/164/112 157/186/113 158/187/114
f 127/171/115 126/134/99 150/137/102 151/188/116
f 142/173/117 141/167/107 165/185/110 166/189/118
f 135/175/119 134/169/111 158/187/114 159/190/120
f 128/177/121 127/171/115 151/188/116 152/191/122
f 143/179/123 142/173/117 166/189/118 167/192/124
f 136/109/125 135/175/119 159/190/120 160/193/126
f 129/140/127 128/177/121 152/191/122 153/194/128
f 144/144/129 143/179/123 167/192/124 168/195/130
f 121/148/131 122/145/132 146/196/133 145/197/134
f 137/110/135 136/109/125 160/193/126 161/198/136
f 130/141/137 129/140/127 153/194/128 154/199/138
f 122/145/132 144/144/129 168/195/130 146/196/133
f 123/149/139 121/148/131 145/197/134 147/200/140
f 138/151/141 137/110/135 161/198/136 162/201/142
f 131/153/143 130/141/137 154/199/138 155/202/144
f 124/155/145 123/149/139 147/200/140 148/203/146
f 139/157/147 138/151/141 162/201/142 163/204/148
f 132/159/149 131/153/143 155/202/144 156/205/150
f 125/135/100 124/155/145 148/203/146 149/136/101
f 140/162/108 139/157/147 163/204/148 164/184/109
f 133/164/112 132/159/149 156/205/150 157/186/113
f 306/206/151 301/207/152 192/208/153 170/209/154
f 145/197/134 146/196/133 305/210/155 217/211/156
f 281/212/157 277/213/158 186/214/159 187/215/160
f 257/216/161 253/180/103 179/183/106 180/217/162
f 229/218/163 225/219/164 172/220/165 173/221/166
f 285/222/167 281/212/157 187/215/160 188/223/168
f 157/186/113 156/205/150 258/224/169 310/225/170
f 233/226/171 229/218/163 173/221/166 174/227/172
f 289/228/173 285/222/167 188/223/168 189/229/174
f 309/230/175 257/216/161 180/217/162 181/231/176
f 237/232/177 233/226/171 174/227/172 175/233/178
f 293/234/179 289/228/173 189/229/174 190/235/180
f 262/236/181 309/230/175 181/231/176 182/237/182
f 241/238/183 237/232/177 175/233/178 176/239/184
f 297/240/185 293/234/179 190/235/180 191/241/186
f 158/187/114 157/186/113 310/225/170 261/242/187
f 245/243/188 241/238/183 176/239/184 177/244/189
f 301/207/152 297/240/185 191/241/186 192/208/153
f 273/245/190 269/246/191 184/247/192 185/248/193
f 249/181/104 245/243/188 177/244/189 178/182/105
f 146/196/133 168/195/130 302/249/194 305/210/155
f 218/250/195 306/206/151 170/209/154 169/251/196
f 277/213/158 273/245/190 185/248/193 186/214/159
f 154/199/138 153/194/128 246/252/197 250/253/198
f 182/237/182 181/231/176 325/254/199 326/255/200
f 147/200/140 145/197/134 217/211/156 222/256/201
f 162/201/142 161/198/136 274/257/202 278/258/203
f 155/202/144 154/199/138 250/253/198 254/259/204
f 148/203/146 147/200/140 222/256/201 226/260/205
f 163/204/148 162/201/142 278/258/203 282/261/206
f 156/205/150 155/202/144 254/259/204 258/224/169
f 149/136/101 148/203/146 226/260/205 230/262/207
f 164/184/109 163/204/148 282/261/206 286/263/208
f 265/264/209 262/236/181 182/237/182 183/265/210
f 150/137/102 149/136/101 230/262/207 234/266/211
f 165/185/110 164/184/109 286/263/208 290/267/212
f 269/246/191 265/264/209 183/265/210 184/247/192
f 151/188/116 150/137/102 234/266/211 238/268/213
f 166/189/118 165/185/110 290/267/212 294/269/214
f 159/190/120 158/187/114 261/242/187 266/270/215
f 152/191/122 151/188/116 238/268/213 242/271/216
f 167/192/124 166/189/118 294/269/214 298/272/217
f 160/193/126 159/190/120 266/270/215 270/273/218
f 153/194/128 152/191/122 242/271/216 246/252/197
f 168/195/130 167/192/124 298/272/217 302/249/194
f 225/219/164 221/274/219 171/275/220 172/220/165
f 161/198/136 160/193/126 270/273/218 274/257/202
f 207/276/221 206/277/222 337/278/223
f 175/233/178 174/227/172 318/279/224 319/280/225
f 190/235/180 189/229/174 333/281/226 334/282/227
f 183/265/210 182/237/182 326/255/200 327/283/228
f 176/239/184 175/233/178 319/280/225 320/284/229
f 191/241/186 190/235/180 334/282/227 335/285/230
f 184/247/192 183/265/210 327/283/228 328/286/231
f 177/244/189 176/239/184 320/284/229 321/287/232
f 192/208/153 191/241/186 335/285/230 336/288/233
f 169/251/196 170/209/154 314/289/234 313/290/235
f 185/248/193 184/247/192 328/286/231 329/291/236
f 178/182/105 177/244/189 321/287/232 322/292/237
f 170/209/154 192/208/153 336/288/233 314/289/234
f 171/275/220 169/251/196 313/290/235 315/293/238
f 186/214/159 185/248/193 329/291/236 330/294/239
f 179/183/106 178/182/105 322/292/237 323/295/240
f 172/220/165 171/275/220 315/293/238 316/296/241
f 187/215/160 186/214/159 330/294/239 331/297/242
f 180/217/162 179/183/106 323/295/240 324/298/243
f 173/221/166 172/220/165 316/296/241 317/299/244
f 188/223/168 187/215/160 331/297/242 332/300/245
f 181/231/176 180/217/162 324/298/243 325/254/199
f 174/227/172 173/221/166 317/299/244 318/279/224
f 189/229/174 188/223/168 332/300/245 333/281/226
f 222/256/201 217/211/156 219/301/246 224/302/247
f 224/303/248 219/304/249 220/305/250 223/306/248
f 223/306/251 220/305/252 218/250/195 221/274/219
f 226/260/205 222/256/201 224/302/247 228/307/253
f 228/308/254 224/303/248 223/306/248 227/309/254
f 227/309/255 223/306/251 221/274/219 225/219/164
f 230/262/207 226/260/205 228/307/253 232/310/256
f 232/311/257 228/308/254 227/309/254 231/312/257
f 231/312/258 227/309/255 225/219/164 229/218/163
f 234/266/211 230/262/207 232/310/256 236/313/259
f 236/314/260 232/311/257 231/312/257 235/315/260
f 235/315/261 231/312/258 229/218/163 233/226/171
f 238/268/213 234/266/211 236/313/259 240/316/262
f 240/317/263 236/314/260 235/315/260 239/318/263
f 239/318/264 235/315/261 233/226/171 237/232/177
f 242/271/216 238/268/213 240/316/262 244/319/265
f 244/320/266 240/317/263 239/318/263 243/321/266
f 243/321/267 239/318/264 237/232/177 241/238/183
f 246/252/197 242/271/216 244/319/265 248/322/268
f 248/323/269 244/320/266 243/321/266 247/324/269
f 247/324/270 243/321/267 241/238/183 245/243/188
f 250/253/198 246/252/197 248/322/268 252/325/271
f 252/326/272 248/323/269 247/324/269 251/327/272
f 251/327/273 247/324/270 245/243/188 249/181/104
f 254/259/204 250/253/198 252/325/271 256/328/274
f 256/329/275 252/326/272 251/327/272 255/330/275
f 255/330/276 251/327/273 249/181/104 253/180/103
f 258/224/169 254/259/204 256/328/274 260/331/277
f 260/332/278 256/329/275 255/330/275 259/333/279
f 259/333/280 255/330/276 253/180/103 257/216/161
f 266/270/215 261/242/187 263/334/281 268/335/282
f 268/336/283 263/337/284 264/338/285 267/339/283
f 267/339/286 264/338/287 262/236/181 265/264/209
f 270/273/218 266/270/215 268/335/282 272/340/288
f 272/341/289 268/336/283 267/339/283 271/342/289
f 271/342/290 267/339/286 265/264/209 269/246/191
f 274/257/202 270/273/218 272/340/288 276/343/291
f 276/344/292 272/341/289 271/342/289 275/345/292
f 275/345/293 271/342/290 269/246/191 273/245/190
f 278/258/203 274/257/202 276/343/291 280/346/294
f 280/347/295 276/344/292 275/345/292 279/348/295
f 279/348/296 275/345/293 273/245/190 277/213/158
f 282/261/206 278/258/203 280/346/294 284/349/297
f 284/350/298 280/347/295 279/348/295 283/351/298
f 283/351/299 279/348/296 277/213/158 281/212/157
f 286/263/208 282/261/206 284/349/297 288/352/300
f 288/353/301 284/350/298 283/351/298 287/354/301
f 287/354/302 283/351/299 281/212/157 285/222/167
f 290/267/212 286/263/208 288/352/300 292/355/303
f 292/356/304 288/353/301 287/354/301 291/357/304
f 291/357/305 287/354/302 285/222/167 289/228/173
f 294/269/214 290/267/212 292/355/303 296/358/306
f 296/359/307 292/356/304 291/357/304 295/360/307
f 295/360/308 291/357/305 289/228/173 293/234/179
f 298/272/217 294/269/214 296/358/306 300/361/309
f 300/362/310 296/359/307 295/360/307 299/363/310
f 299/363/311 295/360/308 293/234/179 297/240/185
f 302/249/194 298/272/217 300/361/309 304/364/312
f 304/365/313 300/362/310 299/363/310 303/366/314
f 303/366/315 299/363/311 297/240/185 301/207/152
f 217/211/156 305/210/155 307/367/316 219/301/246
f 219/304/249 307/368/317 308/369/317 220/305/250
f 220/305/252 308/369/318 306/206/151 218/250/195
f 310/225/170 258/224/169 260/331/277 312/370/319
f 312/371/320 260/332/278 259/333/279 311/372/320
f 311/372/321 259/333/280 257/216/161 309/230/175
f 261/242/187 310/225/170 312/370/319 263/334/281
f 263/337/284 312/371/320 311/372/320 264/338/285
f 264/338/287 311/372/321 309/230/175 262/236/181
f 305/210/155 302/249/194 304/364/312 307/367/316
f 307/368/317 304/365/313 303/366/314 308/369/317
f 308/369/318 303/366/315 301/207/152 306/206/151
f 221/274/219 218/250/195 169/251/196 171/275/220
f 194/373/223 193/374/223 313/290/223 314/289/223
f 193/374/223 195/375/223 315/293/223 313/290/223
f 195/375/223 196/376/223 316/296/223 315/293/223
f 196/376/223 197/377/223 317/299/223 316/296/223
f 197/377/223 198/378/223 318/279/223 317/299/223
f 198/378/223 199/379/223 319/280/223 318/279/223
f 199/379/223 200/380/223 320/284/223 319/280/223
f 200/380/223 201/381/223 321/287/223 320/284/223
f 201/381/223 202/382/223 322/292/223 321/287/223
f 202/382/223 203/383/223 323/295/223 322/292/223
f 203/383/223 204/384/223 324/298/223 323/295/223
f 204/384/223 205/385/223 325/254/223 324/298/223
f 205/385/223 206/386/223 326/255/223 325/254/223
f 206/386/223 207/387/223 327/283/223 326/255/223
f 207/387/223 208/388/223 328/286/223 327/283/223
f 208/388/223 209/389/223 329/291/223 328/286/223
f 209/389/223 210/390/223 330/294/223 329/291/223
f 210/390/223 211/391/223 331/297/223 330/294/223
f 211/391/223 212/392/223 332/300/223 331/297/223
f 212/392/223 213/393/223 333/281/223 332/300/223
f 213/393/223 214/394/223 334/282/223 333/281/223
f 214/394/223 215/395/223 335/285/223 334/282/223
f 215/395/223 216/396/223 336/288/223 335/285/223
f 216/396/223 194/373/223 314/289/223 336/288/223
f 200/397/322 199/398/323 337/278/223
f 215/399/324 214/400/325 337/278/223
f 208/401/326 207/276/221 337/278/223
f 201/402/327 200/397/322 337/278/223
f 216/403/328 215/399/324 337/278/223
f 193/404/329 194/405/330 337/278/223
f 209/406/331 208/401/326 337/278/223
f 202/407/332 201/402/327 337/278/223
f 194/405/330 216/403/328 337/278/223
f 195/408/333 193/404/329 337/278/223
f 210/409/334 209/406/331 337/278/223
f 203/410/335 202/407/332 337/278/223
f 196/411/336 195/408/333 337/278/223
f 211/412/337 210/409/334 337/278/223
f 204/413/338 203/410/335 337/278/223
f 197/414/339 196/411/336 337/278/223
f 212/415/340 211/412/337 337/278/223
f 205/416/341 204/413/338 337/278/223
f 198/417/342 197/414/339 337/278/223
f 213/418/343 212/415/340 337/278/223
f 206/419/222 205/416/341 337/278/223
f 199/398/323 198/417/342 337/278/223
f 214/400/325 213/418/343 337/278/223
f 338/420/98 340/421/98 341/422/98 342/423/98 343/424/98 344/425/98 345/426/98 346/427/98 347/428/98 348/429/98 349/430/98 350/431/98 351/432/98 352/433/98 353/434/98 354/435/98 355/436/98 356/437/98 357/438/98 358/439/98 359/440/98 360/441/98 361/442/98 339/443/98
f 16/444/344 17/445/345 354/446/79 353/447/95
f 9/448/346 10/449/347 347/450/81 346/451/96
f 24/452/348 1/1/1 339/4/1 361/453/97
f 2/2/2 3/454/349 340/455/56 338/3/3
f 17/445/345 18/456/350 355/457/80 354/446/79
f 10/449/347 11/458/351 348/459/82 347/450/81
f 3/454/349 4/460/352 341/461/83 340/455/56
f 18/456/350 19/462/84 356/463/84 355/457/80
f 11/458/351 12/464/353 349/465/85 348/459/82
f 4/460/352 5/466/354 342/467/78 341/461/83
f 19/462/84 20/468/355 357/469/86 356/463/84
f 12/464/353 13/470/87 350/471/87 349/465/85
f 5/466/354 6/472/356 343/473/77 342/467/78
f 20/468/355 21/474/357 358/475/88 357/469/86
f 13/476/87 14/477/358 351/478/89 350/479/87
f 6/472/356 7/480/90 344/481/90 343/473/77
f 21/474/357 22/482/359 359/483/91 358/475/88
f 14/477/358 15/484/360 352/485/92 351/478/89
f 7/480/90 8/486/361 345/487/93 344/481/90
f 22/482/359 23/488/362 360/489/94 359/483/91
f 15/484/360 16/444/344 353/447/95 352/485/92
f 8/486/361 9/448/346 346/451/96 345/487/93
f 23/488/362 24/452/348 361/453/97 360/489/94
